<?xml version="1.0" encoding="utf-8"?>
<!-- Generator: Adobe Illustrator 17.0.0, SVG Export Plug-In . SVG Version: 6.00 Build 0)  -->
<!DOCTYPE svg PUBLIC "-//W3C//DTD SVG 1.1//EN" "http://www.w3.org/Graphics/SVG/1.1/DTD/svg11.dtd">
<svg version="1.1" id="图层_1" xmlns="http://www.w3.org/2000/svg" xmlns:xlink="http://www.w3.org/1999/xlink" x="0px" y="0px"
	 width="20px" height="20px" viewBox="0 0 20 20" style="enable-background:new 0 0 20 20;" xml:space="preserve">
<g>
	<g>
		<path style="fill:#F4A316;" d="M6.8,7H5.3C5.1,7,5,7.1,5,7.3v6.5C5,13.9,5.1,14,5.3,14h1.5C6.9,14,7,13.9,7,13.8V7.3
			C7,7.1,6.9,7,6.8,7z M14.7,7h-1.5C13.1,7,13,7.1,13,7.3v6.5c0,0.1,0.1,0.2,0.3,0.2h1.5c0.2,0,0.3-0.1,0.3-0.2V7.3
			C15,7.1,14.9,7,14.7,7z M10,0C4.5,0,0,4.5,0,10c0,5.5,4.5,10,10,10s10-4.5,10-10C20,4.5,15.5,0,10,0z M10,19c-5,0-9-4-9-9
			c0-5,4-9,9-9s9,4,9,9C19,15,15,19,10,19z M11.7,9.8h-0.7V6.2c0-0.1-0.1-0.2-0.2-0.2H9.2C9.1,6,8.9,6.1,8.9,6.2v3.6H8.3
			c-0.2,0-0.3,0.3-0.2,0.4l1.7,2.2c0.1,0.1,0.3,0.1,0.4,0l1.7-2.2C12,10.1,12,10,12,9.9C11.9,9.8,11.8,9.8,11.7,9.8z"/>
	</g>
</g>
</svg>
