<?xml version="1.0" encoding="utf-8"?>
<!-- Generator: Adobe Illustrator 17.0.0, SVG Export Plug-In . SVG Version: 6.00 Build 0)  -->
<!DOCTYPE svg PUBLIC "-//W3C//DTD SVG 1.1//EN" "http://www.w3.org/Graphics/SVG/1.1/DTD/svg11.dtd">
<svg version="1.1" id="图层_1" xmlns="http://www.w3.org/2000/svg" xmlns:xlink="http://www.w3.org/1999/xlink" x="0px" y="0px"
	 width="20px" height="20px" viewBox="0 0 20 20" style="enable-background:new 0 0 20 20;" xml:space="preserve">
<g id="exit_6_">
	<g id="XMLID_3837_">
		<path style="opacity:0.35;fill:#FFFFFF;" d="M10,19.5c-5.2,0-9.5-4.3-9.5-9.5S4.8,0.5,10,0.5s9.5,4.3,9.5,9.5S15.2,19.5,10,19.5z"
			/>
		<path style="fill:#FFFFFF;" d="M10,1c5,0,9,4,9,9s-4,9-9,9s-9-4-9-9S5,1,10,1 M10,0C4.5,0,0,4.5,0,10s4.5,10,10,10s10-4.5,10-10
			S15.5,0,10,0L10,0z"/>
	</g>
	<g id="XMLID_3836_">
		
			<rect x="9.5" y="5.3" transform="matrix(0.7071 0.7071 -0.7071 0.7071 10.0002 -4.1422)" style="fill:#FFFFFF;" width="1" height="9.5"/>
	</g>
	<g id="XMLID_3835_">
		
			<rect x="5.3" y="9.5" transform="matrix(0.7071 0.7071 -0.7071 0.7071 10.0002 -4.1422)" style="fill:#FFFFFF;" width="9.5" height="1"/>
	</g>
</g>
</svg>
