<?xml version="1.0" encoding="utf-8"?>
<!-- Generator: Adobe Illustrator 17.0.0, SVG Export Plug-In . SVG Version: 6.00 Build 0)  -->
<!DOCTYPE svg PUBLIC "-//W3C//DTD SVG 1.1//EN" "http://www.w3.org/Graphics/SVG/1.1/DTD/svg11.dtd">
<svg version="1.1" id="图层_1" xmlns="http://www.w3.org/2000/svg" xmlns:xlink="http://www.w3.org/1999/xlink" x="0px" y="0px"
	 width="20px" height="20px" viewBox="0 0 20 20" style="enable-background:new 0 0 20 20;" xml:space="preserve">
<path style="fill:#0FA30F;" d="M10,0C4.5,0,0,4.5,0,10s4.5,10,10,10s10-4.5,10-10S15.5,0,10,0z"/>
<path style="fill:#FFFFFF;" d="M10,14c-2.8,0-5.2-1.6-6-4c1-3,4.6-4.7,7.9-3.8c2,0.6,3.5,2,4.1,3.8C15.2,12.4,12.8,14,10,14L10,14z
	 M10,7.9c-1.3,0-2.3,0.9-2.3,2.1c0,1.2,1,2.1,2.3,2.1c1.3,0,2.3-0.9,2.3-2.1C12.3,8.9,11.3,7.9,10,7.9L10,7.9z M10,11.6
	c-1,0-1.7-0.7-1.7-1.6C8.3,9.1,9,8.4,10,8.4c1,0,1.7,0.7,1.7,1.6C11.7,10.9,11,11.6,10,11.6L10,11.6z M10,11.6"/>
</svg>
