<?xml version="1.0" encoding="utf-8"?>
<!-- Generator: Adobe Illustrator 17.0.0, SVG Export Plug-In . SVG Version: 6.00 Build 0)  -->
<!DOCTYPE svg PUBLIC "-//W3C//DTD SVG 1.1//EN" "http://www.w3.org/Graphics/SVG/1.1/DTD/svg11.dtd">
<svg version="1.1" id="图层_1" xmlns="http://www.w3.org/2000/svg" xmlns:xlink="http://www.w3.org/1999/xlink" x="0px" y="0px"
	 width="20px" height="20px" viewBox="0 0 20 20" style="enable-background:new 0 0 20 20;" xml:space="preserve">
<path style="fill:#0FA30F;" d="M13.7,15.3c-3.5,0-8.8-5.6-8.8-8.6c0-1.2,1-2,1.8-2c0.9,0,2.4,2.6,2.4,3.2c0,0.4-0.2,0.7-0.3,0.9
	C8.7,8.9,8.7,9,8.7,9.2c0.2,0.4,1.7,2.1,2.2,2.2c0.1,0,0.3-0.1,0.4-0.2c0.3-0.2,0.6-0.3,0.9-0.3c0.6,0,3.3,1.7,3.3,2.4
	C15.5,14.7,14.8,15.3,13.7,15.3L13.7,15.3z"/>
<path style="fill:#0FA30F;" d="M10,0C4.5,0,0,4.5,0,10c0,5.5,4.5,10,10,10c5.5,0,10-4.5,10-10C20,4.5,15.5,0,10,0z M10,19
	c-5,0-9-4-9-9c0-5,4-9,9-9c5,0,9,4.1,9,9C19,15,15,19,10,19z"/>
</svg>
