<?xml version="1.0" encoding="utf-8"?>
<!-- Generator: Adobe Illustrator 17.0.0, SVG Export Plug-In . SVG Version: 6.00 Build 0)  -->
<!DOCTYPE svg PUBLIC "-//W3C//DTD SVG 1.1//EN" "http://www.w3.org/Graphics/SVG/1.1/DTD/svg11.dtd">
<svg version="1.1" id="图层_1" xmlns="http://www.w3.org/2000/svg" xmlns:xlink="http://www.w3.org/1999/xlink" x="0px" y="0px"
	 width="20px" height="20px" viewBox="0 0 20 20" style="enable-background:new 0 0 20 20;" xml:space="preserve">
<path style="fill:#DA1C05;" d="M17.1,17.1c3.9-3.9,3.9-10.2,0-14.1C13.2-1,6.8-1,2.9,2.9C-1,6.8-1,13.2,2.9,17.1
	C6.8,20.9,13.2,21,17.1,17.1z M3.7,8.9c2.5-2.5,10.2-2.2,12.3-0.1c0.8,0.8,0.7,2.1,0.1,2.7c-0.6,0.6-3.5-0.1-3.9-0.5
	c-0.3-0.3-0.4-0.6-0.4-0.9c0-0.2-0.1-0.3-0.2-0.4c-0.4-0.2-2.7-0.2-3.1,0c-0.1,0.1-0.1,0.3-0.2,0.4c-0.1,0.3-0.2,0.6-0.4,0.9
	c-0.4,0.4-3.5,1.1-4,0.6C2.8,10.6,2.9,9.6,3.7,8.9z"/>
</svg>
