<svg id="组_174" data-name="组 174" xmlns="http://www.w3.org/2000/svg" width="35" height="42" viewBox="0 0 35 42">
  <metadata><?xpacket begin="﻿" id="W5M0MpCehiHzreSzNTczkc9d"?>
<x:xmpmeta xmlns:x="adobe:ns:meta/" x:xmptk="Adobe XMP Core 5.6-c138 79.159824, 2016/09/14-01:09:01        ">
   <rdf:RDF xmlns:rdf="http://www.w3.org/1999/02/22-rdf-syntax-ns#">
      <rdf:Description rdf:about=""/>
   </rdf:RDF>
</x:xmpmeta>
                                                                                                    
                                                                                                    
                                                                                                    
                                                                                                    
                                                                                                    
                                                                                                    
                                                                                                    
                                                                                                    
                                                                                                    
                                                                                                    
                                                                                                    
                                                                                                    
                                                                                                    
                                                                                                    
                                                                                                    
                                                                                                    
                                                                                                    
                                                                                                    
                                                                                                    
                                                                                                    
                           
<?xpacket end="w"?></metadata>
<defs>
    <style>
      .cls-1 {
        fill: #fff;
      }

      .cls-2 {
        fill: #07dadd;
      }

      .cls-2, .cls-3 {
        fill-rule: evenodd;
      }

      .cls-3 {
        fill: #00dfd7;
      }
    </style>
  </defs>
  <circle id="椭圆_10_拷贝_5" data-name="椭圆 10 拷贝 5" class="cls-1" cx="17.5" cy="17.5" r="14"/>
  <path id="形状_2510_拷贝_7" data-name="形状 2510 拷贝 7" class="cls-2" d="M528.508,461a17.4,17.4,0,0,0-13.115,28.958,1.914,1.914,0,0,0,.287.4l11.372,11.862a2.266,2.266,0,0,0,.18.222,1.786,1.786,0,0,0,.581.385,1.744,1.744,0,0,0,1.979-.328,1.726,1.726,0,0,0,.344-0.5l11.159-11.641a1.558,1.558,0,0,0,.262-0.344A17.4,17.4,0,0,0,528.508,461ZM528.5,490.186a12.517,12.517,0,1,1,12.575-12.517A12.553,12.553,0,0,1,528.5,490.186Z" transform="translate(-511 -461)"/>
  <path id="形状_2518" data-name="形状 2518" class="cls-3" d="M522.4,479.892a0.485,0.485,0,0,1-.3-0.1l-1.9-1.483a0.528,0.528,0,0,1-.2-0.44,0.52,0.52,0,0,1,.237-0.418l11.258-7.2h0a1.593,1.593,0,0,1,2.167.451l0.012,0.019,1.808,2.835a0.538,0.538,0,0,1,.072.4,0.518,0.518,0,0,1-.227.331l-6.683,4.272a0.481,0.481,0,0,1-.639-0.1,2.884,2.884,0,0,0-.815-0.628,1.723,1.723,0,0,0-1.769.066,23.591,23.591,0,0,0-2.706,1.886,0.478,0.478,0,0,1-.317.118h0Zm-1.014-1.96,1.009,0.787a26.675,26.675,0,0,1,2.522-1.727,2.671,2.671,0,0,1,2.747-.086,3.829,3.829,0,0,1,.789.551l5.912-3.779-1.515-2.377a0.62,0.62,0,0,0-.833-0.166Zm0,0,5.236,4.221a0.494,0.494,0,0,1-.417-0.233l-1.533-2.416a0.533,0.533,0,0,1,.142-0.72,0.489,0.489,0,0,1,.693.147l1.257,1.983,7.761-5.321-0.491-.806a0.536,0.536,0,0,1-.036-0.531,0.491,0.491,0,0,1,.88-0.024l0.755,1.237a0.533,0.533,0,0,1-.147.712l-8.589,5.887a0.485,0.485,0,0,1-.275.085h0Zm0,0-2,.109a0.5,0.5,0,0,1-.433-0.26l-0.852-1.532a0.531,0.531,0,0,1,.185-0.707,0.489,0.489,0,0,1,.681.187l0.594,1.068,0.748-.483a0.488,0.488,0,0,1,.688.167,0.532,0.532,0,0,1-.161.716l-1.186.766a0.488,0.488,0,0,1-.264.078h0Zm6.867-.451a1.774,1.774,0,0,1-1.638-1.138,1.9,1.9,0,0,1,.384-2.008,1.724,1.724,0,0,1,1.932-.4,1.845,1.845,0,0,1,1.094,1.7,1.81,1.81,0,0,1-1.772,1.842h0Zm0-2.646a0.772,0.772,0,0,0-.714.5,0.827,0.827,0,0,0,.167.876,0.754,0.754,0,0,0,.843.174,0.806,0.806,0,0,0,.477-0.742,0.791,0.791,0,0,0-.773-0.8h0Zm0,0-0.284.8a0.34,0.34,0,1,0,.34-0.353,0.347,0.347,0,0,0-.34.353h0Zm0,0M536.5,483.2h-4.129a1.846,1.846,0,0,1-1.807-1.879c0-.045,0-0.092,0-0.144a0.526,0.526,0,0,1,.226-0.4,0.486,0.486,0,0,1,.439-0.055,0.746,0.746,0,0,0,.7-0.1,0.812,0.812,0,0,0,.329-0.652v-0.012a0.51,0.51,0,0,1,.5-0.52H536.5a0.511,0.511,0,0,1,.5.52v2.718a0.511,0.511,0,0,1-.5.52h0Zm-4.793-1.4a0.8,0.8,0,0,0,.664.362H536v-1.679h-2.807a1.8,1.8,0,0,1-1.486,1.317h0Zm0,0M536.5,485a0.511,0.511,0,0,1-.5-0.52V478.3a0.5,0.5,0,1,1,1,0v6.178a0.511,0.511,0,0,1-.5.52h0Zm0,0" transform="translate(-511 -461)"/>
</svg>
