<svg xmlns="http://www.w3.org/2000/svg" xmlns:xlink="http://www.w3.org/1999/xlink" viewBox="0 0 26.5 19.61"><defs><style>.cls-1{opacity:0.8;}.cls-2{fill:url(#未命名的渐变_276);}.cls-3{fill:url(#未命名的渐变_38);}.cls-4{fill:url(#未命名的渐变_276-2);}.cls-5{fill:#00fff8;}</style><linearGradient id="未命名的渐变_276" x1="3.36" y1="13.45" x2="22.97" y2="13.45" gradientUnits="userSpaceOnUse"><stop offset="0" stop-color="#00edff" stop-opacity="0"/><stop offset="0.45" stop-color="#00edff"/><stop offset="0.53" stop-color="#06e3ff"/><stop offset="0.65" stop-color="#15c9ff"/><stop offset="0.81" stop-color="#2d9eff"/><stop offset="0.91" stop-color="#3e80ff"/></linearGradient><linearGradient id="未命名的渐变_38" x1="13.25" y1="19.61" x2="13.25" gradientUnits="userSpaceOnUse"><stop offset="0" stop-color="#2283ff"/><stop offset="0.5" stop-color="#5ff"/><stop offset="0.57" stop-color="#53f5ff"/><stop offset="0.7" stop-color="#4edbff"/><stop offset="0.85" stop-color="#47b0ff"/><stop offset="1" stop-color="#3e80ff"/></linearGradient><linearGradient id="未命名的渐变_276-2" x1="23.59" y1="17.47" x2="23.84" y2="17.47" xlink:href="#未命名的渐变_276"/></defs><title>资源 11</title><g id="图层_2" data-name="图层 2"><g id="图层_1-2" data-name="图层 1"><g class="cls-1"><path class="cls-2" d="M3.89,12.82H23v-.44H3.36v2.13h.53Zm0,0"/><path class="cls-3" d="M20.73,4.94C17.89,4,16.11.15,13.36,0h-.22C10.39.15,8.61,4,5.77,4.95,2.7,5.92-1,4,.23,8.11c.56,2,2.92,4.85,6.53,6.6H3.35a12,12,0,0,0,9.81,4.91A12,12,0,0,0,23,14.7H19.73c3.61-1.75,6-4.65,6.53-6.6C27.46,3.95,23.8,5.92,20.73,4.94ZM9.36,17.77a.3.3,0,0,1-.2-.07.24.24,0,0,1,0-.36L10.58,16l.08,0L11,16a.24.24,0,0,1,0,.35L9.55,17.7A.27.27,0,0,1,9.36,17.77Zm1.42.78a.3.3,0,0,1-.2-.08.25.25,0,0,1,0-.37l2.06-1.91h.8L11,18.48A.31.31,0,0,1,10.78,18.55Zm4.68-2.15-2.52,2.33a.3.3,0,0,1-.4,0,.25.25,0,0,1,0-.37L15,16.1l.49-.07A.25.25,0,0,1,15.46,16.4ZM11.2,5s1.45.51,2-.63c.57,1.14,2,.63,2,.63.46-.23.23.17,0,.71s-.15.52.16,1.91-.84,1.85-1.59,2a.59.59,0,0,1-1.14,0c-.76-.19-1.91-.65-1.59-2s.42-1.37.17-1.91S10.74,4.78,11.2,5Z"/><path class="cls-4" d="M23.84,17.51c-.12-.06-.2-.07-.25-.06l.25.06Zm0,0"/><rect class="cls-5" x="3.21" y="12.19" width="19.91" height="2.51"/></g></g></g></svg>