<?xml version="1.0" encoding="utf-8"?>
<!-- Generator: Adobe Illustrator 17.0.0, SVG Export Plug-In . SVG Version: 6.00 Build 0)  -->
<!DOCTYPE svg PUBLIC "-//W3C//DTD SVG 1.1//EN" "http://www.w3.org/Graphics/SVG/1.1/DTD/svg11.dtd">
<svg version="1.1" id="图层_1" xmlns="http://www.w3.org/2000/svg" xmlns:xlink="http://www.w3.org/1999/xlink" x="0px" y="0px"
	 viewBox="0 0 238 114" style="enable-background:new 0 0 238 114;" xml:space="preserve" preserveAspectRatio="none">
<g>
	<path style="fill-rule:evenodd;clip-rule:evenodd;fill:none;stroke:#086DFF;stroke-miterlimit:10;stroke-opacity:0.4;" d="
		M236.5,27.9l-0.3,59.2l-24.4,25.4H25.3L1.5,86.4l0.3-59.2L26,2h186.7L236.5,27.9z"/>
	<linearGradient id="SVGID_1_" gradientUnits="userSpaceOnUse" x1="8.5965" y1="56.997" x2="229.4008" y2="56.997">
		<stop  offset="0" style="stop-color:#51F6F9;stop-opacity:0"/>
		<stop  offset="0.5" style="stop-color:#51F6F9"/>
		<stop  offset="1" style="stop-color:#51F6F9;stop-opacity:0"/>
	</linearGradient>
	<path style="opacity:0.3;fill-rule:evenodd;clip-rule:evenodd;fill:url(#SVGID_1_);" d="M229.4,30v54.7l-22.6,22.2H31.2L8.6,84
		V29.3L31.2,7.1h11.4l22.8,22.8h107.3l22.8-22.8h11.4L229.4,30z"/>
	<linearGradient id="SVGID_2_" gradientUnits="userSpaceOnUse" x1="-2.918095e-003" y1="56.8414" x2="56.9066" y2="56.8414">
		<stop  offset="0" style="stop-color:#00FCFC"/>
		<stop  offset="1" style="stop-color:#00FCFC;stop-opacity:0"/>
	</linearGradient>
	
		<polyline style="fill-rule:evenodd;clip-rule:evenodd;fill:none;stroke:url(#SVGID_2_);stroke-width:3;stroke-miterlimit:10;" points="
		56.2,112.2 25.3,112.2 1.5,86.2 1.8,27 26,1.5 56.9,1.5 	"/>
	<linearGradient id="SVGID_3_" gradientUnits="userSpaceOnUse" x1="238.0001" y1="57.1601" x2="181.0908" y2="57.1601">
		<stop  offset="0" style="stop-color:#00FCFC"/>
		<stop  offset="1" style="stop-color:#00FCFC;stop-opacity:0"/>
	</linearGradient>
	
		<polyline style="fill-rule:evenodd;clip-rule:evenodd;fill:none;stroke:url(#SVGID_3_);stroke-width:3;stroke-miterlimit:10;" points="
		181.8,1.8 212.7,1.8 236.5,27.8 236.2,87 212,112.5 181.1,112.5 	"/>
</g>
</svg>
