<?xml version="1.0" encoding="utf-8"?>
<!-- Generator: Adobe Illustrator 17.0.0, SVG Export Plug-In . SVG Version: 6.00 Build 0)  -->
<!DOCTYPE svg PUBLIC "-//W3C//DTD SVG 1.1//EN" "http://www.w3.org/Graphics/SVG/1.1/DTD/svg11.dtd">
<svg version="1.1" id="图层_1" xmlns="http://www.w3.org/2000/svg" xmlns:xlink="http://www.w3.org/1999/xlink" x="0px" y="0px"
	 width="40px" height="40px" viewBox="0 0 40 40" style="enable-background:new 0 0 40 40;" xml:space="preserve">
<path style="fill:#DD180A;" d="M20.4,14.3c-3.9,0-7,3.2-7,7V28h13.9v-6.8C27.4,17.4,24.2,14.3,20.4,14.3L20.4,14.3z M20.3,12.9
	c-0.6,0-1.1-0.6-1.1-1.1V9.3c0-0.6,0.6-1.1,1.1-1.1c0.6,0,1.1,0.6,1.1,1.1v2.5C21.4,12.4,21,12.9,20.3,12.9L20.3,12.9z M24.8,14.4
	c-0.4-0.4-0.4-1.1,0-1.5l1.7-1.8c0.4-0.4,1.1-0.4,1.5,0c0.4,0.4,0.4,1.1,0,1.5l-1.5,1.8C26.1,14.9,25.4,14.9,24.8,14.4L24.8,14.4z
	 M15.7,14.4c0.4-0.4,0.4-1.1,0-1.5L14,11.1c-0.4-0.4-1.1-0.4-1.5,0c-0.4,0.4-0.4,1.1,0,1.5l1.7,1.8C14.6,14.9,15.2,14.9,15.7,14.4
	L15.7,14.4z M13.6,18.3c0.2-0.6-0.3-1.3-0.8-1.4l-2.5-0.6c-0.6-0.2-1.3,0.3-1.4,0.8c0,0.6,0.3,1.1,0.8,1.3l2.5,0.7
	C12.8,19.3,13.5,18.9,13.6,18.3L13.6,18.3z M27.1,18.3c-0.2-0.6,0.3-1.3,0.8-1.4l2.5-0.6c0.6-0.2,1.3,0.3,1.4,0.8
	c0.2,0.6-0.3,1.3-0.8,1.4l-2.5,0.6C27.9,19.3,27.2,18.9,27.1,18.3L27.1,18.3z M27.9,32.2h-15c-0.8,0-1.4-0.6-1.4-1.4
	c0-0.8,0.6-1.4,1.4-1.4h15c0.8,0,1.4,0.6,1.4,1.4C29.3,31.6,28.7,32.2,27.9,32.2L27.9,32.2z M27.9,32.2"/>
</svg>
