<svg xmlns="http://www.w3.org/2000/svg" xmlns:xlink="http://www.w3.org/1999/xlink" viewBox="0 0 832.11 190.05"  >
    <defs>
        <style>
            .cls-1,.cls-2,.cls-3,.cls-4,.cls-5,.cls-6,.cls-7{fill:none;}.cls-2{stroke:aqua;stroke-width:0.5px;opacity:0.05;}.cls-2,.cls-3,.cls-4,.cls-5,.cls-6,.cls-7{stroke-miterlimit:10;}.cls-3{stroke:#3ff;stroke-width:0.6px;opacity:0.14;}.cls-4{stroke:#6ff;stroke-width:0.7px;opacity:0.23;}.cls-5{stroke:#9ff;stroke-width:0.8px;opacity:0.32;}.cls-6{stroke:#cff;stroke-width:0.9px;opacity:0.41;}.cls-7{stroke:#fff;opacity:0.5;}.cls-8{isolation:isolate;}.cls-9{clip-path:url(#clip-path);}.cls-10,.cls-11,.cls-12,.cls-13,.cls-14,.cls-15,.cls-16,.cls-17,.cls-18,.cls-19{fill:#fff;}.cls-10{opacity:0.06;}.cls-11{opacity:0.33;}.cls-12{opacity:0.3;}.cls-13{opacity:0.35;}.cls-14{opacity:0.53;}.cls-15{opacity:0.51;}.cls-16{opacity:0.55;}.cls-17{opacity:0.54;}.cls-18{opacity:0.67;}
        </style>
        <clipPath id="clip-path" transform="translate(-111.79 -134.36)">
            <polygon class="cls-1" points="0 307.78 231.19 134.36 858.83 134.36 1090.02 307.78 0 307.78"/>
        </clipPath>
    </defs>
    <title>资源 58</title>
    <g id="图层_2" data-name="图层 2">
        <g id="图层_1-2" data-name="图层 1">
            <path class="cls-2"
                  d="M128.87,292.32l17.75,1.51H171l14.4-2.77,6.9-.77,6.43.73,3.71,1.36,12.66.09,11.9-1.59,16.21-3.64,5,.66-2.58,2.86,14.31,4.67h35.55l6.76-1.09,17.15,1.45-3.87,2.9-1.71,2.06L318,307l15.65-.2,6,1.89,5.25,1.07,7.55.71,3.84,2H375.6l5.55-.77,8,1.17,6.76.22,7,2.54,8.57-.22,6.87-1.23,4.39,1.32-2.95,7.09h5.7l1.37,1.62h17.33l9.83-2.88-3.45-4.08,5.3-2.37-1.43-3.5-4.25-1.75-1.77-3.74,2.31-2.77L446,301l2.87-2,7.73,0,4-1.41,10.26.33,7.62-1.15,5.46-1.73,13.4,6.25,7.49-.1,11-1.31,10.79-2.78,11.17,1.55,10.6.06,9.57,1.67,6.8,2.89,11.22-.1,5.86-2,14.35.14,8.26,3.7,7.42-3.64,5.9-4.82L616.27,291l-4.65-3.16,3.43-1.34-1-3.73L605.17,279l5.57-.88,3.92-2.1-5.42-2.1,5.59-1.79-.83-2.9,8.3-1.62,5.67-.83,5.74-2.69-1.61-2.31-10.41-.8-6.7-1.85.33-1.13,7.44-.68h1.79l19.29,0,2.61.29,13.76.12-1.11-2.22,3.5-.1-1-1.95,13.95,0,3.84-.24,1.67-1.55-.88-1.45,1.19-.21.81-2.5,5.11-.27,4.24-1.33,3.81-.18h0l5.57-.25,2.16-.79,4.33,0,3.65,1.1,5.69,6.38,21,1,4.38,5.19,16.22,5,11.57-.18,7.67-1.31,5.12-1.19,5.86,1.73,3.3,1.48,6.31.67,7.72,2.11,16.68,3.35,5.79.12,11.68,2.3,7.9.81,17.55-.08,5.32-.69.46-1.16,4.23,1.4,5.6.4,8.22,1.15L904,274l-5.81-4,6.21-.86-1.76-1.9,7.43-1.06-1.38-2.77,2.32-1.57,10.71-1.63-.68-3-5.88-3.3,11.67-4.2"
                  transform="translate(-111.79 -134.36)"/>
            <path class="cls-3"
                  d="M125.56,286.61l17.89,1.62H168l14.52-3,7-.83,6.48.79,3.74,1.46,12.76.1,12-1.71,16.34-3.91,5,.7-2.6,3.08,14.42,5h35.85l6.82-1.17,17.29,1.56-3.9,3.1L312,295.66l4.24,6.67,15.78-.22,6.06,2,5.29,1.15,7.61.77,3.88,2.13h19.48l5.6-.82,8,1.25,6.81.23,7.05,2.73,8.65-.23L417.4,310l4.42,1.41-3,7.62h5.75L426,320.8h17.46l9.92-3.09-3.49-4.38,5.36-2.55L453.79,307l-4.28-1.88-1.79-4,2.33-3-4.71-2.25,2.9-2.13,7.79.05,4-1.51,10.34.35,7.68-1.23,5.51-1.86,13.51,6.71,7.54-.11,11.14-1.4,10.88-3,11.26,1.67,10.69.06,9.65,1.79,6.86,3.11,11.31-.11,5.91-2.12,14.47.14,8.33,4,7.48-3.91,5.95-5.18-1.54-6-4.68-3.4,3.45-1.44-1-4-8.94-4,5.62-.95,4-2.25-5.47-2.25,5.65-1.93-.84-3.12,8.36-1.74,5.72-.89,5.79-2.88L633,253.78l-10.5-.85-6.75-2,.32-1.22,7.51-.73h1.8l19.45,0,2.64.31,13.87.13-1.12-2.39,3.53-.1-1-2.1,14.06,0,3.87-.26,1.69-1.66-.88-1.57,1.2-.22.81-2.68,5.15-.29,4.28-1.43,3.84-.19h0l5.61-.28,2.18-.84,4.37,0,3.68,1.18,5.73,6.85,21.15,1.12,4.42,5.58,16.35,5.37,11.66-.2,7.74-1.4,5.16-1.28,5.91,1.86,3.33,1.59,6.37.71,7.78,2.27,16.81,3.6,5.85.12,11.77,2.47,8,.88,17.7-.09,5.35-.74.47-1.25,4.26,1.51L884,266l8.28,1.23,14.8-.4-5.86-4.33,6.25-.93-1.77-2,7.49-1.14-1.39-3,2.34-1.69,10.8-1.75-.69-3.18-5.92-3.55,11.76-4.51"
                  transform="translate(-111.79 -134.36)"/>
            <path class="cls-4"
                  d="M122.25,280.89l18,1.73h24.76l14.64-3.18,7-.88,6.54.84L197,281l12.87.1L222,279.24l16.48-4.19,5.07.76-2.62,3.29,14.54,5.36h36.14l6.87-1.25,17.44,1.67L312,288.2l-1.74,2.37,4.27,7.13,15.91-.23,6.11,2.16,5.34,1.23,7.67.82,3.91,2.28h19.64l5.65-.88,8.1,1.34,6.87.25,7.1,2.92,8.72-.25,7-1.41,4.46,1.51-3,8.14h5.79l1.4,1.87h17.61l10-3.31-3.51-4.69,5.4-2.72-1.46-4-4.32-2-1.8-4.3,2.35-3.19-4.74-2.41,2.91-2.27,7.86,0,4-1.61,10.43.37,7.74-1.31,5.56-2,13.62,7.18,7.6-.12,11.23-1.49,11-3.2L538,288.19l10.78.07,9.73,1.92,6.92,3.32,11.4-.12,6-2.27,14.59.16,8.39,4.25,7.55-4.18,6-5.54-1.55-6.45L613,275.73l3.49-1.55-1-4.28-9-4.32,5.67-1,4-2.41-5.51-2.4,5.69-2.06-.84-3.33,8.42-1.86,5.77-1,5.84-3.08-1.64-2.66-10.58-.91-6.81-2.12.33-1.31,7.57-.78h1.81l19.61,0,2.66.34,14,.13-1.12-2.54,3.56-.12-1-2.24,14.18,0,3.9-.28,1.7-1.78-.89-1.67,1.21-.24.83-2.86,5.19-.32,4.31-1.53,3.87-.2h0l5.66-.3,2.2-.9,4.4,0,3.71,1.26,5.78,7.32,21.32,1.2,4.46,6,16.48,5.74,11.76-.21,7.8-1.5,5.21-1.37,6,2,3.37,1.7,6.41.77,7.85,2.42,16.95,3.85,5.89.13,11.87,2.64,8,.93,17.85-.09,5.4-.79.47-1.33,4.3,1.61,5.69.46,8.35,1.31,14.92-.42-5.91-4.64,6.3-1L908.81,252l7.55-1.22L915,247.6l2.36-1.81,10.89-1.87-.7-3.4-6-3.79,11.86-4.83"
                  transform="translate(-111.79 -134.36)"/>
            <path class="cls-5"
                  d="M118.94,275.18,137.13,277h25l14.75-3.39,7.08-.94,6.59.89,3.8,1.66,13,.12,12.2-1.94L236.09,269l5.11.81-2.64,3.5,14.66,5.7h36.44l6.92-1.33,17.58,1.78-4,3.54-1.76,2.52,4.31,7.59,16-.25,6.15,2.3,5.39,1.31,7.73.87,3.94,2.43h19.81l5.69-.93,8.17,1.42,6.92.27,7.17,3.1,8.79-.26,7-1.51,4.5,1.62-3,8.66h5.84l1.41,2h17.75l10.08-3.52-3.54-5,5.44-2.9-1.47-4.28-4.35-2.13-1.82-4.58,2.37-3.39L444,285.74l2.94-2.43,7.92.06,4.06-1.72,10.51.4,7.81-1.4,5.6-2.12,13.73,7.64,7.67-.12,11.32-1.6,11.06-3.4,11.45,1.9,10.86.07,9.81,2,7,3.54,11.5-.13,6-2.42,14.71.17,8.46,4.52,7.6-4.44,6-5.9-1.56-6.86-4.76-3.86,3.51-1.65-1-4.56-9.08-4.59,5.71-1.09,4-2.56-5.56-2.56,5.74-2.19-.85-3.55,8.5-2,5.81-1,5.89-3.29-1.65-2.82-10.67-1-6.87-2.27.34-1.39,7.63-.83H627l19.78,0,2.68.36,14.09.14-1.13-2.71,3.59-.12-1-2.39,14.3,0,3.93-.29,1.71-1.89L684,223.7l1.22-.26.83-3.05,5.23-.33,4.35-1.63,3.9-.21h0l5.71-.31,2.21-1,4.44,0,3.74,1.34,5.83,7.8,21.49,1.28,4.5,6.34L764,239.85l11.86-.23,7.86-1.59,5.25-1.46,6,2.12,3.39,1.81,6.46.81,7.91,2.58,17.09,4.1,5.94.14,12,2.81,8.1,1,18-.1,5.44-.84.48-1.42,4.33,1.72,5.74.49,8.42,1.39,15-.45-6-4.93,6.36-1-1.8-2.33,7.61-1.29-1.41-3.38,2.38-1.93,11-2-.7-3.62-6-4,12-5.14"
                  transform="translate(-111.79 -134.36)"/>
            <path class="cls-6"
                  d="M115.63,269.46l18.33,2h25.17L174,267.82l7.13-1,6.65.94,3.83,1.76,13.08.12,12.29-2,16.75-4.73,5.15.85-2.66,3.71L251,273.49h36.74l7-1.41L312.43,274l-4,3.75-1.77,2.67,4.34,8.06,16.17-.27,6.2,2.44,5.43,1.39,7.8.93,4,2.57h20l5.74-1,8.23,1.51,7,.29,7.22,3.29,8.86-.28,7.09-1.6,4.54,1.71-3,9.19h5.89l1.42,2.11h17.9L451.53,307,448,301.7l5.48-3.07L452,294.09l-4.38-2.26L445.74,287l2.39-3.59-4.82-2.72,3-2.57,8,.06,4.09-1.82,10.6.42,7.87-1.48,5.65-2.25,13.84,8.1L504,281l11.41-1.69,11.15-3.61,11.54,2,11,.08,9.89,2.16,7,3.75,11.59-.13,6.06-2.57,14.82.18L607,286l7.67-4.72,6.1-6.25-1.57-7.28-4.81-4.09,3.54-1.74-1-4.84-9.16-4.88,5.75-1.15,4-2.71-5.6-2.72,5.78-2.32-.85-3.77,8.56-2.1,5.86-1.07,5.94-3.48-1.67-3-10.75-1-6.92-2.4.33-1.47,7.69-.88h1.85l19.93,0,2.7.38,14.21.15-1.14-2.87,3.62-.13-1-2.53,14.41,0,4-.31,1.73-2-.91-1.88,1.23-.28.84-3.23,5.27-.35,4.39-1.73,3.93-.22h0l5.75-.34,2.24-1,4.47,0,3.77,1.42,5.88,8.27,21.66,1.36,4.54,6.72L766,232l11.95-.23,7.93-1.7,5.28-1.54,6.06,2.24,3.42,1.92,6.52.86,8,2.74,17.23,4.34,6,.15,12.06,3,8.17,1.06,18.13-.1,5.49-.9.48-1.5,4.37,1.81,5.78.53,8.49,1.48,15.16-.48-6-5.24,6.41-1.11L915,236.83l7.68-1.37-1.43-3.58,2.4-2,11.06-2.11-.71-3.84L928,219.61l12-5.45"
                  transform="translate(-111.79 -134.36)"/>
        </g>
    </g>
</svg>