<svg xmlns="http://www.w3.org/2000/svg" viewBox="0 0 36 36"><defs><style>.cls-1{fill:#2ce5fc;fill-rule:evenodd;}</style></defs><title>资源 2</title><g id="图层_2" data-name="图层 2"><g id="图层_1-2" data-name="图层 1"><path class="cls-1" d="M18,7.49a7.68,7.68,0,0,0-7.68,7.69c0,4.24,7.68,13.33,7.68,13.33s7.68-9.09,7.68-13.33A7.68,7.68,0,0,0,18,7.49Zm0,11.69a4,4,0,1,1,4-4A4,4,0,0,1,18,19.18Z"/><path class="cls-1" d="M18,0A18,18,0,1,0,36,18,18,18,0,0,0,18,0Zm0,33A15,15,0,1,1,33,18,15,15,0,0,1,18,33Z"/></g></g></svg>