<?xml version="1.0" encoding="utf-8"?>
<!-- Generator: Adobe Illustrator 24.0.1, SVG Export Plug-In . SVG Version: 6.00 Build 0)  -->
<svg version="1.1" id="图层_1" xmlns="http://www.w3.org/2000/svg" xmlns:xlink="http://www.w3.org/1999/xlink" x="0px" y="0px"
	 viewBox="0 0 60 65.8" style="enable-background:new 0 0 60 65.8;" xml:space="preserve">
<style type="text/css">
	.st0{fill:#41B255;}
	.st1{fill:url(#SVGID_1_);}
	.st2{display:none;fill:#FF9885;}
	.st3{opacity:0.3;fill:#FFFFFF;enable-background:new    ;}
	.st4{opacity:0.5;fill:#FFFFFF;enable-background:new    ;}
	.st5{fill:#FFFFFF;}
	.st6{display:none;fill:#FFFFFF;}
	.st7{display:none;fill:#999999;}
	.st8{display:none;}
	.st9{opacity:0.12;enable-background:new    ;}
</style>
<title>资源 6</title>
<g id="图层_1-2">
	<path class="st0" d="M30,0L30,0c12.7,0,23,10.3,23,23v36l0,0H7l0,0V23C7,10.3,17.3,0,30,0z"/>
	<linearGradient id="SVGID_1_" gradientUnits="userSpaceOnUse" x1="-0.4419" y1="54.3405" x2="58.8771" y2="16.1225">
		<stop  offset="0" style="stop-color:#4D8AE6"/>
		<stop  offset="1" style="stop-color:#AD374E"/>
	</linearGradient>
	<path class="st1" d="M30,0L30,0c12.7,0,23,10.3,23,23v36l0,0H7l0,0V23C7,10.3,17.3,0,30,0z"/>
	<path class="st2" d="M30,0L30,0c12.7,0,23,10.3,23,23v36l0,0H7l0,0V23C7,10.3,17.3,0,30,0z"/>
	<path class="st3" d="M30,4.8c-0.5,0-0.9-0.1-1.4-0.1l0,0c-9.6,0-17.3,8.4-17.3,18.8V56H14V23.6C14,13.7,21.1,5.6,30,4.8z"/>
	<polygon class="st4" points="50.7,55 48.7,55 48.7,22 50.7,24 	"/>
	<path class="st5" d="M3,59.3h54c1.7,0,3,1.3,3,3v0c0,1.7-1.3,3-3,3H3c-1.7,0-3-1.3-3-3v0C0,60.7,1.3,59.3,3,59.3z"/>
	
		<image style="display:none;overflow:visible;opacity:0.12;enable-background:new    ;" width="38" height="51" xlink:href="CACB0759.png"  transform="matrix(1 0 0 1 6.91 14.79)">
	</image>
	<polygon class="st6" points="42.8,49.1 39.8,44 42,44 35.2,32.3 38.8,32.3 30,17 21.2,32.3 24.8,32.3 18,44 20.1,44 17.2,49.1 
		28.6,49.1 28.6,55 31.4,55 31.4,49.1 	"/>
	<path class="st7" d="M87.1,50.7l21.8-23.1h-9.1l10.2-12.5H94.7l-8.1,19.3h7.9L87.1,50.7z"/>
	<polygon class="st6" points="-19.5,50.1 -22.4,45 -20.3,45 -27.1,33.3 -23.5,33.3 -32.3,18 -41.1,33.3 -37.5,33.3 -44.3,45 
		-42.1,45 -45.1,50.1 -33.7,50.1 -33.7,56 -30.9,56 -30.9,50.1 	"/>
	<path class="st8" d="M43.4,23.7c-0.6-0.7-1-1.6-0.9-2.6l-1.1-1.2c0,0-6.8-8.4-14.8-3.5l0.4,0.5l3-0.5l-2.4,1.2l0.5,0.6
		c3.3-0.5,9.3,2,7.3,4.7l-5.8,6.2l0,0c-0.4,0.4-0.9,0.7-1.4,0.8L12.4,45.2l4.9,5.3l14.3-16.8c0.1-0.6,0.4-1.2,0.8-1.6
		c0.1-0.1,0.1-0.1,0.2-0.2l6.2-6.7h0c0.8,0,1.7,0.3,2.3,0.9c0.6,0.7,0.9,1.6,0.9,2.5l1.8,2l3.8-4.1l-1.8-1.9
		C44.9,24.7,44,24.3,43.4,23.7L43.4,23.7z"/>
</g>
<path class="st9" d="M20.5,57.9L39,30.8h-7.7L40,16.1H26.9L20,38.8h6.7L20.5,57.9z"/>
<path class="st5" d="M20.5,55L39,27.9h-7.7L40,13.2H26.9L20,35.9h6.7L20.5,55z"/>
</svg>
