<?xml version="1.0" encoding="utf-8"?>
<!-- Generator: Adobe Illustrator 24.0.1, SVG Export Plug-In . SVG Version: 6.00 Build 0)  -->
<svg version="1.1" id="图层_1" xmlns="http://www.w3.org/2000/svg" xmlns:xlink="http://www.w3.org/1999/xlink" x="0px" y="0px"
	 viewBox="0 0 60 65.8" style="enable-background:new 0 0 60 65.8;" xml:space="preserve">
<style type="text/css">
	.st0{fill:#41B255;}
	.st1{fill:url(#SVGID_1_);}
	.st2{display:none;fill:#FF9885;}
	.st3{opacity:0.3;fill:#FFFFFF;enable-background:new    ;}
	.st4{opacity:0.5;fill:#FFFFFF;enable-background:new    ;}
	.st5{fill:#FFFFFF;}
	.st6{display:none;fill:#FFFFFF;}
	.st7{display:none;fill:#999999;}
	.st8{display:none;}
	.st9{opacity:0.12;enable-background:new    ;}
	.st10{display:none;opacity:0.12;enable-background:new    ;}
</style>
<title>资源 5</title>
<g id="图层_1-2">
	<path class="st0" d="M30.6,0L30.6,0c12.7,0,23,10.3,23,23v36l0,0h-46l0,0V23C7.6,10.3,17.9,0,30.6,0z"/>
	<linearGradient id="SVGID_1_" gradientUnits="userSpaceOnUse" x1="0.1765" y1="54.3405" x2="59.4956" y2="16.1225">
		<stop  offset="0" style="stop-color:#89BFC4"/>
		<stop  offset="1" style="stop-color:#C6B33F"/>
	</linearGradient>
	<path class="st1" d="M30.6,0L30.6,0c12.7,0,23,10.3,23,23v36l0,0h-46l0,0V23C7.6,10.3,17.9,0,30.6,0z"/>
	<path class="st2" d="M30.6,0L30.6,0c12.7,0,23,10.3,23,23v36l0,0h-46l0,0V23C7.6,10.3,17.9,0,30.6,0z"/>
	<path class="st3" d="M30.6,4.8c-0.5,0-0.9-0.1-1.4-0.1l0,0c-9.6,0-17.3,8.4-17.3,18.8V56h2.7V23.6C14.6,13.7,21.7,5.6,30.6,4.8z"/>
	<polygon class="st4" points="51.3,55 49.3,55 49.3,22 51.3,24 	"/>
	<path class="st5" d="M3,59.3h54c1.7,0,3,1.3,3,3v0c0,1.7-1.3,3-3,3H3c-1.7,0-3-1.3-3-3v0C0,60.7,1.3,59.3,3,59.3z"/>
	
		<image style="display:none;overflow:visible;opacity:0.12;enable-background:new    ;" width="38" height="51" xlink:href="10BCB310.png"  transform="matrix(1 0 0 1 7.5284 14.79)">
	</image>
	<polygon class="st6" points="43.4,49.1 40.5,44 42.6,44 35.9,32.3 39.5,32.3 30.6,17 21.8,32.3 25.4,32.3 18.6,44 20.8,44 
		17.8,49.1 29.2,49.1 29.2,55 32,55 32,49.1 	"/>
	<path class="st7" d="M87.7,50.7l21.8-23.1h-9.1l10.2-12.5H95.3l-8.1,19.3h7.9L87.7,50.7z"/>
	<polygon class="st6" points="-18.9,50.1 -21.8,45 -19.7,45 -26.4,33.3 -22.8,33.3 -31.7,18 -40.5,33.3 -36.9,33.3 -43.7,45 
		-41.5,45 -44.5,50.1 -33.1,50.1 -33.1,56 -30.3,56 -30.3,50.1 	"/>
	<path class="st8" d="M44,23.7C43.4,23,43,22,43.1,21L42,19.8c0,0-6.8-8.4-14.8-3.5l0.4,0.5l3-0.5l-2.4,1.2l0.5,0.6
		c3.3-0.5,9.3,2,7.3,4.7l-5.8,6.2l0,0c-0.4,0.4-0.9,0.7-1.4,0.8L13,45.2l4.9,5.3l14.3-16.8c0.1-0.6,0.4-1.2,0.8-1.6
		c0.1-0.1,0.1-0.1,0.2-0.2l6.2-6.7h0c0.8,0,1.7,0.3,2.3,0.9c0.6,0.7,0.9,1.6,0.9,2.5l1.8,2l3.8-4.1l-1.8-1.9
		C45.5,24.7,44.6,24.3,44,23.7L44,23.7z"/>
	<path class="st9" d="M35.4,46.2c0,0.4-0.4,0.8-0.8,0.8h-6.3c-0.4,0-0.8-0.4-0.8-0.8s0.4-0.8,0.8-0.8h6.3
		C35.1,45.3,35.4,45.7,35.4,46.2z M34.6,47.4h-6.3c-0.5,0-0.9,0.5-0.8,1.1c0.1,0.3,0.4,0.5,0.8,0.5h0c0.5,0,0.9,0.3,1.1,0.7l0,0
		c0.3,0.6,0.8,0.9,1.5,0.9h1.2c0.6,0,1.2-0.4,1.5-0.9l0,0c0.2-0.4,0.6-0.7,1.1-0.7h0c0.3,0,0.7-0.2,0.8-0.5
		C35.6,47.9,35.2,47.4,34.6,47.4z M31.5,21.3c0.4,0,0.8-0.4,0.8-0.8v-3.3c0-0.4-0.4-0.8-0.8-0.8c-0.4,0-0.8,0.4-0.8,0.8v3.3
		C30.7,20.9,31,21.3,31.5,21.3z M23.1,24.4c0.2,0.2,0.4,0.2,0.6,0.2s0.4-0.1,0.6-0.2c0.3-0.3,0.3-0.8,0-1.2L22,20.9
		c-0.3-0.3-0.8-0.3-1.1,0c-0.3,0.3-0.3,0.8,0,1.2L23.1,24.4z M21.2,31.9c0-0.4-0.4-0.8-0.8-0.8h-3.2c-0.4,0-0.8,0.4-0.8,0.8
		c0,0.4,0.4,0.8,0.8,0.8h3.2C20.8,32.7,21.2,32.3,21.2,31.9z M23.1,39.4l-2.2,2.3c-0.3,0.3-0.3,0.8,0,1.2c0.2,0.2,0.4,0.2,0.6,0.2
		s0.4-0.1,0.6-0.2l2.2-2.3c0.3-0.3,0.3-0.8,0-1.2C23.9,39.1,23.4,39.1,23.1,39.4z M39.9,39.4c-0.3-0.3-0.8-0.3-1.1,0
		c-0.3,0.3-0.3,0.8,0,1.2l2.2,2.3c0.2,0.2,0.4,0.2,0.6,0.2c0.2,0,0.4-0.1,0.6-0.2c0.3-0.3,0.3-0.8,0-1.2L39.9,39.4z M45.7,31.1h-3.2
		c-0.4,0-0.8,0.4-0.8,0.8c0,0.4,0.4,0.8,0.8,0.8h3.2c0.4,0,0.8-0.4,0.8-0.8C46.5,31.4,46.2,31.1,45.7,31.1z M39.3,24.6
		c0.2,0,0.4-0.1,0.6-0.2l2.2-2.3c0.3-0.3,0.3-0.8,0-1.2s-0.8-0.3-1.1,0l-2.2,2.3c-0.3,0.3-0.3,0.8,0,1.2
		C38.9,24.6,39.1,24.6,39.3,24.6z M35.4,44.1c0,0.4-0.4,0.8-0.8,0.8h-6.3c-0.4,0-0.8-0.4-0.8-0.8c0-0.4,0.3-0.8,0.7-0.8
		c-0.5-4.6-5.1-5.6-5.1-11c0-4.7,3.7-8.6,8.3-8.6s8.3,3.8,8.3,8.6c0,5.4-4.6,6.4-5.1,11C35.1,43.3,35.4,43.7,35.4,44.1z M29.6,26
		c-0.1-0.3-0.5-0.5-0.8-0.3c-2,0.8-3.6,2.6-4.1,4.8c-0.1,0.3,0.1,0.7,0.4,0.7c0,0,0.1,0,0.1,0c0.3,0,0.5-0.2,0.6-0.5
		c0.5-1.8,1.7-3.3,3.4-4C29.6,26.7,29.8,26.3,29.6,26z"/>
	<path class="st5" d="M34.6,44.7c0,0.4-0.4,0.8-0.8,0.8h-6.3c-0.4,0-0.8-0.4-0.8-0.8s0.4-0.8,0.8-0.8h6.3
		C34.2,43.9,34.6,44.3,34.6,44.7z M33.8,45.9h-6.3c-0.5,0-0.9,0.5-0.8,1.1c0.1,0.3,0.4,0.5,0.8,0.5h0c0.5,0,0.9,0.3,1.1,0.7l0,0
		c0.3,0.6,0.8,0.9,1.5,0.9h1.2c0.6,0,1.2-0.4,1.5-0.9l0,0c0.2-0.4,0.6-0.7,1.1-0.7h0c0.3,0,0.7-0.2,0.8-0.5
		C34.7,46.5,34.3,45.9,33.8,45.9z M30.6,19.9c0.4,0,0.8-0.4,0.8-0.8v-3.3c0-0.4-0.4-0.8-0.8-0.8c-0.4,0-0.8,0.4-0.8,0.8V19
		C29.8,19.5,30.2,19.9,30.6,19.9z M22.2,23c0.2,0.2,0.4,0.2,0.6,0.2s0.4-0.1,0.6-0.2c0.3-0.3,0.3-0.8,0-1.2l-2.2-2.3
		c-0.3-0.3-0.8-0.3-1.1,0c-0.3,0.3-0.3,0.8,0,1.2L22.2,23z M20.3,30.5c0-0.4-0.4-0.8-0.8-0.8h-3.2c-0.4,0-0.8,0.4-0.8,0.8
		c0,0.4,0.4,0.8,0.8,0.8h3.2C20,31.3,20.3,30.9,20.3,30.5z M22.2,37.9L20,40.2c-0.3,0.3-0.3,0.8,0,1.2c0.2,0.2,0.4,0.2,0.6,0.2
		s0.4-0.1,0.6-0.2l2.2-2.3c0.3-0.3,0.3-0.8,0-1.2C23,37.6,22.5,37.6,22.2,37.9z M39,37.9c-0.3-0.3-0.8-0.3-1.1,0
		c-0.3,0.3-0.3,0.8,0,1.2l2.2,2.3c0.2,0.2,0.4,0.2,0.6,0.2c0.2,0,0.4-0.1,0.6-0.2c0.3-0.3,0.3-0.8,0-1.2L39,37.9z M44.9,29.6h-3.2
		c-0.4,0-0.8,0.4-0.8,0.8c0,0.4,0.4,0.8,0.8,0.8h3.2c0.4,0,0.8-0.4,0.8-0.8C45.7,30,45.3,29.6,44.9,29.6z M38.5,23.2
		c0.2,0,0.4-0.1,0.6-0.2l2.2-2.3c0.3-0.3,0.3-0.8,0-1.2s-0.8-0.3-1.1,0l-2.2,2.3c-0.3,0.3-0.3,0.8,0,1.2
		C38.1,23.1,38.3,23.2,38.5,23.2z M34.6,42.7c0,0.4-0.4,0.8-0.8,0.8h-6.3c-0.4,0-0.8-0.4-0.8-0.8c0-0.4,0.3-0.8,0.7-0.8
		c-0.5-4.6-5.1-5.6-5.1-11c0-4.7,3.7-8.6,8.3-8.6s8.3,3.8,8.3,8.6c0,5.4-4.6,6.4-5.1,11C34.2,41.9,34.6,42.2,34.6,42.7z M28.8,24.6
		c-0.1-0.3-0.5-0.5-0.8-0.3c-2,0.8-3.6,2.6-4.1,4.8c-0.1,0.3,0.1,0.7,0.4,0.7c0,0,0.1,0,0.1,0c0.3,0,0.5-0.2,0.6-0.5
		c0.5-1.8,1.7-3.3,3.4-4C28.8,25.3,28.9,24.9,28.8,24.6z"/>
</g>
<path class="st10" d="M21.1,57.9l18.6-27.1h-7.7l8.7-14.7H27.5l-6.9,22.6h6.7L21.1,57.9z"/>
<path class="st6" d="M21.1,55l18.6-27.1h-7.7l8.7-14.7H27.5l-6.9,22.6h6.7L21.1,55z"/>
</svg>
