<?xml version="1.0" encoding="utf-8"?>
<!-- Generator: Adobe Illustrator 24.0.1, SVG Export Plug-In . SVG Version: 6.00 Build 0)  -->
<svg version="1.1" id="图层_1" xmlns="http://www.w3.org/2000/svg" xmlns:xlink="http://www.w3.org/1999/xlink" x="0px" y="0px"
	 viewBox="0 0 60 65.8" style="enable-background:new 0 0 60 65.8;" xml:space="preserve">
<style type="text/css">
	.st0{display:none;fill:#C0BC47;}
	.st1{display:none;fill:url(#SVGID_1_);}
	.st2{fill:url(#SVGID_2_);}
	.st3{opacity:0.3;fill:#FFFFFF;enable-background:new    ;}
	.st4{opacity:0.5;fill:#FFFFFF;enable-background:new    ;}
	.st5{fill:#FFFFFF;}
	.st6{display:none;fill:#FFFFFF;}
	.st7{display:none;fill:#FF9885;}
	.st8{display:none;fill:#999999;}
	.st9{opacity:0.12;enable-background:new    ;}
</style>
<title>资源 4</title>
<path class="st0" d="M30,0L30,0c12.7,0,23,10.3,23,23v36l0,0H7l0,0V23C7,10.3,17.3,0,30,0z"/>
<linearGradient id="SVGID_1_" gradientUnits="userSpaceOnUse" x1="7" y1="38.5" x2="53" y2="38.5" gradientTransform="matrix(1 0 0 -1 0 68)">
	<stop  offset="0" style="stop-color:#FFFFFF"/>
	<stop  offset="1" style="stop-color:#000000"/>
</linearGradient>
<path class="st1" d="M30,0L30,0c12.7,0,23,10.3,23,23v36l0,0H7l0,0V23C7,10.3,17.3,0,30,0z"/>
<linearGradient id="SVGID_2_" gradientUnits="userSpaceOnUse" x1="-0.4416" y1="13.659" x2="58.8774" y2="51.877" gradientTransform="matrix(1 0 0 -1 0 68)">
	<stop  offset="0" style="stop-color:#ADAD96"/>
	<stop  offset="1" style="stop-color:#AD374E"/>
</linearGradient>
<path class="st2" d="M30,0L30,0c12.7,0,23,10.3,23,23v36l0,0H7l0,0V23C7,10.3,17.3,0,30,0z"/>
<path class="st3" d="M30,4.8c-0.5,0-0.9-0.1-1.4-0.1l0,0c-9.6,0-17.3,8.4-17.3,18.8V56H14V23.6C14,13.7,21.1,5.6,30,4.8z"/>
<polygon class="st4" points="50.7,55 48.7,55 48.7,22 50.7,24 "/>
<path class="st5" d="M3,59.3h54c1.7,0,3,1.3,3,3l0,0c0,1.7-1.3,3-3,3H3c-1.7,0-3-1.3-3-3l0,0C0,60.7,1.3,59.3,3,59.3z"/>
<image style="display:none;overflow:visible;opacity:0.12;enable-background:new    ;" width="39" height="51" xlink:href="56AE5EC8.png"  transform="matrix(1 0 0 1 6.42 14.79)">
</image>
<polygon class="st6" points="42.8,49.1 39.8,44 42,44 35.2,32.3 38.8,32.3 30,17 21.2,32.3 24.8,32.3 18,44 20.1,44 17.2,49.1 
	28.6,49.1 28.6,55 31.4,55 31.4,49.1 "/>
<polygon class="st6" points="42.8,49.1 39.8,44 42,44 35.2,32.3 38.8,32.3 30,17 21.2,32.3 24.8,32.3 18,44 20.1,44 17.2,49.1 
	28.6,49.1 28.6,55 31.4,55 31.4,49.1 "/>
<image style="display:none;overflow:visible;enable-background:new    ;" width="65" height="74" xlink:href="56AE5EC8.jpg"  transform="matrix(0.9857 0 0 0.9857 84.9231 -3.5749)">
</image>
<path class="st7" d="M-2.5,95.4L-2.5,95.4c12.7,0,23,10.3,23,23v36l0,0h-46l0,0v-36C-25.5,105.7-15.2,95.4-2.5,95.4z"/>
<polygon class="st6" points="10.3,144.5 7.4,139.4 9.5,139.4 2.8,127.7 6.4,127.7 -2.5,112.4 -11.3,127.7 -7.7,127.7 -14.5,139.4 
	-12.3,139.4 -15.3,144.5 -3.9,144.5 -3.9,150.4 -1.1,150.4 -1.1,144.5 "/>
<path class="st8" d="M54.6,146.1L76.4,123h-9.1l10.2-12.5H62.2L54,129.8h7.9L54.6,146.1z"/>
<polygon class="st6" points="-52,145.5 -54.9,140.4 -52.8,140.4 -59.5,128.7 -55.9,128.7 -64.8,113.4 -73.6,128.7 -70,128.7 
	-76.8,140.4 -74.6,140.4 -77.6,145.5 -66.2,145.5 -66.2,151.4 -63.4,151.4 -63.4,145.5 "/>
<g>
	<path class="st9" d="M41,25.2c-0.6-0.5-1-1.4-1-2.2l-1-1c0,0-6.4-6.8-12.3-1.7l0.4,0.4l2.3-0.7l-1.8,1.3l0.4,0.5
		c2.6-0.8,7.7,0.9,6.4,3.4l-4,6.1l0,0c-0.3,0.4-0.6,0.7-1,0.9l-11,15.2l4.5,4.2l9.7-16.3c0-0.6,0.2-1.1,0.5-1.5
		c0-0.1,0.1-0.1,0.1-0.2l4.3-6.6l0,0c0.7-0.1,1.4,0.1,1.9,0.6c0.6,0.5,0.9,1.3,1,2.1l1.7,1.6l2.6-4l-1.6-1.5
		C42.3,26,41.6,25.7,41,25.2L41,25.2z"/>
	<path class="st5" d="M40.9,21.5c-0.6-0.5-1-1.5-1-2.3l-1-1c0,0-6.6-7.1-12.6-1.8l0.4,0.4l2.4-0.7l-1.8,1.4l0.4,0.5
		c2.7-0.8,7.9,0.9,6.6,3.6L30,27.9l0,0c-0.3,0.4-0.6,0.7-1,0.9L17.7,44.7l4.6,4.4l10-17c0-0.6,0.2-1.1,0.5-1.6
		c0-0.1,0.1-0.1,0.1-0.2l4.4-6.9l0,0c0.7-0.1,1.4,0.1,2,0.6c0.6,0.5,0.9,1.4,1,2.2l1.7,1.7l2.7-4.2l-1.6-1.6
		C42.2,22.2,41.5,22,40.9,21.5L40.9,21.5z"/>
</g>
</svg>
