<?xml version="1.0" encoding="utf-8"?>
<!-- Generator: Adobe Illustrator 17.0.0, SVG Export Plug-In . SVG Version: 6.00 Build 0)  -->
<!DOCTYPE svg PUBLIC "-//W3C//DTD SVG 1.1//EN" "http://www.w3.org/Graphics/SVG/1.1/DTD/svg11.dtd">
<svg version="1.1" id="图层_1" xmlns="http://www.w3.org/2000/svg" xmlns:xlink="http://www.w3.org/1999/xlink" x="0px" y="0px"
	 preserveAspectRatio="none" viewBox="0 0 480 18" style="enable-background:new 0 0 480 18;" xml:space="preserve">
<path style="fill:#0C4E82;" d="M13.6,18H3.4C1.5,18,0,17.6,0,17.1V0.9C0,0.4,1.6,0,3.4,0h10.2C15.5,0,17,0.4,17,0.9v16.2
	C17,17.6,15.5,18,13.6,18z M40.9,18H30.6c-1.9,0-3.4-0.4-3.4-0.9V0.9c0-0.5,1.6-0.9,3.4-0.9h10.2c1.9,0,3.4,0.4,3.4,0.9v16.2
	C44.3,17.6,42.7,18,40.9,18z M68.1,18H57.9c-1.9,0-3.4-0.4-3.4-0.9V0.9C54.5,0.4,56,0,57.9,0h10.2c1.9,0,3.4,0.4,3.4,0.9v16.2
	C71.5,17.6,69.9,18,68.1,18z M95.3,18H85.1c-1.9,0-3.4-0.4-3.4-0.9V0.9c0-0.5,1.6-0.9,3.4-0.9h10.2c1.9,0,3.4,0.4,3.4,0.9v16.2
	C98.7,17.6,97.2,18,95.3,18z M122.6,18h-10.2c-1.9,0-3.4-0.4-3.4-0.9V0.9c0-0.5,1.6-0.9,3.4-0.9h10.2c1.9,0,3.4,0.4,3.4,0.9v16.2
	C126,17.6,124.4,18,122.6,18z M149.8,18h-10.2c-1.9,0-3.4-0.4-3.4-0.9V0.9c0-0.5,1.6-0.9,3.4-0.9h10.2c1.9,0,3.4,0.4,3.4,0.9v16.2
	C153.2,17.6,151.6,18,149.8,18z M177,18h-10.2c-1.9,0-3.4-0.4-3.4-0.9V0.9c0-0.5,1.6-0.9,3.4-0.9H177c1.9,0,3.4,0.4,3.4,0.9v16.2
	C180.4,17.6,178.9,18,177,18z M204.3,18H194c-1.9,0-3.4-0.4-3.4-0.9V0.9c0-0.5,1.6-0.9,3.4-0.9h10.2c1.9,0,3.4,0.4,3.4,0.9v16.2
	C207.7,17.6,206.1,18,204.3,18z M231.5,18h-10.2c-1.9,0-3.4-0.4-3.4-0.9V0.9c0-0.5,1.6-0.9,3.4-0.9h10.2c1.9,0,3.4,0.4,3.4,0.9v16.2
	C234.9,17.6,233.3,18,231.5,18z M258.7,18h-10.2c-1.9,0-3.4-0.4-3.4-0.9V0.9c0-0.5,1.6-0.9,3.4-0.9h10.2c1.9,0,3.4,0.4,3.4,0.9v16.2
	C262.1,17.6,260.6,18,258.7,18z M286,18h-10.2c-1.9,0-3.4-0.4-3.4-0.9V0.9c0-0.5,1.6-0.9,3.4-0.9H286c1.9,0,3.4,0.4,3.4,0.9v16.2
	C289.4,17.6,287.8,18,286,18z M313.2,18H303c-1.9,0-3.4-0.4-3.4-0.9V0.9c0-0.5,1.6-0.9,3.4-0.9h10.2c1.9,0,3.4,0.4,3.4,0.9v16.2
	C316.6,17.6,315,18,313.2,18z M340.4,18h-10.2c-1.9,0-3.4-0.4-3.4-0.9V0.9c0-0.5,1.6-0.9,3.4-0.9h10.2c1.9,0,3.4,0.4,3.4,0.9v16.2
	C343.8,17.6,342.3,18,340.4,18z M367.7,18h-10.2c-1.9,0-3.4-0.4-3.4-0.9V0.9c0-0.5,1.6-0.9,3.4-0.9h10.2c1.9,0,3.4,0.4,3.4,0.9v16.2
	C371.1,17.6,369.6,18,367.7,18z M394.9,18h-10.2c-1.9,0-3.4-0.4-3.4-0.9V0.9c0-0.5,1.6-0.9,3.4-0.9h10.2c1.9,0,3.4,0.4,3.4,0.9v16.2
	C398.3,17.6,396.7,18,394.9,18z M422.1,18h-10.2c-1.9,0-3.4-0.4-3.4-0.9V0.9c0-0.5,1.6-0.9,3.4-0.9h10.2c1.9,0,3.4,0.4,3.4,0.9v16.2
	C425.5,17.6,424,18,422.1,18z M449.4,18h-10.2c-1.9,0-3.4-0.4-3.4-0.9V0.9c0-0.5,1.6-0.9,3.4-0.9h10.2c1.9,0,3.4,0.4,3.4,0.9v16.2
	C452.8,17.6,451.2,18,449.4,18z M476.6,18h-10.2c-1.9,0-3.4-0.4-3.4-0.9V0.9c0-0.5,1.6-0.9,3.4-0.9h10.2c1.9,0,3.4,0.4,3.4,0.9v16.2
	C480,17.6,478.4,18,476.6,18z"/>
</svg>
