<?xml version="1.0" encoding="utf-8"?>
<!-- Generator: Adobe Illustrator 23.0.1, SVG Export Plug-In . SVG Version: 6.00 Build 0)  -->
<!DOCTYPE svg PUBLIC "-//W3C//DTD SVG 1.1//EN" "http://www.w3.org/Graphics/SVG/1.1/DTD/svg11.dtd" [
	<!ENTITY ns_extend "http://ns.adobe.com/Extensibility/1.0/">
	<!ENTITY ns_ai "http://ns.adobe.com/AdobeIllustrator/10.0/">
	<!ENTITY ns_graphs "http://ns.adobe.com/Graphs/1.0/">
	<!ENTITY ns_vars "http://ns.adobe.com/Variables/1.0/">
	<!ENTITY ns_imrep "http://ns.adobe.com/ImageReplacement/1.0/">
	<!ENTITY ns_sfw "http://ns.adobe.com/SaveForWeb/1.0/">
	<!ENTITY ns_custom "http://ns.adobe.com/GenericCustomNamespace/1.0/">
	<!ENTITY ns_adobe_xpath "http://ns.adobe.com/XPath/1.0/">
]>
<svg version="1.1" id="图层_1" xmlns:x="&ns_extend;" xmlns:i="&ns_ai;" xmlns:graph="&ns_graphs;"
	 xmlns="http://www.w3.org/2000/svg" xmlns:xlink="http://www.w3.org/1999/xlink" x="0px" y="0px" viewBox="0 0 417.5 15"
	 preserveAspectRatio="none" style="enable-background:new 0 0 417.5 15;" xml:space="preserve">
<style type="text/css">
	.st0{fill:url(#SVGID_1_);}
</style>
<metadata>
	<sfw  xmlns="&ns_sfw;">
		<slices></slices>
		<sliceSourceBounds  bottomLeftOrigin="true" height="15" width="417.5" x="41.6" y="-257.5"></sliceSourceBounds>
	</sfw>
</metadata>
<linearGradient id="SVGID_1_" gradientUnits="userSpaceOnUse" x1="0" y1="7.5" x2="417.5426" y2="7.5">
	<stop  offset="0" style="stop-color:#00A4FF"/>
	<stop  offset="1" style="stop-color:#63D6A9"/>
</linearGradient>
<path class="st0" d="M5,15H0V0h5V15z M12.1,0h-5v15h5V0z M19.2,0h-5v15h5V0z M26.3,0h-5v15h5V0z M33.5,0h-5v15h5V0z M40.6,0h-5v15h5
	V0z M47.7,0h-5v15h5V0z M54.8,0h-5v15h5V0z M61.9,0h-5v15h5V0z M69,0h-5v15h5V0z M76.1,0h-5v15h5V0z M83.2,0h-5v15h5V0z M90.4,0h-5
	v15h5V0z M97.5,0h-5v15h5V0z M104.6,0h-5v15h5V0z M111.7,0h-5v15h5V0z M118.8,0h-5v15h5V0z M125.9,0h-5v15h5V0z M133,0h-5v15h5V0z
	 M140.1,0h-5v15h5V0z M147.3,0h-5v15h5V0z M154.4,0h-5v15h5V0z M161.5,0h-5v15h5V0z M168.6,0h-5v15h5V0z M175.7,0h-5v15h5V0z
	 M182.8,0h-5v15h5V0z M189.9,0h-5v15h5V0z M197,0h-5v15h5V0z M204.2,0h-5v15h5V0z M211.3,0h-5v15h5V0z M218.4,0h-5v15h5V0z M225.5,0
	h-5v15h5V0z M232.6,0h-5v15h5V0z M239.7,0h-5v15h5V0z M246.8,0h-5v15h5V0z M253.9,0h-5v15h5V0z M261.1,0h-5v15h5V0z M268.2,0h-5v15
	h5V0z M275.3,0h-5v15h5V0z M282.4,0h-5v15h5V0z M289.5,0h-5v15h5V0z M296.6,0h-5v15h5V0z M303.7,0h-5v15h5V0z M310.9,0h-5v15h5V0z
	 M318,0h-5v15h5V0z M325.1,0h-5v15h5V0z M332.2,0h-5v15h5V0z M339.3,0h-5v15h5V0z M346.4,0h-5v15h5V0z M353.5,0h-5v15h5V0z M360.6,0
	h-5v15h5V0z M367.8,0h-5v15h5V0z M374.9,0h-5v15h5V0z M382,0h-5v15h5V0z M389.1,0h-5v15h5V0z M396.2,0h-5v15h5V0z M403.3,0h-5v15h5
	V0z M410.4,0h-5v15h5V0z M417.5,0h-5v15h5V0z"/>
</svg>
