<?xml version="1.0" encoding="utf-8"?>
<!-- Generator: Adobe Illustrator 23.0.1, SVG Export Plug-In . SVG Version: 6.00 Build 0)  -->
<!DOCTYPE svg PUBLIC "-//W3C//DTD SVG 1.1//EN" "http://www.w3.org/Graphics/SVG/1.1/DTD/svg11.dtd" [
	<!ENTITY ns_extend "http://ns.adobe.com/Extensibility/1.0/">
	<!ENTITY ns_ai "http://ns.adobe.com/AdobeIllustrator/10.0/">
	<!ENTITY ns_graphs "http://ns.adobe.com/Graphs/1.0/">
	<!ENTITY ns_vars "http://ns.adobe.com/Variables/1.0/">
	<!ENTITY ns_imrep "http://ns.adobe.com/ImageReplacement/1.0/">
	<!ENTITY ns_sfw "http://ns.adobe.com/SaveForWeb/1.0/">
	<!ENTITY ns_custom "http://ns.adobe.com/GenericCustomNamespace/1.0/">
	<!ENTITY ns_adobe_xpath "http://ns.adobe.com/XPath/1.0/">
]>
<svg version="1.1" id="图层_1" xmlns:x="&ns_extend;" xmlns:i="&ns_ai;" xmlns:graph="&ns_graphs;"
	 xmlns="http://www.w3.org/2000/svg" xmlns:xlink="http://www.w3.org/1999/xlink" x="0px" y="0px" viewBox="0 0 705 100"
	 preserveAspectRatio="none" style="enable-background:new 0 0 705 100;" xml:space="preserve">
<style type="text/css">
	.st0{fill:#0A5B8F;}
	.st1{opacity:0.75;fill:url(#SVGID_1_);enable-background:new    ;}
</style>
<metadata>
	<sfw  xmlns="&ns_sfw;">
		<slices></slices>
		<sliceSourceBounds  bottomLeftOrigin="true" height="100" width="705" x="0" y="0"></sliceSourceBounds>
		<optimizationSettings>
			<targetSettings  fileFormat="PNG24Format" targetSettingsID="0">
				<PNG24Format  filtered="false" interlaced="false" matteColor="#FFFFFF" noMatteColor="false" transparency="true">
					</PNG24Format>
			</targetSettings>
		</optimizationSettings>
	</sfw>
</metadata>
<g>
	<path class="st0" d="M20,100H5c-2.8,0-5-2.3-5-5V5c0-2.8,2.3-5,5-5h15c2.8,0,5,2.3,5,5v90C25,97.8,22.8,100,20,100z M60,100H45
		c-2.8,0-5-2.3-5-5V5c0-2.8,2.3-5,5-5h15c2.8,0,5,2.3,5,5v90C65,97.8,62.7,100,60,100z M100,100H85c-2.8,0-5-2.3-5-5V5
		c0-2.8,2.3-5,5-5h15c2.8,0,5,2.3,5,5v90C105,97.8,102.7,100,100,100z M140,100h-15c-2.8,0-5-2.3-5-5V5c0-2.8,2.3-5,5-5h15
		c2.8,0,5,2.3,5,5v90C145,97.8,142.8,100,140,100z M180,100h-15c-2.8,0-5-2.3-5-5V5c0-2.8,2.3-5,5-5h15c2.8,0,5,2.3,5,5v90
		C185,97.8,182.7,100,180,100z M220,100h-15c-2.8,0-5-2.3-5-5V5c0-2.8,2.3-5,5-5h15c2.8,0,5,2.3,5,5v90C225,97.8,222.7,100,220,100z
		 M260,100h-15c-2.8,0-5-2.3-5-5V5c0-2.8,2.3-5,5-5h15c2.8,0,5,2.3,5,5v90C265,97.8,262.8,100,260,100z M300,100h-15
		c-2.8,0-5-2.3-5-5V5c0-2.8,2.3-5,5-5h15c2.8,0,5,2.3,5,5v90C305,97.8,302.7,100,300,100z M340,100h-15c-2.8,0-5-2.3-5-5V5
		c0-2.8,2.3-5,5-5h15c2.8,0,5,2.3,5,5v90C345,97.8,342.7,100,340,100z M380,100h-15c-2.8,0-5-2.3-5-5V5c0-2.8,2.3-5,5-5h15
		c2.8,0,5,2.3,5,5v90C385,97.8,382.7,100,380,100z M420,100h-15c-2.8,0-5-2.3-5-5V5c0-2.8,2.3-5,5-5h15c2.8,0,5,2.3,5,5v90
		C425,97.8,422.7,100,420,100z M460,100h-15c-2.8,0-5-2.3-5-5V5c0-2.8,2.3-5,5-5h15c2.8,0,5,2.3,5,5v90C465,97.8,462.7,100,460,100z
		 M500,100h-15c-2.8,0-5-2.3-5-5V5c0-2.8,2.3-5,5-5h15c2.8,0,5,2.3,5,5v90C505,97.8,502.7,100,500,100z M540,100h-15
		c-2.8,0-5-2.3-5-5V5c0-2.8,2.3-5,5-5h15c2.8,0,5,2.3,5,5v90C545,97.8,542.8,100,540,100z M580,100h-15c-2.8,0-5-2.3-5-5V5
		c0-2.8,2.3-5,5-5h15c2.8,0,5,2.3,5,5v90C585,97.8,582.7,100,580,100z M620,100h-15c-2.8,0-5-2.3-5-5V5c0-2.8,2.3-5,5-5h15
		c2.8,0,5,2.3,5,5v90C625,97.8,622.7,100,620,100z M660,100h-15c-2.8,0-5-2.3-5-5V5c0-2.8,2.3-5,5-5h15c2.8,0,5,2.3,5,5v90
		C665,97.8,662.7,100,660,100z M700,100h-15c-2.8,0-5-2.3-5-5V5c0-2.8,2.3-5,5-5h15c2.8,0,5,2.3,5,5v90C705,97.8,702.7,100,700,100z
		"/>
	
		<linearGradient id="SVGID_1_" gradientUnits="userSpaceOnUse" x1="0" y1="52" x2="705" y2="52" gradientTransform="matrix(1 0 0 -1 0 102)">
		<stop  offset="0" style="stop-color:#DBFF5A"/>
		<stop  offset="1" style="stop-color:#FFB361"/>
	</linearGradient>
	<path class="st1" d="M20,100H5c-2.8,0-5-2.3-5-5V5c0-2.8,2.3-5,5-5h15c2.8,0,5,2.3,5,5v90C25,97.8,22.8,100,20,100z M60,100H45
		c-2.8,0-5-2.3-5-5V5c0-2.8,2.3-5,5-5h15c2.8,0,5,2.3,5,5v90C65,97.8,62.7,100,60,100z M100,100H85c-2.8,0-5-2.3-5-5V5
		c0-2.8,2.3-5,5-5h15c2.8,0,5,2.3,5,5v90C105,97.8,102.7,100,100,100z M140,100h-15c-2.8,0-5-2.3-5-5V5c0-2.8,2.3-5,5-5h15
		c2.8,0,5,2.3,5,5v90C145,97.8,142.8,100,140,100z M180,100h-15c-2.8,0-5-2.3-5-5V5c0-2.8,2.3-5,5-5h15c2.8,0,5,2.3,5,5v90
		C185,97.8,182.7,100,180,100z M220,100h-15c-2.8,0-5-2.3-5-5V5c0-2.8,2.3-5,5-5h15c2.8,0,5,2.3,5,5v90C225,97.8,222.7,100,220,100z
		 M260,100h-15c-2.8,0-5-2.3-5-5V5c0-2.8,2.3-5,5-5h15c2.8,0,5,2.3,5,5v90C265,97.8,262.8,100,260,100z M300,100h-15
		c-2.8,0-5-2.3-5-5V5c0-2.8,2.3-5,5-5h15c2.8,0,5,2.3,5,5v90C305,97.8,302.7,100,300,100z M340,100h-15c-2.8,0-5-2.3-5-5V5
		c0-2.8,2.3-5,5-5h15c2.8,0,5,2.3,5,5v90C345,97.8,342.7,100,340,100z M380,100h-15c-2.8,0-5-2.3-5-5V5c0-2.8,2.3-5,5-5h15
		c2.8,0,5,2.3,5,5v90C385,97.8,382.7,100,380,100z M420,100h-15c-2.8,0-5-2.3-5-5V5c0-2.8,2.3-5,5-5h15c2.8,0,5,2.3,5,5v90
		C425,97.8,422.7,100,420,100z M460,100h-15c-2.8,0-5-2.3-5-5V5c0-2.8,2.3-5,5-5h15c2.8,0,5,2.3,5,5v90C465,97.8,462.7,100,460,100z
		 M500,100h-15c-2.8,0-5-2.3-5-5V5c0-2.8,2.3-5,5-5h15c2.8,0,5,2.3,5,5v90C505,97.8,502.7,100,500,100z M540,100h-15
		c-2.8,0-5-2.3-5-5V5c0-2.8,2.3-5,5-5h15c2.8,0,5,2.3,5,5v90C545,97.8,542.8,100,540,100z M580,100h-15c-2.8,0-5-2.3-5-5V5
		c0-2.8,2.3-5,5-5h15c2.8,0,5,2.3,5,5v90C585,97.8,582.7,100,580,100z M620,100h-15c-2.8,0-5-2.3-5-5V5c0-2.8,2.3-5,5-5h15
		c2.8,0,5,2.3,5,5v90C625,97.8,622.7,100,620,100z M660,100h-15c-2.8,0-5-2.3-5-5V5c0-2.8,2.3-5,5-5h15c2.8,0,5,2.3,5,5v90
		C665,97.8,662.7,100,660,100z M700,100h-15c-2.8,0-5-2.3-5-5V5c0-2.8,2.3-5,5-5h15c2.8,0,5,2.3,5,5v90C705,97.8,702.7,100,700,100z
		"/>
</g>
</svg>
