<?xml version="1.0" encoding="utf-8"?>
<!-- Generator: Adobe Illustrator 23.0.1, SVG Export Plug-In . SVG Version: 6.00 Build 0)  -->
<!DOCTYPE svg PUBLIC "-//W3C//DTD SVG 1.1//EN" "http://www.w3.org/Graphics/SVG/1.1/DTD/svg11.dtd" [
	<!ENTITY ns_extend "http://ns.adobe.com/Extensibility/1.0/">
	<!ENTITY ns_ai "http://ns.adobe.com/AdobeIllustrator/10.0/">
	<!ENTITY ns_graphs "http://ns.adobe.com/Graphs/1.0/">
	<!ENTITY ns_vars "http://ns.adobe.com/Variables/1.0/">
	<!ENTITY ns_imrep "http://ns.adobe.com/ImageReplacement/1.0/">
	<!ENTITY ns_sfw "http://ns.adobe.com/SaveForWeb/1.0/">
	<!ENTITY ns_custom "http://ns.adobe.com/GenericCustomNamespace/1.0/">
	<!ENTITY ns_adobe_xpath "http://ns.adobe.com/XPath/1.0/">
]>
<svg version="1.1" id="图层_1" xmlns:x="&ns_extend;" xmlns:i="&ns_ai;" xmlns:graph="&ns_graphs;"
	 xmlns="http://www.w3.org/2000/svg" xmlns:xlink="http://www.w3.org/1999/xlink" x="0px" y="0px" viewBox="0 0 484.2 481.4"
	 style="enable-background:new 0 0 484.2 481.4;" xml:space="preserve" preserveAspectRatio="none" >
<style type="text/css">
	
		.st0{fill:#396B8E;fill-opacity:0.3;stroke:#07AEFF;stroke-linecap:round;stroke-linejoin:round;stroke-miterlimit:10;stroke-opacity:0.5;}
	.st1{fill:#064E88;fill-opacity:0.6;stroke:#086DFF;stroke-linecap:round;stroke-linejoin:round;stroke-miterlimit:10;}
</style>
<metadata>
	<sfw  xmlns="&ns_sfw;">
		<slices></slices>
		<sliceSourceBounds  bottomLeftOrigin="true" height="481.4" width="484.2" x="717.9" y="-780.6"></sliceSourceBounds>
	</sfw>
</metadata>
<g>
	<polygon class="st0" points="212.2,51.4 206.8,71.8 186.5,86.5 199.3,100.9 214.6,107.5 225.2,122 219,137.5 210,139.9 
		201.6,156.4 178.6,167.7 163.4,183.2 118.5,195.4 100.1,195.4 91.3,203.9 94,221 103.8,231.3 107.8,264.6 88.6,260.3 65.2,266.2 
		57.4,290.4 57.4,321.7 43.1,326.1 32.5,334.7 15.2,365.9 5.8,377.3 0.5,384.9 5.8,405.5 14.2,417.7 20.3,435.2 34,452.7 
		52.3,480.9 68.3,470.2 105.6,466.2 183.1,440 206.8,434.2 236.3,441.6 259.5,432.4 276.1,426.1 299.7,429.9 326.4,433.5 
		362.1,421.2 381.3,412.5 387.5,404.9 396.9,384.6 398.9,351.4 402.5,339.3 395.6,327.1 413.2,321.7 422.3,313.4 420,293.8 
		418.4,281.4 409.2,262.4 409.2,253.2 430.5,248.3 460,256.2 483.7,258 465.8,244.6 467.6,216.7 452.7,207.6 435,213.7 430.5,206.2 
		431.4,183.2 441.9,142.3 435,114.7 400.9,102 393.3,85 377.5,71.8 380.4,53.3 368.3,42.2 362.1,34 367.4,12.4 350.7,12.4 
		340.1,17.9 317.2,34 265.5,34 249.5,54.5 242.1,59.4 	"/>
	<polygon class="st1" points="212.2,39.5 206.8,59.8 186.5,74.6 199.3,89 214.6,95.5 225.2,110.1 219,125.6 210,127.9 201.6,144.4 
		178.6,155.8 163.4,171.2 118.5,183.4 100.1,183.4 91.3,191.9 94,209.1 103.8,219.4 107.8,252.7 88.6,248.3 65.2,254.2 57.4,278.4 
		57.4,309.7 43.1,314.2 32.5,322.7 15.2,354 5.8,365.4 0.5,373 5.8,393.6 14.2,405.7 20.3,423.2 34,440.8 52.3,468.9 68.3,458.3 
		105.6,454.2 183.1,428.1 206.8,422.2 236.3,429.7 259.5,420.4 276.1,414.1 299.7,417.9 326.4,421.6 362.1,409.2 381.3,400.6 
		387.5,392.9 396.9,372.6 398.9,339.5 402.5,327.3 395.6,315.2 413.2,309.7 422.3,301.4 420,281.9 418.4,269.5 409.2,250.5 
		409.2,241.3 430.5,236.3 460,244.3 483.7,246 465.8,232.6 467.6,204.8 452.7,195.7 435,201.8 430.5,194.2 431.4,171.2 441.9,130.4 
		435,102.8 400.9,90.1 393.3,73 377.5,59.8 380.4,41.4 368.3,30.3 362.1,22 367.4,0.5 350.7,0.5 340.1,5.9 317.2,22 265.5,22 
		249.5,42.6 242.1,47.4 	"/>
</g>
</svg>
