<?xml version="1.0" encoding="utf-8"?>
<!-- Generator: Adobe Illustrator 17.0.0, SVG Export Plug-In . SVG Version: 6.00 Build 0)  -->
<!DOCTYPE svg PUBLIC "-//W3C//DTD SVG 1.1//EN" "http://www.w3.org/Graphics/SVG/1.1/DTD/svg11.dtd">
<svg version="1.1" id="图层_1" xmlns="http://www.w3.org/2000/svg" xmlns:xlink="http://www.w3.org/1999/xlink"  x="0px" y="0px" 
	 viewBox="0 0 1010 50" style="enable-background:new 0 0 1010 50;" xml:space="preserve"  preserveAspectRatio="none">
<linearGradient id="SVGID_1_" gradientUnits='userSpaceOnUse' x1='15.3418' y1='29.1046' x2='366.8408' y2='29.1046' gradientTransform='matrix(1 2.344425e-003 -2.344425e-003 1 2.2269 0.4578)'>
    <stop offset='0' style="stop-color:#264472"></stop>
    <stop offset='1' style="stop-color:#264472;stop-opacity:0"></stop>
</linearGradient>
<polygon points="369,40.4 17.5,39.6 17.5,19.6 369,20.4"  style="fill: url(#SVGID_1_);" />
<g>
    <path style="fill:#CEE480;" d="M12.8,39.5c-1.3,0-2.4-1.1-2.5-2.4l11.9-22.9c0.5-1,1.7-2.7,3.6-2.7h10c1.3,0,2.4,1.1,2.5,2.4    L26.3,36.8c-0.2,0.3-0.3,0.6-0.5,0.9c-0.7,1.4-1.1,1.9-2.1,1.9H12.8z" />
    <path style="fill:#FFFFFF;" d="M35.8,12c1,0,1.9,0.8,2,1.8L25.9,36.5c-0.2,0.3-0.3,0.6-0.5,0.9c-0.7,1.4-0.9,1.6-1.6,1.6h-11    c-1,0-1.9-0.8-2-1.8l11.9-22.7c0.5-0.9,1.6-2.5,3.1-2.5H35.8 M35.8,11h-10c-1.6,0-3,1.2-4,3l-12,23c0,1.7,1.4,3,3,3h11    c1.6,0,2-1.2,3-3l12-23C38.8,12.4,37.4,11,35.8,11L35.8,11z"  />
</g>
<linearGradient id="SVGID_2_" gradientUnits='userSpaceOnUse' x1='17.5001' y1='40' x2='17.5001' y2='-6.511982e-010' gradientTransform='matrix(1 0.0023 -0.0023 1 2.214 0.7051)'>
    <stop offset='0' style="stop-color:#CDEFF9"></stop>
    <stop offset='1' style="stop-color:#FFFFFF"></stop>
</linearGradient>
<path style="fill:url(#SVGID_2_);" d="M17,37c-1,1.8-1.4,3-3,3H3c-1.6,0-3-1.3-3-3L18,3c1-1.8,2.3-3,4-3h10c1.7,0,3,1.3,3,3L17,37z" />
</svg>
