<?xml version="1.0" encoding="utf-8"?>
<!-- Generator: Adobe Illustrator 17.0.0, SVG Export Plug-In . SVG Version: 6.00 Build 0)  -->
<!DOCTYPE svg PUBLIC "-//W3C//DTD SVG 1.1//EN" "http://www.w3.org/Graphics/SVG/1.1/DTD/svg11.dtd">
<svg version="1.1" id="图层_1" xmlns="http://www.w3.org/2000/svg" xmlns:xlink="http://www.w3.org/1999/xlink" x="0px" y="0px"
	 width="60px" height="60px" viewBox="0 0 60 60" style="enable-background:new 0 0 60 60;" xml:space="preserve">
<g>
	
		<linearGradient id="SVGID_1_" gradientUnits="userSpaceOnUse" x1="2858.4016" y1="28.0049" x2="2883.0664" y2="28.0049" gradientTransform="matrix(-1 0 0 1 2910.293 0)">
		<stop  offset="0" style="stop-color:#3B9FF2"/>
		<stop  offset="1" style="stop-color:#51F6F9"/>
	</linearGradient>
	<path style="fill:url(#SVGID_1_);" d="M28.9,16.2c-0.9,0-1.7,0.8-1.7,1.7v20.2c0,0.9,0.8,1.7,1.7,1.7h6.4c0.2-2.7,2.5-4.8,5.2-4.8
		c2.8,0,5,2.1,5.2,4.8h4.4c0.9,0,1.7-0.8,1.7-1.7V17.9c0-0.9-0.8-1.7-1.7-1.7H28.9L28.9,16.2z M28.9,16.2"/>
	
		<linearGradient id="SVGID_2_" gradientUnits="userSpaceOnUse" x1="2865.7529" y1="40.1984" x2="2896.8169" y2="40.1984" gradientTransform="matrix(-1 0 0 1 2910.293 0)">
		<stop  offset="0" style="stop-color:#3B9FF2"/>
		<stop  offset="1" style="stop-color:#51F6F9"/>
	</linearGradient>
	<path style="fill:url(#SVGID_2_);" d="M40.6,36.2c-2.2,0-4,1.8-4,4c0,2.2,1.8,4,4,4c2.2,0,4-1.8,4-4C44.5,38,42.7,36.2,40.6,36.2
		L40.6,36.2z M17.5,36.2c-2.2,0-4,1.8-4,4c0,2.2,1.8,4,4,4c2.2,0,4-1.8,4-4C21.5,38,19.7,36.2,17.5,36.2L17.5,36.2z M17.5,36.2"/>
	
		<linearGradient id="SVGID_3_" gradientUnits="userSpaceOnUse" x1="2886.0076" y1="30.0131" x2="2902.02" y2="30.0131" gradientTransform="matrix(-1 0 0 1 2910.293 0)">
		<stop  offset="0" style="stop-color:#3B9FF2"/>
		<stop  offset="1" style="stop-color:#51F6F9"/>
	</linearGradient>
	<path style="fill:url(#SVGID_3_);" d="M8.3,28.9v9.2c0,0.9,0.8,1.7,1.7,1.7h2.3c0.2-2.7,2.5-4.9,5.3-4.9c2.8,0,5.1,2.2,5.3,4.9
		c0.9-0.1,1.6-0.8,1.6-1.7V21.9c0-0.9-0.8-1.7-1.7-1.7h-6.8c-0.4,0-0.8,0.1-1,0.4l0,0l0,0c-0.2,0.2-0.4,0.4-0.5,0.7L8.3,28.9z
		 M20,29.7l-8.2,0.2l5-6.3H20V29.7L20,29.7z M20,29.7"/>
</g>
</svg>
