<?xml version="1.0" encoding="utf-8"?>
<!-- Generator: Adobe Illustrator 17.0.0, SVG Export Plug-In . SVG Version: 6.00 Build 0)  -->
<!DOCTYPE svg PUBLIC "-//W3C//DTD SVG 1.1//EN" "http://www.w3.org/Graphics/SVG/1.1/DTD/svg11.dtd">
<svg version="1.1" id="图层_1" xmlns="http://www.w3.org/2000/svg" xmlns:xlink="http://www.w3.org/1999/xlink" x="0px" y="0px"
	 width="60px" height="60px" viewBox="0 0 60 60" style="enable-background:new 0 0 60 60;" xml:space="preserve">
<g>
	<linearGradient id="SVGID_1_" gradientUnits="userSpaceOnUse" x1="5.4323" y1="32.3064" x2="51.7794" y2="32.3064">
		<stop  offset="0" style="stop-color:#3B9FF2"/>
		<stop  offset="1" style="stop-color:#51F6F9"/>
	</linearGradient>
	<path style="fill:url(#SVGID_1_);" d="M51.2,27.4H19.8l-9.9,1.2c-1.2,0.1-2,1.1-2,2.3v2.9l-2.4,0.7L5.5,36l1.7,1.2h0.5l3.9-5
		c0.4-0.5,1.1-0.8,1.8-0.8H16c0.7,0,1.3,0.3,1.8,0.8l3.9,5h13.4l3.9-5c0.4-0.5,1.1-0.8,1.8-0.8h2.6c0.7,0,1.3,0.3,1.8,0.8l3.3,4.2
		l0.9-1l1.9-0.4l0.6-0.4v-1.4h-0.6V27.4z"/>
	<linearGradient id="SVGID_2_" gradientUnits="userSpaceOnUse" x1="24.2336" y1="18.9015" x2="51.1465" y2="18.9015">
		<stop  offset="0" style="stop-color:#3B9FF2"/>
		<stop  offset="1" style="stop-color:#51F6F9"/>
	</linearGradient>
	<polygon style="fill:url(#SVGID_2_);" points="51.1,17.9 31.6,17.9 24.7,19.2 24.2,19.9 51.1,19.9 	"/>
	<linearGradient id="SVGID_3_" gradientUnits="userSpaceOnUse" x1="52.2166" y1="27.4623" x2="54.8402" y2="27.4623">
		<stop  offset="0" style="stop-color:#3B9FF2"/>
		<stop  offset="1" style="stop-color:#51F6F9"/>
	</linearGradient>
	<path style="fill:url(#SVGID_3_);" d="M54.2,23c0-0.2-0.2-0.3-0.4-0.3h-1.7v9.5h1.7c0.2,0,0.3-0.1,0.4-0.3c0.4-1.4,0.6-2.9,0.6-4.3
		C54.8,26,54.6,24.5,54.2,23z"/>
	<linearGradient id="SVGID_4_" gradientUnits="userSpaceOnUse" x1="37.5233" y1="36.7535" x2="46.5442" y2="36.7535">
		<stop  offset="0" style="stop-color:#3B9FF2"/>
		<stop  offset="1" style="stop-color:#51F6F9"/>
	</linearGradient>
	<path style="fill:url(#SVGID_4_);" d="M42,32.2c-1.2,0-2.3,0.5-3.2,1.3c-0.8,0.8-1.3,2-1.3,3.2c0,1.8,1.1,3.5,2.8,4.2
		c1.7,0.7,3.6,0.3,4.9-1c1.3-1.3,1.7-3.2,1-4.9S43.8,32.2,42,32.2z M42,38.8c-1.1,0-2-0.9-2-2c0-1.1,0.9-2,2-2c1.1,0,2,0.9,2,2
		C44.1,37.9,43.2,38.8,42,38.8z"/>
	<linearGradient id="SVGID_5_" gradientUnits="userSpaceOnUse" x1="40.8257" y1="36.7765" x2="43.2419" y2="36.7765">
		<stop  offset="0" style="stop-color:#3B9FF2"/>
		<stop  offset="1" style="stop-color:#51F6F9"/>
	</linearGradient>
	<circle style="fill:url(#SVGID_5_);" cx="42" cy="36.8" r="1.2"/>
	<linearGradient id="SVGID_6_" gradientUnits="userSpaceOnUse" x1="10.15" y1="36.7525" x2="19.171" y2="36.7525">
		<stop  offset="0" style="stop-color:#3B9FF2"/>
		<stop  offset="1" style="stop-color:#51F6F9"/>
	</linearGradient>
	<path style="fill:url(#SVGID_6_);" d="M14.8,32.2c-1.2,0-2.4,0.4-3.3,1.3c-0.9,0.8-1.4,2-1.3,3.2c0,2.5,2,4.5,4.5,4.5
		c2.5,0,4.5-2,4.5-4.4C19.2,34.3,17.2,32.3,14.8,32.2z M14.8,38.8c-0.6,0-1.1-0.2-1.5-0.6c-0.4-0.4-0.6-0.9-0.6-1.5h0
		c0-1.1,0.9-2,2-2.1c1.1,0,2.1,0.9,2.1,2C16.8,37.8,15.9,38.8,14.8,38.8z"/>
	<linearGradient id="SVGID_7_" gradientUnits="userSpaceOnUse" x1="13.5329" y1="36.7765" x2="15.9491" y2="36.7765">
		<stop  offset="0" style="stop-color:#3B9FF2"/>
		<stop  offset="1" style="stop-color:#51F6F9"/>
	</linearGradient>
	<circle style="fill:url(#SVGID_7_);" cx="14.7" cy="36.8" r="1.2"/>
	<linearGradient id="SVGID_8_" gradientUnits="userSpaceOnUse" x1="20.0914" y1="23.6594" x2="51.1584" y2="23.6594">
		<stop  offset="0" style="stop-color:#3B9FF2"/>
		<stop  offset="1" style="stop-color:#51F6F9"/>
	</linearGradient>
	<path style="fill:url(#SVGID_8_);" d="M51.2,20.8H24.1l-4,5.8h31.1V20.8z M32.6,24.8c0,0.2-0.1,0.5-0.2,0.6
		c-0.2,0.2-0.4,0.3-0.6,0.3h-8.9l2.7-4h6.3c0.5,0,0.9,0.4,0.9,0.9V24.8z M46.7,24.8c0,0.5-0.4,0.9-0.9,0.9h-9.7
		c-0.5,0-0.9-0.4-0.9-0.9v-2.2c0-0.5,0.4-0.9,0.9-0.9h9.7c0.2,0,0.4,0.1,0.6,0.2c0.2,0.2,0.2,0.4,0.2,0.6V24.8z"/>
</g>
</svg>
