<?xml version="1.0" encoding="utf-8"?>
<!-- Generator: Adobe Illustrator 17.0.0, SVG Export Plug-In . SVG Version: 6.00 Build 0)  -->
<!DOCTYPE svg PUBLIC "-//W3C//DTD SVG 1.1//EN" "http://www.w3.org/Graphics/SVG/1.1/DTD/svg11.dtd">
<svg version="1.1" id="图层_1" xmlns="http://www.w3.org/2000/svg" xmlns:xlink="http://www.w3.org/1999/xlink" x="0px" y="0px"
	 width="60px" height="60px" viewBox="0 0 60 60" style="enable-background:new 0 0 60 60;" xml:space="preserve">
<g>
	<linearGradient id="SVGID_1_" gradientUnits="userSpaceOnUse" x1="0.1177" y1="28.6649" x2="60.0197" y2="28.6649">
		<stop  offset="0" style="stop-color:#3B9FF2"/>
		<stop  offset="1" style="stop-color:#51F6F9"/>
	</linearGradient>
	<path style="fill:url(#SVGID_1_);" d="M57.2,21H8.6c-0.9,0-2.1,0.8-2.9,0.8H2.5l-2.4,4.9h2.4l1.2-3.2h1.2l-1.8,8.1h0L2.5,34
		c0,0,0,0,0,0.1l0,0c0,1.3,1.1,2.3,2.4,2.3h13.8c0,0,0-0.3,0-0.5c0-2.5,2-4.4,4.5-4.4c2.5,0,4.5,2,4.5,4.4c0,0.2,0,0.5,0,0.5h14.6
		c0,0,0-0.3,0-0.5c0-2.5,2-4.4,4.5-4.4c2.5,0,4.4,2,4.4,4.4c0,0.2,0,0.5,0,0.5H55l5-2.3V23.4C60,22,58.6,21,57.2,21z M12.3,33.9H7.4
		V23.4h4.9V33.9z M21.2,28.3h-4.9c-0.4,0-0.8-0.4-0.8-0.8v-4c0-0.4,0.4-0.8,0.8-0.8h4.9V28.3z M26.8,28.3H22v-5.7h4.9V28.3z
		 M32.5,28.3h-4.9v-5.7h4.9V28.3z M38.2,28.3h-4.9v-5.7h4.9V28.3z M43.8,28.3H39v-5.7h4.9V28.3z M49.5,28.3h-4.9v-5.7h4.9V28.3z
		 M55.2,27.5c0,0.4-0.4,0.8-0.8,0.8h-4v-5.7h4c0.4,0,0.8,0.4,0.8,0.8V27.5z"/>
	<linearGradient id="SVGID_2_" gradientUnits="userSpaceOnUse" x1="43.8382" y1="35.9466" x2="49.502" y2="35.9466">
		<stop  offset="0" style="stop-color:#3B9FF2"/>
		<stop  offset="1" style="stop-color:#51F6F9"/>
	</linearGradient>
	<circle style="fill:url(#SVGID_2_);" cx="46.7" cy="35.9" r="2.8"/>
	<linearGradient id="SVGID_3_" gradientUnits="userSpaceOnUse" x1="20.3748" y1="35.9466" x2="26.0386" y2="35.9466">
		<stop  offset="0" style="stop-color:#3B9FF2"/>
		<stop  offset="1" style="stop-color:#51F6F9"/>
	</linearGradient>
	<circle style="fill:url(#SVGID_3_);" cx="23.2" cy="35.9" r="2.8"/>
</g>
</svg>
