<?xml version="1.0" encoding="utf-8"?>
<!-- Generator: Adobe Illustrator 17.0.0, SVG Export Plug-In . SVG Version: 6.00 Build 0)  -->
<!DOCTYPE svg PUBLIC "-//W3C//DTD SVG 1.1//EN" "http://www.w3.org/Graphics/SVG/1.1/DTD/svg11.dtd">
<svg version="1.1" id="图层_1" xmlns="http://www.w3.org/2000/svg" xmlns:xlink="http://www.w3.org/1999/xlink" x="0px" y="0px"
	 width="60px" height="60px" viewBox="0 0 60 60" style="enable-background:new 0 0 60 60;" xml:space="preserve">
<g>
	<linearGradient id="SVGID_1_" gradientUnits="userSpaceOnUse" x1="14.8108" y1="39.2798" x2="24.8791" y2="39.2798">
		<stop  offset="0" style="stop-color:#3B9FF2"/>
		<stop  offset="1" style="stop-color:#51F6F9"/>
	</linearGradient>
	<path style="fill:url(#SVGID_1_);" d="M19.8,34.2c-2.8,0-5,2.2-5,5c0,2.8,2.2,5,5,5c2.8,0,5-2.2,5-5C24.9,36.5,22.6,34.2,19.8,34.2
		z"/>
	<linearGradient id="SVGID_2_" gradientUnits="userSpaceOnUse" x1="6.5002" y1="27.6531" x2="54.3651" y2="27.6531">
		<stop  offset="0" style="stop-color:#3B9FF2"/>
		<stop  offset="1" style="stop-color:#51F6F9"/>
	</linearGradient>
	<path style="fill:url(#SVGID_2_);" d="M48.9,16H22.6c-1.3,0-2.6,0.5-3.5,1.3L8.4,26.4c-1.2,1-1.9,2.6-1.9,4.2v5.4
		c0,1.8,1.5,3.4,3.4,3.4h3.6c0-3.5,2.9-6.4,6.4-6.4c3.5,0,6.4,2.9,6.4,6.4H37c0-3.5,2.9-6.4,6.4-6.4c3.5,0,6.4,2.9,6.4,6.4H51
		c1.8,0,3.4-1.5,3.4-3.4V21.5C54.4,18.5,52,16,48.9,16z M26.2,28.7h-8.5c-0.6,0-1-0.3-1.3-0.9c-0.2-0.5-0.1-1.1,0.3-1.4l5.4-5
		c0.2-0.2,0.6-0.3,0.9-0.3h3.1c0.7,0,1.4,0.6,1.4,1.4l0.1,4.9C27.6,28,27,28.7,26.2,28.7z M38.5,27.3c0,0.7-0.6,1.4-1.4,1.4h-6.4
		c-0.7,0-1.4-0.6-1.4-1.4v-5c0-0.7,0.6-1.4,1.4-1.4h6.4c0.7,0,1.4,0.6,1.4,1.4V27.3z M49.4,27.3c0,0.7-0.6,1.4-1.4,1.4h-6.4
		c-0.7,0-1.4-0.6-1.4-1.4v-5c0-0.7,0.6-1.4,1.4-1.4h6.4c0.7,0,1.4,0.6,1.4,1.4V27.3z"/>
	<linearGradient id="SVGID_3_" gradientUnits="userSpaceOnUse" x1="38.3838" y1="39.2798" x2="48.4541" y2="39.2798">
		<stop  offset="0" style="stop-color:#3B9FF2"/>
		<stop  offset="1" style="stop-color:#51F6F9"/>
	</linearGradient>
	<path style="fill:url(#SVGID_3_);" d="M43.4,34.2c-2.8,0-5,2.2-5,5c0,2.8,2.2,5,5,5s5-2.2,5-5C48.5,36.5,46.2,34.2,43.4,34.2z"/>
</g>
</svg>
