<?xml version="1.0" encoding="utf-8"?>
<!-- Generator: Adobe Illustrator 17.0.0, SVG Export Plug-In . SVG Version: 6.00 Build 0)  -->
<!DOCTYPE svg PUBLIC "-//W3C//DTD SVG 1.1//EN" "http://www.w3.org/Graphics/SVG/1.1/DTD/svg11.dtd">
<svg version="1.1" id="图层_1" xmlns="http://www.w3.org/2000/svg" xmlns:xlink="http://www.w3.org/1999/xlink" x="0px" y="0px"
	 width="60px" height="60px" viewBox="0 0 60 60" style="enable-background:new 0 0 60 60;" xml:space="preserve">
<g>
	<linearGradient id="SVGID_1_" gradientUnits="userSpaceOnUse" x1="9.0853" y1="36.4745" x2="19.6393" y2="36.4745">
		<stop  offset="0" style="stop-color:#3B9FF2"/>
		<stop  offset="1" style="stop-color:#51F6F9"/>
	</linearGradient>
	<path style="fill:url(#SVGID_1_);" d="M14.1,31.2c-2.7,0.1-5.1,2.4-5.1,5.2c0,3,2.3,5.3,5.3,5.3c2.9,0,5.2-2.4,5.2-5.3
		C19.7,33.6,17.2,31.1,14.1,31.2z M14.4,38.5c-1,0-2-0.9-2-2c0-1,0.9-2,2-2c1.1,0,2,0.9,2,2C16.4,37.5,15.5,38.4,14.4,38.5z"/>
	<linearGradient id="SVGID_2_" gradientUnits="userSpaceOnUse" x1="40.7994" y1="36.4825" x2="51.3763" y2="36.4825">
		<stop  offset="0" style="stop-color:#3B9FF2"/>
		<stop  offset="1" style="stop-color:#51F6F9"/>
	</linearGradient>
	<path style="fill:url(#SVGID_2_);" d="M46,31.2c-2.9,0-5.2,2.3-5.2,5.2c0,3,2.3,5.3,5.3,5.3c2.8,0.1,5.4-2.3,5.3-5.5
		C51.3,33.5,48.9,31.2,46,31.2z M46,38.5c-1,0-2-1-2-2c0-1.1,1-2,2-2c1.1,0,2,1,2,2C48.1,37.6,47.1,38.5,46,38.5z"/>
	<linearGradient id="SVGID_3_" gradientUnits="userSpaceOnUse" x1="4.3074" y1="28.0795" x2="56.1138" y2="28.0795">
		<stop  offset="0" style="stop-color:#3B9FF2"/>
		<stop  offset="1" style="stop-color:#51F6F9"/>
	</linearGradient>
	<path style="fill:url(#SVGID_3_);" d="M56.1,35.1c-0.1-0.3-0.2-0.7-0.5-0.9c-0.2-0.2-0.3-0.4-0.3-0.7c0-0.4,0-0.9,0-1.3
		c0-0.9,0-1.7,0-2.6c-0.7,0-1.4,0-2.1,0c-0.6,0-1-0.4-1-0.8c0-0.4,0.4-0.7,1-0.7c0.7,0,1.3,0,2,0c0-0.2,0-0.4,0-0.5
		c0-1.2-0.2-1.4-1.3-1.7c-0.5-0.2-1-0.4-1.5-0.5c0,0,0-0.1,0-0.1c0.1,0,0.2,0,0.4-0.1c0.6-0.1,0.9-0.5,0.8-1
		c-0.1-0.5-0.5-0.7-1.1-0.6c-0.5,0.1-1,0.1-1.4,0.2c-1,0.3-1.9,0-2.8-0.6c-1.6-1.1-3.2-2.1-4.9-3.1c-1.1-0.7-2.2-1.1-3.5-1.3
		c-2.7-0.4-5.4-0.6-8-0.4c-2.5,0.2-5,0.5-7.3,1.6c-2.6,1.3-5,2.9-7.3,4.7c-0.2,0.1-0.4,0.2-0.6,0.3c-2,0.5-4,0.9-6,1.4
		c-1.7,0.5-3.4,1.2-4.9,2.2c-0.5,0.3-0.7,0.7-0.6,1.2c0.5-0.1,1.1-0.2,1.6-0.3c0.5-0.1,0.9,0.2,1,0.6c0.1,0.4-0.2,0.8-0.7,0.9
		c-0.5,0.1-1.1,0.2-1.6,0.3c-0.4,0-0.5,0.2-0.5,0.6c0,0.8-0.1,1.5-0.1,2.3c0,0.2-0.1,0.5-0.3,0.6c-0.5,0.5-0.6,2.2-0.1,2.8
		c0.1,0.1,0.3,0.3,0.4,0.3c0.7,0.1,1.4,0.2,2.2,0.4c-0.9-4.9,2.7-8.3,6.2-8.7c2-0.2,3.8,0.2,5.3,1.5c2.2,1.8,3.1,4.1,2.8,6.9h17.4
		c-0.2-1.4-0.1-2.7,0.5-4c0.5-1.3,1.4-2.4,2.6-3.2c1.1-0.8,2.4-1.2,3.8-1.3c1.9-0.1,3.5,0.5,5,1.7c1.9,1.7,2.7,3.8,2.5,6.4
		c0.4-0.1,0.8-0.1,1.2-0.1c1-0.1,1.7-0.4,1.6-1.7C56.1,35.4,56.1,35.2,56.1,35.1z M19.9,25.8c4.5-3.9,9.6-5.9,15.6-5.2
		c-0.1,1.8-0.3,3.6-0.4,5.5C30,26.4,25,27,19.9,25.8z M35.4,29.5C35.4,29.5,35.3,29.5,35.4,29.5c-0.4,0-0.7,0-1.1,0v0
		c-0.3,0-0.6,0-1,0c-0.5,0-0.8-0.4-0.8-0.8c0-0.4,0.3-0.8,0.8-0.8c0.6,0,1.3,0,1.9,0c0.5,0,0.8,0.3,0.8,0.7
		C36.2,29,35.8,29.4,35.4,29.5z M36.8,26c0.1-1.7,0.3-3.4,0.4-5.2c2.9,0.5,4.9,2.2,6.6,4.6C41.4,25.6,39.2,25.8,36.8,26z"/>
</g>
</svg>
