<?xml version="1.0" encoding="utf-8"?>
<!-- Generator: Adobe Illustrator 17.0.0, SVG Export Plug-In . SVG Version: 6.00 Build 0)  -->
<!DOCTYPE svg PUBLIC "-//W3C//DTD SVG 1.1//EN" "http://www.w3.org/Graphics/SVG/1.1/DTD/svg11.dtd">
<svg version="1.1" id="图层_1" xmlns="http://www.w3.org/2000/svg" xmlns:xlink="http://www.w3.org/1999/xlink" x="0px" y="0px"
	 width="60px" height="60px" viewBox="0 0 60 60" style="enable-background:new 0 0 60 60;" xml:space="preserve">
<g>
	<linearGradient id="SVGID_1_" gradientUnits="userSpaceOnUse" x1="10.9445" y1="38.8443" x2="17.8621" y2="38.8443">
		<stop  offset="0" style="stop-color:#3B9FF2"/>
		<stop  offset="1" style="stop-color:#51F6F9"/>
	</linearGradient>
	<path style="fill:url(#SVGID_1_);" d="M14.4,35.4c-0.9,0-1.8,0.4-2.4,1c-0.6,0.6-1,1.5-1,2.4c0,0.9,0.4,1.8,1,2.4
		c0.6,0.6,1.5,1,2.4,1c0.9,0,1.8-0.4,2.4-1c0.6-0.6,1-1.5,1-2.4c0-0.9-0.4-1.8-1-2.4C16.2,35.8,15.3,35.4,14.4,35.4z"/>
	<linearGradient id="SVGID_2_" gradientUnits="userSpaceOnUse" x1="42.8909" y1="38.8444" x2="49.809" y2="38.8444">
		<stop  offset="0" style="stop-color:#3B9FF2"/>
		<stop  offset="1" style="stop-color:#51F6F9"/>
	</linearGradient>
	<path style="fill:url(#SVGID_2_);" d="M46.4,35.4c-0.9,0-1.8,0.4-2.4,1c-0.6,0.6-1,1.5-1,2.4c0,0.9,0.4,1.8,1,2.4
		c0.6,0.6,1.5,1,2.4,1c0.9,0,1.8-0.4,2.4-1c0.6-0.6,1-1.5,1-2.4c0-0.9-0.4-1.8-1-2.4C48.2,35.8,47.3,35.4,46.4,35.4z"/>
	<linearGradient id="SVGID_3_" gradientUnits="userSpaceOnUse" x1="6.2031" y1="29.0154" x2="54.4862" y2="29.0154">
		<stop  offset="0" style="stop-color:#3B9FF2"/>
		<stop  offset="1" style="stop-color:#51F6F9"/>
	</linearGradient>
	<path style="fill:url(#SVGID_3_);" d="M51.6,17.6H12.2c-2,0-3.7,1.3-4.3,3.2c-1.6,5.3-2,11.3-1.5,17.7c0.1,1,0.9,1.8,1.9,1.8h1.6
		c-0.2-0.5-0.3-1-0.3-1.6c0-2.7,2.1-4.8,4.8-4.8s4.8,2.1,4.8,4.8c0,0.5-0.1,1.1-0.3,1.6h22.8c-0.2-0.5-0.3-1-0.3-1.6
		c0-2.7,2.1-4.8,4.8-4.8c2.6,0,4.8,2.1,4.8,4.8c0,0.5-0.1,1.1-0.3,1.6h1.7c1.1,0,1.9-0.9,1.9-1.9V20.5
		C54.5,18.9,53.2,17.6,51.6,17.6z M17.8,28.1L15,30.3H8.3C8.5,27,9,24.1,9.8,21.4c0.3-1,1.3-1.8,2.4-1.8h5.6V28.1z M28.9,27.8h-9.2
		v-8.1h9.2V27.8z M41,27.8H30.8v-8.1H41V27.8z M52.5,27.8h-9.6v-8.1h8.8c0.4,0,0.8,0.3,0.8,0.8V27.8z"/>
</g>
</svg>
