<?xml version="1.0" encoding="utf-8"?>
<!-- Generator: Adobe Illustrator 17.0.0, SVG Export Plug-In . SVG Version: 6.00 Build 0)  -->
<!DOCTYPE svg PUBLIC "-//W3C//DTD SVG 1.1//EN" "http://www.w3.org/Graphics/SVG/1.1/DTD/svg11.dtd">
<svg version="1.1" id="图层_1" xmlns="http://www.w3.org/2000/svg" xmlns:xlink="http://www.w3.org/1999/xlink" x="0px" y="0px"
	 width="56px" height="15px" viewBox="0 0 56 15" style="enable-background:new 0 0 56 15;" xml:space="preserve">
<g>
	<path style="fill:#19D031;" d="M28,1c16.7,0,27,3.8,27,6.5c0,2.7-10.3,6.5-27,6.5S1,10.2,1,7.5C1,4.8,11.3,1,28,1 M28,0
		C12.5,0,0,3.4,0,7.5C0,11.6,12.5,15,28,15c15.5,0,28-3.4,28-7.5C56,3.4,43.5,0,28,0L28,0z"/>
</g>
<path style="fill:#19D031;" d="M41,7.5c0,1.9-5.8,3.5-13,3.5c-7.2,0-13-1.6-13-3.5C15,5.6,20.8,4,28,4C35.2,4,41,5.6,41,7.5z"/>
</svg>
