<?xml version="1.0" encoding="utf-8"?>
<!-- Generator: Adobe Illustrator 17.0.0, SVG Export Plug-In . SVG Version: 6.00 Build 0)  -->
<!DOCTYPE svg PUBLIC "-//W3C//DTD SVG 1.1//EN" "http://www.w3.org/Graphics/SVG/1.1/DTD/svg11.dtd">
<svg version="1.1" id="图层_1" xmlns="http://www.w3.org/2000/svg" xmlns:xlink="http://www.w3.org/1999/xlink" x="0px" y="0px"
	 preserveAspectRatio="none" viewBox="0 0 1500 1080" style="enable-background:new 0 0 1500 1080;" xml:space="preserve">
<g id="jingkaiqu_1_">
	<path style="fill:#0B7EA6;" d="M1126.3,495.9h10l3.7,13l-23.3,5.7l2.6,7.2l-5.6,5.6l17,29.3l-6.5,4.2l6,8.5l-5.4,4.8l4.7,7.8
		l-6.3,4.3l11.2,12.3l-19.5,9.8l-21.3-30.3l5.5-4.2l-2.5-2.8l8.7-3.2l-4-11.4l13.6-3.8l-6.6-10.2l-5.3,3.5l-3.7-6.8l4.3-4.5l-3-5.2
		l5.4-2.8c0,0-6-4.3-2.1-5.1s6,2.1,8-1.1c2-3.2,0.3-8.4,0.3-8.4l15-4.4L1126.3,495.9z"/>
	<polygon style="fill:#0B7EA6;" points="1089.7,530.2 1086.8,532.2 1085.3,534.9 1086.3,536.8 1083.6,537.7 1086.6,543.5 
		1090.7,544.3 1095.6,557.1 1101.1,554.7 1094.1,542.4 1094.7,537.4 1099.1,539.4 1103.5,534.9 1100.5,529.7 	"/>
</g>
<g id="jingkaiqu_x5F_lin_1_">
	<g>
		<g>
			<polyline style="fill:none;stroke:#09A4F0;stroke-width:2;stroke-miterlimit:10;" points="1126.4,496.9 1126.3,495.9 
				1127.3,495.9 			"/>
			
				<line style="fill:none;stroke:#09A4F0;stroke-width:2;stroke-miterlimit:10;stroke-dasharray:1.6001,1.6001;" x1="1128.9" y1="495.9" x2="1134.5" y2="495.9"/>
			<polyline style="fill:none;stroke:#09A4F0;stroke-width:2;stroke-miterlimit:10;" points="1135.3,495.9 1136.3,495.9 
				1136.6,496.9 			"/>
			
				<line style="fill:none;stroke:#09A4F0;stroke-width:2;stroke-miterlimit:10;stroke-dasharray:2.3032,2.3032;" x1="1137.2" y1="499.1" x2="1139.4" y2="506.8"/>
			<polyline style="fill:none;stroke:#09A4F0;stroke-width:2;stroke-miterlimit:10;" points="1139.7,507.9 1140,508.9 1139,509.1 
							"/>
			
				<line style="fill:none;stroke:#09A4F0;stroke-width:2;stroke-miterlimit:10;stroke-dasharray:1.9961,1.9961;" x1="1137.1" y1="509.6" x2="1118.7" y2="514.2"/>
			<polyline style="fill:none;stroke:#09A4F0;stroke-width:2;stroke-miterlimit:10;" points="1117.7,514.4 1116.7,514.6 
				1117.1,515.6 			"/>
			
				<line style="fill:none;stroke:#09A4F0;stroke-width:2;stroke-miterlimit:10;stroke-dasharray:1.8842,1.8842;" x1="1117.7" y1="517.3" x2="1118.7" y2="520"/>
			<polyline style="fill:none;stroke:#09A4F0;stroke-width:2;stroke-miterlimit:10;" points="1119,520.9 1119.4,521.8 1118.6,522.5 
							"/>
			
				<line style="fill:none;stroke:#09A4F0;stroke-width:2;stroke-miterlimit:10;stroke-dasharray:1.955,1.955;" x1="1117.3" y1="523.9" x2="1115.2" y2="526"/>
			<polyline style="fill:none;stroke:#09A4F0;stroke-width:2;stroke-miterlimit:10;" points="1114.5,526.7 1113.8,527.4 
				1114.3,528.3 			"/>
			
				<line style="fill:none;stroke:#09A4F0;stroke-width:2;stroke-miterlimit:10;stroke-dasharray:2.125,2.125;" x1="1115.4" y1="530.1" x2="1129.8" y2="554.9"/>
			<polyline style="fill:none;stroke:#09A4F0;stroke-width:2;stroke-miterlimit:10;" points="1130.3,555.8 1130.8,556.7 1130,557.2 
							"/>
			
				<line style="fill:none;stroke:#09A4F0;stroke-width:2;stroke-miterlimit:10;stroke-dasharray:1.913,1.913;" x1="1128.4" y1="558.3" x2="1125.9" y2="559.8"/>
			<polyline style="fill:none;stroke:#09A4F0;stroke-width:2;stroke-miterlimit:10;" points="1125.1,560.4 1124.3,560.9 
				1124.9,561.7 			"/>
			
				<line style="fill:none;stroke:#09A4F0;stroke-width:2;stroke-miterlimit:10;stroke-dasharray:1.6751,1.6751;" x1="1125.8" y1="563.1" x2="1129.2" y2="567.9"/>
			<polyline style="fill:none;stroke:#09A4F0;stroke-width:2;stroke-miterlimit:10;" points="1129.7,568.6 1130.2,569.4 
				1129.5,570.1 			"/>
			
				<line style="fill:none;stroke:#09A4F0;stroke-width:2;stroke-miterlimit:10;stroke-dasharray:1.7615,1.7615;" x1="1128.2" y1="571.2" x2="1126.2" y2="573"/>
			<polyline style="fill:none;stroke:#09A4F0;stroke-width:2;stroke-miterlimit:10;" points="1125.5,573.6 1124.8,574.2 
				1125.3,575.1 			"/>
			
				<line style="fill:none;stroke:#09A4F0;stroke-width:2;stroke-miterlimit:10;stroke-dasharray:2.3727,2.3727;" x1="1126.5" y1="577.1" x2="1128.3" y2="580.2"/>
			<polyline style="fill:none;stroke:#09A4F0;stroke-width:2;stroke-miterlimit:10;" points="1129,581.2 1129.5,582.1 1128.6,582.6 
							"/>
			
				<line style="fill:none;stroke:#09A4F0;stroke-width:2;stroke-miterlimit:10;stroke-dasharray:1.8913,1.8913;" x1="1127.1" y1="583.7" x2="1124.7" y2="585.3"/>
			<polyline style="fill:none;stroke:#09A4F0;stroke-width:2;stroke-miterlimit:10;" points="1124,585.8 1123.1,586.4 1123.8,587.1 
							"/>
			
				<line style="fill:none;stroke:#09A4F0;stroke-width:2;stroke-miterlimit:10;stroke-dasharray:2.0911,2.0911;" x1="1125.2" y1="588.7" x2="1132.9" y2="597.2"/>
			<polyline style="fill:none;stroke:#09A4F0;stroke-width:2;stroke-miterlimit:10;" points="1133.6,598 1134.3,598.7 1133.4,599.2 
							"/>
			
				<line style="fill:none;stroke:#09A4F0;stroke-width:2;stroke-miterlimit:10;stroke-dasharray:2.2044,2.2044;" x1="1131.4" y1="600.2" x2="1116.7" y2="607.6"/>
			<polyline style="fill:none;stroke:#09A4F0;stroke-width:2;stroke-miterlimit:10;" points="1115.7,608.1 1114.8,608.6 
				1114.2,607.7 			"/>
			
				<line style="fill:none;stroke:#09A4F0;stroke-width:2;stroke-miterlimit:10;stroke-dasharray:2.0638,2.0638;" x1="1113" y1="606.1" x2="1094.6" y2="579.9"/>
			<polyline style="fill:none;stroke:#09A4F0;stroke-width:2;stroke-miterlimit:10;" points="1094,579.1 1093.5,578.2 1094.3,577.6 
							"/>
			
				<line style="fill:none;stroke:#09A4F0;stroke-width:2;stroke-miterlimit:10;stroke-dasharray:1.6334,1.6334;" x1="1095.6" y1="576.6" x2="1097.5" y2="575.2"/>
			<polyline style="fill:none;stroke:#09A4F0;stroke-width:2;stroke-miterlimit:10;" points="1098.2,574.7 1099,574.1 1098.3,573.3 
							"/>
			<polyline style="fill:none;stroke:#09A4F0;stroke-width:2;stroke-miterlimit:10;" points="1097.1,572 1096.5,571.2 1097.4,570.9 
							"/>
			
				<line style="fill:none;stroke:#09A4F0;stroke-width:2;stroke-miterlimit:10;stroke-dasharray:2.409,2.409;" x1="1099.7" y1="570.1" x2="1103.1" y2="568.8"/>
			<polyline style="fill:none;stroke:#09A4F0;stroke-width:2;stroke-miterlimit:10;" points="1104.2,568.4 1105.1,568.1 
				1104.8,567.1 			"/>
			
				<line style="fill:none;stroke:#09A4F0;stroke-width:2;stroke-miterlimit:10;stroke-dasharray:2.0122,2.0122;" x1="1104.1" y1="565.2" x2="1101.8" y2="558.6"/>
			<polyline style="fill:none;stroke:#09A4F0;stroke-width:2;stroke-miterlimit:10;" points="1101.4,557.6 1101.1,556.7 
				1102.1,556.4 			"/>
			
				<line style="fill:none;stroke:#09A4F0;stroke-width:2;stroke-miterlimit:10;stroke-dasharray:1.7296,1.7296;" x1="1103.7" y1="556" x2="1112.9" y2="553.4"/>
			<polyline style="fill:none;stroke:#09A4F0;stroke-width:2;stroke-miterlimit:10;" points="1113.7,553.2 1114.7,552.9 
				1114.2,552.1 			"/>
			
				<line style="fill:none;stroke:#09A4F0;stroke-width:2;stroke-miterlimit:10;stroke-dasharray:2.0346,2.0346;" x1="1113.1" y1="550.4" x2="1109.2" y2="544.4"/>
			<polyline style="fill:none;stroke:#09A4F0;stroke-width:2;stroke-miterlimit:10;" points="1108.7,543.5 1108.1,542.7 
				1107.3,543.3 			"/>
			
				<line style="fill:none;stroke:#09A4F0;stroke-width:2;stroke-miterlimit:10;stroke-dasharray:1.4659,1.4659;" x1="1106.1" y1="544.1" x2="1104.2" y2="545.3"/>
			<polyline style="fill:none;stroke:#09A4F0;stroke-width:2;stroke-miterlimit:10;" points="1103.6,545.7 1102.8,546.2 
				1102.3,545.4 			"/>
			
				<line style="fill:none;stroke:#09A4F0;stroke-width:2;stroke-miterlimit:10;stroke-dasharray:1.9183,1.9183;" x1="1101.4" y1="543.7" x2="1100.1" y2="541.1"/>
			<polyline style="fill:none;stroke:#09A4F0;stroke-width:2;stroke-miterlimit:10;" points="1099.6,540.3 1099.1,539.4 
				1099.8,538.7 			"/>
			
				<line style="fill:none;stroke:#09A4F0;stroke-width:2;stroke-miterlimit:10;stroke-dasharray:1.4157,1.4157;" x1="1100.8" y1="537.7" x2="1102.3" y2="536.1"/>
			<polyline style="fill:none;stroke:#09A4F0;stroke-width:2;stroke-miterlimit:10;" points="1102.8,535.6 1103.5,534.9 1103,534 
							"/>
			
				<line style="fill:none;stroke:#09A4F0;stroke-width:2;stroke-miterlimit:10;stroke-dasharray:1.3289,1.3289;" x1="1102.3" y1="532.9" x2="1101.3" y2="531.1"/>
			<polyline style="fill:none;stroke:#09A4F0;stroke-width:2;stroke-miterlimit:10;" points="1101,530.6 1100.5,529.7 1101.4,529.2 
							"/>
			
				<line style="fill:none;stroke:#09A4F0;stroke-width:2;stroke-miterlimit:10;stroke-dasharray:1.3611,1.3611;" x1="1102.6" y1="528.6" x2="1104.4" y2="527.7"/>
			<path style="fill:none;stroke:#09A4F0;stroke-width:2;stroke-miterlimit:10;" d="M1105,527.4l0.9-0.5c0,0-0.3-0.2-0.8-0.6"/>
			<path style="fill:none;stroke:#09A4F0;stroke-width:2;stroke-miterlimit:10;stroke-dasharray:2.0497,2.0497;" d="M1103.6,524.9
				c-1.1-1.2-1.9-2.7,0.2-3.1c3.9-0.7,6,2.1,8-1.1c1.2-1.9,1.1-4.6,0.8-6.5"/>
			<path style="fill:none;stroke:#09A4F0;stroke-width:2;stroke-miterlimit:10;" d="M1112.4,513.3c-0.1-0.6-0.3-1-0.3-1l1-0.3"/>
			
				<line style="fill:none;stroke:#09A4F0;stroke-width:2;stroke-miterlimit:10;stroke-dasharray:1.949,1.949;" x1="1115" y1="511.5" x2="1125.2" y2="508.5"/>
			<polyline style="fill:none;stroke:#09A4F0;stroke-width:2;stroke-miterlimit:10;" points="1126.2,508.2 1127.1,507.9 
				1127.1,506.9 			"/>
			
				<line style="fill:none;stroke:#09A4F0;stroke-width:2;stroke-miterlimit:10;stroke-dasharray:2.0058,2.0058;" x1="1126.9" y1="504.9" x2="1126.4" y2="497.9"/>
		</g>
	</g>
	<g>
		<g>
			<polyline style="fill:none;stroke:#09A4F0;stroke-width:2;stroke-miterlimit:10;" points="1085.8,534 1085.3,534.9 1085.8,535.8 
							"/>
			<polyline style="fill:none;stroke:#09A4F0;stroke-width:2;stroke-miterlimit:10;" points="1085.8,535.9 1086.3,536.8 
				1085.3,537.1 			"/>
			<polyline style="fill:none;stroke:#09A4F0;stroke-width:2;stroke-miterlimit:10;" points="1084.5,537.3 1083.6,537.7 1084,538.5 
							"/>
			
				<line style="fill:none;stroke:#09A4F0;stroke-width:2;stroke-miterlimit:10;stroke-dasharray:1.5437,1.5437;" x1="1084.7" y1="539.9" x2="1085.8" y2="542"/>
			<polyline style="fill:none;stroke:#09A4F0;stroke-width:2;stroke-miterlimit:10;" points="1086.2,542.6 1086.6,543.5 
				1087.6,543.7 			"/>
			<polyline style="fill:none;stroke:#09A4F0;stroke-width:2;stroke-miterlimit:10;" points="1089.7,544.1 1090.7,544.3 1091,545.2 
							"/>
			
				<line style="fill:none;stroke:#09A4F0;stroke-width:2;stroke-miterlimit:10;stroke-dasharray:2.3441,2.3441;" x1="1091.9" y1="547.4" x2="1094.8" y2="555.1"/>
			<polyline style="fill:none;stroke:#09A4F0;stroke-width:2;stroke-miterlimit:10;" points="1095.2,556.2 1095.6,557.1 
				1096.5,556.7 			"/>
			
				<line style="fill:none;stroke:#09A4F0;stroke-width:2;stroke-miterlimit:10;stroke-dasharray:1.3556,1.3556;" x1="1097.7" y1="556.1" x2="1099.6" y2="555.3"/>
			<polyline style="fill:none;stroke:#09A4F0;stroke-width:2;stroke-miterlimit:10;" points="1100.2,555.1 1101.1,554.7 
				1100.6,553.8 			"/>
			<polyline style="fill:none;stroke:#09A4F0;stroke-width:2;stroke-miterlimit:10;stroke-dasharray:1.9081,1.9081;" points="
				1099.6,552.1 1094.1,542.4 1094.4,539.3 			"/>
			<polyline style="fill:none;stroke:#09A4F0;stroke-width:2;stroke-miterlimit:10;" points="1094.6,538.4 1094.7,537.4 
				1095.6,537.8 			"/>
			<polyline style="fill:none;stroke:#09A4F0;stroke-width:2;stroke-miterlimit:10;" points="1098.2,539 1099.1,539.4 1099.8,538.7 
							"/>
			
				<line style="fill:none;stroke:#09A4F0;stroke-width:2;stroke-miterlimit:10;stroke-dasharray:1.4157,1.4157;" x1="1100.8" y1="537.7" x2="1102.3" y2="536.1"/>
			<polyline style="fill:none;stroke:#09A4F0;stroke-width:2;stroke-miterlimit:10;" points="1102.8,535.6 1103.5,534.9 1103,534 
							"/>
			
				<line style="fill:none;stroke:#09A4F0;stroke-width:2;stroke-miterlimit:10;stroke-dasharray:1.3289,1.3289;" x1="1102.3" y1="532.9" x2="1101.3" y2="531.1"/>
			<polyline style="fill:none;stroke:#09A4F0;stroke-width:2;stroke-miterlimit:10;" points="1101,530.6 1100.5,529.7 1099.5,529.7 
							"/>
			<polyline style="fill:none;stroke:#09A4F0;stroke-width:2;stroke-miterlimit:10;stroke-dasharray:2.2035,2.2035;" points="
				1097.3,529.8 1089.7,530.2 1086.8,532.2 1086.3,533.1 			"/>
		</g>
	</g>
</g>
</svg>
