<?xml version="1.0" encoding="utf-8"?>
<!-- Generator: Adobe Illustrator 17.0.0, SVG Export Plug-In . SVG Version: 6.00 Build 0)  -->
<!DOCTYPE svg PUBLIC "-//W3C//DTD SVG 1.1//EN" "http://www.w3.org/Graphics/SVG/1.1/DTD/svg11.dtd">
<svg version="1.1" id="图层_1" xmlns="http://www.w3.org/2000/svg" xmlns:xlink="http://www.w3.org/1999/xlink" x="0px" y="0px"
	 width="48px" height="48px" viewBox="0 0 48 48" style="enable-background:new 0 0 48 48;" xml:space="preserve">
<g>
	<g>
		<g>
			<circle style="fill:#FF6666;" cx="24" cy="24" r="24"/>
		</g>
	</g>
	<g>
		<g>
			<g>
				<path style="fill:#333333;" d="M36.2,35.9c-6.7-6.9-17.7-6.9-24.4,0c-0.8,0.9,0.5,2.2,1.3,1.3c6-6.2,15.7-6.2,21.7,0
					C35.7,38.2,37,36.8,36.2,35.9L36.2,35.9z"/>
			</g>
		</g>
	</g>
	<g>
		<circle style="fill:#333333;" cx="16.7" cy="19.5" r="3.8"/>
	</g>
	<g>
		<circle style="fill:#333333;" cx="31" cy="19.5" r="3.8"/>
	</g>
	<g>
		<g>
			<path style="fill:#333333;" d="M32,6.9c-2.9,2.9-5.8,5.8-8.7,8.7c0.4,0,0.9,0,1.3,0c-2.9-2.9-5.8-5.8-8.7-8.7
				c-0.9-0.9-2.2,0.5-1.3,1.3c2.9,2.9,5.8,5.8,8.7,8.7c0.4,0.4,1,0.4,1.3,0c2.9-2.9,5.8-5.8,8.7-8.7C34.2,7.4,32.9,6.1,32,6.9
				L32,6.9z"/>
		</g>
	</g>
</g>
</svg>
