<?xml version="1.0" encoding="utf-8"?>
<!-- Generator: Adobe Illustrator 17.0.0, SVG Export Plug-In . SVG Version: 6.00 Build 0)  -->
<!DOCTYPE svg PUBLIC "-//W3C//DTD SVG 1.1//EN" "http://www.w3.org/Graphics/SVG/1.1/DTD/svg11.dtd">
<svg version="1.1" id="图层_1" xmlns="http://www.w3.org/2000/svg" xmlns:xlink="http://www.w3.org/1999/xlink" x="0px" y="0px"
	 width="720px" height="720px" viewBox="0 0 720 720" style="enable-background:new 0 0 720 720;" xml:space="preserve">
<g>
	<g>
		<path style="opacity:0;fill-rule:evenodd;clip-rule:evenodd;fill:#2F2A17;" d="M241.4,139c5.3-3.1,13.6-11,19-13.6
			c12-5.8,10.7-2,23.1-5.6c3.5-1,17.5-5.2,21-6c35.1-8.1,71-7.4,105.1,1.4c7.5,1.9,11.4,2.3,18.8,4.3c37.2,9.8,21.7,10.1,30.5,14.8
			c40.2,21.2,75,54.9,98.5,99.4c62.4,117.8,22,266.5-90.1,332.1c-54.4,31.8-109,48.7-189.8,16.8c-7.6-3-11.3-8.1-18.8-11.1
			c-9.7-3.8-4.6-7.2-13.8-12.4c-37.8-21.4-71.2-45.7-93.7-88c-50.7-95.7-33.5-211.9,34.8-287.2c2.3-2.6,4-2.8,6.4-5.2
			c2.5-2.5,5.8-7.3,8.3-9.6C213,157.7,226.6,147.6,241.4,139L241.4,139z"/>
		<path style="opacity:0.125;fill-rule:evenodd;clip-rule:evenodd;fill:#2F2A17;" d="M244.7,145.2c5.1-3,11.4-12,16.6-14.6
			c11.7-5.6,12.2-1.8,24.3-5.2c3.4-1,17-3.9,20.4-4.7c34.1-7.9,69-7.2,102,1.3c7.2,1.9,11.6-0.2,18.8,1.7
			c36.1,9.5,20.5,12.3,29.1,16.8c39,20.6,72.8,53.3,95.6,96.5C612,351.4,572.9,495.7,464,559.4c-52.8,30.9-105.8,47.3-184.2,16.3
			c-7.3-2.9-12.1-5.1-19.5-8c-9.4-3.7-3.3-9.8-12.2-14.8c-36.7-20.7-69.1-44.3-90.9-85.4C108,374.5,124.7,261.8,191,188.7
			c2.3-2.5,2.5-4.3,4.9-6.7c2.4-2.4,6.9-5.4,9.4-7.7C217.2,163.3,230.3,153.5,244.7,145.2L244.7,145.2z"/>
		<path style="opacity:0.25;fill-rule:evenodd;clip-rule:evenodd;fill:#2F2A17;" d="M248,151.4c4.9-2.9,9.2-13.1,14.3-15.5
			c11.3-5.5,13.7-1.5,25.4-4.8c3.3-0.9,16.5-2.6,19.8-3.4c33-7.6,66.9-6.9,98.9,1.3c7,1.8,11.8-2.8,18.8-0.9
			c35,9.2,19.3,14.5,27.7,18.9c37.9,20,70.6,51.7,92.7,93.5c58.7,110.9,20.7,250.8-84.8,312.5c-51.2,29.9-102.6,45.9-178.6,15.8
			c-7.1-2.8-13-2.1-20.1-4.9c-9.1-3.6-2-12.3-10.6-17.2c-35.6-20.1-67-43-88.1-82.8c-47.7-90.1-31.6-199.4,32.8-270.3
			c2.2-2.4,1-5.9,3.4-8.2c2.3-2.3,8.1-3.5,10.5-5.8C221.4,169,234.1,159.5,248,151.4L248,151.4z"/>
		<path style="opacity:0.375;fill-rule:evenodd;clip-rule:evenodd;fill:#2F2A17;" d="M251.3,157.6c4.8-2.8,7-14.1,11.9-16.5
			c10.9-5.3,15.2-1.2,26.5-4.4c3.2-0.9,16-1.3,19.1-2.1c32-7.4,64.8-6.7,95.8,1.3c6.8,1.7,12-5.3,18.8-3.5
			c33.9,8.9,18.2,16.7,26.3,20.9c36.7,19.4,68.4,50.1,89.8,90.6c56.9,107.4,20.1,243-82.2,302.7c-49.6,29-99.4,44.4-173,15.3
			c-6.9-2.7-13.9,0.9-20.8-1.8c-8.9-3.5-0.6-14.9-9-19.6c-34.5-19.5-64.9-41.6-85.4-80.2C123,373,138.6,267.2,200.9,198.5
			c2.1-2.4-0.4-7.5,1.8-9.7c2.2-2.3,9.3-1.7,11.6-3.8C225.5,174.6,237.9,165.4,251.3,157.6L251.3,157.6z"/>
		<path style="opacity:0.5;fill-rule:evenodd;clip-rule:evenodd;fill:#2F2A17;" d="M254.7,163.8c4.6-2.7,4.8-15.1,9.5-17.4
			c10.6-5.1,16.7-0.9,27.6-4c3.1-0.9,15.4-0.1,18.5-0.8c31-7.2,62.7-6.5,92.7,1.2c6.6,1.7,12.2-7.8,18.7-6.1
			c32.8,8.6,17,18.8,24.8,23c35.5,18.7,66.2,48.5,86.9,87.7c55,103.9,19.4,235.1-79.5,293c-48,28.1-96.2,43-167.4,14.8
			c-6.7-2.6-14.7,3.9-21.4,1.3c-8.6-3.4,0.7-17.5-7.4-22c-33.4-18.8-62.8-40.3-82.6-77.6c-44.7-84.5-29.6-186.9,30.7-253.4
			c2.1-2.3-1.9-9,0.3-11.2c2.2-2.2,10.5,0.2,12.7-1.9C229.7,180.3,241.6,171.4,254.7,163.8L254.7,163.8z"/>
		<path style="opacity:0.625;fill-rule:evenodd;clip-rule:evenodd;fill:#2F2A17;" d="M258,170c4.5-2.6,2.6-16.1,7.2-18.4
			c10.2-5,18.1-0.6,28.7-3.6c3-0.8,14.9,1.2,17.9,0.5c29.9-6.9,60.6-6.3,89.6,1.2c6.4,1.6,12.3-10.4,18.7-8.7
			c31.7,8.3,15.9,21,23.4,25c34.3,18.1,64,46.9,84,84.7c53.2,100.5,18.8,227.3-76.9,283.2c-46.4,27.1-93,41.6-161.9,14.3
			c-6.4-2.6-15.6,6.9-22,4.4c-8.3-3.3,2-20-5.8-24.4c-32.3-18.2-60.7-38.9-79.9-75c-43.2-81.6-28.6-180.7,29.7-244.9
			c2-2.2-3.4-10.6-1.3-12.7c2.1-2.1,11.7,2.1,13.9,0C233.8,185.9,245.4,177.3,258,170L258,170z"/>
		<path style="opacity:0.75;fill-rule:evenodd;clip-rule:evenodd;fill:#2F2A17;" d="M261.3,176.2c4.3-2.5,0.4-17.2,4.8-19.3
			c9.9-4.8,19.6-0.3,29.8-3.2c2.9-0.8,14.4,2.5,17.3,1.8c28.9-6.7,58.5-6.1,86.5,1.1c6.1,1.6,12.5-12.9,18.7-11.3
			c30.6,8.1,14.7,23.2,22,27c33.1,17.5,61.8,45.2,81.1,81.8c51.4,97,18.1,219.4-74.2,273.4c-44.8,26.2-89.8,40.1-156.3,13.9
			c-6.2-2.5-16.5,10-22.7,7.5c-8-3.2,3.4-22.6-4.2-26.9c-31.1-17.6-58.6-37.6-77.1-72.5c-41.7-78.8-27.6-174.4,28.7-236.4
			c1.9-2.1-4.8-12.2-2.8-14.2c2-2,12.8,3.9,15,2C238,191.6,249.2,183.3,261.3,176.2L261.3,176.2z"/>
		<path style="opacity:0.875;fill-rule:evenodd;clip-rule:evenodd;fill:#2F2A17;" d="M264.7,182.4c4.2-2.4-1.8-18.2,2.5-20.3
			c9.5-4.6,21.1,0,31-2.8c2.8-0.8,13.9,3.8,16.7,3.1c27.9-6.4,56.4-5.9,83.4,1.1c5.9,1.5,12.7-15.5,18.6-13.9
			c29.5,7.8,13.5,25.4,20.6,29.1c31.9,16.9,59.6,43.6,78.2,78.9c49.5,93.5,17.5,211.6-71.6,263.6c-43.2,25.3-86.6,38.7-150.7,13.4
			c-6-2.4-17.3,13-23.3,10.6c-7.7-3,4.7-25.2-2.6-29.3c-30-16.9-56.5-36.3-74.3-69.9c-40.2-76-26.6-168.2,27.6-228
			c1.9-2-6.3-13.7-4.3-15.7c2-2,14,5.8,16.1,3.9C242.2,197.2,252.9,189.2,264.7,182.4L264.7,182.4z"/>
		<path style="fill-rule:evenodd;clip-rule:evenodd;fill:#2F2A17;" d="M268,188.6c4-2.3-4-19.2,0.1-21.2c9.2-4.4,22.6,0.2,32.1-2.4
			c2.7-0.7,13.4,5,16,4.4c26.8-6.2,54.3-5.6,80.3,1.1c5.7,1.5,12.9-18,18.6-16.5c28.4,7.5,12.4,27.5,19.1,31.1
			c30.8,16.2,57.3,42,75.3,76c47.7,90.1,16.8,203.7-68.9,253.8c-41.6,24.3-83.4,37.3-145.1,12.9c-5.8-2.3-18.2,16-24,13.7
			c-7.4-2.9,6.1-27.7-1-31.7c-28.9-16.3-54.4-34.9-71.6-67.3c-38.7-73.2-25.6-161.9,26.6-219.5c1.8-2-7.8-15.3-5.9-17.2
			c1.9-1.9,15.2,7.7,17.2,5.8C246.3,202.9,256.7,195.2,268,188.6L268,188.6z"/>
	</g>
	<g>
		<path style="fill-rule:evenodd;clip-rule:evenodd;fill:#2F2A17;" d="M268,188.6c4-2.3-4-19.2,0.1-21.2c9.2-4.4,22.6,0.2,32.1-2.4
			c2.7-0.7,13.4,5,16,4.4c26.8-6.2,54.3-5.6,80.3,1.1c5.7,1.5,12.9-18,18.6-16.5c28.4,7.5,12.4,27.5,19.1,31.1
			c30.8,16.2,57.3,42,75.3,76c47.7,90.1,16.8,203.7-68.9,253.8c-41.6,24.3-83.4,37.3-145.1,12.9c-5.8-2.3-18.2,16-24,13.7
			c-7.4-2.9,6.1-27.7-1-31.7c-28.9-16.3-54.4-34.9-71.6-67.3c-38.7-73.2-25.6-161.9,26.6-219.5c1.8-2-7.8-15.3-5.9-17.2
			c1.9-1.9,15.2,7.7,17.2,5.8C246.3,202.9,256.7,195.2,268,188.6L268,188.6z"/>
		<path style="fill-rule:evenodd;clip-rule:evenodd;fill:#37331C;" d="M269.5,193.5c4.1-2.4-1.9-20.8,2.2-22.8
			c9.1-4.3,19.7,0.4,29-2.2c2.6-0.7,14,6.7,16.6,6.1c26.6-6,53.8-5.3,79.5,1.5c5.4,1.4,12-15.5,17.4-14.1c25.5,6.8,12,24.6,18.5,28
			c30.3,15.9,56.4,41.1,74,74.2c46.9,88,16.5,199.1-67.7,248.1c-41.2,23.9-83.1,35.6-141.9,12.8c-5.8-2.2-17.3,13.5-23.1,11.2
			c-6.9-2.7,4.5-24.6-2-28.3c-28.5-15.9-53.5-34.8-70.4-66.4c-38.4-72.1-25.1-159.8,27.5-215.8c1.9-2-9-15.2-7-17.2
			c2-1.9,15.7,8.2,17.8,6.4C248.7,207.3,259.3,199.5,269.5,193.5L269.5,193.5z"/>
		<path style="fill-rule:evenodd;clip-rule:evenodd;fill:#403B20;" d="M271,198.5c4.1-2.4,0.2-22.4,4.4-24.4
			c8.9-4.2,16.7,0.6,26-1.9c2.6-0.7,14.6,8.4,17.2,7.8c26.4-5.9,53.3-4.9,78.7,1.9c5,1.3,11.2-13,16.2-11.6
			c22.5,6.2,11.7,21.7,18,24.9c29.8,15.5,55.5,40.2,72.8,72.5c46,86,16.2,194.5-66.5,242.3c-40.7,23.5-82.7,33.9-138.7,12.7
			c-5.7-2.2-16.5,11-22.1,8.7c-6.4-2.6,2.9-21.5-3.1-24.9c-28-15.6-52.6-34.7-69.2-65.6c-38-71-24.5-157.6,28.4-212.1
			c2-2.1-10.2-15.2-8-17.2c2.2-2,16.2,8.8,18.4,6.9C251.1,211.7,261.9,203.8,271,198.5L271,198.5z"/>
		<path style="fill-rule:evenodd;clip-rule:evenodd;fill:#484425;" d="M272.5,203.4c4.1-2.4,2.3-24,6.5-26
			c8.8-4.1,13.8,0.8,22.9-1.7c2.6-0.7,15.2,10,17.7,9.5c26.1-5.7,52.8-4.6,77.9,2.3c4.7,1.3,10.3-10.5,15-9.2
			c19.6,5.5,11.4,18.7,17.4,21.8c29.3,15.2,54.5,39.3,71.5,70.8c45.2,83.9,16,189.9-65.3,236.6c-40.3,23.1-82.5,32.2-135.5,12.7
			c-5.7-2.1-15.6,8.5-21.2,6.2c-5.9-2.4,1.4-18.4-4.2-21.5c-27.5-15.2-51.6-34.5-67.9-64.8c-37.7-69.9-23.9-155.4,29.3-208.5
			c2.1-2.1-11.4-15.1-9.1-17.1c2.3-2,16.6,9.4,19,7.4C253.4,216.1,264.5,208.1,272.5,203.4L272.5,203.4z"/>
		<path style="fill-rule:evenodd;clip-rule:evenodd;fill:#514C29;" d="M274,208.4c4.2-2.4,4.4-25.6,8.6-27.6
			c8.7-4,10.9,0.9,19.8-1.4c2.5-0.7,15.8,11.7,18.3,11.1c25.9-5.5,52.3-4.3,77.1,2.7c4.4,1.2,9.4-8,13.8-6.7
			c16.6,4.8,11,15.8,16.8,18.7c28.8,14.8,53.6,38.4,70.2,69c44.3,81.9,15.7,185.2-64.1,230.8c-39.8,22.7-82.2,30.6-132.4,12.6
			c-5.7-2-14.7,6.1-20.3,3.7c-5.3-2.2-0.2-15.4-5.3-18.2c-27-14.9-50.7-34.4-66.7-64c-37.3-68.8-23.2-153.2,30.2-204.8
			c2.3-2.2-12.6-15.1-10.2-17.1c2.4-2.1,17.1,10,19.6,8C255.7,220.4,267.1,212.4,274,208.4L274,208.4z"/>
		<path style="fill-rule:evenodd;clip-rule:evenodd;fill:#59552E;" d="M275.6,213.4c4.2-2.4,6.5-27.2,10.8-29.2
			c8.6-3.9,7.9,1.1,16.8-1.2c2.5-0.6,16.4,13.3,18.9,12.8c25.7-5.3,51.8-4,76.3,3.1c4,1.1,8.6-5.5,12.6-4.3
			c13.7,4.1,10.7,12.8,16.2,15.6c28.3,14.5,52.7,37.5,68.9,67.3c43.5,79.8,15.4,180.6-62.9,225c-39.4,22.3-81.9,29-129.2,12.5
			c-5.7-2-13.8,3.6-19.4,1.2c-4.8-2-1.8-12.3-6.4-14.8c-26.6-14.5-49.8-34.3-65.5-63.2c-36.9-67.7-22.4-150.9,31.1-201.1
			c2.4-2.3-13.8-15-11.3-17.1c2.6-2.1,17.6,10.5,20.2,8.5C257.9,224.7,269.7,216.7,275.6,213.4L275.6,213.4z"/>
		<path style="fill-rule:evenodd;clip-rule:evenodd;fill:#615D32;" d="M277.1,218.3c4.3-2.4,8.6-28.8,12.9-30.8
			c8.4-3.8,5,1.3,13.7-0.9c2.5-0.6,17,15,19.4,14.5c25.5-5.2,51.3-3.6,75.5,3.5c3.7,1.1,7.7-3,11.4-1.8c10.7,3.4,10.4,9.9,15.6,12.5
			c27.8,14.2,51.8,36.6,67.7,65.6c42.7,77.8,15.1,176-61.7,219.3c-38.9,21.9-81.7,27.4-126,12.5c-5.7-1.9-12.9,1.1-18.5-1.3
			c-4.3-1.8-3.3-9.2-7.4-11.4c-26.1-14.1-48.8-34.2-64.3-62.3c-36.6-66.7-21.7-148.5,32-197.4c2.5-2.3-15.1-14.9-12.3-17.1
			c2.7-2.1,18,11.1,20.8,9C260.2,229,272.3,221.1,277.1,218.3L277.1,218.3z"/>
		<path style="fill-rule:evenodd;clip-rule:evenodd;fill:#6A6637;" d="M278.6,223.3c4.3-2.4,10.6-30.4,15-32.4
			c8.3-3.7,2.1,1.5,10.6-0.7c2.4-0.6,17.6,16.6,20,16.2c25.2-5,50.9-3.3,74.7,3.9c3.3,1,6.8-0.5,10.2,0.6c7.8,2.7,10.1,6.9,15,9.4
			c27.3,13.8,50.8,35.6,66.4,63.8c41.8,75.8,14.8,171.4-60.4,213.5c-38.5,21.5-81.4,25.9-122.8,12.4c-5.7-1.8-12.1-1.4-17.5-3.8
			c-3.8-1.6-4.9-6.1-8.5-8c-25.7-13.7-47.9-34-63.1-61.5c-36.2-65.6-20.9-146.1,32.9-193.7c2.7-2.3-16.3-14.9-13.4-17
			c2.8-2.2,18.5,11.6,21.4,9.6C262.4,233.3,274.9,225.4,278.6,223.3L278.6,223.3z"/>
		<path style="fill-rule:evenodd;clip-rule:evenodd;fill:#726E3B;" d="M280.1,228.3c4.3-2.4,12.7-32,17.2-33.9
			c8.2-3.6-0.9,1.6,7.6-0.4c2.4-0.6,18.2,18.3,20.6,17.8c25-4.8,50.4-3.1,73.9,4.3c3,0.9,6,2,8.9,3.1c4.9,1.9,9.7,4,14.4,6.3
			c26.9,13.5,49.9,34.7,65.1,62.1c41,73.7,14.5,166.7-59.2,207.8c-38,21.1-81.2,24.3-119.7,12.4c-5.7-1.8-11.2-3.8-16.6-6.2
			c-3.3-1.4-6.5-3-9.6-4.7c-25.2-13.4-47-33.9-61.9-60.7c-35.9-64.5-20.1-143.7,33.8-190c2.8-2.4-17.5-14.8-14.5-17
			c3-2.2,18.9,12.1,22,10.1C264.6,237.5,277.5,229.7,280.1,228.3L280.1,228.3z"/>
	</g>
	<polygon style="fill-rule:evenodd;clip-rule:evenodd;fill:#F2E765;" points="350.3,192.6 356.6,279.3 367.8,193.1 364.8,280 
		385.2,195.4 372.9,281.5 402.3,199.4 380.8,283.8 418.8,205.1 388.4,286.8 434.7,212.5 395.6,290.7 449.6,221.5 402.4,295.2 
		463.6,231.9 408.7,300.5 476.3,243.7 414.3,306.3 487.6,256.8 419.3,312.7 497.6,270.9 423.6,319.5 505.9,285.9 427.2,326.8 
		512.6,301.7 429.9,334.4 517.6,318.2 431.8,342.2 520.7,335 432.9,350.1 522.1,352 433.1,358.2 521.6,369.1 432.4,366.2 
		519.3,386.1 430.9,374.1 515.1,402.7 428.5,381.8 509.2,418.9 425.4,389.2 501.7,434.3 421.4,396.2 492.5,448.9 416.7,402.8 
		481.7,462.4 411.4,408.9 469.6,474.8 405.4,414.5 456.3,485.9 398.8,419.3 441.8,495.6 391.8,423.5 426.3,503.7 384.4,427 
		410.1,510.2 376.6,429.6 393.2,515 368.6,431.5 375.9,518.1 360.4,432.5 358.4,519.4 352.1,432.7 340.9,519 343.9,432.1 
		323.5,516.7 335.8,430.6 306.4,512.7 327.9,428.3 289.9,506.9 320.3,425.2 274,499.5 313.1,421.4 259.1,490.6 306.3,416.8 
		245.1,480.1 300,411.6 232.4,468.3 294.4,405.7 221,455.3 289.4,399.4 211.1,441.2 285.1,392.5 202.8,426.1 281.5,385.3 
		196.1,410.3 278.8,377.7 191.1,393.9 276.9,369.9 188,377.1 275.8,361.9 186.6,360 275.6,353.9 187.1,342.9 276.3,345.9 
		189.4,325.9 277.8,338 193.6,309.3 280.2,330.3 199.5,293.2 283.3,322.9 207,277.8 287.3,315.8 216.2,263.2 292,309.2 227,249.6 
		297.3,303.1 239.1,237.2 303.3,297.6 252.4,226.2 309.9,292.7 266.9,216.5 316.9,288.5 282.4,208.4 324.3,285.1 298.6,201.8 
		332.1,282.4 315.5,197 340.1,280.6 332.8,193.9 348.3,279.5 350.3,192.6 	"/>
	
		<linearGradient id="SVGID_1_" gradientUnits="userSpaceOnUse" x1="187.7274" y1="653.2489" x2="682.1138" y2="1763.6591" gradientTransform="matrix(0.3203 0 0 0.3203 199.573 -29.9993)">
		<stop  offset="0.15" style="stop-color:#F2E765"/>
		<stop  offset="0.85" style="stop-color:#CD7F08"/>
	</linearGradient>
	<polygon style="fill-rule:evenodd;clip-rule:evenodd;fill:url(#SVGID_1_);" points="484.1,239.8 419.1,309.6 510.3,241.2 
		424.5,316.5 507.4,269.2 429.3,324 516.6,285.6 433.2,331.8 524,302.8 436.2,340.1 529.7,320.7 438.4,348.7 533.4,339.1 
		439.7,357.4 535.1,357.8 440.1,366.2 534.9,376.6 439.5,375 539.1,397.4 438,383.7 528.6,413.6 435.7,392.1 539.6,438.8 
		432.4,400.3 522.2,454.8 428.3,408.1 505.3,464.6 423.5,415.5 494.1,479.7 417.8,422.3 481.3,493.5 411.5,428.4 467.3,505.9 
		404.6,433.9 453,525.2 397.2,438.6 435.6,526 389.3,442.5 418.3,533.4 381,445.6 400.4,557 372.5,447.8 382,542.7 363.8,449.1 
		363.3,544.5 355,449.4 344.6,544.3 346.2,448.9 325.9,542.1 337.5,447.4 307.6,538 329,445 289.8,532 320.8,441.8 272.7,524.2 
		313,437.7 256.6,514.6 305.7,432.8 241.5,503.4 298.9,427.2 227.7,490.7 292.7,420.9 215.3,476.6 287.2,414 204.4,461.3 
		282.5,406.6 195.2,445 278.6,398.7 154.9,444.7 275.5,390.4 182.1,409.8 273.3,381.9 178.4,391.4 272.1,373.1 176.7,372.7 
		271.7,364.3 144,353.9 272.3,355.6 179,335.3 273.7,346.9 183.1,317 276.1,338.4 189.1,299.2 279.3,330.2 196.9,282.1 283.4,322.4 
		206.5,265.9 288.3,315 217.7,250.9 293.9,308.2 230.4,237 300.2,302.1 244.5,224.6 307.1,296.6 259.8,213.8 314.6,291.9 
		276.2,204.6 322.5,288 277.5,151.5 330.7,284.9 311.3,179.8 339.3,282.7 329.7,187.8 348,281.4 348.4,186 356.8,281.1 368.9,151.1 
		365.6,281.6 385.9,175.7 374.3,283.1 415.7,162 382.8,285.5 431.5,178.4 391,288.7 439.1,206.3 398.8,292.8 455.2,215.9 
		406.1,297.7 470.3,227.1 412.9,303.3 484.1,239.8 	"/>
	
		<linearGradient id="SVGID_2_" gradientUnits="userSpaceOnUse" x1="309.1488" y1="642.0168" x2="803.5337" y2="1752.4233" gradientTransform="matrix(0.2812 1.420000e-002 -1.460000e-002 0.2734 210.6689 8.7854)">
		<stop  offset="0.13" style="stop-color:#F2E765"/>
		<stop  offset="0.87" style="stop-color:#CD7F08"/>
	</linearGradient>
	<polygon style="fill-rule:evenodd;clip-rule:evenodd;fill:url(#SVGID_2_);" points="473.3,256.1 413,312.8 483.5,268.7 417.5,319 
		492.4,282.3 421.3,325.6 499.7,296.6 424.4,332.5 505.5,311.7 426.7,339.6 509.6,327.2 428.2,347 512,343.1 429,354.5 512.7,359.1 
		428.9,362.1 511.7,375.2 428,369.6 508.9,391 426.3,376.9 504.5,406.4 423.8,384.1 498.4,421.4 420.6,390.9 490.8,435.6 
		416.7,397.4 481.6,449 412,403.4 471.1,461.3 406.8,409 459.3,472.6 401,414 446.4,482.6 394.7,418.3 432.4,491.2 387.9,422 
		417.7,498.3 380.8,425 402.2,503.9 373.4,427.3 386.2,507.9 365.8,428.8 369.9,510.2 358.1,429.5 353.4,510.9 350.4,429.4 
		336.9,509.9 342.7,428.5 320.6,507.2 335.1,426.9 304.7,502.9 327.8,424.5 289.4,497 320.7,421.4 274.8,489.6 314,417.5 261,480.7 
		307.8,413 248.3,470.5 302.1,407.9 236.7,459 297,402.3 226.5,446.4 292.5,396.1 217.6,432.9 288.7,389.6 210.3,418.5 285.6,382.7 
		204.5,403.5 283.3,375.5 200.4,387.9 281.8,368.1 198,372 281,360.6 197.3,356 281.1,353.1 198.3,340 282,345.6 201.1,324.1 
		283.7,338.2 205.5,308.7 286.2,331.1 211.6,293.8 289.4,324.2 219.2,279.5 293.3,317.7 228.4,266.2 298,311.7 238.9,253.8 
		303.2,306.2 250.7,242.6 309,301.2 263.6,232.6 315.3,296.8 277.5,224 322.1,293.1 292.3,216.8 329.2,290.1 307.8,211.2 
		336.6,287.9 323.8,207.2 344.2,286.4 340.1,204.9 351.9,285.7 356.6,204.2 359.6,285.7 376.2,175.3 367.3,286.6 389.4,207.9 
		374.9,288.2 416.8,186.6 382.2,290.6 420.6,218.1 389.3,293.8 435.2,225.5 395.9,297.6 449,234.4 402.2,302.1 461.7,244.7 
		407.9,307.2 473.3,256.1 	"/>
	<polygon style="fill-rule:evenodd;clip-rule:evenodd;fill:#F2E765;" points="398,197.6 379.1,279.7 414.1,202.8 386.5,282.5 
		429.6,209.6 393.6,286 444.3,217.9 400.3,290.3 458.1,227.7 406.5,295.2 470.7,238.9 412.1,300.7 482,251.2 417.1,306.8 
		491.9,264.7 421.4,313.3 500.4,279 425,320.3 507.2,294.2 427.8,327.5 512.4,309.9 429.8,335 515.8,326.2 431.1,342.7 517.5,342.6 
		431.4,350.5 517.4,359.2 431,358.2 515.6,375.6 429.7,365.9 512,391.8 427.6,373.4 506.6,407.5 424.7,380.6 499.6,422.6 421,387.5 
		491.1,436.9 416.6,394 481,450.2 411.6,400 469.5,462.5 405.9,405.5 456.8,473.5 399.7,410.4 443,483.1 393,414.6 428.2,491.3 
		385.8,418.1 412.7,498 378.4,420.8 396.4,503 370.6,422.8 379.8,506.4 362.7,424 362.9,508.1 354.8,424.3 345.8,508 346.8,423.9 
		328.9,506.2 338.9,422.6 312.3,502.6 331.2,420.6 296.1,497.5 323.8,417.8 280.6,490.6 316.7,414.2 265.9,482.3 310,409.9 
		252.2,472.5 303.8,405 239.6,461.4 298.2,399.5 228.3,449 293.2,393.5 218.3,435.6 288.9,386.9 209.9,421.2 285.3,380 203.1,406.1 
		282.4,372.7 197.9,390.3 280.4,365.2 194.4,374.1 279.2,357.5 192.7,357.6 278.8,349.8 192.8,341.1 279.3,342 194.7,324.6 
		280.6,334.3 198.3,308.5 282.7,326.9 203.6,292.8 285.6,319.6 210.6,277.7 289.2,312.7 219.2,263.4 293.6,306.2 229.3,250 
		298.7,300.2 240.7,237.8 304.3,294.7 253.4,226.8 310.6,289.9 267.2,217.1 317.3,285.7 282,208.9 324.4,282.2 297.6,202.2 
		331.9,279.4 313.8,197.2 339.6,277.5 330.5,193.9 347.5,276.3 347.4,192.2 355.5,275.9 364.4,192.3 363.5,276.4 381.3,194.1 
		371.4,277.6 398,197.6 	"/>
	<polygon style="fill-rule:evenodd;clip-rule:evenodd;fill:#F2E765;" points="407.1,197.1 383.2,282.9 423.5,203.4 390.7,286.3 
		439.1,211.4 397.8,290.4 453.7,221.1 404.4,295.3 499.6,197 410.5,300.8 479.7,244.6 416,307 490.7,258.3 420.8,313.6 518.9,262.7 
		424.9,320.8 508,288.7 428.2,328.3 514.3,305.1 430.7,336.2 557,313.1 432.4,344.2 521.4,339.4 433.2,352.4 555.3,356.3 
		433.2,360.6 521.2,374.4 432.3,368.8 518.4,391.7 430.6,376.9 513.8,408.6 428,384.7 507.5,425 424.6,392.2 499.4,440.6 
		420.5,399.3 489.8,455.2 415.6,405.9 478.7,468.8 410.1,412 495.7,504.8 403.9,417.5 473.3,522.1 397.2,422.3 443.6,518.3 
		390.1,426.4 422.2,509.5 382.6,429.7 405.8,515.7 374.7,432.2 388.8,520.2 366.7,433.9 371.5,522.9 358.5,434.7 354,523.7 
		350.2,434.7 336.5,522.7 342.1,433.8 319.2,519.9 334,432.1 296.5,540.1 326.2,429.5 263.4,554.5 318.7,426.1 264,516.5 311.6,422 
		255.6,491.3 304.9,417.1 226.2,496.1 298.9,411.6 229.7,467.8 293.4,405.4 183.8,478.5 288.6,398.7 209.2,439.3 284.5,391.6 
		201.4,423.7 281.2,384.1 195.1,407.3 278.7,376.2 190.7,390.3 277,368.2 188,373 276.1,360 187.2,355.5 276.2,351.7 188.1,338 
		277.1,343.6 191,320.7 278.8,335.5 195.6,303.7 281.4,327.7 181.8,276.8 284.8,320.2 210,271.8 288.9,313.1 209,246.5 293.8,306.4 
		220.1,233 299.3,300.3 220.9,207.9 305.5,294.9 256.8,220.2 312.1,290.1 255,184.2 319.3,286 262.6,144.8 326.8,282.7 297.5,170.9 
		334.7,280.1 320.6,192.2 342.7,278.5 337.9,189.5 350.9,277.6 355.4,188.6 359.1,277.7 372.9,189.6 367.3,278.6 390.2,192.5 
		375.4,280.3 407.1,197.1 	"/>
	
		<linearGradient id="SVGID_3_" gradientUnits="userSpaceOnUse" x1="447.125" y1="1937.5315" x2="412.7832" y2="954.1116" gradientTransform="matrix(0.2799 -0.1557 0.1557 0.2799 9.1455 23.3265)">
		<stop  offset="0.22" style="stop-color:#F9ED6A"/>
		<stop  offset="0.5728" style="stop-color:#F9ED6A"/>
		<stop  offset="0.78" style="stop-color:#FFFFFF"/>
	</linearGradient>
	<path style="fill-rule:evenodd;clip-rule:evenodd;fill:url(#SVGID_3_);" d="M277.7,222.9c76.1-42.3,172-14.9,214.3,61.1
		c42.3,76.1,14.9,172-61.1,214.3s-172,14.9-214.3-61.1C174.3,361.2,201.7,265.2,277.7,222.9z"/>
	<g>
		
			<linearGradient id="SVGID_4_" gradientUnits="userSpaceOnUse" x1="311.8647" y1="1817.3289" x2="297.5356" y2="996.4117" gradientTransform="matrix(0.3096 -0.1722 0.1722 0.3096 22.6987 -14.5533)">
			<stop  offset="0.14" style="stop-color:#F5DB2F"/>
			<stop  offset="0.5936" style="stop-color:#F5DB2F"/>
			<stop  offset="0.86" style="stop-color:#FFFFFF"/>
		</linearGradient>
		<path style="fill-rule:evenodd;clip-rule:evenodd;fill:url(#SVGID_4_);" d="M294.3,238.1c75.2-41.8,154.1-29.5,195.9,45.7
			c41.8,75.2,14.8,170.1-60.4,211.9c-75.2,41.8-170.1,14.8-211.9-60.4C176.1,360.1,219.1,280,294.3,238.1L294.3,238.1z"/>
		
			<linearGradient id="SVGID_5_" gradientUnits="userSpaceOnUse" x1="313.2513" y1="1819.0294" x2="297.6682" y2="1003.9193" gradientTransform="matrix(0.309 -0.1718 0.1718 0.309 23.0865 -13.9845)">
			<stop  offset="0.14" style="stop-color:#F5D92F"/>
			<stop  offset="0.23" style="stop-color:#F5D92F"/>
			<stop  offset="0.5702" style="stop-color:#F5D92F"/>
			<stop  offset="0.5936" style="stop-color:#F5DA2F"/>
			<stop  offset="0.77" style="stop-color:#FCF2B3"/>
			<stop  offset="0.86" style="stop-color:#FFFDF6"/>
		</linearGradient>
		<path style="fill-rule:evenodd;clip-rule:evenodd;fill:url(#SVGID_5_);" d="M295.8,240.3c75-41.7,152.6-31.2,194.4,43.9
			c41.7,75,14.7,169.7-60.3,211.4c-75,41.7-169.7,14.7-211.4-60.3C176.7,360.3,220.7,282,295.8,240.3L295.8,240.3z"/>
		
			<linearGradient id="SVGID_6_" gradientUnits="userSpaceOnUse" x1="314.6412" y1="1820.7328" x2="297.8238" y2="1011.4551" gradientTransform="matrix(0.3083 -0.1715 0.1715 0.3083 23.4743 -13.4158)">
			<stop  offset="0.14" style="stop-color:#F5D82F"/>
			<stop  offset="0.23" style="stop-color:#F5D82F"/>
			<stop  offset="0.5702" style="stop-color:#F5D82F"/>
			<stop  offset="0.5936" style="stop-color:#F5D82F"/>
			<stop  offset="0.77" style="stop-color:#FCF1AE"/>
			<stop  offset="0.86" style="stop-color:#FFFCED"/>
		</linearGradient>
		<path style="fill-rule:evenodd;clip-rule:evenodd;fill:url(#SVGID_6_);" d="M297.2,242.4c74.9-41.6,151.2-32.8,192.8,42.1
			c41.7,74.9,14.7,169.4-60.2,211c-74.9,41.6-169.4,14.7-211-60.2C177.2,360.5,222.4,284.1,297.2,242.4L297.2,242.4z"/>
		
			<linearGradient id="SVGID_7_" gradientUnits="userSpaceOnUse" x1="316.0343" y1="1822.4391" x2="298.0025" y2="1019.0189" gradientTransform="matrix(0.3077 -0.1711 0.1711 0.3077 23.8622 -12.847)">
			<stop  offset="0.14" style="stop-color:#F5D62F"/>
			<stop  offset="0.23" style="stop-color:#F5D62F"/>
			<stop  offset="0.5702" style="stop-color:#F5D62F"/>
			<stop  offset="0.5936" style="stop-color:#F5D72F"/>
			<stop  offset="0.77" style="stop-color:#FCF0A8"/>
			<stop  offset="0.86" style="stop-color:#FFFAE4"/>
		</linearGradient>
		<path style="fill-rule:evenodd;clip-rule:evenodd;fill:url(#SVGID_7_);" d="M298.7,244.6c74.7-41.6,149.7-34.5,191.3,40.2
			c41.6,74.7,14.7,169-60,210.6c-74.7,41.6-169,14.7-210.6-60C177.8,360.6,224,286.2,298.7,244.6L298.7,244.6z"/>
		
			<linearGradient id="SVGID_8_" gradientUnits="userSpaceOnUse" x1="317.4306" y1="1824.1484" x2="298.2044" y2="1026.61" gradientTransform="matrix(0.3071 -0.1708 0.1708 0.3071 24.25 -12.2782)">
			<stop  offset="0.14" style="stop-color:#F5D52F"/>
			<stop  offset="0.23" style="stop-color:#F5D52F"/>
			<stop  offset="0.5702" style="stop-color:#F5D52F"/>
			<stop  offset="0.5936" style="stop-color:#F5D52F"/>
			<stop  offset="0.77" style="stop-color:#FCEEA3"/>
			<stop  offset="0.86" style="stop-color:#FEF8DC"/>
		</linearGradient>
		<path style="fill-rule:evenodd;clip-rule:evenodd;fill:url(#SVGID_8_);" d="M300.1,246.7c74.6-41.5,148.2-36.2,189.7,38.4
			c41.5,74.6,14.6,168.7-59.9,210.1c-74.6,41.5-168.7,14.6-210.1-59.9C178.3,360.8,225.6,288.2,300.1,246.7L300.1,246.7z"/>
		
			<linearGradient id="SVGID_9_" gradientUnits="userSpaceOnUse" x1="318.8301" y1="1825.8606" x2="298.4296" y2="1034.2275" gradientTransform="matrix(0.3064 -0.1704 0.1704 0.3064 24.6378 -11.7095)">
			<stop  offset="0.14" style="stop-color:#F5D32F"/>
			<stop  offset="0.23" style="stop-color:#F5D32F"/>
			<stop  offset="0.5702" style="stop-color:#F5D32F"/>
			<stop  offset="0.5936" style="stop-color:#F5D42F"/>
			<stop  offset="0.77" style="stop-color:#FCED9D"/>
			<stop  offset="0.86" style="stop-color:#FEF6D3"/>
		</linearGradient>
		<path style="fill-rule:evenodd;clip-rule:evenodd;fill:url(#SVGID_9_);" d="M301.6,248.9c74.4-41.4,146.8-37.8,188.2,36.6
			c41.4,74.4,14.6,168.3-59.8,209.7c-74.4,41.4-168.3,14.6-209.7-59.8C178.8,361,227.2,290.3,301.6,248.9L301.6,248.9z"/>
		
			<linearGradient id="SVGID_10_" gradientUnits="userSpaceOnUse" x1="320.2328" y1="1827.5759" x2="298.6782" y2="1041.8707" gradientTransform="matrix(0.3058 -0.1701 0.1701 0.3058 25.0256 -11.1407)">
			<stop  offset="0.14" style="stop-color:#F4D22F"/>
			<stop  offset="0.23" style="stop-color:#F4D22F"/>
			<stop  offset="0.5702" style="stop-color:#F4D22F"/>
			<stop  offset="0.5936" style="stop-color:#F5D330"/>
			<stop  offset="0.77" style="stop-color:#FCEC98"/>
			<stop  offset="0.86" style="stop-color:#FEF5CA"/>
		</linearGradient>
		<path style="fill-rule:evenodd;clip-rule:evenodd;fill:url(#SVGID_10_);" d="M303,251c74.3-41.3,145.3-39.5,186.6,34.8
			c41.3,74.3,14.6,168-59.7,209.3c-74.3,41.3-168,14.6-209.3-59.7C179.4,361.2,228.8,292.3,303,251L303,251z"/>
		
			<linearGradient id="SVGID_11_" gradientUnits="userSpaceOnUse" x1="321.6387" y1="1829.2942" x2="298.9502" y2="1049.5383" gradientTransform="matrix(0.3052 -0.1697 0.1697 0.3052 25.4134 -10.5719)">
			<stop  offset="0.14" style="stop-color:#F4D02F"/>
			<stop  offset="0.23" style="stop-color:#F4D02F"/>
			<stop  offset="0.5702" style="stop-color:#F4D02F"/>
			<stop  offset="0.5936" style="stop-color:#F5D130"/>
			<stop  offset="0.77" style="stop-color:#FCEB92"/>
			<stop  offset="0.86" style="stop-color:#FEF3C1"/>
		</linearGradient>
		<path style="fill-rule:evenodd;clip-rule:evenodd;fill:url(#SVGID_11_);" d="M304.5,253.2c74.1-41.2,143.8-41.2,185.1,32.9
			c41.2,74.1,14.6,167.6-59.6,208.8c-74.1,41.2-167.6,14.5-208.8-59.6C179.9,361.3,230.4,294.4,304.5,253.2L304.5,253.2z"/>
		
			<linearGradient id="SVGID_12_" gradientUnits="userSpaceOnUse" x1="323.0479" y1="1831.0156" x2="299.2457" y2="1057.2289" gradientTransform="matrix(0.3045 -0.1694 0.1694 0.3045 25.8013 -10.0032)">
			<stop  offset="0.14" style="stop-color:#F4CE2F"/>
			<stop  offset="0.23" style="stop-color:#F4CE2F"/>
			<stop  offset="0.5702" style="stop-color:#F4CE2F"/>
			<stop  offset="0.5936" style="stop-color:#F5D030"/>
			<stop  offset="0.77" style="stop-color:#FCEA8D"/>
			<stop  offset="0.86" style="stop-color:#FEF1B8"/>
		</linearGradient>
		<path style="fill-rule:evenodd;clip-rule:evenodd;fill:url(#SVGID_12_);" d="M305.9,255.3c73.9-41.1,142.4-42.8,183.5,31.1
			c41.1,73.9,14.5,167.3-59.4,208.4c-74,41.1-167.3,14.5-208.4-59.4C180.5,361.5,232,296.5,305.9,255.3L305.9,255.3z"/>
		
			<linearGradient id="SVGID_13_" gradientUnits="userSpaceOnUse" x1="324.4603" y1="1832.74" x2="299.5647" y2="1064.9406" gradientTransform="matrix(0.3039 -0.169 0.169 0.3039 26.1891 -9.4344)">
			<stop  offset="0.14" style="stop-color:#F4CD2F"/>
			<stop  offset="0.23" style="stop-color:#F4CD2F"/>
			<stop  offset="0.5702" style="stop-color:#F4CD2F"/>
			<stop  offset="0.5936" style="stop-color:#F5CF30"/>
			<stop  offset="0.77" style="stop-color:#FCE987"/>
			<stop  offset="0.86" style="stop-color:#FEF0AF"/>
		</linearGradient>
		<path style="fill-rule:evenodd;clip-rule:evenodd;fill:url(#SVGID_13_);" d="M307.4,257.5c73.8-41,140.9-44.5,182,29.3
			c41.1,73.8,14.5,166.9-59.3,208c-73.8,41-166.9,14.5-208-59.3C181,361.7,233.6,298.5,307.4,257.5L307.4,257.5z"/>
		
			<linearGradient id="SVGID_14_" gradientUnits="userSpaceOnUse" x1="325.8759" y1="1834.4677" x2="299.9073" y2="1072.6711" gradientTransform="matrix(0.3033 -0.1687 0.1687 0.3033 26.5769 -8.8656)">
			<stop  offset="0.14" style="stop-color:#F4CB2F"/>
			<stop  offset="0.23" style="stop-color:#F4CB2F"/>
			<stop  offset="0.5702" style="stop-color:#F4CB2F"/>
			<stop  offset="0.5936" style="stop-color:#F5CD30"/>
			<stop  offset="0.77" style="stop-color:#FCE882"/>
			<stop  offset="0.86" style="stop-color:#FEEEA6"/>
		</linearGradient>
		<path style="fill-rule:evenodd;clip-rule:evenodd;fill:url(#SVGID_14_);" d="M308.9,259.6c73.6-41,139.4-46.2,180.4,27.5
			c41,73.6,14.5,166.6-59.2,207.5c-73.6,41-166.6,14.5-207.5-59.2C181.6,361.8,235.2,300.6,308.9,259.6L308.9,259.6z"/>
		
			<linearGradient id="SVGID_15_" gradientUnits="userSpaceOnUse" x1="327.2948" y1="1836.1984" x2="300.2734" y2="1080.4177" gradientTransform="matrix(0.3026 -0.1683 0.1683 0.3026 26.9647 -8.2969)">
			<stop  offset="0.14" style="stop-color:#F4CA2E"/>
			<stop  offset="0.23" style="stop-color:#F4CA2E"/>
			<stop  offset="0.5702" style="stop-color:#F4CA2E"/>
			<stop  offset="0.5936" style="stop-color:#F4CC30"/>
			<stop  offset="0.77" style="stop-color:#FCE67C"/>
			<stop  offset="0.86" style="stop-color:#FDEC9E"/>
		</linearGradient>
		<path style="fill-rule:evenodd;clip-rule:evenodd;fill:url(#SVGID_15_);" d="M310.3,261.8c73.5-40.9,138-47.8,178.8,25.7
			c40.9,73.5,14.4,166.2-59.1,207.1C356.6,535.4,263.9,509,223,435.5C182.1,362,236.8,302.7,310.3,261.8L310.3,261.8z"/>
		
			<linearGradient id="SVGID_16_" gradientUnits="userSpaceOnUse" x1="328.7169" y1="1837.9324" x2="300.663" y2="1088.1765" gradientTransform="matrix(0.302 -0.168 0.168 0.302 27.3525 -7.7281)">
			<stop  offset="0.14" style="stop-color:#F4C82E"/>
			<stop  offset="0.23" style="stop-color:#F4C82E"/>
			<stop  offset="0.5702" style="stop-color:#F4C82E"/>
			<stop  offset="0.5936" style="stop-color:#F4CA30"/>
			<stop  offset="0.77" style="stop-color:#FCE577"/>
			<stop  offset="0.86" style="stop-color:#FDEA95"/>
		</linearGradient>
		<path style="fill-rule:evenodd;clip-rule:evenodd;fill:url(#SVGID_16_);" d="M311.8,263.9c73.3-40.8,136.5-49.5,177.3,23.8
			c40.8,73.3,14.4,165.9-58.9,206.7c-73.3,40.8-165.9,14.4-206.7-58.9C182.6,362.2,238.4,304.7,311.8,263.9L311.8,263.9z"/>
		
			<linearGradient id="SVGID_17_" gradientUnits="userSpaceOnUse" x1="330.1422" y1="1839.6697" x2="301.0758" y2="1095.943" gradientTransform="matrix(0.3014 -0.1676 0.1676 0.3014 27.7403 -7.1593)">
			<stop  offset="0.14" style="stop-color:#F4C72E"/>
			<stop  offset="0.23" style="stop-color:#F4C72E"/>
			<stop  offset="0.5702" style="stop-color:#F4C72E"/>
			<stop  offset="0.5936" style="stop-color:#F4C930"/>
			<stop  offset="0.77" style="stop-color:#FCE471"/>
			<stop  offset="0.86" style="stop-color:#FDE98C"/>
		</linearGradient>
		<path style="fill-rule:evenodd;clip-rule:evenodd;fill:url(#SVGID_17_);" d="M313.2,266.1c73.2-40.7,135-51.2,175.7,22
			c40.7,73.2,14.4,165.5-58.8,206.2c-73.2,40.7-165.5,14.4-206.2-58.8C183.2,362.4,240,306.8,313.2,266.1L313.2,266.1z"/>
		
			<linearGradient id="SVGID_18_" gradientUnits="userSpaceOnUse" x1="331.5706" y1="1841.4103" x2="301.5117" y2="1103.7111" gradientTransform="matrix(0.3007 -0.1673 0.1673 0.3007 28.1282 -6.5906)">
			<stop  offset="0.14" style="stop-color:#F4C52E"/>
			<stop  offset="0.23" style="stop-color:#F4C52E"/>
			<stop  offset="0.5702" style="stop-color:#F4C52E"/>
			<stop  offset="0.5936" style="stop-color:#F4C830"/>
			<stop  offset="0.77" style="stop-color:#FCE36C"/>
			<stop  offset="0.86" style="stop-color:#FDE783"/>
		</linearGradient>
		<path style="fill-rule:evenodd;clip-rule:evenodd;fill:url(#SVGID_18_);" d="M314.7,268.2c73-40.6,133.6-52.8,174.2,20.2
			c40.6,73,14.3,165.2-58.7,205.8c-73,40.6-165.2,14.3-205.8-58.7C183.7,362.5,241.6,308.9,314.7,268.2L314.7,268.2z"/>
		
			<linearGradient id="SVGID_19_" gradientUnits="userSpaceOnUse" x1="333.0024" y1="1843.1543" x2="301.9704" y2="1111.4733" gradientTransform="matrix(0.3001 -0.1669 0.1669 0.3001 28.516 -6.0218)">
			<stop  offset="0.14" style="stop-color:#F4C32E"/>
			<stop  offset="0.23" style="stop-color:#F4C32E"/>
			<stop  offset="0.5702" style="stop-color:#F4C32E"/>
			<stop  offset="0.5936" style="stop-color:#F4C630"/>
			<stop  offset="0.77" style="stop-color:#FCE266"/>
			<stop  offset="0.86" style="stop-color:#FDE57A"/>
		</linearGradient>
		<path style="fill-rule:evenodd;clip-rule:evenodd;fill:url(#SVGID_19_);" d="M316.1,270.4c72.9-40.5,132.1-54.5,172.6,18.4
			c40.5,72.9,14.3,164.8-58.6,205.4c-72.9,40.5-164.8,14.3-205.4-58.6C184.3,362.7,243.2,310.9,316.1,270.4L316.1,270.4z"/>
		
			<linearGradient id="SVGID_20_" gradientUnits="userSpaceOnUse" x1="334.4374" y1="1844.9017" x2="302.4513" y2="1119.2201" gradientTransform="matrix(0.2995 -0.1666 0.1666 0.2995 28.9038 -5.453)">
			<stop  offset="0.14" style="stop-color:#F3C22E"/>
			<stop  offset="0.23" style="stop-color:#F3C22E"/>
			<stop  offset="0.5702" style="stop-color:#F3C22E"/>
			<stop  offset="0.5936" style="stop-color:#F4C531"/>
			<stop  offset="0.77" style="stop-color:#FCE161"/>
			<stop  offset="0.86" style="stop-color:#FDE471"/>
		</linearGradient>
		<path style="fill-rule:evenodd;clip-rule:evenodd;fill:url(#SVGID_20_);" d="M317.6,272.5c72.7-40.4,130.6-56.2,171.1,16.6
			c40.4,72.7,14.3,164.5-58.4,204.9c-72.7,40.4-164.5,14.3-204.9-58.4C184.8,362.9,244.8,313,317.6,272.5L317.6,272.5z"/>
		
			<linearGradient id="SVGID_21_" gradientUnits="userSpaceOnUse" x1="335.8756" y1="1846.6528" x2="302.9538" y2="1126.9397" gradientTransform="matrix(0.2988 -0.1662 0.1662 0.2988 29.2916 -4.8843)">
			<stop  offset="0.14" style="stop-color:#F3C02E"/>
			<stop  offset="0.23" style="stop-color:#F3C02E"/>
			<stop  offset="0.5702" style="stop-color:#F3C02E"/>
			<stop  offset="0.5936" style="stop-color:#F4C431"/>
			<stop  offset="0.77" style="stop-color:#FCE05B"/>
			<stop  offset="0.86" style="stop-color:#FDE268"/>
		</linearGradient>
		<path style="fill-rule:evenodd;clip-rule:evenodd;fill:url(#SVGID_21_);" d="M319,274.7c72.6-40.4,129.2-57.8,169.5,14.7
			c40.4,72.6,14.3,164.1-58.3,204.5c-72.6,40.4-164.1,14.2-204.5-58.3C185.4,363,246.5,315,319,274.7L319,274.7z"/>
		
			<linearGradient id="SVGID_22_" gradientUnits="userSpaceOnUse" x1="337.317" y1="1848.4075" x2="303.4772" y2="1134.6179" gradientTransform="matrix(0.2982 -0.1659 0.1659 0.2982 29.6794 -4.3155)">
			<stop  offset="0.14" style="stop-color:#F3BF2E"/>
			<stop  offset="0.23" style="stop-color:#F3BF2E"/>
			<stop  offset="0.5702" style="stop-color:#F3BF2E"/>
			<stop  offset="0.5936" style="stop-color:#F4C231"/>
			<stop  offset="0.77" style="stop-color:#FCDE56"/>
			<stop  offset="0.86" style="stop-color:#FCE060"/>
		</linearGradient>
		<path style="fill-rule:evenodd;clip-rule:evenodd;fill:url(#SVGID_22_);" d="M320.5,276.8c72.4-40.3,127.7-59.5,168,12.9
			c40.3,72.4,14.2,163.8-58.2,204.1c-72.4,40.3-163.8,14.2-204.1-58.2C185.9,363.2,248.1,317.1,320.5,276.8L320.5,276.8z"/>
		
			<linearGradient id="SVGID_23_" gradientUnits="userSpaceOnUse" x1="338.7617" y1="1850.166" x2="304.0203" y2="1142.2379" gradientTransform="matrix(0.2976 -0.1655 0.1655 0.2976 30.0673 -3.7467)">
			<stop  offset="0.14" style="stop-color:#F3BD2E"/>
			<stop  offset="0.23" style="stop-color:#F3BD2E"/>
			<stop  offset="0.5702" style="stop-color:#F3BD2E"/>
			<stop  offset="0.5936" style="stop-color:#F4C131"/>
			<stop  offset="0.77" style="stop-color:#FCDD50"/>
			<stop  offset="0.86" style="stop-color:#FCDE57"/>
		</linearGradient>
		<path style="fill-rule:evenodd;clip-rule:evenodd;fill:url(#SVGID_23_);" d="M321.9,279c72.3-40.2,126.2-61.2,166.4,11.1
			c40.2,72.3,14.2,163.5-58.1,203.6c-72.3,40.2-163.4,14.2-203.6-58.1C186.4,363.4,249.7,319.2,321.9,279L321.9,279z"/>
		
			<linearGradient id="SVGID_24_" gradientUnits="userSpaceOnUse" x1="340.2096" y1="1851.9286" x2="304.5818" y2="1149.7811" gradientTransform="matrix(0.2969 -0.1652 0.1652 0.2969 30.4551 -3.178)">
			<stop  offset="0.14" style="stop-color:#F3BC2E"/>
			<stop  offset="0.23" style="stop-color:#F3BC2E"/>
			<stop  offset="0.5702" style="stop-color:#F3BC2E"/>
			<stop  offset="0.5936" style="stop-color:#F4BF31"/>
			<stop  offset="0.77" style="stop-color:#FCDC4B"/>
			<stop  offset="0.86" style="stop-color:#FCDD4E"/>
		</linearGradient>
		<path style="fill-rule:evenodd;clip-rule:evenodd;fill:url(#SVGID_24_);" d="M323.4,281.1c72.1-40.1,124.8-62.8,164.9,9.3
			c40.1,72.1,14.2,163.1-57.9,203.2c-72.1,40.1-163.1,14.2-203.2-57.9C187,363.6,251.3,321.2,323.4,281.1L323.4,281.1z"/>
		
			<linearGradient id="SVGID_25_" gradientUnits="userSpaceOnUse" x1="341.6607" y1="1853.6952" x2="305.1604" y2="1157.2275" gradientTransform="matrix(0.2963 -0.1648 0.1648 0.2963 30.8429 -2.6092)">
			<stop  offset="0.23" style="stop-color:#F3BA2E"/>
			<stop  offset="0.5702" style="stop-color:#F3BA2E"/>
			<stop  offset="0.77" style="stop-color:#FCDB45"/>
		</linearGradient>
		<path style="fill-rule:evenodd;clip-rule:evenodd;fill:url(#SVGID_25_);" d="M324.8,283.3c71.9-40,123.3-64.5,163.3,7.4
			c40,72,14.1,162.8-57.8,202.8c-71.9,40-162.8,14.1-202.8-57.8C187.5,363.7,252.9,323.3,324.8,283.3L324.8,283.3z"/>
	</g>
	<g>
		
			<linearGradient id="SVGID_26_" gradientUnits="userSpaceOnUse" x1="341.6607" y1="1853.6952" x2="305.1604" y2="1157.2275" gradientTransform="matrix(0.2963 -0.1648 0.1648 0.2963 30.8429 -2.6092)">
			<stop  offset="0.23" style="stop-color:#F3BA2E"/>
			<stop  offset="0.5702" style="stop-color:#F3BA2E"/>
			<stop  offset="0.77" style="stop-color:#FCDB45"/>
		</linearGradient>
		<path style="fill-rule:evenodd;clip-rule:evenodd;fill:url(#SVGID_26_);" d="M324.8,283.3c71.9-40,123.3-64.5,163.3,7.4
			c40,72,14.1,162.8-57.8,202.8c-71.9,40-162.8,14.1-202.8-57.8C187.5,363.7,252.9,323.3,324.8,283.3L324.8,283.3z"/>
		
			<linearGradient id="SVGID_27_" gradientUnits="userSpaceOnUse" x1="403.0035" y1="1699.3925" x2="369.947" y2="1068.6362" gradientTransform="matrix(0.3298 -0.157 0.157 0.3298 29.3742 -2.485)">
			<stop  offset="0.23" style="stop-color:#F1B72C"/>
			<stop  offset="0.5702" style="stop-color:#F1B72C"/>
			<stop  offset="0.77" style="stop-color:#FAD742"/>
		</linearGradient>
		<path style="fill-rule:evenodd;clip-rule:evenodd;fill:url(#SVGID_27_);" d="M326.9,287.4c71.6-39.8,121.7-65,161.1,4.8
			c39.4,69.8,13.8,161-57.8,200.8c-71.6,39.8-163,13.3-201.5-56.6C190.3,366.6,255.3,327.2,326.9,287.4L326.9,287.4z"/>
		
			<linearGradient id="SVGID_28_" gradientUnits="userSpaceOnUse" x1="443.8048" y1="1559.1014" x2="413.408" y2="979.0963" gradientTransform="matrix(0.3633 -0.1491 0.1491 0.3633 27.9055 -2.3607)">
			<stop  offset="0.23" style="stop-color:#EFB42A"/>
			<stop  offset="0.5702" style="stop-color:#EFB42A"/>
			<stop  offset="0.77" style="stop-color:#F8D23F"/>
		</linearGradient>
		<path style="fill-rule:evenodd;clip-rule:evenodd;fill:url(#SVGID_28_);" d="M329,291.6c71.2-39.6,120-65.5,158.8,2.2
			c38.8,67.7,13.4,159.2-57.8,198.8c-71.2,39.6-163.2,12.5-200.1-55.3C193,369.5,257.8,331.2,329,291.6L329,291.6z"/>
		
			<linearGradient id="SVGID_29_" gradientUnits="userSpaceOnUse" x1="469.6365" y1="1433.2236" x2="441.5442" y2="897.1907" gradientTransform="matrix(0.3968 -0.1413 0.1413 0.3968 26.4368 -2.2365)">
			<stop  offset="0.23" style="stop-color:#EEB229"/>
			<stop  offset="0.5702" style="stop-color:#EEB229"/>
			<stop  offset="0.77" style="stop-color:#F5CE3C"/>
		</linearGradient>
		<path style="fill-rule:evenodd;clip-rule:evenodd;fill:url(#SVGID_29_);" d="M331.1,295.7c70.8-39.4,118.4-65.9,156.6-0.4
			c38.2,65.5,13.1,157.4-57.7,196.8c-70.8,39.4-163.4,11.6-198.8-54.1C195.7,372.3,260.3,335.1,331.1,295.7L331.1,295.7z"/>
		
			<linearGradient id="SVGID_30_" gradientUnits="userSpaceOnUse" x1="484.6985" y1="1321.0524" x2="458.6586" y2="824.1816" gradientTransform="matrix(0.4303 -0.1334 0.1334 0.4303 24.9681 -2.1122)">
			<stop  offset="0.23" style="stop-color:#ECAF27"/>
			<stop  offset="0.5702" style="stop-color:#ECAF27"/>
			<stop  offset="0.77" style="stop-color:#F3C939"/>
		</linearGradient>
		<path style="fill-rule:evenodd;clip-rule:evenodd;fill:url(#SVGID_30_);" d="M333.2,299.9c70.5-39.2,116.7-66.4,154.3-3
			c37.6,63.4,12.7,155.6-57.7,194.8c-70.5,39.2-163.6,10.8-197.5-52.8C198.4,375.2,262.7,339.1,333.2,299.9L333.2,299.9z"/>
		
			<linearGradient id="SVGID_31_" gradientUnits="userSpaceOnUse" x1="492.0804" y1="1221.3771" x2="467.8854" y2="759.7091" gradientTransform="matrix(0.4638 -0.1256 0.1256 0.4638 23.4994 -1.988)">
			<stop  offset="0.23" style="stop-color:#EAAC25"/>
			<stop  offset="0.5702" style="stop-color:#EAAC25"/>
			<stop  offset="0.77" style="stop-color:#F1C536"/>
		</linearGradient>
		<path style="fill-rule:evenodd;clip-rule:evenodd;fill:url(#SVGID_31_);" d="M335.3,304c70.1-39,115.1-66.9,152-5.6
			c37,61.3,12.4,153.8-57.7,192.8c-70.1,39-163.9,10-196.2-51.6C201.2,378,265.2,343,335.3,304L335.3,304z"/>
		
			<linearGradient id="SVGID_32_" gradientUnits="userSpaceOnUse" x1="494.026" y1="1132.8279" x2="471.497" y2="702.9495" gradientTransform="matrix(0.4974 -0.1177 0.1177 0.4974 22.0306 -1.8637)">
			<stop  offset="0.23" style="stop-color:#E8A923"/>
			<stop  offset="0.5702" style="stop-color:#E8A923"/>
			<stop  offset="0.77" style="stop-color:#EFC134"/>
		</linearGradient>
		<path style="fill-rule:evenodd;clip-rule:evenodd;fill:url(#SVGID_32_);" d="M337.4,308.2c69.7-38.8,113.5-67.4,149.8-8.2
			c36.3,59.1,12.1,152-57.7,190.8c-69.7,38.8-164.1,9.2-194.8-50.3C203.9,380.9,267.6,346.9,337.4,308.2L337.4,308.2z"/>
		
			<linearGradient id="SVGID_33_" gradientUnits="userSpaceOnUse" x1="492.1546" y1="1054.0557" x2="471.1347" y2="652.9725" gradientTransform="matrix(0.5309 -0.1099 0.1099 0.5309 20.5619 -1.7395)">
			<stop  offset="0.23" style="stop-color:#E6A621"/>
			<stop  offset="0.5702" style="stop-color:#E6A621"/>
			<stop  offset="0.77" style="stop-color:#ECBC31"/>
		</linearGradient>
		<path style="fill-rule:evenodd;clip-rule:evenodd;fill:url(#SVGID_33_);" d="M339.4,312.3c69.3-38.6,111.8-67.8,147.5-10.8
			c35.7,57,11.7,150.2-57.6,188.8c-69.3,38.6-164.3,8.3-193.5-49.1C206.6,383.8,270.1,350.9,339.4,312.3L339.4,312.3z"/>
		
			<linearGradient id="SVGID_34_" gradientUnits="userSpaceOnUse" x1="487.632" y1="983.8149" x2="467.9826" y2="608.8816" gradientTransform="matrix(0.5644 -0.102 0.102 0.5644 19.0932 -1.6152)">
			<stop  offset="0.23" style="stop-color:#E5A420"/>
			<stop  offset="0.5702" style="stop-color:#E5A420"/>
			<stop  offset="0.77" style="stop-color:#EAB82E"/>
		</linearGradient>
		<path style="fill-rule:evenodd;clip-rule:evenodd;fill:url(#SVGID_34_);" d="M341.5,316.4c69-38.4,110.2-68.3,145.3-13.5
			c35.1,54.9,11.4,148.4-57.6,186.8c-69,38.4-164.5,7.5-192.2-47.8C209.3,386.6,272.6,354.8,341.5,316.4L341.5,316.4z"/>
		
			<linearGradient id="SVGID_35_" gradientUnits="userSpaceOnUse" x1="481.2969" y1="920.9966" x2="462.895" y2="569.8674" gradientTransform="matrix(0.5979 -9.417143e-002 9.417143e-002 0.5979 17.6245 -1.491)">
			<stop  offset="0.23" style="stop-color:#E3A11E"/>
			<stop  offset="0.5702" style="stop-color:#E3A11E"/>
			<stop  offset="0.77" style="stop-color:#E8B42B"/>
		</linearGradient>
		<path style="fill-rule:evenodd;clip-rule:evenodd;fill:url(#SVGID_35_);" d="M343.6,320.6c68.6-38.2,108.5-68.8,143-16.1
			c34.5,52.7,11,146.6-57.6,184.8c-68.6,38.2-164.8,6.7-190.9-46.6C212.1,389.5,275,358.7,343.6,320.6L343.6,320.6z"/>
		
			<linearGradient id="SVGID_36_" gradientUnits="userSpaceOnUse" x1="473.7528" y1="864.6318" x2="456.4892" y2="535.2223" gradientTransform="matrix(0.6314 -8.632381e-002 8.632381e-002 0.6314 16.1558 -1.3667)">
			<stop  offset="0.23" style="stop-color:#E19E1C"/>
			<stop  offset="0.5702" style="stop-color:#E19E1C"/>
			<stop  offset="0.77" style="stop-color:#E6AF28"/>
		</linearGradient>
		<path style="fill-rule:evenodd;clip-rule:evenodd;fill:url(#SVGID_36_);" d="M345.7,324.7c68.2-38,106.9-69.3,140.8-18.7
			c33.9,50.6,10.7,144.8-57.6,182.8c-68.2,38-165,5.9-189.6-45.3C214.8,392.4,277.5,362.7,345.7,324.7L345.7,324.7z"/>
		
			<linearGradient id="SVGID_37_" gradientUnits="userSpaceOnUse" x1="465.4345" y1="813.8839" x2="449.2119" y2="504.338" gradientTransform="matrix(0.6649 -7.847619e-002 7.847619e-002 0.6649 14.6871 -1.2425)">
			<stop  offset="0.23" style="stop-color:#DF9B1A"/>
			<stop  offset="0.5702" style="stop-color:#DF9B1A"/>
			<stop  offset="0.77" style="stop-color:#E3AB25"/>
		</linearGradient>
		<path style="fill-rule:evenodd;clip-rule:evenodd;fill:url(#SVGID_37_);" d="M347.8,328.9c67.9-37.7,105.2-69.8,138.5-21.3
			c33.3,48.5,10.3,143-57.5,180.8c-67.9,37.7-165.2,5-188.2-44.1C217.5,395.2,279.9,366.6,347.8,328.9L347.8,328.9z"/>
		
			<linearGradient id="SVGID_38_" gradientUnits="userSpaceOnUse" x1="456.6544" y1="768.0345" x2="441.386" y2="476.6959" gradientTransform="matrix(0.6984 -7.062857e-002 7.062857e-002 0.6984 13.2184 -1.1182)">
			<stop  offset="0.23" style="stop-color:#DD9818"/>
			<stop  offset="0.5702" style="stop-color:#DD9818"/>
			<stop  offset="0.77" style="stop-color:#E1A622"/>
		</linearGradient>
		<path style="fill-rule:evenodd;clip-rule:evenodd;fill:url(#SVGID_38_);" d="M349.9,333c67.5-37.5,103.6-70.2,136.3-23.9
			c32.7,46.3,10,141.2-57.5,178.8c-67.5,37.5-165.4,4.2-186.9-42.8C220.2,398.1,282.4,370.6,349.9,333L349.9,333z"/>
		
			<linearGradient id="SVGID_39_" gradientUnits="userSpaceOnUse" x1="447.6373" y1="726.4684" x2="433.2455" y2="451.8561" gradientTransform="matrix(0.7319 -6.278095e-002 6.278095e-002 0.7319 11.7497 -0.994)">
			<stop  offset="0.23" style="stop-color:#DB9516"/>
			<stop  offset="0.5702" style="stop-color:#DB9516"/>
			<stop  offset="0.77" style="stop-color:#DFA21F"/>
		</linearGradient>
		<path style="fill-rule:evenodd;clip-rule:evenodd;fill:url(#SVGID_39_);" d="M352,337.2c67.1-37.3,102-70.7,134-26.5
			c32,44.2,9.6,139.4-57.5,176.8c-67.1,37.3-165.7,3.4-185.6-41.5C223,400.9,284.9,374.5,352,337.2L352,337.2z"/>
		
			<linearGradient id="SVGID_40_" gradientUnits="userSpaceOnUse" x1="438.5437" y1="688.6592" x2="424.9589" y2="429.4453" gradientTransform="matrix(0.7654 -5.493333e-002 5.493333e-002 0.7654 10.281 -0.8697)">
			<stop  offset="0.23" style="stop-color:#DA9315"/>
			<stop  offset="0.5702" style="stop-color:#DA9315"/>
			<stop  offset="0.77" style="stop-color:#DD9E1C"/>
		</linearGradient>
		<path style="fill-rule:evenodd;clip-rule:evenodd;fill:url(#SVGID_40_);" d="M354.1,341.3c66.7-37.1,100.3-71.2,131.7-29.1
			c31.4,42.1,9.3,137.6-57.5,174.8c-66.7,37.1-165.9,2.5-184.3-40.3C225.7,403.8,287.3,378.4,354.1,341.3L354.1,341.3z"/>
		
			<linearGradient id="SVGID_41_" gradientUnits="userSpaceOnUse" x1="429.4876" y1="654.1561" x2="416.6472" y2="409.147" gradientTransform="matrix(0.7989 -4.708571e-002 4.708571e-002 0.7989 8.8123 -0.7455)">
			<stop  offset="0.23" style="stop-color:#D89013"/>
			<stop  offset="0.5702" style="stop-color:#D89013"/>
			<stop  offset="0.77" style="stop-color:#DA9919"/>
		</linearGradient>
		<path style="fill-rule:evenodd;clip-rule:evenodd;fill:url(#SVGID_41_);" d="M356.2,345.5c66.4-36.9,98.7-71.7,129.5-31.7
			c30.8,39.9,8.9,135.8-57.4,172.8c-66.4,36.9-166.1,1.7-183-39C228.4,406.7,289.8,382.4,356.2,345.5L356.2,345.5z"/>
		
			<linearGradient id="SVGID_42_" gradientUnits="userSpaceOnUse" x1="420.5492" y1="622.5719" x2="408.3969" y2="390.692" gradientTransform="matrix(0.8325 -3.923810e-002 3.923810e-002 0.8325 7.3435 -0.6212)">
			<stop  offset="0.23" style="stop-color:#D68D11"/>
			<stop  offset="0.5702" style="stop-color:#D68D11"/>
			<stop  offset="0.77" style="stop-color:#D89517"/>
		</linearGradient>
		<path style="fill-rule:evenodd;clip-rule:evenodd;fill:url(#SVGID_42_);" d="M358.2,349.6c66-36.7,97-72.2,127.2-34.4
			c30.2,37.8,8.6,134-57.4,170.8c-66,36.7-166.3,0.9-181.6-37.8C231.1,409.5,292.2,386.3,358.2,349.6L358.2,349.6z"/>
		
			<linearGradient id="SVGID_43_" gradientUnits="userSpaceOnUse" x1="411.7836" y1="593.5737" x2="400.2684" y2="373.851" gradientTransform="matrix(0.866 -3.139048e-002 3.139048e-002 0.866 5.8748 -0.497)">
			<stop  offset="0.23" style="stop-color:#D48A0F"/>
			<stop  offset="0.5702" style="stop-color:#D48A0F"/>
			<stop  offset="0.77" style="stop-color:#D69114"/>
		</linearGradient>
		<path style="fill-rule:evenodd;clip-rule:evenodd;fill:url(#SVGID_43_);" d="M360.3,353.8c65.6-36.5,95.4-72.6,125-37
			c29.6,35.7,8.2,132.3-57.4,168.8c-65.6,36.5-166.6,0.1-180.3-36.5C233.8,412.4,294.7,390.3,360.3,353.8L360.3,353.8z"/>
		
			<linearGradient id="SVGID_44_" gradientUnits="userSpaceOnUse" x1="403.2276" y1="566.8744" x2="392.3034" y2="358.4277" gradientTransform="matrix(0.8995 -2.354286e-002 2.354286e-002 0.8995 4.4061 -0.3727)">
			<stop  offset="0.23" style="stop-color:#D2870D"/>
			<stop  offset="0.5702" style="stop-color:#D2870D"/>
			<stop  offset="0.77" style="stop-color:#D48C11"/>
		</linearGradient>
		<path style="fill-rule:evenodd;clip-rule:evenodd;fill:url(#SVGID_44_);" d="M362.4,357.9c65.3-36.3,93.7-73.1,122.7-39.6
			c29,33.5,7.9,130.5-57.4,166.8c-65.3,36.3-166.8-0.8-179-35.3C236.6,415.3,297.2,394.2,362.4,357.9L362.4,357.9z"/>
		
			<linearGradient id="SVGID_45_" gradientUnits="userSpaceOnUse" x1="394.9049" y1="542.2253" x2="384.5297" y2="344.2538" gradientTransform="matrix(0.933 -1.569524e-002 1.569524e-002 0.933 2.9374 -0.2485)">
			<stop  offset="0.23" style="stop-color:#D1850C"/>
			<stop  offset="0.5702" style="stop-color:#D1850C"/>
			<stop  offset="0.77" style="stop-color:#D1880E"/>
		</linearGradient>
		<path style="fill-rule:evenodd;clip-rule:evenodd;fill:url(#SVGID_45_);" d="M364.5,362.1c64.9-36.1,92.1-73.6,120.5-42.2
			c28.4,31.4,7.6,128.7-57.3,164.8c-64.9,36.1-167-1.6-177.7-34C239.3,418.1,299.6,398.1,364.5,362.1L364.5,362.1z"/>
		
			<linearGradient id="SVGID_46_" gradientUnits="userSpaceOnUse" x1="386.8291" y1="519.4108" x2="376.9646" y2="331.1844" gradientTransform="matrix(0.9665 -7.847619e-003 7.847619e-003 0.9665 1.4687 -0.1242)">
			<stop  offset="0.23" style="stop-color:#CF820A"/>
			<stop  offset="0.5702" style="stop-color:#CF820A"/>
			<stop  offset="0.77" style="stop-color:#CF830B"/>
		</linearGradient>
		<path style="fill-rule:evenodd;clip-rule:evenodd;fill:url(#SVGID_46_);" d="M366.6,366.2c64.5-35.9,90.5-74.1,118.2-44.8
			c27.7,29.3,7.2,126.9-57.3,162.8c-64.5,35.9-167.2-2.4-176.3-32.8C242,421,302.1,402.1,366.6,366.2L366.6,366.2z"/>
		<path style="fill-rule:evenodd;clip-rule:evenodd;fill:#CD7F08;" d="M368.7,370.3c64.1-35.7,88.8-74.5,115.9-47.4
			c27.1,27.1,6.9,125.1-57.3,160.7c-64.1,35.7-167.4-3.2-175-31.5C244.7,423.8,304.5,406,368.7,370.3L368.7,370.3z"/>
	</g>
	<g>
		<path style="fill-rule:evenodd;clip-rule:evenodd;fill:#CD7F08;" d="M372.3,381.5c134.4-74.7,143.6,47.7,58.7,95
			C338.7,527.8,221.6,465.3,372.3,381.5L372.3,381.5z"/>
		<path style="fill-rule:evenodd;clip-rule:evenodd;fill:#CF8209;" d="M374.8,384.6c129.8-72.2,137.9,45.5,55.8,91.1
			C341.6,525.3,229.3,465.6,374.8,384.6L374.8,384.6z"/>
		<path style="fill-rule:evenodd;clip-rule:evenodd;fill:#D0860A;" d="M377.4,387.8c125.2-69.6,132.1,43.3,52.9,87.3
			C344.5,522.9,237.1,465.9,377.4,387.8L377.4,387.8z"/>
		<path style="fill-rule:evenodd;clip-rule:evenodd;fill:#D2890B;" d="M380,390.9c120.6-67.1,126.3,41.1,50.1,83.5
			C347.3,520.5,244.8,466.1,380,390.9L380,390.9z"/>
		<path style="fill-rule:evenodd;clip-rule:evenodd;fill:#D38C0C;" d="M382.6,394.1c116-64.5,120.6,38.9,47.2,79.7
			C350.2,518,252.5,466.4,382.6,394.1L382.6,394.1z"/>
		<path style="fill-rule:evenodd;clip-rule:evenodd;fill:#D58F0C;" d="M385.2,397.2c111.4-62,114.8,36.7,44.3,75.9
			C353.1,515.6,260.3,466.7,385.2,397.2L385.2,397.2z"/>
		<path style="fill-rule:evenodd;clip-rule:evenodd;fill:#D7930D;" d="M387.8,400.3c106.9-59.4,109,34.5,41.5,72.1
			C356,513.2,268,467,387.8,400.3L387.8,400.3z"/>
		<path style="fill-rule:evenodd;clip-rule:evenodd;fill:#D8960E;" d="M390.4,403.5c102.3-56.9,103.3,32.3,38.6,68.2
			C358.8,510.8,275.8,467.3,390.4,403.5L390.4,403.5z"/>
		<path style="fill-rule:evenodd;clip-rule:evenodd;fill:#DA990F;" d="M393,406.6c97.7-54.3,97.5,30.1,35.7,64.4
			C361.7,508.3,283.5,467.5,393,406.6L393,406.6z"/>
	</g>
	<g>
		<path style="fill-rule:evenodd;clip-rule:evenodd;fill:#DA990F;" d="M393,406.6c97.7-54.3,97.5,30.1,35.7,64.4
			C361.7,508.3,283.5,467.5,393,406.6L393,406.6z"/>
		<path style="fill-rule:evenodd;clip-rule:evenodd;fill:#DC9C12;" d="M394.4,410.2c92.4-51.4,92.2,28.4,33.8,60.9
			C364.8,506.4,290.9,467.8,394.4,410.2L394.4,410.2z"/>
		<path style="fill-rule:evenodd;clip-rule:evenodd;fill:#DDA014;" d="M395.8,413.8c87.1-48.4,86.9,26.8,31.9,57.4
			C368,504.4,298.3,468,395.8,413.8L395.8,413.8z"/>
		<path style="fill-rule:evenodd;clip-rule:evenodd;fill:#DFA317;" d="M397.3,417.3c81.7-45.5,81.6,25.2,29.9,53.9
			C371.1,502.4,305.6,468.3,397.3,417.3L397.3,417.3z"/>
		<path style="fill-rule:evenodd;clip-rule:evenodd;fill:#E0A619;" d="M398.7,420.9c76.4-42.5,76.3,23.5,28,50.4
			C374.2,500.5,313,468.5,398.7,420.9L398.7,420.9z"/>
		<path style="fill-rule:evenodd;clip-rule:evenodd;fill:#E2A91C;" d="M400.1,424.5c71.1-39.6,71,21.9,26,46.9
			C377.3,498.5,320.4,468.8,400.1,424.5L400.1,424.5z"/>
		<path style="fill-rule:evenodd;clip-rule:evenodd;fill:#E3AC1E;" d="M401.5,428c65.8-36.6,65.7,20.3,24.1,43.4
			C380.5,496.5,327.8,469.1,401.5,428L401.5,428z"/>
		<path style="fill-rule:evenodd;clip-rule:evenodd;fill:#E4B021;" d="M403,431.6c60.5-33.6,60.4,18.6,22.1,39.9
			C383.6,494.6,335.2,469.3,403,431.6L403,431.6z"/>
		<path style="fill-rule:evenodd;clip-rule:evenodd;fill:#E6B323;" d="M404.4,435.1c55.2-30.7,55.1,17,20.2,36.4
			C386.7,492.6,342.5,469.6,404.4,435.1L404.4,435.1z"/>
	</g>
	<g>
		<path style="fill-rule:evenodd;clip-rule:evenodd;fill:#E6B323;" d="M404.4,435.1c55.2-30.7,55.1,17,20.2,36.4
			C386.7,492.6,342.5,469.6,404.4,435.1L404.4,435.1z"/>
		<path style="fill-rule:evenodd;clip-rule:evenodd;fill:#E9BA33;" d="M404.9,436.8c52.1-29,52.1,16.1,19.1,34.4
			C388.2,491.1,346.5,469.3,404.9,436.8L404.9,436.8z"/>
		<path style="fill-rule:evenodd;clip-rule:evenodd;fill:#ECC243;" d="M405.4,438.5c49.1-27.3,49,15.1,18,32.4
			C389.7,489.6,350.4,469.1,405.4,438.5L405.4,438.5z"/>
		<path style="fill-rule:evenodd;clip-rule:evenodd;fill:#EFC953;" d="M405.9,440.1c46.1-25.6,46,14.2,16.9,30.4
			C391.2,488.1,354.3,468.9,405.9,440.1L405.9,440.1z"/>
		<path style="fill-rule:evenodd;clip-rule:evenodd;fill:#F2D062;" d="M406.5,441.8c43.1-23.9,43,13.3,15.8,28.4
			C392.7,486.6,358.2,468.7,406.5,441.8L406.5,441.8z"/>
		<path style="fill-rule:evenodd;clip-rule:evenodd;fill:#F4D772;" d="M407,443.5c40-22.3,39.9,12.3,14.6,26.4
			C394.2,485.2,362.1,468.4,407,443.5L407,443.5z"/>
		<path style="fill-rule:evenodd;clip-rule:evenodd;fill:#F7DF82;" d="M407.5,445.1c37-20.6,36.9,11.4,13.5,24.4
			C395.6,483.7,366,468.2,407.5,445.1L407.5,445.1z"/>
		<path style="fill-rule:evenodd;clip-rule:evenodd;fill:#FAE692;" d="M408,446.8c34-18.9,33.9,10.5,12.4,22.4
			C397.1,482.2,369.9,468,408,446.8L408,446.8z"/>
		<path style="fill-rule:evenodd;clip-rule:evenodd;fill:#FDEDA2;" d="M408.5,448.5c30.9-17.2,30.9,9.5,11.3,20.4
			C398.6,480.7,373.9,467.8,408.5,448.5L408.5,448.5z"/>
	</g>
	
		<linearGradient id="SVGID_47_" gradientUnits="userSpaceOnUse" x1="819.9246" y1="1570.7167" x2="322.7924" y2="743.3499" gradientTransform="matrix(0.3203 0 0 0.3203 156.7669 -33.4988)">
		<stop  offset="0.22" style="stop-color:#F9ED6A"/>
		<stop  offset="0.5728" style="stop-color:#F9ED6A"/>
		<stop  offset="0.78" style="stop-color:#FFFFFF"/>
	</linearGradient>
	<path style="fill-rule:evenodd;clip-rule:evenodd;fill:url(#SVGID_47_);" d="M277.7,222.9c70-38.9,156.8-18.9,203.2,43.8
		c-48.3-51.6-127.1-65.9-191.6-30c-76,42.3-103.4,138.3-61.1,214.3c3.4,6.1,7.1,11.9,11.2,17.3c-8.6-9.2-16.3-19.6-22.7-31.1
		C174.3,361.2,201.7,265.2,277.7,222.9L277.7,222.9z"/>
</g>
</svg>
