<?xml version="1.0" encoding="utf-8"?>
<!-- Generator: Adobe Illustrator 17.0.0, SVG Export Plug-In . SVG Version: 6.00 Build 0)  -->
<!DOCTYPE svg PUBLIC "-//W3C//DTD SVG 1.1//EN" "http://www.w3.org/Graphics/SVG/1.1/DTD/svg11.dtd">
<svg version="1.1" id="图层_1" xmlns="http://www.w3.org/2000/svg" xmlns:xlink="http://www.w3.org/1999/xlink" x="0px" y="0px"
	 width="31px" height="31px" viewBox="0 0 31 31" style="enable-background:new 0 0 31 31;" xml:space="preserve">
<g style="opacity:0.6;">
	<path style="fill:none;stroke:#FFFFFF;stroke-miterlimit:10;" d="M30.5,24.5c0,3.3-2.7,6-6,6h-18c-3.3,0-6-2.7-6-6v-18
		c0-3.3,2.7-6,6-6h18c3.3,0,6,2.7,6,6V24.5z"/>
</g>
<g>
	<g>
		<path style="fill:#FFFFFF;" d="M15.5,16c-3.8,0-5.7-2.3-5.7-5.1s1.8-5.1,5.7-5.1V16z M14.3,16.9c1.9,3.3,0.9,6.1-1.6,7.5
			c-2.4,1.4-5.3,1-7.3-2.4L14.3,16.9z M15.7,17.3c1.9-3.3,4.8-3.8,7.3-2.4s3.5,4.1,1.6,7.5L15.7,17.3z M15.7,17.3"/>
	</g>
</g>
</svg>
