<?xml version="1.0" encoding="utf-8"?>
<!-- Generator: Adobe Illustrator 17.0.0, SVG Export Plug-In . SVG Version: 6.00 Build 0)  -->
<!DOCTYPE svg PUBLIC "-//W3C//DTD SVG 1.1//EN" "http://www.w3.org/Graphics/SVG/1.1/DTD/svg11.dtd">
<svg version="1.1" id="图层_1" xmlns="http://www.w3.org/2000/svg" xmlns:xlink="http://www.w3.org/1999/xlink" x="0px" y="0px"
	 width="44px" height="46px" viewBox="0 0 44 46" style="enable-background:new 0 0 44 46;" xml:space="preserve">
<g transform="translate(0 -1028.4)">
	<path style="fill:#C63030;" d="M21.6,1030.9c-2.1-0.2-3.7,1.5-4.4,3.4c-5.6,11.2-11.2,22.4-16.8,33.6c-1.3,2.8,1.3,6.3,4.3,6h16.9
		h16.9c3.1,0.2,5.6-3.2,4.3-6c-5.6-11.2-11.2-22.4-16.8-33.6C25.3,1032.4,23.7,1030.6,21.6,1030.9z"/>
	<path style="fill:#F42C2C;" d="M21.6,1028.7c-2.1-0.1-3.7,1.7-4.4,3.5c-5.6,11.2-11.2,22.5-16.8,33.7c-1.3,2.8,1.3,6.3,4.3,5.9
		c5.6,0,11.3,0,16.9,0c5.6,0,11.3,0,16.9,0c3.1,0.4,5.6-3.1,4.3-5.9c-5.6-11.2-11.2-22.5-16.8-33.7
		C25.3,1030.4,23.7,1028.6,21.6,1028.7z"/>
	<path style="fill:#FFFFFF;" d="M21.6,1041.6c-1.2,0-2.2,1-2.2,2.2l1.1,15.1h2.2l1.1-15.1C23.7,1042.6,22.8,1041.6,21.6,1041.6z
		 M21.6,1061c-1.2,0-2.2,1-2.2,2.2c0,1.2,1,2.2,2.2,2.2s2.2-1,2.2-2.2C23.7,1062,22.8,1061,21.6,1061z"/>
</g>
</svg>
