<?xml version="1.0" encoding="utf-8"?>
<!-- Generator: Adobe Illustrator 17.0.0, SVG Export Plug-In . SVG Version: 6.00 Build 0)  -->
<!DOCTYPE svg PUBLIC "-//W3C//DTD SVG 1.1//EN" "http://www.w3.org/Graphics/SVG/1.1/DTD/svg11.dtd">
<svg version="1.1" id="图层_1" xmlns="http://www.w3.org/2000/svg" xmlns:xlink="http://www.w3.org/1999/xlink" x="0px" y="0px"
	 width="24px" height="24px" viewBox="0 0 24 24" style="enable-background:new 0 0 24 24;" xml:space="preserve">
<path style="fill:#FCFCFC;" d="M12,7.5c1.2,0,2.2,0.8,2.4,2c0.2,1.2-0.4,2.3-1.5,2.8c-1.1,0.5-2.4,0.1-3-0.9c-0.7-1-0.5-2.3,0.3-3.1
	C10.7,7.8,11.3,7.5,12,7.5 M12,6c-1.9,0-3.5,1.4-3.9,3.2c-0.4,1.9,0.6,3.7,2.4,4.5c1.8,0.7,3.8,0.1,4.9-1.5c1.1-1.6,0.8-3.7-0.5-5
	C14.1,6.4,13.1,6,12,6L12,6z M12,6"/>
<path style="fill:#FCFCFC;" d="M18.9,2.9C17.1,1.1,14.6,0,12,0c-2.6,0-5.1,1-6.9,2.9c-3.8,3.9-3.8,10.1,0,14l6.9,7l6.9-7
	C22.6,13,22.6,6.8,18.9,2.9L18.9,2.9z M17.8,16l-5.8,6l-5.8-6C3,12.6,3,7.4,6.2,4.1C7.7,2.5,9.8,1.6,12,1.6c2.2,0,4.3,0.9,5.8,2.5
	C21,7.4,21,12.6,17.8,16L17.8,16z M17.8,16"/>
</svg>
