<?xml version="1.0" encoding="utf-8"?>
<!-- Generator: Adobe Illustrator 17.0.0, SVG Export Plug-In . SVG Version: 6.00 Build 0)  -->
<!DOCTYPE svg PUBLIC "-//W3C//DTD SVG 1.1//EN" "http://www.w3.org/Graphics/SVG/1.1/DTD/svg11.dtd">
<svg version="1.1" id="图层_1" xmlns="http://www.w3.org/2000/svg" xmlns:xlink="http://www.w3.org/1999/xlink" x="0px" y="0px"
	 viewBox="0 0 100 110" style="enable-background:new 0 0 100 110;" xml:space="preserve">
<path style="opacity:0.8;enable-background:new    ;" d="M47.8,104.9H2.4c-1.2,0-2.1-0.7-2.1-1.7V1.9c0-0.9,0.9-1.7,2.1-1.7h95.2
	c1.2,0,2.1,0.7,2.1,1.7v101.3c0,0.9-0.9,1.7-2.1,1.7H57.3l-4.7,4.7L47.8,104.9z"/>
<path style="fill:#3399FF;" d="M97.5,0.5c1,0,1.8,0.6,1.8,1.4v101.3c0,0.8-0.8,1.4-1.8,1.4H57.4h-0.2l-0.2,0.2l-4.4,4.5l-4.5-4.5
	l-0.2-0.2h-0.2H2.4c-1,0-1.8-0.6-1.8-1.4V1.9c0-0.8,0.8-1.4,1.8-1.4H97.5 M97.5,0H2.4C1.1,0,0,0.9,0,1.9v101.3
	c0,1.1,1.1,1.9,2.4,1.9h45.4l4.8,4.8l4.8-4.8h40.2c1.3,0,2.4-0.9,2.4-1.9V1.9C99.9,0.9,98.8,0,97.5,0L97.5,0z"/>
</svg>
