<?xml version="1.0" encoding="utf-8"?>
<!-- Generator: Adobe Illustrator 17.0.0, SVG Export Plug-In . SVG Version: 6.00 Build 0)  -->
<!DOCTYPE svg PUBLIC "-//W3C//DTD SVG 1.1//EN" "http://www.w3.org/Graphics/SVG/1.1/DTD/svg11.dtd">
<svg version="1.1" id="图层_1" xmlns="http://www.w3.org/2000/svg" xmlns:xlink="http://www.w3.org/1999/xlink" x="0px" y="0px"
	 preserveAspectRatio="none" viewBox="0 0 300 250" style="enable-background:new 0 0 300 250;" xml:space="preserve">
<g>
	<linearGradient id="SVGID_1_" gradientUnits="userSpaceOnUse" x1="109.3643" y1="237.3316" x2="190.3911" y2="156.3048">
		<stop  offset="0" style="stop-color:#0090D4;stop-opacity:3.000000e-002"/>
		<stop  offset="1" style="stop-color:#3F8CFF;stop-opacity:0.5"/>
	</linearGradient>
	<polygon style="fill:url(#SVGID_1_);stroke:#099AC6;stroke-miterlimit:10;" points="199.8,165.7 100,165.7 87.4,193.7 119.6,247.5 
		180.2,247.5 212.4,193.7 	"/>
	<linearGradient id="SVGID_2_" gradientUnits="userSpaceOnUse" x1="70.0631" y1="122.1013" x2="229.6924" y2="-37.5281">
		<stop  offset="0" style="stop-color:#0090D4;stop-opacity:3.000000e-002"/>
		<stop  offset="1" style="stop-color:#3F8CFF;stop-opacity:0.4"/>
	</linearGradient>
	<polygon style="fill:url(#SVGID_2_);stroke:#099AC6;stroke-miterlimit:10;" points="241.3,2.5 58.5,2.5 2.1,30.4 32.3,84.3 
		267.5,84.3 297.7,30.4 	"/>
	<linearGradient id="SVGID_3_" gradientUnits="userSpaceOnUse" x1="149.8777" y1="2.4679" x2="149.8777" y2="30.4318">
		<stop  offset="0" style="stop-color:#0090D4;stop-opacity:2.000000e-002"/>
		<stop  offset="0.9901" style="stop-color:#3F8CFF;stop-opacity:0.4"/>
	</linearGradient>
	<polygon style="fill:url(#SVGID_3_);stroke:#099AC6;stroke-linecap:round;stroke-linejoin:round;stroke-miterlimit:10;" points="
		241.3,2.5 58.5,2.5 2.1,30.4 297.7,30.4 	"/>
	<linearGradient id="SVGID_4_" gradientUnits="userSpaceOnUse" x1="89.2926" y1="176.6202" x2="210.4628" y2="55.4499">
		<stop  offset="0" style="stop-color:#F90618;stop-opacity:3.000000e-002"/>
		<stop  offset="1" style="stop-color:#F90618;stop-opacity:0.3"/>
	</linearGradient>
	<polygon style="fill:url(#SVGID_4_);stroke:#F90618;stroke-miterlimit:10;" points="239.1,84.1 60.7,84.1 49.1,112 78.6,165.9 
		221.2,165.9 250.6,112 	"/>
	<linearGradient id="SVGID_5_" gradientUnits="userSpaceOnUse" x1="149.8777" y1="84.0815" x2="149.8777" y2="112.0455">
		<stop  offset="0" style="stop-color:#F90618;stop-opacity:3.000000e-002"/>
		<stop  offset="1" style="stop-color:#F90618;stop-opacity:0.4"/>
	</linearGradient>
	<polygon style="fill:url(#SVGID_5_);stroke:#F90618;stroke-miterlimit:10;" points="239.1,84.1 60.7,84.1 49.1,112 250.6,112 	"/>
	<linearGradient id="SVGID_6_" gradientUnits="userSpaceOnUse" x1="149.8777" y1="165.6951" x2="149.8777" y2="193.6591">
		<stop  offset="0" style="stop-color:#0090D4;stop-opacity:2.000000e-002"/>
		<stop  offset="1" style="stop-color:#3F8CFF;stop-opacity:0.4"/>
	</linearGradient>
	<polygon style="fill:url(#SVGID_6_);stroke:#099AC6;stroke-linecap:round;stroke-linejoin:round;stroke-miterlimit:10;" points="
		199.8,165.7 100,165.7 87.4,193.7 212.4,193.7 	"/>
</g>
</svg>
