<?xml version="1.0" encoding="utf-8"?>
<!-- Generator: Adobe Illustrator 17.0.0, SVG Export Plug-In . SVG Version: 6.00 Build 0)  -->
<!DOCTYPE svg PUBLIC "-//W3C//DTD SVG 1.1//EN" "http://www.w3.org/Graphics/SVG/1.1/DTD/svg11.dtd">
<svg version="1.1" id="图层_1" xmlns="http://www.w3.org/2000/svg" xmlns:xlink="http://www.w3.org/1999/xlink" x="0px" y="0px"
	 width="212px" height="92px" viewBox="0 0 212 92" style="enable-background:new 0 0 212 92;" xml:space="preserve" preserveAspectRatio="none meet">
<g>
	<path style="fill:#51F6F9;fill-opacity:0.1;stroke:#3B9FF2;stroke-miterlimit:10;" d="M128.1,21.1c-3.4,5.6-6.9,14-6.9,24.5
		c0,10.7,3.5,18.9,7.1,24.5c-10.3,0-118.4,0-118.4,0l-8.8-8.7V29.8l8.8-8.7C9.9,21.1,114.6,21.1,128.1,21.1z"/>
	<path style="fill:none;stroke:#3B9FF2;stroke-miterlimit:10;" d="M211.1,45.7c0,24.8-20.2,45-45.1,45s-45.1-20.2-45.1-45
		c0-24.9,20.2-45,45.1-45S211.1,20.9,211.1,45.7z"/>
	<path style="fill:#51F6F9;fill-opacity:0.1;stroke:#51F6F9;stroke-miterlimit:10;" d="M205,45.6c0,21.4-17.5,38.8-39,38.8
		s-39-17.3-39-38.8c0-21.4,17.5-38.8,39-38.8S205,24.2,205,45.6z"/>
</g>
</svg>
