<?xml version="1.0" encoding="utf-8"?>
<!-- Generator: Adobe Illustrator 17.0.0, SVG Export Plug-In . SVG Version: 6.00 Build 0)  -->
<!DOCTYPE svg PUBLIC "-//W3C//DTD SVG 1.1//EN" "http://www.w3.org/Graphics/SVG/1.1/DTD/svg11.dtd">
<svg version="1.1" id="图层_1" xmlns="http://www.w3.org/2000/svg" xmlns:xlink="http://www.w3.org/1999/xlink" x="0px" y="0px"
	 width="212px" height="92px" viewBox="0 0 212 92" style="enable-background:new 0 0 212 92;" xml:space="preserve" preserveAspectRatio="none meet">
<g>
	<path style="fill-rule:evenodd;clip-rule:evenodd;fill:#51F6F9;fill-opacity:0.1;stroke:#3B9FF2;stroke-miterlimit:10;" d="
		M202.3,21.1l8.8,8.7v31.6l-8.8,8.7c0,0-108.1,0-118.4,0c3.6-5.6,7.1-13.8,7.1-24.5c0-10.5-3.5-18.9-6.9-24.5
		C97.6,21.1,202.3,21.1,202.3,21.1z"/>
	<path style="fill-rule:evenodd;clip-rule:evenodd;fill:none;stroke:#3B9FF2;stroke-miterlimit:10;" d="M46.2,0.7
		c24.9,0,45.1,20.1,45.1,45c0,24.8-20.2,45-45.1,45S1.1,70.5,1.1,45.7C1.1,20.9,21.3,0.7,46.2,0.7z"/>
	<path style="fill-rule:evenodd;clip-rule:evenodd;fill:#51F6F9;fill-opacity:0.1;stroke:#51F6F9;stroke-miterlimit:10;" d="
		M46.2,6.8c21.5,0,39,17.4,39,38.8c0,21.5-17.5,38.8-39,38.8c-21.5,0-39-17.4-39-38.8C7.2,24.2,24.7,6.8,46.2,6.8z"/>
</g>
</svg>
