<svg xmlns="http://www.w3.org/2000/svg" xmlns:xlink="http://www.w3.org/1999/xlink" viewBox="0 0 600.07 43.28" preserveAspectRatio="none"><defs><style>.cls-1{fill:none;stroke:aqua;stroke-miterlimit:10;}.cls-2{fill:aqua;}.cls-3{opacity:0.2;fill:url(#未命名的渐变_24);}</style><linearGradient id="未命名的渐变_24" x1="300.03" y1="1.11" x2="300.03" y2="43.28" gradientUnits="userSpaceOnUse"><stop offset="0" stop-color="#7ef9ff"/><stop offset="0.08" stop-color="#7bf6fe" stop-opacity="0.98"/><stop offset="0.17" stop-color="#74ecfa" stop-opacity="0.92"/><stop offset="0.28" stop-color="#68dcf4" stop-opacity="0.83"/><stop offset="0.39" stop-color="#57c5eb" stop-opacity="0.69"/><stop offset="0.5" stop-color="#42a8e0" stop-opacity="0.52"/><stop offset="0.62" stop-color="#2785d3" stop-opacity="0.31"/><stop offset="0.74" stop-color="#085cc3" stop-opacity="0.07"/><stop offset="0.77" stop-color="#0051bf" stop-opacity="0"/></linearGradient></defs><title>资源 22</title><g id="图层_2" data-name="图层 2"><g id="图层_1-2" data-name="图层 1"><g id="_编组_" data-name="&lt;编组&gt;"><line id="_路径_" data-name="&lt;路径&gt;" class="cls-1" x1="509.96" y1="2.69" x2="440.75" y2="2.69"/><circle id="_椭圆_" data-name="&lt;椭圆&gt;" class="cls-2" cx="510.46" cy="2.61" r="1.5"/><polyline id="_路径_2" data-name="&lt;路径&gt;" class="cls-1" points="436.23 3.67 404.36 3.67 399.84 6.48 365.6 6.48"/><polyline id="_路径_3" data-name="&lt;路径&gt;" class="cls-1" points="361.08 4.33 355.37 0.5 305.91 0.5"/></g><g id="_编组_2" data-name="&lt;编组&gt;"><line id="_路径_4" data-name="&lt;路径&gt;" class="cls-1" x1="94.15" y1="3.59" x2="163.35" y2="3.59"/><circle id="_椭圆_2" data-name="&lt;椭圆&gt;" class="cls-2" cx="93.55" cy="3.5" r="1.5"/><polyline id="_路径_5" data-name="&lt;路径&gt;" class="cls-1" points="167.87 3.67 199.74 3.67 204.26 6.49 238.5 6.49"/><polyline id="_路径_6" data-name="&lt;路径&gt;" class="cls-1" points="243.02 4.33 248.73 0.5 298.2 0.5"/></g><g id="_编组_3" data-name="&lt;编组&gt;"><path id="_路径_7" data-name="&lt;路径&gt;" class="cls-3" d="M600.07,43.28H0v-26C.46,8.58,9.57,3.46,11.67,3.37l188.13.87L204.21,7l34.34.07,4.9-2.32,5.49-3.65h106.4L361,4.76l4.72,2.38L399.92,7l4.66-2.77,31.75,0,4.52-1.5h69.22l.71,1,1-.23,10.88.09H524l66.9.52c5.06,0,9.17,5.46,9.17,12.2Z"/></g></g></g></svg>