<?xml version="1.0" encoding="utf-8"?>
<!-- Generator: Adobe Illustrator 17.0.0, SVG Export Plug-In . SVG Version: 6.00 Build 0)  -->
<!DOCTYPE svg PUBLIC "-//W3C//DTD SVG 1.1//EN" "http://www.w3.org/Graphics/SVG/1.1/DTD/svg11.dtd">
<svg version="1.1" id="图层_1" xmlns="http://www.w3.org/2000/svg" xmlns:xlink="http://www.w3.org/1999/xlink" x="0px" y="0px"
	 viewBox="0 0 84 30" style="enable-background:new 0 0 84 30;" xml:space="preserve">
<g style="opacity:0.5;">
	<g>
		<path style="fill:#FFFFFF;" d="M0,14.5c0,7.2,5.8,13,13,13c7.2,0,13-5.8,13-13c0-7.2-5.8-13-13-13C5.8,1.5,0,7.3,0,14.5L0,14.5z
			 M16.6,7.3c0.4,0.4,0.4,1,0,1.4l-5.8,5.8l5.7,5.7c0.4,0.4,0.4,1,0,1.4c-0.4,0.4-1,0.4-1.4,0l-6.4-6.4c-0.2-0.2-0.3-0.4-0.3-0.7
			c0-0.2,0.1-0.5,0.3-0.7l6.4-6.5C15.4,7.1,15.6,7,15.9,7C16.1,7,16.4,7.1,16.6,7.3L16.6,7.3z M16.6,7.3"/>
	</g>
</g>
<g style="opacity:0.5;">
	<path style="fill:#FFFFFF;" d="M52,24.8c-0.8,0-2.2,0-4.2,0c-1.5,0-2.8-0.2-3.7-0.4c-0.9-0.3-1.8-0.9-2.5-1.8
		c-0.3-0.4-0.6-0.6-0.9-0.6c-0.6,0-1.5,1.1-2.8,3.3l-1.3-1.2c1.2-2,2.4-3.2,3.3-3.7v-7.3h-3.4v-1.6h5v9c0.2,0.1,0.4,0.3,0.6,0.6
		c0.6,0.7,1.2,1.2,1.8,1.5c0.7,0.3,1.8,0.5,3.2,0.6c1.7,0,3.2,0,4.7,0c0.7,0,1.9,0,3.5,0c1.3,0,2.2-0.1,2.7-0.1l-0.4,1.7H52z
		 M38,3.6c1.6,1.3,3,2.6,4.1,3.8l-1.2,1.2c-1-1.2-2.3-2.5-4-3.9L38,3.6z M56.8,5c-3.1,0.8-6.5,1.3-10.3,1.4l0,2.6h10v1.2
		c-0.7,2.3-1.6,4.2-2.9,6c1.4,1.3,2.8,2.6,4,4l-1.2,1.4c-1.2-1.4-2.4-2.8-3.8-4.1c-1.5,1.7-3.3,3.2-5.5,4.5l-1-1.4
		c2.1-1.2,3.8-2.6,5.3-4.2c-1.2-1.1-2.6-2.1-4.1-3.2l1-1.2c1.5,1.1,2.9,2.1,4.1,3.1c1-1.4,1.8-2.9,2.4-4.6h-8.3
		c-0.1,4.7-0.9,8.2-2.4,10.6l-1.6-0.8c1.6-2.4,2.4-5.8,2.4-10.2V4.9c4.3-0.1,8-0.5,11.1-1.3L56.8,5z"/>
	<path style="fill:#FFFFFF;" d="M80.6,4.7v20.1h-1.7v-0.9H63v0.9h-1.7V4.7H80.6z M63,22.4h15.8V6.3H63V22.4z M66.4,9.9h9.1v8.6h-9.1
		V9.9z M73.8,17v-5.5h-5.8V17H73.8z"/>
</g>
</svg>
