<?xml version="1.0" encoding="utf-8"?>
<!-- Generator: Adobe Illustrator 17.0.0, SVG Export Plug-In . SVG Version: 6.00 Build 0)  -->
<!DOCTYPE svg PUBLIC "-//W3C//DTD SVG 1.1//EN" "http://www.w3.org/Graphics/SVG/1.1/DTD/svg11.dtd">
<svg version="1.1" id="图层_1" xmlns="http://www.w3.org/2000/svg" xmlns:xlink="http://www.w3.org/1999/xlink" x="0px" y="0px"
	 width="100px" height="123.6px" viewBox="0 0 100 123.6" style="enable-background:new 0 0 100 123.6;" xml:space="preserve">
<g>
	<g>
		<path style="fill:#3870B7;" d="M85.4,15C76.1,5.4,63.3,0,50,0C36.7,0,23.9,5.4,14.6,15c-19.5,20.2-19.5,52.2,0,72.4L50,123.6
			l35.4-36.2C104.9,67.2,104.9,35.2,85.4,15L85.4,15z"/>
	</g>
	<g style="opacity:0.75;mask:url(#SVGID_1_);">
		<path style="fill:#5C9FCF;" d="M85.4,15C76.1,5.4,63.3,0,50,0C36.7,0,23.9,5.4,14.6,15c-19.5,20.2-19.5,52.2,0,72.4L50,123.6
			l35.4-36.2C104.9,67.2,104.9,35.2,85.4,15L85.4,15z"/>
	</g>
</g>
<path style="fill:#FFFFFF;" d="M50,38.6c6.1,0,11.4,4.3,12.6,10.3c1.2,6-2,12-7.7,14.3c-5.6,2.3-12.2,0.4-15.6-4.7
	c-3.4-5.1-2.8-11.8,1.6-16.2C43.3,40,46.6,38.6,50,38.6 M50,30.9c-9.8,0-18.3,7-20.2,16.6c-1.9,9.6,3.3,19.3,12.4,23.1
	c9.1,3.8,19.6,0.6,25-7.6c5.5-8.2,4.4-19.1-2.6-26C60.7,33.1,55.5,30.9,50,30.9L50,30.9z M50,30.9"/>
</svg>
