<svg id="数据归集1" xmlns="http://www.w3.org/2000/svg" xmlns:xlink="http://www.w3.org/1999/xlink" width="313" height="280" viewBox="0 0 313 280">
  <defs>
    <style>
      .cls-1, .cls-10, .cls-11, .cls-12, .cls-14, .cls-15, .cls-16, .cls-17, .cls-18, .cls-2, .cls-20, .cls-21, .cls-22, .cls-23, .cls-3, .cls-4, .cls-5, .cls-8, .cls-9 {
        fill-rule: evenodd;
      }

      .cls-1 {
        opacity: 0.1;
        fill: url(#linear-gradient);
      }

      .cls-14, .cls-2, .cls-9 {
        opacity: 0.2;
      }

      .cls-2 {
        fill: url(#linear-gradient-2);
      }

      .cls-16, .cls-3, .cls-8 {
        opacity: 0.4;
      }

      .cls-3 {
        fill: url(#linear-gradient-3);
      }

      .cls-4 {
        fill-opacity: 0.5;
        stroke: #4e8dec;
        fill: url(#linear-gradient-4);
      }

      .cls-10, .cls-11, .cls-12, .cls-14, .cls-15, .cls-16, .cls-17, .cls-18, .cls-20, .cls-4, .cls-5, .cls-8, .cls-9 {
        stroke-width: 1px;
      }

      .cls-12, .cls-18, .cls-5 {
        fill: none;
      }

      .cls-5 {
        stroke: #0569ff;
      }

      .cls-10, .cls-18, .cls-5 {
        opacity: 0.6;
      }

      .cls-6 {
        writing-mode: tb;
        glyph-orientation-vertical: 0;
        font-size: 17.33px;
      }

      .cls-13, .cls-19, .cls-24, .cls-6 {
        fill: #fff;
      }

      .cls-19, .cls-6 {
        font-family: "Source Han Sans CN";
        font-weight: 700;
      }

      .cls-7 {
        fill: #ea2f04;
      }

      .cls-10, .cls-11, .cls-8, .cls-9 {
        fill: #1c99d9;
        stroke: #21aaec;
      }

      .cls-11 {
        fill-opacity: 0.7;
      }

      .cls-12 {
        stroke: #dbeaf4;
      }

      .cls-13 {
        font-size: 24px;
        font-family: zcool-gdh;
      }

      .cls-14, .cls-15, .cls-16, .cls-17, .cls-18 {
        stroke: #3ff;
      }

      .cls-14 {
        fill: url(#linear-gradient-5);
      }

      .cls-15 {
        opacity: 0.3;
        fill: url(#linear-gradient-6);
      }

      .cls-16 {
        fill: url(#linear-gradient-7);
      }

      .cls-17 {
        fill-opacity: 0.6;
        fill: url(#linear-gradient-8);
      }

      .cls-19 {
        font-size: 12px;
      }

      .cls-20 {
        stroke: #023ca8;
        fill: url(#linear-gradient-9);
      }

      .cls-21, .cls-22, .cls-23 {
        fill: #023ca8;
      }

      .cls-21 {
        filter: url(#filter);
      }

      .cls-22 {
        filter: url(#filter-2);
      }

      .cls-23 {
        filter: url(#filter-3);
      }

      .cls-24 {
        font-size: 10.911px;
        opacity: 0.8;
        font-family: ShiShangZhongHeiJianTi;
      }
    </style>
    <linearGradient id="linear-gradient" x1="220" y1="350.375" x2="220" y2="190.938" gradientUnits="userSpaceOnUse">
      <stop offset="0" stop-color="#01135b"/>
      <stop offset="1" stop-color="#0454cc"/>
    </linearGradient>
    <linearGradient id="linear-gradient-2" x1="229.75" y1="356.25" x2="229.75" y2="196.844" gradientUnits="userSpaceOnUse">
      <stop offset="0" stop-color="#132159"/>
      <stop offset="1" stop-color="#1b62cd"/>
    </linearGradient>
    <linearGradient id="linear-gradient-3" x1="237.875" y1="364.281" x2="237.875" y2="204.844" gradientUnits="userSpaceOnUse">
      <stop offset="0" stop-color="#142259"/>
      <stop offset="1" stop-color="#1b62cd"/>
    </linearGradient>
    <linearGradient id="linear-gradient-4" x1="243.938" y1="369.531" x2="243.938" y2="210.125" gradientUnits="userSpaceOnUse">
      <stop offset="0" stop-color="#0223a8"/>
      <stop offset="1" stop-color="#0569ff"/>
    </linearGradient>
    <linearGradient id="linear-gradient-5" x1="292.625" y1="363.938" x2="292.625" y2="204.625" gradientUnits="userSpaceOnUse">
      <stop offset="0" stop-color="#067dd5"/>
      <stop offset="1" stop-color="#2ee6e6"/>
    </linearGradient>
    <linearGradient id="linear-gradient-6" x1="302.375" y1="369.844" x2="302.375" y2="210.531" xlink:href="#linear-gradient-5"/>
    <linearGradient id="linear-gradient-7" x1="310.5" y1="379.469" x2="310.5" y2="220.156" xlink:href="#linear-gradient-5"/>
    <linearGradient id="linear-gradient-8" x1="317" y1="383.156" x2="317" y2="223.812" xlink:href="#linear-gradient-5"/>
    <linearGradient id="linear-gradient-9" x1="255" y1="463" x2="255" y2="423" gradientUnits="userSpaceOnUse">
      <stop offset="0" stop-color="#023ca8" stop-opacity="0.702"/>
      <stop offset="1" stop-color="#023ca8"/>
    </linearGradient>
    <filter id="filter" x="190" y="422" width="15" height="43" filterUnits="userSpaceOnUse">
      <feGaussianBlur result="blur" stdDeviation="2.333" in="SourceAlpha"/>
      <feComposite result="composite"/>
      <feComposite result="composite-2"/>
      <feComposite result="composite-3"/>
      <feFlood result="flood" flood-color="#034edd" flood-opacity="0.57"/>
      <feComposite result="composite-4" operator="in" in2="composite-3"/>
      <feBlend result="blend" in2="SourceGraphic"/>
      <feBlend result="blend-2" in="SourceGraphic"/>
    </filter>
    <filter id="filter-2" x="217" y="455" width="77" height="15" filterUnits="userSpaceOnUse">
      <feGaussianBlur result="blur" stdDeviation="2.333" in="SourceAlpha"/>
      <feComposite result="composite"/>
      <feComposite result="composite-2"/>
      <feComposite result="composite-3"/>
      <feFlood result="flood" flood-color="#034edd" flood-opacity="0.57"/>
      <feComposite result="composite-4" operator="in" in2="composite-3"/>
      <feBlend result="blend" in2="SourceGraphic"/>
      <feBlend result="blend-2" in="SourceGraphic"/>
    </filter>
    <filter id="filter-3" x="306" y="422" width="15" height="43" filterUnits="userSpaceOnUse">
      <feGaussianBlur result="blur" stdDeviation="2.333" in="SourceAlpha"/>
      <feComposite result="composite"/>
      <feComposite result="composite-2"/>
      <feComposite result="composite-3"/>
      <feFlood result="flood" flood-color="#034edd" flood-opacity="0.57"/>
      <feComposite result="composite-4" operator="in" in2="composite-3"/>
      <feBlend result="blend" in2="SourceGraphic"/>
      <feBlend result="blend-2" in="SourceGraphic"/>
    </filter>
  </defs>
  <g id="组_441" data-name="组 441">
    <path id="形状_12" data-name="形状 12" class="cls-5" d="M164.01,291.43l17.853-3.065v82.4l2.435,3.695-20.288,5.026V291.43Z" transform="translate(-108 -190.938)"/>
    <text id="数源单位" class="cls-6" transform="translate(64.832 114.999) scale(0.812 0.808)">数源单位</text>
    <g id="组_440" data-name="组 440">
      <path id="矩形_14_拷贝_6" data-name="矩形 14 拷贝 6" class="cls-8" d="M233.806,407.144l-29.224-13.657h0L173.9,407.824h0l29.224,13.657h0l30.679-14.337h0Z" transform="translate(-108 -190.938)"/>
      <path id="矩形_14_拷贝_6-2" data-name="矩形 14 拷贝 6" class="cls-9" d="M233.806,409.768l-29.224-13.657h0L173.9,410.448h0l29.224,13.657h0l30.679-14.337h0Z" transform="translate(-108 -190.938)"/>
      <path id="矩形_14_拷贝_6-3" data-name="矩形 14 拷贝 6" class="cls-10" d="M233.806,403.645l-29.224-13.657h0L173.9,404.325h0l29.224,13.657h0l30.679-14.337h0Z" transform="translate(-108 -190.938)"/>
      <path id="矩形_14_拷贝_6-4" data-name="矩形 14 拷贝 6" class="cls-11" d="M233.806,400.146l-29.224-13.657h0L173.9,400.826h0l29.224,13.657h0l30.679-14.337h0Z" transform="translate(-108 -190.938)"/>
      <path id="形状_12-2" data-name="形状 12" class="cls-12" d="M208.533,354.772s2.351,12.614,1.927,19.568-31.737,11.956-30.233,24.352" transform="translate(-108 -190.938)"/>
    </g>
    <g id="组_440" data-name="组 440" transform="translate(140 -5)">
      <path id="矩形_14_拷贝_6" data-name="矩形 14 拷贝 6" class="cls-8" d="M233.806,407.144l-29.224-13.657h0L173.9,407.824h0l29.224,13.657h0l30.679-14.337h0Z" transform="translate(-108 -190.938)"/>
      <path id="矩形_14_拷贝_6-2" data-name="矩形 14 拷贝 6" class="cls-9" d="M233.806,409.768l-29.224-13.657h0L173.9,410.448h0l29.224,13.657h0l30.679-14.337h0Z" transform="translate(-108 -190.938)"/>
      <path id="矩形_14_拷贝_6-3" data-name="矩形 14 拷贝 6" class="cls-10" d="M233.806,403.645l-29.224-13.657h0L173.9,404.325h0l29.224,13.657h0l30.679-14.337h0Z" transform="translate(-108 -190.938)"/>
      <path id="矩形_14_拷贝_6-4" data-name="矩形 14 拷贝 6" class="cls-11" d="M233.806,400.146l-29.224-13.657h0L173.9,400.826h0l29.224,13.657h0l30.679-14.337h0Z" transform="translate(-108 -190.938)"/>
      <path id="形状_12-2" data-name="形状 12" class="cls-12" d="M208.533,354.772s2.351,12.614,1.927,19.568-31.737,11.956-30.233,24.352" transform="translate(-108 -190.938)"/>
    </g>
    <path id="形状_12-3" data-name="形状 12" class="cls-18" d="M237.048,305l17.854-3.048v82.4l2.435,3.7-20.289,5.006V305Z" transform="translate(-108 -190.938)"/>
    <text id="公共数据平台" class="cls-6" transform="translate(137.87 116.044) scale(0.812 0.808)">公共数据平台</text>
  </g>
</svg>
