<svg xmlns="http://www.w3.org/2000/svg" viewBox="0 0 18 18"><defs><style>.cls-1{fill:#fff;fill-rule:evenodd;}</style></defs><title>fangda</title><g id="图层_2" data-name="图层 2"><g id="图层_1-2" data-name="图层 1"><path class="cls-1" d="M7.06,9.69,1.83,14.93l0-5.08-1.8,1.8L0,18l6.34,0,1.81-1.8-5.08,0L8.33,11Z"/><path class="cls-1" d="M11,8.31l5.24-5.24,0,5.08L18,6.35,18,0,11.65,0l-1.8,1.8,5.08,0L9.69,7.05Z"/><path class="cls-1" d="M8.31,7.06,3.07,1.82l5.08,0L6.35,0,0,0,0,6.36l1.8,1.8,0-5.08L7.05,8.32Z"/><path class="cls-1" d="M9.69,10.94l5.24,5.24-5.08,0,1.8,1.8L18,18l0-6.35-1.8-1.8,0,5.08L11,9.68Z"/></g></g></svg>