<?xml version="1.0" encoding="utf-8"?>
<!-- Generator: Adobe Illustrator 17.0.0, SVG Export Plug-In . SVG Version: 6.00 Build 0)  -->
<!DOCTYPE svg PUBLIC "-//W3C//DTD SVG 1.1//EN" "http://www.w3.org/Graphics/SVG/1.1/DTD/svg11.dtd">
<svg version="1.1" id="图层_1" xmlns="http://www.w3.org/2000/svg" xmlns:xlink="http://www.w3.org/1999/xlink" x="0px" y="0px"
	 viewBox="0 0 32 32" style="enable-background:new 0 0 32 32;" xml:space="preserve">
<g>
	<path style="fill:#FFFFFF;" d="M16,0C7.2,0,0,7.2,0,16c0,8.8,7.2,16,16,16c8.8,0,16-7.2,16-16S24.8,0,16,0z M16,30
		C8.3,30,2,23.7,2,16S8.3,2,16,2c7.7,0,14,6.3,14,14S23.7,30,16,30z"/>
	<path style="fill:#FFFFFF;" d="M9.7,23.6l-1.3-1.3c0,0,0-0.1,0-0.1L22.2,8.4c0,0,0.1,0,0.1,0l1.3,1.3c0,0,0,0.1,0,0.1L9.7,23.6
		C9.8,23.6,9.7,23.6,9.7,23.6z"/>
	<path style="fill:#FFFFFF;" d="M23.6,22.3l-1.3,1.3c0,0-0.1,0-0.1,0L8.4,9.8c0,0,0-0.1,0-0.1l1.3-1.3c0,0,0.1,0,0.1,0L23.6,22.3
		C23.6,22.2,23.6,22.3,23.6,22.3z"/>
</g>
</svg>
