<svg xmlns="http://www.w3.org/2000/svg" viewBox="0 0 15.79 15.79"><defs><style>.cls-1{fill:#fff;fill-rule:evenodd;}</style></defs><title>全屏白</title><g id="图层_2" data-name="图层 2"><g id="图层_1-2" data-name="图层 1"><path class="cls-1" d="M14.67,0,10,4.66,10,.15l-1.6,1.6,0,5.65,5.64,0,1.61-1.6-4.52,0,4.66-4.66Z"/><path class="cls-1" d="M1.12,15.78l4.66-4.66,0,4.52L7.36,14l0-5.65-5.64,0L.14,10l4.52,0L0,14.66Z"/><path class="cls-1" d="M15.77,14.67,11.12,10l4.51,0L14,8.43l-5.65,0,0,5.64L10,15.65l0-4.52,4.66,4.66Z"/><path class="cls-1" d="M0,1.12,4.66,5.78l-4.52,0,1.61,1.6,5.64,0,0-5.64L5.76.14l0,4.52L1.12,0Z"/></g></g></svg>