<svg xmlns="http://www.w3.org/2000/svg" viewBox="0 0 197.53 106.48" preserveAspectRatio="none" ><defs><style>.cls-1{fill:none;stroke:#00f3ff;stroke-miterlimit:10;stroke-width:2px;opacity:0.2;}.cls-2{fill:#00fff2;opacity:0.06;}.cls-3{fill:#00fff8;}</style></defs><title>资源 6</title><g id="图层_2" data-name="图层 2"><g id="图层_1-2" data-name="图层 1"><g id="国资1"><polygon class="cls-1" points="18.9 1 1 20.78 1 105.48 163.89 105.48 194.82 77.65 194.82 9.19 184.94 1 18.9 1"/><polygon class="cls-2" points="18.9 1 1 20.78 1 105.48 163.89 105.48 194.82 77.65 194.82 9.19 184.94 1 18.9 1"/><polygon class="cls-3" points="52.41 0.25 50.77 2.89 20.07 2.9 2.97 21.72 0.23 20.39 18.59 0.24 52.41 0.25"/><polygon class="cls-3" points="177.15 94.6 173.11 94.6 163.11 103.47 149.72 103.57 149.72 106.23 164.19 106.23 177.15 94.6"/><polygon class="cls-3" points="182.94 87.23 186.94 87.23 197.53 77.43 193.88 77.43 182.94 87.23"/></g></g></g></svg>