<svg xmlns="http://www.w3.org/2000/svg" xmlns:xlink="http://www.w3.org/1999/xlink" viewBox="0 0 65.95 55.68"><defs><style>.cls-1,.cls-2,.cls-3{stroke-miterlimit:10;stroke-width:3px;}.cls-1{fill:url(#未命名的渐变_134);stroke:url(#未命名的渐变_114);}.cls-2{fill:url(#未命名的渐变_134-2);stroke:url(#未命名的渐变_114-2);}.cls-3{fill:url(#未命名的渐变_14);stroke:url(#未命名的渐变_114-3);}</style><linearGradient id="未命名的渐变_134" x1="-19.13" y1="120.72" x2="9.9" y2="91.7" gradientTransform="translate(-38.86 -44.71) rotate(-45)" gradientUnits="userSpaceOnUse"><stop offset="0" stop-color="#ff8618"/><stop offset="0.14" stop-color="#ff8618" stop-opacity="0.7"/><stop offset="0.27" stop-color="#ff8618" stop-opacity="0.45"/><stop offset="0.39" stop-color="#ff8618" stop-opacity="0.26"/><stop offset="0.49" stop-color="#ff8618" stop-opacity="0.12"/><stop offset="0.57" stop-color="#ff8618" stop-opacity="0.03"/><stop offset="0.63" stop-color="#ff8618" stop-opacity="0"/></linearGradient><linearGradient id="未命名的渐变_114" x1="32.97" y1="55.68" x2="32.97" y2="11.63" gradientUnits="userSpaceOnUse"><stop offset="0" stop-color="#fbff99"/><stop offset="0.01" stop-color="#fbfd98" stop-opacity="0.96"/><stop offset="0.05" stop-color="#fcf196" stop-opacity="0.78"/><stop offset="0.09" stop-color="#fde693" stop-opacity="0.61"/><stop offset="0.14" stop-color="#fddc90" stop-opacity="0.47"/><stop offset="0.2" stop-color="#fed48e" stop-opacity="0.34"/><stop offset="0.25" stop-color="#fecd8d" stop-opacity="0.23"/><stop offset="0.32" stop-color="#fec88b" stop-opacity="0.15"/><stop offset="0.4" stop-color="#ffc38a" stop-opacity="0.08"/><stop offset="0.49" stop-color="#ffc08a" stop-opacity="0.03"/><stop offset="0.63" stop-color="#ffbe89" stop-opacity="0.01"/><stop offset="1" stop-color="#ffbe89" stop-opacity="0"/></linearGradient><linearGradient id="未命名的渐变_134-2" x1="-14.57" y1="116.17" x2="14.45" y2="87.14" xlink:href="#未命名的渐变_134"/><linearGradient id="未命名的渐变_114-2" x1="32.97" y1="49.24" x2="32.97" y2="5.19" xlink:href="#未命名的渐变_114"/><linearGradient id="未命名的渐变_14" x1="32.59" y1="33.2" x2="32.59" y2="1.5" gradientUnits="userSpaceOnUse"><stop offset="0" stop-color="#ff8618"/><stop offset="0.02" stop-color="#ff8b1a"/><stop offset="0.23" stop-color="#ffb32e" stop-opacity="0.97"/><stop offset="0.39" stop-color="#ffcc3a" stop-opacity="0.96"/><stop offset="0.5" stop-color="#ffd53e" stop-opacity="0.96"/><stop offset="0.62" stop-color="#ffc838" stop-opacity="0.96"/><stop offset="0.83" stop-color="#ffa627" stop-opacity="0.98"/><stop offset="1" stop-color="#ff8618"/></linearGradient><linearGradient id="未命名的渐变_114-3" x1="32.59" y1="34.7" x2="32.59" y2="0" xlink:href="#未命名的渐变_114"/></defs><title>资源 9</title><g id="图层_2" data-name="图层 2"><g id="图层_1-2" data-name="图层 1"><path class="cls-1" d="M63.91,33.12,34.26,53.65a1.82,1.82,0,0,1-2.58,0L2,33.12a1.82,1.82,0,0,1,0-2.58L31.68,13.67a1.82,1.82,0,0,1,2.58,0L63.91,30.54A1.82,1.82,0,0,1,63.91,33.12Z"/><path class="cls-2" d="M63.91,26.68,34.26,47.21a1.82,1.82,0,0,1-2.58,0L2,26.68A1.82,1.82,0,0,1,2,24.1L31.68,7.23a1.82,1.82,0,0,1,2.58,0L63.91,24.1A1.82,1.82,0,0,1,63.91,26.68Z"/><path class="cls-3" d="M44.48,26.41H41.65v4.53a2.26,2.26,0,0,1-2.26,2.26H25.8a2.26,2.26,0,0,1-2.26-2.26V26.41H20.71a2.26,2.26,0,0,1-2.26-2.26V10.56a2.26,2.26,0,0,1,2.26-2.26h2.83V3.76A2.26,2.26,0,0,1,25.8,1.5H39.39a2.26,2.26,0,0,1,2.26,2.26V8.29h2.83a2.26,2.26,0,0,1,2.26,2.26V24.14a2.26,2.26,0,0,1-2.26,2.26ZM22.4,10.56a1.13,1.13,0,1,0,1.13,1.13,1.13,1.13,0,0,0-1.13-1.13Zm17-5.66a1.13,1.13,0,0,0-1.13-1.13H26.93A1.13,1.13,0,0,0,25.8,4.9v3.4H39.39Zm0,21.51V20.75a1.13,1.13,0,0,0-1.13-1.13H26.93a1.13,1.13,0,0,0-1.13,1.13V29.8a1.13,1.13,0,0,0,1.13,1.13H38.25a1.13,1.13,0,0,0,1.13-1.13ZM36,28.67H29.2a1.13,1.13,0,0,1,0-2.26H36a1.13,1.13,0,0,1,0,2.26Zm0-4.53H29.2a1.13,1.13,0,0,1,0-2.26H36a1.13,1.13,0,0,1,0,2.26Zm0,0"/></g></g></svg>