<svg xmlns="http://www.w3.org/2000/svg" xmlns:xlink="http://www.w3.org/1999/xlink" viewBox="0 0 63.32 53.26"><defs><style>.cls-1,.cls-2{stroke-miterlimit:10;stroke-width:3px;}.cls-1{fill:url(#未命名的渐变_218);stroke:url(#未命名的渐变_213);}.cls-2{fill:url(#未命名的渐变_218-2);stroke:url(#未命名的渐变_213-2);}.cls-3{fill:url(#未命名的渐变_196);}</style><linearGradient id="未命名的渐变_218" x1="-113.69" y1="347.67" x2="-85.88" y2="319.86" gradientTransform="translate(-133.79 -274.48) rotate(-45)" gradientUnits="userSpaceOnUse"><stop offset="0" stop-color="#5eff42"/><stop offset="0.14" stop-color="#74ff7a" stop-opacity="0.7"/><stop offset="0.27" stop-color="#86ffa8" stop-opacity="0.45"/><stop offset="0.39" stop-color="#94ffcc" stop-opacity="0.26"/><stop offset="0.49" stop-color="#9effe6" stop-opacity="0.12"/><stop offset="0.57" stop-color="#a5fff6" stop-opacity="0.03"/><stop offset="0.63" stop-color="#a7fffc" stop-opacity="0"/></linearGradient><linearGradient id="未命名的渐变_213" x1="31.66" y1="53.26" x2="31.66" y2="10.92" gradientUnits="userSpaceOnUse"><stop offset="0" stop-color="#e6fbff"/><stop offset="0.01" stop-color="#e5fbff" stop-opacity="0.96"/><stop offset="0.05" stop-color="#e3fcff" stop-opacity="0.78"/><stop offset="0.09" stop-color="#e1fdfe" stop-opacity="0.61"/><stop offset="0.14" stop-color="#dffdfe" stop-opacity="0.47"/><stop offset="0.2" stop-color="#ddfefe" stop-opacity="0.34"/><stop offset="0.25" stop-color="#dbfefd" stop-opacity="0.23"/><stop offset="0.32" stop-color="#dafefd" stop-opacity="0.15"/><stop offset="0.4" stop-color="#d9fffd" stop-opacity="0.08"/><stop offset="0.49" stop-color="#d8fffd" stop-opacity="0.03"/><stop offset="0.63" stop-color="#d8fffd" stop-opacity="0.01"/><stop offset="1" stop-color="#d8fffd" stop-opacity="0"/></linearGradient><linearGradient id="未命名的渐变_218-2" x1="-108.09" y1="342.07" x2="-80.28" y2="314.25" xlink:href="#未命名的渐变_218"/><linearGradient id="未命名的渐变_213-2" x1="31.66" y1="45.34" x2="31.66" y2="3" xlink:href="#未命名的渐变_213"/><linearGradient id="未命名的渐变_196" x1="31.66" y1="27.24" x2="31.66" gradientUnits="userSpaceOnUse"><stop offset="0" stop-color="#419700"/><stop offset="0.54" stop-color="#75ffaa"/><stop offset="1" stop-color="#419700"/></linearGradient></defs><title>资源 10</title><g id="图层_2" data-name="图层 2"><g id="图层_1-2" data-name="图层 1"><path class="cls-1" d="M61.3,31.58,32.89,51.25a1.75,1.75,0,0,1-2.47,0L2,31.58a1.75,1.75,0,0,1,0-2.47L30.42,12.94a1.75,1.75,0,0,1,2.47,0L61.3,29.11A1.75,1.75,0,0,1,61.3,31.58Z"/><path class="cls-2" d="M61.3,23.66,32.89,43.32a1.75,1.75,0,0,1-2.47,0L2,23.66a1.75,1.75,0,0,1,0-2.47L30.42,5a1.75,1.75,0,0,1,2.47,0L61.3,21.18A1.75,1.75,0,0,1,61.3,23.66Z"/><path class="cls-3" d="M42.46,6.34,34.75,1a5.41,5.41,0,0,0-6.19,0l-7.7,5.37a5.41,5.41,0,0,0-2.32,4.44v11A5.41,5.41,0,0,0,24,27.24H39.36a5.41,5.41,0,0,0,5.41-5.41v-11A5.41,5.41,0,0,0,42.46,6.34ZM38,16.73a6.6,6.6,0,0,1-12.88,0,.68.68,0,1,1,1.32-.3,5.25,5.25,0,0,0,10.24,0,.68.68,0,0,1,.69-.53l.12,0h0a.68.68,0,0,1,.52.81Z"/></g></g></svg>