<svg xmlns="http://www.w3.org/2000/svg" xmlns:xlink="http://www.w3.org/1999/xlink" viewBox="0 0 69.56 54.52"><defs><style>.cls-1,.cls-2{stroke-miterlimit:10;stroke-width:3px;}.cls-1{fill:url(#未命名的渐变_142);stroke:url(#未命名的渐变_147);}.cls-2{fill:url(#未命名的渐变_142-2);stroke:url(#未命名的渐变_147-2);}.cls-3{fill:url(#未命名的渐变_176);}.cls-4{fill:url(#未命名的渐变_176-2);}.cls-5{fill:url(#未命名的渐变_176-3);}.cls-6{fill:url(#未命名的渐变_176-4);}.cls-7{fill:url(#未命名的渐变_176-5);}.cls-8{fill:url(#未命名的渐变_176-6);}</style><linearGradient id="未命名的渐变_142" x1="-208.82" y1="578.95" x2="-178.13" y2="548.26" gradientTransform="translate(-226.94 -504.02) rotate(-45)" gradientUnits="userSpaceOnUse"><stop offset="0" stop-color="#57e2ff"/><stop offset="0.14" stop-color="#5cddff" stop-opacity="0.7"/><stop offset="0.27" stop-color="#60d8ff" stop-opacity="0.45"/><stop offset="0.39" stop-color="#63d5ff" stop-opacity="0.26"/><stop offset="0.49" stop-color="#65d2ff" stop-opacity="0.12"/><stop offset="0.57" stop-color="#67d1ff" stop-opacity="0.03"/><stop offset="0.63" stop-color="#67d0ff" stop-opacity="0"/></linearGradient><linearGradient id="未命名的渐变_147" x1="34.78" y1="54.52" x2="34.78" y2="8.11" gradientUnits="userSpaceOnUse"><stop offset="0" stop-color="#cefffd"/><stop offset="0.01" stop-color="#cdfefd" stop-opacity="0.96"/><stop offset="0.05" stop-color="#c7fbfd" stop-opacity="0.78"/><stop offset="0.09" stop-color="#c1f8fe" stop-opacity="0.61"/><stop offset="0.14" stop-color="#bcf6fe" stop-opacity="0.47"/><stop offset="0.2" stop-color="#b8f4fe" stop-opacity="0.34"/><stop offset="0.25" stop-color="#b4f2ff" stop-opacity="0.23"/><stop offset="0.32" stop-color="#b1f0ff" stop-opacity="0.15"/><stop offset="0.4" stop-color="#afefff" stop-opacity="0.08"/><stop offset="0.49" stop-color="#adefff" stop-opacity="0.03"/><stop offset="0.63" stop-color="#aceeff" stop-opacity="0.01"/><stop offset="1" stop-color="#aceeff" stop-opacity="0"/></linearGradient><linearGradient id="未命名的渐变_142-2" x1="-204.01" y1="574.13" x2="-173.31" y2="543.44" xlink:href="#未命名的渐变_142"/><linearGradient id="未命名的渐变_147-2" x1="34.78" y1="47.71" x2="34.78" y2="1.3" xlink:href="#未命名的渐变_147"/><linearGradient id="未命名的渐变_176" x1="45.23" y1="11.9" x2="45.23" y2="9.61" gradientUnits="userSpaceOnUse"><stop offset="0" stop-color="#10aeff"/><stop offset="0.06" stop-color="#15b0ff"/><stop offset="0.14" stop-color="#23b6ff"/><stop offset="0.22" stop-color="#3bc0ff"/><stop offset="0.31" stop-color="#5dcffe"/><stop offset="0.4" stop-color="#88e1fe"/><stop offset="0.49" stop-color="#bcf7fd"/><stop offset="0.52" stop-color="#cefffd"/><stop offset="0.61" stop-color="#aff3fd"/><stop offset="0.79" stop-color="#72ddfe"/><stop offset="0.93" stop-color="#4cceff"/><stop offset="1" stop-color="#3ec9ff"/></linearGradient><linearGradient id="未命名的渐变_176-2" x1="49.67" y1="15.13" x2="49.67" y2="12.8" xlink:href="#未命名的渐变_176"/><linearGradient id="未命名的渐变_176-3" x1="45.23" y1="15.13" x2="45.23" y2="12.8" xlink:href="#未命名的渐变_176"/><linearGradient id="未命名的渐变_176-4" x1="46.75" y1="28.01" x2="46.75" y2="0" xlink:href="#未命名的渐变_176"/><linearGradient id="未命名的渐变_176-5" x1="49.67" y1="11.9" x2="49.67" y2="9.61" xlink:href="#未命名的渐变_176"/><linearGradient id="未命名的渐变_176-6" x1="22.81" y1="28.01" x2="22.81" y2="0" xlink:href="#未命名的渐变_176"/></defs><title>资源 11</title><g id="图层_2" data-name="图层 2"><g id="图层_1-2" data-name="图层 1"><path class="cls-1" d="M67.5,30.75,36.15,52.45a1.93,1.93,0,0,1-2.73,0L2.07,30.75a1.93,1.93,0,0,1,0-2.73L33.42,10.18a1.93,1.93,0,0,1,2.73,0L67.5,28A1.93,1.93,0,0,1,67.5,30.75Z"/><path class="cls-2" d="M67.5,23.94,36.15,45.64a1.93,1.93,0,0,1-2.73,0L2.07,23.94a1.93,1.93,0,0,1,0-2.73L33.42,3.36a1.93,1.93,0,0,1,2.73,0L67.5,21.21A1.93,1.93,0,0,1,67.5,23.94Z"/><rect class="cls-3" x="43.56" y="9.61" width="3.35" height="2.29"/><rect class="cls-4" x="47.88" y="12.8" width="3.58" height="2.33"/><rect class="cls-5" x="43.56" y="12.8" width="3.35" height="2.33"/><path class="cls-6" d="M44.72,0a14,14,0,0,0-9.94,4.14,14,14,0,0,1,0,19.73A14,14,0,1,0,44.72,0Zm7.71,18.66A1.23,1.23,0,0,1,51,20.06H49.53l-.25-.95,1.46.05q.72,0,.72-.84V16H47.88v3.9h-1V16h-3.4A8.07,8.07,0,0,1,42,20.24l-.73-.65a7.82,7.82,0,0,0,1.3-4.52V8.68h9.82Z"/><rect class="cls-7" x="47.88" y="9.61" width="3.58" height="2.29"/><path class="cls-8" d="M10.84,14a14,14,0,0,0,23.94,9.87,14,14,0,0,1,0-19.73A14,14,0,0,0,10.84,14Zm5,.1a14.87,14.87,0,0,0,4-6.4l.92.36a16,16,0,0,1-4.1,6.72Zm10.46,6.28q-.28-.67-.67-1.5-3.75.62-8.06.9l-.18-1q1.68-.84,4.23-6.48l1,.34A29.29,29.29,0,0,1,19,18.76a61.14,61.14,0,0,0,6.23-.7,27.07,27.07,0,0,0-1.53-2.65l.92-.29A31,31,0,0,1,27.28,20ZM28.62,14l-.71.83a13.47,13.47,0,0,1-4.35-6.73l.85-.48A13.08,13.08,0,0,0,28.62,14Z"/></g></g></svg>