<?xml version="1.0" encoding="utf-8"?>
<!-- Generator: Adobe Illustrator 17.0.0, SVG Export Plug-In . SVG Version: 6.00 Build 0)  -->
<!DOCTYPE svg PUBLIC "-//W3C//DTD SVG 1.1//EN" "http://www.w3.org/Graphics/SVG/1.1/DTD/svg11.dtd">
<svg version="1.1" id="图层_1" xmlns="http://www.w3.org/2000/svg" xmlns:xlink="http://www.w3.org/1999/xlink" x="0px" y="0px"
	 viewBox="0 0 24 22" style="enable-background:new 0 0 24 22;" xml:space="preserve">
<g>
	<linearGradient id="SVGID_1_" gradientUnits="userSpaceOnUse" x1="12" y1="15.9091" x2="12" y2="2.8182">
		<stop  offset="0" style="stop-color:#00D1F1"/>
		<stop  offset="7.840041e-002" style="stop-color:#15D6F2"/>
		<stop  offset="0.2401" style="stop-color:#4AE4F6"/>
		<stop  offset="0.4695" style="stop-color:#A0FBFC"/>
		<stop  offset="0.5108" style="stop-color:#B0FFFD"/>
		<stop  offset="0.7511" style="stop-color:#56E8F7"/>
		<stop  offset="0.9192" style="stop-color:#1EDAF3"/>
		<stop  offset="1" style="stop-color:#08D4F2"/>
	</linearGradient>
	<path style="fill:url(#SVGID_1_);" d="M22.9,5c0-2.2-2.2-2.2-2.2-2.2H3.3c0,0-2.2,0-2.2,2.2v10.9h21.8V5z M22.9,5"/>
	<linearGradient id="SVGID_2_" gradientUnits="userSpaceOnUse" x1="6.781192e-009" y1="18.0909" x2="24" y2="18.0909">
		<stop  offset="0" style="stop-color:#00D1F1"/>
		<stop  offset="7.840041e-002" style="stop-color:#15D6F2"/>
		<stop  offset="0.2401" style="stop-color:#4AE4F6"/>
		<stop  offset="0.4695" style="stop-color:#A0FBFC"/>
		<stop  offset="0.5108" style="stop-color:#B0FFFD"/>
		<stop  offset="0.7511" style="stop-color:#56E8F7"/>
		<stop  offset="0.9192" style="stop-color:#1EDAF3"/>
		<stop  offset="1" style="stop-color:#08D4F2"/>
	</linearGradient>
	<path style="fill:url(#SVGID_2_);" d="M0,18.1c0,1.1,1.1,1.1,1.1,1.1h21.8c0,0,1.1,0,1.1-1.1c0-1.1-1.1-1.1-1.1-1.1H1.1
		C1.1,17,0,17,0,18.1L0,18.1z M9.3,17.5h4.4c0,0,0.5,0,0.5,0.5c0,0.5-0.5,0.5-0.5,0.5H9.3c0,0-0.5,0-0.5-0.5
		C8.7,17.5,9.3,17.5,9.3,17.5L9.3,17.5z M9.3,17.5"/>
</g>
</svg>
