<?xml version="1.0" encoding="utf-8"?>
<!-- Generator: Adobe Illustrator 17.0.0, SVG Export Plug-In . SVG Version: 6.00 Build 0)  -->
<!DOCTYPE svg PUBLIC "-//W3C//DTD SVG 1.1//EN" "http://www.w3.org/Graphics/SVG/1.1/DTD/svg11.dtd">
<svg version="1.1" id="图层_1" xmlns="http://www.w3.org/2000/svg" xmlns:xlink="http://www.w3.org/1999/xlink" x="0px" y="0px"
	 width="31px" height="31px" viewBox="0 0 31 31" style="enable-background:new 0 0 31 31;" xml:space="preserve">
<g>
	<path style="fill:#FFFFFF;" d="M15.5,3.8c1.9,0,3.4,1.5,3.4,3.4l0,0.1v10.3c1.2,1,2,2.5,2,4.2c0,2.2-1.3,4.1-3.2,4.9
		c-0.7,0.3-1.4,0.5-2.2,0.5c-1.5,0-2.8-0.6-3.8-1.6c-1-1-1.6-2.3-1.6-3.8c0-1.6,0.7-3.1,2-4.2l0-10.3C12.1,5.4,13.6,3.8,15.5,3.8
		L15.5,3.8z M15.5,5.4c-1,0-1.9,0.8-1.9,1.9l0,0v10.4c0.1,0.3,0,0.7-0.3,0.9l0,0c-1,0.7-1.7,1.9-1.7,3.2c0,2.1,1.7,3.9,3.8,3.9
		c2.1,0,3.8-1.7,3.8-3.9c0-1.2-0.6-2.4-1.5-3.1l0,0c-0.1-0.1-0.2-0.2-0.3-0.4c-0.1-0.1-0.1-0.2-0.1-0.4l0,0V7.3
		C17.4,6.2,16.5,5.4,15.5,5.4L15.5,5.4z M15.4,11.5c0.1,0,0.2,0,0.3,0.1c0.4,0.1,0.8,0.5,0.8,1v6.2c1.2,0.4,2.1,1.6,2.1,3
		c0,0.2,0,0.4,0,0.5c-0.2,1.6-1.5,2.8-3.1,2.8c-1.2,0-2.3-0.7-2.8-1.7c-0.3-0.5-0.4-1-0.4-1.6c0-1.4,0.9-2.6,2.1-3v-6.2
		C14.4,12,14.9,11.5,15.4,11.5L15.4,11.5z M15.4,11.5"/>
</g>
<g style="opacity:0.6;">
	<path style="fill:none;stroke:#FFFFFF;stroke-miterlimit:10;" d="M30.5,24.5c0,3.3-2.7,6-6,6h-18c-3.3,0-6-2.7-6-6v-18
		c0-3.3,2.7-6,6-6h18c3.3,0,6,2.7,6,6V24.5z"/>
</g>
</svg>
