<?xml version="1.0" encoding="utf-8"?>
<!-- Generator: Adobe Illustrator 17.0.0, SVG Export Plug-In . SVG Version: 6.00 Build 0)  -->
<!DOCTYPE svg PUBLIC "-//W3C//DTD SVG 1.1//EN" "http://www.w3.org/Graphics/SVG/1.1/DTD/svg11.dtd">
<svg version="1.1" id="图层_1" xmlns="http://www.w3.org/2000/svg" xmlns:xlink="http://www.w3.org/1999/xlink" x="0px" y="0px"
	 width="26px" height="26px" viewBox="0 0 26 26" style="enable-background:new 0 0 26 26;" xml:space="preserve">
<path style="fill:#3BA2FF;" d="M15.7,26L15.7,26c-0.4,0-0.8-0.4-0.8-0.8c0-0.4,0.3-0.8,0.8-0.8c0.3,0,2.1-0.5,3.9-1.3
	c2-0.9,3.1-2,3.1-2.8c0-0.5-0.2-0.9-0.7-1.3c-0.4-0.4-1.1-0.7-1.9-1c-1-0.4-2.3-0.7-3.7-0.9L15.7,17v-2.3l0.2-0.2
	c0.5-0.6,1.2-1.3,1.7-2.4c0.7-1.4,1-3,1-4.9c0-1.7-0.5-3.1-1.6-4.1c-0.9-0.9-2.7-1.4-4.1-1.4S9.9,2.1,8.9,3c-1,1-1.6,2.4-1.6,4.1
	c0,1.9,0.3,3.6,1,4.9c0.5,1.1,1.1,1.8,1.7,2.4l0.2,0.2V17l-0.7,0.1c-1.4,0.2-2.7,0.5-3.7,0.9C5,18.2,4.4,18.6,4,19
	c-0.4,0.4-0.7,0.8-0.7,1.3c0,0.9,1.1,1.9,3.1,2.8c1.8,0.8,3.7,1.3,3.9,1.3c0.4,0,0.8,0.4,0.8,0.8c0,0.4-0.4,0.8-0.8,0.8h0
	c-0.4,0-1.9-0.4-3.2-0.9c-1.3-0.5-3.2-1.3-4.3-2.5c-0.8-0.8-1.1-1.6-1.1-2.4c0-0.9,0.4-1.8,1.2-2.5c0.6-0.5,1.4-1,2.4-1.3
	c1.2-0.5,2.5-0.7,3.4-0.8v-0.3c-1.3-1.4-2.9-3.8-2.9-8.2c0-1.1,0.2-2,0.5-2.9c0.3-0.9,0.8-1.6,1.5-2.3C9,0.7,11.2,0,13,0
	s4,0.7,5.2,1.9c0.6,0.6,1.1,1.4,1.5,2.3c0.4,0.9,0.5,1.9,0.5,2.9c0,4.4-1.6,6.8-2.9,8.2v0.3c0.8,0.1,2.1,0.4,3.4,0.8
	c1,0.4,1.8,0.8,2.4,1.3c0.8,0.7,1.2,1.5,1.2,2.5c0,0.8-0.4,1.6-1.1,2.4c-1.1,1.1-3,2-4.3,2.5C18.1,25.4,16.1,26,15.7,26z"/>
</svg>
