<?xml version="1.0" encoding="utf-8"?>
<!-- Generator: Adobe Illustrator 17.0.0, SVG Export Plug-In . SVG Version: 6.00 Build 0)  -->
<!DOCTYPE svg PUBLIC "-//W3C//DTD SVG 1.1//EN" "http://www.w3.org/Graphics/SVG/1.1/DTD/svg11.dtd">
<svg version="1.1" id="图层_1" xmlns="http://www.w3.org/2000/svg" xmlns:xlink="http://www.w3.org/1999/xlink" x="0px" y="0px"
	 width="26px" height="26px" viewBox="0 0 26 26" style="enable-background:new 0 0 26 26;" xml:space="preserve">
<g>
	<path style="fill:#3BA2FF;" d="M21.9,9.5h-1.8V7.1C20.1,3.2,16.9,0,13,0S5.9,3.2,5.9,7.1v2.4H4.1c-1,0-1.8,0.8-1.8,1.8v13
		c0,1,0.8,1.8,1.8,1.8h17.7c1,0,1.8-0.8,1.8-1.8v-13C23.6,10.2,22.8,9.5,21.9,9.5L21.9,9.5z M7.7,7.1c0-2.9,2.4-5.3,5.3-5.3
		c2.9,0,5.3,2.4,5.3,5.3v2.4H7.7L7.7,7.1z M21.9,24.2H4.1v-13h17.7V24.2L21.9,24.2z"/>
	<path style="fill:#3BA2FF;" d="M13,20.2c0.4,0,0.8-0.4,0.8-0.8v-4.3c0-0.4-0.4-0.8-0.8-0.8c-0.4,0-0.8,0.4-0.8,0.8v4.3
		C12.2,19.8,12.6,20.2,13,20.2L13,20.2z"/>
</g>
</svg>
