<?xml version="1.0" encoding="utf-8"?>
<!-- Generator: Adobe Illustrator 17.0.0, SVG Export Plug-In . SVG Version: 6.00 Build 0)  -->
<!DOCTYPE svg PUBLIC "-//W3C//DTD SVG 1.1//EN" "http://www.w3.org/Graphics/SVG/1.1/DTD/svg11.dtd">
<svg version="1.1" id="图层_1" xmlns="http://www.w3.org/2000/svg" xmlns:xlink="http://www.w3.org/1999/xlink" x="0px" y="0px"
	 preserveAspectRatio="none" viewBox="0 0 2000 1300" style="enable-background:new 0 0 2000 1300;" xml:space="preserve">
<g>
	<g>
		<polygon style="fill:#001A36;" points="990.8,718.2 978.1,687.4 946.3,647.9 910.4,589 901.9,590.4 886.5,555.7 942.4,534.7 
			922.6,501.2 919,489.5 906,465.3 893.8,440.6 872.3,418.4 878.9,407.4 876.9,406.7 778.5,418.4 754.7,428.2 743.3,437 744,437.9 
			743.3,437 740.8,438.7 744,459.9 734.5,459.9 724.9,473.4 693.7,482.7 685.3,473.4 673.6,475.6 676.8,490.7 665.1,490.7 
			642.1,500 649.4,510 636,524 645.5,539.1 651.1,530.6 656.3,534.2 663.4,516.4 716.4,542.8 723,577 723,600.7 734.5,634.9 
			711,636.9 711,656.4 720.8,660.1 735,664.2 778.7,660.1 772.6,676 783.6,684 809.2,678.2 814.9,697 848.6,686.2 855.9,696 
			867.2,710.2 873,726.1 885.5,729.5 964.7,694.8 964.7,709 1010.4,751.2 1011.8,751.2 999.4,730 		"/>
		<polygon style="fill:#001F39;" points="990.8,717.6 978.1,686.8 946.3,647.2 910.4,588.3 901.9,589.8 886.5,555.1 942.4,534.1 
			922.6,500.6 919,488.9 906,464.7 893.8,440 872.3,417.7 878.9,406.7 876.9,406 778.5,417.7 754.7,427.5 743.3,436.3 744,437.3 
			743.3,436.3 740.8,438 744,459.3 734.5,459.3 724.9,472.7 693.7,482 685.3,472.7 673.6,474.9 676.8,490.1 665.1,490.1 
			642.1,499.4 649.4,509.4 636,523.3 645.5,538.5 651.1,529.9 656.3,533.6 663.4,515.7 716.4,542.1 723,576.3 723,600 734.5,634.3 
			711,636.2 711,655.8 720.8,659.4 735,663.6 778.7,659.4 772.6,675.3 783.6,683.4 809.2,677.5 814.9,696.3 848.6,685.6 
			855.9,695.4 867.2,709.5 873,725.4 885.5,728.8 964.7,694.1 964.7,708.3 1010.4,750.6 1011.8,750.6 999.4,729.3 		"/>
		<polygon style="fill:#01233C;" points="990.8,716.9 978.1,686.2 946.3,646.6 910.4,587.7 901.9,589.1 886.5,554.4 942.4,533.4 
			922.6,499.9 919,488.2 906,464 893.8,439.3 872.3,417.1 878.9,406.1 876.9,405.4 778.5,417.1 754.7,426.9 743.3,435.7 744,436.6 
			743.3,435.7 740.8,437.4 744,458.6 734.5,458.6 724.9,472.1 693.7,481.4 685.3,472.1 673.6,474.3 676.8,489.4 665.1,489.4 
			642.1,498.7 649.4,508.7 636,522.7 645.5,537.8 651.1,529.3 656.3,532.9 663.4,515.1 716.4,541.5 723,575.7 723,599.4 
			734.5,633.6 711,635.6 711,655.1 720.8,658.8 735,662.9 778.7,658.8 772.6,674.7 783.6,682.7 809.2,676.9 814.9,695.7 
			848.6,684.9 855.9,694.7 867.2,708.9 873,724.8 885.5,728.2 964.7,693.5 964.7,707.7 1010.4,749.9 1011.8,749.9 999.4,728.7 		"/>
		<polygon style="fill:#01283F;" points="990.8,716.3 978.1,685.5 946.3,645.9 910.4,587 901.9,588.5 886.5,553.8 942.4,532.8 
			922.6,499.3 919,487.6 906,463.4 893.8,438.7 872.3,416.5 878.9,405.5 876.9,404.7 778.5,416.5 754.7,426.2 743.3,435 744,436 
			743.3,435 740.8,436.7 744,458 734.5,458 724.9,471.4 693.7,480.7 685.3,471.4 673.6,473.6 676.8,488.8 665.1,488.8 642.1,498.1 
			649.4,508.1 636,522 645.5,537.2 651.1,528.6 656.3,532.3 663.4,514.4 716.4,540.8 723,575.1 723,598.8 734.5,633 711,634.9 
			711,654.5 720.8,658.1 735,662.3 778.7,658.1 772.6,674 783.6,682.1 809.2,676.2 814.9,695 848.6,684.3 855.9,694.1 867.2,708.2 
			873,724.1 885.5,727.5 964.7,692.8 964.7,707 1010.4,749.3 1011.8,749.3 999.4,728 		"/>
		<polygon style="fill:#012C42;" points="990.8,715.7 978.1,684.9 946.3,645.3 910.4,586.4 901.9,587.8 886.5,553.1 942.4,532.1 
			922.6,498.6 919,486.9 906,462.7 893.8,438 872.3,415.8 878.9,404.8 876.9,404.1 778.5,415.8 754.7,425.6 743.3,434.4 744,435.4 
			743.3,434.4 740.8,436.1 744,457.3 734.5,457.3 724.9,470.8 693.7,480.1 685.3,470.8 673.6,473 676.8,488.1 665.1,488.1 
			642.1,497.4 649.4,507.4 636,521.4 645.5,536.5 651.1,528 656.3,531.6 663.4,513.8 716.4,540.2 723,574.4 723,598.1 734.5,632.3 
			711,634.3 711,653.8 720.8,657.5 735,661.7 778.7,657.5 772.6,673.4 783.6,681.4 809.2,675.6 814.9,694.4 848.6,683.6 
			855.9,693.4 867.2,707.6 873,723.5 885.5,726.9 964.7,692.2 964.7,706.4 1010.4,748.6 1011.8,748.6 999.4,727.4 		"/>
		<polygon style="fill:#023145;" points="990.8,715 978.1,684.2 946.3,644.6 910.4,585.7 901.9,587.2 886.5,552.5 942.4,531.5 
			922.6,498 919,486.3 906,462.1 893.8,437.4 872.3,415.2 878.9,404.2 876.9,403.4 778.5,415.2 754.7,424.9 743.3,433.7 744,434.7 
			743.3,433.7 740.8,435.4 744,456.7 734.5,456.7 724.9,470.1 693.7,479.4 685.3,470.1 673.6,472.3 676.8,487.5 665.1,487.5 
			642.1,496.8 649.4,506.8 636,520.7 645.5,535.9 651.1,527.3 656.3,531 663.4,513.2 716.4,539.5 723,573.8 723,597.5 734.5,631.7 
			711,633.6 711,653.2 720.8,656.9 735,661 778.7,656.9 772.6,672.7 783.6,680.8 809.2,674.9 814.9,693.8 848.6,683 855.9,692.8 
			867.2,706.9 873,722.8 885.5,726.3 964.7,691.6 964.7,705.7 1010.4,748 1011.8,748 999.4,726.7 		"/>
		<polygon style="fill:#023548;" points="990.8,714.4 978.1,683.6 946.3,644 910.4,585.1 901.9,586.6 886.5,551.9 942.4,530.8 
			922.6,497.4 919,485.6 906,461.4 893.8,436.8 872.3,414.5 878.9,403.5 876.9,402.8 778.5,414.5 754.7,424.3 743.3,433.1 
			744,434.1 743.3,433.1 740.8,434.8 744,456.1 734.5,456.1 724.9,469.5 693.7,478.8 685.3,469.5 673.6,471.7 676.8,486.9 
			665.1,486.9 642.1,496.1 649.4,506.2 636,520.1 645.5,535.2 651.1,526.7 656.3,530.4 663.4,512.5 716.4,538.9 723,573.1 
			723,596.8 734.5,631 711,633 711,652.5 720.8,656.2 735,660.4 778.7,656.2 772.6,672.1 783.6,680.2 809.2,674.3 814.9,693.1 
			848.6,682.4 855.9,692.1 867.2,706.3 873,722.2 885.5,725.6 964.7,690.9 964.7,705.1 1010.4,747.4 1011.8,747.4 999.4,726.1 		"/>
		<polygon style="fill:#023A4B;" points="990.8,713.7 978.1,682.9 946.3,643.3 910.4,584.4 901.9,585.9 886.5,551.2 942.4,530.2 
			922.6,496.7 919,485 906,460.8 893.8,436.1 872.3,413.9 878.9,402.9 876.9,402.1 778.5,413.9 754.7,423.6 743.3,432.4 744,433.4 
			743.3,432.4 740.8,434.2 744,455.4 734.5,455.4 724.9,468.9 693.7,478.1 685.3,468.9 673.6,471.1 676.8,486.2 665.1,486.2 
			642.1,495.5 649.4,505.5 636,519.4 645.5,534.6 651.1,526 656.3,529.7 663.4,511.9 716.4,538.3 723,572.5 723,596.2 734.5,630.4 
			711,632.3 711,651.9 720.8,655.6 735,659.7 778.7,655.6 772.6,671.4 783.6,679.5 809.2,673.6 814.9,692.5 848.6,681.7 
			855.9,691.5 867.2,705.7 873,721.5 885.5,725 964.7,690.3 964.7,704.4 1010.4,746.7 1011.8,746.7 999.4,725.5 		"/>
		<polygon style="fill:#033F4D;" points="990.8,713.1 978.1,682.3 946.3,642.7 910.4,583.8 901.9,585.3 886.5,550.6 942.4,529.5 
			922.6,496.1 919,484.3 906,460.1 893.8,435.5 872.3,413.2 878.9,402.2 876.9,401.5 778.5,413.2 754.7,423 743.3,431.8 744,432.8 
			743.3,431.8 740.8,433.5 744,454.8 734.5,454.8 724.9,468.2 693.7,477.5 685.3,468.2 673.6,470.4 676.8,485.6 665.1,485.6 
			642.1,494.8 649.4,504.9 636,518.8 645.5,533.9 651.1,525.4 656.3,529.1 663.4,511.2 716.4,537.6 723,571.8 723,595.5 
			734.5,629.7 711,631.7 711,651.2 720.8,654.9 735,659.1 778.7,654.9 772.6,670.8 783.6,678.9 809.2,673 814.9,691.8 848.6,681.1 
			855.9,690.8 867.2,705 873,720.9 885.5,724.3 964.7,689.6 964.7,703.8 1010.4,746.1 1011.8,746.1 999.4,724.8 		"/>
		<polygon style="fill:#034350;" points="990.8,712.4 978.1,681.6 946.3,642.1 910.4,583.2 901.9,584.6 886.5,549.9 942.4,528.9 
			922.6,495.4 919,483.7 906,459.5 893.8,434.8 872.3,412.6 878.9,401.6 876.9,400.8 778.5,412.6 754.7,422.4 743.3,431.2 
			744,432.1 743.3,431.2 740.8,432.9 744,454.1 734.5,454.1 724.9,467.6 693.7,476.9 685.3,467.6 673.6,469.8 676.8,484.9 
			665.1,484.9 642.1,494.2 649.4,504.2 636,518.2 645.5,533.3 651.1,524.7 656.3,528.4 663.4,510.6 716.4,537 723,571.2 723,594.9 
			734.5,629.1 711,631.1 711,650.6 720.8,654.3 735,658.4 778.7,654.3 772.6,670.2 783.6,678.2 809.2,672.4 814.9,691.2 
			848.6,680.4 855.9,690.2 867.2,704.4 873,720.3 885.5,723.7 964.7,689 964.7,703.1 1010.4,745.4 1011.8,745.4 999.4,724.2 		"/>
		<polygon style="fill:#044853;" points="990.8,711.8 978.1,681 946.3,641.4 910.4,582.5 901.9,584 886.5,549.3 942.4,528.3 
			922.6,494.8 919,483 906,458.9 893.8,434.2 872.3,411.9 878.9,400.9 876.9,400.2 778.5,411.9 754.7,421.7 743.3,430.5 744,431.5 
			743.3,430.5 740.8,432.2 744,453.5 734.5,453.5 724.9,466.9 693.7,476.2 685.3,466.9 673.6,469.1 676.8,484.3 665.1,484.3 
			642.1,493.6 649.4,503.6 636,517.5 645.5,532.7 651.1,524.1 656.3,527.8 663.4,509.9 716.4,536.3 723,570.5 723,594.2 
			734.5,628.5 711,630.4 711,650 720.8,653.6 735,657.8 778.7,653.6 772.6,669.5 783.6,677.6 809.2,671.7 814.9,690.5 848.6,679.8 
			855.9,689.5 867.2,703.7 873,719.6 885.5,723 964.7,688.3 964.7,702.5 1010.4,744.8 1011.8,744.8 999.4,723.5 		"/>
		<polygon style="fill:#044C56;" points="990.8,711.1 978.1,680.4 946.3,640.8 910.4,581.9 901.9,583.3 886.5,548.6 942.4,527.6 
			922.6,494.1 919,482.4 906,458.2 893.8,433.5 872.3,411.3 878.9,400.3 876.9,399.6 778.5,411.3 754.7,421.1 743.3,429.9 
			744,430.8 743.3,429.9 740.8,431.6 744,452.8 734.5,452.8 724.9,466.3 693.7,475.6 685.3,466.3 673.6,468.5 676.8,483.6 
			665.1,483.6 642.1,492.9 649.4,502.9 636,516.9 645.5,532 651.1,523.5 656.3,527.1 663.4,509.3 716.4,535.7 723,569.9 723,593.6 
			734.5,627.8 711,629.8 711,649.3 720.8,653 735,657.1 778.7,653 772.6,668.9 783.6,676.9 809.2,671.1 814.9,689.9 848.6,679.1 
			855.9,688.9 867.2,703.1 873,719 885.5,722.4 964.7,687.7 964.7,701.9 1010.4,744.1 1011.8,744.1 999.4,722.9 		"/>
		<polygon style="fill:#045159;" points="990.8,710.5 978.1,679.7 946.3,640.1 910.4,581.2 901.9,582.7 886.5,548 942.4,527 
			922.6,493.5 919,481.8 906,457.6 893.8,432.9 872.3,410.6 878.9,399.6 876.9,398.9 778.5,410.6 754.7,420.4 743.3,429.2 
			744,430.2 743.3,429.2 740.8,430.9 744,452.2 734.5,452.2 724.9,465.6 693.7,474.9 685.3,465.6 673.6,467.8 676.8,483 665.1,483 
			642.1,492.3 649.4,502.3 636,516.2 645.5,531.4 651.1,522.8 656.3,526.5 663.4,508.6 716.4,535 723,569.2 723,593 734.5,627.2 
			711,629.1 711,648.7 720.8,652.3 735,656.5 778.7,652.3 772.6,668.2 783.6,676.3 809.2,670.4 814.9,689.2 848.6,678.5 
			855.9,688.3 867.2,702.4 873,718.3 885.5,721.7 964.7,687 964.7,701.2 1010.4,743.5 1011.8,743.5 999.4,722.2 		"/>
		<polygon style="fill:#05565C;" points="990.8,709.9 978.1,679.1 946.3,639.5 910.4,580.6 901.9,582 886.5,547.3 942.4,526.3 
			922.6,492.8 919,481.1 906,456.9 893.8,432.2 872.3,410 878.9,399 876.9,398.3 778.5,410 754.7,419.8 743.3,428.6 744,429.5 
			743.3,428.6 740.8,430.3 744,451.5 734.5,451.5 724.9,465 693.7,474.3 685.3,465 673.6,467.2 676.8,482.3 665.1,482.3 
			642.1,491.6 649.4,501.6 636,515.6 645.5,530.7 651.1,522.2 656.3,525.8 663.4,508 716.4,534.4 723,568.6 723,592.3 734.5,626.5 
			711,628.5 711,648 720.8,651.7 735,655.8 778.7,651.7 772.6,667.6 783.6,675.6 809.2,669.8 814.9,688.6 848.6,677.8 855.9,687.6 
			867.2,701.8 873,717.7 885.5,721.1 964.7,686.4 964.7,700.6 1010.4,742.8 1011.8,742.8 999.4,721.6 		"/>
		<polygon style="fill:#055A5F;" points="990.8,709.2 978.1,678.4 946.3,638.8 910.4,579.9 901.9,581.4 886.5,546.7 942.4,525.7 
			922.6,492.2 919,480.5 906,456.3 893.8,431.6 872.3,409.4 878.9,398.4 876.9,397.6 778.5,409.4 754.7,419.1 743.3,427.9 
			744,428.9 743.3,427.9 740.8,429.6 744,450.9 734.5,450.9 724.9,464.3 693.7,473.6 685.3,464.3 673.6,466.5 676.8,481.7 
			665.1,481.7 642.1,491 649.4,501 636,514.9 645.5,530.1 651.1,521.5 656.3,525.2 663.4,507.3 716.4,533.7 723,568 723,591.7 
			734.5,625.9 711,627.8 711,647.4 720.8,651 735,655.2 778.7,651 772.6,666.9 783.6,675 809.2,669.1 814.9,687.9 848.6,677.2 
			855.9,687 867.2,701.1 873,717 885.5,720.4 964.7,685.7 964.7,699.9 1010.4,742.2 1011.8,742.2 999.4,720.9 		"/>
		<polygon style="fill:#055F62;" points="990.8,708.6 978.1,677.8 946.3,638.2 910.4,579.3 901.9,580.8 886.5,546 942.4,525 
			922.6,491.6 919,479.8 906,455.6 893.8,430.9 872.3,408.7 878.9,397.7 876.9,397 778.5,408.7 754.7,418.5 743.3,427.3 744,428.3 
			743.3,427.3 740.8,429 744,450.3 734.5,450.3 724.9,463.7 693.7,473 685.3,463.7 673.6,465.9 676.8,481 665.1,481 642.1,490.3 
			649.4,500.4 636,514.3 645.5,529.4 651.1,520.9 656.3,524.5 663.4,506.7 716.4,533.1 723,567.3 723,591 734.5,625.2 711,627.2 
			711,646.7 720.8,650.4 735,654.6 778.7,650.4 772.6,666.3 783.6,674.3 809.2,668.5 814.9,687.3 848.6,676.5 855.9,686.3 
			867.2,700.5 873,716.4 885.5,719.8 964.7,685.1 964.7,699.3 1010.4,741.6 1011.8,741.6 999.4,720.3 		"/>
		<polygon style="fill:#066365;" points="990.8,707.9 978.1,677.1 946.3,637.5 910.4,578.6 901.9,580.1 886.5,545.4 942.4,524.4 
			922.6,490.9 919,479.2 906,455 893.8,430.3 872.3,408.1 878.9,397.1 876.9,396.3 778.5,408.1 754.7,417.8 743.3,426.6 744,427.6 
			743.3,426.6 740.8,428.3 744,449.6 734.5,449.6 724.9,463 693.7,472.3 685.3,463 673.6,465.2 676.8,480.4 665.1,480.4 
			642.1,489.7 649.4,499.7 636,513.6 645.5,528.8 651.1,520.2 656.3,523.9 663.4,506.1 716.4,532.5 723,566.7 723,590.4 
			734.5,624.6 711,626.5 711,646.1 720.8,649.8 735,653.9 778.7,649.8 772.6,665.6 783.6,673.7 809.2,667.8 814.9,686.7 
			848.6,675.9 855.9,685.7 867.2,699.9 873,715.7 885.5,719.2 964.7,684.5 964.7,698.6 1010.4,740.9 1011.8,740.9 999.4,719.6 		"/>
		<polygon style="fill:#066868;" points="990.8,707.3 978.1,676.5 946.3,636.9 910.4,578 901.9,579.5 886.5,544.8 942.4,523.7 
			922.6,490.3 919,478.5 906,454.3 893.8,429.7 872.3,407.4 878.9,396.4 876.9,395.7 778.5,407.4 754.7,417.2 743.3,426 744,427 
			743.3,426 740.8,427.7 744,449 734.5,449 724.9,462.4 693.7,471.7 685.3,462.4 673.6,464.6 676.8,479.8 665.1,479.8 642.1,489 
			649.4,499.1 636,513 645.5,528.1 651.1,519.6 656.3,523.3 663.4,505.4 716.4,531.8 723,566 723,589.7 734.5,623.9 711,625.9 
			711,645.4 720.8,649.1 735,653.3 778.7,649.1 772.6,665 783.6,673.1 809.2,667.2 814.9,686 848.6,675.3 855.9,685 867.2,699.2 
			873,715.1 885.5,718.5 964.7,683.8 964.7,698 1010.4,740.3 1011.8,740.3 999.4,719 		"/>
		<polygon style="fill:#066C6B;" points="990.8,706.6 978.1,675.8 946.3,636.2 910.4,577.3 901.9,578.8 886.5,544.1 942.4,523.1 
			922.6,489.6 919,477.9 906,453.7 893.8,429 872.3,406.8 878.9,395.8 876.9,395 778.5,406.8 754.7,416.5 743.3,425.3 744,426.3 
			743.3,425.3 740.8,427.1 744,448.3 734.5,448.3 724.9,461.8 693.7,471 685.3,461.8 673.6,464 676.8,479.1 665.1,479.1 
			642.1,488.4 649.4,498.4 636,512.3 645.5,527.5 651.1,518.9 656.3,522.6 663.4,504.8 716.4,531.2 723,565.4 723,589.1 
			734.5,623.3 711,625.2 711,644.8 720.8,648.5 735,652.6 778.7,648.5 772.6,664.3 783.6,672.4 809.2,666.5 814.9,685.4 
			848.6,674.6 855.9,684.4 867.2,698.6 873,714.4 885.5,717.9 964.7,683.2 964.7,697.3 1010.4,739.6 1011.8,739.6 999.4,718.4 		"/>
		<polygon style="fill:#07716E;" points="990.8,706 978.1,675.2 946.3,635.6 910.4,576.7 901.9,578.2 886.5,543.5 942.4,522.5 
			922.6,489 919,477.2 906,453 893.8,428.4 872.3,406.1 878.9,395.1 876.9,394.4 778.5,406.1 754.7,415.9 743.3,424.7 744,425.7 
			743.3,424.7 740.8,426.4 744,447.7 734.5,447.7 724.9,461.1 693.7,470.4 685.3,461.1 673.6,463.3 676.8,478.5 665.1,478.5 
			642.1,487.8 649.4,497.8 636,511.7 645.5,526.9 651.1,518.3 656.3,522 663.4,504.1 716.4,530.5 723,564.7 723,588.4 734.5,622.6 
			711,624.6 711,644.2 720.8,647.8 735,652 778.7,647.8 772.6,663.7 783.6,671.8 809.2,665.9 814.9,684.7 848.6,674 855.9,683.7 
			867.2,697.9 873,713.8 885.5,717.2 964.7,682.5 964.7,696.7 1010.4,739 1011.8,739 999.4,717.7 		"/>
		<polygon style="fill:#077671;" points="990.8,705.3 978.1,674.5 946.3,635 910.4,576.1 901.9,577.5 886.5,542.8 942.4,521.8 
			922.6,488.3 919,476.6 906,452.4 893.8,427.7 872.3,405.5 878.9,394.5 876.9,393.8 778.5,405.5 754.7,415.3 743.3,424.1 744,425 
			743.3,424.1 740.8,425.8 744,447 734.5,447 724.9,460.5 693.7,469.8 685.3,460.5 673.6,462.7 676.8,477.8 665.1,477.8 
			642.1,487.1 649.4,497.1 636,511.1 645.5,526.2 651.1,517.7 656.3,521.3 663.4,503.5 716.4,529.9 723,564.1 723,587.8 734.5,622 
			711,624 711,643.5 720.8,647.2 735,651.3 778.7,647.2 772.6,663.1 783.6,671.1 809.2,665.3 814.9,684.1 848.6,673.3 855.9,683.1 
			867.2,697.3 873,713.2 885.5,716.6 964.7,681.9 964.7,696 1010.4,738.3 1011.8,738.3 999.4,717.1 		"/>
		<polygon style="fill:#077A74;" points="990.8,704.7 978.1,673.9 946.3,634.3 910.4,575.4 901.9,576.9 886.5,542.2 942.4,521.2 
			922.6,487.7 919,476 906,451.8 893.8,427.1 872.3,404.8 878.9,393.8 876.9,393.1 778.5,404.8 754.7,414.6 743.3,423.4 744,424.4 
			743.3,423.4 740.8,425.1 744,446.4 734.5,446.4 724.9,459.8 693.7,469.1 685.3,459.8 673.6,462 676.8,477.2 665.1,477.2 
			642.1,486.5 649.4,496.5 636,510.4 645.5,525.6 651.1,517 656.3,520.7 663.4,502.8 716.4,529.2 723,563.4 723,587.1 734.5,621.4 
			711,623.3 711,642.9 720.8,646.5 735,650.7 778.7,646.5 772.6,662.4 783.6,670.5 809.2,664.6 814.9,683.4 848.6,672.7 
			855.9,682.5 867.2,696.6 873,712.5 885.5,715.9 964.7,681.2 964.7,695.4 1010.4,737.7 1011.8,737.7 999.4,716.4 		"/>
		<polygon style="fill:#087F77;" points="990.8,704 978.1,673.3 946.3,633.7 910.4,574.8 901.9,576.2 886.5,541.5 942.4,520.5 
			922.6,487 919,475.3 906,451.1 893.8,426.4 872.3,404.2 878.9,393.2 876.9,392.5 778.5,404.2 754.7,414 743.3,422.8 744,423.7 
			743.3,422.8 740.8,424.5 744,445.7 734.5,445.7 724.9,459.2 693.7,468.5 685.3,459.2 673.6,461.4 676.8,476.5 665.1,476.5 
			642.1,485.8 649.4,495.8 636,509.8 645.5,524.9 651.1,516.4 656.3,520 663.4,502.2 716.4,528.6 723,562.8 723,586.5 734.5,620.7 
			711,622.7 711,642.2 720.8,645.9 735,650 778.7,645.9 772.6,661.8 783.6,669.8 809.2,664 814.9,682.8 848.6,672 855.9,681.8 
			867.2,696 873,711.9 885.5,715.3 964.7,680.6 964.7,694.8 1010.4,737 1011.8,737 999.4,715.8 		"/>
		<polygon style="fill:#08837A;" points="990.8,703.4 978.1,672.6 946.3,633 910.4,574.1 901.9,575.6 886.5,540.9 942.4,519.9 
			922.6,486.4 919,474.7 906,450.5 893.8,425.8 872.3,403.5 878.9,392.6 876.9,391.8 778.5,403.5 754.7,413.3 743.3,422.1 
			744,423.1 743.3,422.1 740.8,423.8 744,445.1 734.5,445.1 724.9,458.5 693.7,467.8 685.3,458.5 673.6,460.7 676.8,475.9 
			665.1,475.9 642.1,485.2 649.4,495.2 636,509.1 645.5,524.3 651.1,515.7 656.3,519.4 663.4,501.5 716.4,527.9 723,562.1 
			723,585.9 734.5,620.1 711,622 711,641.6 720.8,645.2 735,649.4 778.7,645.2 772.6,661.1 783.6,669.2 809.2,663.3 814.9,682.1 
			848.6,671.4 855.9,681.2 867.2,695.3 873,711.2 885.5,714.6 964.7,679.9 964.7,694.1 1010.4,736.4 1011.8,736.4 999.4,715.1 		"/>
		<polygon style="fill:#09887C;" points="990.8,702.8 978.1,672 946.3,632.4 910.4,573.5 901.9,574.9 886.5,540.2 942.4,519.2 
			922.6,485.7 919,474 906,449.8 893.8,425.1 872.3,402.9 878.9,391.9 876.9,391.2 778.5,402.9 754.7,412.7 743.3,421.5 744,422.5 
			743.3,421.5 740.8,423.2 744,444.4 734.5,444.4 724.9,457.9 693.7,467.2 685.3,457.9 673.6,460.1 676.8,475.2 665.1,475.2 
			642.1,484.5 649.4,494.5 636,508.5 645.5,523.6 651.1,515.1 656.3,518.7 663.4,500.9 716.4,527.3 723,561.5 723,585.2 
			734.5,619.4 711,621.4 711,640.9 720.8,644.6 735,648.7 778.7,644.6 772.6,660.5 783.6,668.5 809.2,662.7 814.9,681.5 
			848.6,670.7 855.9,680.5 867.2,694.7 873,710.6 885.5,714 964.7,679.3 964.7,693.5 1010.4,735.7 1011.8,735.7 999.4,714.5 		"/>
		<polygon style="fill:#098D7F;" points="990.8,702.1 978.1,671.3 946.3,631.7 910.4,572.8 901.9,574.3 886.5,539.6 942.4,518.6 
			922.6,485.1 919,473.4 906,449.2 893.8,424.5 872.3,402.3 878.9,391.3 876.9,390.5 778.5,402.3 754.7,412 743.3,420.8 744,421.8 
			743.3,420.8 740.8,422.5 744,443.8 734.5,443.8 724.9,457.2 693.7,466.5 685.3,457.2 673.6,459.4 676.8,474.6 665.1,474.6 
			642.1,483.9 649.4,493.9 636,507.8 645.5,523 651.1,514.4 656.3,518.1 663.4,500.3 716.4,526.6 723,560.9 723,584.6 734.5,618.8 
			711,620.7 711,640.3 720.8,643.9 735,648.1 778.7,643.9 772.6,659.8 783.6,667.9 809.2,662 814.9,680.8 848.6,670.1 855.9,679.9 
			867.2,694 873,709.9 885.5,713.4 964.7,678.6 964.7,692.8 1010.4,735.1 1011.8,735.1 999.4,713.8 		"/>
		<polygon style="fill:#099182;" points="990.8,701.5 978.1,670.7 946.3,631.1 910.4,572.2 901.9,573.7 886.5,539 942.4,517.9 
			922.6,484.5 919,472.7 906,448.5 893.8,423.9 872.3,401.6 878.9,390.6 876.9,389.9 778.5,401.6 754.7,411.4 743.3,420.2 
			744,421.2 743.3,420.2 740.8,421.9 744,443.2 734.5,443.2 724.9,456.6 693.7,465.9 685.3,456.6 673.6,458.8 676.8,473.9 
			665.1,473.9 642.1,483.2 649.4,493.3 636,507.2 645.5,522.3 651.1,513.8 656.3,517.4 663.4,499.6 716.4,526 723,560.2 723,583.9 
			734.5,618.1 711,620.1 711,639.6 720.8,643.3 735,647.5 778.7,643.3 772.6,659.2 783.6,667.3 809.2,661.4 814.9,680.2 
			848.6,669.5 855.9,679.2 867.2,693.4 873,709.3 885.5,712.7 964.7,678 964.7,692.2 1010.4,734.5 1011.8,734.5 999.4,713.2 		"/>
		<polygon style="fill:#0A9685;" points="990.8,700.8 978.1,670 946.3,630.4 910.4,571.5 901.9,573 886.5,538.3 942.4,517.3 
			922.6,483.8 919,472.1 906,447.9 893.8,423.2 872.3,401 878.9,390 876.9,389.2 778.5,401 754.7,410.7 743.3,419.5 744,420.5 
			743.3,419.5 740.8,421.3 744,442.5 734.5,442.5 724.9,456 693.7,465.2 685.3,456 673.6,458.2 676.8,473.3 665.1,473.3 
			642.1,482.6 649.4,492.6 636,506.5 645.5,521.7 651.1,513.1 656.3,516.8 663.4,499 716.4,525.4 723,559.6 723,583.3 734.5,617.5 
			711,619.4 711,639 720.8,642.7 735,646.8 778.7,642.7 772.6,658.5 783.6,666.6 809.2,660.7 814.9,679.6 848.6,668.8 855.9,678.6 
			867.2,692.8 873,708.6 885.5,712.1 964.7,677.4 964.7,691.5 1010.4,733.8 1011.8,733.8 999.4,712.5 		"/>
		<polygon style="fill:#0A9A88;" points="990.8,700.2 978.1,669.4 946.3,629.8 910.4,570.9 901.9,572.4 886.5,537.7 942.4,516.6 
			922.6,483.2 919,471.4 906,447.2 893.8,422.6 872.3,400.3 878.9,389.3 876.9,388.6 778.5,400.3 754.7,410.1 743.3,418.9 
			744,419.9 743.3,418.9 740.8,420.6 744,441.9 734.5,441.9 724.9,455.3 693.7,464.6 685.3,455.3 673.6,457.5 676.8,472.7 
			665.1,472.7 642.1,481.9 649.4,492 636,505.9 645.5,521 651.1,512.5 656.3,516.2 663.4,498.3 716.4,524.7 723,558.9 723,582.6 
			734.5,616.8 711,618.8 711,638.3 720.8,642 735,646.2 778.7,642 772.6,657.9 783.6,666 809.2,660.1 814.9,678.9 848.6,668.2 
			855.9,677.9 867.2,692.1 873,708 885.5,711.4 964.7,676.7 964.7,690.9 1010.4,733.2 1011.8,733.2 999.4,711.9 		"/>
		<polygon style="fill:#0A9F8B;" points="990.8,699.5 978.1,668.7 946.3,629.1 910.4,570.3 901.9,571.7 886.5,537 942.4,516 
			922.6,482.5 919,470.8 906,446.6 893.8,421.9 872.3,399.7 878.9,388.7 876.9,387.9 778.5,399.7 754.7,409.5 743.3,418.2 
			744,419.2 743.3,418.2 740.8,420 744,441.2 734.5,441.2 724.9,454.7 693.7,463.9 685.3,454.7 673.6,456.9 676.8,472 665.1,472 
			642.1,481.3 649.4,491.3 636,505.2 645.5,520.4 651.1,511.8 656.3,515.5 663.4,497.7 716.4,524.1 723,558.3 723,582 734.5,616.2 
			711,618.2 711,637.7 720.8,641.4 735,645.5 778.7,641.4 772.6,657.3 783.6,665.3 809.2,659.5 814.9,678.3 848.6,667.5 
			855.9,677.3 867.2,691.5 873,707.3 885.5,710.8 964.7,676.1 964.7,690.2 1010.4,732.5 1011.8,732.5 999.4,711.3 		"/>
		<polygon style="fill:#0BA38E;" points="990.8,698.9 978.1,668.1 946.3,628.5 910.4,569.6 901.9,571.1 886.5,536.4 942.4,515.4 
			922.6,481.9 919,470.1 906,446 893.8,421.3 872.3,399 878.9,388 876.9,387.3 778.5,399 754.7,408.8 743.3,417.6 744,418.6 
			743.3,417.6 740.8,419.3 744,440.6 734.5,440.6 724.9,454 693.7,463.3 685.3,454 673.6,456.2 676.8,471.4 665.1,471.4 
			642.1,480.7 649.4,490.7 636,504.6 645.5,519.8 651.1,511.2 656.3,514.9 663.4,497 716.4,523.4 723,557.6 723,581.3 734.5,615.6 
			711,617.5 711,637.1 720.8,640.7 735,644.9 778.7,640.7 772.6,656.6 783.6,664.7 809.2,658.8 814.9,677.6 848.6,666.9 
			855.9,676.6 867.2,690.8 873,706.7 885.5,710.1 964.7,675.4 964.7,689.6 1010.4,731.9 1011.8,731.9 999.4,710.6 		"/>
		<polygon style="fill:#0BA891;" points="990.8,698.2 978.1,667.4 946.3,627.9 910.4,569 901.9,570.4 886.5,535.7 942.4,514.7 
			922.6,481.2 919,469.5 906,445.3 893.8,420.6 872.3,398.4 878.9,387.4 876.9,386.7 778.5,398.4 754.7,408.2 743.3,417 744,417.9 
			743.3,417 740.8,418.7 744,439.9 734.5,439.9 724.9,453.4 693.7,462.7 685.3,453.4 673.6,455.6 676.8,470.7 665.1,470.7 
			642.1,480 649.4,490 636,504 645.5,519.1 651.1,510.6 656.3,514.2 663.4,496.4 716.4,522.8 723,557 723,580.7 734.5,614.9 
			711,616.9 711,636.4 720.8,640.1 735,644.2 778.7,640.1 772.6,656 783.6,664 809.2,658.2 814.9,677 848.6,666.2 855.9,676 
			867.2,690.2 873,706.1 885.5,709.5 964.7,674.8 964.7,689 1010.4,731.2 1011.8,731.2 999.4,710 		"/>
	</g>
	<g>
		<path style="fill:#CDEFF9;" d="M735.1,553.8H763v3.2h-12.5v12.1h13.8v3.1h-13.8v11.8h-3.3v-11.8h-13.5v-3.1h13.5V557h-12.1V553.8z
			 M739.9,558.6c1.3,2.4,2.5,5,3.6,7.7l-3,1.5c-1.1-2.9-2.3-5.4-3.6-7.7L739.9,558.6z M761.3,559.9c-1,2.6-2.2,5.1-3.9,7.7l-2.9-1.5
			c1.6-2.6,2.9-5.1,3.8-7.6L761.3,559.9z"/>
		<path style="fill:#CDEFF9;" d="M773.3,557.5c-0.8,1.6-1.7,3-2.7,4.2l-2.8-1.7c2-2.4,3.4-5,4.3-7.8l3.1,0.7c-0.1,0.3-0.2,0.6-0.3,1
			c-0.2,0.5-0.3,0.8-0.3,0.9h8.2v2.7h-5.3c0.7,0.9,1.3,1.8,1.9,2.8l-2.9,1.1c-0.7-1.4-1.5-2.7-2.4-3.9H773.3z M771.7,562.5h9.9v-1.8
			h3.2v1.8h9.7v2.8h-9.7v2.6h13.7v2.8h-6.3v2.7h4.8v2.9h-4.8v4.6c0,2.2-1.2,3.3-3.5,3.3h-4.8l-0.7-3.1c1.8,0.2,3.3,0.2,4.4,0.2
			c1,0,1.4-0.4,1.4-1.2v-3.8h-19v-2.9h19v-2.7h-21v-2.8h13.7v-2.6h-9.9V562.5z M776.1,576.8c1.8,1.8,3.2,3.4,4.1,4.7l-2.5,1.7
			c-1.1-1.5-2.5-3.1-4.2-4.8L776.1,576.8z M787.2,557.4c-0.7,1.3-1.4,2.5-2,3.4l-2.7-1.7c1.5-2.1,2.6-4.4,3.4-6.9l3.1,0.7l-0.6,1.9
			h9.3v2.7h-5.5c0.7,1,1.3,1.9,1.8,2.9l-2.8,1.1c-0.7-1.3-1.5-2.7-2.4-4H787.2z"/>
		<path style="fill:#CDEFF9;" d="M809.8,572.1c-0.8,5-2.4,8.8-4.9,11.5l-2.4-2.1c3-3.3,4.5-8.5,4.5-15.6V553h3.3v7.7h10v-8.1h3.1
			v8.1h9.2v3.1h-22.3v2c0,0.7,0,1.8-0.1,3.1h15.6v15.2h-3.3v-12.1H809.8z"/>
		<path style="fill:#CDEFF9;" d="M838.2,553.8h27.4v3.1h-24.3v22.7h25.4v3.1h-28.5V553.8z M846.2,559.3c3.2,2.4,6,4.7,8.5,6.9
			c1.8-2.4,3.3-5,4.6-8l2.9,1.6c-1.4,3.3-3.1,6.2-5,8.7c2.5,2.3,4.8,4.5,6.8,6.8l-2.5,2.5c-1.9-2.3-4.1-4.6-6.5-6.8
			c-2.8,3-6.2,5.4-10,7l-1.9-2.9c3.6-1.5,6.8-3.6,9.4-6.4c-2.5-2.2-5.4-4.6-8.7-7.1L846.2,559.3z"/>
	</g>
</g>
</svg>
