<?xml version="1.0" encoding="utf-8"?>
<!-- Generator: Adobe Illustrator 17.0.0, SVG Export Plug-In . SVG Version: 6.00 Build 0)  -->
<!DOCTYPE svg PUBLIC "-//W3C//DTD SVG 1.1//EN" "http://www.w3.org/Graphics/SVG/1.1/DTD/svg11.dtd">
<svg version="1.1" id="图层_1" xmlns="http://www.w3.org/2000/svg" xmlns:xlink="http://www.w3.org/1999/xlink" x="0px" y="0px"
	 preserveAspectRatio="none" viewBox="0 0 2000 1300" style="enable-background:new 0 0 2000 1300;" xml:space="preserve">
<g>
	<g>
		<polygon style="fill:#001A36;" points="496.9,827 483.5,817.9 479.8,792.3 458.3,779.3 476.4,765.2 468.3,755.1 452.5,755.1 
			462.2,741.5 380.6,695 397,678.9 399.2,656.7 393.6,644.2 390.1,638.3 376,640.3 345.7,629.8 337.6,633 332.7,633 332.7,623.7 
			319.8,617.8 313.9,629.3 303.6,625.6 303.6,630.8 300.2,639.8 296.3,653 287.7,662.5 278,671.8 275,676.4 268.9,677.9 
			256.2,682.3 251.8,690.6 236.4,695.3 224.9,698 221.3,698 214.7,704.8 214.7,713.4 217.4,719.5 229.1,728.3 237.9,740.2 
			240.6,753.2 228.6,768.8 221,779.3 206.9,790.8 192.4,803.3 185.8,808.9 177.8,817.5 162.4,826.5 150.6,833.3 125.5,844.8 
			128.9,854.8 134.3,867.6 142.8,891 148.9,897.9 161.2,901.8 177,907.1 193.7,908.9 208.6,908.9 213.7,906.9 239.8,935.2 
			260.4,927.9 269.2,931.3 268.9,948.4 271.4,958.5 278.7,971.4 290.4,979 300.4,980.7 312.4,978.3 323.2,976.1 329.3,976.1 
			340.8,975.8 352,967.3 358.4,962.4 361.8,955 377.9,944.3 395.8,942.6 411.2,936.2 415.6,933 429.7,937.7 443.2,937.9 
			457.1,936.5 462.5,931.8 474.4,934.3 484.5,937.9 493.3,941.1 506.2,941.1 520.1,935 533.6,912.5 539.5,902.5 531.4,849 
			522.8,845.8 520.6,839.2 499.9,843.6 		"/>
		<polygon style="fill:#001F39;" points="496.9,826.3 483.5,817.3 479.8,791.6 458.3,778.7 476.4,764.5 468.3,754.5 452.5,754.5 
			462.2,740.8 380.6,694.4 397,678.2 399.2,656 393.6,643.5 390.1,637.7 376,639.6 345.7,629.1 337.6,632.3 332.7,632.3 332.7,623 
			319.8,617.2 313.9,628.6 303.6,625 303.6,630.1 300.2,639.1 296.3,652.3 287.7,661.9 278,671.2 275,675.8 268.9,677.3 
			256.2,681.7 251.8,690 236.4,694.6 224.9,697.3 221.3,697.3 214.7,704.2 214.7,712.7 217.4,718.8 229.1,727.6 237.9,739.6 
			240.6,752.5 228.6,768.2 221,778.7 206.9,790.2 192.4,802.6 185.8,808.3 177.8,816.8 162.4,825.9 150.6,832.7 125.5,844.2 
			128.9,854.2 134.3,866.9 142.8,890.4 148.9,897.2 161.2,901.1 177,906.5 193.7,908.2 208.6,908.2 213.7,906.3 239.8,934.6 
			260.4,927.3 269.2,930.7 268.9,947.8 271.4,957.8 278.7,970.8 290.4,978.3 300.4,980.1 312.4,977.6 323.2,975.4 329.3,975.4 
			340.8,975.2 352,966.6 358.4,961.7 361.8,954.4 377.9,943.6 395.8,941.9 411.2,935.6 415.6,932.4 429.7,937 443.2,937.3 
			457.1,935.8 462.5,931.2 474.4,933.6 484.5,937.3 493.3,940.5 506.2,940.5 520.1,934.4 533.6,911.9 539.5,901.9 531.4,848.3 
			522.8,845.2 520.6,838.6 499.9,843 		"/>
		<polygon style="fill:#01233C;" points="496.9,825.7 483.5,816.7 479.8,791 458.3,778 476.4,763.9 468.3,753.8 452.5,753.8 
			462.2,740.2 380.6,693.7 397,677.6 399.2,655.4 393.6,642.9 390.1,637 376,639 345.7,628.5 337.6,631.7 332.7,631.7 332.7,622.4 
			319.8,616.5 313.9,628 303.6,624.3 303.6,629.5 300.2,638.5 296.3,651.7 287.7,661.2 278,670.5 275,675.2 268.9,676.6 256.2,681 
			251.8,689.3 236.4,694 224.9,696.7 221.3,696.7 214.7,703.5 214.7,712.1 217.4,718.2 229.1,727 237.9,738.9 240.6,751.9 
			228.6,767.5 221,778 206.9,789.5 192.4,802 185.8,807.6 177.8,816.2 162.4,825.2 150.6,832.1 125.5,843.5 128.9,853.6 
			134.3,866.3 142.8,889.7 148.9,896.6 161.2,900.5 177,905.9 193.7,907.6 208.6,907.6 213.7,905.6 239.8,934 260.4,926.6 
			269.2,930 268.9,947.2 271.4,957.2 278.7,970.1 290.4,977.7 300.4,979.4 312.4,977 323.2,974.8 329.3,974.8 340.8,974.5 352,966 
			358.4,961.1 361.8,953.8 377.9,943 395.8,941.3 411.2,934.9 415.6,931.8 429.7,936.4 443.2,936.6 457.1,935.2 462.5,930.5 
			474.4,933 484.5,936.6 493.3,939.8 506.2,939.8 520.1,933.7 533.6,911.2 539.5,901.2 531.4,847.7 522.8,844.5 520.6,837.9 
			499.9,842.3 		"/>
		<polygon style="fill:#01283F;" points="496.9,825.1 483.5,816 479.8,790.3 458.3,777.4 476.4,763.2 468.3,753.2 452.5,753.2 
			462.2,739.5 380.6,693.1 397,677 399.2,654.7 393.6,642.3 390.1,636.4 376,638.3 345.7,627.8 337.6,631 332.7,631 332.7,621.7 
			319.8,615.9 313.9,627.3 303.6,623.7 303.6,628.8 300.2,637.9 296.3,651.1 287.7,660.6 278,669.9 275,674.5 268.9,676 
			256.2,680.4 251.8,688.7 236.4,693.3 224.9,696 221.3,696 214.7,702.9 214.7,711.4 217.4,717.5 229.1,726.3 237.9,738.3 
			240.6,751.2 228.6,766.9 221,777.4 206.9,788.9 192.4,801.3 185.8,807 177.8,815.5 162.4,824.6 150.6,831.4 125.5,842.9 
			128.9,852.9 134.3,865.6 142.8,889.1 148.9,895.9 161.2,899.8 177,905.2 193.7,906.9 208.6,906.9 213.7,905 239.8,933.3 
			260.4,926 269.2,929.4 268.9,946.5 271.4,956.5 278.7,969.5 290.4,977.1 300.4,978.8 312.4,976.3 323.2,974.1 329.3,974.1 
			340.8,973.9 352,965.3 358.4,960.4 361.8,953.1 377.9,942.4 395.8,940.6 411.2,934.3 415.6,931.1 429.7,935.8 443.2,936 
			457.1,934.5 462.5,929.9 474.4,932.3 484.5,936 493.3,939.2 506.2,939.2 520.1,933.1 533.6,910.6 539.5,900.6 531.4,847 
			522.8,843.9 520.6,837.3 499.9,841.7 		"/>
		<polygon style="fill:#012C42;" points="496.9,824.4 483.5,815.4 479.8,789.7 458.3,776.8 476.4,762.6 468.3,752.6 452.5,752.6 
			462.2,738.9 380.6,692.4 397,676.3 399.2,654.1 393.6,641.6 390.1,635.7 376,637.7 345.7,627.2 337.6,630.4 332.7,630.4 
			332.7,621.1 319.8,615.2 313.9,626.7 303.6,623 303.6,628.2 300.2,637.2 296.3,650.4 287.7,659.9 278,669.2 275,673.9 
			268.9,675.3 256.2,679.7 251.8,688 236.4,692.7 224.9,695.4 221.3,695.4 214.7,702.2 214.7,710.8 217.4,716.9 229.1,725.7 
			237.9,737.7 240.6,750.6 228.6,766.2 221,776.8 206.9,788.2 192.4,800.7 185.8,806.3 177.8,814.9 162.4,823.9 150.6,830.8 
			125.5,842.2 128.9,852.3 134.3,865 142.8,888.4 148.9,895.3 161.2,899.2 177,904.6 193.7,906.3 208.6,906.3 213.7,904.3 
			239.8,932.7 260.4,925.3 269.2,928.8 268.9,945.9 271.4,955.9 278.7,968.8 290.4,976.4 300.4,978.1 312.4,975.7 323.2,973.5 
			329.3,973.5 340.8,973.2 352,964.7 358.4,959.8 361.8,952.5 377.9,941.7 395.8,940 411.2,933.6 415.6,930.5 429.7,935.1 
			443.2,935.4 457.1,933.9 462.5,929.2 474.4,931.7 484.5,935.4 493.3,938.5 506.2,938.5 520.1,932.4 533.6,909.9 539.5,899.9 
			531.4,846.4 522.8,843.2 520.6,836.6 499.9,841 		"/>
		<polygon style="fill:#023145;" points="496.9,823.8 483.5,814.7 479.8,789.1 458.3,776.1 476.4,761.9 468.3,751.9 452.5,751.9 
			462.2,738.2 380.6,691.8 397,675.7 399.2,653.4 393.6,641 390.1,635.1 376,637.1 345.7,626.5 337.6,629.7 332.7,629.7 
			332.7,620.4 319.8,614.6 313.9,626.1 303.6,622.4 303.6,627.5 300.2,636.6 296.3,649.8 287.7,659.3 278,668.6 275,673.2 
			268.9,674.7 256.2,679.1 251.8,687.4 236.4,692 224.9,694.7 221.3,694.7 214.7,701.6 214.7,710.1 217.4,716.2 229.1,725 
			237.9,737 240.6,750 228.6,765.6 221,776.1 206.9,787.6 192.4,800.1 185.8,805.7 177.8,814.2 162.4,823.3 150.6,830.1 
			125.5,841.6 128.9,851.6 134.3,864.3 142.8,887.8 148.9,894.6 161.2,898.5 177,903.9 193.7,905.6 208.6,905.6 213.7,903.7 
			239.8,932 260.4,924.7 269.2,928.1 268.9,945.2 271.4,955.2 278.7,968.2 290.4,975.8 300.4,977.5 312.4,975 323.2,972.8 
			329.3,972.8 340.8,972.6 352,964 358.4,959.1 361.8,951.8 377.9,941.1 395.8,939.4 411.2,933 415.6,929.8 429.7,934.5 
			443.2,934.7 457.1,933.2 462.5,928.6 474.4,931 484.5,934.7 493.3,937.9 506.2,937.9 520.1,931.8 533.6,909.3 539.5,899.3 
			531.4,845.8 522.8,842.6 520.6,836 499.9,840.4 		"/>
		<polygon style="fill:#023548;" points="496.9,823.1 483.5,814.1 479.8,788.4 458.3,775.5 476.4,761.3 468.3,751.3 452.5,751.3 
			462.2,737.6 380.6,691.2 397,675 399.2,652.8 393.6,640.3 390.1,634.5 376,636.4 345.7,625.9 337.6,629.1 332.7,629.1 
			332.7,619.8 319.8,613.9 313.9,625.4 303.6,621.7 303.6,626.9 300.2,635.9 296.3,649.1 287.7,658.6 278,667.9 275,672.6 
			268.9,674 256.2,678.4 251.8,686.8 236.4,691.4 224.9,694.1 221.3,694.1 214.7,700.9 214.7,709.5 217.4,715.6 229.1,724.4 
			237.9,736.4 240.6,749.3 228.6,765 221,775.5 206.9,786.9 192.4,799.4 185.8,805 177.8,813.6 162.4,822.6 150.6,829.5 125.5,841 
			128.9,851 134.3,863.7 142.8,887.1 148.9,894 161.2,897.9 177,903.3 193.7,905 208.6,905 213.7,903 239.8,931.4 260.4,924 
			269.2,927.5 268.9,944.6 271.4,954.6 278.7,967.5 290.4,975.1 300.4,976.8 312.4,974.4 323.2,972.2 329.3,972.2 340.8,971.9 
			352,963.4 358.4,958.5 361.8,951.2 377.9,940.4 395.8,938.7 411.2,932.4 415.6,929.2 429.7,933.8 443.2,934.1 457.1,932.6 
			462.5,928 474.4,930.4 484.5,934.1 493.3,937.2 506.2,937.2 520.1,931.1 533.6,908.6 539.5,898.6 531.4,845.1 522.8,841.9 
			520.6,835.3 499.9,839.7 		"/>
		<polygon style="fill:#023A4B;" points="496.9,822.5 483.5,813.4 479.8,787.8 458.3,774.8 476.4,760.6 468.3,750.6 452.5,750.6 
			462.2,736.9 380.6,690.5 397,674.4 399.2,652.1 393.6,639.7 390.1,633.8 376,635.8 345.7,625.3 337.6,628.4 332.7,628.4 
			332.7,619.1 319.8,613.3 313.9,624.8 303.6,621.1 303.6,626.2 300.2,635.3 296.3,648.5 287.7,658 278,667.3 275,671.9 
			268.9,673.4 256.2,677.8 251.8,686.1 236.4,690.8 224.9,693.4 221.3,693.4 214.7,700.3 214.7,708.8 217.4,714.9 229.1,723.7 
			237.9,735.7 240.6,748.7 228.6,764.3 221,774.8 206.9,786.3 192.4,798.8 185.8,804.4 177.8,812.9 162.4,822 150.6,828.8 
			125.5,840.3 128.9,850.3 134.3,863 142.8,886.5 148.9,893.3 161.2,897.3 177,902.6 193.7,904.3 208.6,904.3 213.7,902.4 
			239.8,930.7 260.4,923.4 269.2,926.8 268.9,943.9 271.4,953.9 278.7,966.9 290.4,974.5 300.4,976.2 312.4,973.7 323.2,971.5 
			329.3,971.5 340.8,971.3 352,962.7 358.4,957.9 361.8,950.5 377.9,939.8 395.8,938.1 411.2,931.7 415.6,928.5 429.7,933.2 
			443.2,933.4 457.1,932 462.5,927.3 474.4,929.8 484.5,933.4 493.3,936.6 506.2,936.6 520.1,930.5 533.6,908 539.5,898 
			531.4,844.5 522.8,841.3 520.6,834.7 499.9,839.1 		"/>
		<polygon style="fill:#033F4D;" points="496.9,821.8 483.5,812.8 479.8,787.1 458.3,774.2 476.4,760 468.3,750 452.5,750 
			462.2,736.3 380.6,689.9 397,673.7 399.2,651.5 393.6,639 390.1,633.2 376,635.1 345.7,624.6 337.6,627.8 332.7,627.8 
			332.7,618.5 319.8,612.6 313.9,624.1 303.6,620.5 303.6,625.6 300.2,634.6 296.3,647.8 287.7,657.4 278,666.6 275,671.3 
			268.9,672.8 256.2,677.2 251.8,685.5 236.4,690.1 224.9,692.8 221.3,692.8 214.7,699.6 214.7,708.2 217.4,714.3 229.1,723.1 
			237.9,735.1 240.6,748 228.6,763.7 221,774.2 206.9,785.7 192.4,798.1 185.8,803.7 177.8,812.3 162.4,821.3 150.6,828.2 
			125.5,839.7 128.9,849.7 134.3,862.4 142.8,885.9 148.9,892.7 161.2,896.6 177,902 193.7,903.7 208.6,903.7 213.7,901.7 
			239.8,930.1 260.4,922.8 269.2,926.2 268.9,943.3 271.4,953.3 278.7,966.3 290.4,973.8 300.4,975.5 312.4,973.1 323.2,970.9 
			329.3,970.9 340.8,970.7 352,962.1 358.4,957.2 361.8,949.9 377.9,939.1 395.8,937.4 411.2,931.1 415.6,927.9 429.7,932.5 
			443.2,932.8 457.1,931.3 462.5,926.7 474.4,929.1 484.5,932.8 493.3,936 506.2,936 520.1,929.8 533.6,907.4 539.5,897.3 
			531.4,843.8 522.8,840.6 520.6,834 499.9,838.4 		"/>
		<polygon style="fill:#034350;" points="496.9,821.2 483.5,812.1 479.8,786.5 458.3,773.5 476.4,759.4 468.3,749.3 452.5,749.3 
			462.2,735.6 380.6,689.2 397,673.1 399.2,650.8 393.6,638.4 390.1,632.5 376,634.5 345.7,624 337.6,627.1 332.7,627.1 
			332.7,617.9 319.8,612 313.9,623.5 303.6,619.8 303.6,624.9 300.2,634 296.3,647.2 287.7,656.7 278,666 275,670.6 268.9,672.1 
			256.2,676.5 251.8,684.8 236.4,689.5 224.9,692.1 221.3,692.1 214.7,699 214.7,707.5 217.4,713.7 229.1,722.5 237.9,734.4 
			240.6,747.4 228.6,763 221,773.5 206.9,785 192.4,797.5 185.8,803.1 177.8,811.6 162.4,820.7 150.6,827.5 125.5,839 128.9,849 
			134.3,861.7 142.8,885.2 148.9,892.1 161.2,896 177,901.3 193.7,903 208.6,903 213.7,901.1 239.8,929.4 260.4,922.1 269.2,925.5 
			268.9,942.6 271.4,952.7 278.7,965.6 290.4,973.2 300.4,974.9 312.4,972.5 323.2,970.3 329.3,970.3 340.8,970 352,961.5 
			358.4,956.6 361.8,949.2 377.9,938.5 395.8,936.8 411.2,930.4 415.6,927.2 429.7,931.9 443.2,932.1 457.1,930.7 462.5,926 
			474.4,928.5 484.5,932.1 493.3,935.3 506.2,935.3 520.1,929.2 533.6,906.7 539.5,896.7 531.4,843.2 522.8,840 520.6,833.4 
			499.9,837.8 		"/>
		<polygon style="fill:#044853;" points="496.9,820.5 483.5,811.5 479.8,785.8 458.3,772.9 476.4,758.7 468.3,748.7 452.5,748.7 
			462.2,735 380.6,688.6 397,672.4 399.2,650.2 393.6,637.7 390.1,631.9 376,633.8 345.7,623.3 337.6,626.5 332.7,626.5 
			332.7,617.2 319.8,611.3 313.9,622.8 303.6,619.2 303.6,624.3 300.2,633.3 296.3,646.5 287.7,656.1 278,665.4 275,670 
			268.9,671.5 256.2,675.9 251.8,684.2 236.4,688.8 224.9,691.5 221.3,691.5 214.7,698.3 214.7,706.9 217.4,713 229.1,721.8 
			237.9,733.8 240.6,746.7 228.6,762.4 221,772.9 206.9,784.4 192.4,796.8 185.8,802.5 177.8,811 162.4,820 150.6,826.9 
			125.5,838.4 128.9,848.4 134.3,861.1 142.8,884.6 148.9,891.4 161.2,895.3 177,900.7 193.7,902.4 208.6,902.4 213.7,900.4 
			239.8,928.8 260.4,921.5 269.2,924.9 268.9,942 271.4,952 278.7,965 290.4,972.5 300.4,974.2 312.4,971.8 323.2,969.6 
			329.3,969.6 340.8,969.4 352,960.8 358.4,955.9 361.8,948.6 377.9,937.8 395.8,936.1 411.2,929.8 415.6,926.6 429.7,931.2 
			443.2,931.5 457.1,930 462.5,925.4 474.4,927.8 484.5,931.5 493.3,934.7 506.2,934.7 520.1,928.6 533.6,906.1 539.5,896 
			531.4,842.5 522.8,839.4 520.6,832.8 499.9,837.2 		"/>
		<polygon style="fill:#044C56;" points="496.9,819.9 483.5,810.8 479.8,785.2 458.3,772.2 476.4,758.1 468.3,748 452.5,748 
			462.2,734.4 380.6,687.9 397,671.8 399.2,649.6 393.6,637.1 390.1,631.2 376,633.2 345.7,622.7 337.6,625.9 332.7,625.9 
			332.7,616.6 319.8,610.7 313.9,622.2 303.6,618.5 303.6,623.7 300.2,632.7 296.3,645.9 287.7,655.4 278,664.7 275,669.4 
			268.9,670.8 256.2,675.2 251.8,683.5 236.4,688.2 224.9,690.9 221.3,690.9 214.7,697.7 214.7,706.3 217.4,712.4 229.1,721.2 
			237.9,733.1 240.6,746.1 228.6,761.7 221,772.2 206.9,783.7 192.4,796.2 185.8,801.8 177.8,810.4 162.4,819.4 150.6,826.2 
			125.5,837.7 128.9,847.7 134.3,860.5 142.8,883.9 148.9,890.8 161.2,894.7 177,900 193.7,901.8 208.6,901.8 213.7,899.8 
			239.8,928.1 260.4,920.8 269.2,924.2 268.9,941.3 271.4,951.4 278.7,964.3 290.4,971.9 300.4,973.6 312.4,971.2 323.2,969 
			329.3,969 340.8,968.7 352,960.2 358.4,955.3 361.8,947.9 377.9,937.2 395.8,935.5 411.2,929.1 415.6,926 429.7,930.6 
			443.2,930.8 457.1,929.4 462.5,924.7 474.4,927.2 484.5,930.8 493.3,934 506.2,934 520.1,927.9 533.6,905.4 539.5,895.4 
			531.4,841.9 522.8,838.7 520.6,832.1 499.9,836.5 		"/>
		<polygon style="fill:#045159;" points="496.9,819.2 483.5,810.2 479.8,784.5 458.3,771.6 476.4,757.4 468.3,747.4 452.5,747.4 
			462.2,733.7 380.6,687.3 397,671.2 399.2,648.9 393.6,636.4 390.1,630.6 376,632.5 345.7,622 337.6,625.2 332.7,625.2 
			332.7,615.9 319.8,610.1 313.9,621.5 303.6,617.9 303.6,623 300.2,632.1 296.3,645.2 287.7,654.8 278,664.1 275,668.7 
			268.9,670.2 256.2,674.6 251.8,682.9 236.4,687.5 224.9,690.2 221.3,690.2 214.7,697.1 214.7,705.6 217.4,711.7 229.1,720.5 
			237.9,732.5 240.6,745.4 228.6,761.1 221,771.6 206.9,783.1 192.4,795.5 185.8,801.2 177.8,809.7 162.4,818.8 150.6,825.6 
			125.5,837.1 128.9,847.1 134.3,859.8 142.8,883.3 148.9,890.1 161.2,894 177,899.4 193.7,901.1 208.6,901.1 213.7,899.2 
			239.8,927.5 260.4,920.2 269.2,923.6 268.9,940.7 271.4,950.7 278.7,963.7 290.4,971.2 300.4,973 312.4,970.5 323.2,968.3 
			329.3,968.3 340.8,968.1 352,959.5 358.4,954.6 361.8,947.3 377.9,936.5 395.8,934.8 411.2,928.5 415.6,925.3 429.7,929.9 
			443.2,930.2 457.1,928.7 462.5,924.1 474.4,926.5 484.5,930.2 493.3,933.4 506.2,933.4 520.1,927.3 533.6,904.8 539.5,894.8 
			531.4,841.2 522.8,838.1 520.6,831.5 499.9,835.9 		"/>
		<polygon style="fill:#05565C;" points="496.9,818.6 483.5,809.6 479.8,783.9 458.3,770.9 476.4,756.8 468.3,746.8 452.5,746.8 
			462.2,733.1 380.6,686.6 397,670.5 399.2,648.3 393.6,635.8 390.1,629.9 376,631.9 345.7,621.4 337.6,624.6 332.7,624.6 
			332.7,615.3 319.8,609.4 313.9,620.9 303.6,617.2 303.6,622.4 300.2,631.4 296.3,644.6 287.7,654.1 278,663.4 275,668.1 
			268.9,669.5 256.2,673.9 251.8,682.2 236.4,686.9 224.9,689.6 221.3,689.6 214.7,696.4 214.7,705 217.4,711.1 229.1,719.9 
			237.9,731.8 240.6,744.8 228.6,760.4 221,770.9 206.9,782.4 192.4,794.9 185.8,800.5 177.8,809.1 162.4,818.1 150.6,825 
			125.5,836.4 128.9,846.5 134.3,859.2 142.8,882.6 148.9,889.5 161.2,893.4 177,898.8 193.7,900.5 208.6,900.5 213.7,898.5 
			239.8,926.9 260.4,919.5 269.2,922.9 268.9,940.1 271.4,950.1 278.7,963 290.4,970.6 300.4,972.3 312.4,969.9 323.2,967.7 
			329.3,967.7 340.8,967.4 352,958.9 358.4,954 361.8,946.7 377.9,935.9 395.8,934.2 411.2,927.8 415.6,924.7 429.7,929.3 
			443.2,929.5 457.1,928.1 462.5,923.4 474.4,925.9 484.5,929.5 493.3,932.7 506.2,932.7 520.1,926.6 533.6,904.1 539.5,894.1 
			531.4,840.6 522.8,837.4 520.6,830.8 499.9,835.2 		"/>
		<polygon style="fill:#055A5F;" points="496.9,818 483.5,808.9 479.8,783.3 458.3,770.3 476.4,756.1 468.3,746.1 452.5,746.1 
			462.2,732.4 380.6,686 397,669.9 399.2,647.6 393.6,635.2 390.1,629.3 376,631.2 345.7,620.7 337.6,623.9 332.7,623.9 
			332.7,614.6 319.8,608.8 313.9,620.3 303.6,616.6 303.6,621.7 300.2,630.8 296.3,644 287.7,653.5 278,662.8 275,667.4 
			268.9,668.9 256.2,673.3 251.8,681.6 236.4,686.2 224.9,688.9 221.3,688.9 214.7,695.8 214.7,704.3 217.4,710.4 229.1,719.2 
			237.9,731.2 240.6,744.2 228.6,759.8 221,770.3 206.9,781.8 192.4,794.3 185.8,799.9 177.8,808.4 162.4,817.5 150.6,824.3 
			125.5,835.8 128.9,845.8 134.3,858.5 142.8,882 148.9,888.8 161.2,892.7 177,898.1 193.7,899.8 208.6,899.8 213.7,897.9 
			239.8,926.2 260.4,918.9 269.2,922.3 268.9,939.4 271.4,949.4 278.7,962.4 290.4,970 300.4,971.7 312.4,969.2 323.2,967 
			329.3,967 340.8,966.8 352,958.2 358.4,953.3 361.8,946 377.9,935.3 395.8,933.5 411.2,927.2 415.6,924 429.7,928.7 443.2,928.9 
			457.1,927.4 462.5,922.8 474.4,925.2 484.5,928.9 493.3,932.1 506.2,932.1 520.1,926 533.6,903.5 539.5,893.5 531.4,839.9 
			522.8,836.8 520.6,830.2 499.9,834.6 		"/>
		<polygon style="fill:#055F62;" points="496.9,817.3 483.5,808.3 479.8,782.6 458.3,769.7 476.4,755.5 468.3,745.5 452.5,745.5 
			462.2,731.8 380.6,685.3 397,669.2 399.2,647 393.6,634.5 390.1,628.6 376,630.6 345.7,620.1 337.6,623.3 332.7,623.3 332.7,614 
			319.8,608.1 313.9,619.6 303.6,615.9 303.6,621.1 300.2,630.1 296.3,643.3 287.7,652.8 278,662.1 275,666.8 268.9,668.2 
			256.2,672.6 251.8,680.9 236.4,685.6 224.9,688.3 221.3,688.3 214.7,695.1 214.7,703.7 217.4,709.8 229.1,718.6 237.9,730.6 
			240.6,743.5 228.6,759.1 221,769.7 206.9,781.1 192.4,793.6 185.8,799.2 177.8,807.8 162.4,816.8 150.6,823.7 125.5,835.1 
			128.9,845.2 134.3,857.9 142.8,881.3 148.9,888.2 161.2,892.1 177,897.5 193.7,899.2 208.6,899.2 213.7,897.2 239.8,925.6 
			260.4,918.2 269.2,921.7 268.9,938.8 271.4,948.8 278.7,961.7 290.4,969.3 300.4,971 312.4,968.6 323.2,966.4 329.3,966.4 
			340.8,966.1 352,957.6 358.4,952.7 361.8,945.4 377.9,934.6 395.8,932.9 411.2,926.5 415.6,923.4 429.7,928 443.2,928.3 
			457.1,926.8 462.5,922.1 474.4,924.6 484.5,928.3 493.3,931.4 506.2,931.4 520.1,925.3 533.6,902.8 539.5,892.8 531.4,839.3 
			522.8,836.1 520.6,829.5 499.9,833.9 		"/>
		<polygon style="fill:#066365;" points="496.9,816.7 483.5,807.6 479.8,782 458.3,769 476.4,754.8 468.3,744.8 452.5,744.8 
			462.2,731.1 380.6,684.7 397,668.6 399.2,646.3 393.6,633.9 390.1,628 376,630 345.7,619.5 337.6,622.6 332.7,622.6 332.7,613.3 
			319.8,607.5 313.9,619 303.6,615.3 303.6,620.4 300.2,629.5 296.3,642.7 287.7,652.2 278,661.5 275,666.1 268.9,667.6 256.2,672 
			251.8,680.3 236.4,684.9 224.9,687.6 221.3,687.6 214.7,694.5 214.7,703 217.4,709.1 229.1,717.9 237.9,729.9 240.6,742.9 
			228.6,758.5 221,769 206.9,780.5 192.4,793 185.8,798.6 177.8,807.1 162.4,816.2 150.6,823 125.5,834.5 128.9,844.5 134.3,857.2 
			142.8,880.7 148.9,887.5 161.2,891.4 177,896.8 193.7,898.5 208.6,898.5 213.7,896.6 239.8,924.9 260.4,917.6 269.2,921 
			268.9,938.1 271.4,948.1 278.7,961.1 290.4,968.7 300.4,970.4 312.4,967.9 323.2,965.7 329.3,965.7 340.8,965.5 352,956.9 
			358.4,952.1 361.8,944.7 377.9,934 395.8,932.3 411.2,925.9 415.6,922.7 429.7,927.4 443.2,927.6 457.1,926.1 462.5,921.5 
			474.4,923.9 484.5,927.6 493.3,930.8 506.2,930.8 520.1,924.7 533.6,902.2 539.5,892.2 531.4,838.7 522.8,835.5 520.6,828.9 
			499.9,833.3 		"/>
		<polygon style="fill:#066868;" points="496.9,816 483.5,807 479.8,781.3 458.3,768.4 476.4,754.2 468.3,744.2 452.5,744.2 
			462.2,730.5 380.6,684.1 397,667.9 399.2,645.7 393.6,633.2 390.1,627.4 376,629.3 345.7,618.8 337.6,622 332.7,622 332.7,612.7 
			319.8,606.8 313.9,618.3 303.6,614.7 303.6,619.8 300.2,628.8 296.3,642 287.7,651.6 278,660.8 275,665.5 268.9,666.9 
			256.2,671.3 251.8,679.7 236.4,684.3 224.9,687 221.3,687 214.7,693.8 214.7,702.4 217.4,708.5 229.1,717.3 237.9,729.3 
			240.6,742.2 228.6,757.9 221,768.4 206.9,779.9 192.4,792.3 185.8,797.9 177.8,806.5 162.4,815.5 150.6,822.4 125.5,833.9 
			128.9,843.9 134.3,856.6 142.8,880 148.9,886.9 161.2,890.8 177,896.2 193.7,897.9 208.6,897.9 213.7,895.9 239.8,924.3 
			260.4,916.9 269.2,920.4 268.9,937.5 271.4,947.5 278.7,960.4 290.4,968 300.4,969.7 312.4,967.3 323.2,965.1 329.3,965.1 
			340.8,964.8 352,956.3 358.4,951.4 361.8,944.1 377.9,933.3 395.8,931.6 411.2,925.3 415.6,922.1 429.7,926.7 443.2,927 
			457.1,925.5 462.5,920.9 474.4,923.3 484.5,927 493.3,930.1 506.2,930.1 520.1,924 533.6,901.6 539.5,891.5 531.4,838 
			522.8,834.8 520.6,828.2 499.9,832.6 		"/>
		<polygon style="fill:#066C6B;" points="496.9,815.4 483.5,806.3 479.8,780.7 458.3,767.7 476.4,753.5 468.3,743.5 452.5,743.5 
			462.2,729.8 380.6,683.4 397,667.3 399.2,645 393.6,632.6 390.1,626.7 376,628.7 345.7,618.2 337.6,621.3 332.7,621.3 
			332.7,612.1 319.8,606.2 313.9,617.7 303.6,614 303.6,619.1 300.2,628.2 296.3,641.4 287.7,650.9 278,660.2 275,664.8 
			268.9,666.3 256.2,670.7 251.8,679 236.4,683.7 224.9,686.3 221.3,686.3 214.7,693.2 214.7,701.7 217.4,707.8 229.1,716.6 
			237.9,728.6 240.6,741.6 228.6,757.2 221,767.7 206.9,779.2 192.4,791.7 185.8,797.3 177.8,805.8 162.4,814.9 150.6,821.7 
			125.5,833.2 128.9,843.2 134.3,855.9 142.8,879.4 148.9,886.2 161.2,890.2 177,895.5 193.7,897.2 208.6,897.2 213.7,895.3 
			239.8,923.6 260.4,916.3 269.2,919.7 268.9,936.8 271.4,946.8 278.7,959.8 290.4,967.4 300.4,969.1 312.4,966.6 323.2,964.4 
			329.3,964.4 340.8,964.2 352,955.6 358.4,950.8 361.8,943.4 377.9,932.7 395.8,931 411.2,924.6 415.6,921.4 429.7,926.1 
			443.2,926.3 457.1,924.9 462.5,920.2 474.4,922.7 484.5,926.3 493.3,929.5 506.2,929.5 520.1,923.4 533.6,900.9 539.5,890.9 
			531.4,837.4 522.8,834.2 520.6,827.6 499.9,832 		"/>
		<polygon style="fill:#07716E;" points="496.9,814.7 483.5,805.7 479.8,780 458.3,767.1 476.4,752.9 468.3,742.9 452.5,742.9 
			462.2,729.2 380.6,682.8 397,666.6 399.2,644.4 393.6,631.9 390.1,626.1 376,628 345.7,617.5 337.6,620.7 332.7,620.7 
			332.7,611.4 319.8,605.5 313.9,617 303.6,613.4 303.6,618.5 300.2,627.5 296.3,640.7 287.7,650.3 278,659.5 275,664.2 
			268.9,665.7 256.2,670.1 251.8,678.4 236.4,683 224.9,685.7 221.3,685.7 214.7,692.5 214.7,701.1 217.4,707.2 229.1,716 
			237.9,728 240.6,740.9 228.6,756.6 221,767.1 206.9,778.6 192.4,791 185.8,796.6 177.8,805.2 162.4,814.2 150.6,821.1 
			125.5,832.6 128.9,842.6 134.3,855.3 142.8,878.8 148.9,885.6 161.2,889.5 177,894.9 193.7,896.6 208.6,896.6 213.7,894.6 
			239.8,923 260.4,915.7 269.2,919.1 268.9,936.2 271.4,946.2 278.7,959.2 290.4,966.7 300.4,968.4 312.4,966 323.2,963.8 
			329.3,963.8 340.8,963.6 352,955 358.4,950.1 361.8,942.8 377.9,932 395.8,930.3 411.2,924 415.6,920.8 429.7,925.4 443.2,925.7 
			457.1,924.2 462.5,919.6 474.4,922 484.5,925.7 493.3,928.9 506.2,928.9 520.1,922.7 533.6,900.3 539.5,890.2 531.4,836.7 
			522.8,833.5 520.6,826.9 499.9,831.3 		"/>
		<polygon style="fill:#077671;" points="496.9,814.1 483.5,805 479.8,779.4 458.3,766.4 476.4,752.3 468.3,742.2 452.5,742.2 
			462.2,728.6 380.6,682.1 397,666 399.2,643.8 393.6,631.3 390.1,625.4 376,627.4 345.7,616.9 337.6,620 332.7,620 332.7,610.8 
			319.8,604.9 313.9,616.4 303.6,612.7 303.6,617.8 300.2,626.9 296.3,640.1 287.7,649.6 278,658.9 275,663.5 268.9,665 
			256.2,669.4 251.8,677.7 236.4,682.4 224.9,685.1 221.3,685.1 214.7,691.9 214.7,700.4 217.4,706.6 229.1,715.4 237.9,727.3 
			240.6,740.3 228.6,755.9 221,766.4 206.9,777.9 192.4,790.4 185.8,796 177.8,804.6 162.4,813.6 150.6,820.4 125.5,831.9 
			128.9,841.9 134.3,854.7 142.8,878.1 148.9,885 161.2,888.9 177,894.2 193.7,896 208.6,896 213.7,894 239.8,922.3 260.4,915 
			269.2,918.4 268.9,935.5 271.4,945.6 278.7,958.5 290.4,966.1 300.4,967.8 312.4,965.4 323.2,963.2 329.3,963.2 340.8,962.9 
			352,954.4 358.4,949.5 361.8,942.1 377.9,931.4 395.8,929.7 411.2,923.3 415.6,920.1 429.7,924.8 443.2,925 457.1,923.6 
			462.5,918.9 474.4,921.4 484.5,925 493.3,928.2 506.2,928.2 520.1,922.1 533.6,899.6 539.5,889.6 531.4,836.1 522.8,832.9 
			520.6,826.3 499.9,830.7 		"/>
		<polygon style="fill:#077A74;" points="496.9,813.4 483.5,804.4 479.8,778.7 458.3,765.8 476.4,751.6 468.3,741.6 452.5,741.6 
			462.2,727.9 380.6,681.5 397,665.3 399.2,643.1 393.6,630.6 390.1,624.8 376,626.7 345.7,616.2 337.6,619.4 332.7,619.4 
			332.7,610.1 319.8,604.3 313.9,615.7 303.6,612.1 303.6,617.2 300.2,626.2 296.3,639.4 287.7,649 278,658.3 275,662.9 
			268.9,664.4 256.2,668.8 251.8,677.1 236.4,681.7 224.9,684.4 221.3,684.4 214.7,691.2 214.7,699.8 217.4,705.9 229.1,714.7 
			237.9,726.7 240.6,739.6 228.6,755.3 221,765.8 206.9,777.3 192.4,789.7 185.8,795.4 177.8,803.9 162.4,812.9 150.6,819.8 
			125.5,831.3 128.9,841.3 134.3,854 142.8,877.5 148.9,884.3 161.2,888.2 177,893.6 193.7,895.3 208.6,895.3 213.7,893.4 
			239.8,921.7 260.4,914.4 269.2,917.8 268.9,934.9 271.4,944.9 278.7,957.9 290.4,965.4 300.4,967.2 312.4,964.7 323.2,962.5 
			329.3,962.5 340.8,962.3 352,953.7 358.4,948.8 361.8,941.5 377.9,930.7 395.8,929 411.2,922.7 415.6,919.5 429.7,924.1 
			443.2,924.4 457.1,922.9 462.5,918.3 474.4,920.7 484.5,924.4 493.3,927.6 506.2,927.6 520.1,921.5 533.6,899 539.5,889 
			531.4,835.4 522.8,832.3 520.6,825.7 499.9,830.1 		"/>
		<polygon style="fill:#087F77;" points="496.9,812.8 483.5,803.8 479.8,778.1 458.3,765.1 476.4,751 468.3,740.9 452.5,740.9 
			462.2,727.3 380.6,680.8 397,664.7 399.2,642.5 393.6,630 390.1,624.1 376,626.1 345.7,615.6 337.6,618.8 332.7,618.8 
			332.7,609.5 319.8,603.6 313.9,615.1 303.6,611.4 303.6,616.6 300.2,625.6 296.3,638.8 287.7,648.3 278,657.6 275,662.3 
			268.9,663.7 256.2,668.1 251.8,676.4 236.4,681.1 224.9,683.8 221.3,683.8 214.7,690.6 214.7,699.2 217.4,705.3 229.1,714.1 
			237.9,726 240.6,739 228.6,754.6 221,765.1 206.9,776.6 192.4,789.1 185.8,794.7 177.8,803.3 162.4,812.3 150.6,819.1 
			125.5,830.6 128.9,840.7 134.3,853.4 142.8,876.8 148.9,883.7 161.2,887.6 177,892.9 193.7,894.7 208.6,894.7 213.7,892.7 
			239.8,921.1 260.4,913.7 269.2,917.1 268.9,934.2 271.4,944.3 278.7,957.2 290.4,964.8 300.4,966.5 312.4,964.1 323.2,961.9 
			329.3,961.9 340.8,961.6 352,953.1 358.4,948.2 361.8,940.8 377.9,930.1 395.8,928.4 411.2,922 415.6,918.9 429.7,923.5 
			443.2,923.7 457.1,922.3 462.5,917.6 474.4,920.1 484.5,923.7 493.3,926.9 506.2,926.9 520.1,920.8 533.6,898.3 539.5,888.3 
			531.4,834.8 522.8,831.6 520.6,825 499.9,829.4 		"/>
		<polygon style="fill:#08837A;" points="496.9,812.1 483.5,803.1 479.8,777.4 458.3,764.5 476.4,750.3 468.3,740.3 452.5,740.3 
			462.2,726.6 380.6,680.2 397,664.1 399.2,641.8 393.6,629.4 390.1,623.5 376,625.4 345.7,614.9 337.6,618.1 332.7,618.1 
			332.7,608.8 319.8,603 313.9,614.4 303.6,610.8 303.6,615.9 300.2,625 296.3,638.2 287.7,647.7 278,657 275,661.6 268.9,663.1 
			256.2,667.5 251.8,675.8 236.4,680.4 224.9,683.1 221.3,683.1 214.7,690 214.7,698.5 217.4,704.6 229.1,713.4 237.9,725.4 
			240.6,738.3 228.6,754 221,764.5 206.9,776 192.4,788.4 185.8,794.1 177.8,802.6 162.4,811.7 150.6,818.5 125.5,830 128.9,840 
			134.3,852.7 142.8,876.2 148.9,883 161.2,886.9 177,892.3 193.7,894 208.6,894 213.7,892.1 239.8,920.4 260.4,913.1 269.2,916.5 
			268.9,933.6 271.4,943.6 278.7,956.6 290.4,964.2 300.4,965.9 312.4,963.4 323.2,961.2 329.3,961.2 340.8,961 352,952.4 
			358.4,947.5 361.8,940.2 377.9,929.4 395.8,927.7 411.2,921.4 415.6,918.2 429.7,922.9 443.2,923.1 457.1,921.6 462.5,917 
			474.4,919.4 484.5,923.1 493.3,926.3 506.2,926.3 520.1,920.2 533.6,897.7 539.5,887.7 531.4,834.1 522.8,831 520.6,824.4 
			499.9,828.8 		"/>
		<polygon style="fill:#09887C;" points="496.9,811.5 483.5,802.5 479.8,776.8 458.3,763.8 476.4,749.7 468.3,739.7 452.5,739.7 
			462.2,726 380.6,679.5 397,663.4 399.2,641.2 393.6,628.7 390.1,622.8 376,624.8 345.7,614.3 337.6,617.5 332.7,617.5 
			332.7,608.2 319.8,602.3 313.9,613.8 303.6,610.1 303.6,615.3 300.2,624.3 296.3,637.5 287.7,647 278,656.3 275,661 268.9,662.4 
			256.2,666.8 251.8,675.1 236.4,679.8 224.9,682.5 221.3,682.5 214.7,689.3 214.7,697.9 217.4,704 229.1,712.8 237.9,724.7 
			240.6,737.7 228.6,753.3 221,763.8 206.9,775.3 192.4,787.8 185.8,793.4 177.8,802 162.4,811 150.6,817.9 125.5,829.3 
			128.9,839.4 134.3,852.1 142.8,875.5 148.9,882.4 161.2,886.3 177,891.7 193.7,893.4 208.6,893.4 213.7,891.4 239.8,919.8 
			260.4,912.4 269.2,915.9 268.9,933 271.4,943 278.7,955.9 290.4,963.5 300.4,965.2 312.4,962.8 323.2,960.6 329.3,960.6 
			340.8,960.3 352,951.8 358.4,946.9 361.8,939.6 377.9,928.8 395.8,927.1 411.2,920.7 415.6,917.6 429.7,922.2 443.2,922.5 
			457.1,921 462.5,916.3 474.4,918.8 484.5,922.5 493.3,925.6 506.2,925.6 520.1,919.5 533.6,897 539.5,887 531.4,833.5 
			522.8,830.3 520.6,823.7 499.9,828.1 		"/>
		<polygon style="fill:#098D7F;" points="496.9,810.9 483.5,801.8 479.8,776.2 458.3,763.2 476.4,749 468.3,739 452.5,739 
			462.2,725.3 380.6,678.9 397,662.8 399.2,640.5 393.6,628.1 390.1,622.2 376,624.2 345.7,613.6 337.6,616.8 332.7,616.8 
			332.7,607.5 319.8,601.7 313.9,613.2 303.6,609.5 303.6,614.6 300.2,623.7 296.3,636.9 287.7,646.4 278,655.7 275,660.3 
			268.9,661.8 256.2,666.2 251.8,674.5 236.4,679.1 224.9,681.8 221.3,681.8 214.7,688.7 214.7,697.2 217.4,703.3 229.1,712.1 
			237.9,724.1 240.6,737.1 228.6,752.7 221,763.2 206.9,774.7 192.4,787.2 185.8,792.8 177.8,801.3 162.4,810.4 150.6,817.2 
			125.5,828.7 128.9,838.7 134.3,851.4 142.8,874.9 148.9,881.7 161.2,885.6 177,891 193.7,892.7 208.6,892.7 213.7,890.8 
			239.8,919.1 260.4,911.8 269.2,915.2 268.9,932.3 271.4,942.3 278.7,955.3 290.4,962.9 300.4,964.6 312.4,962.1 323.2,959.9 
			329.3,959.9 340.8,959.7 352,951.1 358.4,946.2 361.8,938.9 377.9,928.2 395.8,926.4 411.2,920.1 415.6,916.9 429.7,921.6 
			443.2,921.8 457.1,920.3 462.5,915.7 474.4,918.1 484.5,921.8 493.3,925 506.2,925 520.1,918.9 533.6,896.4 539.5,886.4 
			531.4,832.9 522.8,829.7 520.6,823.1 499.9,827.5 		"/>
		<polygon style="fill:#099182;" points="496.9,810.2 483.5,801.2 479.8,775.5 458.3,762.6 476.4,748.4 468.3,738.4 452.5,738.4 
			462.2,724.7 380.6,678.2 397,662.1 399.2,639.9 393.6,627.4 390.1,621.6 376,623.5 345.7,613 337.6,616.2 332.7,616.2 
			332.7,606.9 319.8,601 313.9,612.5 303.6,608.8 303.6,614 300.2,623 296.3,636.2 287.7,645.7 278,655 275,659.7 268.9,661.1 
			256.2,665.5 251.8,673.8 236.4,678.5 224.9,681.2 221.3,681.2 214.7,688 214.7,696.6 217.4,702.7 229.1,711.5 237.9,723.5 
			240.6,736.4 228.6,752.1 221,762.6 206.9,774 192.4,786.5 185.8,792.1 177.8,800.7 162.4,809.7 150.6,816.6 125.5,828.1 
			128.9,838.1 134.3,850.8 142.8,874.2 148.9,881.1 161.2,885 177,890.4 193.7,892.1 208.6,892.1 213.7,890.1 239.8,918.5 
			260.4,911.1 269.2,914.6 268.9,931.7 271.4,941.7 278.7,954.6 290.4,962.2 300.4,963.9 312.4,961.5 323.2,959.3 329.3,959.3 
			340.8,959 352,950.5 358.4,945.6 361.8,938.3 377.9,927.5 395.8,925.8 411.2,919.5 415.6,916.3 429.7,920.9 443.2,921.2 
			457.1,919.7 462.5,915.1 474.4,917.5 484.5,921.2 493.3,924.3 506.2,924.3 520.1,918.2 533.6,895.7 539.5,885.7 531.4,832.2 
			522.8,829 520.6,822.4 499.9,826.8 		"/>
		<polygon style="fill:#0A9685;" points="496.9,809.6 483.5,800.5 479.8,774.9 458.3,761.9 476.4,747.7 468.3,737.7 452.5,737.7 
			462.2,724 380.6,677.6 397,661.5 399.2,639.2 393.6,626.8 390.1,620.9 376,622.9 345.7,612.4 337.6,615.5 332.7,615.5 
			332.7,606.2 319.8,600.4 313.9,611.9 303.6,608.2 303.6,613.3 300.2,622.4 296.3,635.6 287.7,645.1 278,654.4 275,659 
			268.9,660.5 256.2,664.9 251.8,673.2 236.4,677.8 224.9,680.5 221.3,680.5 214.7,687.4 214.7,695.9 217.4,702 229.1,710.8 
			237.9,722.8 240.6,735.8 228.6,751.4 221,761.9 206.9,773.4 192.4,785.9 185.8,791.5 177.8,800 162.4,809.1 150.6,815.9 
			125.5,827.4 128.9,837.4 134.3,850.1 142.8,873.6 148.9,880.4 161.2,884.3 177,889.7 193.7,891.4 208.6,891.4 213.7,889.5 
			239.8,917.8 260.4,910.5 269.2,913.9 268.9,931 271.4,941 278.7,954 290.4,961.6 300.4,963.3 312.4,960.8 323.2,958.6 
			329.3,958.6 340.8,958.4 352,949.8 358.4,945 361.8,937.6 377.9,926.9 395.8,925.2 411.2,918.8 415.6,915.6 429.7,920.3 
			443.2,920.5 457.1,919 462.5,914.4 474.4,916.8 484.5,920.5 493.3,923.7 506.2,923.7 520.1,917.6 533.6,895.1 539.5,885.1 
			531.4,831.6 522.8,828.4 520.6,821.8 499.9,826.2 		"/>
		<polygon style="fill:#0A9A88;" points="496.9,808.9 483.5,799.9 479.8,774.2 458.3,761.3 476.4,747.1 468.3,737.1 452.5,737.1 
			462.2,723.4 380.6,677 397,660.8 399.2,638.6 393.6,626.1 390.1,620.3 376,622.2 345.7,611.7 337.6,614.9 332.7,614.9 
			332.7,605.6 319.8,599.7 313.9,611.2 303.6,607.6 303.6,612.7 300.2,621.7 296.3,634.9 287.7,644.5 278,653.7 275,658.4 
			268.9,659.9 256.2,664.3 251.8,672.6 236.4,677.2 224.9,679.9 221.3,679.9 214.7,686.7 214.7,695.3 217.4,701.4 229.1,710.2 
			237.9,722.2 240.6,735.1 228.6,750.8 221,761.3 206.9,772.8 192.4,785.2 185.8,790.8 177.8,799.4 162.4,808.4 150.6,815.3 
			125.5,826.8 128.9,836.8 134.3,849.5 142.8,872.9 148.9,879.8 161.2,883.7 177,889.1 193.7,890.8 208.6,890.8 213.7,888.8 
			239.8,917.2 260.4,909.9 269.2,913.3 268.9,930.4 271.4,940.4 278.7,953.4 290.4,960.9 300.4,962.6 312.4,960.2 323.2,958 
			329.3,958 340.8,957.7 352,949.2 358.4,944.3 361.8,937 377.9,926.2 395.8,924.5 411.2,918.2 415.6,915 429.7,919.6 443.2,919.9 
			457.1,918.4 462.5,913.8 474.4,916.2 484.5,919.9 493.3,923 506.2,923 520.1,916.9 533.6,894.5 539.5,884.4 531.4,830.9 
			522.8,827.7 520.6,821.1 499.9,825.5 		"/>
		<polygon style="fill:#0A9F8B;" points="496.9,808.3 483.5,799.2 479.8,773.6 458.3,760.6 476.4,746.4 468.3,736.4 452.5,736.4 
			462.2,722.7 380.6,676.3 397,660.2 399.2,637.9 393.6,625.5 390.1,619.6 376,621.6 345.7,611.1 337.6,614.2 332.7,614.2 
			332.7,605 319.8,599.1 313.9,610.6 303.6,606.9 303.6,612 300.2,621.1 296.3,634.3 287.7,643.8 278,653.1 275,657.7 268.9,659.2 
			256.2,663.6 251.8,671.9 236.4,676.6 224.9,679.2 221.3,679.2 214.7,686.1 214.7,694.6 217.4,700.8 229.1,709.5 237.9,721.5 
			240.6,734.5 228.6,750.1 221,760.6 206.9,772.1 192.4,784.6 185.8,790.2 177.8,798.7 162.4,807.8 150.6,814.6 125.5,826.1 
			128.9,836.1 134.3,848.8 142.8,872.3 148.9,879.1 161.2,883.1 177,888.4 193.7,890.1 208.6,890.1 213.7,888.2 239.8,916.5 
			260.4,909.2 269.2,912.6 268.9,929.7 271.4,939.8 278.7,952.7 290.4,960.3 300.4,962 312.4,959.5 323.2,957.3 329.3,957.3 
			340.8,957.1 352,948.6 358.4,943.7 361.8,936.3 377.9,925.6 395.8,923.9 411.2,917.5 415.6,914.3 429.7,919 443.2,919.2 
			457.1,917.8 462.5,913.1 474.4,915.6 484.5,919.2 493.3,922.4 506.2,922.4 520.1,916.3 533.6,893.8 539.5,883.8 531.4,830.3 
			522.8,827.1 520.6,820.5 499.9,824.9 		"/>
		<polygon style="fill:#0BA38E;" points="496.9,807.6 483.5,798.6 479.8,772.9 458.3,760 476.4,745.8 468.3,735.8 452.5,735.8 
			462.2,722.1 380.6,675.7 397,659.5 399.2,637.3 393.6,624.8 390.1,619 376,620.9 345.7,610.4 337.6,613.6 332.7,613.6 
			332.7,604.3 319.8,598.4 313.9,609.9 303.6,606.3 303.6,611.4 300.2,620.4 296.3,633.6 287.7,643.2 278,652.5 275,657.1 
			268.9,658.6 256.2,663 251.8,671.3 236.4,675.9 224.9,678.6 221.3,678.6 214.7,685.4 214.7,694 217.4,700.1 229.1,708.9 
			237.9,720.9 240.6,733.8 228.6,749.5 221,760 206.9,771.5 192.4,783.9 185.8,789.5 177.8,798.1 162.4,807.1 150.6,814 
			125.5,825.5 128.9,835.5 134.3,848.2 142.8,871.7 148.9,878.5 161.2,882.4 177,887.8 193.7,889.5 208.6,889.5 213.7,887.5 
			239.8,915.9 260.4,908.6 269.2,912 268.9,929.1 271.4,939.1 278.7,952.1 290.4,959.6 300.4,961.3 312.4,958.9 323.2,956.7 
			329.3,956.7 340.8,956.5 352,947.9 358.4,943 361.8,935.7 377.9,924.9 395.8,923.2 411.2,916.9 415.6,913.7 429.7,918.3 
			443.2,918.6 457.1,917.1 462.5,912.5 474.4,914.9 484.5,918.6 493.3,921.8 506.2,921.8 520.1,915.6 533.6,893.2 539.5,883.1 
			531.4,829.6 522.8,826.4 520.6,819.9 499.9,824.2 		"/>
		<polygon style="fill:#0BA891;" points="496.9,807 483.5,797.9 479.8,772.3 458.3,759.3 476.4,745.2 468.3,735.1 452.5,735.1 
			462.2,721.5 380.6,675 397,658.9 399.2,636.7 393.6,624.2 390.1,618.3 376,620.3 345.7,609.8 337.6,613 332.7,613 332.7,603.7 
			319.8,597.8 313.9,609.3 303.6,605.6 303.6,610.8 300.2,619.8 296.3,633 287.7,642.5 278,651.8 275,656.4 268.9,657.9 
			256.2,662.3 251.8,670.6 236.4,675.3 224.9,678 221.3,678 214.7,684.8 214.7,693.4 217.4,699.5 229.1,708.3 237.9,720.2 
			240.6,733.2 228.6,748.8 221,759.3 206.9,770.8 192.4,783.3 185.8,788.9 177.8,797.5 162.4,806.5 150.6,813.3 125.5,824.8 
			128.9,834.8 134.3,847.6 142.8,871 148.9,877.9 161.2,881.8 177,887.1 193.7,888.9 208.6,888.9 213.7,886.9 239.8,915.2 
			260.4,907.9 269.2,911.3 268.9,928.4 271.4,938.5 278.7,951.4 290.4,959 300.4,960.7 312.4,958.3 323.2,956.1 329.3,956.1 
			340.8,955.8 352,947.3 358.4,942.4 361.8,935 377.9,924.3 395.8,922.6 411.2,916.2 415.6,913 429.7,917.7 443.2,917.9 
			457.1,916.5 462.5,911.8 474.4,914.3 484.5,917.9 493.3,921.1 506.2,921.1 520.1,915 533.6,892.5 539.5,882.5 531.4,829 
			522.8,825.8 520.6,819.2 499.9,823.6 		"/>
	</g>
	<g>
		<path style="fill:#CDEFF9;" d="M262.9,833h30.9v3.3h-16.2c-3,5.9-5.5,10.1-7.7,12.6c5.5-0.3,11.1-0.9,16.8-1.7
			c-1.1-2.1-2.3-4.1-3.6-6l2.6-1.6c3.1,4.5,5.5,8.5,7.2,12.1l-2.9,2c-0.7-1.6-1.3-2.7-1.7-3.5c-6.9,1-14.4,1.7-22.4,2.3l-0.9-3.3
			c0.4-0.1,0.6-0.2,0.8-0.3c2.1-1.6,4.8-5.7,8.2-12.5h-11.1V833z M266.2,823.6h24.6v3.1h-24.6V823.6z"/>
		<path style="fill:#CDEFF9;" d="M306.7,851.7v1.6h-3.2v-9c-1.6,1.2-3.3,2.3-5.2,3.3l-1.7-2.8c4.7-2.1,8.2-4.8,10.4-8.1h-10.1v-3
			H328v3h-17.6c-0.8,1.3-1.6,2.5-2.5,3.6h16.7v13h-3.2v-1.6H306.7z M310.9,821.8h3.3v6.1h7.3V823h3.2v7.8h-24.2V823h3.2v4.8h7.1
			V821.8z M321.4,848.7v-5.4h-14.6v5.4H321.4z"/>
		<path style="fill:#CDEFF9;" d="M339,841.3c-0.8,5-2.4,8.8-4.9,11.5l-2.4-2.1c3-3.3,4.5-8.5,4.5-15.6v-12.9h3.3v7.7h10v-8.1h3.1
			v8.1h9.2v3.1h-22.3v2c0,0.7,0,1.8-0.1,3.1H355v15.2h-3.3v-12.1H339z"/>
		<path style="fill:#CDEFF9;" d="M367.5,823.1h27.4v3.1h-24.3v22.7H396v3.1h-28.5V823.1z M375.5,828.5c3.2,2.4,6,4.7,8.5,6.9
			c1.8-2.4,3.3-5.1,4.6-8l2.9,1.6c-1.4,3.3-3.1,6.2-5,8.7c2.5,2.3,4.8,4.5,6.8,6.8l-2.5,2.5c-1.9-2.3-4.1-4.6-6.5-6.8
			c-2.8,3-6.2,5.4-10,7l-1.9-2.9c3.6-1.5,6.8-3.6,9.4-6.4c-2.5-2.2-5.4-4.6-8.7-7.1L375.5,828.5z"/>
	</g>
</g>
</svg>
