<?xml version="1.0" encoding="utf-8"?>
<!-- Generator: Adobe Illustrator 17.0.0, SVG Export Plug-In . SVG Version: 6.00 Build 0)  -->
<!DOCTYPE svg PUBLIC "-//W3C//DTD SVG 1.1//EN" "http://www.w3.org/Graphics/SVG/1.1/DTD/svg11.dtd">
<svg version="1.1" id="图层_1" xmlns="http://www.w3.org/2000/svg" xmlns:xlink="http://www.w3.org/1999/xlink" x="0px" y="0px"
	 preserveAspectRatio="none" viewBox="0 0 2000 1300" style="enable-background:new 0 0 2000 1300;" xml:space="preserve">
<g>
	<g>
		<polygon style="fill:#001A36;" points="734.5,634.9 723,600.7 723,577 716.4,542.8 663.4,516.4 656.3,534.2 651.1,530.6 
			645.5,539.1 636,524 649.4,510 642.1,500 665.1,490.7 676.8,490.7 673.6,475.6 685.3,473.4 693.7,482.7 724.9,473.4 734.5,459.9 
			744,459.9 740.8,438.7 743.3,437 736.7,430.1 720.5,428.7 715.2,413.5 706.6,416.4 706.9,418.4 706.6,416.4 700.7,418.4 
			700.7,426.9 695.1,426.2 688.8,433.5 675.1,440.4 668.7,445.8 664.3,431.8 637.2,425.5 616.4,431.1 619.4,447.7 572.9,449.9 
			572.9,442.8 564.6,445.8 560.2,438.4 550,441.6 546.3,434.8 536.5,434.3 536.5,423 524.3,424.5 514.5,416.2 469.3,433 484,475.1 
			494.5,491.5 494.5,513 475.4,519.6 475.4,530.1 440.7,536.4 448.8,582.9 458.8,586.5 458.8,595.3 449.5,603.4 432.9,595.3 
			427.3,604.1 418,603.4 404.1,601.4 411.2,619.8 404.3,624.6 395.8,633 391.1,638.1 390.1,638.3 393.6,644.2 399.2,656.7 
			397,678.9 380.6,695 462.2,741.5 452.5,755.1 468.3,755.1 476.4,765.2 458.3,779.3 479.8,792.3 483.5,817.9 496.9,827 
			499.9,843.6 520.6,839.2 515.7,825.5 517.2,813.1 523.1,809.1 534.3,808.7 554.6,797.7 561.2,784 568.5,768.3 613.7,733.9 
			639.9,721.9 598.1,657.9 638.9,626.1 681.9,631.7 705.1,649.3 709.8,656.2 711,656.4 711,636.9 		"/>
		<polygon style="fill:#001F39;" points="734.5,634.3 723,600 723,576.3 716.4,542.1 663.4,515.7 656.3,533.6 651.1,529.9 
			645.5,538.5 636,523.3 649.4,509.4 642.1,499.4 665.1,490.1 676.8,490.1 673.6,474.9 685.3,472.7 693.7,482 724.9,472.7 
			734.5,459.3 744,459.3 740.8,438 743.3,436.3 736.7,429.5 720.5,428 715.2,412.9 706.6,415.8 706.9,417.7 706.6,415.8 
			700.7,417.7 700.7,426.3 695.1,425.6 688.8,432.9 675.1,439.7 668.7,445.1 664.3,431.2 637.2,424.8 616.4,430.4 619.4,447.1 
			572.9,449.3 572.9,442.2 564.6,445.1 560.2,437.8 550,441 546.3,434.1 536.5,433.6 536.5,422.4 524.3,423.9 514.5,415.5 
			469.3,432.4 484,474.4 494.5,490.8 494.5,512.3 475.4,518.9 475.4,529.4 440.7,535.8 448.8,582.2 458.8,585.9 458.8,594.7 
			449.5,602.7 432.9,594.7 427.3,603.5 418,602.7 404.1,600.8 411.2,619.1 404.3,624 395.8,632.3 391.1,637.4 390.1,637.7 
			393.6,643.5 399.2,656 397,678.2 380.6,694.4 462.2,740.8 452.5,754.5 468.3,754.5 476.4,764.5 458.3,778.7 479.8,791.6 
			483.5,817.3 496.9,826.3 499.9,843 520.6,838.6 515.7,824.9 517.2,812.4 523.1,808.5 534.3,808 554.6,797 561.2,783.3 
			568.5,767.7 613.7,733.2 639.9,721.3 598.1,657.2 638.9,625.5 681.9,631.1 705.1,648.7 709.8,655.5 711,655.8 711,636.2 		"/>
		<polygon style="fill:#01233C;" points="734.5,633.6 723,599.4 723,575.7 716.4,541.5 663.4,515.1 656.3,532.9 651.1,529.3 
			645.5,537.8 636,522.7 649.4,508.7 642.1,498.7 665.1,489.4 676.8,489.4 673.6,474.3 685.3,472.1 693.7,481.4 724.9,472.1 
			734.5,458.6 744,458.6 740.8,437.4 743.3,435.7 736.7,428.8 720.5,427.4 715.2,412.2 706.6,415.1 706.9,417.1 706.6,415.1 
			700.7,417.1 700.7,425.6 695.1,424.9 688.8,432.2 675.1,439.1 668.7,444.5 664.3,430.5 637.2,424.2 616.4,429.8 619.4,446.4 
			572.9,448.6 572.9,441.5 564.6,444.5 560.2,437.1 550,440.3 546.3,433.5 536.5,433 536.5,421.7 524.3,423.2 514.5,414.9 
			469.3,431.8 484,473.8 494.5,490.2 494.5,511.7 475.4,518.3 475.4,528.8 440.7,535.1 448.8,581.6 458.8,585.2 458.8,594 
			449.5,602.1 432.9,594 427.3,602.8 418,602.1 404.1,600.1 411.2,618.5 404.3,623.4 395.8,631.7 391.1,636.8 390.1,637 
			393.6,642.9 399.2,655.4 397,677.6 380.6,693.7 462.2,740.2 452.5,753.8 468.3,753.8 476.4,763.9 458.3,778 479.8,791 
			483.5,816.7 496.9,825.7 499.9,842.3 520.6,837.9 515.7,824.2 517.2,811.8 523.1,807.9 534.3,807.4 554.6,796.4 561.2,782.7 
			568.5,767 613.7,732.6 639.9,720.6 598.1,656.6 638.9,624.8 681.9,630.4 705.1,648 709.8,654.9 711,655.1 711,635.6 		"/>
		<polygon style="fill:#01283F;" points="734.5,633 723,598.8 723,575.1 716.4,540.8 663.4,514.4 656.3,532.3 651.1,528.6 
			645.5,537.2 636,522 649.4,508.1 642.1,498.1 665.1,488.8 676.8,488.8 673.6,473.6 685.3,471.4 693.7,480.7 724.9,471.4 
			734.5,458 744,458 740.8,436.7 743.3,435 736.7,428.2 720.5,426.7 715.2,411.6 706.6,414.5 706.9,416.5 706.6,414.5 700.7,416.5 
			700.7,425 695.1,424.3 688.8,431.6 675.1,438.4 668.7,443.8 664.3,429.9 637.2,423.5 616.4,429.2 619.4,445.8 572.9,448 
			572.9,440.9 564.6,443.8 560.2,436.5 550,439.7 546.3,432.8 536.5,432.3 536.5,421.1 524.3,422.6 514.5,414.3 469.3,431.1 
			484,473.1 494.5,489.5 494.5,511 475.4,517.6 475.4,528.1 440.7,534.5 448.8,580.9 458.8,584.6 458.8,593.4 449.5,601.4 
			432.9,593.4 427.3,602.2 418,601.4 404.1,599.5 411.2,617.8 404.3,622.7 395.8,631 391.1,636.1 390.1,636.4 393.6,642.3 
			399.2,654.7 397,677 380.6,693.1 462.2,739.5 452.5,753.2 468.3,753.2 476.4,763.2 458.3,777.4 479.8,790.3 483.5,816 
			496.9,825.1 499.9,841.7 520.6,837.3 515.7,823.6 517.2,811.1 523.1,807.2 534.3,806.7 554.6,795.7 561.2,782 568.5,766.4 
			613.7,731.9 639.9,720 598.1,655.9 638.9,624.2 681.9,629.8 705.1,647.4 709.8,654.2 711,654.5 711,634.9 		"/>
		<polygon style="fill:#012C42;" points="734.5,632.3 723,598.1 723,574.4 716.4,540.2 663.4,513.8 656.3,531.6 651.1,528 
			645.5,536.5 636,521.4 649.4,507.4 642.1,497.4 665.1,488.1 676.8,488.1 673.6,473 685.3,470.8 693.7,480.1 724.9,470.8 
			734.5,457.3 744,457.3 740.8,436.1 743.3,434.4 736.7,427.5 720.5,426.1 715.2,410.9 706.6,413.9 706.9,415.8 706.6,413.9 
			700.7,415.8 700.7,424.4 695.1,423.6 688.8,431 675.1,437.8 668.7,443.2 664.3,429.2 637.2,422.9 616.4,428.5 619.4,445.1 
			572.9,447.3 572.9,440.2 564.6,443.2 560.2,435.8 550,439 546.3,432.2 536.5,431.7 536.5,420.4 524.3,421.9 514.5,413.6 
			469.3,430.5 484,472.5 494.5,488.9 494.5,510.4 475.4,517 475.4,527.5 440.7,533.8 448.8,580.3 458.8,583.9 458.8,592.7 
			449.5,600.8 432.9,592.7 427.3,601.5 418,600.8 404.1,598.8 411.2,617.2 404.3,622.1 395.8,630.4 391.1,635.5 390.1,635.7 
			393.6,641.6 399.2,654.1 397,676.3 380.6,692.4 462.2,738.9 452.5,752.6 468.3,752.6 476.4,762.6 458.3,776.8 479.8,789.7 
			483.5,815.4 496.9,824.4 499.9,841 520.6,836.6 515.7,822.9 517.2,810.5 523.1,806.6 534.3,806.1 554.6,795.1 561.2,781.4 
			568.5,765.8 613.7,731.3 639.9,719.3 598.1,655.3 638.9,623.5 681.9,629.1 705.1,646.7 709.8,653.6 711,653.8 711,634.3 		"/>
		<polygon style="fill:#023145;" points="734.5,631.7 723,597.5 723,573.8 716.4,539.5 663.4,513.2 656.3,531 651.1,527.3 
			645.5,535.9 636,520.7 649.4,506.8 642.1,496.8 665.1,487.5 676.8,487.5 673.6,472.3 685.3,470.1 693.7,479.4 724.9,470.1 
			734.5,456.7 744,456.7 740.8,435.4 743.3,433.7 736.7,426.9 720.5,425.4 715.2,410.3 706.6,413.2 706.9,415.2 706.6,413.2 
			700.7,415.2 700.7,423.7 695.1,423 688.8,430.3 675.1,437.2 668.7,442.5 664.3,428.6 637.2,422.2 616.4,427.9 619.4,444.5 
			572.9,446.7 572.9,439.6 564.6,442.5 560.2,435.2 550,438.4 546.3,431.5 536.5,431 536.5,419.8 524.3,421.3 514.5,413 
			469.3,429.8 484,471.9 494.5,488.2 494.5,509.7 475.4,516.3 475.4,526.8 440.7,533.2 448.8,579.6 458.8,583.3 458.8,592.1 
			449.5,600.2 432.9,592.1 427.3,600.9 418,600.2 404.1,598.2 411.2,616.5 404.3,621.4 395.8,629.7 391.1,634.9 390.1,635.1 
			393.6,641 399.2,653.4 397,675.7 380.6,691.8 462.2,738.2 452.5,751.9 468.3,751.9 476.4,761.9 458.3,776.1 479.8,789.1 
			483.5,814.7 496.9,823.8 499.9,840.4 520.6,836 515.7,822.3 517.2,809.8 523.1,805.9 534.3,805.4 554.6,794.4 561.2,780.8 
			568.5,765.1 613.7,730.7 639.9,718.7 598.1,654.7 638.9,622.9 681.9,628.5 705.1,646.1 709.8,652.9 711,653.2 711,633.6 		"/>
		<polygon style="fill:#023548;" points="734.5,631 723,596.8 723,573.1 716.4,538.9 663.4,512.5 656.3,530.4 651.1,526.7 
			645.5,535.2 636,520.1 649.4,506.2 642.1,496.1 665.1,486.9 676.8,486.9 673.6,471.7 685.3,469.5 693.7,478.8 724.9,469.5 
			734.5,456.1 744,456.1 740.8,434.8 743.3,433.1 736.7,426.2 720.5,424.8 715.2,409.6 706.6,412.6 706.9,414.5 706.6,412.6 
			700.7,414.5 700.7,423.1 695.1,422.3 688.8,429.7 675.1,436.5 668.7,441.9 664.3,428 637.2,421.6 616.4,427.2 619.4,443.8 
			572.9,446 572.9,439 564.6,441.9 560.2,434.6 550,437.7 546.3,430.9 536.5,430.4 536.5,419.2 524.3,420.6 514.5,412.3 
			469.3,429.2 484,471.2 494.5,487.6 494.5,509.1 475.4,515.7 475.4,526.2 440.7,532.5 448.8,579 458.8,582.6 458.8,591.4 
			449.5,599.5 432.9,591.4 427.3,600.2 418,599.5 404.1,597.6 411.2,615.9 404.3,620.8 395.8,629.1 391.1,634.2 390.1,634.5 
			393.6,640.3 399.2,652.8 397,675 380.6,691.2 462.2,737.6 452.5,751.3 468.3,751.3 476.4,761.3 458.3,775.5 479.8,788.4 
			483.5,814.1 496.9,823.1 499.9,839.7 520.6,835.3 515.7,821.6 517.2,809.2 523.1,805.3 534.3,804.8 554.6,793.8 561.2,780.1 
			568.5,764.5 613.7,730 639.9,718 598.1,654 638.9,622.2 681.9,627.9 705.1,645.5 709.8,652.3 711,652.5 711,633 		"/>
		<polygon style="fill:#023A4B;" points="734.5,630.4 723,596.2 723,572.5 716.4,538.3 663.4,511.9 656.3,529.7 651.1,526 
			645.5,534.6 636,519.4 649.4,505.5 642.1,495.5 665.1,486.2 676.8,486.2 673.6,471.1 685.3,468.9 693.7,478.1 724.9,468.9 
			734.5,455.4 744,455.4 740.8,434.2 743.3,432.4 736.7,425.6 720.5,424.1 715.2,409 706.6,411.9 706.9,413.9 706.6,411.9 
			700.7,413.9 700.7,422.4 695.1,421.7 688.8,429 675.1,435.9 668.7,441.2 664.3,427.3 637.2,421 616.4,426.6 619.4,443.2 
			572.9,445.4 572.9,438.3 564.6,441.2 560.2,433.9 550,437.1 546.3,430.2 536.5,429.8 536.5,418.5 524.3,420 514.5,411.7 
			469.3,428.5 484,470.6 494.5,486.9 494.5,508.4 475.4,515 475.4,525.6 440.7,531.9 448.8,578.3 458.8,582 458.8,590.8 
			449.5,598.9 432.9,590.8 427.3,599.6 418,598.9 404.1,596.9 411.2,615.2 404.3,620.1 395.8,628.4 391.1,633.6 390.1,633.8 
			393.6,639.7 399.2,652.1 397,674.4 380.6,690.5 462.2,736.9 452.5,750.6 468.3,750.6 476.4,760.6 458.3,774.8 479.8,787.8 
			483.5,813.4 496.9,822.5 499.9,839.1 520.6,834.7 515.7,821 517.2,808.5 523.1,804.6 534.3,804.1 554.6,793.1 561.2,779.5 
			568.5,763.8 613.7,729.4 639.9,717.4 598.1,653.4 638.9,621.6 681.9,627.2 705.1,644.8 709.8,651.7 711,651.9 711,632.3 		"/>
		<polygon style="fill:#033F4D;" points="734.5,629.7 723,595.5 723,571.8 716.4,537.6 663.4,511.2 656.3,529.1 651.1,525.4 
			645.5,533.9 636,518.8 649.4,504.9 642.1,494.8 665.1,485.6 676.8,485.6 673.6,470.4 685.3,468.2 693.7,477.5 724.9,468.2 
			734.5,454.8 744,454.8 740.8,433.5 743.3,431.8 736.7,425 720.5,423.5 715.2,408.3 706.6,411.3 706.9,413.2 706.6,411.3 
			700.7,413.2 700.7,421.8 695.1,421 688.8,428.4 675.1,435.2 668.7,440.6 664.3,426.7 637.2,420.3 616.4,425.9 619.4,442.6 
			572.9,444.7 572.9,437.7 564.6,440.6 560.2,433.3 550,436.4 546.3,429.6 536.5,429.1 536.5,417.9 524.3,419.3 514.5,411 
			469.3,427.9 484,469.9 494.5,486.3 494.5,507.8 475.4,514.4 475.4,524.9 440.7,531.3 448.8,577.7 458.8,581.4 458.8,590.2 
			449.5,598.2 432.9,590.2 427.3,599 418,598.2 404.1,596.3 411.2,614.6 404.3,619.5 395.8,627.8 391.1,632.9 390.1,633.2 
			393.6,639 399.2,651.5 397,673.7 380.6,689.9 462.2,736.3 452.5,750 468.3,750 476.4,760 458.3,774.2 479.8,787.1 483.5,812.8 
			496.9,821.8 499.9,838.4 520.6,834 515.7,820.4 517.2,807.9 523.1,804 534.3,803.5 554.6,792.5 561.2,778.8 568.5,763.2 
			613.7,728.7 639.9,716.7 598.1,652.7 638.9,620.9 681.9,626.6 705.1,644.2 709.8,651 711,651.2 711,631.7 		"/>
		<polygon style="fill:#034350;" points="734.5,629.1 723,594.9 723,571.2 716.4,537 663.4,510.6 656.3,528.4 651.1,524.7 
			645.5,533.3 636,518.2 649.4,504.2 642.1,494.2 665.1,484.9 676.8,484.9 673.6,469.8 685.3,467.6 693.7,476.9 724.9,467.6 
			734.5,454.1 744,454.1 740.8,432.9 743.3,431.2 736.7,424.3 720.5,422.8 715.2,407.7 706.6,410.6 706.9,412.6 706.6,410.6 
			700.7,412.6 700.7,421.1 695.1,420.4 688.8,427.7 675.1,434.6 668.7,440 664.3,426 637.2,419.7 616.4,425.3 619.4,441.9 
			572.9,444.1 572.9,437 564.6,440 560.2,432.6 550,435.8 546.3,429 536.5,428.5 536.5,417.2 524.3,418.7 514.5,410.4 469.3,427.2 
			484,469.3 494.5,485.6 494.5,507.2 475.4,513.8 475.4,524.3 440.7,530.6 448.8,577 458.8,580.7 458.8,589.5 449.5,597.6 
			432.9,589.5 427.3,598.3 418,597.6 404.1,595.6 411.2,613.9 404.3,618.8 395.8,627.1 391.1,632.3 390.1,632.5 393.6,638.4 
			399.2,650.8 397,673.1 380.6,689.2 462.2,735.6 452.5,749.3 468.3,749.3 476.4,759.4 458.3,773.5 479.8,786.5 483.5,812.1 
			496.9,821.2 499.9,837.8 520.6,833.4 515.7,819.7 517.2,807.3 523.1,803.3 534.3,802.9 554.6,791.9 561.2,778.2 568.5,762.5 
			613.7,728.1 639.9,716.1 598.1,652.1 638.9,620.3 681.9,625.9 705.1,643.5 709.8,650.4 711,650.6 711,631.1 		"/>
		<polygon style="fill:#044853;" points="734.5,628.5 723,594.2 723,570.5 716.4,536.3 663.4,509.9 656.3,527.8 651.1,524.1 
			645.5,532.7 636,517.5 649.4,503.6 642.1,493.6 665.1,484.3 676.8,484.3 673.6,469.1 685.3,466.9 693.7,476.2 724.9,466.9 
			734.5,453.5 744,453.5 740.8,432.2 743.3,430.5 736.7,423.7 720.5,422.2 715.2,407 706.6,410 706.9,411.9 706.6,410 700.7,411.9 
			700.7,420.5 695.1,419.8 688.8,427.1 675.1,433.9 668.7,439.3 664.3,425.4 637.2,419 616.4,424.6 619.4,441.3 572.9,443.5 
			572.9,436.4 564.6,439.3 560.2,432 550,435.2 546.3,428.3 536.5,427.8 536.5,416.6 524.3,418 514.5,409.7 469.3,426.6 484,468.6 
			494.5,485 494.5,506.5 475.4,513.1 475.4,523.6 440.7,530 448.8,576.4 458.8,580.1 458.8,588.9 449.5,596.9 432.9,588.9 
			427.3,597.7 418,596.9 404.1,595 411.2,613.3 404.3,618.2 395.8,626.5 391.1,631.6 390.1,631.9 393.6,637.7 399.2,650.2 
			397,672.4 380.6,688.6 462.2,735 452.5,748.7 468.3,748.7 476.4,758.7 458.3,772.9 479.8,785.8 483.5,811.5 496.9,820.5 
			499.9,837.2 520.6,832.8 515.7,819.1 517.2,806.6 523.1,802.7 534.3,802.2 554.6,791.2 561.2,777.5 568.5,761.9 613.7,727.4 
			639.9,715.5 598.1,651.4 638.9,619.7 681.9,625.3 705.1,642.9 709.8,649.7 711,650 711,630.4 		"/>
		<polygon style="fill:#044C56;" points="734.5,627.8 723,593.6 723,569.9 716.4,535.7 663.4,509.3 656.3,527.1 651.1,523.5 
			645.5,532 636,516.9 649.4,502.9 642.1,492.9 665.1,483.6 676.8,483.6 673.6,468.5 685.3,466.3 693.7,475.6 724.9,466.3 
			734.5,452.8 744,452.8 740.8,431.6 743.3,429.9 736.7,423 720.5,421.6 715.2,406.4 706.6,409.3 706.9,411.3 706.6,409.3 
			700.7,411.3 700.7,419.8 695.1,419.1 688.8,426.4 675.1,433.3 668.7,438.7 664.3,424.7 637.2,418.4 616.4,424 619.4,440.6 
			572.9,442.8 572.9,435.7 564.6,438.7 560.2,431.3 550,434.5 546.3,427.7 536.5,427.2 536.5,415.9 524.3,417.4 514.5,409.1 
			469.3,426 484,468 494.5,484.4 494.5,505.9 475.4,512.5 475.4,523 440.7,529.3 448.8,575.8 458.8,579.4 458.8,588.2 449.5,596.3 
			432.9,588.2 427.3,597 418,596.3 404.1,594.3 411.2,612.7 404.3,617.5 395.8,625.9 391.1,631 390.1,631.2 393.6,637.1 
			399.2,649.6 397,671.8 380.6,687.9 462.2,734.4 452.5,748 468.3,748 476.4,758.1 458.3,772.2 479.8,785.2 483.5,810.8 
			496.9,819.9 499.9,836.5 520.6,832.1 515.7,818.4 517.2,806 523.1,802.1 534.3,801.6 554.6,790.6 561.2,776.9 568.5,761.2 
			613.7,726.8 639.9,714.8 598.1,650.8 638.9,619 681.9,624.6 705.1,642.2 709.8,649.1 711,649.3 711,629.8 		"/>
		<polygon style="fill:#045159;" points="734.5,627.2 723,593 723,569.2 716.4,535 663.4,508.6 656.3,526.5 651.1,522.8 
			645.5,531.4 636,516.2 649.4,502.3 642.1,492.3 665.1,483 676.8,483 673.6,467.8 685.3,465.6 693.7,474.9 724.9,465.6 
			734.5,452.2 744,452.2 740.8,430.9 743.3,429.2 736.7,422.4 720.5,420.9 715.2,405.8 706.6,408.7 706.9,410.6 706.6,408.7 
			700.7,410.6 700.7,419.2 695.1,418.5 688.8,425.8 675.1,432.6 668.7,438 664.3,424.1 637.2,417.7 616.4,423.4 619.4,440 
			572.9,442.2 572.9,435.1 564.6,438 560.2,430.7 550,433.9 546.3,427 536.5,426.5 536.5,415.3 524.3,416.8 514.5,408.4 
			469.3,425.3 484,467.3 494.5,483.7 494.5,505.2 475.4,511.8 475.4,522.3 440.7,528.7 448.8,575.1 458.8,578.8 458.8,587.6 
			449.5,595.6 432.9,587.6 427.3,596.4 418,595.6 404.1,593.7 411.2,612 404.3,616.9 395.8,625.2 391.1,630.3 390.1,630.6 
			393.6,636.4 399.2,648.9 397,671.2 380.6,687.3 462.2,733.7 452.5,747.4 468.3,747.4 476.4,757.4 458.3,771.6 479.8,784.5 
			483.5,810.2 496.9,819.2 499.9,835.9 520.6,831.5 515.7,817.8 517.2,805.3 523.1,801.4 534.3,800.9 554.6,789.9 561.2,776.2 
			568.5,760.6 613.7,726.1 639.9,714.2 598.1,650.1 638.9,618.4 681.9,624 705.1,641.6 709.8,648.4 711,648.7 711,629.1 		"/>
		<polygon style="fill:#05565C;" points="734.5,626.5 723,592.3 723,568.6 716.4,534.4 663.4,508 656.3,525.8 651.1,522.2 
			645.5,530.7 636,515.6 649.4,501.6 642.1,491.6 665.1,482.3 676.8,482.3 673.6,467.2 685.3,465 693.7,474.3 724.9,465 
			734.5,451.5 744,451.5 740.8,430.3 743.3,428.6 736.7,421.7 720.5,420.3 715.2,405.1 706.6,408 706.9,410 706.6,408 700.7,410 
			700.7,418.6 695.1,417.8 688.8,425.2 675.1,432 668.7,437.4 664.3,423.4 637.2,417.1 616.4,422.7 619.4,439.3 572.9,441.5 
			572.9,434.4 564.6,437.4 560.2,430 550,433.2 546.3,426.4 536.5,425.9 536.5,414.6 524.3,416.1 514.5,407.8 469.3,424.7 
			484,466.7 494.5,483.1 494.5,504.6 475.4,511.2 475.4,521.7 440.7,528 448.8,574.5 458.8,578.1 458.8,586.9 449.5,595 
			432.9,586.9 427.3,595.7 418,595 404.1,593 411.2,611.4 404.3,616.3 395.8,624.6 391.1,629.7 390.1,629.9 393.6,635.8 
			399.2,648.3 397,670.5 380.6,686.6 462.2,733.1 452.5,746.8 468.3,746.8 476.4,756.8 458.3,770.9 479.8,783.9 483.5,809.6 
			496.9,818.6 499.9,835.2 520.6,830.8 515.7,817.1 517.2,804.7 523.1,800.8 534.3,800.3 554.6,789.3 561.2,775.6 568.5,759.9 
			613.7,725.5 639.9,713.5 598.1,649.5 638.9,617.7 681.9,623.3 705.1,640.9 709.8,647.8 711,648 711,628.5 		"/>
		<polygon style="fill:#055A5F;" points="734.5,625.9 723,591.7 723,568 716.4,533.7 663.4,507.3 656.3,525.2 651.1,521.5 
			645.5,530.1 636,514.9 649.4,501 642.1,491 665.1,481.7 676.8,481.7 673.6,466.5 685.3,464.3 693.7,473.6 724.9,464.3 
			734.5,450.9 744,450.9 740.8,429.6 743.3,427.9 736.7,421.1 720.5,419.6 715.2,404.5 706.6,407.4 706.9,409.4 706.6,407.4 
			700.7,409.4 700.7,417.9 695.1,417.2 688.8,424.5 675.1,431.3 668.7,436.7 664.3,422.8 637.2,416.4 616.4,422.1 619.4,438.7 
			572.9,440.9 572.9,433.8 564.6,436.7 560.2,429.4 550,432.6 546.3,425.7 536.5,425.2 536.5,414 524.3,415.5 514.5,407.2 
			469.3,424 484,466 494.5,482.4 494.5,503.9 475.4,510.5 475.4,521 440.7,527.4 448.8,573.8 458.8,577.5 458.8,586.3 449.5,594.3 
			432.9,586.3 427.3,595.1 418,594.3 404.1,592.4 411.2,610.7 404.3,615.6 395.8,623.9 391.1,629.1 390.1,629.3 393.6,635.2 
			399.2,647.6 397,669.9 380.6,686 462.2,732.4 452.5,746.1 468.3,746.1 476.4,756.1 458.3,770.3 479.8,783.3 483.5,808.9 
			496.9,818 499.9,834.6 520.6,830.2 515.7,816.5 517.2,804 523.1,800.1 534.3,799.6 554.6,788.6 561.2,774.9 568.5,759.3 
			613.7,724.8 639.9,712.9 598.1,648.8 638.9,617.1 681.9,622.7 705.1,640.3 709.8,647.1 711,647.4 711,627.8 		"/>
		<polygon style="fill:#055F62;" points="734.5,625.2 723,591 723,567.3 716.4,533.1 663.4,506.7 656.3,524.5 651.1,520.9 
			645.5,529.4 636,514.3 649.4,500.4 642.1,490.3 665.1,481 676.8,481 673.6,465.9 685.3,463.7 693.7,473 724.9,463.7 734.5,450.3 
			744,450.3 740.8,429 743.3,427.3 736.7,420.4 720.5,419 715.2,403.8 706.6,406.8 706.9,408.7 706.6,406.8 700.7,408.7 
			700.7,417.3 695.1,416.5 688.8,423.9 675.1,430.7 668.7,436.1 664.3,422.1 637.2,415.8 616.4,421.4 619.4,438 572.9,440.2 
			572.9,433.1 564.6,436.1 560.2,428.7 550,431.9 546.3,425.1 536.5,424.6 536.5,413.4 524.3,414.8 514.5,406.5 469.3,423.4 
			484,465.4 494.5,481.8 494.5,503.3 475.4,509.9 475.4,520.4 440.7,526.7 448.8,573.2 458.8,576.8 458.8,585.6 449.5,593.7 
			432.9,585.6 427.3,594.4 418,593.7 404.1,591.7 411.2,610.1 404.3,615 395.8,623.3 391.1,628.4 390.1,628.6 393.6,634.5 
			399.2,647 397,669.2 380.6,685.3 462.2,731.8 452.5,745.5 468.3,745.5 476.4,755.5 458.3,769.7 479.8,782.6 483.5,808.3 
			496.9,817.3 499.9,833.9 520.6,829.5 515.7,815.8 517.2,803.4 523.1,799.5 534.3,799 554.6,788 561.2,774.3 568.5,758.7 
			613.7,724.2 639.9,712.2 598.1,648.2 638.9,616.4 681.9,622.1 705.1,639.6 709.8,646.5 711,646.7 711,627.2 		"/>
		<polygon style="fill:#066365;" points="734.5,624.6 723,590.4 723,566.7 716.4,532.5 663.4,506.1 656.3,523.9 651.1,520.2 
			645.5,528.8 636,513.6 649.4,499.7 642.1,489.7 665.1,480.4 676.8,480.4 673.6,465.2 685.3,463 693.7,472.3 724.9,463 
			734.5,449.6 744,449.6 740.8,428.3 743.3,426.6 736.7,419.8 720.5,418.3 715.2,403.2 706.6,406.1 706.9,408.1 706.6,406.1 
			700.7,408.1 700.7,416.6 695.1,415.9 688.8,423.2 675.1,430.1 668.7,435.4 664.3,421.5 637.2,415.2 616.4,420.8 619.4,437.4 
			572.9,439.6 572.9,432.5 564.6,435.4 560.2,428.1 550,431.3 546.3,424.4 536.5,423.9 536.5,412.7 524.3,414.2 514.5,405.9 
			469.3,422.7 484,464.8 494.5,481.1 494.5,502.6 475.4,509.2 475.4,519.7 440.7,526.1 448.8,572.5 458.8,576.2 458.8,585 
			449.5,593.1 432.9,585 427.3,593.8 418,593.1 404.1,591.1 411.2,609.4 404.3,614.3 395.8,622.6 391.1,627.8 390.1,628 
			393.6,633.9 399.2,646.3 397,668.6 380.6,684.7 462.2,731.1 452.5,744.8 468.3,744.8 476.4,754.8 458.3,769 479.8,782 
			483.5,807.6 496.9,816.7 499.9,833.3 520.6,828.9 515.7,815.2 517.2,802.7 523.1,798.8 534.3,798.3 554.6,787.3 561.2,773.7 
			568.5,758 613.7,723.6 639.9,711.6 598.1,647.6 638.9,615.8 681.9,621.4 705.1,639 709.8,645.8 711,646.1 711,626.5 		"/>
		<polygon style="fill:#066868;" points="734.5,623.9 723,589.7 723,566 716.4,531.8 663.4,505.4 656.3,523.3 651.1,519.6 
			645.5,528.1 636,513 649.4,499.1 642.1,489 665.1,479.8 676.8,479.8 673.6,464.6 685.3,462.4 693.7,471.7 724.9,462.4 734.5,449 
			744,449 740.8,427.7 743.3,426 736.7,419.1 720.5,417.7 715.2,402.5 706.6,405.5 706.9,407.4 706.6,405.5 700.7,407.4 700.7,416 
			695.1,415.2 688.8,422.6 675.1,429.4 668.7,434.8 664.3,420.9 637.2,414.5 616.4,420.1 619.4,436.7 572.9,438.9 572.9,431.9 
			564.6,434.8 560.2,427.5 550,430.6 546.3,423.8 536.5,423.3 536.5,412.1 524.3,413.5 514.5,405.2 469.3,422.1 484,464.1 
			494.5,480.5 494.5,502 475.4,508.6 475.4,519.1 440.7,525.5 448.8,571.9 458.8,575.6 458.8,584.3 449.5,592.4 432.9,584.3 
			427.3,593.1 418,592.4 404.1,590.5 411.2,608.8 404.3,613.7 395.8,622 391.1,627.1 390.1,627.4 393.6,633.2 399.2,645.7 
			397,667.9 380.6,684.1 462.2,730.5 452.5,744.2 468.3,744.2 476.4,754.2 458.3,768.4 479.8,781.3 483.5,807 496.9,816 
			499.9,832.6 520.6,828.2 515.7,814.6 517.2,802.1 523.1,798.2 534.3,797.7 554.6,786.7 561.2,773 568.5,757.4 613.7,722.9 
			639.9,710.9 598.1,646.9 638.9,615.1 681.9,620.8 705.1,638.4 709.8,645.2 711,645.4 711,625.9 		"/>
		<polygon style="fill:#066C6B;" points="734.5,623.3 723,589.1 723,565.4 716.4,531.2 663.4,504.8 656.3,522.6 651.1,518.9 
			645.5,527.5 636,512.3 649.4,498.4 642.1,488.4 665.1,479.1 676.8,479.1 673.6,464 685.3,461.8 693.7,471 724.9,461.8 
			734.5,448.3 744,448.3 740.8,427.1 743.3,425.3 736.7,418.5 720.5,417 715.2,401.9 706.6,404.8 706.9,406.8 706.6,404.8 
			700.7,406.8 700.7,415.3 695.1,414.6 688.8,421.9 675.1,428.8 668.7,434.1 664.3,420.2 637.2,413.9 616.4,419.5 619.4,436.1 
			572.9,438.3 572.9,431.2 564.6,434.1 560.2,426.8 550,430 546.3,423.1 536.5,422.7 536.5,411.4 524.3,412.9 514.5,404.6 
			469.3,421.4 484,463.5 494.5,479.8 494.5,501.3 475.4,507.9 475.4,518.5 440.7,524.8 448.8,571.2 458.8,574.9 458.8,583.7 
			449.5,591.8 432.9,583.7 427.3,592.5 418,591.8 404.1,589.8 411.2,608.1 404.3,613 395.8,621.3 391.1,626.5 390.1,626.7 
			393.6,632.6 399.2,645 397,667.3 380.6,683.4 462.2,729.8 452.5,743.5 468.3,743.5 476.4,753.5 458.3,767.7 479.8,780.7 
			483.5,806.3 496.9,815.4 499.9,832 520.6,827.6 515.7,813.9 517.2,801.4 523.1,797.5 534.3,797 554.6,786 561.2,772.4 
			568.5,756.7 613.7,722.3 639.9,710.3 598.1,646.3 638.9,614.5 681.9,620.1 705.1,637.7 709.8,644.6 711,644.8 711,625.2 		"/>
		<polygon style="fill:#07716E;" points="734.5,622.6 723,588.4 723,564.7 716.4,530.5 663.4,504.1 656.3,522 651.1,518.3 
			645.5,526.9 636,511.7 649.4,497.8 642.1,487.8 665.1,478.5 676.8,478.5 673.6,463.3 685.3,461.1 693.7,470.4 724.9,461.1 
			734.5,447.7 744,447.7 740.8,426.4 743.3,424.7 736.7,417.9 720.5,416.4 715.2,401.2 706.6,404.2 706.9,406.1 706.6,404.2 
			700.7,406.1 700.7,414.7 695.1,413.9 688.8,421.3 675.1,428.1 668.7,433.5 664.3,419.6 637.2,413.2 616.4,418.8 619.4,435.5 
			572.9,437.7 572.9,430.6 564.6,433.5 560.2,426.2 550,429.3 546.3,422.5 536.5,422 536.5,410.8 524.3,412.2 514.5,403.9 
			469.3,420.8 484,462.8 494.5,479.2 494.5,500.7 475.4,507.3 475.4,517.8 440.7,524.2 448.8,570.6 458.8,574.3 458.8,583.1 
			449.5,591.1 432.9,583.1 427.3,591.9 418,591.1 404.1,589.2 411.2,607.5 404.3,612.4 395.8,620.7 391.1,625.8 390.1,626.1 
			393.6,631.9 399.2,644.4 397,666.6 380.6,682.8 462.2,729.2 452.5,742.9 468.3,742.9 476.4,752.9 458.3,767.1 479.8,780 
			483.5,805.7 496.9,814.7 499.9,831.3 520.6,826.9 515.7,813.3 517.2,800.8 523.1,796.9 534.3,796.4 554.6,785.4 561.2,771.7 
			568.5,756.1 613.7,721.6 639.9,709.6 598.1,645.6 638.9,613.8 681.9,619.5 705.1,637.1 709.8,643.9 711,644.2 711,624.6 		"/>
		<polygon style="fill:#077671;" points="734.5,622 723,587.8 723,564.1 716.4,529.9 663.4,503.5 656.3,521.3 651.1,517.7 
			645.5,526.2 636,511.1 649.4,497.1 642.1,487.1 665.1,477.8 676.8,477.8 673.6,462.7 685.3,460.5 693.7,469.8 724.9,460.5 
			734.5,447 744,447 740.8,425.8 743.3,424.1 736.7,417.2 720.5,415.7 715.2,400.6 706.6,403.5 706.9,405.5 706.6,403.5 
			700.7,405.5 700.7,414 695.1,413.3 688.8,420.6 675.1,427.5 668.7,432.9 664.3,418.9 637.2,412.6 616.4,418.2 619.4,434.8 
			572.9,437 572.9,429.9 564.6,432.9 560.2,425.5 550,428.7 546.3,421.9 536.5,421.4 536.5,410.1 524.3,411.6 514.5,403.3 
			469.3,420.1 484,462.2 494.5,478.6 494.5,500.1 475.4,506.7 475.4,517.2 440.7,523.5 448.8,569.9 458.8,573.6 458.8,582.4 
			449.5,590.5 432.9,582.4 427.3,591.2 418,590.5 404.1,588.5 411.2,606.9 404.3,611.7 395.8,620 391.1,625.2 390.1,625.4 
			393.6,631.3 399.2,643.8 397,666 380.6,682.1 462.2,728.6 452.5,742.2 468.3,742.2 476.4,752.3 458.3,766.4 479.8,779.4 
			483.5,805 496.9,814.1 499.9,830.7 520.6,826.3 515.7,812.6 517.2,800.2 523.1,796.2 534.3,795.8 554.6,784.8 561.2,771.1 
			568.5,755.4 613.7,721 639.9,709 598.1,645 638.9,613.2 681.9,618.8 705.1,636.4 709.8,643.3 711,643.5 711,624 		"/>
		<polygon style="fill:#077A74;" points="734.5,621.4 723,587.1 723,563.4 716.4,529.2 663.4,502.8 656.3,520.7 651.1,517 
			645.5,525.6 636,510.4 649.4,496.5 642.1,486.5 665.1,477.2 676.8,477.2 673.6,462 685.3,459.8 693.7,469.1 724.9,459.8 
			734.5,446.4 744,446.4 740.8,425.1 743.3,423.4 736.7,416.6 720.5,415.1 715.2,400 706.6,402.9 706.9,404.8 706.6,402.9 
			700.7,404.8 700.7,413.4 695.1,412.7 688.8,420 675.1,426.8 668.7,432.2 664.3,418.3 637.2,411.9 616.4,417.5 619.4,434.2 
			572.9,436.4 572.9,429.3 564.6,432.2 560.2,424.9 550,428.1 546.3,421.2 536.5,420.7 536.5,409.5 524.3,410.9 514.5,402.6 
			469.3,419.5 484,461.5 494.5,477.9 494.5,499.4 475.4,506 475.4,516.5 440.7,522.9 448.8,569.3 458.8,573 458.8,581.8 
			449.5,589.8 432.9,581.8 427.3,590.6 418,589.8 404.1,587.9 411.2,606.2 404.3,611.1 395.8,619.4 391.1,624.5 390.1,624.8 
			393.6,630.6 399.2,643.1 397,665.3 380.6,681.5 462.2,727.9 452.5,741.6 468.3,741.6 476.4,751.6 458.3,765.8 479.8,778.7 
			483.5,804.4 496.9,813.4 499.9,830.1 520.6,825.7 515.7,812 517.2,799.5 523.1,795.6 534.3,795.1 554.6,784.1 561.2,770.4 
			568.5,754.8 613.7,720.3 639.9,708.4 598.1,644.3 638.9,612.6 681.9,618.2 705.1,635.8 709.8,642.6 711,642.9 711,623.3 		"/>
		<polygon style="fill:#087F77;" points="734.5,620.7 723,586.5 723,562.8 716.4,528.6 663.4,502.2 656.3,520 651.1,516.4 
			645.5,524.9 636,509.8 649.4,495.8 642.1,485.8 665.1,476.5 676.8,476.5 673.6,461.4 685.3,459.2 693.7,468.5 724.9,459.2 
			734.5,445.7 744,445.7 740.8,424.5 743.3,422.8 736.7,415.9 720.5,414.5 715.2,399.3 706.6,402.2 706.9,404.2 706.6,402.2 
			700.7,404.2 700.7,412.7 695.1,412 688.8,419.3 675.1,426.2 668.7,431.6 664.3,417.6 637.2,411.3 616.4,416.9 619.4,433.5 
			572.9,435.7 572.9,428.6 564.6,431.6 560.2,424.2 550,427.4 546.3,420.6 536.5,420.1 536.5,408.8 524.3,410.3 514.5,402 
			469.3,418.9 484,460.9 494.5,477.3 494.5,498.8 475.4,505.4 475.4,515.9 440.7,522.2 448.8,568.7 458.8,572.3 458.8,581.1 
			449.5,589.2 432.9,581.1 427.3,589.9 418,589.2 404.1,587.2 411.2,605.6 404.3,610.4 395.8,618.8 391.1,623.9 390.1,624.1 
			393.6,630 399.2,642.5 397,664.7 380.6,680.8 462.2,727.3 452.5,740.9 468.3,740.9 476.4,751 458.3,765.1 479.8,778.1 
			483.5,803.8 496.9,812.8 499.9,829.4 520.6,825 515.7,811.3 517.2,798.9 523.1,795 534.3,794.5 554.6,783.5 561.2,769.8 
			568.5,754.1 613.7,719.7 639.9,707.7 598.1,643.7 638.9,611.9 681.9,617.5 705.1,635.1 709.8,642 711,642.2 711,622.7 		"/>
		<polygon style="fill:#08837A;" points="734.5,620.1 723,585.9 723,562.1 716.4,527.9 663.4,501.5 656.3,519.4 651.1,515.7 
			645.5,524.3 636,509.1 649.4,495.2 642.1,485.2 665.1,475.9 676.8,475.9 673.6,460.7 685.3,458.5 693.7,467.8 724.9,458.5 
			734.5,445.1 744,445.1 740.8,423.8 743.3,422.1 736.7,415.3 720.5,413.8 715.2,398.7 706.6,401.6 706.9,403.5 706.6,401.6 
			700.7,403.5 700.7,412.1 695.1,411.4 688.8,418.7 675.1,425.5 668.7,430.9 664.3,417 637.2,410.6 616.4,416.3 619.4,432.9 
			572.9,435.1 572.9,428 564.6,430.9 560.2,423.6 550,426.8 546.3,419.9 536.5,419.4 536.5,408.2 524.3,409.7 514.5,401.3 
			469.3,418.2 484,460.2 494.5,476.6 494.5,498.1 475.4,504.7 475.4,515.2 440.7,521.6 448.8,568 458.8,571.7 458.8,580.5 
			449.5,588.5 432.9,580.5 427.3,589.3 418,588.5 404.1,586.6 411.2,604.9 404.3,609.8 395.8,618.1 391.1,623.2 390.1,623.5 
			393.6,629.4 399.2,641.8 397,664.1 380.6,680.2 462.2,726.6 452.5,740.3 468.3,740.3 476.4,750.3 458.3,764.5 479.8,777.4 
			483.5,803.1 496.9,812.1 499.9,828.8 520.6,824.4 515.7,810.7 517.2,798.2 523.1,794.3 534.3,793.8 554.6,782.8 561.2,769.1 
			568.5,753.5 613.7,719 639.9,707.1 598.1,643 638.9,611.3 681.9,616.9 705.1,634.5 709.8,641.3 711,641.6 711,622 		"/>
		<polygon style="fill:#09887C;" points="734.5,619.4 723,585.2 723,561.5 716.4,527.3 663.4,500.9 656.3,518.7 651.1,515.1 
			645.5,523.6 636,508.5 649.4,494.5 642.1,484.5 665.1,475.2 676.8,475.2 673.6,460.1 685.3,457.9 693.7,467.2 724.9,457.9 
			734.5,444.4 744,444.4 740.8,423.2 743.3,421.5 736.7,414.6 720.5,413.2 715.2,398 706.6,400.9 706.9,402.9 706.6,400.9 
			700.7,402.9 700.7,411.5 695.1,410.7 688.8,418.1 675.1,424.9 668.7,430.3 664.3,416.3 637.2,410 616.4,415.6 619.4,432.2 
			572.9,434.4 572.9,427.3 564.6,430.3 560.2,422.9 550,426.1 546.3,419.3 536.5,418.8 536.5,407.5 524.3,409 514.5,400.7 
			469.3,417.6 484,459.6 494.5,476 494.5,497.5 475.4,504.1 475.4,514.6 440.7,520.9 448.8,567.4 458.8,571 458.8,579.8 
			449.5,587.9 432.9,579.8 427.3,588.6 418,587.9 404.1,585.9 411.2,604.3 404.3,609.2 395.8,617.5 391.1,622.6 390.1,622.8 
			393.6,628.7 399.2,641.2 397,663.4 380.6,679.5 462.2,726 452.5,739.7 468.3,739.7 476.4,749.7 458.3,763.8 479.8,776.8 
			483.5,802.5 496.9,811.5 499.9,828.1 520.6,823.7 515.7,810 517.2,797.6 523.1,793.7 534.3,793.2 554.6,782.2 561.2,768.5 
			568.5,752.9 613.7,718.4 639.9,706.4 598.1,642.4 638.9,610.6 681.9,616.2 705.1,633.8 709.8,640.7 711,640.9 711,621.4 		"/>
		<polygon style="fill:#098D7F;" points="734.5,618.8 723,584.6 723,560.9 716.4,526.6 663.4,500.3 656.3,518.1 651.1,514.4 
			645.5,523 636,507.8 649.4,493.9 642.1,483.9 665.1,474.6 676.8,474.6 673.6,459.4 685.3,457.2 693.7,466.5 724.9,457.2 
			734.5,443.8 744,443.8 740.8,422.5 743.3,420.8 736.7,414 720.5,412.5 715.2,397.4 706.6,400.3 706.9,402.3 706.6,400.3 
			700.7,402.3 700.7,410.8 695.1,410.1 688.8,417.4 675.1,424.3 668.7,429.6 664.3,415.7 637.2,409.3 616.4,415 619.4,431.6 
			572.9,433.8 572.9,426.7 564.6,429.6 560.2,422.3 550,425.5 546.3,418.6 536.5,418.1 536.5,406.9 524.3,408.4 514.5,400.1 
			469.3,416.9 484,459 494.5,475.3 494.5,496.8 475.4,503.4 475.4,513.9 440.7,520.3 448.8,566.7 458.8,570.4 458.8,579.2 
			449.5,587.3 432.9,579.2 427.3,588 418,587.3 404.1,585.3 411.2,603.6 404.3,608.5 395.8,616.8 391.1,622 390.1,622.2 
			393.6,628.1 399.2,640.5 397,662.8 380.6,678.9 462.2,725.3 452.5,739 468.3,739 476.4,749 458.3,763.2 479.8,776.2 483.5,801.8 
			496.9,810.9 499.9,827.5 520.6,823.1 515.7,809.4 517.2,796.9 523.1,793 534.3,792.5 554.6,781.5 561.2,767.8 568.5,752.2 
			613.7,717.7 639.9,705.8 598.1,641.7 638.9,610 681.9,615.6 705.1,633.2 709.8,640 711,640.3 711,620.7 		"/>
		<polygon style="fill:#099182;" points="734.5,618.1 723,583.9 723,560.2 716.4,526 663.4,499.6 656.3,517.4 651.1,513.8 
			645.5,522.3 636,507.2 649.4,493.3 642.1,483.2 665.1,473.9 676.8,473.9 673.6,458.8 685.3,456.6 693.7,465.9 724.9,456.6 
			734.5,443.2 744,443.2 740.8,421.9 743.3,420.2 736.7,413.3 720.5,411.9 715.2,396.7 706.6,399.7 706.9,401.6 706.6,399.7 
			700.7,401.6 700.7,410.2 695.1,409.4 688.8,416.8 675.1,423.6 668.7,429 664.3,415.1 637.2,408.7 616.4,414.3 619.4,430.9 
			572.9,433.1 572.9,426 564.6,429 560.2,421.7 550,424.8 546.3,418 536.5,417.5 536.5,406.3 524.3,407.7 514.5,399.4 469.3,416.3 
			484,458.3 494.5,474.7 494.5,496.2 475.4,502.8 475.4,513.3 440.7,519.6 448.8,566.1 458.8,569.7 458.8,578.5 449.5,586.6 
			432.9,578.5 427.3,587.3 418,586.6 404.1,584.7 411.2,603 404.3,607.9 395.8,616.2 391.1,621.3 390.1,621.6 393.6,627.4 
			399.2,639.9 397,662.1 380.6,678.2 462.2,724.7 452.5,738.4 468.3,738.4 476.4,748.4 458.3,762.6 479.8,775.5 483.5,801.2 
			496.9,810.2 499.9,826.8 520.6,822.4 515.7,808.7 517.2,796.3 523.1,792.4 534.3,791.9 554.6,780.9 561.2,767.2 568.5,751.6 
			613.7,717.1 639.9,705.1 598.1,641.1 638.9,609.3 681.9,615 705.1,632.5 709.8,639.4 711,639.6 711,620.1 		"/>
		<polygon style="fill:#0A9685;" points="734.5,617.5 723,583.3 723,559.6 716.4,525.4 663.4,499 656.3,516.8 651.1,513.1 
			645.5,521.7 636,506.5 649.4,492.6 642.1,482.6 665.1,473.3 676.8,473.3 673.6,458.2 685.3,456 693.7,465.2 724.9,456 
			734.5,442.5 744,442.5 740.8,421.3 743.3,419.5 736.7,412.7 720.5,411.2 715.2,396.1 706.6,399 706.9,401 706.6,399 700.7,401 
			700.7,409.5 695.1,408.8 688.8,416.1 675.1,423 668.7,428.3 664.3,414.4 637.2,408.1 616.4,413.7 619.4,430.3 572.9,432.5 
			572.9,425.4 564.6,428.3 560.2,421 550,424.2 546.3,417.3 536.5,416.9 536.5,405.6 524.3,407.1 514.5,398.8 469.3,415.6 
			484,457.7 494.5,474 494.5,495.5 475.4,502.1 475.4,512.6 440.7,519 448.8,565.4 458.8,569.1 458.8,577.9 449.5,586 432.9,577.9 
			427.3,586.7 418,586 404.1,584 411.2,602.3 404.3,607.2 395.8,615.5 391.1,620.7 390.1,620.9 393.6,626.8 399.2,639.2 397,661.5 
			380.6,677.6 462.2,724 452.5,737.7 468.3,737.7 476.4,747.7 458.3,761.9 479.8,774.9 483.5,800.5 496.9,809.6 499.9,826.2 
			520.6,821.8 515.7,808.1 517.2,795.6 523.1,791.7 534.3,791.2 554.6,780.2 561.2,766.6 568.5,750.9 613.7,716.5 639.9,704.5 
			598.1,640.5 638.9,608.7 681.9,614.3 705.1,631.9 709.8,638.7 711,639 711,619.4 		"/>
		<polygon style="fill:#0A9A88;" points="734.5,616.8 723,582.6 723,558.9 716.4,524.7 663.4,498.3 656.3,516.2 651.1,512.5 
			645.5,521 636,505.9 649.4,492 642.1,481.9 665.1,472.7 676.8,472.7 673.6,457.5 685.3,455.3 693.7,464.6 724.9,455.3 
			734.5,441.9 744,441.9 740.8,420.6 743.3,418.9 736.7,412.1 720.5,410.6 715.2,395.4 706.6,398.4 706.9,400.3 706.6,398.4 
			700.7,400.3 700.7,408.9 695.1,408.1 688.8,415.5 675.1,422.3 668.7,427.7 664.3,413.8 637.2,407.4 616.4,413 619.4,429.6 
			572.9,431.8 572.9,424.8 564.6,427.7 560.2,420.4 550,423.5 546.3,416.7 536.5,416.2 536.5,405 524.3,406.4 514.5,398.1 
			469.3,415 484,457 494.5,473.4 494.5,494.9 475.4,501.5 475.4,512 440.7,518.4 448.8,564.8 458.8,568.5 458.8,577.3 449.5,585.3 
			432.9,577.3 427.3,586 418,585.3 404.1,583.4 411.2,601.7 404.3,606.6 395.8,614.9 391.1,620 390.1,620.3 393.6,626.1 
			399.2,638.6 397,660.8 380.6,677 462.2,723.4 452.5,737.1 468.3,737.1 476.4,747.1 458.3,761.3 479.8,774.2 483.5,799.9 
			496.9,808.9 499.9,825.5 520.6,821.1 515.7,807.5 517.2,795 523.1,791.1 534.3,790.6 554.6,779.6 561.2,765.9 568.5,750.3 
			613.7,715.8 639.9,703.8 598.1,639.8 638.9,608 681.9,613.7 705.1,631.3 709.8,638.1 711,638.3 711,618.8 		"/>
		<polygon style="fill:#0A9F8B;" points="734.5,616.2 723,582 723,558.3 716.4,524.1 663.4,497.7 656.3,515.5 651.1,511.8 
			645.5,520.4 636,505.2 649.4,491.3 642.1,481.3 665.1,472 676.8,472 673.6,456.9 685.3,454.7 693.7,463.9 724.9,454.7 
			734.5,441.2 744,441.2 740.8,420 743.3,418.2 736.7,411.4 720.5,409.9 715.2,394.8 706.6,397.7 706.9,399.7 706.6,397.7 
			700.7,399.7 700.7,408.2 695.1,407.5 688.8,414.8 675.1,421.7 668.7,427 664.3,413.1 637.2,406.8 616.4,412.4 619.4,429 
			572.9,431.2 572.9,424.1 564.6,427 560.2,419.7 550,422.9 546.3,416 536.5,415.6 536.5,404.3 524.3,405.8 514.5,397.5 
			469.3,414.3 484,456.4 494.5,472.7 494.5,494.3 475.4,500.8 475.4,511.4 440.7,517.7 448.8,564.1 458.8,567.8 458.8,576.6 
			449.5,584.7 432.9,576.6 427.3,585.4 418,584.7 404.1,582.7 411.2,601 404.3,605.9 395.8,614.2 391.1,619.4 390.1,619.6 
			393.6,625.5 399.2,637.9 397,660.2 380.6,676.3 462.2,722.7 452.5,736.4 468.3,736.4 476.4,746.4 458.3,760.6 479.8,773.6 
			483.5,799.2 496.9,808.3 499.9,824.9 520.6,820.5 515.7,806.8 517.2,794.3 523.1,790.4 534.3,789.9 554.6,779 561.2,765.3 
			568.5,749.6 613.7,715.2 639.9,703.2 598.1,639.2 638.9,607.4 681.9,613 705.1,630.6 709.8,637.5 711,637.7 711,618.2 		"/>
		<polygon style="fill:#0BA38E;" points="734.5,615.6 723,581.3 723,557.6 716.4,523.4 663.4,497 656.3,514.9 651.1,511.2 
			645.5,519.8 636,504.6 649.4,490.7 642.1,480.7 665.1,471.4 676.8,471.4 673.6,456.2 685.3,454 693.7,463.3 724.9,454 
			734.5,440.6 744,440.6 740.8,419.3 743.3,417.6 736.7,410.8 720.5,409.3 715.2,394.1 706.6,397.1 706.9,399 706.6,397.1 
			700.7,399 700.7,407.6 695.1,406.9 688.8,414.2 675.1,421 668.7,426.4 664.3,412.5 637.2,406.1 616.4,411.7 619.4,428.4 
			572.9,430.6 572.9,423.5 564.6,426.4 560.2,419.1 550,422.2 546.3,415.4 536.5,414.9 536.5,403.7 524.3,405.1 514.5,396.8 
			469.3,413.7 484,455.7 494.5,472.1 494.5,493.6 475.4,500.2 475.4,510.7 440.7,517.1 448.8,563.5 458.8,567.2 458.8,576 
			449.5,584 432.9,576 427.3,584.8 418,584 404.1,582.1 411.2,600.4 404.3,605.3 395.8,613.6 391.1,618.7 390.1,619 393.6,624.8 
			399.2,637.3 397,659.5 380.6,675.7 462.2,722.1 452.5,735.8 468.3,735.8 476.4,745.8 458.3,760 479.8,772.9 483.5,798.6 
			496.9,807.6 499.9,824.2 520.6,819.9 515.7,806.2 517.2,793.7 523.1,789.8 534.3,789.3 554.6,778.3 561.2,764.6 568.5,749 
			613.7,714.5 639.9,702.5 598.1,638.5 638.9,606.8 681.9,612.4 705.1,630 709.8,636.8 711,637.1 711,617.5 		"/>
		<polygon style="fill:#0BA891;" points="734.5,614.9 723,580.7 723,557 716.4,522.8 663.4,496.4 656.3,514.2 651.1,510.6 
			645.5,519.1 636,504 649.4,490 642.1,480 665.1,470.7 676.8,470.7 673.6,455.6 685.3,453.4 693.7,462.7 724.9,453.4 734.5,439.9 
			744,439.9 740.8,418.7 743.3,417 736.7,410.1 720.5,408.7 715.2,393.5 706.6,396.4 706.9,398.4 706.6,396.4 700.7,398.4 
			700.7,406.9 695.1,406.2 688.8,413.5 675.1,420.4 668.7,425.8 664.3,411.8 637.2,405.5 616.4,411.1 619.4,427.7 572.9,429.9 
			572.9,422.8 564.6,425.8 560.2,418.4 550,421.6 546.3,414.8 536.5,414.3 536.5,403 524.3,404.5 514.5,396.2 469.3,413 484,455.1 
			494.5,471.5 494.5,493 475.4,499.6 475.4,510.1 440.7,516.4 448.8,562.9 458.8,566.5 458.8,575.3 449.5,583.4 432.9,575.3 
			427.3,584.1 418,583.4 404.1,581.4 411.2,599.8 404.3,604.6 395.8,613 391.1,618.1 390.1,618.3 393.6,624.2 399.2,636.7 
			397,658.9 380.6,675 462.2,721.5 452.5,735.1 468.3,735.1 476.4,745.2 458.3,759.3 479.8,772.3 483.5,797.9 496.9,807 
			499.9,823.6 520.6,819.2 515.7,805.5 517.2,793.1 523.1,789.1 534.3,788.7 554.6,777.7 561.2,764 568.5,748.3 613.7,713.9 
			639.9,701.9 598.1,637.9 638.9,606.1 681.9,611.7 705.1,629.3 709.8,636.2 711,636.4 711,616.9 		"/>
	</g>
	<g>
		<path style="fill:#CDEFF9;" d="M439.6,638.6c2.5,1.8,4.6,3.4,6.1,5.1l-2.3,2.3c-1.5-1.6-3.5-3.3-6.1-5.1L439.6,638.6z
			 M446.2,648.9c-1.6,4.4-3.5,8.5-5.4,12.3l-3-1.3c2.1-3.8,4-7.8,5.6-12.1L446.2,648.9z M440.6,630.5c2.4,1.6,4.4,3.3,6.1,4.9
			l-2.3,2.3c-1.5-1.6-3.5-3.2-6.2-5L440.6,630.5z M456.4,635h-8.3v-3.1h19.5v3.1h-8v22.3h9.2v3.1h-22.4v-3.1h10V635z"/>
		<path style="fill:#CDEFF9;" d="M497.9,636h3.3v24.9h-3.3v-2h-21.1v2h-3.2v-25.1h3.2v20h8.9v-25.5h3.3v25.5h8.9V636z"/>
		<path style="fill:#CDEFF9;" d="M513.9,649.6c-0.8,5-2.4,8.8-4.9,11.5l-2.4-2.1c3-3.3,4.5-8.5,4.5-15.6v-12.9h3.3v7.7h10v-8.1h3.1
			v8.1h9.2v3.1h-22.3v2c0,0.7,0,1.8-0.1,3.1h15.6v15.2h-3.3v-12.1H513.9z"/>
		<path style="fill:#CDEFF9;" d="M542.3,631.4h27.4v3.1h-24.3v22.7h25.4v3.1h-28.5V631.4z M550.3,636.8c3.2,2.4,6,4.7,8.5,6.9
			c1.8-2.4,3.3-5,4.6-8l2.9,1.6c-1.4,3.3-3.1,6.2-5,8.7c2.5,2.3,4.8,4.5,6.8,6.8l-2.5,2.5c-1.9-2.3-4.1-4.6-6.5-6.8
			c-2.8,3-6.2,5.4-10,7l-1.9-2.9c3.6-1.5,6.8-3.6,9.4-6.4c-2.5-2.2-5.4-4.6-8.7-7.1L550.3,636.8z"/>
	</g>
</g>
</svg>
