<?xml version="1.0" encoding="utf-8"?>
<!-- Generator: Adobe Illustrator 17.0.0, SVG Export Plug-In . SVG Version: 6.00 Build 0)  -->
<!DOCTYPE svg PUBLIC "-//W3C//DTD SVG 1.1//EN" "http://www.w3.org/Graphics/SVG/1.1/DTD/svg11.dtd">
<svg version="1.1" id="图层_1" xmlns="http://www.w3.org/2000/svg" xmlns:xlink="http://www.w3.org/1999/xlink" x="0px" y="0px"
	 preserveAspectRatio="none" viewBox="0 0 2000 1300" style="enable-background:new 0 0 2000 1300;" xml:space="preserve">
<g>
	<g>
		<path style="fill:#001A36;" d="M1171.9,300.6l-29.8,101.7l53,197l26.4,68.4l9.5,21.3l1.2-0.5l-1.2,0.5l67.4,151l3.4,2l2-2l-2,2
			l44.5,24.4l49.4,67.2l41.8,37.4l3.4-6.6l56-70.6l30.1-36.2l123.4-23.7l8.3,9.5l1.5,19.3l16.4,10.5l16.1-0.2l18.3-14.7l24.9-7.1
			l1.7-6.6l-0.5-8.8c0,0-6.1-3.4-6.4-2.4c-0.2,1-9.8,1.5-9.8,1.5l-9-0.5l-5.1-10l-18.3-8.3l-22.5,0.5l-9-4.2l-170.1-388.1l-9.8-11.5
			l-11.5-8.6l-148.1-143.7l-33.2-40.8l-67.2-77.2l-45.7,157.9L1171.9,300.6z"/>
		<path style="fill:#001F39;" d="M1171.9,300l-29.8,101.7l53,197l26.4,68.4l9.5,21.3l1.2-0.5l-1.2,0.5l67.4,151l3.4,2l2-2l-2,2
			l44.5,24.4l49.4,67.2l41.8,37.4l3.4-6.6l56-70.6l30.1-36.2l123.4-23.7l8.3,9.5l1.5,19.3l16.4,10.5l16.1-0.2l18.3-14.7l24.9-7.1
			l1.7-6.6l-0.5-8.8c0,0-6.1-3.4-6.4-2.4c-0.2,1-9.8,1.5-9.8,1.5l-9-0.5l-5.1-10l-18.3-8.3l-22.5,0.5l-9-4.2l-170.1-388.1l-9.8-11.5
			l-11.5-8.6l-148.1-143.7l-33.2-40.8l-67.2-77.2l-45.7,157.9L1171.9,300z"/>
		<path style="fill:#01233C;" d="M1171.9,299.3L1142.1,401l53,197l26.4,68.4l9.5,21.3l1.2-0.5l-1.2,0.5l67.4,151l3.4,2l2-2l-2,2
			l44.5,24.4l49.4,67.2l41.8,37.4l3.4-6.6l56-70.6l30.1-36.2l123.4-23.7l8.3,9.5l1.5,19.3l16.4,10.5l16.1-0.2L1711,857l24.9-7.1
			l1.7-6.6l-0.5-8.8c0,0-6.1-3.4-6.4-2.4c-0.2,1-9.8,1.5-9.8,1.5l-9-0.5l-5.1-10l-18.3-8.3l-22.5,0.5l-9-4.2L1486.9,423l-9.8-11.5
			l-11.5-8.6l-148.1-143.7l-33.2-40.8l-67.2-77.2l-45.7,157.9L1171.9,299.3z"/>
		<path style="fill:#01283F;" d="M1171.9,298.7l-29.8,101.7l53,197l26.4,68.4l9.5,21.3l1.2-0.5l-1.2,0.5l67.4,151l3.4,2l2-2l-2,2
			l44.5,24.4l49.4,67.2l41.8,37.4l3.4-6.6l56-70.6l30.1-36.2l123.4-23.7l8.3,9.5l1.5,19.3l16.4,10.5l16.1-0.2l18.3-14.7l24.9-7.1
			l1.7-6.6l-0.5-8.8c0,0-6.1-3.4-6.4-2.4c-0.2,1-9.8,1.5-9.8,1.5l-9-0.5l-5.1-10l-18.3-8.3l-22.5,0.5l-9-4.2l-170.1-388.1l-9.8-11.5
			l-11.5-8.6l-148.1-143.7l-33.2-40.8l-67.2-77.2l-45.7,157.9L1171.9,298.7z"/>
		<path style="fill:#012C42;" d="M1171.9,298l-29.8,101.7l53,197l26.4,68.4l9.5,21.3l1.2-0.5l-1.2,0.5l67.4,151l3.4,2l2-2l-2,2
			l44.5,24.4l49.4,67.2l41.8,37.4l3.4-6.6l56-70.6L1527,855l123.4-23.7l8.3,9.5l1.5,19.3l16.4,10.5l16.1-0.2l18.3-14.7l24.9-7.1
			l1.7-6.6l-0.5-8.8c0,0-6.1-3.4-6.4-2.4c-0.2,1-9.8,1.5-9.8,1.5l-9-0.5l-5.1-10l-18.3-8.3l-22.5,0.5l-9-4.2l-170.1-388.1l-9.8-11.5
			l-11.5-8.6l-148.1-143.7l-33.2-40.8l-67.2-77.2l-45.7,157.9L1171.9,298z"/>
		<path style="fill:#023145;" d="M1171.9,297.4L1142.1,399l53,197l26.4,68.4l9.5,21.3l1.2-0.5l-1.2,0.5l67.4,151l3.4,2l2-2l-2,2
			l44.5,24.4l49.4,67.2l41.8,37.4l3.4-6.6l56-70.6l30.1-36.2l123.4-23.7l8.3,9.5l1.5,19.3l16.4,10.5l16.1-0.2L1711,855l24.9-7.1
			l1.7-6.6l-0.5-8.8c0,0-6.1-3.4-6.4-2.4c-0.2,1-9.8,1.5-9.8,1.5l-9-0.5l-5.1-10l-18.3-8.3l-22.5,0.5l-9-4.2L1486.9,421l-9.8-11.5
			l-11.5-8.6l-148.1-143.7l-33.2-40.8l-67.2-77.2l-45.7,157.9L1171.9,297.4z"/>
		<path style="fill:#023548;" d="M1171.9,296.7l-29.8,101.7l53,197l26.4,68.4l9.5,21.3l1.2-0.5l-1.2,0.5l67.4,151l3.4,2l2-2l-2,2
			l44.5,24.4l49.4,67.2l41.8,37.4l3.4-6.6l56-70.6l30.1-36.2l123.4-23.7l8.3,9.5l1.5,19.3l16.4,10.5l16.1-0.2l18.3-14.7l24.9-7.1
			l1.7-6.6l-0.5-8.8c0,0-6.1-3.4-6.4-2.4c-0.2,1-9.8,1.5-9.8,1.5l-9-0.5l-5.1-10l-18.3-8.3l-22.5,0.5l-9-4.2l-170.1-388.1l-9.8-11.5
			l-11.5-8.6l-148.1-143.7l-33.2-40.8l-67.2-77.2l-45.7,157.9L1171.9,296.7z"/>
		<path style="fill:#023A4B;" d="M1171.9,296.1l-29.8,101.7l53,197l26.4,68.4l9.5,21.3l1.2-0.5l-1.2,0.5l67.4,151l3.4,2l2-2l-2,2
			l44.5,24.4l49.4,67.2l41.8,37.4l3.4-6.6l56-70.6L1527,853l123.4-23.7l8.3,9.5l1.5,19.3l16.4,10.5l16.1-0.2l18.3-14.7l24.9-7.1
			l1.7-6.6l-0.5-8.8c0,0-6.1-3.4-6.4-2.4c-0.2,1-9.8,1.5-9.8,1.5l-9-0.5l-5.1-10l-18.3-8.3L1666,812l-9-4.2l-170.1-388.1l-9.8-11.5
			l-11.5-8.6L1317.6,256l-33.2-40.8l-67.2-77.2l-45.7,157.9L1171.9,296.1z"/>
		<path style="fill:#033F4D;" d="M1171.9,295.4l-29.8,101.7l53,197l26.4,68.4l9.5,21.3l1.2-0.5l-1.2,0.5l67.4,151l3.4,2l2-2l-2,2
			l44.5,24.4l49.4,67.2l41.8,37.4l3.4-6.6l56-70.6l30.1-36.2l123.4-23.7l8.3,9.5l1.5,19.3l16.4,10.5l16.1-0.2l18.3-14.7l24.9-7.1
			l1.7-6.6l-0.5-8.8c0,0-6.1-3.4-6.4-2.4c-0.2,1-9.8,1.5-9.8,1.5l-9-0.5l-5.1-10l-18.3-8.3l-22.5,0.5l-9-4.2l-170.1-388.1l-9.8-11.5
			l-11.5-8.6l-148.1-143.7l-33.2-40.8l-67.2-77.2l-45.7,157.9L1171.9,295.4z"/>
		<path style="fill:#034350;" d="M1171.9,294.8l-29.8,101.7l53,197l26.4,68.4l9.5,21.3l1.2-0.5l-1.2,0.5l67.4,151l3.4,2l2-2l-2,2
			l44.5,24.4l49.4,67.2l41.8,37.4l3.4-6.6l56-70.6l30.1-36.2l123.4-23.7l8.3,9.5l1.5,19.3l16.4,10.5l16.1-0.2l18.3-14.7l24.9-7.1
			l1.7-6.6l-0.5-8.8c0,0-6.1-3.4-6.4-2.4c-0.2,1-9.8,1.5-9.8,1.5l-9-0.5l-5.1-10l-18.3-8.3l-22.5,0.5l-9-4.2l-170.1-388.1l-9.8-11.5
			l-11.5-8.6l-148.1-143.7l-33.2-40.8l-67.2-77.2l-45.7,157.9L1171.9,294.8z"/>
		<path style="fill:#044853;" d="M1171.9,294.1l-29.8,101.7l53,197l26.4,68.4l9.5,21.3l1.2-0.5l-1.2,0.5l67.4,151l3.4,2l2-2l-2,2
			l44.5,24.4l49.4,67.2l41.8,37.4l3.4-6.6l56-70.6l30.1-36.2l123.4-23.7l8.3,9.5l1.5,19.3l16.4,10.5l16.1-0.2l18.3-14.7l24.9-7.1
			l1.7-6.6l-0.5-8.8c0,0-6.1-3.4-6.4-2.4c-0.2,1-9.8,1.5-9.8,1.5l-9-0.5l-5.1-10l-18.3-8.3L1666,810l-9-4.2l-170.1-388.1l-9.8-11.5
			l-11.5-8.6l-148.1-143.7l-33.2-40.8l-67.2-77.2l-45.7,157.9L1171.9,294.1z"/>
		<path style="fill:#044C56;" d="M1171.9,293.5l-29.8,101.7l53,197l26.4,68.4l9.5,21.3l1.2-0.5l-1.2,0.5l67.4,151l3.4,2l2-2l-2,2
			l44.5,24.4l49.4,67.2l41.8,37.4l3.4-6.6l56-70.6l30.1-36.2l123.4-23.7l8.3,9.5l1.5,19.3l16.4,10.5l16.1-0.2l18.3-14.7l24.9-7.1
			l1.7-6.6l-0.5-8.8c0,0-6.1-3.4-6.4-2.4c-0.2,1-9.8,1.5-9.8,1.5l-9-0.5l-5.1-10l-18.3-8.3l-22.5,0.5l-9-4.2l-170.1-388.1l-9.8-11.5
			l-11.5-8.6l-148.1-143.7l-33.2-40.8l-67.2-77.2l-45.7,157.9L1171.9,293.5z"/>
		<path style="fill:#045159;" d="M1171.9,292.9l-29.8,101.7l53,197l26.4,68.4l9.5,21.3l1.2-0.5l-1.2,0.5l67.4,151l3.4,2l2-2l-2,2
			l44.5,24.4l49.4,67.2l41.8,37.4l3.4-6.6l56-70.6l30.1-36.2l123.4-23.7l8.3,9.5l1.5,19.3l16.4,10.5l16.1-0.2l18.3-14.7l24.9-7.1
			l1.7-6.6l-0.5-8.8c0,0-6.1-3.4-6.4-2.4c-0.2,1-9.8,1.5-9.8,1.5l-9-0.5l-5.1-10l-18.3-8.3l-22.5,0.5l-9-4.2l-170.1-388.1l-9.8-11.5
			l-11.5-8.6l-148.1-143.7l-33.2-40.8l-67.2-77.2l-45.7,157.9L1171.9,292.9z"/>
		<path style="fill:#05565C;" d="M1171.9,292.2l-29.8,101.7l53,197l26.4,68.4l9.5,21.3l1.2-0.5l-1.2,0.5l67.4,151l3.4,2l2-2l-2,2
			l44.5,24.4l49.4,67.2l41.8,37.4l3.4-6.6l56-70.6l30.1-36.2l123.4-23.7l8.3,9.5l1.5,19.3l16.4,10.5l16.1-0.2l18.3-14.7l24.9-7.1
			l1.7-6.6l-0.5-8.8c0,0-6.1-3.4-6.4-2.4c-0.2,1-9.8,1.5-9.8,1.5l-9-0.5l-5.1-10l-18.3-8.3l-22.5,0.5l-9-4.2l-170.1-388.1l-9.8-11.5
			l-11.5-8.6l-148.1-143.7l-33.2-40.8l-67.2-77.2L1171.4,292L1171.9,292.2z"/>
		<path style="fill:#055A5F;" d="M1171.9,291.6l-29.8,101.7l53,197l26.4,68.4l9.5,21.3l1.2-0.5l-1.2,0.5l67.4,151l3.4,2l2-2l-2,2
			l44.5,24.4l49.4,67.2l41.8,37.4l3.4-6.6l56-70.6l30.1-36.2l123.4-23.7l8.3,9.5l1.5,19.3l16.4,10.5l16.1-0.2l18.3-14.7l24.9-7.1
			l1.7-6.6l-0.5-8.8c0,0-6.1-3.4-6.4-2.4c-0.2,1-9.8,1.5-9.8,1.5l-9-0.5l-5.1-10l-18.3-8.3l-22.5,0.5l-9-4.2l-170.1-388.1l-9.8-11.5
			l-11.5-8.6l-148.1-143.7l-33.2-40.8l-67.2-77.2l-45.7,157.9L1171.9,291.6z"/>
		<path style="fill:#055F62;" d="M1171.9,290.9l-29.8,101.7l53,197l26.4,68.4l9.5,21.3l1.2-0.5l-1.2,0.5l67.4,151l3.4,2l2-2l-2,2
			l44.5,24.4l49.4,67.2l41.8,37.4l3.4-6.6l56-70.6l30.1-36.2l123.4-23.7l8.3,9.5l1.5,19.3l16.4,10.5l16.1-0.2l18.3-14.7l24.9-7.1
			l1.7-6.6l-0.5-8.8c0,0-6.1-3.4-6.4-2.4c-0.2,1-9.8,1.5-9.8,1.5l-9-0.5l-5.1-10l-18.3-8.3l-22.5,0.5l-9-4.2l-170.1-388.1l-9.8-11.5
			l-11.5-8.6l-148.1-143.7l-33.2-40.8l-67.2-77.2l-45.7,157.9L1171.9,290.9z"/>
		<path style="fill:#066365;" d="M1171.9,290.3l-29.8,101.7l53,197l26.4,68.4l9.5,21.3l1.2-0.5l-1.2,0.5l67.4,151l3.4,2l2-2l-2,2
			l44.5,24.4l49.4,67.2l41.8,37.4l3.4-6.6l56-70.6l30.1-36.2l123.4-23.7l8.3,9.5l1.5,19.3l16.4,10.5l16.1-0.2l18.3-14.7l24.9-7.1
			l1.7-6.6l-0.5-8.8c0,0-6.1-3.4-6.4-2.4c-0.2,1-9.8,1.5-9.8,1.5l-9-0.5l-5.1-10l-18.3-8.3l-22.5,0.5l-9-4.2l-170.1-388.1l-9.8-11.5
			l-11.5-8.6l-148.1-143.7l-33.2-40.8l-67.2-77.2L1171.4,290L1171.9,290.3z"/>
		<path style="fill:#066868;" d="M1171.9,289.6l-29.8,101.7l53,197l26.4,68.4l9.5,21.3l1.2-0.5l-1.2,0.5l67.4,151l3.4,2l2-2l-2,2
			l44.5,24.4l49.4,67.2l41.8,37.4l3.4-6.6l56-70.6l30.1-36.2l123.4-23.7l8.3,9.5l1.5,19.3l16.4,10.5l16.1-0.2l18.3-14.7l24.9-7.1
			l1.7-6.6l-0.5-8.8c0,0-6.1-3.4-6.4-2.4c-0.2,1-9.8,1.5-9.8,1.5l-9-0.5l-5.1-10l-18.3-8.3l-22.5,0.5l-9-4.2l-170.1-388.1l-9.8-11.5
			l-11.5-8.6l-148.1-143.7l-33.2-40.8l-67.2-77.2l-45.7,157.9L1171.9,289.6z"/>
		<path style="fill:#066C6B;" d="M1171.9,289l-29.8,101.7l53,197l26.4,68.4l9.5,21.3l1.2-0.5l-1.2,0.5l67.4,151l3.4,2l2-2l-2,2
			l44.5,24.4l49.4,67.2l41.8,37.4l3.4-6.6l56-70.6l30.1-36.2l123.4-23.7l8.3,9.5l1.5,19.3l16.4,10.5l16.1-0.2l18.3-14.7l24.9-7.1
			l1.7-6.6l-0.5-8.8c0,0-6.1-3.4-6.4-2.4c-0.2,1-9.8,1.5-9.8,1.5l-9-0.5l-5.1-10l-18.3-8.3l-22.5,0.5l-9-4.2l-170.1-388.1l-9.8-11.5
			l-11.5-8.6l-148.1-143.7l-33.2-40.8l-67.2-77.2l-45.7,157.9L1171.9,289z"/>
		<path style="fill:#07716E;" d="M1171.9,288.3L1142.1,390l53,197l26.4,68.4l9.5,21.3l1.2-0.5l-1.2,0.5l67.4,151l3.4,2l2-2l-2,2
			l44.5,24.4l49.4,67.2l41.8,37.4l3.4-6.6l56-70.6l30.1-36.2l123.4-23.7l8.3,9.5l1.5,19.3l16.4,10.5l16.1-0.2L1711,846l24.9-7.1
			l1.7-6.6l-0.5-8.8c0,0-6.1-3.4-6.4-2.4c-0.2,1-9.8,1.5-9.8,1.5l-9-0.5l-5.1-10l-18.3-8.3l-22.5,0.5l-9-4.2L1486.9,412l-9.8-11.5
			l-11.5-8.6l-148.1-143.7l-33.2-40.8l-67.2-77.2l-45.7,157.9L1171.9,288.3z"/>
		<path style="fill:#077671;" d="M1171.9,287.7l-29.8,101.7l53,197l26.4,68.4l9.5,21.3l1.2-0.5l-1.2,0.5l67.4,151l3.4,2l2-2l-2,2
			l44.5,24.4l49.4,67.2l41.8,37.4l3.4-6.6l56-70.6l30.1-36.2l123.4-23.7l8.3,9.5l1.5,19.3l16.4,10.5l16.1-0.2l18.3-14.7l24.9-7.1
			l1.7-6.6l-0.5-8.8c0,0-6.1-3.4-6.4-2.4c-0.2,1-9.8,1.5-9.8,1.5l-9-0.5l-5.1-10l-18.3-8.3l-22.5,0.5l-9-4.2l-170.1-388.1l-9.8-11.5
			l-11.5-8.6l-148.1-143.7l-33.2-40.8l-67.2-77.2l-45.7,157.9L1171.9,287.7z"/>
		<path style="fill:#077A74;" d="M1171.9,287l-29.8,101.7l53,197l26.4,68.4l9.5,21.3l1.2-0.5l-1.2,0.5l67.4,151l3.4,2l2-2l-2,2
			l44.5,24.4l49.4,67.2l41.8,37.4l3.4-6.6l56-70.6L1527,844l123.4-23.7l8.3,9.5l1.5,19.3l16.4,10.5l16.1-0.2l18.3-14.7l24.9-7.1
			l1.7-6.6l-0.5-8.8c0,0-6.1-3.4-6.4-2.4c-0.2,1-9.8,1.5-9.8,1.5l-9-0.5l-5.1-10l-18.3-8.3l-22.5,0.5l-9-4.2l-170.1-388.1l-9.8-11.5
			l-11.5-8.6L1317.6,247l-33.2-40.8l-67.2-77.2l-45.7,157.9L1171.9,287z"/>
		<path style="fill:#087F77;" d="M1171.9,286.4l-29.8,101.7l53,197l26.4,68.4l9.5,21.3l1.2-0.5l-1.2,0.5l67.4,151l3.4,2l2-2l-2,2
			l44.5,24.4l49.4,67.2l41.8,37.4l3.4-6.6l56-70.6l30.1-36.2l123.4-23.7l8.3,9.5l1.5,19.3l16.4,10.5l16.1-0.2l18.3-14.7l24.9-7.1
			l1.7-6.6l-0.5-8.8c0,0-6.1-3.4-6.4-2.4c-0.2,1-9.8,1.5-9.8,1.5l-9-0.5l-5.1-10l-18.3-8.3l-22.5,0.5l-9-4.2l-170.1-388.1l-9.8-11.5
			l-11.5-8.6l-148.1-143.7l-33.2-40.8l-67.2-77.2l-45.7,157.9L1171.9,286.4z"/>
		<path style="fill:#08837A;" d="M1171.9,285.8l-29.8,101.7l53,197l26.4,68.4l9.5,21.3l1.2-0.5l-1.2,0.5l67.4,151l3.4,2l2-2l-2,2
			l44.5,24.4l49.4,67.2l41.8,37.4l3.4-6.6l56-70.6l30.1-36.2l123.4-23.7l8.3,9.5l1.5,19.3l16.4,10.5l16.1-0.2l18.3-14.7l24.9-7.1
			l1.7-6.6l-0.5-8.8c0,0-6.1-3.4-6.4-2.4c-0.2,1-9.8,1.5-9.8,1.5l-9-0.5l-5.1-10l-18.3-8.3l-22.5,0.5l-9-4.2l-170.1-388.1l-9.8-11.5
			l-11.5-8.6l-148.1-143.7l-33.2-40.8l-67.2-77.2l-45.7,157.9L1171.9,285.8z"/>
		<path style="fill:#09887C;" d="M1171.9,285.1l-29.8,101.7l53,197l26.4,68.4l9.5,21.3l1.2-0.5l-1.2,0.5l67.4,151l3.4,2l2-2l-2,2
			l44.5,24.4l49.4,67.2l41.8,37.4l3.4-6.6l56-70.6l30.1-36.2l123.4-23.7l8.3,9.5l1.5,19.3l16.4,10.5l16.1-0.2l18.3-14.7l24.9-7.1
			l1.7-6.6l-0.5-8.8c0,0-6.1-3.4-6.4-2.4c-0.2,1-9.8,1.5-9.8,1.5l-9-0.5l-5.1-10l-18.3-8.3L1666,801l-9-4.2l-170.1-388.1l-9.8-11.5
			l-11.5-8.6L1317.6,245l-33.2-40.8l-67.2-77.2l-45.7,157.9L1171.9,285.1z"/>
		<path style="fill:#098D7F;" d="M1171.9,284.5l-29.8,101.7l53,197l26.4,68.4l9.5,21.3l1.2-0.5l-1.2,0.5l67.4,151l3.4,2l2-2l-2,2
			l44.5,24.4l49.4,67.2l41.8,37.4l3.4-6.6l56-70.6l30.1-36.2l123.4-23.7l8.3,9.5l1.5,19.3l16.4,10.5l16.1-0.2l18.3-14.7l24.9-7.1
			l1.7-6.6l-0.5-8.8c0,0-6.1-3.4-6.4-2.4c-0.2,1-9.8,1.5-9.8,1.5l-9-0.5l-5.1-10l-18.3-8.3l-22.5,0.5l-9-4.2l-170.1-388.1l-9.8-11.5
			l-11.5-8.6l-148.1-143.7l-33.2-40.8l-67.2-77.2l-45.7,157.9L1171.9,284.5z"/>
		<path style="fill:#099182;" d="M1171.9,283.8l-29.8,101.7l53,197l26.4,68.4l9.5,21.3l1.2-0.5l-1.2,0.5l67.4,151l3.4,2l2-2l-2,2
			l44.5,24.4l49.4,67.2l41.8,37.4l3.4-6.6l56-70.6l30.1-36.2l123.4-23.7l8.3,9.5l1.5,19.3l16.4,10.5l16.1-0.2l18.3-14.7l24.9-7.1
			l1.7-6.6l-0.5-8.8c0,0-6.1-3.4-6.4-2.4c-0.2,1-9.8,1.5-9.8,1.5l-9-0.5l-5.1-10l-18.3-8.3l-22.5,0.5l-9-4.2l-170.1-388.1l-9.8-11.5
			l-11.5-8.6l-148.1-143.7l-33.2-40.8l-67.2-77.2l-45.7,157.9L1171.9,283.8z"/>
		<path style="fill:#0A9685;" d="M1171.9,283.2l-29.8,101.7l53,197l26.4,68.4l9.5,21.3l1.2-0.5l-1.2,0.5l67.4,151l3.4,2l2-2l-2,2
			l44.5,24.4l49.4,67.2l41.8,37.4l3.4-6.6l56-70.6l30.1-36.2l123.4-23.7l8.3,9.5l1.5,19.3l16.4,10.5l16.1-0.2l18.3-14.7l24.9-7.1
			l1.7-6.6l-0.5-8.8c0,0-6.1-3.4-6.4-2.4c-0.2,1-9.8,1.5-9.8,1.5l-9-0.5l-5.1-10l-18.3-8.3l-22.5,0.5l-9-4.2l-170.1-388.1l-9.8-11.5
			l-11.5-8.6l-148.1-143.7l-33.2-40.8l-67.2-77.2l-45.7,157.9L1171.9,283.2z"/>
		<path style="fill:#0A9A88;" d="M1171.9,282.5l-29.8,101.7l53,197l26.4,68.4l9.5,21.3l1.2-0.5l-1.2,0.5l67.4,151l3.4,2l2-2l-2,2
			l44.5,24.4l49.4,67.2l41.8,37.4l3.4-6.6l56-70.6l30.1-36.2l123.4-23.7l8.3,9.5l1.5,19.3l16.4,10.5l16.1-0.2l18.3-14.7l24.9-7.1
			l1.7-6.6l-0.5-8.8c0,0-6.1-3.4-6.4-2.4c-0.2,1-9.8,1.5-9.8,1.5l-9-0.5l-5.1-10l-18.3-8.3l-22.5,0.5l-9-4.2l-170.1-388.1l-9.8-11.5
			l-11.5-8.6l-148.1-143.7l-33.2-40.8l-67.2-77.2l-45.7,157.9L1171.9,282.5z"/>
		<path style="fill:#0A9F8B;" d="M1171.9,281.9l-29.8,101.7l53,197l26.4,68.4l9.5,21.3l1.2-0.5l-1.2,0.5l67.4,151l3.4,2l2-2l-2,2
			l44.5,24.4l49.4,67.2l41.8,37.4l3.4-6.6l56-70.6l30.1-36.2l123.4-23.7l8.3,9.5l1.5,19.3l16.4,10.5l16.1-0.2l18.3-14.7l24.9-7.1
			l1.7-6.6l-0.5-8.8c0,0-6.1-3.4-6.4-2.4c-0.2,1-9.8,1.5-9.8,1.5l-9-0.5l-5.1-10l-18.3-8.3l-22.5,0.5l-9-4.2l-170.1-388.1l-9.8-11.5
			l-11.5-8.6l-148.1-143.7l-33.2-40.8l-67.2-77.2l-45.7,157.9L1171.9,281.9z"/>
		<path style="fill:#0BA38E;" d="M1171.9,281.2l-29.8,101.7l53,197l26.4,68.4l9.5,21.3l1.2-0.5l-1.2,0.5l67.4,151l3.4,2l2-2l-2,2
			l44.5,24.4l49.4,67.2l41.8,37.4l3.4-6.6l56-70.6l30.1-36.2l123.4-23.7l8.3,9.5l1.5,19.3l16.4,10.5l16.1-0.2l18.3-14.7l24.9-7.1
			l1.7-6.6l-0.5-8.8c0,0-6.1-3.4-6.4-2.4c-0.2,1-9.8,1.5-9.8,1.5l-9-0.5l-5.1-10l-18.3-8.3l-22.5,0.5l-9-4.2l-170.1-388.1l-9.8-11.5
			l-11.5-8.6l-148.1-143.7l-33.2-40.8l-67.2-77.2L1171.4,281L1171.9,281.2z"/>
		<path style="fill:#0BA891;" d="M1171.9,280.6l-29.8,101.7l53,197l26.4,68.4l9.5,21.3l1.2-0.5l-1.2,0.5l67.4,151l3.4,2l2-2l-2,2
			l44.5,24.4l49.4,67.2l41.8,37.4l3.4-6.6l56-70.6l30.1-36.2l123.4-23.7l8.3,9.5l1.5,19.3l16.4,10.5l16.1-0.2l18.3-14.7l24.9-7.1
			l1.7-6.6l-0.5-8.8c0,0-6.1-3.4-6.4-2.4c-0.2,1-9.8,1.5-9.8,1.5l-9-0.5l-5.1-10l-18.3-8.3l-22.5,0.5l-9-4.2l-170.1-388.1l-9.8-11.5
			l-11.5-8.6l-148.1-143.7l-33.2-40.8l-67.2-77.2l-45.7,157.9L1171.9,280.6z"/>
	</g>
	<g>
		<g>
			<g>
				<path style="fill:#CDEFF9;" d="M1277.2,654.2c-0.8,3.5-2,6.5-3.5,9l-2.7-1.7c1.5-2.4,2.6-5.1,3.2-7.9L1277.2,654.2z
					 M1271.7,643.1h3.6c-0.5-1.2-1-2.3-1.5-3.4l2.8-1.1c0.6,1.4,1.1,2.8,1.6,4.4h3.3c0.5-1.5,1-2.9,1.4-4.4l2.9,1
					c-0.4,1.2-0.9,2.3-1.4,3.4h3.5v3h-6.3v3.1h5.7v2.9h-5.7v9.1c0,2.1-1.1,3.1-3.4,3.1h-1.8l-0.7-3c0.5,0.1,1,0.2,1.4,0.2
					c0.8,0,1.2-0.4,1.2-1.1v-8.3h-6.1v-2.9h6.1v-3.1h-6.6V643.1z M1272,635.3h6.1c-0.5-1-1-1.8-1.5-2.5l3.4-0.5
					c0.5,1,0.9,2.1,1.3,3.1h6.3v3H1272V635.3z M1285,653.3c0.9,2.3,1.6,4.3,2.1,6l-2.7,1c-0.5-2.1-1.2-4.2-2.1-6.3L1285,653.3z
					 M1302.2,635.8c-2.9,1-6.1,1.6-9.8,1.9v5.5h10.6v3.1h-3.3v17.9h-3.2v-17.9h-4.1v3.5c-0.2,6-1.5,10.8-4,14.4l-2.3-2.5
					c2-2.9,3-6.9,3.1-11.9V635c4.1-0.1,7.9-0.8,11.3-2.1L1302.2,635.8z"/>
				<path style="fill:#CDEFF9;" d="M1305.7,641.2h2.8v-8.4h3.1v8.4h2.8v3.1h-2.8v9.4l2.5-1.4v3.1c-2.6,1.5-5.3,2.8-8.1,3.8l-0.8-3.1
					c1-0.2,2-0.6,3.2-1v-10.8h-2.8V641.2z M1318.9,647.5c-0.2,6.8-1.8,12.2-4.8,16.3l-2.4-2.1c2.5-3.5,3.9-8.3,4-14.5v-9.7h9.9
					c0-1.1-0.1-2.7-0.1-4.9h3c0,1.8,0,3.4,0.1,4.9h7.4v3h-7.3c0.2,4.1,0.5,7.3,0.9,9.5l0.2,1c1-2.3,1.9-4.9,2.5-7.8l2.6,1.1
					c-1,4.2-2.4,7.8-4.1,10.8c0.3,1,0.6,1.7,0.9,2.4c0.8,1.5,1.3,2.3,1.7,2.3c0.3,0,0.6-1.5,1-4.6l2.7,1.5c-0.7,4.7-1.8,7-3.1,7
					c-1.2,0-2.5-1-3.8-3.1c-0.5-0.7-0.9-1.6-1.4-2.6c-1.9,2.4-4,4.2-6.4,5.5l-1.9-2.5c2.9-1.5,5.3-3.6,7.2-6.5
					c-0.3-0.8-0.5-2-0.9-3.5c-0.6-2.9-1-6.4-1.2-10.7h-6.8v4.2h5.8c0,6.3-0.3,10.2-0.8,11.6c-0.5,1.3-1.5,2.1-2.9,2.1h-2.3l-0.8-2.6
					h2.4c0.6-0.1,1-0.6,1.2-1.6c0.2-1,0.3-3.2,0.3-6.8H1318.9z M1332.7,632.4c0.9,1.3,1.7,2.6,2.3,4l-2.3,1c-0.7-1.6-1.5-3-2.3-4.1
					L1332.7,632.4z"/>
				<path style="fill:#CDEFF9;" d="M1342.1,634.4h27v3.1h-5.5v8.2h7.2v3.1h-7.2v14.8h-3.3v-14.8h-9.2c-0.3,3.5-1,6.3-2,8.6
					c-1.3,2.9-3.5,5.1-6.5,6.6l-1.7-2.7c2.7-1.6,4.6-3.7,5.6-6.1c0.6-1.7,1.1-3.8,1.4-6.3h-7.5v-3.1h7.8l0-0.8v-7.5h-6V634.4z
					 M1351.4,637.6v7.8l0,0.4h9v-8.2H1351.4z"/>
				<path style="fill:#CDEFF9;" d="M1376.2,643.6l2.7-10l3.3,0.5l-1.8,6.3h5.1c0.6-2.4,1.1-5.1,1.6-8l3.3,0.4
					c-0.4,2.6-0.9,5.1-1.5,7.6h15.7v3.1H1388c-0.1,0.3-0.4,1.3-1.1,3.2h13.7v2.7c-0.9,2.8-2.6,5.4-5.1,7.6c2.6,1.4,5.7,2.8,9.4,4
					l-1.7,3.1c-4.1-1.5-7.6-3.1-10.4-5c-2.7,1.9-6,3.6-10,5.1l-1.7-3.1c3.4-1.2,6.3-2.6,8.8-4.1c-2.2-1.8-3.9-3.7-5-5.7
					c-2.5,5-5.6,9.1-9.3,12.1l-1.7-3c4.7-4.2,8.2-9.9,10.6-17H1376.2z M1387.3,649.7c1.1,2,2.9,3.9,5.3,5.6c2.2-1.8,3.7-3.6,4.7-5.6
					H1387.3z M1396.1,632.5c2.3,1.8,4.3,3.6,6,5.4l-2.3,2.3c-1.4-1.8-3.3-3.7-5.8-5.6L1396.1,632.5z"/>
				<path style="fill:#CDEFF9;" d="M1439.5,660.3l-0.5,3.1h-10c-6.3,0-10.7-0.9-13.5-2.7c-0.3-0.2-0.6-0.4-0.8-0.7
					c-1.1,1.5-2.3,2.8-3.8,3.9l-2.1-2.8c1.5-1,2.7-2.2,3.7-3.7c-1.3-1.9-2.3-4.3-3.1-7.1l2.7-1c0.6,2.1,1.3,3.9,2,5.2
					c0.9-2.1,1.5-4.6,1.7-7.4h-6.2v-2.5c1.8-2.3,3.5-4.8,5.1-7.6h-5.1v-3.1h8.7v2.7c-1.6,2.9-3.1,5.4-4.5,7.5h5v1.9
					c-0.1,4.4-1,8.1-2.6,11.3c0.4,0.4,0.9,0.8,1.3,1c2.2,1.2,5.6,1.9,10.1,1.9C1430.7,660.5,1434.7,660.4,1439.5,660.3z M1437.1,647
					h-7.3v2.1h7.7v2.7h-7.7v2.1h8.7v2.7h-8.7v2.8h-3.1v-2.8h-7.5v-2.7h7.5v-2.1h-6.4v-2.7h6.4V647h-5.7v-2.7h5.7v-2.1h-7.4v-2.6h7.4
					v-2.1h-5.7v-2.7h5.7v-2.3h3.1v2.3h7.3v4.7h2.1v2.6h-2.1V647z M1429.8,637.5v2.1h4.1v-2.1H1429.8z M1429.8,642.2v2.1h4.1v-2.1
					H1429.8z"/>
				<path style="fill:#CDEFF9;" d="M1442.5,642.9h7.7v14.5c1-0.8,2.1-1.8,3.4-3.1l0.9,3.4c-2.3,2.1-4.6,3.9-7.1,5.5l-1.2-2.9
					c0.6-0.5,0.9-1.1,0.9-1.8V646h-4.5V642.9z M1446.8,633.1c2.2,1.7,4,3.4,5.6,5l-2.2,2.3c-1.3-1.6-3.2-3.3-5.6-5.1L1446.8,633.1z
					 M1454.7,646.9h16.6v3c-1,3-2.6,5.6-4.9,7.8c2.2,1.5,4.9,2.7,7.9,3.8l-1.7,2.8c-3.3-1.3-6.2-2.9-8.6-4.7
					c-2.6,1.9-5.9,3.4-9.9,4.6l-1.8-2.7c3.6-1.1,6.7-2.4,9.1-4c-2.4-2.3-3.9-4.8-4.8-7.5h-1.9V646.9z M1457.1,633.7h12.1v7.2
					c0,0.8,0.4,1.2,1.3,1.2h3v3h-3.9c-2.4,0-3.6-1.1-3.6-3.4v-4.9h-5.7v1c0,3.6-1.8,6.3-5.4,8.3l-2.2-2.5c2.9-1.3,4.3-3.1,4.3-5.4
					V633.7z M1459.7,650.1c0.8,2.1,2.1,4,4,5.7c1.9-1.7,3.3-3.6,4.3-5.7H1459.7z"/>
				<path style="fill:#CDEFF9;" d="M1490.7,632.5h3.4v5.9h12.2v16.5h-3.3V653h-8.9v11.5h-3.4V653h-8.9v1.9h-3.3v-16.5h12.1V632.5z
					 M1481.8,649.8h8.9v-8.2h-8.9V649.8z M1494.1,649.8h8.9v-8.2h-8.9V649.8z"/>
				<path style="fill:#CDEFF9;" d="M1517.5,643.8c-0.9,6.1-2.2,11.3-4,15.8l-2.8-1.7c1.7-4.5,2.9-9.4,3.7-14.7L1517.5,643.8z
					 M1523.6,663.1c-2.7,0-4-1.3-4-3.9v-19.4h3.3v18.7c0,1,0.6,1.4,1.7,1.4h6c0.7,0,1.2-0.3,1.5-1c0.4-0.8,0.6-3.1,0.8-6.8l3.1,1
					c-0.3,4.8-0.8,7.7-1.5,8.7c-0.7,0.9-1.7,1.3-3.1,1.3H1523.6z M1525.2,632.5c3,3.5,5.4,6.5,7,9.1l-2.7,1.8
					c-1.7-2.9-4-5.9-6.9-9.2L1525.2,632.5z M1537.4,642.2c2.1,4.8,3.8,9.7,5.3,14.6l-3,1.3c-1.7-5.7-3.5-10.7-5.4-14.9L1537.4,642.2
					z"/>
			</g>
		</g>
	</g>
</g>
</svg>
