<?xml version="1.0" encoding="utf-8"?>
<!-- Generator: Adobe Illustrator 17.0.0, SVG Export Plug-In . SVG Version: 6.00 Build 0)  -->
<!DOCTYPE svg PUBLIC "-//W3C//DTD SVG 1.1//EN" "http://www.w3.org/Graphics/SVG/1.1/DTD/svg11.dtd">
<svg version="1.1" id="图层_1" xmlns="http://www.w3.org/2000/svg" xmlns:xlink="http://www.w3.org/1999/xlink" x="0px" y="0px"
	 preserveAspectRatio="none" viewBox="0 0 2000 1300" style="enable-background:new 0 0 2000 1300;" xml:space="preserve">
<g>
	<g>
		<polygon style="fill:#001A36;" points="820.7,187.4 791.7,214.3 806.8,228 792.1,238.3 799,242.2 782.9,263.5 774.3,258.6 
			750.6,275.7 744.5,288.4 728.1,288.4 709.1,294 706.9,302.6 699.3,302.6 691.5,310.4 688.8,314.8 689,314.8 695.6,326.3 
			692.7,335.5 683.6,333.6 685.3,345.3 695.6,342.6 698.1,349.5 690,354.1 698.1,356.1 698.1,363.4 701.7,372.9 701.7,381.7 
			683.1,390.5 687.1,397.6 701.7,391 706.6,416.4 715.2,413.5 720.5,428.7 736.7,430.1 743.3,437 754.7,428.2 778.5,418.4 
			876.9,406.7 878.9,407.4 880.6,404.5 905.5,401.3 890.4,372.2 903.1,367.1 898,359.7 911.6,357.3 917,365.8 925.6,361.2 
			922.6,354.1 940.7,349.5 952,360 1144.5,303.3 1171.7,300.6 1217.6,143 1216.4,141.7 1185.3,131.7 1149.4,127.6 1126,130 
			1106.2,135.6 1072.2,147.9 1044.1,164.2 1010.9,190.9 988.4,208.7 978.1,215.1 957.6,222.2 915.3,232.4 882.8,219.7 860.8,197 
			854,171.8 833.4,177.9 		"/>
		<polygon style="fill:#001F39;" points="820.7,186.8 791.7,213.7 806.8,227.4 792.1,237.6 799,241.5 782.9,262.8 774.3,257.9 
			750.6,275 744.5,287.7 728.1,287.7 709.1,293.4 706.9,301.9 699.3,301.9 691.5,309.7 688.8,314.1 689,314.1 695.6,325.6 
			692.7,334.9 683.6,332.9 685.3,344.7 695.6,342 698.1,348.8 690,353.5 698.1,355.4 698.1,362.8 701.7,372.3 701.7,381.1 
			683.1,389.9 687.1,397 701.7,390.4 706.6,415.8 715.2,412.9 720.5,428 736.7,429.5 743.3,436.3 754.7,427.5 778.5,417.7 
			876.9,406 878.9,406.7 880.6,403.8 905.5,400.6 890.4,371.6 903.1,366.4 898,359.1 911.6,356.6 917,365.2 925.6,360.6 
			922.6,353.5 940.7,348.8 952,359.3 1144.5,302.6 1171.7,300 1217.6,142.3 1216.4,141.1 1185.3,131.1 1149.4,126.9 1126,129.4 
			1106.2,135 1072.2,147.2 1044.1,163.6 1010.9,190.2 988.4,208.1 978.1,214.4 957.6,221.5 915.3,231.8 882.8,219.1 860.8,196.3 
			854,171.2 833.4,177.3 		"/>
		<polygon style="fill:#01233C;" points="820.7,186.2 791.7,213 806.8,226.7 792.1,237 799,240.9 782.9,262.2 774.3,257.3 
			750.6,274.4 744.5,287.1 728.1,287.1 709.1,292.7 706.9,301.3 699.3,301.3 691.5,309.1 688.8,313.5 689,313.5 695.6,325 
			692.7,334.3 683.6,332.3 685.3,344 695.6,341.3 698.1,348.2 690,352.8 698.1,354.8 698.1,362.1 701.7,371.6 701.7,380.4 
			683.1,389.2 687.1,396.3 701.7,389.7 706.6,415.1 715.2,412.2 720.5,427.4 736.7,428.8 743.3,435.7 754.7,426.9 778.5,417.1 
			876.9,405.4 878.9,406.1 880.6,403.2 905.5,400 890.4,370.9 903.1,365.8 898,358.4 911.6,356 917,364.6 925.6,359.9 922.6,352.8 
			940.7,348.2 952,358.7 1144.5,302 1171.7,299.3 1217.6,141.7 1216.4,140.5 1185.3,130.4 1149.4,126.3 1126,128.7 1106.2,134.3 
			1072.2,146.6 1044.1,162.9 1010.9,189.6 988.4,207.4 978.1,213.8 957.6,220.9 915.3,231.1 882.8,218.4 860.8,195.7 854,170.5 
			833.4,176.6 		"/>
		<polygon style="fill:#01283F;" points="820.7,185.5 791.7,212.4 806.8,226.1 792.1,236.3 799,240.3 782.9,261.5 774.3,256.6 
			750.6,273.7 744.5,286.4 728.1,286.4 709.1,292.1 706.9,300.6 699.3,300.6 691.5,308.4 688.8,312.8 689,312.8 695.6,324.3 
			692.7,333.6 683.6,331.7 685.3,343.4 695.6,340.7 698.1,347.5 690,352.2 698.1,354.1 698.1,361.5 701.7,371 701.7,379.8 
			683.1,388.6 687.1,395.7 701.7,389.1 706.6,414.5 715.2,411.6 720.5,426.7 736.7,428.2 743.3,435 754.7,426.2 778.5,416.5 
			876.9,404.7 878.9,405.5 880.6,402.5 905.5,399.3 890.4,370.3 903.1,365.1 898,357.8 911.6,355.4 917,363.9 925.6,359.3 
			922.6,352.2 940.7,347.5 952,358 1144.5,301.3 1171.7,298.7 1217.6,141 1216.4,139.8 1185.3,129.8 1149.4,125.6 1126,128.1 
			1106.2,133.7 1072.2,145.9 1044.1,162.3 1010.9,188.9 988.4,206.8 978.1,213.1 957.6,220.2 915.3,230.5 882.8,217.8 860.8,195 
			854,169.9 833.4,176 		"/>
		<polygon style="fill:#012C42;" points="820.7,184.9 791.7,211.7 806.8,225.4 792.1,235.7 799,239.6 782.9,260.9 774.3,256 
			750.6,273.1 744.5,285.8 728.1,285.8 709.1,291.4 706.9,300 699.3,300 691.5,307.8 688.8,312.2 689,312.2 695.6,323.7 692.7,333 
			683.6,331 685.3,342.7 695.6,340 698.1,346.9 690,351.5 698.1,353.5 698.1,360.8 701.7,370.4 701.7,379.1 683.1,387.9 687.1,395 
			701.7,388.4 706.6,413.9 715.2,410.9 720.5,426.1 736.7,427.5 743.3,434.4 754.7,425.6 778.5,415.8 876.9,404.1 878.9,404.8 
			880.6,401.9 905.5,398.7 890.4,369.6 903.1,364.5 898,357.2 911.6,354.7 917,363.3 925.6,358.6 922.6,351.5 940.7,346.9 
			952,357.4 1144.5,300.7 1171.7,298 1217.6,140.4 1216.4,139.2 1185.3,129.1 1149.4,125 1126,127.4 1106.2,133.1 1072.2,145.3 
			1044.1,161.7 1010.9,188.3 988.4,206.1 978.1,212.5 957.6,219.6 915.3,229.8 882.8,217.1 860.8,194.4 854,169.2 833.4,175.3 		"/>
		<polygon style="fill:#023145;" points="820.7,184.2 791.7,211.1 806.8,224.8 792.1,235.1 799,239 782.9,260.2 774.3,255.3 
			750.6,272.4 744.5,285.2 728.1,285.2 709.1,290.8 706.9,299.3 699.3,299.3 691.5,307.1 688.8,311.5 689,311.5 695.6,323 
			692.7,332.3 683.6,330.4 685.3,342.1 695.6,339.4 698.1,346.2 690,350.9 698.1,352.8 698.1,360.2 701.7,369.7 701.7,378.5 
			683.1,387.3 687.1,394.4 701.7,387.8 706.6,413.2 715.2,410.3 720.5,425.4 736.7,426.9 743.3,433.7 754.7,424.9 778.5,415.2 
			876.9,403.4 878.9,404.2 880.6,401.2 905.5,398.1 890.4,369 903.1,363.8 898,356.5 911.6,354.1 917,362.6 925.6,358 922.6,350.9 
			940.7,346.2 952,356.8 1144.5,300.1 1171.7,297.4 1217.6,139.7 1216.4,138.5 1185.3,128.5 1149.4,124.3 1126,126.8 1106.2,132.4 
			1072.2,144.6 1044.1,161 1010.9,187.6 988.4,205.5 978.1,211.8 957.6,218.9 915.3,229.2 882.8,216.5 860.8,193.8 854,168.6 
			833.4,174.7 		"/>
		<polygon style="fill:#023548;" points="820.7,183.6 791.7,210.5 806.8,224.1 792.1,234.4 799,238.3 782.9,259.6 774.3,254.7 
			750.6,271.8 744.5,284.5 728.1,284.5 709.1,290.1 706.9,298.7 699.3,298.7 691.5,306.5 688.8,310.9 689,310.9 695.6,322.4 
			692.7,331.7 683.6,329.7 685.3,341.4 695.6,338.8 698.1,345.6 690,350.2 698.1,352.2 698.1,359.5 701.7,369.1 701.7,377.9 
			683.1,386.7 687.1,393.7 701.7,387.1 706.6,412.6 715.2,409.6 720.5,424.8 736.7,426.2 743.3,433.1 754.7,424.3 778.5,414.5 
			876.9,402.8 878.9,403.5 880.6,400.6 905.5,397.4 890.4,368.3 903.1,363.2 898,355.9 911.6,353.4 917,362 925.6,357.3 
			922.6,350.2 940.7,345.6 952,356.1 1144.5,299.4 1171.7,296.7 1217.6,139.1 1216.4,137.9 1185.3,127.9 1149.4,123.7 1126,126.1 
			1106.2,131.8 1072.2,144 1044.1,160.4 1010.9,187 988.4,204.8 978.1,211.2 957.6,218.3 915.3,228.5 882.8,215.8 860.8,193.1 
			854,167.9 833.4,174 		"/>
		<polygon style="fill:#023A4B;" points="820.7,182.9 791.7,209.8 806.8,223.5 792.1,233.8 799,237.7 782.9,258.9 774.3,254 
			750.6,271.2 744.5,283.9 728.1,283.9 709.1,289.5 706.9,298 699.3,298 691.5,305.9 688.8,310.3 689,310.3 695.6,321.7 692.7,331 
			683.6,329.1 685.3,340.8 695.6,338.1 698.1,345 690,349.6 698.1,351.6 698.1,358.9 701.7,368.4 701.7,377.2 683.1,386 
			687.1,393.1 701.7,386.5 706.6,411.9 715.2,409 720.5,424.1 736.7,425.6 743.3,432.4 754.7,423.6 778.5,413.9 876.9,402.1 
			878.9,402.9 880.6,399.9 905.5,396.8 890.4,367.7 903.1,362.6 898,355.2 911.6,352.8 917,361.3 925.6,356.7 922.6,349.6 
			940.7,345 952,355.5 1144.5,298.8 1171.7,296.1 1217.6,138.5 1216.4,137.2 1185.3,127.2 1149.4,123.1 1126,125.5 1106.2,131.1 
			1072.2,143.3 1044.1,159.7 1010.9,186.4 988.4,204.2 978.1,210.5 957.6,217.6 915.3,227.9 882.8,215.2 860.8,192.5 854,167.3 
			833.4,173.4 		"/>
		<polygon style="fill:#033F4D;" points="820.7,182.3 791.7,209.2 806.8,222.9 792.1,233.1 799,237 782.9,258.3 774.3,253.4 
			750.6,270.5 744.5,283.2 728.1,283.2 709.1,288.8 706.9,297.4 699.3,297.4 691.5,305.2 688.8,309.6 689,309.6 695.6,321.1 
			692.7,330.4 683.6,328.4 685.3,340.2 695.6,337.5 698.1,344.3 690,349 698.1,350.9 698.1,358.2 701.7,367.8 701.7,376.6 
			683.1,385.4 687.1,392.5 701.7,385.9 706.6,411.3 715.2,408.3 720.5,423.5 736.7,425 743.3,431.8 754.7,423 778.5,413.2 
			876.9,401.5 878.9,402.2 880.6,399.3 905.5,396.1 890.4,367 903.1,361.9 898,354.6 911.6,352.1 917,360.7 925.6,356 922.6,349 
			940.7,344.3 952,354.8 1144.5,298.1 1171.7,295.4 1217.6,137.8 1216.4,136.6 1185.3,126.6 1149.4,122.4 1126,124.9 1106.2,130.5 
			1072.2,142.7 1044.1,159.1 1010.9,185.7 988.4,203.5 978.1,209.9 957.6,217 915.3,227.3 882.8,214.5 860.8,191.8 854,166.6 
			833.4,172.8 		"/>
		<polygon style="fill:#034350;" points="820.7,181.6 791.7,208.5 806.8,222.2 792.1,232.5 799,236.4 782.9,257.6 774.3,252.8 
			750.6,269.9 744.5,282.6 728.1,282.6 709.1,288.2 706.9,296.7 699.3,296.7 691.5,304.6 688.8,309 689,309 695.6,320.4 
			692.7,329.7 683.6,327.8 685.3,339.5 695.6,336.8 698.1,343.7 690,348.3 698.1,350.3 698.1,357.6 701.7,367.1 701.7,375.9 
			683.1,384.7 687.1,391.8 701.7,385.2 706.6,410.6 715.2,407.7 720.5,422.8 736.7,424.3 743.3,431.2 754.7,422.4 778.5,412.6 
			876.9,400.8 878.9,401.6 880.6,398.7 905.5,395.5 890.4,366.4 903.1,361.3 898,353.9 911.6,351.5 917,360 925.6,355.4 
			922.6,348.3 940.7,343.7 952,354.2 1144.5,297.5 1171.7,294.8 1217.6,137.2 1216.4,135.9 1185.3,125.9 1149.4,121.8 1126,124.2 
			1106.2,129.8 1072.2,142.1 1044.1,158.4 1010.9,185.1 988.4,202.9 978.1,209.3 957.6,216.3 915.3,226.6 882.8,213.9 860.8,191.2 
			854,166 833.4,172.1 		"/>
		<polygon style="fill:#044853;" points="820.7,181 791.7,207.9 806.8,221.6 792.1,231.8 799,235.7 782.9,257 774.3,252.1 
			750.6,269.2 744.5,281.9 728.1,281.9 709.1,287.5 706.9,296.1 699.3,296.1 691.5,303.9 688.8,308.3 689,308.3 695.6,319.8 
			692.7,329.1 683.6,327.1 685.3,338.9 695.6,336.2 698.1,343 690,347.7 698.1,349.6 698.1,356.9 701.7,366.5 701.7,375.3 
			683.1,384.1 687.1,391.2 701.7,384.6 706.6,410 715.2,407 720.5,422.2 736.7,423.7 743.3,430.5 754.7,421.7 778.5,411.9 
			876.9,400.2 878.9,400.9 880.6,398 905.5,394.8 890.4,365.7 903.1,360.6 898,353.3 911.6,350.8 917,359.4 925.6,354.7 
			922.6,347.7 940.7,343 952,353.5 1144.5,296.8 1171.7,294.1 1217.6,136.5 1216.4,135.3 1185.3,125.3 1149.4,121.1 1126,123.6 
			1106.2,129.2 1072.2,141.4 1044.1,157.8 1010.9,184.4 988.4,202.3 978.1,208.6 957.6,215.7 915.3,226 882.8,213.3 860.8,190.5 
			854,165.4 833.4,171.5 		"/>
		<polygon style="fill:#044C56;" points="820.7,180.4 791.7,207.2 806.8,220.9 792.1,231.2 799,235.1 782.9,256.4 774.3,251.5 
			750.6,268.6 744.5,281.3 728.1,281.3 709.1,286.9 706.9,295.5 699.3,295.5 691.5,303.3 688.8,307.7 689,307.7 695.6,319.2 
			692.7,328.4 683.6,326.5 685.3,338.2 695.6,335.5 698.1,342.4 690,347 698.1,349 698.1,356.3 701.7,365.8 701.7,374.6 
			683.1,383.4 687.1,390.5 701.7,383.9 706.6,409.3 715.2,406.4 720.5,421.6 736.7,423 743.3,429.9 754.7,421.1 778.5,411.3 
			876.9,399.6 878.9,400.3 880.6,397.4 905.5,394.2 890.4,365.1 903.1,360 898,352.6 911.6,350.2 917,358.7 925.6,354.1 922.6,347 
			940.7,342.4 952,352.9 1144.5,296.2 1171.7,293.5 1217.6,135.9 1216.4,134.7 1185.3,124.6 1149.4,120.5 1126,122.9 1106.2,128.5 
			1072.2,140.8 1044.1,157.1 1010.9,183.8 988.4,201.6 978.1,208 957.6,215.1 915.3,225.3 882.8,212.6 860.8,189.9 854,164.7 
			833.4,170.8 		"/>
		<polygon style="fill:#045159;" points="820.7,179.7 791.7,206.6 806.8,220.3 792.1,230.5 799,234.4 782.9,255.7 774.3,250.8 
			750.6,267.9 744.5,280.6 728.1,280.6 709.1,286.3 706.9,294.8 699.3,294.8 691.5,302.6 688.8,307 689,307 695.6,318.5 
			692.7,327.8 683.6,325.8 685.3,337.6 695.6,334.9 698.1,341.7 690,346.4 698.1,348.3 698.1,355.7 701.7,365.2 701.7,374 
			683.1,382.8 687.1,389.9 701.7,383.3 706.6,408.7 715.2,405.8 720.5,420.9 736.7,422.4 743.3,429.2 754.7,420.4 778.5,410.6 
			876.9,398.9 878.9,399.6 880.6,396.7 905.5,393.5 890.4,364.5 903.1,359.3 898,352 911.6,349.5 917,358.1 925.6,353.5 
			922.6,346.4 940.7,341.7 952,352.2 1144.5,295.5 1171.7,292.9 1217.6,135.2 1216.4,134 1185.3,124 1149.4,119.8 1126,122.3 
			1106.2,127.9 1072.2,140.1 1044.1,156.5 1010.9,183.1 988.4,201 978.1,207.3 957.6,214.4 915.3,224.7 882.8,212 860.8,189.2 
			854,164.1 833.4,170.2 		"/>
		<polygon style="fill:#05565C;" points="820.7,179.1 791.7,205.9 806.8,219.6 792.1,229.9 799,233.8 782.9,255.1 774.3,250.2 
			750.6,267.3 744.5,280 728.1,280 709.1,285.6 706.9,294.2 699.3,294.2 691.5,302 688.8,306.4 689,306.4 695.6,317.9 692.7,327.2 
			683.6,325.2 685.3,336.9 695.6,334.2 698.1,341.1 690,345.7 698.1,347.7 698.1,355 701.7,364.5 701.7,373.3 683.1,382.1 
			687.1,389.2 701.7,382.6 706.6,408 715.2,405.1 720.5,420.3 736.7,421.7 743.3,428.6 754.7,419.8 778.5,410 876.9,398.3 
			878.9,399 880.6,396.1 905.5,392.9 890.4,363.8 903.1,358.7 898,351.3 911.6,348.9 917,357.5 925.6,352.8 922.6,345.7 
			940.7,341.1 952,351.6 1144.5,294.9 1171.7,292.2 1217.6,134.6 1216.4,133.4 1185.3,123.3 1149.4,119.2 1126,121.6 1106.2,127.3 
			1072.2,139.5 1044.1,155.8 1010.9,182.5 988.4,200.3 978.1,206.7 957.6,213.8 915.3,224 882.8,211.3 860.8,188.6 854,163.4 
			833.4,169.5 		"/>
		<polygon style="fill:#055A5F;" points="820.7,178.4 791.7,205.3 806.8,219 792.1,229.2 799,233.2 782.9,254.4 774.3,249.5 
			750.6,266.6 744.5,279.3 728.1,279.3 709.1,285 706.9,293.5 699.3,293.5 691.5,301.3 688.8,305.7 689,305.7 695.6,317.2 
			692.7,326.5 683.6,324.6 685.3,336.3 695.6,333.6 698.1,340.4 690,345.1 698.1,347 698.1,354.4 701.7,363.9 701.7,372.7 
			683.1,381.5 687.1,388.6 701.7,382 706.6,407.4 715.2,404.5 720.5,419.6 736.7,421.1 743.3,427.9 754.7,419.1 778.5,409.4 
			876.9,397.6 878.9,398.4 880.6,395.4 905.5,392.2 890.4,363.2 903.1,358 898,350.7 911.6,348.3 917,356.8 925.6,352.2 
			922.6,345.1 940.7,340.4 952,350.9 1144.5,294.3 1171.7,291.6 1217.6,133.9 1216.4,132.7 1185.3,122.7 1149.4,118.5 1126,121 
			1106.2,126.6 1072.2,138.8 1044.1,155.2 1010.9,181.8 988.4,199.7 978.1,206 957.6,213.1 915.3,223.4 882.8,210.7 860.8,187.9 
			854,162.8 833.4,168.9 		"/>
		<polygon style="fill:#055F62;" points="820.7,177.8 791.7,204.7 806.8,218.3 792.1,228.6 799,232.5 782.9,253.8 774.3,248.9 
			750.6,266 744.5,278.7 728.1,278.7 709.1,284.3 706.9,292.9 699.3,292.9 691.5,300.7 688.8,305.1 689,305.1 695.6,316.6 
			692.7,325.9 683.6,323.9 685.3,335.6 695.6,333 698.1,339.8 690,344.4 698.1,346.4 698.1,353.7 701.7,363.3 701.7,372.1 
			683.1,380.8 687.1,387.9 701.7,381.3 706.6,406.8 715.2,403.8 720.5,419 736.7,420.4 743.3,427.3 754.7,418.5 778.5,408.7 
			876.9,397 878.9,397.7 880.6,394.8 905.5,391.6 890.4,362.5 903.1,357.4 898,350.1 911.6,347.6 917,356.2 925.6,351.5 
			922.6,344.4 940.7,339.8 952,350.3 1144.5,293.6 1171.7,290.9 1217.6,133.3 1216.4,132.1 1185.3,122.1 1149.4,117.9 1126,120.3 
			1106.2,126 1072.2,138.2 1044.1,154.6 1010.9,181.2 988.4,199 978.1,205.4 957.6,212.5 915.3,222.7 882.8,210 860.8,187.3 
			854,162.1 833.4,168.2 		"/>
		<polygon style="fill:#066365;" points="820.7,177.1 791.7,204 806.8,217.7 792.1,228 799,231.9 782.9,253.1 774.3,248.2 
			750.6,265.3 744.5,278.1 728.1,278.1 709.1,283.7 706.9,292.2 699.3,292.2 691.5,300 688.8,304.4 689,304.4 695.6,315.9 
			692.7,325.2 683.6,323.3 685.3,335 695.6,332.3 698.1,339.1 690,343.8 698.1,345.7 698.1,353.1 701.7,362.6 701.7,371.4 
			683.1,380.2 687.1,387.3 701.7,380.7 706.6,406.1 715.2,403.2 720.5,418.3 736.7,419.8 743.3,426.6 754.7,417.8 778.5,408.1 
			876.9,396.3 878.9,397.1 880.6,394.1 905.5,391 890.4,361.9 903.1,356.7 898,349.4 911.6,347 917,355.5 925.6,350.9 922.6,343.8 
			940.7,339.1 952,349.7 1144.5,293 1171.7,290.3 1217.6,132.6 1216.4,131.4 1185.3,121.4 1149.4,117.3 1126,119.7 1106.2,125.3 
			1072.2,137.5 1044.1,153.9 1010.9,180.5 988.4,198.4 978.1,204.7 957.6,211.8 915.3,222.1 882.8,209.4 860.8,186.7 854,161.5 
			833.4,167.6 		"/>
		<polygon style="fill:#066868;" points="820.7,176.5 791.7,203.4 806.8,217 792.1,227.3 799,231.2 782.9,252.5 774.3,247.6 
			750.6,264.7 744.5,277.4 728.1,277.4 709.1,283 706.9,291.6 699.3,291.6 691.5,299.4 688.8,303.8 689,303.8 695.6,315.3 
			692.7,324.6 683.6,322.6 685.3,334.3 695.6,331.7 698.1,338.5 690,343.1 698.1,345.1 698.1,352.4 701.7,362 701.7,370.8 
			683.1,379.6 687.1,386.6 701.7,380 706.6,405.5 715.2,402.5 720.5,417.7 736.7,419.1 743.3,426 754.7,417.2 778.5,407.4 
			876.9,395.7 878.9,396.4 880.6,393.5 905.5,390.3 890.4,361.2 903.1,356.1 898,348.8 911.6,346.3 917,354.9 925.6,350.2 
			922.6,343.1 940.7,338.5 952,349 1144.5,292.3 1171.7,289.6 1217.6,132 1216.4,130.8 1185.3,120.8 1149.4,116.6 1126,119.1 
			1106.2,124.7 1072.2,136.9 1044.1,153.3 1010.9,179.9 988.4,197.7 978.1,204.1 957.6,211.2 915.3,221.4 882.8,208.7 860.8,186 
			854,160.8 833.4,166.9 		"/>
		<polygon style="fill:#066C6B;" points="820.7,175.8 791.7,202.7 806.8,216.4 792.1,226.7 799,230.6 782.9,251.8 774.3,246.9 
			750.6,264.1 744.5,276.8 728.1,276.8 709.1,282.4 706.9,290.9 699.3,290.9 691.5,298.8 688.8,303.2 689,303.2 695.6,314.6 
			692.7,323.9 683.6,322 685.3,333.7 695.6,331 698.1,337.9 690,342.5 698.1,344.5 698.1,351.8 701.7,361.3 701.7,370.1 
			683.1,378.9 687.1,386 701.7,379.4 706.6,404.8 715.2,401.9 720.5,417 736.7,418.5 743.3,425.3 754.7,416.5 778.5,406.8 
			876.9,395 878.9,395.8 880.6,392.8 905.5,389.7 890.4,360.6 903.1,355.5 898,348.1 911.6,345.7 917,354.2 925.6,349.6 
			922.6,342.5 940.7,337.9 952,348.4 1144.5,291.7 1171.7,289 1217.6,131.4 1216.4,130.1 1185.3,120.1 1149.4,116 1126,118.4 
			1106.2,124 1072.2,136.2 1044.1,152.6 1010.9,179.3 988.4,197.1 978.1,203.5 957.6,210.5 915.3,220.8 882.8,208.1 860.8,185.4 
			854,160.2 833.4,166.3 		"/>
		<polygon style="fill:#07716E;" points="820.7,175.2 791.7,202.1 806.8,215.8 792.1,226 799,229.9 782.9,251.2 774.3,246.3 
			750.6,263.4 744.5,276.1 728.1,276.1 709.1,281.7 706.9,290.3 699.3,290.3 691.5,298.1 688.8,302.5 689,302.5 695.6,314 
			692.7,323.3 683.6,321.3 685.3,333.1 695.6,330.4 698.1,337.2 690,341.9 698.1,343.8 698.1,351.1 701.7,360.7 701.7,369.5 
			683.1,378.3 687.1,385.4 701.7,378.8 706.6,404.2 715.2,401.2 720.5,416.4 736.7,417.9 743.3,424.7 754.7,415.9 778.5,406.1 
			876.9,394.4 878.9,395.1 880.6,392.2 905.5,389 890.4,359.9 903.1,354.8 898,347.5 911.6,345 917,353.6 925.6,348.9 922.6,341.9 
			940.7,337.2 952,347.7 1144.5,291 1171.7,288.3 1217.6,130.7 1216.4,129.5 1185.3,119.5 1149.4,115.3 1126,117.8 1106.2,123.4 
			1072.2,135.6 1044.1,152 1010.9,178.6 988.4,196.5 978.1,202.8 957.6,209.9 915.3,220.2 882.8,207.4 860.8,184.7 854,159.6 
			833.4,165.7 		"/>
		<polygon style="fill:#077671;" points="820.7,174.5 791.7,201.4 806.8,215.1 792.1,225.4 799,229.3 782.9,250.5 774.3,245.7 
			750.6,262.8 744.5,275.5 728.1,275.5 709.1,281.1 706.9,289.6 699.3,289.6 691.5,297.5 688.8,301.9 689,301.9 695.6,313.4 
			692.7,322.6 683.6,320.7 685.3,332.4 695.6,329.7 698.1,336.6 690,341.2 698.1,343.2 698.1,350.5 701.7,360 701.7,368.8 
			683.1,377.6 687.1,384.7 701.7,378.1 706.6,403.5 715.2,400.6 720.5,415.7 736.7,417.2 743.3,424.1 754.7,415.3 778.5,405.5 
			876.9,393.8 878.9,394.5 880.6,391.6 905.5,388.4 890.4,359.3 903.1,354.2 898,346.8 911.6,344.4 917,352.9 925.6,348.3 
			922.6,341.2 940.7,336.6 952,347.1 1144.5,290.4 1171.7,287.7 1217.6,130.1 1216.4,128.8 1185.3,118.8 1149.4,114.7 1126,117.1 
			1106.2,122.7 1072.2,135 1044.1,151.3 1010.9,178 988.4,195.8 978.1,202.2 957.6,209.2 915.3,219.5 882.8,206.8 860.8,184.1 
			854,158.9 833.4,165 		"/>
		<polygon style="fill:#077A74;" points="820.7,173.9 791.7,200.8 806.8,214.5 792.1,224.7 799,228.6 782.9,249.9 774.3,245 
			750.6,262.1 744.5,274.8 728.1,274.8 709.1,280.4 706.9,289 699.3,289 691.5,296.8 688.8,301.2 689,301.2 695.6,312.7 692.7,322 
			683.6,320 685.3,331.8 695.6,329.1 698.1,335.9 690,340.6 698.1,342.5 698.1,349.9 701.7,359.4 701.7,368.2 683.1,377 
			687.1,384.1 701.7,377.5 706.6,402.9 715.2,400 720.5,415.1 736.7,416.6 743.3,423.4 754.7,414.6 778.5,404.8 876.9,393.1 
			878.9,393.8 880.6,390.9 905.5,387.7 890.4,358.7 903.1,353.5 898,346.2 911.6,343.7 917,352.3 925.6,347.7 922.6,340.6 
			940.7,335.9 952,346.4 1144.5,289.7 1171.7,287 1217.6,129.4 1216.4,128.2 1185.3,118.2 1149.4,114 1126,116.5 1106.2,122.1 
			1072.2,134.3 1044.1,150.7 1010.9,177.3 988.4,195.2 978.1,201.5 957.6,208.6 915.3,218.9 882.8,206.2 860.8,183.4 854,158.3 
			833.4,164.4 		"/>
		<polygon style="fill:#087F77;" points="820.7,173.3 791.7,200.1 806.8,213.8 792.1,224.1 799,228 782.9,249.3 774.3,244.4 
			750.6,261.5 744.5,274.2 728.1,274.2 709.1,279.8 706.9,288.4 699.3,288.4 691.5,296.2 688.8,300.6 689,300.6 695.6,312.1 
			692.7,321.3 683.6,319.4 685.3,331.1 695.6,328.4 698.1,335.3 690,339.9 698.1,341.9 698.1,349.2 701.7,358.7 701.7,367.5 
			683.1,376.3 687.1,383.4 701.7,376.8 706.6,402.2 715.2,399.3 720.5,414.5 736.7,415.9 743.3,422.8 754.7,414 778.5,404.2 
			876.9,392.5 878.9,393.2 880.6,390.3 905.5,387.1 890.4,358 903.1,352.9 898,345.5 911.6,343.1 917,351.7 925.6,347 922.6,339.9 
			940.7,335.3 952,345.8 1144.5,289.1 1171.7,286.4 1217.6,128.8 1216.4,127.6 1185.3,117.5 1149.4,113.4 1126,115.8 1106.2,121.4 
			1072.2,133.7 1044.1,150 1010.9,176.7 988.4,194.5 978.1,200.9 957.6,208 915.3,218.2 882.8,205.5 860.8,182.8 854,157.6 
			833.4,163.7 		"/>
		<polygon style="fill:#08837A;" points="820.7,172.6 791.7,199.5 806.8,213.2 792.1,223.4 799,227.4 782.9,248.6 774.3,243.7 
			750.6,260.8 744.5,273.5 728.1,273.5 709.1,279.2 706.9,287.7 699.3,287.7 691.5,295.5 688.8,299.9 689,299.9 695.6,311.4 
			692.7,320.7 683.6,318.7 685.3,330.5 695.6,327.8 698.1,334.6 690,339.3 698.1,341.2 698.1,348.6 701.7,358.1 701.7,366.9 
			683.1,375.7 687.1,382.8 701.7,376.2 706.6,401.6 715.2,398.7 720.5,413.8 736.7,415.3 743.3,422.1 754.7,413.3 778.5,403.5 
			876.9,391.8 878.9,392.6 880.6,389.6 905.5,386.4 890.4,357.4 903.1,352.2 898,344.9 911.6,342.5 917,351 925.6,346.4 
			922.6,339.3 940.7,334.6 952,345.1 1144.5,288.4 1171.7,285.8 1217.6,128.1 1216.4,126.9 1185.3,116.9 1149.4,112.7 1126,115.2 
			1106.2,120.8 1072.2,133 1044.1,149.4 1010.9,176 988.4,193.9 978.1,200.2 957.6,207.3 915.3,217.6 882.8,204.9 860.8,182.1 
			854,157 833.4,163.1 		"/>
		<polygon style="fill:#09887C;" points="820.7,172 791.7,198.8 806.8,212.5 792.1,222.8 799,226.7 782.9,248 774.3,243.1 
			750.6,260.2 744.5,272.9 728.1,272.9 709.1,278.5 706.9,287.1 699.3,287.1 691.5,294.9 688.8,299.3 689,299.3 695.6,310.8 
			692.7,320.1 683.6,318.1 685.3,329.8 695.6,327.1 698.1,334 690,338.6 698.1,340.6 698.1,347.9 701.7,357.4 701.7,366.2 
			683.1,375 687.1,382.1 701.7,375.5 706.6,400.9 715.2,398 720.5,413.2 736.7,414.6 743.3,421.5 754.7,412.7 778.5,402.9 
			876.9,391.2 878.9,391.9 880.6,389 905.5,385.8 890.4,356.7 903.1,351.6 898,344.3 911.6,341.8 917,350.4 925.6,345.7 
			922.6,338.6 940.7,334 952,344.5 1144.5,287.8 1171.7,285.1 1217.6,127.5 1216.4,126.3 1185.3,116.2 1149.4,112.1 1126,114.5 
			1106.2,120.2 1072.2,132.4 1044.1,148.7 1010.9,175.4 988.4,193.2 978.1,199.6 957.6,206.7 915.3,216.9 882.8,204.2 860.8,181.5 
			854,156.3 833.4,162.4 		"/>
		<polygon style="fill:#098D7F;" points="820.7,171.3 791.7,198.2 806.8,211.9 792.1,222.2 799,226.1 782.9,247.3 774.3,242.4 
			750.6,259.5 744.5,272.2 728.1,272.2 709.1,277.9 706.9,286.4 699.3,286.4 691.5,294.2 688.8,298.6 689,298.6 695.6,310.1 
			692.7,319.4 683.6,317.5 685.3,329.2 695.6,326.5 698.1,333.3 690,338 698.1,339.9 698.1,347.3 701.7,356.8 701.7,365.6 
			683.1,374.4 687.1,381.5 701.7,374.9 706.6,400.3 715.2,397.4 720.5,412.5 736.7,414 743.3,420.8 754.7,412 778.5,402.3 
			876.9,390.5 878.9,391.3 880.6,388.3 905.5,385.2 890.4,356.1 903.1,350.9 898,343.6 911.6,341.2 917,349.7 925.6,345.1 
			922.6,338 940.7,333.3 952,343.9 1144.5,287.2 1171.7,284.5 1217.6,126.8 1216.4,125.6 1185.3,115.6 1149.4,111.4 1126,113.9 
			1106.2,119.5 1072.2,131.7 1044.1,148.1 1010.9,174.7 988.4,192.6 978.1,198.9 957.6,206 915.3,216.3 882.8,203.6 860.8,180.9 
			854,155.7 833.4,161.8 		"/>
		<polygon style="fill:#099182;" points="820.7,170.7 791.7,197.6 806.8,211.2 792.1,221.5 799,225.4 782.9,246.7 774.3,241.8 
			750.6,258.9 744.5,271.6 728.1,271.6 709.1,277.2 706.9,285.8 699.3,285.8 691.5,293.6 688.8,298 689,298 695.6,309.5 
			692.7,318.8 683.6,316.8 685.3,328.5 695.6,325.9 698.1,332.7 690,337.3 698.1,339.3 698.1,346.6 701.7,356.2 701.7,365 
			683.1,373.8 687.1,380.8 701.7,374.2 706.6,399.7 715.2,396.7 720.5,411.9 736.7,413.3 743.3,420.2 754.7,411.4 778.5,401.6 
			876.9,389.9 878.9,390.6 880.6,387.7 905.5,384.5 890.4,355.4 903.1,350.3 898,343 911.6,340.5 917,349.1 925.6,344.4 
			922.6,337.3 940.7,332.7 952,343.2 1144.5,286.5 1171.7,283.8 1217.6,126.2 1216.4,125 1185.3,115 1149.4,110.8 1126,113.2 
			1106.2,118.9 1072.2,131.1 1044.1,147.5 1010.9,174.1 988.4,191.9 978.1,198.3 957.6,205.4 915.3,215.6 882.8,202.9 860.8,180.2 
			854,155 833.4,161.1 		"/>
		<polygon style="fill:#0A9685;" points="820.7,170 791.7,196.9 806.8,210.6 792.1,220.9 799,224.8 782.9,246 774.3,241.1 
			750.6,258.2 744.5,271 728.1,271 709.1,276.6 706.9,285.1 699.3,285.1 691.5,293 688.8,297.4 689,297.4 695.6,308.8 692.7,318.1 
			683.6,316.2 685.3,327.9 695.6,325.2 698.1,332.1 690,336.7 698.1,338.7 698.1,346 701.7,355.5 701.7,364.3 683.1,373.1 
			687.1,380.2 701.7,373.6 706.6,399 715.2,396.1 720.5,411.2 736.7,412.7 743.3,419.5 754.7,410.7 778.5,401 876.9,389.2 
			878.9,390 880.6,387 905.5,383.9 890.4,354.8 903.1,349.6 898,342.3 911.6,339.9 917,348.4 925.6,343.8 922.6,336.7 940.7,332.1 
			952,342.6 1144.5,285.9 1171.7,283.2 1217.6,125.6 1216.4,124.3 1185.3,114.3 1149.4,110.2 1126,112.6 1106.2,118.2 1072.2,130.4 
			1044.1,146.8 1010.9,173.5 988.4,191.3 978.1,197.6 957.6,204.7 915.3,215 882.8,202.3 860.8,179.6 854,154.4 833.4,160.5 		"/>
		<polygon style="fill:#0A9A88;" points="820.7,169.4 791.7,196.3 806.8,210 792.1,220.2 799,224.1 782.9,245.4 774.3,240.5 
			750.6,257.6 744.5,270.3 728.1,270.3 709.1,275.9 706.9,284.5 699.3,284.5 691.5,292.3 688.8,296.7 689,296.7 695.6,308.2 
			692.7,317.5 683.6,315.5 685.3,327.3 695.6,324.6 698.1,331.4 690,336.1 698.1,338 698.1,345.3 701.7,354.9 701.7,363.7 
			683.1,372.5 687.1,379.5 701.7,373 706.6,398.4 715.2,395.4 720.5,410.6 736.7,412.1 743.3,418.9 754.7,410.1 778.5,400.3 
			876.9,388.6 878.9,389.3 880.6,386.4 905.5,383.2 890.4,354.1 903.1,349 898,341.7 911.6,339.2 917,347.8 925.6,343.1 
			922.6,336.1 940.7,331.4 952,341.9 1144.5,285.2 1171.7,282.5 1217.6,124.9 1216.4,123.7 1185.3,113.7 1149.4,109.5 1126,112 
			1106.2,117.6 1072.2,129.8 1044.1,146.2 1010.9,172.8 988.4,190.6 978.1,197 957.6,204.1 915.3,214.3 882.8,201.6 860.8,178.9 
			854,153.7 833.4,159.9 		"/>
		<polygon style="fill:#0A9F8B;" points="820.7,168.7 791.7,195.6 806.8,209.3 792.1,219.6 799,223.5 782.9,244.7 774.3,239.9 
			750.6,257 744.5,269.7 728.1,269.7 709.1,275.3 706.9,283.8 699.3,283.8 691.5,291.7 688.8,296.1 689,296.1 695.6,307.5 
			692.7,316.8 683.6,314.9 685.3,326.6 695.6,323.9 698.1,330.8 690,335.4 698.1,337.4 698.1,344.7 701.7,354.2 701.7,363 
			683.1,371.8 687.1,378.9 701.7,372.3 706.6,397.7 715.2,394.8 720.5,409.9 736.7,411.4 743.3,418.2 754.7,409.5 778.5,399.7 
			876.9,387.9 878.9,388.7 880.6,385.7 905.5,382.6 890.4,353.5 903.1,348.4 898,341 911.6,338.6 917,347.1 925.6,342.5 
			922.6,335.4 940.7,330.8 952,341.3 1144.5,284.6 1171.7,281.9 1217.6,124.3 1216.4,123 1185.3,113 1149.4,108.9 1126,111.3 
			1106.2,116.9 1072.2,129.1 1044.1,145.5 1010.9,172.2 988.4,190 978.1,196.4 957.6,203.4 915.3,213.7 882.8,201 860.8,178.3 
			854,153.1 833.4,159.2 		"/>
		<polygon style="fill:#0BA38E;" points="820.7,168.1 791.7,195 806.8,208.7 792.1,218.9 799,222.8 782.9,244.1 774.3,239.2 
			750.6,256.3 744.5,269 728.1,269 709.1,274.6 706.9,283.2 699.3,283.2 691.5,291 688.8,295.4 689,295.4 695.6,306.9 692.7,316.2 
			683.6,314.2 685.3,326 695.6,323.3 698.1,330.1 690,334.8 698.1,336.7 698.1,344 701.7,353.6 701.7,362.4 683.1,371.2 
			687.1,378.3 701.7,371.7 706.6,397.1 715.2,394.1 720.5,409.3 736.7,410.8 743.3,417.6 754.7,408.8 778.5,399 876.9,387.3 
			878.9,388 880.6,385.1 905.5,381.9 890.4,352.8 903.1,347.7 898,340.4 911.6,337.9 917,346.5 925.6,341.8 922.6,334.8 
			940.7,330.1 952,340.6 1144.5,283.9 1171.7,281.2 1217.6,123.6 1216.4,122.4 1185.3,112.4 1149.4,108.2 1126,110.7 1106.2,116.3 
			1072.2,128.5 1044.1,144.9 1010.9,171.5 988.4,189.4 978.1,195.7 957.6,202.8 915.3,213.1 882.8,200.4 860.8,177.6 854,152.5 
			833.4,158.6 		"/>
		<polygon style="fill:#0BA891;" points="820.7,167.4 791.7,194.3 806.8,208 792.1,218.3 799,222.2 782.9,243.5 774.3,238.6 
			750.6,255.7 744.5,268.4 728.1,268.4 709.1,274 706.9,282.6 699.3,282.6 691.5,290.4 688.8,294.8 689,294.8 695.6,306.3 
			692.7,315.5 683.6,313.6 685.3,325.3 695.6,322.6 698.1,329.5 690,334.1 698.1,336.1 698.1,343.4 701.7,352.9 701.7,361.7 
			683.1,370.5 687.1,377.6 701.7,371 706.6,396.4 715.2,393.5 720.5,408.7 736.7,410.1 743.3,417 754.7,408.2 778.5,398.4 
			876.9,386.7 878.9,387.4 880.6,384.5 905.5,381.3 890.4,352.2 903.1,347.1 898,339.7 911.6,337.3 917,345.8 925.6,341.2 
			922.6,334.1 940.7,329.5 952,340 1144.5,283.3 1171.7,280.6 1217.6,123 1216.4,121.7 1185.3,111.7 1149.4,107.6 1126,110 
			1106.2,115.6 1072.2,127.9 1044.1,144.2 1010.9,170.9 988.4,188.7 978.1,195.1 957.6,202.2 915.3,212.4 882.8,199.7 860.8,177 
			854,151.8 833.4,157.9 		"/>
	</g>
	<g>
		<path style="fill:#CDEFF9;" d="M805.9,290.3h9.4c0.2-2.5,0.3-4.9,0.3-7.2h3.3c0,2.2-0.1,4.6-0.2,7.2h17.7v3.2h-11.1v10
			c2.3-2.2,4.2-4.8,5.7-7.8l2.9,1.5c-2.3,4.3-5.1,7.8-8.6,10.5v1.8c0,1,0.4,1.5,1.3,1.5h4.9c0.5,0,0.9-0.2,1.2-0.7
			c0.3-0.5,0.5-2.1,0.6-4.8l3.1,1c-0.3,3.7-0.7,5.9-1.4,6.5c-0.6,0.7-1.6,1-2.9,1h-6.5c-2.4,0-3.6-1.3-3.6-3.9v-0.3
			c-1.5,0.9-3.2,1.7-5.1,2.4l-1.8-2.8c2.6-0.9,4.9-2.1,6.9-3.5v-12.7h-3.6c-0.3,2.3-0.6,4.5-1.1,6.5c-1.4,6-4.6,10.9-9.7,14.7
			l-2.3-2.8c4.4-3.4,7.4-7.6,8.7-12.6c0.5-1.9,0.8-3.9,1.1-5.9h-9.1V290.3z M826.2,283.1c2.4,1.5,4.5,3,6.2,4.6l-2.3,2.3
			c-1.4-1.4-3.4-3-6.1-4.8L826.2,283.1z"/>
		<path style="fill:#CDEFF9;" d="M841.7,291.7c2.5,1.8,4.6,3.4,6.1,5.1l-2.3,2.3c-1.5-1.6-3.5-3.3-6.1-5.1L841.7,291.7z M848.3,302
			c-1.6,4.4-3.5,8.5-5.4,12.3l-3-1.3c2.1-3.8,4-7.8,5.6-12.1L848.3,302z M842.7,283.6c2.4,1.6,4.4,3.3,6.1,4.9l-2.3,2.3
			c-1.5-1.6-3.5-3.2-6.2-5L842.7,283.6z M858.5,288.1h-8.3V285h19.5v3.1h-8v22.3h9.2v3.1h-22.4v-3.1h10V288.1z"/>
		<path style="fill:#CDEFF9;" d="M881.7,302.7c-0.8,5-2.4,8.8-4.9,11.5l-2.4-2.1c3-3.3,4.5-8.5,4.5-15.6v-12.9h3.3v7.7h10v-8.1h3.1
			v8.1h9.2v3.1h-22.3v2c0,0.7,0,1.8-0.1,3.1h15.6v15.2h-3.3v-12.1H881.7z"/>
		<path style="fill:#CDEFF9;" d="M910.2,284.5h27.4v3.1h-24.3v22.7h25.4v3.1h-28.5V284.5z M918.2,289.9c3.2,2.4,6,4.7,8.5,6.9
			c1.8-2.4,3.3-5.1,4.6-8l2.9,1.6c-1.4,3.3-3.1,6.2-5,8.7c2.5,2.3,4.8,4.5,6.8,6.8l-2.5,2.5c-1.9-2.3-4.1-4.6-6.5-6.8
			c-2.8,3-6.2,5.4-10,7l-1.9-2.9c3.6-1.5,6.8-3.6,9.4-6.4c-2.5-2.2-5.4-4.6-8.7-7.1L918.2,289.9z"/>
	</g>
</g>
</svg>
