<?xml version="1.0" encoding="utf-8"?>
<!-- Generator: Adobe Illustrator 17.0.0, SVG Export Plug-In . SVG Version: 6.00 Build 0)  -->
<!DOCTYPE svg PUBLIC "-//W3C//DTD SVG 1.1//EN" "http://www.w3.org/Graphics/SVG/1.1/DTD/svg11.dtd">
<svg version="1.1" id="图层_1" xmlns="http://www.w3.org/2000/svg" xmlns:xlink="http://www.w3.org/1999/xlink" x="0px" y="0px"
	 preserveAspectRatio="none" viewBox="0 0 2000 1300" style="enable-background:new 0 0 2000 1300;" xml:space="preserve">
<g>
	<g>
		<polygon style="fill:#001A36;" points="1102.3,969.5 1125.7,975.6 1131.6,960.7 1148.9,951.4 1158.5,948.2 1164.1,941.8 
			1171.9,941.8 1178,949.7 1189.5,950.9 1197.1,959.4 1190.2,968 1198.8,972.1 1206.1,959.4 1202,928.2 1210,911.3 1217.6,906.9 
			1226.2,906.9 1237.2,898.3 1242.5,898.3 1250.6,894.7 1255,882.5 1262.1,886.9 1269.4,874.6 1302.2,842.1 1298.7,840.2 
			1231.3,689.2 1143.3,720.9 1133.5,720.9 1121.1,723.1 1109.1,738.5 1110.6,749.5 1068.5,773.5 1073.4,775.7 1070.5,794 
			1063.9,801.3 1062.9,831.1 1079,834.6 1069,882.2 1071.5,931.6 1072.4,974.8 1081,968 		"/>
		<polygon style="fill:#001F39;" points="1102.3,968.8 1125.7,974.9 1131.6,960 1148.9,950.7 1158.5,947.6 1164.1,941.2 
			1171.9,941.2 1178,949 1189.5,950.2 1197.1,958.8 1190.2,967.3 1198.8,971.5 1206.1,958.8 1202,927.5 1210,910.7 1217.6,906.3 
			1226.2,906.3 1237.2,897.7 1242.5,897.7 1250.6,894 1255,881.8 1262.1,886.2 1269.4,874 1302.2,841.5 1298.7,839.5 1231.3,688.5 
			1143.3,720.3 1133.5,720.3 1121.1,722.5 1109.1,737.9 1110.6,748.9 1068.5,772.8 1073.4,775 1070.5,793.4 1063.9,800.7 
			1062.9,830.5 1079,833.9 1069,881.6 1071.5,930.9 1072.4,974.2 1081,967.3 		"/>
		<polygon style="fill:#01233C;" points="1102.3,968.2 1125.7,974.3 1131.6,959.4 1148.9,950.1 1158.5,946.9 1164.1,940.6 
			1171.9,940.6 1178,948.4 1189.5,949.6 1197.1,958.1 1190.2,966.7 1198.8,970.9 1206.1,958.1 1202,926.9 1210,910 1217.6,905.6 
			1226.2,905.6 1237.2,897.1 1242.5,897.1 1250.6,893.4 1255,881.2 1262.1,885.6 1269.4,873.4 1302.2,840.8 1298.7,838.9 
			1231.3,687.9 1143.3,719.6 1133.5,719.6 1121.1,721.8 1109.1,737.2 1110.6,748.2 1068.5,772.2 1073.4,774.4 1070.5,792.7 
			1063.9,800 1062.9,829.9 1079,833.3 1069,880.9 1071.5,930.3 1072.4,973.5 1081,966.7 		"/>
		<polygon style="fill:#01283F;" points="1102.3,967.5 1125.7,973.6 1131.6,958.7 1148.9,949.4 1158.5,946.3 1164.1,939.9 
			1171.9,939.9 1178,947.7 1189.5,949 1197.1,957.5 1190.2,966.1 1198.8,970.2 1206.1,957.5 1202,926.2 1210,909.4 1217.6,905 
			1226.2,905 1237.2,896.4 1242.5,896.4 1250.6,892.7 1255,880.5 1262.1,884.9 1269.4,872.7 1302.2,840.2 1298.7,838.2 
			1231.3,687.2 1143.3,719 1133.5,719 1121.1,721.2 1109.1,736.6 1110.6,747.6 1068.5,771.5 1073.4,773.7 1070.5,792.1 
			1063.9,799.4 1062.9,829.2 1079,832.6 1069,880.3 1071.5,929.6 1072.4,972.9 1081,966.1 		"/>
		<polygon style="fill:#012C42;" points="1102.3,966.9 1125.7,973 1131.6,958.1 1148.9,948.8 1158.5,945.6 1164.1,939.3 
			1171.9,939.3 1178,947.1 1189.5,948.3 1197.1,956.9 1190.2,965.4 1198.8,969.6 1206.1,956.9 1202,925.6 1210,908.7 1217.6,904.3 
			1226.2,904.3 1237.2,895.8 1242.5,895.8 1250.6,892.1 1255,879.9 1262.1,884.3 1269.4,872.1 1302.2,839.6 1298.7,837.6 
			1231.3,686.6 1143.3,718.3 1133.5,718.3 1121.1,720.5 1109.1,735.9 1110.6,746.9 1068.5,770.9 1073.4,773.1 1070.5,791.4 
			1063.9,798.7 1062.9,828.6 1079,832 1069,879.6 1071.5,929 1072.4,972.3 1081,965.4 		"/>
		<polygon style="fill:#023145;" points="1102.3,966.2 1125.7,972.3 1131.6,957.4 1148.9,948.1 1158.5,945 1164.1,938.6 
			1171.9,938.6 1178,946.4 1189.5,947.7 1197.1,956.2 1190.2,964.8 1198.8,968.9 1206.1,956.2 1202,924.9 1210,908.1 1217.6,903.7 
			1226.2,903.7 1237.2,895.1 1242.5,895.1 1250.6,891.5 1255,879.2 1262.1,883.6 1269.4,871.4 1302.2,838.9 1298.7,837 
			1231.3,685.9 1143.3,717.7 1133.5,717.7 1121.1,719.9 1109.1,735.3 1110.6,746.3 1068.5,770.2 1073.4,772.4 1070.5,790.8 
			1063.9,798.1 1062.9,827.9 1079,831.3 1069,879 1071.5,928.4 1072.4,971.6 1081,964.8 		"/>
		<polygon style="fill:#023548;" points="1102.3,965.6 1125.7,971.7 1131.6,956.8 1148.9,947.5 1158.5,944.3 1164.1,938 1171.9,938 
			1178,945.8 1189.5,947 1197.1,955.6 1190.2,964.1 1198.8,968.3 1206.1,955.6 1202,924.3 1210,907.4 1217.6,903 1226.2,903 
			1237.2,894.5 1242.5,894.5 1250.6,890.8 1255,878.6 1262.1,883 1269.4,870.8 1302.2,838.3 1298.7,836.3 1231.3,685.3 
			1143.3,717.1 1133.5,717.1 1121.1,719.3 1109.1,734.7 1110.6,745.6 1068.5,769.6 1073.4,771.8 1070.5,790.1 1063.9,797.5 
			1062.9,827.3 1079,830.7 1069,878.3 1071.5,927.7 1072.4,971 1081,964.1 		"/>
		<polygon style="fill:#023A4B;" points="1102.3,964.9 1125.7,971.1 1131.6,956.1 1148.9,946.9 1158.5,943.7 1164.1,937.3 
			1171.9,937.3 1178,945.1 1189.5,946.4 1197.1,954.9 1190.2,963.5 1198.8,967.6 1206.1,954.9 1202,923.6 1210,906.8 1217.6,902.4 
			1226.2,902.4 1237.2,893.8 1242.5,893.8 1250.6,890.2 1255,877.9 1262.1,882.3 1269.4,870.1 1302.2,837.6 1298.7,835.7 
			1231.3,684.6 1143.3,716.4 1133.5,716.4 1121.1,718.6 1109.1,734 1110.6,745 1068.5,769 1073.4,771.2 1070.5,789.5 1063.9,796.8 
			1062.9,826.6 1079,830 1069,877.7 1071.5,927.1 1072.4,970.3 1081,963.5 		"/>
		<polygon style="fill:#033F4D;" points="1102.3,964.3 1125.7,970.4 1131.6,955.5 1148.9,946.2 1158.5,943 1164.1,936.7 
			1171.9,936.7 1178,944.5 1189.5,945.7 1197.1,954.3 1190.2,962.8 1198.8,967 1206.1,954.3 1202,923 1210,906.1 1217.6,901.7 
			1226.2,901.7 1237.2,893.2 1242.5,893.2 1250.6,889.5 1255,877.3 1262.1,881.7 1269.4,869.5 1302.2,837 1298.7,835 1231.3,684 
			1143.3,715.8 1133.5,715.8 1121.1,718 1109.1,733.4 1110.6,744.4 1068.5,768.3 1073.4,770.5 1070.5,788.8 1063.9,796.2 
			1062.9,826 1079,829.4 1069,877.1 1071.5,926.4 1072.4,969.7 1081,962.8 		"/>
		<polygon style="fill:#034350;" points="1102.3,963.7 1125.7,969.8 1131.6,954.9 1148.9,945.6 1158.5,942.4 1164.1,936 1171.9,936 
			1178,943.9 1189.5,945.1 1197.1,953.6 1190.2,962.2 1198.8,966.3 1206.1,953.6 1202,922.4 1210,905.5 1217.6,901.1 1226.2,901.1 
			1237.2,892.5 1242.5,892.5 1250.6,888.9 1255,876.7 1262.1,881.1 1269.4,868.8 1302.2,836.3 1298.7,834.4 1231.3,683.4 
			1143.3,715.1 1133.5,715.1 1121.1,717.3 1109.1,732.7 1110.6,743.7 1068.5,767.7 1073.4,769.9 1070.5,788.2 1063.9,795.5 
			1062.9,825.3 1079,828.8 1069,876.4 1071.5,925.8 1072.4,969 1081,962.2 		"/>
		<polygon style="fill:#044853;" points="1102.3,963 1125.7,969.1 1131.6,954.2 1148.9,944.9 1158.5,941.7 1164.1,935.4 
			1171.9,935.4 1178,943.2 1189.5,944.4 1197.1,953 1190.2,961.5 1198.8,965.7 1206.1,953 1202,921.7 1210,904.8 1217.6,900.4 
			1226.2,900.4 1237.2,891.9 1242.5,891.9 1250.6,888.2 1255,876 1262.1,880.4 1269.4,868.2 1302.2,835.7 1298.7,833.7 
			1231.3,682.7 1143.3,714.5 1133.5,714.5 1121.1,716.7 1109.1,732.1 1110.6,743.1 1068.5,767 1073.4,769.2 1070.5,787.5 
			1063.9,794.9 1062.9,824.7 1079,828.1 1069,875.8 1071.5,925.1 1072.4,968.4 1081,961.5 		"/>
		<polygon style="fill:#044C56;" points="1102.3,962.4 1125.7,968.5 1131.6,953.6 1148.9,944.3 1158.5,941.1 1164.1,934.7 
			1171.9,934.7 1178,942.6 1189.5,943.8 1197.1,952.3 1190.2,960.9 1198.8,965.1 1206.1,952.3 1202,921.1 1210,904.2 1217.6,899.8 
			1226.2,899.8 1237.2,891.2 1242.5,891.2 1250.6,887.6 1255,875.4 1262.1,879.8 1269.4,867.5 1302.2,835 1298.7,833.1 
			1231.3,682.1 1143.3,713.8 1133.5,713.8 1121.1,716 1109.1,731.4 1110.6,742.4 1068.5,766.4 1073.4,768.6 1070.5,786.9 
			1063.9,794.2 1062.9,824 1079,827.5 1069,875.1 1071.5,924.5 1072.4,967.7 1081,960.9 		"/>
		<polygon style="fill:#045159;" points="1102.3,961.7 1125.7,967.8 1131.6,952.9 1148.9,943.6 1158.5,940.5 1164.1,934.1 
			1171.9,934.1 1178,941.9 1189.5,943.1 1197.1,951.7 1190.2,960.3 1198.8,964.4 1206.1,951.7 1202,920.4 1210,903.6 1217.6,899.2 
			1226.2,899.2 1237.2,890.6 1242.5,890.6 1250.6,886.9 1255,874.7 1262.1,879.1 1269.4,866.9 1302.2,834.4 1298.7,832.4 
			1231.3,681.4 1143.3,713.2 1133.5,713.2 1121.1,715.4 1109.1,730.8 1110.6,741.8 1068.5,765.7 1073.4,767.9 1070.5,786.3 
			1063.9,793.6 1062.9,823.4 1079,826.8 1069,874.5 1071.5,923.8 1072.4,967.1 1081,960.3 		"/>
		<polygon style="fill:#05565C;" points="1102.3,961.1 1125.7,967.2 1131.6,952.3 1148.9,943 1158.5,939.8 1164.1,933.5 
			1171.9,933.5 1178,941.3 1189.5,942.5 1197.1,951.1 1190.2,959.6 1198.8,963.8 1206.1,951.1 1202,919.8 1210,902.9 1217.6,898.5 
			1226.2,898.5 1237.2,890 1242.5,890 1250.6,886.3 1255,874.1 1262.1,878.5 1269.4,866.3 1302.2,833.8 1298.7,831.8 1231.3,680.8 
			1143.3,712.5 1133.5,712.5 1121.1,714.7 1109.1,730.1 1110.6,741.1 1068.5,765.1 1073.4,767.3 1070.5,785.6 1063.9,792.9 
			1062.9,822.8 1079,826.2 1069,873.8 1071.5,923.2 1072.4,966.4 1081,959.6 		"/>
		<polygon style="fill:#055A5F;" points="1102.3,960.4 1125.7,966.5 1131.6,951.6 1148.9,942.3 1158.5,939.2 1164.1,932.8 
			1171.9,932.8 1178,940.6 1189.5,941.9 1197.1,950.4 1190.2,959 1198.8,963.1 1206.1,950.4 1202,919.1 1210,902.3 1217.6,897.9 
			1226.2,897.9 1237.2,889.3 1242.5,889.3 1250.6,885.6 1255,873.4 1262.1,877.8 1269.4,865.6 1302.2,833.1 1298.7,831.2 
			1231.3,680.1 1143.3,711.9 1133.5,711.9 1121.1,714.1 1109.1,729.5 1110.6,740.5 1068.5,764.4 1073.4,766.6 1070.5,785 
			1063.9,792.3 1062.9,822.1 1079,825.5 1069,873.2 1071.5,922.5 1072.4,965.8 1081,959 		"/>
		<polygon style="fill:#055F62;" points="1102.3,959.8 1125.7,965.9 1131.6,951 1148.9,941.7 1158.5,938.5 1164.1,932.2 
			1171.9,932.2 1178,940 1189.5,941.2 1197.1,949.8 1190.2,958.3 1198.8,962.5 1206.1,949.8 1202,918.5 1210,901.6 1217.6,897.2 
			1226.2,897.2 1237.2,888.7 1242.5,888.7 1250.6,885 1255,872.8 1262.1,877.2 1269.4,865 1302.2,832.5 1298.7,830.5 1231.3,679.5 
			1143.3,711.2 1133.5,711.2 1121.1,713.4 1109.1,728.8 1110.6,739.8 1068.5,763.8 1073.4,766 1070.5,784.3 1063.9,791.6 
			1062.9,821.5 1079,824.9 1069,872.5 1071.5,921.9 1072.4,965.2 1081,958.3 		"/>
		<polygon style="fill:#066365;" points="1102.3,959.1 1125.7,965.2 1131.6,950.3 1148.9,941.1 1158.5,937.9 1164.1,931.5 
			1171.9,931.5 1178,939.3 1189.5,940.6 1197.1,949.1 1190.2,957.7 1198.8,961.8 1206.1,949.1 1202,917.8 1210,901 1217.6,896.6 
			1226.2,896.6 1237.2,888 1242.5,888 1250.6,884.4 1255,872.1 1262.1,876.5 1269.4,864.3 1302.2,831.8 1298.7,829.9 1231.3,678.8 
			1143.3,710.6 1133.5,710.6 1121.1,712.8 1109.1,728.2 1110.6,739.2 1068.5,763.1 1073.4,765.3 1070.5,783.7 1063.9,791 
			1062.9,820.8 1079,824.2 1069,871.9 1071.5,921.3 1072.4,964.5 1081,957.7 		"/>
		<polygon style="fill:#066868;" points="1102.3,958.5 1125.7,964.6 1131.6,949.7 1148.9,940.4 1158.5,937.2 1164.1,930.9 
			1171.9,930.9 1178,938.7 1189.5,939.9 1197.1,948.5 1190.2,957 1198.8,961.2 1206.1,948.5 1202,917.2 1210,900.3 1217.6,895.9 
			1226.2,895.9 1237.2,887.4 1242.5,887.4 1250.6,883.7 1255,871.5 1262.1,875.9 1269.4,863.7 1302.2,831.2 1298.7,829.2 
			1231.3,678.2 1143.3,710 1133.5,710 1121.1,712.2 1109.1,727.6 1110.6,738.6 1068.5,762.5 1073.4,764.7 1070.5,783 1063.9,790.4 
			1062.9,820.2 1079,823.6 1069,871.2 1071.5,920.6 1072.4,963.9 1081,957 		"/>
		<polygon style="fill:#066C6B;" points="1102.3,957.8 1125.7,964 1131.6,949 1148.9,939.8 1158.5,936.6 1164.1,930.2 1171.9,930.2 
			1178,938.1 1189.5,939.3 1197.1,947.8 1190.2,956.4 1198.8,960.5 1206.1,947.8 1202,916.5 1210,899.7 1217.6,895.3 1226.2,895.3 
			1237.2,886.7 1242.5,886.7 1250.6,883.1 1255,870.8 1262.1,875.2 1269.4,863 1302.2,830.5 1298.7,828.6 1231.3,677.5 
			1143.3,709.3 1133.5,709.3 1121.1,711.5 1109.1,726.9 1110.6,737.9 1068.5,761.9 1073.4,764.1 1070.5,782.4 1063.9,789.7 
			1062.9,819.5 1079,822.9 1069,870.6 1071.5,920 1072.4,963.2 1081,956.4 		"/>
		<polygon style="fill:#07716E;" points="1102.3,957.2 1125.7,963.3 1131.6,948.4 1148.9,939.1 1158.5,935.9 1164.1,929.6 
			1171.9,929.6 1178,937.4 1189.5,938.6 1197.1,947.2 1190.2,955.7 1198.8,959.9 1206.1,947.2 1202,915.9 1210,899 1217.6,894.6 
			1226.2,894.6 1237.2,886.1 1242.5,886.1 1250.6,882.4 1255,870.2 1262.1,874.6 1269.4,862.4 1302.2,829.9 1298.7,827.9 
			1231.3,676.9 1143.3,708.7 1133.5,708.7 1121.1,710.9 1109.1,726.3 1110.6,737.3 1068.5,761.2 1073.4,763.4 1070.5,781.7 
			1063.9,789.1 1062.9,818.9 1079,822.3 1069,870 1071.5,919.3 1072.4,962.6 1081,955.7 		"/>
		<polygon style="fill:#077671;" points="1102.3,956.6 1125.7,962.7 1131.6,947.8 1148.9,938.5 1158.5,935.3 1164.1,928.9 
			1171.9,928.9 1178,936.8 1189.5,938 1197.1,946.5 1190.2,955.1 1198.8,959.2 1206.1,946.5 1202,915.3 1210,898.4 1217.6,894 
			1226.2,894 1237.2,885.4 1242.5,885.4 1250.6,881.8 1255,869.6 1262.1,874 1269.4,861.7 1302.2,829.2 1298.7,827.3 1231.3,676.3 
			1143.3,708 1133.5,708 1121.1,710.2 1109.1,725.6 1110.6,736.6 1068.5,760.6 1073.4,762.8 1070.5,781.1 1063.9,788.4 
			1062.9,818.2 1079,821.7 1069,869.3 1071.5,918.7 1072.4,961.9 1081,955.1 		"/>
		<polygon style="fill:#077A74;" points="1102.3,955.9 1125.7,962 1131.6,947.1 1148.9,937.8 1158.5,934.7 1164.1,928.3 
			1171.9,928.3 1178,936.1 1189.5,937.3 1197.1,945.9 1190.2,954.4 1198.8,958.6 1206.1,945.9 1202,914.6 1210,897.7 1217.6,893.4 
			1226.2,893.4 1237.2,884.8 1242.5,884.8 1250.6,881.1 1255,868.9 1262.1,873.3 1269.4,861.1 1302.2,828.6 1298.7,826.6 
			1231.3,675.6 1143.3,707.4 1133.5,707.4 1121.1,709.6 1109.1,725 1110.6,736 1068.5,759.9 1073.4,762.1 1070.5,780.4 
			1063.9,787.8 1062.9,817.6 1079,821 1069,868.7 1071.5,918 1072.4,961.3 1081,954.4 		"/>
		<polygon style="fill:#087F77;" points="1102.3,955.3 1125.7,961.4 1131.6,946.5 1148.9,937.2 1158.5,934 1164.1,927.7 
			1171.9,927.7 1178,935.5 1189.5,936.7 1197.1,945.2 1190.2,953.8 1198.8,958 1206.1,945.2 1202,914 1210,897.1 1217.6,892.7 
			1226.2,892.7 1237.2,884.2 1242.5,884.2 1250.6,880.5 1255,868.3 1262.1,872.7 1269.4,860.4 1302.2,827.9 1298.7,826 1231.3,675 
			1143.3,706.7 1133.5,706.7 1121.1,708.9 1109.1,724.3 1110.6,735.3 1068.5,759.3 1073.4,761.5 1070.5,779.8 1063.9,787.1 
			1062.9,816.9 1079,820.4 1069,868 1071.5,917.4 1072.4,960.6 1081,953.8 		"/>
		<polygon style="fill:#08837A;" points="1102.3,954.6 1125.7,960.7 1131.6,945.8 1148.9,936.5 1158.5,933.4 1164.1,927 1171.9,927 
			1178,934.8 1189.5,936 1197.1,944.6 1190.2,953.2 1198.8,957.3 1206.1,944.6 1202,913.3 1210,896.5 1217.6,892.1 1226.2,892.1 
			1237.2,883.5 1242.5,883.5 1250.6,879.8 1255,867.6 1262.1,872 1269.4,859.8 1302.2,827.3 1298.7,825.3 1231.3,674.3 
			1143.3,706.1 1133.5,706.1 1121.1,708.3 1109.1,723.7 1110.6,734.7 1068.5,758.6 1073.4,760.8 1070.5,779.2 1063.9,786.5 
			1062.9,816.3 1079,819.7 1069,867.4 1071.5,916.7 1072.4,960 1081,953.2 		"/>
		<polygon style="fill:#09887C;" points="1102.3,954 1125.7,960.1 1131.6,945.2 1148.9,935.9 1158.5,932.7 1164.1,926.4 
			1171.9,926.4 1178,934.2 1189.5,935.4 1197.1,944 1190.2,952.5 1198.8,956.7 1206.1,944 1202,912.7 1210,895.8 1217.6,891.4 
			1226.2,891.4 1237.2,882.9 1242.5,882.9 1250.6,879.2 1255,867 1262.1,871.4 1269.4,859.2 1302.2,826.7 1298.7,824.7 
			1231.3,673.7 1143.3,705.4 1133.5,705.4 1121.1,707.6 1109.1,723 1110.6,734 1068.5,758 1073.4,760.2 1070.5,778.5 1063.9,785.8 
			1062.9,815.7 1079,819.1 1069,866.7 1071.5,916.1 1072.4,959.4 1081,952.5 		"/>
		<polygon style="fill:#098D7F;" points="1102.3,953.3 1125.7,959.4 1131.6,944.5 1148.9,935.2 1158.5,932.1 1164.1,925.7 
			1171.9,925.7 1178,933.5 1189.5,934.8 1197.1,943.3 1190.2,951.9 1198.8,956 1206.1,943.3 1202,912 1210,895.2 1217.6,890.8 
			1226.2,890.8 1237.2,882.2 1242.5,882.2 1250.6,878.6 1255,866.3 1262.1,870.7 1269.4,858.5 1302.2,826 1298.7,824.1 1231.3,673 
			1143.3,704.8 1133.5,704.8 1121.1,707 1109.1,722.4 1110.6,733.4 1068.5,757.3 1073.4,759.5 1070.5,777.9 1063.9,785.2 
			1062.9,815 1079,818.4 1069,866.1 1071.5,915.5 1072.4,958.7 1081,951.9 		"/>
		<polygon style="fill:#099182;" points="1102.3,952.7 1125.7,958.8 1131.6,943.9 1148.9,934.6 1158.5,931.4 1164.1,925.1 
			1171.9,925.1 1178,932.9 1189.5,934.1 1197.1,942.7 1190.2,951.2 1198.8,955.4 1206.1,942.7 1202,911.4 1210,894.5 1217.6,890.1 
			1226.2,890.1 1237.2,881.6 1242.5,881.6 1250.6,877.9 1255,865.7 1262.1,870.1 1269.4,857.9 1302.2,825.4 1298.7,823.4 
			1231.3,672.4 1143.3,704.2 1133.5,704.2 1121.1,706.4 1109.1,721.7 1110.6,732.7 1068.5,756.7 1073.4,758.9 1070.5,777.2 
			1063.9,784.6 1062.9,814.4 1079,817.8 1069,865.4 1071.5,914.8 1072.4,958.1 1081,951.2 		"/>
		<polygon style="fill:#0A9685;" points="1102.3,952 1125.7,958.1 1131.6,943.2 1148.9,934 1158.5,930.8 1164.1,924.4 1171.9,924.4 
			1178,932.2 1189.5,933.5 1197.1,942 1190.2,950.6 1198.8,954.7 1206.1,942 1202,910.7 1210,893.9 1217.6,889.5 1226.2,889.5 
			1237.2,880.9 1242.5,880.9 1250.6,877.3 1255,865 1262.1,869.4 1269.4,857.2 1302.2,824.7 1298.7,822.8 1231.3,671.7 
			1143.3,703.5 1133.5,703.5 1121.1,705.7 1109.1,721.1 1110.6,732.1 1068.5,756 1073.4,758.2 1070.5,776.6 1063.9,783.9 
			1062.9,813.7 1079,817.1 1069,864.8 1071.5,914.2 1072.4,957.4 1081,950.6 		"/>
		<polygon style="fill:#0A9A88;" points="1102.3,951.4 1125.7,957.5 1131.6,942.6 1148.9,933.3 1158.5,930.1 1164.1,923.8 
			1171.9,923.8 1178,931.6 1189.5,932.8 1197.1,941.4 1190.2,949.9 1198.8,954.1 1206.1,941.4 1202,910.1 1210,893.2 1217.6,888.8 
			1226.2,888.8 1237.2,880.3 1242.5,880.3 1250.6,876.6 1255,864.4 1262.1,868.8 1269.4,856.6 1302.2,824.1 1298.7,822.1 
			1231.3,671.1 1143.3,702.9 1133.5,702.9 1121.1,705.1 1109.1,720.5 1110.6,731.5 1068.5,755.4 1073.4,757.6 1070.5,775.9 
			1063.9,783.3 1062.9,813.1 1079,816.5 1069,864.2 1071.5,913.5 1072.4,956.8 1081,949.9 		"/>
		<polygon style="fill:#0A9F8B;" points="1102.3,950.8 1125.7,956.9 1131.6,942 1148.9,932.7 1158.5,929.5 1164.1,923.1 
			1171.9,923.1 1178,931 1189.5,932.2 1197.1,940.7 1190.2,949.3 1198.8,953.4 1206.1,940.7 1202,909.5 1210,892.6 1217.6,888.2 
			1226.2,888.2 1237.2,879.6 1242.5,879.6 1250.6,876 1255,863.8 1262.1,868.2 1269.4,855.9 1302.2,823.4 1298.7,821.5 
			1231.3,670.4 1143.3,702.2 1133.5,702.2 1121.1,704.4 1109.1,719.8 1110.6,730.8 1068.5,754.8 1073.4,757 1070.5,775.3 
			1063.9,782.6 1062.9,812.4 1079,815.9 1069,863.5 1071.5,912.9 1072.4,956.1 1081,949.3 		"/>
		<polygon style="fill:#0BA38E;" points="1102.3,950.1 1125.7,956.2 1131.6,941.3 1148.9,932 1158.5,928.8 1164.1,922.5 
			1171.9,922.5 1178,930.3 1189.5,931.5 1197.1,940.1 1190.2,948.6 1198.8,952.8 1206.1,940.1 1202,908.8 1210,891.9 1217.6,887.5 
			1226.2,887.5 1237.2,879 1242.5,879 1250.6,875.3 1255,863.1 1262.1,867.5 1269.4,855.3 1302.2,822.8 1298.7,820.8 1231.3,669.8 
			1143.3,701.6 1133.5,701.6 1121.1,703.8 1109.1,719.2 1110.6,730.2 1068.5,754.1 1073.4,756.3 1070.5,774.6 1063.9,782 
			1062.9,811.8 1079,815.2 1069,862.9 1071.5,912.2 1072.4,955.5 1081,948.6 		"/>
		<polygon style="fill:#0BA891;" points="1102.3,949.5 1125.7,955.6 1131.6,940.7 1148.9,931.4 1158.5,928.2 1164.1,921.8 
			1171.9,921.8 1178,929.7 1189.5,930.9 1197.1,939.4 1190.2,948 1198.8,952.1 1206.1,939.4 1202,908.2 1210,891.3 1217.6,886.9 
			1226.2,886.9 1237.2,878.3 1242.5,878.3 1250.6,874.7 1255,862.5 1262.1,866.9 1269.4,854.6 1302.2,822.1 1298.7,820.2 
			1231.3,669.2 1143.3,700.9 1133.5,700.9 1121.1,703.1 1109.1,718.5 1110.6,729.5 1068.5,753.5 1073.4,755.7 1070.5,774 
			1063.9,781.3 1062.9,811.1 1079,814.6 1069,862.2 1071.5,911.6 1072.4,954.8 1081,948 		"/>
	</g>
	<g>
		<path style="fill:#CDEFF9;" d="M1123.7,840.8c-0.1,4.5-1.6,8.4-4.5,11.7l-2.4-2.2c2.4-2.6,3.6-5.9,3.6-10V831h11.2
			c-0.4-1-0.9-1.9-1.4-2.8l3.3-0.5c0.5,1,0.9,2.1,1.3,3.3h10.4v9.8H1123.7z M1117.1,823.4h7.7v-2.6h3.3v2.6h8.3v-2.6h3.3v2.6h7.7v3
			h-7.7v2.3h-3.3v-2.3h-8.3v2.3h-3.3v-2.3h-7.7V823.4z M1141.9,834h-18.2v3.9h18.2V834z"/>
		<path style="fill:#CDEFF9;" d="M1153.1,829.1c2,1.7,3.8,3.4,5.2,5.2l-2.4,2.3c-1.3-1.7-3-3.4-5.2-5.2L1153.1,829.1z M1159.5,839.9
			c-1.5,4.2-3.1,8.2-5,12.1l-3.3-1.4c2-3.8,3.8-7.8,5.3-11.9L1159.5,839.9z M1154,821.1c2.3,1.8,4.2,3.5,5.6,5.1l-2.3,2.4
			c-1.3-1.6-3.2-3.3-5.7-5.2L1154,821.1z M1159.9,824.6h9.2v-3.7h3.2v3.7h4.9c-0.7-0.9-1.5-1.8-2.5-2.8l2.2-1.3
			c1.1,1.1,2.1,2.3,3,3.4l-1.1,0.8h3.1v3h-9.5v2.6h8.1v18.5c0,2.3-1.1,3.4-3.3,3.4h-2.8l-0.8-2.9l2.6,0.1c0.8,0,1.2-0.4,1.2-1.3V845
			h-5v7.1h-3.2V845h-4.9v7.2h-3.1v-22h8v-2.6h-9.2V824.6z M1169.1,833.1h-4.9v3.1h4.9V833.1z M1164.3,839.1v3.1h4.9v-3.1H1164.3z
			 M1177.3,836.3v-3.1h-5v3.1H1177.3z M1177.3,842.2v-3.1h-5v3.1H1177.3z"/>
		<path style="fill:#CDEFF9;" d="M1193,840.3c-0.8,5-2.4,8.8-4.9,11.5l-2.4-2.1c3-3.3,4.5-8.5,4.5-15.6v-12.9h3.3v7.7h10v-8.1h3.1
			v8.1h9.2v3.1h-22.3v2c0,0.7,0,1.8-0.1,3.1h15.6v15.2h-3.3v-12.1H1193z"/>
		<path style="fill:#CDEFF9;" d="M1221.4,822h27.4v3.1h-24.3v22.7h25.4v3.1h-28.5V822z M1229.5,827.5c3.2,2.4,6,4.7,8.5,6.9
			c1.8-2.4,3.3-5.1,4.6-8l2.9,1.6c-1.4,3.3-3.1,6.2-5,8.7c2.5,2.3,4.8,4.5,6.8,6.8l-2.5,2.5c-1.9-2.3-4.1-4.6-6.5-6.8
			c-2.8,3-6.2,5.4-10,7l-1.9-2.9c3.6-1.5,6.8-3.6,9.4-6.4c-2.5-2.2-5.4-4.6-8.7-7.1L1229.5,827.5z"/>
	</g>
</g>
</svg>
