<?xml version="1.0" encoding="utf-8"?>
<!-- Generator: Adobe Illustrator 17.0.0, SVG Export Plug-In . SVG Version: 6.00 Build 0)  -->
<!DOCTYPE svg PUBLIC "-//W3C//DTD SVG 1.1//EN" "http://www.w3.org/Graphics/SVG/1.1/DTD/svg11.dtd">
<svg version="1.1" id="图层_1" xmlns="http://www.w3.org/2000/svg" xmlns:xlink="http://www.w3.org/1999/xlink" x="0px" y="0px"
	 preserveAspectRatio="none" viewBox="0 0 2000 1300" style="enable-background:new 0 0 2000 1300;" xml:space="preserve">
<g>
	<g>
		<path style="fill:#001A36;" d="M319.8,617.8l12.7,5.9v9.5h4.9l8.6-3.2l30.1,10.5l14.4-2l-1.7-2.9l1.7,2.9h0.7l4.9-5.4l8.6-8.6
			l6.8-4.9l-7.3-18.3l13.9,2l9.3,0.7l5.6-8.8l16.9,8.1l9.3-8.1v-8.8l-10-3.4l-8.1-46.7l34.2-6.6v-10.3l19.3-6.6v-21.5L484,475.1
			l-14.7-42l45.2-16.9l9.8,8.6l12.2-1.7v11.2l9.8,0.5l4.2,6.8l10-3.2l4.4,7.6l8.6-3.2v7.3l46.4-2l-3.2-16.9l20.8-5.6l27.4,6.6
			l4.4,13.9l6.6-5.6l13.4-6.8l6.6-7.3l5.6,0.7v-8.8l5.6-2l-4.9-25.4l-14.4,6.8l-4.2-7.3l18.3-8.8v-8.8l-3.7-9.8v-7.3l-8.1-2l8.1-4.9
			l-2.4-6.8l-10.5,2.9l-1.7-11.5l9.3,2l2.9-9.8l-6.6-11.2H689l-2.2,3.7l2.2-3.7l-14.2-3.7l-2.4-12.2l-24.4-2.9v9.3l-5.6,1.7
			l-3.2-8.8l-7.6,1.7l-4.2-17.6l-11.2,3.2l-5.4-16.9l-18.3,7.3l3.7,17.1l-12,5.4v7.3l-20,11.5l-10-4.9l-20-2.4l-23-3.7
			c-0.7,1-1.5,2.2-2.2,3.2c-11.5,12.5-36.7,25.9-36.7,25.9L450,346.5l-12.5-2.2l-8.8-1.5l-7.1-15.2l-3.9-36.9l-10-29.6L392.6,238
			l-9.3-7.8L365,216.8l-14.4-6.1l-18.3,0.2l-17.4,7.8l-16.6,5.6l-14.4,0.5l-17.4-3.7l-14.9-4.9l-14.9-1.2H224v6.1l5.4,8.6l6.6,2.9
			l2.9,6.1l-1.2,9.8l6.1,8.6l9,4.2h4.2l6.6,8.6l13.7,14.9l9.8,9.8l17.1,2.4l7.6,2.4l11,6.1l8.8,9l6.6,9.8l2.4,12.7l2.4,9.8l8.8,12.5
			l4.2,13.9l1.5,12l0.2,5.9l-4.9,2.4h-12.2l-11.5-4.6h-8.8l-12.2,1l-12.5,1.7l-6.4,5.9l-2.4,7.3l2.2,8.3l14.9,6.4l13.4,7.3l6.1,4.2
			l-0.5,7.6l-4.2,4.9c0,0-0.2,6.4-0.2,7.3c0,1,0.2,6.1,0.2,6.1l-8.8,6.4l-6.1,2.4l-10.3,5.1l-7.1,7.1l0.2,8.6l7.3,7.6l2.7,11.2
			l-2.9,12.5l-7.6,6.4l-7.3,8.3l-3.9,8.3l1.2,6.6l8.3,2.7h8.3l11.2,2.7c0,0,6.6,2.4,7.6,3.7c1,1.2,4.6,5.9,4.6,5.9l-3.4,4.9
			l-3.9,2.2l-0.5,10.5l-2.4,17.6l-1.7,5.4v12.5v6.1v6.8l10.3,3.9L319.8,617.8z"/>
		<path style="fill:#001F39;" d="M319.8,617.2l12.7,5.9v9.5h4.9l8.6-3.2l30.1,10.5l14.4-2l-1.7-2.9l1.7,2.9h0.7l4.9-5.4l8.6-8.6
			l6.8-4.9l-7.3-18.3l13.9,2l9.3,0.7l5.6-8.8l16.9,8.1l9.3-8.1v-8.8l-10-3.4l-8.1-46.7l34.2-6.6v-10.3l19.3-6.6v-21.5L484,474.4
			l-14.7-42l45.2-16.9l9.8,8.6l12.2-1.7v11.2l9.8,0.5l4.2,6.8l10-3.2l4.4,7.6l8.6-3.2v7.3l46.4-2l-3.2-16.9l20.8-5.6l27.4,6.6
			l4.4,13.9l6.6-5.6l13.4-6.8l6.6-7.3l5.6,0.7v-8.8l5.6-2l-4.9-25.4l-14.4,6.8l-4.2-7.3l18.3-8.8v-8.8l-3.7-9.8v-7.3l-8.1-2l8.1-4.9
			l-2.4-6.8l-10.5,2.9l-1.7-11.5l9.3,2l2.9-9.8l-6.6-11.2H689l-2.2,3.7l2.2-3.7l-14.2-3.7l-2.4-12.2l-24.4-2.9v9.3l-5.6,1.7
			l-3.2-8.8l-7.6,1.7l-4.2-17.6l-11.2,3.2l-5.4-16.9l-18.3,7.3l3.7,17.1l-12,5.4v7.3l-20,11.5l-10-4.9l-20-2.4l-23-3.7
			c-0.7,1-1.5,2.2-2.2,3.2c-11.5,12.5-36.7,25.9-36.7,25.9L450,345.9l-12.5-2.2l-8.8-1.5l-7.1-15.2l-3.9-36.9l-10-29.6l-15.2-23.2
			l-9.3-7.8L365,216.1l-14.4-6.1l-18.3,0.2l-17.4,7.8l-16.6,5.6l-14.4,0.5l-17.4-3.7l-14.9-4.9l-14.9-1.2H224v6.1l5.4,8.6l6.6,2.9
			l2.9,6.1l-1.2,9.8l6.1,8.6l9,4.2h4.2l6.6,8.6l13.7,14.9l9.8,9.8l17.1,2.4l7.6,2.4l11,6.1l8.8,9l6.6,9.8l2.4,12.7l2.4,9.8l8.8,12.5
			l4.2,13.9l1.5,12l0.2,5.9l-4.9,2.4h-12.2l-11.5-4.6h-8.8l-12.2,1l-12.5,1.7l-6.4,5.9l-2.4,7.3l2.2,8.3l14.9,6.4l13.4,7.3l6.1,4.2
			l-0.5,7.6l-4.2,4.9c0,0-0.2,6.4-0.2,7.3c0,1,0.2,6.1,0.2,6.1l-8.8,6.4l-6.1,2.4l-10.3,5.1l-7.1,7.1l0.2,8.6l7.3,7.6l2.7,11.2
			l-2.9,12.5l-7.6,6.4l-7.3,8.3l-3.9,8.3l1.2,6.6l8.3,2.7h8.3l11.2,2.7c0,0,6.6,2.4,7.6,3.7c1,1.2,4.6,5.9,4.6,5.9l-3.4,4.9
			l-3.9,2.2l-0.5,10.5l-2.4,17.6l-1.7,5.4v12.5v6.1v6.8l10.3,3.9L319.8,617.2z"/>
		<path style="fill:#01233C;" d="M319.8,616.5l12.7,5.9v9.5h4.9l8.6-3.2l30.1,10.5l14.4-2l-1.7-2.9l1.7,2.9h0.7l4.9-5.4l8.6-8.6
			l6.8-4.9l-7.3-18.3l13.9,2l9.3,0.7l5.6-8.8l16.9,8.1l9.3-8.1v-8.8l-10-3.4l-8.1-46.7l34.2-6.6v-10.3l19.3-6.6v-21.5L484,473.8
			l-14.7-42l45.2-16.9l9.8,8.6l12.2-1.7V433l9.8,0.5l4.2,6.8l10-3.2l4.4,7.6l8.6-3.2v7.3l46.4-2l-3.2-16.9l20.8-5.6l27.4,6.6
			l4.4,13.9l6.6-5.6l13.4-6.8l6.6-7.3l5.6,0.7v-8.8l5.6-2l-4.9-25.4l-14.4,6.8l-4.2-7.3l18.3-8.8v-8.8l-3.7-9.8v-7.3l-8.1-2l8.1-4.9
			l-2.4-6.8l-10.5,2.9l-1.7-11.5l9.3,2l2.9-9.8l-6.6-11.2H689l-2.2,3.7l2.2-3.7l-14.2-3.7l-2.4-12.2l-24.4-2.9v9.3l-5.6,1.7
			l-3.2-8.8l-7.6,1.7l-4.2-17.6l-11.2,3.2l-5.4-16.9l-18.3,7.3l3.7,17.1l-12,5.4v7.3l-20,11.5l-10-4.9l-20-2.4l-23-3.7
			c-0.7,1-1.5,2.2-2.2,3.2c-11.5,12.5-36.7,25.9-36.7,25.9L450,345.2l-12.5-2.2l-8.8-1.5l-7.1-15.2l-3.9-36.9l-10-29.6l-15.2-23.2
			l-9.3-7.8L365,215.5l-14.4-6.1l-18.3,0.2l-17.4,7.8l-16.6,5.6l-14.4,0.5l-17.4-3.7l-14.9-4.9l-14.9-1.2H224v6.1l5.4,8.6l6.6,2.9
			l2.9,6.1l-1.2,9.8l6.1,8.6l9,4.2h4.2l6.6,8.6l13.7,14.9l9.8,9.8l17.1,2.4l7.6,2.4l11,6.1l8.8,9l6.6,9.8l2.4,12.7l2.4,9.8l8.8,12.5
			l4.2,13.9l1.5,12l0.2,5.9l-4.9,2.4h-12.2l-11.5-4.6h-8.8l-12.2,1l-12.5,1.7l-6.4,5.9l-2.4,7.3l2.2,8.3l14.9,6.4l13.4,7.3l6.1,4.2
			l-0.5,7.6l-4.2,4.9c0,0-0.2,6.4-0.2,7.3c0,1,0.2,6.1,0.2,6.1l-8.8,6.4l-6.1,2.4l-10.3,5.1l-7.1,7.1l0.2,8.6l7.3,7.6l2.7,11.2
			l-2.9,12.5l-7.6,6.4l-7.3,8.3l-3.9,8.3l1.2,6.6l8.3,2.7h8.3l11.2,2.7c0,0,6.6,2.4,7.6,3.7c1,1.2,4.6,5.9,4.6,5.9l-3.4,4.9
			l-3.9,2.2l-0.5,10.5l-2.4,17.6l-1.7,5.4v12.5v6.1v6.8l10.3,3.9L319.8,616.5z"/>
		<path style="fill:#01283F;" d="M319.8,615.9l12.7,5.9v9.5h4.9l8.6-3.2l30.1,10.5l14.4-2l-1.7-2.9l1.7,2.9h0.7l4.9-5.4l8.6-8.6
			l6.8-4.9l-7.3-18.3l13.9,2l9.3,0.7l5.6-8.8l16.9,8.1l9.3-8.1v-8.8l-10-3.4l-8.1-46.7l34.2-6.6v-10.3l19.3-6.6v-21.5L484,473.1
			l-14.7-42l45.2-16.9l9.8,8.6l12.2-1.7v11.2l9.8,0.5l4.2,6.8l10-3.2l4.4,7.6l8.6-3.2v7.3l46.4-2l-3.2-16.9l20.8-5.6l27.4,6.6
			l4.4,13.9l6.6-5.6l13.4-6.8l6.6-7.3l5.6,0.7v-8.8l5.6-2l-4.9-25.4l-14.4,6.8l-4.2-7.3l18.3-8.8V371l-3.7-9.8v-7.3l-8.1-2l8.1-4.9
			l-2.4-6.8l-10.5,2.9l-1.7-11.5l9.3,2l2.9-9.8l-6.6-11.2H689l-2.2,3.7l2.2-3.7l-14.2-3.7l-2.4-12.2l-24.4-2.9v9.3l-5.6,1.7
			l-3.2-8.8l-7.6,1.7l-4.2-17.6l-11.2,3.2l-5.4-16.9l-18.3,7.3l3.7,17.1l-12,5.4v7.3l-20,11.5l-10-4.9l-20-2.4l-23-3.7
			c-0.7,1-1.5,2.2-2.2,3.2c-11.5,12.5-36.7,25.9-36.7,25.9L450,344.6l-12.5-2.2l-8.8-1.5l-7.1-15.2l-3.9-36.9l-10-29.6l-15.2-23.2
			l-9.3-7.8L365,214.8l-14.4-6.1l-18.3,0.2l-17.4,7.8l-16.6,5.6l-14.4,0.5l-17.4-3.7l-14.9-4.9l-14.9-1.2H224v6.1l5.4,8.6l6.6,2.9
			l2.9,6.1l-1.2,9.8l6.1,8.6l9,4.2h4.2l6.6,8.6l13.7,14.9l9.8,9.8l17.1,2.4l7.6,2.4l11,6.1l8.8,9l6.6,9.8l2.4,12.7l2.4,9.8l8.8,12.5
			l4.2,13.9l1.5,12l0.2,5.9l-4.9,2.4h-12.2l-11.5-4.6h-8.8l-12.2,1l-12.5,1.7l-6.4,5.9l-2.4,7.3l2.2,8.3l14.9,6.4l13.4,7.3l6.1,4.2
			l-0.5,7.6l-4.2,4.9c0,0-0.2,6.4-0.2,7.3c0,1,0.2,6.1,0.2,6.1l-8.8,6.4l-6.1,2.4l-10.3,5.1l-7.1,7.1l0.2,8.6l7.3,7.6l2.7,11.2
			l-2.9,12.5l-7.6,6.4l-7.3,8.3l-3.9,8.3l1.2,6.6l8.3,2.7h8.3l11.2,2.7c0,0,6.6,2.4,7.6,3.7c1,1.2,4.6,5.9,4.6,5.9l-3.4,4.9
			l-3.9,2.2l-0.5,10.5l-2.4,17.6l-1.7,5.4v12.5v6.1v6.8l10.3,3.9L319.8,615.9z"/>
		<path style="fill:#012C42;" d="M319.8,615.2l12.7,5.9v9.5h4.9l8.6-3.2l30.1,10.5l14.4-2l-1.7-2.9l1.7,2.9h0.7l4.9-5.4l8.6-8.6
			l6.8-4.9l-7.3-18.3l13.9,2l9.3,0.7l5.6-8.8l16.9,8.1l9.3-8.1v-8.8l-10-3.4l-8.1-46.7l34.2-6.6V517l19.3-6.6v-21.5L484,472.5
			l-14.7-42l45.2-16.9l9.8,8.6l12.2-1.7v11.2l9.8,0.5l4.2,6.8l10-3.2l4.4,7.6l8.6-3.2v7.3l46.4-2l-3.2-16.9l20.8-5.6l27.4,6.6
			l4.4,13.9l6.6-5.6l13.4-6.8l6.6-7.3l5.6,0.7v-8.8l5.6-2l-4.9-25.4l-14.4,6.8l-4.2-7.3l18.3-8.8v-8.8l-3.7-9.8v-7.3l-8.1-2l8.1-4.9
			l-2.4-6.8l-10.5,2.9l-1.7-11.5l9.3,2l2.9-9.8l-6.6-11.2H689l-2.2,3.7l2.2-3.7l-14.2-3.7l-2.4-12.2l-24.4-2.9v9.3l-5.6,1.7
			l-3.2-8.8l-7.6,1.7l-4.2-17.6l-11.2,3.2l-5.4-16.9l-18.3,7.3l3.7,17.1l-12,5.4v7.3l-20,11.5l-10-4.9l-20-2.4l-23-3.7
			c-0.7,1-1.5,2.2-2.2,3.2c-11.5,12.5-36.7,25.9-36.7,25.9L450,344l-12.5-2.2l-8.8-1.5l-7.1-15.2l-3.9-36.9l-10-29.6l-15.2-23.2
			l-9.3-7.8L365,214.2l-14.4-6.1l-18.3,0.2l-17.4,7.8l-16.6,5.6l-14.4,0.5l-17.4-3.7l-14.9-4.9l-14.9-1.2H224v6.1l5.4,8.6l6.6,2.9
			l2.9,6.1l-1.2,9.8l6.1,8.6l9,4.2h4.2l6.6,8.6l13.7,14.9l9.8,9.8l17.1,2.4l7.6,2.4l11,6.1l8.8,9l6.6,9.8l2.4,12.7l2.4,9.8l8.8,12.5
			l4.2,13.9l1.5,12l0.2,5.9l-4.9,2.4h-12.2l-11.5-4.6h-8.8l-12.2,1l-12.5,1.7l-6.4,5.9l-2.4,7.3l2.2,8.3l14.9,6.4l13.4,7.3l6.1,4.2
			l-0.5,7.6l-4.2,4.9c0,0-0.2,6.4-0.2,7.3s0.2,6.1,0.2,6.1l-8.8,6.4l-6.1,2.4l-10.3,5.1l-7.1,7.1l0.2,8.6l7.3,7.6l2.7,11.2
			l-2.9,12.5l-7.6,6.4l-7.3,8.3L275,538l1.2,6.6l8.3,2.7h8.3l11.2,2.7c0,0,6.6,2.4,7.6,3.7c1,1.2,4.6,5.9,4.6,5.9l-3.4,4.9l-3.9,2.2
			l-0.5,10.5l-2.4,17.6l-1.7,5.4v12.5v6.1v6.8l10.3,3.9L319.8,615.2z"/>
		<path style="fill:#023145;" d="M319.8,614.6l12.7,5.9v9.5h4.9l8.6-3.2l30.1,10.5l14.4-2l-1.7-2.9l1.7,2.9h0.7l4.9-5.4l8.6-8.6
			l6.8-4.9l-7.3-18.3l13.9,2l9.3,0.7l5.6-8.8l16.9,8.1l9.3-8.1v-8.8l-10-3.4l-8.1-46.7l34.2-6.6v-10.3l19.3-6.6v-21.5L484,471.9
			l-14.7-42l45.2-16.9l9.8,8.6l12.2-1.7V431l9.8,0.5l4.2,6.8l10-3.2l4.4,7.6l8.6-3.2v7.3l46.4-2l-3.2-16.9l20.8-5.6l27.4,6.6
			l4.4,13.9l6.6-5.6l13.4-6.8l6.6-7.3l5.6,0.7v-8.8l5.6-2l-4.9-25.4l-14.4,6.8l-4.2-7.3l18.3-8.8v-8.8l-3.7-9.8v-7.3l-8.1-2l8.1-4.9
			l-2.4-6.8l-10.5,2.9l-1.7-11.5l9.3,2l2.9-9.8l-6.6-11.2H689l-2.2,3.7l2.2-3.7l-14.2-3.7l-2.4-12.2l-24.4-2.9v9.3l-5.6,1.7
			l-3.2-8.8l-7.6,1.7l-4.2-17.6l-11.2,3.2l-5.4-16.9l-18.3,7.3l3.7,17.1l-12,5.4v7.3l-20,11.5l-10-4.9l-20-2.4l-23-3.7
			c-0.7,1-1.5,2.2-2.2,3.2c-11.5,12.5-36.7,25.9-36.7,25.9L450,343.3l-12.5-2.2l-8.8-1.5l-7.1-15.2l-3.9-36.9l-10-29.6l-15.2-23.2
			l-9.3-7.8L365,213.5l-14.4-6.1l-18.3,0.2l-17.4,7.8l-16.6,5.6l-14.4,0.5l-17.4-3.7l-14.9-4.9l-14.9-1.2H224v6.1l5.4,8.6l6.6,2.9
			l2.9,6.1l-1.2,9.8l6.1,8.6l9,4.2h4.2l6.6,8.6l13.7,14.9l9.8,9.8l17.1,2.4l7.6,2.4l11,6.1l8.8,9l6.6,9.8l2.4,12.7l2.4,9.8l8.8,12.5
			l4.2,13.9l1.5,12l0.2,5.9l-4.9,2.4h-12.2l-11.5-4.6h-8.8l-12.2,1l-12.5,1.7l-6.4,5.9l-2.4,7.3l2.2,8.3l14.9,6.4l13.4,7.3l6.1,4.2
			l-0.5,7.6l-4.2,4.9c0,0-0.2,6.4-0.2,7.3c0,1,0.2,6.1,0.2,6.1l-8.8,6.4l-6.1,2.4l-10.3,5.1l-7.1,7.1l0.2,8.6l7.3,7.6l2.7,11.2
			l-2.9,12.5l-7.6,6.4l-7.3,8.3l-3.9,8.3l1.2,6.6l8.3,2.7h8.3l11.2,2.7c0,0,6.6,2.4,7.6,3.7c1,1.2,4.6,5.9,4.6,5.9l-3.4,4.9
			l-3.9,2.2l-0.5,10.5l-2.4,17.6l-1.7,5.4v12.5v6.1v6.8l10.3,3.9L319.8,614.6z"/>
		<path style="fill:#023548;" d="M319.8,613.9l12.7,5.9v9.5h4.9l8.6-3.2l30.1,10.5l14.4-2l-1.7-2.9l1.7,2.9h0.7l4.9-5.4l8.6-8.6
			l6.8-4.9l-7.3-18.3l13.9,2l9.3,0.7l5.6-8.8l16.9,8.1l9.3-8.1v-8.8l-10-3.4l-8.1-46.7l34.2-6.6v-10.3l19.3-6.6v-21.5L484,471.2
			l-14.7-42l45.2-16.9l9.8,8.6l12.2-1.7v11.2l9.8,0.5l4.2,6.8l10-3.2l4.4,7.6l8.6-3.2v7.3l46.4-2l-3.2-16.9l20.8-5.6l27.4,6.6
			l4.4,13.9l6.6-5.6l13.4-6.8l6.6-7.3l5.6,0.7v-8.8l5.6-2l-4.9-25.4l-14.4,6.8l-4.2-7.3l18.3-8.8v-8.8l-3.7-9.8V352l-8.1-2l8.1-4.9
			l-2.4-6.8l-10.5,2.9l-1.7-11.5l9.3,2l2.9-9.8l-6.6-11.2H689l-2.2,3.7l2.2-3.7l-14.2-3.7l-2.4-12.2l-24.4-2.9v9.3l-5.6,1.7
			l-3.2-8.8l-7.6,1.7l-4.2-17.6l-11.2,3.2l-5.4-16.9l-18.3,7.3l3.7,17.1l-12,5.4v7.3l-20,11.5l-10-4.9l-20-2.4l-23-3.7
			c-0.7,1-1.5,2.2-2.2,3.2c-11.5,12.5-36.7,25.9-36.7,25.9L450,342.7l-12.5-2.2l-8.8-1.5l-7.1-15.2l-3.9-36.9l-10-29.6l-15.2-23.2
			l-9.3-7.8L365,212.9l-14.4-6.1l-18.3,0.2l-17.4,7.8l-16.6,5.6l-14.4,0.5l-17.4-3.7l-14.9-4.9l-14.9-1.2H224v6.1l5.4,8.6l6.6,2.9
			l2.9,6.1l-1.2,9.8l6.1,8.6l9,4.2h4.2l6.6,8.6l13.7,14.9l9.8,9.8l17.1,2.4l7.6,2.4l11,6.1l8.8,9l6.6,9.8l2.4,12.7l2.4,9.8l8.8,12.5
			l4.2,13.9l1.5,12l0.2,5.9l-4.9,2.4h-12.2l-11.5-4.6h-8.8l-12.2,1l-12.5,1.7l-6.4,5.9l-2.4,7.3l2.2,8.3l14.9,6.4l13.4,7.3l6.1,4.2
			l-0.5,7.6l-4.2,4.9c0,0-0.2,6.4-0.2,7.3c0,1,0.2,6.1,0.2,6.1l-8.8,6.4l-6.1,2.4l-10.3,5.1l-7.1,7.1l0.2,8.6l7.3,7.6l2.7,11.2
			l-2.9,12.5l-7.6,6.4l-7.3,8.3l-3.9,8.3l1.2,6.6l8.3,2.7h8.3l11.2,2.7c0,0,6.6,2.4,7.6,3.7c1,1.2,4.6,5.9,4.6,5.9l-3.4,4.9
			l-3.9,2.2l-0.5,10.5l-2.4,17.6l-1.7,5.4v12.5v6.1v6.8l10.3,3.9L319.8,613.9z"/>
		<path style="fill:#023A4B;" d="M319.8,613.3l12.7,5.9v9.5h4.9l8.6-3.2L376,636l14.4-2l-1.7-2.9l1.7,2.9h0.7l4.9-5.4l8.6-8.6
			l6.8-4.9l-7.3-18.3l13.9,2l9.3,0.7l5.6-8.8l16.9,8.1l9.3-8.1V582l-10-3.4l-8.1-46.7l34.2-6.6V515l19.3-6.6v-21.5L484,470.6
			l-14.7-42l45.2-16.9l9.8,8.6l12.2-1.7v11.2l9.8,0.5l4.2,6.8l10-3.2l4.4,7.6l8.6-3.2v7.3l46.4-2l-3.2-16.9l20.8-5.6l27.4,6.6
			l4.4,13.9l6.6-5.6l13.4-6.8l6.6-7.3l5.6,0.7v-8.8l5.6-2l-4.9-25.4l-14.4,6.8l-4.2-7.3l18.3-8.8v-8.8l-3.7-9.8v-7.3l-8.1-2l8.1-4.9
			l-2.4-6.8l-10.5,2.9l-1.7-11.5l9.3,2l2.9-9.8l-6.6-11.2H689l-2.2,3.7l2.2-3.7l-14.2-3.7l-2.4-12.2l-24.4-2.9v9.3l-5.6,1.7
			l-3.2-8.8l-7.6,1.7l-4.2-17.6l-11.2,3.2l-5.4-16.9l-18.3,7.3l3.7,17.1l-12,5.4v7.3l-20,11.5l-10-4.9l-20-2.4l-23-3.7
			c-0.7,1-1.5,2.2-2.2,3.2c-11.5,12.5-36.7,25.9-36.7,25.9L450,342l-12.5-2.2l-8.8-1.5l-7.1-15.2l-3.9-36.9l-10-29.6l-15.2-23.2
			l-9.3-7.8L365,212.3l-14.4-6.1l-18.3,0.2l-17.4,7.8l-16.6,5.6l-14.4,0.5l-17.4-3.7l-14.9-4.9l-14.9-1.2H224v6.1l5.4,8.6l6.6,2.9
			l2.9,6.1l-1.2,9.8l6.1,8.6l9,4.2h4.2l6.6,8.6l13.7,14.9l9.8,9.8l17.1,2.4l7.6,2.4l11,6.1l8.8,9l6.6,9.8l2.4,12.7l2.4,9.8l8.8,12.5
			l4.2,13.9l1.5,12l0.2,5.9l-4.9,2.4h-12.2l-11.5-4.6h-8.8l-12.2,1l-12.5,1.7l-6.4,5.9l-2.4,7.3l2.2,8.3l14.9,6.4l13.4,7.3l6.1,4.2
			l-0.5,7.6l-4.2,4.9c0,0-0.2,6.4-0.2,7.3s0.2,6.1,0.2,6.1l-8.8,6.4l-6.1,2.4l-10.3,5.1l-7.1,7.1l0.2,8.6l7.3,7.6l2.7,11.2
			l-2.9,12.5l-7.6,6.4l-7.3,8.3l-3.9,8.3l1.2,6.6l8.3,2.7h8.3l11.2,2.7c0,0,6.6,2.4,7.6,3.7c1,1.2,4.6,5.9,4.6,5.9l-3.4,4.9
			l-3.9,2.2l-0.5,10.5l-2.4,17.6l-1.7,5.4v12.5v6.1v6.8l10.3,3.9L319.8,613.3z"/>
		<path style="fill:#033F4D;" d="M319.8,612.6l12.7,5.9v9.5h4.9l8.6-3.2l30.1,10.5l14.4-2l-1.7-2.9l1.7,2.9h0.7l4.9-5.4l8.6-8.6
			l6.8-4.9l-7.3-18.3l13.9,2l9.3,0.7l5.6-8.8l16.9,8.1l9.3-8.1v-8.8l-10-3.4l-8.1-46.7l34.2-6.6v-10.3l19.3-6.6v-21.5L484,469.9
			l-14.7-42l45.2-16.9l9.8,8.6l12.2-1.7v11.2l9.8,0.5l4.2,6.8l10-3.2l4.4,7.6l8.6-3.2v7.3l46.4-2l-3.2-16.9l20.8-5.6l27.4,6.6
			l4.4,13.9l6.6-5.6l13.4-6.8l6.6-7.3l5.6,0.7v-8.8l5.6-2l-4.9-25.4l-14.4,6.8l-4.2-7.3l18.3-8.8v-8.8l-3.7-9.8v-7.3l-8.1-2l8.1-4.9
			l-2.4-6.8l-10.5,2.9l-1.7-11.5l9.3,2l2.9-9.8l-6.6-11.2H689l-2.2,3.7l2.2-3.7l-14.2-3.7l-2.4-12.2l-24.4-2.9v9.3l-5.6,1.7
			l-3.2-8.8l-7.6,1.7l-4.2-17.6l-11.2,3.2l-5.4-16.9l-18.3,7.3l3.7,17.1l-12,5.4v7.3l-20,11.5l-10-4.9l-20-2.4l-23-3.7
			c-0.7,1-1.5,2.2-2.2,3.2c-11.5,12.5-36.7,25.9-36.7,25.9L450,341.4l-12.5-2.2l-8.8-1.5l-7.1-15.2l-3.9-36.9l-10-29.6l-15.2-23.2
			l-9.3-7.8L365,211.6l-14.4-6.1l-18.3,0.2l-17.4,7.8l-16.6,5.6l-14.4,0.5l-17.4-3.7l-14.9-4.9l-14.9-1.2H224v6.1l5.4,8.6l6.6,2.9
			l2.9,6.1l-1.2,9.8l6.1,8.6l9,4.2h4.2l6.6,8.6l13.7,14.9l9.8,9.8l17.1,2.4l7.6,2.4l11,6.1l8.8,9l6.6,9.8l2.4,12.7l2.4,9.8l8.8,12.5
			l4.2,13.9l1.5,12l0.2,5.9l-4.9,2.4h-12.2l-11.5-4.6h-8.8l-12.2,1l-12.5,1.7l-6.4,5.9l-2.4,7.3l2.2,8.3l14.9,6.4l13.4,7.3l6.1,4.2
			l-0.5,7.6l-4.2,4.9c0,0-0.2,6.4-0.2,7.3c0,1,0.2,6.1,0.2,6.1l-8.8,6.4l-6.1,2.4l-10.3,5.1l-7.1,7.1l0.2,8.6l7.3,7.6l2.7,11.2
			l-2.9,12.5l-7.6,6.4l-7.3,8.3l-3.9,8.3l1.2,6.6l8.3,2.7h8.3l11.2,2.7c0,0,6.6,2.4,7.6,3.7c1,1.2,4.6,5.9,4.6,5.9l-3.4,4.9L309,564
			l-0.5,10.5l-2.4,17.6l-1.7,5.4v12.5v6.1v6.8l10.3,3.9L319.8,612.6z"/>
		<path style="fill:#034350;" d="M319.8,612l12.7,5.9v9.5h4.9l8.6-3.2l30.1,10.5l14.4-2l-1.7-2.9l1.7,2.9h0.7l4.9-5.4l8.6-8.6
			l6.8-4.9l-7.3-18.3l13.9,2l9.3,0.7l5.6-8.8l16.9,8.1l9.3-8.1v-8.8l-10-3.4l-8.1-46.7l34.2-6.6v-10.3l19.3-6.6v-21.5L484,469.3
			l-14.7-42l45.2-16.9l9.8,8.6l12.2-1.7v11.2l9.8,0.5l4.2,6.8l10-3.2l4.4,7.6l8.6-3.2v7.3l46.4-2l-3.2-16.9l20.8-5.6l27.4,6.6
			l4.4,13.9l6.6-5.6l13.4-6.8l6.6-7.3l5.6,0.7v-8.8l5.6-2l-4.9-25.4l-14.4,6.8l-4.2-7.3l18.3-8.8v-8.8l-3.7-9.8V350l-8.1-2l8.1-4.9
			l-2.4-6.8l-10.5,2.9l-1.7-11.5l9.3,2l2.9-9.8l-6.6-11.2H689l-2.2,3.7l2.2-3.7l-14.2-3.7l-2.4-12.2l-24.4-2.9v9.3l-5.6,1.7
			l-3.2-8.8l-7.6,1.7l-4.2-17.6l-11.2,3.2l-5.4-16.9l-18.3,7.3l3.7,17.1l-12,5.4v7.3l-20,11.5l-10-4.9l-20-2.4l-23-3.7
			c-0.7,1-1.5,2.2-2.2,3.2c-11.5,12.5-36.7,25.9-36.7,25.9L450,340.7l-12.5-2.2l-8.8-1.5l-7.1-15.2l-3.9-36.9l-10-29.6l-15.2-23.2
			l-9.3-7.8L365,211l-14.4-6.1l-18.3,0.2l-17.4,7.8l-16.6,5.6l-14.4,0.5l-17.4-3.7l-14.9-4.9l-14.9-1.2H224v6.1l5.4,8.6l6.6,2.9
			l2.9,6.1l-1.2,9.8l6.1,8.6l9,4.2h4.2l6.6,8.6l13.7,14.9l9.8,9.8l17.1,2.4l7.6,2.4l11,6.1l8.8,9l6.6,9.8l2.4,12.7l2.4,9.8l8.8,12.5
			l4.2,13.9l1.5,12l0.2,5.9l-4.9,2.4h-12.2L329,383h-8.8l-12.2,1l-12.5,1.7l-6.4,5.9l-2.4,7.3l2.2,8.3l14.9,6.4l13.4,7.3l6.1,4.2
			l-0.5,7.6l-4.2,4.9c0,0-0.2,6.4-0.2,7.3s0.2,6.1,0.2,6.1l-8.8,6.4l-6.1,2.4l-10.3,5.1l-7.1,7.1l0.2,8.6l7.3,7.6l2.7,11.2
			l-2.9,12.5l-7.6,6.4l-7.3,8.3l-3.9,8.3l1.2,6.6l8.3,2.7h8.3l11.2,2.7c0,0,6.6,2.4,7.6,3.7c1,1.2,4.6,5.9,4.6,5.9l-3.4,4.9
			l-3.9,2.2l-0.5,10.5l-2.4,17.6l-1.7,5.4v12.5v6.1v6.8l10.3,3.9L319.8,612z"/>
		<path style="fill:#044853;" d="M319.8,611.3l12.7,5.9v9.5h4.9l8.6-3.2l30.1,10.5l14.4-2l-1.7-2.9l1.7,2.9h0.7l4.9-5.4l8.6-8.6
			l6.8-4.9l-7.3-18.3l13.9,2l9.3,0.7l5.6-8.8l16.9,8.1l9.3-8.1v-8.8l-10-3.4L441,530l34.2-6.6v-10.3l19.3-6.6V485L484,468.6
			l-14.7-42l45.2-16.9l9.8,8.6l12.2-1.7v11.2l9.8,0.5l4.2,6.8l10-3.2l4.4,7.6l8.6-3.2v7.3l46.4-2l-3.2-16.9l20.8-5.6l27.4,6.6
			l4.4,13.9l6.6-5.6l13.4-6.8l6.6-7.3l5.6,0.7v-8.8l5.6-2l-4.9-25.4l-14.4,6.8l-4.2-7.3l18.3-8.8v-8.8l-3.7-9.8v-7.3l-8.1-2l8.1-4.9
			l-2.4-6.8l-10.5,2.9l-1.7-11.5l9.3,2l2.9-9.8l-6.6-11.2H689l-2.2,3.7l2.2-3.7l-14.2-3.7l-2.4-12.2l-24.4-2.9v9.3l-5.6,1.7
			l-3.2-8.8l-7.6,1.7l-4.2-17.6l-11.2,3.2l-5.4-16.9l-18.3,7.3l3.7,17.1l-12,5.4v7.3l-20,11.5l-10-4.9l-20-2.4l-23-3.7
			c-0.7,1-1.5,2.2-2.2,3.2c-11.5,12.5-36.7,25.9-36.7,25.9L450,340.1l-12.5-2.2l-8.8-1.5l-7.1-15.2l-3.9-36.9l-10-29.6l-15.2-23.2
			l-9.3-7.8L365,210.3l-14.4-6.1l-18.3,0.2l-17.4,7.8l-16.6,5.6l-14.4,0.5l-17.4-3.7l-14.9-4.9l-14.9-1.2H224v6.1l5.4,8.6l6.6,2.9
			l2.9,6.1l-1.2,9.8l6.1,8.6l9,4.2h4.2l6.6,8.6l13.7,14.9l9.8,9.8l17.1,2.4l7.6,2.4l11,6.1l8.8,9l6.6,9.8l2.4,12.7l2.4,9.8l8.8,12.5
			l4.2,13.9l1.5,12l0.2,5.9l-4.9,2.4h-12.2l-11.5-4.6h-8.8l-12.2,1l-12.5,1.7l-6.4,5.9l-2.4,7.3l2.2,8.3l14.9,6.4l13.4,7.3l6.1,4.2
			l-0.5,7.6l-4.2,4.9c0,0-0.2,6.4-0.2,7.3c0,1,0.2,6.1,0.2,6.1l-8.8,6.4l-6.1,2.4l-10.3,5.1l-7.1,7.1l0.2,8.6l7.3,7.6l2.7,11.2
			l-2.9,12.5l-7.6,6.4l-7.3,8.3l-3.9,8.3l1.2,6.6l8.3,2.7h8.3l11.2,2.7c0,0,6.6,2.4,7.6,3.7c1,1.2,4.6,5.9,4.6,5.9l-3.4,4.9
			l-3.9,2.2l-0.5,10.5l-2.4,17.6l-1.7,5.4v12.5v6.1v6.8l10.3,3.9L319.8,611.3z"/>
		<path style="fill:#044C56;" d="M319.8,610.7l12.7,5.9v9.5h4.9l8.6-3.2l30.1,10.5l14.4-2l-1.7-2.9l1.7,2.9h0.7l4.9-5.4l8.6-8.6
			l6.8-4.9l-7.3-18.3l13.9,2l9.3,0.7l5.6-8.8l16.9,8.1l9.3-8.1v-8.8l-10-3.4l-8.1-46.7l34.2-6.6v-10.3l19.3-6.6v-21.5L484,468
			l-14.7-42l45.2-16.9l9.8,8.6l12.2-1.7v11.2l9.8,0.5l4.2,6.8l10-3.2l4.4,7.6l8.6-3.2v7.3l46.4-2l-3.2-16.9l20.8-5.6l27.4,6.6
			l4.4,13.9l6.6-5.6l13.4-6.8l6.6-7.3l5.6,0.7v-8.8l5.6-2l-4.9-25.4l-14.4,6.8l-4.2-7.3l18.3-8.8v-8.8l-3.7-9.8v-7.3l-8.1-2l8.1-4.9
			l-2.4-6.8l-10.5,2.9l-1.7-11.5l9.3,2l2.9-9.8l-6.6-11.2H689l-2.2,3.7l2.2-3.7l-14.2-3.7l-2.4-12.2l-24.4-2.9v9.3l-5.6,1.7
			l-3.2-8.8l-7.6,1.7l-4.2-17.6l-11.2,3.2l-5.4-16.9l-18.3,7.3l3.7,17.1l-12,5.4v7.3l-20,11.5l-10-4.9l-20-2.4l-23-3.7
			c-0.7,1-1.5,2.2-2.2,3.2c-11.5,12.5-36.7,25.9-36.7,25.9L450,339.4l-12.5-2.2l-8.8-1.5l-7.1-15.2l-3.9-36.9l-10-29.6l-15.2-23.2
			l-9.3-7.8L365,209.7l-14.4-6.1l-18.3,0.2l-17.4,7.8l-16.6,5.6l-14.4,0.5l-17.4-3.7l-14.9-4.9l-14.9-1.2H224v6.1l5.4,8.6l6.6,2.9
			l2.9,6.1l-1.2,9.8l6.1,8.6l9,4.2h4.2l6.6,8.6l13.7,14.9l9.8,9.8l17.1,2.4l7.6,2.4l11,6.1l8.8,9l6.6,9.8l2.4,12.7l2.4,9.8l8.8,12.5
			l4.2,13.9l1.5,12l0.2,5.9l-4.9,2.4h-12.2l-11.5-4.6h-8.8l-12.2,1l-12.5,1.7l-6.4,5.9l-2.4,7.3l2.2,8.3l14.9,6.4l13.4,7.3l6.1,4.2
			l-0.5,7.6l-4.2,4.9c0,0-0.2,6.4-0.2,7.3c0,1,0.2,6.1,0.2,6.1L310,456l-6.1,2.4l-10.3,5.1l-7.1,7.1l0.2,8.6l7.3,7.6l2.7,11.2
			l-2.9,12.5l-7.6,6.4l-7.3,8.3l-3.9,8.3l1.2,6.6l8.3,2.7h8.3l11.2,2.7c0,0,6.6,2.4,7.6,3.7c1,1.2,4.6,5.9,4.6,5.9l-3.4,4.9
			l-3.9,2.2l-0.5,10.5l-2.4,17.6l-1.7,5.4V608v6.1v6.8l10.3,3.9L319.8,610.7z"/>
		<path style="fill:#045159;" d="M319.8,610.1l12.7,5.9v9.5h4.9l8.6-3.2l30.1,10.5l14.4-2l-1.7-2.9l1.7,2.9h0.7l4.9-5.4l8.6-8.6
			l6.8-4.9l-7.3-18.3l13.9,2l9.3,0.7l5.6-8.8l16.9,8.1l9.3-8.1v-8.8l-10-3.4l-8.1-46.7l34.2-6.6v-10.3l19.3-6.6v-21.5L484,467.3
			l-14.7-42l45.2-16.9l9.8,8.6l12.2-1.7v11.2l9.8,0.5l4.2,6.8l10-3.2l4.4,7.6l8.6-3.2v7.3l46.4-2l-3.2-16.9l20.8-5.6l27.4,6.6
			l4.4,13.9l6.6-5.6l13.4-6.8l6.6-7.3l5.6,0.7v-8.8l5.6-2l-4.9-25.4l-14.4,6.8l-4.2-7.3L702,374v-8.8l-3.7-9.8v-7.3l-8.1-2l8.1-4.9
			l-2.4-6.8l-10.5,2.9l-1.7-11.5l9.3,2l2.9-9.8l-6.6-11.2H689l-2.2,3.7l2.2-3.7l-14.2-3.7l-2.4-12.2L648,288v9.3l-5.6,1.7l-3.2-8.8
			l-7.6,1.7l-4.2-17.6l-11.2,3.2l-5.4-16.9l-18.3,7.3l3.7,17.1l-12,5.4v7.3l-20,11.5l-10-4.9l-20-2.4l-23-3.7
			c-0.7,1-1.5,2.2-2.2,3.2c-11.5,12.5-36.7,25.9-36.7,25.9L450,338.8l-12.5-2.2l-8.8-1.5l-7.1-15.2l-3.9-36.9l-10-29.6l-15.2-23.2
			l-9.3-7.8L365,209l-14.4-6.1l-18.3,0.2l-17.4,7.8l-16.6,5.6l-14.4,0.5l-17.4-3.7l-14.9-4.9l-14.9-1.2H224v6.1l5.4,8.6l6.6,2.9
			l2.9,6.1l-1.2,9.8l6.1,8.6l9,4.2h4.2l6.6,8.6l13.7,14.9l9.8,9.8l17.1,2.4l7.6,2.4l11,6.1l8.8,9l6.6,9.8l2.4,12.7l2.4,9.8l8.8,12.5
			l4.2,13.9l1.5,12l0.2,5.9l-4.9,2.4h-12.2l-11.5-4.6h-8.8l-12.2,1l-12.5,1.7l-6.4,5.9l-2.4,7.3l2.2,8.3l14.9,6.4l13.4,7.3l6.1,4.2
			l-0.5,7.6l-4.2,4.9c0,0-0.2,6.4-0.2,7.3s0.2,6.1,0.2,6.1l-8.8,6.4l-6.1,2.4l-10.3,5.1l-7.1,7.1l0.2,8.6l7.3,7.6l2.7,11.2
			l-2.9,12.5l-7.6,6.4l-7.3,8.3l-3.9,8.3l1.2,6.6l8.3,2.7h8.3l11.2,2.7c0,0,6.6,2.4,7.6,3.7c1,1.2,4.6,5.9,4.6,5.9l-3.4,4.9
			l-3.9,2.2l-0.5,10.5l-2.4,17.6l-1.7,5.4v12.5v6.1v6.8l10.3,3.9L319.8,610.1z"/>
		<path style="fill:#05565C;" d="M319.8,609.4l12.7,5.9v9.5h4.9l8.6-3.2l30.1,10.5l14.4-2l-1.7-2.9l1.7,2.9h0.7l4.9-5.4l8.6-8.6
			l6.8-4.9l-7.3-18.3l13.9,2l9.3,0.7l5.6-8.8l16.9,8.1l9.3-8.1v-8.8l-10-3.4L441,528l34.2-6.6v-10.3l19.3-6.6v-21.5L484,466.7
			l-14.7-42l45.2-16.9l9.8,8.6l12.2-1.7v11.2l9.8,0.5l4.2,6.8l10-3.2l4.4,7.6l8.6-3.2v7.3l46.4-2l-3.2-16.9l20.8-5.6l27.4,6.6
			l4.4,13.9l6.6-5.6l13.4-6.8l6.6-7.3l5.6,0.7V410l5.6-2l-4.9-25.4l-14.4,6.8l-4.2-7.3l18.3-8.8v-8.8l-3.7-9.8v-7.3l-8.1-2l8.1-4.9
			l-2.4-6.8l-10.5,2.9l-1.7-11.5l9.3,2l2.9-9.8l-6.6-11.2H689l-2.2,3.7l2.2-3.7l-14.2-3.7l-2.4-12.2l-24.4-2.9v9.3l-5.6,1.7
			l-3.2-8.8l-7.6,1.7l-4.2-17.6l-11.2,3.2l-5.4-16.9l-18.3,7.3l3.7,17.1l-12,5.4v7.3l-20,11.5l-10-4.9l-20-2.4l-23-3.7
			c-0.7,1-1.5,2.2-2.2,3.2c-11.5,12.5-36.7,25.9-36.7,25.9L450,338.2l-12.5-2.2l-8.8-1.5l-7.1-15.2l-3.9-36.9l-10-29.6l-15.2-23.2
			l-9.3-7.8L365,208.4l-14.4-6.1l-18.3,0.2l-17.4,7.8l-16.6,5.6l-14.4,0.5l-17.4-3.7l-14.9-4.9l-14.9-1.2H224v6.1l5.4,8.6l6.6,2.9
			l2.9,6.1l-1.2,9.8l6.1,8.6l9,4.2h4.2l6.6,8.6l13.7,14.9l9.8,9.8l17.1,2.4l7.6,2.4l11,6.1l8.8,9l6.6,9.8l2.4,12.7l2.4,9.8l8.8,12.5
			l4.2,13.9l1.5,12l0.2,5.9l-4.9,2.4h-12.2l-11.5-4.6h-8.8l-12.2,1l-12.5,1.7l-6.4,5.9l-2.4,7.3l2.2,8.3l14.9,6.4l13.4,7.3l6.1,4.2
			l-0.5,7.6l-4.2,4.9c0,0-0.2,6.4-0.2,7.3c0,1,0.2,6.1,0.2,6.1l-8.8,6.4l-6.1,2.4l-10.3,5.1l-7.1,7.1l0.2,8.6l7.3,7.6l2.7,11.2
			l-2.9,12.5l-7.6,6.4l-7.3,8.3l-3.9,8.3l1.2,6.6l8.3,2.7h8.3l11.2,2.7c0,0,6.6,2.4,7.6,3.7c1,1.2,4.6,5.9,4.6,5.9l-3.4,4.9
			l-3.9,2.2l-0.5,10.5l-2.4,17.6l-1.7,5.4v12.5v6.1v6.8l10.3,3.9L319.8,609.4z"/>
		<path style="fill:#055A5F;" d="M319.8,608.8l12.7,5.9v9.5h4.9l8.6-3.2l30.1,10.5l14.4-2l-1.7-2.9l1.7,2.9h0.7l4.9-5.4l8.6-8.6
			l6.8-4.9l-7.3-18.3l13.9,2l9.3,0.7l5.6-8.8l16.9,8.1l9.3-8.1v-8.8l-10-3.4l-8.1-46.7l34.2-6.6v-10.3l19.3-6.6v-21.5L484,466
			l-14.7-42l45.2-16.9l9.8,8.6l12.2-1.7v11.2l9.8,0.5l4.2,6.8l10-3.2l4.4,7.6l8.6-3.2v7.3l46.4-2l-3.2-16.9l20.8-5.6l27.4,6.6
			l4.4,13.9l6.6-5.6l13.4-6.8l6.6-7.3l5.6,0.7v-8.8l5.6-2l-4.9-25.4l-14.4,6.8l-4.2-7.3l18.3-8.8v-8.8l-3.7-9.8v-7.3l-8.1-2l8.1-4.9
			l-2.4-6.8l-10.5,2.9l-1.7-11.5l9.3,2l2.9-9.8l-6.6-11.2H689l-2.2,3.7l2.2-3.7l-14.2-3.7l-2.4-12.2l-24.4-2.9v9.3l-5.6,1.7
			l-3.2-8.8l-7.6,1.7l-4.2-17.6l-11.2,3.2l-5.4-16.9l-18.3,7.3l3.7,17.1l-12,5.4v7.3l-20,11.5l-10-4.9l-20-2.4l-23-3.7
			c-0.7,1-1.5,2.2-2.2,3.2c-11.5,12.5-36.7,25.9-36.7,25.9L450,337.5l-12.5-2.2l-8.8-1.5l-7.1-15.2l-3.9-36.9l-10-29.6L392.6,229
			l-9.3-7.8L365,207.7l-14.4-6.1l-18.3,0.2l-17.4,7.8l-16.6,5.6l-14.4,0.5l-17.4-3.7l-14.9-4.9l-14.9-1.2H224v6.1l5.4,8.6l6.6,2.9
			l2.9,6.1l-1.2,9.8l6.1,8.6l9,4.2h4.2l6.6,8.6l13.7,14.9l9.8,9.8l17.1,2.4l7.6,2.4l11,6.1l8.8,9l6.6,9.8l2.4,12.7l2.4,9.8l8.8,12.5
			l4.2,13.9l1.5,12l0.2,5.9l-4.9,2.4h-12.2l-11.5-4.6h-8.8l-12.2,1l-12.5,1.7l-6.4,5.9l-2.4,7.3l2.2,8.3l14.9,6.4l13.4,7.3l6.1,4.2
			l-0.5,7.6l-4.2,4.9c0,0-0.2,6.4-0.2,7.3s0.2,6.1,0.2,6.1l-8.8,6.4l-6.1,2.4l-10.3,5.1l-7.1,7.1l0.2,8.6l7.3,7.6l2.7,11.2
			l-2.9,12.5l-7.6,6.4l-7.3,8.3l-3.9,8.3l1.2,6.6l8.3,2.7h8.3l11.2,2.7c0,0,6.6,2.4,7.6,3.7c1,1.2,4.6,5.9,4.6,5.9l-3.4,4.9
			l-3.9,2.2l-0.5,10.5l-2.4,17.6l-1.7,5.4v12.5v6.1v6.8l10.3,3.9L319.8,608.8z"/>
		<path style="fill:#055F62;" d="M319.8,608.1l12.7,5.9v9.5h4.9l8.6-3.2l30.1,10.5l14.4-2l-1.7-2.9l1.7,2.9h0.7l4.9-5.4l8.6-8.6
			l6.8-4.9l-7.3-18.3l13.9,2l9.3,0.7l5.6-8.8l16.9,8.1l9.3-8.1v-8.8l-10-3.4l-8.1-46.7l34.2-6.6v-10.3l19.3-6.6v-21.5L484,465.4
			l-14.7-42l45.2-16.9l9.8,8.6l12.2-1.7v11.2l9.8,0.5l4.2,6.8l10-3.2l4.4,7.6l8.6-3.2v7.3l46.4-2l-3.2-16.9l20.8-5.6l27.4,6.6
			l4.4,13.9l6.6-5.6l13.4-6.8l6.6-7.3l5.6,0.7v-8.8l5.6-2l-4.9-25.4l-14.4,6.8l-4.2-7.3l18.3-8.8v-8.8l-3.7-9.8v-7.3l-8.1-2l8.1-4.9
			l-2.4-6.8l-10.5,2.9l-1.7-11.5l9.3,2l2.9-9.8l-6.6-11.2H689l-2.2,3.7l2.2-3.7l-14.2-3.7l-2.4-12.2L648,286v9.3l-5.6,1.7l-3.2-8.8
			l-7.6,1.7l-4.2-17.6l-11.2,3.2l-5.4-16.9l-18.3,7.3l3.7,17.1l-12,5.4v7.3l-20,11.5l-10-4.9l-20-2.4l-23-3.7
			c-0.7,1-1.5,2.2-2.2,3.2c-11.5,12.5-36.7,25.9-36.7,25.9L450,336.9l-12.5-2.2l-8.8-1.5l-7.1-15.2l-3.9-36.9l-10-29.6l-15.2-23.2
			l-9.3-7.8L365,207.1l-14.4-6.1l-18.3,0.2l-17.4,7.8l-16.6,5.6l-14.4,0.5l-17.4-3.7l-14.9-4.9l-14.9-1.2H224v6.1l5.4,8.6l6.6,2.9
			l2.9,6.1l-1.2,9.8l6.1,8.6l9,4.2h4.2l6.6,8.6l13.7,14.9l9.8,9.8l17.1,2.4l7.6,2.4l11,6.1l8.8,9l6.6,9.8l2.4,12.7l2.4,9.8l8.8,12.5
			l4.2,13.9l1.5,12l0.2,5.9l-4.9,2.4h-12.2l-11.5-4.6h-8.8l-12.2,1l-12.5,1.7l-6.4,5.9l-2.4,7.3l2.2,8.3l14.9,6.4l13.4,7.3l6.1,4.2
			l-0.5,7.6l-4.2,4.9c0,0-0.2,6.4-0.2,7.3c0,1,0.2,6.1,0.2,6.1l-8.8,6.4l-6.1,2.4l-10.3,5.1l-7.1,7.1l0.2,8.6l7.3,7.6l2.7,11.2
			l-2.9,12.5l-7.6,6.4l-7.3,8.3l-3.9,8.3l1.2,6.6l8.3,2.7h8.3l11.2,2.7c0,0,6.6,2.4,7.6,3.7c1,1.2,4.6,5.9,4.6,5.9l-3.4,4.9
			l-3.9,2.2l-0.5,10.5l-2.4,17.6l-1.7,5.4v12.5v6.1v6.8l10.3,3.9L319.8,608.1z"/>
		<path style="fill:#066365;" d="M319.8,607.5l12.7,5.9v9.5h4.9l8.6-3.2l30.1,10.5l14.4-2l-1.7-2.9l1.7,2.9h0.7l4.9-5.4l8.6-8.6
			l6.8-4.9l-7.3-18.3l13.9,2l9.3,0.7l5.6-8.8l16.9,8.1l9.3-8.1v-8.8l-10-3.4l-8.1-46.7l34.2-6.6v-10.3l19.3-6.6v-21.5L484,464.8
			l-14.7-42l45.2-16.9l9.8,8.6l12.2-1.7v11.2l9.8,0.5l4.2,6.8l10-3.2l4.4,7.6l8.6-3.2v7.3l46.4-2l-3.2-16.9l20.8-5.6l27.4,6.6
			l4.4,13.9l6.6-5.6l13.4-6.8l6.6-7.3l5.6,0.7v-8.8l5.6-2l-4.9-25.4l-14.4,6.8l-4.2-7.3l18.3-8.8v-8.8l-3.7-9.8v-7.3l-8.1-2l8.1-4.9
			l-2.4-6.8l-10.5,2.9l-1.7-11.5l9.3,2l2.9-9.8l-6.6-11.2H689l-2.2,3.7l2.2-3.7l-14.2-3.7l-2.4-12.2l-24.4-2.9v9.3l-5.6,1.7
			l-3.2-8.8l-7.6,1.7l-4.2-17.6l-11.2,3.2l-5.4-16.9l-18.3,7.3l3.7,17.1l-12,5.4v7.3l-20,11.5l-10-4.9l-20-2.4l-23-3.7
			c-0.7,1-1.5,2.2-2.2,3.2c-11.5,12.5-36.7,25.9-36.7,25.9L450,336.2l-12.5-2.2l-8.8-1.5l-7.1-15.2l-3.9-36.9l-10-29.6l-15.2-23.2
			l-9.3-7.8L365,206.5l-14.4-6.1l-18.3,0.2l-17.4,7.8l-16.6,5.6l-14.4,0.5l-17.4-3.7l-14.9-4.9l-14.9-1.2H224v6.1l5.4,8.6l6.6,2.9
			l2.9,6.1l-1.2,9.8l6.1,8.6l9,4.2h4.2l6.6,8.6l13.7,14.9l9.8,9.8l17.1,2.4l7.6,2.4l11,6.1l8.8,9l6.6,9.8l2.4,12.7l2.4,9.8l8.8,12.5
			l4.2,13.9l1.5,12l0.2,5.9l-4.9,2.4h-12.2l-11.5-4.6h-8.8l-12.2,1l-12.5,1.7l-6.4,5.9l-2.4,7.3l2.2,8.3l14.9,6.4l13.4,7.3l6.1,4.2
			l-0.5,7.6l-4.2,4.9c0,0-0.2,6.4-0.2,7.3c0,1,0.2,6.1,0.2,6.1l-8.8,6.4l-6.1,2.4l-10.3,5.1l-7.1,7.1l0.2,8.6l7.3,7.6l2.7,11.2
			l-2.9,12.5l-7.6,6.4l-7.3,8.3l-3.9,8.3l1.2,6.6l8.3,2.7h8.3l11.2,2.7c0,0,6.6,2.4,7.6,3.7c1,1.2,4.6,5.9,4.6,5.9l-3.4,4.9
			l-3.9,2.2l-0.5,10.5l-2.4,17.6l-1.7,5.4v12.5v6.1v6.8l10.3,3.9L319.8,607.5z"/>
		<path style="fill:#066868;" d="M319.8,606.8l12.7,5.9v9.5h4.9l8.6-3.2l30.1,10.5l14.4-2l-1.7-2.9l1.7,2.9h0.7l4.9-5.4l8.6-8.6
			l6.8-4.9l-7.3-18.3l13.9,2l9.3,0.7l5.6-8.8l16.9,8.1l9.3-8.1v-8.8l-10-3.4l-8.1-46.7l34.2-6.6v-10.3l19.3-6.6v-21.5L484,464.1
			l-14.7-42l45.2-16.9l9.8,8.6l12.2-1.7v11.2l9.8,0.5l4.2,6.8l10-3.2l4.4,7.6l8.6-3.2v7.3l46.4-2l-3.2-16.9l20.8-5.6l27.4,6.6
			l4.4,13.9l6.6-5.6l13.4-6.8l6.6-7.3l5.6,0.7v-8.8l5.6-2l-4.9-25.4l-14.4,6.8l-4.2-7.3l18.3-8.8V362l-3.7-9.8v-7.3l-8.1-2l8.1-4.9
			l-2.4-6.8l-10.5,2.9l-1.7-11.5l9.3,2l2.9-9.8l-6.6-11.2H689l-2.2,3.7l2.2-3.7l-14.2-3.7l-2.4-12.2l-24.4-2.9v9.3l-5.6,1.7
			l-3.2-8.8l-7.6,1.7l-4.2-17.6l-11.2,3.2l-5.4-16.9l-18.3,7.3l3.7,17.1l-12,5.4v7.3l-20,11.5l-10-4.9l-20-2.4l-23-3.7
			c-0.7,1-1.5,2.2-2.2,3.2c-11.5,12.5-36.7,25.9-36.7,25.9L450,335.6l-12.5-2.2l-8.8-1.5l-7.1-15.2l-3.9-36.9l-10-29.6l-15.2-23.2
			l-9.3-7.8L365,205.8l-14.4-6.1l-18.3,0.2l-17.4,7.8l-16.6,5.6l-14.4,0.5l-17.4-3.7l-14.9-4.9l-14.9-1.2H224v6.1l5.4,8.6l6.6,2.9
			l2.9,6.1l-1.2,9.8l6.1,8.6l9,4.2h4.2l6.6,8.6l13.7,14.9l9.8,9.8l17.1,2.4l7.6,2.4l11,6.1l8.8,9l6.6,9.8l2.4,12.7l2.4,9.8l8.8,12.5
			l4.2,13.9l1.5,12l0.2,5.9l-4.9,2.4h-12.2l-11.5-4.6h-8.8l-12.2,1l-12.5,1.7l-6.4,5.9l-2.4,7.3l2.2,8.3l14.9,6.4l13.4,7.3l6.1,4.2
			l-0.5,7.6l-4.2,4.9c0,0-0.2,6.4-0.2,7.3s0.2,6.1,0.2,6.1l-8.8,6.4l-6.1,2.4l-10.3,5.1l-7.1,7.1l0.2,8.6l7.3,7.6l2.7,11.2
			l-2.9,12.5l-7.6,6.4l-7.3,8.3l-3.9,8.3l1.2,6.6l8.3,2.7h8.3l11.2,2.7c0,0,6.6,2.4,7.6,3.7c1,1.2,4.6,5.9,4.6,5.9l-3.4,4.9
			l-3.9,2.2l-0.5,10.5l-2.4,17.6l-1.7,5.4v12.5v6.1v6.8l10.3,3.9L319.8,606.8z"/>
		<path style="fill:#066C6B;" d="M319.8,606.2l12.7,5.9v9.5h4.9l8.6-3.2l30.1,10.5l14.4-2l-1.7-2.9l1.7,2.9h0.7l4.9-5.4l8.6-8.6
			l6.8-4.9l-7.3-18.3l13.9,2l9.3,0.7l5.6-8.8l16.9,8.1l9.3-8.1v-8.8l-10-3.4l-8.1-46.7l34.2-6.6v-10.3l19.3-6.6v-21.5L484,463.5
			l-14.7-42l45.2-16.9l9.8,8.6l12.2-1.7v11.2l9.8,0.5l4.2,6.8l10-3.2l4.4,7.6l8.6-3.2v7.3l46.4-2l-3.2-16.9l20.8-5.6l27.4,6.6
			l4.4,13.9l6.6-5.6l13.4-6.8l6.6-7.3l5.6,0.7v-8.8l5.6-2l-4.9-25.4l-14.4,6.8l-4.2-7.3l18.3-8.8v-8.8l-3.7-9.8v-7.3l-8.1-2l8.1-4.9
			l-2.4-6.8l-10.5,2.9l-1.7-11.5l9.3,2l2.9-9.8l-6.6-11.2H689l-2.2,3.7l2.2-3.7l-14.2-3.7l-2.4-12.2l-24.4-2.9v9.3l-5.6,1.7
			l-3.2-8.8l-7.6,1.7l-4.2-17.6l-11.2,3.2l-5.4-16.9l-18.3,7.3l3.7,17.1l-12,5.4v7.3l-20,11.5l-10-4.9l-20-2.4l-23-3.7
			c-0.7,1-1.5,2.2-2.2,3.2c-11.5,12.5-36.7,25.9-36.7,25.9L450,334.9l-12.5-2.2l-8.8-1.5l-7.1-15.2l-3.9-36.9l-10-29.6l-15.2-23.2
			l-9.3-7.8L365,205.2l-14.4-6.1l-18.3,0.2l-17.4,7.8l-16.6,5.6l-14.4,0.5l-17.4-3.7l-14.9-4.9l-14.9-1.2H224v6.1l5.4,8.6l6.6,2.9
			l2.9,6.1l-1.2,9.8l6.1,8.6l9,4.2h4.2l6.6,8.6l13.7,14.9l9.8,9.8l17.1,2.4l7.6,2.4l11,6.1l8.8,9l6.6,9.8l2.4,12.7l2.4,9.8l8.8,12.5
			l4.2,13.9l1.5,12l0.2,5.9l-4.9,2.4h-12.2l-11.5-4.6h-8.8l-12.2,1l-12.5,1.7l-6.4,5.9l-2.4,7.3l2.2,8.3l14.9,6.4l13.4,7.3l6.1,4.2
			l-0.5,7.6l-4.2,4.9c0,0-0.2,6.4-0.2,7.3c0,1,0.2,6.1,0.2,6.1l-8.8,6.4l-6.1,2.4l-10.3,5.1l-7.1,7.1l0.2,8.6l7.3,7.6l2.7,11.2
			l-2.9,12.5l-7.6,6.4l-7.3,8.3L275,529l1.2,6.6l8.3,2.7h8.3l11.2,2.7c0,0,6.6,2.4,7.6,3.7c1,1.2,4.6,5.9,4.6,5.9l-3.4,4.9l-3.9,2.2
			l-0.5,10.5l-2.4,17.6l-1.7,5.4v12.5v6.1v6.8l10.3,3.9L319.8,606.2z"/>
		<path style="fill:#07716E;" d="M319.8,605.5l12.7,5.9v9.5h4.9l8.6-3.2l30.1,10.5l14.4-2l-1.7-2.9l1.7,2.9h0.7l4.9-5.4l8.6-8.6
			l6.8-4.9l-7.3-18.3l13.9,2l9.3,0.7l5.6-8.8l16.9,8.1l9.3-8.1v-8.8l-10-3.4l-8.1-46.7l34.2-6.6v-10.3l19.3-6.6v-21.5L484,462.8
			l-14.7-42l45.2-16.9l9.8,8.6l12.2-1.7V422l9.8,0.5l4.2,6.8l10-3.2l4.4,7.6l8.6-3.2v7.3l46.4-2l-3.2-16.9l20.8-5.6l27.4,6.6
			l4.4,13.9l6.6-5.6l13.4-6.8l6.6-7.3l5.6,0.7v-8.8l5.6-2l-4.9-25.4l-14.4,6.8l-4.2-7.3l18.3-8.8v-8.8l-3.7-9.8v-7.3l-8.1-2l8.1-4.9
			l-2.4-6.8l-10.5,2.9l-1.7-11.5l9.3,2l2.9-9.8l-6.6-11.2H689l-2.2,3.7l2.2-3.7l-14.2-3.7l-2.4-12.2l-24.4-2.9v9.3l-5.6,1.7
			l-3.2-8.8l-7.6,1.7l-4.2-17.6l-11.2,3.2l-5.4-16.9l-18.3,7.3l3.7,17.1l-12,5.4v7.3l-20,11.5l-10-4.9l-20-2.4l-23-3.7
			c-0.7,1-1.5,2.2-2.2,3.2c-11.5,12.5-36.7,25.9-36.7,25.9L450,334.3l-12.5-2.2l-8.8-1.5l-7.1-15.2l-3.9-36.9l-10-29.6l-15.2-23.2
			l-9.3-7.8L365,204.5l-14.4-6.1l-18.3,0.2l-17.4,7.8l-16.6,5.6l-14.4,0.5l-17.4-3.7l-14.9-4.9l-14.9-1.2H224v6.1l5.4,8.6l6.6,2.9
			l2.9,6.1l-1.2,9.8l6.1,8.6l9,4.2h4.2l6.6,8.6l13.7,14.9l9.8,9.8l17.1,2.4l7.6,2.4l11,6.1l8.8,9l6.6,9.8l2.4,12.7l2.4,9.8l8.8,12.5
			l4.2,13.9l1.5,12l0.2,5.9l-4.9,2.4h-12.2l-11.5-4.6h-8.8l-12.2,1l-12.5,1.7l-6.4,5.9l-2.4,7.3l2.2,8.3l14.9,6.4l13.4,7.3l6.1,4.2
			l-0.5,7.6l-4.2,4.9c0,0-0.2,6.4-0.2,7.3s0.2,6.1,0.2,6.1l-8.8,6.4l-6.1,2.4l-10.3,5.1l-7.1,7.1l0.2,8.6l7.3,7.6l2.7,11.2
			l-2.9,12.5l-7.6,6.4l-7.3,8.3l-3.9,8.3l1.2,6.6l8.3,2.7h8.3l11.2,2.7c0,0,6.6,2.4,7.6,3.7c1,1.2,4.6,5.9,4.6,5.9l-3.4,4.9
			l-3.9,2.2l-0.5,10.5l-2.4,17.6l-1.7,5.4v12.5v6.1v6.8l10.3,3.9L319.8,605.5z"/>
		<path style="fill:#077671;" d="M319.8,604.9l12.7,5.9v9.5h4.9l8.6-3.2l30.1,10.5l14.4-2l-1.7-2.9l1.7,2.9h0.7l4.9-5.4l8.6-8.6
			l6.8-4.9l-7.3-18.3l13.9,2l9.3,0.7l5.6-8.8l16.9,8.1l9.3-8.1v-8.8l-10-3.4l-8.1-46.7l34.2-6.6v-10.3l19.3-6.6v-21.5L484,462.2
			l-14.7-42l45.2-16.9l9.8,8.6l12.2-1.7v11.2l9.8,0.5l4.2,6.8l10-3.2l4.4,7.6l8.6-3.2v7.3l46.4-2l-3.2-16.9l20.8-5.6l27.4,6.6
			l4.4,13.9l6.6-5.6l13.4-6.8l6.6-7.3l5.6,0.7v-8.8l5.6-2l-4.9-25.4l-14.4,6.8l-4.2-7.3l18.3-8.8V360l-3.7-9.8v-7.3l-8.1-2l8.1-4.9
			l-2.4-6.8l-10.5,2.9l-1.7-11.5l9.3,2l2.9-9.8l-6.6-11.2H689l-2.2,3.7l2.2-3.7l-14.2-3.7l-2.4-12.2l-24.4-2.9v9.3l-5.6,1.7
			l-3.2-8.8l-7.6,1.7l-4.2-17.6l-11.2,3.2l-5.4-16.9l-18.3,7.3l3.7,17.1l-12,5.4v7.3l-20,11.5l-10-4.9l-20-2.4l-23-3.7
			c-0.7,1-1.5,2.2-2.2,3.2c-11.5,12.5-36.7,25.9-36.7,25.9L450,333.6l-12.5-2.2l-8.8-1.5l-7.1-15.2l-3.9-36.9l-10-29.6l-15.2-23.2
			l-9.3-7.8L365,203.9l-14.4-6.1l-18.3,0.2l-17.4,7.8l-16.6,5.6l-14.4,0.5l-17.4-3.7l-14.9-4.9l-14.9-1.2H224v6.1l5.4,8.6l6.6,2.9
			l2.9,6.1l-1.2,9.8l6.1,8.6l9,4.2h4.2l6.6,8.6l13.7,14.9l9.8,9.8l17.1,2.4l7.6,2.4l11,6.1l8.8,9l6.6,9.8l2.4,12.7l2.4,9.8l8.8,12.5
			l4.2,13.9l1.5,12l0.2,5.9l-4.9,2.4h-12.2l-11.5-4.6h-8.8l-12.2,1l-12.5,1.7l-6.4,5.9l-2.4,7.3l2.2,8.3l14.9,6.4l13.4,7.3l6.1,4.2
			l-0.5,7.6l-4.2,4.9c0,0-0.2,6.4-0.2,7.3c0,1,0.2,6.1,0.2,6.1l-8.8,6.4l-6.1,2.4l-10.3,5.1l-7.1,7.1l0.2,8.6l7.3,7.6l2.7,11.2
			l-2.9,12.5l-7.6,6.4l-7.3,8.3l-3.9,8.3l1.2,6.6l8.3,2.7h8.3l11.2,2.7c0,0,6.6,2.4,7.6,3.7c1,1.2,4.6,5.9,4.6,5.9l-3.4,4.9
			l-3.9,2.2l-0.5,10.5l-2.4,17.6l-1.7,5.4v12.5v6.1v6.8l10.3,3.9L319.8,604.9z"/>
		<path style="fill:#077A74;" d="M319.8,604.3l12.7,5.9v9.5h4.9l8.6-3.2L376,627l14.4-2l-1.7-2.9l1.7,2.9h0.7l4.9-5.4l8.6-8.6
			l6.8-4.9l-7.3-18.3l13.9,2l9.3,0.7l5.6-8.8l16.9,8.1l9.3-8.1V573l-10-3.4l-8.1-46.7l34.2-6.6V506l19.3-6.6v-21.5L484,461.5
			l-14.7-42l45.2-16.9l9.8,8.6l12.2-1.7v11.2l9.8,0.5l4.2,6.8l10-3.2l4.4,7.6l8.6-3.2v7.3l46.4-2l-3.2-16.9l20.8-5.6l27.4,6.6
			l4.4,13.9l6.6-5.6l13.4-6.8l6.6-7.3l5.6,0.7v-8.8l5.6-2l-4.9-25.4l-14.4,6.8l-4.2-7.3l18.3-8.8v-8.8l-3.7-9.8v-7.3l-8.1-2l8.1-4.9
			l-2.4-6.8l-10.5,2.9l-1.7-11.5l9.3,2l2.9-9.8l-6.6-11.2H689l-2.2,3.7l2.2-3.7l-14.2-3.7l-2.4-12.2l-24.4-2.9v9.3l-5.6,1.7
			l-3.2-8.8l-7.6,1.7l-4.2-17.6l-11.2,3.2l-5.4-16.9l-18.3,7.3l3.7,17.1l-12,5.4v7.3l-20,11.5l-10-4.9l-20-2.4l-23-3.7
			c-0.7,1-1.5,2.2-2.2,3.2c-11.5,12.5-36.7,25.9-36.7,25.9L450,333l-12.5-2.2l-8.8-1.5l-7.1-15.2l-3.9-36.9l-10-29.6l-15.2-23.2
			l-9.3-7.8L365,203.2l-14.4-6.1l-18.3,0.2l-17.4,7.8l-16.6,5.6l-14.4,0.5l-17.4-3.7l-14.9-4.9l-14.9-1.2H224v6.1l5.4,8.6l6.6,2.9
			l2.9,6.1l-1.2,9.8l6.1,8.6l9,4.2h4.2l6.6,8.6l13.7,14.9l9.8,9.8l17.1,2.4l7.6,2.4l11,6.1l8.8,9l6.6,9.8l2.4,12.7l2.4,9.8l8.8,12.5
			l4.2,13.9l1.5,12l0.2,5.9l-4.9,2.4h-12.2l-11.5-4.6h-8.8l-12.2,1l-12.5,1.7l-6.4,5.9l-2.4,7.3l2.2,8.3l14.9,6.4l13.4,7.3l6.1,4.2
			l-0.5,7.6l-4.2,4.9c0,0-0.2,6.4-0.2,7.3c0,1,0.2,6.1,0.2,6.1l-8.8,6.4l-6.1,2.4l-10.3,5.1l-7.1,7.1l0.2,8.6l7.3,7.6l2.7,11.2
			l-2.9,12.5l-7.6,6.4l-7.3,8.3L275,527l1.2,6.6l8.3,2.7h8.3l11.2,2.7c0,0,6.6,2.4,7.6,3.7c1,1.2,4.6,5.9,4.6,5.9l-3.4,4.9l-3.9,2.2
			l-0.5,10.5l-2.4,17.6l-1.7,5.4v12.5v6.1v6.8l10.3,3.9L319.8,604.3z"/>
		<path style="fill:#087F77;" d="M319.8,603.6l12.7,5.9v9.5h4.9l8.6-3.2l30.1,10.5l14.4-2l-1.7-2.9l1.7,2.9h0.7l4.9-5.4l8.6-8.6
			l6.8-4.9l-7.3-18.3l13.9,2l9.3,0.7l5.6-8.8l16.9,8.1l9.3-8.1v-8.8l-10-3.4l-8.1-46.7l34.2-6.6v-10.3l19.3-6.6v-21.5L484,460.9
			l-14.7-42l45.2-16.9l9.8,8.6l12.2-1.7v11.2l9.8,0.5l4.2,6.8l10-3.2l4.4,7.6l8.6-3.2v7.3l46.4-2l-3.2-16.9l20.8-5.6l27.4,6.6
			l4.4,13.9l6.6-5.6l13.4-6.8l6.6-7.3l5.6,0.7v-8.8l5.6-2l-4.9-25.4l-14.4,6.8l-4.2-7.3l18.3-8.8v-8.8l-3.7-9.8v-7.3l-8.1-2l8.1-4.9
			l-2.4-6.8l-10.5,2.9l-1.7-11.5l9.3,2l2.9-9.8l-6.6-11.2H689l-2.2,3.7l2.2-3.7l-14.2-3.7l-2.4-12.2l-24.4-2.9v9.3l-5.6,1.7
			l-3.2-8.8l-7.6,1.7l-4.2-17.6l-11.2,3.2l-5.4-16.9l-18.3,7.3l3.7,17.1l-12,5.4v7.3l-20,11.5l-10-4.9l-20-2.4l-23-3.7
			c-0.7,1-1.5,2.2-2.2,3.2c-11.5,12.5-36.7,25.9-36.7,25.9L450,332.3l-12.5-2.2l-8.8-1.5l-7.1-15.2l-3.9-36.9l-10-29.6l-15.2-23.2
			l-9.3-7.8L365,202.6l-14.4-6.1l-18.3,0.2l-17.4,7.8l-16.6,5.6l-14.4,0.5l-17.4-3.7l-14.9-4.9l-14.9-1.2H224v6.1l5.4,8.6l6.6,2.9
			l2.9,6.1l-1.2,9.8l6.1,8.6l9,4.2h4.2l6.6,8.6l13.7,14.9l9.8,9.8l17.1,2.4l7.6,2.4l11,6.1l8.8,9l6.6,9.8l2.4,12.7l2.4,9.8l8.8,12.5
			l4.2,13.9l1.5,12l0.2,5.9l-4.9,2.4h-12.2l-11.5-4.6h-8.8l-12.2,1l-12.5,1.7l-6.4,5.9l-2.4,7.3l2.2,8.3l14.9,6.4l13.4,7.3l6.1,4.2
			l-0.5,7.6l-4.2,4.9c0,0-0.2,6.4-0.2,7.3s0.2,6.1,0.2,6.1l-8.8,6.4l-6.1,2.4l-10.3,5.1l-7.1,7.1l0.2,8.6l7.3,7.6l2.7,11.2
			l-2.9,12.5l-7.6,6.4l-7.3,8.3l-3.9,8.3l1.2,6.6l8.3,2.7h8.3l11.2,2.7c0,0,6.6,2.4,7.6,3.7c1,1.2,4.6,5.9,4.6,5.9l-3.4,4.9L309,555
			l-0.5,10.5l-2.4,17.6l-1.7,5.4v12.5v6.1v6.8l10.3,3.9L319.8,603.6z"/>
		<path style="fill:#08837A;" d="M319.8,603l12.7,5.9v9.5h4.9l8.6-3.2l30.1,10.5l14.4-2l-1.7-2.9l1.7,2.9h0.7l4.9-5.4l8.6-8.6
			l6.8-4.9l-7.3-18.3l13.9,2l9.3,0.7l5.6-8.8l16.9,8.1l9.3-8.1v-8.8l-10-3.4l-8.1-46.7l34.2-6.6v-10.3l19.3-6.6v-21.5L484,460.2
			l-14.7-42l45.2-16.9l9.8,8.6l12.2-1.7v11.2l9.8,0.5l4.2,6.8l10-3.2l4.4,7.6l8.6-3.2v7.3l46.4-2l-3.2-16.9l20.8-5.6l27.4,6.6
			l4.4,13.9l6.6-5.6l13.4-6.8l6.6-7.3l5.6,0.7v-8.8l5.6-2l-4.9-25.4l-14.4,6.8l-4.2-7.3l18.3-8.8v-8.8l-3.7-9.8V341l-8.1-2l8.1-4.9
			l-2.4-6.8l-10.5,2.9l-1.7-11.5l9.3,2l2.9-9.8l-6.6-11.2H689l-2.2,3.7l2.2-3.7l-14.2-3.7l-2.4-12.2l-24.4-2.9v9.3l-5.6,1.7
			l-3.2-8.8l-7.6,1.7l-4.2-17.6l-11.2,3.2l-5.4-16.9l-18.3,7.3l3.7,17.1l-12,5.4v7.3l-20,11.5l-10-4.9l-20-2.4l-23-3.7
			c-0.7,1-1.5,2.2-2.2,3.2c-11.5,12.5-36.7,25.9-36.7,25.9L450,331.7l-12.5-2.2l-8.8-1.5l-7.1-15.2l-3.9-36.9l-10-29.6l-15.2-23.2
			l-9.3-7.8L365,201.9l-14.4-6.1l-18.3,0.2l-17.4,7.8l-16.6,5.6l-14.4,0.5l-17.4-3.7l-14.9-4.9l-14.9-1.2H224v6.1l5.4,8.6l6.6,2.9
			l2.9,6.1l-1.2,9.8l6.1,8.6l9,4.2h4.2l6.6,8.6l13.7,14.9l9.8,9.8l17.1,2.4l7.6,2.4l11,6.1l8.8,9l6.6,9.8l2.4,12.7l2.4,9.8l8.8,12.5
			l4.2,13.9l1.5,12l0.2,5.9l-4.9,2.4h-12.2L329,374h-8.8l-12.2,1l-12.5,1.7l-6.4,5.9l-2.4,7.3l2.2,8.3l14.9,6.4l13.4,7.3l6.1,4.2
			l-0.5,7.6l-4.2,4.9c0,0-0.2,6.4-0.2,7.3c0,1,0.2,6.1,0.2,6.1l-8.8,6.4l-6.1,2.4l-10.3,5.1l-7.1,7.1l0.2,8.6l7.3,7.6l2.7,11.2
			l-2.9,12.5l-7.6,6.4l-7.3,8.3l-3.9,8.3l1.2,6.6l8.3,2.7h8.3l11.2,2.7c0,0,6.6,2.4,7.6,3.7c1,1.2,4.6,5.9,4.6,5.9l-3.4,4.9
			l-3.9,2.2l-0.5,10.5l-2.4,17.6l-1.7,5.4v12.5v6.1v6.8l10.3,3.9L319.8,603z"/>
		<path style="fill:#09887C;" d="M319.8,602.3l12.7,5.9v9.5h4.9l8.6-3.2L376,625l14.4-2l-1.7-2.9l1.7,2.9h0.7l4.9-5.4l8.6-8.6
			l6.8-4.9l-7.3-18.3l13.9,2l9.3,0.7l5.6-8.8l16.9,8.1l9.3-8.1V571l-10-3.4l-8.1-46.7l34.2-6.6v-10.3l19.3-6.6V476L484,459.6
			l-14.7-42l45.2-16.9l9.8,8.6l12.2-1.7v11.2l9.8,0.5l4.2,6.8l10-3.2l4.4,7.6l8.6-3.2v7.3l46.4-2l-3.2-16.9l20.8-5.6l27.4,6.6
			l4.4,13.9l6.6-5.6l13.4-6.8l6.6-7.3l5.6,0.7v-8.8l5.6-2l-4.9-25.4l-14.4,6.8l-4.2-7.3l18.3-8.8v-8.8l-3.7-9.8v-7.3l-8.1-2l8.1-4.9
			l-2.4-6.8l-10.5,2.9l-1.7-11.5l9.3,2l2.9-9.8l-6.6-11.2H689l-2.2,3.7l2.2-3.7l-14.2-3.7l-2.4-12.2l-24.4-2.9v9.3l-5.6,1.7
			l-3.2-8.8l-7.6,1.7l-4.2-17.6l-11.2,3.2l-5.4-16.9l-18.3,7.3l3.7,17.1l-12,5.4v7.3l-20,11.5l-10-4.9l-20-2.4l-23-3.7
			c-0.7,1-1.5,2.2-2.2,3.2c-11.5,12.5-36.7,25.9-36.7,25.9L450,331.1l-12.5-2.2l-8.8-1.5l-7.1-15.2l-3.9-36.9l-10-29.6l-15.2-23.2
			l-9.3-7.8L365,201.3l-14.4-6.1l-18.3,0.2l-17.4,7.8l-16.6,5.6l-14.4,0.5l-17.4-3.7l-14.9-4.9l-14.9-1.2H224v6.1l5.4,8.6l6.6,2.9
			l2.9,6.1l-1.2,9.8l6.1,8.6l9,4.2h4.2l6.6,8.6l13.7,14.9l9.8,9.8l17.1,2.4l7.6,2.4l11,6.1l8.8,9l6.6,9.8l2.4,12.7l2.4,9.8l8.8,12.5
			l4.2,13.9l1.5,12l0.2,5.9l-4.9,2.4h-12.2l-11.5-4.6h-8.8l-12.2,1l-12.5,1.7l-6.4,5.9l-2.4,7.3l2.2,8.3l14.9,6.4l13.4,7.3l6.1,4.2
			l-0.5,7.6l-4.2,4.9c0,0-0.2,6.4-0.2,7.3s0.2,6.1,0.2,6.1l-8.8,6.4l-6.1,2.4l-10.3,5.1l-7.1,7.1l0.2,8.6l7.3,7.6l2.7,11.2
			l-2.9,12.5l-7.6,6.4l-7.3,8.3l-3.9,8.3l1.2,6.6l8.3,2.7h8.3l11.2,2.7c0,0,6.6,2.4,7.6,3.7c1,1.2,4.6,5.9,4.6,5.9l-3.4,4.9
			l-3.9,2.2l-0.5,10.5l-2.4,17.6l-1.7,5.4v12.5v6.1v6.8l10.3,3.9L319.8,602.3z"/>
		<path style="fill:#098D7F;" d="M319.8,601.7l12.7,5.9v9.5h4.9l8.6-3.2l30.1,10.5l14.4-2l-1.7-2.9l1.7,2.9h0.7l4.9-5.4l8.6-8.6
			l6.8-4.9l-7.3-18.3l13.9,2l9.3,0.7l5.6-8.8l16.9,8.1l9.3-8.1v-8.8l-10-3.4l-8.1-46.7l34.2-6.6v-10.3l19.3-6.6v-21.5L484,459
			l-14.7-42l45.2-16.9l9.8,8.6l12.2-1.7v11.2l9.8,0.5l4.2,6.8l10-3.2l4.4,7.6l8.6-3.2v7.3l46.4-2l-3.2-16.9l20.8-5.6l27.4,6.6
			l4.4,13.9l6.6-5.6l13.4-6.8l6.6-7.3l5.6,0.7v-8.8l5.6-2l-4.9-25.4l-14.4,6.8l-4.2-7.3l18.3-8.8v-8.8l-3.7-9.8v-7.3l-8.1-2l8.1-4.9
			l-2.4-6.8l-10.5,2.9l-1.7-11.5l9.3,2l2.9-9.8l-6.6-11.2H689l-2.2,3.7l2.2-3.7l-14.2-3.7l-2.4-12.2l-24.4-2.9v9.3l-5.6,1.7
			l-3.2-8.8l-7.6,1.7l-4.2-17.6l-11.2,3.2l-5.4-16.9l-18.3,7.3l3.7,17.1l-12,5.4v7.3l-20,11.5l-10-4.9l-20-2.4l-23-3.7
			c-0.7,1-1.5,2.2-2.2,3.2c-11.5,12.5-36.7,25.9-36.7,25.9L450,330.4l-12.5-2.2l-8.8-1.5l-7.1-15.2l-3.9-36.9l-10-29.6l-15.2-23.2
			l-9.3-7.8L365,200.6l-14.4-6.1l-18.3,0.2l-17.4,7.8l-16.6,5.6l-14.4,0.5l-17.4-3.7l-14.9-4.9l-14.9-1.2H224v6.1l5.4,8.6l6.6,2.9
			l2.9,6.1l-1.2,9.8l6.1,8.6l9,4.2h4.2l6.6,8.6l13.7,14.9l9.8,9.8l17.1,2.4l7.6,2.4l11,6.1l8.8,9l6.6,9.8l2.4,12.7l2.4,9.8l8.8,12.5
			l4.2,13.9l1.5,12l0.2,5.9l-4.9,2.4h-12.2l-11.5-4.6h-8.8l-12.2,1l-12.5,1.7l-6.4,5.9l-2.4,7.3l2.2,8.3l14.9,6.4l13.4,7.3l6.1,4.2
			l-0.5,7.6l-4.2,4.9c0,0-0.2,6.4-0.2,7.3c0,1,0.2,6.1,0.2,6.1L310,447l-6.1,2.4l-10.3,5.1l-7.1,7.1l0.2,8.6l7.3,7.6l2.7,11.2
			l-2.9,12.5l-7.6,6.4l-7.3,8.3l-3.9,8.3l1.2,6.6l8.3,2.7h8.3l11.2,2.7c0,0,6.6,2.4,7.6,3.7c1,1.2,4.6,5.9,4.6,5.9l-3.4,4.9L309,553
			l-0.5,10.5l-2.4,17.6l-1.7,5.4V599v6.1v6.8l10.3,3.9L319.8,601.7z"/>
		<path style="fill:#099182;" d="M319.8,601l12.7,5.9v9.5h4.9l8.6-3.2l30.1,10.5l14.4-2l-1.7-2.9l1.7,2.9h0.7l4.9-5.4l8.6-8.6
			l6.8-4.9l-7.3-18.3l13.9,2l9.3,0.7l5.6-8.8l16.9,8.1l9.3-8.1v-8.8l-10-3.4l-8.1-46.7l34.2-6.6v-10.3l19.3-6.6v-21.5L484,458.3
			l-14.7-42l45.2-16.9l9.8,8.6l12.2-1.7v11.2l9.8,0.5l4.2,6.8l10-3.2l4.4,7.6l8.6-3.2v7.3l46.4-2l-3.2-16.9l20.8-5.6l27.4,6.6
			l4.4,13.9l6.6-5.6l13.4-6.8l6.6-7.3l5.6,0.7v-8.8l5.6-2l-4.9-25.4l-14.4,6.8l-4.2-7.3L702,365v-8.8l-3.7-9.8v-7.3l-8.1-2l8.1-4.9
			l-2.4-6.8l-10.5,2.9l-1.7-11.5l9.3,2l2.9-9.8l-6.6-11.2H689l-2.2,3.7l2.2-3.7l-14.2-3.7l-2.4-12.2l-24.4-2.9v9.3l-5.6,1.7
			l-3.2-8.8l-7.6,1.7l-4.2-17.6l-11.2,3.2l-5.4-16.9l-18.3,7.3l3.7,17.1l-12,5.4v7.3l-20,11.5l-10-4.9l-20-2.4l-23-3.7
			c-0.7,1-1.5,2.2-2.2,3.2c-11.5,12.5-36.7,25.9-36.7,25.9L450,329.8l-12.5-2.2l-8.8-1.5l-7.1-15.2l-3.9-36.9l-10-29.6l-15.2-23.2
			l-9.3-7.8L365,200l-14.4-6.1l-18.3,0.2l-17.4,7.8l-16.6,5.6l-14.4,0.5l-17.4-3.7l-14.9-4.9l-14.9-1.2H224v6.1l5.4,8.6l6.6,2.9
			l2.9,6.1l-1.2,9.8l6.1,8.6l9,4.2h4.2l6.6,8.6l13.7,14.9l9.8,9.8l17.1,2.4l7.6,2.4l11,6.1l8.8,9l6.6,9.8l2.4,12.7l2.4,9.8l8.8,12.5
			l4.2,13.9l1.5,12l0.2,5.9l-4.9,2.4h-12.2L329,372h-8.8l-12.2,1l-12.5,1.7l-6.4,5.9l-2.4,7.3l2.2,8.3l14.9,6.4l13.4,7.3l6.1,4.2
			l-0.5,7.6l-4.2,4.9c0,0-0.2,6.4-0.2,7.3c0,1,0.2,6.1,0.2,6.1l-8.8,6.4l-6.1,2.4l-10.3,5.1l-7.1,7.1l0.2,8.6l7.3,7.6l2.7,11.2
			l-2.9,12.5l-7.6,6.4l-7.3,8.3l-3.9,8.3l1.2,6.6l8.3,2.7h8.3l11.2,2.7c0,0,6.6,2.4,7.6,3.7c1,1.2,4.6,5.9,4.6,5.9l-3.4,4.9
			l-3.9,2.2l-0.5,10.5l-2.4,17.6l-1.7,5.4v12.5v6.1v6.8l10.3,3.9L319.8,601z"/>
		<path style="fill:#0A9685;" d="M319.8,600.4l12.7,5.9v9.5h4.9l8.6-3.2l30.1,10.5l14.4-2l-1.7-2.9l1.7,2.9h0.7l4.9-5.4l8.6-8.6
			l6.8-4.9l-7.3-18.3l13.9,2l9.3,0.7l5.6-8.8l16.9,8.1l9.3-8.1v-8.8l-10-3.4L441,519l34.2-6.6v-10.3l19.3-6.6V474L484,457.7
			l-14.7-42l45.2-16.9l9.8,8.6l12.2-1.7v11.2l9.8,0.5l4.2,6.8l10-3.2l4.4,7.6l8.6-3.2v7.3l46.4-2l-3.2-16.9l20.8-5.6l27.4,6.6
			l4.4,13.9l6.6-5.6l13.4-6.8l6.6-7.3l5.6,0.7V401l5.6-2l-4.9-25.4l-14.4,6.8l-4.2-7.3l18.3-8.8v-8.8l-3.7-9.8v-7.3l-8.1-2l8.1-4.9
			l-2.4-6.8l-10.5,2.9l-1.7-11.5l9.3,2l2.9-9.8l-6.6-11.2H689l-2.2,3.7l2.2-3.7l-14.2-3.7l-2.4-12.2l-24.4-2.9v9.3l-5.6,1.7
			l-3.2-8.8l-7.6,1.7l-4.2-17.6l-11.2,3.2l-5.4-16.9l-18.3,7.3l3.7,17.1l-12,5.4v7.3l-20,11.5l-10-4.9l-20-2.4l-23-3.7
			c-0.7,1-1.5,2.2-2.2,3.2c-11.5,12.5-36.7,25.9-36.7,25.9L450,329.1l-12.5-2.2l-8.8-1.5l-7.1-15.2l-3.9-36.9l-10-29.6l-15.2-23.2
			l-9.3-7.8L365,199.4l-14.4-6.1l-18.3,0.2l-17.4,7.8l-16.6,5.6l-14.4,0.5l-17.4-3.7l-14.9-4.9l-14.9-1.2H224v6.1l5.4,8.6l6.6,2.9
			l2.9,6.1l-1.2,9.8l6.1,8.6l9,4.2h4.2l6.6,8.6l13.7,14.9l9.8,9.8l17.1,2.4l7.6,2.4l11,6.1l8.8,9l6.6,9.8l2.4,12.7l2.4,9.8l8.8,12.5
			l4.2,13.9l1.5,12l0.2,5.9l-4.9,2.4h-12.2l-11.5-4.6h-8.8l-12.2,1l-12.5,1.7l-6.4,5.9l-2.4,7.3l2.2,8.3l14.9,6.4l13.4,7.3l6.1,4.2
			l-0.5,7.6l-4.2,4.9c0,0-0.2,6.4-0.2,7.3s0.2,6.1,0.2,6.1l-8.8,6.4l-6.1,2.4l-10.3,5.1l-7.1,7.1l0.2,8.6l7.3,7.6l2.7,11.2
			l-2.9,12.5l-7.6,6.4l-7.3,8.3l-3.9,8.3l1.2,6.6l8.3,2.7h8.3l11.2,2.7c0,0,6.6,2.4,7.6,3.7c1,1.2,4.6,5.9,4.6,5.9l-3.4,4.9
			l-3.9,2.2l-0.5,10.5l-2.4,17.6l-1.7,5.4v12.5v6.1v6.8l10.3,3.9L319.8,600.4z"/>
		<path style="fill:#0A9A88;" d="M319.8,599.7l12.7,5.9v9.5h4.9l8.6-3.2l30.1,10.5l14.4-2l-1.7-2.9l1.7,2.9h0.7l4.9-5.4l8.6-8.6
			l6.8-4.9l-7.3-18.3l13.9,2l9.3,0.7l5.6-8.8l16.9,8.1l9.3-8.1v-8.8l-10-3.4l-8.1-46.7l34.2-6.6v-10.3l19.3-6.6v-21.5L484,457
			l-14.7-42l45.2-16.9l9.8,8.6l12.2-1.7v11.2l9.8,0.5l4.2,6.8l10-3.2l4.4,7.6l8.6-3.2v7.3l46.4-2l-3.2-16.9l20.8-5.6l27.4,6.6
			l4.4,13.9l6.6-5.6l13.4-6.8l6.6-7.3l5.6,0.7v-8.8l5.6-2l-4.9-25.4l-14.4,6.8l-4.2-7.3l18.3-8.8v-8.8l-3.7-9.8v-7.3l-8.1-2l8.1-4.9
			l-2.4-6.8l-10.5,2.9l-1.7-11.5l9.3,2l2.9-9.8l-6.6-11.2H689l-2.2,3.7l2.2-3.7l-14.2-3.7l-2.4-12.2l-24.4-2.9v9.3l-5.6,1.7
			l-3.2-8.8l-7.6,1.7l-4.2-17.6l-11.2,3.2l-5.4-16.9l-18.3,7.3l3.7,17.1l-12,5.4v7.3l-20,11.5l-10-4.9l-20-2.4l-23-3.7
			c-0.7,1-1.5,2.2-2.2,3.2c-11.5,12.5-36.7,25.9-36.7,25.9L450,328.5l-12.5-2.2l-8.8-1.5l-7.1-15.2l-3.9-36.9l-10-29.6L392.6,220
			l-9.3-7.8L365,198.7l-14.4-6.1l-18.3,0.2l-17.4,7.8l-16.6,5.6l-14.4,0.5l-17.4-3.7l-14.9-4.9l-14.9-1.2H224v6.1l5.4,8.6l6.6,2.9
			l2.9,6.1l-1.2,9.8l6.1,8.6l9,4.2h4.2l6.6,8.6l13.7,14.9l9.8,9.8l17.1,2.4l7.6,2.4l11,6.1l8.8,9l6.6,9.8l2.4,12.7l2.4,9.8l8.8,12.5
			l4.2,13.9l1.5,12l0.2,5.9l-4.9,2.4h-12.2l-11.5-4.6h-8.8l-12.2,1l-12.5,1.7l-6.4,5.9l-2.4,7.3l2.2,8.3l14.9,6.4l13.4,7.3l6.1,4.2
			l-0.5,7.6l-4.2,4.9c0,0-0.2,6.4-0.2,7.3c0,1,0.2,6.1,0.2,6.1L310,445l-6.1,2.4l-10.3,5.1l-7.1,7.1l0.2,8.6l7.3,7.6l2.7,11.2
			l-2.9,12.5l-7.6,6.4l-7.3,8.3l-3.9,8.3l1.2,6.6l8.3,2.7h8.3l11.2,2.7c0,0,6.6,2.4,7.6,3.7c1,1.2,4.6,5.9,4.6,5.9l-3.4,4.9
			l-3.9,2.2l-0.5,10.5l-2.4,17.6l-1.7,5.4V597v6.1v6.8l10.3,3.9L319.8,599.7z"/>
		<path style="fill:#0A9F8B;" d="M319.8,599.1l12.7,5.9v9.5h4.9l8.6-3.2l30.1,10.5l14.4-2l-1.7-2.9l1.7,2.9h0.7l4.9-5.4l8.6-8.6
			l6.8-4.9l-7.3-18.3l13.9,2l9.3,0.7l5.6-8.8l16.9,8.1l9.3-8.1v-8.8l-10-3.4l-8.1-46.7l34.2-6.6v-10.3l19.3-6.6v-21.5L484,456.4
			l-14.7-42l45.2-16.9l9.8,8.6l12.2-1.7v11.2l9.8,0.5l4.2,6.8l10-3.2l4.4,7.6l8.6-3.2v7.3l46.4-2l-3.2-16.9l20.8-5.6l27.4,6.6
			l4.4,13.9l6.6-5.6l13.4-6.8l6.6-7.3l5.6,0.7v-8.8l5.6-2l-4.9-25.4l-14.4,6.8l-4.2-7.3L702,363v-8.8l-3.7-9.8v-7.3l-8.1-2l8.1-4.9
			l-2.4-6.8l-10.5,2.9l-1.7-11.5l9.3,2l2.9-9.8l-6.6-11.2H689l-2.2,3.7l2.2-3.7l-14.2-3.7l-2.4-12.2L648,277v9.3l-5.6,1.7l-3.2-8.8
			l-7.6,1.7l-4.2-17.6l-11.2,3.2l-5.4-16.9l-18.3,7.3l3.7,17.1l-12,5.4v7.3l-20,11.5l-10-4.9l-20-2.4l-23-3.7
			c-0.7,1-1.5,2.2-2.2,3.2c-11.5,12.5-36.7,25.9-36.7,25.9L450,327.8l-12.5-2.2l-8.8-1.5l-7.1-15.2l-3.9-36.9l-10-29.6l-15.2-23.2
			l-9.3-7.8L365,198.1l-14.4-6.1l-18.3,0.2l-17.4,7.8l-16.6,5.6l-14.4,0.5l-17.4-3.7l-14.9-4.9l-14.9-1.2H224v6.1l5.4,8.6l6.6,2.9
			l2.9,6.1l-1.2,9.8l6.1,8.6l9,4.2h4.2l6.6,8.6l13.7,14.9l9.8,9.8l17.1,2.4l7.6,2.4l11,6.1l8.8,9l6.6,9.8l2.4,12.7l2.4,9.8l8.8,12.5
			l4.2,13.9l1.5,12l0.2,5.9l-4.9,2.4h-12.2l-11.5-4.6h-8.8l-12.2,1l-12.5,1.7l-6.4,5.9l-2.4,7.3l2.2,8.3l14.9,6.4l13.4,7.3l6.1,4.2
			l-0.5,7.6l-4.2,4.9c0,0-0.2,6.4-0.2,7.3s0.2,6.1,0.2,6.1l-8.8,6.4l-6.1,2.4l-10.3,5.1l-7.1,7.1l0.2,8.6l7.3,7.6l2.7,11.2
			l-2.9,12.5l-7.6,6.4l-7.3,8.3l-3.9,8.3l1.2,6.6l8.3,2.7h8.3l11.2,2.7c0,0,6.6,2.4,7.6,3.7c1,1.2,4.6,5.9,4.6,5.9l-3.4,4.9
			l-3.9,2.2l-0.5,10.5l-2.4,17.6l-1.7,5.4v12.5v6.1v6.8l10.3,3.9L319.8,599.1z"/>
		<path style="fill:#0BA38E;" d="M319.8,598.4l12.7,5.9v9.5h4.9l8.6-3.2l30.1,10.5l14.4-2l-1.7-2.9l1.7,2.9h0.7l4.9-5.4l8.6-8.6
			l6.8-4.9l-7.3-18.3l13.9,2l9.3,0.7l5.6-8.8l16.9,8.1l9.3-8.1v-8.8l-10-3.4l-8.1-46.7l34.2-6.6v-10.3l19.3-6.6v-21.5L484,455.7
			l-14.7-42l45.2-16.9l9.8,8.6l12.2-1.7v11.2l9.8,0.5l4.2,6.8l10-3.2l4.4,7.6l8.6-3.2v7.3l46.4-2l-3.2-16.9l20.8-5.6l27.4,6.6
			l4.4,13.9l6.6-5.6l13.4-6.8l6.6-7.3l5.6,0.7V399l5.6-2l-4.9-25.4l-14.4,6.8l-4.2-7.3l18.3-8.8v-8.8l-3.7-9.8v-7.3l-8.1-2l8.1-4.9
			l-2.4-6.8l-10.5,2.9l-1.7-11.5l9.3,2l2.9-9.8l-6.6-11.2H689l-2.2,3.7l2.2-3.7l-14.2-3.7l-2.4-12.2l-24.4-2.9v9.3l-5.6,1.7
			l-3.2-8.8l-7.6,1.7l-4.2-17.6l-11.2,3.2l-5.4-16.9l-18.3,7.3l3.7,17.1l-12,5.4v7.3l-20,11.5l-10-4.9l-20-2.4l-23-3.7
			c-0.7,1-1.5,2.2-2.2,3.2c-11.5,12.5-36.7,25.9-36.7,25.9L450,327.2l-12.5-2.2l-8.8-1.5l-7.1-15.2l-3.9-36.9l-10-29.6l-15.2-23.2
			l-9.3-7.8L365,197.4l-14.4-6.1l-18.3,0.2l-17.4,7.8l-16.6,5.6l-14.4,0.5l-17.4-3.7l-14.9-4.9l-14.9-1.2H224v6.1l5.4,8.6l6.6,2.9
			l2.9,6.1l-1.2,9.8l6.1,8.6l9,4.2h4.2l6.6,8.6l13.7,14.9l9.8,9.8l17.1,2.4l7.6,2.4l11,6.1l8.8,9l6.6,9.8l2.4,12.7l2.4,9.8l8.8,12.5
			l4.2,13.9l1.5,12l0.2,5.9l-4.9,2.4h-12.2l-11.5-4.6h-8.8l-12.2,1l-12.5,1.7l-6.4,5.9l-2.4,7.3l2.2,8.3l14.9,6.4l13.4,7.3l6.1,4.2
			l-0.5,7.6l-4.2,4.9c0,0-0.2,6.4-0.2,7.3c0,1,0.2,6.1,0.2,6.1l-8.8,6.4l-6.1,2.4l-10.3,5.1l-7.1,7.1l0.2,8.6l7.3,7.6l2.7,11.2
			l-2.9,12.5l-7.6,6.4l-7.3,8.3l-3.9,8.3l1.2,6.6l8.3,2.7h8.3l11.2,2.7c0,0,6.6,2.4,7.6,3.7c1,1.2,4.6,5.9,4.6,5.9l-3.4,4.9
			l-3.9,2.2l-0.5,10.5l-2.4,17.6l-1.7,5.4v12.5v6.1v6.8l10.3,3.9L319.8,598.4z"/>
		<path style="fill:#0BA891;" d="M319.8,597.8l12.7,5.9v9.5h4.9l8.6-3.2l30.1,10.5l14.4-2l-1.7-2.9l1.7,2.9h0.7l4.9-5.4l8.6-8.6
			l6.8-4.9l-7.3-18.3l13.9,2l9.3,0.7l5.6-8.8l16.9,8.1l9.3-8.1v-8.8l-10-3.4l-8.1-46.7l34.2-6.6v-10.3l19.3-6.6v-21.5L484,455.1
			l-14.7-42l45.2-16.9l9.8,8.6l12.2-1.7v11.2l9.8,0.5l4.2,6.8l10-3.2l4.4,7.6l8.6-3.2v7.3l46.4-2l-3.2-16.9l20.8-5.6l27.4,6.6
			l4.4,13.9l6.6-5.6l13.4-6.8l6.6-7.3l5.6,0.7v-8.8l5.6-2l-4.9-25.4l-14.4,6.8l-4.2-7.3l18.3-8.8v-8.8l-3.7-9.8v-7.3l-8.1-2l8.1-4.9
			l-2.4-6.8l-10.5,2.9l-1.7-11.5l9.3,2l2.9-9.8l-6.6-11.2H689l-2.2,3.7l2.2-3.7l-14.2-3.7l-2.4-12.2l-24.4-2.9v9.3l-5.6,1.7
			l-3.2-8.8l-7.6,1.7l-4.2-17.6l-11.2,3.2l-5.4-16.9l-18.3,7.3l3.7,17.1l-12,5.4v7.3l-20,11.5l-10-4.9l-20-2.4l-23-3.7
			c-0.7,1-1.5,2.2-2.2,3.2c-11.5,12.5-36.7,25.9-36.7,25.9L450,326.5l-12.5-2.2l-8.8-1.5l-7.1-15.2l-3.9-36.9l-10-29.6L392.6,218
			l-9.3-7.8L365,196.8l-14.4-6.1l-18.3,0.2l-17.4,7.8l-16.6,5.6l-14.4,0.5l-17.4-3.7l-14.9-4.9l-14.9-1.2H224v6.1l5.4,8.6l6.6,2.9
			l2.9,6.1l-1.2,9.8l6.1,8.6l9,4.2h4.2l6.6,8.6l13.7,14.9l9.8,9.8l17.1,2.4l7.6,2.4l11,6.1l8.8,9l6.6,9.8l2.4,12.7l2.4,9.8l8.8,12.5
			l4.2,13.9l1.5,12l0.2,5.9l-4.9,2.4h-12.2l-11.5-4.6h-8.8l-12.2,1l-12.5,1.7l-6.4,5.9l-2.4,7.3l2.2,8.3l14.9,6.4l13.4,7.3l6.1,4.2
			l-0.5,7.6l-4.2,4.9c0,0-0.2,6.4-0.2,7.3c0,1,0.2,6.1,0.2,6.1l-8.8,6.4l-6.1,2.4l-10.3,5.1l-7.1,7.1l0.2,8.6l7.3,7.6l2.7,11.2
			l-2.9,12.5l-7.6,6.4l-7.3,8.3l-3.9,8.3l1.2,6.6l8.3,2.7h8.3l11.2,2.7c0,0,6.6,2.4,7.6,3.7c1,1.2,4.6,5.9,4.6,5.9l-3.4,4.9
			l-3.9,2.2l-0.5,10.5l-2.4,17.6l-1.7,5.4v12.5v6.1v6.8l10.3,3.9L319.8,597.8z"/>
	</g>
	<g>
		<path style="fill:#CDEFF9;" d="M361.2,424.6c2.1,1.6,3.9,3.2,5.6,5l-2.3,2.2c-1.3-1.5-3.1-3.2-5.5-5.1L361.2,424.6z M366.9,434.8
			c-1.3,4.3-2.9,8.4-4.6,12.3l-2.9-1.3c1.8-4,3.4-8,4.7-12.1L366.9,434.8z M361.9,416.5c2.1,1.5,3.9,3,5.5,4.8l-2.2,2.2
			c-1.3-1.5-3.1-3.1-5.5-4.9L361.9,416.5z M382.2,436.5c-0.3,4.4-1.5,8-3.5,10.9l-2.3-2.1c0.4-0.7,0.7-1.2,1-1.7h-6.8v1.9h-2.9v-14
			h3.5v-6h-4.1v-3h4.1v-5.6h3.1v5.6h4.1v3h-4.1v6h3.3v11.8c1.2-2.6,1.8-5.7,1.9-9.3v-17h10.2v27.3c0,2.1-1.1,3.1-3.2,3.1h-2.5
			l-0.8-2.9c0.9,0.1,1.7,0.2,2.4,0.2c0.7,0,1.1-0.5,1.1-1.5v-6.7H382.2z M370.5,440.8h4v-6.6h-4V440.8z M386.6,425.3v-5.4h-4.3v5.4
			H386.6z M382.3,428.1v5.5h4.3v-5.5H382.3z"/>
		<path style="fill:#CDEFF9;" d="M417.9,416.8c-0.6,1.1-1.3,2.2-2.1,3.1h8.7v3.1h-30.8v-3.1h8.9c-0.6-1.2-1.3-2.3-2-3.4l3.4-0.5
			c0.7,1.1,1.4,2.4,2.1,3.9h6.2c0.9-1.3,1.8-2.7,2.5-4.2L417.9,416.8z M403,447.3l-0.9-3.2l2.5,0.1c0.8,0,1.2-0.5,1.2-1.6v-2.3h-6.7
			v7.3h-3.2v-22.4h13v18.1c0,2.6-1.1,4-3.3,4H403z M399.1,431.4h6.7v-3.2h-6.7V431.4z M399.1,437.5h6.7v-3.2h-6.7V437.5z M412.1,427
			h3.2v14.6h-3.2V427z M414.4,447.2l-0.7-3.1c1.4,0.1,2.8,0.2,4.2,0.2c0.8,0,1.2-0.5,1.2-1.4v-18.4h3.3v19.2c0,2.3-1.1,3.5-3.4,3.5
			H414.4z"/>
		<path style="fill:#CDEFF9;" d="M435.7,435.5c-0.8,5-2.4,8.8-4.9,11.5l-2.4-2.1c3-3.3,4.5-8.5,4.5-15.6v-12.9h3.3v7.7h10v-8.1h3.1
			v8.1h9.2v3.1h-22.3v2c0,0.7,0,1.8-0.1,3.1h15.6v15.2h-3.3v-12.1H435.7z"/>
		<path style="fill:#CDEFF9;" d="M464.1,417.2h27.4v3.1h-24.3V443h25.4v3.1h-28.5V417.2z M472.1,422.7c3.2,2.4,6,4.7,8.5,6.9
			c1.8-2.4,3.3-5.1,4.6-8l2.9,1.6c-1.4,3.3-3.1,6.2-5,8.7c2.5,2.3,4.8,4.5,6.8,6.8l-2.5,2.5c-1.9-2.3-4.1-4.6-6.5-6.8
			c-2.8,3-6.2,5.4-10,7l-1.9-2.9c3.6-1.5,6.8-3.6,9.4-6.4c-2.5-2.2-5.4-4.6-8.7-7.1L472.1,422.7z"/>
	</g>
</g>
</svg>
