<?xml version="1.0" encoding="utf-8"?>
<!-- Generator: Adobe Illustrator 17.0.0, SVG Export Plug-In . SVG Version: 6.00 Build 0)  -->
<!DOCTYPE svg PUBLIC "-//W3C//DTD SVG 1.1//EN" "http://www.w3.org/Graphics/SVG/1.1/DTD/svg11.dtd">
<svg version="1.1" id="图层_1" xmlns="http://www.w3.org/2000/svg" xmlns:xlink="http://www.w3.org/1999/xlink" x="0px" y="0px"
	 preserveAspectRatio="none" viewBox="0 0 2000 1300" style="enable-background:new 0 0 2000 1300;" xml:space="preserve">
<g>
	<g>
		<polygon style="fill:#001A36;" points="1109.1,738.5 1121.1,723.1 1133.5,720.9 1143.3,720.9 1231.3,689.2 1221.5,667.9 
			1195.1,599.5 1142.3,402 1171.7,300.6 1144.5,303.3 952,360 940.7,349.5 922.6,354.1 925.6,361.2 917,365.8 911.6,357.3 
			898,359.7 903.1,367.1 890.4,372.2 905.5,401.3 880.6,404.5 878.9,407.4 882.8,408.6 878.9,407.4 872.3,418.4 893.8,440.6 
			906,465.3 919,489.5 922.6,501.2 942.4,534.7 886.5,555.7 901.9,590.4 910.4,589 946.3,647.9 978.1,687.4 990.8,718.2 999.4,730 
			1011.8,751.2 1052.6,750.5 1054.8,761.7 1051.4,776.6 1065.4,771.8 1068.5,773.5 1110.6,749.5 		"/>
		<polygon style="fill:#001F39;" points="1109.1,737.9 1121.1,722.5 1133.5,720.3 1143.3,720.3 1231.3,688.5 1221.5,667.3 
			1195.1,598.8 1142.3,401.4 1171.7,300 1144.5,302.6 952,359.3 940.7,348.8 922.6,353.5 925.6,360.6 917,365.2 911.6,356.6 
			898,359.1 903.1,366.4 890.4,371.6 905.5,400.6 880.6,403.8 878.9,406.7 882.8,408 878.9,406.7 872.3,417.7 893.8,440 906,464.7 
			919,488.9 922.6,500.6 942.4,534.1 886.5,555.1 901.9,589.8 910.4,588.3 946.3,647.2 978.1,686.8 990.8,717.6 999.4,729.3 
			1011.8,750.6 1052.6,749.9 1054.8,761.1 1051.4,776 1065.4,771.1 1068.5,772.8 1110.6,748.9 		"/>
		<polygon style="fill:#01233C;" points="1109.1,737.2 1121.1,721.8 1133.5,719.6 1143.3,719.6 1231.3,687.9 1221.5,666.6 
			1195.1,598.2 1142.3,400.7 1171.7,299.3 1144.5,302 952,358.7 940.7,348.2 922.6,352.8 925.6,359.9 917,364.6 911.6,356 
			898,358.4 903.1,365.8 890.4,370.9 905.5,400 880.6,403.2 878.9,406.1 882.8,407.3 878.9,406.1 872.3,417.1 893.8,439.3 906,464 
			919,488.2 922.6,499.9 942.4,533.4 886.5,554.4 901.9,589.1 910.4,587.7 946.3,646.6 978.1,686.2 990.8,716.9 999.4,728.7 
			1011.8,749.9 1052.6,749.2 1054.8,760.4 1051.4,775.4 1065.4,770.5 1068.5,772.2 1110.6,748.2 		"/>
		<polygon style="fill:#01283F;" points="1109.1,736.6 1121.1,721.2 1133.5,719 1143.3,719 1231.3,687.2 1221.5,666 1195.1,597.5 
			1142.3,400.1 1171.7,298.7 1144.5,301.3 952,358 940.7,347.5 922.6,352.2 925.6,359.3 917,363.9 911.6,355.4 898,357.8 
			903.1,365.1 890.4,370.3 905.5,399.3 880.6,402.5 878.9,405.5 882.8,406.7 878.9,405.5 872.3,416.5 893.8,438.7 906,463.4 
			919,487.6 922.6,499.3 942.4,532.8 886.5,553.8 901.9,588.5 910.4,587 946.3,645.9 978.1,685.5 990.8,716.3 999.4,728 
			1011.8,749.3 1052.6,748.6 1054.8,759.8 1051.4,774.7 1065.4,769.8 1068.5,771.5 1110.6,747.6 		"/>
		<polygon style="fill:#012C42;" points="1109.1,735.9 1121.1,720.5 1133.5,718.3 1143.3,718.3 1231.3,686.6 1221.5,665.3 
			1195.1,596.9 1142.3,399.4 1171.7,298 1144.5,300.7 952,357.4 940.7,346.9 922.6,351.5 925.6,358.6 917,363.3 911.6,354.7 
			898,357.2 903.1,364.5 890.4,369.6 905.5,398.7 880.6,401.9 878.9,404.8 882.8,406 878.9,404.8 872.3,415.8 893.8,438 906,462.7 
			919,486.9 922.6,498.6 942.4,532.1 886.5,553.1 901.9,587.8 910.4,586.4 946.3,645.3 978.1,684.9 990.8,715.7 999.4,727.4 
			1011.8,748.6 1052.6,747.9 1054.8,759.2 1051.4,774.1 1065.4,769.2 1068.5,770.9 1110.6,746.9 		"/>
		<polygon style="fill:#023145;" points="1109.1,735.3 1121.1,719.9 1133.5,717.7 1143.3,717.7 1231.3,685.9 1221.5,664.7 
			1195.1,596.2 1142.3,398.8 1171.7,297.4 1144.5,300.1 952,356.8 940.7,346.2 922.6,350.9 925.6,358 917,362.6 911.6,354.1 
			898,356.5 903.1,363.8 890.4,369 905.5,398.1 880.6,401.2 878.9,404.2 882.8,405.4 878.9,404.2 872.3,415.2 893.8,437.4 
			906,462.1 919,486.3 922.6,498 942.4,531.5 886.5,552.5 901.9,587.2 910.4,585.7 946.3,644.6 978.1,684.2 990.8,715 999.4,726.7 
			1011.8,748 1052.6,747.3 1054.8,758.5 1051.4,773.4 1065.4,768.5 1068.5,770.2 1110.6,746.3 		"/>
		<polygon style="fill:#023548;" points="1109.1,734.7 1121.1,719.3 1133.5,717.1 1143.3,717.1 1231.3,685.3 1221.5,664 
			1195.1,595.6 1142.3,398.1 1171.7,296.7 1144.5,299.4 952,356.1 940.7,345.6 922.6,350.2 925.6,357.3 917,362 911.6,353.4 
			898,355.9 903.1,363.2 890.4,368.3 905.5,397.4 880.6,400.6 878.9,403.5 882.8,404.7 878.9,403.5 872.3,414.5 893.8,436.8 
			906,461.4 919,485.6 922.6,497.4 942.4,530.8 886.5,551.9 901.9,586.6 910.4,585.1 946.3,644 978.1,683.6 990.8,714.4 
			999.4,726.1 1011.8,747.4 1052.6,746.6 1054.8,757.9 1051.4,772.8 1065.4,767.9 1068.5,769.6 1110.6,745.6 		"/>
		<polygon style="fill:#023A4B;" points="1109.1,734 1121.1,718.6 1133.5,716.4 1143.3,716.4 1231.3,684.6 1221.5,663.4 1195.1,595 
			1142.3,397.5 1171.7,296.1 1144.5,298.8 952,355.5 940.7,345 922.6,349.6 925.6,356.7 917,361.3 911.6,352.8 898,355.2 
			903.1,362.6 890.4,367.7 905.5,396.8 880.6,399.9 878.9,402.9 882.8,404.1 878.9,402.9 872.3,413.9 893.8,436.1 906,460.8 
			919,485 922.6,496.7 942.4,530.2 886.5,551.2 901.9,585.9 910.4,584.4 946.3,643.3 978.1,682.9 990.8,713.7 999.4,725.5 
			1011.8,746.7 1052.6,746 1054.8,757.2 1051.4,772.1 1065.4,767.2 1068.5,769 1110.6,745 		"/>
		<polygon style="fill:#033F4D;" points="1109.1,733.4 1121.1,718 1133.5,715.8 1143.3,715.8 1231.3,684 1221.5,662.7 1195.1,594.3 
			1142.3,396.9 1171.7,295.4 1144.5,298.1 952,354.8 940.7,344.3 922.6,349 925.6,356 917,360.7 911.6,352.1 898,354.6 903.1,361.9 
			890.4,367 905.5,396.1 880.6,399.3 878.9,402.2 882.8,403.4 878.9,402.2 872.3,413.2 893.8,435.5 906,460.1 919,484.3 
			922.6,496.1 942.4,529.5 886.5,550.6 901.9,585.3 910.4,583.8 946.3,642.7 978.1,682.3 990.8,713.1 999.4,724.8 1011.8,746.1 
			1052.6,745.3 1054.8,756.6 1051.4,771.5 1065.4,766.6 1068.5,768.3 1110.6,744.4 		"/>
		<polygon style="fill:#034350;" points="1109.1,732.7 1121.1,717.3 1133.5,715.1 1143.3,715.1 1231.3,683.4 1221.5,662.1 
			1195.1,593.7 1142.3,396.2 1171.7,294.8 1144.5,297.5 952,354.2 940.7,343.7 922.6,348.3 925.6,355.4 917,360 911.6,351.5 
			898,353.9 903.1,361.3 890.4,366.4 905.5,395.5 880.6,398.7 878.9,401.6 882.8,402.8 878.9,401.6 872.3,412.6 893.8,434.8 
			906,459.5 919,483.7 922.6,495.4 942.4,528.9 886.5,549.9 901.9,584.6 910.4,583.2 946.3,642.1 978.1,681.6 990.8,712.4 
			999.4,724.2 1011.8,745.4 1052.6,744.7 1054.8,755.9 1051.4,770.8 1065.4,766 1068.5,767.7 1110.6,743.7 		"/>
		<polygon style="fill:#044853;" points="1109.1,732.1 1121.1,716.7 1133.5,714.5 1143.3,714.5 1231.3,682.7 1221.5,661.4 
			1195.1,593 1142.3,395.6 1171.7,294.1 1144.5,296.8 952,353.5 940.7,343 922.6,347.7 925.6,354.7 917,359.4 911.6,350.8 
			898,353.3 903.1,360.6 890.4,365.7 905.5,394.8 880.6,398 878.9,400.9 882.8,402.2 878.9,400.9 872.3,411.9 893.8,434.2 
			906,458.9 919,483 922.6,494.8 942.4,528.3 886.5,549.3 901.9,584 910.4,582.5 946.3,641.4 978.1,681 990.8,711.8 999.4,723.5 
			1011.8,744.8 1052.6,744 1054.8,755.3 1051.4,770.2 1065.4,765.3 1068.5,767 1110.6,743.1 		"/>
		<polygon style="fill:#044C56;" points="1109.1,731.4 1121.1,716 1133.5,713.8 1143.3,713.8 1231.3,682.1 1221.5,660.8 
			1195.1,592.4 1142.3,394.9 1171.7,293.5 1144.5,296.2 952,352.9 940.7,342.4 922.6,347 925.6,354.1 917,358.7 911.6,350.2 
			898,352.6 903.1,360 890.4,365.1 905.5,394.2 880.6,397.4 878.9,400.3 882.8,401.5 878.9,400.3 872.3,411.3 893.8,433.5 
			906,458.2 919,482.4 922.6,494.1 942.4,527.6 886.5,548.6 901.9,583.3 910.4,581.9 946.3,640.8 978.1,680.4 990.8,711.1 
			999.4,722.9 1011.8,744.1 1052.6,743.4 1054.8,754.6 1051.4,769.5 1065.4,764.7 1068.5,766.4 1110.6,742.4 		"/>
		<polygon style="fill:#045159;" points="1109.1,730.8 1121.1,715.4 1133.5,713.2 1143.3,713.2 1231.3,681.4 1221.5,660.2 
			1195.1,591.7 1142.3,394.3 1171.7,292.9 1144.5,295.5 952,352.2 940.7,341.7 922.6,346.4 925.6,353.5 917,358.1 911.6,349.5 
			898,352 903.1,359.3 890.4,364.5 905.5,393.5 880.6,396.7 878.9,399.6 882.8,400.9 878.9,399.6 872.3,410.6 893.8,432.9 
			906,457.6 919,481.8 922.6,493.5 942.4,527 886.5,548 901.9,582.7 910.4,581.2 946.3,640.1 978.1,679.7 990.8,710.5 999.4,722.2 
			1011.8,743.5 1052.6,742.8 1054.8,754 1051.4,768.9 1065.4,764 1068.5,765.7 1110.6,741.8 		"/>
		<polygon style="fill:#05565C;" points="1109.1,730.1 1121.1,714.7 1133.5,712.5 1143.3,712.5 1231.3,680.8 1221.5,659.5 
			1195.1,591.1 1142.3,393.6 1171.7,292.2 1144.5,294.9 952,351.6 940.7,341.1 922.6,345.7 925.6,352.8 917,357.5 911.6,348.9 
			898,351.3 903.1,358.7 890.4,363.8 905.5,392.9 880.6,396.1 878.9,399 882.8,400.2 878.9,399 872.3,410 893.8,432.2 906,456.9 
			919,481.1 922.6,492.8 942.4,526.3 886.5,547.3 901.9,582 910.4,580.6 946.3,639.5 978.1,679.1 990.8,709.9 999.4,721.6 
			1011.8,742.8 1052.6,742.1 1054.8,753.4 1051.4,768.3 1065.4,763.4 1068.5,765.1 1110.6,741.1 		"/>
		<polygon style="fill:#055A5F;" points="1109.1,729.5 1121.1,714.1 1133.5,711.9 1143.3,711.9 1231.3,680.1 1221.5,658.9 
			1195.1,590.4 1142.3,393 1171.7,291.6 1144.5,294.3 952,350.9 940.7,340.4 922.6,345.1 925.6,352.2 917,356.8 911.6,348.3 
			898,350.7 903.1,358 890.4,363.2 905.5,392.2 880.6,395.4 878.9,398.4 882.8,399.6 878.9,398.4 872.3,409.4 893.8,431.6 
			906,456.3 919,480.5 922.6,492.2 942.4,525.7 886.5,546.7 901.9,581.4 910.4,579.9 946.3,638.8 978.1,678.4 990.8,709.2 
			999.4,720.9 1011.8,742.2 1052.6,741.5 1054.8,752.7 1051.4,767.6 1065.4,762.7 1068.5,764.4 1110.6,740.5 		"/>
		<polygon style="fill:#055F62;" points="1109.1,728.8 1121.1,713.4 1133.5,711.2 1143.3,711.2 1231.3,679.5 1221.5,658.2 
			1195.1,589.8 1142.3,392.3 1171.7,290.9 1144.5,293.6 952,350.3 940.7,339.8 922.6,344.4 925.6,351.5 917,356.2 911.6,347.6 
			898,350.1 903.1,357.4 890.4,362.5 905.5,391.6 880.6,394.8 878.9,397.7 882.8,398.9 878.9,397.7 872.3,408.7 893.8,430.9 
			906,455.6 919,479.8 922.6,491.6 942.4,525 886.5,546 901.9,580.8 910.4,579.3 946.3,638.2 978.1,677.8 990.8,708.6 999.4,720.3 
			1011.8,741.6 1052.6,740.8 1054.8,752.1 1051.4,767 1065.4,762.1 1068.5,763.8 1110.6,739.8 		"/>
		<polygon style="fill:#066365;" points="1109.1,728.2 1121.1,712.8 1133.5,710.6 1143.3,710.6 1231.3,678.8 1221.5,657.6 
			1195.1,589.1 1142.3,391.7 1171.7,290.3 1144.5,293 952,349.7 940.7,339.1 922.6,343.8 925.6,350.9 917,355.5 911.6,347 
			898,349.4 903.1,356.7 890.4,361.9 905.5,391 880.6,394.1 878.9,397.1 882.8,398.3 878.9,397.1 872.3,408.1 893.8,430.3 906,455 
			919,479.2 922.6,490.9 942.4,524.4 886.5,545.4 901.9,580.1 910.4,578.6 946.3,637.5 978.1,677.1 990.8,707.9 999.4,719.6 
			1011.8,740.9 1052.6,740.2 1054.8,751.4 1051.4,766.3 1065.4,761.4 1068.5,763.1 1110.6,739.2 		"/>
		<polygon style="fill:#066868;" points="1109.1,727.6 1121.1,712.2 1133.5,710 1143.3,710 1231.3,678.2 1221.5,656.9 1195.1,588.5 
			1142.3,391 1171.7,289.6 1144.5,292.3 952,349 940.7,338.5 922.6,343.1 925.6,350.2 917,354.9 911.6,346.3 898,348.8 903.1,356.1 
			890.4,361.2 905.5,390.3 880.6,393.5 878.9,396.4 882.8,397.6 878.9,396.4 872.3,407.4 893.8,429.7 906,454.3 919,478.5 
			922.6,490.3 942.4,523.7 886.5,544.8 901.9,579.5 910.4,578 946.3,636.9 978.1,676.5 990.8,707.3 999.4,719 1011.8,740.3 
			1052.6,739.5 1054.8,750.8 1051.4,765.7 1065.4,760.8 1068.5,762.5 1110.6,738.6 		"/>
		<polygon style="fill:#066C6B;" points="1109.1,726.9 1121.1,711.5 1133.5,709.3 1143.3,709.3 1231.3,677.5 1221.5,656.3 
			1195.1,587.9 1142.3,390.4 1171.7,289 1144.5,291.7 952,348.4 940.7,337.9 922.6,342.5 925.6,349.6 917,354.2 911.6,345.7 
			898,348.1 903.1,355.5 890.4,360.6 905.5,389.7 880.6,392.8 878.9,395.8 882.8,397 878.9,395.8 872.3,406.8 893.8,429 906,453.7 
			919,477.9 922.6,489.6 942.4,523.1 886.5,544.1 901.9,578.8 910.4,577.3 946.3,636.2 978.1,675.8 990.8,706.6 999.4,718.4 
			1011.8,739.6 1052.6,738.9 1054.8,750.1 1051.4,765 1065.4,760.1 1068.5,761.9 1110.6,737.9 		"/>
		<polygon style="fill:#07716E;" points="1109.1,726.3 1121.1,710.9 1133.5,708.7 1143.3,708.7 1231.3,676.9 1221.5,655.6 
			1195.1,587.2 1142.3,389.8 1171.7,288.3 1144.5,291 952,347.7 940.7,337.2 922.6,341.9 925.6,348.9 917,353.6 911.6,345 
			898,347.5 903.1,354.8 890.4,359.9 905.5,389 880.6,392.2 878.9,395.1 882.8,396.4 878.9,395.1 872.3,406.1 893.8,428.4 906,453 
			919,477.2 922.6,489 942.4,522.5 886.5,543.5 901.9,578.2 910.4,576.7 946.3,635.6 978.1,675.2 990.8,706 999.4,717.7 1011.8,739 
			1052.6,738.2 1054.8,749.5 1051.4,764.4 1065.4,759.5 1068.5,761.2 1110.6,737.3 		"/>
		<polygon style="fill:#077671;" points="1109.1,725.6 1121.1,710.2 1133.5,708 1143.3,708 1231.3,676.3 1221.5,655 1195.1,586.6 
			1142.3,389.1 1171.7,287.7 1144.5,290.4 952,347.1 940.7,336.6 922.6,341.2 925.6,348.3 917,352.9 911.6,344.4 898,346.8 
			903.1,354.2 890.4,359.3 905.5,388.4 880.6,391.6 878.9,394.5 882.8,395.7 878.9,394.5 872.3,405.5 893.8,427.7 906,452.4 
			919,476.6 922.6,488.3 942.4,521.8 886.5,542.8 901.9,577.5 910.4,576.1 946.3,635 978.1,674.5 990.8,705.3 999.4,717.1 
			1011.8,738.3 1052.6,737.6 1054.8,748.8 1051.4,763.7 1065.4,758.9 1068.5,760.6 1110.6,736.6 		"/>
		<polygon style="fill:#077A74;" points="1109.1,725 1121.1,709.6 1133.5,707.4 1143.3,707.4 1231.3,675.6 1221.5,654.3 
			1195.1,585.9 1142.3,388.5 1171.7,287 1144.5,289.7 952,346.4 940.7,335.9 922.6,340.6 925.6,347.7 917,352.3 911.6,343.7 
			898,346.2 903.1,353.5 890.4,358.7 905.5,387.7 880.6,390.9 878.9,393.8 882.8,395.1 878.9,393.8 872.3,404.8 893.8,427.1 
			906,451.8 919,476 922.6,487.7 942.4,521.2 886.5,542.2 901.9,576.9 910.4,575.4 946.3,634.3 978.1,673.9 990.8,704.7 
			999.4,716.4 1011.8,737.7 1052.6,736.9 1054.8,748.2 1051.4,763.1 1065.4,758.2 1068.5,759.9 1110.6,736 		"/>
		<polygon style="fill:#087F77;" points="1109.1,724.3 1121.1,708.9 1133.5,706.7 1143.3,706.7 1231.3,675 1221.5,653.7 
			1195.1,585.3 1142.3,387.8 1171.7,286.4 1144.5,289.1 952,345.8 940.7,335.3 922.6,339.9 925.6,347 917,351.7 911.6,343.1 
			898,345.5 903.1,352.9 890.4,358 905.5,387.1 880.6,390.3 878.9,393.2 882.8,394.4 878.9,393.2 872.3,404.2 893.8,426.4 
			906,451.1 919,475.3 922.6,487 942.4,520.5 886.5,541.5 901.9,576.2 910.4,574.8 946.3,633.7 978.1,673.3 990.8,704 999.4,715.8 
			1011.8,737 1052.6,736.3 1054.8,747.5 1051.4,762.5 1065.4,757.6 1068.5,759.3 1110.6,735.3 		"/>
		<polygon style="fill:#08837A;" points="1109.1,723.7 1121.1,708.3 1133.5,706.1 1143.3,706.1 1231.3,674.3 1221.5,653.1 
			1195.1,584.6 1142.3,387.2 1171.7,285.8 1144.5,288.4 952,345.1 940.7,334.6 922.6,339.3 925.6,346.4 917,351 911.6,342.5 
			898,344.9 903.1,352.2 890.4,357.4 905.5,386.4 880.6,389.6 878.9,392.6 882.8,393.8 878.9,392.6 872.3,403.5 893.8,425.8 
			906,450.5 919,474.7 922.6,486.4 942.4,519.9 886.5,540.9 901.9,575.6 910.4,574.1 946.3,633 978.1,672.6 990.8,703.4 
			999.4,715.1 1011.8,736.4 1052.6,735.7 1054.8,746.9 1051.4,761.8 1065.4,756.9 1068.5,758.6 1110.6,734.7 		"/>
		<polygon style="fill:#09887C;" points="1109.1,723 1121.1,707.6 1133.5,705.4 1143.3,705.4 1231.3,673.7 1221.5,652.4 1195.1,584 
			1142.3,386.5 1171.7,285.1 1144.5,287.8 952,344.5 940.7,334 922.6,338.6 925.6,345.7 917,350.4 911.6,341.8 898,344.3 
			903.1,351.6 890.4,356.7 905.5,385.8 880.6,389 878.9,391.9 882.8,393.1 878.9,391.9 872.3,402.9 893.8,425.1 906,449.8 919,474 
			922.6,485.7 942.4,519.2 886.5,540.2 901.9,574.9 910.4,573.5 946.3,632.4 978.1,672 990.8,702.8 999.4,714.5 1011.8,735.7 
			1052.6,735 1054.8,746.3 1051.4,761.2 1065.4,756.3 1068.5,758 1110.6,734 		"/>
		<polygon style="fill:#098D7F;" points="1109.1,722.4 1121.1,707 1133.5,704.8 1143.3,704.8 1231.3,673 1221.5,651.8 1195.1,583.3 
			1142.3,385.9 1171.7,284.5 1144.5,287.2 952,343.9 940.7,333.3 922.6,338 925.6,345.1 917,349.7 911.6,341.2 898,343.6 
			903.1,350.9 890.4,356.1 905.5,385.2 880.6,388.3 878.9,391.3 882.8,392.5 878.9,391.3 872.3,402.3 893.8,424.5 906,449.2 
			919,473.4 922.6,485.1 942.4,518.6 886.5,539.6 901.9,574.3 910.4,572.8 946.3,631.7 978.1,671.3 990.8,702.1 999.4,713.8 
			1011.8,735.1 1052.6,734.4 1054.8,745.6 1051.4,760.5 1065.4,755.6 1068.5,757.3 1110.6,733.4 		"/>
		<polygon style="fill:#099182;" points="1109.1,721.7 1121.1,706.4 1133.5,704.2 1143.3,704.2 1231.3,672.4 1221.5,651.1 
			1195.1,582.7 1142.3,385.2 1171.7,283.8 1144.5,286.5 952,343.2 940.7,332.7 922.6,337.3 925.6,344.4 917,349.1 911.6,340.5 
			898,343 903.1,350.3 890.4,355.4 905.5,384.5 880.6,387.7 878.9,390.6 882.8,391.8 878.9,390.6 872.3,401.6 893.8,423.9 
			906,448.5 919,472.7 922.6,484.5 942.4,517.9 886.5,539 901.9,573.7 910.4,572.2 946.3,631.1 978.1,670.7 990.8,701.5 
			999.4,713.2 1011.8,734.5 1052.6,733.7 1054.8,745 1051.4,759.9 1065.4,755 1068.5,756.7 1110.6,732.7 		"/>
		<polygon style="fill:#0A9685;" points="1109.1,721.1 1121.1,705.7 1133.5,703.5 1143.3,703.5 1231.3,671.7 1221.5,650.5 
			1195.1,582.1 1142.3,384.6 1171.7,283.2 1144.5,285.9 952,342.6 940.7,332.1 922.6,336.7 925.6,343.8 917,348.4 911.6,339.9 
			898,342.3 903.1,349.6 890.4,354.8 905.5,383.9 880.6,387 878.9,390 882.8,391.2 878.9,390 872.3,401 893.8,423.2 906,447.9 
			919,472.1 922.6,483.8 942.4,517.3 886.5,538.3 901.9,573 910.4,571.5 946.3,630.4 978.1,670 990.8,700.8 999.4,712.5 
			1011.8,733.8 1052.6,733.1 1054.8,744.3 1051.4,759.2 1065.4,754.3 1068.5,756 1110.6,732.1 		"/>
		<polygon style="fill:#0A9A88;" points="1109.1,720.5 1121.1,705.1 1133.5,702.9 1143.3,702.9 1231.3,671.1 1221.5,649.8 
			1195.1,581.4 1142.3,383.9 1171.7,282.5 1144.5,285.2 952,341.9 940.7,331.4 922.6,336.1 925.6,343.1 917,347.8 911.6,339.2 
			898,341.7 903.1,349 890.4,354.1 905.5,383.2 880.6,386.4 878.9,389.3 882.8,390.5 878.9,389.3 872.3,400.3 893.8,422.6 
			906,447.2 919,471.4 922.6,483.2 942.4,516.6 886.5,537.7 901.9,572.4 910.4,570.9 946.3,629.8 978.1,669.4 990.8,700.2 
			999.4,711.9 1011.8,733.2 1052.6,732.4 1054.8,743.7 1051.4,758.6 1065.4,753.7 1068.5,755.4 1110.6,731.5 		"/>
		<polygon style="fill:#0A9F8B;" points="1109.1,719.8 1121.1,704.4 1133.5,702.2 1143.3,702.2 1231.3,670.4 1221.5,649.2 
			1195.1,580.8 1142.3,383.3 1171.7,281.9 1144.5,284.6 952,341.3 940.7,330.8 922.6,335.4 925.6,342.5 917,347.1 911.6,338.6 
			898,341 903.1,348.4 890.4,353.5 905.5,382.6 880.6,385.7 878.9,388.7 882.8,389.9 878.9,388.7 872.3,399.7 893.8,421.9 
			906,446.6 919,470.8 922.6,482.5 942.4,516 886.5,537 901.9,571.7 910.4,570.3 946.3,629.1 978.1,668.7 990.8,699.5 999.4,711.3 
			1011.8,732.5 1052.6,731.8 1054.8,743 1051.4,757.9 1065.4,753 1068.5,754.8 1110.6,730.8 		"/>
		<polygon style="fill:#0BA38E;" points="1109.1,719.2 1121.1,703.8 1133.5,701.6 1143.3,701.6 1231.3,669.8 1221.5,648.5 
			1195.1,580.1 1142.3,382.7 1171.7,281.2 1144.5,283.9 952,340.6 940.7,330.1 922.6,334.8 925.6,341.8 917,346.5 911.6,337.9 
			898,340.4 903.1,347.7 890.4,352.8 905.5,381.9 880.6,385.1 878.9,388 882.8,389.3 878.9,388 872.3,399 893.8,421.3 906,446 
			919,470.1 922.6,481.9 942.4,515.4 886.5,536.4 901.9,571.1 910.4,569.6 946.3,628.5 978.1,668.1 990.8,698.9 999.4,710.6 
			1011.8,731.9 1052.6,731.1 1054.8,742.4 1051.4,757.3 1065.4,752.4 1068.5,754.1 1110.6,730.2 		"/>
		<polygon style="fill:#0BA891;" points="1109.1,718.5 1121.1,703.1 1133.5,700.9 1143.3,700.9 1231.3,669.2 1221.5,647.9 
			1195.1,579.5 1142.3,382 1171.7,280.6 1144.5,283.3 952,340 940.7,329.5 922.6,334.1 925.6,341.2 917,345.8 911.6,337.3 
			898,339.7 903.1,347.1 890.4,352.2 905.5,381.3 880.6,384.5 878.9,387.4 882.8,388.6 878.9,387.4 872.3,398.4 893.8,420.6 
			906,445.3 919,469.5 922.6,481.2 942.4,514.7 886.5,535.7 901.9,570.4 910.4,569 946.3,627.9 978.1,667.4 990.8,698.2 999.4,710 
			1011.8,731.2 1052.6,730.5 1054.8,741.7 1051.4,756.6 1065.4,751.8 1068.5,753.5 1110.6,729.5 		"/>
	</g>
	<g>
		<g>
			<path style="fill:#CDEFF9;" d="M1027.4,550v26.3h-3.3v-2.4H1006v2.5h-3.3V550h8.2c0.7-1.8,1.3-3.6,1.6-5.4l3.6,0.5
				c-0.3,1.7-0.8,3.3-1.5,4.9H1027.4z M1006,560h18.1v-6.9H1006V560z M1006,570.7h18.1v-7.6H1006V570.7z"/>
			<path style="fill:#CDEFF9;" d="M1035.9,553.6c2.1,1.6,4,3.3,5.6,5l-2.3,2.4c-1.3-1.6-3.2-3.3-5.6-5.1L1035.9,553.6z
				 M1041.9,564.2c-1.4,4.3-3,8.3-4.8,12.1l-3.3-1.4c1.9-3.7,3.6-7.6,5.1-11.8L1041.9,564.2z M1036.5,545.3c2.3,1.6,4.3,3.3,6.1,5.2
				l-2.4,2.3c-1.4-1.6-3.5-3.4-6.1-5.2L1036.5,545.3z M1050.1,549.8c-1.3,6.2-3.2,11-5.5,14.2l-2.4-2.3c2.3-3.6,3.9-7.8,4.9-12.8
				L1050.1,549.8z M1063.5,561.9c-3.2,7.5-9.5,12.3-18.8,14.5l-1.8-2.9c8.9-2,14.9-6.4,17.8-13.2L1063.5,561.9z M1052.2,544.9h3.3
				v20.4h-3.3V544.9z M1060,548.1c1.8,2.9,3.5,6.2,5.3,9.9l-2.9,1.4c-1.5-3.6-3.3-6.9-5.2-10L1060,548.1z"/>
			<path style="fill:#CDEFF9;" d="M1075.8,564.3c-0.8,5-2.4,8.8-4.9,11.5l-2.4-2.1c3-3.3,4.5-8.5,4.5-15.6v-12.9h3.3v7.7h10v-8.1
				h3.1v8.1h9.2v3.1h-22.3v2c0,0.7,0,1.8-0.1,3.1h15.6v15.2h-3.3v-12.1H1075.8z"/>
			<path style="fill:#CDEFF9;" d="M1104.2,546.1h27.4v3.1h-24.3v22.7h25.4v3.1h-28.5V546.1z M1112.3,551.5c3.2,2.4,6,4.7,8.5,6.9
				c1.8-2.4,3.3-5.1,4.6-8l2.9,1.6c-1.4,3.3-3.1,6.2-5,8.7c2.5,2.3,4.8,4.5,6.8,6.8l-2.5,2.5c-1.9-2.3-4.1-4.6-6.5-6.8
				c-2.8,3-6.2,5.4-10,7l-1.9-2.9c3.6-1.5,6.8-3.6,9.4-6.4c-2.5-2.2-5.4-4.6-8.7-7.1L1112.3,551.5z"/>
		</g>
	</g>
</g>
</svg>
