<?xml version="1.0" encoding="utf-8"?>
<!-- Generator: Adobe Illustrator 17.0.0, SVG Export Plug-In . SVG Version: 6.00 Build 0)  -->
<!DOCTYPE svg PUBLIC "-//W3C//DTD SVG 1.1//EN" "http://www.w3.org/Graphics/SVG/1.1/DTD/svg11.dtd">
<svg version="1.1" id="图层_1" xmlns="http://www.w3.org/2000/svg" xmlns:xlink="http://www.w3.org/1999/xlink" x="0px" y="0px"
	 preserveAspectRatio="none" viewBox="334.5 252.5 730 500" style="enable-background:new 334.5 252.5 730 500;"
	 xml:space="preserve">
<g>
	<path style="fill:#0E2142;" d="M769.4,369.7l-1.7,0.2l-12.2,41.6l21.7,80.6l10.8,28l3.9,8.7l0.5-0.2l-0.5,0.2l27.6,61.8l1.4,0.8
		l0.8-0.8l-0.8,0.8l18.2,10l20.2,27.5l17.1,15.3l1.4-2.7l22.9-28.9l12.3-14.8l50.5-9.7l3.4,3.9l0.6,7.9l6.7,4.3l6.6-0.1l7.5-6
		l10.2-2.9l0.7-2.7l-0.2-3.6c0,0-2.5-1.4-2.6-1c-0.1,0.4-4,0.6-4,0.6l-3.7-0.2l-2.1-4.1l-7.5-3.4l-9.2,0.2l-3.7-1.7l-69.6-158.8
		l-4-4.7l-4.7-3.5l-60.6-58.8l-13.6-16.7l-27.5-31.6l-18.7,64.6L769.4,369.7z"/>
	<path style="fill:#0F2142;" d="M769.4,369.6l-1.7,0.2l-12.2,41.6l21.7,80.6l10.8,28l3.9,8.7l0.5-0.2l-0.5,0.2l27.6,61.8l1.4,0.8
		l0.8-0.8l-0.8,0.8l18.2,10l20.2,27.5l17.1,15.3l1.4-2.7l22.9-28.9l12.3-14.8l50.5-9.7l3.4,3.9l0.6,7.9l6.7,4.3l6.6-0.1l7.5-6
		l10.2-2.9l0.7-2.7l-0.2-3.6c0,0-2.5-1.4-2.6-1c-0.1,0.4-4,0.6-4,0.6l-3.7-0.2l-2.1-4.1l-7.5-3.4l-9.2,0.2l-3.7-1.7l-69.6-158.8
		l-4-4.7l-4.7-3.5l-60.6-58.8l-13.6-16.7l-27.5-31.6l-18.7,64.6L769.4,369.6z"/>
	<path style="fill:#102242;" d="M769.4,369.5l-1.7,0.2l-12.2,41.6l21.7,80.6l10.8,28l3.9,8.7l0.5-0.2l-0.5,0.2l27.6,61.8l1.4,0.8
		l0.8-0.8l-0.8,0.8l18.2,10l20.2,27.5l17.1,15.3l1.4-2.7l22.9-28.9l12.3-14.8l50.5-9.7l3.4,3.9l0.6,7.9l6.7,4.3l6.6-0.1l7.5-6
		l10.2-2.9l0.7-2.7l-0.2-3.6c0,0-2.5-1.4-2.6-1c-0.1,0.4-4,0.6-4,0.6l-3.7-0.2l-2.1-4.1l-7.5-3.4l-9.2,0.2l-3.7-1.7l-69.6-158.8
		l-4-4.7l-4.7-3.5l-60.6-58.8l-13.6-16.7L786.2,305l-18.7,64.6L769.4,369.5z"/>
	<path style="fill:#112241;" d="M769.4,369.4l-1.7,0.2l-12.2,41.6l21.7,80.6l10.8,28l3.9,8.7l0.5-0.2l-0.5,0.2l27.6,61.8l1.4,0.8
		l0.8-0.8l-0.8,0.8l18.2,10l20.2,27.5l17.1,15.3l1.4-2.7l22.9-28.9l12.3-14.8l50.5-9.7l3.4,3.9l0.6,7.9l6.7,4.3l6.6-0.1l7.5-6
		l10.2-2.9l0.7-2.7l-0.2-3.6c0,0-2.5-1.4-2.6-1c-0.1,0.4-4,0.6-4,0.6l-3.7-0.2l-2.1-4.1l-7.5-3.4l-9.2,0.2l-3.7-1.7l-69.6-158.8
		l-4-4.7l-4.7-3.5l-60.6-58.8l-13.6-16.7l-27.5-31.6l-18.7,64.6L769.4,369.4z"/>
	<path style="fill:#122341;" d="M769.4,369.3l-1.7,0.2l-12.2,41.6l21.7,80.6l10.8,28l3.9,8.7l0.5-0.2l-0.5,0.2l27.6,61.8l1.4,0.8
		l0.8-0.8l-0.8,0.8l18.2,10l20.2,27.5l17.1,15.3l1.4-2.7l22.9-28.9l12.3-14.8l50.5-9.7l3.4,3.9l0.6,7.9l6.7,4.3l6.6-0.1l7.5-6
		l10.2-2.9l0.7-2.7l-0.2-3.6c0,0-2.5-1.4-2.6-1c-0.1,0.4-4,0.6-4,0.6l-3.7-0.2l-2.1-4.1l-7.5-3.4l-9.2,0.2l-3.7-1.7l-69.6-158.8
		l-4-4.7l-4.7-3.5l-60.6-58.8l-13.6-16.7l-27.5-31.6l-18.7,64.6L769.4,369.3z"/>
	<path style="fill:#132341;" d="M769.4,369.3l-1.7,0.2l-12.2,41.6l21.7,80.6l10.8,28l3.9,8.7l0.5-0.2l-0.5,0.2l27.6,61.8l1.4,0.8
		l0.8-0.8l-0.8,0.8l18.2,10l20.2,27.5l17.1,15.3l1.4-2.7l22.9-28.9l12.3-14.8l50.5-9.7l3.4,3.9l0.6,7.9l6.7,4.3l6.6-0.1l7.5-6
		l10.2-2.9l0.7-2.7l-0.2-3.6c0,0-2.5-1.4-2.6-1c-0.1,0.4-4,0.6-4,0.6l-3.7-0.2l-2.1-4.1l-7.5-3.4l-9.2,0.2l-3.7-1.7l-69.6-158.8
		l-4-4.7l-4.7-3.5l-60.6-58.8l-13.6-16.7l-27.5-31.6l-18.7,64.6L769.4,369.3z"/>
	<path style="fill:#142341;" d="M769.4,369.2l-1.7,0.2L755.5,411l21.7,80.6l10.8,28l3.9,8.7l0.5-0.2l-0.5,0.2l27.6,61.8l1.4,0.8
		l0.8-0.8l-0.8,0.8l18.2,10l20.2,27.5l17.1,15.3l1.4-2.7l22.9-28.9l12.3-14.8l50.5-9.7l3.4,3.9l0.6,7.9l6.7,4.3l6.6-0.1l7.5-6
		l10.2-2.9l0.7-2.7l-0.2-3.6c0,0-2.5-1.4-2.6-1c-0.1,0.4-4,0.6-4,0.6l-3.7-0.2l-2.1-4.1l-7.5-3.4l-9.2,0.2l-3.7-1.7L896.6,420
		l-4-4.7l-4.7-3.5L827.3,353l-13.6-16.7l-27.5-31.6l-18.7,64.6L769.4,369.2z"/>
	<path style="fill:#152441;" d="M769.4,369.1l-1.7,0.2l-12.2,41.6l21.7,80.6l10.8,28l3.9,8.7l0.5-0.2l-0.5,0.2l27.6,61.8l1.4,0.8
		l0.8-0.8l-0.8,0.8l18.2,10l20.2,27.5l17.1,15.3l1.4-2.7l22.9-28.9l12.3-14.8l50.5-9.7l3.4,3.9l0.6,7.9l6.7,4.3l6.6-0.1l7.5-6
		l10.2-2.9l0.7-2.7l-0.2-3.6c0,0-2.5-1.4-2.6-1c-0.1,0.4-4,0.6-4,0.6l-3.7-0.2l-2.1-4.1l-7.5-3.4l-9.2,0.2l-3.7-1.7l-69.6-158.8
		l-4-4.7l-4.7-3.5l-60.6-58.8l-13.6-16.7l-27.5-31.6l-18.7,64.6L769.4,369.1z"/>
	<path style="fill:#162440;" d="M769.4,369l-1.7,0.2l-12.2,41.6l21.7,80.6l10.8,28l3.9,8.7l0.5-0.2l-0.5,0.2l27.6,61.8l1.4,0.8
		l0.8-0.8l-0.8,0.8l18.2,10l20.2,27.5l17.1,15.3l1.4-2.7l22.9-28.9l12.3-14.8l50.5-9.7l3.4,3.9l0.6,7.9l6.7,4.3l6.6-0.1l7.5-6
		l10.2-2.9l0.7-2.7l-0.2-3.6c0,0-2.5-1.4-2.6-1c-0.1,0.4-4,0.6-4,0.6l-3.7-0.2l-2.1-4.1l-7.5-3.4l-9.2,0.2l-3.7-1.7l-69.6-158.8
		l-4-4.7l-4.7-3.5l-60.6-58.8l-13.6-16.7l-27.5-31.6l-18.7,64.6L769.4,369z"/>
	<path style="fill:#172540;" d="M769.4,368.9l-1.7,0.2l-12.2,41.6l21.7,80.6l10.8,28l3.9,8.7l0.5-0.2l-0.5,0.2l27.6,61.8l1.4,0.8
		l0.8-0.8l-0.8,0.8l18.2,10l20.2,27.5l17.1,15.3l1.4-2.7l22.9-28.9L913,597l50.5-9.7l3.4,3.9l0.6,7.9l6.7,4.3l6.6-0.1l7.5-6
		l10.2-2.9l0.7-2.7l-0.2-3.6c0,0-2.5-1.4-2.6-1c-0.1,0.4-4,0.6-4,0.6l-3.7-0.2l-2.1-4.1l-7.5-3.4l-9.2,0.2l-3.7-1.7l-69.6-158.8
		l-4-4.7l-4.7-3.5l-60.6-58.8L813.7,336l-27.5-31.6L767.5,369L769.4,368.9z"/>
	<path style="fill:#182540;" d="M769.4,368.8l-1.7,0.2l-12.2,41.6l21.7,80.6l10.8,28l3.9,8.7l0.5-0.2l-0.5,0.2l27.6,61.8l1.4,0.8
		l0.8-0.8l-0.8,0.8l18.2,10l20.2,27.5l17.1,15.3l1.4-2.7l22.9-28.9l12.3-14.8l50.5-9.7l3.4,3.9l0.6,7.9l6.7,4.3l6.6-0.1l7.5-6
		l10.2-2.9l0.7-2.7L999,588c0,0-2.5-1.4-2.6-1c-0.1,0.4-4,0.6-4,0.6l-3.7-0.2l-2.1-4.1l-7.5-3.4l-9.2,0.2l-3.7-1.7l-69.6-158.8
		l-4-4.7l-4.7-3.5l-60.6-58.8l-13.6-16.7l-27.5-31.6l-18.7,64.6L769.4,368.8z"/>
	<path style="fill:#192640;" d="M769.4,368.7l-1.7,0.2l-12.2,41.6l21.7,80.6l10.8,28l3.9,8.7l0.5-0.2l-0.5,0.2l27.6,61.8l1.4,0.8
		l0.8-0.8l-0.8,0.8l18.2,10l20.2,27.5l17.1,15.3l1.4-2.7l22.9-28.9l12.3-14.8l50.5-9.7l3.4,3.9l0.6,7.9l6.7,4.3l6.6-0.1l7.5-6
		l10.2-2.9l0.7-2.7l-0.2-3.6c0,0-2.5-1.4-2.6-1c-0.1,0.4-4,0.6-4,0.6l-3.7-0.2l-2.1-4.1l-7.5-3.4l-9.2,0.2l-3.7-1.7l-69.6-158.8
		l-4-4.7l-4.7-3.5l-60.6-58.8l-13.6-16.7l-27.5-31.6l-18.7,64.6L769.4,368.7z"/>
	<path style="fill:#1A2640;" d="M769.4,368.6l-1.7,0.2l-12.2,41.6l21.7,80.6l10.8,28l3.9,8.7l0.5-0.2l-0.5,0.2l27.6,61.8l1.4,0.8
		l0.8-0.8l-0.8,0.8l18.2,10l20.2,27.5l17.1,15.3l1.4-2.7l22.9-28.9l12.3-14.8l50.5-9.7l3.4,3.9l0.6,7.9l6.7,4.3l6.6-0.1l7.5-6
		l10.2-2.9l0.7-2.7l-0.2-3.6c0,0-2.5-1.4-2.6-1c-0.1,0.4-4,0.6-4,0.6l-3.7-0.2l-2.1-4.1l-7.5-3.4l-9.2,0.2l-3.7-1.7l-69.6-158.8
		l-4-4.7l-4.7-3.5l-60.6-58.8l-13.6-16.7l-27.5-31.6l-18.7,64.6L769.4,368.6z"/>
	<path style="fill:#1B263F;" d="M769.4,368.5l-1.7,0.2l-12.2,41.6l21.7,80.6l10.8,28l3.9,8.7l0.5-0.2l-0.5,0.2l27.6,61.8l1.4,0.8
		l0.8-0.8l-0.8,0.8l18.2,10l20.2,27.5l17.1,15.3l1.4-2.7l22.9-28.9l12.3-14.8l50.5-9.7l3.4,3.9l0.6,7.9l6.7,4.3l6.6-0.1l7.5-6
		l10.2-2.9l0.7-2.7l-0.2-3.6c0,0-2.5-1.4-2.6-1c-0.1,0.4-4,0.6-4,0.6l-3.7-0.2l-2.1-4.1l-7.5-3.4l-9.2,0.2l-3.7-1.7l-69.6-158.8
		l-4-4.7l-4.7-3.5l-60.6-58.8l-13.6-16.7L786.2,304l-18.7,64.6L769.4,368.5z"/>
	<path style="fill:#1C273F;" d="M769.4,368.5l-1.7,0.2l-12.2,41.6l21.7,80.6l10.8,28l3.9,8.7l0.5-0.2l-0.5,0.2l27.6,61.8l1.4,0.8
		l0.8-0.8l-0.8,0.8l18.2,10l20.2,27.5l17.1,15.3l1.4-2.7l22.9-28.9l12.3-14.8l50.5-9.7l3.4,3.9l0.6,7.9l6.7,4.3l6.6-0.1l7.5-6
		l10.2-2.9l0.7-2.7l-0.2-3.6c0,0-2.5-1.4-2.6-1c-0.1,0.4-4,0.6-4,0.6l-3.7-0.2l-2.1-4.1l-7.5-3.4l-9.2,0.2l-3.7-1.7l-69.6-158.8
		l-4-4.7l-4.7-3.5l-60.6-58.8l-13.6-16.7L786.2,304l-18.7,64.6L769.4,368.5z"/>
	<path style="fill:#1D273F;" d="M769.4,368.4l-1.7,0.2l-12.2,41.6l21.7,80.6l10.8,28l3.9,8.7l0.5-0.2l-0.5,0.2l27.6,61.8l1.4,0.8
		l0.8-0.8l-0.8,0.8l18.2,10l20.2,27.5l17.1,15.3l1.4-2.7l22.9-28.9l12.3-14.8l50.5-9.7l3.4,3.9l0.6,7.9l6.7,4.3l6.6-0.1l7.5-6
		l10.2-2.9l0.7-2.7l-0.2-3.6c0,0-2.5-1.4-2.6-1c-0.1,0.4-4,0.6-4,0.6l-3.7-0.2l-2.1-4.1l-7.5-3.4l-9.2,0.2l-3.7-1.7l-69.6-158.8
		l-4-4.7l-4.7-3.5l-60.6-58.8l-13.6-16.7l-27.5-31.6l-18.7,64.6L769.4,368.4z"/>
	<path style="fill:#1E283F;" d="M769.4,368.3l-1.7,0.2l-12.2,41.6l21.7,80.6l10.8,28l3.9,8.7l0.5-0.2l-0.5,0.2l27.6,61.8l1.4,0.8
		l0.8-0.8l-0.8,0.8l18.2,10l20.2,27.5l17.1,15.3l1.4-2.7l22.9-28.9l12.3-14.8l50.5-9.7l3.4,3.9l0.6,7.9l6.7,4.3l6.6-0.1l7.5-6
		l10.2-2.9l0.7-2.7l-0.2-3.6c0,0-2.5-1.4-2.6-1c-0.1,0.4-4,0.6-4,0.6l-3.7-0.2l-2.1-4.1l-7.5-3.4l-9.2,0.2l-3.7-1.7l-69.6-158.8
		l-4-4.7l-4.7-3.5l-60.6-58.8l-13.6-16.7l-27.5-31.6l-18.7,64.6L769.4,368.3z"/>
	<path style="fill:#1F283F;" d="M769.4,368.2l-1.7,0.2L755.5,410l21.7,80.6l10.8,28l3.9,8.7l0.5-0.2l-0.5,0.2l27.6,61.8l1.4,0.8
		l0.8-0.8l-0.8,0.8l18.2,10l20.2,27.5l17.1,15.3l1.4-2.7l22.9-28.9l12.3-14.8l50.5-9.7l3.4,3.9l0.6,7.9l6.7,4.3l6.6-0.1l7.5-6
		l10.2-2.9l0.7-2.7l-0.2-3.6c0,0-2.5-1.4-2.6-1c-0.1,0.4-4,0.6-4,0.6l-3.7-0.2l-2.1-4.1l-7.5-3.4l-9.2,0.2l-3.7-1.7L896.6,419
		l-4-4.7l-4.7-3.5L827.3,352l-13.6-16.7l-27.5-31.6l-18.7,64.6L769.4,368.2z"/>
	<path style="fill:#20283E;" d="M769.4,368.1l-1.7,0.2l-12.2,41.6l21.7,80.6l10.8,28l3.9,8.7l0.5-0.2l-0.5,0.2l27.6,61.8l1.4,0.8
		l0.8-0.8l-0.8,0.8l18.2,10l20.2,27.5l17.1,15.3l1.4-2.7l22.9-28.9l12.3-14.8l50.5-9.7l3.4,3.9l0.6,7.9l6.7,4.3l6.6-0.1l7.5-6
		l10.2-2.9l0.7-2.7l-0.2-3.6c0,0-2.5-1.4-2.6-1c-0.1,0.4-4,0.6-4,0.6l-3.7-0.2l-2.1-4.1l-7.5-3.4l-9.2,0.2l-3.7-1.7l-69.6-158.8
		l-4-4.7l-4.7-3.5l-60.6-58.8l-13.6-16.7l-27.5-31.6l-18.7,64.6L769.4,368.1z"/>
	<path style="fill:#21293E;" d="M769.4,368l-1.7,0.2l-12.2,41.6l21.7,80.6l10.8,28l3.9,8.7l0.5-0.2l-0.5,0.2l27.6,61.8l1.4,0.8
		l0.8-0.8l-0.8,0.8l18.2,10l20.2,27.5l17.1,15.3l1.4-2.7l22.9-28.9l12.3-14.8l50.5-9.7l3.4,3.9l0.6,7.9l6.7,4.3l6.6-0.1l7.5-6
		l10.2-2.9l0.7-2.7l-0.2-3.6c0,0-2.5-1.4-2.6-1c-0.1,0.4-4,0.6-4,0.6l-3.7-0.2l-2.1-4.1l-7.5-3.4l-9.2,0.2l-3.7-1.7l-69.6-158.8
		l-4-4.7l-4.7-3.5l-60.6-58.8l-13.6-16.7l-27.5-31.6l-18.7,64.6L769.4,368z"/>
	<path style="fill:#22293E;" d="M769.4,367.9l-1.7,0.2l-12.2,41.6l21.7,80.6l10.8,28l3.9,8.7l0.5-0.2l-0.5,0.2l27.6,61.8l1.4,0.8
		l0.8-0.8l-0.8,0.8l18.2,10l20.2,27.5l17.1,15.3l1.4-2.7l22.9-28.9L913,596l50.5-9.7l3.4,3.9l0.6,7.9l6.7,4.3l6.6-0.1l7.5-6
		l10.2-2.9l0.7-2.7l-0.2-3.6c0,0-2.5-1.4-2.6-1c-0.1,0.4-4,0.6-4,0.6l-3.7-0.2l-2.1-4.1l-7.5-3.4l-9.2,0.2l-3.7-1.7l-69.6-158.8
		l-4-4.7l-4.7-3.5l-60.6-58.8L813.7,335l-27.5-31.6L767.5,368L769.4,367.9z"/>
	<path style="fill:#232A3E;" d="M769.4,367.8l-1.7,0.2l-12.2,41.6l21.7,80.6l10.8,28l3.9,8.7l0.5-0.2l-0.5,0.2l27.6,61.8l1.4,0.8
		l0.8-0.8l-0.8,0.8l18.2,10l20.2,27.5l17.1,15.3l1.4-2.7l22.9-28.9l12.3-14.8l50.5-9.7l3.4,3.9l0.6,7.9l6.7,4.3l6.6-0.1l7.5-6
		l10.2-2.9l0.7-2.7L999,587c0,0-2.5-1.4-2.6-1c-0.1,0.4-4,0.6-4,0.6l-3.7-0.2l-2.1-4.1l-7.5-3.4l-9.2,0.2l-3.7-1.7l-69.6-158.8
		l-4-4.7l-4.7-3.5l-60.6-58.8l-13.6-16.7l-27.5-31.6l-18.7,64.6L769.4,367.8z"/>
	<path style="fill:#242A3E;" d="M769.4,367.7l-1.7,0.2l-12.2,41.6l21.7,80.6l10.8,28l3.9,8.7l0.5-0.2l-0.5,0.2l27.6,61.8l1.4,0.8
		l0.8-0.8l-0.8,0.8l18.2,10l20.2,27.5l17.1,15.3l1.4-2.7l22.9-28.9l12.3-14.8l50.5-9.7l3.4,3.9l0.6,7.9l6.7,4.3l6.6-0.1l7.5-6
		l10.2-2.9l0.7-2.7l-0.2-3.6c0,0-2.5-1.4-2.6-1c-0.1,0.4-4,0.6-4,0.6l-3.7-0.2l-2.1-4.1l-7.5-3.4l-9.2,0.2l-3.7-1.7l-69.6-158.8
		l-4-4.7l-4.7-3.5l-60.6-58.8l-13.6-16.7l-27.5-31.6l-18.7,64.6L769.4,367.7z"/>
	<path style="fill:#252A3D;" d="M769.4,367.7l-1.7,0.2l-12.2,41.6l21.7,80.6l10.8,28l3.9,8.7l0.5-0.2l-0.5,0.2l27.6,61.8l1.4,0.8
		l0.8-0.8l-0.8,0.8l18.2,10l20.2,27.5l17.1,15.3l1.4-2.7l22.9-28.9l12.3-14.8l50.5-9.7l3.4,3.9l0.6,7.9l6.7,4.3l6.6-0.1l7.5-6
		l10.2-2.9l0.7-2.7l-0.2-3.6c0,0-2.5-1.4-2.6-1c-0.1,0.4-4,0.6-4,0.6l-3.7-0.2l-2.1-4.1l-7.5-3.4l-9.2,0.2l-3.7-1.7l-69.6-158.8
		l-4-4.7l-4.7-3.5l-60.6-58.8l-13.6-16.7l-27.5-31.6l-18.7,64.6L769.4,367.7z"/>
	<path style="fill:#262B3D;" d="M769.4,367.6l-1.7,0.2l-12.2,41.6l21.7,80.6l10.8,28l3.9,8.7l0.5-0.2l-0.5,0.2l27.6,61.8l1.4,0.8
		l0.8-0.8l-0.8,0.8l18.2,10l20.2,27.5l17.1,15.3l1.4-2.7l22.9-28.9l12.3-14.8l50.5-9.7l3.4,3.9l0.6,7.9l6.7,4.3l6.6-0.1l7.5-6
		l10.2-2.9l0.7-2.7l-0.2-3.6c0,0-2.5-1.4-2.6-1c-0.1,0.4-4,0.6-4,0.6l-3.7-0.2l-2.1-4.1l-7.5-3.4l-9.2,0.2l-3.7-1.7l-69.6-158.8
		l-4-4.7l-4.7-3.5l-60.6-58.8l-13.6-16.7l-27.5-31.6l-18.7,64.6L769.4,367.6z"/>
	<path style="fill:#272B3D;" d="M769.4,367.5l-1.7,0.2l-12.2,41.6l21.7,80.6l10.8,28l3.9,8.7l0.5-0.2l-0.5,0.2l27.6,61.8l1.4,0.8
		l0.8-0.8l-0.8,0.8l18.2,10l20.2,27.5l17.1,15.3l1.4-2.7l22.9-28.9l12.3-14.8l50.5-9.7l3.4,3.9l0.6,7.9l6.7,4.3l6.6-0.1l7.5-6
		l10.2-2.9l0.7-2.7l-0.2-3.6c0,0-2.5-1.4-2.6-1c-0.1,0.4-4,0.6-4,0.6l-3.7-0.2l-2.1-4.1l-7.5-3.4l-9.2,0.2l-3.7-1.7l-69.6-158.8
		l-4-4.7l-4.7-3.5l-60.6-58.8l-13.6-16.7L786.2,303l-18.7,64.6L769.4,367.5z"/>
	<path style="fill:#282C3D;" d="M769.4,367.4l-1.7,0.2l-12.2,41.6l21.7,80.6l10.8,28l3.9,8.7l0.5-0.2l-0.5,0.2l27.6,61.8l1.4,0.8
		l0.8-0.8l-0.8,0.8l18.2,10l20.2,27.5l17.1,15.3l1.4-2.7l22.9-28.9l12.3-14.8l50.5-9.7l3.4,3.9l0.6,7.9l6.7,4.3l6.6-0.1l7.5-6
		l10.2-2.9l0.7-2.7l-0.2-3.6c0,0-2.5-1.4-2.6-1c-0.1,0.4-4,0.6-4,0.6l-3.7-0.2l-2.1-4.1l-7.5-3.4l-9.2,0.2l-3.7-1.7l-69.6-158.8
		l-4-4.7l-4.7-3.5l-60.6-58.8l-13.6-16.7l-27.5-31.6l-18.7,64.6L769.4,367.4z"/>
	<path style="fill:#292C3D;" d="M769.4,367.3l-1.7,0.2l-12.2,41.6l21.7,80.6l10.8,28l3.9,8.7l0.5-0.2l-0.5,0.2l27.6,61.8l1.4,0.8
		l0.8-0.8l-0.8,0.8l18.2,10l20.2,27.5l17.1,15.3l1.4-2.7l22.9-28.9l12.3-14.8l50.5-9.7l3.4,3.9l0.6,7.9l6.7,4.3l6.6-0.1l7.5-6
		l10.2-2.9l0.7-2.7l-0.2-3.6c0,0-2.5-1.4-2.6-1c-0.1,0.4-4,0.6-4,0.6l-3.7-0.2l-2.1-4.1l-7.5-3.4l-9.2,0.2l-3.7-1.7l-69.6-158.8
		l-4-4.7l-4.7-3.5l-60.6-58.8l-13.6-16.7l-27.5-31.6l-18.7,64.6L769.4,367.3z"/>
	<path style="fill:#2A2D3C;" d="M769.4,367.2l-1.7,0.2L755.5,409l21.7,80.6l10.8,28l3.9,8.7l0.5-0.2l-0.5,0.2l27.6,61.8l1.4,0.8
		l0.8-0.8l-0.8,0.8l18.2,10l20.2,27.5l17.1,15.3l1.4-2.7l22.9-28.9l12.3-14.8l50.5-9.7l3.4,3.9l0.6,7.9l6.7,4.3l6.6-0.1l7.5-6
		l10.2-2.9l0.7-2.7l-0.2-3.6c0,0-2.5-1.4-2.6-1c-0.1,0.4-4,0.6-4,0.6l-3.7-0.2l-2.1-4.1l-7.5-3.4l-9.2,0.2l-3.7-1.7L896.6,418
		l-4-4.7l-4.7-3.5L827.3,351l-13.6-16.7l-27.5-31.6l-18.7,64.6L769.4,367.2z"/>
	<path style="fill:#2B2D3C;" d="M769.4,367.1l-1.7,0.2l-12.2,41.6l21.7,80.6l10.8,28l3.9,8.7l0.5-0.2l-0.5,0.2l27.6,61.8l1.4,0.8
		l0.8-0.8l-0.8,0.8l18.2,10l20.2,27.5l17.1,15.3l1.4-2.7l22.9-28.9l12.3-14.8l50.5-9.7l3.4,3.9l0.6,7.9l6.7,4.3l6.6-0.1l7.5-6
		l10.2-2.9l0.7-2.7l-0.2-3.6c0,0-2.5-1.4-2.6-1c-0.1,0.4-4,0.6-4,0.6l-3.7-0.2l-2.1-4.1l-7.5-3.4l-9.2,0.2l-3.7-1.7l-69.6-158.8
		l-4-4.7l-4.7-3.5l-60.6-58.8l-13.6-16.7l-27.5-31.6l-18.7,64.6L769.4,367.1z"/>
	<path style="fill:#2C2D3C;" d="M769.4,367l-1.7,0.2l-12.2,41.6l21.7,80.6l10.8,28l3.9,8.7l0.5-0.2l-0.5,0.2l27.6,61.8l1.4,0.8
		l0.8-0.8l-0.8,0.8l18.2,10l20.2,27.5l17.1,15.3l1.4-2.7l22.9-28.9l12.3-14.8l50.5-9.7l3.4,3.9l0.6,7.9l6.7,4.3l6.6-0.1l7.5-6
		l10.2-2.9l0.7-2.7l-0.2-3.6c0,0-2.5-1.4-2.6-1c-0.1,0.4-4,0.6-4,0.6l-3.7-0.2l-2.1-4.1l-7.5-3.4l-9.2,0.2l-3.7-1.7l-69.6-158.8
		l-4-4.7l-4.7-3.5l-60.6-58.8l-13.6-16.7l-27.5-31.6l-18.7,64.6L769.4,367z"/>
	<path style="fill:#2D2E3C;" d="M769.4,366.9l-1.7,0.2l-12.2,41.6l21.7,80.6l10.8,28l3.9,8.7l0.5-0.2l-0.5,0.2l27.6,61.8l1.4,0.8
		l0.8-0.8l-0.8,0.8l18.2,10l20.2,27.5l17.1,15.3l1.4-2.7l22.9-28.9L913,595l50.5-9.7l3.4,3.9l0.6,7.9l6.7,4.3l6.6-0.1l7.5-6
		l10.2-2.9l0.7-2.7l-0.2-3.6c0,0-2.5-1.4-2.6-1c-0.1,0.4-4,0.6-4,0.6l-3.7-0.2l-2.1-4.1l-7.5-3.4l-9.2,0.2l-3.7-1.7l-69.6-158.8
		l-4-4.7l-4.7-3.5l-60.6-58.8L813.7,334l-27.5-31.6L767.5,367L769.4,366.9z"/>
	<path style="fill:#2E2E3C;" d="M769.4,366.8l-1.7,0.2l-12.2,41.6l21.7,80.6l10.8,28l3.9,8.7l0.5-0.2l-0.5,0.2l27.6,61.8l1.4,0.8
		l0.8-0.8l-0.8,0.8l18.2,10l20.2,27.5l17.1,15.3l1.4-2.7l22.9-28.9l12.3-14.8l50.5-9.7l3.4,3.9l0.6,7.9l6.7,4.3l6.6-0.1l7.5-6
		l10.2-2.9l0.7-2.7L999,586c0,0-2.5-1.4-2.6-1c-0.1,0.4-4,0.6-4,0.6l-3.7-0.2l-2.1-4.1l-7.5-3.4l-9.2,0.2l-3.7-1.7l-69.6-158.8
		l-4-4.7l-4.7-3.5l-60.6-58.8l-13.6-16.7l-27.5-31.6l-18.7,64.6L769.4,366.8z"/>
	<path style="fill:#2F2F3B;" d="M769.4,366.8l-1.7,0.2l-12.2,41.6l21.7,80.6l10.8,28l3.9,8.7l0.5-0.2l-0.5,0.2l27.6,61.8l1.4,0.8
		l0.8-0.8l-0.8,0.8l18.2,10l20.2,27.5l17.1,15.3l1.4-2.7l22.9-28.9l12.3-14.8l50.5-9.7l3.4,3.9l0.6,7.9l6.7,4.3l6.6-0.1l7.5-6
		l10.2-2.9l0.7-2.7L999,586c0,0-2.5-1.4-2.6-1c-0.1,0.4-4,0.6-4,0.6l-3.7-0.2l-2.1-4.1l-7.5-3.4l-9.2,0.2l-3.7-1.7l-69.6-158.8
		l-4-4.7l-4.7-3.5l-60.6-58.8l-13.6-16.7l-27.5-31.6l-18.7,64.6L769.4,366.8z"/>
	<path style="fill:#302F3B;" d="M769.4,366.7l-1.7,0.2l-12.2,41.6l21.7,80.6l10.8,28l3.9,8.7l0.5-0.2l-0.5,0.2l27.6,61.8l1.4,0.8
		l0.8-0.8l-0.8,0.8l18.2,10l20.2,27.5l17.1,15.3l1.4-2.7l22.9-28.9l12.3-14.8l50.5-9.7l3.4,3.9l0.6,7.9l6.7,4.3l6.6-0.1l7.5-6
		l10.2-2.9l0.7-2.7l-0.2-3.6c0,0-2.5-1.4-2.6-1c-0.1,0.4-4,0.6-4,0.6l-3.7-0.2l-2.1-4.1l-7.5-3.4l-9.2,0.2l-3.7-1.7l-69.6-158.8
		l-4-4.7l-4.7-3.5l-60.6-58.8l-13.6-16.7l-27.5-31.6l-18.7,64.6L769.4,366.7z"/>
	<path style="fill:#312F3B;" d="M769.4,366.6l-1.7,0.2l-12.2,41.6l21.7,80.6l10.8,28l3.9,8.7l0.5-0.2l-0.5,0.2l27.6,61.8l1.4,0.8
		l0.8-0.8l-0.8,0.8l18.2,10l20.2,27.5l17.1,15.3l1.4-2.7l22.9-28.9l12.3-14.8l50.5-9.7l3.4,3.9l0.6,7.9l6.7,4.3l6.6-0.1l7.5-6
		l10.2-2.9l0.7-2.7l-0.2-3.6c0,0-2.5-1.4-2.6-1c-0.1,0.4-4,0.6-4,0.6l-3.7-0.2l-2.1-4.1l-7.5-3.4l-9.2,0.2l-3.7-1.7l-69.6-158.8
		l-4-4.7l-4.7-3.5l-60.6-58.8l-13.6-16.7l-27.5-31.6l-18.7,64.6L769.4,366.6z"/>
	<path style="fill:#32303B;" d="M769.4,366.5l-1.7,0.2l-12.2,41.6l21.7,80.6l10.8,28l3.9,8.7l0.5-0.2l-0.5,0.2l27.6,61.8l1.4,0.8
		l0.8-0.8l-0.8,0.8l18.2,10l20.2,27.5l17.1,15.3l1.4-2.7l22.9-28.9l12.3-14.8l50.5-9.7l3.4,3.9l0.6,7.9l6.7,4.3l6.6-0.1l7.5-6
		l10.2-2.9l0.7-2.7l-0.2-3.6c0,0-2.5-1.4-2.6-1c-0.1,0.4-4,0.6-4,0.6l-3.7-0.2l-2.1-4.1l-7.5-3.4l-9.2,0.2l-3.7-1.7l-69.6-158.8
		l-4-4.7l-4.7-3.5l-60.6-58.8l-13.6-16.7L786.2,302l-18.7,64.6L769.4,366.5z"/>
	<path style="fill:#33303B;" d="M769.4,366.4l-1.7,0.2l-12.2,41.6l21.7,80.6l10.8,28l3.9,8.7l0.5-0.2l-0.5,0.2l27.6,61.8l1.4,0.8
		l0.8-0.8l-0.8,0.8l18.2,10l20.2,27.5l17.1,15.3l1.4-2.7l22.9-28.9l12.3-14.8l50.5-9.7l3.4,3.9l0.6,7.9l6.7,4.3l6.6-0.1l7.5-6
		l10.2-2.9l0.7-2.7l-0.2-3.6c0,0-2.5-1.4-2.6-1c-0.1,0.4-4,0.6-4,0.6l-3.7-0.2l-2.1-4.1l-7.5-3.4l-9.2,0.2l-3.7-1.7l-69.6-158.8
		l-4-4.7l-4.7-3.5l-60.6-58.8l-13.6-16.7l-27.5-31.6l-18.7,64.6L769.4,366.4z"/>
	<path style="fill:#34313A;" d="M769.4,366.3l-1.7,0.2l-12.2,41.6l21.7,80.6l10.8,28l3.9,8.7l0.5-0.2l-0.5,0.2l27.6,61.8l1.4,0.8
		l0.8-0.8l-0.8,0.8l18.2,10l20.2,27.5l17.1,15.3l1.4-2.7l22.9-28.9l12.3-14.8l50.5-9.7l3.4,3.9l0.6,7.9l6.7,4.3l6.6-0.1l7.5-6
		l10.2-2.9l0.7-2.7l-0.2-3.6c0,0-2.5-1.4-2.6-1c-0.1,0.4-4,0.6-4,0.6l-3.7-0.2l-2.1-4.1l-7.5-3.4l-9.2,0.2l-3.7-1.7l-69.6-158.8
		l-4-4.7l-4.7-3.5l-60.6-58.8l-13.6-16.7l-27.5-31.6l-18.7,64.6L769.4,366.3z"/>
	<path style="fill:#35313A;" d="M769.4,366.2l-1.7,0.2L755.5,408l21.7,80.6l10.8,28l3.9,8.7l0.5-0.2l-0.5,0.2l27.6,61.8l1.4,0.8
		l0.8-0.8l-0.8,0.8l18.2,10l20.2,27.5l17.1,15.3l1.4-2.7l22.9-28.9l12.3-14.8l50.5-9.7l3.4,3.9l0.6,7.9l6.7,4.3l6.6-0.1l7.5-6
		l10.2-2.9l0.7-2.7l-0.2-3.6c0,0-2.5-1.4-2.6-1c-0.1,0.4-4,0.6-4,0.6l-3.7-0.2l-2.1-4.1l-7.5-3.4l-9.2,0.2l-3.7-1.7L896.6,417
		l-4-4.7l-4.7-3.5L827.3,350l-13.6-16.7l-27.5-31.6l-18.7,64.6L769.4,366.2z"/>
	<path style="fill:#36313A;" d="M769.4,366.1l-1.7,0.2l-12.2,41.6l21.7,80.6l10.8,28l3.9,8.7l0.5-0.2l-0.5,0.2l27.6,61.8l1.4,0.8
		l0.8-0.8l-0.8,0.8l18.2,10l20.2,27.5l17.1,15.3l1.4-2.7l22.9-28.9l12.3-14.8l50.5-9.7l3.4,3.9l0.6,7.9l6.7,4.3l6.6-0.1l7.5-6
		l10.2-2.9l0.7-2.7l-0.2-3.6c0,0-2.5-1.4-2.6-1c-0.1,0.4-4,0.6-4,0.6l-3.7-0.2l-2.1-4.1l-7.5-3.4l-9.2,0.2l-3.7-1.7l-69.6-158.8
		l-4-4.7l-4.7-3.5l-60.6-58.8l-13.6-16.7l-27.5-31.6l-18.7,64.6L769.4,366.1z"/>
	<path style="fill:#37323A;" d="M769.4,366l-1.7,0.2l-12.2,41.6l21.7,80.6l10.8,28l3.9,8.7l0.5-0.2l-0.5,0.2l27.6,61.8l1.4,0.8
		l0.8-0.8l-0.8,0.8l18.2,10l20.2,27.5l17.1,15.3l1.4-2.7l22.9-28.9l12.3-14.8l50.5-9.7l3.4,3.9l0.6,7.9l6.7,4.3l6.6-0.1l7.5-6
		l10.2-2.9l0.7-2.7l-0.2-3.6c0,0-2.5-1.4-2.6-1c-0.1,0.4-4,0.6-4,0.6l-3.7-0.2l-2.1-4.1l-7.5-3.4l-9.2,0.2l-3.7-1.7l-69.6-158.8
		l-4-4.7l-4.7-3.5l-60.6-58.8l-13.6-16.7l-27.5-31.6l-18.7,64.6L769.4,366z"/>
	<path style="fill:#38323A;" d="M769.4,366l-1.7,0.2l-12.2,41.6l21.7,80.6l10.8,28l3.9,8.7l0.5-0.2l-0.5,0.2l27.6,61.8l1.4,0.8
		l0.8-0.8l-0.8,0.8l18.2,10l20.2,27.5l17.1,15.3l1.4-2.7l22.9-28.9l12.3-14.8l50.5-9.7l3.4,3.9l0.6,7.9l6.7,4.3l6.6-0.1l7.5-6
		l10.2-2.9l0.7-2.7l-0.2-3.6c0,0-2.5-1.4-2.6-1c-0.1,0.4-4,0.6-4,0.6l-3.7-0.2l-2.1-4.1l-7.5-3.4l-9.2,0.2l-3.7-1.7l-69.6-158.8
		l-4-4.7l-4.7-3.5l-60.6-58.8l-13.6-16.7l-27.5-31.6l-18.7,64.6L769.4,366z"/>
	<path style="fill:#393339;" d="M769.4,365.9l-1.7,0.2l-12.2,41.6l21.7,80.6l10.8,28l3.9,8.7l0.5-0.2l-0.5,0.2l27.6,61.8l1.4,0.8
		l0.8-0.8l-0.8,0.8l18.2,10l20.2,27.5l17.1,15.3l1.4-2.7l22.9-28.9L913,594l50.5-9.7l3.4,3.9l0.6,7.9l6.7,4.3l6.6-0.1l7.5-6
		l10.2-2.9l0.7-2.7l-0.2-3.6c0,0-2.5-1.4-2.6-1c-0.1,0.4-4,0.6-4,0.6l-3.7-0.2l-2.1-4.1l-7.5-3.4l-9.2,0.2l-3.7-1.7l-69.6-158.8
		l-4-4.7l-4.7-3.5l-60.6-58.8L813.7,333l-27.5-31.6L767.5,366L769.4,365.9z"/>
	<path style="fill:#3A3339;" d="M769.4,365.8l-1.7,0.2l-12.2,41.6l21.7,80.6l10.8,28l3.9,8.7l0.5-0.2l-0.5,0.2l27.6,61.8l1.4,0.8
		l0.8-0.8l-0.8,0.8l18.2,10l20.2,27.5l17.1,15.3l1.4-2.7l22.9-28.9l12.3-14.8l50.5-9.7l3.4,3.9l0.6,7.9l6.7,4.3l6.6-0.1l7.5-6
		l10.2-2.9l0.7-2.7L999,585c0,0-2.5-1.4-2.6-1c-0.1,0.4-4,0.6-4,0.6l-3.7-0.2l-2.1-4.1l-7.5-3.4l-9.2,0.2l-3.7-1.7l-69.6-158.8
		l-4-4.7l-4.7-3.5l-60.6-58.8l-13.6-16.7l-27.5-31.6l-18.7,64.6L769.4,365.8z"/>
	<path style="fill:#3B3339;" d="M769.4,365.7l-1.7,0.2l-12.2,41.6l21.7,80.6l10.8,28l3.9,8.7l0.5-0.2l-0.5,0.2l27.6,61.8l1.4,0.8
		l0.8-0.8l-0.8,0.8l18.2,10l20.2,27.5l17.1,15.3l1.4-2.7l22.9-28.9l12.3-14.8l50.5-9.7l3.4,3.9l0.6,7.9l6.7,4.3l6.6-0.1l7.5-6
		l10.2-2.9l0.7-2.7l-0.2-3.6c0,0-2.5-1.4-2.6-1c-0.1,0.4-4,0.6-4,0.6l-3.7-0.2l-2.1-4.1l-7.5-3.4l-9.2,0.2l-3.7-1.7l-69.6-158.8
		l-4-4.7l-4.7-3.5l-60.6-58.8l-13.6-16.7l-27.5-31.6l-18.7,64.6L769.4,365.7z"/>
	<path style="fill:#3C3439;" d="M769.4,365.6l-1.7,0.2l-12.2,41.6l21.7,80.6l10.8,28l3.9,8.7l0.5-0.2l-0.5,0.2l27.6,61.8l1.4,0.8
		l0.8-0.8l-0.8,0.8l18.2,10l20.2,27.5l17.1,15.3l1.4-2.7l22.9-28.9l12.3-14.8l50.5-9.7l3.4,3.9l0.6,7.9l6.7,4.3l6.6-0.1l7.5-6
		l10.2-2.9l0.7-2.7l-0.2-3.6c0,0-2.5-1.4-2.6-1c-0.1,0.4-4,0.6-4,0.6l-3.7-0.2l-2.1-4.1l-7.5-3.4l-9.2,0.2l-3.7-1.7l-69.6-158.8
		l-4-4.7l-4.7-3.5l-60.6-58.8l-13.6-16.7l-27.5-31.6l-18.7,64.6L769.4,365.6z"/>
	<path style="fill:#3D3439;" d="M769.4,365.5l-1.7,0.2l-12.2,41.6l21.7,80.6l10.8,28l3.9,8.7l0.5-0.2l-0.5,0.2l27.6,61.8l1.4,0.8
		l0.8-0.8l-0.8,0.8l18.2,10l20.2,27.5l17.1,15.3l1.4-2.7l22.9-28.9l12.3-14.8l50.5-9.7l3.4,3.9l0.6,7.9l6.7,4.3l6.6-0.1l7.5-6
		l10.2-2.9l0.7-2.7l-0.2-3.6c0,0-2.5-1.4-2.6-1c-0.1,0.4-4,0.6-4,0.6l-3.7-0.2l-2.1-4.1l-7.5-3.4l-9.2,0.2l-3.7-1.7l-69.6-158.8
		l-4-4.7l-4.7-3.5l-60.6-58.8l-13.6-16.7L786.2,301l-18.7,64.6L769.4,365.5z"/>
	<path style="fill:#3E3538;" d="M769.4,365.4l-1.7,0.2l-12.2,41.6l21.7,80.6l10.8,28l3.9,8.7l0.5-0.2l-0.5,0.2l27.6,61.8l1.4,0.8
		l0.8-0.8l-0.8,0.8l18.2,10l20.2,27.5l17.1,15.3l1.4-2.7l22.9-28.9l12.3-14.8l50.5-9.7l3.4,3.9l0.6,7.9l6.7,4.3l6.6-0.1l7.5-6
		l10.2-2.9l0.7-2.7l-0.2-3.6c0,0-2.5-1.4-2.6-1c-0.1,0.4-4,0.6-4,0.6l-3.7-0.2l-2.1-4.1l-7.5-3.4l-9.2,0.2l-3.7-1.7l-69.6-158.8
		l-4-4.7l-4.7-3.5l-60.6-58.8l-13.6-16.7l-27.5-31.6l-18.7,64.6L769.4,365.4z"/>
	<path style="fill:#3F3538;" d="M769.4,365.3l-1.7,0.2l-12.2,41.6l21.7,80.6l10.8,28l3.9,8.7l0.5-0.2l-0.5,0.2l27.6,61.8l1.4,0.8
		l0.8-0.8l-0.8,0.8l18.2,10l20.2,27.5l17.1,15.3l1.4-2.7l22.9-28.9l12.3-14.8l50.5-9.7l3.4,3.9l0.6,7.9l6.7,4.3l6.6-0.1l7.5-6
		l10.2-2.9l0.7-2.7l-0.2-3.6c0,0-2.5-1.4-2.6-1c-0.1,0.4-4,0.6-4,0.6l-3.7-0.2l-2.1-4.1l-7.5-3.4l-9.2,0.2l-3.7-1.7l-69.6-158.8
		l-4-4.7l-4.7-3.5l-60.6-58.8l-13.6-16.7l-27.5-31.6l-18.7,64.6L769.4,365.3z"/>
	<path style="fill:#403638;" d="M769.4,365.2l-1.7,0.2L755.5,407l21.7,80.6l10.8,28l3.9,8.7l0.5-0.2l-0.5,0.2l27.6,61.8l1.4,0.8
		l0.8-0.8l-0.8,0.8l18.2,10l20.2,27.5l17.1,15.3l1.4-2.7l22.9-28.9l12.3-14.8l50.5-9.7l3.4,3.9l0.6,7.9l6.7,4.3l6.6-0.1l7.5-6
		l10.2-2.9l0.7-2.7l-0.2-3.6c0,0-2.5-1.4-2.6-1c-0.1,0.4-4,0.6-4,0.6l-3.7-0.2l-2.1-4.1l-7.5-3.4l-9.2,0.2l-3.7-1.7L896.6,416
		l-4-4.7l-4.7-3.5L827.3,349l-13.6-16.7l-27.5-31.6l-18.7,64.6L769.4,365.2z"/>
	<path style="fill:#413638;" d="M769.4,365.2l-1.7,0.2L755.5,407l21.7,80.6l10.8,28l3.9,8.7l0.5-0.2l-0.5,0.2l27.6,61.8l1.4,0.8
		l0.8-0.8l-0.8,0.8l18.2,10l20.2,27.5l17.1,15.3l1.4-2.7l22.9-28.9l12.3-14.8l50.5-9.7l3.4,3.9l0.6,7.9l6.7,4.3l6.6-0.1l7.5-6
		l10.2-2.9l0.7-2.7l-0.2-3.6c0,0-2.5-1.4-2.6-1c-0.1,0.4-4,0.6-4,0.6l-3.7-0.2l-2.1-4.1l-7.5-3.4l-9.2,0.2l-3.7-1.7L896.6,416
		l-4-4.7l-4.7-3.5L827.3,349l-13.6-16.7l-27.5-31.6l-18.7,64.6L769.4,365.2z"/>
	<path style="fill:#423638;" d="M769.4,365.1l-1.7,0.2l-12.2,41.6l21.7,80.6l10.8,28l3.9,8.7l0.5-0.2l-0.5,0.2l27.6,61.8l1.4,0.8
		l0.8-0.8l-0.8,0.8l18.2,10l20.2,27.5l17.1,15.3l1.4-2.7l22.9-28.9l12.3-14.8l50.5-9.7l3.4,3.9l0.6,7.9l6.7,4.3l6.6-0.1l7.5-6
		l10.2-2.9l0.7-2.7l-0.2-3.6c0,0-2.5-1.4-2.6-1c-0.1,0.4-4,0.6-4,0.6l-3.7-0.2l-2.1-4.1l-7.5-3.4l-9.2,0.2l-3.7-1.7l-69.6-158.8
		l-4-4.7l-4.7-3.5l-60.6-58.8l-13.6-16.7l-27.5-31.6l-18.7,64.6L769.4,365.1z"/>
	<path style="fill:#433738;" d="M769.4,365l-1.7,0.2l-12.2,41.6l21.7,80.6l10.8,28l3.9,8.7l0.5-0.2l-0.5,0.2l27.6,61.8l1.4,0.8
		l0.8-0.8l-0.8,0.8l18.2,10l20.2,27.5l17.1,15.3l1.4-2.7l22.9-28.9l12.3-14.8l50.5-9.7l3.4,3.9l0.6,7.9l6.7,4.3l6.6-0.1l7.5-6
		l10.2-2.9l0.7-2.7l-0.2-3.6c0,0-2.5-1.4-2.6-1c-0.1,0.4-4,0.6-4,0.6l-3.7-0.2l-2.1-4.1l-7.5-3.4l-9.2,0.2l-3.7-1.7l-69.6-158.8
		l-4-4.7l-4.7-3.5l-60.6-58.8l-13.6-16.7l-27.5-31.6l-18.7,64.6L769.4,365z"/>
	<path style="fill:#443737;" d="M769.4,364.9l-1.7,0.2l-12.2,41.6l21.7,80.6l10.8,28l3.9,8.7l0.5-0.2l-0.5,0.2l27.6,61.8l1.4,0.8
		l0.8-0.8l-0.8,0.8l18.2,10l20.2,27.5l17.1,15.3l1.4-2.7l22.9-28.9L913,593l50.5-9.7l3.4,3.9l0.6,7.9l6.7,4.3l6.6-0.1l7.5-6
		l10.2-2.9l0.7-2.7l-0.2-3.6c0,0-2.5-1.4-2.6-1c-0.1,0.4-4,0.6-4,0.6l-3.7-0.2l-2.1-4.1l-7.5-3.4l-9.2,0.2l-3.7-1.7l-69.6-158.8
		l-4-4.7l-4.7-3.5l-60.6-58.8L813.7,332l-27.5-31.6L767.5,365L769.4,364.9z"/>
	<path style="fill:#453837;" d="M769.4,364.8l-1.7,0.2l-12.2,41.6l21.7,80.6l10.8,28l3.9,8.7l0.5-0.2l-0.5,0.2l27.6,61.8l1.4,0.8
		l0.8-0.8l-0.8,0.8l18.2,10l20.2,27.5l17.1,15.3l1.4-2.7l22.9-28.9l12.3-14.8l50.5-9.7l3.4,3.9l0.6,7.9l6.7,4.3l6.6-0.1l7.5-6
		l10.2-2.9l0.7-2.7L999,584c0,0-2.5-1.4-2.6-1c-0.1,0.4-4,0.6-4,0.6l-3.7-0.2l-2.1-4.1l-7.5-3.4l-9.2,0.2l-3.7-1.7l-69.6-158.8
		l-4-4.7l-4.7-3.5l-60.6-58.8l-13.6-16.7l-27.5-31.6l-18.7,64.6L769.4,364.8z"/>
	<path style="fill:#463837;" d="M769.4,364.7l-1.7,0.2l-12.2,41.6l21.7,80.6l10.8,28l3.9,8.7l0.5-0.2l-0.5,0.2l27.6,61.8l1.4,0.8
		l0.8-0.8l-0.8,0.8l18.2,10l20.2,27.5l17.1,15.3l1.4-2.7l22.9-28.9l12.3-14.8l50.5-9.7l3.4,3.9l0.6,7.9l6.7,4.3l6.6-0.1l7.5-6
		l10.2-2.9l0.7-2.7l-0.2-3.6c0,0-2.5-1.4-2.6-1c-0.1,0.4-4,0.6-4,0.6l-3.7-0.2l-2.1-4.1l-7.5-3.4l-9.2,0.2l-3.7-1.7l-69.6-158.8
		l-4-4.7l-4.7-3.5l-60.6-58.8l-13.6-16.7l-27.5-31.6l-18.7,64.6L769.4,364.7z"/>
	<path style="fill:#473837;" d="M769.4,364.6l-1.7,0.2l-12.2,41.6l21.7,80.6l10.8,28l3.9,8.7l0.5-0.2l-0.5,0.2l27.6,61.8l1.4,0.8
		l0.8-0.8l-0.8,0.8l18.2,10l20.2,27.5l17.1,15.3l1.4-2.7l22.9-28.9l12.3-14.8l50.5-9.7l3.4,3.9l0.6,7.9l6.7,4.3l6.6-0.1l7.5-6
		l10.2-2.9l0.7-2.7l-0.2-3.6c0,0-2.5-1.4-2.6-1c-0.1,0.4-4,0.6-4,0.6l-3.7-0.2l-2.1-4.1l-7.5-3.4l-9.2,0.2l-3.7-1.7l-69.6-158.8
		l-4-4.7l-4.7-3.5l-60.6-58.8l-13.6-16.7l-27.5-31.6l-18.7,64.6L769.4,364.6z"/>
	<path style="fill:#483937;" d="M769.4,364.5l-1.7,0.2l-12.2,41.6l21.7,80.6l10.8,28l3.9,8.7l0.5-0.2l-0.5,0.2l27.6,61.8l1.4,0.8
		l0.8-0.8l-0.8,0.8l18.2,10l20.2,27.5l17.1,15.3l1.4-2.7l22.9-28.9l12.3-14.8l50.5-9.7l3.4,3.9l0.6,7.9l6.7,4.3l6.6-0.1l7.5-6
		l10.2-2.9l0.7-2.7l-0.2-3.6c0,0-2.5-1.4-2.6-1c-0.1,0.4-4,0.6-4,0.6l-3.7-0.2l-2.1-4.1l-7.5-3.4l-9.2,0.2l-3.7-1.7l-69.6-158.8
		l-4-4.7l-4.7-3.5l-60.6-58.8l-13.6-16.7L786.2,300l-18.7,64.6L769.4,364.5z"/>
	<path style="fill:#493936;" d="M769.4,364.4l-1.7,0.2l-12.2,41.6l21.7,80.6l10.8,28l3.9,8.7l0.5-0.2l-0.5,0.2l27.6,61.8l1.4,0.8
		l0.8-0.8l-0.8,0.8l18.2,10l20.2,27.5l17.1,15.3l1.4-2.7l22.9-28.9l12.3-14.8l50.5-9.7l3.4,3.9l0.6,7.9l6.7,4.3l6.6-0.1l7.5-6
		l10.2-2.9l0.7-2.7l-0.2-3.6c0,0-2.5-1.4-2.6-1c-0.1,0.4-4,0.6-4,0.6l-3.7-0.2l-2.1-4.1l-7.5-3.4l-9.2,0.2l-3.7-1.7l-69.6-158.8
		l-4-4.7l-4.7-3.5l-60.6-58.8l-13.6-16.7l-27.5-31.6l-18.7,64.6L769.4,364.4z"/>
	<path style="fill:#4A3A36;" d="M769.4,364.4l-1.7,0.2l-12.2,41.6l21.7,80.6l10.8,28l3.9,8.7l0.5-0.2l-0.5,0.2l27.6,61.8l1.4,0.8
		l0.8-0.8l-0.8,0.8l18.2,10l20.2,27.5l17.1,15.3l1.4-2.7l22.9-28.9l12.3-14.8l50.5-9.7l3.4,3.9l0.6,7.9l6.7,4.3l6.6-0.1l7.5-6
		l10.2-2.9l0.7-2.7l-0.2-3.6c0,0-2.5-1.4-2.6-1c-0.1,0.4-4,0.6-4,0.6l-3.7-0.2l-2.1-4.1l-7.5-3.4l-9.2,0.2l-3.7-1.7l-69.6-158.8
		l-4-4.7l-4.7-3.5l-60.6-58.8l-13.6-16.7l-27.5-31.6l-18.7,64.6L769.4,364.4z"/>
	<path style="fill:#4B3A36;" d="M769.4,364.3l-1.7,0.2l-12.2,41.6l21.7,80.6l10.8,28l3.9,8.7l0.5-0.2l-0.5,0.2l27.6,61.8l1.4,0.8
		l0.8-0.8l-0.8,0.8l18.2,10l20.2,27.5l17.1,15.3l1.4-2.7l22.9-28.9l12.3-14.8l50.5-9.7l3.4,3.9l0.6,7.9l6.7,4.3l6.6-0.1l7.5-6
		l10.2-2.9l0.7-2.7l-0.2-3.6c0,0-2.5-1.4-2.6-1c-0.1,0.4-4,0.6-4,0.6l-3.7-0.2l-2.1-4.1l-7.5-3.4l-9.2,0.2l-3.7-1.7l-69.6-158.8
		l-4-4.7l-4.7-3.5l-60.6-58.8l-13.6-16.7l-27.5-31.6l-18.7,64.6L769.4,364.3z"/>
	<path style="fill:#4C3A36;" d="M769.4,364.2l-1.7,0.2L755.5,406l21.7,80.6l10.8,28l3.9,8.7l0.5-0.2l-0.5,0.2l27.6,61.8l1.4,0.8
		l0.8-0.8l-0.8,0.8l18.2,10l20.2,27.5l17.1,15.3l1.4-2.7l22.9-28.9l12.3-14.8l50.5-9.7l3.4,3.9l0.6,7.9l6.7,4.3l6.6-0.1l7.5-6
		l10.2-2.9l0.7-2.7l-0.2-3.6c0,0-2.5-1.4-2.6-1c-0.1,0.4-4,0.6-4,0.6l-3.7-0.2l-2.1-4.1l-7.5-3.4l-9.2,0.2l-3.7-1.7L896.6,415
		l-4-4.7l-4.7-3.5L827.3,348l-13.6-16.7l-27.5-31.6l-18.7,64.6L769.4,364.2z"/>
	<path style="fill:#4D3B36;" d="M769.4,364.1l-1.7,0.2l-12.2,41.6l21.7,80.6l10.8,28l3.9,8.7l0.5-0.2l-0.5,0.2l27.6,61.8l1.4,0.8
		l0.8-0.8l-0.8,0.8l18.2,10l20.2,27.5l17.1,15.3l1.4-2.7l22.9-28.9l12.3-14.8l50.5-9.7l3.4,3.9l0.6,7.9l6.7,4.3l6.6-0.1l7.5-6
		l10.2-2.9l0.7-2.7l-0.2-3.6c0,0-2.5-1.4-2.6-1c-0.1,0.4-4,0.6-4,0.6l-3.7-0.2l-2.1-4.1l-7.5-3.4l-9.2,0.2l-3.7-1.7l-69.6-158.8
		l-4-4.7l-4.7-3.5l-60.6-58.8l-13.6-16.7l-27.5-31.6l-18.7,64.6L769.4,364.1z"/>
	<path style="fill:#4E3B35;" d="M769.4,364l-1.7,0.2l-12.2,41.6l21.7,80.6l10.8,28l3.9,8.7l0.5-0.2l-0.5,0.2l27.6,61.8l1.4,0.8
		l0.8-0.8l-0.8,0.8l18.2,10l20.2,27.5l17.1,15.3l1.4-2.7l22.9-28.9l12.3-14.8l50.5-9.7l3.4,3.9l0.6,7.9l6.7,4.3l6.6-0.1l7.5-6
		l10.2-2.9l0.7-2.7l-0.2-3.6c0,0-2.5-1.4-2.6-1c-0.1,0.4-4,0.6-4,0.6l-3.7-0.2l-2.1-4.1l-7.5-3.4l-9.2,0.2l-3.7-1.7l-69.6-158.8
		l-4-4.7l-4.7-3.5l-60.6-58.8l-13.6-16.7l-27.5-31.6l-18.7,64.6L769.4,364z"/>
	<path style="fill:#4F3C35;" d="M769.4,363.9l-1.7,0.2l-12.2,41.6l21.7,80.6l10.8,28l3.9,8.7l0.5-0.2l-0.5,0.2l27.6,61.8l1.4,0.8
		l0.8-0.8l-0.8,0.8l18.2,10l20.2,27.5l17.1,15.3l1.4-2.7l22.9-28.9L913,592l50.5-9.7l3.4,3.9l0.6,7.9l6.7,4.3l6.6-0.1l7.5-6
		l10.2-2.9l0.7-2.7l-0.2-3.6c0,0-2.5-1.4-2.6-1c-0.1,0.4-4,0.6-4,0.6l-3.7-0.2l-2.1-4.1l-7.5-3.4l-9.2,0.2l-3.7-1.7l-69.6-158.8
		l-4-4.7l-4.7-3.5l-60.6-58.8L813.7,331l-27.5-31.6L767.5,364L769.4,363.9z"/>
	<path style="fill:#503C35;" d="M769.4,363.8l-1.7,0.2l-12.2,41.6l21.7,80.6l10.8,28l3.9,8.7l0.5-0.2l-0.5,0.2l27.6,61.8l1.4,0.8
		l0.8-0.8l-0.8,0.8l18.2,10l20.2,27.5l17.1,15.3l1.4-2.7l22.9-28.9l12.3-14.8l50.5-9.7l3.4,3.9l0.6,7.9l6.7,4.3l6.6-0.1l7.5-6
		l10.2-2.9l0.7-2.7L999,583c0,0-2.5-1.4-2.6-1c-0.1,0.4-4,0.6-4,0.6l-3.7-0.2l-2.1-4.1l-7.5-3.4l-9.2,0.2l-3.7-1.7l-69.6-158.8
		l-4-4.7l-4.7-3.5l-60.6-58.8l-13.6-16.7l-27.5-31.6l-18.7,64.6L769.4,363.8z"/>
	<path style="fill:#513D35;" d="M769.4,363.7l-1.7,0.2l-12.2,41.6l21.7,80.6l10.8,28l3.9,8.7l0.5-0.2l-0.5,0.2l27.6,61.8l1.4,0.8
		l0.8-0.8l-0.8,0.8l18.2,10l20.2,27.5l17.1,15.3l1.4-2.7l22.9-28.9l12.3-14.8l50.5-9.7l3.4,3.9l0.6,7.9l6.7,4.3l6.6-0.1l7.5-6
		l10.2-2.9l0.7-2.7l-0.2-3.6c0,0-2.5-1.4-2.6-1c-0.1,0.4-4,0.6-4,0.6l-3.7-0.2l-2.1-4.1l-7.5-3.4l-9.2,0.2l-3.7-1.7l-69.6-158.8
		l-4-4.7l-4.7-3.5l-60.6-58.8l-13.6-16.7l-27.5-31.6l-18.7,64.6L769.4,363.7z"/>
	<path style="fill:#523D35;" d="M769.4,363.6l-1.7,0.2l-12.2,41.6l21.7,80.6l10.8,28l3.9,8.7l0.5-0.2l-0.5,0.2l27.6,61.8l1.4,0.8
		l0.8-0.8l-0.8,0.8l18.2,10l20.2,27.5l17.1,15.3l1.4-2.7l22.9-28.9l12.3-14.8l50.5-9.7l3.4,3.9l0.6,7.9l6.7,4.3l6.6-0.1l7.5-6
		l10.2-2.9l0.7-2.7l-0.2-3.6c0,0-2.5-1.4-2.6-1c-0.1,0.4-4,0.6-4,0.6l-3.7-0.2l-2.1-4.1l-7.5-3.4l-9.2,0.2l-3.7-1.7l-69.6-158.8
		l-4-4.7l-4.7-3.5l-60.6-58.8l-13.6-16.7l-27.5-31.6l-18.7,64.6L769.4,363.6z"/>
	<path style="fill:#533D34;" d="M769.4,363.6l-1.7,0.2l-12.2,41.6l21.7,80.6l10.8,28l3.9,8.7l0.5-0.2l-0.5,0.2l27.6,61.8l1.4,0.8
		l0.8-0.8l-0.8,0.8l18.2,10l20.2,27.5l17.1,15.3l1.4-2.7l22.9-28.9l12.3-14.8l50.5-9.7l3.4,3.9l0.6,7.9l6.7,4.3l6.6-0.1l7.5-6
		l10.2-2.9l0.7-2.7l-0.2-3.6c0,0-2.5-1.4-2.6-1c-0.1,0.4-4,0.6-4,0.6l-3.7-0.2l-2.1-4.1l-7.5-3.4l-9.2,0.2l-3.7-1.7l-69.6-158.8
		l-4-4.7l-4.7-3.5l-60.6-58.8l-13.6-16.7l-27.5-31.6l-18.7,64.6L769.4,363.6z"/>
	<path style="fill:#543E34;" d="M769.4,363.5l-1.7,0.2l-12.2,41.6l21.7,80.6l10.8,28l3.9,8.7l0.5-0.2l-0.5,0.2l27.6,61.8l1.4,0.8
		l0.8-0.8l-0.8,0.8l18.2,10l20.2,27.5l17.1,15.3l1.4-2.7l22.9-28.9l12.3-14.8l50.5-9.7l3.4,3.9l0.6,7.9l6.7,4.3l6.6-0.1l7.5-6
		l10.2-2.9l0.7-2.7l-0.2-3.6c0,0-2.5-1.4-2.6-1c-0.1,0.4-4,0.6-4,0.6l-3.7-0.2l-2.1-4.1l-7.5-3.4l-9.2,0.2l-3.7-1.7l-69.6-158.8
		l-4-4.7l-4.7-3.5l-60.6-58.8l-13.6-16.7L786.2,299l-18.7,64.6L769.4,363.5z"/>
	<path style="fill:#553E34;" d="M769.4,363.4l-1.7,0.2l-12.2,41.6l21.7,80.6l10.8,28l3.9,8.7l0.5-0.2l-0.5,0.2l27.6,61.8l1.4,0.8
		l0.8-0.8l-0.8,0.8l18.2,10l20.2,27.5l17.1,15.3l1.4-2.7l22.9-28.9l12.3-14.8l50.5-9.7l3.4,3.9l0.6,7.9l6.7,4.3l6.6-0.1l7.5-6
		l10.2-2.9l0.7-2.7l-0.2-3.6c0,0-2.5-1.4-2.6-1c-0.1,0.4-4,0.6-4,0.6l-3.7-0.2l-2.1-4.1l-7.5-3.4l-9.2,0.2l-3.7-1.7l-69.6-158.8
		l-4-4.7l-4.7-3.5l-60.6-58.8l-13.6-16.7l-27.5-31.6l-18.7,64.6L769.4,363.4z"/>
	<path style="fill:#563F34;" d="M769.4,363.3l-1.7,0.2l-12.2,41.6l21.7,80.6l10.8,28l3.9,8.7l0.5-0.2l-0.5,0.2l27.6,61.8l1.4,0.8
		l0.8-0.8l-0.8,0.8l18.2,10l20.2,27.5l17.1,15.3l1.4-2.7l22.9-28.9l12.3-14.8l50.5-9.7l3.4,3.9l0.6,7.9l6.7,4.3l6.6-0.1l7.5-6
		l10.2-2.9l0.7-2.7l-0.2-3.6c0,0-2.5-1.4-2.6-1c-0.1,0.4-4,0.6-4,0.6l-3.7-0.2l-2.1-4.1l-7.5-3.4l-9.2,0.2l-3.7-1.7l-69.6-158.8
		l-4-4.7l-4.7-3.5l-60.6-58.8l-13.6-16.7l-27.5-31.6l-18.7,64.6L769.4,363.3z"/>
	<path style="fill:#573F34;" d="M769.4,363.2l-1.7,0.2L755.5,405l21.7,80.6l10.8,28l3.9,8.7l0.5-0.2l-0.5,0.2l27.6,61.8l1.4,0.8
		l0.8-0.8l-0.8,0.8l18.2,10l20.2,27.5l17.1,15.3l1.4-2.7l22.9-28.9l12.3-14.8l50.5-9.7l3.4,3.9l0.6,7.9l6.7,4.3l6.6-0.1l7.5-6
		l10.2-2.9l0.7-2.7l-0.2-3.6c0,0-2.5-1.4-2.6-1c-0.1,0.4-4,0.6-4,0.6l-3.7-0.2l-2.1-4.1l-7.5-3.4l-9.2,0.2l-3.7-1.7L896.6,414
		l-4-4.7l-4.7-3.5L827.3,347l-13.6-16.7l-27.5-31.6l-18.7,64.6L769.4,363.2z"/>
	<path style="fill:#583F33;" d="M769.4,363.1l-1.7,0.2l-12.2,41.6l21.7,80.6l10.8,28l3.9,8.7l0.5-0.2l-0.5,0.2l27.6,61.8l1.4,0.8
		l0.8-0.8l-0.8,0.8l18.2,10l20.2,27.5l17.1,15.3l1.4-2.7l22.9-28.9l12.3-14.8l50.5-9.7l3.4,3.9l0.6,7.9l6.7,4.3l6.6-0.1l7.5-6
		l10.2-2.9l0.7-2.7l-0.2-3.6c0,0-2.5-1.4-2.6-1c-0.1,0.4-4,0.6-4,0.6l-3.7-0.2l-2.1-4.1l-7.5-3.4l-9.2,0.2l-3.7-1.7l-69.6-158.8
		l-4-4.7l-4.7-3.5l-60.6-58.8l-13.6-16.7l-27.5-31.6l-18.7,64.6L769.4,363.1z"/>
	<path style="fill:#594033;" d="M769.4,363l-1.7,0.2l-12.2,41.6l21.7,80.6l10.8,28l3.9,8.7l0.5-0.2l-0.5,0.2l27.6,61.8l1.4,0.8
		l0.8-0.8l-0.8,0.8l18.2,10l20.2,27.5l17.1,15.3l1.4-2.7l22.9-28.9l12.3-14.8l50.5-9.7l3.4,3.9l0.6,7.9l6.7,4.3l6.6-0.1l7.5-6
		l10.2-2.9l0.7-2.7l-0.2-3.6c0,0-2.5-1.4-2.6-1c-0.1,0.4-4,0.6-4,0.6l-3.7-0.2l-2.1-4.1l-7.5-3.4l-9.2,0.2l-3.7-1.7l-69.6-158.8
		l-4-4.7l-4.7-3.5l-60.6-58.8l-13.6-16.7l-27.5-31.6l-18.7,64.6L769.4,363z"/>
	<path style="fill:#5A4033;" d="M769.4,362.9l-1.7,0.2l-12.2,41.6l21.7,80.6l10.8,28l3.9,8.7l0.5-0.2l-0.5,0.2l27.6,61.8l1.4,0.8
		l0.8-0.8l-0.8,0.8l18.2,10l20.2,27.5l17.1,15.3l1.4-2.7l22.9-28.9L913,591l50.5-9.7l3.4,3.9l0.6,7.9l6.7,4.3l6.6-0.1l7.5-6
		l10.2-2.9l0.7-2.7l-0.2-3.6c0,0-2.5-1.4-2.6-1c-0.1,0.4-4,0.6-4,0.6l-3.7-0.2l-2.1-4.1l-7.5-3.4l-9.2,0.2l-3.7-1.7l-69.6-158.8
		l-4-4.7l-4.7-3.5l-60.6-58.8L813.7,330l-27.5-31.6L767.5,363L769.4,362.9z"/>
	<path style="fill:#5B4133;" d="M769.4,362.8l-1.7,0.2l-12.2,41.6l21.7,80.6l10.8,28l3.9,8.7l0.5-0.2l-0.5,0.2l27.6,61.8l1.4,0.8
		l0.8-0.8l-0.8,0.8l18.2,10l20.2,27.5l17.1,15.3l1.4-2.7l22.9-28.9l12.3-14.8l50.5-9.7l3.4,3.9l0.6,7.9l6.7,4.3l6.6-0.1l7.5-6
		l10.2-2.9l0.7-2.7L999,582c0,0-2.5-1.4-2.6-1c-0.1,0.4-4,0.6-4,0.6l-3.7-0.2l-2.1-4.1l-7.5-3.4l-9.2,0.2l-3.7-1.7l-69.6-158.8
		l-4-4.7l-4.7-3.5l-60.6-58.8l-13.6-16.7l-27.5-31.6l-18.7,64.6L769.4,362.8z"/>
	<path style="fill:#5C4133;" d="M769.4,362.7l-1.7,0.2l-12.2,41.6l21.7,80.6l10.8,28l3.9,8.7l0.5-0.2l-0.5,0.2l27.6,61.8l1.4,0.8
		l0.8-0.8l-0.8,0.8l18.2,10l20.2,27.5l17.1,15.3l1.4-2.7l22.9-28.9l12.3-14.8l50.5-9.7l3.4,3.9l0.6,7.9l6.7,4.3l6.6-0.1l7.5-6
		l10.2-2.9l0.7-2.7l-0.2-3.6c0,0-2.5-1.4-2.6-1c-0.1,0.4-4,0.6-4,0.6l-3.7-0.2l-2.1-4.1l-7.5-3.4l-9.2,0.2l-3.7-1.7l-69.6-158.8
		l-4-4.7l-4.7-3.5l-60.6-58.8l-13.6-16.7l-27.5-31.6l-18.7,64.6L769.4,362.7z"/>
	<path style="fill:#5D4132;" d="M769.4,362.7l-1.7,0.2l-12.2,41.6l21.7,80.6l10.8,28l3.9,8.7l0.5-0.2l-0.5,0.2l27.6,61.8l1.4,0.8
		l0.8-0.8l-0.8,0.8l18.2,10l20.2,27.5l17.1,15.3l1.4-2.7l22.9-28.9l12.3-14.8l50.5-9.7l3.4,3.9l0.6,7.9l6.7,4.3l6.6-0.1l7.5-6
		l10.2-2.9l0.7-2.7l-0.2-3.6c0,0-2.5-1.4-2.6-1c-0.1,0.4-4,0.6-4,0.6l-3.7-0.2l-2.1-4.1l-7.5-3.4l-9.2,0.2l-3.7-1.7l-69.6-158.8
		l-4-4.7l-4.7-3.5l-60.6-58.8l-13.6-16.7l-27.5-31.6l-18.7,64.6L769.4,362.7z"/>
	<path style="fill:#5E4232;" d="M769.4,362.6l-1.7,0.2l-12.2,41.6l21.7,80.6l10.8,28l3.9,8.7l0.5-0.2l-0.5,0.2l27.6,61.8l1.4,0.8
		l0.8-0.8l-0.8,0.8l18.2,10l20.2,27.5l17.1,15.3l1.4-2.7l22.9-28.9l12.3-14.8l50.5-9.7l3.4,3.9l0.6,7.9l6.7,4.3l6.6-0.1l7.5-6
		l10.2-2.9l0.7-2.7l-0.2-3.6c0,0-2.5-1.4-2.6-1c-0.1,0.4-4,0.6-4,0.6l-3.7-0.2l-2.1-4.1l-7.5-3.4l-9.2,0.2l-3.7-1.7l-69.6-158.8
		l-4-4.7l-4.7-3.5l-60.6-58.8l-13.6-16.7l-27.5-31.6l-18.7,64.6L769.4,362.6z"/>
	<path style="fill:#5F4232;" d="M769.4,362.5l-1.7,0.2l-12.2,41.6l21.7,80.6l10.8,28l3.9,8.7l0.5-0.2l-0.5,0.2l27.6,61.8l1.4,0.8
		l0.8-0.8l-0.8,0.8l18.2,10l20.2,27.5l17.1,15.3l1.4-2.7l22.9-28.9l12.3-14.8l50.5-9.7l3.4,3.9l0.6,7.9l6.7,4.3l6.6-0.1l7.5-6
		l10.2-2.9l0.7-2.7l-0.2-3.6c0,0-2.5-1.4-2.6-1c-0.1,0.4-4,0.6-4,0.6l-3.7-0.2l-2.1-4.1l-7.5-3.4l-9.2,0.2l-3.7-1.7l-69.6-158.8
		l-4-4.7l-4.7-3.5l-60.6-58.8l-13.6-16.7L786.2,298l-18.7,64.6L769.4,362.5z"/>
	<path style="fill:#604332;" d="M769.4,362.4l-1.7,0.2l-12.2,41.6l21.7,80.6l10.8,28l3.9,8.7l0.5-0.2l-0.5,0.2l27.6,61.8l1.4,0.8
		l0.8-0.8l-0.8,0.8l18.2,10l20.2,27.5l17.1,15.3l1.4-2.7l22.9-28.9l12.3-14.8l50.5-9.7l3.4,3.9l0.6,7.9l6.7,4.3l6.6-0.1l7.5-6
		l10.2-2.9l0.7-2.7l-0.2-3.6c0,0-2.5-1.4-2.6-1c-0.1,0.4-4,0.6-4,0.6l-3.7-0.2l-2.1-4.1l-7.5-3.4l-9.2,0.2l-3.7-1.7l-69.6-158.8
		l-4-4.7l-4.7-3.5l-60.6-58.8l-13.6-16.7l-27.5-31.6l-18.7,64.6L769.4,362.4z"/>
	<path style="fill:#614332;" d="M769.4,362.3l-1.7,0.2l-12.2,41.6l21.7,80.6l10.8,28l3.9,8.7l0.5-0.2l-0.5,0.2l27.6,61.8l1.4,0.8
		l0.8-0.8l-0.8,0.8l18.2,10l20.2,27.5l17.1,15.3l1.4-2.7l22.9-28.9l12.3-14.8l50.5-9.7l3.4,3.9l0.6,7.9l6.7,4.3l6.6-0.1l7.5-6
		l10.2-2.9l0.7-2.7l-0.2-3.6c0,0-2.5-1.4-2.6-1c-0.1,0.4-4,0.6-4,0.6l-3.7-0.2l-2.1-4.1l-7.5-3.4l-9.2,0.2l-3.7-1.7l-69.6-158.8
		l-4-4.7l-4.7-3.5l-60.6-58.8l-13.6-16.7l-27.5-31.6l-18.7,64.6L769.4,362.3z"/>
	<path style="fill:#624431;" d="M769.4,362.2l-1.7,0.2L755.5,404l21.7,80.6l10.8,28l3.9,8.7l0.5-0.2l-0.5,0.2l27.6,61.8l1.4,0.8
		l0.8-0.8l-0.8,0.8l18.2,10l20.2,27.5l17.1,15.3l1.4-2.7l22.9-28.9l12.3-14.8l50.5-9.7l3.4,3.9l0.6,7.9l6.7,4.3l6.6-0.1l7.5-6
		l10.2-2.9l0.7-2.7l-0.2-3.6c0,0-2.5-1.4-2.6-1c-0.1,0.4-4,0.6-4,0.6l-3.7-0.2l-2.1-4.1l-7.5-3.4l-9.2,0.2l-3.7-1.7L896.6,413
		l-4-4.7l-4.7-3.5L827.3,346l-13.6-16.7l-27.5-31.6l-18.7,64.6L769.4,362.2z"/>
	<path style="fill:#634431;" d="M769.4,362.1l-1.7,0.2l-12.2,41.6l21.7,80.6l10.8,28l3.9,8.7l0.5-0.2l-0.5,0.2l27.6,61.8l1.4,0.8
		l0.8-0.8l-0.8,0.8l18.2,10l20.2,27.5l17.1,15.3l1.4-2.7l22.9-28.9l12.3-14.8l50.5-9.7l3.4,3.9l0.6,7.9l6.7,4.3l6.6-0.1l7.5-6
		l10.2-2.9l0.7-2.7l-0.2-3.6c0,0-2.5-1.4-2.6-1c-0.1,0.4-4,0.6-4,0.6l-3.7-0.2l-2.1-4.1l-7.5-3.4l-9.2,0.2l-3.7-1.7l-69.6-158.8
		l-4-4.7l-4.7-3.5l-60.6-58.8l-13.6-16.7l-27.5-31.6l-18.7,64.6L769.4,362.1z"/>
	<path style="fill:#644431;" d="M769.4,362l-1.7,0.2l-12.2,41.6l21.7,80.6l10.8,28l3.9,8.7l0.5-0.2l-0.5,0.2l27.6,61.8l1.4,0.8
		l0.8-0.8l-0.8,0.8l18.2,10l20.2,27.5l17.1,15.3l1.4-2.7l22.9-28.9l12.3-14.8l50.5-9.7l3.4,3.9l0.6,7.9l6.7,4.3l6.6-0.1l7.5-6
		l10.2-2.9l0.7-2.7l-0.2-3.6c0,0-2.5-1.4-2.6-1c-0.1,0.4-4,0.6-4,0.6l-3.7-0.2l-2.1-4.1l-7.5-3.4l-9.2,0.2l-3.7-1.7l-69.6-158.8
		l-4-4.7l-4.7-3.5l-60.6-58.8l-13.6-16.7l-27.5-31.6l-18.7,64.6L769.4,362z"/>
	<path style="fill:#654531;" d="M769.4,361.9l-1.7,0.2l-12.2,41.6l21.7,80.6l10.8,28l3.9,8.7l0.5-0.2l-0.5,0.2l27.6,61.8l1.4,0.8
		l0.8-0.8l-0.8,0.8l18.2,10l20.2,27.5l17.1,15.3l1.4-2.7l22.9-28.9L913,590l50.5-9.7l3.4,3.9l0.6,7.9l6.7,4.3l6.6-0.1l7.5-6
		l10.2-2.9l0.7-2.7l-0.2-3.6c0,0-2.5-1.4-2.6-1c-0.1,0.4-4,0.6-4,0.6l-3.7-0.2l-2.1-4.1l-7.5-3.4l-9.2,0.2l-3.7-1.7l-69.6-158.8
		l-4-4.7l-4.7-3.5l-60.6-58.8L813.7,329l-27.5-31.6L767.5,362L769.4,361.9z"/>
	<path style="fill:#664531;" d="M769.4,361.9l-1.7,0.2l-12.2,41.6l21.7,80.6l10.8,28l3.9,8.7l0.5-0.2l-0.5,0.2l27.6,61.8l1.4,0.8
		l0.8-0.8l-0.8,0.8l18.2,10l20.2,27.5l17.1,15.3l1.4-2.7l22.9-28.9L913,590l50.5-9.7l3.4,3.9l0.6,7.9l6.7,4.3l6.6-0.1l7.5-6
		l10.2-2.9l0.7-2.7l-0.2-3.6c0,0-2.5-1.4-2.6-1c-0.1,0.4-4,0.6-4,0.6l-3.7-0.2l-2.1-4.1l-7.5-3.4l-9.2,0.2l-3.7-1.7l-69.6-158.8
		l-4-4.7l-4.7-3.5l-60.6-58.8L813.7,329l-27.5-31.6L767.5,362L769.4,361.9z"/>
	<path style="fill:#674630;" d="M769.4,361.8l-1.7,0.2l-12.2,41.6l21.7,80.6l10.8,28l3.9,8.7l0.5-0.2l-0.5,0.2l27.6,61.8l1.4,0.8
		l0.8-0.8l-0.8,0.8l18.2,10l20.2,27.5l17.1,15.3l1.4-2.7l22.9-28.9l12.3-14.8l50.5-9.7l3.4,3.9l0.6,7.9l6.7,4.3l6.6-0.1l7.5-6
		l10.2-2.9l0.7-2.7L999,581c0,0-2.5-1.4-2.6-1c-0.1,0.4-4,0.6-4,0.6l-3.7-0.2l-2.1-4.1l-7.5-3.4l-9.2,0.2l-3.7-1.7l-69.6-158.8
		l-4-4.7l-4.7-3.5l-60.6-58.8l-13.6-16.7l-27.5-31.6l-18.7,64.6L769.4,361.8z"/>
	<path style="fill:#684630;" d="M769.4,361.7l-1.7,0.2l-12.2,41.6l21.7,80.6l10.8,28l3.9,8.7l0.5-0.2l-0.5,0.2l27.6,61.8l1.4,0.8
		l0.8-0.8l-0.8,0.8l18.2,10l20.2,27.5l17.1,15.3l1.4-2.7l22.9-28.9l12.3-14.8l50.5-9.7l3.4,3.9l0.6,7.9l6.7,4.3l6.6-0.1l7.5-6
		l10.2-2.9l0.7-2.7l-0.2-3.6c0,0-2.5-1.4-2.6-1c-0.1,0.4-4,0.6-4,0.6l-3.7-0.2l-2.1-4.1l-7.5-3.4l-9.2,0.2l-3.7-1.7l-69.6-158.8
		l-4-4.7l-4.7-3.5l-60.6-58.8l-13.6-16.7l-27.5-31.6l-18.7,64.6L769.4,361.7z"/>
	<path style="fill:#694630;" d="M769.4,361.6l-1.7,0.2l-12.2,41.6l21.7,80.6l10.8,28l3.9,8.7l0.5-0.2l-0.5,0.2l27.6,61.8l1.4,0.8
		l0.8-0.8l-0.8,0.8l18.2,10l20.2,27.5l17.1,15.3l1.4-2.7l22.9-28.9l12.3-14.8l50.5-9.7l3.4,3.9l0.6,7.9l6.7,4.3l6.6-0.1l7.5-6
		l10.2-2.9l0.7-2.7l-0.2-3.6c0,0-2.5-1.4-2.6-1c-0.1,0.4-4,0.6-4,0.6l-3.7-0.2l-2.1-4.1l-7.5-3.4l-9.2,0.2l-3.7-1.7l-69.6-158.8
		l-4-4.7l-4.7-3.5l-60.6-58.8l-13.6-16.7l-27.5-31.6l-18.7,64.6L769.4,361.6z"/>
	<path style="fill:#6A4730;" d="M769.4,361.5l-1.7,0.2l-12.2,41.6l21.7,80.6l10.8,28l3.9,8.7l0.5-0.2l-0.5,0.2l27.6,61.8l1.4,0.8
		l0.8-0.8l-0.8,0.8l18.2,10l20.2,27.5l17.1,15.3l1.4-2.7l22.9-28.9l12.3-14.8l50.5-9.7l3.4,3.9l0.6,7.9l6.7,4.3l6.6-0.1l7.5-6
		l10.2-2.9l0.7-2.7l-0.2-3.6c0,0-2.5-1.4-2.6-1c-0.1,0.4-4,0.6-4,0.6l-3.7-0.2l-2.1-4.1l-7.5-3.4l-9.2,0.2l-3.7-1.7l-69.6-158.8
		l-4-4.7l-4.7-3.5l-60.6-58.8l-13.6-16.7L786.2,297l-18.7,64.6L769.4,361.5z"/>
	<path style="fill:#6B4730;" d="M769.4,361.4l-1.7,0.2l-12.2,41.6l21.7,80.6l10.8,28l3.9,8.7l0.5-0.2l-0.5,0.2l27.6,61.8l1.4,0.8
		l0.8-0.8l-0.8,0.8l18.2,10l20.2,27.5l17.1,15.3l1.4-2.7l22.9-28.9l12.3-14.8l50.5-9.7l3.4,3.9l0.6,7.9l6.7,4.3l6.6-0.1l7.5-6
		l10.2-2.9l0.7-2.7l-0.2-3.6c0,0-2.5-1.4-2.6-1c-0.1,0.4-4,0.6-4,0.6l-3.7-0.2l-2.1-4.1l-7.5-3.4l-9.2,0.2l-3.7-1.7l-69.6-158.8
		l-4-4.7l-4.7-3.5l-60.6-58.8l-13.6-16.7l-27.5-31.6l-18.7,64.6L769.4,361.4z"/>
	<path style="fill:#6C482F;" d="M769.4,361.3l-1.7,0.2l-12.2,41.6l21.7,80.6l10.8,28l3.9,8.7l0.5-0.2l-0.5,0.2l27.6,61.8l1.4,0.8
		l0.8-0.8l-0.8,0.8l18.2,10l20.2,27.5l17.1,15.3l1.4-2.7l22.9-28.9l12.3-14.8l50.5-9.7l3.4,3.9l0.6,7.9l6.7,4.3l6.6-0.1l7.5-6
		l10.2-2.9l0.7-2.7l-0.2-3.6c0,0-2.5-1.4-2.6-1c-0.1,0.4-4,0.6-4,0.6l-3.7-0.2l-2.1-4.1l-7.5-3.4l-9.2,0.2l-3.7-1.7l-69.6-158.8
		l-4-4.7l-4.7-3.5l-60.6-58.8l-13.6-16.7l-27.5-31.6l-18.7,64.6L769.4,361.3z"/>
	<path style="fill:#6D482F;" d="M769.4,361.2l-1.7,0.2L755.5,403l21.7,80.6l10.8,28l3.9,8.7l0.5-0.2l-0.5,0.2l27.6,61.8l1.4,0.8
		l0.8-0.8l-0.8,0.8l18.2,10l20.2,27.5l17.1,15.3l1.4-2.7l22.9-28.9l12.3-14.8l50.5-9.7l3.4,3.9l0.6,7.9l6.7,4.3l6.6-0.1l7.5-6
		l10.2-2.9l0.7-2.7l-0.2-3.6c0,0-2.5-1.4-2.6-1c-0.1,0.4-4,0.6-4,0.6l-3.7-0.2l-2.1-4.1l-7.5-3.4l-9.2,0.2l-3.7-1.7L896.6,412
		l-4-4.7l-4.7-3.5L827.3,345l-13.6-16.7l-27.5-31.6l-18.7,64.6L769.4,361.2z"/>
	<path style="fill:#6E482F;" d="M769.4,361.1l-1.7,0.2l-12.2,41.6l21.7,80.6l10.8,28l3.9,8.7l0.5-0.2l-0.5,0.2l27.6,61.8l1.4,0.8
		l0.8-0.8l-0.8,0.8l18.2,10l20.2,27.5l17.1,15.3l1.4-2.7l22.9-28.9l12.3-14.8l50.5-9.7l3.4,3.9l0.6,7.9l6.7,4.3l6.6-0.1l7.5-6
		l10.2-2.9l0.7-2.7l-0.2-3.6c0,0-2.5-1.4-2.6-1c-0.1,0.4-4,0.6-4,0.6l-3.7-0.2l-2.1-4.1l-7.5-3.4l-9.2,0.2l-3.7-1.7l-69.6-158.8
		l-4-4.7l-4.7-3.5l-60.6-58.8l-13.6-16.7l-27.5-31.6l-18.7,64.6L769.4,361.1z"/>
	<path style="fill:#6F492F;" d="M769.4,361.1l-1.7,0.2l-12.2,41.6l21.7,80.6l10.8,28l3.9,8.7l0.5-0.2l-0.5,0.2l27.6,61.8l1.4,0.8
		l0.8-0.8l-0.8,0.8l18.2,10l20.2,27.5l17.1,15.3l1.4-2.7l22.9-28.9l12.3-14.8l50.5-9.7l3.4,3.9l0.6,7.9l6.7,4.3l6.6-0.1l7.5-6
		l10.2-2.9l0.7-2.7l-0.2-3.6c0,0-2.5-1.4-2.6-1c-0.1,0.4-4,0.6-4,0.6l-3.7-0.2l-2.1-4.1l-7.5-3.4l-9.2,0.2l-3.7-1.7l-69.6-158.8
		l-4-4.7l-4.7-3.5l-60.6-58.8l-13.6-16.7l-27.5-31.6l-18.7,64.6L769.4,361.1z"/>
	<path style="fill:#70492F;" d="M769.4,361l-1.7,0.2l-12.2,41.6l21.7,80.6l10.8,28l3.9,8.7l0.5-0.2l-0.5,0.2l27.6,61.8l1.4,0.8
		l0.8-0.8l-0.8,0.8l18.2,10l20.2,27.5l17.1,15.3l1.4-2.7l22.9-28.9l12.3-14.8l50.5-9.7l3.4,3.9l0.6,7.9l6.7,4.3l6.6-0.1l7.5-6
		l10.2-2.9l0.7-2.7l-0.2-3.6c0,0-2.5-1.4-2.6-1c-0.1,0.4-4,0.6-4,0.6l-3.7-0.2l-2.1-4.1l-7.5-3.4l-9.2,0.2l-3.7-1.7l-69.6-158.8
		l-4-4.7l-4.7-3.5l-60.6-58.8l-13.6-16.7l-27.5-31.6l-18.7,64.6L769.4,361z"/>
	<path style="fill:#714A2E;" d="M769.4,360.9l-1.7,0.2l-12.2,41.6l21.7,80.6l10.8,28l3.9,8.7l0.5-0.2l-0.5,0.2l27.6,61.8l1.4,0.8
		l0.8-0.8l-0.8,0.8l18.2,10l20.2,27.5l17.1,15.3l1.4-2.7l22.9-28.9L913,589l50.5-9.7l3.4,3.9l0.6,7.9l6.7,4.3l6.6-0.1l7.5-6
		l10.2-2.9l0.7-2.7l-0.2-3.6c0,0-2.5-1.4-2.6-1c-0.1,0.4-4,0.6-4,0.6l-3.7-0.2l-2.1-4.1l-7.5-3.4l-9.2,0.2l-3.7-1.7l-69.6-158.8
		l-4-4.7l-4.7-3.5l-60.6-58.8L813.7,328l-27.5-31.6L767.5,361L769.4,360.9z"/>
	<path style="fill:#724A2E;" d="M769.4,360.8l-1.7,0.2l-12.2,41.6l21.7,80.6l10.8,28l3.9,8.7l0.5-0.2l-0.5,0.2l27.6,61.8l1.4,0.8
		l0.8-0.8l-0.8,0.8l18.2,10l20.2,27.5l17.1,15.3l1.4-2.7l22.9-28.9l12.3-14.8l50.5-9.7l3.4,3.9l0.6,7.9l6.7,4.3l6.6-0.1l7.5-6
		l10.2-2.9l0.7-2.7L999,580c0,0-2.5-1.4-2.6-1c-0.1,0.4-4,0.6-4,0.6l-3.7-0.2l-2.1-4.1l-7.5-3.4l-9.2,0.2l-3.7-1.7l-69.6-158.8
		l-4-4.7l-4.7-3.5l-60.6-58.8l-13.6-16.7l-27.5-31.6l-18.7,64.6L769.4,360.8z"/>
	<path style="fill:#734A2E;" d="M769.4,360.7l-1.7,0.2l-12.2,41.6l21.7,80.6l10.8,28l3.9,8.7l0.5-0.2l-0.5,0.2l27.6,61.8l1.4,0.8
		l0.8-0.8l-0.8,0.8l18.2,10l20.2,27.5l17.1,15.3l1.4-2.7l22.9-28.9l12.3-14.8l50.5-9.7l3.4,3.9l0.6,7.9l6.7,4.3l6.6-0.1l7.5-6
		l10.2-2.9l0.7-2.7l-0.2-3.6c0,0-2.5-1.4-2.6-1c-0.1,0.4-4,0.6-4,0.6l-3.7-0.2l-2.1-4.1l-7.5-3.4l-9.2,0.2l-3.7-1.7l-69.6-158.8
		l-4-4.7l-4.7-3.5l-60.6-58.8l-13.6-16.7l-27.5-31.6l-18.7,64.6L769.4,360.7z"/>
	<path style="fill:#744B2E;" d="M769.4,360.6l-1.7,0.2l-12.2,41.6l21.7,80.6l10.8,28l3.9,8.7l0.5-0.2l-0.5,0.2l27.6,61.8l1.4,0.8
		l0.8-0.8l-0.8,0.8l18.2,10l20.2,27.5l17.1,15.3l1.4-2.7l22.9-28.9l12.3-14.8l50.5-9.7l3.4,3.9l0.6,7.9l6.7,4.3l6.6-0.1l7.5-6
		l10.2-2.9l0.7-2.7l-0.2-3.6c0,0-2.5-1.4-2.6-1c-0.1,0.4-4,0.6-4,0.6l-3.7-0.2l-2.1-4.1l-7.5-3.4l-9.2,0.2l-3.7-1.7l-69.6-158.8
		l-4-4.7l-4.7-3.5l-60.6-58.8l-13.6-16.7l-27.5-31.6l-18.7,64.6L769.4,360.6z"/>
	<path style="fill:#754B2E;" d="M769.4,360.5l-1.7,0.2l-12.2,41.6l21.7,80.6l10.8,28l3.9,8.7l0.5-0.2l-0.5,0.2l27.6,61.8l1.4,0.8
		l0.8-0.8l-0.8,0.8l18.2,10l20.2,27.5l17.1,15.3l1.4-2.7l22.9-28.9l12.3-14.8l50.5-9.7l3.4,3.9l0.6,7.9l6.7,4.3l6.6-0.1l7.5-6
		l10.2-2.9l0.7-2.7l-0.2-3.6c0,0-2.5-1.4-2.6-1c-0.1,0.4-4,0.6-4,0.6l-3.7-0.2l-2.1-4.1l-7.5-3.4l-9.2,0.2l-3.7-1.7l-69.6-158.8
		l-4-4.7l-4.7-3.5l-60.6-58.8l-13.6-16.7L786.2,296l-18.7,64.6L769.4,360.5z"/>
	<path style="fill:#764C2D;" d="M769.4,360.4l-1.7,0.2l-12.2,41.6l21.7,80.6l10.8,28l3.9,8.7l0.5-0.2l-0.5,0.2l27.6,61.8l1.4,0.8
		l0.8-0.8l-0.8,0.8l18.2,10l20.2,27.5l17.1,15.3l1.4-2.7l22.9-28.9l12.3-14.8l50.5-9.7l3.4,3.9l0.6,7.9l6.7,4.3l6.6-0.1l7.5-6
		l10.2-2.9l0.7-2.7l-0.2-3.6c0,0-2.5-1.4-2.6-1c-0.1,0.4-4,0.6-4,0.6l-3.7-0.2l-2.1-4.1l-7.5-3.4l-9.2,0.2l-3.7-1.7l-69.6-158.8
		l-4-4.7l-4.7-3.5l-60.6-58.8l-13.6-16.7l-27.5-31.6l-18.7,64.6L769.4,360.4z"/>
	<path style="fill:#774C2D;" d="M769.4,360.3l-1.7,0.2l-12.2,41.6l21.7,80.6l10.8,28l3.9,8.7l0.5-0.2l-0.5,0.2l27.6,61.8l1.4,0.8
		l0.8-0.8l-0.8,0.8l18.2,10l20.2,27.5l17.1,15.3l1.4-2.7l22.9-28.9l12.3-14.8l50.5-9.7l3.4,3.9l0.6,7.9l6.7,4.3l6.6-0.1l7.5-6
		l10.2-2.9l0.7-2.7l-0.2-3.6c0,0-2.5-1.4-2.6-1c-0.1,0.4-4,0.6-4,0.6l-3.7-0.2l-2.1-4.1l-7.5-3.4l-9.2,0.2l-3.7-1.7l-69.6-158.8
		l-4-4.7l-4.7-3.5l-60.6-58.8l-13.6-16.7l-27.5-31.6l-18.7,64.6L769.4,360.3z"/>
	<path style="fill:#784D2D;" d="M769.4,360.3l-1.7,0.2l-12.2,41.6l21.7,80.6l10.8,28l3.9,8.7l0.5-0.2l-0.5,0.2l27.6,61.8l1.4,0.8
		l0.8-0.8l-0.8,0.8l18.2,10l20.2,27.5l17.1,15.3l1.4-2.7l22.9-28.9l12.3-14.8l50.5-9.7l3.4,3.9l0.6,7.9l6.7,4.3l6.6-0.1l7.5-6
		l10.2-2.9l0.7-2.7l-0.2-3.6c0,0-2.5-1.4-2.6-1c-0.1,0.4-4,0.6-4,0.6l-3.7-0.2l-2.1-4.1l-7.5-3.4l-9.2,0.2l-3.7-1.7l-69.6-158.8
		l-4-4.7l-4.7-3.5l-60.6-58.8l-13.6-16.7l-27.5-31.6l-18.7,64.6L769.4,360.3z"/>
	<path style="fill:#794D2D;" d="M769.4,360.2l-1.7,0.2L755.5,402l21.7,80.6l10.8,28l3.9,8.7l0.5-0.2l-0.5,0.2l27.6,61.8l1.4,0.8
		l0.8-0.8l-0.8,0.8l18.2,10l20.2,27.5l17.1,15.3l1.4-2.7l22.9-28.9l12.3-14.8l50.5-9.7l3.4,3.9l0.6,7.9l6.7,4.3l6.6-0.1l7.5-6
		l10.2-2.9l0.7-2.7l-0.2-3.6c0,0-2.5-1.4-2.6-1c-0.1,0.4-4,0.6-4,0.6l-3.7-0.2l-2.1-4.1l-7.5-3.4l-9.2,0.2l-3.7-1.7L896.6,411
		l-4-4.7l-4.7-3.5L827.3,344l-13.6-16.7l-27.5-31.6l-18.7,64.6L769.4,360.2z"/>
	<path style="fill:#7A4D2D;" d="M769.4,360.1l-1.7,0.2l-12.2,41.6l21.7,80.6l10.8,28l3.9,8.7l0.5-0.2l-0.5,0.2l27.6,61.8l1.4,0.8
		l0.8-0.8l-0.8,0.8l18.2,10l20.2,27.5l17.1,15.3l1.4-2.7l22.9-28.9l12.3-14.8l50.5-9.7l3.4,3.9l0.6,7.9l6.7,4.3l6.6-0.1l7.5-6
		l10.2-2.9l0.7-2.7l-0.2-3.6c0,0-2.5-1.4-2.6-1c-0.1,0.4-4,0.6-4,0.6l-3.7-0.2l-2.1-4.1l-7.5-3.4l-9.2,0.2l-3.7-1.7l-69.6-158.8
		l-4-4.7l-4.7-3.5l-60.6-58.8l-13.6-16.7l-27.5-31.6l-18.7,64.6L769.4,360.1z"/>
	<path style="fill:#7B4E2C;" d="M769.4,360l-1.7,0.2l-12.2,41.6l21.7,80.6l10.8,28l3.9,8.7l0.5-0.2l-0.5,0.2l27.6,61.8l1.4,0.8
		l0.8-0.8l-0.8,0.8l18.2,10l20.2,27.5l17.1,15.3l1.4-2.7l22.9-28.9l12.3-14.8l50.5-9.7l3.4,3.9l0.6,7.9l6.7,4.3l6.6-0.1l7.5-6
		l10.2-2.9l0.7-2.7l-0.2-3.6c0,0-2.5-1.4-2.6-1c-0.1,0.4-4,0.6-4,0.6l-3.7-0.2l-2.1-4.1l-7.5-3.4l-9.2,0.2l-3.7-1.7l-69.6-158.8
		l-4-4.7l-4.7-3.5l-60.6-58.8l-13.6-16.7l-27.5-31.6l-18.7,64.6L769.4,360z"/>
	<path style="fill:#7C4E2C;" d="M769.4,359.9l-1.7,0.2l-12.2,41.6l21.7,80.6l10.8,28l3.9,8.7l0.5-0.2l-0.5,0.2l27.6,61.8l1.4,0.8
		l0.8-0.8l-0.8,0.8l18.2,10l20.2,27.5l17.1,15.3l1.4-2.7l22.9-28.9L913,588l50.5-9.7l3.4,3.9l0.6,7.9l6.7,4.3l6.6-0.1l7.5-6
		l10.2-2.9l0.7-2.7l-0.2-3.6c0,0-2.5-1.4-2.6-1c-0.1,0.4-4,0.6-4,0.6l-3.7-0.2l-2.1-4.1l-7.5-3.4l-9.2,0.2l-3.7-1.7l-69.6-158.8
		l-4-4.7l-4.7-3.5l-60.6-58.8L813.7,327l-27.5-31.6L767.5,360L769.4,359.9z"/>
	<path style="fill:#7D4F2C;" d="M769.4,359.8l-1.7,0.2l-12.2,41.6l21.7,80.6l10.8,28l3.9,8.7l0.5-0.2l-0.5,0.2l27.6,61.8l1.4,0.8
		l0.8-0.8l-0.8,0.8l18.2,10l20.2,27.5l17.1,15.3l1.4-2.7l22.9-28.9l12.3-14.8l50.5-9.7l3.4,3.9l0.6,7.9l6.7,4.3l6.6-0.1l7.5-6
		l10.2-2.9l0.7-2.7L999,579c0,0-2.5-1.4-2.6-1c-0.1,0.4-4,0.6-4,0.6l-3.7-0.2l-2.1-4.1l-7.5-3.4l-9.2,0.2l-3.7-1.7l-69.6-158.8
		l-4-4.7l-4.7-3.5l-60.6-58.8l-13.6-16.7l-27.5-31.6l-18.7,64.6L769.4,359.8z"/>
	<path style="fill:#7E4F2C;" d="M769.4,359.7l-1.7,0.2l-12.2,41.6l21.7,80.6l10.8,28l3.9,8.7l0.5-0.2l-0.5,0.2l27.6,61.8l1.4,0.8
		l0.8-0.8l-0.8,0.8l18.2,10l20.2,27.5l17.1,15.3l1.4-2.7l22.9-28.9l12.3-14.8l50.5-9.7l3.4,3.9l0.6,7.9l6.7,4.3l6.6-0.1l7.5-6
		l10.2-2.9l0.7-2.7l-0.2-3.6c0,0-2.5-1.4-2.6-1c-0.1,0.4-4,0.6-4,0.6l-3.7-0.2l-2.1-4.1l-7.5-3.4l-9.2,0.2l-3.7-1.7l-69.6-158.8
		l-4-4.7l-4.7-3.5l-60.6-58.8l-13.6-16.7l-27.5-31.6l-18.7,64.6L769.4,359.7z"/>
	<path style="fill:#7F4F2C;" d="M769.4,359.6l-1.7,0.2l-12.2,41.6l21.7,80.6l10.8,28l3.9,8.7l0.5-0.2l-0.5,0.2l27.6,61.8l1.4,0.8
		l0.8-0.8l-0.8,0.8l18.2,10l20.2,27.5l17.1,15.3l1.4-2.7l22.9-28.9l12.3-14.8l50.5-9.7l3.4,3.9l0.6,7.9l6.7,4.3l6.6-0.1l7.5-6
		l10.2-2.9l0.7-2.7l-0.2-3.6c0,0-2.5-1.4-2.6-1c-0.1,0.4-4,0.6-4,0.6l-3.7-0.2l-2.1-4.1l-7.5-3.4l-9.2,0.2l-3.7-1.7l-69.6-158.8
		l-4-4.7l-4.7-3.5l-60.6-58.8l-13.6-16.7l-27.5-31.6l-18.7,64.6L769.4,359.6z"/>
	<path style="fill:#80502B;" d="M769.4,359.5l-1.7,0.2l-12.2,41.6l21.7,80.6l10.8,28l3.9,8.7l0.5-0.2l-0.5,0.2l27.6,61.8l1.4,0.8
		l0.8-0.8l-0.8,0.8l18.2,10l20.2,27.5l17.1,15.3l1.4-2.7l22.9-28.9l12.3-14.8l50.5-9.7l3.4,3.9l0.6,7.9l6.7,4.3l6.6-0.1l7.5-6
		l10.2-2.9l0.7-2.7l-0.2-3.6c0,0-2.5-1.4-2.6-1c-0.1,0.4-4,0.6-4,0.6l-3.7-0.2l-2.1-4.1l-7.5-3.4l-9.2,0.2l-3.7-1.7l-69.6-158.8
		l-4-4.7l-4.7-3.5l-60.6-58.8l-13.6-16.7L786.2,295l-18.7,64.6L769.4,359.5z"/>
	<path style="fill:#81502B;" d="M769.4,359.5l-1.7,0.2l-12.2,41.6l21.7,80.6l10.8,28l3.9,8.7l0.5-0.2l-0.5,0.2l27.6,61.8l1.4,0.8
		l0.8-0.8l-0.8,0.8l18.2,10l20.2,27.5l17.1,15.3l1.4-2.7l22.9-28.9l12.3-14.8l50.5-9.7l3.4,3.9l0.6,7.9l6.7,4.3l6.6-0.1l7.5-6
		l10.2-2.9l0.7-2.7l-0.2-3.6c0,0-2.5-1.4-2.6-1c-0.1,0.4-4,0.6-4,0.6l-3.7-0.2l-2.1-4.1l-7.5-3.4l-9.2,0.2l-3.7-1.7l-69.6-158.8
		l-4-4.7l-4.7-3.5l-60.6-58.8l-13.6-16.7L786.2,295l-18.7,64.6L769.4,359.5z"/>
	<path style="fill:#82512B;" d="M769.4,359.4l-1.7,0.2l-12.2,41.6l21.7,80.6l10.8,28l3.9,8.7l0.5-0.2l-0.5,0.2l27.6,61.8l1.4,0.8
		l0.8-0.8l-0.8,0.8l18.2,10l20.2,27.5l17.1,15.3l1.4-2.7l22.9-28.9l12.3-14.8l50.5-9.7l3.4,3.9l0.6,7.9l6.7,4.3l6.6-0.1l7.5-6
		l10.2-2.9l0.7-2.7l-0.2-3.6c0,0-2.5-1.4-2.6-1c-0.1,0.4-4,0.6-4,0.6l-3.7-0.2l-2.1-4.1l-7.5-3.4l-9.2,0.2l-3.7-1.7l-69.6-158.8
		l-4-4.7l-4.7-3.5l-60.6-58.8l-13.6-16.7l-27.5-31.6l-18.7,64.6L769.4,359.4z"/>
	<path style="fill:#83512B;" d="M769.4,359.3l-1.7,0.2l-12.2,41.6l21.7,80.6l10.8,28l3.9,8.7l0.5-0.2l-0.5,0.2l27.6,61.8l1.4,0.8
		l0.8-0.8l-0.8,0.8l18.2,10l20.2,27.5l17.1,15.3l1.4-2.7l22.9-28.9l12.3-14.8l50.5-9.7l3.4,3.9l0.6,7.9l6.7,4.3l6.6-0.1l7.5-6
		l10.2-2.9l0.7-2.7l-0.2-3.6c0,0-2.5-1.4-2.6-1c-0.1,0.4-4,0.6-4,0.6l-3.7-0.2l-2.1-4.1l-7.5-3.4l-9.2,0.2l-3.7-1.7l-69.6-158.8
		l-4-4.7l-4.7-3.5l-60.6-58.8l-13.6-16.7l-27.5-31.6l-18.7,64.6L769.4,359.3z"/>
	<path style="fill:#84512B;" d="M769.4,359.2l-1.7,0.2L755.5,401l21.7,80.6l10.8,28l3.9,8.7l0.5-0.2l-0.5,0.2l27.6,61.8l1.4,0.8
		l0.8-0.8l-0.8,0.8l18.2,10l20.2,27.5l17.1,15.3l1.4-2.7l22.9-28.9l12.3-14.8l50.5-9.7l3.4,3.9l0.6,7.9l6.7,4.3l6.6-0.1l7.5-6
		l10.2-2.9l0.7-2.7l-0.2-3.6c0,0-2.5-1.4-2.6-1c-0.1,0.4-4,0.6-4,0.6l-3.7-0.2l-2.1-4.1l-7.5-3.4l-9.2,0.2l-3.7-1.7L896.6,410
		l-4-4.7l-4.7-3.5L827.3,343l-13.6-16.7l-27.5-31.6l-18.7,64.6L769.4,359.2z"/>
	<path style="fill:#85522A;" d="M769.4,359.1l-1.7,0.2l-12.2,41.6l21.7,80.6l10.8,28l3.9,8.7l0.5-0.2l-0.5,0.2l27.6,61.8l1.4,0.8
		l0.8-0.8l-0.8,0.8l18.2,10l20.2,27.5l17.1,15.3l1.4-2.7l22.9-28.9l12.3-14.8l50.5-9.7l3.4,3.9l0.6,7.9l6.7,4.3l6.6-0.1l7.5-6
		l10.2-2.9l0.7-2.7l-0.2-3.6c0,0-2.5-1.4-2.6-1c-0.1,0.4-4,0.6-4,0.6l-3.7-0.2l-2.1-4.1l-7.5-3.4l-9.2,0.2l-3.7-1.7l-69.6-158.8
		l-4-4.7l-4.7-3.5l-60.6-58.8l-13.6-16.7l-27.5-31.6l-18.7,64.6L769.4,359.1z"/>
	<path style="fill:#86522A;" d="M769.4,359l-1.7,0.2l-12.2,41.6l21.7,80.6l10.8,28l3.9,8.7l0.5-0.2l-0.5,0.2l27.6,61.8l1.4,0.8
		l0.8-0.8l-0.8,0.8l18.2,10l20.2,27.5l17.1,15.3l1.4-2.7l22.9-28.9l12.3-14.8l50.5-9.7l3.4,3.9l0.6,7.9l6.7,4.3l6.6-0.1l7.5-6
		l10.2-2.9l0.7-2.7l-0.2-3.6c0,0-2.5-1.4-2.6-1c-0.1,0.4-4,0.6-4,0.6l-3.7-0.2l-2.1-4.1l-7.5-3.4l-9.2,0.2l-3.7-1.7l-69.6-158.8
		l-4-4.7l-4.7-3.5l-60.6-58.8l-13.6-16.7l-27.5-31.6l-18.7,64.6L769.4,359z"/>
	<path style="fill:#87532A;" d="M769.4,358.9l-1.7,0.2l-12.2,41.6l21.7,80.6l10.8,28l3.9,8.7l0.5-0.2l-0.5,0.2l27.6,61.8l1.4,0.8
		l0.8-0.8l-0.8,0.8l18.2,10l20.2,27.5l17.1,15.3l1.4-2.7l22.9-28.9L913,587l50.5-9.7l3.4,3.9l0.6,7.9l6.7,4.3l6.6-0.1l7.5-6
		l10.2-2.9l0.7-2.7l-0.2-3.6c0,0-2.5-1.4-2.6-1c-0.1,0.4-4,0.6-4,0.6l-3.7-0.2l-2.1-4.1l-7.5-3.4l-9.2,0.2l-3.7-1.7l-69.6-158.8
		l-4-4.7l-4.7-3.5l-60.6-58.8L813.7,326l-27.5-31.6L767.5,359L769.4,358.9z"/>
	<path style="fill:#88532A;" d="M769.4,358.8l-1.7,0.2l-12.2,41.6l21.7,80.6l10.8,28l3.9,8.7l0.5-0.2l-0.5,0.2l27.6,61.8l1.4,0.8
		l0.8-0.8l-0.8,0.8l18.2,10l20.2,27.5l17.1,15.3l1.4-2.7l22.9-28.9l12.3-14.8l50.5-9.7l3.4,3.9l0.6,7.9l6.7,4.3l6.6-0.1l7.5-6
		l10.2-2.9l0.7-2.7L999,578c0,0-2.5-1.4-2.6-1c-0.1,0.4-4,0.6-4,0.6l-3.7-0.2l-2.1-4.1l-7.5-3.4l-9.2,0.2l-3.7-1.7l-69.6-158.8
		l-4-4.7l-4.7-3.5l-60.6-58.8l-13.6-16.7l-27.5-31.6l-18.7,64.6L769.4,358.8z"/>
	<path style="fill:#89542A;" d="M769.4,358.7l-1.7,0.2l-12.2,41.6l21.7,80.6l10.8,28l3.9,8.7l0.5-0.2l-0.5,0.2l27.6,61.8l1.4,0.8
		l0.8-0.8l-0.8,0.8l18.2,10l20.2,27.5l17.1,15.3l1.4-2.7l22.9-28.9l12.3-14.8l50.5-9.7l3.4,3.9l0.6,7.9l6.7,4.3l6.6-0.1l7.5-6
		l10.2-2.9l0.7-2.7l-0.2-3.6c0,0-2.5-1.4-2.6-1c-0.1,0.4-4,0.6-4,0.6l-3.7-0.2l-2.1-4.1l-7.5-3.4l-9.2,0.2l-3.7-1.7l-69.6-158.8
		l-4-4.7l-4.7-3.5l-60.6-58.8l-13.6-16.7l-27.5-31.6l-18.7,64.6L769.4,358.7z"/>
	<path style="fill:#8A5429;" d="M769.4,358.7l-1.7,0.2l-12.2,41.6l21.7,80.6l10.8,28l3.9,8.7l0.5-0.2l-0.5,0.2l27.6,61.8l1.4,0.8
		l0.8-0.8l-0.8,0.8l18.2,10l20.2,27.5l17.1,15.3l1.4-2.7l22.9-28.9l12.3-14.8l50.5-9.7l3.4,3.9l0.6,7.9l6.7,4.3l6.6-0.1l7.5-6
		l10.2-2.9l0.7-2.7l-0.2-3.6c0,0-2.5-1.4-2.6-1c-0.1,0.4-4,0.6-4,0.6l-3.7-0.2l-2.1-4.1l-7.5-3.4l-9.2,0.2l-3.7-1.7l-69.6-158.8
		l-4-4.7l-4.7-3.5l-60.6-58.8l-13.6-16.7l-27.5-31.6l-18.7,64.6L769.4,358.7z"/>
	<path style="fill:#8B5429;" d="M769.4,358.6l-1.7,0.2l-12.2,41.6l21.7,80.6l10.8,28l3.9,8.7l0.5-0.2l-0.5,0.2l27.6,61.8l1.4,0.8
		l0.8-0.8l-0.8,0.8l18.2,10l20.2,27.5l17.1,15.3l1.4-2.7l22.9-28.9l12.3-14.8l50.5-9.7l3.4,3.9l0.6,7.9l6.7,4.3l6.6-0.1l7.5-6
		l10.2-2.9l0.7-2.7l-0.2-3.6c0,0-2.5-1.4-2.6-1c-0.1,0.4-4,0.6-4,0.6l-3.7-0.2l-2.1-4.1l-7.5-3.4l-9.2,0.2l-3.7-1.7l-69.6-158.8
		l-4-4.7l-4.7-3.5l-60.6-58.8l-13.6-16.7l-27.5-31.6l-18.7,64.6L769.4,358.6z"/>
	<path style="fill:#8C5529;" d="M769.4,358.5l-1.7,0.2l-12.2,41.6l21.7,80.6l10.8,28l3.9,8.7l0.5-0.2l-0.5,0.2l27.6,61.8l1.4,0.8
		l0.8-0.8l-0.8,0.8l18.2,10l20.2,27.5l17.1,15.3l1.4-2.7l22.9-28.9l12.3-14.8l50.5-9.7l3.4,3.9l0.6,7.9l6.7,4.3l6.6-0.1l7.5-6
		l10.2-2.9l0.7-2.7l-0.2-3.6c0,0-2.5-1.4-2.6-1c-0.1,0.4-4,0.6-4,0.6l-3.7-0.2l-2.1-4.1l-7.5-3.4l-9.2,0.2l-3.7-1.7l-69.6-158.8
		l-4-4.7l-4.7-3.5l-60.6-58.8l-13.6-16.7L786.2,294l-18.7,64.6L769.4,358.5z"/>
	<path style="fill:#8D5529;" d="M769.4,358.4l-1.7,0.2l-12.2,41.6l21.7,80.6l10.8,28l3.9,8.7l0.5-0.2l-0.5,0.2l27.6,61.8l1.4,0.8
		l0.8-0.8l-0.8,0.8l18.2,10l20.2,27.5l17.1,15.3l1.4-2.7l22.9-28.9l12.3-14.8l50.5-9.7l3.4,3.9l0.6,7.9l6.7,4.3l6.6-0.1l7.5-6
		l10.2-2.9l0.7-2.7l-0.2-3.6c0,0-2.5-1.4-2.6-1c-0.1,0.4-4,0.6-4,0.6l-3.7-0.2l-2.1-4.1l-7.5-3.4l-9.2,0.2l-3.7-1.7l-69.6-158.8
		l-4-4.7l-4.7-3.5l-60.6-58.8l-13.6-16.7l-27.5-31.6l-18.7,64.6L769.4,358.4z"/>
	<path style="fill:#8E5629;" d="M769.4,358.3l-1.7,0.2l-12.2,41.6l21.7,80.6l10.8,28l3.9,8.7l0.5-0.2l-0.5,0.2l27.6,61.8l1.4,0.8
		l0.8-0.8l-0.8,0.8l18.2,10l20.2,27.5l17.1,15.3l1.4-2.7l22.9-28.9l12.3-14.8l50.5-9.7l3.4,3.9l0.6,7.9l6.7,4.3l6.6-0.1l7.5-6
		l10.2-2.9l0.7-2.7l-0.2-3.6c0,0-2.5-1.4-2.6-1c-0.1,0.4-4,0.6-4,0.6l-3.7-0.2l-2.1-4.1l-7.5-3.4l-9.2,0.2l-3.7-1.7l-69.6-158.8
		l-4-4.7l-4.7-3.5l-60.6-58.8l-13.6-16.7l-27.5-31.6l-18.7,64.6L769.4,358.3z"/>
	<path style="fill:#8F5628;" d="M769.4,358.2l-1.7,0.2L755.5,400l21.7,80.6l10.8,28l3.9,8.7l0.5-0.2l-0.5,0.2l27.6,61.8l1.4,0.8
		l0.8-0.8l-0.8,0.8l18.2,10l20.2,27.5l17.1,15.3l1.4-2.7l22.9-28.9l12.3-14.8l50.5-9.7l3.4,3.9l0.6,7.9l6.7,4.3l6.6-0.1l7.5-6
		l10.2-2.9l0.7-2.7l-0.2-3.6c0,0-2.5-1.4-2.6-1c-0.1,0.4-4,0.6-4,0.6l-3.7-0.2l-2.1-4.1l-7.5-3.4l-9.2,0.2l-3.7-1.7L896.6,409
		l-4-4.7l-4.7-3.5L827.3,342l-13.6-16.7l-27.5-31.6l-18.7,64.6L769.4,358.2z"/>
	<path style="fill:#905628;" d="M769.4,358.1l-1.7,0.2l-12.2,41.6l21.7,80.6l10.8,28l3.9,8.7l0.5-0.2l-0.5,0.2l27.6,61.8l1.4,0.8
		l0.8-0.8l-0.8,0.8l18.2,10l20.2,27.5l17.1,15.3l1.4-2.7l22.9-28.9l12.3-14.8l50.5-9.7l3.4,3.9l0.6,7.9l6.7,4.3l6.6-0.1l7.5-6
		l10.2-2.9l0.7-2.7l-0.2-3.6c0,0-2.5-1.4-2.6-1c-0.1,0.4-4,0.6-4,0.6l-3.7-0.2l-2.1-4.1l-7.5-3.4l-9.2,0.2l-3.7-1.7l-69.6-158.8
		l-4-4.7l-4.7-3.5l-60.6-58.8l-13.6-16.7l-27.5-31.6l-18.7,64.6L769.4,358.1z"/>
	<path style="fill:#915728;" d="M769.4,358l-1.7,0.2l-12.2,41.6l21.7,80.6l10.8,28l3.9,8.7l0.5-0.2l-0.5,0.2l27.6,61.8l1.4,0.8
		l0.8-0.8l-0.8,0.8l18.2,10l20.2,27.5l17.1,15.3l1.4-2.7l22.9-28.9l12.3-14.8l50.5-9.7l3.4,3.9l0.6,7.9l6.7,4.3l6.6-0.1l7.5-6
		l10.2-2.9l0.7-2.7l-0.2-3.6c0,0-2.5-1.4-2.6-1c-0.1,0.4-4,0.6-4,0.6l-3.7-0.2l-2.1-4.1l-7.5-3.4l-9.2,0.2l-3.7-1.7l-69.6-158.8
		l-4-4.7l-4.7-3.5l-60.6-58.8l-13.6-16.7l-27.5-31.6l-18.7,64.6L769.4,358z"/>
	<path style="fill:#925728;" d="M769.4,357.9l-1.7,0.2l-12.2,41.6l21.7,80.6l10.8,28l3.9,8.7l0.5-0.2l-0.5,0.2l27.6,61.8l1.4,0.8
		l0.8-0.8l-0.8,0.8l18.2,10l20.2,27.5l17.1,15.3l1.4-2.7l22.9-28.9L913,586l50.5-9.7l3.4,3.9l0.6,7.9l6.7,4.3l6.6-0.1l7.5-6
		l10.2-2.9l0.7-2.7l-0.2-3.6c0,0-2.5-1.4-2.6-1c-0.1,0.4-4,0.6-4,0.6l-3.7-0.2l-2.1-4.1l-7.5-3.4l-9.2,0.2l-3.7-1.7l-69.6-158.8
		l-4-4.7l-4.7-3.5l-60.6-58.8L813.7,325l-27.5-31.6L767.5,358L769.4,357.9z"/>
	<path style="fill:#935828;" d="M769.4,357.8l-1.7,0.2l-12.2,41.6l21.7,80.6l10.8,28l3.9,8.7l0.5-0.2l-0.5,0.2l27.6,61.8l1.4,0.8
		l0.8-0.8l-0.8,0.8l18.2,10l20.2,27.5l17.1,15.3l1.4-2.7l22.9-28.9l12.3-14.8l50.5-9.7l3.4,3.9l0.6,7.9l6.7,4.3l6.6-0.1l7.5-6
		l10.2-2.9l0.7-2.7L999,577c0,0-2.5-1.4-2.6-1c-0.1,0.4-4,0.6-4,0.6l-3.7-0.2l-2.1-4.1l-7.5-3.4l-9.2,0.2l-3.7-1.7l-69.6-158.8
		l-4-4.7l-4.7-3.5l-60.6-58.8l-13.6-16.7l-27.5-31.6l-18.7,64.6L769.4,357.8z"/>
	<path style="fill:#945827;" d="M769.4,357.8l-1.7,0.2l-12.2,41.6l21.7,80.6l10.8,28l3.9,8.7l0.5-0.2l-0.5,0.2l27.6,61.8l1.4,0.8
		l0.8-0.8l-0.8,0.8l18.2,10l20.2,27.5l17.1,15.3l1.4-2.7l22.9-28.9l12.3-14.8l50.5-9.7l3.4,3.9l0.6,7.9l6.7,4.3l6.6-0.1l7.5-6
		l10.2-2.9l0.7-2.7L999,577c0,0-2.5-1.4-2.6-1c-0.1,0.4-4,0.6-4,0.6l-3.7-0.2l-2.1-4.1l-7.5-3.4l-9.2,0.2l-3.7-1.7l-69.6-158.8
		l-4-4.7l-4.7-3.5l-60.6-58.8l-13.6-16.7l-27.5-31.6l-18.7,64.6L769.4,357.8z"/>
	<path style="fill:#955827;" d="M769.4,357.7l-1.7,0.2l-12.2,41.6l21.7,80.6l10.8,28l3.9,8.7l0.5-0.2l-0.5,0.2l27.6,61.8l1.4,0.8
		l0.8-0.8l-0.8,0.8l18.2,10l20.2,27.5l17.1,15.3l1.4-2.7l22.9-28.9l12.3-14.8l50.5-9.7l3.4,3.9l0.6,7.9l6.7,4.3l6.6-0.1l7.5-6
		l10.2-2.9l0.7-2.7l-0.2-3.6c0,0-2.5-1.4-2.6-1c-0.1,0.4-4,0.6-4,0.6l-3.7-0.2l-2.1-4.1l-7.5-3.4l-9.2,0.2l-3.7-1.7l-69.6-158.8
		l-4-4.7l-4.7-3.5l-60.6-58.8l-13.6-16.7l-27.5-31.6l-18.7,64.6L769.4,357.7z"/>
	<path style="fill:#965927;" d="M769.4,357.6l-1.7,0.2l-12.2,41.6l21.7,80.6l10.8,28l3.9,8.7l0.5-0.2l-0.5,0.2l27.6,61.8l1.4,0.8
		l0.8-0.8l-0.8,0.8l18.2,10l20.2,27.5l17.1,15.3l1.4-2.7l22.9-28.9l12.3-14.8l50.5-9.7l3.4,3.9l0.6,7.9l6.7,4.3l6.6-0.1l7.5-6
		l10.2-2.9l0.7-2.7l-0.2-3.6c0,0-2.5-1.4-2.6-1c-0.1,0.4-4,0.6-4,0.6l-3.7-0.2l-2.1-4.1l-7.5-3.4l-9.2,0.2l-3.7-1.7l-69.6-158.8
		l-4-4.7l-4.7-3.5l-60.6-58.8l-13.6-16.7l-27.5-31.6l-18.7,64.6L769.4,357.6z"/>
	<path style="fill:#975927;" d="M769.4,357.5l-1.7,0.2l-12.2,41.6l21.7,80.6l10.8,28l3.9,8.7l0.5-0.2l-0.5,0.2l27.6,61.8l1.4,0.8
		l0.8-0.8l-0.8,0.8l18.2,10l20.2,27.5l17.1,15.3l1.4-2.7l22.9-28.9l12.3-14.8l50.5-9.7l3.4,3.9l0.6,7.9l6.7,4.3l6.6-0.1l7.5-6
		l10.2-2.9l0.7-2.7l-0.2-3.6c0,0-2.5-1.4-2.6-1c-0.1,0.4-4,0.6-4,0.6l-3.7-0.2l-2.1-4.1l-7.5-3.4l-9.2,0.2l-3.7-1.7l-69.6-158.8
		l-4-4.7l-4.7-3.5l-60.6-58.8l-13.6-16.7L786.2,293l-18.7,64.6L769.4,357.5z"/>
	<path style="fill:#985A27;" d="M769.4,357.4l-1.7,0.2l-12.2,41.6l21.7,80.6l10.8,28l3.9,8.7l0.5-0.2l-0.5,0.2l27.6,61.8l1.4,0.8
		l0.8-0.8l-0.8,0.8l18.2,10l20.2,27.5l17.1,15.3l1.4-2.7l22.9-28.9l12.3-14.8l50.5-9.7l3.4,3.9l0.6,7.9l6.7,4.3l6.6-0.1l7.5-6
		l10.2-2.9l0.7-2.7l-0.2-3.6c0,0-2.5-1.4-2.6-1c-0.1,0.4-4,0.6-4,0.6l-3.7-0.2l-2.1-4.1l-7.5-3.4l-9.2,0.2l-3.7-1.7l-69.6-158.8
		l-4-4.7l-4.7-3.5l-60.6-58.8l-13.6-16.7l-27.5-31.6l-18.7,64.6L769.4,357.4z"/>
	<path style="fill:#995A26;" d="M769.4,357.3l-1.7,0.2l-12.2,41.6l21.7,80.6l10.8,28l3.9,8.7l0.5-0.2l-0.5,0.2l27.6,61.8l1.4,0.8
		l0.8-0.8l-0.8,0.8l18.2,10l20.2,27.5l17.1,15.3l1.4-2.7l22.9-28.9l12.3-14.8l50.5-9.7l3.4,3.9l0.6,7.9l6.7,4.3l6.6-0.1l7.5-6
		l10.2-2.9l0.7-2.7l-0.2-3.6c0,0-2.5-1.4-2.6-1c-0.1,0.4-4,0.6-4,0.6l-3.7-0.2l-2.1-4.1l-7.5-3.4l-9.2,0.2l-3.7-1.7l-69.6-158.8
		l-4-4.7l-4.7-3.5l-60.6-58.8l-13.6-16.7l-27.5-31.6l-18.7,64.6L769.4,357.3z"/>
	<path style="fill:#9A5B26;" d="M769.4,357.2l-1.7,0.2L755.5,399l21.7,80.6l10.8,28l3.9,8.7l0.5-0.2l-0.5,0.2l27.6,61.8l1.4,0.8
		l0.8-0.8l-0.8,0.8l18.2,10l20.2,27.5l17.1,15.3l1.4-2.7l22.9-28.9l12.3-14.8l50.5-9.7l3.4,3.9l0.6,7.9l6.7,4.3l6.6-0.1l7.5-6
		l10.2-2.9l0.7-2.7l-0.2-3.6c0,0-2.5-1.4-2.6-1c-0.1,0.4-4,0.6-4,0.6l-3.7-0.2l-2.1-4.1l-7.5-3.4l-9.2,0.2l-3.7-1.7L896.6,408
		l-4-4.7l-4.7-3.5L827.3,341l-13.6-16.7l-27.5-31.6l-18.7,64.6L769.4,357.2z"/>
	<path style="fill:#9B5B26;" d="M769.4,357.1l-1.7,0.2l-12.2,41.6l21.7,80.6l10.8,28l3.9,8.7l0.5-0.2l-0.5,0.2l27.6,61.8l1.4,0.8
		l0.8-0.8l-0.8,0.8l18.2,10l20.2,27.5l17.1,15.3l1.4-2.7l22.9-28.9l12.3-14.8l50.5-9.7l3.4,3.9l0.6,7.9l6.7,4.3l6.6-0.1l7.5-6
		l10.2-2.9l0.7-2.7l-0.2-3.6c0,0-2.5-1.4-2.6-1c-0.1,0.4-4,0.6-4,0.6l-3.7-0.2l-2.1-4.1l-7.5-3.4l-9.2,0.2l-3.7-1.7l-69.6-158.8
		l-4-4.7l-4.7-3.5l-60.6-58.8l-13.6-16.7l-27.5-31.6l-18.7,64.6L769.4,357.1z"/>
	<path style="fill:#9C5B26;" d="M769.4,357l-1.7,0.2l-12.2,41.6l21.7,80.6l10.8,28l3.9,8.7l0.5-0.2l-0.5,0.2l27.6,61.8l1.4,0.8
		l0.8-0.8l-0.8,0.8l18.2,10l20.2,27.5l17.1,15.3l1.4-2.7l22.9-28.9l12.3-14.8l50.5-9.7l3.4,3.9l0.6,7.9l6.7,4.3l6.6-0.1l7.5-6
		l10.2-2.9l0.7-2.7l-0.2-3.6c0,0-2.5-1.4-2.6-1c-0.1,0.4-4,0.6-4,0.6l-3.7-0.2l-2.1-4.1l-7.5-3.4l-9.2,0.2l-3.7-1.7l-69.6-158.8
		l-4-4.7l-4.7-3.5l-60.6-58.8l-13.6-16.7l-27.5-31.6l-18.7,64.6L769.4,357z"/>
	<path style="fill:#9D5C26;" d="M769.4,357l-1.7,0.2l-12.2,41.6l21.7,80.6l10.8,28l3.9,8.7l0.5-0.2l-0.5,0.2l27.6,61.8l1.4,0.8
		l0.8-0.8l-0.8,0.8l18.2,10l20.2,27.5l17.1,15.3l1.4-2.7l22.9-28.9l12.3-14.8l50.5-9.7l3.4,3.9l0.6,7.9l6.7,4.3l6.6-0.1l7.5-6
		l10.2-2.9l0.7-2.7l-0.2-3.6c0,0-2.5-1.4-2.6-1c-0.1,0.4-4,0.6-4,0.6l-3.7-0.2l-2.1-4.1l-7.5-3.4l-9.2,0.2l-3.7-1.7l-69.6-158.8
		l-4-4.7l-4.7-3.5l-60.6-58.8l-13.6-16.7l-27.5-31.6l-18.7,64.6L769.4,357z"/>
	<path style="fill:#9E5C25;" d="M769.4,356.9l-1.7,0.2l-12.2,41.6l21.7,80.6l10.8,28l3.9,8.7l0.5-0.2l-0.5,0.2l27.6,61.8l1.4,0.8
		l0.8-0.8l-0.8,0.8l18.2,10l20.2,27.5l17.1,15.3l1.4-2.7l22.9-28.9L913,585l50.5-9.7l3.4,3.9l0.6,7.9l6.7,4.3l6.6-0.1l7.5-6
		l10.2-2.9l0.7-2.7l-0.2-3.6c0,0-2.5-1.4-2.6-1c-0.1,0.4-4,0.6-4,0.6l-3.7-0.2l-2.1-4.1l-7.5-3.4l-9.2,0.2l-3.7-1.7l-69.6-158.8
		l-4-4.7l-4.7-3.5l-60.6-58.8L813.7,324l-27.5-31.6L767.5,357L769.4,356.9z"/>
	<path style="fill:#9F5D25;" d="M769.4,356.8l-1.7,0.2l-12.2,41.6l21.7,80.6l10.8,28l3.9,8.7l0.5-0.2l-0.5,0.2l27.6,61.8l1.4,0.8
		l0.8-0.8l-0.8,0.8l18.2,10l20.2,27.5l17.1,15.3l1.4-2.7l22.9-28.9l12.3-14.8l50.5-9.7l3.4,3.9l0.6,7.9l6.7,4.3l6.6-0.1l7.5-6
		l10.2-2.9l0.7-2.7L999,576c0,0-2.5-1.4-2.6-1c-0.1,0.4-4,0.6-4,0.6l-3.7-0.2l-2.1-4.1l-7.5-3.4l-9.2,0.2l-3.7-1.7l-69.6-158.8
		l-4-4.7l-4.7-3.5l-60.6-58.8l-13.6-16.7l-27.5-31.6l-18.7,64.6L769.4,356.8z"/>
	<path style="fill:#A05D25;" d="M769.4,356.7l-1.7,0.2l-12.2,41.6l21.7,80.6l10.8,28l3.9,8.7l0.5-0.2l-0.5,0.2l27.6,61.8l1.4,0.8
		l0.8-0.8l-0.8,0.8l18.2,10l20.2,27.5l17.1,15.3l1.4-2.7l22.9-28.9l12.3-14.8l50.5-9.7l3.4,3.9l0.6,7.9l6.7,4.3l6.6-0.1l7.5-6
		l10.2-2.9l0.7-2.7l-0.2-3.6c0,0-2.5-1.4-2.6-1c-0.1,0.4-4,0.6-4,0.6l-3.7-0.2l-2.1-4.1l-7.5-3.4l-9.2,0.2l-3.7-1.7l-69.6-158.8
		l-4-4.7l-4.7-3.5l-60.6-58.8l-13.6-16.7l-27.5-31.6l-18.7,64.6L769.4,356.7z"/>
	<path style="fill:#A15D25;" d="M769.4,356.6l-1.7,0.2l-12.2,41.6l21.7,80.6l10.8,28l3.9,8.7l0.5-0.2l-0.5,0.2l27.6,61.8l1.4,0.8
		l0.8-0.8l-0.8,0.8l18.2,10l20.2,27.5l17.1,15.3l1.4-2.7l22.9-28.9l12.3-14.8l50.5-9.7l3.4,3.9l0.6,7.9l6.7,4.3l6.6-0.1l7.5-6
		l10.2-2.9l0.7-2.7l-0.2-3.6c0,0-2.5-1.4-2.6-1c-0.1,0.4-4,0.6-4,0.6l-3.7-0.2l-2.1-4.1l-7.5-3.4l-9.2,0.2l-3.7-1.7l-69.6-158.8
		l-4-4.7l-4.7-3.5l-60.6-58.8l-13.6-16.7l-27.5-31.6l-18.7,64.6L769.4,356.6z"/>
	<path style="fill:#A25E25;" d="M769.4,356.5l-1.7,0.2l-12.2,41.6l21.7,80.6l10.8,28l3.9,8.7l0.5-0.2l-0.5,0.2l27.6,61.8l1.4,0.8
		l0.8-0.8l-0.8,0.8l18.2,10l20.2,27.5l17.1,15.3l1.4-2.7l22.9-28.9l12.3-14.8l50.5-9.7l3.4,3.9l0.6,7.9l6.7,4.3l6.6-0.1l7.5-6
		l10.2-2.9l0.7-2.7l-0.2-3.6c0,0-2.5-1.4-2.6-1c-0.1,0.4-4,0.6-4,0.6l-3.7-0.2l-2.1-4.1l-7.5-3.4l-9.2,0.2l-3.7-1.7l-69.6-158.8
		l-4-4.7l-4.7-3.5l-60.6-58.8l-13.6-16.7L786.2,292l-18.7,64.6L769.4,356.5z"/>
	<path style="fill:#A35E24;" d="M769.4,356.4l-1.7,0.2l-12.2,41.6l21.7,80.6l10.8,28l3.9,8.7l0.5-0.2l-0.5,0.2l27.6,61.8l1.4,0.8
		l0.8-0.8l-0.8,0.8l18.2,10l20.2,27.5l17.1,15.3l1.4-2.7l22.9-28.9l12.3-14.8l50.5-9.7l3.4,3.9l0.6,7.9l6.7,4.3l6.6-0.1l7.5-6
		l10.2-2.9l0.7-2.7l-0.2-3.6c0,0-2.5-1.4-2.6-1c-0.1,0.4-4,0.6-4,0.6l-3.7-0.2l-2.1-4.1l-7.5-3.4l-9.2,0.2l-3.7-1.7l-69.6-158.8
		l-4-4.7l-4.7-3.5l-60.6-58.8l-13.6-16.7l-27.5-31.6l-18.7,64.6L769.4,356.4z"/>
	<path style="fill:#A45F24;" d="M769.4,356.3l-1.7,0.2l-12.2,41.6l21.7,80.6l10.8,28l3.9,8.7l0.5-0.2l-0.5,0.2l27.6,61.8l1.4,0.8
		l0.8-0.8l-0.8,0.8l18.2,10l20.2,27.5l17.1,15.3l1.4-2.7l22.9-28.9l12.3-14.8l50.5-9.7l3.4,3.9l0.6,7.9l6.7,4.3l6.6-0.1l7.5-6
		l10.2-2.9l0.7-2.7l-0.2-3.6c0,0-2.5-1.4-2.6-1c-0.1,0.4-4,0.6-4,0.6l-3.7-0.2l-2.1-4.1l-7.5-3.4l-9.2,0.2l-3.7-1.7l-69.6-158.8
		l-4-4.7l-4.7-3.5l-60.6-58.8l-13.6-16.7l-27.5-31.6l-18.7,64.6L769.4,356.3z"/>
	<path style="fill:#A55F24;" d="M769.4,356.2l-1.7,0.2L755.5,398l21.7,80.6l10.8,28l3.9,8.7l0.5-0.2l-0.5,0.2l27.6,61.8l1.4,0.8
		l0.8-0.8l-0.8,0.8l18.2,10l20.2,27.5l17.1,15.3l1.4-2.7l22.9-28.9l12.3-14.8l50.5-9.7l3.4,3.9l0.6,7.9l6.7,4.3l6.6-0.1l7.5-6
		l10.2-2.9l0.7-2.7l-0.2-3.6c0,0-2.5-1.4-2.6-1c-0.1,0.4-4,0.6-4,0.6l-3.7-0.2l-2.1-4.1l-7.5-3.4l-9.2,0.2l-3.7-1.7L896.6,407
		l-4-4.7l-4.7-3.5L827.3,340l-13.6-16.7l-27.5-31.6l-18.7,64.6L769.4,356.2z"/>
	<path style="fill:#A65F24;" d="M769.4,356.2l-1.7,0.2L755.5,398l21.7,80.6l10.8,28l3.9,8.7l0.5-0.2l-0.5,0.2l27.6,61.8l1.4,0.8
		l0.8-0.8l-0.8,0.8l18.2,10l20.2,27.5l17.1,15.3l1.4-2.7l22.9-28.9l12.3-14.8l50.5-9.7l3.4,3.9l0.6,7.9l6.7,4.3l6.6-0.1l7.5-6
		l10.2-2.9l0.7-2.7l-0.2-3.6c0,0-2.5-1.4-2.6-1c-0.1,0.4-4,0.6-4,0.6l-3.7-0.2l-2.1-4.1l-7.5-3.4l-9.2,0.2l-3.7-1.7L896.6,407
		l-4-4.7l-4.7-3.5L827.3,340l-13.6-16.7l-27.5-31.6l-18.7,64.6L769.4,356.2z"/>
	<path style="fill:#A76024;" d="M769.4,356.1l-1.7,0.2l-12.2,41.6l21.7,80.6l10.8,28l3.9,8.7l0.5-0.2l-0.5,0.2l27.6,61.8l1.4,0.8
		l0.8-0.8l-0.8,0.8l18.2,10l20.2,27.5l17.1,15.3l1.4-2.7l22.9-28.9l12.3-14.8l50.5-9.7l3.4,3.9l0.6,7.9l6.7,4.3l6.6-0.1l7.5-6
		l10.2-2.9l0.7-2.7l-0.2-3.6c0,0-2.5-1.4-2.6-1c-0.1,0.4-4,0.6-4,0.6l-3.7-0.2l-2.1-4.1l-7.5-3.4l-9.2,0.2l-3.7-1.7l-69.6-158.8
		l-4-4.7l-4.7-3.5l-60.6-58.8l-13.6-16.7l-27.5-31.6l-18.7,64.6L769.4,356.1z"/>
	<path style="fill:#A86024;" d="M769.4,356l-1.7,0.2l-12.2,41.6l21.7,80.6l10.8,28l3.9,8.7l0.5-0.2l-0.5,0.2l27.6,61.8l1.4,0.8
		l0.8-0.8l-0.8,0.8l18.2,10l20.2,27.5l17.1,15.3l1.4-2.7l22.9-28.9l12.3-14.8l50.5-9.7l3.4,3.9l0.6,7.9l6.7,4.3l6.6-0.1l7.5-6
		l10.2-2.9l0.7-2.7l-0.2-3.6c0,0-2.5-1.4-2.6-1c-0.1,0.4-4,0.6-4,0.6l-3.7-0.2l-2.1-4.1l-7.5-3.4l-9.2,0.2l-3.7-1.7l-69.6-158.8
		l-4-4.7l-4.7-3.5l-60.6-58.8l-13.6-16.7l-27.5-31.6l-18.7,64.6L769.4,356z"/>
	<path style="fill:#A96123;" d="M769.4,355.9l-1.7,0.2l-12.2,41.6l21.7,80.6l10.8,28l3.9,8.7l0.5-0.2l-0.5,0.2l27.6,61.8l1.4,0.8
		l0.8-0.8l-0.8,0.8l18.2,10l20.2,27.5l17.1,15.3l1.4-2.7l22.9-28.9L913,584l50.5-9.7l3.4,3.9l0.6,7.9l6.7,4.3l6.6-0.1l7.5-6
		l10.2-2.9l0.7-2.7l-0.2-3.6c0,0-2.5-1.4-2.6-1c-0.1,0.4-4,0.6-4,0.6l-3.7-0.2l-2.1-4.1l-7.5-3.4l-9.2,0.2l-3.7-1.7l-69.6-158.8
		l-4-4.7l-4.7-3.5l-60.6-58.8L813.7,323l-27.5-31.6L767.5,356L769.4,355.9z"/>
	<path style="fill:#AA6123;" d="M769.4,355.8l-1.7,0.2l-12.2,41.6l21.7,80.6l10.8,28l3.9,8.7l0.5-0.2l-0.5,0.2l27.6,61.8l1.4,0.8
		l0.8-0.8l-0.8,0.8l18.2,10l20.2,27.5l17.1,15.3l1.4-2.7l22.9-28.9l12.3-14.8l50.5-9.7l3.4,3.9l0.6,7.9l6.7,4.3l6.6-0.1l7.5-6
		l10.2-2.9l0.7-2.7L999,575c0,0-2.5-1.4-2.6-1c-0.1,0.4-4,0.6-4,0.6l-3.7-0.2l-2.1-4.1l-7.5-3.4l-9.2,0.2l-3.7-1.7l-69.6-158.8
		l-4-4.7l-4.7-3.5l-60.6-58.8l-13.6-16.7l-27.5-31.6l-18.7,64.6L769.4,355.8z"/>
	<path style="fill:#AB6223;" d="M769.4,355.7l-1.7,0.2l-12.2,41.6l21.7,80.6l10.8,28l3.9,8.7l0.5-0.2l-0.5,0.2l27.6,61.8l1.4,0.8
		l0.8-0.8l-0.8,0.8l18.2,10l20.2,27.5l17.1,15.3l1.4-2.7l22.9-28.9l12.3-14.8l50.5-9.7l3.4,3.9l0.6,7.9l6.7,4.3l6.6-0.1l7.5-6
		l10.2-2.9l0.7-2.7l-0.2-3.6c0,0-2.5-1.4-2.6-1c-0.1,0.4-4,0.6-4,0.6l-3.7-0.2l-2.1-4.1l-7.5-3.4l-9.2,0.2l-3.7-1.7l-69.6-158.8
		l-4-4.7l-4.7-3.5l-60.6-58.8l-13.6-16.7l-27.5-31.6l-18.7,64.6L769.4,355.7z"/>
	<path style="fill:#AC6223;" d="M769.4,355.6l-1.7,0.2l-12.2,41.6l21.7,80.6l10.8,28l3.9,8.7l0.5-0.2l-0.5,0.2l27.6,61.8l1.4,0.8
		l0.8-0.8l-0.8,0.8l18.2,10l20.2,27.5l17.1,15.3l1.4-2.7l22.9-28.9l12.3-14.8l50.5-9.7l3.4,3.9l0.6,7.9l6.7,4.3l6.6-0.1l7.5-6
		l10.2-2.9l0.7-2.7l-0.2-3.6c0,0-2.5-1.4-2.6-1c-0.1,0.4-4,0.6-4,0.6l-3.7-0.2l-2.1-4.1l-7.5-3.4l-9.2,0.2l-3.7-1.7l-69.6-158.8
		l-4-4.7l-4.7-3.5l-60.6-58.8l-13.6-16.7l-27.5-31.6l-18.7,64.6L769.4,355.6z"/>
	<path style="fill:#AD6223;" d="M769.4,355.5l-1.7,0.2l-12.2,41.6l21.7,80.6l10.8,28l3.9,8.7l0.5-0.2l-0.5,0.2l27.6,61.8l1.4,0.8
		l0.8-0.8l-0.8,0.8l18.2,10l20.2,27.5l17.1,15.3l1.4-2.7l22.9-28.9l12.3-14.8l50.5-9.7l3.4,3.9l0.6,7.9l6.7,4.3l6.6-0.1l7.5-6
		l10.2-2.9l0.7-2.7l-0.2-3.6c0,0-2.5-1.4-2.6-1c-0.1,0.4-4,0.6-4,0.6l-3.7-0.2l-2.1-4.1l-7.5-3.4l-9.2,0.2l-3.7-1.7l-69.6-158.8
		l-4-4.7l-4.7-3.5l-60.6-58.8l-13.6-16.7L786.2,291l-18.7,64.6L769.4,355.5z"/>
	<path style="fill:#AE6322;" d="M769.4,355.4l-1.7,0.2l-12.2,41.6l21.7,80.6l10.8,28l3.9,8.7l0.5-0.2l-0.5,0.2l27.6,61.8l1.4,0.8
		l0.8-0.8l-0.8,0.8l18.2,10l20.2,27.5l17.1,15.3l1.4-2.7l22.9-28.9l12.3-14.8l50.5-9.7l3.4,3.9l0.6,7.9l6.7,4.3l6.6-0.1l7.5-6
		l10.2-2.9l0.7-2.7l-0.2-3.6c0,0-2.5-1.4-2.6-1c-0.1,0.4-4,0.6-4,0.6l-3.7-0.2l-2.1-4.1l-7.5-3.4l-9.2,0.2l-3.7-1.7l-69.6-158.8
		l-4-4.7l-4.7-3.5l-60.6-58.8l-13.6-16.7l-27.5-31.6l-18.7,64.6L769.4,355.4z"/>
	<path style="fill:#AF6322;" d="M769.4,355.4l-1.7,0.2l-12.2,41.6l21.7,80.6l10.8,28l3.9,8.7l0.5-0.2l-0.5,0.2l27.6,61.8l1.4,0.8
		l0.8-0.8l-0.8,0.8l18.2,10l20.2,27.5l17.1,15.3l1.4-2.7l22.9-28.9l12.3-14.8l50.5-9.7l3.4,3.9l0.6,7.9l6.7,4.3l6.6-0.1l7.5-6
		l10.2-2.9l0.7-2.7l-0.2-3.6c0,0-2.5-1.4-2.6-1c-0.1,0.4-4,0.6-4,0.6l-3.7-0.2l-2.1-4.1l-7.5-3.4l-9.2,0.2l-3.7-1.7l-69.6-158.8
		l-4-4.7l-4.7-3.5l-60.6-58.8l-13.6-16.7l-27.5-31.6l-18.7,64.6L769.4,355.4z"/>
	<path style="fill:#B06422;" d="M769.4,355.3l-1.7,0.2l-12.2,41.6l21.7,80.6l10.8,28l3.9,8.7l0.5-0.2l-0.5,0.2l27.6,61.8l1.4,0.8
		l0.8-0.8l-0.8,0.8l18.2,10l20.2,27.5l17.1,15.3l1.4-2.7l22.9-28.9l12.3-14.8l50.5-9.7l3.4,3.9l0.6,7.9l6.7,4.3l6.6-0.1l7.5-6
		l10.2-2.9l0.7-2.7l-0.2-3.6c0,0-2.5-1.4-2.6-1c-0.1,0.4-4,0.6-4,0.6l-3.7-0.2l-2.1-4.1l-7.5-3.4l-9.2,0.2l-3.7-1.7l-69.6-158.8
		l-4-4.7l-4.7-3.5l-60.6-58.8l-13.6-16.7l-27.5-31.6l-18.7,64.6L769.4,355.3z"/>
	<path style="fill:#B16422;" d="M769.4,355.2l-1.7,0.2L755.5,397l21.7,80.6l10.8,28l3.9,8.7l0.5-0.2l-0.5,0.2l27.6,61.8l1.4,0.8
		l0.8-0.8l-0.8,0.8l18.2,10l20.2,27.5l17.1,15.3l1.4-2.7l22.9-28.9l12.3-14.8l50.5-9.7l3.4,3.9l0.6,7.9l6.7,4.3l6.6-0.1l7.5-6
		l10.2-2.9l0.7-2.7l-0.2-3.6c0,0-2.5-1.4-2.6-1c-0.1,0.4-4,0.6-4,0.6l-3.7-0.2l-2.1-4.1l-7.5-3.4l-9.2,0.2l-3.7-1.7L896.6,406
		l-4-4.7l-4.7-3.5L827.3,339l-13.6-16.7l-27.5-31.6l-18.7,64.6L769.4,355.2z"/>
	<path style="fill:#B26422;" d="M769.4,355.1l-1.7,0.2l-12.2,41.6l21.7,80.6l10.8,28l3.9,8.7l0.5-0.2l-0.5,0.2l27.6,61.8l1.4,0.8
		l0.8-0.8l-0.8,0.8l18.2,10l20.2,27.5l17.1,15.3l1.4-2.7l22.9-28.9l12.3-14.8l50.5-9.7l3.4,3.9l0.6,7.9l6.7,4.3l6.6-0.1l7.5-6
		l10.2-2.9l0.7-2.7l-0.2-3.6c0,0-2.5-1.4-2.6-1c-0.1,0.4-4,0.6-4,0.6l-3.7-0.2l-2.1-4.1l-7.5-3.4l-9.2,0.2l-3.7-1.7l-69.6-158.8
		l-4-4.7l-4.7-3.5l-60.6-58.8l-13.6-16.7l-27.5-31.6l-18.7,64.6L769.4,355.1z"/>
	<path style="fill:#B36521;" d="M769.4,355l-1.7,0.2l-12.2,41.6l21.7,80.6l10.8,28l3.9,8.7l0.5-0.2l-0.5,0.2l27.6,61.8l1.4,0.8
		l0.8-0.8l-0.8,0.8l18.2,10l20.2,27.5l17.1,15.3l1.4-2.7l22.9-28.9l12.3-14.8l50.5-9.7l3.4,3.9l0.6,7.9l6.7,4.3l6.6-0.1l7.5-6
		l10.2-2.9l0.7-2.7l-0.2-3.6c0,0-2.5-1.4-2.6-1c-0.1,0.4-4,0.6-4,0.6l-3.7-0.2l-2.1-4.1l-7.5-3.4l-9.2,0.2l-3.7-1.7l-69.6-158.8
		l-4-4.7l-4.7-3.5l-60.6-58.8l-13.6-16.7l-27.5-31.6l-18.7,64.6L769.4,355z"/>
	<path style="fill:#B46521;" d="M769.4,354.9l-1.7,0.2l-12.2,41.6l21.7,80.6l10.8,28l3.9,8.7l0.5-0.2l-0.5,0.2l27.6,61.8l1.4,0.8
		l0.8-0.8l-0.8,0.8l18.2,10l20.2,27.5l17.1,15.3l1.4-2.7l22.9-28.9L913,583l50.5-9.7l3.4,3.9l0.6,7.9l6.7,4.3l6.6-0.1l7.5-6
		l10.2-2.9l0.7-2.7l-0.2-3.6c0,0-2.5-1.4-2.6-1c-0.1,0.4-4,0.6-4,0.6l-3.7-0.2l-2.1-4.1l-7.5-3.4l-9.2,0.2l-3.7-1.7l-69.6-158.8
		l-4-4.7l-4.7-3.5l-60.6-58.8L813.7,322l-27.5-31.6L767.5,355L769.4,354.9z"/>
	<path style="fill:#B56621;" d="M769.4,354.8l-1.7,0.2l-12.2,41.6l21.7,80.6l10.8,28l3.9,8.7l0.5-0.2l-0.5,0.2l27.6,61.8l1.4,0.8
		l0.8-0.8l-0.8,0.8l18.2,10l20.2,27.5l17.1,15.3l1.4-2.7l22.9-28.9l12.3-14.8l50.5-9.7l3.4,3.9l0.6,7.9l6.7,4.3l6.6-0.1l7.5-6
		l10.2-2.9l0.7-2.7L999,574c0,0-2.5-1.4-2.6-1c-0.1,0.4-4,0.6-4,0.6l-3.7-0.2l-2.1-4.1l-7.5-3.4l-9.2,0.2l-3.7-1.7l-69.6-158.8
		l-4-4.7l-4.7-3.5l-60.6-58.8l-13.6-16.7l-27.5-31.6l-18.7,64.6L769.4,354.8z"/>
	<path style="fill:#B66621;" d="M769.4,354.7l-1.7,0.2l-12.2,41.6l21.7,80.6l10.8,28l3.9,8.7l0.5-0.2l-0.5,0.2l27.6,61.8l1.4,0.8
		l0.8-0.8l-0.8,0.8l18.2,10l20.2,27.5l17.1,15.3l1.4-2.7l22.9-28.9l12.3-14.8l50.5-9.7l3.4,3.9l0.6,7.9l6.7,4.3l6.6-0.1l7.5-6
		l10.2-2.9l0.7-2.7l-0.2-3.6c0,0-2.5-1.4-2.6-1c-0.1,0.4-4,0.6-4,0.6l-3.7-0.2l-2.1-4.1l-7.5-3.4l-9.2,0.2l-3.7-1.7l-69.6-158.8
		l-4-4.7l-4.7-3.5l-60.6-58.8l-13.6-16.7l-27.5-31.6l-18.7,64.6L769.4,354.7z"/>
	<path style="fill:#B76621;" d="M769.4,354.6l-1.7,0.2l-12.2,41.6l21.7,80.6l10.8,28l3.9,8.7l0.5-0.2l-0.5,0.2l27.6,61.8l1.4,0.8
		l0.8-0.8l-0.8,0.8l18.2,10l20.2,27.5l17.1,15.3l1.4-2.7l22.9-28.9l12.3-14.8l50.5-9.7l3.4,3.9l0.6,7.9l6.7,4.3l6.6-0.1l7.5-6
		l10.2-2.9l0.7-2.7l-0.2-3.6c0,0-2.5-1.4-2.6-1c-0.1,0.4-4,0.6-4,0.6l-3.7-0.2l-2.1-4.1l-7.5-3.4l-9.2,0.2l-3.7-1.7l-69.6-158.8
		l-4-4.7l-4.7-3.5l-60.6-58.8l-13.6-16.7l-27.5-31.6l-18.7,64.6L769.4,354.6z"/>
	<path style="fill:#B86720;" d="M769.4,354.6l-1.7,0.2l-12.2,41.6l21.7,80.6l10.8,28l3.9,8.7l0.5-0.2l-0.5,0.2l27.6,61.8l1.4,0.8
		l0.8-0.8l-0.8,0.8l18.2,10l20.2,27.5l17.1,15.3l1.4-2.7l22.9-28.9l12.3-14.8l50.5-9.7l3.4,3.9l0.6,7.9l6.7,4.3l6.6-0.1l7.5-6
		l10.2-2.9l0.7-2.7l-0.2-3.6c0,0-2.5-1.4-2.6-1c-0.1,0.4-4,0.6-4,0.6l-3.7-0.2l-2.1-4.1l-7.5-3.4l-9.2,0.2l-3.7-1.7l-69.6-158.8
		l-4-4.7l-4.7-3.5l-60.6-58.8l-13.6-16.7l-27.5-31.6l-18.7,64.6L769.4,354.6z"/>
	<path style="fill:#B96720;" d="M769.4,354.5l-1.7,0.2l-12.2,41.6l21.7,80.6l10.8,28l3.9,8.7l0.5-0.2l-0.5,0.2l27.6,61.8l1.4,0.8
		l0.8-0.8l-0.8,0.8l18.2,10l20.2,27.5l17.1,15.3l1.4-2.7l22.9-28.9l12.3-14.8l50.5-9.7l3.4,3.9l0.6,7.9l6.7,4.3l6.6-0.1l7.5-6
		l10.2-2.9l0.7-2.7l-0.2-3.6c0,0-2.5-1.4-2.6-1c-0.1,0.4-4,0.6-4,0.6l-3.7-0.2l-2.1-4.1l-7.5-3.4l-9.2,0.2l-3.7-1.7l-69.6-158.8
		l-4-4.7l-4.7-3.5l-60.6-58.8l-13.6-16.7L786.2,290l-18.7,64.6L769.4,354.5z"/>
	<path style="fill:#BA6820;" d="M769.4,354.4l-1.7,0.2l-12.2,41.6l21.7,80.6l10.8,28l3.9,8.7l0.5-0.2l-0.5,0.2l27.6,61.8l1.4,0.8
		l0.8-0.8l-0.8,0.8l18.2,10l20.2,27.5l17.1,15.3l1.4-2.7l22.9-28.9l12.3-14.8l50.5-9.7l3.4,3.9l0.6,7.9l6.7,4.3l6.6-0.1l7.5-6
		l10.2-2.9l0.7-2.7l-0.2-3.6c0,0-2.5-1.4-2.6-1c-0.1,0.4-4,0.6-4,0.6l-3.7-0.2l-2.1-4.1l-7.5-3.4l-9.2,0.2l-3.7-1.7l-69.6-158.8
		l-4-4.7l-4.7-3.5l-60.6-58.8l-13.6-16.7l-27.5-31.6l-18.7,64.6L769.4,354.4z"/>
	<path style="fill:#BB6820;" d="M769.4,354.3l-1.7,0.2l-12.2,41.6l21.7,80.6l10.8,28l3.9,8.7l0.5-0.2l-0.5,0.2l27.6,61.8l1.4,0.8
		l0.8-0.8l-0.8,0.8l18.2,10l20.2,27.5l17.1,15.3l1.4-2.7l22.9-28.9l12.3-14.8l50.5-9.7l3.4,3.9l0.6,7.9l6.7,4.3l6.6-0.1l7.5-6
		l10.2-2.9l0.7-2.7l-0.2-3.6c0,0-2.5-1.4-2.6-1c-0.1,0.4-4,0.6-4,0.6l-3.7-0.2l-2.1-4.1l-7.5-3.4l-9.2,0.2l-3.7-1.7l-69.6-158.8
		l-4-4.7l-4.7-3.5l-60.6-58.8l-13.6-16.7l-27.5-31.6l-18.7,64.6L769.4,354.3z"/>
	<path style="fill:#BC6820;" d="M769.4,354.2l-1.7,0.2L755.5,396l21.7,80.6l10.8,28l3.9,8.7l0.5-0.2l-0.5,0.2l27.6,61.8l1.4,0.8
		l0.8-0.8l-0.8,0.8l18.2,10l20.2,27.5l17.1,15.3l1.4-2.7l22.9-28.9l12.3-14.8l50.5-9.7l3.4,3.9l0.6,7.9l6.7,4.3l6.6-0.1l7.5-6
		l10.2-2.9l0.7-2.7l-0.2-3.6c0,0-2.5-1.4-2.6-1c-0.1,0.4-4,0.6-4,0.6l-3.7-0.2l-2.1-4.1l-7.5-3.4l-9.2,0.2l-3.7-1.7L896.6,405
		l-4-4.7l-4.7-3.5L827.3,338l-13.6-16.7l-27.5-31.6l-18.7,64.6L769.4,354.2z"/>
	<path style="fill:#BD691F;" d="M769.4,354.1l-1.7,0.2l-12.2,41.6l21.7,80.6l10.8,28l3.9,8.7l0.5-0.2l-0.5,0.2l27.6,61.8l1.4,0.8
		l0.8-0.8l-0.8,0.8l18.2,10l20.2,27.5l17.1,15.3l1.4-2.7l22.9-28.9l12.3-14.8l50.5-9.7l3.4,3.9l0.6,7.9l6.7,4.3l6.6-0.1l7.5-6
		l10.2-2.9l0.7-2.7l-0.2-3.6c0,0-2.5-1.4-2.6-1c-0.1,0.4-4,0.6-4,0.6l-3.7-0.2l-2.1-4.1l-7.5-3.4l-9.2,0.2l-3.7-1.7l-69.6-158.8
		l-4-4.7l-4.7-3.5l-60.6-58.8l-13.6-16.7l-27.5-31.6l-18.7,64.6L769.4,354.1z"/>
	<path style="fill:#BE691F;" d="M769.4,354l-1.7,0.2l-12.2,41.6l21.7,80.6l10.8,28l3.9,8.7l0.5-0.2l-0.5,0.2l27.6,61.8l1.4,0.8
		l0.8-0.8l-0.8,0.8l18.2,10l20.2,27.5l17.1,15.3l1.4-2.7l22.9-28.9l12.3-14.8l50.5-9.7l3.4,3.9l0.6,7.9l6.7,4.3l6.6-0.1l7.5-6
		l10.2-2.9l0.7-2.7l-0.2-3.6c0,0-2.5-1.4-2.6-1c-0.1,0.4-4,0.6-4,0.6l-3.7-0.2l-2.1-4.1l-7.5-3.4l-9.2,0.2l-3.7-1.7l-69.6-158.8
		l-4-4.7l-4.7-3.5l-60.6-58.8l-13.6-16.7l-27.5-31.6l-18.7,64.6L769.4,354z"/>
	<path style="fill:#BF6A1F;" d="M769.4,353.9l-1.7,0.2l-12.2,41.6l21.7,80.6l10.8,28l3.9,8.7l0.5-0.2l-0.5,0.2l27.6,61.8l1.4,0.8
		l0.8-0.8l-0.8,0.8l18.2,10l20.2,27.5l17.1,15.3l1.4-2.7l22.9-28.9L913,582l50.5-9.7l3.4,3.9l0.6,7.9l6.7,4.3l6.6-0.1l7.5-6
		l10.2-2.9l0.7-2.7l-0.2-3.6c0,0-2.5-1.4-2.6-1c-0.1,0.4-4,0.6-4,0.6l-3.7-0.2l-2.1-4.1l-7.5-3.4l-9.2,0.2l-3.7-1.7l-69.6-158.8
		l-4-4.7l-4.7-3.5l-60.6-58.8L813.7,321l-27.5-31.6L767.5,354L769.4,353.9z"/>
	<path style="fill:#C06A1F;" d="M769.4,353.8l-1.7,0.2l-12.2,41.6l21.7,80.6l10.8,28l3.9,8.7l0.5-0.2l-0.5,0.2l27.6,61.8l1.4,0.8
		l0.8-0.8l-0.8,0.8l18.2,10l20.2,27.5l17.1,15.3l1.4-2.7l22.9-28.9l12.3-14.8l50.5-9.7l3.4,3.9l0.6,7.9l6.7,4.3l6.6-0.1l7.5-6
		l10.2-2.9l0.7-2.7L999,573c0,0-2.5-1.4-2.6-1c-0.1,0.4-4,0.6-4,0.6l-3.7-0.2l-2.1-4.1l-7.5-3.4l-9.2,0.2l-3.7-1.7l-69.6-158.8
		l-4-4.7l-4.7-3.5l-60.6-58.8l-13.6-16.7l-27.5-31.6l-18.7,64.6L769.4,353.8z"/>
	<path style="fill:#C16B1F;" d="M769.4,353.7l-1.7,0.2l-12.2,41.6l21.7,80.6l10.8,28l3.9,8.7l0.5-0.2l-0.5,0.2l27.6,61.8l1.4,0.8
		l0.8-0.8l-0.8,0.8l18.2,10l20.2,27.5l17.1,15.3l1.4-2.7l22.9-28.9l12.3-14.8l50.5-9.7l3.4,3.9l0.6,7.9l6.7,4.3l6.6-0.1l7.5-6
		l10.2-2.9l0.7-2.7l-0.2-3.6c0,0-2.5-1.4-2.6-1c-0.1,0.4-4,0.6-4,0.6l-3.7-0.2l-2.1-4.1l-7.5-3.4l-9.2,0.2l-3.7-1.7l-69.6-158.8
		l-4-4.7l-4.7-3.5l-60.6-58.8l-13.6-16.7l-27.5-31.6l-18.7,64.6L769.4,353.7z"/>
	<path style="fill:#C26B1E;" d="M769.4,353.7l-1.7,0.2l-12.2,41.6l21.7,80.6l10.8,28l3.9,8.7l0.5-0.2l-0.5,0.2l27.6,61.8l1.4,0.8
		l0.8-0.8l-0.8,0.8l18.2,10l20.2,27.5l17.1,15.3l1.4-2.7l22.9-28.9l12.3-14.8l50.5-9.7l3.4,3.9l0.6,7.9l6.7,4.3l6.6-0.1l7.5-6
		l10.2-2.9l0.7-2.7l-0.2-3.6c0,0-2.5-1.4-2.6-1c-0.1,0.4-4,0.6-4,0.6l-3.7-0.2l-2.1-4.1l-7.5-3.4l-9.2,0.2l-3.7-1.7l-69.6-158.8
		l-4-4.7l-4.7-3.5l-60.6-58.8l-13.6-16.7l-27.5-31.6l-18.7,64.6L769.4,353.7z"/>
	<path style="fill:#C36B1E;" d="M769.4,353.6l-1.7,0.2l-12.2,41.6l21.7,80.6l10.8,28l3.9,8.7l0.5-0.2l-0.5,0.2l27.6,61.8l1.4,0.8
		l0.8-0.8l-0.8,0.8l18.2,10l20.2,27.5l17.1,15.3l1.4-2.7l22.9-28.9l12.3-14.8l50.5-9.7l3.4,3.9l0.6,7.9l6.7,4.3l6.6-0.1l7.5-6
		l10.2-2.9l0.7-2.7l-0.2-3.6c0,0-2.5-1.4-2.6-1c-0.1,0.4-4,0.6-4,0.6l-3.7-0.2l-2.1-4.1l-7.5-3.4l-9.2,0.2l-3.7-1.7l-69.6-158.8
		l-4-4.7l-4.7-3.5l-60.6-58.8l-13.6-16.7l-27.5-31.6l-18.7,64.6L769.4,353.6z"/>
	<path style="fill:#C46C1E;" d="M769.4,353.5l-1.7,0.2l-12.2,41.6l21.7,80.6l10.8,28l3.9,8.7l0.5-0.2l-0.5,0.2l27.6,61.8l1.4,0.8
		l0.8-0.8l-0.8,0.8l18.2,10l20.2,27.5l17.1,15.3l1.4-2.7l22.9-28.9l12.3-14.8l50.5-9.7l3.4,3.9l0.6,7.9l6.7,4.3l6.6-0.1l7.5-6
		l10.2-2.9l0.7-2.7l-0.2-3.6c0,0-2.5-1.4-2.6-1c-0.1,0.4-4,0.6-4,0.6l-3.7-0.2l-2.1-4.1l-7.5-3.4l-9.2,0.2l-3.7-1.7l-69.6-158.8
		l-4-4.7l-4.7-3.5l-60.6-58.8l-13.6-16.7L786.2,289l-18.7,64.6L769.4,353.5z"/>
	<path style="fill:#C56C1E;" d="M769.4,353.4l-1.7,0.2l-12.2,41.6l21.7,80.6l10.8,28l3.9,8.7l0.5-0.2l-0.5,0.2l27.6,61.8l1.4,0.8
		l0.8-0.8l-0.8,0.8l18.2,10l20.2,27.5l17.1,15.3l1.4-2.7l22.9-28.9l12.3-14.8l50.5-9.7l3.4,3.9l0.6,7.9l6.7,4.3l6.6-0.1l7.5-6
		l10.2-2.9l0.7-2.7l-0.2-3.6c0,0-2.5-1.4-2.6-1c-0.1,0.4-4,0.6-4,0.6l-3.7-0.2l-2.1-4.1l-7.5-3.4l-9.2,0.2l-3.7-1.7l-69.6-158.8
		l-4-4.7l-4.7-3.5l-60.6-58.8l-13.6-16.7l-27.5-31.6l-18.7,64.6L769.4,353.4z"/>
	<path style="fill:#C66D1E;" d="M769.4,353.3l-1.7,0.2l-12.2,41.6l21.7,80.6l10.8,28l3.9,8.7l0.5-0.2l-0.5,0.2l27.6,61.8l1.4,0.8
		l0.8-0.8l-0.8,0.8l18.2,10l20.2,27.5l17.1,15.3l1.4-2.7l22.9-28.9l12.3-14.8l50.5-9.7l3.4,3.9l0.6,7.9l6.7,4.3l6.6-0.1l7.5-6
		l10.2-2.9l0.7-2.7l-0.2-3.6c0,0-2.5-1.4-2.6-1c-0.1,0.4-4,0.6-4,0.6l-3.7-0.2l-2.1-4.1l-7.5-3.4l-9.2,0.2l-3.7-1.7l-69.6-158.8
		l-4-4.7l-4.7-3.5l-60.6-58.8l-13.6-16.7l-27.5-31.6l-18.7,64.6L769.4,353.3z"/>
	<path style="fill:#C76D1D;" d="M769.4,353.2l-1.7,0.2L755.5,395l21.7,80.6l10.8,28l3.9,8.7l0.5-0.2l-0.5,0.2l27.6,61.8l1.4,0.8
		l0.8-0.8l-0.8,0.8l18.2,10l20.2,27.5l17.1,15.3l1.4-2.7l22.9-28.9l12.3-14.8l50.5-9.7l3.4,3.9l0.6,7.9l6.7,4.3l6.6-0.1l7.5-6
		l10.2-2.9l0.7-2.7l-0.2-3.6c0,0-2.5-1.4-2.6-1c-0.1,0.4-4,0.6-4,0.6l-3.7-0.2l-2.1-4.1l-7.5-3.4l-9.2,0.2l-3.7-1.7L896.6,404
		l-4-4.7l-4.7-3.5L827.3,337l-13.6-16.7l-27.5-31.6l-18.7,64.6L769.4,353.2z"/>
	<path style="fill:#C86D1D;" d="M769.4,353.1l-1.7,0.2l-12.2,41.6l21.7,80.6l10.8,28l3.9,8.7l0.5-0.2l-0.5,0.2l27.6,61.8l1.4,0.8
		l0.8-0.8l-0.8,0.8l18.2,10l20.2,27.5l17.1,15.3l1.4-2.7l22.9-28.9l12.3-14.8l50.5-9.7l3.4,3.9l0.6,7.9l6.7,4.3l6.6-0.1l7.5-6
		l10.2-2.9l0.7-2.7l-0.2-3.6c0,0-2.5-1.4-2.6-1c-0.1,0.4-4,0.6-4,0.6l-3.7-0.2l-2.1-4.1l-7.5-3.4l-9.2,0.2l-3.7-1.7l-69.6-158.8
		l-4-4.7l-4.7-3.5l-60.6-58.8l-13.6-16.7l-27.5-31.6l-18.7,64.6L769.4,353.1z"/>
	<path style="fill:#C96E1D;" d="M769.4,353l-1.7,0.2l-12.2,41.6l21.7,80.6l10.8,28l3.9,8.7l0.5-0.2l-0.5,0.2l27.6,61.8l1.4,0.8
		l0.8-0.8l-0.8,0.8l18.2,10l20.2,27.5l17.1,15.3l1.4-2.7l22.9-28.9l12.3-14.8l50.5-9.7l3.4,3.9l0.6,7.9l6.7,4.3l6.6-0.1l7.5-6
		l10.2-2.9l0.7-2.7l-0.2-3.6c0,0-2.5-1.4-2.6-1c-0.1,0.4-4,0.6-4,0.6l-3.7-0.2l-2.1-4.1l-7.5-3.4l-9.2,0.2l-3.7-1.7l-69.6-158.8
		l-4-4.7l-4.7-3.5l-60.6-58.8l-13.6-16.7l-27.5-31.6l-18.7,64.6L769.4,353z"/>
	<path style="fill:#CA6E1D;" d="M769.4,352.9l-1.7,0.2l-12.2,41.6l21.7,80.6l10.8,28l3.9,8.7l0.5-0.2l-0.5,0.2l27.6,61.8l1.4,0.8
		l0.8-0.8l-0.8,0.8l18.2,10l20.2,27.5l17.1,15.3l1.4-2.7l22.9-28.9L913,581l50.5-9.7l3.4,3.9l0.6,7.9l6.7,4.3l6.6-0.1l7.5-6
		l10.2-2.9l0.7-2.7l-0.2-3.6c0,0-2.5-1.4-2.6-1c-0.1,0.4-4,0.6-4,0.6l-3.7-0.2l-2.1-4.1l-7.5-3.4l-9.2,0.2l-3.7-1.7l-69.6-158.8
		l-4-4.7l-4.7-3.5l-60.6-58.8L813.7,320l-27.5-31.6L767.5,353L769.4,352.9z"/>
	<path style="fill:#CB6F1D;" d="M769.4,352.9l-1.7,0.2l-12.2,41.6l21.7,80.6l10.8,28l3.9,8.7l0.5-0.2l-0.5,0.2l27.6,61.8l1.4,0.8
		l0.8-0.8l-0.8,0.8l18.2,10l20.2,27.5l17.1,15.3l1.4-2.7l22.9-28.9L913,581l50.5-9.7l3.4,3.9l0.6,7.9l6.7,4.3l6.6-0.1l7.5-6
		l10.2-2.9l0.7-2.7l-0.2-3.6c0,0-2.5-1.4-2.6-1c-0.1,0.4-4,0.6-4,0.6l-3.7-0.2l-2.1-4.1l-7.5-3.4l-9.2,0.2l-3.7-1.7l-69.6-158.8
		l-4-4.7l-4.7-3.5l-60.6-58.8L813.7,320l-27.5-31.6L767.5,353L769.4,352.9z"/>
	<path style="fill:#CC6F1C;" d="M769.4,352.8l-1.7,0.2l-12.2,41.6l21.7,80.6l10.8,28l3.9,8.7l0.5-0.2l-0.5,0.2l27.6,61.8l1.4,0.8
		l0.8-0.8l-0.8,0.8l18.2,10l20.2,27.5l17.1,15.3l1.4-2.7l22.9-28.9l12.3-14.8l50.5-9.7l3.4,3.9l0.6,7.9l6.7,4.3l6.6-0.1l7.5-6
		l10.2-2.9l0.7-2.7L999,572c0,0-2.5-1.4-2.6-1c-0.1,0.4-4,0.6-4,0.6l-3.7-0.2l-2.1-4.1l-7.5-3.4l-9.2,0.2l-3.7-1.7l-69.6-158.8
		l-4-4.7l-4.7-3.5l-60.6-58.8l-13.6-16.7l-27.5-31.6l-18.7,64.6L769.4,352.8z"/>
	<path style="fill:#CD6F1C;" d="M769.4,352.7l-1.7,0.2l-12.2,41.6l21.7,80.6l10.8,28l3.9,8.7l0.5-0.2l-0.5,0.2l27.6,61.8l1.4,0.8
		l0.8-0.8l-0.8,0.8l18.2,10l20.2,27.5l17.1,15.3l1.4-2.7l22.9-28.9l12.3-14.8l50.5-9.7l3.4,3.9l0.6,7.9l6.7,4.3l6.6-0.1l7.5-6
		l10.2-2.9l0.7-2.7l-0.2-3.6c0,0-2.5-1.4-2.6-1c-0.1,0.4-4,0.6-4,0.6l-3.7-0.2l-2.1-4.1l-7.5-3.4l-9.2,0.2l-3.7-1.7l-69.6-158.8
		l-4-4.7l-4.7-3.5l-60.6-58.8l-13.6-16.7l-27.5-31.6l-18.7,64.6L769.4,352.7z"/>
	<path style="fill:#CE701C;" d="M769.4,352.6l-1.7,0.2l-12.2,41.6l21.7,80.6l10.8,28l3.9,8.7l0.5-0.2l-0.5,0.2l27.6,61.8l1.4,0.8
		l0.8-0.8l-0.8,0.8l18.2,10l20.2,27.5l17.1,15.3l1.4-2.7l22.9-28.9l12.3-14.8l50.5-9.7l3.4,3.9l0.6,7.9l6.7,4.3l6.6-0.1l7.5-6
		l10.2-2.9l0.7-2.7l-0.2-3.6c0,0-2.5-1.4-2.6-1c-0.1,0.4-4,0.6-4,0.6l-3.7-0.2l-2.1-4.1l-7.5-3.4l-9.2,0.2l-3.7-1.7l-69.6-158.8
		l-4-4.7l-4.7-3.5l-60.6-58.8l-13.6-16.7l-27.5-31.6l-18.7,64.6L769.4,352.6z"/>
	<path style="fill:#CF701C;" d="M769.4,352.5l-1.7,0.2l-12.2,41.6l21.7,80.6l10.8,28l3.9,8.7l0.5-0.2l-0.5,0.2l27.6,61.8l1.4,0.8
		l0.8-0.8l-0.8,0.8l18.2,10l20.2,27.5l17.1,15.3l1.4-2.7l22.9-28.9l12.3-14.8l50.5-9.7l3.4,3.9l0.6,7.9l6.7,4.3l6.6-0.1l7.5-6
		l10.2-2.9l0.7-2.7l-0.2-3.6c0,0-2.5-1.4-2.6-1c-0.1,0.4-4,0.6-4,0.6l-3.7-0.2l-2.1-4.1l-7.5-3.4l-9.2,0.2l-3.7-1.7l-69.6-158.8
		l-4-4.7l-4.7-3.5l-60.6-58.8l-13.6-16.7L786.2,288l-18.7,64.6L769.4,352.5z"/>
	<path style="fill:#D0711C;" d="M769.4,352.4l-1.7,0.2l-12.2,41.6l21.7,80.6l10.8,28l3.9,8.7l0.5-0.2l-0.5,0.2l27.6,61.8l1.4,0.8
		l0.8-0.8l-0.8,0.8l18.2,10l20.2,27.5l17.1,15.3l1.4-2.7l22.9-28.9l12.3-14.8l50.5-9.7l3.4,3.9l0.6,7.9l6.7,4.3l6.6-0.1l7.5-6
		l10.2-2.9l0.7-2.7l-0.2-3.6c0,0-2.5-1.4-2.6-1c-0.1,0.4-4,0.6-4,0.6l-3.7-0.2l-2.1-4.1l-7.5-3.4l-9.2,0.2l-3.7-1.7l-69.6-158.8
		l-4-4.7l-4.7-3.5l-60.6-58.8l-13.6-16.7l-27.5-31.6l-18.7,64.6L769.4,352.4z"/>
	<path style="fill:#D1711B;" d="M769.4,352.3l-1.7,0.2l-12.2,41.6l21.7,80.6l10.8,28l3.9,8.7l0.5-0.2l-0.5,0.2l27.6,61.8l1.4,0.8
		l0.8-0.8l-0.8,0.8l18.2,10l20.2,27.5l17.1,15.3l1.4-2.7l22.9-28.9l12.3-14.8l50.5-9.7l3.4,3.9l0.6,7.9l6.7,4.3l6.6-0.1l7.5-6
		l10.2-2.9l0.7-2.7l-0.2-3.6c0,0-2.5-1.4-2.6-1c-0.1,0.4-4,0.6-4,0.6l-3.7-0.2l-2.1-4.1l-7.5-3.4l-9.2,0.2l-3.7-1.7l-69.6-158.8
		l-4-4.7l-4.7-3.5l-60.6-58.8l-13.6-16.7l-27.5-31.6l-18.7,64.6L769.4,352.3z"/>
	<path style="fill:#D2721B;" d="M769.4,352.2l-1.7,0.2L755.5,394l21.7,80.6l10.8,28l3.9,8.7l0.5-0.2l-0.5,0.2l27.6,61.8l1.4,0.8
		l0.8-0.8l-0.8,0.8l18.2,10l20.2,27.5l17.1,15.3l1.4-2.7l22.9-28.9l12.3-14.8l50.5-9.7l3.4,3.9l0.6,7.9l6.7,4.3l6.6-0.1l7.5-6
		l10.2-2.9l0.7-2.7l-0.2-3.6c0,0-2.5-1.4-2.6-1c-0.1,0.4-4,0.6-4,0.6l-3.7-0.2l-2.1-4.1l-7.5-3.4l-9.2,0.2l-3.7-1.7L896.6,403
		l-4-4.7l-4.7-3.5L827.3,336l-13.6-16.7l-27.5-31.6l-18.7,64.6L769.4,352.2z"/>
	<path style="fill:#D3721B;" d="M769.4,352.1l-1.7,0.2l-12.2,41.6l21.7,80.6l10.8,28l3.9,8.7l0.5-0.2l-0.5,0.2l27.6,61.8l1.4,0.8
		l0.8-0.8l-0.8,0.8l18.2,10l20.2,27.5l17.1,15.3l1.4-2.7l22.9-28.9l12.3-14.8l50.5-9.7l3.4,3.9l0.6,7.9l6.7,4.3l6.6-0.1l7.5-6
		l10.2-2.9l0.7-2.7l-0.2-3.6c0,0-2.5-1.4-2.6-1c-0.1,0.4-4,0.6-4,0.6l-3.7-0.2l-2.1-4.1l-7.5-3.4l-9.2,0.2l-3.7-1.7l-69.6-158.8
		l-4-4.7l-4.7-3.5l-60.6-58.8l-13.6-16.7l-27.5-31.6l-18.7,64.6L769.4,352.1z"/>
	<path style="fill:#D4721B;" d="M769.4,352.1l-1.7,0.2l-12.2,41.6l21.7,80.6l10.8,28l3.9,8.7l0.5-0.2l-0.5,0.2l27.6,61.8l1.4,0.8
		l0.8-0.8l-0.8,0.8l18.2,10l20.2,27.5l17.1,15.3l1.4-2.7l22.9-28.9l12.3-14.8l50.5-9.7l3.4,3.9l0.6,7.9l6.7,4.3l6.6-0.1l7.5-6
		l10.2-2.9l0.7-2.7l-0.2-3.6c0,0-2.5-1.4-2.6-1c-0.1,0.4-4,0.6-4,0.6l-3.7-0.2l-2.1-4.1l-7.5-3.4l-9.2,0.2l-3.7-1.7l-69.6-158.8
		l-4-4.7l-4.7-3.5l-60.6-58.8l-13.6-16.7l-27.5-31.6l-18.7,64.6L769.4,352.1z"/>
	<path style="fill:#D5731B;" d="M769.4,352l-1.7,0.2l-12.2,41.6l21.7,80.6l10.8,28l3.9,8.7l0.5-0.2l-0.5,0.2l27.6,61.8l1.4,0.8
		l0.8-0.8l-0.8,0.8l18.2,10l20.2,27.5l17.1,15.3l1.4-2.7l22.9-28.9l12.3-14.8l50.5-9.7l3.4,3.9l0.6,7.9l6.7,4.3l6.6-0.1l7.5-6
		l10.2-2.9l0.7-2.7l-0.2-3.6c0,0-2.5-1.4-2.6-1c-0.1,0.4-4,0.6-4,0.6l-3.7-0.2l-2.1-4.1l-7.5-3.4l-9.2,0.2l-3.7-1.7l-69.6-158.8
		l-4-4.7l-4.7-3.5l-60.6-58.8l-13.6-16.7l-27.5-31.6l-18.7,64.6L769.4,352z"/>
	<path style="fill:#D6731A;" d="M769.4,351.9l-1.7,0.2l-12.2,41.6l21.7,80.6l10.8,28l3.9,8.7l0.5-0.2l-0.5,0.2l27.6,61.8l1.4,0.8
		l0.8-0.8l-0.8,0.8l18.2,10l20.2,27.5l17.1,15.3l1.4-2.7l22.9-28.9L913,580l50.5-9.7l3.4,3.9l0.6,7.9l6.7,4.3l6.6-0.1l7.5-6
		l10.2-2.9l0.7-2.7l-0.2-3.6c0,0-2.5-1.4-2.6-1c-0.1,0.4-4,0.6-4,0.6l-3.7-0.2l-2.1-4.1l-7.5-3.4l-9.2,0.2l-3.7-1.7l-69.6-158.8
		l-4-4.7l-4.7-3.5l-60.6-58.8L813.7,319l-27.5-31.6L767.5,352L769.4,351.9z"/>
	<path style="fill:#D7741A;" d="M769.4,351.8l-1.7,0.2l-12.2,41.6l21.7,80.6l10.8,28l3.9,8.7l0.5-0.2l-0.5,0.2l27.6,61.8l1.4,0.8
		l0.8-0.8l-0.8,0.8l18.2,10l20.2,27.5l17.1,15.3l1.4-2.7l22.9-28.9l12.3-14.8l50.5-9.7l3.4,3.9l0.6,7.9l6.7,4.3l6.6-0.1l7.5-6
		l10.2-2.9l0.7-2.7L999,571c0,0-2.5-1.4-2.6-1c-0.1,0.4-4,0.6-4,0.6l-3.7-0.2l-2.1-4.1l-7.5-3.4l-9.2,0.2l-3.7-1.7l-69.6-158.8
		l-4-4.7l-4.7-3.5l-60.6-58.8l-13.6-16.7l-27.5-31.6l-18.7,64.6L769.4,351.8z"/>
	<path style="fill:#D8741A;" d="M769.4,351.7l-1.7,0.2l-12.2,41.6l21.7,80.6l10.8,28l3.9,8.7l0.5-0.2l-0.5,0.2l27.6,61.8l1.4,0.8
		l0.8-0.8l-0.8,0.8l18.2,10l20.2,27.5l17.1,15.3l1.4-2.7l22.9-28.9l12.3-14.8l50.5-9.7l3.4,3.9l0.6,7.9l6.7,4.3l6.6-0.1l7.5-6
		l10.2-2.9l0.7-2.7l-0.2-3.6c0,0-2.5-1.4-2.6-1c-0.1,0.4-4,0.6-4,0.6l-3.7-0.2l-2.1-4.1l-7.5-3.4l-9.2,0.2l-3.7-1.7l-69.6-158.8
		l-4-4.7l-4.7-3.5l-60.6-58.8l-13.6-16.7l-27.5-31.6l-18.7,64.6L769.4,351.7z"/>
</g>
<g>
	<path style="fill:#FFFFFF;" d="M810.7,490.6c-0.3,1.1-0.7,2-1.2,2.8l-0.6-0.4c0.5-0.8,0.9-1.6,1.1-2.6L810.7,490.6z M809.1,487.3
		h1.2c-0.2-0.4-0.3-0.8-0.6-1.2l0.7-0.2c0.2,0.4,0.4,0.9,0.6,1.4h1.2c0.2-0.4,0.4-0.9,0.6-1.5l0.7,0.2c-0.2,0.5-0.4,0.9-0.6,1.2h1.2
		v0.7H812v1.2h1.9v0.7H812v3c0,0.6-0.3,0.9-0.9,0.9h-0.6l-0.2-0.7c0.2,0,0.4,0.1,0.5,0.1c0.3,0,0.4-0.1,0.4-0.4v-2.8h-2v-0.7h2V488
		h-2.1C809.1,488,809.1,487.3,809.1,487.3z M809.2,484.9h2.1c-0.2-0.4-0.4-0.7-0.6-0.9l0.8-0.1c0.2,0.3,0.3,0.7,0.5,1.1h2v0.7h-4.7
		L809.2,484.9L809.2,484.9z M812.9,490.4c0.3,0.7,0.6,1.4,0.7,1.9l-0.6,0.2c-0.2-0.7-0.5-1.4-0.7-2L812.9,490.4z M818.3,484.7
		c-1,0.4-2,0.6-3.1,0.6v1.9h3.5v0.7h-1.1v5.6h-0.8v-5.6h-1.6v1.3c-0.1,1.8-0.5,3.3-1.2,4.4l-0.5-0.6c0.6-0.9,1-2.2,1-3.8v-4.6
		c1.3,0,2.4-0.3,3.5-0.7L818.3,484.7z"/>
	<path style="fill:#FFFFFF;" d="M819.5,486.7h1V484h0.7v2.7h0.9v0.7h-0.9v3.2c0.3-0.1,0.6-0.3,0.9-0.5v0.7c-0.8,0.5-1.6,0.8-2.5,1.2
		l-0.2-0.7c0.4-0.1,0.7-0.2,1.1-0.4v-3.6h-1V486.7z M823.4,488.4L823.4,488.4c0,2.2-0.5,3.9-1.5,5l-0.6-0.5c0.8-1.1,1.2-2.6,1.3-4.6
		v-2.8h3.1c0-0.3,0-0.9,0-1.6h0.7c0,0.6,0,1.1,0,1.6h2.4v0.7h-2.4c0.1,1.4,0.2,2.4,0.3,3.1c0,0.1,0.1,0.3,0.1,0.6
		c0.4-0.8,0.7-1.7,0.9-2.7l0.6,0.3c-0.3,1.4-0.8,2.5-1.3,3.4c0.1,0.3,0.2,0.6,0.4,0.9c0.3,0.5,0.5,0.8,0.6,0.8s0.3-0.5,0.4-1.6
		l0.6,0.4c-0.2,1.4-0.5,2.1-0.9,2.1c-0.4,0-0.7-0.3-1.1-1c-0.2-0.3-0.3-0.6-0.5-0.9c-0.6,0.8-1.3,1.5-2.1,1.9l-0.5-0.6
		c0.9-0.5,1.7-1.2,2.3-2.1c-0.1-0.3-0.2-0.7-0.3-1.2c-0.2-0.9-0.3-2-0.4-3.4h-2.4v1.5h1.8c0,1.9-0.1,3.1-0.2,3.5
		c-0.1,0.4-0.4,0.6-0.8,0.6h-0.7l-0.2-0.6h0.7c0.2,0,0.4-0.2,0.4-0.5c0.1-0.3,0.1-1.1,0.1-2.3H823.4z M827.7,484
		c0.3,0.4,0.5,0.8,0.7,1.3l-0.6,0.2c-0.2-0.5-0.5-1-0.7-1.3L827.7,484z"/>
	<path style="fill:#FFFFFF;" d="M830.7,484.6h8.2v0.7h-1.8v2.8h2.3v0.7h-2.3v4.7h-0.8v-4.7h-3.1c-0.1,1.1-0.3,2-0.6,2.7
		c-0.4,0.9-1.1,1.6-2,2.1l-0.4-0.7c0.9-0.5,1.5-1.1,1.8-1.9c0.2-0.6,0.4-1.3,0.5-2.2H830v-0.7h2.5v-0.4v-2.4h-1.9L830.7,484.6
		L830.7,484.6z M833.4,485.3v2.6v0.2h3v-2.8H833.4z"/>
	<path style="fill:#FFFFFF;" d="M841.3,487.2l0.8-3l0.8,0.1l-0.6,2.1h1.9c0.2-0.8,0.4-1.7,0.5-2.6l0.8,0.1c-0.1,0.8-0.3,1.7-0.5,2.5
		h4.9v0.7h-5.1c-0.1,0.5-0.3,0.9-0.4,1.2h4.4v0.7c-0.3,0.9-0.9,1.8-1.7,2.5c0.9,0.5,1.9,1,3.1,1.4l-0.4,0.7c-1.4-0.5-2.5-1-3.4-1.6
		c-0.9,0.6-1.9,1.2-3.2,1.7l-0.4-0.7c1.2-0.4,2.2-0.9,3-1.4c-0.8-0.6-1.4-1.3-1.8-2.1c-0.8,1.7-1.8,3-3,4l-0.4-0.7
		c1.5-1.4,2.7-3.2,3.4-5.5C844,487.2,841.3,487.2,841.3,487.2z M844.4,489.1c0.4,0.7,1,1.4,1.8,2c0.8-0.6,1.3-1.3,1.6-2H844.4z
		 M847.2,484c0.7,0.6,1.4,1.2,1.9,1.8l-0.5,0.5c-0.4-0.5-1.1-1.1-1.9-1.8L847.2,484z"/>
	<path style="fill:#FFFFFF;" d="M860.6,492.7l-0.1,0.7h-3c-1.9,0-3.3-0.3-4.1-0.8c-0.2-0.1-0.3-0.2-0.4-0.3
		c-0.3,0.5-0.8,0.9-1.3,1.3l-0.5-0.6c0.5-0.4,0.9-0.8,1.3-1.3c-0.4-0.6-0.8-1.4-1-2.3l0.6-0.2c0.2,0.7,0.5,1.4,0.7,1.8
		c0.4-0.8,0.6-1.6,0.6-2.6h-2v-0.6c0.6-0.8,1.2-1.7,1.7-2.6h-1.7v-0.7h2.6v0.6c-0.5,0.9-1,1.7-1.6,2.5h1.7v0.5
		c0,1.4-0.3,2.6-0.8,3.6c0.2,0.2,0.3,0.3,0.5,0.4c0.7,0.4,1.8,0.6,3.3,0.6C858.1,492.7,859.2,492.7,860.6,492.7z M859.8,488.3h-2.3
		v0.9h2.5v0.6h-2.5v0.9h2.8v0.6h-2.8v1.1h-0.7v-1.1h-2.3v-0.6h2.4v-0.9h-2.1v-0.6h2.1v-0.9H855v-0.6h1.9v-0.9h-2.4v-0.6h2.4v-0.8
		H855v-0.6h1.9V484h0.7v0.8h2.3v1.5h0.7v0.6h-0.7v1.4H859.8z M857.6,485.3v0.8h1.5v-0.8H857.6z M857.6,486.8v0.9h1.5v-0.9H857.6z"/>
	<path style="fill:#FFFFFF;" d="M861.6,487.2h2.2v4.7c0.4-0.4,0.9-0.7,1.2-1.1l0.2,0.8c-0.7,0.6-1.4,1.2-2.1,1.7l-0.3-0.7
		c0.2-0.2,0.2-0.3,0.2-0.5v-4.2h-1.5L861.6,487.2L861.6,487.2z M862.8,484.2c0.7,0.5,1.3,1.1,1.8,1.6l-0.5,0.5
		c-0.4-0.5-1-1.1-1.8-1.6L862.8,484.2z M865.4,488.5h5v0.7c-0.3,1-0.9,1.9-1.7,2.6c0.7,0.5,1.6,0.9,2.6,1.3l-0.4,0.7
		c-1.1-0.5-2.1-1-2.8-1.5c-0.8,0.6-1.9,1.1-3.1,1.5l-0.4-0.6c1.2-0.4,2.2-0.8,3-1.4c-0.8-0.7-1.4-1.6-1.6-2.5h-0.7v-0.8H865.4z
		 M866.2,484.4h3.6v2.3c0,0.3,0.1,0.4,0.4,0.4h1v0.7H870c-0.7,0-1-0.3-1-0.9v-1.7h-2.1v0.4c0,1.1-0.5,2-1.6,2.6l-0.5-0.6
		c0.9-0.5,1.4-1.1,1.4-1.9C866.2,485.6,866.2,484.4,866.2,484.4z M866.7,489.2c0.3,0.8,0.8,1.5,1.5,2.1c0.7-0.6,1.2-1.3,1.5-2.1
		H866.7z"/>
	<path style="fill:#FFFFFF;" d="M876.6,484h0.8v1.9h3.8v4.9h-0.8v-0.7h-3.1v3.6h-0.8v-3.6h-3v0.7h-0.8v-4.9h3.8L876.6,484L876.6,484
		z M873.5,489.4h3v-2.8h-3V489.4z M877.3,489.4h3.1v-2.8h-3.1V489.4z"/>
	<path style="fill:#FFFFFF;" d="M884.5,487.4c-0.3,1.8-0.7,3.4-1.3,4.7l-0.7-0.4c0.5-1.3,0.9-2.8,1.2-4.5L884.5,487.4z M886.5,493.3
		c-0.7,0-1.1-0.4-1.1-1.1v-6h0.8v5.8c0,0.3,0.2,0.5,0.6,0.5h2c0.3,0,0.4-0.1,0.5-0.3c0.1-0.3,0.2-1,0.3-2.2l0.7,0.2
		c-0.1,1.5-0.2,2.3-0.5,2.7c-0.2,0.3-0.5,0.4-0.9,0.4C888.8,493.3,886.5,493.3,886.5,493.3z M886.7,484.1c1,1,1.7,1.9,2.3,2.7
		l-0.6,0.4c-0.6-0.9-1.3-1.8-2.3-2.8L886.7,484.1z M890.6,487c0.7,1.3,1.3,2.8,1.8,4.4l-0.7,0.3c-0.6-1.7-1.2-3.2-1.8-4.5L890.6,487
		z"/>
</g>
</svg>
