<?xml version="1.0" encoding="utf-8"?>
<!-- Generator: Adobe Illustrator 17.0.0, SVG Export Plug-In . SVG Version: 6.00 Build 0)  -->
<!DOCTYPE svg PUBLIC "-//W3C//DTD SVG 1.1//EN" "http://www.w3.org/Graphics/SVG/1.1/DTD/svg11.dtd">
<svg version="1.1" id="图层_1" xmlns="http://www.w3.org/2000/svg" xmlns:xlink="http://www.w3.org/1999/xlink" x="0px" y="0px"
	 preserveAspectRatio="none" viewBox="334.5 252.5 730 500" style="enable-background:new 334.5 252.5 730 500;"
	 xml:space="preserve">
<g>
	<polygon style="fill:#0E2142;" points="491.5,585.3 486,581.6 484.5,571.1 475.7,565.8 483.1,560 479.8,555.9 473.3,555.9 
		477.3,550.3 443.9,531.3 450.6,524.7 451.5,515.6 449.2,510.5 447.8,508.1 442,508.9 429.6,504.6 426.3,505.9 424.3,505.9 
		424.3,502.1 419,499.7 416.6,504.4 412.4,502.9 412.4,505 411,508.7 409.4,514.1 405.9,518 401.9,521.8 400.7,523.7 398.2,524.3 
		393,526.1 391.2,529.5 384.9,531.4 380.2,532.5 378.7,532.5 376,535.3 376,538.8 377.1,541.3 381.9,544.9 385.5,549.8 386.6,555.1 
		381.7,561.5 378.6,565.8 372.8,570.5 366.9,575.6 364.2,577.9 360.9,581.4 354.6,585.1 349.8,587.9 339.5,592.6 340.9,596.7 
		343.1,601.9 346.6,611.5 349.1,614.3 354.1,615.9 360.6,618.1 367.4,618.8 373.5,618.8 375.6,618 386.3,629.6 394.7,626.6 
		398.3,628 398.2,635 399.2,639.1 402.2,644.4 407,647.5 411.1,648.2 416,647.2 420.4,646.3 422.9,646.3 427.6,646.2 432.2,642.7 
		434.8,640.7 436.2,637.7 442.8,633.3 450.1,632.6 456.4,630 458.2,628.7 464,630.6 469.5,630.7 475.2,630.1 477.4,628.2 
		482.3,629.2 486.4,630.7 490,632 495.3,632 501,629.5 506.5,620.3 508.9,616.2 505.6,594.3 502.1,593 501.2,590.3 492.7,592.1 	"/>
	<polygon style="fill:#182540;" points="491.5,584.4 486,580.7 484.5,570.2 475.7,564.9 483.1,559.1 479.8,555 473.3,555 
		477.3,549.4 443.9,530.4 450.6,523.8 451.5,514.7 449.2,509.6 447.8,507.2 442,508 429.6,503.7 426.3,505 424.3,505 424.3,501.2 
		419,498.8 416.6,503.5 412.4,502 412.4,504.1 411,507.8 409.4,513.2 405.9,517.1 401.9,520.9 400.7,522.8 398.2,523.4 393,525.2 
		391.2,528.6 384.9,530.5 380.2,531.6 378.7,531.6 376,534.4 376,537.9 377.1,540.4 381.9,544 385.5,548.9 386.6,554.2 381.7,560.6 
		378.6,564.9 372.8,569.6 366.9,574.7 364.2,577 360.9,580.5 354.6,584.2 349.8,587 339.5,591.7 340.9,595.8 343.1,601 346.6,610.6 
		349.1,613.4 354.1,615 360.6,617.2 367.4,617.9 373.5,617.9 375.6,617.1 386.3,628.7 394.7,625.7 398.3,627.1 398.2,634.1 
		399.2,638.2 402.2,643.5 407,646.6 411.1,647.3 416,646.3 420.4,645.4 422.9,645.4 427.6,645.3 432.2,641.8 434.8,639.8 
		436.2,636.8 442.8,632.4 450.1,631.7 456.4,629.1 458.2,627.8 464,629.7 469.5,629.8 475.2,629.2 477.4,627.3 482.3,628.3 
		486.4,629.8 490,631.1 495.3,631.1 501,628.6 506.5,619.4 508.9,615.3 505.6,593.4 502.1,592.1 501.2,589.4 492.7,591.2 	"/>
	<polygon style="fill:#21293E;" points="491.5,583.6 486,579.9 484.5,569.4 475.7,564.1 483.1,558.3 479.8,554.2 473.3,554.2 
		477.3,548.6 443.9,529.6 450.6,523 451.5,513.9 449.2,508.8 447.8,506.4 442,507.2 429.6,502.9 426.3,504.2 424.3,504.2 
		424.3,500.4 419,498 416.6,502.7 412.4,501.2 412.4,503.3 411,507 409.4,512.4 405.9,516.3 401.9,520.1 400.7,522 398.2,522.6 
		393,524.4 391.2,527.8 384.9,529.7 380.2,530.8 378.7,530.8 376,533.6 376,537.1 377.1,539.6 381.9,543.2 385.5,548.1 386.6,553.4 
		381.7,559.8 378.6,564.1 372.8,568.8 366.9,573.9 364.2,576.2 360.9,579.7 354.6,583.4 349.8,586.2 339.5,590.9 340.9,595 
		343.1,600.2 346.6,609.8 349.1,612.6 354.1,614.2 360.6,616.4 367.4,617.1 373.5,617.1 375.6,616.3 386.3,627.9 394.7,624.9 
		398.3,626.3 398.2,633.3 399.2,637.4 402.2,642.7 407,645.8 411.1,646.5 416,645.5 420.4,644.6 422.9,644.6 427.6,644.5 432.2,641 
		434.8,639 436.2,636 442.8,631.6 450.1,630.9 456.4,628.3 458.2,627 464,628.9 469.5,629 475.2,628.4 477.4,626.5 482.3,627.5 
		486.4,629 490,630.3 495.3,630.3 501,627.8 506.5,618.6 508.9,614.5 505.6,592.6 502.1,591.3 501.2,588.6 492.7,590.4 	"/>
	<polygon style="fill:#2B2D3C;" points="491.5,582.7 486,579 484.5,568.5 475.7,563.2 483.1,557.4 479.8,553.3 473.3,553.3 
		477.3,547.7 443.9,528.7 450.6,522.1 451.5,513 449.2,507.9 447.8,505.5 442,506.3 429.6,502 426.3,503.3 424.3,503.3 424.3,499.5 
		419,497.1 416.6,501.8 412.4,500.3 412.4,502.4 411,506.1 409.4,511.5 405.9,515.4 401.9,519.2 400.7,521.1 398.2,521.7 393,523.5 
		391.2,526.9 384.9,528.8 380.2,529.9 378.7,529.9 376,532.7 376,536.2 377.1,538.7 381.9,542.3 385.5,547.2 386.6,552.5 
		381.7,558.9 378.6,563.2 372.8,567.9 366.9,573 364.2,575.3 360.9,578.8 354.6,582.5 349.8,585.3 339.5,590 340.9,594.1 
		343.1,599.3 346.6,608.9 349.1,611.7 354.1,613.3 360.6,615.5 367.4,616.2 373.5,616.2 375.6,615.4 386.3,627 394.7,624 
		398.3,625.4 398.2,632.4 399.2,636.5 402.2,641.8 407,644.9 411.1,645.6 416,644.6 420.4,643.7 422.9,643.7 427.6,643.6 
		432.2,640.1 434.8,638.1 436.2,635.1 442.8,630.7 450.1,630 456.4,627.4 458.2,626.1 464,628 469.5,628.1 475.2,627.5 477.4,625.6 
		482.3,626.6 486.4,628.1 490,629.4 495.3,629.4 501,626.9 506.5,617.7 508.9,613.6 505.6,591.7 502.1,590.4 501.2,587.7 
		492.7,589.5 	"/>
	<polygon style="fill:#34313A;" points="491.5,581.9 486,578.2 484.5,567.7 475.7,562.4 483.1,556.6 479.8,552.5 473.3,552.5 
		477.3,546.9 443.9,527.9 450.6,521.3 451.5,512.2 449.2,507.1 447.8,504.7 442,505.5 429.6,501.2 426.3,502.5 424.3,502.5 
		424.3,498.7 419,496.3 416.6,501 412.4,499.5 412.4,501.6 411,505.3 409.4,510.7 405.9,514.6 401.9,518.4 400.7,520.3 398.2,520.9 
		393,522.7 391.2,526.1 384.9,528 380.2,529.1 378.7,529.1 376,531.9 376,535.4 377.1,537.9 381.9,541.5 385.5,546.4 386.6,551.7 
		381.7,558.1 378.6,562.4 372.8,567.1 366.9,572.2 364.2,574.5 360.9,578 354.6,581.7 349.8,584.5 339.5,589.2 340.9,593.3 
		343.1,598.5 346.6,608.1 349.1,610.9 354.1,612.5 360.6,614.7 367.4,615.4 373.5,615.4 375.6,614.6 386.3,626.2 394.7,623.2 
		398.3,624.6 398.2,631.6 399.2,635.7 402.2,641 407,644.1 411.1,644.8 416,643.8 420.4,642.9 422.9,642.9 427.6,642.8 432.2,639.3 
		434.8,637.3 436.2,634.3 442.8,629.9 450.1,629.2 456.4,626.6 458.2,625.3 464,627.2 469.5,627.3 475.2,626.7 477.4,624.8 
		482.3,625.8 486.4,627.3 490,628.6 495.3,628.6 501,626.1 506.5,616.9 508.9,612.8 505.6,590.9 502.1,589.6 501.2,586.9 
		492.7,588.7 	"/>
	<polygon style="fill:#3E3538;" points="491.5,581 486,577.3 484.5,566.8 475.7,561.5 483.1,555.7 479.8,551.6 473.3,551.6 
		477.3,546 443.9,527 450.6,520.4 451.5,511.3 449.2,506.2 447.8,503.8 442,504.6 429.6,500.3 426.3,501.6 424.3,501.6 424.3,497.8 
		419,495.4 416.6,500.1 412.4,498.6 412.4,500.7 411,504.4 409.4,509.8 405.9,513.7 401.9,517.5 400.7,519.4 398.2,520 393,521.8 
		391.2,525.2 384.9,527.1 380.2,528.2 378.7,528.2 376,531 376,534.5 377.1,537 381.9,540.6 385.5,545.5 386.6,550.8 381.7,557.2 
		378.6,561.5 372.8,566.2 366.9,571.3 364.2,573.6 360.9,577.1 354.6,580.8 349.8,583.6 339.5,588.3 340.9,592.4 343.1,597.6 
		346.6,607.2 349.1,610 354.1,611.6 360.6,613.8 367.4,614.5 373.5,614.5 375.6,613.7 386.3,625.3 394.7,622.3 398.3,623.7 
		398.2,630.7 399.2,634.8 402.2,640.1 407,643.2 411.1,643.9 416,642.9 420.4,642 422.9,642 427.6,641.9 432.2,638.4 434.8,636.4 
		436.2,633.4 442.8,629 450.1,628.3 456.4,625.7 458.2,624.4 464,626.3 469.5,626.4 475.2,625.8 477.4,623.9 482.3,624.9 
		486.4,626.4 490,627.7 495.3,627.7 501,625.2 506.5,616 508.9,611.9 505.6,590 502.1,588.7 501.2,586 492.7,587.8 	"/>
	<polygon style="fill:#483937;" points="491.5,580.2 486,576.5 484.5,566 475.7,560.7 483.1,554.9 479.8,550.8 473.3,550.8 
		477.3,545.2 443.9,526.2 450.6,519.6 451.5,510.5 449.2,505.4 447.8,503 442,503.8 429.6,499.5 426.3,500.8 424.3,500.8 424.3,497 
		419,494.6 416.6,499.3 412.4,497.8 412.4,499.9 411,503.6 409.4,509 405.9,512.9 401.9,516.7 400.7,518.6 398.2,519.2 393,521 
		391.2,524.4 384.9,526.3 380.2,527.4 378.7,527.4 376,530.2 376,533.7 377.1,536.2 381.9,539.8 385.5,544.7 386.6,550 381.7,556.4 
		378.6,560.7 372.8,565.4 366.9,570.5 364.2,572.8 360.9,576.3 354.6,580 349.8,582.8 339.5,587.5 340.9,591.6 343.1,596.8 
		346.6,606.4 349.1,609.2 354.1,610.8 360.6,613 367.4,613.7 373.5,613.7 375.6,612.9 386.3,624.5 394.7,621.5 398.3,622.9 
		398.2,629.9 399.2,634 402.2,639.3 407,642.4 411.1,643.1 416,642.1 420.4,641.2 422.9,641.2 427.6,641.1 432.2,637.6 434.8,635.6 
		436.2,632.6 442.8,628.2 450.1,627.5 456.4,624.9 458.2,623.6 464,625.5 469.5,625.6 475.2,625 477.4,623.1 482.3,624.1 
		486.4,625.6 490,626.9 495.3,626.9 501,624.4 506.5,615.2 508.9,611.1 505.6,589.2 502.1,587.9 501.2,585.2 492.7,587 	"/>
	<polygon style="fill:#513D35;" points="491.5,579.3 486,575.6 484.5,565.1 475.7,559.8 483.1,554 479.8,549.9 473.3,549.9 
		477.3,544.3 443.9,525.3 450.6,518.7 451.5,509.6 449.2,504.5 447.8,502.1 442,502.9 429.6,498.6 426.3,499.9 424.3,499.9 
		424.3,496.1 419,493.7 416.6,498.4 412.4,496.9 412.4,499 411,502.7 409.4,508.1 405.9,512 401.9,515.8 400.7,517.7 398.2,518.3 
		393,520.1 391.2,523.5 384.9,525.4 380.2,526.5 378.7,526.5 376,529.3 376,532.8 377.1,535.3 381.9,538.9 385.5,543.8 386.6,549.1 
		381.7,555.5 378.6,559.8 372.8,564.5 366.9,569.6 364.2,571.9 360.9,575.4 354.6,579.1 349.8,581.9 339.5,586.6 340.9,590.7 
		343.1,595.9 346.6,605.5 349.1,608.3 354.1,609.9 360.6,612.1 367.4,612.8 373.5,612.8 375.6,612 386.3,623.6 394.7,620.6 
		398.3,622 398.2,629 399.2,633.1 402.2,638.4 407,641.5 411.1,642.2 416,641.2 420.4,640.3 422.9,640.3 427.6,640.2 432.2,636.7 
		434.8,634.7 436.2,631.7 442.8,627.3 450.1,626.6 456.4,624 458.2,622.7 464,624.6 469.5,624.7 475.2,624.1 477.4,622.2 
		482.3,623.2 486.4,624.7 490,626 495.3,626 501,623.5 506.5,614.3 508.9,610.2 505.6,588.3 502.1,587 501.2,584.3 492.7,586.1 	"/>
	<polygon style="fill:#5B4133;" points="491.5,578.4 486,574.7 484.5,564.2 475.7,558.9 483.1,553.1 479.8,549 473.3,549 
		477.3,543.4 443.9,524.4 450.6,517.8 451.5,508.7 449.2,503.6 447.8,501.2 442,502 429.6,497.7 426.3,499 424.3,499 424.3,495.2 
		419,492.8 416.6,497.5 412.4,496 412.4,498.1 411,501.8 409.4,507.2 405.9,511.1 401.9,514.9 400.7,516.8 398.2,517.4 393,519.2 
		391.2,522.6 384.9,524.5 380.2,525.6 378.7,525.6 376,528.4 376,531.9 377.1,534.4 381.9,538 385.5,542.9 386.6,548.2 381.7,554.6 
		378.6,558.9 372.8,563.6 366.9,568.7 364.2,571 360.9,574.5 354.6,578.2 349.8,581 339.5,585.7 340.9,589.8 343.1,595 346.6,604.6 
		349.1,607.4 354.1,609 360.6,611.2 367.4,611.9 373.5,611.9 375.6,611.1 386.3,622.7 394.7,619.7 398.3,621.1 398.2,628.1 
		399.2,632.2 402.2,637.5 407,640.6 411.1,641.3 416,640.3 420.4,639.4 422.9,639.4 427.6,639.3 432.2,635.8 434.8,633.8 
		436.2,630.8 442.8,626.4 450.1,625.7 456.4,623.1 458.2,621.8 464,623.7 469.5,623.8 475.2,623.2 477.4,621.3 482.3,622.3 
		486.4,623.8 490,625.1 495.3,625.1 501,622.6 506.5,613.4 508.9,609.3 505.6,587.4 502.1,586.1 501.2,583.4 492.7,585.2 	"/>
	<polygon style="fill:#654531;" points="491.5,577.6 486,573.9 484.5,563.4 475.7,558.1 483.1,552.3 479.8,548.2 473.3,548.2 
		477.3,542.6 443.9,523.6 450.6,517 451.5,507.9 449.2,502.8 447.8,500.4 442,501.2 429.6,496.9 426.3,498.2 424.3,498.2 
		424.3,494.4 419,492 416.6,496.7 412.4,495.2 412.4,497.3 411,501 409.4,506.4 405.9,510.3 401.9,514.1 400.7,516 398.2,516.6 
		393,518.4 391.2,521.8 384.9,523.7 380.2,524.8 378.7,524.8 376,527.6 376,531.1 377.1,533.6 381.9,537.2 385.5,542.1 386.6,547.4 
		381.7,553.8 378.6,558.1 372.8,562.8 366.9,567.9 364.2,570.2 360.9,573.7 354.6,577.4 349.8,580.2 339.5,584.9 340.9,589 
		343.1,594.2 346.6,603.8 349.1,606.6 354.1,608.2 360.6,610.4 367.4,611.1 373.5,611.1 375.6,610.3 386.3,621.9 394.7,618.9 
		398.3,620.3 398.2,627.3 399.2,631.4 402.2,636.7 407,639.8 411.1,640.5 416,639.5 420.4,638.6 422.9,638.6 427.6,638.5 432.2,635 
		434.8,633 436.2,630 442.8,625.6 450.1,624.9 456.4,622.3 458.2,621 464,622.9 469.5,623 475.2,622.4 477.4,620.5 482.3,621.5 
		486.4,623 490,624.3 495.3,624.3 501,621.8 506.5,612.6 508.9,608.5 505.6,586.6 502.1,585.3 501.2,582.6 492.7,584.4 	"/>
	<polygon style="fill:#6E492F;" points="491.5,576.7 486,573 484.5,562.5 475.7,557.2 483.1,551.4 479.8,547.3 473.3,547.3 
		477.3,541.7 443.9,522.7 450.6,516.1 451.5,507 449.2,501.9 447.8,499.5 442,500.3 429.6,496 426.3,497.3 424.3,497.3 424.3,493.5 
		419,491.1 416.6,495.8 412.4,494.3 412.4,496.4 411,500.1 409.4,505.5 405.9,509.4 401.9,513.2 400.7,515.1 398.2,515.7 393,517.5 
		391.2,520.9 384.9,522.8 380.2,523.9 378.7,523.9 376,526.7 376,530.2 377.1,532.7 381.9,536.3 385.5,541.2 386.6,546.5 
		381.7,552.9 378.6,557.2 372.8,561.9 366.9,567 364.2,569.3 360.9,572.8 354.6,576.5 349.8,579.3 339.5,584 340.9,588.1 
		343.1,593.3 346.6,602.9 349.1,605.7 354.1,607.3 360.6,609.5 367.4,610.2 373.5,610.2 375.6,609.4 386.3,621 394.7,618 
		398.3,619.4 398.2,626.4 399.2,630.5 402.2,635.8 407,638.9 411.1,639.6 416,638.6 420.4,637.7 422.9,637.7 427.6,637.6 
		432.2,634.1 434.8,632.1 436.2,629.1 442.8,624.7 450.1,624 456.4,621.4 458.2,620.1 464,622 469.5,622.1 475.2,621.5 477.4,619.6 
		482.3,620.6 486.4,622.1 490,623.4 495.3,623.4 501,620.9 506.5,611.7 508.9,607.6 505.6,585.7 502.1,584.4 501.2,581.7 
		492.7,583.5 	"/>
	<polygon style="fill:#784C2D;" points="491.5,575.9 486,572.2 484.5,561.7 475.7,556.4 483.1,550.6 479.8,546.5 473.3,546.5 
		477.3,540.9 443.9,521.9 450.6,515.3 451.5,506.2 449.2,501.1 447.8,498.7 442,499.5 429.6,495.2 426.3,496.5 424.3,496.5 
		424.3,492.7 419,490.3 416.6,495 412.4,493.5 412.4,495.6 411,499.3 409.4,504.7 405.9,508.6 401.9,512.4 400.7,514.3 398.2,514.9 
		393,516.7 391.2,520.1 384.9,522 380.2,523.1 378.7,523.1 376,525.9 376,529.4 377.1,531.9 381.9,535.5 385.5,540.4 386.6,545.7 
		381.7,552.1 378.6,556.4 372.8,561.1 366.9,566.2 364.2,568.5 360.9,572 354.6,575.7 349.8,578.5 339.5,583.2 340.9,587.3 
		343.1,592.5 346.6,602.1 349.1,604.9 354.1,606.5 360.6,608.7 367.4,609.4 373.5,609.4 375.6,608.6 386.3,620.2 394.7,617.2 
		398.3,618.6 398.2,625.6 399.2,629.7 402.2,635 407,638.1 411.1,638.8 416,637.8 420.4,636.9 422.9,636.9 427.6,636.8 432.2,633.3 
		434.8,631.3 436.2,628.3 442.8,623.9 450.1,623.2 456.4,620.6 458.2,619.3 464,621.2 469.5,621.3 475.2,620.7 477.4,618.8 
		482.3,619.8 486.4,621.3 490,622.6 495.3,622.6 501,620.1 506.5,610.9 508.9,606.8 505.6,584.9 502.1,583.6 501.2,580.9 
		492.7,582.7 	"/>
	<polygon style="fill:#81502B;" points="491.5,575 486,571.3 484.5,560.8 475.7,555.5 483.1,549.7 479.8,545.6 473.3,545.6 
		477.3,540 443.9,521 450.6,514.4 451.5,505.3 449.2,500.2 447.8,497.8 442,498.6 429.6,494.3 426.3,495.6 424.3,495.6 424.3,491.8 
		419,489.4 416.6,494.1 412.4,492.6 412.4,494.7 411,498.4 409.4,503.8 405.9,507.7 401.9,511.5 400.7,513.4 398.2,514 393,515.8 
		391.2,519.2 384.9,521.1 380.2,522.2 378.7,522.2 376,525 376,528.5 377.1,531 381.9,534.6 385.5,539.5 386.6,544.8 381.7,551.2 
		378.6,555.5 372.8,560.2 366.9,565.3 364.2,567.6 360.9,571.1 354.6,574.8 349.8,577.6 339.5,582.3 340.9,586.4 343.1,591.6 
		346.6,601.2 349.1,604 354.1,605.6 360.6,607.8 367.4,608.5 373.5,608.5 375.6,607.7 386.3,619.3 394.7,616.3 398.3,617.7 
		398.2,624.7 399.2,628.8 402.2,634.1 407,637.2 411.1,637.9 416,636.9 420.4,636 422.9,636 427.6,635.9 432.2,632.4 434.8,630.4 
		436.2,627.4 442.8,623 450.1,622.3 456.4,619.7 458.2,618.4 464,620.3 469.5,620.4 475.2,619.8 477.4,617.9 482.3,618.9 
		486.4,620.4 490,621.7 495.3,621.7 501,619.2 506.5,610 508.9,605.9 505.6,584 502.1,582.7 501.2,580 492.7,581.8 	"/>
	<polygon style="fill:#8B5429;" points="491.5,574.2 486,570.5 484.5,560 475.7,554.7 483.1,548.9 479.8,544.8 473.3,544.8 
		477.3,539.2 443.9,520.2 450.6,513.6 451.5,504.5 449.2,499.4 447.8,497 442,497.8 429.6,493.5 426.3,494.8 424.3,494.8 424.3,491 
		419,488.6 416.6,493.3 412.4,491.8 412.4,493.9 411,497.6 409.4,503 405.9,506.9 401.9,510.7 400.7,512.6 398.2,513.2 393,515 
		391.2,518.4 384.9,520.3 380.2,521.4 378.7,521.4 376,524.2 376,527.7 377.1,530.2 381.9,533.8 385.5,538.7 386.6,544 381.7,550.4 
		378.6,554.7 372.8,559.4 366.9,564.5 364.2,566.8 360.9,570.3 354.6,574 349.8,576.8 339.5,581.5 340.9,585.6 343.1,590.8 
		346.6,600.4 349.1,603.2 354.1,604.8 360.6,607 367.4,607.7 373.5,607.7 375.6,606.9 386.3,618.5 394.7,615.5 398.3,616.9 
		398.2,623.9 399.2,628 402.2,633.3 407,636.4 411.1,637.1 416,636.1 420.4,635.2 422.9,635.2 427.6,635.1 432.2,631.6 434.8,629.6 
		436.2,626.6 442.8,622.2 450.1,621.5 456.4,618.9 458.2,617.6 464,619.5 469.5,619.6 475.2,619 477.4,617.1 482.3,618.1 
		486.4,619.6 490,620.9 495.3,620.9 501,618.4 506.5,609.2 508.9,605.1 505.6,583.2 502.1,581.9 501.2,579.2 492.7,581 	"/>
	<polygon style="fill:#955827;" points="491.5,573.3 486,569.6 484.5,559.1 475.7,553.8 483.1,548 479.8,543.9 473.3,543.9 
		477.3,538.3 443.9,519.3 450.6,512.7 451.5,503.6 449.2,498.5 447.8,496.1 442,496.9 429.6,492.6 426.3,493.9 424.3,493.9 
		424.3,490.1 419,487.7 416.6,492.4 412.4,490.9 412.4,493 411,496.7 409.4,502.1 405.9,506 401.9,509.8 400.7,511.7 398.2,512.3 
		393,514.1 391.2,517.5 384.9,519.4 380.2,520.5 378.7,520.5 376,523.3 376,526.8 377.1,529.3 381.9,532.9 385.5,537.8 386.6,543.1 
		381.7,549.5 378.6,553.8 372.8,558.5 366.9,563.6 364.2,565.9 360.9,569.4 354.6,573.1 349.8,575.9 339.5,580.6 340.9,584.7 
		343.1,589.9 346.6,599.5 349.1,602.3 354.1,603.9 360.6,606.1 367.4,606.8 373.5,606.8 375.6,606 386.3,617.6 394.7,614.6 
		398.3,616 398.2,623 399.2,627.1 402.2,632.4 407,635.5 411.1,636.2 416,635.2 420.4,634.3 422.9,634.3 427.6,634.2 432.2,630.7 
		434.8,628.7 436.2,625.7 442.8,621.3 450.1,620.6 456.4,618 458.2,616.7 464,618.6 469.5,618.7 475.2,618.1 477.4,616.2 
		482.3,617.2 486.4,618.7 490,620 495.3,620 501,617.5 506.5,608.3 508.9,604.2 505.6,582.3 502.1,581 501.2,578.3 492.7,580.1 	"/>
	<polygon style="fill:#9E5C25;" points="491.5,572.4 486,568.7 484.5,558.2 475.7,552.9 483.1,547.1 479.8,543 473.3,543 
		477.3,537.4 443.9,518.4 450.6,511.8 451.5,502.7 449.2,497.6 447.8,495.2 442,496 429.6,491.7 426.3,493 424.3,493 424.3,489.2 
		419,486.8 416.6,491.5 412.4,490 412.4,492.1 411,495.8 409.4,501.2 405.9,505.1 401.9,508.9 400.7,510.8 398.2,511.4 393,513.2 
		391.2,516.6 384.9,518.5 380.2,519.6 378.7,519.6 376,522.4 376,525.9 377.1,528.4 381.9,532 385.5,536.9 386.6,542.2 381.7,548.6 
		378.6,552.9 372.8,557.6 366.9,562.7 364.2,565 360.9,568.5 354.6,572.2 349.8,575 339.5,579.7 340.9,583.8 343.1,589 346.6,598.6 
		349.1,601.4 354.1,603 360.6,605.2 367.4,605.9 373.5,605.9 375.6,605.1 386.3,616.7 394.7,613.7 398.3,615.1 398.2,622.1 
		399.2,626.2 402.2,631.5 407,634.6 411.1,635.3 416,634.3 420.4,633.4 422.9,633.4 427.6,633.3 432.2,629.8 434.8,627.8 
		436.2,624.8 442.8,620.4 450.1,619.7 456.4,617.1 458.2,615.8 464,617.7 469.5,617.8 475.2,617.2 477.4,615.3 482.3,616.3 
		486.4,617.8 490,619.1 495.3,619.1 501,616.6 506.5,607.4 508.9,603.3 505.6,581.4 502.1,580.1 501.2,577.4 492.7,579.2 	"/>
	<polygon style="fill:#A86024;" points="491.5,571.6 486,567.9 484.5,557.4 475.7,552.1 483.1,546.3 479.8,542.2 473.3,542.2 
		477.3,536.6 443.9,517.6 450.6,511 451.5,501.9 449.2,496.8 447.8,494.4 442,495.2 429.6,490.9 426.3,492.2 424.3,492.2 
		424.3,488.4 419,486 416.6,490.7 412.4,489.2 412.4,491.3 411,495 409.4,500.4 405.9,504.3 401.9,508.1 400.7,510 398.2,510.6 
		393,512.4 391.2,515.8 384.9,517.7 380.2,518.8 378.7,518.8 376,521.6 376,525.1 377.1,527.6 381.9,531.2 385.5,536.1 386.6,541.4 
		381.7,547.8 378.6,552.1 372.8,556.8 366.9,561.9 364.2,564.2 360.9,567.7 354.6,571.4 349.8,574.2 339.5,578.9 340.9,583 
		343.1,588.2 346.6,597.8 349.1,600.6 354.1,602.2 360.6,604.4 367.4,605.1 373.5,605.1 375.6,604.3 386.3,615.9 394.7,612.9 
		398.3,614.3 398.2,621.3 399.2,625.4 402.2,630.7 407,633.8 411.1,634.5 416,633.5 420.4,632.6 422.9,632.6 427.6,632.5 432.2,629 
		434.8,627 436.2,624 442.8,619.6 450.1,618.9 456.4,616.3 458.2,615 464,616.9 469.5,617 475.2,616.4 477.4,614.5 482.3,615.5 
		486.4,617 490,618.3 495.3,618.3 501,615.8 506.5,606.6 508.9,602.5 505.6,580.6 502.1,579.3 501.2,576.6 492.7,578.4 	"/>
	<polygon style="fill:#B26422;" points="491.5,570.7 486,567 484.5,556.5 475.7,551.2 483.1,545.4 479.8,541.3 473.3,541.3 
		477.3,535.7 443.9,516.7 450.6,510.1 451.5,501 449.2,495.9 447.8,493.5 442,494.3 429.6,490 426.3,491.3 424.3,491.3 424.3,487.5 
		419,485.1 416.6,489.8 412.4,488.3 412.4,490.4 411,494.1 409.4,499.5 405.9,503.4 401.9,507.2 400.7,509.1 398.2,509.7 393,511.5 
		391.2,514.9 384.9,516.8 380.2,517.9 378.7,517.9 376,520.7 376,524.2 377.1,526.7 381.9,530.3 385.5,535.2 386.6,540.5 
		381.7,546.9 378.6,551.2 372.8,555.9 366.9,561 364.2,563.3 360.9,566.8 354.6,570.5 349.8,573.3 339.5,578 340.9,582.1 
		343.1,587.3 346.6,596.9 349.1,599.7 354.1,601.3 360.6,603.5 367.4,604.2 373.5,604.2 375.6,603.4 386.3,615 394.7,612 
		398.3,613.4 398.2,620.4 399.2,624.5 402.2,629.8 407,632.9 411.1,633.6 416,632.6 420.4,631.7 422.9,631.7 427.6,631.6 
		432.2,628.1 434.8,626.1 436.2,623.1 442.8,618.7 450.1,618 456.4,615.4 458.2,614.1 464,616 469.5,616.1 475.2,615.5 477.4,613.6 
		482.3,614.6 486.4,616.1 490,617.4 495.3,617.4 501,614.9 506.5,605.7 508.9,601.6 505.6,579.7 502.1,578.4 501.2,575.7 
		492.7,577.5 	"/>
	<polygon style="fill:#BB6820;" points="491.5,569.9 486,566.2 484.5,555.7 475.7,550.4 483.1,544.6 479.8,540.5 473.3,540.5 
		477.3,534.9 443.9,515.9 450.6,509.3 451.5,500.2 449.2,495.1 447.8,492.7 442,493.5 429.6,489.2 426.3,490.5 424.3,490.5 
		424.3,486.7 419,484.3 416.6,489 412.4,487.5 412.4,489.6 411,493.3 409.4,498.7 405.9,502.6 401.9,506.4 400.7,508.3 398.2,508.9 
		393,510.7 391.2,514.1 384.9,516 380.2,517.1 378.7,517.1 376,519.9 376,523.4 377.1,525.9 381.9,529.5 385.5,534.4 386.6,539.7 
		381.7,546.1 378.6,550.4 372.8,555.1 366.9,560.2 364.2,562.5 360.9,566 354.6,569.7 349.8,572.5 339.5,577.2 340.9,581.3 
		343.1,586.5 346.6,596.1 349.1,598.9 354.1,600.5 360.6,602.7 367.4,603.4 373.5,603.4 375.6,602.6 386.3,614.2 394.7,611.2 
		398.3,612.6 398.2,619.6 399.2,623.7 402.2,629 407,632.1 411.1,632.8 416,631.8 420.4,630.9 422.9,630.9 427.6,630.8 432.2,627.3 
		434.8,625.3 436.2,622.3 442.8,617.9 450.1,617.2 456.4,614.6 458.2,613.3 464,615.2 469.5,615.3 475.2,614.7 477.4,612.8 
		482.3,613.8 486.4,615.3 490,616.6 495.3,616.6 501,614.1 506.5,604.9 508.9,600.8 505.6,578.9 502.1,577.6 501.2,574.9 
		492.7,576.7 	"/>
	<polygon style="fill:#C56C1E;" points="491.5,569 486,565.3 484.5,554.8 475.7,549.5 483.1,543.7 479.8,539.6 473.3,539.6 
		477.3,534 443.9,515 450.6,508.4 451.5,499.3 449.2,494.2 447.8,491.8 442,492.6 429.6,488.3 426.3,489.6 424.3,489.6 424.3,485.8 
		419,483.4 416.6,488.1 412.4,486.6 412.4,488.7 411,492.4 409.4,497.8 405.9,501.7 401.9,505.5 400.7,507.4 398.2,508 393,509.8 
		391.2,513.2 384.9,515.1 380.2,516.2 378.7,516.2 376,519 376,522.5 377.1,525 381.9,528.6 385.5,533.5 386.6,538.8 381.7,545.2 
		378.6,549.5 372.8,554.2 366.9,559.3 364.2,561.6 360.9,565.1 354.6,568.8 349.8,571.6 339.5,576.3 340.9,580.4 343.1,585.6 
		346.6,595.2 349.1,598 354.1,599.6 360.6,601.8 367.4,602.5 373.5,602.5 375.6,601.7 386.3,613.3 394.7,610.3 398.3,611.7 
		398.2,618.7 399.2,622.8 402.2,628.1 407,631.2 411.1,631.9 416,630.9 420.4,630 422.9,630 427.6,629.9 432.2,626.4 434.8,624.4 
		436.2,621.4 442.8,617 450.1,616.3 456.4,613.7 458.2,612.4 464,614.3 469.5,614.4 475.2,613.8 477.4,611.9 482.3,612.9 
		486.4,614.4 490,615.7 495.3,615.7 501,613.2 506.5,604 508.9,599.9 505.6,578 502.1,576.7 501.2,574 492.7,575.8 	"/>
	<polygon style="fill:#CE701C;" points="491.5,568.2 486,564.5 484.5,554 475.7,548.7 483.1,542.9 479.8,538.8 473.3,538.8 
		477.3,533.2 443.9,514.2 450.6,507.6 451.5,498.5 449.2,493.4 447.8,491 442,491.8 429.6,487.5 426.3,488.8 424.3,488.8 424.3,485 
		419,482.6 416.6,487.3 412.4,485.8 412.4,487.9 411,491.6 409.4,497 405.9,500.9 401.9,504.7 400.7,506.6 398.2,507.2 393,509 
		391.2,512.4 384.9,514.3 380.2,515.4 378.7,515.4 376,518.2 376,521.7 377.1,524.2 381.9,527.8 385.5,532.7 386.6,538 381.7,544.4 
		378.6,548.7 372.8,553.4 366.9,558.5 364.2,560.8 360.9,564.3 354.6,568 349.8,570.8 339.5,575.5 340.9,579.6 343.1,584.8 
		346.6,594.4 349.1,597.2 354.1,598.8 360.6,601 367.4,601.7 373.5,601.7 375.6,600.9 386.3,612.5 394.7,609.5 398.3,610.9 
		398.2,617.9 399.2,622 402.2,627.3 407,630.4 411.1,631.1 416,630.1 420.4,629.2 422.9,629.2 427.6,629.1 432.2,625.6 434.8,623.6 
		436.2,620.6 442.8,616.2 450.1,615.5 456.4,612.9 458.2,611.6 464,613.5 469.5,613.6 475.2,613 477.4,611.1 482.3,612.1 
		486.4,613.6 490,614.9 495.3,614.9 501,612.4 506.5,603.2 508.9,599.1 505.6,577.2 502.1,575.9 501.2,573.2 492.7,575 	"/>
	<polygon style="fill:#D8741A;" points="491.5,567.3 486,563.6 484.5,553.1 475.7,547.8 483.1,542 479.8,537.9 473.3,537.9 
		477.3,532.3 443.9,513.3 450.6,506.7 451.5,497.6 449.2,492.5 447.8,490.1 442,490.9 429.6,486.6 426.3,487.9 424.3,487.9 
		424.3,484.1 419,481.7 416.6,486.4 412.4,484.9 412.4,487 411,490.7 409.4,496.1 405.9,500 401.9,503.8 400.7,505.7 398.2,506.3 
		393,508.1 391.2,511.5 384.9,513.4 380.2,514.5 378.7,514.5 376,517.3 376,520.8 377.1,523.3 381.9,526.9 385.5,531.8 386.6,537.1 
		381.7,543.5 378.6,547.8 372.8,552.5 366.9,557.6 364.2,559.9 360.9,563.4 354.6,567.1 349.8,569.9 339.5,574.6 340.9,578.7 
		343.1,583.9 346.6,593.5 349.1,596.3 354.1,597.9 360.6,600.1 367.4,600.8 373.5,600.8 375.6,600 386.3,611.6 394.7,608.6 
		398.3,610 398.2,617 399.2,621.1 402.2,626.4 407,629.5 411.1,630.2 416,629.2 420.4,628.3 422.9,628.3 427.6,628.2 432.2,624.7 
		434.8,622.7 436.2,619.7 442.8,615.3 450.1,614.6 456.4,612 458.2,610.7 464,612.6 469.5,612.7 475.2,612.1 477.4,610.2 
		482.3,611.2 486.4,612.7 490,614 495.3,614 501,611.5 506.5,602.3 508.9,598.2 505.6,576.3 502.1,575 501.2,572.3 492.7,574.1 	"/>
</g>
<g>
	<path style="fill:#FFFFFF;" d="M406.7,572.6h9.5v0.8h-5c-1,2-1.8,3.4-2.6,4.2c1.9-0.1,3.8-0.3,5.6-0.5c-0.4-0.7-0.8-1.4-1.3-2.1
		l0.6-0.4c1,1.4,1.7,2.7,2.3,3.8l-0.7,0.5c-0.2-0.4-0.4-0.8-0.6-1.1c-2,0.3-4.4,0.5-7,0.7l-0.2-0.8c0,0,0.1,0,0.2-0.1
		c0.7-0.5,1.6-1.9,2.7-4.2h-3.6L406.7,572.6L406.7,572.6z M407.8,569.7h7.4v0.7h-7.5L407.8,569.7L407.8,569.7z"/>
	<path style="fill:#FFFFFF;" d="M420,578.1v0.6h-0.8v-2.9c-0.6,0.4-1.2,0.8-1.8,1.2l-0.4-0.7c1.6-0.7,2.7-1.7,3.4-2.8h-3.3v-0.7h9.4
		v0.7h-5.3c-0.3,0.5-0.6,0.9-1,1.4h5.3v3.9h-0.8v-0.6L420,578.1L420,578.1z M421.6,569h0.8v2h2.5v-1.6h0.8v2.3h-7.2v-2.3h0.7v1.6
		h2.5v-2H421.6z M424.8,577.4v-1.9h-4.7v1.9H424.8z"/>
	<path style="fill:#FFFFFF;" d="M430,574.9c-0.2,1.6-0.8,2.8-1.6,3.6l-0.6-0.5c1-1,1.5-2.7,1.5-4.9v-4h0.8v2.5h3.3V569h0.7v2.6h2.9
		v0.7h-6.9v0.7c0,0.3,0,0.6-0.1,1.1h4.8v4.6H434v-3.9L430,574.9C430,574.8,430,574.9,430,574.9z"/>
	<path style="fill:#FFFFFF;" d="M439,569.5h8.3v0.7h-7.6v7.3h7.9v0.7h-8.7L439,569.5L439,569.5z M441.2,571.2c1,0.8,1.9,1.5,2.7,2.2
		c0.6-0.8,1.1-1.7,1.6-2.7l0.7,0.4c-0.5,1.1-1,2-1.7,2.8c0.8,0.8,1.6,1.5,2.3,2.3l-0.6,0.6c-0.6-0.8-1.4-1.5-2.2-2.3
		c-0.9,1-2,1.8-3.2,2.3l-0.4-0.7c1.2-0.5,2.2-1.2,3.1-2.1c-0.9-0.8-1.8-1.5-2.8-2.3L441.2,571.2z"/>
</g>
</svg>
