<?xml version="1.0" encoding="utf-8"?>
<!-- Generator: Adobe Illustrator 17.0.0, SVG Export Plug-In . SVG Version: 6.00 Build 0)  -->
<!DOCTYPE svg PUBLIC "-//W3C//DTD SVG 1.1//EN" "http://www.w3.org/Graphics/SVG/1.1/DTD/svg11.dtd">
<svg version="1.1" id="图层_1" xmlns="http://www.w3.org/2000/svg" xmlns:xlink="http://www.w3.org/1999/xlink" x="0px" y="0px"
	 preserveAspectRatio="none" viewBox="334.5 252.5 730 500" style="enable-background:new 334.5 252.5 730 500;"
	 xml:space="preserve">
<g>
	<path style="fill:#0E2142;" d="M419,499.7l5.2,2.4v3.9h2l3.5-1.3L442,509l5.9-0.8l-0.7-1.2l0.7,1.2h0.3l2-2.2l3.5-3.5l2.8-2l-3-7.5
		l5.7,0.8l3.8,0.3l2.3-3.6l6.9,3.3l3.8-3.3v-3.6l-4.1-1.4l-3.3-19.1l14-2.7v-4.2l7.9-2.7V448l-4.3-6.7l-6-17.2l18.5-6.9l4,3.5l5-0.7
		v4.6l4,0.2l1.7,2.8l4.1-1.3l1.8,3.1l3.5-1.3v3l19-0.8l-1.3-6.9l8.5-2.3l11.2,2.7l1.8,5.7l2.7-2.3l5.5-2.8l2.7-3l2.3,0.3v-3.6
		l2.3-0.8l-2-10.4l-5.9,2.8l-1.7-3l7.5-3.6v-3.6l-1.5-4v-3l-3.3-0.8l3.3-2l-1-2.8l-4.3,1.2l-0.7-4.7l3.8,0.8l1.2-4l-2.7-4.6h-0.1
		l-0.9,1.5l0.9-1.5l-5.8-1.5l-1-5l-10-1.2v3.8l-2.3,0.7l-1.3-3.6l-3.1,0.7l-1.7-7.2l-4.6,1.3l-2.2-6.9l-7.5,3l1.5,7l-4.9,2.2v3
		l-8.2,4.7l-4.1-2l-8.2-1l-9.4-1.5c-0.3,0.4-0.6,0.9-0.9,1.3c-4.7,5.1-15,10.6-15,10.6l-9.1,4.7l-5.1-0.9l-3.6-0.6l-2.9-6.2
		l-1.6-15.1l-4.1-12.1l-6.2-9.5l-3.8-3.2l-7.5-5.5l-5.9-2.5l-7.5,0.1l-7.1,3.2l-6.8,2.3l-5.9,0.2l-7.1-1.5l-6.1-2l-6.1-0.5h-5.2v2.5
		l2.2,3.5l2.7,1.2l1.2,2.5l-0.5,4l2.5,3.5l3.7,1.7h1.7l2.7,3.5l5.6,6.1l4,4l7,1l3.1,1l4.5,2.5l3.6,3.7l2.7,4l1,5.2l1,4l3.6,5.1
		l1.7,5.7l0.6,4.9l0.1,2.4l-2,1h-5l-4.7-1.9h-3.6l-5,0.4l-5.1,0.7l-2.6,2.4l-1,3l0.9,3.4l6.1,2.6l5.5,3l2.5,1.7l-0.2,3.1l-1.7,2
		c0,0-0.1,2.6-0.1,3c0,0.4,0.1,2.5,0.1,2.5l-3.6,2.6l-2.5,1l-4.2,2.1l-2.9,2.9l0.1,3.5l3,3.1l1.1,4.6l-1.2,5.1l-3.1,2.6l-3,3.4
		l-1.6,3.4l0.5,2.7l3.4,1.1h3.4l4.6,1.1c0,0,2.7,1,3.1,1.5c0.4,0.5,1.9,2.4,1.9,2.4l-1.4,2l-1.6,0.9l-0.2,4.3l-1,7.2l-0.7,2.2v5.1
		v2.5v2.8l4.2,1.6L419,499.7z"/>
	<path style="fill:#182540;" d="M419,498.8l5.2,2.4v3.9h2l3.5-1.3l12.3,4.3l5.9-0.8l-0.7-1.2l0.7,1.2h0.3l2-2.2l3.5-3.5l2.8-2
		l-3-7.5l5.7,0.8l3.8,0.3l2.3-3.6l6.9,3.3l3.8-3.3V486l-4.1-1.4l-3.3-19.1l14-2.7v-4.2l7.9-2.7v-8.8l-4.3-6.7l-6-17.2l18.5-6.9
		l4,3.5l5-0.7v4.6l4,0.2l1.7,2.8l4.1-1.3l1.8,3.1l3.5-1.3v3l19-0.8l-1.3-6.9l8.5-2.3l11.2,2.7l1.8,5.7l2.7-2.3l5.5-2.8l2.7-3
		l2.3,0.3v-3.6l2.3-0.8l-2-10.4l-5.9,2.8l-1.7-3l7.5-3.6v-3.6l-1.5-4v-3l-3.3-0.8l3.3-2l-1-2.8l-4.3,1.2l-0.7-4.7l3.8,0.8l1.2-4
		l-2.7-4.6h-0.1l-0.9,1.5l0.9-1.5l-5.8-1.5l-1-5l-10-1.2v3.8l-2.3,0.7l-1.3-3.6l-3.1,0.7l-1.7-7.2l-4.6,1.3l-2.2-6.9l-7.5,3l1.5,7
		l-4.9,2.2v3l-8.2,4.7l-4.1-2l-8.2-1l-9.4-1.5c-0.3,0.4-0.6,0.9-0.9,1.3c-4.7,5.1-15,10.6-15,10.6l-9.1,4.7l-5.1-0.9l-3.6-0.6
		l-2.9-6.2l-1.6-15.1l-4.1-12.1l-6.2-9.5l-3.8-3.2l-7.5-5.5l-5.9-2.5l-7.5,0.1l-7.1,3.2l-6.8,2.3l-5.9,0.2l-7.1-1.5l-6.1-2L385,334
		h-5.2v2.5l2.2,3.5l2.7,1.2l1.2,2.5l-0.5,4l2.5,3.5l3.7,1.7h1.7l2.7,3.5l5.6,6.1l4,4l7,1l3.1,1l4.5,2.5l3.6,3.7l2.7,4l1,5.2l1,4
		l3.6,5.1l1.7,5.7l0.6,4.9l0.1,2.4l-2,1h-5l-4.7-1.9h-3.6l-5,0.4l-5.1,0.7l-2.6,2.4l-1,3l0.9,3.4l6.1,2.6l5.5,3l2.5,1.7l-0.2,3.1
		l-1.7,2c0,0-0.1,2.6-0.1,3s0.1,2.5,0.1,2.5l-3.6,2.6l-2.5,1l-4.2,2.1l-2.9,2.9l0.1,3.5l3,3.1l1.1,4.6l-1.2,5.1l-3.1,2.6l-3,3.4
		l-1.6,3.4l0.5,2.7l3.4,1.1h3.4l4.6,1.1c0,0,2.7,1,3.1,1.5c0.4,0.5,1.9,2.4,1.9,2.4l-1.4,2l-1.6,0.9l-0.2,4.3l-1,7.2l-0.7,2.2v5.1
		v2.5v2.8l4.2,1.6L419,498.8z"/>
	<path style="fill:#21293E;" d="M419,498l5.2,2.4v3.9h2l3.5-1.3l12.3,4.3l5.9-0.8l-0.7-1.2l0.7,1.2h0.3l2-2.2l3.5-3.5l2.8-2l-3-7.5
		l5.7,0.8l3.8,0.3l2.3-3.6l6.9,3.3l3.8-3.3v-3.6l-4.1-1.4l-3.3-19.1l14-2.7v-4.2l7.9-2.7v-8.8l-4.3-6.7l-6-17.2l18.5-6.9l4,3.5
		l5-0.7v4.6l4,0.2l1.7,2.8l4.1-1.3l1.8,3.1l3.5-1.3v3l19-0.8l-1.3-6.9l8.5-2.3l11.2,2.7l1.8,5.7l2.7-2.3l5.5-2.8l2.7-3l2.3,0.3v-3.6
		l2.3-0.8l-2-10.4l-5.9,2.8l-1.7-3l7.5-3.6v-3.6l-1.5-4v-3l-3.3-0.8l3.3-2l-1-2.8l-4.3,1.2l-0.7-4.7l3.8,0.8l1.2-4l-2.7-4.6h-0.1
		l-0.9,1.5l0.9-1.5l-5.8-1.5l-1-5l-10-1.2v3.8l-2.3,0.7l-1.3-3.6l-3.1,0.7l-1.7-7.2l-4.6,1.3l-2.2-6.9l-7.5,3l1.5,7l-4.9,2.2v3
		l-8.2,4.7l-4.1-2l-8.2-1l-9.4-1.5c-0.3,0.4-0.6,0.9-0.9,1.3c-4.7,5.1-15,10.6-15,10.6l-9.1,4.7l-5.1-0.9l-3.6-0.6l-2.9-6.2
		l-1.6-15.1l-4.1-12.1l-6.2-9.5l-3.8-3.2l-7.5-5.5l-5.9-2.5l-7.5,0.1l-7.1,3.2l-6.8,2.3l-5.9,0.2l-7.1-1.5l-6.1-2l-6.1-0.5h-5.2v2.5
		l2.2,3.5l2.7,1.2l1.2,2.5l-0.5,4l2.5,3.5l3.7,1.7h1.7l2.7,3.5l5.6,6.1l4,4l7,1l3.1,1l4.5,2.5l3.6,3.7l2.7,4l1,5.2l1,4l3.6,5.1
		l1.7,5.7l0.6,4.9l0.1,2.4l-2,1h-5l-4.7-1.9h-3.6l-5,0.4l-5.1,0.7l-2.6,2.4l-1,3l0.9,3.4l6.1,2.6l5.5,3l2.5,1.7l-0.2,3.1l-1.7,2
		c0,0-0.1,2.6-0.1,3s0.1,2.5,0.1,2.5l-3.6,2.6l-2.5,1l-4.2,2.1l-2.9,2.9l0.1,3.5l3,3.1l1.1,4.6l-1.2,5.1l-3.1,2.6l-3,3.4l-1.6,3.4
		l0.5,2.7l3.4,1.1h3.4l4.6,1.1c0,0,2.7,1,3.1,1.5c0.4,0.5,1.9,2.4,1.9,2.4l-1.4,2l-1.6,0.9l-0.2,4.3l-1,7.2l-0.7,2.2v5.1v2.5v2.8
		l4.2,1.6L419,498z"/>
	<path style="fill:#2B2D3C;" d="M419,497.1l5.2,2.4v3.9h2l3.5-1.3l12.3,4.3l5.9-0.8l-0.7-1.2l0.7,1.2h0.3l2-2.2l3.5-3.5l2.8-2
		l-3-7.5l5.7,0.8l3.8,0.3l2.3-3.6l6.9,3.3l3.8-3.3v-3.6l-4.1-1.4l-3.3-19.1l14-2.7v-4.2l7.9-2.7v-8.8l-4.3-6.7l-6-17.2l18.5-6.9
		l4,3.5l5-0.7v4.6l4,0.2l1.7,2.8l4.1-1.3l1.8,3.1l3.5-1.3v3l19-0.8l-1.3-6.9l8.5-2.3l11.2,2.7l1.8,5.7l2.7-2.3l5.5-2.8l2.7-3
		l2.3,0.3v-3.6l2.3-0.8l-2-10.4l-5.9,2.8l-1.7-3l7.5-3.6v-3.6l-1.5-4v-3l-3.3-0.8l3.3-2l-1-2.8l-4.3,1.2l-0.7-4.7l3.8,0.8l1.2-4
		l-2.7-4.6h-0.1l-0.9,1.5l0.9-1.5l-5.8-1.5l-1-5l-10-1.2v3.8l-2.3,0.7l-1.3-3.6l-3.1,0.7l-1.7-7.2l-4.6,1.3l-2.2-6.9l-7.5,3l1.5,7
		l-4.9,2.2v3L519,374l-4.1-2l-8.2-1l-9.4-1.5c-0.3,0.4-0.6,0.9-0.9,1.3c-4.7,5.1-15,10.6-15,10.6l-9.1,4.7l-5.1-0.9l-3.6-0.6
		l-2.9-6.2l-1.6-15.1l-4.1-12.1l-6.2-9.5l-3.8-3.2l-7.5-5.5l-5.9-2.5l-7.5,0.1l-7.1,3.2l-6.8,2.3l-5.9,0.2l-7.1-1.5l-6.1-2l-6.1-0.5
		h-5.2v2.5l2.2,3.5l2.7,1.2l1.2,2.5l-0.5,4l2.5,3.5l3.7,1.7h1.7l2.7,3.5l5.6,6.1l4,4l7,1l3.1,1l4.5,2.5l3.6,3.7l2.7,4l1,5.2l1,4
		l3.6,5.1l1.7,5.7l0.6,4.9l0.1,2.4l-2,1h-5l-4.7-1.9h-3.6l-5,0.4l-5.1,0.7l-2.6,2.4l-1,3l0.9,3.4l6.1,2.6l5.5,3l2.5,1.7l-0.2,3.1
		l-1.7,2c0,0-0.1,2.6-0.1,3s0.1,2.5,0.1,2.5l-3.6,2.6l-2.5,1l-4.2,2.1l-2.9,2.9l0.1,3.5l3,3.1l1.1,4.6l-1.2,5.1l-3.1,2.6l-3,3.4
		l-1.6,3.4l0.5,2.7l3.4,1.1h3.4l4.6,1.1c0,0,2.7,1,3.1,1.5c0.4,0.5,1.9,2.4,1.9,2.4l-1.4,2l-1.6,0.9l-0.2,4.3l-1,7.2l-0.7,2.2v5.1
		v2.5v2.8l4.2,1.6L419,497.1z"/>
	<path style="fill:#34313A;" d="M419,496.3l5.2,2.4v3.9h2l3.5-1.3l12.3,4.3l5.9-0.8l-0.7-1.2l0.7,1.2h0.3l2-2.2l3.5-3.5l2.8-2
		l-3-7.5l5.7,0.8l3.8,0.3l2.3-3.6l6.9,3.3l3.8-3.3v-3.6l-4.1-1.4l-3.3-19.1l14-2.7v-4.2l7.9-2.7v-8.8l-4.3-6.7l-6-17.2l18.5-6.9
		l4,3.5l5-0.7v4.6l4,0.2l1.7,2.8l4.1-1.3l1.8,3.1l3.5-1.3v3l19-0.8l-1.3-6.9l8.5-2.3l11.2,2.7l1.8,5.7l2.7-2.3l5.5-2.8l2.7-3
		l2.3,0.3v-3.6l2.3-0.8l-2-10.4l-5.9,2.8l-1.7-3l7.5-3.6v-3.6l-1.5-4v-3l-3.3-0.8l3.3-2l-1-2.8l-4.3,1.2l-0.7-4.7l3.8,0.8l1.2-4
		l-2.7-4.6h-0.1l-0.9,1.5l0.9-1.5l-5.8-1.5l-1-5l-10-1.2v3.8L551,369l-1.3-3.6l-3.1,0.7l-1.7-7.2l-4.6,1.3l-2.2-6.9l-7.5,3l1.5,7
		l-4.9,2.2v3l-8.2,4.7l-4.1-2l-8.2-1l-9.4-1.5c-0.3,0.4-0.6,0.9-0.9,1.3c-4.7,5.1-15,10.6-15,10.6l-9.1,4.7l-5.1-0.9l-3.6-0.6
		l-2.9-6.2l-1.6-15.1l-4.1-12.1l-6.2-9.5l-3.8-3.2l-7.5-5.5l-5.9-2.5l-7.5,0.1L417,333l-6.8,2.3l-5.9,0.2l-7.1-1.5l-6.1-2l-6.1-0.5
		h-5.2v2.5l2.2,3.5l2.7,1.2l1.2,2.5l-0.5,4l2.5,3.5l3.7,1.7h1.7l2.7,3.5l5.6,6.1l4,4l7,1l3.1,1l4.5,2.5l3.6,3.7l2.7,4l1,5.2l1,4
		l3.6,5.1l1.7,5.7l0.6,4.9l0.1,2.4l-2,1h-5l-4.7-1.9h-3.6l-5,0.4l-5.1,0.7l-2.6,2.4l-1,3l0.9,3.4l6.1,2.6l5.5,3l2.5,1.7l-0.2,3.1
		l-1.7,2c0,0-0.1,2.6-0.1,3s0.1,2.5,0.1,2.5L415,433l-2.5,1l-4.2,2.1l-2.9,2.9l0.1,3.5l3,3.1l1.1,4.6l-1.2,5.1l-3.1,2.6l-3,3.4
		l-1.6,3.4l0.5,2.7l3.4,1.1h3.4l4.6,1.1c0,0,2.7,1,3.1,1.5c0.4,0.5,1.9,2.4,1.9,2.4l-1.4,2l-1.6,0.9l-0.2,4.3l-1,7.2l-0.7,2.2v5.1
		v2.5v2.8l4.2,1.6L419,496.3z"/>
	<path style="fill:#3E3538;" d="M419,495.4l5.2,2.4v3.9h2l3.5-1.3l12.3,4.3l5.9-0.8l-0.7-1.2l0.7,1.2h0.3l2-2.2l3.5-3.5l2.8-2
		l-3-7.5l5.7,0.8l3.8,0.3l2.3-3.6l6.9,3.3l3.8-3.3v-3.6l-4.1-1.4l-3.3-19.1l14-2.7v-4.2l7.9-2.7v-8.8l-4.3-6.7l-6-17.2l18.5-6.9
		l4,3.5l5-0.7v4.6l4,0.2l1.7,2.8l4.1-1.3l1.8,3.1l3.5-1.3v3l19-0.8l-1.3-6.9l8.5-2.3l11.2,2.7l1.8,5.7l2.7-2.3l5.5-2.8l2.7-3
		l2.3,0.3v-3.6l2.3-0.8l-2-10.4l-5.9,2.8l-1.7-3l7.5-3.6v-3.6l-1.5-4v-3l-3.3-0.8l3.3-2l-1-2.8l-4.3,1.2l-0.7-4.7l3.8,0.8l1.2-4
		l-2.7-4.6h-0.1l-0.9,1.5l0.9-1.5l-5.8-1.5l-1-5l-10-1.2v3.8l-2.3,0.7l-1.3-3.6l-3.1,0.7l-1.7-7.2l-4.6,1.3l-2.2-6.9l-7.5,3l1.5,7
		l-4.9,2.2v3l-8.2,4.7l-4.1-2l-8.2-1l-9.4-1.5c-0.3,0.4-0.6,0.9-0.9,1.3c-4.7,5.1-15,10.6-15,10.6l-9.1,4.7l-5.1-0.9l-3.6-0.6
		l-2.9-6.2l-1.6-15.1l-4.1-12.1l-6.2-9.5l-3.8-3.2l-7.5-5.5l-5.9-2.5l-7.5,0.1l-7.1,3.2l-6.8,2.3l-5.9,0.2l-7.1-1.5l-6.1-2l-6.1-0.5
		h-5.2v2.5l2.2,3.5l2.7,1.2l1.2,2.5l-0.5,4l2.5,3.5l3.7,1.7h1.7l2.7,3.5l5.6,6.1l4,4l7,1l3.1,1l4.5,2.5l3.6,3.7l2.7,4l1,5.2l1,4
		l3.6,5.1l1.7,5.7l0.6,4.9l0.1,2.4l-2,1h-5l-4.7-1.9h-3.6l-5,0.4l-5.1,0.7l-2.6,2.4l-1,3l0.9,3.4l6.1,2.6l5.5,3l2.5,1.7l-0.2,3.1
		l-1.7,2c0,0-0.1,2.6-0.1,3s0.1,2.5,0.1,2.5l-3.6,2.6l-2.5,1l-4.2,2.1l-2.9,2.9l0.1,3.5l3,3.1l1.1,4.6l-1.2,5.1l-3.1,2.6l-3,3.4
		l-1.6,3.4l0.5,2.7l3.4,1.1h3.4l4.6,1.1c0,0,2.7,1,3.1,1.5c0.4,0.5,1.9,2.4,1.9,2.4l-1.4,2l-1.6,0.9l-0.2,4.3l-1,7.2l-0.7,2.2v5.1
		v2.5v2.8l4.2,1.6L419,495.4z"/>
	<path style="fill:#483937;" d="M419,494.6l5.2,2.4v3.9h2l3.5-1.3l12.3,4.3l5.9-0.8l-0.7-1.2l0.7,1.2h0.3l2-2.2l3.5-3.5l2.8-2
		l-3-7.5l5.7,0.8l3.8,0.3l2.3-3.6l6.9,3.3l3.8-3.3v-3.6l-4.1-1.4l-3.3-19.1l14-2.7v-4.2l7.9-2.7v-8.8l-4.3-6.7l-6-17.2l18.5-6.9
		l4,3.5l5-0.7v4.6l4,0.2l1.7,2.8l4.1-1.3l1.8,3.1l3.5-1.3v3l19-0.8l-1.3-6.9l8.5-2.3l11.2,2.7l1.8,5.7l2.7-2.3l5.5-2.8l2.7-3
		l2.3,0.3V413l2.3-0.8l-2-10.4l-5.9,2.8l-1.7-3l7.5-3.6v-3.6l-1.5-4v-3l-3.3-0.8l3.3-2l-1-2.8l-4.3,1.2l-0.7-4.7l3.8,0.8l1.2-4
		l-2.7-4.6h-0.1l-0.9,1.5l0.9-1.5l-5.8-1.5l-1-5l-10-1.2v3.8l-2.3,0.7l-1.3-3.6l-3.1,0.7l-1.7-7.2l-4.6,1.3l-2.2-6.9l-7.5,3l1.5,7
		l-4.9,2.2v3l-8.2,4.7l-4.1-2l-8.2-1l-9.4-1.5c-0.3,0.4-0.6,0.9-0.9,1.3c-4.7,5.1-15,10.6-15,10.6l-9.1,4.7l-5.1-0.9l-3.6-0.6
		l-2.9-6.2l-1.6-15.1l-4.1-12.1l-6.2-9.5L445,336l-7.5-5.5l-5.9-2.5l-7.5,0.1l-7.1,3.2l-6.8,2.3l-5.9,0.2l-7.1-1.5l-6.1-2l-6.1-0.5
		h-5.2v2.5l2.2,3.5l2.7,1.2l1.2,2.5l-0.5,4l2.5,3.5l3.7,1.7h1.7l2.7,3.5l5.6,6.1l4,4l7,1l3.1,1l4.5,2.5l3.6,3.7l2.7,4l1,5.2l1,4
		l3.6,5.1l1.7,5.7l0.6,4.9l0.1,2.4l-2,1h-5l-4.7-1.9h-3.6l-5,0.4l-5.1,0.7l-2.6,2.4l-1,3l0.9,3.4l6.1,2.6l5.5,3l2.5,1.7l-0.2,3.1
		l-1.7,2c0,0-0.1,2.6-0.1,3s0.1,2.5,0.1,2.5l-3.6,2.6l-2.5,1l-4.2,2.1l-2.9,2.9l0.1,3.5l3,3.1l1.1,4.6l-1.2,5.1l-3.1,2.6l-3,3.4
		l-1.6,3.4l0.5,2.7l3.4,1.1h3.4l4.6,1.1c0,0,2.7,1,3.1,1.5c0.4,0.5,1.9,2.4,1.9,2.4l-1.4,2l-1.6,0.9l-0.2,4.3l-1,7.2l-0.7,2.2v5.1
		v2.5v2.8l4.2,1.6L419,494.6z"/>
	<path style="fill:#513D35;" d="M419,493.7l5.2,2.4v3.9h2l3.5-1.3L442,503l5.9-0.8l-0.7-1.2l0.7,1.2h0.3l2-2.2l3.5-3.5l2.8-2l-3-7.5
		l5.7,0.8l3.8,0.3l2.3-3.6l6.9,3.3l3.8-3.3v-3.6l-4.1-1.4l-3.3-19.1l14-2.7v-4.2l7.9-2.7V442l-4.3-6.7l-6-17.2l18.5-6.9l4,3.5l5-0.7
		v4.6l4,0.2l1.7,2.8l4.1-1.3l1.8,3.1l3.5-1.3v3l19-0.8l-1.3-6.9l8.5-2.3l11.2,2.7l1.8,5.7l2.7-2.3l5.5-2.8l2.7-3l2.3,0.3v-3.6
		l2.3-0.8l-2-10.4l-5.9,2.8l-1.7-3l7.5-3.6v-3.6l-1.5-4v-3l-3.3-0.8l3.3-2l-1-2.8l-4.3,1.2l-0.7-4.7l3.8,0.8l1.2-4l-2.7-4.6h-0.1
		l-0.9,1.5l0.9-1.5l-5.8-1.5l-1-5l-10-1.2v3.8l-2.3,0.7l-1.3-3.6l-3.1,0.7l-1.7-7.2l-4.6,1.3l-2.2-6.9l-7.5,3l1.5,7l-4.9,2.2v3
		l-8.2,4.7l-4.1-2l-8.2-1l-9.4-1.5c-0.3,0.4-0.6,0.9-0.9,1.3c-4.7,5.1-15,10.6-15,10.6l-9.1,4.7l-5.1-0.9l-3.6-0.6l-2.9-6.2
		l-1.6-15.1l-4.1-12.1l-6.2-9.5l-3.8-3.2l-7.5-5.5l-5.9-2.5l-7.5,0.1l-7.1,3.2l-6.8,2.3l-5.9,0.2l-7.1-1.5l-6.1-2l-6.1-0.5h-5.2v2.5
		l2.2,3.5l2.7,1.2l1.2,2.5l-0.5,4l2.5,3.5l3.7,1.7h1.7l2.7,3.5l5.6,6.1l4,4l7,1l3.1,1l4.5,2.5l3.6,3.7l2.7,4l1,5.2l1,4l3.6,5.1
		l1.7,5.7l0.6,4.9l0.1,2.4l-2,1h-5l-4.7-1.9h-3.6l-5,0.4l-5.1,0.7l-2.6,2.4l-1,3l0.9,3.4l6.1,2.6l5.5,3l2.5,1.7l-0.2,3.1l-1.7,2
		c0,0-0.1,2.6-0.1,3s0.1,2.5,0.1,2.5l-3.6,2.6l-2.5,1l-4.2,2.1l-2.9,2.9l0.1,3.5l3,3.1l1.1,4.6l-1.2,5.1l-3.1,2.6l-3,3.4l-1.6,3.4
		l0.5,2.7l3.4,1.1h3.4l4.6,1.1c0,0,2.7,1,3.1,1.5c0.4,0.5,1.9,2.4,1.9,2.4l-1.4,2l-1.6,0.9l-0.2,4.3l-1,7.2l-0.7,2.2v5.1v2.5v2.8
		l4.2,1.6L419,493.7z"/>
	<path style="fill:#5B4133;" d="M419,492.8l5.2,2.4v3.9h2l3.5-1.3l12.3,4.3l5.9-0.8l-0.7-1.2l0.7,1.2h0.3l2-2.2l3.5-3.5l2.8-2
		l-3-7.5l5.7,0.8l3.8,0.3l2.3-3.6l6.9,3.3l3.8-3.3V480l-4.1-1.4l-3.3-19.1l14-2.7v-4.2l7.9-2.7v-8.8l-4.3-6.7l-6-17.2l18.5-6.9
		l4,3.5l5-0.7v4.6l4,0.2l1.7,2.8l4.1-1.3l1.8,3.1l3.5-1.3v3l19-0.8l-1.3-6.9l8.5-2.3l11.2,2.7l1.8,5.7l2.7-2.3l5.5-2.8l2.7-3
		l2.3,0.3v-3.6l2.3-0.8l-2-10.4l-5.9,2.8l-1.7-3l7.5-3.6v-3.6l-1.5-4v-3l-3.3-0.8l3.3-2l-1-2.8l-4.3,1.2l-0.7-4.7l3.8,0.8l1.2-4
		l-2.7-4.6h-0.1l-0.9,1.5l0.9-1.5l-5.8-1.5l-1-5l-10-1.2v3.8l-2.3,0.7l-1.3-3.6l-3.1,0.7l-1.7-7.2l-4.6,1.3l-2.2-6.9l-7.5,3l1.5,7
		l-4.9,2.2v3l-8.2,4.7l-4.1-2l-8.2-1l-9.4-1.5c-0.3,0.4-0.6,0.9-0.9,1.3c-4.7,5.1-15,10.6-15,10.6l-9.1,4.7l-5.1-0.9l-3.6-0.6
		l-2.9-6.2l-1.6-15.1l-4.1-12.1l-6.2-9.5l-3.8-3.2l-7.5-5.5l-5.9-2.5l-7.5,0.1l-7.1,3.2l-6.8,2.3l-5.9,0.2l-7.1-1.5l-6.1-2L385,328
		h-5.2v2.5l2.2,3.5l2.7,1.2l1.2,2.5l-0.5,4l2.5,3.5l3.7,1.7h1.7l2.7,3.5l5.6,6.1l4,4l7,1l3.1,1l4.5,2.5l3.6,3.7l2.7,4l1,5.2l1,4
		l3.6,5.1l1.7,5.7l0.6,4.9l0.1,2.4l-2,1h-5l-4.7-1.9h-3.6l-5,0.4l-5.1,0.7l-2.6,2.4l-1,3l0.9,3.4l6.1,2.6l5.5,3l2.5,1.7l-0.2,3.1
		l-1.7,2c0,0-0.1,2.6-0.1,3s0.1,2.5,0.1,2.5l-3.6,2.6l-2.5,1l-4.2,2.1l-2.9,2.9l0.1,3.5l3,3.1l1.1,4.6l-1.2,5.1l-3.1,2.6l-3,3.4
		l-1.6,3.4l0.5,2.7l3.4,1.1h3.4l4.6,1.1c0,0,2.7,1,3.1,1.5c0.4,0.5,1.9,2.4,1.9,2.4l-1.4,2l-1.6,0.9l-0.2,4.3l-1,7.2l-0.7,2.2v5.1
		v2.5v2.8l4.2,1.6L419,492.8z"/>
	<path style="fill:#654531;" d="M419,492l5.2,2.4v3.9h2l3.5-1.3l12.3,4.3l5.9-0.8l-0.7-1.2l0.7,1.2h0.3l2-2.2l3.5-3.5l2.8-2l-3-7.5
		l5.7,0.8l3.8,0.3l2.3-3.6l6.9,3.3l3.8-3.3v-3.6l-4.1-1.4l-3.3-19.1l14-2.7v-4.2l7.9-2.7v-8.8l-4.3-6.7l-6-17.2l18.5-6.9l4,3.5
		l5-0.7v4.6l4,0.2l1.7,2.8l4.1-1.3l1.8,3.1l3.5-1.3v3l19-0.8l-1.3-6.9l8.5-2.3l11.2,2.7l1.8,5.7l2.7-2.3l5.5-2.8l2.7-3l2.3,0.3v-3.6
		l2.3-0.8l-2-10.4l-5.9,2.8l-1.7-3l7.5-3.6v-3.6l-1.5-4v-3l-3.3-0.8l3.3-2l-1-2.8l-4.3,1.2l-0.7-4.7l3.8,0.8l1.2-4l-2.7-4.6h-0.1
		l-0.9,1.5l0.9-1.5l-5.8-1.5l-1-5l-10-1.2v3.8l-2.3,0.7l-1.3-3.6l-3.1,0.7l-1.7-7.2l-4.6,1.3l-2.2-6.9l-7.5,3l1.5,7l-4.9,2.2v3
		l-8.2,4.7l-4.1-2l-8.2-1l-9.4-1.5c-0.3,0.4-0.6,0.9-0.9,1.3c-4.7,5.1-15,10.6-15,10.6l-9.1,4.7l-5.1-0.9l-3.6-0.6l-2.9-6.2
		l-1.6-15.1l-4.1-12.1l-6.2-9.5l-3.8-3.2l-7.5-5.5l-5.9-2.5l-7.5,0.1l-7.1,3.2l-6.8,2.3l-5.9,0.2l-7.1-1.5l-6.1-2l-6.1-0.5h-5.2v2.5
		l2.2,3.5l2.7,1.2l1.2,2.5l-0.5,4l2.5,3.5l3.7,1.7h1.7l2.7,3.5l5.6,6.1l4,4l7,1l3.1,1l4.5,2.5l3.6,3.7l2.7,4l1,5.2l1,4l3.6,5.1
		l1.7,5.7l0.6,4.9l0.1,2.4l-2,1h-5l-4.7-1.9h-3.6l-5,0.4l-5.1,0.7l-2.6,2.4l-1,3l0.9,3.4l6.1,2.6l5.5,3l2.5,1.7l-0.2,3.1l-1.7,2
		c0,0-0.1,2.6-0.1,3s0.1,2.5,0.1,2.5l-3.6,2.6l-2.5,1l-4.2,2.1l-2.9,2.9l0.1,3.5l3,3.1l1.1,4.6l-1.2,5.1l-3.1,2.6l-3,3.4l-1.6,3.4
		l0.5,2.7l3.4,1.1h3.4l4.6,1.1c0,0,2.7,1,3.1,1.5c0.4,0.5,1.9,2.4,1.9,2.4l-1.4,2l-1.6,0.9l-0.2,4.3l-1,7.2l-0.7,2.2v5.1v2.5v2.8
		l4.2,1.6L419,492z"/>
	<path style="fill:#6E492F;" d="M419,491.1l5.2,2.4v3.9h2l3.5-1.3l12.3,4.3l5.9-0.8l-0.7-1.2l0.7,1.2h0.3l2-2.2l3.5-3.5l2.8-2
		l-3-7.5l5.7,0.8l3.8,0.3l2.3-3.6l6.9,3.3l3.8-3.3v-3.6l-4.1-1.4l-3.3-19.1l14-2.7v-4.2l7.9-2.7v-8.8l-4.3-6.7l-6-17.2l18.5-6.9
		l4,3.5l5-0.7v4.6l4,0.2l1.7,2.8l4.1-1.3l1.8,3.1l3.5-1.3v3l19-0.8l-1.3-6.9l8.5-2.3l11.2,2.7l1.8,5.7l2.7-2.3l5.5-2.8l2.7-3
		l2.3,0.3v-3.6l2.3-0.8l-2-10.4l-5.9,2.8l-1.7-3l7.5-3.6v-3.6l-1.5-4v-3l-3.3-0.8l3.3-2l-1-2.8l-4.3,1.2l-0.7-4.7l3.8,0.8l1.2-4
		l-2.7-4.6h-0.1l-0.9,1.5l0.9-1.5l-5.8-1.5l-1-5l-10-1.2v3.8l-2.3,0.7l-1.3-3.6l-3.1,0.7l-1.7-7.2l-4.6,1.3l-2.2-6.9l-7.5,3l1.5,7
		l-4.9,2.2v3L519,368l-4.1-2l-8.2-1l-9.4-1.5c-0.3,0.4-0.6,0.9-0.9,1.3c-4.7,5.1-15,10.6-15,10.6l-9.1,4.7l-5.1-0.9l-3.6-0.6
		l-2.9-6.2l-1.6-15.1l-4.1-12.1l-6.2-9.5l-3.8-3.2l-7.5-5.5l-5.9-2.5l-7.5,0.1l-7.1,3.2l-6.8,2.3l-5.9,0.2l-7.1-1.5l-6.1-2l-6.1-0.5
		h-5.2v2.5l2.2,3.5l2.7,1.2l1.2,2.5l-0.5,4l2.5,3.5l3.7,1.7h1.7l2.7,3.5l5.6,6.1l4,4l7,1l3.1,1l4.5,2.5l3.6,3.7l2.7,4l1,5.2l1,4
		l3.6,5.1l1.7,5.7l0.6,4.9l0.1,2.4l-2,1h-5l-4.7-1.9h-3.6l-5,0.4l-5.1,0.7l-2.6,2.4l-1,3l0.9,3.4l6.1,2.6l5.5,3l2.5,1.7l-0.2,3.1
		l-1.7,2c0,0-0.1,2.6-0.1,3s0.1,2.5,0.1,2.5l-3.6,2.6l-2.5,1l-4.2,2.1l-2.9,2.9l0.1,3.5l3,3.1l1.1,4.6l-1.2,5.1l-3.1,2.6l-3,3.4
		l-1.6,3.4l0.5,2.7l3.4,1.1h3.4l4.6,1.1c0,0,2.7,1,3.1,1.5c0.4,0.5,1.9,2.4,1.9,2.4l-1.4,2l-1.6,0.9l-0.2,4.3l-1,7.2l-0.7,2.2v5.1
		v2.5v2.8l4.2,1.6L419,491.1z"/>
	<path style="fill:#784C2D;" d="M419,490.3l5.2,2.4v3.9h2l3.5-1.3l12.3,4.3l5.9-0.8l-0.7-1.2l0.7,1.2h0.3l2-2.2l3.5-3.5l2.8-2
		l-3-7.5l5.7,0.8l3.8,0.3l2.3-3.6l6.9,3.3l3.8-3.3v-3.6l-4.1-1.4l-3.3-19.1l14-2.7v-4.2l7.9-2.7v-8.8l-4.3-6.7l-6-17.2l18.5-6.9
		l4,3.5l5-0.7v4.6l4,0.2l1.7,2.8l4.1-1.3l1.8,3.1l3.5-1.3v3l19-0.8l-1.3-6.9l8.5-2.3l11.2,2.7l1.8,5.7l2.7-2.3l5.5-2.8l2.7-3
		l2.3,0.3v-3.6l2.3-0.8l-2-10.4l-5.9,2.8l-1.7-3l7.5-3.6v-3.6l-1.5-4v-3l-3.3-0.8l3.3-2l-1-2.8l-4.3,1.2l-0.7-4.7l3.8,0.8l1.2-4
		l-2.7-4.6h-0.1l-0.9,1.5l0.9-1.5l-5.8-1.5l-1-5l-10-1.2v3.8L551,363l-1.3-3.6l-3.1,0.7l-1.7-7.2l-4.6,1.3l-2.2-6.9l-7.5,3l1.5,7
		l-4.9,2.2v3l-8.2,4.7l-4.1-2l-8.2-1l-9.4-1.5c-0.3,0.4-0.6,0.9-0.9,1.3c-4.7,5.1-15,10.6-15,10.6l-9.1,4.7l-5.1-0.9l-3.6-0.6
		l-2.9-6.2l-1.6-15.1l-4.1-12.1l-6.2-9.5l-3.8-3.2l-7.5-5.5l-5.9-2.5l-7.5,0.1L417,327l-6.8,2.3l-5.9,0.2l-7.1-1.5l-6.1-2l-6.1-0.5
		h-5.2v2.5l2.2,3.5l2.7,1.2l1.2,2.5l-0.5,4l2.5,3.5l3.7,1.7h1.7l2.7,3.5l5.6,6.1l4,4l7,1l3.1,1l4.5,2.5l3.6,3.7l2.7,4l1,5.2l1,4
		l3.6,5.1l1.7,5.7l0.6,4.9l0.1,2.4l-2,1h-5l-4.7-1.9h-3.6l-5,0.4l-5.1,0.7l-2.6,2.4l-1,3l0.9,3.4l6.1,2.6l5.5,3l2.5,1.7l-0.2,3.1
		l-1.7,2c0,0-0.1,2.6-0.1,3s0.1,2.5,0.1,2.5L415,427l-2.5,1l-4.2,2.1l-2.9,2.9l0.1,3.5l3,3.1l1.1,4.6l-1.2,5.1l-3.1,2.6l-3,3.4
		l-1.6,3.4l0.5,2.7l3.4,1.1h3.4l4.6,1.1c0,0,2.7,1,3.1,1.5c0.4,0.5,1.9,2.4,1.9,2.4l-1.4,2l-1.6,0.9l-0.2,4.3l-1,7.2l-0.7,2.2v5.1
		v2.5v2.8l4.2,1.6L419,490.3z"/>
	<path style="fill:#81502B;" d="M419,489.4l5.2,2.4v3.9h2l3.5-1.3l12.3,4.3l5.9-0.8l-0.7-1.2l0.7,1.2h0.3l2-2.2l3.5-3.5l2.8-2
		l-3-7.5l5.7,0.8l3.8,0.3l2.3-3.6l6.9,3.3l3.8-3.3v-3.6l-4.1-1.4l-3.3-19.1l14-2.7v-4.2l7.9-2.7v-8.8l-4.3-6.7l-6-17.2l18.5-6.9
		l4,3.5l5-0.7v4.6l4,0.2l1.7,2.8l4.1-1.3l1.8,3.1l3.5-1.3v3l19-0.8l-1.3-6.9l8.5-2.3l11.2,2.7l1.8,5.7l2.7-2.3l5.5-2.8l2.7-3
		l2.3,0.3v-3.6l2.3-0.8l-2-10.4l-5.9,2.8l-1.7-3l7.5-3.6v-3.6l-1.5-4v-3l-3.3-0.8l3.3-2l-1-2.8l-4.3,1.2l-0.7-4.7l3.8,0.8l1.2-4
		l-2.7-4.6h-0.1l-0.9,1.5l0.9-1.5l-5.8-1.5l-1-5l-10-1.2v3.8l-2.3,0.7l-1.3-3.6l-3.1,0.7l-1.7-7.2l-4.6,1.3l-2.2-6.9l-7.5,3l1.5,7
		l-4.9,2.2v3l-8.2,4.7l-4.1-2l-8.2-1l-9.4-1.5c-0.3,0.4-0.6,0.9-0.9,1.3c-4.7,5.1-15,10.6-15,10.6l-9.1,4.7l-5.1-0.9l-3.6-0.6
		l-2.9-6.2l-1.6-15.1l-4.1-12.1l-6.2-9.5l-3.8-3.2l-7.5-5.5l-5.9-2.5l-7.5,0.1l-7.1,3.2l-6.8,2.3l-5.9,0.2l-7.1-1.5l-6.1-2l-6.1-0.5
		h-5.2v2.5l2.2,3.5l2.7,1.2l1.2,2.5l-0.5,4l2.5,3.5l3.7,1.7h1.7l2.7,3.5l5.6,6.1l4,4l7,1l3.1,1l4.5,2.5l3.6,3.7l2.7,4l1,5.2l1,4
		l3.6,5.1l1.7,5.7l0.6,4.9l0.1,2.4l-2,1h-5l-4.7-1.9h-3.6l-5,0.4l-5.1,0.7l-2.6,2.4l-1,3l0.9,3.4l6.1,2.6l5.5,3l2.5,1.7l-0.2,3.1
		l-1.7,2c0,0-0.1,2.6-0.1,3s0.1,2.5,0.1,2.5l-3.6,2.6l-2.5,1l-4.2,2.1l-2.9,2.9l0.1,3.5l3,3.1l1.1,4.6l-1.2,5.1l-3.1,2.6l-3,3.4
		l-1.6,3.4l0.5,2.7l3.4,1.1h3.4l4.6,1.1c0,0,2.7,1,3.1,1.5c0.4,0.5,1.9,2.4,1.9,2.4l-1.4,2l-1.6,0.9l-0.2,4.3l-1,7.2l-0.7,2.2v5.1
		v2.5v2.8l4.2,1.6L419,489.4z"/>
	<path style="fill:#8B5429;" d="M419,488.6l5.2,2.4v3.9h2l3.5-1.3l12.3,4.3l5.9-0.8l-0.7-1.2l0.7,1.2h0.3l2-2.2l3.5-3.5l2.8-2
		l-3-7.5l5.7,0.8l3.8,0.3l2.3-3.6l6.9,3.3l3.8-3.3v-3.6l-4.1-1.4l-3.3-19.1l14-2.7v-4.2l7.9-2.7v-8.8l-4.3-6.7l-6-17.2l18.5-6.9
		l4,3.5l5-0.7v4.6l4,0.2l1.7,2.8l4.1-1.3l1.8,3.1l3.5-1.3v3l19-0.8l-1.3-6.9l8.5-2.3l11.2,2.7l1.8,5.7l2.7-2.3l5.5-2.8l2.7-3
		l2.3,0.3V407l2.3-0.8l-2-10.4l-5.9,2.8l-1.7-3l7.5-3.6v-3.6l-1.5-4v-3l-3.3-0.8l3.3-2l-1-2.8l-4.3,1.2l-0.7-4.7l3.8,0.8l1.2-4
		l-2.7-4.6h-0.1l-0.9,1.5l0.9-1.5l-5.8-1.5l-1-5l-10-1.2v3.8l-2.3,0.7l-1.3-3.6l-3.1,0.7l-1.7-7.2l-4.6,1.3l-2.2-6.9l-7.5,3l1.5,7
		l-4.9,2.2v3l-8.2,4.7l-4.1-2l-8.2-1l-9.4-1.5c-0.3,0.4-0.6,0.9-0.9,1.3c-4.7,5.1-15,10.6-15,10.6l-9.1,4.7l-5.1-0.9l-3.6-0.6
		l-2.9-6.2l-1.6-15.1l-4.1-12.1l-6.2-9.5L445,330l-7.5-5.5l-5.9-2.5l-7.5,0.1l-7.1,3.2l-6.8,2.3l-5.9,0.2l-7.1-1.5l-6.1-2l-6.1-0.5
		h-5.2v2.5l2.2,3.5l2.7,1.2l1.2,2.5l-0.5,4l2.5,3.5l3.7,1.7h1.7l2.7,3.5l5.6,6.1l4,4l7,1l3.1,1l4.5,2.5l3.6,3.7l2.7,4l1,5.2l1,4
		l3.6,5.1l1.7,5.7l0.6,4.9l0.1,2.4l-2,1h-5l-4.7-1.9h-3.6l-5,0.4l-5.1,0.7l-2.6,2.4l-1,3l0.9,3.4l6.1,2.6l5.5,3l2.5,1.7l-0.2,3.1
		l-1.7,2c0,0-0.1,2.6-0.1,3s0.1,2.5,0.1,2.5l-3.6,2.6l-2.5,1l-4.2,2.1l-2.9,2.9l0.1,3.5l3,3.1l1.1,4.6l-1.2,5.1l-3.1,2.6l-3,3.4
		l-1.6,3.4l0.5,2.7l3.4,1.1h3.4l4.6,1.1c0,0,2.7,1,3.1,1.5c0.4,0.5,1.9,2.4,1.9,2.4l-1.4,2l-1.6,0.9l-0.2,4.3l-1,7.2l-0.7,2.2v5.1
		v2.5v2.8l4.2,1.6L419,488.6z"/>
	<path style="fill:#955827;" d="M419,487.7l5.2,2.4v3.9h2l3.5-1.3L442,497l5.9-0.8l-0.7-1.2l0.7,1.2h0.3l2-2.2l3.5-3.5l2.8-2l-3-7.5
		l5.7,0.8l3.8,0.3l2.3-3.6l6.9,3.3l3.8-3.3v-3.6l-4.1-1.4l-3.3-19.1l14-2.7v-4.2l7.9-2.7V436l-4.3-6.7l-6-17.2l18.5-6.9l4,3.5l5-0.7
		v4.6l4,0.2l1.7,2.8l4.1-1.3l1.8,3.1l3.5-1.3v3l19-0.8l-1.3-6.9l8.5-2.3l11.2,2.7l1.8,5.7l2.7-2.3l5.5-2.8l2.7-3l2.3,0.3v-3.6
		l2.3-0.8l-2-10.4l-5.9,2.8l-1.7-3l7.5-3.6v-3.6l-1.5-4v-3l-3.3-0.8l3.3-2l-1-2.8l-4.3,1.2l-0.7-4.7l3.8,0.8l1.2-4l-2.7-4.6h-0.1
		l-0.9,1.5l0.9-1.5l-5.8-1.5l-1-5l-10-1.2v3.8l-2.3,0.7l-1.3-3.6l-3.1,0.7l-1.7-7.2l-4.6,1.3l-2.2-6.9l-7.5,3l1.5,7l-4.9,2.2v3
		l-8.2,4.7l-4.1-2l-8.2-1l-9.4-1.5c-0.3,0.4-0.6,0.9-0.9,1.3c-4.7,5.1-15,10.6-15,10.6l-9.1,4.7l-5.1-0.9l-3.6-0.6l-2.9-6.2
		l-1.6-15.1l-4.1-12.1l-6.2-9.5l-3.8-3.2l-7.5-5.5l-5.9-2.5l-7.5,0.1l-7.1,3.2l-6.8,2.3l-5.9,0.2l-7.1-1.5l-6.1-2l-6.1-0.5h-5.2v2.5
		l2.2,3.5l2.7,1.2l1.2,2.5l-0.5,4l2.5,3.5l3.7,1.7h1.7l2.7,3.5l5.6,6.1l4,4l7,1l3.1,1l4.5,2.5l3.6,3.7l2.7,4l1,5.2l1,4l3.6,5.1
		l1.7,5.7l0.6,4.9l0.1,2.4l-2,1h-5l-4.7-1.9h-3.6l-5,0.4l-5.1,0.7l-2.6,2.4l-1,3l0.9,3.4l6.1,2.6l5.5,3l2.5,1.7l-0.2,3.1l-1.7,2
		c0,0-0.1,2.6-0.1,3s0.1,2.5,0.1,2.5l-3.6,2.6l-2.5,1l-4.2,2.1l-2.9,2.9l0.1,3.5l3,3.1l1.1,4.6l-1.2,5.1l-3.1,2.6l-3,3.4l-1.6,3.4
		l0.5,2.7l3.4,1.1h3.4l4.6,1.1c0,0,2.7,1,3.1,1.5c0.4,0.5,1.9,2.4,1.9,2.4l-1.4,2l-1.6,0.9l-0.2,4.3l-1,7.2l-0.7,2.2v5.1v2.5v2.8
		l4.2,1.6L419,487.7z"/>
	<path style="fill:#9E5C25;" d="M419,486.8l5.2,2.4v3.9h2l3.5-1.3l12.3,4.3l5.9-0.8l-0.7-1.2l0.7,1.2h0.3l2-2.2l3.5-3.5l2.8-2
		l-3-7.5l5.7,0.8l3.8,0.3l2.3-3.6l6.9,3.3l3.8-3.3V474l-4.1-1.4l-3.3-19.1l14-2.7v-4.2l7.9-2.7v-8.8l-4.3-6.7l-6-17.2l18.5-6.9
		l4,3.5l5-0.7v4.6l4,0.2l1.7,2.8l4.1-1.3l1.8,3.1l3.5-1.3v3l19-0.8l-1.3-6.9l8.5-2.3l11.2,2.7l1.8,5.7l2.7-2.3l5.5-2.8l2.7-3
		l2.3,0.3v-3.6l2.3-0.8l-2-10.4l-5.9,2.8l-1.7-3l7.5-3.6v-3.6l-1.5-4v-3l-3.3-0.8l3.3-2l-1-2.8l-4.3,1.2l-0.7-4.7l3.8,0.8l1.2-4
		l-2.7-4.6h-0.1l-0.9,1.5l0.9-1.5l-5.8-1.5l-1-5l-10-1.2v3.8l-2.3,0.7l-1.3-3.6l-3.1,0.7l-1.7-7.2l-4.6,1.3l-2.2-6.9l-7.5,3l1.5,7
		l-4.9,2.2v3l-8.2,4.7l-4.1-2l-8.2-1l-9.4-1.5c-0.3,0.4-0.6,0.9-0.9,1.3c-4.7,5.1-15,10.6-15,10.6l-9.1,4.7l-5.1-0.9l-3.6-0.6
		l-2.9-6.2l-1.6-15.1l-4.1-12.1l-6.2-9.5l-3.8-3.2l-7.5-5.5l-5.9-2.5l-7.5,0.1l-7.1,3.2l-6.8,2.3l-5.9,0.2l-7.1-1.5l-6.1-2L385,322
		h-5.2v2.5l2.2,3.5l2.7,1.2l1.2,2.5l-0.5,4l2.5,3.5l3.7,1.7h1.7l2.7,3.5l5.6,6.1l4,4l7,1l3.1,1l4.5,2.5l3.6,3.7l2.7,4l1,5.2l1,4
		l3.6,5.1l1.7,5.7l0.6,4.9l0.1,2.4l-2,1h-5l-4.7-1.9h-3.6l-5,0.4l-5.1,0.7l-2.6,2.4l-1,3l0.9,3.4l6.1,2.6l5.5,3l2.5,1.7l-0.2,3.1
		l-1.7,2c0,0-0.1,2.6-0.1,3s0.1,2.5,0.1,2.5l-3.6,2.6l-2.5,1l-4.2,2.1l-2.9,2.9l0.1,3.5l3,3.1l1.1,4.6l-1.2,5.1l-3.1,2.6l-3,3.4
		l-1.6,3.4l0.5,2.7l3.4,1.1h3.4l4.6,1.1c0,0,2.7,1,3.1,1.5c0.4,0.5,1.9,2.4,1.9,2.4l-1.4,2l-1.6,0.9l-0.2,4.3l-1,7.2l-0.7,2.2v5.1
		v2.5v2.8l4.2,1.6L419,486.8z"/>
	<path style="fill:#A86024;" d="M419,486l5.2,2.4v3.9h2l3.5-1.3l12.3,4.3l5.9-0.8l-0.7-1.2l0.7,1.2h0.3l2-2.2l3.5-3.5l2.8-2l-3-7.5
		l5.7,0.8l3.8,0.3l2.3-3.6l6.9,3.3l3.8-3.3v-3.6l-4.1-1.4l-3.3-19.1l14-2.7v-4.2l7.9-2.7v-8.8l-4.3-6.7l-6-17.2l18.5-6.9l4,3.5
		l5-0.7v4.6l4,0.2l1.7,2.8l4.1-1.3l1.8,3.1l3.5-1.3v3l19-0.8l-1.3-6.9l8.5-2.3l11.2,2.7l1.8,5.7l2.7-2.3l5.5-2.8l2.7-3l2.3,0.3v-3.6
		l2.3-0.8l-2-10.4l-5.9,2.8l-1.7-3l7.5-3.6v-3.6l-1.5-4v-3l-3.3-0.8l3.3-2l-1-2.8l-4.3,1.2l-0.7-4.7l3.8,0.8l1.2-4l-2.7-4.6h-0.1
		l-0.9,1.5l0.9-1.5l-5.8-1.5l-1-5l-10-1.2v3.8l-2.3,0.7l-1.3-3.6l-3.1,0.7l-1.7-7.2l-4.6,1.3l-2.2-6.9l-7.5,3l1.5,7l-4.9,2.2v3
		l-8.2,4.7l-4.1-2l-8.2-1l-9.4-1.5c-0.3,0.4-0.6,0.9-0.9,1.3c-4.7,5.1-15,10.6-15,10.6l-9.1,4.7l-5.1-0.9l-3.6-0.6l-2.9-6.2
		l-1.6-15.1l-4.1-12.1l-6.2-9.5l-3.8-3.2l-7.5-5.5l-5.9-2.5l-7.5,0.1l-7.1,3.2l-6.8,2.3l-5.9,0.2l-7.1-1.5l-6.1-2l-6.1-0.5h-5.2v2.5
		l2.2,3.5l2.7,1.2l1.2,2.5l-0.5,4l2.5,3.5l3.7,1.7h1.7l2.7,3.5l5.6,6.1l4,4l7,1l3.1,1l4.5,2.5l3.6,3.7l2.7,4l1,5.2l1,4l3.6,5.1
		l1.7,5.7l0.6,4.9l0.1,2.4l-2,1h-5l-4.7-1.9h-3.6l-5,0.4l-5.1,0.7l-2.6,2.4l-1,3l0.9,3.4l6.1,2.6l5.5,3l2.5,1.7l-0.2,3.1l-1.7,2
		c0,0-0.1,2.6-0.1,3s0.1,2.5,0.1,2.5l-3.6,2.6l-2.5,1l-4.2,2.1l-2.9,2.9l0.1,3.5l3,3.1l1.1,4.6l-1.2,5.1l-3.1,2.6l-3,3.4l-1.6,3.4
		l0.5,2.7l3.4,1.1h3.4l4.6,1.1c0,0,2.7,1,3.1,1.5c0.4,0.5,1.9,2.4,1.9,2.4l-1.4,2l-1.6,0.9l-0.2,4.3l-1,7.2l-0.7,2.2v5.1v2.5v2.8
		l4.2,1.6L419,486z"/>
	<path style="fill:#B26422;" d="M419,485.1l5.2,2.4v3.9h2l3.5-1.3l12.3,4.3l5.9-0.8l-0.7-1.2l0.7,1.2h0.3l2-2.2l3.5-3.5l2.8-2
		l-3-7.5l5.7,0.8l3.8,0.3l2.3-3.6l6.9,3.3l3.8-3.3v-3.6l-4.1-1.4l-3.3-19.1l14-2.7v-4.2l7.9-2.7v-8.8l-4.3-6.7l-6-17.2l18.5-6.9
		l4,3.5l5-0.7v4.6l4,0.2l1.7,2.8l4.1-1.3l1.8,3.1l3.5-1.3v3l19-0.8l-1.3-6.9l8.5-2.3l11.2,2.7l1.8,5.7l2.7-2.3l5.5-2.8l2.7-3
		l2.3,0.3v-3.6l2.3-0.8l-2-10.4l-5.9,2.8l-1.7-3l7.5-3.6v-3.6l-1.5-4v-3l-3.3-0.8l3.3-2l-1-2.8l-4.3,1.2l-0.7-4.7l3.8,0.8l1.2-4
		l-2.7-4.6h-0.1l-0.9,1.5l0.9-1.5l-5.8-1.5l-1-5l-10-1.2v3.8l-2.3,0.7l-1.3-3.6l-3.1,0.7l-1.7-7.2l-4.6,1.3l-2.2-6.9l-7.5,3l1.5,7
		l-4.9,2.2v3L519,362l-4.1-2l-8.2-1l-9.4-1.5c-0.3,0.4-0.6,0.9-0.9,1.3c-4.7,5.1-15,10.6-15,10.6l-9.1,4.7l-5.1-0.9l-3.6-0.6
		l-2.9-6.2l-1.6-15.1l-4.1-12.1l-6.2-9.5l-3.8-3.2l-7.5-5.5l-5.9-2.5l-7.5,0.1l-7.1,3.2l-6.8,2.3l-5.9,0.2l-7.1-1.5l-6.1-2l-6.1-0.5
		h-5.2v2.5l2.2,3.5l2.7,1.2l1.2,2.5l-0.5,4l2.5,3.5l3.7,1.7h1.7l2.7,3.5l5.6,6.1l4,4l7,1l3.1,1l4.5,2.5l3.6,3.7l2.7,4l1,5.2l1,4
		l3.6,5.1l1.7,5.7l0.6,4.9l0.1,2.4l-2,1h-5l-4.7-1.9h-3.6l-5,0.4l-5.1,0.7l-2.6,2.4l-1,3l0.9,3.4l6.1,2.6l5.5,3l2.5,1.7l-0.2,3.1
		l-1.7,2c0,0-0.1,2.6-0.1,3s0.1,2.5,0.1,2.5l-3.6,2.6l-2.5,1l-4.2,2.1l-2.9,2.9l0.1,3.5l3,3.1l1.1,4.6l-1.2,5.1l-3.1,2.6l-3,3.4
		l-1.6,3.4l0.5,2.7l3.4,1.1h3.4l4.6,1.1c0,0,2.7,1,3.1,1.5c0.4,0.5,1.9,2.4,1.9,2.4l-1.4,2l-1.6,0.9l-0.2,4.3l-1,7.2l-0.7,2.2v5.1
		v2.5v2.8l4.2,1.6L419,485.1z"/>
	<path style="fill:#BB6820;" d="M419,484.3l5.2,2.4v3.9h2l3.5-1.3l12.3,4.3l5.9-0.8l-0.7-1.2l0.7,1.2h0.3l2-2.2l3.5-3.5l2.8-2
		l-3-7.5l5.7,0.8l3.8,0.3l2.3-3.6l6.9,3.3l3.8-3.3v-3.6l-4.1-1.4l-3.3-19.1l14-2.7v-4.2l7.9-2.7v-8.8l-4.3-6.7l-6-17.2l18.5-6.9
		l4,3.5l5-0.7v4.6l4,0.2l1.7,2.8l4.1-1.3l1.8,3.1l3.5-1.3v3l19-0.8l-1.3-6.9l8.5-2.3l11.2,2.7l1.8,5.7l2.7-2.3l5.5-2.8l2.7-3
		l2.3,0.3v-3.6l2.3-0.8l-2-10.4l-5.9,2.8l-1.7-3l7.5-3.6v-3.6l-1.5-4v-3l-3.3-0.8l3.3-2l-1-2.8l-4.3,1.2l-0.7-4.7l3.8,0.8l1.2-4
		l-2.7-4.6h-0.1l-0.9,1.5l0.9-1.5l-5.8-1.5l-1-5l-10-1.2v3.8L551,357l-1.3-3.6l-3.1,0.7l-1.7-7.2l-4.6,1.3l-2.2-6.9l-7.5,3l1.5,7
		l-4.9,2.2v3l-8.2,4.7l-4.1-2l-8.2-1l-9.4-1.5c-0.3,0.4-0.6,0.9-0.9,1.3c-4.7,5.1-15,10.6-15,10.6l-9.1,4.7l-5.1-0.9l-3.6-0.6
		l-2.9-6.2l-1.6-15.1l-4.1-12.1l-6.2-9.5l-3.8-3.2l-7.5-5.5l-5.9-2.5l-7.5,0.1L417,321l-6.8,2.3l-5.9,0.2l-7.1-1.5l-6.1-2l-6.1-0.5
		h-5.2v2.5l2.2,3.5l2.7,1.2l1.2,2.5l-0.5,4l2.5,3.5l3.7,1.7h1.7l2.7,3.5l5.6,6.1l4,4l7,1l3.1,1l4.5,2.5l3.6,3.7l2.7,4l1,5.2l1,4
		l3.6,5.1l1.7,5.7l0.6,4.9l0.1,2.4l-2,1h-5l-4.7-1.9h-3.6l-5,0.4l-5.1,0.7l-2.6,2.4l-1,3l0.9,3.4l6.1,2.6l5.5,3l2.5,1.7l-0.2,3.1
		l-1.7,2c0,0-0.1,2.6-0.1,3s0.1,2.5,0.1,2.5L415,421l-2.5,1l-4.2,2.1l-2.9,2.9l0.1,3.5l3,3.1l1.1,4.6l-1.2,5.1l-3.1,2.6l-3,3.4
		l-1.6,3.4l0.5,2.7l3.4,1.1h3.4l4.6,1.1c0,0,2.7,1,3.1,1.5c0.4,0.5,1.9,2.4,1.9,2.4l-1.4,2l-1.6,0.9l-0.2,4.3l-1,7.2l-0.7,2.2v5.1
		v2.5v2.8l4.2,1.6L419,484.3z"/>
	<path style="fill:#C56C1E;" d="M419,483.4l5.2,2.4v3.9h2l3.5-1.3l12.3,4.3l5.9-0.8l-0.7-1.2l0.7,1.2h0.3l2-2.2l3.5-3.5l2.8-2
		l-3-7.5l5.7,0.8l3.8,0.3l2.3-3.6l6.9,3.3l3.8-3.3v-3.6l-4.1-1.4l-3.3-19.1l14-2.7v-4.2l7.9-2.7v-8.8l-4.3-6.7l-6-17.2l18.5-6.9
		l4,3.5l5-0.7v4.6l4,0.2l1.7,2.8l4.1-1.3l1.8,3.1l3.5-1.3v3l19-0.8l-1.3-6.9l8.5-2.3l11.2,2.7l1.8,5.7l2.7-2.3l5.5-2.8l2.7-3
		l2.3,0.3v-3.6l2.3-0.8l-2-10.4l-5.9,2.8l-1.7-3l7.5-3.6v-3.6l-1.5-4v-3l-3.3-0.8l3.3-2l-1-2.8l-4.3,1.2l-0.7-4.7l3.8,0.8l1.2-4
		l-2.7-4.6h-0.1l-0.9,1.5l0.9-1.5l-5.8-1.5l-1-5l-10-1.2v3.8l-2.3,0.7l-1.3-3.6l-3.1,0.7l-1.7-7.2l-4.6,1.3l-2.2-6.9l-7.5,3l1.5,7
		l-4.9,2.2v3l-8.2,4.7l-4.1-2l-8.2-1l-9.4-1.5c-0.3,0.4-0.6,0.9-0.9,1.3c-4.7,5.1-15,10.6-15,10.6l-9.1,4.7l-5.1-0.9l-3.6-0.6
		l-2.9-6.2l-1.6-15.1l-4.1-12.1l-6.2-9.5l-3.8-3.2l-7.5-5.5l-5.9-2.5l-7.5,0.1l-7.1,3.2l-6.8,2.3l-5.9,0.2l-7.1-1.5l-6.1-2l-6.1-0.5
		h-5.2v2.5l2.2,3.5l2.7,1.2l1.2,2.5l-0.5,4l2.5,3.5l3.7,1.7h1.7l2.7,3.5l5.6,6.1l4,4l7,1l3.1,1l4.5,2.5l3.6,3.7l2.7,4l1,5.2l1,4
		l3.6,5.1l1.7,5.7l0.6,4.9l0.1,2.4l-2,1h-5l-4.7-1.9h-3.6l-5,0.4l-5.1,0.7l-2.6,2.4l-1,3l0.9,3.4l6.1,2.6l5.5,3l2.5,1.7l-0.2,3.1
		l-1.7,2c0,0-0.1,2.6-0.1,3s0.1,2.5,0.1,2.5l-3.6,2.6l-2.5,1l-4.2,2.1l-2.9,2.9l0.1,3.5l3,3.1l1.1,4.6l-1.2,5.1l-3.1,2.6l-3,3.4
		l-1.6,3.4l0.5,2.7l3.4,1.1h3.4l4.6,1.1c0,0,2.7,1,3.1,1.5c0.4,0.5,1.9,2.4,1.9,2.4l-1.4,2l-1.6,0.9l-0.2,4.3l-1,7.2l-0.7,2.2v5.1
		v2.5v2.8l4.2,1.6L419,483.4z"/>
	<path style="fill:#CE701C;" d="M419,482.6l5.2,2.4v3.9h2l3.5-1.3l12.3,4.3l5.9-0.8l-0.7-1.2l0.7,1.2h0.3l2-2.2l3.5-3.5l2.8-2
		l-3-7.5l5.7,0.8l3.8,0.3l2.3-3.6l6.9,3.3l3.8-3.3v-3.6l-4.1-1.4l-3.3-19.1l14-2.7v-4.2l7.9-2.7v-8.8l-4.3-6.7l-6-17.2l18.5-6.9
		l4,3.5l5-0.7v4.6l4,0.2l1.7,2.8l4.1-1.3l1.8,3.1l3.5-1.3v3l19-0.8l-1.3-6.9l8.5-2.3l11.2,2.7l1.8,5.7l2.7-2.3l5.5-2.8l2.7-3
		l2.3,0.3V401l2.3-0.8l-2-10.4l-5.9,2.8l-1.7-3l7.5-3.6v-3.6l-1.5-4v-3l-3.3-0.8l3.3-2l-1-2.8l-4.3,1.2l-0.7-4.7l3.8,0.8l1.2-4
		l-2.7-4.6h-0.1l-0.9,1.5l0.9-1.5l-5.8-1.5l-1-5l-10-1.2v3.8l-2.3,0.7l-1.3-3.6l-3.1,0.7l-1.7-7.2l-4.6,1.3l-2.2-6.9l-7.5,3l1.5,7
		l-4.9,2.2v3l-8.2,4.7l-4.1-2l-8.2-1l-9.4-1.5c-0.3,0.4-0.6,0.9-0.9,1.3c-4.7,5.1-15,10.6-15,10.6l-9.1,4.7l-5.1-0.9l-3.6-0.6
		l-2.9-6.2l-1.6-15.1l-4.1-12.1l-6.2-9.5L445,324l-7.5-5.5l-5.9-2.5l-7.5,0.1l-7.1,3.2l-6.8,2.3l-5.9,0.2l-7.1-1.5l-6.1-2l-6.1-0.5
		h-5.2v2.5l2.2,3.5l2.7,1.2l1.2,2.5l-0.5,4l2.5,3.5l3.7,1.7h1.7l2.7,3.5l5.6,6.1l4,4l7,1l3.1,1l4.5,2.5l3.6,3.7l2.7,4l1,5.2l1,4
		l3.6,5.1l1.7,5.7l0.6,4.9l0.1,2.4l-2,1h-5l-4.7-1.9h-3.6l-5,0.4l-5.1,0.7l-2.6,2.4l-1,3l0.9,3.4l6.1,2.6l5.5,3l2.5,1.7l-0.2,3.1
		l-1.7,2c0,0-0.1,2.6-0.1,3s0.1,2.5,0.1,2.5l-3.6,2.6l-2.5,1l-4.2,2.1l-2.9,2.9l0.1,3.5l3,3.1l1.1,4.6l-1.2,5.1l-3.1,2.6l-3,3.4
		l-1.6,3.4l0.5,2.7l3.4,1.1h3.4l4.6,1.1c0,0,2.7,1,3.1,1.5c0.4,0.5,1.9,2.4,1.9,2.4l-1.4,2l-1.6,0.9l-0.2,4.3l-1,7.2l-0.7,2.2v5.1
		v2.5v2.8l4.2,1.6L419,482.6z"/>
	<path style="fill:#D8741A;" d="M419,481.7l5.2,2.4v3.9h2l3.5-1.3L442,491l5.9-0.8l-0.7-1.2l0.7,1.2h0.3l2-2.2l3.5-3.5l2.8-2l-3-7.5
		l5.7,0.8l3.8,0.3l2.3-3.6l6.9,3.3l3.8-3.3v-3.6l-4.1-1.4l-3.3-19.1l14-2.7v-4.2l7.9-2.7V430l-4.3-6.7l-6-17.2l18.5-6.9l4,3.5l5-0.7
		v4.6l4,0.2l1.7,2.8l4.1-1.3l1.8,3.1l3.5-1.3v3l19-0.8l-1.3-6.9l8.5-2.3l11.2,2.7l1.8,5.7l2.7-2.3l5.5-2.8l2.7-3l2.3,0.3v-3.6
		l2.3-0.8l-2-10.4l-5.9,2.8l-1.7-3l7.5-3.6v-3.6l-1.5-4v-3l-3.3-0.8l3.3-2l-1-2.8l-4.3,1.2l-0.7-4.7l3.8,0.8l1.2-4l-2.7-4.6h-0.1
		l-0.9,1.5l0.9-1.5l-5.8-1.5l-1-5l-10-1.2v3.8l-2.3,0.7l-1.3-3.6l-3.1,0.7l-1.7-7.2l-4.6,1.3l-2.2-6.9l-7.5,3l1.5,7l-4.9,2.2v3
		l-8.2,4.7l-4.1-2l-8.2-1l-9.4-1.5c-0.3,0.4-0.6,0.9-0.9,1.3c-4.7,5.1-15,10.6-15,10.6l-9.1,4.7l-5.1-0.9l-3.6-0.6l-2.9-6.2
		l-1.6-15.1l-4.1-12.1l-6.2-9.5l-3.8-3.2l-7.5-5.5l-5.9-2.5l-7.5,0.1l-7.1,3.2l-6.8,2.3l-5.9,0.2l-7.1-1.5l-6.1-2l-6.1-0.5h-5.2v2.5
		l2.2,3.5l2.7,1.2l1.2,2.5l-0.5,4l2.5,3.5l3.7,1.7h1.7l2.7,3.5l5.6,6.1l4,4l7,1l3.1,1l4.5,2.5l3.6,3.7l2.7,4l1,5.2l1,4l3.6,5.1
		l1.7,5.7l0.6,4.9l0.1,2.4l-2,1h-5l-4.7-1.9h-3.6l-5,0.4l-5.1,0.7l-2.6,2.4l-1,3l0.9,3.4l6.1,2.6l5.5,3l2.5,1.7l-0.2,3.1l-1.7,2
		c0,0-0.1,2.6-0.1,3c0,0.4,0.1,2.5,0.1,2.5l-3.6,2.6l-2.5,1l-4.2,2.1l-2.9,2.9l0.1,3.5l3,3.1l1.1,4.6l-1.2,5.1l-3.1,2.6l-3,3.4
		l-1.6,3.4l0.5,2.7l3.4,1.1h3.4l4.6,1.1c0,0,2.7,1,3.1,1.5c0.4,0.5,1.9,2.4,1.9,2.4l-1.4,2l-1.6,0.9l-0.2,4.3l-1,7.2l-0.7,2.2v5.1
		v2.5v2.8l4.2,1.6L419,481.7z"/>
</g>
<g>
	<path style="fill:#FFFFFF;" d="M442,390.1c0.7,0.5,1.2,1,1.7,1.6l-0.5,0.5c-0.4-0.5-1-1-1.7-1.6L442,390.1z M443.8,393.3
		c-0.4,1.4-0.9,2.6-1.4,3.8l-0.7-0.3c0.6-1.2,1-2.5,1.5-3.8L443.8,393.3z M442.1,387.6c0.7,0.5,1.3,1,1.7,1.5l-0.5,0.5
		c-0.4-0.5-1-1-1.7-1.5L442.1,387.6z M447,392.3v3.6h-2.2v0.6h-0.7v-4.3h1.1v-2h-1.4v-0.7h1.4v-1.8h0.7v1.8h1.4v0.7H446v2L447,392.3
		L447,392.3z M444.8,395.3h1.6V393h-1.6V395.3z M448.4,393.8c-0.1,1.4-0.5,2.5-1.1,3.4l-0.6-0.5c0.6-1,0.9-2.2,0.9-3.7v-5h3v8.4
		c0,0.6-0.3,0.8-0.8,0.8h-0.9l-0.2-0.7c0.4,0,0.7,0,0.8,0c0.2,0,0.4-0.1,0.4-0.4v-2.4L448.4,393.8L448.4,393.8z M450,390.4v-1.9
		h-1.6v1.9H450z M448.4,391.1v1.9h1.6v-1.9H448.4z"/>
	<path style="fill:#FFFFFF;" d="M459.4,387.6c-0.2,0.4-0.5,0.8-0.7,1.1h2.9v0.7h-9.4v-0.7h2.9c-0.2-0.5-0.5-0.9-0.7-1.2l0.8-0.1
		c0.2,0.4,0.5,0.8,0.7,1.3h2.1c0.3-0.5,0.6-0.9,0.8-1.4L459.4,387.6z M454.9,397l-0.2-0.8h0.8c0.3,0,0.4-0.2,0.4-0.5v-1h-2.4v2.3
		h-0.7v-6.7h3.9v5.6c0,0.7-0.3,1.1-0.9,1.1H454.9L454.9,397z M453.5,392.3h2.4v-1.2h-2.4C453.5,391.1,453.5,392.3,453.5,392.3z
		 M453.5,394.3h2.4V393h-2.4C453.5,393,453.5,394.3,453.5,394.3z M457.8,390.8h0.7v4.6h-0.7V390.8z M458.4,397l-0.2-0.7
		c0.5,0,0.9,0.1,1.3,0.1c0.3,0,0.4-0.2,0.4-0.5v-5.8h0.8v5.9c0,0.7-0.3,1-0.9,1C459.8,397,458.4,397,458.4,397z"/>
	<path style="fill:#FFFFFF;" d="M464.9,393.3c-0.2,1.6-0.8,2.8-1.6,3.6l-0.6-0.5c1-1,1.5-2.7,1.5-4.9v-4h0.8v2.5h3.3v-2.6h0.7v2.6
		h2.9v0.7h-6.9v0.7c0,0.3,0,0.6-0.1,1.1h4.8v4.6h-0.8v-3.9L464.9,393.3L464.9,393.3L464.9,393.3z"/>
	<path style="fill:#FFFFFF;" d="M473.9,387.8h8.3v0.7h-7.6v7.3h7.9v0.7h-8.7L473.9,387.8L473.9,387.8z M475.9,389.6
		c1,0.8,1.9,1.5,2.7,2.2c0.6-0.8,1.1-1.7,1.6-2.7l0.7,0.4c-0.5,1.1-1,2-1.7,2.8c0.8,0.8,1.6,1.5,2.3,2.3l-0.6,0.6
		c-0.6-0.8-1.4-1.5-2.2-2.3c-0.9,1-2,1.8-3.2,2.3l-0.4-0.7c1.2-0.5,2.2-1.2,3.1-2.1c-0.9-0.8-1.8-1.5-2.8-2.3L475.9,389.6z"/>
</g>
</svg>
