<?xml version="1.0" encoding="utf-8"?>
<!-- Generator: Adobe Illustrator 17.0.0, SVG Export Plug-In . SVG Version: 6.00 Build 0)  -->
<!DOCTYPE svg PUBLIC "-//W3C//DTD SVG 1.1//EN" "http://www.w3.org/Graphics/SVG/1.1/DTD/svg11.dtd">
<svg version="1.1" id="图层_1" xmlns="http://www.w3.org/2000/svg" xmlns:xlink="http://www.w3.org/1999/xlink" x="0px" y="0px"
	 preserveAspectRatio="none" viewBox="0 0 2000 1300" style="enable-background:new 0 0 2000 1300;" xml:space="preserve">
<g>
	<g>
		<path style="fill:#001A36;" d="M554.1,312.1l10,4.9l20-11.5v-7.3l12-5.4l-3.7-17.1l18.3-7.3l5.4,16.9l11.2-3.2l4.2,17.6l7.6-1.7
			l3.2,8.8l5.6-1.7v-9.3l24.4,2.9l2.4,12.2l14.2,3.7l2.7-4.4l7.6-8.1h7.6l2.4-8.6l18.8-5.6h16.4l6.1-12.7l23.7-17.1l8.8,5.4
			l15.9-21.3l-6.8-4.2l14.7-10.5l-15.2-13.4L821,187l12.7-9.8l20.5-6.1l-2.4-9.3l-24.9-54.3l-10.3-11.5l-6.6-5.4l-8.8-7.6l-15.9-3.7
			h-12.7l-22.5,10.3l-27.4,33.5l-24.7,21.5l-21.5,16.9l-50.6-7.3l-74-21l-11,0.5l-16.9,4.9L503,151l-15.6,17.4l-7.8,18.6v27.6
			l14.4,24.7l18.1,32c0,0,7.3,21-0.7,34.2l23,3.7L554.1,312.1z"/>
		<path style="fill:#001F39;" d="M554.1,311.4l10,4.9l20-11.5v-7.3l12-5.4l-3.7-17.1l18.3-7.3l5.4,16.9l11.2-3.2l4.2,17.6l7.6-1.7
			l3.2,8.8l5.6-1.7v-9.3l24.4,2.9l2.4,12.2l14.2,3.7l2.7-4.4l7.6-8.1h7.6l2.4-8.6l18.8-5.6h16.4l6.1-12.7l23.7-17.1l8.8,5.4
			l15.9-21.3l-6.8-4.2l14.7-10.5l-15.2-13.4l29.3-27.1l12.7-9.8l20.5-6.1l-2.4-9.3l-24.9-54.3l-10.3-11.5L810,90l-8.8-7.6l-15.9-3.7
			h-12.7l-22.5,10.3l-27.4,33.5L698.1,144l-21.5,16.9l-50.6-7.3l-74-21l-11,0.5l-16.9,4.9l-21,12.5l-15.6,17.4l-7.8,18.6v27.6
			l14.4,24.7l18.1,32c0,0,7.3,21-0.7,34.2l23,3.7L554.1,311.4z"/>
		<path style="fill:#01233C;" d="M554.1,310.8l10,4.9l20-11.5v-7.3l12-5.4l-3.7-17.1l18.3-7.3l5.4,16.9l11.2-3.2l4.2,17.6l7.6-1.7
			l3.2,8.8l5.6-1.7v-9.3l24.4,2.9l2.4,12.2l14.2,3.7l2.7-4.4l7.6-8.1h7.6l2.4-8.6l18.8-5.6h16.4l6.1-12.7l23.7-17.1l8.8,5.4
			l15.9-21.3l-6.8-4.2l14.7-10.5l-15.2-13.4l29.3-27.1l12.7-9.8l20.5-6.1l-2.4-9.3l-24.9-54.3l-10.3-11.5l-6.6-5.4l-8.8-7.6
			l-15.9-3.7h-12.7l-22.5,10.3l-27.4,33.5l-24.7,21.5l-21.5,16.9l-50.6-7.3l-74-21l-11,0.5l-16.9,4.9l-21,12.5l-15.6,17.4l-7.8,18.6
			v27.6L494,238l18.1,32c0,0,7.3,21-0.7,34.2l23,3.7L554.1,310.8z"/>
		<path style="fill:#01283F;" d="M554.1,310.1l10,4.9l20-11.5v-7.3l12-5.4l-3.7-17.1l18.3-7.3l5.4,16.9l11.2-3.2l4.2,17.6l7.6-1.7
			l3.2,8.8l5.6-1.7v-9.3l24.4,2.9l2.4,12.2l14.2,3.7l2.7-4.4l7.6-8.1h7.6l2.4-8.6l18.8-5.6h16.4l6.1-12.7l23.7-17.1l8.8,5.4
			l15.9-21.3l-6.8-4.2l14.7-10.5l-15.2-13.4L821,185l12.7-9.8l20.5-6.1l-2.4-9.3l-24.9-54.3l-10.3-11.5l-6.6-5.4l-8.8-7.6l-15.9-3.7
			h-12.7l-22.5,10.3l-27.4,33.5l-24.7,21.5l-21.5,16.9l-50.6-7.3l-74-21l-11,0.5l-16.9,4.9l-21,12.5l-15.6,17.4l-7.8,18.6v27.6
			l14.4,24.7l18.1,32c0,0,7.3,21-0.7,34.2l23,3.7L554.1,310.1z"/>
		<path style="fill:#012C42;" d="M554.1,309.5l10,4.9l20-11.5v-7.3l12-5.4l-3.7-17.1l18.3-7.3l5.4,16.9l11.2-3.2l4.2,17.6l7.6-1.7
			l3.2,8.8l5.6-1.7v-9.3l24.4,2.9l2.4,12.2l14.2,3.7l2.7-4.4l7.6-8.1h7.6l2.4-8.6l18.8-5.6h16.4l6.1-12.7l23.7-17.1l8.8,5.4
			l15.9-21.3l-6.8-4.2l14.7-10.5l-15.2-13.4l29.3-27.1l12.7-9.8l20.5-6.1l-2.4-9.3L826.8,105l-10.3-11.5l-6.6-5.4l-8.8-7.6
			l-15.9-3.7h-12.7l-22.5,10.3l-27.4,33.5l-24.7,21.5L676.5,159l-50.6-7.3l-74-21l-11,0.5l-16.9,4.9l-21,12.5l-15.6,17.4l-7.8,18.6
			V212l14.4,24.7l18.1,32c0,0,7.3,21-0.7,34.2l23,3.7L554.1,309.5z"/>
		<path style="fill:#023145;" d="M554.1,308.9l10,4.9l20-11.5v-7.3l12-5.4l-3.7-17.1l18.3-7.3l5.4,16.9l11.2-3.2l4.2,17.6l7.6-1.7
			l3.2,8.8l5.6-1.7v-9.3l24.4,2.9l2.4,12.2l14.2,3.7l2.7-4.4l7.6-8.1h7.6l2.4-8.6l18.8-5.6h16.4l6.1-12.7l23.7-17.1l8.8,5.4L799,239
			l-6.8-4.2l14.7-10.5l-15.2-13.4l29.3-27.1l12.7-9.8l20.5-6.1l-2.4-9.3l-24.9-54.3l-10.3-11.5l-6.6-5.4l-8.8-7.6l-15.9-3.7h-12.7
			l-22.5,10.3L722.7,120l-24.7,21.5l-21.5,16.9L626,151l-74-21l-11,0.5l-16.9,4.9l-21,12.5l-15.6,17.4l-7.8,18.6v27.6L494,236
			l18.1,32c0,0,7.3,21-0.7,34.2l23,3.7L554.1,308.9z"/>
		<path style="fill:#023548;" d="M554.1,308.2l10,4.9l20-11.5v-7.3l12-5.4l-3.7-17.1l18.3-7.3l5.4,16.9l11.2-3.2l4.2,17.6l7.6-1.7
			l3.2,8.8l5.6-1.7v-9.3l24.4,2.9l2.4,12.2l14.2,3.7l2.7-4.4l7.6-8.1h7.6l2.4-8.6l18.8-5.6h16.4l6.1-12.7l23.7-17.1l8.8,5.4
			l15.9-21.3l-6.8-4.2l14.7-10.5l-15.2-13.4l29.3-27.1l12.7-9.8l20.5-6.1l-2.4-9.3l-24.9-54.3l-10.3-11.5l-6.6-5.4l-8.8-7.6
			l-15.9-3.7h-12.7l-22.5,10.3l-27.4,33.5l-24.7,21.5l-21.5,16.9l-50.6-7.3l-74-21l-11,0.5l-16.9,4.9l-21,12.5l-15.6,17.4l-7.8,18.6
			v27.6l14.4,24.7l18.1,32c0,0,7.3,21-0.7,34.2l23,3.7L554.1,308.2z"/>
		<path style="fill:#023A4B;" d="M554.1,307.6l10,4.9l20-11.5v-7.3l12-5.4l-3.7-17.1l18.3-7.3l5.4,16.9l11.2-3.2l4.2,17.6l7.6-1.7
			l3.2,8.8l5.6-1.7v-9.3l24.4,2.9l2.4,12.2L689,310l2.7-4.4l7.6-8.1h7.6l2.4-8.6l18.8-5.6h16.4l6.1-12.7l23.7-17.1l8.8,5.4
			l15.9-21.3l-6.8-4.2l14.7-10.5l-15.2-13.4l29.3-27.1l12.7-9.8l20.5-6.1l-2.4-9.3L826.8,103l-10.3-11.5l-6.6-5.4l-8.8-7.6
			l-15.9-3.7h-12.7l-22.5,10.3l-27.4,33.5l-24.7,21.5L676.5,157l-50.6-7.3l-74-21l-11,0.5l-16.9,4.9l-21,12.5l-15.6,17.4l-7.8,18.6
			v27.6l14.4,24.7l18.1,32c0,0,7.3,21-0.7,34.2l23,3.7L554.1,307.6z"/>
		<path style="fill:#033F4D;" d="M554.1,306.9l10,4.9l20-11.5V293l12-5.4l-3.7-17.1l18.3-7.3l5.4,16.9l11.2-3.2l4.2,17.6l7.6-1.7
			l3.2,8.8l5.6-1.7v-9.3l24.4,2.9l2.4,12.2l14.2,3.7l2.7-4.4l7.6-8.1h7.6l2.4-8.6l18.8-5.6h16.4l6.1-12.7l23.7-17.1l8.8,5.4L799,237
			l-6.8-4.2l14.7-10.5l-15.2-13.4l29.3-27.1l12.7-9.8l20.5-6.1l-2.4-9.3l-24.9-54.3l-10.3-11.5l-6.6-5.4l-8.8-7.6l-15.9-3.7h-12.7
			l-22.5,10.3L722.7,118l-24.7,21.5l-21.5,16.9l-50.6-7.3l-74-21l-11,0.5l-16.9,4.9l-21,12.5l-15.6,17.4l-7.8,18.6v27.6l14.4,24.7
			l18.1,32c0,0,7.3,21-0.7,34.2l23,3.7L554.1,306.9z"/>
		<path style="fill:#034350;" d="M554.1,306.3l10,4.9l20-11.5v-7.3l12-5.4l-3.7-17.1l18.3-7.3l5.4,16.9l11.2-3.2l4.2,17.6l7.6-1.7
			l3.2,8.8l5.6-1.7v-9.3l24.4,2.9l2.4,12.2l14.2,3.7l2.7-4.4l7.6-8.1h7.6l2.4-8.6l18.8-5.6h16.4l6.1-12.7l23.7-17.1l8.8,5.4
			l15.9-21.3l-6.8-4.2l14.7-10.5l-15.2-13.4l29.3-27.1l12.7-9.8l20.5-6.1l-2.4-9.3l-24.9-54.3l-10.3-11.5l-6.6-5.4l-8.8-7.6
			l-15.9-3.7h-12.7l-22.5,10.3l-27.4,33.5l-24.7,21.5l-21.5,16.9l-50.6-7.3l-74-21l-11,0.5l-16.9,4.9l-21,12.5l-15.6,17.4l-7.8,18.6
			v27.6l14.4,24.7l18.1,32c0,0,7.3,21-0.7,34.2l23,3.7L554.1,306.3z"/>
		<path style="fill:#044853;" d="M554.1,305.6l10,4.9l20-11.5v-7.3l12-5.4l-3.7-17.1l18.3-7.3l5.4,16.9l11.2-3.2l4.2,17.6l7.6-1.7
			l3.2,8.8l5.6-1.7v-9.3l24.4,2.9l2.4,12.2l14.2,3.7l2.7-4.4l7.6-8.1h7.6l2.4-8.6l18.8-5.6h16.4l6.1-12.7l23.7-17.1l8.8,5.4
			l15.9-21.3l-6.8-4.2l14.7-10.5l-15.2-13.4l29.3-27.1l12.7-9.8l20.5-6.1l-2.4-9.3l-24.9-54.3l-10.3-11.5l-6.6-5.4l-8.8-7.6
			L785.3,73h-12.7l-22.5,10.3l-27.4,33.5l-24.7,21.5l-21.5,16.9l-50.6-7.3l-74-21l-11,0.5l-16.9,4.9l-21,12.5l-15.6,17.4l-7.8,18.6
			v27.6l14.4,24.7l18.1,32c0,0,7.3,21-0.7,34.2l23,3.7L554.1,305.6z"/>
		<path style="fill:#044C56;" d="M554.1,305l10,4.9l20-11.5v-7.3l12-5.4l-3.7-17.1l18.3-7.3l5.4,16.9l11.2-3.2l4.2,17.6l7.6-1.7
			l3.2,8.8l5.6-1.7v-9.3l24.4,2.9l2.4,12.2l14.2,3.7l2.7-4.4l7.6-8.1h7.6l2.4-8.6l18.8-5.6h16.4l6.1-12.7l23.7-17.1l8.8,5.4
			l15.9-21.3l-6.8-4.2l14.7-10.5L791.7,207l29.3-27.1l12.7-9.8l20.5-6.1l-2.4-9.3l-24.9-54.3L816.6,89l-6.6-5.4l-8.8-7.6l-15.9-3.7
			h-12.7l-22.5,10.3l-27.4,33.5l-24.7,21.5l-21.5,16.9l-50.6-7.3l-74-21l-11,0.5l-16.9,4.9l-21,12.5l-15.6,17.4l-7.8,18.6v27.6
			l14.4,24.7l18.1,32c0,0,7.3,21-0.7,34.2l23,3.7L554.1,305z"/>
		<path style="fill:#045159;" d="M554.1,304.3l10,4.9l20-11.5v-7.3l12-5.4l-3.7-17.1l18.3-7.3l5.4,16.9l11.2-3.2l4.2,17.6l7.6-1.7
			l3.2,8.8l5.6-1.7V288l24.4,2.9l2.4,12.2l14.2,3.7l2.7-4.4l7.6-8.1h7.6l2.4-8.6l18.8-5.6h16.4l6.1-12.7l23.7-17.1l8.8,5.4
			l15.9-21.3l-6.8-4.2l14.7-10.5l-15.2-13.4l29.3-27.1l12.7-9.8l20.5-6.1l-2.4-9.3l-24.9-54.3l-10.3-11.5l-6.6-5.4l-8.8-7.6
			l-15.9-3.7h-12.7L750.1,82l-27.4,33.5l-24.7,21.5l-21.5,16.9l-50.6-7.3l-74-21l-11,0.5l-16.9,4.9l-21,12.5l-15.6,17.4l-7.8,18.6
			v27.6l14.4,24.7l18.1,32c0,0,7.3,21-0.7,34.2l23,3.7L554.1,304.3z"/>
		<path style="fill:#05565C;" d="M554.1,303.7l10,4.9l20-11.5v-7.3l12-5.4l-3.7-17.1l18.3-7.3l5.4,16.9l11.2-3.2l4.2,17.6l7.6-1.7
			l3.2,8.8l5.6-1.7v-9.3l24.4,2.9l2.4,12.2l14.2,3.7l2.7-4.4l7.6-8.1h7.6l2.4-8.6l18.8-5.6h16.4l6.1-12.7l23.7-17.1l8.8,5.4
			l15.9-21.3l-6.8-4.2l14.7-10.5l-15.2-13.4l29.3-27.1l12.7-9.8l20.5-6.1l-2.4-9.3l-24.9-54.3l-10.3-11.5l-6.6-5.4l-8.8-7.6
			L785.3,71h-12.7l-22.5,10.3l-27.4,33.5l-24.7,21.5l-21.5,16.9l-50.6-7.3l-74-21l-11,0.5l-16.9,4.9l-21,12.5L487.4,160l-7.8,18.6
			v27.6l14.4,24.7l18.1,32c0,0,7.3,21-0.7,34.2l23,3.7L554.1,303.7z"/>
		<path style="fill:#055A5F;" d="M554.1,303l10,4.9l20-11.5v-7.3l12-5.4l-3.7-17.1l18.3-7.3l5.4,16.9l11.2-3.2l4.2,17.6l7.6-1.7
			l3.2,8.8l5.6-1.7v-9.3l24.4,2.9l2.4,12.2l14.2,3.7l2.7-4.4l7.6-8.1h7.6l2.4-8.6l18.8-5.6h16.4l6.1-12.7l23.7-17.1l8.8,5.4
			l15.9-21.3l-6.8-4.2l14.7-10.5l-15.2-13.4l29.3-27.1l12.7-9.8l20.5-6.1l-2.4-9.3l-24.9-54.3L816.6,87l-6.6-5.4l-8.8-7.6l-15.9-3.7
			h-12.7l-22.5,10.3l-27.4,33.5l-24.7,21.5l-21.5,16.9l-50.6-7.3l-74-21l-11,0.5l-16.9,4.9L503,142l-15.6,17.4l-7.8,18.6v27.6
			l14.4,24.7l18.1,32c0,0,7.3,21-0.7,34.2l23,3.7L554.1,303z"/>
		<path style="fill:#055F62;" d="M554.1,302.4l10,4.9l20-11.5v-7.3l12-5.4l-3.7-17.1l18.3-7.3l5.4,16.9l11.2-3.2l4.2,17.6l7.6-1.7
			l3.2,8.8l5.6-1.7V286l24.4,2.9l2.4,12.2l14.2,3.7l2.7-4.4l7.6-8.1h7.6l2.4-8.6l18.8-5.6h16.4l6.1-12.7l23.7-17.1l8.8,5.4
			l15.9-21.3l-6.8-4.2l14.7-10.5l-15.2-13.4l29.3-27.1l12.7-9.8l20.5-6.1l-2.4-9.3l-24.9-54.3l-10.3-11.5L810,81l-8.8-7.6l-15.9-3.7
			h-12.7L750.1,80l-27.4,33.5L698.1,135l-21.5,16.9l-50.6-7.3l-74-21l-11,0.5l-16.9,4.9l-21,12.5l-15.6,17.4l-7.8,18.6v27.6
			l14.4,24.7l18.1,32c0,0,7.3,21-0.7,34.2l23,3.7L554.1,302.4z"/>
		<path style="fill:#066365;" d="M554.1,301.8l10,4.9l20-11.5v-7.3l12-5.4l-3.7-17.1l18.3-7.3l5.4,16.9l11.2-3.2l4.2,17.6l7.6-1.7
			l3.2,8.8l5.6-1.7v-9.3l24.4,2.9l2.4,12.2l14.2,3.7l2.7-4.4l7.6-8.1h7.6l2.4-8.6l18.8-5.6h16.4l6.1-12.7l23.7-17.1l8.8,5.4
			l15.9-21.3l-6.8-4.2l14.7-10.5l-15.2-13.4l29.3-27.1l12.7-9.8l20.5-6.1l-2.4-9.3l-24.9-54.3l-10.3-11.5l-6.6-5.4l-8.8-7.6
			l-15.9-3.7h-12.7l-22.5,10.3l-27.4,33.5l-24.7,21.5l-21.5,16.9l-50.6-7.3l-74-21l-11,0.5l-16.9,4.9l-21,12.5l-15.6,17.4l-7.8,18.6
			v27.6l14.4,24.7l18.1,32c0,0,7.3,21-0.7,34.2l23,3.7L554.1,301.8z"/>
		<path style="fill:#066868;" d="M554.1,301.1l10,4.9l20-11.5v-7.3l12-5.4l-3.7-17.1l18.3-7.3l5.4,16.9l11.2-3.2l4.2,17.6l7.6-1.7
			l3.2,8.8l5.6-1.7v-9.3l24.4,2.9l2.4,12.2l14.2,3.7l2.7-4.4l7.6-8.1h7.6l2.4-8.6l18.8-5.6h16.4l6.1-12.7l23.7-17.1l8.8,5.4
			l15.9-21.3l-6.8-4.2l14.7-10.5l-15.2-13.4L821,176l12.7-9.8l20.5-6.1l-2.4-9.3l-24.9-54.3l-10.3-11.5l-6.6-5.4l-8.8-7.6l-15.9-3.7
			h-12.7l-22.5,10.3l-27.4,33.5l-24.7,21.5l-21.5,16.9l-50.6-7.3l-74-21l-11,0.5l-16.9,4.9l-21,12.5l-15.6,17.4l-7.8,18.6v27.6
			l14.4,24.7l18.1,32c0,0,7.3,21-0.7,34.2l23,3.7L554.1,301.1z"/>
		<path style="fill:#066C6B;" d="M554.1,300.5l10,4.9l20-11.5v-7.3l12-5.4l-3.7-17.1l18.3-7.3l5.4,16.9l11.2-3.2l4.2,17.6l7.6-1.7
			l3.2,8.8l5.6-1.7v-9.3l24.4,2.9l2.4,12.2l14.2,3.7l2.7-4.4l7.6-8.1h7.6l2.4-8.6l18.8-5.6h16.4l6.1-12.7l23.7-17.1l8.8,5.4
			l15.9-21.3l-6.8-4.2l14.7-10.5l-15.2-13.4l29.3-27.1l12.7-9.8l20.5-6.1l-2.4-9.3l-24.9-54.3l-10.3-11.5l-6.6-5.4l-8.8-7.6
			l-15.9-3.7h-12.7l-22.5,10.3l-27.4,33.5l-24.7,21.5l-21.5,16.9l-50.6-7.3l-74-21l-11,0.5l-16.9,4.9l-21,12.5l-15.6,17.4l-7.8,18.6
			V203l14.4,24.7l18.1,32c0,0,7.3,21-0.7,34.2l23,3.7L554.1,300.5z"/>
		<path style="fill:#07716E;" d="M554.1,299.8l10,4.9l20-11.5v-7.3l12-5.4l-3.7-17.1l18.3-7.3l5.4,16.9l11.2-3.2l4.2,17.6l7.6-1.7
			l3.2,8.8l5.6-1.7v-9.3l24.4,2.9l2.4,12.2l14.2,3.7l2.7-4.4l7.6-8.1h7.6l2.4-8.6l18.8-5.6h16.4l6.1-12.7l23.7-17.1l8.8,5.4
			l15.9-21.3l-6.8-4.2l14.7-10.5l-15.2-13.4l29.3-27.1l12.7-9.8l20.5-6.1l-2.4-9.3l-24.9-54.3l-10.3-11.5l-6.6-5.4l-8.8-7.6
			l-15.9-3.7h-12.7l-22.5,10.3l-27.4,33.5l-24.7,21.5l-21.5,16.9L626,142l-74-21l-11,0.5l-16.9,4.9l-21,12.5l-15.6,17.4l-7.8,18.6
			v27.6L494,227l18.1,32c0,0,7.3,21-0.7,34.2l23,3.7L554.1,299.8z"/>
		<path style="fill:#077671;" d="M554.1,299.2l10,4.9l20-11.5v-7.3l12-5.4l-3.7-17.1l18.3-7.3l5.4,16.9l11.2-3.2l4.2,17.6l7.6-1.7
			l3.2,8.8l5.6-1.7v-9.3l24.4,2.9l2.4,12.2l14.2,3.7l2.7-4.4l7.6-8.1h7.6l2.4-8.6l18.8-5.6h16.4l6.1-12.7l23.7-17.1l8.8,5.4
			l15.9-21.3l-6.8-4.2l14.7-10.5l-15.2-13.4l29.3-27.1l12.7-9.8l20.5-6.1l-2.4-9.3l-24.9-54.3l-10.3-11.5l-6.6-5.4l-8.8-7.6
			l-15.9-3.7h-12.7l-22.5,10.3l-27.4,33.5l-24.7,21.5l-21.5,16.9l-50.6-7.3l-74-21l-11,0.5l-16.9,4.9l-21,12.5l-15.6,17.4l-7.8,18.6
			v27.6l14.4,24.7l18.1,32c0,0,7.3,21-0.7,34.2l23,3.7L554.1,299.2z"/>
		<path style="fill:#077A74;" d="M554.1,298.5l10,4.9l20-11.5v-7.3l12-5.4l-3.7-17.1l18.3-7.3l5.4,16.9l11.2-3.2l4.2,17.6l7.6-1.7
			l3.2,8.8l5.6-1.7v-9.3l24.4,2.9l2.4,12.2L689,301l2.7-4.4l7.6-8.1h7.6l2.4-8.6l18.8-5.6h16.4l6.1-12.7l23.7-17.1l8.8,5.4
			l15.9-21.3l-6.8-4.2l14.7-10.5l-15.2-13.4l29.3-27.1l12.7-9.8l20.5-6.1l-2.4-9.3L826.8,94l-10.3-11.5l-6.6-5.4l-8.8-7.6l-15.9-3.7
			h-12.7l-22.5,10.3l-27.4,33.5l-24.7,21.5L676.5,148l-50.6-7.3l-74-21l-11,0.5l-16.9,4.9l-21,12.5l-15.6,17.4l-7.8,18.6V201
			l14.4,24.7l18.1,32c0,0,7.3,21-0.7,34.2l23,3.7L554.1,298.5z"/>
		<path style="fill:#087F77;" d="M554.1,297.9l10,4.9l20-11.5V284l12-5.4l-3.7-17.1l18.3-7.3l5.4,16.9l11.2-3.2l4.2,17.6l7.6-1.7
			l3.2,8.8l5.6-1.7v-9.3l24.4,2.9l2.4,12.2l14.2,3.7l2.7-4.4l7.6-8.1h7.6l2.4-8.6l18.8-5.6h16.4l6.1-12.7l23.7-17.1l8.8,5.4L799,228
			l-6.8-4.2l14.7-10.5l-15.2-13.4l29.3-27.1l12.7-9.8l20.5-6.1l-2.4-9.3l-24.9-54.3l-10.3-11.5l-6.6-5.4l-8.8-7.6l-15.9-3.7h-12.7
			l-22.5,10.3L722.7,109l-24.7,21.5l-21.5,16.9L626,140l-74-21l-11,0.5l-16.9,4.9l-21,12.5l-15.6,17.4l-7.8,18.6v27.6l14.4,24.7
			l18.1,32c0,0,7.3,21-0.7,34.2l23,3.7L554.1,297.9z"/>
		<path style="fill:#08837A;" d="M554.1,297.2l10,4.9l20-11.5v-7.3l12-5.4l-3.7-17.1l18.3-7.3l5.4,16.9l11.2-3.2l4.2,17.6l7.6-1.7
			l3.2,8.8l5.6-1.7v-9.3l24.4,2.9l2.4,12.2l14.2,3.7l2.7-4.4l7.6-8.1h7.6l2.4-8.6l18.8-5.6h16.4l6.1-12.7l23.7-17.1l8.8,5.4
			l15.9-21.3l-6.8-4.2l14.7-10.5l-15.2-13.4l29.3-27.1l12.7-9.8l20.5-6.1l-2.4-9.3l-24.9-54.3l-10.3-11.5l-6.6-5.4l-8.8-7.6
			l-15.9-3.7h-12.7l-22.5,10.3l-27.4,33.5l-24.7,21.5l-21.5,16.9l-50.6-7.3l-74-21l-11,0.5l-16.9,4.9l-21,12.5l-15.6,17.4l-7.8,18.6
			v27.6l14.4,24.7l18.1,32c0,0,7.3,21-0.7,34.2l23,3.7L554.1,297.2z"/>
		<path style="fill:#09887C;" d="M554.1,296.6l10,4.9l20-11.5v-7.3l12-5.4l-3.7-17.1l18.3-7.3l5.4,16.9l11.2-3.2l4.2,17.6l7.6-1.7
			l3.2,8.8l5.6-1.7v-9.3l24.4,2.9l2.4,12.2L689,299l2.7-4.4l7.6-8.1h7.6l2.4-8.6l18.8-5.6h16.4l6.1-12.7l23.7-17.1l8.8,5.4
			l15.9-21.3l-6.8-4.2l14.7-10.5l-15.2-13.4l29.3-27.1l12.7-9.8l20.5-6.1l-2.4-9.3l-24.9-54.3l-10.3-11.5l-6.6-5.4l-8.8-7.6
			l-15.9-3.7h-12.7l-22.5,10.3l-27.4,33.5l-24.7,21.5l-21.5,16.9l-50.6-7.3l-74-21l-11,0.5l-16.9,4.9l-21,12.5l-15.6,17.4l-7.8,18.6
			v27.6l14.4,24.7l18.1,32c0,0,7.3,21-0.7,34.2l23,3.7L554.1,296.6z"/>
		<path style="fill:#098D7F;" d="M554.1,296l10,4.9l20-11.5V282l12-5.4l-3.7-17.1l18.3-7.3l5.4,16.9l11.2-3.2l4.2,17.6l7.6-1.7
			l3.2,8.8l5.6-1.7v-9.3l24.4,2.9l2.4,12.2l14.2,3.7l2.7-4.4l7.6-8.1h7.6l2.4-8.6l18.8-5.6h16.4l6.1-12.7l23.7-17.1l8.8,5.4
			l15.9-21.3l-6.8-4.2l14.7-10.5L791.7,198l29.3-27.1l12.7-9.8l20.5-6.1l-2.4-9.3l-24.9-54.3l-10.3-11.5l-6.6-5.4l-8.8-7.6
			l-15.9-3.7h-12.7l-22.5,10.3L722.7,107l-24.7,21.5l-21.5,16.9l-50.6-7.3l-74-21l-11,0.5l-16.9,4.9l-21,12.5l-15.6,17.4l-7.8,18.6
			v27.6l14.4,24.7l18.1,32c0,0,7.3,21-0.7,34.2l23,3.7L554.1,296z"/>
		<path style="fill:#099182;" d="M554.1,295.3l10,4.9l20-11.5v-7.3l12-5.4l-3.7-17.1l18.3-7.3l5.4,16.9l11.2-3.2l4.2,17.6l7.6-1.7
			l3.2,8.8l5.6-1.7v-9.3l24.4,2.9l2.4,12.2l14.2,3.7l2.7-4.4l7.6-8.1h7.6l2.4-8.6l18.8-5.6h16.4l6.1-12.7l23.7-17.1l8.8,5.4
			l15.9-21.3l-6.8-4.2l14.7-10.5l-15.2-13.4l29.3-27.1l12.7-9.8l20.5-6.1l-2.4-9.3l-24.9-54.3l-10.3-11.5l-6.6-5.4l-8.8-7.6
			l-15.9-3.7h-12.7l-22.5,10.3l-27.4,33.5l-24.7,21.5l-21.5,16.9l-50.6-7.3l-74-21l-11,0.5l-16.9,4.9l-21,12.5l-15.6,17.4l-7.8,18.6
			v27.6l14.4,24.7l18.1,32c0,0,7.3,21-0.7,34.2l23,3.7L554.1,295.3z"/>
		<path style="fill:#0A9685;" d="M554.1,294.7l10,4.9l20-11.5v-7.3l12-5.4l-3.7-17.1l18.3-7.3l5.4,16.9l11.2-3.2l4.2,17.6l7.6-1.7
			l3.2,8.8l5.6-1.7v-9.3l24.4,2.9l2.4,12.2l14.2,3.7l2.7-4.4l7.6-8.1h7.6l2.4-8.6l18.8-5.6h16.4l6.1-12.7l23.7-17.1l8.8,5.4
			l15.9-21.3l-6.8-4.2l14.7-10.5l-15.2-13.4l29.3-27.1l12.7-9.8l20.5-6.1l-2.4-9.3l-24.9-54.3l-10.3-11.5l-6.6-5.4l-8.8-7.6
			L785.3,62h-12.7l-22.5,10.3l-27.4,33.5l-24.7,21.5l-21.5,16.9l-50.6-7.3l-74-21l-11,0.5l-16.9,4.9l-21,12.5L487.4,151l-7.8,18.6
			v27.6l14.4,24.7l18.1,32c0,0,7.3,21-0.7,34.2l23,3.7L554.1,294.7z"/>
		<path style="fill:#0A9A88;" d="M554.1,294l10,4.9l20-11.5v-7.3l12-5.4l-3.7-17.1l18.3-7.3l5.4,16.9l11.2-3.2l4.2,17.6l7.6-1.7
			l3.2,8.8l5.6-1.7v-9.3l24.4,2.9l2.4,12.2l14.2,3.7l2.7-4.4l7.6-8.1h7.6l2.4-8.6l18.8-5.6h16.4l6.1-12.7l23.7-17.1l8.8,5.4
			l15.9-21.3l-6.8-4.2l14.7-10.5L791.7,196l29.3-27.1l12.7-9.8l20.5-6.1l-2.4-9.3l-24.9-54.3L816.6,78l-6.6-5.4l-8.8-7.6l-15.9-3.7
			h-12.7l-22.5,10.3l-27.4,33.5l-24.7,21.5l-21.5,16.9l-50.6-7.3l-74-21l-11,0.5l-16.9,4.9L503,133l-15.6,17.4l-7.8,18.6v27.6
			l14.4,24.7l18.1,32c0,0,7.3,21-0.7,34.2l23,3.7L554.1,294z"/>
		<path style="fill:#0A9F8B;" d="M554.1,293.4l10,4.9l20-11.5v-7.3l12-5.4l-3.7-17.1l18.3-7.3l5.4,16.9l11.2-3.2l4.2,17.6l7.6-1.7
			l3.2,8.8l5.6-1.7V277l24.4,2.9l2.4,12.2l14.2,3.7l2.7-4.4l7.6-8.1h7.6l2.4-8.6l18.8-5.6h16.4l6.1-12.7l23.7-17.1l8.8,5.4
			l15.9-21.3l-6.8-4.2l14.7-10.5l-15.2-13.4l29.3-27.1l12.7-9.8l20.5-6.1l-2.4-9.3l-24.9-54.3l-10.3-11.5L810,72l-8.8-7.6l-15.9-3.7
			h-12.7L750.1,71l-27.4,33.5L698.1,126l-21.5,16.9l-50.6-7.3l-74-21l-11,0.5l-16.9,4.9l-21,12.5l-15.6,17.4l-7.8,18.6v27.6
			l14.4,24.7l18.1,32c0,0,7.3,21-0.7,34.2l23,3.7L554.1,293.4z"/>
		<path style="fill:#0BA38E;" d="M554.1,292.7l10,4.9l20-11.5v-7.3l12-5.4l-3.7-17.1l18.3-7.3l5.4,16.9l11.2-3.2l4.2,17.6l7.6-1.7
			l3.2,8.8l5.6-1.7v-9.3l24.4,2.9l2.4,12.2l14.2,3.7l2.7-4.4l7.6-8.1h7.6l2.4-8.6l18.8-5.6h16.4l6.1-12.7l23.7-17.1l8.8,5.4
			l15.9-21.3l-6.8-4.2l14.7-10.5l-15.2-13.4l29.3-27.1l12.7-9.8l20.5-6.1l-2.4-9.3l-24.9-54.3l-10.3-11.5l-6.6-5.4l-8.8-7.6
			l-15.9-3.7h-12.7l-22.5,10.3l-27.4,33.5l-24.7,21.5l-21.5,16.9l-50.6-7.3l-74-21l-11,0.5l-16.9,4.9l-21,12.5L487.4,149l-7.8,18.6
			v27.6l14.4,24.7l18.1,32c0,0,7.3,21-0.7,34.2l23,3.7L554.1,292.7z"/>
		<path style="fill:#0BA891;" d="M554.1,292.1l10,4.9l20-11.5v-7.3l12-5.4l-3.7-17.1l18.3-7.3l5.4,16.9l11.2-3.2l4.2,17.6l7.6-1.7
			l3.2,8.8l5.6-1.7v-9.3l24.4,2.9l2.4,12.2l14.2,3.7l2.7-4.4l7.6-8.1h7.6l2.4-8.6l18.8-5.6h16.4l6.1-12.7l23.7-17.1l8.8,5.4
			l15.9-21.3l-6.8-4.2l14.7-10.5l-15.2-13.4L821,167l12.7-9.8l20.5-6.1l-2.4-9.3l-24.9-54.3l-10.3-11.5l-6.6-5.4l-8.8-7.6l-15.9-3.7
			h-12.7l-22.5,10.3l-27.4,33.5l-24.7,21.5l-21.5,16.9l-50.6-7.3l-74-21l-11,0.5l-16.9,4.9L503,131l-15.6,17.4l-7.8,18.6v27.6
			l14.4,24.7l18.1,32c0,0,7.3,21-0.7,34.2l23,3.7L554.1,292.1z"/>
	</g>
	<g>
		<path style="fill:#CDEFF9;" d="M590.2,204.9c2.5,1.8,4.6,3.5,6.2,5.2l-2.3,2.3c-1.6-1.7-3.6-3.5-6.2-5.3L590.2,204.9z
			 M597.2,215.5c-1.6,4.3-3.4,8.4-5.4,12.1l-3.3-1.4c2.2-3.8,4.1-7.8,5.7-11.9L597.2,215.5z M591.6,196.7c2.5,1.8,4.7,3.5,6.4,5.4
			l-2.3,2.3c-1.5-1.6-3.7-3.5-6.4-5.4L591.6,196.7z M614.5,197.7v8.6c0,1,0.5,1.4,1.6,1.4h3.4v3.1h-4.3c-2.5,0-3.8-1.3-3.8-3.8v-6.3
			h-6.6c0,2.3-0.4,4.3-1.1,6.2c-0.8,1.8-2.2,3.6-4.1,5.2l-2.5-2.2c1.8-1.7,3.1-3.4,3.7-4.9c0.5-1.6,0.8-4,0.8-7.4H614.5z
			 M616.5,212.7v15h-3.3v-1.4H603v1.4h-3.2v-15H616.5z M603,223.2h10.3v-7.4H603V223.2z"/>
		<path style="fill:#CDEFF9;" d="M624.5,204.8c2.5,1.8,4.6,3.4,6.1,5.1l-2.3,2.3c-1.5-1.6-3.5-3.3-6.1-5.1L624.5,204.8z
			 M631.1,215.1c-1.6,4.4-3.5,8.5-5.4,12.3l-3-1.3c2.1-3.8,4-7.8,5.6-12.1L631.1,215.1z M625.4,196.6c2.4,1.6,4.4,3.3,6.1,4.9
			l-2.3,2.3c-1.5-1.6-3.5-3.2-6.2-5L625.4,196.6z M641.3,201.2h-8.3v-3.1h19.5v3.1h-8v22.3h9.2v3.1h-22.4v-3.1h10V201.2z"/>
		<path style="fill:#CDEFF9;" d="M664.5,215.7c-0.8,5-2.4,8.8-4.9,11.5l-2.4-2.1c3-3.3,4.5-8.5,4.5-15.6v-12.9h3.3v7.7h10v-8.1h3.1
			v8.1h9.2v3.1H665v2c0,0.7,0,1.8-0.1,3.1h15.6v15.2h-3.3v-12.1H664.5z"/>
		<path style="fill:#CDEFF9;" d="M692.9,197.5h27.4v3.1h-24.3v22.7h25.4v3.1h-28.5V197.5z M701,202.9c3.2,2.4,6,4.7,8.5,6.9
			c1.8-2.4,3.3-5.1,4.6-8l2.9,1.6c-1.4,3.3-3.1,6.2-5,8.7c2.5,2.3,4.8,4.5,6.8,6.8l-2.5,2.5c-1.9-2.3-4.1-4.6-6.5-6.8
			c-2.8,3-6.2,5.4-10,7l-1.9-2.9c3.6-1.5,6.8-3.6,9.4-6.4c-2.5-2.2-5.4-4.6-8.7-7.1L701,202.9z"/>
	</g>
</g>
</svg>
