<?xml version="1.0" encoding="utf-8"?>
<!-- Generator: Adobe Illustrator 17.0.0, SVG Export Plug-In . SVG Version: 6.00 Build 0)  -->
<!DOCTYPE svg PUBLIC "-//W3C//DTD SVG 1.1//EN" "http://www.w3.org/Graphics/SVG/1.1/DTD/svg11.dtd">
<svg version="1.1" id="图层_1" xmlns="http://www.w3.org/2000/svg" xmlns:xlink="http://www.w3.org/1999/xlink" x="0px" y="0px"
	 preserveAspectRatio="none" viewBox="0 0 2000 1300" style="enable-background:new 0 0 2000 1300;" xml:space="preserve">
<g>
	<g>
		<polygon style="fill:#001A36;" points="1777.5,1062.8 1717.6,1025.9 1711,1002.9 1732.5,991.2 1756.5,984.9 1777.2,956 
			1731.3,921.8 1706.4,914 1702.4,898.3 1691.2,899.3 1675.6,908.1 1632.1,907.6 1618.9,898.1 1611.3,898.6 1603.2,903 
			1601.3,911.5 1591.3,919.4 1538.2,922.8 1502.3,922.5 1491.1,930.4 1486.2,944.8 1489.4,956.5 1478.6,983.1 1472.7,985.8 
			1464.9,984.9 1458.6,997.6 1448.8,998.1 1428.3,989.5 1438,971.4 1395.8,934 1346.6,866.8 1302.2,842.1 1269.4,874.6 
			1262.1,886.9 1255,882.5 1250.6,894.7 1242.5,898.3 1237.2,898.3 1226.2,906.9 1217.6,906.9 1210,911.3 1202,928.2 1206.1,959.4 
			1198.8,972.1 1190.2,968 1197.1,959.4 1189.5,950.9 1178,949.7 1171.9,941.8 1164.1,941.8 1158.5,948.2 1148.9,951.4 
			1131.6,960.7 1125.7,975.6 1102.3,969.5 1081,968 1072.4,974.8 1072.4,975.8 1075.4,977.3 1068.8,990 1076.6,1002.9 
			1106.9,1025.4 1089.5,1035.2 1060.5,1058.9 1072.2,1115.6 1085.4,1119.3 1076.1,1131.7 1084.2,1157.6 1096.4,1152.3 1106.9,1152 
			1112,1157.6 1118.1,1153.5 1129.4,1157.6 1159.4,1150.3 1179.5,1127.3 1179.5,1117.3 1192.2,1097.3 1218.6,1080.4 1235,1094.6 
			1300.4,1114.6 1303.6,1157.6 1317.3,1157.6 1320.2,1145.7 1348.1,1141.7 1355.2,1132 1362.8,1138.3 1374.2,1160.3 1382.3,1171.8 
			1424.3,1155.4 1441.5,1151.8 1456.8,1152 1462.5,1153.5 1475.2,1161.8 1498.1,1164.7 1544.3,1141.3 1581,1171.8 1586.1,1174.2 
			1592.5,1162 1598.6,1129.8 1712.5,1152.7 1800.4,1186.2 1885,1111 		"/>
		<polygon style="fill:#001F39;" points="1777.5,1062.2 1717.6,1025.3 1711,1002.3 1732.5,990.6 1756.5,984.2 1777.2,955.4 
			1731.3,921.2 1706.4,913.3 1702.4,897.7 1691.2,898.7 1675.6,907.5 1632.1,907 1618.9,897.5 1611.3,897.9 1603.2,902.3 
			1601.3,910.9 1591.3,918.7 1538.2,922.1 1502.3,921.9 1491.1,929.7 1486.2,944.1 1489.4,955.9 1478.6,982.5 1472.7,985.2 
			1464.9,984.2 1458.6,996.9 1448.8,997.4 1428.3,988.9 1438,970.8 1395.8,933.4 1346.6,866.2 1302.2,841.5 1269.4,874 
			1262.1,886.2 1255,881.8 1250.6,894 1242.5,897.7 1237.2,897.7 1226.2,906.3 1217.6,906.3 1210,910.7 1202,927.5 1206.1,958.8 
			1198.8,971.5 1190.2,967.3 1197.1,958.8 1189.5,950.2 1178,949 1171.9,941.2 1164.1,941.2 1158.5,947.6 1148.9,950.7 1131.6,960 
			1125.7,974.9 1102.3,968.8 1081,967.3 1072.4,974.2 1072.4,975.2 1075.4,976.6 1068.8,989.3 1076.6,1002.3 1106.9,1024.8 
			1089.5,1034.6 1060.5,1058.3 1072.2,1115 1085.4,1118.6 1076.1,1131.1 1084.2,1157 1096.4,1151.6 1106.9,1151.4 1112,1157 
			1118.1,1152.8 1129.4,1157 1159.4,1149.7 1179.5,1126.7 1179.5,1116.7 1192.2,1096.6 1218.6,1079.8 1235,1093.9 1300.4,1114 
			1303.6,1157 1317.3,1157 1320.2,1145 1348.1,1141.1 1355.2,1131.3 1362.8,1137.7 1374.2,1159.7 1382.3,1171.2 1424.3,1154.8 
			1441.5,1151.1 1456.8,1151.4 1462.5,1152.8 1475.2,1161.1 1498.1,1164.1 1544.3,1140.6 1581,1171.2 1586.1,1173.6 1592.5,1161.4 
			1598.6,1129.1 1712.5,1152.1 1800.4,1185.6 1885,1110.3 		"/>
		<polygon style="fill:#01233C;" points="1777.5,1061.5 1717.6,1024.6 1711,1001.6 1732.5,989.9 1756.5,983.6 1777.2,954.7 
			1731.3,920.5 1706.4,912.7 1702.4,897.1 1691.2,898 1675.6,906.8 1632.1,906.3 1618.9,896.8 1611.3,897.3 1603.2,901.7 
			1601.3,910.3 1591.3,918.1 1538.2,921.5 1502.3,921.2 1491.1,929.1 1486.2,943.5 1489.4,955.2 1478.6,981.9 1472.7,984.5 
			1464.9,983.6 1458.6,996.3 1448.8,996.8 1428.3,988.2 1438,970.1 1395.8,932.7 1346.6,865.5 1302.2,840.8 1269.4,873.4 
			1262.1,885.6 1255,881.2 1250.6,893.4 1242.5,897.1 1237.2,897.1 1226.2,905.6 1217.6,905.6 1210,910 1202,926.9 1206.1,958.1 
			1198.8,970.9 1190.2,966.7 1197.1,958.1 1189.5,949.6 1178,948.4 1171.9,940.6 1164.1,940.6 1158.5,946.9 1148.9,950.1 
			1131.6,959.4 1125.7,974.3 1102.3,968.2 1081,966.7 1072.4,973.5 1072.4,974.5 1075.4,976 1068.8,988.7 1076.6,1001.6 
			1106.9,1024.1 1089.5,1033.9 1060.5,1057.6 1072.2,1114.3 1085.4,1118 1076.1,1130.4 1084.2,1156.3 1096.4,1151 1106.9,1150.7 
			1112,1156.3 1118.1,1152.2 1129.4,1156.3 1159.4,1149 1179.5,1126 1179.5,1116 1192.2,1096 1218.6,1079.1 1235,1093.3 
			1300.4,1113.3 1303.6,1156.3 1317.3,1156.3 1320.2,1144.4 1348.1,1140.5 1355.2,1130.7 1362.8,1137 1374.2,1159 1382.3,1170.5 
			1424.3,1154.1 1441.5,1150.5 1456.8,1150.7 1462.5,1152.2 1475.2,1160.5 1498.1,1163.4 1544.3,1140 1581,1170.5 1586.1,1173 
			1592.5,1160.7 1598.6,1128.5 1712.5,1151.5 1800.4,1184.9 1885,1109.7 		"/>
		<polygon style="fill:#01283F;" points="1777.5,1060.9 1717.6,1024 1711,1001 1732.5,989.3 1756.5,982.9 1777.2,954.1 
			1731.3,919.9 1706.4,912.1 1702.4,896.4 1691.2,897.4 1675.6,906.2 1632.1,905.7 1618.9,896.2 1611.3,896.7 1603.2,901.1 
			1601.3,909.6 1591.3,917.4 1538.2,920.8 1502.3,920.6 1491.1,928.4 1486.2,942.8 1489.4,954.6 1478.6,981.2 1472.7,983.9 
			1464.9,982.9 1458.6,995.6 1448.8,996.1 1428.3,987.6 1438,969.5 1395.8,932.1 1346.6,864.9 1302.2,840.2 1269.4,872.7 
			1262.1,884.9 1255,880.5 1250.6,892.7 1242.5,896.4 1237.2,896.4 1226.2,905 1217.6,905 1210,909.4 1202,926.2 1206.1,957.5 
			1198.8,970.2 1190.2,966.1 1197.1,957.5 1189.5,949 1178,947.7 1171.9,939.9 1164.1,939.9 1158.5,946.3 1148.9,949.4 
			1131.6,958.7 1125.7,973.6 1102.3,967.5 1081,966.1 1072.4,972.9 1072.4,973.9 1075.4,975.3 1068.8,988.1 1076.6,1001 
			1106.9,1023.5 1089.5,1033.3 1060.5,1057 1072.2,1113.7 1085.4,1117.3 1076.1,1129.8 1084.2,1155.7 1096.4,1150.3 1106.9,1150.1 
			1112,1155.7 1118.1,1151.5 1129.4,1155.7 1159.4,1148.4 1179.5,1125.4 1179.5,1115.4 1192.2,1095.3 1218.6,1078.5 1235,1092.6 
			1300.4,1112.7 1303.6,1155.7 1317.3,1155.7 1320.2,1143.7 1348.1,1139.8 1355.2,1130 1362.8,1136.4 1374.2,1158.4 1382.3,1169.9 
			1424.3,1153.5 1441.5,1149.8 1456.8,1150.1 1462.5,1151.5 1475.2,1159.9 1498.1,1162.8 1544.3,1139.3 1581,1169.9 1586.1,1172.3 
			1592.5,1160.1 1598.6,1127.8 1712.5,1150.8 1800.4,1184.3 1885,1109 		"/>
		<polygon style="fill:#012C42;" points="1777.5,1060.2 1717.6,1023.3 1711,1000.4 1732.5,988.6 1756.5,982.3 1777.2,953.4 
			1731.3,919.2 1706.4,911.4 1702.4,895.8 1691.2,896.7 1675.6,905.5 1632.1,905.1 1618.9,895.5 1611.3,896 1603.2,900.4 
			1601.3,909 1591.3,916.8 1538.2,920.2 1502.3,920 1491.1,927.8 1486.2,942.2 1489.4,953.9 1478.6,980.6 1472.7,983.3 
			1464.9,982.3 1458.6,995 1448.8,995.5 1428.3,986.9 1438,968.8 1395.8,931.4 1346.6,864.2 1302.2,839.6 1269.4,872.1 
			1262.1,884.3 1255,879.9 1250.6,892.1 1242.5,895.8 1237.2,895.8 1226.2,904.3 1217.6,904.3 1210,908.7 1202,925.6 1206.1,956.9 
			1198.8,969.6 1190.2,965.4 1197.1,956.9 1189.5,948.3 1178,947.1 1171.9,939.3 1164.1,939.3 1158.5,945.6 1148.9,948.8 
			1131.6,958.1 1125.7,973 1102.3,966.9 1081,965.4 1072.4,972.3 1072.4,973.2 1075.4,974.7 1068.8,987.4 1076.6,1000.4 
			1106.9,1022.8 1089.5,1032.6 1060.5,1056.3 1072.2,1113 1085.4,1116.7 1076.1,1129.1 1084.2,1155.1 1096.4,1149.7 1106.9,1149.4 
			1112,1155.1 1118.1,1150.9 1129.4,1155.1 1159.4,1147.7 1179.5,1124.7 1179.5,1114.7 1192.2,1094.7 1218.6,1077.8 1235,1092 
			1300.4,1112 1303.6,1155.1 1317.3,1155.1 1320.2,1143.1 1348.1,1139.2 1355.2,1129.4 1362.8,1135.7 1374.2,1157.7 1382.3,1169.2 
			1424.3,1152.9 1441.5,1149.2 1456.8,1149.4 1462.5,1150.9 1475.2,1159.2 1498.1,1162.1 1544.3,1138.7 1581,1169.2 1586.1,1171.7 
			1592.5,1159.4 1598.6,1127.2 1712.5,1150.2 1800.4,1183.6 1885,1108.4 		"/>
		<polygon style="fill:#023145;" points="1777.5,1059.6 1717.6,1022.7 1711,999.7 1732.5,988 1756.5,981.6 1777.2,952.8 
			1731.3,918.6 1706.4,910.8 1702.4,895.1 1691.2,896.1 1675.6,904.9 1632.1,904.4 1618.9,894.9 1611.3,895.4 1603.2,899.8 
			1601.3,908.3 1591.3,916.1 1538.2,919.6 1502.3,919.3 1491.1,927.1 1486.2,941.6 1489.4,953.3 1478.6,979.9 1472.7,982.6 
			1464.9,981.6 1458.6,994.3 1448.8,994.8 1428.3,986.3 1438,968.2 1395.8,930.8 1346.6,863.6 1302.2,838.9 1269.4,871.4 
			1262.1,883.6 1255,879.2 1250.6,891.5 1242.5,895.1 1237.2,895.1 1226.2,903.7 1217.6,903.7 1210,908.1 1202,924.9 1206.1,956.2 
			1198.8,968.9 1190.2,964.8 1197.1,956.2 1189.5,947.7 1178,946.4 1171.9,938.6 1164.1,938.6 1158.5,945 1148.9,948.1 
			1131.6,957.4 1125.7,972.3 1102.3,966.2 1081,964.8 1072.4,971.6 1072.4,972.6 1075.4,974.1 1068.8,986.8 1076.6,999.7 
			1106.9,1022.2 1089.5,1032 1060.5,1055.7 1072.2,1112.4 1085.4,1116 1076.1,1128.5 1084.2,1154.4 1096.4,1149 1106.9,1148.8 
			1112,1154.4 1118.1,1150.3 1129.4,1154.4 1159.4,1147.1 1179.5,1124.1 1179.5,1114.1 1192.2,1094 1218.6,1077.2 1235,1091.4 
			1300.4,1111.4 1303.6,1154.4 1317.3,1154.4 1320.2,1142.4 1348.1,1138.5 1355.2,1128.7 1362.8,1135.1 1374.2,1157.1 
			1382.3,1168.6 1424.3,1152.2 1441.5,1148.5 1456.8,1148.8 1462.5,1150.3 1475.2,1158.6 1498.1,1161.5 1544.3,1138 1581,1168.6 
			1586.1,1171 1592.5,1158.8 1598.6,1126.5 1712.5,1149.5 1800.4,1183 1885,1107.7 		"/>
		<polygon style="fill:#023548;" points="1777.5,1058.9 1717.6,1022 1711,999.1 1732.5,987.3 1756.5,981 1777.2,952.1 1731.3,917.9 
			1706.4,910.1 1702.4,894.5 1691.2,895.5 1675.6,904.2 1632.1,903.8 1618.9,894.2 1611.3,894.7 1603.2,899.1 1601.3,907.7 
			1591.3,915.5 1538.2,918.9 1502.3,918.7 1491.1,926.5 1486.2,940.9 1489.4,952.6 1478.6,979.3 1472.7,982 1464.9,981 
			1458.6,993.7 1448.8,994.2 1428.3,985.6 1438,967.5 1395.8,930.2 1346.6,862.9 1302.2,838.3 1269.4,870.8 1262.1,883 1255,878.6 
			1250.6,890.8 1242.5,894.5 1237.2,894.5 1226.2,903 1217.6,903 1210,907.4 1202,924.3 1206.1,955.6 1198.8,968.3 1190.2,964.1 
			1197.1,955.6 1189.5,947 1178,945.8 1171.9,938 1164.1,938 1158.5,944.3 1148.9,947.5 1131.6,956.8 1125.7,971.7 1102.3,965.6 
			1081,964.1 1072.4,971 1072.4,971.9 1075.4,973.4 1068.8,986.1 1076.6,999.1 1106.9,1021.6 1089.5,1031.3 1060.5,1055 
			1072.2,1111.7 1085.4,1115.4 1076.1,1127.9 1084.2,1153.8 1096.4,1148.4 1106.9,1148.1 1112,1153.8 1118.1,1149.6 1129.4,1153.8 
			1159.4,1146.4 1179.5,1123.5 1179.5,1113.4 1192.2,1093.4 1218.6,1076.5 1235,1090.7 1300.4,1110.7 1303.6,1153.8 1317.3,1153.8 
			1320.2,1141.8 1348.1,1137.9 1355.2,1128.1 1362.8,1134.5 1374.2,1156.4 1382.3,1167.9 1424.3,1151.6 1441.5,1147.9 
			1456.8,1148.1 1462.5,1149.6 1475.2,1157.9 1498.1,1160.8 1544.3,1137.4 1581,1167.9 1586.1,1170.4 1592.5,1158.2 1598.6,1125.9 
			1712.5,1148.9 1800.4,1182.4 1885,1107.1 		"/>
		<polygon style="fill:#023A4B;" points="1777.5,1058.3 1717.6,1021.4 1711,998.4 1732.5,986.7 1756.5,980.3 1777.2,951.5 
			1731.3,917.3 1706.4,909.5 1702.4,893.8 1691.2,894.8 1675.6,903.6 1632.1,903.1 1618.9,893.6 1611.3,894.1 1603.2,898.5 
			1601.3,907 1591.3,914.8 1538.2,918.3 1502.3,918 1491.1,925.8 1486.2,940.3 1489.4,952 1478.6,978.6 1472.7,981.3 1464.9,980.3 
			1458.6,993 1448.8,993.5 1428.3,985 1438,966.9 1395.8,929.5 1346.6,862.3 1302.2,837.6 1269.4,870.1 1262.1,882.3 1255,877.9 
			1250.6,890.2 1242.5,893.8 1237.2,893.8 1226.2,902.4 1217.6,902.4 1210,906.8 1202,923.6 1206.1,954.9 1198.8,967.6 
			1190.2,963.5 1197.1,954.9 1189.5,946.4 1178,945.1 1171.9,937.3 1164.1,937.3 1158.5,943.7 1148.9,946.9 1131.6,956.1 
			1125.7,971.1 1102.3,964.9 1081,963.5 1072.4,970.3 1072.4,971.3 1075.4,972.8 1068.8,985.5 1076.6,998.4 1106.9,1020.9 
			1089.5,1030.7 1060.5,1054.4 1072.2,1111.1 1085.4,1114.7 1076.1,1127.2 1084.2,1153.1 1096.4,1147.7 1106.9,1147.5 1112,1153.1 
			1118.1,1149 1129.4,1153.1 1159.4,1145.8 1179.5,1122.8 1179.5,1112.8 1192.2,1092.8 1218.6,1075.9 1235,1090.1 1300.4,1110.1 
			1303.6,1153.1 1317.3,1153.1 1320.2,1141.1 1348.1,1137.2 1355.2,1127.5 1362.8,1133.8 1374.2,1155.8 1382.3,1167.3 
			1424.3,1150.9 1441.5,1147.3 1456.8,1147.5 1462.5,1149 1475.2,1157.3 1498.1,1160.2 1544.3,1136.7 1581,1167.3 1586.1,1169.7 
			1592.5,1157.5 1598.6,1125.3 1712.5,1148.2 1800.4,1181.7 1885,1106.4 		"/>
		<polygon style="fill:#033F4D;" points="1777.5,1057.7 1717.6,1020.7 1711,997.8 1732.5,986 1756.5,979.7 1777.2,950.9 
			1731.3,916.6 1706.4,908.8 1702.4,893.2 1691.2,894.2 1675.6,903 1632.1,902.5 1618.9,892.9 1611.3,893.4 1603.2,897.8 
			1601.3,906.4 1591.3,914.2 1538.2,917.6 1502.3,917.4 1491.1,925.2 1486.2,939.6 1489.4,951.3 1478.6,978 1472.7,980.7 
			1464.9,979.7 1458.6,992.4 1448.8,992.9 1428.3,984.3 1438,966.3 1395.8,928.9 1346.6,861.7 1302.2,837 1269.4,869.5 
			1262.1,881.7 1255,877.3 1250.6,889.5 1242.5,893.2 1237.2,893.2 1226.2,901.7 1217.6,901.7 1210,906.1 1202,923 1206.1,954.3 
			1198.8,967 1190.2,962.8 1197.1,954.3 1189.5,945.7 1178,944.5 1171.9,936.7 1164.1,936.7 1158.5,943 1148.9,946.2 1131.6,955.5 
			1125.7,970.4 1102.3,964.3 1081,962.8 1072.4,969.7 1072.4,970.7 1075.4,972.1 1068.8,984.8 1076.6,997.8 1106.9,1020.3 
			1089.5,1030 1060.5,1053.7 1072.2,1110.4 1085.4,1114.1 1076.1,1126.6 1084.2,1152.5 1096.4,1147.1 1106.9,1146.8 1112,1152.5 
			1118.1,1148.3 1129.4,1152.5 1159.4,1145.1 1179.5,1122.2 1179.5,1112.1 1192.2,1092.1 1218.6,1075.2 1235,1089.4 1300.4,1109.5 
			1303.6,1152.5 1317.3,1152.5 1320.2,1140.5 1348.1,1136.6 1355.2,1126.8 1362.8,1133.2 1374.2,1155.2 1382.3,1166.6 
			1424.3,1150.3 1441.5,1146.6 1456.8,1146.8 1462.5,1148.3 1475.2,1156.6 1498.1,1159.6 1544.3,1136.1 1581,1166.6 1586.1,1169.1 
			1592.5,1156.9 1598.6,1124.6 1712.5,1147.6 1800.4,1181.1 1885,1105.8 		"/>
		<polygon style="fill:#034350;" points="1777.5,1057 1717.6,1020.1 1711,997.1 1732.5,985.4 1756.5,979 1777.2,950.2 1731.3,916 
			1706.4,908.2 1702.4,892.5 1691.2,893.5 1675.6,902.3 1632.1,901.8 1618.9,892.3 1611.3,892.8 1603.2,897.2 1601.3,905.7 
			1591.3,913.6 1538.2,917 1502.3,916.7 1491.1,924.6 1486.2,939 1489.4,950.7 1478.6,977.3 1472.7,980 1464.9,979 1458.6,991.8 
			1448.8,992.2 1428.3,983.7 1438,965.6 1395.8,928.2 1346.6,861 1302.2,836.3 1269.4,868.8 1262.1,881.1 1255,876.7 1250.6,888.9 
			1242.5,892.5 1237.2,892.5 1226.2,901.1 1217.6,901.1 1210,905.5 1202,922.4 1206.1,953.6 1198.8,966.3 1190.2,962.2 
			1197.1,953.6 1189.5,945.1 1178,943.9 1171.9,936 1164.1,936 1158.5,942.4 1148.9,945.6 1131.6,954.9 1125.7,969.8 1102.3,963.7 
			1081,962.2 1072.4,969 1072.4,970 1075.4,971.5 1068.8,984.2 1076.6,997.1 1106.9,1019.6 1089.5,1029.4 1060.5,1053.1 
			1072.2,1109.8 1085.4,1113.5 1076.1,1125.9 1084.2,1151.8 1096.4,1146.4 1106.9,1146.2 1112,1151.8 1118.1,1147.7 1129.4,1151.8 
			1159.4,1144.5 1179.5,1121.5 1179.5,1111.5 1192.2,1091.5 1218.6,1074.6 1235,1088.8 1300.4,1108.8 1303.6,1151.8 1317.3,1151.8 
			1320.2,1139.9 1348.1,1135.9 1355.2,1126.2 1362.8,1132.5 1374.2,1154.5 1382.3,1166 1424.3,1149.6 1441.5,1146 1456.8,1146.2 
			1462.5,1147.7 1475.2,1156 1498.1,1158.9 1544.3,1135.5 1581,1166 1586.1,1168.4 1592.5,1156.2 1598.6,1124 1712.5,1146.9 
			1800.4,1180.4 1885,1105.1 		"/>
		<polygon style="fill:#044853;" points="1777.5,1056.4 1717.6,1019.5 1711,996.5 1732.5,984.8 1756.5,978.4 1777.2,949.6 
			1731.3,915.4 1706.4,907.5 1702.4,891.9 1691.2,892.9 1675.6,901.7 1632.1,901.2 1618.9,891.6 1611.3,892.1 1603.2,896.5 
			1601.3,905.1 1591.3,912.9 1538.2,916.3 1502.3,916.1 1491.1,923.9 1486.2,938.3 1489.4,950.1 1478.6,976.7 1472.7,979.4 
			1464.9,978.4 1458.6,991.1 1448.8,991.6 1428.3,983 1438,965 1395.8,927.6 1346.6,860.4 1302.2,835.7 1269.4,868.2 1262.1,880.4 
			1255,876 1250.6,888.2 1242.5,891.9 1237.2,891.9 1226.2,900.4 1217.6,900.4 1210,904.8 1202,921.7 1206.1,953 1198.8,965.7 
			1190.2,961.5 1197.1,953 1189.5,944.4 1178,943.2 1171.9,935.4 1164.1,935.4 1158.5,941.7 1148.9,944.9 1131.6,954.2 
			1125.7,969.1 1102.3,963 1081,961.5 1072.4,968.4 1072.4,969.4 1075.4,970.8 1068.8,983.5 1076.6,996.5 1106.9,1019 
			1089.5,1028.7 1060.5,1052.5 1072.2,1109.1 1085.4,1112.8 1076.1,1125.3 1084.2,1151.2 1096.4,1145.8 1106.9,1145.6 1112,1151.2 
			1118.1,1147 1129.4,1151.2 1159.4,1143.8 1179.5,1120.9 1179.5,1110.9 1192.2,1090.8 1218.6,1074 1235,1088.1 1300.4,1108.2 
			1303.6,1151.2 1317.3,1151.2 1320.2,1139.2 1348.1,1135.3 1355.2,1125.5 1362.8,1131.9 1374.2,1153.9 1382.3,1165.4 1424.3,1149 
			1441.5,1145.3 1456.8,1145.6 1462.5,1147 1475.2,1155.3 1498.1,1158.3 1544.3,1134.8 1581,1165.4 1586.1,1167.8 1592.5,1155.6 
			1598.6,1123.3 1712.5,1146.3 1800.4,1179.8 1885,1104.5 		"/>
		<polygon style="fill:#044C56;" points="1777.5,1055.7 1717.6,1018.8 1711,995.8 1732.5,984.1 1756.5,977.8 1777.2,948.9 
			1731.3,914.7 1706.4,906.9 1702.4,891.2 1691.2,892.2 1675.6,901 1632.1,900.5 1618.9,891 1611.3,891.5 1603.2,895.9 
			1601.3,904.4 1591.3,912.3 1538.2,915.7 1502.3,915.4 1491.1,923.3 1486.2,937.7 1489.4,949.4 1478.6,976 1472.7,978.7 
			1464.9,977.8 1458.6,990.5 1448.8,991 1428.3,982.4 1438,964.3 1395.8,926.9 1346.6,859.7 1302.2,835 1269.4,867.5 1262.1,879.8 
			1255,875.4 1250.6,887.6 1242.5,891.2 1237.2,891.2 1226.2,899.8 1217.6,899.8 1210,904.2 1202,921.1 1206.1,952.3 1198.8,965.1 
			1190.2,960.9 1197.1,952.3 1189.5,943.8 1178,942.6 1171.9,934.7 1164.1,934.7 1158.5,941.1 1148.9,944.3 1131.6,953.6 
			1125.7,968.5 1102.3,962.4 1081,960.9 1072.4,967.7 1072.4,968.7 1075.4,970.2 1068.8,982.9 1076.6,995.8 1106.9,1018.3 
			1089.5,1028.1 1060.5,1051.8 1072.2,1108.5 1085.4,1112.2 1076.1,1124.6 1084.2,1150.5 1096.4,1145.2 1106.9,1144.9 1112,1150.5 
			1118.1,1146.4 1129.4,1150.5 1159.4,1143.2 1179.5,1120.2 1179.5,1110.2 1192.2,1090.2 1218.6,1073.3 1235,1087.5 1300.4,1107.5 
			1303.6,1150.5 1317.3,1150.5 1320.2,1138.6 1348.1,1134.6 1355.2,1124.9 1362.8,1131.2 1374.2,1153.2 1382.3,1164.7 
			1424.3,1148.3 1441.5,1144.7 1456.8,1144.9 1462.5,1146.4 1475.2,1154.7 1498.1,1157.6 1544.3,1134.2 1581,1164.7 1586.1,1167.2 
			1592.5,1154.9 1598.6,1122.7 1712.5,1145.6 1800.4,1179.1 1885,1103.9 		"/>
		<polygon style="fill:#045159;" points="1777.5,1055.1 1717.6,1018.2 1711,995.2 1732.5,983.5 1756.5,977.1 1777.2,948.3 
			1731.3,914.1 1706.4,906.2 1702.4,890.6 1691.2,891.6 1675.6,900.4 1632.1,899.9 1618.9,890.4 1611.3,890.8 1603.2,895.2 
			1601.3,903.8 1591.3,911.6 1538.2,915 1502.3,914.8 1491.1,922.6 1486.2,937 1489.4,948.8 1478.6,975.4 1472.7,978.1 
			1464.9,977.1 1458.6,989.8 1448.8,990.3 1428.3,981.8 1438,963.7 1395.8,926.3 1346.6,859.1 1302.2,834.4 1269.4,866.9 
			1262.1,879.1 1255,874.7 1250.6,886.9 1242.5,890.6 1237.2,890.6 1226.2,899.2 1217.6,899.2 1210,903.6 1202,920.4 1206.1,951.7 
			1198.8,964.4 1190.2,960.3 1197.1,951.7 1189.5,943.1 1178,941.9 1171.9,934.1 1164.1,934.1 1158.5,940.5 1148.9,943.6 
			1131.6,952.9 1125.7,967.8 1102.3,961.7 1081,960.3 1072.4,967.1 1072.4,968.1 1075.4,969.5 1068.8,982.2 1076.6,995.2 
			1106.9,1017.7 1089.5,1027.5 1060.5,1051.2 1072.2,1107.9 1085.4,1111.5 1076.1,1124 1084.2,1149.9 1096.4,1144.5 1106.9,1144.3 
			1112,1149.9 1118.1,1145.7 1129.4,1149.9 1159.4,1142.6 1179.5,1119.6 1179.5,1109.6 1192.2,1089.5 1218.6,1072.7 1235,1086.8 
			1300.4,1106.9 1303.6,1149.9 1317.3,1149.9 1320.2,1137.9 1348.1,1134 1355.2,1124.2 1362.8,1130.6 1374.2,1152.6 1382.3,1164.1 
			1424.3,1147.7 1441.5,1144 1456.8,1144.3 1462.5,1145.7 1475.2,1154 1498.1,1157 1544.3,1133.5 1581,1164.1 1586.1,1166.5 
			1592.5,1154.3 1598.6,1122 1712.5,1145 1800.4,1178.5 1885,1103.2 		"/>
		<polygon style="fill:#05565C;" points="1777.5,1054.4 1717.6,1017.5 1711,994.6 1732.5,982.8 1756.5,976.5 1777.2,947.6 
			1731.3,913.4 1706.4,905.6 1702.4,890 1691.2,890.9 1675.6,899.7 1632.1,899.2 1618.9,889.7 1611.3,890.2 1603.2,894.6 
			1601.3,903.2 1591.3,911 1538.2,914.4 1502.3,914.2 1491.1,922 1486.2,936.4 1489.4,948.1 1478.6,974.8 1472.7,977.4 
			1464.9,976.5 1458.6,989.2 1448.8,989.7 1428.3,981.1 1438,963 1395.8,925.6 1346.6,858.4 1302.2,833.8 1269.4,866.3 
			1262.1,878.5 1255,874.1 1250.6,886.3 1242.5,890 1237.2,890 1226.2,898.5 1217.6,898.5 1210,902.9 1202,919.8 1206.1,951.1 
			1198.8,963.8 1190.2,959.6 1197.1,951.1 1189.5,942.5 1178,941.3 1171.9,933.5 1164.1,933.5 1158.5,939.8 1148.9,943 
			1131.6,952.3 1125.7,967.2 1102.3,961.1 1081,959.6 1072.4,966.4 1072.4,967.4 1075.4,968.9 1068.8,981.6 1076.6,994.6 
			1106.9,1017 1089.5,1026.8 1060.5,1050.5 1072.2,1107.2 1085.4,1110.9 1076.1,1123.3 1084.2,1149.2 1096.4,1143.9 1106.9,1143.6 
			1112,1149.2 1118.1,1145.1 1129.4,1149.2 1159.4,1141.9 1179.5,1118.9 1179.5,1108.9 1192.2,1088.9 1218.6,1072 1235,1086.2 
			1300.4,1106.2 1303.6,1149.2 1317.3,1149.2 1320.2,1137.3 1348.1,1133.4 1355.2,1123.6 1362.8,1129.9 1374.2,1151.9 
			1382.3,1163.4 1424.3,1147 1441.5,1143.4 1456.8,1143.6 1462.5,1145.1 1475.2,1153.4 1498.1,1156.3 1544.3,1132.9 1581,1163.4 
			1586.1,1165.9 1592.5,1153.6 1598.6,1121.4 1712.5,1144.4 1800.4,1177.8 1885,1102.6 		"/>
		<polygon style="fill:#055A5F;" points="1777.5,1053.8 1717.6,1016.9 1711,993.9 1732.5,982.2 1756.5,975.8 1777.2,947 
			1731.3,912.8 1706.4,905 1702.4,889.3 1691.2,890.3 1675.6,899.1 1632.1,898.6 1618.9,889.1 1611.3,889.6 1603.2,894 
			1601.3,902.5 1591.3,910.3 1538.2,913.8 1502.3,913.5 1491.1,921.3 1486.2,935.7 1489.4,947.5 1478.6,974.1 1472.7,976.8 
			1464.9,975.8 1458.6,988.5 1448.8,989 1428.3,980.5 1438,962.4 1395.8,925 1346.6,857.8 1302.2,833.1 1269.4,865.6 1262.1,877.8 
			1255,873.4 1250.6,885.6 1242.5,889.3 1237.2,889.3 1226.2,897.9 1217.6,897.9 1210,902.3 1202,919.1 1206.1,950.4 1198.8,963.1 
			1190.2,959 1197.1,950.4 1189.5,941.9 1178,940.6 1171.9,932.8 1164.1,932.8 1158.5,939.2 1148.9,942.3 1131.6,951.6 
			1125.7,966.5 1102.3,960.4 1081,959 1072.4,965.8 1072.4,966.8 1075.4,968.2 1068.8,981 1076.6,993.9 1106.9,1016.4 
			1089.5,1026.2 1060.5,1049.9 1072.2,1106.6 1085.4,1110.2 1076.1,1122.7 1084.2,1148.6 1096.4,1143.2 1106.9,1143 1112,1148.6 
			1118.1,1144.4 1129.4,1148.6 1159.4,1141.3 1179.5,1118.3 1179.5,1108.3 1192.2,1088.2 1218.6,1071.4 1235,1085.5 1300.4,1105.6 
			1303.6,1148.6 1317.3,1148.6 1320.2,1136.6 1348.1,1132.7 1355.2,1122.9 1362.8,1129.3 1374.2,1151.3 1382.3,1162.8 
			1424.3,1146.4 1441.5,1142.7 1456.8,1143 1462.5,1144.4 1475.2,1152.8 1498.1,1155.7 1544.3,1132.2 1581,1162.8 1586.1,1165.2 
			1592.5,1153 1598.6,1120.7 1712.5,1143.7 1800.4,1177.2 1885,1101.9 		"/>
		<polygon style="fill:#055F62;" points="1777.5,1053.1 1717.6,1016.2 1711,993.3 1732.5,981.5 1756.5,975.2 1777.2,946.3 
			1731.3,912.1 1706.4,904.3 1702.4,888.7 1691.2,889.6 1675.6,898.4 1632.1,898 1618.9,888.4 1611.3,888.9 1603.2,893.3 
			1601.3,901.9 1591.3,909.7 1538.2,913.1 1502.3,912.9 1491.1,920.7 1486.2,935.1 1489.4,946.8 1478.6,973.5 1472.7,976.2 
			1464.9,975.2 1458.6,987.9 1448.8,988.4 1428.3,979.8 1438,961.7 1395.8,924.3 1346.6,857.1 1302.2,832.5 1269.4,865 
			1262.1,877.2 1255,872.8 1250.6,885 1242.5,888.7 1237.2,888.7 1226.2,897.2 1217.6,897.2 1210,901.6 1202,918.5 1206.1,949.8 
			1198.8,962.5 1190.2,958.3 1197.1,949.8 1189.5,941.2 1178,940 1171.9,932.2 1164.1,932.2 1158.5,938.5 1148.9,941.7 1131.6,951 
			1125.7,965.9 1102.3,959.8 1081,958.3 1072.4,965.2 1072.4,966.1 1075.4,967.6 1068.8,980.3 1076.6,993.3 1106.9,1015.7 
			1089.5,1025.5 1060.5,1049.2 1072.2,1105.9 1085.4,1109.6 1076.1,1122 1084.2,1148 1096.4,1142.6 1106.9,1142.3 1112,1148 
			1118.1,1143.8 1129.4,1148 1159.4,1140.6 1179.5,1117.7 1179.5,1107.6 1192.2,1087.6 1218.6,1070.7 1235,1084.9 1300.4,1104.9 
			1303.6,1148 1317.3,1148 1320.2,1136 1348.1,1132.1 1355.2,1122.3 1362.8,1128.6 1374.2,1150.6 1382.3,1162.1 1424.3,1145.8 
			1441.5,1142.1 1456.8,1142.3 1462.5,1143.8 1475.2,1152.1 1498.1,1155 1544.3,1131.6 1581,1162.1 1586.1,1164.6 1592.5,1152.4 
			1598.6,1120.1 1712.5,1143.1 1800.4,1176.5 1885,1101.3 		"/>
		<polygon style="fill:#066365;" points="1777.5,1052.5 1717.6,1015.6 1711,992.6 1732.5,980.9 1756.5,974.5 1777.2,945.7 
			1731.3,911.5 1706.4,903.7 1702.4,888 1691.2,889 1675.6,897.8 1632.1,897.3 1618.9,887.8 1611.3,888.3 1603.2,892.7 
			1601.3,901.2 1591.3,909 1538.2,912.5 1502.3,912.2 1491.1,920 1486.2,934.5 1489.4,946.2 1478.6,972.8 1472.7,975.5 
			1464.9,974.5 1458.6,987.2 1448.8,987.7 1428.3,979.2 1438,961.1 1395.8,923.7 1346.6,856.5 1302.2,831.8 1269.4,864.3 
			1262.1,876.5 1255,872.1 1250.6,884.4 1242.5,888 1237.2,888 1226.2,896.6 1217.6,896.6 1210,901 1202,917.8 1206.1,949.1 
			1198.8,961.8 1190.2,957.7 1197.1,949.1 1189.5,940.6 1178,939.3 1171.9,931.5 1164.1,931.5 1158.5,937.9 1148.9,941.1 
			1131.6,950.3 1125.7,965.2 1102.3,959.1 1081,957.7 1072.4,964.5 1072.4,965.5 1075.4,967 1068.8,979.7 1076.6,992.6 
			1106.9,1015.1 1089.5,1024.9 1060.5,1048.6 1072.2,1105.3 1085.4,1108.9 1076.1,1121.4 1084.2,1147.3 1096.4,1141.9 
			1106.9,1141.7 1112,1147.3 1118.1,1143.2 1129.4,1147.3 1159.4,1140 1179.5,1117 1179.5,1107 1192.2,1086.9 1218.6,1070.1 
			1235,1084.3 1300.4,1104.3 1303.6,1147.3 1317.3,1147.3 1320.2,1135.3 1348.1,1131.4 1355.2,1121.6 1362.8,1128 1374.2,1150 
			1382.3,1161.5 1424.3,1145.1 1441.5,1141.4 1456.8,1141.7 1462.5,1143.2 1475.2,1151.5 1498.1,1154.4 1544.3,1130.9 1581,1161.5 
			1586.1,1163.9 1592.5,1151.7 1598.6,1119.4 1712.5,1142.4 1800.4,1175.9 1885,1100.6 		"/>
		<polygon style="fill:#066868;" points="1777.5,1051.8 1717.6,1014.9 1711,992 1732.5,980.2 1756.5,973.9 1777.2,945.1 
			1731.3,910.8 1706.4,903 1702.4,887.4 1691.2,888.4 1675.6,897.2 1632.1,896.7 1618.9,887.1 1611.3,887.6 1603.2,892 
			1601.3,900.6 1591.3,908.4 1538.2,911.8 1502.3,911.6 1491.1,919.4 1486.2,933.8 1489.4,945.5 1478.6,972.2 1472.7,974.9 
			1464.9,973.9 1458.6,986.6 1448.8,987.1 1428.3,978.5 1438,960.4 1395.8,923.1 1346.6,855.9 1302.2,831.2 1269.4,863.7 
			1262.1,875.9 1255,871.5 1250.6,883.7 1242.5,887.4 1237.2,887.4 1226.2,895.9 1217.6,895.9 1210,900.3 1202,917.2 1206.1,948.5 
			1198.8,961.2 1190.2,957 1197.1,948.5 1189.5,939.9 1178,938.7 1171.9,930.9 1164.1,930.9 1158.5,937.2 1148.9,940.4 
			1131.6,949.7 1125.7,964.6 1102.3,958.5 1081,957 1072.4,963.9 1072.4,964.8 1075.4,966.3 1068.8,979 1076.6,992 1106.9,1014.5 
			1089.5,1024.2 1060.5,1047.9 1072.2,1104.6 1085.4,1108.3 1076.1,1120.8 1084.2,1146.7 1096.4,1141.3 1106.9,1141 1112,1146.7 
			1118.1,1142.5 1129.4,1146.7 1159.4,1139.3 1179.5,1116.4 1179.5,1106.3 1192.2,1086.3 1218.6,1069.4 1235,1083.6 1300.4,1103.7 
			1303.6,1146.7 1317.3,1146.7 1320.2,1134.7 1348.1,1130.8 1355.2,1121 1362.8,1127.4 1374.2,1149.4 1382.3,1160.8 1424.3,1144.5 
			1441.5,1140.8 1456.8,1141 1462.5,1142.5 1475.2,1150.8 1498.1,1153.8 1544.3,1130.3 1581,1160.8 1586.1,1163.3 1592.5,1151.1 
			1598.6,1118.8 1712.5,1141.8 1800.4,1175.3 1885,1100 		"/>
		<polygon style="fill:#066C6B;" points="1777.5,1051.2 1717.6,1014.3 1711,991.3 1732.5,979.6 1756.5,973.2 1777.2,944.4 
			1731.3,910.2 1706.4,902.4 1702.4,886.7 1691.2,887.7 1675.6,896.5 1632.1,896 1618.9,886.5 1611.3,887 1603.2,891.4 
			1601.3,899.9 1591.3,907.7 1538.2,911.2 1502.3,910.9 1491.1,918.7 1486.2,933.2 1489.4,944.9 1478.6,971.5 1472.7,974.2 
			1464.9,973.2 1458.6,986 1448.8,986.4 1428.3,977.9 1438,959.8 1395.8,922.4 1346.6,855.2 1302.2,830.5 1269.4,863 1262.1,875.2 
			1255,870.8 1250.6,883.1 1242.5,886.7 1237.2,886.7 1226.2,895.3 1217.6,895.3 1210,899.7 1202,916.5 1206.1,947.8 1198.8,960.5 
			1190.2,956.4 1197.1,947.8 1189.5,939.3 1178,938.1 1171.9,930.2 1164.1,930.2 1158.5,936.6 1148.9,939.8 1131.6,949 1125.7,964 
			1102.3,957.8 1081,956.4 1072.4,963.2 1072.4,964.2 1075.4,965.7 1068.8,978.4 1076.6,991.3 1106.9,1013.8 1089.5,1023.6 
			1060.5,1047.3 1072.2,1104 1085.4,1107.7 1076.1,1120.1 1084.2,1146 1096.4,1140.6 1106.9,1140.4 1112,1146 1118.1,1141.9 
			1129.4,1146 1159.4,1138.7 1179.5,1115.7 1179.5,1105.7 1192.2,1085.7 1218.6,1068.8 1235,1083 1300.4,1103 1303.6,1146 
			1317.3,1146 1320.2,1134 1348.1,1130.1 1355.2,1120.4 1362.8,1126.7 1374.2,1148.7 1382.3,1160.2 1424.3,1143.8 1441.5,1140.2 
			1456.8,1140.4 1462.5,1141.9 1475.2,1150.2 1498.1,1153.1 1544.3,1129.6 1581,1160.2 1586.1,1162.6 1592.5,1150.4 1598.6,1118.2 
			1712.5,1141.1 1800.4,1174.6 1885,1099.3 		"/>
		<polygon style="fill:#07716E;" points="1777.5,1050.6 1717.6,1013.7 1711,990.7 1732.5,979 1756.5,972.6 1777.2,943.8 
			1731.3,909.5 1706.4,901.7 1702.4,886.1 1691.2,887.1 1675.6,895.9 1632.1,895.4 1618.9,885.8 1611.3,886.3 1603.2,890.7 
			1601.3,899.3 1591.3,907.1 1538.2,910.5 1502.3,910.3 1491.1,918.1 1486.2,932.5 1489.4,944.2 1478.6,970.9 1472.7,973.6 
			1464.9,972.6 1458.6,985.3 1448.8,985.8 1428.3,977.2 1438,959.2 1395.8,921.8 1346.6,854.6 1302.2,829.9 1269.4,862.4 
			1262.1,874.6 1255,870.2 1250.6,882.4 1242.5,886.1 1237.2,886.1 1226.2,894.6 1217.6,894.6 1210,899 1202,915.9 1206.1,947.2 
			1198.8,959.9 1190.2,955.7 1197.1,947.2 1189.5,938.6 1178,937.4 1171.9,929.6 1164.1,929.6 1158.5,935.9 1148.9,939.1 
			1131.6,948.4 1125.7,963.3 1102.3,957.2 1081,955.7 1072.4,962.6 1072.4,963.6 1075.4,965 1068.8,977.7 1076.6,990.7 
			1106.9,1013.2 1089.5,1022.9 1060.5,1046.6 1072.2,1103.3 1085.4,1107 1076.1,1119.5 1084.2,1145.4 1096.4,1140 1106.9,1139.8 
			1112,1145.4 1118.1,1141.2 1129.4,1145.4 1159.4,1138 1179.5,1115.1 1179.5,1105.1 1192.2,1085 1218.6,1068.1 1235,1082.3 
			1300.4,1102.4 1303.6,1145.4 1317.3,1145.4 1320.2,1133.4 1348.1,1129.5 1355.2,1119.7 1362.8,1126.1 1374.2,1148.1 
			1382.3,1159.5 1424.3,1143.2 1441.5,1139.5 1456.8,1139.8 1462.5,1141.2 1475.2,1149.5 1498.1,1152.5 1544.3,1129 1581,1159.5 
			1586.1,1162 1592.5,1149.8 1598.6,1117.5 1712.5,1140.5 1800.4,1174 1885,1098.7 		"/>
		<polygon style="fill:#077671;" points="1777.5,1049.9 1717.6,1013 1711,990 1732.5,978.3 1756.5,972 1777.2,943.1 1731.3,908.9 
			1706.4,901.1 1702.4,885.4 1691.2,886.4 1675.6,895.2 1632.1,894.7 1618.9,885.2 1611.3,885.7 1603.2,890.1 1601.3,898.6 
			1591.3,906.5 1538.2,909.9 1502.3,909.6 1491.1,917.5 1486.2,931.9 1489.4,943.6 1478.6,970.2 1472.7,972.9 1464.9,972 
			1458.6,984.7 1448.8,985.1 1428.3,976.6 1438,958.5 1395.8,921.1 1346.6,853.9 1302.2,829.2 1269.4,861.7 1262.1,874 1255,869.6 
			1250.6,881.8 1242.5,885.4 1237.2,885.4 1226.2,894 1217.6,894 1210,898.4 1202,915.3 1206.1,946.5 1198.8,959.2 1190.2,955.1 
			1197.1,946.5 1189.5,938 1178,936.8 1171.9,928.9 1164.1,928.9 1158.5,935.3 1148.9,938.5 1131.6,947.8 1125.7,962.7 
			1102.3,956.6 1081,955.1 1072.4,961.9 1072.4,962.9 1075.4,964.4 1068.8,977.1 1076.6,990 1106.9,1012.5 1089.5,1022.3 
			1060.5,1046 1072.2,1102.7 1085.4,1106.4 1076.1,1118.8 1084.2,1144.7 1096.4,1139.4 1106.9,1139.1 1112,1144.7 1118.1,1140.6 
			1129.4,1144.7 1159.4,1137.4 1179.5,1114.4 1179.5,1104.4 1192.2,1084.4 1218.6,1067.5 1235,1081.7 1300.4,1101.7 1303.6,1144.7 
			1317.3,1144.7 1320.2,1132.8 1348.1,1128.8 1355.2,1119.1 1362.8,1125.4 1374.2,1147.4 1382.3,1158.9 1424.3,1142.5 
			1441.5,1138.9 1456.8,1139.1 1462.5,1140.6 1475.2,1148.9 1498.1,1151.8 1544.3,1128.4 1581,1158.9 1586.1,1161.3 1592.5,1149.1 
			1598.6,1116.9 1712.5,1139.8 1800.4,1173.3 1885,1098.1 		"/>
		<polygon style="fill:#077A74;" points="1777.5,1049.3 1717.6,1012.4 1711,989.4 1732.5,977.7 1756.5,971.3 1777.2,942.5 
			1731.3,908.3 1706.4,900.4 1702.4,884.8 1691.2,885.8 1675.6,894.6 1632.1,894.1 1618.9,884.6 1611.3,885 1603.2,889.4 
			1601.3,898 1591.3,905.8 1538.2,909.2 1502.3,909 1491.1,916.8 1486.2,931.2 1489.4,943 1478.6,969.6 1472.7,972.3 1464.9,971.3 
			1458.6,984 1448.8,984.5 1428.3,976 1438,957.9 1395.8,920.5 1346.6,853.3 1302.2,828.6 1269.4,861.1 1262.1,873.3 1255,868.9 
			1250.6,881.1 1242.5,884.8 1237.2,884.8 1226.2,893.4 1217.6,893.4 1210,897.7 1202,914.6 1206.1,945.9 1198.8,958.6 
			1190.2,954.4 1197.1,945.9 1189.5,937.3 1178,936.1 1171.9,928.3 1164.1,928.3 1158.5,934.7 1148.9,937.8 1131.6,947.1 
			1125.7,962 1102.3,955.9 1081,954.4 1072.4,961.3 1072.4,962.3 1075.4,963.7 1068.8,976.4 1076.6,989.4 1106.9,1011.9 
			1089.5,1021.6 1060.5,1045.4 1072.2,1102 1085.4,1105.7 1076.1,1118.2 1084.2,1144.1 1096.4,1138.7 1106.9,1138.5 1112,1144.1 
			1118.1,1139.9 1129.4,1144.1 1159.4,1136.8 1179.5,1113.8 1179.5,1103.8 1192.2,1083.7 1218.6,1066.9 1235,1081 1300.4,1101.1 
			1303.6,1144.1 1317.3,1144.1 1320.2,1132.1 1348.1,1128.2 1355.2,1118.4 1362.8,1124.8 1374.2,1146.8 1382.3,1158.3 
			1424.3,1141.9 1441.5,1138.2 1456.8,1138.5 1462.5,1139.9 1475.2,1148.2 1498.1,1151.2 1544.3,1127.7 1581,1158.3 1586.1,1160.7 
			1592.5,1148.5 1598.6,1116.2 1712.5,1139.2 1800.4,1172.7 1885,1097.4 		"/>
		<polygon style="fill:#087F77;" points="1777.5,1048.6 1717.6,1011.7 1711,988.7 1732.5,977 1756.5,970.7 1777.2,941.8 
			1731.3,907.6 1706.4,899.8 1702.4,884.2 1691.2,885.1 1675.6,893.9 1632.1,893.4 1618.9,883.9 1611.3,884.4 1603.2,888.8 
			1601.3,897.3 1591.3,905.2 1538.2,908.6 1502.3,908.3 1491.1,916.2 1486.2,930.6 1489.4,942.3 1478.6,969 1472.7,971.6 
			1464.9,970.7 1458.6,983.4 1448.8,983.9 1428.3,975.3 1438,957.2 1395.8,919.8 1346.6,852.6 1302.2,827.9 1269.4,860.4 
			1262.1,872.7 1255,868.3 1250.6,880.5 1242.5,884.2 1237.2,884.2 1226.2,892.7 1217.6,892.7 1210,897.1 1202,914 1206.1,945.2 
			1198.8,958 1190.2,953.8 1197.1,945.2 1189.5,936.7 1178,935.5 1171.9,927.7 1164.1,927.7 1158.5,934 1148.9,937.2 1131.6,946.5 
			1125.7,961.4 1102.3,955.3 1081,953.8 1072.4,960.6 1072.4,961.6 1075.4,963.1 1068.8,975.8 1076.6,988.7 1106.9,1011.2 
			1089.5,1021 1060.5,1044.7 1072.2,1101.4 1085.4,1105.1 1076.1,1117.5 1084.2,1143.4 1096.4,1138.1 1106.9,1137.8 1112,1143.4 
			1118.1,1139.3 1129.4,1143.4 1159.4,1136.1 1179.5,1113.1 1179.5,1103.1 1192.2,1083.1 1218.6,1066.2 1235,1080.4 1300.4,1100.4 
			1303.6,1143.4 1317.3,1143.4 1320.2,1131.5 1348.1,1127.6 1355.2,1117.8 1362.8,1124.1 1374.2,1146.1 1382.3,1157.6 
			1424.3,1141.2 1441.5,1137.6 1456.8,1137.8 1462.5,1139.3 1475.2,1147.6 1498.1,1150.5 1544.3,1127.1 1581,1157.6 1586.1,1160.1 
			1592.5,1147.8 1598.6,1115.6 1712.5,1138.6 1800.4,1172 1885,1096.8 		"/>
		<polygon style="fill:#08837A;" points="1777.5,1048 1717.6,1011.1 1711,988.1 1732.5,976.4 1756.5,970 1777.2,941.2 1731.3,907 
			1706.4,899.1 1702.4,883.5 1691.2,884.5 1675.6,893.3 1632.1,892.8 1618.9,883.3 1611.3,883.8 1603.2,888.2 1601.3,896.7 
			1591.3,904.5 1538.2,907.9 1502.3,907.7 1491.1,915.5 1486.2,929.9 1489.4,941.7 1478.6,968.3 1472.7,971 1464.9,970 
			1458.6,982.7 1448.8,983.2 1428.3,974.7 1438,956.6 1395.8,919.2 1346.6,852 1302.2,827.3 1269.4,859.8 1262.1,872 1255,867.6 
			1250.6,879.8 1242.5,883.5 1237.2,883.5 1226.2,892.1 1217.6,892.1 1210,896.5 1202,913.3 1206.1,944.6 1198.8,957.3 
			1190.2,953.2 1197.1,944.6 1189.5,936 1178,934.8 1171.9,927 1164.1,927 1158.5,933.4 1148.9,936.5 1131.6,945.8 1125.7,960.7 
			1102.3,954.6 1081,953.2 1072.4,960 1072.4,961 1075.4,962.4 1068.8,975.1 1076.6,988.1 1106.9,1010.6 1089.5,1020.4 
			1060.5,1044.1 1072.2,1100.8 1085.4,1104.4 1076.1,1116.9 1084.2,1142.8 1096.4,1137.4 1106.9,1137.2 1112,1142.8 1118.1,1138.6 
			1129.4,1142.8 1159.4,1135.5 1179.5,1112.5 1179.5,1102.5 1192.2,1082.4 1218.6,1065.6 1235,1079.7 1300.4,1099.8 1303.6,1142.8 
			1317.3,1142.8 1320.2,1130.8 1348.1,1126.9 1355.2,1117.1 1362.8,1123.5 1374.2,1145.5 1382.3,1157 1424.3,1140.6 1441.5,1136.9 
			1456.8,1137.2 1462.5,1138.6 1475.2,1146.9 1498.1,1149.9 1544.3,1126.4 1581,1157 1586.1,1159.4 1592.5,1147.2 1598.6,1114.9 
			1712.5,1137.9 1800.4,1171.4 1885,1096.1 		"/>
		<polygon style="fill:#09887C;" points="1777.5,1047.3 1717.6,1010.4 1711,987.5 1732.5,975.7 1756.5,969.4 1777.2,940.5 
			1731.3,906.3 1706.4,898.5 1702.4,882.9 1691.2,883.8 1675.6,892.6 1632.1,892.1 1618.9,882.6 1611.3,883.1 1603.2,887.5 
			1601.3,896.1 1591.3,903.9 1538.2,907.3 1502.3,907.1 1491.1,914.9 1486.2,929.3 1489.4,941 1478.6,967.7 1472.7,970.3 
			1464.9,969.4 1458.6,982.1 1448.8,982.6 1428.3,974 1438,955.9 1395.8,918.5 1346.6,851.3 1302.2,826.7 1269.4,859.2 
			1262.1,871.4 1255,867 1250.6,879.2 1242.5,882.9 1237.2,882.9 1226.2,891.4 1217.6,891.4 1210,895.8 1202,912.7 1206.1,944 
			1198.8,956.7 1190.2,952.5 1197.1,944 1189.5,935.4 1178,934.2 1171.9,926.4 1164.1,926.4 1158.5,932.7 1148.9,935.9 
			1131.6,945.2 1125.7,960.1 1102.3,954 1081,952.5 1072.4,959.4 1072.4,960.3 1075.4,961.8 1068.8,974.5 1076.6,987.5 
			1106.9,1009.9 1089.5,1019.7 1060.5,1043.4 1072.2,1100.1 1085.4,1103.8 1076.1,1116.2 1084.2,1142.1 1096.4,1136.8 
			1106.9,1136.5 1112,1142.1 1118.1,1138 1129.4,1142.1 1159.4,1134.8 1179.5,1111.8 1179.5,1101.8 1192.2,1081.8 1218.6,1064.9 
			1235,1079.1 1300.4,1099.1 1303.6,1142.1 1317.3,1142.1 1320.2,1130.2 1348.1,1126.3 1355.2,1116.5 1362.8,1122.8 1374.2,1144.8 
			1382.3,1156.3 1424.3,1139.9 1441.5,1136.3 1456.8,1136.5 1462.5,1138 1475.2,1146.3 1498.1,1149.2 1544.3,1125.8 1581,1156.3 
			1586.1,1158.8 1592.5,1146.5 1598.6,1114.3 1712.5,1137.3 1800.4,1170.7 1885,1095.5 		"/>
		<polygon style="fill:#098D7F;" points="1777.5,1046.7 1717.6,1009.8 1711,986.8 1732.5,975.1 1756.5,968.7 1777.2,939.9 
			1731.3,905.7 1706.4,897.9 1702.4,882.2 1691.2,883.2 1675.6,892 1632.1,891.5 1618.9,882 1611.3,882.5 1603.2,886.9 
			1601.3,895.4 1591.3,903.2 1538.2,906.7 1502.3,906.4 1491.1,914.2 1486.2,928.6 1489.4,940.4 1478.6,967 1472.7,969.7 
			1464.9,968.7 1458.6,981.4 1448.8,981.9 1428.3,973.4 1438,955.3 1395.8,917.9 1346.6,850.7 1302.2,826 1269.4,858.5 
			1262.1,870.7 1255,866.3 1250.6,878.6 1242.5,882.2 1237.2,882.2 1226.2,890.8 1217.6,890.8 1210,895.2 1202,912 1206.1,943.3 
			1198.8,956 1190.2,951.9 1197.1,943.3 1189.5,934.8 1178,933.5 1171.9,925.7 1164.1,925.7 1158.5,932.1 1148.9,935.2 
			1131.6,944.5 1125.7,959.4 1102.3,953.3 1081,951.9 1072.4,958.7 1072.4,959.7 1075.4,961.2 1068.8,973.9 1076.6,986.8 
			1106.9,1009.3 1089.5,1019.1 1060.5,1042.8 1072.2,1099.5 1085.4,1103.1 1076.1,1115.6 1084.2,1141.5 1096.4,1136.1 
			1106.9,1135.9 1112,1141.5 1118.1,1137.3 1129.4,1141.5 1159.4,1134.2 1179.5,1111.2 1179.5,1101.2 1192.2,1081.1 1218.6,1064.3 
			1235,1078.5 1300.4,1098.5 1303.6,1141.5 1317.3,1141.5 1320.2,1129.5 1348.1,1125.6 1355.2,1115.8 1362.8,1122.2 1374.2,1144.2 
			1382.3,1155.7 1424.3,1139.3 1441.5,1135.6 1456.8,1135.9 1462.5,1137.3 1475.2,1145.7 1498.1,1148.6 1544.3,1125.1 1581,1155.7 
			1586.1,1158.1 1592.5,1145.9 1598.6,1113.6 1712.5,1136.6 1800.4,1170.1 1885,1094.8 		"/>
		<polygon style="fill:#099182;" points="1777.5,1046 1717.6,1009.1 1711,986.2 1732.5,974.4 1756.5,968.1 1777.2,939.2 1731.3,905 
			1706.4,897.2 1702.4,881.6 1691.2,882.5 1675.6,891.3 1632.1,890.9 1618.9,881.3 1611.3,881.8 1603.2,886.2 1601.3,894.8 
			1591.3,902.6 1538.2,906 1502.3,905.8 1491.1,913.6 1486.2,928 1489.4,939.7 1478.6,966.4 1472.7,969.1 1464.9,968.1 
			1458.6,980.8 1448.8,981.3 1428.3,972.7 1438,954.6 1395.8,917.3 1346.6,850 1302.2,825.4 1269.4,857.9 1262.1,870.1 1255,865.7 
			1250.6,877.9 1242.5,881.6 1237.2,881.6 1226.2,890.1 1217.6,890.1 1210,894.5 1202,911.4 1206.1,942.7 1198.8,955.4 
			1190.2,951.2 1197.1,942.7 1189.5,934.1 1178,932.9 1171.9,925.1 1164.1,925.1 1158.5,931.4 1148.9,934.6 1131.6,943.9 
			1125.7,958.8 1102.3,952.7 1081,951.2 1072.4,958.1 1072.4,959 1075.4,960.5 1068.8,973.2 1076.6,986.2 1106.9,1008.6 
			1089.5,1018.4 1060.5,1042.1 1072.2,1098.8 1085.4,1102.5 1076.1,1115 1084.2,1140.9 1096.4,1135.5 1106.9,1135.2 1112,1140.9 
			1118.1,1136.7 1129.4,1140.9 1159.4,1133.5 1179.5,1110.6 1179.5,1100.5 1192.2,1080.5 1218.6,1063.6 1235,1077.8 1300.4,1097.8 
			1303.6,1140.9 1317.3,1140.9 1320.2,1128.9 1348.1,1125 1355.2,1115.2 1362.8,1121.6 1374.2,1143.5 1382.3,1155 1424.3,1138.7 
			1441.5,1135 1456.8,1135.2 1462.5,1136.7 1475.2,1145 1498.1,1147.9 1544.3,1124.5 1581,1155 1586.1,1157.5 1592.5,1145.3 
			1598.6,1113 1712.5,1136 1800.4,1169.4 1885,1094.2 		"/>
		<polygon style="fill:#0A9685;" points="1777.5,1045.4 1717.6,1008.5 1711,985.5 1732.5,973.8 1756.5,967.4 1777.2,938.6 
			1731.3,904.4 1706.4,896.6 1702.4,880.9 1691.2,881.9 1675.6,890.7 1632.1,890.2 1618.9,880.7 1611.3,881.2 1603.2,885.6 
			1601.3,894.1 1591.3,901.9 1538.2,905.4 1502.3,905.1 1491.1,912.9 1486.2,927.4 1489.4,939.1 1478.6,965.7 1472.7,968.4 
			1464.9,967.4 1458.6,980.1 1448.8,980.6 1428.3,972.1 1438,954 1395.8,916.6 1346.6,849.4 1302.2,824.7 1269.4,857.2 
			1262.1,869.4 1255,865 1250.6,877.3 1242.5,880.9 1237.2,880.9 1226.2,889.5 1217.6,889.5 1210,893.9 1202,910.7 1206.1,942 
			1198.8,954.7 1190.2,950.6 1197.1,942 1189.5,933.5 1178,932.2 1171.9,924.4 1164.1,924.4 1158.5,930.8 1148.9,934 1131.6,943.2 
			1125.7,958.1 1102.3,952 1081,950.6 1072.4,957.4 1072.4,958.4 1075.4,959.9 1068.8,972.6 1076.6,985.5 1106.9,1008 
			1089.5,1017.8 1060.5,1041.5 1072.2,1098.2 1085.4,1101.8 1076.1,1114.3 1084.2,1140.2 1096.4,1134.8 1106.9,1134.6 1112,1140.2 
			1118.1,1136.1 1129.4,1140.2 1159.4,1132.9 1179.5,1109.9 1179.5,1099.9 1192.2,1079.9 1218.6,1063 1235,1077.2 1300.4,1097.2 
			1303.6,1140.2 1317.3,1140.2 1320.2,1128.2 1348.1,1124.3 1355.2,1114.6 1362.8,1120.9 1374.2,1142.9 1382.3,1154.4 1424.3,1138 
			1441.5,1134.3 1456.8,1134.6 1462.5,1136.1 1475.2,1144.4 1498.1,1147.3 1544.3,1123.8 1581,1154.4 1586.1,1156.8 1592.5,1144.6 
			1598.6,1112.4 1712.5,1135.3 1800.4,1168.8 1885,1093.5 		"/>
		<polygon style="fill:#0A9A88;" points="1777.5,1044.7 1717.6,1007.8 1711,984.9 1732.5,973.1 1756.5,966.8 1777.2,938 
			1731.3,903.7 1706.4,895.9 1702.4,880.3 1691.2,881.3 1675.6,890.1 1632.1,889.6 1618.9,880 1611.3,880.5 1603.2,884.9 
			1601.3,893.5 1591.3,901.3 1538.2,904.7 1502.3,904.5 1491.1,912.3 1486.2,926.7 1489.4,938.4 1478.6,965.1 1472.7,967.8 
			1464.9,966.8 1458.6,979.5 1448.8,980 1428.3,971.4 1438,953.4 1395.8,916 1346.6,848.8 1302.2,824.1 1269.4,856.6 1262.1,868.8 
			1255,864.4 1250.6,876.6 1242.5,880.3 1237.2,880.3 1226.2,888.8 1217.6,888.8 1210,893.2 1202,910.1 1206.1,941.4 1198.8,954.1 
			1190.2,949.9 1197.1,941.4 1189.5,932.8 1178,931.6 1171.9,923.8 1164.1,923.8 1158.5,930.1 1148.9,933.3 1131.6,942.6 
			1125.7,957.5 1102.3,951.4 1081,949.9 1072.4,956.8 1072.4,957.7 1075.4,959.2 1068.8,971.9 1076.6,984.9 1106.9,1007.4 
			1089.5,1017.1 1060.5,1040.8 1072.2,1097.5 1085.4,1101.2 1076.1,1113.7 1084.2,1139.6 1096.4,1134.2 1106.9,1133.9 1112,1139.6 
			1118.1,1135.4 1129.4,1139.6 1159.4,1132.2 1179.5,1109.3 1179.5,1099.2 1192.2,1079.2 1218.6,1062.3 1235,1076.5 1300.4,1096.6 
			1303.6,1139.6 1317.3,1139.6 1320.2,1127.6 1348.1,1123.7 1355.2,1113.9 1362.8,1120.3 1374.2,1142.3 1382.3,1153.7 
			1424.3,1137.4 1441.5,1133.7 1456.8,1133.9 1462.5,1135.4 1475.2,1143.7 1498.1,1146.7 1544.3,1123.2 1581,1153.7 1586.1,1156.2 
			1592.5,1144 1598.6,1111.7 1712.5,1134.7 1800.4,1168.2 1885,1092.9 		"/>
		<polygon style="fill:#0A9F8B;" points="1777.5,1044.1 1717.6,1007.2 1711,984.2 1732.5,972.5 1756.5,966.1 1777.2,937.3 
			1731.3,903.1 1706.4,895.3 1702.4,879.6 1691.2,880.6 1675.6,889.4 1632.1,888.9 1618.9,879.4 1611.3,879.9 1603.2,884.3 
			1601.3,892.8 1591.3,900.7 1538.2,904.1 1502.3,903.8 1491.1,911.6 1486.2,926.1 1489.4,937.8 1478.6,964.4 1472.7,967.1 
			1464.9,966.1 1458.6,978.9 1448.8,979.3 1428.3,970.8 1438,952.7 1395.8,915.3 1346.6,848.1 1302.2,823.4 1269.4,855.9 
			1262.1,868.2 1255,863.8 1250.6,876 1242.5,879.6 1237.2,879.6 1226.2,888.2 1217.6,888.2 1210,892.6 1202,909.5 1206.1,940.7 
			1198.8,953.4 1190.2,949.3 1197.1,940.7 1189.5,932.2 1178,931 1171.9,923.1 1164.1,923.1 1158.5,929.5 1148.9,932.7 1131.6,942 
			1125.7,956.9 1102.3,950.8 1081,949.3 1072.4,956.1 1072.4,957.1 1075.4,958.6 1068.8,971.3 1076.6,984.2 1106.9,1006.7 
			1089.5,1016.5 1060.5,1040.2 1072.2,1096.9 1085.4,1100.6 1076.1,1113 1084.2,1138.9 1096.4,1133.5 1106.9,1133.3 1112,1138.9 
			1118.1,1134.8 1129.4,1138.9 1159.4,1131.6 1179.5,1108.6 1179.5,1098.6 1192.2,1078.6 1218.6,1061.7 1235,1075.9 1300.4,1095.9 
			1303.6,1138.9 1317.3,1138.9 1320.2,1126.9 1348.1,1123 1355.2,1113.3 1362.8,1119.6 1374.2,1141.6 1382.3,1153.1 1424.3,1136.7 
			1441.5,1133.1 1456.8,1133.3 1462.5,1134.8 1475.2,1143.1 1498.1,1146 1544.3,1122.5 1581,1153.1 1586.1,1155.5 1592.5,1143.3 
			1598.6,1111.1 1712.5,1134 1800.4,1167.5 1885,1092.2 		"/>
		<polygon style="fill:#0BA38E;" points="1777.5,1043.5 1717.6,1006.6 1711,983.6 1732.5,971.9 1756.5,965.5 1777.2,936.7 
			1731.3,902.5 1706.4,894.6 1702.4,879 1691.2,880 1675.6,888.8 1632.1,888.3 1618.9,878.7 1611.3,879.2 1603.2,883.6 
			1601.3,892.2 1591.3,900 1538.2,903.4 1502.3,903.2 1491.1,911 1486.2,925.4 1489.4,937.2 1478.6,963.8 1472.7,966.5 
			1464.9,965.5 1458.6,978.2 1448.8,978.7 1428.3,970.1 1438,952.1 1395.8,914.7 1346.6,847.5 1302.2,822.8 1269.4,855.3 
			1262.1,867.5 1255,863.1 1250.6,875.3 1242.5,879 1237.2,879 1226.2,887.5 1217.6,887.5 1210,891.9 1202,908.8 1206.1,940.1 
			1198.8,952.8 1190.2,948.6 1197.1,940.1 1189.5,931.5 1178,930.3 1171.9,922.5 1164.1,922.5 1158.5,928.8 1148.9,932 
			1131.6,941.3 1125.7,956.2 1102.3,950.1 1081,948.6 1072.4,955.5 1072.4,956.5 1075.4,957.9 1068.8,970.6 1076.6,983.6 
			1106.9,1006.1 1089.5,1015.8 1060.5,1039.5 1072.2,1096.2 1085.4,1099.9 1076.1,1112.4 1084.2,1138.3 1096.4,1132.9 
			1106.9,1132.7 1112,1138.3 1118.1,1134.1 1129.4,1138.3 1159.4,1130.9 1179.5,1108 1179.5,1098 1192.2,1077.9 1218.6,1061.1 
			1235,1075.2 1300.4,1095.3 1303.6,1138.3 1317.3,1138.3 1320.2,1126.3 1348.1,1122.4 1355.2,1112.6 1362.8,1119 1374.2,1141 
			1382.3,1152.5 1424.3,1136.1 1441.5,1132.4 1456.8,1132.7 1462.5,1134.1 1475.2,1142.4 1498.1,1145.4 1544.3,1121.9 1581,1152.5 
			1586.1,1154.9 1592.5,1142.7 1598.6,1110.4 1712.5,1133.4 1800.4,1166.9 1885,1091.6 		"/>
		<polygon style="fill:#0BA891;" points="1777.5,1042.8 1717.6,1005.9 1711,982.9 1732.5,971.2 1756.5,964.9 1777.2,936 
			1731.3,901.8 1706.4,894 1702.4,878.3 1691.2,879.3 1675.6,888.1 1632.1,887.6 1618.9,878.1 1611.3,878.6 1603.2,883 
			1601.3,891.5 1591.3,899.4 1538.2,902.8 1502.3,902.5 1491.1,910.4 1486.2,924.8 1489.4,936.5 1478.6,963.1 1472.7,965.8 
			1464.9,964.9 1458.6,977.6 1448.8,978.1 1428.3,969.5 1438,951.4 1395.8,914 1346.6,846.8 1302.2,822.1 1269.4,854.6 
			1262.1,866.9 1255,862.5 1250.6,874.7 1242.5,878.3 1237.2,878.3 1226.2,886.9 1217.6,886.9 1210,891.3 1202,908.2 1206.1,939.4 
			1198.8,952.1 1190.2,948 1197.1,939.4 1189.5,930.9 1178,929.7 1171.9,921.8 1164.1,921.8 1158.5,928.2 1148.9,931.4 
			1131.6,940.7 1125.7,955.6 1102.3,949.5 1081,948 1072.4,954.8 1072.4,955.8 1075.4,957.3 1068.8,970 1076.6,982.9 1106.9,1005.4 
			1089.5,1015.2 1060.5,1038.9 1072.2,1095.6 1085.4,1099.3 1076.1,1111.7 1084.2,1137.6 1096.4,1132.3 1106.9,1132 1112,1137.6 
			1118.1,1133.5 1129.4,1137.6 1159.4,1130.3 1179.5,1107.3 1179.5,1097.3 1192.2,1077.3 1218.6,1060.4 1235,1074.6 1300.4,1094.6 
			1303.6,1137.6 1317.3,1137.6 1320.2,1125.7 1348.1,1121.7 1355.2,1112 1362.8,1118.3 1374.2,1140.3 1382.3,1151.8 1424.3,1135.4 
			1441.5,1131.8 1456.8,1132 1462.5,1133.5 1475.2,1141.8 1498.1,1144.7 1544.3,1121.3 1581,1151.8 1586.1,1154.2 1592.5,1142 
			1598.6,1109.8 1712.5,1132.7 1800.4,1166.2 1885,1091 		"/>
	</g>
	<g>
		<path style="fill:#CDEFF9;" d="M1345.9,1046.2c-0.3,1.1-0.6,2.2-1.1,3.1h4.3v24.9c0,2.1-1,3.1-3.1,3.1h-2.6l-0.8-2.9
			c1.2,0.1,2,0.1,2.5,0.1c0.7,0,1.1-0.5,1.1-1.4v-9.5h-5.4c-0.2,5.8-1.1,10.5-2.6,14.1l-2.3-2.1c1.2-3.1,1.8-7.1,2-11.9h-1.8v-3h1.9
			v-11.4h3.7c0.5-1.1,0.8-2.3,1.1-3.6L1345.9,1046.2z M1340.7,1060.7h5.3v-8.3h-5.3V1060.7z M1343.7,1065c0.6,1.8,1.1,3.8,1.6,6.2
			l-2.5,0.7c-0.5-2.3-1-4.3-1.5-6.1L1343.7,1065z M1343.7,1053.6c0.5,1.4,1.1,3.1,1.6,5.1l-2.4,0.6c-0.5-1.9-1-3.5-1.5-4.9
			L1343.7,1053.6z M1365.5,1047.5v15.9h-11.6v9c0,1.1,0.5,1.6,1.5,1.6h6.2c0.9-0.1,1.5-0.5,1.8-1.2c0.3-0.6,0.5-2.3,0.7-5l2.9,1
			c-0.3,2.6-0.5,4.4-0.9,5.5c-0.5,1.8-1.8,2.7-3.6,2.8h-8.4c-2.2,0-3.3-1.1-3.3-3.4v-26.1H1365.5z M1356.7,1050.4h-2.9v10.1h2.9
			V1050.4z M1359.6,1060.5h2.8v-10.1h-2.8V1060.5z"/>
		<path style="fill:#CDEFF9;" d="M1370.4,1060.8h1.6v-11.3h2.9c0.3-1,0.6-2.2,0.8-3.6l3.2,0.4c-0.2,1.1-0.5,2.2-0.9,3.2h4v24.6
			c0,2.3-1.1,3.4-3.2,3.4h-2.3l-0.7-2.8c1,0.1,1.7,0.1,2.1,0.1c0.8,0,1.2-0.6,1.2-1.8v-9.3h-4.2c0,0.5,0,1.2-0.1,2.2l2.2-0.6
			c0.6,1.9,1.2,4,1.7,6.3l-2.2,0.6c-0.5-2.1-1-4.1-1.7-6c-0.3,4.8-1.1,8.7-2.6,11.8l-2.4-2.3c1.4-3.1,2.1-7.1,2.2-12h-1.6V1060.8z
			 M1379,1060.8v-8.5h-4.2v8.5H1379z M1376.9,1053.6c0.6,1.5,1.1,3.2,1.5,5.1l-1.9,0.5c-0.4-1.6-0.9-3.3-1.5-5L1376.9,1053.6z
			 M1383.4,1052.9h4.6v-1.8h-5v-2.7h5v-2.3h2.8v2.3h2v-2.3h2.9v2.3h5.4v2.7h-5.4v1.8h4.7v10.9h-16.9V1052.9z M1399.3,1065.3v12.4
			h-2.9v-1.3h-9v1.3h-2.9v-12.4H1399.3z M1386,1057.2h2.2v-2.1h-2.2V1057.2z M1388.2,1061.5v-2.1h-2.2v2.1H1388.2z M1387.4,1069.7h9
			v-1.9h-9V1069.7z M1387.4,1074h9v-1.9h-9V1074z M1392.8,1051h-2v1.8h2V1051z M1390.8,1055.1v2.1h2v-2.1H1390.8z M1392.8,1061.5
			v-2.1h-2v2.1H1392.8z M1395.5,1055.1v2.1h2.3v-2.1H1395.5z M1397.8,1061.5v-2.1h-2.3v2.1H1397.8z"/>
		<path style="fill:#CDEFF9;" d="M1412.2,1065.6c-0.8,5-2.4,8.8-4.9,11.5l-2.4-2.1c3-3.3,4.5-8.5,4.5-15.6v-12.9h3.3v7.7h10v-8.1
			h3.1v8.1h9.2v3.1h-22.3v2c0,0.7,0,1.8-0.1,3.1h15.6v15.2h-3.3v-12.1H1412.2z"/>
		<path style="fill:#CDEFF9;" d="M1440.6,1047.3h27.4v3.1h-24.3v22.7h25.4v3.1h-28.5V1047.3z M1448.7,1052.8c3.2,2.4,6,4.7,8.5,6.9
			c1.8-2.4,3.3-5,4.6-8l2.9,1.6c-1.4,3.3-3.1,6.2-5,8.7c2.5,2.3,4.8,4.5,6.8,6.8l-2.5,2.5c-1.9-2.3-4.1-4.6-6.5-6.8
			c-2.8,3-6.2,5.4-10,7l-1.9-2.9c3.6-1.5,6.8-3.6,9.4-6.4c-2.5-2.2-5.4-4.6-8.7-7.1L1448.7,1052.8z"/>
	</g>
</g>
</svg>
