<?xml version="1.0" encoding="utf-8"?>
<!-- Generator: Adobe Illustrator 17.0.0, SVG Export Plug-In . SVG Version: 6.00 Build 0)  -->
<!DOCTYPE svg PUBLIC "-//W3C//DTD SVG 1.1//EN" "http://www.w3.org/Graphics/SVG/1.1/DTD/svg11.dtd">
<svg version="1.1" id="图层_1" xmlns="http://www.w3.org/2000/svg" xmlns:xlink="http://www.w3.org/1999/xlink" x="0px" y="0px"
	 preserveAspectRatio="none" viewBox="334.5 252.5 730 500" style="enable-background:new 334.5 252.5 730 500;"
	 xml:space="preserve">
<path style="fill:none;stroke:#008CFF;stroke-width:2;stroke-linecap:round;stroke-linejoin:round;stroke-miterlimit:10;" d="
	M445.1,341.1l-7.5-5.5l-5.9-2.5l-7.5,0.2l-7.1,3.2l-6.8,2.3l-5.9,0.2l-7.1-1.5l-6.1-2l-6.1-0.5h-5.2v2.5l2.2,3.5l2.7,1.2l1.2,2.5
	l-0.5,4l2.5,3.5l3.7,1.7h1.7l2.7,3.5l5.6,6.1l4,4l7,1l3.1,1l4.5,2.5l3.6,3.7l2.7,4l1,5.2l1,4l3.6,5.1l1.7,5.7l0.6,4.9l0.1,2.4l-2,1
	h-5.1l-4.7-1.9h-3.6l-5,0.4l-5.1,0.7l-2.6,2.4l-1,3l0.9,3.4l6.1,2.6l5.5,3l2.5,1.7l-0.2,3.1l-1.7,2c0,0-0.1,2.6-0.1,3
	s0.1,2.5,0.1,2.5l-3.6,2.6l-2.5,1l-4.2,2.1l-2.9,2.9l0.1,3.5l3,3.1l1.1,4.6l-1.2,5.1l-3.1,2.6l-3,3.4l-1.6,3.4l0.5,2.7l3.4,1.1h3.4
	l4.6,1.1c0,0,2.7,1,3.1,1.5c0.4,0.5,1.9,2.4,1.9,2.4l-1.4,2l-1.6,0.9l-0.2,4.3l-1,7.2l-0.7,2.2v5.1v2.5v4.9l-1.4,3.7l-1.7,5.4
	l-3.5,3.9l-4,3.9l-1.2,2l-2.4-0.5l-5.1,1.7l-1.7,3.5l-6.4,2l-4.7,1.1h-1.5l-2.7,2.7v3.5l1.1,2.6l4.7,3.6l3.6,4.9l1.1,5.2l-4.7,6.4
	L379,566l-5.7,4.7l-5.9,5l-2.7,2.2l-3.4,3.6l-6.2,3.7l-4.7,2.9l-10.3,4.7l1.4,4.2l2.2,5.1l3.6,9.6l2.5,2.7l5,1.7l6.4,2.2l6.9,0.6
	h6.1l2.1-0.7l10.6,11.3l8.4-3l3.6,1.4l-0.1,7l1,4.1l3.1,5.4l4.7,3.1l4.2,0.6l4.7-1l4.5-0.9h2.5l4.7-0.1l4.7-3.6l2.6-2l1.4-3l6.6-4.5
	l7.4-0.7l6.2-2.6l1.9-1.2l5.6,1.9l5.5,0.1l5.7-0.6l2.2-1.9l4.7,1l4.2,1.5l3.6,1.2h5.2l5.6-2.5l5.5-9.2l2.5-4.1l-3.4-21.9l-3.6-1.4
	l-2.9-8.2l0.6-5l2.4-1.7l4.7-0.2l8.2-4.5l2.7-5.6l3-6.2l18.6-14.1l10.7-4.9L533,516l16.6-13.1l17.7,2.4l9.5,7.2l2,2.7l4.5,1.6
	l5.9,1.7l17.8-1.7l-2.6,6.5l4.6,3.4l10.6-2.4l2.2,7.6l13.9-4.5l3,4.1l4.6,5.7l2.5,6.5l5,1.4l32.5-14.1v5.7L702,554l17.3-0.4l0.9,4.6
	l-1.7,6.3l5.6-2l3.2,1.6l-1.1,7.5l-2.7,3l-0.4,12.2l6.6,1.5l-4.2,19.6l1,20.2l0.4,18.1l1.4,0.6l-2.9,5.1l3.4,5.2l12.3,9.2l-7.1,4
	l-11.8,9.7l4.7,23.3l5.5,1.5l-3.9,5.1l3.4,10.6l4.9-2.1l4.3-0.1l2.1,2.2l2.5-1.6l4.7,1.6l12.3-3.1l8.2-9.3V704l5.1-8.2l10.8-6.9
	l6.7,5.7l26.7,8.2l1.4,17.6h5.5l1.2-4.9l11.5-1.6l3-4l3.1,2.6l4.7,9l3.4,4.7l17.2-6.6l7-1.6l6.2,0.2l2.4,0.6l5.1,3.4l9.3,1.2
	l18.9-9.6l15,12.5l2.1,1l2.6-4.9l2.5-13.2l46.6,9.3l36,13.7l34.6-30.8l-44-19.9l-24.4-14.8l-2.9-9.5l8.8-4.7l9.8-2.6l8.5-11.8
	l-18.8-14l-10.2-3.2l-1.6-6.4l-4.6,0.4l-6.4,3.7l-17.8-0.2l-5.4-4l-3.1,0.2l-3.4,1.9l-0.7,3.5l-4.2,3.2l-21.6,1.3l-14.7-0.1
	l-4.6,3.4l-2,5.7l1.2,4.9l-4.5,10.8l-2.4,1.1l-3.2-0.4l-2.7,5.2l-4,0.1l-8.4-3.6l5.2-10l22.9-28.9l12.3-14.8l50.5-9.7l3.4,3.9
	l0.6,7.9l6.7,4.3l6.6-0.1l7.5-6l10.2-2.9l0.7-2.7l-0.2-3.6c0,0-2.5-1.4-2.6-1c-0.1,0.4-4,0.6-4,0.6l-3.7-0.2l-2.1-4.1l-7.5-3.4
	l-9.2,0.2l-3.7-1.7l-69.3-158.8l-4-4.7l-4.7-3.5l-60.7-58.8l-13.6-16.7l-27.9-32.1l-12.6-4.1l-14.5-1.6l-9.6,1l-8.1,2.4l-14,4.9
	l-11.5,6.6l-13.6,10.8l-9.2,7.4l-4.3,2.7l-8.4,2.9l-17.2,4.2l-13.4-5.1l-9-9.3l-3.7-14.1l-10.2-22.2l-4.2-4.7l-2.6-2.1l-3.6-3.1
	l-6.5-1.9h-5.2l-9.2,4.2l-11.2,13.7l-10.1,8.8l-8.8,6.9l-20.7-3l-30.3-8.6l-4.5,0.2l-6.9,2l-8.6,5.1l-6.4,7.1l-3.2,7.6v11.3
	l5.9,10.1l7.4,13.1c0,0,3.5,10.1-1.2,15.2s-15.1,10.7-15.1,10.7l-9.1,4.7l-5.1-0.9l-3.6-0.6l-2.9-6.2l-1.6-15.1l-4.1-12.1l-6.2-9.5
	L445.1,341.1z"/>
<g>
	<g>
		<path style="fill:#FFFFFF;" d="M540.4,332.6c0.8,0.5,1.4,1.1,2,1.7l-0.5,0.6c-0.5-0.6-1.2-1.1-2-1.7L540.4,332.6z M542.5,335.7
			c-0.5,1.3-1.1,2.6-1.7,3.8l-0.8-0.3c0.7-1.2,1.3-2.5,1.8-3.7L542.5,335.7z M540.7,330c0.9,0.6,1.6,1.2,2.1,1.8l-0.6,0.6
			c-0.5-0.6-1.2-1.2-2.1-1.8L540.7,330z M547.9,330.4v2.8c0,0.3,0.2,0.4,0.5,0.4h1.1v0.7h-1.3c-0.7,0-1-0.3-1-1V331h-2.4
			c0,0.8-0.1,1.5-0.3,2c-0.2,0.6-0.7,1.1-1.2,1.6l-0.6-0.5c0.6-0.5,0.9-1,1.1-1.5s0.3-1.3,0.3-2.3L547.9,330.4L547.9,330.4z
			 M548.5,335v4.5h-0.8V339h-3.5v0.5h-0.8V335H548.5z M544.2,338.3h3.5v-2.6h-3.5V338.3z"/>
		<path style="fill:#FFFFFF;" d="M550.8,332.6c0.8,0.5,1.4,1.1,2,1.6l-0.5,0.5c-0.5-0.5-1.1-1.1-2-1.6L550.8,332.6z M552.9,335.6
			c-0.5,1.4-1.1,2.7-1.8,3.9l-0.7-0.3c0.7-1.2,1.3-2.5,1.8-3.8L552.9,335.6z M551.1,330.1c0.8,0.5,1.4,1,2,1.6l-0.5,0.5
			c-0.5-0.5-1.1-1-2-1.6L551.1,330.1z M556.3,331.3h-2.7v-0.7h5.9v0.7h-2.6v7.1h2.9v0.7H553v-0.7h3.2L556.3,331.3L556.3,331.3z"/>
		<path style="fill:#FFFFFF;" d="M563.2,335.7c-0.2,1.6-0.8,2.8-1.6,3.6l-0.6-0.5c1-1,1.5-2.7,1.5-4.9v-4h0.8v2.6h3.3v-2.6h0.7v2.6
			h2.9v0.7h-6.9v0.7c0,0.3,0,0.6-0.1,1.1h4.8v4.5h-0.8v-3.9L563.2,335.7L563.2,335.7z"/>
		<path style="fill:#FFFFFF;" d="M572.2,330.3h8.3v0.7h-7.6v7.4h7.9v0.7h-8.7L572.2,330.3L572.2,330.3z M574.4,332
			c1,0.8,1.9,1.5,2.7,2.2c0.6-0.8,1.1-1.7,1.6-2.7l0.7,0.4c-0.5,1.1-1,2-1.7,2.8c0.8,0.8,1.6,1.5,2.3,2.3l-0.6,0.6
			c-0.6-0.8-1.4-1.5-2.2-2.3c-0.9,1-2,1.8-3.2,2.3l-0.4-0.7c1.2-0.5,2.2-1.2,3.1-2.1c-0.9-0.8-1.8-1.5-2.8-2.3L574.4,332z"/>
	</g>
	<g>
		<path style="fill:#FFFFFF;" d="M450.4,403c0.7,0.5,1.2,1,1.7,1.6l-0.5,0.5c-0.4-0.5-1-1-1.7-1.6L450.4,403z M452.2,406.1
			c-0.4,1.4-0.9,2.6-1.4,3.8l-0.7-0.3c0.6-1.2,1-2.5,1.5-3.8L452.2,406.1z M450.6,400.5c0.7,0.5,1.3,1,1.7,1.5l-0.5,0.5
			c-0.4-0.5-1-1-1.7-1.5L450.6,400.5z M455.5,405.2v3.6h-2.2v0.6h-0.7v-4.3h1.1v-2h-1.4v-0.7h1.4v-1.8h0.7v1.8h1.4v0.7h-1.4v2
			L455.5,405.2L455.5,405.2z M453.2,408.2h1.6v-2.3h-1.6V408.2z M456.8,406.6c-0.1,1.4-0.5,2.5-1.1,3.4l-0.6-0.5
			c0.6-1,0.9-2.2,0.9-3.7v-5h3v8.4c0,0.6-0.3,0.8-0.8,0.8h-0.9l-0.2-0.7c0.4,0,0.7,0,0.8,0c0.2,0,0.4-0.1,0.4-0.4v-2.4L456.8,406.6
			L456.8,406.6z M458.4,403.3v-1.9h-1.6v1.9H458.4z M456.8,404v1.9h1.6V404H456.8z"/>
		<path style="fill:#FFFFFF;" d="M467.8,400.5c-0.2,0.4-0.5,0.8-0.7,1.1h2.9v0.7h-9.4v-0.7h2.9c-0.2-0.5-0.5-0.9-0.7-1.2l0.8-0.1
			c0.2,0.4,0.5,0.8,0.7,1.3h2.1c0.3-0.5,0.6-0.9,0.8-1.4L467.8,400.5z M463.4,409.9l-0.2-0.8h0.8c0.3,0,0.4-0.2,0.4-0.5v-1H462v2.3
			h-0.7v-6.7h3.9v5.6c0,0.7-0.3,1.1-0.9,1.1L463.4,409.9L463.4,409.9z M462,405.2h2.4V404H462C462,404,462,405.2,462,405.2z
			 M462,407.1h2.4v-1.2H462C462,405.9,462,407.1,462,407.1z M466.2,403.7h0.7v4.6h-0.7V403.7z M466.8,409.9l-0.2-0.7
			c0.5,0,0.9,0.1,1.3,0.1c0.3,0,0.4-0.2,0.4-0.5V403h0.8v5.9c0,0.7-0.3,1-0.9,1C468.2,409.9,466.8,409.9,466.8,409.9z"/>
		<path style="fill:#FFFFFF;" d="M473.3,406.2c-0.2,1.6-0.8,2.8-1.6,3.6l-0.6-0.5c1-1,1.5-2.7,1.5-4.9v-4h0.8v2.5h3.3v-2.6h0.7v2.6
			h2.9v0.7h-6.9v0.7c0,0.3,0,0.6-0.1,1.1h4.8v4.6h-0.8v-3.9L473.3,406.2L473.3,406.2L473.3,406.2z"/>
		<path style="fill:#FFFFFF;" d="M482.3,400.7h8.3v0.7H483v7.3h7.9v0.7h-8.7L482.3,400.7L482.3,400.7z M484.4,402.5
			c1,0.8,1.9,1.5,2.7,2.2c0.6-0.8,1.1-1.7,1.6-2.7l0.7,0.4c-0.5,1.1-1,2-1.7,2.8c0.8,0.8,1.6,1.5,2.3,2.3l-0.6,0.6
			c-0.6-0.8-1.4-1.5-2.2-2.3c-0.9,1-2,1.8-3.2,2.3l-0.4-0.7c1.2-0.5,2.2-1.2,3.1-2.1c-0.9-0.8-1.8-1.5-2.8-2.3L484.4,402.5z"/>
	</g>
	<g>
		<path style="fill:#FFFFFF;" d="M648.9,363.3h3c0.1-0.7,0.1-1.5,0.1-2.3h0.8c0,0.8,0,1.6-0.1,2.3h5.5v0.8h-3.5v3.5
			c0.8-0.7,1.5-1.6,2-2.6l0.7,0.4c-0.7,1.4-1.6,2.5-2.7,3.3v0.7c0,0.4,0.2,0.6,0.5,0.6h1.5c0.2,0,0.4-0.1,0.5-0.2
			c0.1-0.2,0.2-0.7,0.2-1.5l0.7,0.2c-0.1,1.1-0.2,1.7-0.4,1.9c-0.2,0.2-0.5,0.3-0.9,0.3h-1.9c-0.7,0-1.1-0.4-1.1-1.2v-0.4
			c-0.5,0.3-1.1,0.6-1.8,0.9l-0.4-0.7c0.8-0.3,1.6-0.7,2.2-1.1v-4.1h-1.2c-0.1,0.8-0.2,1.5-0.4,2.1c-0.4,1.9-1.4,3.4-3,4.6l-0.5-0.6
			c1.4-1,2.3-2.4,2.8-4c0.2-0.7,0.3-1.4,0.4-2.1h-3V363.3L648.9,363.3z M655,361.1c0.7,0.5,1.4,1,1.9,1.5l-0.5,0.6
			c-0.4-0.5-1.1-1-1.9-1.5L655,361.1z"/>
		<path style="fill:#FFFFFF;" d="M659.8,363.7c0.8,0.5,1.4,1.1,2,1.6l-0.5,0.5c-0.5-0.5-1.1-1.1-2-1.6L659.8,363.7z M661.9,366.8
			c-0.5,1.4-1.1,2.7-1.8,3.9l-0.7-0.3c0.7-1.2,1.3-2.5,1.8-3.8L661.9,366.8z M660.1,361.3c0.8,0.5,1.4,1,2,1.6l-0.5,0.5
			c-0.5-0.5-1.1-1-2-1.6L660.1,361.3z M665.2,362.5h-2.7v-0.7h5.9v0.7h-2.6v7.1h2.9v0.7h-6.8v-0.7h3.2L665.2,362.5L665.2,362.5z"/>
		<path style="fill:#FFFFFF;" d="M672.1,366.9c-0.2,1.6-0.8,2.8-1.6,3.6l-0.6-0.5c1-1,1.5-2.7,1.5-4.9v-4h0.8v2.4h3.3v-2.6h0.7v2.6
			h2.9v0.7h-6.9v0.9c0,0.3,0,0.6-0.1,1.1h4.8v4.6h-0.8v-3.9C676.1,366.9,672.1,366.9,672.1,366.9z"/>
		<path style="fill:#FFFFFF;" d="M681,361.5h8.3v0.7h-7.6v7.3h7.9v0.7h-8.7L681,361.5L681,361.5z M683.3,363.1
			c1,0.8,1.9,1.5,2.7,2.2c0.6-0.8,1.1-1.7,1.6-2.7l0.7,0.5c-0.5,1.1-1,2-1.7,2.8c0.8,0.8,1.6,1.5,2.3,2.3l-0.6,0.6
			c-0.6-0.8-1.4-1.5-2.2-2.3c-0.9,1-2,1.8-3.2,2.3l-0.4-0.7c1.2-0.5,2.2-1.2,3.1-2.1c-0.9-0.8-1.8-1.5-2.8-2.3L683.3,363.1z"/>
	</g>
	<g>
		<path style="fill:#FFFFFF;" d="M406.7,585.7h9.5v0.8h-5c-1,2-1.8,3.4-2.6,4.2c1.9-0.1,3.8-0.3,5.6-0.5c-0.4-0.7-0.8-1.4-1.3-2.1
			l0.6-0.4c1,1.4,1.7,2.7,2.3,3.8l-0.7,0.5c-0.2-0.4-0.4-0.8-0.6-1.1c-2,0.3-4.4,0.5-7,0.7l-0.2-0.8c0,0,0.1,0,0.2-0.1
			c0.7-0.5,1.6-1.9,2.7-4.2h-3.6L406.7,585.7L406.7,585.7z M407.8,582.8h7.4v0.7h-7.5L407.8,582.8L407.8,582.8z"/>
		<path style="fill:#FFFFFF;" d="M420,591.2v0.6h-0.8v-2.9c-0.6,0.4-1.2,0.8-1.8,1.2l-0.4-0.7c1.6-0.7,2.7-1.7,3.4-2.8h-3.3v-0.7
			h9.4v0.7h-5.3c-0.3,0.5-0.6,0.9-1,1.4h5.3v3.9h-0.8v-0.6L420,591.2L420,591.2z M421.6,582.1h0.8v2h2.5v-1.6h0.8v2.3h-7.2v-2.3h0.7
			v1.6h2.5v-2H421.6z M424.8,590.5v-1.9h-4.7v1.9H424.8z"/>
		<path style="fill:#FFFFFF;" d="M430,588c-0.2,1.6-0.8,2.8-1.6,3.6l-0.6-0.5c1-1,1.5-2.7,1.5-4.9v-4h0.8v2.5h3.3v-2.6h0.7v2.6h2.9
			v0.7h-6.9v0.7c0,0.3,0,0.6-0.1,1.1h4.8v4.6H434v-3.9L430,588C430,587.9,430,588,430,588z"/>
		<path style="fill:#FFFFFF;" d="M439,582.6h8.3v0.7h-7.6v7.3h7.9v0.7h-8.7L439,582.6L439,582.6z M441.2,584.3
			c1,0.8,1.9,1.5,2.7,2.2c0.6-0.8,1.1-1.7,1.6-2.7l0.7,0.4c-0.5,1.1-1,2-1.7,2.8c0.8,0.8,1.6,1.5,2.3,2.3l-0.6,0.6
			c-0.6-0.8-1.4-1.5-2.2-2.3c-0.9,1-2,1.8-3.2,2.3l-0.4-0.7c1.2-0.5,2.2-1.2,3.1-2.1c-0.9-0.8-1.8-1.5-2.8-2.3L441.2,584.3z"/>
	</g>
	<g>
		<path style="fill:#FFFFFF;" d="M497.2,490.8c0.8,0.5,1.4,1.1,2,1.6l-0.5,0.5c-0.5-0.5-1.1-1.1-2-1.6L497.2,490.8z M499.3,493.8
			c-0.5,1.4-1.1,2.7-1.8,3.9l-0.7-0.3c0.7-1.2,1.3-2.5,1.8-3.8L499.3,493.8z M497.5,488.2c0.8,0.5,1.4,1,2,1.6l-0.5,0.5
			c-0.5-0.5-1.1-1-2-1.6L497.5,488.2z M502.7,489.5H500v-0.7h5.9v0.7h-2.6v7.1h2.9v0.7h-6.8v-0.7h3.2L502.7,489.5L502.7,489.5z"/>
		<path style="fill:#FFFFFF;" d="M515.4,489.9h0.8v7.6h-0.8v-0.7h-6.8v0.7h-0.8v-7.7h0.8v6.2h3v-7.9h0.8v7.9h3V489.9L515.4,489.9z"
			/>
		<path style="fill:#FFFFFF;" d="M520.1,493.9c-0.2,1.6-0.8,2.8-1.6,3.6l-0.6-0.5c1-1,1.5-2.7,1.5-4.9v-4h0.8v2.5h3.3V488h0.7v2.6
			h2.9v0.7h-6.9v0.7c0,0.3,0,0.6-0.1,1.1h4.8v4.6h-0.8v-3.9L520.1,493.9L520.1,493.9L520.1,493.9z"/>
		<path style="fill:#FFFFFF;" d="M529.1,488.5h8.3v0.7h-7.6v7.3h7.9v0.7H529L529.1,488.5L529.1,488.5z M531.2,490.2
			c1,0.8,1.9,1.5,2.7,2.2c0.6-0.8,1.1-1.7,1.6-2.7l0.7,0.4c-0.5,1.1-1,2-1.7,2.8c0.8,0.8,1.6,1.5,2.3,2.3l-0.6,0.6
			c-0.6-0.8-1.4-1.5-2.2-2.3c-0.9,1-2,1.8-3.2,2.3l-0.4-0.7c1.2-0.5,2.2-1.2,3.1-2.1c-0.9-0.8-1.8-1.5-2.8-2.3L531.2,490.2z"/>
	</g>
	<g>
		<path style="fill:#FFFFFF;" d="M599.6,459.3h8.5v0.7h-4v4h4.4v0.7h-4.4v3.8h-0.8v-3.8H599v-0.6h4.3v-4h-3.8L599.6,459.3
			L599.6,459.3z M600.9,460.7c0.4,0.8,0.8,1.6,1.1,2.4l-0.7,0.4c-0.4-0.9-0.7-1.7-1.1-2.4L600.9,460.7z M607.5,461
			c-0.3,0.8-0.7,1.6-1.3,2.5l-0.7-0.4c0.5-0.8,0.9-1.7,1.2-2.4L607.5,461z"/>
		<path style="fill:#FFFFFF;" d="M611.2,460.2c-0.3,0.5-0.6,1-0.9,1.4l-0.7-0.4c0.6-0.8,1.1-1.6,1.4-2.5l0.7,0.2
			c-0.1,0.3-0.2,0.5-0.3,0.7h2.7v0.6h-1.9c0.3,0.4,0.5,0.7,0.7,1l-0.7,0.3c-0.3-0.5-0.5-0.9-0.8-1.3H611.2z M610.9,462h3.1v-0.7h0.8
			v0.7h3.1v0.7h-3.1v1h4.3v0.7h-2v1h1.6v0.7h-1.6v1.6c0,0.6-0.3,0.9-0.9,0.9h-1.5l-0.2-0.7c0.6,0,1,0.1,1.4,0.1
			c0.3,0,0.4-0.1,0.4-0.4v-1.5h-5.9v-0.7h5.9v-1h-6.5v-0.7h4.3v-1H611C610.9,462.7,610.9,462,610.9,462z M612,466.3
			c0.6,0.6,1.1,1.1,1.4,1.5l-0.6,0.4c-0.3-0.5-0.8-1-1.4-1.5L612,466.3z M615.4,460.2c-0.2,0.4-0.4,0.8-0.7,1.1l-0.6-0.4
			c0.5-0.7,0.9-1.4,1.1-2.2l0.7,0.1c-0.1,0.3-0.2,0.5-0.3,0.7h3.1v0.6h-1.9c0.3,0.4,0.5,0.7,0.7,1l-0.7,0.3
			c-0.3-0.5-0.5-0.9-0.8-1.3L615.4,460.2L615.4,460.2z"/>
		<path style="fill:#FFFFFF;" d="M622.5,464.7c-0.2,1.6-0.8,2.8-1.6,3.6l-0.6-0.5c1-1,1.5-2.7,1.5-4.9v-4h0.8v2.5h3.3v-2.6h0.7v2.6
			h2.9v0.7h-7v0.7c0,0.3,0,0.6-0.1,1.1h4.8v4.6h-0.8v-4h-4L622.5,464.7L622.5,464.7z"/>
		<path style="fill:#FFFFFF;" d="M631.4,459.3h8.3v0.7h-7.6v7.3h7.9v0.7h-8.7L631.4,459.3L631.4,459.3z M633.7,461
			c1,0.8,1.9,1.5,2.7,2.2c0.6-0.8,1.1-1.7,1.6-2.7l0.7,0.4c-0.5,1.1-1,2-1.7,2.8c0.8,0.8,1.6,1.5,2.3,2.3l-0.6,0.6
			c-0.6-0.8-1.4-1.5-2.2-2.3c-0.9,1-2,1.8-3.2,2.3l-0.4-0.7c1.2-0.5,2.2-1.2,3.1-2.1c-0.9-0.8-1.8-1.5-2.8-2.3L633.7,461z"/>
	</g>
	<g>
		<path style="fill:#FFFFFF;" d="M706.4,467.2v7.9h-0.8v-0.8h-5.8v0.9H699v-8h2.5c0.2-0.6,0.4-1.1,0.5-1.7l0.8,0.1
			c-0.1,0.6-0.3,1.1-0.5,1.6H706.4z M699.7,470.4h5.8V468h-5.8V470.4z M699.7,473.7h5.8v-2.6h-5.8V473.7z"/>
		<path style="fill:#FFFFFF;" d="M708.9,468.3c0.7,0.5,1.3,1.1,1.8,1.6l-0.5,0.6c-0.4-0.5-1-1-1.8-1.6L708.9,468.3z M710.8,471.5
			c-0.5,1.3-1,2.6-1.6,3.7l-0.8-0.3c0.6-1.2,1.2-2.4,1.6-3.7L710.8,471.5z M709.1,465.7c0.8,0.6,1.4,1.1,1.9,1.6l-0.6,0.5
			c-0.5-0.5-1.1-1.1-1.9-1.7L709.1,465.7z M713.4,467c-0.4,1.9-1,3.4-1.7,4.4l-0.6-0.5c0.7-1.1,1.2-2.4,1.6-4L713.4,467z
			 M717.5,470.7c-1,2.4-2.9,3.9-5.7,4.6l-0.4-0.7c2.8-0.6,4.6-2.1,5.4-4.3L717.5,470.7z M714.2,465.7h0.8v6.3h-0.8V465.7z
			 M716.4,466.6c0.6,1,1.2,2,1.8,3.1l-0.7,0.3c-0.5-1.1-1.1-2.2-1.7-3.1L716.4,466.6z"/>
		<path style="fill:#FFFFFF;" d="M721.2,471.5c-0.2,1.6-0.8,2.8-1.6,3.6l-0.6-0.5c1-1,1.5-2.7,1.5-4.9v-4h0.8v2.5h3.3v-2.6h0.7v2.6
			h2.9v0.7h-6.9v0.7c0,0.3,0,0.6-0.1,1.1h4.8v4.6h-0.8v-3.9L721.2,471.5L721.2,471.5L721.2,471.5z"/>
		<path style="fill:#FFFFFF;" d="M730.2,466h8.3v0.7h-7.6v7.3h7.9v0.7h-8.7L730.2,466L730.2,466z M732.4,467.7
			c1,0.8,1.9,1.5,2.7,2.2c0.6-0.8,1.1-1.7,1.6-2.7l0.7,0.4c-0.5,1.1-1,2-1.7,2.8c0.8,0.8,1.6,1.5,2.3,2.3l-0.6,0.6
			c-0.6-0.8-1.4-1.5-2.2-2.3c-0.9,1-2,1.8-3.2,2.3l-0.4-0.7c1.2-0.5,2.2-1.2,3.1-2.1c-0.9-0.8-1.8-1.5-2.8-2.3L732.4,467.7z"/>
	</g>
	<g>
		<path style="fill:#FFFFFF;" d="M750.8,588.2c0,1.4-0.5,2.6-1.4,3.7l-0.6-0.5c0.8-0.9,1.2-1.9,1.2-3.3v-2.6h3.5
			c-0.2-0.4-0.3-0.7-0.5-1l0.8-0.1c0.2,0.3,0.3,0.7,0.5,1.1h3.2v2.9L750.8,588.2L750.8,588.2z M748.9,583h2.5v-0.9h0.8v0.9h2.8v-0.9
			h0.8v0.9h2.5v0.7h-2.5v0.8H755v-0.8h-2.8v0.8h-0.8v-0.8h-2.5V583z M756.6,586.1h-5.8v1.5h5.8V586.1z"/>
		<path style="fill:#FFFFFF;" d="M759.9,584.8c0.7,0.5,1.2,1.1,1.7,1.6l-0.5,0.5c-0.4-0.5-1-1.1-1.7-1.7L759.9,584.8z M761.9,587.9
			c-0.5,1.4-1,2.7-1.6,3.8l-0.8-0.3c0.7-1.2,1.2-2.5,1.7-3.8L761.9,587.9z M760.2,582.3c0.7,0.5,1.3,1.1,1.8,1.6l-0.5,0.5
			c-0.4-0.5-1-1.1-1.8-1.6L760.2,582.3z M762.1,583.4h2.9v-1.2h0.8v1.2h1.9c-0.2-0.3-0.6-0.7-1-1.1l0.5-0.3c0.4,0.4,0.8,0.8,1,1.1
			l-0.4,0.3h1v0.7h-3.1v1.1h2.5v5.6c0,0.6-0.3,1-0.9,1h-0.9l-0.2-0.7h0.8c0.3,0,0.4-0.2,0.4-0.5v-1.1h-1.9v2.3h-0.8v-2.3h-1.8v2.3
			h-0.7v-6.6h2.5v-1.1h-2.9v-0.7L762.1,583.4L762.1,583.4z M765,585.9h-1.8v1.2h1.8V585.9z M763.3,587.6v1.2h1.8v-1.2H763.3z
			 M767.6,587v-1.2h-1.8v1.2H767.6z M767.6,588.8v-1.2h-1.8v1.2H767.6z"/>
		<path style="fill:#FFFFFF;" d="M772.2,588c-0.2,1.6-0.8,2.8-1.6,3.6l-0.6-0.5c1-1,1.5-2.7,1.5-4.9v-4h0.8v2.5h3.3v-2.6h0.7v2.6
			h2.9v0.7h-6.9v0.7c0,0.3,0,0.6-0.1,1.1h4.8v4.6h-0.6v-3.9L772.2,588L772.2,588L772.2,588z"/>
		<path style="fill:#FFFFFF;" d="M781.1,582.6h8.3v0.7h-7.6v7.3h7.9v0.7H781L781.1,582.6L781.1,582.6z M783.4,584.3
			c1,0.8,1.9,1.5,2.7,2.2c0.6-0.8,1.1-1.7,1.6-2.7l0.7,0.4c-0.5,1.1-1,2-1.7,2.8c0.8,0.8,1.6,1.5,2.3,2.3l-0.6,0.6
			c-0.6-0.8-1.4-1.5-2.2-2.3c-0.9,1-2,1.8-3.2,2.3l-0.4-0.7c1.2-0.5,2.2-1.2,3.1-2.1c-0.9-0.8-1.8-1.5-2.8-2.3L783.4,584.3z"/>
	</g>
	<g>
		<path style="fill:#FFFFFF;" d="M844.7,671.2c-0.1,0.4-0.2,0.7-0.4,1.1h1.4v7.6c0,0.6-0.3,0.8-0.8,0.8H844l-0.2-0.7
			c0.4,0,0.7,0,0.8,0c0.2,0,0.3-0.1,0.3-0.4v-3.3H843c0,1.8-0.3,3.3-0.8,4.5l-0.6-0.5c0.4-1,0.6-2.4,0.7-3.9h-0.6v-0.7h0.6v-3.5h1.1
			c0.2-0.3,0.3-0.7,0.4-1.2L844.7,671.2z M843.1,675.7h1.9v-2.8h-1.9V675.7z M844,677c0.2,0.6,0.4,1.2,0.5,1.9l-0.6,0.2
			c-0.1-0.6-0.3-1.3-0.5-1.9L844,677z M844,673.4c0.2,0.4,0.4,1,0.5,1.6l-0.6,0.1c-0.1-0.5-0.3-1-0.5-1.5L844,673.4z M850.7,671.6
			v4.7H847v3.1c0,0.3,0.2,0.5,0.5,0.5h2.1c0.3,0,0.5-0.2,0.7-0.4c0.1-0.2,0.2-0.8,0.2-1.6l0.7,0.2c-0.1,0.8-0.2,1.4-0.3,1.7
			c-0.2,0.5-0.6,0.8-1.1,0.8h-2.6c-0.6,0-0.9-0.3-0.9-0.9v-8L850.7,671.6L850.7,671.6z M848.3,672.3h-1.1v3.4h1.1V672.3z M849,675.6
			h1.1v-3.4H849V675.6z"/>
		<path style="fill:#FFFFFF;" d="M852.4,675.7h0.6v-3.5h0.9c0.1-0.3,0.2-0.7,0.3-1.2l0.8,0.1c-0.1,0.4-0.2,0.7-0.3,1.1h1.3v7.5
			c0,0.6-0.3,0.9-0.9,0.9h-0.7l-0.2-0.7c0.3,0,0.6,0,0.7,0c0.3,0,0.4-0.2,0.4-0.6v-3.2h-1.5l0,0c0,1.8-0.3,3.3-0.8,4.4l-0.6-0.5
			c0.5-1,0.7-2.3,0.7-3.9V676h-0.6L852.4,675.7L852.4,675.7z M855.1,675.7v-2.9h-1.5v2.9H855.1z M854.2,677c0.3,0.6,0.5,1.3,0.6,2
			l-0.5,0.1c-0.2-0.7-0.4-1.3-0.7-1.9L854.2,677z M854.2,673.4c0.2,0.4,0.4,1,0.6,1.6l-0.5,0.1c-0.1-0.5-0.3-1.1-0.6-1.6
			L854.2,673.4z M856.5,673.2h1.4v-0.7h-1.6v-0.7h1.6V671h0.7v0.8h0.8V671h0.7v0.8h1.8v0.6h-1.8v0.7h1.5v3.2h-5v-3.1H856.5z
			 M861.1,677.1v3.7h-0.7v-0.5h-3v0.5h-0.7v-3.7H861.1z M857.1,674.6h0.9v-0.8h-0.9V674.6z M858,675.9v-0.8h-0.9v0.8H858z
			 M857.5,678.5h3v-0.8h-3V678.5z M857.5,679.8h3V679h-3V679.8z M859.3,672.5h-0.8v0.7h0.8V672.5z M858.5,673.8v0.8h0.8v-0.8H858.5z
			 M859.3,675.9v-0.8h-0.8v0.8H859.3z M860,673.8v0.8h0.9v-0.8H860z M860.9,675.9v-0.8H860v0.8H860.9z"/>
		<path style="fill:#FFFFFF;" d="M865.1,677c-0.2,1.6-0.8,2.8-1.6,3.6l-0.6-0.5c1-1,1.5-2.7,1.5-4.9v-4h0.8v2.5h3.3v-2.6h0.7v2.6
			h2.9v0.7h-6.9v0.7c0,0.3,0,0.6-0.1,1.1h4.8v4.6h-0.8v-3.9L865.1,677L865.1,677L865.1,677z"/>
		<path style="fill:#FFFFFF;" d="M874.1,671.5h8.3v0.7h-7.6v7.3h7.9v0.7H874L874.1,671.5L874.1,671.5z M876.3,673.2
			c1,0.8,1.9,1.5,2.7,2.2c0.6-0.8,1.1-1.7,1.6-2.7l0.7,0.4c-0.5,1.1-1,2-1.7,2.8c0.8,0.8,1.6,1.5,2.3,2.3l-0.6,0.6
			c-0.6-0.8-1.4-1.5-2.2-2.3c-0.9,1-2,1.8-3.2,2.3l-0.4-0.7c1.2-0.5,2.2-1.2,3.1-2.1c-0.9-0.8-1.8-1.5-2.8-2.3L876.3,673.2z"/>
	</g>
	<g>
		<path style="fill:#FFFFFF;" d="M810.7,490.6c-0.3,1.1-0.7,2-1.2,2.8l-0.6-0.4c0.5-0.8,0.9-1.6,1.1-2.6L810.7,490.6z M809.1,487.3
			h1.2c-0.2-0.4-0.3-0.8-0.6-1.2l0.7-0.2c0.2,0.4,0.4,0.9,0.6,1.4h1.2c0.2-0.4,0.4-0.9,0.6-1.5l0.7,0.2c-0.2,0.5-0.4,0.9-0.6,1.2
			h1.2v0.7H812v1.2h1.9v0.7H812v3c0,0.6-0.3,0.9-0.9,0.9h-0.6l-0.2-0.7c0.2,0,0.4,0.1,0.5,0.1c0.3,0,0.4-0.1,0.4-0.4v-2.8h-2v-0.7h2
			V488h-2.1C809.1,488,809.1,487.3,809.1,487.3z M809.2,484.9h2.1c-0.2-0.4-0.4-0.7-0.6-0.9l0.8-0.1c0.2,0.3,0.3,0.7,0.5,1.1h2v0.7
			h-4.7L809.2,484.9L809.2,484.9z M812.9,490.4c0.3,0.7,0.6,1.4,0.7,1.9l-0.6,0.2c-0.2-0.7-0.5-1.4-0.7-2L812.9,490.4z M818.3,484.7
			c-1,0.4-2,0.6-3.1,0.6v1.9h3.5v0.7h-1.1v5.6h-0.8v-5.6h-1.6v1.3c-0.1,1.8-0.5,3.3-1.2,4.4l-0.5-0.6c0.6-0.9,1-2.2,1-3.8v-4.6
			c1.3,0,2.4-0.3,3.5-0.7L818.3,484.7z"/>
		<path style="fill:#FFFFFF;" d="M819.5,486.7h1V484h0.7v2.7h0.9v0.7h-0.9v3.2c0.3-0.1,0.6-0.3,0.9-0.5v0.7
			c-0.8,0.5-1.6,0.8-2.5,1.2l-0.2-0.7c0.4-0.1,0.7-0.2,1.1-0.4v-3.6h-1V486.7z M823.4,488.4L823.4,488.4c0,2.2-0.5,3.9-1.5,5
			l-0.6-0.5c0.8-1.1,1.2-2.6,1.3-4.6v-2.8h3.1c0-0.3,0-0.9,0-1.6h0.7c0,0.6,0,1.1,0,1.6h2.4v0.7h-2.4c0.1,1.4,0.2,2.4,0.3,3.1
			c0,0.1,0.1,0.3,0.1,0.6c0.4-0.8,0.7-1.7,0.9-2.7l0.6,0.3c-0.3,1.4-0.8,2.5-1.3,3.4c0.1,0.3,0.2,0.6,0.4,0.9
			c0.3,0.5,0.5,0.8,0.6,0.8s0.3-0.5,0.4-1.6l0.6,0.4c-0.2,1.4-0.5,2.1-0.9,2.1c-0.4,0-0.7-0.3-1.1-1c-0.2-0.3-0.3-0.6-0.5-0.9
			c-0.6,0.8-1.3,1.5-2.1,1.9l-0.5-0.6c0.9-0.5,1.7-1.2,2.3-2.1c-0.1-0.3-0.2-0.7-0.3-1.2c-0.2-0.9-0.3-2-0.4-3.4h-2.4v1.5h1.8
			c0,1.9-0.1,3.1-0.2,3.5c-0.1,0.4-0.4,0.6-0.8,0.6h-0.7l-0.2-0.6h0.7c0.2,0,0.4-0.2,0.4-0.5c0.1-0.3,0.1-1.1,0.1-2.3H823.4z
			 M827.7,484c0.3,0.4,0.5,0.8,0.7,1.3l-0.6,0.2c-0.2-0.5-0.5-1-0.7-1.3L827.7,484z"/>
		<path style="fill:#FFFFFF;" d="M830.7,484.6h8.2v0.7h-1.8v2.8h2.3v0.7h-2.3v4.7h-0.8v-4.7h-3.1c-0.1,1.1-0.3,2-0.6,2.7
			c-0.4,0.9-1.1,1.6-2,2.1l-0.4-0.7c0.9-0.5,1.5-1.1,1.8-1.9c0.2-0.6,0.4-1.3,0.5-2.2H830v-0.7h2.5v-0.4v-2.4h-1.9L830.7,484.6
			L830.7,484.6z M833.4,485.3v2.6v0.2h3v-2.8H833.4z"/>
		<path style="fill:#FFFFFF;" d="M841.3,487.2l0.8-3l0.8,0.1l-0.6,2.1h1.9c0.2-0.8,0.4-1.7,0.5-2.6l0.8,0.1
			c-0.1,0.8-0.3,1.7-0.5,2.5h4.9v0.7h-5.1c-0.1,0.5-0.3,0.9-0.4,1.2h4.4v0.7c-0.3,0.9-0.9,1.8-1.7,2.5c0.9,0.5,1.9,1,3.1,1.4
			l-0.4,0.7c-1.4-0.5-2.5-1-3.4-1.6c-0.9,0.6-1.9,1.2-3.2,1.7l-0.4-0.7c1.2-0.4,2.2-0.9,3-1.4c-0.8-0.6-1.4-1.3-1.8-2.1
			c-0.8,1.7-1.8,3-3,4l-0.4-0.7c1.5-1.4,2.7-3.2,3.4-5.5C844,487.2,841.3,487.2,841.3,487.2z M844.4,489.1c0.4,0.7,1,1.4,1.8,2
			c0.8-0.6,1.3-1.3,1.6-2H844.4z M847.2,484c0.7,0.6,1.4,1.2,1.9,1.8l-0.5,0.5c-0.4-0.5-1.1-1.1-1.9-1.8L847.2,484z"/>
		<path style="fill:#FFFFFF;" d="M860.6,492.7l-0.1,0.7h-3c-1.9,0-3.3-0.3-4.1-0.8c-0.2-0.1-0.3-0.2-0.4-0.3
			c-0.3,0.5-0.8,0.9-1.3,1.3l-0.5-0.6c0.5-0.4,0.9-0.8,1.3-1.3c-0.4-0.6-0.8-1.4-1-2.3l0.6-0.2c0.2,0.7,0.5,1.4,0.7,1.8
			c0.4-0.8,0.6-1.6,0.6-2.6h-2v-0.6c0.6-0.8,1.2-1.7,1.7-2.6h-1.7v-0.7h2.6v0.6c-0.5,0.9-1,1.7-1.6,2.5h1.7v0.5
			c0,1.4-0.3,2.6-0.8,3.6c0.2,0.2,0.3,0.3,0.5,0.4c0.7,0.4,1.8,0.6,3.3,0.6C858.1,492.7,859.2,492.7,860.6,492.7z M859.8,488.3h-2.3
			v0.9h2.5v0.6h-2.5v0.9h2.8v0.6h-2.8v1.1h-0.7v-1.1h-2.3v-0.6h2.4v-0.9h-2.1v-0.6h2.1v-0.9H855v-0.6h1.9v-0.9h-2.4v-0.6h2.4v-0.8
			H855v-0.6h1.9V484h0.7v0.8h2.3v1.5h0.7v0.6h-0.7v1.4H859.8z M857.6,485.3v0.8h1.5v-0.8H857.6z M857.6,486.8v0.9h1.5v-0.9H857.6z"
			/>
		<path style="fill:#FFFFFF;" d="M861.6,487.2h2.2v4.7c0.4-0.4,0.9-0.7,1.2-1.1l0.2,0.8c-0.7,0.6-1.4,1.2-2.1,1.7l-0.3-0.7
			c0.2-0.2,0.2-0.3,0.2-0.5v-4.2h-1.5L861.6,487.2L861.6,487.2z M862.8,484.2c0.7,0.5,1.3,1.1,1.8,1.6l-0.5,0.5
			c-0.4-0.5-1-1.1-1.8-1.6L862.8,484.2z M865.4,488.5h5v0.7c-0.3,1-0.9,1.9-1.7,2.6c0.7,0.5,1.6,0.9,2.6,1.3l-0.4,0.7
			c-1.1-0.5-2.1-1-2.8-1.5c-0.8,0.6-1.9,1.1-3.1,1.5l-0.4-0.6c1.2-0.4,2.2-0.8,3-1.4c-0.8-0.7-1.4-1.6-1.6-2.5h-0.7v-0.8H865.4z
			 M866.2,484.4h3.6v2.3c0,0.3,0.1,0.4,0.4,0.4h1v0.7H870c-0.7,0-1-0.3-1-0.9v-1.7h-2.1v0.4c0,1.1-0.5,2-1.6,2.6l-0.5-0.6
			c0.9-0.5,1.4-1.1,1.4-1.9C866.2,485.6,866.2,484.4,866.2,484.4z M866.7,489.2c0.3,0.8,0.8,1.5,1.5,2.1c0.7-0.6,1.2-1.3,1.5-2.1
			H866.7z"/>
		<path style="fill:#FFFFFF;" d="M876.6,484h0.8v1.9h3.8v4.9h-0.8v-0.7h-3.1v3.6h-0.8v-3.6h-3v0.7h-0.8v-4.9h3.8L876.6,484
			L876.6,484z M873.5,489.4h3v-2.8h-3V489.4z M877.3,489.4h3.1v-2.8h-3.1V489.4z"/>
		<path style="fill:#FFFFFF;" d="M884.5,487.4c-0.3,1.8-0.7,3.4-1.3,4.7l-0.7-0.4c0.5-1.3,0.9-2.8,1.2-4.5L884.5,487.4z
			 M886.5,493.3c-0.7,0-1.1-0.4-1.1-1.1v-6h0.8v5.8c0,0.3,0.2,0.5,0.6,0.5h2c0.3,0,0.4-0.1,0.5-0.3c0.1-0.3,0.2-1,0.3-2.2l0.7,0.2
			c-0.1,1.5-0.2,2.3-0.5,2.7c-0.2,0.3-0.5,0.4-0.9,0.4C888.8,493.3,886.5,493.3,886.5,493.3z M886.7,484.1c1,1,1.7,1.9,2.3,2.7
			l-0.6,0.4c-0.6-0.9-1.3-1.8-2.3-2.8L886.7,484.1z M890.6,487c0.7,1.3,1.3,2.8,1.8,4.4l-0.7,0.3c-0.6-1.7-1.2-3.2-1.8-4.5
			L890.6,487z"/>
	</g>
</g>
</svg>
