<?xml version="1.0" encoding="utf-8"?>
<!-- Generator: Adobe Illustrator 17.0.0, SVG Export Plug-In . SVG Version: 6.00 Build 0)  -->
<!DOCTYPE svg PUBLIC "-//W3C//DTD SVG 1.1//EN" "http://www.w3.org/Graphics/SVG/1.1/DTD/svg11.dtd">
<svg version="1.1" id="图层_1" xmlns="http://www.w3.org/2000/svg" xmlns:xlink="http://www.w3.org/1999/xlink" x="0px" y="0px"
	 preserveAspectRatio="none" viewBox="334.5 252.5 730 500" style="enable-background:new 334.5 252.5 730 500;"
	 xml:space="preserve">
<g>
	
		<path style="fill:#0053A5;fill-opacity:6.000000e-002;stroke:#0073D1;stroke-width:0.5;stroke-linecap:round;stroke-linejoin:round;stroke-miterlimit:10;" d="
		M445.1,354.6l-7.5-5.5l-5.9-2.5l-7.5,0.2l-7.1,3.2l-6.8,2.3l-6.1,0.2l-7.1-1.5l-6.1-2l-6.2-0.5h-5.1v2.5l2.2,3.5l2.7,1.2l1.2,2.5
		l-0.5,4l2.5,3.5l3.7,1.7h1.7l2.7,3.5l5.6,6.1l4,4l7,1l3.1,1l4.5,2.5l3.6,3.7l2.7,4l1,5.2l1,4l3.6,5.1l1.7,5.7l0.6,4.9l0.1,2.4l-2,1
		h-4.5l-4.7-1.9h-3.9l-5,0.4l-5.1,0.7l-2.6,2.4l-1,3l0.9,3.4l6.1,2.6l5.5,3l2.5,1.7l-0.2,3.1l-1.7,2c0,0-0.1,2.6-0.1,3
		c0,0.4,0.1,2.5,0.1,2.5l-3.6,2.6l-2.5,1l-4.2,2.1l-2.9,2.9l0.1,3.5l3,3.1l1.1,4.6l-1.2,5.1l-3.1,2.6l-3,3.4l-1.6,3.4l0.5,2.7
		l3.4,1.1h3.4l4.6,1.1c0,0,2.7,1,3.1,1.5s1.9,2.4,1.9,2.4l-1.4,2l-1.6,0.9l-0.2,4.3l-1,7.2l-0.7,2.2v5.1v2.5v4.9l-1.4,3.7l-1.7,5.4
		l-3.5,3.9l-4,3.9l-1.2,2l-2.6,0.6l-5.1,1.7l-1.7,3.5l-6.4,2l-4.7,1.1H379l-2.7,2.7v3.5l1.1,2.6l4.7,3.6l3.6,4.9l1.1,5.2l-4.7,6.4
		l-3.2,4.3l-5.7,4.7l-5.9,5l-2.7,2.2l-3.4,3.6l-6.2,3.7l-4.7,2.9l-10.3,4.7l1.4,4.2l2.2,5.1l3.6,9.6l2.5,2.7l5,1.7l6.4,2.2l6.9,0.6
		h5.8l2.1-0.7l10.7,11.7l8.4-3l3.6,1.4l-0.1,7l1,4.1l3.1,5.4l4.7,3.1l4.2,0.6l4.7-1l4.5-0.9h2.5l4.7-0.1l4.7-3.6l2.6-2l1.4-3
		l6.6-4.5l7.4-0.7l6.2-2.6l1.9-1.2l5.6,1.9l5.5,0.1l5.7-0.6l2.2-1.9l4.7,1l4.2,1.5l3.6,1.2h5.2l5.6-2.5l5.5-9.2l2.5-4.1l-3.4-21.9
		l-3.6-1.4l-2.9-8.2l0.6-5l2.4-1.7l4.7-0.2l8.2-4.5l2.7-5.6l3-6.2l18.6-14.1l10.7-4.9l-16.8-26.3l16.6-13.1l17.7,2.4l9.5,7.2l2,2.7
		l4.5,1.6l5.9,1.7l17.8-1.7l-2.6,6.5l4.6,3.4l10.6-2.4l2.2,7.6l13.9-4.5l3,4.1l4.6,5.7l2.5,6.5l5,1.4l32.5-14.1v5.7l18.7,17.3
		l17.3-0.4l0.9,4.6l-1.4,6.1l5.6-2l3.2,1.6l-1.1,7.5l-2.7,3l-0.4,12.2l6.6,1.5l-4.2,19.6l1,20.2l0.4,18.1l1.4,0.6l-2.9,5.1l3.4,5.2
		l12.3,9.2l-7.1,4l-11.8,9.7l4.7,23.3l5.5,1.5l-3.9,5.1l3.4,10.6l4.9-2.1l4.3-0.1l2.1,2.2l2.5-1.6l4.7,1.6l12.3-3.1l8.2-9.3v-4.1
		l5.1-8.2l10.8-6.9l6.7,5.7l26.7,8.2l1.4,17.6h5.5l1.2-4.9l11.5-1.6l3-4l3.1,2.6l4.7,9l3.4,4.7l17.2-6.6l7-1.6l6.2,0.2l2.4,0.6
		l5.1,3.4l9.3,1.2l18.9-9.6l15,12.5l2.1,1l2.6-4.9l2.5-13.2l46.6,9.3l36,13.7l34.6-30.8l-44-19.7l-24.4-15.1l-2.9-9.5l8.8-4.7
		l9.8-2.6l8.5-11.8l-18.8-14l-10.2-3.2l-1.6-6.4l-4.6,0.4l-6.4,3.7l-17.8-0.2l-5.4-4l-3.1,0.2l-3.4,1.9l-0.7,3.5l-4.2,3.2l-21.7,1.4
		l-14.7-0.1l-4.6,3.4l-2,5.7l1.2,4.9l-4.5,10.8l-2.4,1.1l-3.2-0.4l-2.7,5.2l-4,0.1l-8.4-3.6l5.2-10l22.9-28.9l12.3-14.8l50.5-9.7
		l3.4,3.9l0.6,7.9l6.7,4.3l6.6-0.1l7.5-6l10.2-2.9l0.7-2.7l-0.2-3.6c0,0-2.5-1.4-2.6-1c-0.1,0.4-4,0.6-4,0.6l-3.7-0.2l-2.1-4.1
		l-7.5-3.4l-9.2,0.2l-3.7-1.7l-69.7-160.2l-4-4.7l-4.7-3.5l-60.7-58.8l-13.2-16.4L786,318.4l-12.8-4.1l-14.6-1.7l-9.6,1l-8.1,2.4
		l-14,4.9l-11.5,6.6l-13.6,10.8l-9.2,7.4l-4.3,2.7l-8.4,2.9l-17.2,4.2l-13.4-5.1l-9-9.3l-3.9-14l-10.2-22.2l-4.2-4.7l-2.7-2.2
		l-3.6-3.1l-6.5-1.9H604l-9.2,4.2l-11.2,13.7l-10.1,8.8l-8.8,6.9l-20.7-3l-30.3-8.6l-4.5,0.2l-6.9,2l-8.6,5.1l-6.2,7.2l-3.2,7.6
		v11.3l5.9,10.1l7.4,13.1c0,0,3.5,10.1-1.2,15.2c-4.7,5.1-15,10.6-15,10.6l-9.1,4.7l-5.1-0.9l-3.6-0.6l-2.9-6.2l-1.6-15.1l-4.1-12.1
		l-6.2-9.5L445.1,354.6z"/>
	
		<path style="fill:#0053A5;fill-opacity:6.000000e-002;stroke:#0070CD;stroke-width:0.5;stroke-linecap:round;stroke-linejoin:round;stroke-miterlimit:10;" d="
		M445.1,353.5l-7.5-5.5l-5.9-2.5l-7.5,0.2l-7.1,3.2l-6.8,2.3l-5.9,0.2l-7.1-1.5l-6.1-2l-6.1-0.5H380v2.5l2.2,3.5l2.7,1.2l1.2,2.5
		l-0.5,4l2.5,3.5l3.7,1.7h1.7l2.7,3.5l5.6,6.1l4,4l7,1l3.1,1l4.5,2.5l3.6,3.7l2.7,4l1,5.2l1,4l3.6,5.1l1.7,5.7l0.6,4.9l0.1,2.4l-2,1
		h-4.5l-4.7-1.9h-3.9l-4.7,0.4l-5.1,0.7l-2.6,2.4l-1,3l0.9,3.4l5.4,2.1l5.5,3l2.5,1.7l-0.2,3.1l-1.7,2c0,0-0.1,2.6-0.1,3
		c0,0.4,0.1,2.5,0.1,2.5l-3.6,2.6l-2.5,1l-4.4,2l-2.9,2.9l0.3,3.2l3,3.1l1.1,4.6l-1.2,5.1l-3.1,2.6l-3,3.4l-1.6,3.4l0.5,2.7l3.4,1.1
		h3.4l4.6,1.1c0,0,2.7,1,3.1,1.5c0.4,0.5,1.9,2.4,1.9,2.4l-1.4,2l-1.6,0.9l-0.2,4.3l-1,7.2l-0.7,2.2v5.1v2.5v4.9l-1.4,3.7l-1.7,5.4
		l-3.5,3.9l-4,3.9l-1.2,2l-2.6,0.6l-5.1,1.7l-1.7,3.5l-6.4,2l-4.7,1.1h-1.5l-2.7,2.7v3.5l1.1,2.6l4.7,3.6l3.6,4.9l1.1,5.2l-4.7,6.4
		l-3.2,4.3l-5.7,4.7l-5.9,5l-2.7,2.2l-3.4,3.6l-6.2,3.7l-4.7,2.9l-10.3,4.7l1.4,4.2l2.2,5.1l3.6,9.6l2.5,2.7l5,1.7l6.4,2.2l6.9,0.6
		h5.7l2.1-0.7l10.7,11.6l8.4-3l3.6,1.4l-0.1,7l1,4.1l3.1,5.4l4.7,3.1l4.2,0.6l4.7-1l4.5-0.9h2.5l4.7-0.1l4.7-3.6l2.6-2l1.4-3
		l6.6-4.5l7.4-0.7l6.2-2.6l1.9-1.2l5.6,1.9l5.5,0.1l5.7-0.6l2.2-1.9l4.7,1l4.2,1.5l3.6,1.2h5.2l5.6-2.5l5.5-9.2l2.5-4.1l-3.4-21.9
		l-3.6-1.4l-2.9-8.2l0.6-5l2.4-1.7l4.7-0.2l8.2-4.5l2.7-5.6l3-6.2l18.6-14.1l10.7-4.9l-16.9-26.6l16.6-13.1l17.7,2.4l9.5,7.2l2,2.7
		l4.5,1.6l5.9,1.7l17.8-1.7l-2.6,6.5l4.6,3.4l10.6-2.4l2.2,7.6l13.9-4.5l3,4.1l4.6,5.7l2.5,6.5l5,1.4l32.5-14.1v5.7l18.7,17.3
		l17.3-0.4l0.9,4.6l-1.4,6.1l5.6-2l3.2,1.6l-1.1,7.5l-2.7,3l-0.4,12.2l6.6,1.5l-4.2,19.6l1,20.2l0.4,18.1l1.4,0.6l-2.9,5.1l3.4,5.2
		l12.3,9.2l-7.1,4l-11.8,9.7l4.7,23.3l5.5,1.5l-3.9,5.1l3.4,10.6l4.9-2.1l4.3-0.1l2.1,2.2l2.5-1.6l4.7,1.6l12.3-3.1l8.2-9.3v-4.1
		l5.1-8.2l10.8-6.9l6.7,5.7l26.7,8.2l1.4,17.6h5.5l1.2-4.9l11.5-1.6l3-4l3.1,2.6l4.7,9l3.4,4.7l17.2-6.6l7-1.6l6.2,0.2l2.4,0.6
		l5.1,3.4l9.3,1.2l18.9-9.6l15,12.5l2.1,1l2.6-4.9l2.5-13.2l46.6,9.3l36,13.7l34.6-30.8l-44-19.7l-24.4-15.1l-2.9-9.5l8.8-4.7
		l9.8-2.6l8.5-11.8l-18.8-14l-10.2-3.2l-1.6-6.4l-4.6,0.4l-6.4,3.7l-17.8-0.2l-5.4-4l-3.1,0.2l-3.4,1.9l-0.7,3.5l-4.2,3.2l-21.8,1.1
		l-14.7-0.1l-4.6,3.4l-2,5.7l1.2,4.9l-4.5,10.8l-2.4,1.1l-3.2-0.4l-2.7,5.2l-4,0.1l-8.4-3.6l5.2-10l22.9-28.9l12.3-14.8l50.5-9.7
		l3.4,3.9l0.6,7.9l6.7,4.3l6.6-0.1l7.5-6l10.2-2.9l0.7-2.7l-0.2-3.6c0,0-2.5-1.4-2.6-1c-0.1,0.4-4,0.6-4,0.6l-3.7-0.2l-1.8-3.9
		l-7.5-3.4l-9.2,0.2l-3.7-1.7l-69.6-158.9l-4-4.7l-4.7-3.5l-60.7-58.8l-13.3-16.4l-27.9-32.1l-12.8-4.1l-14.5-1.6l-9.6,1l-8.1,2.4
		l-14,4.9l-11.5,6.6l-13.6,10.8l-9.2,7.4l-4.3,2.7l-8.4,2.9l-17.2,4.2l-13.4-5.1l-9-9.3l-3.9-14l-10.2-22.2l-4.2-4.7l-2.7-2.2
		l-3.6-3.1l-6.5-1.9H604l-9.2,4.2l-11.2,13.7l-9.9,8.7l-8.8,6.9l-20.7-3l-30.3-8.6l-4.5,0.2l-6.9,2l-8.6,5.1l-6.4,7.1l-3.2,7.6v11.4
		l5.9,10.1l7.4,13.1c0,0,3.5,10.1-1.2,15.2c-4.7,5.1-15,10.6-15,10.6l-9.1,4.7l-5.1-0.9l-3.6-0.6l-2.9-6.2l-1.6-15.1L455,366
		l-6.2-9.5L445.1,353.5z"/>
	
		<path style="fill:#0053A5;fill-opacity:6.000000e-002;stroke:#006DC9;stroke-width:0.5;stroke-linecap:round;stroke-linejoin:round;stroke-miterlimit:10;" d="
		M445.1,352.2l-7.5-5.5l-5.9-2.5l-7.5,0.2l-7.2,3.1l-6.8,2.3l-5.9,0.2l-7.2-1.5l-6.1-2l-6.1-0.5h-5.1v2.5l2.2,3.5l2.7,1.3l1.2,2.5
		l-0.5,4l2.5,3.5l3.7,1.7h1.7l2.7,3.5l5.6,6.1l4,4l7,1l3.1,1l4.5,2.5l3.6,3.7l2.7,4l1,5.2l1,4l3.6,5.1l1.7,5.7l0.6,4.9l0.1,2.4l-2,1
		H428l-4.7-1.9h-3.9l-5,0.4l-5.1,0.7l-2.6,2.4l-1,3l0.9,3.4l6.1,2.6l5.5,3l2.5,1.7l-0.2,3.1l-1.7,2c0,0-0.1,2.6-0.1,3
		s0.1,2.5,0.1,2.5l-3.6,2.6l-2.5,1l-4.2,2.1l-2.9,2.9l0.1,3.5l3,3.1l1.1,4.6l-1.2,5.1l-3.1,2.6l-3,3.4l-1.6,3.4l0.5,2.7l3.4,1.1h3.4
		l4.6,1.1c0,0,2.7,1,3.1,1.5c0.4,0.5,1.9,2.4,1.9,2.4l-1.4,2l-1.6,0.9l-0.2,4.3l-1,7.2l-0.7,2.2v5.1v2.5v4.9l-1.4,3.7l-1.7,5.4
		l-3.5,3.9l-4,3.9l-1.2,2l-2.6,0.6l-5.1,1.7l-1.7,3.5l-6.4,2l-4.7,1.1h-1.5l-2.7,2.7v3.5l1.1,2.6l4.7,3.6l3.6,4.9l1.1,5.2l-4.7,6.4
		l-3.2,4.3l-5.7,4.7l-5.9,5l-2.7,2.2l-3.4,3.6l-6.2,3.7l-4.7,2.9l-10.3,4.7l1.4,4.2l2.2,5.1l3.6,9.6l2.5,2.7l5,1.7l6.4,2.2l6.9,0.6
		h5.8l2.1-0.7l10.7,11.6l8.4-3l3.6,1.4l-0.1,7l1,4.1l3.1,5.4l4.7,3.1l4.2,0.6l4.7-1l4.5-0.9h2.5l4.7-0.1l4.7-3.6l2.6-2l1.4-3
		l6.6-4.5l7.4-0.7l6.2-2.6l1.9-1.2l5.6,1.9l5.5,0.1l5.7-0.6l2.2-1.9l4.7,1l4.2,1.5l3.6,1.2h5.2l5.6-2.5l5.5-9.2l2.5-4.1l-3.4-21.9
		l-3.6-1.4l-2.9-8.2l0.6-5l2.4-1.7l4.7-0.2l8.2-4.5l2.7-5.6l3-6.2l18.6-14.1l10.7-4.9l-16.8-26.3l16.6-13.1l17.7,2.4l9.5,7.2l2,2.7
		l4.5,1.6l5.9,1.7l17.8-1.7l-2.6,6.5l4.6,3.4l10.2-3.6l2.2,7.6l13.9-4.5l3,4.1l4.6,5.7l2.5,6.5l5,1.4l32.5-14.1v5.7l18.7,17.3
		l17.3-0.4l0.9,4.6l-1.4,6.1l5.6-2l3.2,1.6l-1.1,7.5l-2.7,3l-0.4,12.2l6.6,1.5l-4.2,19.6l1,20.2l0.4,18.1l1.4,0.6l-2.9,5.1l3.4,5.2
		l12.3,9.2l-7.1,4l-11.8,9.7l4.7,23.3l5.5,1.5l-3.9,5.1l3.4,10.6l4.9-2.1l4.3-0.1l2.1,2.2l2.5-1.6l4.7,1.6l12.3-3.1l8.2-9.3V715
		l5.1-8.2l10.8-6.9l6.7,5.7l26.7,8.2l1.4,17.6h5.5l1.2-4.9l11.5-1.6l3-4l3.1,2.6l4.7,9l3.4,4.7l17.2-6.6l7-1.6l6.2,0.2l2.4,0.6
		l5.1,3.4l9.3,1.2l18.9-9.6l15,12.5l2.1,1l2.6-4.9l2.5-13.2l46.6,9.3l36,13.7l34.6-30.8l-44-19.7l-24.3-14.8l-2.9-9.5l8.8-4.7
		l9.8-2.6l8.5-11.8l-18.8-14l-10.2-3.2l-1.6-6.4l-4.6,0.4l-6.4,3.7l-17.8-0.2l-5.4-4l-3.1,0.2l-3.4,1.9l-0.7,3.5l-4.2,3.2l-21.7,1.4
		l-14.7-0.1l-4.6,3.4l-2,5.7l1.2,4.9l-4.5,10.8l-2.4,1.1l-3.2-0.4l-2.7,5.2l-4,0.1l-8.4-3.6l5.2-10l22.9-28.9l12.3-14.8l50.5-9.7
		l3.4,3.9l0.6,7.9l6.7,4.3l6.6-0.1l7.5-6l10.2-2.9l0.7-2.7l-0.2-3.6c0,0-2.5-1.4-2.6-1c-0.1,0.4-4,0.6-4,0.6l-3.7-0.2l-2.1-4.1
		l-7.5-3.4l-9.2,0.2l-3.7-1.7l-69.6-158.9l-4-4.7l-4.7-3.5L827,364.8l-13.4-16.7L785.7,316l-12.8-4.1l-14.6-1.7l-9.6,1l-8.1,2.4
		l-14,4.9l-11.5,6.6l-13.6,10.8l-9.2,7.4L688,346l-8.4,2.9l-17.2,4.2L649,348l-9-9.3l-3.8-14L626,302.5l-4.2-4.7l-2.7-2.2l-3.6-3.1
		l-6.5-1.9h-5.3l-9.2,4.2l-11.2,13.7l-10.1,8.8l-8.8,6.9l-20.7-3l-30.3-8.5l-4.5,0.2l-6.9,2l-8.6,5.1l-6.4,7.1l-3.2,7.6V346
		l5.9,10.1l7.4,13.1c0,0,3.5,10.1-1.2,15.2c-4.7,5.1-15,10.6-15,10.6l-9.1,4.7l-5.1-0.9l-3.6-0.6l-2.9-6.2l-1.6-15.1l-4.1-12.1
		l-6.2-9.5L445.1,352.2z"/>
	
		<path style="fill:#0053A5;fill-opacity:6.000000e-002;stroke:#006AC5;stroke-width:0.5;stroke-linecap:round;stroke-linejoin:round;stroke-miterlimit:10;" d="
		M445.1,351l-7.5-5.5l-5.9-2.5l-7.5,0.2l-7.1,3.2l-6.8,2.3l-5.9,0.2l-7.1-1.5l-6.1-2l-6.1-0.5H380v2.5l2.2,3.5l2.7,1.2l1.2,2.5
		l-0.5,4l2.5,3.5l3.7,1.7h1.7l2.7,3.5l5.6,6.1l4,4l7,1l3.1,1l4.5,2.5l3.6,3.7l2.7,4l1,5.2l1,4l3.6,5.1l1.7,5.7l0.6,4.9l0.1,2.4l-2,1
		h-4.5l-4.7-1.9h-3.9l-5,0.4l-5.1,0.7l-2.6,2.4l-1,3l0.9,3.4l6.1,2.6l5.5,3l2.5,1.7l-0.2,3.1l-1.7,2c0,0-0.1,2.6-0.1,3
		s0.1,2.5,0.1,2.5l-3.6,2.6l-2.5,1l-4.2,2.1l-2.9,2.9l0.1,3.5l3,3.1l1.1,4.6l-1.2,5.1l-3.1,2.6l-3,3.4l-1.6,3.4l0.5,2.7l3.4,1.1h3.4
		l4.6,1.1c0,0,2.7,1,3.1,1.5s1.9,2.4,1.9,2.4l-1.4,2l-1.6,0.9l-0.2,4.3l-1,7.2l-1.3,1.2v5.1v2.5v4.9l-1.4,3.7l-1.7,5.4l-3.5,3.9
		l-4,3.9l-1.2,2l-2.6,0.6l-5.1,1.7l-1.7,3.5l-6.4,2l-4.7,1.1h-1.5l-2.7,2.7v3.5l1.1,2.6l4.7,3.6l3.6,4.9l1.1,5.2l-4.7,6.4l-3.2,4.3
		l-5.7,4.7l-5.9,5l-2.7,2.2l-3.4,3.6l-6.2,3.7l-4.7,2.9l-10.2,4.4l1.4,4.2l2.2,5.1l3.6,9.6l2.5,2.7l5,1.7l6.4,2.2l6.9,0.6h5.8
		l2.1-0.7l10.7,11.6l8.4-3l3.6,1.4l-0.1,7l1,4.1l3.1,5.4l4.7,3.1l4.2,0.6l4.7-1l4.5-0.9h2.5l4.7-0.1l4.7-3.6l2.6-2l1.4-3l6.6-4.5
		l7.4-0.7l6.2-2.6l1.9-1.2l5.6,1.9l5.5,0.1l5.7-0.6l2.2-1.9l4.7,1l4.2,1.5l3.6,1.2h5.2l5.6-2.5l5.5-9.2l2.5-4.1l-3.4-21.9l-3.6-1.4
		l-2.9-8.2l0.6-5l2.4-1.7l4.7-0.2l8.2-4.5l2.7-5.6l3-6.2l18.6-14.1l10.7-4.9L533,526l16.6-13.1l17.7,2.4l9.5,7.2l2,2.7l4.5,1.6
		l5.9,1.7l17.8-1.7l-2.6,6.5l4.6,3.4l10.6-2.4l2.2,7.6l13.7-4.4l3,4.1l4.6,5.7l2.5,6.5l5,1.4l32.5-14.1v5.7l18.7,17.3l17.3-0.4
		l0.9,4.6l-1.4,6.1l5.6-2l3.2,1.6l-1.1,7.5l-2.7,3l-0.4,12.2l6.6,1.5l-4.2,19.6l1,20.2l0.4,18.1l1.4,0.6l-2.9,5.1l3.4,5.2l12.3,9.2
		l-7.1,4l-11.8,9.7l4.7,23.3l5.5,1.5l-3.9,5.1l3.4,10.6l4.9-2.1l4.3-0.1l2.1,2.2l2.5-1.6l4.7,1.6l12.3-3.1l8.2-9.3v-4.1l5.1-8.2
		l10.8-6.9l6.7,5.7l26.7,8.2l1.4,17.6h5.5l1.2-4.9l11.5-1.6l3-4l3.1,2.6l4.7,9l3.4,4.7l17.2-6.6l7-1.6l6.2,0.2l2.4,0.6l5.1,3.4
		l9.3,1.2l18.9-9.6l15,12.5l2.1,1l2.6-4.9l2.5-13.2l46.6,9.3l36,13.7l34.6-30.8l-44-19.7l-24.4-15.1l-2.9-9.5l8.8-4.7l9.8-2.6
		l8.5-11.8l-18.8-14l-10.2-3.2l-1.6-6.4l-4.6,0.4l-6.4,3.7l-17.8-0.2l-5.4-4l-3.1,0.2l-3.4,1.9l-0.7,3.5l-4.2,3.2l-21.7,1.4
		l-14.7-0.1l-4.6,3.4l-2,5.7l1.2,4.9l-4.5,10.8l-2.4,1.1l-3.2-0.4l-2.7,5.2l-4,0.1l-8.4-3.6l5.2-10l22.9-28.9l12.3-14.8l50.5-9.7
		l3.4,3.9l0.6,7.9l6.7,4.3l6.6-0.1l7.5-6l10.2-2.9l0.7-2.7l-0.2-3.6c0,0-2.5-1.4-2.6-1c-0.1,0.4-4,0.6-4,0.6l-3.7-0.2l-2.1-4.1
		l-7.5-3.4l-9.2,0.2l-3.7-1.7l-69.3-159.1l-4-4.7l-4.7-3.5l-60.7-58.8l-13.3-16.4l-27.9-32.1l-12.8-4.1l-14.6-1.7l-9.6,1l-8.1,2.4
		l-14,4.9l-11.5,6.6l-13.6,10.8l-9.2,7.4l-4.3,2.7l-8.4,2.9l-17.2,4.2l-13.4-5.1l-9-9.3l-3.9-14l-10.2-22.2l-4.2-4.7l-2.7-2.2
		l-3.6-3.1l-6.5-1.9h-5.2l-9.2,4.2l-11.2,13.7l-10.1,8.8l-8.8,6.9l-20.7-3l-30.3-8.6l-4.5,0.2l-6.9,2l-8.6,5.1l-6.4,7.1l-3.2,7.6
		v11.3l5.9,10.1l7.4,13.1c0,0,3.5,10.1-1.2,15.2c-4.7,5.1-15,10.7-15,10.7l-9.1,4.7l-5.1-0.9l-3.6-0.6l-2.9-6.2l-1.6-15.1l-3.6-12.1
		L449,354L445.1,351z"/>
	
		<path style="fill:#0053A5;fill-opacity:6.000000e-002;stroke:#0067C1;stroke-width:0.5;stroke-linecap:round;stroke-linejoin:round;stroke-miterlimit:10;" d="
		M445.1,349.7l-7.5-5.5l-5.9-2.5l-7.5,0.3l-7.1,3.2l-6.8,2.2l-6.1,0.1l-7.1-1.5l-6.1-2l-6.1-0.5h-5.1v2.5l2.2,3.5l2.7,1.2l1.2,2.5
		l-0.5,4l2.5,3.5l3.7,1.7h1.7l2.7,3.5l5.6,6.1l4,4l7,1l3.1,1l4.5,2.5l3.6,3.7l2.7,4l1,5.2l1,4l3.6,5.1l1.7,5.7l0.6,4.9l0.1,2.4l-2,1
		H428l-4.7-1.9h-3.9l-5,0.4l-5.1,0.7l-2.6,2.4l-1,3l0.9,3.4l6.1,2.6l5.5,3l2.5,1.7l-0.2,3.1l-1.7,2c0,0-0.1,2.6-0.1,3
		s0.1,2.5,0.1,2.5l-3.6,2.6l-2.5,1l-4.2,2.1l-2.9,2.9l0.1,3.5l3,3.1l0.8,3.9l-1.2,5.1l-3.1,2.6l-3,3.4l-1.6,3.4l0.5,2.7l3.4,1.1h3.4
		l4.6,1.1c0,0,2.7,1,3.1,1.5s1.9,2.4,1.9,2.4l-1.4,2l-1.6,0.9l-0.2,4.3l-1,7.2l-0.7,2.2v5.1v2.5v4.9l-1.4,3.7l-1.7,5.4l-3.5,3.9
		l-4,3.9l-1.2,2l-2.6,0.6l-5.1,1.7l-1.7,3.5l-6.4,2l-4.7,1.1h-1.5l-2.7,2.7v3.5l1.1,2.6l4.7,3.6l3.6,4.9l1.1,5.2l-4.7,6.4l-3.2,4.3
		l-5.7,4.7l-5.9,5l-2.7,2.2l-3.4,3.6l-6.2,3.7l-4.7,2.9l-10.3,4.7l1.4,4.2l2.2,5.1l3.6,9.6l2.5,2.7l5,1.7l6.4,2.2l6.9,0.6h5.8
		l2.1-0.7l10.7,11.7l8.4-3l3.6,1.4l-0.1,7l1,4.1l3.1,5.4l4.7,3.1l4.2,0.6l4.7-1l4.5-0.9h2.5l4.7-0.1l4.7-3.6l2.6-2l1.4-3l6.6-4.5
		l7.4-0.7l6.2-2.6l1.9-1.2l5.6,1.9l5.5,0.1l5.7-0.6l2.2-1.9l4.7,1l4.2,1.5l3.6,1.2h5.2l5.6-2.5l5.5-9.2l2.5-4.1l-3.4-21.9l-3.6-1.4
		l-2.9-8.2l0.6-5l2.4-1.7l4.7-0.2l8.2-4.5l2.7-5.6l3-6.2l18.6-14.1l10.7-4.9L533,525.2l16.6-13.1l17.7,2.4l9.5,7.2l2,2.7l4.5,1.6
		l5.9,1.7L607,526l-2.6,6.5l4.6,3.4l10.6-2.4l2.2,7.6l13.9-4.5l3,4.1l4.6,5.7l2.5,6.5l5,1.4l32.5-14.1v5.7l18.7,17.3l17.3-0.4
		l0.9,4.6l-1.4,6.1l5.6-2l3.2,1.6l-1.1,7.5l-2.7,3l-0.4,12.2l6.6,1.5l-4.2,19.6l1,20.2l0.4,18.1l1.4,0.6l-2.9,5.1l3.4,5.2l12.3,9.2
		l-7.1,4l-11.8,9.7l4.7,23.3l5.5,1.5l-3.9,5.1l3.4,10.6l4.9-2.1l4.3-0.1l2.1,2.2l2.5-1.6l4.7,1.6l12.3-3.1l8.2-9.3V713l5.1-8.2
		l10.8-6.9l6.7,5.7l26.7,8.2l1.4,17.6h5.5l1.2-4.9l11.5-1.6l3-4l3.1,2.6l4.7,9l3.4,4.7l17.2-6.6l7-1.6l6.2,0.2l2.4,0.6l5.1,3.4
		l9.3,1.2l18.9-9.6l15,12.5l2.1,1l2.6-4.9l2.5-13.2l46.6,9.3l36,13.7l34.6-30.8l-44-19.7l-24.4-15.1l-2.9-9.5l8.8-4.7l9.8-2.6
		l8.5-11.8l-18.8-14l-10.2-3.2l-1.6-6.4l-4.6,0.4l-6.4,3.7l-17.8-0.2l-5.4-4l-3.1,0.2l-3.4,1.9l-0.7,3.5l-4.2,3.2l-21.7,1.4
		l-14.7-0.1l-4.6,3.4l-2,5.7l1.2,4.9l-4.5,10.8l-2.4,1.1l-3.2-0.4l-2.7,5.2l-4,0.1l-8.4-3.6l5.2-10l22.9-28.9l12.3-14.8l50.5-9.7
		l3.4,3.9l0.6,7.9l6.7,4.3l6.6-0.1l7.5-6l10.2-2.9l0.7-2.7l-0.2-3.6c0,0-2.5-1.4-2.6-1s-4,0.6-4,0.6l-3.7-0.2l-2.1-4.1l-7.5-3.4
		l-9.2,0.2l-3.7-1.7l-69.5-159.5l-4-4.7l-4.7-3.5l-60.7-58.8l-13.3-16.3l-27.9-32.1l-12.6-4l-14.6-1.8l-9.6,1l-8.1,2.4l-14,4.9
		l-11.5,6.6l-13.7,10.9l-9.2,7.4l-4.3,2.7l-8.4,2.9l-17.2,4.2l-13.4-5.1l-9-9.3l-3.9-14l-10.2-22.2l-4.2-4.7l-2.7-2.2l-3.6-3.1
		l-6.5-1.9H604l-9.2,4.2l-11.2,13.7l-10.1,8.8l-8.8,6.9l-20.7-3l-30.3-8.6l-4.5,0.2l-6.9,2l-8.6,5.1l-6.4,7.1l-3.2,7.6v11.3
		l5.9,10.1l7.4,13.1c0,0,3.5,10.1-1.2,15.2s-15,10.6-15,10.6l-9.1,4.7l-5.1-0.9l-3.6-0.6l-2.9-6.2l-1.6-15.1l-4.1-12.1l-6.2-9.5
		L445.1,349.7z"/>
	
		<path style="fill:#0053A5;fill-opacity:6.000000e-002;stroke:#0064BD;stroke-width:0.5;stroke-linecap:round;stroke-linejoin:round;stroke-miterlimit:10;" d="
		M445.1,348.5l-7.5-5.5l-6-2.5l-7.5,0.2l-7.1,3.2l-6.8,2.3l-5.9,0.2l-7.1-1.5l-6.1-2l-6.1-0.5h-5.1v2.5l2.2,3.5l2.4,1.1l1.2,2.5
		l-0.5,4l2.5,3.5l3.7,1.7h1.7l2.7,3.5l5.6,6.1l4,4l7,1l3.1,1l4.5,2.5l3.6,3.7l2.7,4l1,5.2l1,4l3.6,5.1l1.7,5.7l0.6,4.9l0.1,2.4l-2,1
		h-4.5l-4.7-1.9h-3.9l-4.7,0.4l-5.1,0.7l-2.6,2.4l-1,3l0.9,3.4l6.1,2.6l5.5,3l2.5,1.7l-0.2,3.1l-1.7,2c0,0-0.1,2.6-0.1,3
		c0,0.4,0.1,2.5,0.1,2.5l-3.6,2.6l-2.5,1l-4.4,2l-2.9,2.9l0.1,3.5l3,3.1l1.1,4.6l-1.2,5.1l-3.1,2.6l-3,3.4l-1.6,3.4l0.5,2.7l3.4,1.1
		h3.4l4.4,0.3c0,0,2.7,1,3.1,1.5s1.9,2.4,1.9,2.4l-1.4,2l-1.6,0.9l-0.2,4.3l-1,7.2l-0.7,2.2v5.1v2.5v4.9l-1.4,3.7l-1.7,5.4l-3.5,3.9
		l-4,3.9l-1.2,2l-2.6,0.6l-5.1,1.7l-1.7,3.5l-6.4,2l-4.7,1.1h-1.5l-2.7,2.7v3.5l1.1,2.6l4.7,3.6l3.6,4.9l1.1,5.2l-4.7,6.4l-3.2,4.3
		l-5.7,4.7l-5.9,5l-2.7,2.2L361,589l-6.2,3.7l-4.7,2.9l-10.3,4.7l1.4,4.2l2.2,5.1l3.6,9.6l2.5,2.3l5,1.7l6.4,2.2l6.9,0.6h5.7
		l2.1-0.7l10.7,11.6l8.4-3l3.6,1.4l-0.1,7l1,4.1l3.1,5.4l4.7,3.1l4.2,0.6l4.7-1l4.5-0.9h2.5l4.7-0.1l4.7-3.6l2.6-2l1.4-3l6.6-4.5
		l7.4-0.7l6.2-2.6l1.9-1.2l5.6,1.9l5.5,0.1l5.7-0.6l2.2-1.9l4.7,1l4.2,1.5l3.6,1.2h5.2l5.6-2.5l5.5-9.2l2.5-4.1l-3.4-21.9l-3.6-1.4
		l-2.9-8.2l0.6-5l2.4-1.7l4.7-0.2l8.2-4.5l2.7-5.6l3-6.2l18.6-14.1l10.7-4.9l-16.8-26.1l16.6-13.1l17.7,2.4l9.5,7.2l2,2.7l4.5,1.6
		l5.9,1.7l17.8-1.7l-2.6,6.5l4.6,3.4l10.6-2.4l2.2,7.6l13.9-4.5l3,4.1l4.6,5.7l2.5,6.5l5,1.4l32.5-14.1v5.7l18.7,17.3l17.3-0.4
		l0.9,4.6l-1.4,6.1l5.6-2l3.2,1.6l-1.1,7.5l-2.7,3l-0.4,12.2l6.6,1.5l-4.2,19.6l1,20.2l0.4,18.1l1.4,0.6l-2.9,5.1l3.4,5.2l12.3,9.2
		l-7.1,4l-11.8,9.7l4.7,23.3l5.5,1.5l-3.9,5.1l3.4,10.6l4.9-2.1l4.3-0.1l2.1,2.2l2.5-1.6l4.7,1.6l12.3-3.1l8.2-9.3v-4.1l5.1-8.2
		l10.8-6.9l6.7,5.7l26.7,8.2l1.4,17.6h5.5l1.2-4.9l11.5-1.6l3-4l3.1,2.6l4.7,9l3.4,4.7l17.2-6.6l7-1.6l6.2,0.2l2.4,0.6l5.1,3.4
		l9.3,1.2l18.9-9.6l15,12.5l2.1,1l2.6-4.9l2.5-13.2l46.6,9.3l36,13.7l34.6-30.8l-44-19.7l-24.4-15.1l-2.9-9.5l8.8-4.7l9.8-2.6
		l8.5-11.8l-18.8-14l-10.2-3.2l-1.6-6.4l-4.6,0.4l-6.4,3.7l-17.8-0.2l-5.4-4l-3.1,0.2l-3.4,1.9l-0.5,3.8l-4.2,3.2l-21.7,1.4
		l-14.7-0.1l-4.6,3.4l-2,5.7l1.2,4.9l-4.5,10.8l-2.4,1.1l-3.2-0.4l-2.7,5.2l-4,0.1l-8.4-3.6l5.2-10l22.9-28.9l12.3-14.8l50.5-9.7
		l3.4,3.9l0.6,7.9l6.7,4.3l6.6-0.1l7.5-6l10.2-2.9l0.7-2.7l-0.2-3.6c0,0-2.5-1.4-2.6-1s-4,0.6-4,0.6l-3.7-0.2l-2.1-4.1l-7.5-3.4
		l-9.2,0.2l-3.7-1.7l-69.6-158.9l-4-4.7l-4.7-3.5l-60.7-58.8l-13.5-16.7l-27.9-32.1l-12.8-4.1l-14.6-1.7l-9.6,1l-8.1,2.4l-14,4.9
		l-11.2,6.7l-13.6,10.8l-9.2,7.4l-4.3,2.7l-8.4,2.9l-17.2,4.2l-13.4-5.1l-9-9.3l-3.9-14l-10.2-22.2l-4.2-4.7l-2.7-2.2l-3.6-3.1
		l-6.5-1.9H604l-9.2,4.2l-11.2,13.7l-10.1,8.8l-8.8,6.9l-20.7-3l-30.3-8.6l-4.5,0.2l-6.9,2l-8.6,5.1l-6.4,7.1l-3.2,7.6v11.4
		l5.9,10.1l7.4,13.1c0,0,3.5,10.1-1.2,15.2c-4.7,5.1-15,10.6-15,10.6l-9.1,4.7l-5.1-0.9l-3.6-0.6l-2.9-6.2l-1.6-15.1l-4.1-12.1
		l-6.2-9.5L445.1,348.5z"/>
	
		<path style="fill:#0053A5;fill-opacity:6.000000e-002;stroke:#0062B9;stroke-width:0.5;stroke-linecap:round;stroke-linejoin:round;stroke-miterlimit:10;" d="
		M445.1,347.2l-7.5-5.5l-5.9-2.5l-7.6,0.3l-7.1,3.2l-6.8,2.3l-5.9,0.2l-7.1-1.5l-6.1-2l-6.1-0.5h-5.1v2.5l2.2,3.5l2.7,1.2l1.2,2.5
		l-0.5,4l2.5,3.5l3.7,1.7h1.7l2.7,3.5l5.6,6.1l4,4l7,1l3.1,1l4.5,2.5l3.6,3.7l2.7,4l1,5.2l1,4l3.6,5.1l1.7,5.7l0.6,4.9l0.1,2.4l-2,1
		h-4.5l-4.7-1.9h-3.9l-5,0.4l-5.1,0.7l-2.6,2.4l-1,3l0.9,3.4l6.1,2.6l5.5,3l2.5,1.7l-0.2,3.1l-1.7,2c0,0-0.1,2.6-0.1,3
		c0,0.4,0.1,2.5,0.1,2.5l-3.6,2.6l-2.5,1l-4.2,2.1l-2.9,2.9l0.1,3.5l3,3.1l1.1,4.6l-1.2,5.1l-3.1,2.6l-3,3.4l-1.6,3.4l0.5,2.7
		l3.4,1.1h3.4l4.6,1.1c0,0,2.7,1,3.1,1.5c0.4,0.5,1.9,2.4,1.9,2.4l-1.4,2l-1.6,0.9l-0.2,4.3l-1,7.2l-0.7,2.2v5.1v2.5v4.9l-1.4,3.7
		l-2.1,4.5l-3.5,3.9l-4,3.9l-1.2,2l-2.6,0.6l-5.1,1.7l-1.7,3.5l-6.4,2l-4.7,1.1h-1.5l-2.7,2.7v3.5l1.1,2.6l4.7,3.6l3.6,4.9l1.1,5.2
		l-4.7,6.4l-3.2,4.3l-5.7,4.7l-5.9,5l-2.7,2.2l-3.4,3.6l-6.2,3.7l-4.7,2.9l-10.3,4.7l1.4,4.2l2.2,5.1l3.6,9.6l2.5,2.7l5,1.7l6.4,2.2
		l6.9,0.6h5.8l2.1-0.7l10.7,11.6l8.4-3l3.6,1.4l-0.1,7l1,4.1l3.1,5.4l4.7,3.1l4.2,0.6l4.7-1l4.5-0.9h2.5l4.7-0.1l4.7-3.6l2.6-2
		l1.4-3l6.6-4.5l7.4-0.7l6.2-2.6l1.9-1.2l5.6,1.9l5.5,0.1l5.7-0.6l2.2-1.9l4.7,1l4.2,1.5l3.6,1.2h5.2l5.6-2.5l5.5-9.2l2.5-4.1
		l-3.4-21.9l-3.6-1.4l-2.9-8.2l0.6-5l2.4-1.7l4.7-0.2l8.2-4.5l2.7-5.6l3-6.2l18.6-14.1l10.7-4.9L533,522.6l16.6-13.1l17.7,2.4
		l9.5,7.2l2,2.7l4.5,1.6l5.9,1.7l17.8-1.7l-2.6,6.5l4.6,3.4l10.6-2.4l2.2,7.6l13.9-4.5l3,4.1l4.6,5.7l2.5,6.5l5,1.4l32.5-14.1v5.7
		l18.7,17.3l17.3-0.4l0.9,4.6l-1.4,6.1l5.6-2l3.2,1.6l-1.1,7.5l-2.7,3l-0.4,12.2l6.6,1.5l-4.2,19.6l1,20.2l0.4,18.1l1.4,0.6
		l-2.9,5.1l3.4,5.2l12.3,9.2l-7.1,4l-11.8,9.7l4.7,23.3l5.5,1.5l-3.9,5.1l3.4,10.6l4.9-2.1l4.3-0.1l2.1,2.2l2.5-1.6l4.7,1.6
		l12.3-3.1l8.2-9.3v-4.1l5.1-8.2l10.8-6.9l6.7,5.7l26.7,8.2l1.4,17.6h5.5l1.2-4.9l11.5-1.6l3-4l3.1,2.6l4.7,9l3.4,4.7l17.2-6.6
		l7-1.6l6.2,0.2l2.4,0.6l5.1,3.4l9.3,1.2l18.9-9.6l15,12.5l2.1,1l2.6-4.9l2.5-13.2l46.6,9.3l36,13.7l34.6-30.8l-44-19.7L991,672.5
		l-2.9-9.5l8.8-4.7l9.8-2.6l8.5-11.8l-18.8-14l-10.2-3.2l-1.6-6.4l-4.6,0.4l-6.4,3.7l-17.8-0.2l-5.4-4l-3.1,0.2l-3.4,1.9l-0.7,3.5
		L939,629l-21.7,1.4l-14.7-0.1l-4.6,3.4l-2,5.7l1.2,4.9l-4.5,10.8l-2.4,1.1l-3.2-0.4l-2.7,5.2l-4,0.1l-8.4-3.6l5.2-10l22.9-28.9
		l12.3-14.8l50.5-9.7l3.4,3.9l0.6,7.9l6.7,4.3l6.6-0.1l7.5-6l10.2-2.9l0.7-2.7l-0.2-3.6c0,0-2.5-1.4-2.6-1s-4,0.6-4,0.6l-3.7-0.2
		l-2.1-4.1l-7.5-3.4l-9.2,0.2l-3.7-1.7l-69.1-158.8l-4-4.7l-4.7-3.5l-60.6-58.8l-13.3-16.3L786,311.1l-12.8-4.1l-14.6-1.7l-9.6,1
		l-8.1,2.4l-14,4.8l-11.5,6.6l-13.6,10.8l-9.2,7.4l-4.3,2.7l-8.4,2.9l-17.2,4.2l-13.4-5.1l-9-9.3l-3.8-14l-10.2-22.2l-4.2-4.7
		l-2.7-2.2l-3.6-3.1l-6.5-1.9H604l-9.2,4.2l-11,13.7l-10.1,8.8l-8.8,6.9l-20.7-3l-30.3-8.5l-4.5,0.2l-6.9,2l-8.6,5.1l-6.4,7.1
		l-3.2,7.6V341l5.9,10.1l7.4,13.1c0,0,3.5,10.1-1.2,15.2s-15,10.6-15,10.6l-9.1,4.7l-5.1-0.9l-3.6-0.6l-2.9-6.2l-1.6-15.1l-4.1-12.1
		l-6.2-9.5L445.1,347.2z"/>
	
		<path style="fill:#0053A5;fill-opacity:6.000000e-002;stroke:#005FB5;stroke-width:0.5;stroke-linecap:round;stroke-linejoin:round;stroke-miterlimit:10;" d="
		M445.1,346l-7.5-5.5l-5.9-2.5l-7.5,0.2l-7.1,3.2l-6.8,2.3l-5.9,0.2l-7.1-1.5l-6.1-2l-6.1-0.5H380v2.5l2.2,3.5l2.7,1.2l1.2,2.5
		l-0.5,4l2.5,3.5l3.7,1.7h1.7l2.7,3.5l5.6,6.1l4,4l7,1l3.1,1l4.5,2.5l3.6,3.7l2.7,4l1,5.2l1,4l3.6,5.1l1.7,5.7l0.6,4.9l0.1,2.4l-2,1
		h-4.5l-4.7-1.9h-3.9l-5,0.4l-5.1,0.7l-2.6,2.4l-1,3l0.9,3.4l6.1,2.6l5.5,3l2.5,1.7l-0.2,3.1l-1.7,2c0,0-0.1,2.6-0.1,3
		s0.1,2.5,0.1,2.5l-3.6,2.6l-2.5,1l-4.2,2.1l-2.9,2.9l0.1,3.5l3,3.1l1.1,4.6l-1.2,5.1l-3.1,2.6l-3,3.4l-1.6,3.4l0.5,2.7l3.4,1.1h3.4
		l4.6,1.1c0,0,2.7,1,3.1,1.5s1.9,2.4,1.9,2.4l-1.4,2l-1.6,0.9l-0.2,4.3l-1,7.2l-1.3,1.2v5.1v2.5v4.9l-1.4,3.7l-1.7,5.4l-3.5,3.9
		l-4,3.9l-1.2,2l-2.6,0.6l-5.1,1.7l-1.7,3.5l-6.4,2l-4.7,1.1h-1.5l-2.7,2.7v3.5l1.1,2.6l4.7,3.6l3.6,4.9l1.1,5.2l-4.7,6.4l-3.2,4.3
		l-5.7,4.7l-5.9,5l-2.7,2.2l-3.4,3.6l-6.2,3.7l-4.7,2.9l-10.2,4.4l1.4,4.2l2.2,5.1l3.6,9.6l2.5,2.7l5,1.7l6.4,2.2l6.9,0.6h5.8
		l2.1-0.7l10.7,11.6l8.4-3l3.6,1.4l-0.1,7l1,4.1l3.1,5.4l4.7,3.1l4.2,0.6l4.7-1l4.5-0.9h2.5l4.7-0.1l4.7-3.6l2.6-2l1.4-3l6.6-4.5
		l7.4-0.7l6.2-2.6l1.9-1.2l5.6,1.9l5.5,0.1l5.7-0.6l2.2-1.9l4.7,1l4.2,1.5l3.6,1.2h5.2l5.6-2.5l5.5-9.2l2.5-4.1l-3.4-21.9l-3.6-1.4
		l-2.9-8.2l0.6-5l2.4-1.7l4.7-0.2l8.2-4.5l2.7-5.6l3-6.2l18.6-14.1l10.7-4.9L533,521l16.6-13.1l17.7,2.4l9.5,7.2l2,2.7l4.5,1.6
		l5.9,1.7l17.8-1.7l-2.6,6.5l4.6,3.4l10.6-2.4l2.2,7.6l13.7-4.4l3,4.1l4.6,5.7l2.5,6.5l5,1.4l32.5-14.1v5.7l18.7,17.3l17.3-0.4
		l0.9,4.6l-1.4,6.1l5.6-2l3.2,1.6l-1.1,7.5l-2.7,3l-0.4,12.2l6.6,1.5l-4.2,19.6l1,20.2l0.4,18.1l1.4,0.6l-2.9,5.1l3.4,5.2l12.3,9.2
		l-7.1,4l-11.8,9.7l4.7,23.3l5.5,1.5l-3.9,5.1l3.4,10.6l4.9-2.1l4.3-0.1l2.1,2.2l2.5-1.6l4.7,1.6l12.3-3.1l8.2-9.3v-4.1l5.1-8.2
		l10.8-6.9l6.7,5.7l26.7,8.2l1.4,17.6h5.5l1.2-4.9l11.5-1.6l3-4l3.1,2.6l4.7,9l3.4,4.7l17.2-6.6l7-1.6l6.2,0.2l2.4,0.6l5.1,3.4
		l9.3,1.2l18.9-9.6l15,12.5l2.1,1l2.6-4.9l2.5-13.2l46.6,9.3l36,13.7l34.6-30.8l-44.1-19.8l-24.4-15.1l-2.9-9.5l8.8-4.7l9.8-2.6
		l8.5-11.8l-18.8-14l-10.2-3.2l-1.6-6.4l-4.6,0.4l-6.4,3.7l-17.8-0.2l-5.4-4l-3.1,0.2l-3.4,1.9l-0.7,3.5l-4.2,3.2l-21.7,1.4
		l-14.7-0.1l-4.6,3.4l-2,5.7l1.2,4.9l-4.5,10.8l-2.4,1.1l-3.2-0.4l-2.7,5.2l-4,0.1l-8.4-3.6l5.2-10l22.9-28.9l12.3-14.8L963,593
		l3.4,3.9l0.6,7.9l6.7,4.3l6.6-0.1l7.5-6l10.2-2.9l0.7-2.7l-0.2-3.6c0,0-2.5-1.4-2.6-1c-0.1,0.4-4,0.6-4,0.6l-3.7-0.2l-2.1-4.1
		l-7.5-3.4l-9.2,0.2l-3.7-1.7l-69.2-158.9l-4-4.7l-4.7-3.5l-60.7-58.8l-13.3-16.4l-27.9-32.1l-12.8-4.1l-14.6-1.7l-9.6,1l-8.1,2.4
		l-14,4.9l-11.5,6.6l-13.6,10.8l-9.2,7.4l-4.3,2.7l-8.4,2.9l-17.2,4.2l-13.4-5.1l-9-9.3l-3.9-14l-10.2-22.2l-4.2-4.7l-2.7-2.2
		l-3.6-3.1l-6.5-1.9h-5.2l-9.2,4.2l-11.2,13.7l-10.1,8.8l-8.8,6.9l-20.7-3l-30-8.5l-4.5,0.2l-6.9,2l-8.6,5.1l-6.4,7.1l-3.2,7.6v11.3
		l5.9,10.1l7.4,13.1c0,0,3.5,10.1-1.2,15.2s-15,10.7-15,10.7l-9.1,4.7l-5.1-0.9l-3.6-0.6l-2.9-6.2l-1.6-15.1l-4.1-12.1l-6.2-9.5
		L445.1,346z"/>
	
		<path style="fill:#0053A5;fill-opacity:6.000000e-002;stroke:#005CB1;stroke-width:0.5;stroke-linecap:round;stroke-linejoin:round;stroke-miterlimit:10;" d="
		M445.1,344.7l-7.5-5.5l-5.9-2.5l-7.5,0.3l-7.1,3.2l-6.8,2.2l-5.9,0.2l-7.1-1.5l-6.1-2l-6.1-0.5H380v2.5l2.2,3.5l2.7,1.2l1.2,2.5
		l-0.5,4l2.5,3.5l3.7,1.7h1.7l2.7,3.5l5.6,6.1l4,4l7,1l3.1,1l4.5,2.5l3.6,3.7l2.7,4l1,5.2l1,4l3.6,5.1l1.7,5.7l0.6,4.9l0.1,2.4l-2,1
		h-4.5l-4.7-1.9h-3.9l-5,0.4l-5.1,0.7l-2.6,2.4l-1,3l0.9,3.4l6.1,2.6l5.5,3l2.5,1.7l-0.2,3.1l-1.7,2c0,0-0.1,2.6-0.1,3
		c0,0.4,0.1,2.5,0.1,2.5l-3.6,2.6l-2.5,1l-4.2,2.1l-2.9,2.9l0.1,3.5l3,3.1l0.6,3.8l-1.2,5.1l-3.1,2.6l-3,3.4l-1.6,3.4l0.5,2.7
		l3.4,1.1h3.4l4.6,1.1c0,0,2.7,1,3.1,1.5s1.9,2.4,1.9,2.4l-1.4,2l-1.6,0.9l-0.2,4.3l-1,7.2l-0.7,2.2v5.1v2.5v4.9l-1.4,3.7l-1.7,5.4
		l-3.5,3.9l-4,3.9l-1.2,2l-2.6,0.6l-5.1,1.7l-1.7,3.5l-6.4,2l-4.7,1.1h-1.5l-2.7,2.7v3.5l1.1,2.6l4.7,3.6l3.6,4.9l1.1,5.2l-4.7,6.4
		l-3.2,4.3l-5.7,4.7l-5.9,5l-2.7,2.2l-3.4,3.6l-6.2,3.7l-4.7,2.9l-10.3,4.7l1.4,4.2l2.2,5.1l3.6,9.6l2.5,2.7l5,1.7l6.4,2.2l6.9,0.6
		h5.8l2.1-0.7l10.7,11.7l8.4-3l3.6,1.4l-0.1,7l1,4.1l3.1,5.4l4.7,3.1l4.2,0.6l4.7-1l4.5-0.9h2.5l4.7-0.1l4.7-3.6l2.6-2l1.4-3
		l6.6-4.5l7.4-0.7l6.2-2.6l1.9-1.2l5.6,1.9l5.5,0.1l5.7-0.6l2.2-1.9l4.7,1l4.2,1.5l3.6,1.2h5.2l5.6-2.5l5.5-9.2l2.5-4.1l-3.4-21.9
		l-3.6-1.4l-2.9-8.2l0.6-5l2.4-1.7l4.7-0.2l8.2-4.5l2.7-5.6l3-6.2l18.6-14.1l10.7-4.9L533,520.2l16.6-13.1l17.7,2.4l9.5,7.2l2,2.7
		l4.5,1.6l5.9,1.7L607,521l-2.6,6.5l4.6,3.4l10.6-2.4l2.2,7.6l13.9-4.5l3,4.1l4.6,5.7l2.5,6.5l5,1.4l32.5-14.1v5.7l18.7,17.3
		l17.3-0.4l0.9,4.6l-1.4,6.1l5.6-2l3.2,1.6l-1.1,7.5l-2.7,3l-0.4,12.2l6.6,1.5l-4.2,19.6l1,20.2l0.4,18.1l1.4,0.6l-2.9,5.1l3.4,5.2
		l12.3,9.2l-7.1,4l-11.8,9.7l4.7,23.3l5.5,1.5l-3.9,5.1l3.4,10.6l4.9-2.1l4.3-0.1l2.1,2.2l2.5-1.6l4.7,1.6l12.3-3.1l8.2-9.3V708
		l5.1-8.2l10.8-6.9l6.7,5.7l26.7,8.2l1.4,17.6h5.5l1.2-4.9l11.5-1.6l3-4l3.1,2.6l4.7,9l3.4,4.7l17.2-6.6l7-1.6l6.2,0.2l2.4,0.6
		l5.1,3.4l9.3,1.2l18.9-9.6l15,12.5l2.1,1l2.6-4.9l2.5-13.2l46.6,9.3l36,13.7l34.6-30.8l-44-19.7l-24.4-15.1l-2.9-9.5l8.8-4.7
		l9.8-2.6l8.5-11.8l-18.8-14l-10.2-3.2l-1.6-6.4l-4.6,0.4l-6.4,3.7l-17.8-0.2l-5.4-4l-3.1,0.2l-3.4,1.9l-0.7,3.5l-4.2,3.2l-21.7,1.4
		l-14.7-0.1l-4.6,3.4l-2,5.7l1.2,4.9l-4.5,10.8l-2.4,1.1l-3.2-0.4l-2.7,5.2l-4,0.1l-8.4-3.6l5.2-10l22.9-28.9l12.3-14.8l50.5-9.7
		l3.4,3.9l0.6,7.9l6.7,4.3l6.6-0.1l7.5-6l10.2-2.9l0.7-2.7l-0.2-3.6c0,0-2.5-1.4-2.6-1c-0.1,0.4-4,0.6-4,0.6l-3.7-0.2l-2.1-4.1
		l-7.5-3.4l-9.2,0.2l-3.7-1.7L896.5,424l-4-4.7l-4.7-3.5L827.1,357l-13.3-16.3l-27.9-32.1l-12.8-4.1l-14.6-1.8l-9.6,1l-8.1,2.4
		l-14,4.9l-11.5,6.6l-13.5,10.9l-9.2,7.4l-4.3,2.7l-8.4,2.9l-17.2,4.2l-13.3-5.2l-9-9.3l-3.9-14L626.3,295l-4.2-4.7l-2.7-2.2
		l-3.6-3.1l-6.5-1.9h-5.2l-9.2,4.2L583.7,301l-10.1,8.8l-8.8,6.9l-20.7-3l-30.3-8.6l-4.5,0.2l-6.9,2l-8.6,5.1l-6.4,7.1l-3.2,7.6
		v11.4l5.9,10.1l7.4,13.1c0,0,3.5,10.1-1.2,15.2s-15,10.7-15,10.7l-9.1,4.7l-5.1-0.9l-3.6-0.6l-2.9-6.2l-1.6-15.1l-4.1-12.1
		l-6.2-9.5L445.1,344.7z"/>
	
		<path style="fill:#0053A5;fill-opacity:6.000000e-002;stroke:#0059AD;stroke-width:0.5;stroke-linecap:round;stroke-linejoin:round;stroke-miterlimit:10;" d="
		M445.1,343.6l-7.5-5.5l-6-2.6l-7.5,0.2l-7.1,3.2l-6.8,2.3l-5.9,0.2l-7.1-1.5l-6.1-2l-6.1-0.5h-5.1v2.5l2.2,3.5l2.4,1.1l1.2,2.5
		l-0.5,4l2.5,3.5l3.7,1.7h1.7l2.7,3.5l5.6,6.1l4,4l7,1l3.1,1l4.5,2.5l3.6,3.7l2.7,4l1,5.2l1,4l3.6,5.1l1.7,5.7l0.6,4.9l0.1,2.4l-2,1
		h-4.5l-4.7-1.9h-3.9l-4.7,0.4l-5.1,0.7l-2.6,2.4l-1,3l0.9,3.4l6.1,2.6l5.5,3l2.5,1.7l-0.2,3.1l-1.7,2c0,0-0.1,2.6-0.1,3
		c0,0.4,0.1,2.5,0.1,2.5l-3.6,2.6l-2.5,1l-4.4,2l-2.9,2.9l0.1,3.5l3,3.1l1.1,4.6l-1.2,5.1l-3.1,2.6l-3,3.4l-1.6,3.4l0.5,2.7l3.4,1.1
		h3.4l4.6,1.1c0,0,2.7,1,3.1,1.5c0.4,0.5,1.9,2.4,1.9,2.4l-1.4,2l-1.6,0.9l-0.2,4.3l-1,7.2l-0.7,2.2v5.1v2.5v4.9l-1.4,3.7l-1.7,5.4
		l-3.5,3.9l-4,3.9l-1.2,2l-2.6,0.6l-5.1,1.7l-1.7,3.5l-6.4,2l-4.7,1.1H379l-2.7,2.7v3.5l1.1,2.6l4.7,3.6l3.6,4.9l1.1,5.2l-4.7,6.4
		l-3.2,4.3l-5.7,4.7l-5.9,5l-2.7,2.2l-3.4,3.6l-6.2,3.7l-4.7,2.9l-10.3,4.7l1.4,4.2l2.2,5.1l3.6,9.6l2.3,1.5l5,1.7l6.4,2.2l6.9,0.6
		h5.7l2.1-0.7l10.7,11.6l8.4-3l3.6,1.4l-0.1,7l1,4.1l3.1,5.4l4.7,3.1l4.2,0.6l4.7-1l4.5-0.9h2.5l4.7-0.1l4.7-3.6l2.6-2l1.4-3
		l6.6-4.5l7.4-0.7l6.2-2.6l1.9-1.2l5.6,1.9l5.5,0.1l5.7-0.6l2.2-1.9l4.7,1l4.2,1.5l3.6,1.2h5.2l5.6-2.5l5.5-9.2l2.5-4.1l-3.4-21.9
		l-3.6-1.4l-2.9-8.2l0.6-5l2.4-1.7l4.7-0.2l8.2-4.5l2.7-5.6l3-6.2l18.6-14.1l10.7-4.9l-16.8-26.1l16.6-13.1l17.7,2.4l9.5,7.2l2,2.7
		l4.5,1.6l5.9,1.7l17.8-1.7l-2.6,6.5l4.6,3.4l10.6-2.4l2.2,7.6l13.9-4.5l3,4.1l4.6,5.7l2.5,6.5l5,1.4l32.5-14.1v5.7l18.7,17.3
		l17.3-0.4l0.9,4.6l-1.4,6.1l5.6-2l3.2,1.6l-1.1,7.5l-2.7,3l-0.4,12.2l6.6,1.5l-4.2,19.6l1,20.2l0.4,18.1l1.4,0.6l-2.9,5.1l3.4,5.2
		l12.3,9.2l-7.1,4l-11.8,9.7l4.7,23.3l5.5,1.5l-3.9,5.1l3.4,10.6l4.9-2.1l4.3-0.1l2.1,2.2l2.5-1.6l4.7,1.6l12.3-3.1l8.2-9.3v-3.9
		l5.1-8.2l10.8-6.9l6.7,5.7l26.7,8.2l1.4,17.6h5.5l1.2-4.9l11.5-1.6l3-4l3.1,2.6l4.7,9l3.4,4.7l17.2-6.6l7-1.6l6.2,0.2l2.4,0.6
		l5.1,3.4l9.3,1.2l18.9-9.6l15,12.5l2.1,1l2.6-4.9l2.5-13.2l46.6,9.3l36,13.7l34.6-30.8l-44-19.7l-24.4-15.1l-2.9-9.5l8.8-4.7
		l9.8-2.6l8.5-11.8l-18.8-14l-10.2-3.2l-1.6-6.4l-4.6,0.4l-6.4,3.7l-17.8-0.2l-5.4-4l-3.1,0.2l-3.4,1.9l-0.5,3.8l-4.2,3.2l-21.7,1.4
		l-14.7-0.1l-4.6,3.4l-2,5.7l1.2,4.9l-4.5,10.8l-2.4,1.1l-3.2-0.4l-2.7,5.2l-4,0.1l-8.4-3.6l5.2-10l22.9-28.9l12.3-14.8l50.5-9.7
		l3.4,3.9l0.6,7.9l6.7,4.3l6.6-0.1l7.5-6l10.2-2.9l0.7-2.7l-0.2-3.6c0,0-2.5-1.4-2.6-1s-4,0.6-4,0.6l-3.7-0.2l-2.1-4.1l-7.5-3.4
		l-9.2,0.2l-3.7-1.7l-69.6-158.9l-4-4.7l-4.7-3.5l-60.7-58.8l-13.5-16.7l-27.9-32.1l-12.8-4.1l-14.6-1.7l-9.6,1l-8.1,2.4l-14,4.9
		l-11.2,6.5l-13.6,10.8l-9.2,7.4l-4.3,2.7l-8.4,2.9l-17.2,4.2l-13.4-5.1l-9-9.3l-3.9-14l-10.2-22.2l-4.2-4.7l-2.7-2.2l-3.6-3.1
		l-6.5-1.9H604l-9.2,4.2l-11.2,13.7l-10.1,8.9l-8.8,6.9l-20.7-3l-30.3-8.6l-4.5,0.2l-6.9,2l-8.6,5.1l-6.2,7.1l-3.2,7.6v11.3
		l5.9,10.1l7.4,13.1c0,0,3.5,10.1-1.2,15.2c-4.7,5.1-15,10.6-15,10.6l-9.1,4.7l-5.1-0.9l-3.6-0.6l-2.9-6.2l-1.6-15.1l-4.1-12.1
		l-6.2-9.5L445.1,343.6z"/>
	
		<path style="fill:#0053A5;fill-opacity:6.000000e-002;stroke:#0056A9;stroke-width:0.5;stroke-linecap:round;stroke-linejoin:round;stroke-miterlimit:10;" d="
		M445.1,342.3l-7.5-5.5l-5.9-2.5l-7.5,0.3l-7.1,3.2l-6.8,2.3l-5.9,0.2l-7.1-1.5l-6.1-2l-6.1-0.5H380v2.5l2.2,3.5l2.7,1.2l1.2,2.5
		l-0.5,4l2.5,3.5l3.7,1.7h1.7l2.7,3.5l5.6,6.1l4,4l7,1l3.1,1l4.5,2.5l3.6,3.7l2.7,4l1,5.2l1,4l3.6,5.1l1.7,5.7l0.6,4.9l0.1,2.4l-2,1
		h-4.5l-4.7-1.9h-3.9l-5,0.4l-5.1,0.7l-2.6,2.4l-1,3l0.9,3.4l6.1,2.6l5.5,3l2.5,1.7l-0.2,3.1l-1.7,2c0,0-0.1,2.6-0.1,3
		c0,0.4,0.1,2.5,0.1,2.5l-3.6,2.6l-2.5,1l-4.2,2.1l-2.9,2.9l0.1,3.5l3,3.1l1.1,4.6l-1.2,5.1l-3.1,2.6l-3,3.4l-1.6,3.4l0.5,2.7
		l3.4,1.1h3.4l4.6,1.1c0,0,2.7,1,3.1,1.5s1.9,2.4,1.9,2.4l-1.4,2l-1.6,0.9l-0.2,4.3l-1,7.2l-0.7,2.2v5.1v2.5v4.9l-1.4,3.7l-2.2,4.4
		l-3.5,3.9l-4,3.9l-1.2,2l-2.6,0.6l-5.1,1.7l-1.7,3.5l-6.4,2l-4.7,1.1h-1.5l-2.7,2.7v3.5l1.1,2.6l4.7,3.6l3.6,4.9l1.1,5.2l-4.7,6.4
		l-3.2,4.3l-5.7,4.7l-5.9,5l-2.7,2.2l-3.4,3.6l-6.2,3.7l-4.7,2.9l-10.3,4.7l1.4,4.2l2.2,5.1l3.6,9.6l2.5,2.7l5,1.7l6.4,2.2l6.9,0.6
		h5.8l2.1-0.7l10.7,11.6l8.4-3l3.6,1.4l-0.1,7l1,4.1l3.1,5.4l4.7,3.1l4.2,0.6l4.7-1l4.5-0.9h2.5l4.7-0.1l4.7-3.6l2.6-2l1.4-3
		l6.6-4.5l7.4-0.7l6.2-2.6l1.9-1.2l5.6,1.9l5.5,0.1l5.7-0.6l2.2-1.9l4.7,1l4.2,1.5l3.6,1.2h5.2l5.6-2.5l5.5-9.2l2.5-4.1l-3.4-21.9
		l-3.6-1.4l-2.9-8.2l0.6-5l2.4-1.7l4.7-0.2l8.2-4.5l2.7-5.6l3-6.2l18.6-14.1l10.7-4.9L533,517.6l16.6-13.1l17.7,2.4l9.5,7.2l2,2.7
		l4.5,1.6l5.9,1.7l17.8-1.7l-2.6,6.5l4.6,3.4l10.6-2.4l2.2,7.6l13.9-4.5l3,4.1l4.6,5.7l2.5,6.5l5,1.4l32.5-14.1v5.7l18.7,17.3
		l17.3-0.4l0.9,4.6l-1.4,6.1l5.6-2l3.2,1.6l-1.1,7.5l-2.7,3l-0.4,12.2l6.6,1.5l-4.2,19.6l1,20.2l0.4,18.1l1.4,0.6l-2.9,5.1l3.4,5.2
		l12.3,9.2l-7.1,4l-11.8,9.7l4.7,23.3l5.5,1.5l-3.9,5.1l3.4,10.6l4.9-2.1l4.3-0.1l2.1,2.2l2.5-1.6l4.7,1.6l12.3-3.1l8.2-9.3v-4.1
		l5.1-8.2l10.8-6.9l6.7,5.7l26.7,8.2l1.4,17.6h5.5l1.2-4.9l11.5-1.6l3-4l3.1,2.6l4.7,9l3.4,4.7l17.2-6.6l7-1.6l6.2,0.2l2.4,0.6
		l5.1,3.4l9.3,1.2l18.9-9.6l15,12.5l2.1,1l2.6-4.9l2.5-13.2l46.6,9.3l36,13.7l34.6-30.8l-44-19.7L991.4,668l-2.9-9.5l8.8-4.7
		l9.8-2.6l8.5-11.8l-18.8-14l-10.2-3.2l-1.6-6.4l-4.6,0.4l-6.4,3.7l-17.8-0.2l-5.4-4l-3.1,0.2l-3.4,1.9l-0.7,3.5l-4.2,3.2l-21.7,1.4
		l-14.7-0.1l-4.6,3.4l-2,5.7l1.2,4.9l-4.5,10.8l-2.4,1.1l-3.2-0.4l-2.7,5.2l-4,0.1l-8.4-3.6l5.2-10l22.9-28.9l12.3-14.8l50.5-9.7
		l3.4,3.9l0.6,7.9l6.7,4.3l6.6-0.1l7.5-6l10.2-2.9l0.7-2.7l-0.2-3.6c0,0-2.5-1.4-2.6-1c-0.1,0.4-4,0.6-4,0.6l-3.7-0.2l-2.1-4.1
		l-7.5-3.4l-9.2,0.2l-3.7-1.7l-69.5-159.3l-4-4.7l-4.7-3.5l-60.6-58.8l-13.3-16.3L786,306.1l-12.8-4.1l-14.6-1.7l-9.6,1l-8.1,2.4
		l-14,4.9l-11.5,6.6L701.8,326l-9.2,7.4l-4.3,2.7l-8.4,2.9l-17.2,4.2l-13.4-5.1l-9-9.3l-3.8-14.1l-10.1-22.2l-4.2-4.6l-2.7-2.2
		l-3.6-3.1l-6.4-1.8h-5.3L595,285l-11.2,13.7l-10.1,8.8l-8.8,6.9l-20.7-3l-30.3-8.6l-4.5,0.2l-6.9,2l-8.6,5.1l-6.4,7.1l-3.2,7.6
		v11.3l5.9,10.1l7.4,13.1c0,0,3.5,10.1-1.2,15.2c-4.7,5.1-15,10.7-15,10.7l-9.1,4.7l-5.1-0.9l-3.6-0.6l-2.9-6.2l-1.6-15.1L455,355
		l-6.2-9.5L445.1,342.3z"/>
	
		<path style="fill:#0053A5;fill-opacity:6.000000e-002;stroke:#0053A5;stroke-width:0.5;stroke-linecap:round;stroke-linejoin:round;stroke-miterlimit:10;" d="
		M445.1,341.1l-7.5-5.5l-5.9-2.5l-7.5,0.2l-7.1,3.2l-6.8,2.3l-5.9,0.2l-7.1-1.5l-6.1-2l-6.1-0.5H380v2.5l2.2,3.5l2.7,1.2l1.2,2.5
		l-0.5,4l2.5,3.5l3.7,1.7h1.7l2.7,3.5l5.6,6.1l4,4l7,1l3.1,1l4.5,2.5l3.6,3.7l2.7,4l1,5.2l1,4l3.6,5.1l1.7,5.7l0.6,4.9l0.1,2.4l-2,1
		h-4.5l-4.7-1.9h-3.9l-5,0.4l-5.1,0.7l-2.6,2.4l-1,3l0.9,3.4l6.1,2.6l5.5,3l2.5,1.7l-0.2,3.1l-1.7,2c0,0-0.1,2.6-0.1,3
		s0.1,2.5,0.1,2.5l-3.6,2.6l-2.5,1l-4.2,2.1l-2.9,2.9l0.1,3.5l3,3.1l1.1,4.6l-1.2,5.1l-3.1,2.6l-3,3.4l-1.6,3.4l0.5,2.7l3.4,1.1h3.4
		l4.6,1.1c0,0,2.7,1,3.1,1.5s1.9,2.4,1.9,2.4l-1.4,2l-1.6,0.9l-0.2,4.3l-1,7.2l-0.7,2.2v5.1v2.5v4.9l-1.4,3.7l-1.7,5.4l-3.5,3.9
		l-4,3.9l-1.2,2l-2.6,0.6l-5.1,1.7l-1.7,3.5l-6.4,2l-4.7,1.1h-1.5l-2.7,2.7v3.5l1.1,2.6l4.7,3.6l3.6,4.9l1.1,5.2l-4.7,6.4l-3.2,4.3
		l-5.7,4.7l-5.9,5l-2.7,2.2l-3.4,3.6l-6.2,3.7l-4.7,2.9l-10.3,4.7l1.4,4.2l2.2,5.1l3.6,9.6l2.5,2.7l5,1.7l6.4,2.2l6.9,0.6h5.8
		l2.1-0.7l10.2,10.2l8.4-3l3.6,1.4l-0.1,7l1,4.1l3.1,5.4l4.7,3.1l4.2,0.6l4.7-1l4.5-0.9h2.5l4.7-0.1l4.7-3.6l2.6-2l1.4-3l6.6-4.5
		l7.4-0.7l6.2-2.6l1.9-1.2l5.6,1.9l5.5,0.1l5.7-0.6l2.2-1.9l4.7,1l4.2,1.5l3.6,1.2h5.2l5.6-2.5l5.5-9.2l2.5-4.1l-3.4-21.9l-3.6-1.4
		l-2.9-8.2l0.6-5l2.4-1.7l4.7-0.2l8.2-4.5l2.7-5.6l3-6.2l18.6-14.1l10.7-4.9L533,516l16.6-13.1l17.7,2.4l9.5,7.2l2,2.7l4.5,1.6
		l5.9,1.7l17.8-1.7l-2.6,6.5l4.6,3.4l10.6-2.4l2.2,7.6l13.9-4.5l3,4.1l4.6,5.7l2.5,6.5l5,1.4l32.5-14.1v5.7L702,554l17.3-0.4
		l0.9,4.6l-1.7,6.3l5.6-2l3.2,1.6l-1.1,7.5l-2.7,3l-0.4,12.2l6.6,1.5l-4.2,19.6l1,20.2l0.4,18.1l1.4,0.6l-2.9,5.1l3.4,5.2l12.3,9.2
		l-7.1,4l-11.8,9.7l4.7,23.3l5.5,1.5l-3.9,5.1l3.4,10.6l4.9-2.1l4.3-0.1l2.1,2.2l2.5-1.6l4.7,1.6l12.3-3.1l8.2-9.3V704l5.1-8.2
		l10.8-6.9l6.7,5.7l26.7,8.2l1.4,17.6h5.5l1.2-4.9l11.5-1.6l3-4l3.1,2.6l4.7,9l3.4,4.7l17.2-6.6l7-1.6l6.2,0.2l2.4,0.6l5.1,3.4
		l9.3,1.2l18.9-9.6l15,12.5l2.1,1l2.6-4.9l2.5-13.2l46.6,9.3l36,13.7l34.6-30.8l-44-19.9l-24.4-15.1l-2.9-9.5l8.8-4.7l9.8-2.6
		l8.5-11.8l-18.8-14l-10.2-3.2l-1.6-6.4l-4.6,0.4l-6.4,3.7l-17.8-0.2l-5.4-4l-3.1,0.2l-3.4,1.9l-0.7,3.5l-4.2,3.2l-21.7,1.4
		l-14.5,0.2l-4.6,3.4l-2,5.7l1.2,4.9l-4.5,10.8l-2.4,1.1l-3.2-0.4l-2.7,5.2l-4,0.1l-8.4-3.6l5.2-10l22.9-28.9l12.3-14.8l50.5-9.7
		l3.4,3.9l0.6,7.9l6.7,4.3l6.6-0.1l7.5-6l10.2-2.9l0.7-2.7l-0.2-3.6c0,0-2.5-1.4-2.6-1s-4,0.6-4,0.6l-3.7-0.2l-2.1-4.1l-7.5-3.4
		l-9.2,0.2l-3.7-1.7l-69.6-158.9l-4-4.7l-4.7-3.5l-60.7-58.8l-13.5-16.7l-27.9-32.1l-12.8-4.1l-14.6-1.7l-9.6,1l-8.1,2.4l-14,4.9
		l-11.5,6.6l-13.6,10.8l-9.2,7.4l-4.3,2.7l-8.4,2.9l-17.2,4.2l-13.4-5.1l-9-9.3l-3.3-14l-10.2-22.2l-4.2-4.7l-2.6-2.1l-3.6-3.1
		l-6.5-1.9h-5.2l-9.2,4.2l-11.2,13.7l-10.1,8.8l-8.8,6.9l-20.7-3l-30.3-8.6l-4.5,0.2l-6.9,2l-8.6,5.1l-6.4,7.1l-3.2,7.6v11.3
		l5.9,10.1l7.4,13.1c0,0,3.5,10.1-1.2,15.2s-15,10.7-15,10.7l-9.1,4.7l-5.1-0.9l-3.6-0.6l-2.9-6.2l-1.6-15.1l-4.1-12.1l-6.2-9.5
		L445.1,341.1z"/>
</g>
</svg>
