<?xml version="1.0" encoding="utf-8"?>
<!-- Generator: Adobe Illustrator 17.0.0, SVG Export Plug-In . SVG Version: 6.00 Build 0)  -->
<!DOCTYPE svg PUBLIC "-//W3C//DTD SVG 1.1//EN" "http://www.w3.org/Graphics/SVG/1.1/DTD/svg11.dtd">
<svg version="1.1" id="图层_1" xmlns="http://www.w3.org/2000/svg" xmlns:xlink="http://www.w3.org/1999/xlink" x="0px" y="0px"
	 width="20px" height="20px" viewBox="0 0 20 20" style="enable-background:new 0 0 20 20;" xml:space="preserve">
<linearGradient id="SVGID_1_" gradientUnits="userSpaceOnUse" x1="10" y1="1.4014" x2="10" y2="18.5986">
	<stop  offset="0" style="stop-color:#03E0C7"/>
	<stop  offset="0.2432" style="stop-color:#03E0C7"/>
	<stop  offset="1" style="stop-color:#0084AA"/>
</linearGradient>
<path style="fill:url(#SVGID_1_);" d="M18.4,18.6c-0.5,0-0.9-0.4-0.9-0.9V8.6c0-0.5,0.4-0.9,0.9-0.9s0.9,0.4,0.9,0.9v9.1
	C19.3,18.2,18.9,18.6,18.4,18.6z M12.8,18.6c-0.5,0-0.9-0.4-0.9-0.9v-4.2c0-0.5,0.4-0.9,0.9-0.9s0.9,0.4,0.9,0.9v4.2
	C13.7,18.2,13.3,18.6,12.8,18.6z M7.2,18.6c-0.5,0-0.9-0.4-0.9-0.9V8.6c0-0.5,0.4-0.9,0.9-0.9s0.9,0.4,0.9,0.9v9.1
	C8.1,18.2,7.7,18.6,7.2,18.6z M1.6,18.6c-0.5,0-0.9-0.4-0.9-0.9v-4.2c0-0.5,0.4-0.9,0.9-0.9s0.9,0.4,0.9,0.9v4.2
	C2.5,18.2,2.1,18.6,1.6,18.6z M12.8,10.2c-0.9,0-1.6-0.7-1.6-1.6c0-0.1,0-0.2,0-0.3L7.5,4.6c-0.1,0-0.2,0-0.3,0c-0.1,0-0.2,0-0.3,0
	L3.2,8.3c0,0.1,0,0.2,0,0.3c0,0.9-0.7,1.6-1.6,1.6S0,9.5,0,8.6S0.7,7,1.6,7c0.1,0,0.2,0,0.3,0l3.7-3.7c0-0.1,0-0.2,0-0.3
	c0-0.9,0.7-1.6,1.6-1.6S8.8,2.1,8.8,3c0,0.1,0,0.2,0,0.2L12.6,7c0.1,0,0.1,0,0.2,0c0.1,0,0.2,0,0.3,0l3.7-3.7c0-0.1,0-0.2,0-0.3
	c0-0.9,0.7-1.6,1.6-1.6S20,2.1,20,3s-0.7,1.6-1.6,1.6c-0.1,0-0.2,0-0.3,0l-3.7,3.7c0,0.1,0,0.2,0,0.3C14.4,9.5,13.7,10.2,12.8,10.2z
	"/>
</svg>
