<?xml version="1.0" encoding="utf-8"?>
<!-- Generator: Adobe Illustrator 17.0.0, SVG Export Plug-In . SVG Version: 6.00 Build 0)  -->
<!DOCTYPE svg PUBLIC "-//W3C//DTD SVG 1.1//EN" "http://www.w3.org/Graphics/SVG/1.1/DTD/svg11.dtd">
<svg version="1.1" id="图层_1" xmlns="http://www.w3.org/2000/svg" xmlns:xlink="http://www.w3.org/1999/xlink" x="0px" y="0px"
	 preserveAspectRatio="none" viewBox="0 0 1150 276.2" style="enable-background:new 0 0 1150 276.2;" xml:space="preserve">
<g>
	<path style="opacity:0.5;fill-rule:evenodd;clip-rule:evenodd;fill:none;stroke:#74C8DF;stroke-width:6;stroke-miterlimit:10;" d="
		M1020,10.4c69.7,0,126.2,56.5,126.2,126.2s-56.5,126.2-126.2,126.2h-18.1 M226.8,10.4h696.5 M144.9,262.7H130
		c-69.7,0-126.2-56.5-126.2-126.2S60.3,10.4,130,10.4"/>
	<linearGradient id="SVGID_1_" gradientUnits="userSpaceOnUse" x1="249.3959" y1="223.987" x2="909.4987" y2="223.987">
		<stop  offset="0" style="stop-color:#64A0D6;stop-opacity:0"/>
		<stop  offset="0.5" style="stop-color:#2663AE"/>
		<stop  offset="1" style="stop-color:#64A0D6;stop-opacity:0"/>
	</linearGradient>
	
		<line style="fill-rule:evenodd;clip-rule:evenodd;fill:none;stroke:url(#SVGID_1_);stroke-width:6;stroke-linecap:round;stroke-miterlimit:10;" x1="906.5" y1="224" x2="252.4" y2="224"/>
	<radialGradient id="SVGID_2_" cx="575" cy="136.5403" r="384.8568" gradientUnits="userSpaceOnUse">
		<stop  offset="0" style="stop-color:#2663AE"/>
		<stop  offset="1" style="stop-color:#74C8DF"/>
	</radialGradient>
	<path style="fill-rule:evenodd;clip-rule:evenodd;fill:none;stroke:url(#SVGID_2_);stroke-width:6;stroke-miterlimit:10;" d="
		M182,224h-53.2c-48.3,0-87.4-39.2-87.4-87.4c0-48.3,39.2-87.4,87.4-87.4h892.5c48.3,0,87.4,39.2,87.4,87.4
		c0,48.3-39.2,87.4-87.4,87.4h-44.3"/>
	<g>
		<g>
			<path style="fill:#74C8DF;" d="M38.1,194.6l4.6,7.3l7.5-4.8l-4.6-7.3L38.1,194.6z M36.3,170l-8.3,3.3l3.2,8l8.3-3.3L36.3,170z
				 M30.8,148.8l-8.7,1.8l1.7,8.4l8.7-1.8L30.8,148.8z M29.2,127l-8.9,0.2l0.1,8.6l8.9-0.2L29.2,127z M31.6,105.2l-8.8-1.4l-1.4,8.5
				l8.8,1.4L31.6,105.2z M37.8,84.3l-8.4-3l-2.9,8.1l8.4,3L37.8,84.3z M47.8,64.8l-7.7-4.5l-4.3,7.4l7.7,4.5L47.8,64.8z
				 M1106.9,71.6l-4.6-7.2l-7.5,4.8l4.6,7.2L1106.9,71.6z M1108.7,96.1l8.3-3.3l-3.2-7.9l-8.3,3.3L1108.7,96.1z M1114.2,117.2
				l8.8-1.8l-1.7-8.4l-8.8,1.8L1114.2,117.2z M1115.8,139l8.9-0.2l-0.1-8.6l-8.9,0.2L1115.8,139z M1113.4,160.7l8.8,1.4l1.4-8.5
				l-8.8-1.4L1113.4,160.7z M1107.2,181.6l8.4,3l2.9-8.1l-8.4-3L1107.2,181.6z M1097.2,201l7.7,4.5l4.3-7.4l-7.7-4.5L1097.2,201z
				 M148.8,22.7h5.4V1.5h-5.4V22.7z M163.3,22.7h5.4V1.5h-5.4V22.7z M177.8,22.7h5.4V1.5h-5.4V22.7z M961.4,22.7h5.4V1.5h-5.4V22.7z
				 M975.9,22.7h5.4V1.5h-5.4V22.7z M990.4,22.7h5.4V1.5h-5.4V22.7z"/>
		</g>
	</g>
	<g style="opacity:0.5;">
		<g>
			<path style="fill:#FFFFFF;" d="M909,265.4l14.7,9.3v-6l-9.7-5.5l9.7-5.7v-6.1l-14.7,10V265.4z M934.6,265.4l14.7,9.3v-6l-9.7-5.5
				l9.7-5.7v-6.1l-14.7,10V265.4z M974.9,251.4l-14.7,10v4l14.7,9.3v-6l-9.7-5.5l9.7-5.7V251.4z M226.8,256.7l9.8,5.6l-9.8,5.3v5.9
				l14.8-9.1v-3.9l-14.8-9.7V256.7z M201,256.7l9.8,5.6l-9.8,5.3v5.9l14.8-9.1v-3.9l-14.8-9.7V256.7z M175.1,256.7l9.8,5.6l-9.8,5.3
				v5.9l14.8-9.1v-3.9l-14.8-9.7V256.7z"/>
		</g>
	</g>
</g>
</svg>
