<?xml version="1.0" encoding="utf-8"?>
<!-- Generator: Adobe Illustrator 17.0.0, SVG Export Plug-In . SVG Version: 6.00 Build 0)  -->
<!DOCTYPE svg PUBLIC "-//W3C//DTD SVG 1.1//EN" "http://www.w3.org/Graphics/SVG/1.1/DTD/svg11.dtd">
<svg version="1.1" id="图层_1" xmlns="http://www.w3.org/2000/svg" xmlns:xlink="http://www.w3.org/1999/xlink" x="0px" y="0px"
	 width="56px" height="48px" viewBox="0 0 56 48" style="enable-background:new 0 0 56 48;" xml:space="preserve">
<path id="XMLID_426_" style="opacity:0.6;fill:#FFFFFF;" d="M39.2,34.5c-0.2,0-0.4-0.1-0.6-0.2l-4.2-4.2c-0.3-0.3-0.3-0.8,0-1.1
	c1.6-1.8,2.5-4,2.5-6.4c0-5.3-4.3-9.6-9.6-9.6s-9.6,4.3-9.6,9.6s4.3,9.6,9.6,9.6c1.4,0,2.7-0.3,4-0.9c0.4-0.2,0.9,0,1.1,0.4
	c0.2,0.4,0,0.9-0.4,1.1c-1.5,0.7-3.1,1-4.7,1c-6.2,0-11.2-5-11.2-11.2s5-11.2,11.2-11.2s11.2,5,11.2,11.2c0,2.5-0.8,5-2.4,6.9
	l3.6,3.6c0.3,0.3,0.3,0.8,0,1.2C39.6,34.4,39.4,34.5,39.2,34.5L39.2,34.5z"/>
</svg>
