<svg id="组_3" data-name="组 3" xmlns="http://www.w3.org/2000/svg" viewBox="0 0 2428 1872">
  <defs>
    <style>
      .cls-1, .cls-2, .cls-3, .cls-4, .cls-5 {
        stroke: #303254;
        stroke-width: 1px;
        stroke: #9d9d9d;
        stroke-width: 1px;
        fill-rule: evenodd;
    fill: none;
    fill-opacity: 0.35;
      }

      .cls-6 {
        font-size: 40px;
    fill: #fff;
    font-weight: 700;
    text-anchor: middle;
    font-family: "Microsoft YaHei UI";
      }
    </style>
  </defs>
  <g id="组_1" data-name="组 1">
    <path id="形状_1" data-name="形状 1" class="cls-1" d="M250,259c-8.732,0-6.519,15.458-3,27s2.254,20.175-6,31-5.343,38.259,35,41,56.442-1.858,53,9,5.846,12.684,17,20,18.163,25.818,14,35,8.466,4.768,14,5,3.149,3.943,5,9,15.263,6.235,26,4,14.389,0.222,4,12,2.907,15.2,15,15,24.324,1.848,28,3,9.092-4.64,14-8,25.925-3.52,35,2-3.859,16.56-8,26-9.635,25.137,1,23,47.846-16.743,51-4-14.946,36.793-1,40,32.151,2.041,41-2,12.447-7.719,15,5,6.456,30.466,23,39,20.512,28.282,12,35-10.912,9.314-4,14,2.9,8.8,3,13,9.785,8.715,18,7,13.944-7.757,7-8-14.5-5.966-8-8,6.576-10.734,3-14-1.271-16.734,9-10,13.793,26.034,24,24,8-16.334,14-10,8.8,10.952,10,10-0.473-14.206,1-19,3.674-8.221,6-6,6.821,0.946,8-4,3.684-7.277,7-7,11.395-9.516,17-5,11.137,4.246,17,4,7.633-.258,14-6,21.47-5.326,27-5,18.592,6.461,17,9-4.277,4.122-2,6,4.126,4.24,2,10-3.883,10.1,1,11,11.235,2.579,15-4,8.09-8.489,11-7,5.353,1.054,6-3,19.982-17.8,27-18,13.9-2.055,17-5,12.086-11.037,14-15,4.9-7.489-1-12-3.842-6.281-3-9-4.163-6.2-7-9-6.256-8.564-9-18-3.684-17.63-11-18-5-4-5-4,2.1-4.652-7-6-7.085,1.16-10,1-9.626-3.338-8-6,0.841-4.473-1-4-7.744-2.023-4-2,8.688-.836,6-3-4.88-7.08-4-7,0.849-2.605,0-4-3.33-5.094,0-8,6.512-10.234,6-14-5.458-7.636-2-8,7.662-4.054,4-5-14.667-2.486-9-5,8.931-4.2,5-5-5.442-1.127-6-4-5.918-4.5-8-5a28.629,28.629,0,0,1-5-2s-2.243-.071-5-3-2.286-9.688-11-9-10.288,5.47-13,9-7.736,11.569-17,13-28.078,4.7-47,3-19.635-4.379-18-13,4.389-23.106,0-28-13.113-6.316-16-9-7.754-10.215-10-7-8.889,12.857-13,14-10.4,1.647-19-2-10.721.086-7,4,11.122,8.543,11,11-3.122,9.647-4,12-12.4,14.077-20,14-15.082-8.606-19-12-12.594-14.908-20-11-17.486,4.061-24,1-29.65-13.839-34-18-1.28-17.009-1-27,3.072-30.267-31-26-36.388,11.441-50-2-11.283-15.725-18-20-37.783-14.08-45-2-16.324,15.837-18,8-22.4-19.7-26-22-11.957-4.583-3-13,10.557-8.732,6-16-14.644-13.794-8-22,6.693-10.86,0-11-5.839,3.473-10,3-11.836,8.734-12,16-6.1-.861-7-6-15.227-14.195-21-9-11.826,8.668-12,14-7.287,5.6-14,4-13.149-6-17-5S253.2,259,250,259Z" transform="translate(-236.781 -237.281)"/>
    <path id="形状_2" data-name="形状 2" class="cls-2" d="M713,647a64.729,64.729,0,0,1-1-15c0.34-8.977,2.114-15.108,4-14s5.468,3.3,8,0,2.178-7.869,5-8,5.919-2.636,8-4,6.018-5.033,10-4,8.066,5,14,5,12.342,0.356,18-4,8.175-8.562,29-7,17.074,7.461,17,9-3.568,3.292-3,5,5.074,1.5,4,7-6.185,13.8-1,15,12.4,2.866,16-3,5.157-10.406,11-8,5.885,0.214,6-2,7.827-15.069,27-19,14.952-3.36,20-8,12.624-11.264,13-16-2.309-6.134-5-9-3.237-5.624-2-7,1.306-3.5-1-5-8.506-6.85-12-17-6.6-22.226-9-23-8.358-.3-9-2,0.65-5.361-2-7-8.7-2.056-14-1-7.925-2.737-9-4,2.3-4.113,1-5-10.076-1.413-7-3,7.687,1.286,7-2-2.989-3.192-4-5,2.119-5.478,1-6-4.881-4.943-3-7,9.406-11.982,8-16-6.034-6.632-2-8,5.325-1.408,5-3-2.568-3.059-6-3-9.29-2.1-4-4,6.71-2.951,6-4-4.206-.927-6-2-0.632-2.88-2-4-2.4-2.181-7-3-6.1-3.045-4-3,3.821,0.789,7-2,4.171-7.758,3-15-5.592-14.5-4-17,4.669-4.451,12-1,12.73,1.159,16,4,4.96,8.041,12,12,13.377,3.283,22,2,21.248-2.483,24-8,5.793-13.009,14-10,5.707,8.633,13,7,8.5-10.039,24-10,22.09-1.571,22,5-2.54,21.364,9,23,28.21,10.4,36,15,17.31,8.658,23,9,23.81-7.475,31-12,12.96-11.9,22-10,13.9-3.6,22-8,27-21,27-21-4.79,12.074,3,15,17.03-1.657,17,7,1.22,6.159,4,8,6.69,4.98,0,8-22.7,7.585-3,13,23.79,3.841,29,3,14.07-2.567,20-2,18.46-4.125,23-4,8.93,1.663,2,8-6.48,9.965-7,12-3.79,2.781-10,3-6.9,1.865-7,8,1.76,11.487-3,18,3.12,10.763,7,15,15.59,14.942,10,19-13.95-5.648-16,0,0.89,10.014,3,13,1.97,5.447-3,7-4,4.88-7,6-8.56,3.531-14,1-6.39,4.216-3,8,11.17,10.066,15,12,4.7,7.326,6,10,6.49,3.428,11,7,18.11,18.729,17,32-10.99,13.459-10,23,3.11,13.3,12,13,22.79-1.708,28,11,8.2,26.337,4,34-17.63,7.871-12,16,13.94,4.376,16,12,0.54,16.434,10,17,8.64-6.838,12-5,9.53,2.279,8,12-1.77,12.187-10,11-14.81,5.26-16,11,6.63,9.016,10,12,6.35,5.773-2,9-7.16,7.722-8,13,2.04,11.641-8,12-22.47,1.94-16,10,15.92,4.743,16,15-3.36,17.81,4,23,5.56,9.43-1,13-9.21,3.786-7,10,9.06,13.819,16,16,3.98,6.484,3,10-1.72,10.6,6,16,0.45,21.049-3,25-13.07,9.924-18,8-10.82-5.179-10,3,0.82,12.207,1,14-3.74,1.226-7,5-4.84,8.359-18,8-30.16,1.142-41-9-8.98-12.191-3-16,5.75-8.656,6-13,1.85-16.055-10-16-9.46,5.924-13,11-15.82,29.359-17,36-2.9,19.13-24,22-25.76-8.387-35-10-30.74-7.7-40,4-14.05,22.04-32,28-21.43-1.72-27-8-14.77-20.219-15-29-2.74-16.2-6-19-18.17-28.1-24-29-13.624-4.541-8-18,17.148-25.815,26-30,0.31-12.4-1-16-6.538-9.413-1-17-7.849-26.395-14-31-33-25-33-25-8.724-6.911-11-1-4.608-10.617-4-15-4.8-15.994-6-18,2.412-15.859-2-16-8.8,7.306-12,6-16.389-21.588-23-28-18.789-13.632-22-5-15.261,8.436-23,5-16.451-13.845-20-14-10.164,12.148-19,2-1.779-12.63-5-16-18.36-18.011-36-9-8.813,11-8,14,3.793,33.726-13,5c-4.941-8.451.329-6.793,0-15s-13.819-13.5-4-19,21.569-18.977,18-21-10.607-7.355-20-1S714.537,648.23,713,647Z" transform="translate(-236.781 -237.281)"/>
    <path id="形状_3" data-name="形状 3" class="cls-3" d="M1209,347s-18.15,21.169-23,26-15,14-15,14,1.56-.059,1,5,0.33,9.206,7,10,14-.7,14,4-1.55,8.574,3,10,8.36,4.961,0,8-14,5.82-12,8,7.05,4.877,14,6,14.23,5.074,27,2,15.28-2.3,20-2,8.5-1.69,11-2,10.94-2.437,14,0-0.19,2.757-2,5-6.54,8.368-8,13-5.38,2.853-8,3-8-2.366-8,7,0.38,15.446-4,20-0.7,6.325,1,8,13.89,12.535,16,17,2.02,9.736-2,9-11.54-6.208-14,0,4.34,11.562,5,14-1.03,4.57-5,5-3.48,3.455-6,5-5.91,4.016-13,2-8.3,2.828-6,6,6.94,9.425,13,12,6.98,5,8,9,3.21,5.436,7,7,13.76,7.456,18,18,8.15,17.528,1,27-7.88,9.14-6,14,0.8,6.251,2,8,0.66,3.9,7,4,19.6-.5,24,3,10.9,12.832,12,30-5.29,15.191-9,18-8.97,7.507-3,11,11.2,5.576,14,10-1.9,11.691,6,16,9.97,2.155,12,0,6.39-5.115,12,2-1.75,18.262-6,18-17.59-1.936-19,12,4.02,6.227,8,10,8.92,5.576,0,9-7.24,8.007-8,12,0.96,13.887-7,14-20.21-1.416-18,8,11.26,6.83,14,10,2.24,18.018,2,23,3.59,7.958,6,9,6.41,7.084-4,11-6.25,9.352-4,13,6.98,10.272,14,13,5.22,6.523,3,11,1.34,10.094,6,14,5.4,20.084-5,28-15.3,5.235-18,4-8.17-4.242-7,6,1,14,1,14,7.67-4.254,9-1-1.32,11.506,2,12,12.19-.466,15,4,6.77,21.63,12,28,15.77,11.5,4,29-1,18-1,18,8.38-4.39,14-5,3.39-2.44,4-7,3.81-21.03,11-17,1.64,22.34,9,30,11.43,14.45,15,8,8.61-23.02,21-22,3.22-1.34,5-5,15.83-10.36,19-13,8.68-22.49,10-29,10.18-17.554,19-17,13.97,4.427,17,3,4.14-4.381-1-8-8.33-9.473-4-14,0.96-6.933-3-11-9.82-11.91-3-11,3.63,11.577,12,8,10.87-9.609,11-15,3.05-10.594,10-10,7.78-2.054,11-6,5.39-15.642,30-28,6.5-34.313,1-37a23.551,23.551,0,0,0-15-2c-4.1.831-13.27,7.084-14-2s-0.9-10.407-5-12-29.17-10.9-30-18,2.27-12.287,7-20,4.42-13.76,2-27-7.58-8.522-5-17,7.29-9.471,3-13-12.03-4.623-8-11,12.63-6.606,13-11-7.51-3.464-5-11,4.55-7.982,14-2,13.91,0.939,16-4,4.84-7.135,7-8-5.47-8.317,3-10,13.81-6.525,16-10,8.85-2.94,14-9,13.29-24.1,23-24,7.8,3.555,9,7,3.29,5.665,10,0,16.8-8.025,20-13,3.38-11.484,6-15,8.3-3.685,19-2,19.76,1.638,22,4a27.218,27.218,0,0,1,5,9c0.94,2.718,6.04,7.99,11,4s11.29-12.593,16-11,15.68,13.452,23,9,5.43-10.767,5-14,4.15-3.441,8-6,12.74-16.381,8-39-2.7-20.565,2-24,16.07-9.962,20-15,2.04-5.311,0-8,0.26-11.066,9-13,17.84-4.414,18-6,30.19-15.961,40-26,24.17-21.294,14-34-11.79-11.566-2-17,19.88-7.689,24-6,8.25-.464,6-5-1.48-7.09,3-6,7.9-2.008,6-10-3.54-24.3-1-31,9.8-10.068,2-14-18.29-5.155-27-4-9.63-3.222-5-11,3.3-14.8-6-16-21.7-8.249-30-4-14.32,2.623-22-2,0.58-13.968-5-16-18.14-5.524-24,8-3.02,10.663-1,13-5.59,6.805-19,12-26.55,12.534-32,13-7.56-3.077-12-9-11.41-6.077-14-6-12.94-6.9-16-4-18.27,6.195-14-8,18.36-20.159,17-26-12.8-14.473-21-8-13.38,17.762-20,8-22.04-29.418-21-39-14.13-35.368-37-27-31.89,13.384-36,17-27.08,10.2-41,6-10.95-8.275-2-11,4.01-9.295-6-11-9.64-1.944-13-5-5.57.169-9,4-8.59,1.53-11,2-6.89,6.642-11,9-13.94,7.993-24,2-14.58,1.93-13,5,9.72,8.5,12,11-4.22,5.6-8,7-10.42,2.639-13,12-6.91,2.083-12,3a24.594,24.594,0,0,0-14,8c-3.34,4.091-24.56,5.909-29,5s-6.23-16.141-14-11-12.42,6.648-7,16-2.33,13.573-10,16-29.42,15.02-46,8S1232.47,320.011,1209,347Z" transform="translate(-236.781 -237.281)"/>
    <path id="形状_4" data-name="形状 4" class="cls-4" d="M1552,889s13.16-7.541,16-3,0.11,9.144,7,10,15.59,4.673,19,10,5.38,9.622,9,13,5.91-1.538,12-5,17.81-4.641,18,2,2.23,6.307,7,7,14.5,6.784,17,14,3.34,11,7,12,9.65,10.052,1,15-12.93,1.475-15,9-10.46,10.949-16,12-20.73,7.529-28,6-6.67,1.952-10,6-12.83,5.95-14,10-17.47,16.33-13,24,5.85,7.43,7,9,4.85,1.28,8,3,3.45,7.75,3,12,0.42,7.58,2,9-4.33,7.12-6,7,5.33,2.77,1,5-12.01.83-9,9,9.15,18.36,10,21-3.86,19.07-12,15-7.6-4.41-8-1-5.12,3.26-6,1-11.2-.55-5,3,9.95,0.16,6,6-11.57,10.3-11,6-1.13-8.33-3-8-4.62-7.37-7-3-6.1,3.89-8,4-15.04,14.94-20,14-18.76-9.03-23-9-16.32-8.74-20-12-4.63-7.19-14-6-9.56-4.12-14-6-14.9-7.83-12-9,13.7-7.1,14-11-7.48-11.51-1-16,7.15-5.48,5-9-2.09-10.81-13-6-8.42,5.48-12,1a13.228,13.228,0,0,0-8-5s-4.42-4.12,0-7,17.95-9.01,20-14,8.07-36.65,19-41c5-1.99,8.9-2.774,15-1,4.4,1.279,16.79,1.984,13-2s-14.83-9.541-9-17,2.84-7.93,0-10-13.33-14.4-5-13c5.11,0.862,7.05,11.893,13,8s10.36-8.189,10-16,4.11-8.714,11-9,6.49-1.434,13-11,9.67-13.724,28-24C1543.7,896.484,1552,889,1552,889Z" transform="translate(-236.781 -237.281)"/>
    <path id="形状_5" data-name="形状 5" class="cls-1" d="M1330,1067s2.98,7.64-8,14-7.71,9.27-4,14,12.51,9.6-3,21-2.61,13.57,1,15,6.21,9.57,9,12,28.65,17.13,29,30-0.53,14.48-10,19-20.94,24.23-10,28,13.95-1.28,20,1,13.6,6.7,12,16,4.63,13.83,11,15,10.21,5.8,12,12,6.9,7.48,13,10,27.39,21.82,39,31,3.06,10.77,1,18,1.14,12.01,7,13,11.17,2.14,16,21,22,22.47,30,21,29.21-2.96,30,7-4.05,11.68-9,13-5.13,4.96,3,8,22.07,13.09,24,21-1.31,14.89,5,20,6,7,6,7,5.67,3.85,10,3,17.4-13.97,23-12,4.81,7.91,10,8,6.77-.82,7,3,6.1,8.62,10,0,1.93-16.63,10-25,6.05-12.23,6-16,3.87-6.11,10-6,5.87-7.55,6-13,1.82-11.36,8-10,7.99-1.94,10-4,15.83,0.54,19,6,11.48,13.21,17,10,13.1-14.42,17-23,8.92-9.52,32-6,47.12,5.8,62-1,8.71-10.16,6-16-16.3-29.28-25-32-19.76-12.19-29-10-17.86,8.49-20,5-9.6-7.42-13-8-13.63-10.86-17-12,0.69-6.71-1-8-15.82-5.89-13-17,8.88-14.26,5-21-9.81-14.87-12-19-7.28-8.33-12-8-5.56-8.83-13-7-13.39,9.35-22,5-29.53-7.84-23-22,5.18-22.45-2-24-8.89-12.6,1-11,28.4,2.22,38-3,22.65-14.24,23-6-7.38,2.55-10,5-4.56,18.62,8,18,16.73,1.94,17-7,3.84-16.03,16-17,24-11,24-11,11.14-10.52,18-11,7.59-5.18,10-8,13.69-13.89,17-11,7.39,24.25,23,20,11.41-10.02,27-6,22.48,6.77,30,3,13.62-3.47,17-4,13.74-16.73,16-23-4.22-5.81-9-11-6.94-11.48-2-14,9.56-.01,14-5,6.48-6.33,1-10-10.25-3.58-11-7-1.58-7.93-9-7-14.94-6.22-16-10-0.95-10.51,9-11,9.48-3.43,8-12,0.31-11.1,2-14-1.05-3.369-6-5-16.13-3.983-16-12,0.38-12.823,6-12,4.66-3.62,5-7-2.67-16.839,1-24,3.74-7.236-4-6-16.03,5.972-29,6-11.89,4.728-15,7a4.92,4.92,0,0,1-8-3c-0.93-3.972-4.64-12.425-11-7s-17.15,9.26-21,7-10.45-8.433-21-8-20.1-3.267-24-6-6.28-1.087-10,3-12.24,10.823-16,5-15.76-20.033-15-9,3.13,17.913-1,13-10.19-5.487-16-7-18.08-6.411-18-11,4.4-17.524-12-19-14.31-6.94-15-12,1.76-11.481,0-15-2.49-7.752,0-9,1.55-2.148-4-4-15.2-.815-21,10-6.05,18.331-10,19-4.99,7.289-5,10,0,4,0,4,4.47,10.692,8,11,8.53-4.4,13-7,13.94-3.124,15,1-0.66,9.172,6,9,13.25,6.565,16,10,3.2,10.3,6,13,9.49,5.71,9,10-0.43,6.293-10,10-6.97,1.946-8,4-4.51,10.936-8,12-9.02,2.571-16,5-16.71,5.356-24,4-3.79,1.118-5,3a21.412,21.412,0,0,1-9,7c-3.82,1.33-14.69,15.74-17,18s-6.96,6.38-3,12,4.25,7.12,5,8,1.8,2.19,6,3,7.36,3.17,7,9-1.75,10.04,1,12,1.21,2.22-2,5-3.9,3.14-2,5,0.06,4.2-3,4-9.97.8-7,7,9.51,18.73,10,23-2.44,14.48-9,14-4.46-4.77-9-3,0.62,4.15-3,4-5.69-5.36-9-2-3.87,3.81,0,5,8.92,1.11,8,2a14.033,14.033,0,0,0-3,4c-0.57,1.42-3.92,6.62-8,6s-0.86-4.21-2-6-0.82-3-4-4-2.29-5.57-5-3-1.82,3.92-5,4-6.2,1.09-13,7-8.66,11.34-20,4-12.11-2.94-23-10-13.11-13.33-22-13c-10.8.4-9.93-3.28-14-5s-15.42-5.13-15-9,7.92-1.4,12-8,2.14-8.25,0-13,1.63-6.6,5-9,4.64-8.72-3-14c-4.26-2.95-9.48.18-11,1s-6.7,5.73-9,2-7-6-7-6-11.8-2.17-15,0-7.63,6.71-12,17-5.03,6.92-7,6-10.55-6.91-13-20-2.06-21.09-7-20-10.15,6.09-10,16-2.19,8.24-5,8S1334.9,1067,1330,1067Z" transform="translate(-236.781 -237.281)"/>
    <path id="形状_6" data-name="形状 6" class="cls-5" d="M1789,517s-4.39,3.1-13,5-12.95,1.881-16,11,1.05,4.215,3,6-2.17,6.659-7,10-21.39,12.659-21,17,5.38,22.77,5,30-2.19,23.376-9,26-8.04,2.751-8,8-2.11,12.444-5,13-5.85.785-12-3-11.43-9.5-17-5-9.23,10.16-13,11-9.85-6.227-10-11-6.91-5.681-10-6-29.6-6.577-34,1-2.67,5.709-3,9-5.88,7.139-12,11-15.03,10.211-17,11-3.67-1.79-4-5-2.89-7.933-12-6-10.25,11.069-13,14-5.36,10.588-13,15-5.54,1.929-11,7-12.38,7.679-16,8-3.03,4.484-1,6,0.94,3.842-2,5-3.98,2.774-5,7-4.29,7.094-9,6-9.95-6.332-13-7-9.78,1.892-8,9-0.5,3.572,2,5,7.29,3.916-1,8-11.71,5.221-10,11,4.43,3.581,8,6,2.92,4.944-1,13,0.68,7.4,3,13,4.94,21.264,0,30-11.37,17.489-6,25,17.99,11.47,23,13,9.83,3.711,10,8-2.72,12.954,7,11,18.58-4.232,23-1,6.7,6.751,9,13,2.34,12.987,0,15,3.3-3.282,9-4,9.07-1.527,10,3,1.46,7.667,5,8,10.25,0.593,13,3,9,9,9,9-0.71-10.322,2-12,4.64-.312,8-8,6.42-20.052,17-22,13.34-1.068,13,1-4,4.148-2,7a13.59,13.59,0,0,1,2,10c-0.69,2.885-2.42,9.7,0,12s5.56,8.607,11,9,13.84,1.326,15,7-2.33,12.234,5,17,19.4,6.958,25,10,8.53,7.486,8,3-3.38-18.27,0-17,12.44,13.114,14,15,8.73,0.36,11-2,8.53-9.795,12-9,4.04,5.884,16,7,18.32-1.034,26,5,12.68,5.21,21,0,11.93-8.507,16,2,4.18,6.6,6,6,7.44-9.317,16-9,17.31-2.7,22-4a63.633,63.633,0,0,1,13-2,13.944,13.944,0,0,0,2,0s0.13-9.424,5-14,7.08-4.959,11-6,10.03-5.48,12-8,20.51-15.432,32-14,9.72,7.832,18,6,6.85-4.982,12-5,11.15,0.182,16-13,6.86-19.394-7-23-14-5-14-5-6.36-5.611-8-7-2.85,3.748-6,3-4.74-5.659-11-4-16.97,3.788-21-5-2.18-9.158-6-12-10.34.9-13-4-1.55-8.837,0-12-1.91-5.361-4-9-0.34-11.726,3-14-0.79-6.007-8-12,0.99-10.942,0-15-5.37-12.876-8-15-11.24-2.143-13-4-8.56-7.105-16-15-17.64-7.385-21-8-9.52-10.35-5-17,35.96-12.032,44-16,23.41-15.141,27-25,11.01-15.368,16-13,11.26-.832,6-6-20.88-5.23-21-11-1.37-18.639-5-24-9.67-8.462-8-16,1-12,1-12-13.34,5.278-17,3-4.34-9.942-4-11-2.37-3.135-3-5,3.19-12.355-3-12a15.56,15.56,0,0,0-11,6c-0.69,1.079-8-1.744-10-4s-8.03,1.479-7-1,4.89-13.1-3-11-19.47,4.9-23-2-4-4-4-4a25.473,25.473,0,0,0-3-9C1792.66,526.32,1789,517,1789,517Z" transform="translate(-236.781 -237.281)"/>
    <path id="形状_7" data-name="形状 7" class="cls-2" d="M1913,565c-3.31.558-7.12,2.906-11,8s-8.79,6.978-11,7-8,0-8,0-3.44,15.408-1,19,10.27,10.343,11,17-0.8,17.18,6,20,22.32,6.5,18,12-7.37-3.311-13,1-13.28,17.537-18,23-14.87,15.479-38,20c-22.73,4.444-26.57,9.894-26,17s-0.2,10.327,10,12a35.559,35.559,0,0,1,22,12c5.06,5.758,7.43,10.878,17,12s8.19,3.7,9,5,6.3,8.321,5,13-4.7,9.21-2,12,13.09,9.554,12,12-6.12,4.069-5,12,5.77,6.816,5,11-4.58,8.532-1,13,7.88,3.877,11,4,5.23,3.185,6,7,2.82,11.411,12,12,16.58-2.63,19,0,4.85,3.411,7,2,1.75-8.582,6-6,11.65,9.492,20-3,7.41-15.84,5-18,6.22-18.314,13-19,17.07,6.7,20,13,6.11,21.015,10,19,3.81-9.2,7-13,6.51-13.218,8-17,7.81-3.671,13-4,15.2-9.513,18-13,6.79-2.215,10-6,12.22-6.738,11-8-4.97-8.879-2-10,14.51-.888,6-11-10.42-9.1-7-17-0.77-13.5-1-17,12.62-5.108,14-8-4.01-10.13-2-15,7.47-29.221,2-29-1.43,11.411-9,5-4.36-6.936-12-7-6.46-6.916-7-11-0.8-7.07-5-8-6.73-.993-11-2-2.3-9.531-9-7-20.04,7.661-17-2,6.39-16.3,8-18,2.5-8.8,5-12,2.31-9.878,5-10,13.81-5.34,15-10,2.23-6.417-4-9-10.04-7.417-18-5a70.13,70.13,0,0,1-20,3c-5.62.109-17.42-1.994-20-7s-5.5-11.417-12-7-18.12,6.352-22,4-13.08-5.456-18-2-21.47-2.763-26,0S1916.31,564.442,1913,565Z" transform="translate(-236.781 -237.281)"/>
    <path id="形状_8" data-name="形状 8" class="cls-1" d="M2034,416s-11.71-.8-11,4,5.68,11.16,7,13,2.97,3.788,3,7,1.67,4.848,4,6,3.21,9.816,1,11-3.68,6.482-6,6-6.19.028-8-2-2.81-1.064-3,2-3.87,2.649-4,0-2.81-6.67-6-2-4.31,10.178-7,9-7.11,4.539-5,7,8.06-.024,4,9-18.22,12.964-21,13-10.61,0-5,6,1.24,9.581-1,10,3.57,3.519,6,6,7.41,12.375,7,19-1.35,16.037-4,6-8.66-3.486-8,0,9.92,3.351,1,12-7,6-7,6,8.52,0.792,16-3,8.85-3.782,11,1,6.48,12.92,26,11,23-3,23-3,20.18-3.981,32-21,12.47-14.263,9-19-0.75-9.728-2-12,2.2-8.96,6-8,4.66,2.872,9,3,8.46,4.337,9,7,2.04,7.82,4,6,7.47-8.18,11-5,12.07-2.443,13-7-6.14-18.707-9-19-12.21,1.079-11-6,5.67-8.321,12-9,10.16-3.668,9-9-1.92-10.383,8-11a57.719,57.719,0,0,0,16-3,44.666,44.666,0,0,1-5-9c-1.5-4.169-4.84-14.9-14-11s-11.91,6.821-12,3-1.86-6.388-7-6-13.98,2.73-12-3,2.77-10.316-3-9-8.04,1.08-10-1-5.9-.061-8,3-6.69,2.638-7,0-2.65-2.781-4-1-0.85-1.315-2-4-7.78-1.966-10-2-1.99-3.337-3-6-7.27-2.849-10-3-4.92-1.593-7,1-4.98.189-6-3-5.22-8.329-7,3S2034,416,2034,416Z" transform="translate(-236.781 -237.281)"/>
    <path id="形状_9" data-name="形状 9" class="cls-4" d="M2186,450a21.97,21.97,0,0,1-13,7c-8.06,1.031-11-1-11-1a38.425,38.425,0,0,1-14,3c-8.12.224-10.68,1.851-10,8s0.83,12.491-7,13-13.79,3.776-13,10,3.26,5.168,7,5,9.31,5.856,11,11,4.63,8.136-4,14-4.5,2.408-7,1-7.31-.825-9,2-3.5,5.011-5,0-3.28-10-8-10-5-1.509-7-2-10.17-4.195-10,3-0.84,14.476,1,16,4.35,1.872-1,9-13.02,17.618-22,23a59.71,59.71,0,0,1-18,7s18.46,5.7,18,9,0.7,7.971-3,10-10.98,4.7-13,6-3.78,2.1-4,5-2.37,4.813-4,8-0.45,2.438-4,10-8.25,15.864-7,20,4.03,4.092,10,2,11.1-4.106,12-2,0.39,6.313,8,7,10.83,1.893,12,5-0.23,11.829,4,14,12.76,1.325,13,4,5.7,8.676,8,5,3.19-7.825,5-5-0.02,18.674-2,23-2.37,7.06-1,12,3.05,6.984-5,10-8.3,2.517-8,5,4.05,8,2,14-3.84,10.388,0,14,10.86,10.109,9,14-6.18,1.921-9,3-0.94,6.463,0,8,3.89,2.568-2,6-15.26,10.162-18,13-8.03,9.08-13,10-15.03-1.065-17,5-4.64,12.8-7,16-3.06,14.515-8,13-3.62-8.165-6-13-4.7-10.248-11-15-15.51-4.978-19,1-9.36,11.91-7,15,4.4,5.483,0,12-12.79,14.5-16,13-9.38-7.639-11-4-1,4-1,4a10.583,10.583,0,0,1,4,3c2.03,2.319,6.02,6,11,7s17.22,4.669,18,9-3.63,18.395-6,22,8.23-9.489,16-9,16.06,2.6,17,7-0.37,9.13,5,10,6.56,3.667,8,8,9.8,10.792,12,12,2.73,5.026,2,7,9.53,5.32,13,3,15.27-9.5,20-6,8.2,9.611,34,12c11.65,1.079,9.3,8.023,11,11s3.17,5.326,7,5,5.96,14.292,12,16a55.872,55.872,0,0,0,10,2,15.412,15.412,0,0,1-3-17c4.35-10.025,6.23-15.155,16-18s12.74-12.606,19-16,25.66-4.036,32-9,9.37-1.152,12,1,6.66,0.265,10,0,4.94,1.9,5,6,7.77,5.876,11,3,6.67-7.714,16-4,10.08-4.446,11-9,4.82-13.041-3-17-15.97-2.113-22-2-15.25-8.183-9-15,14.57-4,13-8-15.06-11.224-16-14-2.87-11.02,12-17,32.28-.506,39-10,4.75-20.366,2-28-1.48-13.458,8-17,19.89-4.532,15-17-7.22,1.182-13-2-13.23-10.587-7-21,14.73-22.543,9-29-10.74-10.831-6-15,2.38-7.605-1-9-18.15-13.72-31-5-7.82-10.257-5-15-5.03-8.578-10-16-1.71-10.13,2-11-1.03-6.9-3-10,3.51-4.453,11-6,20.51-8,11-14-12-19.472-12-27,6.43-34.428,7-41-4.26-21.64-1-23-0.86-5.84-6-6-6.41-11.441,1-13,3.08-18.63-6-15,10.63-11.618-6-10-17.68-5.454-19-7-10.67-2.129-10-10-4.64-15.825-16-10S2186,450,2186,450Z" transform="translate(-236.781 -237.281)"/>
    <path id="形状_10" data-name="形状 10" class="cls-3" d="M2329,638c-3.71,1.911-16.35,10.409-15,17s-1.96,7.092-3,5-8.16,7.96-8,12,5.79,2.627,0,9-5,2-5,2a27.9,27.9,0,0,1-4,7c-2.24,2.492-.96,7.97,5,13s5.37,11.041-2,24-10.64,17.062-4,24c3.55,3.7,6.93,7.463,12,3s5.74,0.459,7,3,5.13,9.149-5,13-18.75,6.706-19,14,4.57,16.135,4,22-3.67,18.052-14,18-27.42,2.361-33,6c-6.24,4.069-11.46,11.894-9,15s17.64,12.032,17,16-7.25-.439-11,4-7.05,11.125,1,16,20.41,0.706,23,2,10.81,4.723,9,13-2.21,12.741-5,14a10.24,10.24,0,0,1-8,0c-2.11-.9-7.4-1.921-11,1s-7.41,7.639-13,4,2.73-7.778-6-9-6.88,2.685-10,0-6.04-7.349-14-2-12.32,5.371-18,6-12.85,1.313-23,13c-5.62,6.475,6.48,5.191,11,6s12.62,1.64,14,11,6.97,13.331,16,14,12.14,1.228,13,10,1.69,11.436,9,13,9.24,2.022,16,3,10.87-1.046,14,6,18.73,11.506,23,10,1.8-11.357,11-15,1.87-11.772,10-10,27,11.757,36,15,11.84,0.8,15-7,4.37-10.306,12-5,7.88,14.574,19,17,16.07,1.326,20-1,11.44-5.963,12,2-0.29,9.81-4,13-1.18,3.19,0,5,0.65,5.55-1,9,3.73,10,7,13,14.56,17.43,15,26,2.19,14.74,8,15,10.89,0.05,11,2-0.75,6.3,3,8,1.31,2.03,4,6,7.44,8.03,10,8,2.51-8.1,4-5-0.56,5.96,1,8,6.66,7.88,6,13-4.55,4.71,0,7,8.67,0.58,10,3,1.47,14.73,7,16,4.9-.23,3-3-3.57-4.72,0-7,5.81-5.82,3-9,0.22-6.74,3-6,3.81-7.19-1-10-4.14-5.54-2-6-4.56-4.94,4-4,0.03-5.99-3-8-7.57-4.44-4-7-4.55-1.01-7-4-6.84-15.81-1-15,13.58,3.88,20,0,7.66-2.82,6-7-4.69-10.53-2-11-0.79-5.1-7-5-9.52-2.9-5-10,4.44-2.99,8-4,8.95-6.05,0-12-15.86-3.78-21,1-6.95,8.18-11,7-11.72-4.64-17-2-3.92-2.57,1-7,8.66-2.78,12-1,7.88-1.71,9-4,4.37,0.38,6-2,6.29-6.672,8-7,6.55-3.267,4-13,0.12-11.493-2-14,4.12-.366,4-3-3.02-14.24-6-10-5.2,12.642-8,13-3.64,3.894-7-1-5.87-.4-8,1-10.67.5-12-4-5.36-7.163-4-10,13.33-9.241,19-15,1.51-17.539,5-18,7.56-2.223,2-6-6.2-12.464-8-18,0.06-11.69-2-12-9.94-7.882-6-12-12.01-10.554-14-12-15.65,5.763-7-8,25.12-36.621,20-43-5.95-14.5-5-28-4.41-7.006-8-9,5.58-3.82,13-9,23.94-11.77,24-21,10.3-15.122,15-27-5.71-20.26,2-23,4.07-9.559,3-10-7.13-6.449-8-10-5.8-2.854-8-6-7.23-4.138-10-1-15.03,15.4-19,13-10.71-2.624-12-5-4.76-6.246-8-4-6.68.281-9-2-7.33-6.07-7-2-6.92,14.295-12,14-9.73-.03-13-7-4.34-10.679-8-11-3.01,5.794-8,6-18.27,2.227-18-5-2.46-9.8-7-11-5.82-9.693-10-7-4.54,9.618-7,6S2339.26,632.716,2329,638Z" transform="translate(-236.781 -237.281)"/>
    <path id="形状_11" data-name="形状 11" class="cls-1" d="M2586,559a41.609,41.609,0,0,1-6,4c-2.71,1.354-9.24.859-8,5s6.94,8.827,3,11-4.59,11.613-8,3,1.94-7.567,3-7-10.56-3.468-13,4-1.46,18.074-6,19-9.59,6.485-8,9-5.84,1.173-11,2-9.82,4.272-5,8,5.21,5.394,0,6-10.24,2.882-4,4,13.14,1.092,10,4-8.06,6.867-11,7-9.15,3.5-8,8,8.28,9.544,8,15-4.44,10.148-4,15a10.323,10.323,0,0,1-3,8s2.23,4.652,0,7-9.41,6.757-5,12,2.06,9.489,0,14-12.57,17-14,21-0.27,12.05-9,17-18.67,11.725-22,13-10.65,4.543-8,6,3.31,1.752,5,1,4.84-.672,4,5-2,20.136,1,25,7.43,11.127,3,17-6.31,12.136-9,16-16.77,21.307-13,24,7.25,0.215,9,0,6.36,3.817,9,5,7.44,4.71,7,6,11.77,2.932,13-2,2.09-14.608,1-16,1.27-3.1,5-3,4.12-6.583,6-9,9.06-7.471,10-4,5.7,11.968,7,3,1.56-16.384,2-19-2.32-5.95-5-4-8.56-6.159-6-19,0.05-25.343,22-24c6.73,0.412,1.36,4.454,1,6s1.82,4.125,5,2,11.31-5.328,13,5-0.33,15.487,3,13,1.11-7.429,9-7,7.47-4.96,10-7,10.72-7.775,10-10c-1.38-4.251-15.1-5.974-14-9,1.9-5.239,3.86-7.852,9-9s4.25-1.236,4-6,6.49-6.454,12-9,1.52-7.26,8-6,4.53-5.291,9-8,4.56-6.069,4-8,1.98-9.406,8-11,9.71-3.878,12-6,6.94-1.814,4-3c-1.91-.77-7.58-19.7,3-26s14.71-1.464,15-4,0.99-8.156,5-9,7.64-2.913,5-4-1.61-5.369,0-7-2.41-3.548-5-2-10.68,11.5-13,9-6.49-5.248-7-8-0.66-4.67-4-1-6.28,1.859-10,3-9.45,4.25-10,8-4.15,4.258-4,2,0.22-6.442-3-6-5.97.646-2-7,4.37-14.575,7-15-1.07-4.3-7,4-10.2,2.789-12-2-4.69-10.662-7-12-7.32-9-12-6-12.71,6.746-8-3-4.48-2.6-5-7,6.22-9.03,11-11-3.4-8.491,0-12,0.83-9.366,9-10,10.29,13.078,18,10,14.49-7.984,3-17S2586,559,2586,559Z" transform="translate(-236.781 -237.281)"/>
    <path id="形状_12" data-name="形状 12" class="cls-5" d="M2140,955a22.719,22.719,0,0,1,7-18,46.76,46.76,0,0,1,19-11s9.58,2.243,14,3,12.28,2.156,12,12,6.99,10.3,14,12,13.26-1.972,15,10,0.87,14.351,23,16,12.04,3.577,18,9,20.98,10.66,23,5,2.47-10.69,8-12c6.69-1.586,6.02-5.917,6-8s3.95-4.377,12-1,25.92,14.4,35,15,6.7-5.2,9-11c1.77-4.449,10.24-9.406,16,1,5.63,10.174,14.63,16.892,26,15s9.77-3.249,13-5,8.24-.828,9,6-0.83,9.44-6,13c-1.59,1.09-.89,1.96,0,3s2.36-.05,2,4-2.9,6.65-2,9,10.06,13.34,14,18,6.31,10.87,8,19,1.77,13.48,12,14,6.13,2.3,7,5,0.76,3.96,4,5,1.93,2.06,3,5,10.1,10.66,11,9,1.29-9.65,3-5,0.81,7.76,2,9,5.33,3.48,5,9-2.63,9.46,0,10,9.9-.66,10,2,2.4,11.54,3,13c0.8,1.96,7,4.06,8,4s-5.34,3.97-5,5-0.52,4.38-7,1-11.45-4.05-7-7,1.18-3.21-3-3-12.51,2.1-12-2-1.04-4.08-4-6-13.56-.95-11-7,2.61-10.65,3-13-1.42,3.23-5,8-3.77,6.4-7,5-2.09,4.43,0,6,3.73,6.14,1,11-7.3,7.83-9,9-6.33.84-9,2-12.23.67-17,1-7.07-2.03-7-5-5.43-5.18-7-3-4.78.61-5-4-1.63-5.39-4-5-6.29-.93-3-6-4.44-2.12,2-7,2.07-8.62,6-7,6.79-2.15,12-5,9.12-4.83,8-6-3.21-9.37-2-10-5.94-15.08-12-14-13.32,4.61-16,5-2.98,1.46-3,4-6.86,10.46-10,6-3.51-5.23,0-8-0.82-6.91,4-7,1.99-2.94,0-6-6.17-11.15-12-9a5.912,5.912,0,0,1-7-9c3.38-4.88,8.62-13.62,13-11s3.44-.49,4-4,4.51-4.57,3-8-2.06-7.3-4-5-3.43,1.17-6,1-3.14,7.14-7,8-9.82,2.56-12,3-1.61,4.99-3,4-6.43-1.12-4-4-3.35-8.17-7-7-14,5.04-15,9-1.64,6.17,2,7,9.55,7.56,3,10-2.4,3.88-3,5-4.4.19-6-1-14.48.51-12,5,7.13,11.32-1,8-12.68-4.1-14-5,4.63-6.04,0-9-4.76-3.65-7-1-4.79.48-6,0-10.63,2.77-12,4-3.39-.91-1-5-1-6.96-4-7-5.91-1.79-4-5-5.09-7.11-11-4-6.09-3.91-6-6-6.47-10.49-9-12,5.79-3.6,3-9-8.94-9.64-14-9-4.48-4.3-9-5-7.24-3.264-10-6-4.86-2.337-11,0-11.96-1.979-10-5,2.94-14.084-4-15-10.3-1.312-12,1-16.82,8.267-16-3-1.26-13.169-2-14A7.235,7.235,0,0,1,2140,955Z" transform="translate(-236.781 -237.281)"/>
    <path id="形状_13" data-name="形状 13" class="cls-3" d="M2134,973s7.27,2.7,9,2,0.73-9.26,0-10-6.61-1.161-9-3-8.8-16.022-10-16-5.28,1.285-7-3,0.68-10.287-13-13-13.22.984-23-5-10.88-9.52-18-7-12.94,8.172-18,7-8.49-2.662-7-5,1.47-3.151-1-5-11.45-7.775-12-10-1.47-10.407-8-10-4.37-3.083-5-6-2.09-10.662-17-11-15.75,7.951-21,12-7.86,4.115-10,4-3.5.209-7,3-9.34,1.8-12,0-9.65-7.15-21-3-16.55,7.811-19,10-8.37,9.042-14,10-11.45,3.683-14,11-7.57,19.515-7,27,2.32,20.113-2,20-8.53-.817-8,8,0.67,10.293,7,13,7.15,2.947,10,3a4.213,4.213,0,0,1,4,5c-0.56,2.06-3.76,5.27-2,12s3.91,13.87-5,14-13.22,3.96-12,9,5.25,9.19,11,11,13.53-.16,14,6,3.02,5.68,7,7,9.6,6.06,8,8-5.14,6.94-11,7-11.89,1.66-10,8,5.36,8.44,9,11,8.54,4.76,2,14-10.07,18.22-18,18-8.42-.06-12,2-11.32,2.04-20,0-16.81-5.12-26-1-15.5,7.78-22,2-8.47-17.76-14-17-7.2,1.58-16,12-7.33,7.32-9,7-8.12-.03-16,10-2.95,12.98,2,15,26.74,9.29,33,14,7.04,13.71,13,15,10.63,0.06,16,10,13.48,13.92,13,18,1.43,8.85,7,9,5.71,3.15,6,6,3.8,4.4,7,0,3.27-7.8,10-9,8.37-6.28,9-7,3.26,3.98,4,9,4.63,5.77,8,6,8.08,3.14,5,7-6.21,10.12,2,14,11.51,3.23,13,5,5.41,3.41,7,11,5.75,10.35,1,11-10.55,5.21-6,7,14.5,0.86,8,12-20.32,18.75-19,26,4.79,17.82,15,18,8.8,17.8,4,26-13.41,22.82-11,30,13.64,11.96,16,16,9.81,17.43,34,18,37.29,0.2,38,7-5.75,9.07,7,11,17.11,2.3,37,23c14.54,15.14,10.95,5.54,14,2s5.88,6.17,13,5,16.22-6.41,24-6,9.57-4.83,15-4,13.93,3.69,14,9,6.55,1.22,9,0-7.3-12.35,0-11,5.86-1.86,5-5,9.89-2.02,14-3,2.62-1.23,6-1,4.63,1.04,2-4-1.39-6.43,4-7,7.24-.69,10,0,8.39,0.98,8,6,3.01-.7,7-1,19.69,1.66,15-6-4.53-7.04-8-7-8.73-3.73-13-5-3.24-7.84-2-9-5.6-9.7-12-8-13.91,3.34-16,1-4.3,3.46-6,5-7.47,3.86-13,2-9.22,2.87-11,6-12.2,5.91-5-6,1.48-14.01,11-16,13.23-12.81,24-15,27.41,3.54,24-4-19.45-10.9-5-16,20.82-10.17,16-15-13.55-9.97-17-12-2.72-12.9,7-17,12.25-11.42,19-9,16.69,5.67,16-3,0.16-9.59-8-13-14.52-1.15-13,2-3.51,8.21-5,9-0.3,7.41-2,7-0.15-3.18-7,0-10.85,4.6-17,9-9.28,9.8-12,10-18.97,11.93-23,8-10.73-8.53-6-13-0.23-4.43-3-5-3.45-4.65,2-8,3.77-15.59,10-19-5.78-11.21-10-8-17.34,12.37-21,10-18.48-5-26-1-13.98,14.45-20,5-10.39-10.5-13-15-12.04-4.82-16-5-14.51-9.38-17-13-16.36-18.92-6-22,12.5-2.45,16,1,10.76,16.49,19,11,11.65-7.88,16-6,14.12,1.54,13-4-0.69-6.34,8-4,6.46-6,11,0,1.53,11.44,10,11,1.58-8.61,0-14,7.37-11.13,11-11-8.27-8.42-13-9-1.6-4.27-8-4-11.15-3.43-9-9,10.05-5.96,7-16,1.12-26.43,12-35,12.42-2.88,11,0-1.49,9.56,7,7,24.06-12.44,22-17-4.16-15.22,6-16,20.77,0.15,26-5,17.38-20.47,12-24-13.8-8.32-6-14,15.24-.17,16-6,2.52-10.94,6-8,5.4,0.26,5-2-13.31,2.02-12-4-1.8-18.48-5-14-4.38,10.82-10,6-4.82-7.16-6-9-9.06-4.32-9,1-3.52,17.69-6,15-35-30-35-30,5.01-1.18,5-6-10.82-25.48,1-26,15.91,0,16,5-2.1,15.43,11,14,39.16-13.88,11-19-32.41-4.88-33-17,4.29-27.029,19-25S2134,973,2134,973Z" transform="translate(-236.781 -237.281)"/>
    <path id="形状_14" data-name="形状 14" class="cls-5" d="M1622,1163s-9.84-2.49-8,5,7.08,5.44,9,7,4.49,9.58,0,18-2.35,14.62,5,19,17.52,11.21,27,9,12.62-9,18-4,6.03,5.61,11,6,8.99,10.64,12,15,7.55,9.88,8,12a19.935,19.935,0,0,1-3,14c-3.81,6.11-5.03,13.01,2,18s10,4.52,9,9-1.68,3.34,2,5a37.362,37.362,0,0,1,9,6c2.38,2.05,3.63,5.15,7,6s10.17,3.31,12,6,1.24,3.23,8,1,15.66-6.32,20-5,12.35,7.06,18,9,10.42,4.43,18,16,11.99,19.5,13,21,1.04,5.6-2,8,3,0,3,0,7.93-1.04,10,1,9.19,11.95,8,14,4.99-1.21,9,2,5.05,7.78,14,5,22.56-8.37,27-11a22.182,22.182,0,0,0,7-7s9.51-10.74,6-24c-2.51-9.49-8.05-6.12-11-7s-12.33-5.3-11-21c0.32-3.77,11.52-10.25,16-18s9.82-14.94-1-15c-8.05-.05-5.28-6.7-2-7s7.79-.5,4-8-3.81-15.73-12-17c-7.07-1.1-15.66-4.67-15-11,0.54-5.15,5.72-2.26,5-8s-6.58-5.22-9-5-5.38-5.9-6-8-2.78-11.43-6-6-5.71,6.38-8,6a5.566,5.566,0,0,0-6,3c-1.45,2.54-4.8,9.26-8,8s0.55-7.1-4-8-8,.16-10-4,1.92-7.24-3-10-10.29-13.3-13-17c-4.03-5.48-7.75-4.74-15-7-3.24-1.01-5.55-6.42-8-10s-10.96-9.37-24-14c-4.43-1.58-18.65-4.33-19-9s6-12,6-12-9.73,9.37-16,11-12.45,2.6-15,3a16.364,16.364,0,0,0-12,10c-3.15,7.42-1.31,12.5-4,13s-17.42,3.56-21-2-4.06-13.04,0-14,13.29,0.47,8-9c-2.02-3.61-9.81,1.41-16,5s-5.8,5.08-13,6S1622,1163,1622,1163Z" transform="translate(-236.781 -237.281)"/>
    <path id="形状_15" data-name="形状 15" class="cls-2" d="M1556,1455s4.76,8.75,0,15-7.16,7.72-10,9-4,6.57,0,12,2.63,9.56,3,12,5.3,8.11,12,9,6.68,6.79,7,13,4.88,13.51,13,17,8.91,9.02,11,12,7.9-.5,14,0,14.2-1.37,19,5,5.74,11.72,7,18,5.53,6.54,10,12,5.06,1.68,9-1,12.35-21.88,20-26,17.01-10.09,23-11,11.48-1.05,15-2-3.06-10.36-4-17-1.26-15.22-5-15-31.62-1.29-17-9,29.96,10.86,25-3,5.94-31.1,22-34,18.34,7.13,36-5,24.56-24.29,35-26,7.77-12.03,13-15,9.25-2.33,13-14,17.75-2.95,16-9-8.9-10.94-6-19,1-5,1-5-4.48-14.77-12-15-9.79.44-13,3-7,4.12-20,5-48.59-2.88-55-4-16.35-1.43-21,7-11.53,22.46-20,25c-3.39,1.02-9.76-7.38-14-11s-13.64-10.86-20-6-2.16,4.72-9,4-8.63,1.56-9,8c-0.32,5.56,1.59,14.91-5,15s-10.55.27-11,9c-0.34,6.57.47,5.96-4,10s-7.75,15.63-9,20-2.49,11.61-7,12-5.63-6.56-6-7-7.42-.44-8-1-4.51-6.86-9-7c-5.41-.17-9.09,3.24-16,8s-9.09,3.58-11,2S1555.78,1453,1556,1455Z" transform="translate(-236.781 -237.281)"/>
    <path id="形状_16" data-name="形状 16" class="cls-4" d="M1844,1379s7.28,4.78,9,7,7.99-.85,15-3,16.78-7.43,21-10,5-3,5-3-10.44,17.41-7,24,9.03,9.91,12,12,3.28,5.98,5,8,10.12,10.17,21,12a128.5,128.5,0,0,0,25,2c8.11-.02,20.1.38,23,4s1.88,3.51,1,6-2.16,7.12,8,8,12.88,1.86,17,5,14.39,12.36,19,17,11.19,11.36,12,8,1.22-8.74,6-5,9.26,5.37,13,4,6.85-4.61,12-5,11.14,0.38,16-2,10.23-4.01,17,1,4.56,4.73,5,6,2.38,2.86,5,1,9-3.21,14-2,13.2,4.22,12,9-4.5,4.75-6,7-2.01,3.62,2,3,5.98,1.78,1,3-4.11.18-6,3-3.94,4.03-6,3-5.7-1.69-4,1,3.93,8.1,1,6-5.59-5.81-12,0-12.47,8.62-13,15-1.27,6.99-6,4-14.34-11.82-19-7-2.31,7.01-1,9-1.78,7.74-5,5-8.44-2.36-11,0-4.21,1.41-6-1-4.14-7.56-8-7-9.29-14.59-20-5-2.29,19.23,0,20,8.45,0.36,10-1,3.42,1.1-3,3-4.43,4.41-4,7a66.7,66.7,0,0,0,3,10c0.63,1.37-1.13,4.26,1,6s8.91,6.12,7,7-4,5.17,0,7,7.23,1.57,3,5-5.27,4.41-5,7-1.87,5.14-9,2-15.46.96-14,10,3.94,30.54,12,42,10.38,14.72,25,15,17.66-.09,19,2,10.38,3.32,12-1,2.99-2.12,4-1,4.33,2.36,5,1,10.11-11.08,15-10,9.87,4.67,4,5-14.37-.35-16,6,9.88,7.65,3,10-9.11,2.89-11,5-0.85,4.38-3,8,5.15,10.37-1,11-11.08,8.12-17,7-6.82.86-9,4-10.51,5.64-8,12,13.77,5.15,15,11a42.427,42.427,0,0,0,8,16c2.64,3.02-.66,5.21-6,6s-7.66,6.94-10,4-5.83-1.71-10-3-20.55-7.52-25-4-5,4-5,4-6.26,4.67-12-1-10-10-10-10,3.69-6.47-1-9-13.34-25-23-26-13.35-7.59-15-9-11.22-1.88-18,4-14.58,11.46-17,8-6.59-4.39-8-5-0.41-7.17-4-9-2.1-6.25-5-7-7.19.18-8,2,5.93-9.78,4-17-9.69-12.18-14-13-10.89-6.85-12-2-4.04,4.82-6,3-2.09-2.8-3-5-3.76-2.45-6,0-17.22,4.04-20,3-2.71-8.36-8-8-14.04-.78-17-4-7.25-11.01-11-5-12.38,24.52-15,29,2.35,9.79-4,15-7.59,13.51-15,16-15.34-6.34-16-1-7.17,22.01-10,15-2.59-10.89-8-3-17.43,17.8-22,18-7.15-7.41-13-4-10.82.26-9-2,1.96-9.71-3-4-10.69,4.38-11,2-1.11-5.54-5-3-3.64.74-6-2a7.361,7.361,0,0,0-10-1c-3.16,2.49-14.17-3.33-17-5s-10.94-9.77-9-13,1.46-7.01-1-7-4.71-1.2-3-4-1.01-5.92-2-8,1.01-13.84,6-19,14.92-16.29,17-20,10.65-9.72,14-10,20.21-10.71,18-19-9.82-10.65-12-11-3-12-3-12v-1a39.922,39.922,0,0,0,6-7c2.22-3.56,7.42-14.71,14-20s19.83-11.99,23-13,16.77-.39,18-2-2.33-9.44-4-13-0.66-9.26-1-12-0.86-7.65-8-7-11.66.15-14-1-6.43-5.95-2-7a29.222,29.222,0,0,0,8-3c0.86-.52,4.81,1.56,9,2s11.72,3.01,11,0-3.92-17.69,2-24,15.58-16.43,29-14,18.27,2.67,35-9,16.22-20.22,25-22,9.46-2.49,10-6,2.43-9.29,9-11,5.28-3.33,6-5,1.56-8.21,8-11,10.64-1.71,10-4-7.27-8.88-6-15S1835.68,1377.25,1844,1379Z" transform="translate(-236.781 -237.281)"/>
    <path id="形状_17" data-name="形状 17" class="cls-4" d="M2123,1657s-3.58,1.44-2,3,2.37,4.06,1,5,0.34,3.49,2,4,1.91,6.9,0,8,2.34,3.77,5,6,6.75,7.93,12,2,12.54-8.02,14-9,12-6.75,15-8,7.48-4.86-1-5-11.41,1.65-14,1-10.93-5.89-13-7-6.52,1.22-9,2S2125.92,1653.6,2123,1657Z" transform="translate(-236.781 -237.281)"/>
    <path id="形状_18" data-name="形状 18" class="cls-4" d="M2128,1643s1.1,4.35-2,7-7.82,6.76-10,3,0.61-3.54,4-6S2127.19,1641.38,2128,1643Z" transform="translate(-236.781 -237.281)"/>
    <path id="形状_19" data-name="形状 19" class="cls-5" d="M1651,1603s10.3,4.11,11,8,5.62,9.87-7,18-15.76,7.14-18,10-10.14,12.28-14,17-10.61,8.55-13,17-1.54,10.18,0,12,1.6,4.55,0,6,0.24,2.54,2,3,5.25,2.07,4,5-3.07,7.2,3,12,17.06,10.44,20,9,7.03-4.59,10-1,5.45,5.54,7,4,3.69-3.21,5,0,0.95,4.41,4,4,6.74-2.02,8-5,4.39,0.15,4,2,0.12,2.68-1,4,1.44,4.06,5,3,5.15-4.04,10-1,5.7,4.06,9,2,14.45-10.31,17-14,6.5-9.92,8-6,2.65,8.61,4,8,4.44-6.36,6-10,2.85-6.1,2-7-0.57-3.46,5-1,8.24,3.28,11,2,6.92-6.04,10-10,9.05-10.44,9-12-3.29-2.84,0-10,6.56-11.68,9-17,5.93-14.73,10-13,6.11,9.96,16,11,10.42-.76,13,4,4.81,4.89,9,5,10.69-2.27,14-4,5.57-2.71,7,1,4.25,5.93,6,5,1-7.23,5-6,14.63,6.1,17,8,7.86,5.8,7,13-2.21,11.07-3,12-7.34,20.67-11,21-17.49-3.24-14,5,7.12,21.57,10,24,0.68,6.61,1,10,8.03,11.12,3,14-11.12-4.43-11,1,10.19,5.93,4,11-4.97,8.99-2,12,3.44,4.29-5,7-9.78,11.5-12,13-7.86,6.25-4,10,9.02,10.4,3,18-0.65,7.23,0,12-0.36,8.86,4,9,4.27,15.01-1,18-5.19-9.2-7-3-3.27,6.59,1,9,5.27,11.93-2,8-9.56-4.91-13,1-15.8,18.5-19,17-4.84-4.46-6-1-8.12,4.17-11-4-3.25-12.7,1-12,6.83-5.74,7-7,4.29,0.22,4-5-0.79-16.27-2-17-9-1-9-1-18.63-38.48-19-46,0.42-6.61,4-9,16.87-7.65,10-14-10.16-17.87-20-22-10.12-6-11-7-6.89,4.77-9,7-13.74,9.45-16,8-7.6-8.68-8-12-1.24,14.43,1,25,2.4,21.38-2,22-1.65,3.29-2,4-10,7.2-12,1-3.32-13.93-3-17-1.41-4.24-6-4-32.71-3.95-33,5-4.18,39.39-5,44,9.15,3.26,4,8-11.85,16.58-15,17-5.42-4.58-9,8-13.36,40.82-1,45,12.02-5.82,18,2,19.23,24,23,30-4.56,11.62-6,17,6,5.94,3,11-1.49,17.68-6,17-1.37-11.99-9-15a21.893,21.893,0,0,1-13-13c-1.56-4.44-6.56-4.14-12-4s-10.25-5.68-9-11,3.23-14.02-7-14-12.47-9.05-5-10,18.77-8.88,15-13-17.36-7.78-25-11-10.08-28.54-22-27-21.44.14-16-10,0.3-19.94-10-29-20.59-15.23-8-23,19.25-21.4-3-18-17.7-2.82-13-7,20.1-11.6,14-21,3.7-18.03,11-20,9.22,1.1,10-7,4.17-13.72,8-19,8.08-23.33-2-29-23.29-7.09-23-16-7.52-11.59-18-12-31.52-6.1-21-19,14.42-15.16,15-22,7.59-8.05,14-9,19.16-2.23,26-15,25.89-1.55,29,8,15.61,18.56,22,9,18.13-15,25-15S1648.43,1602.04,1651,1603Z" transform="translate(-236.781 -237.281)"/>
    <path id="形状_20" data-name="形状 20" class="cls-1" d="M1887,1691s3.31,0.61,4,3,2.88,3.41,4,5,1.56,4.65,2,6,6.25,3.11,7,4,2.4,4.22,6,2,14.73-10.72,22-12,9.42-.68,11,3,8.7,5,12,6,9.41,5.28,12,10,7.45,12.89,10,15,6.77,7.26,3,9,2.93,3.62,5,6,5.75,7.64,9,8a18.313,18.313,0,0,0,7-1s-2.9,6.01-1,8,8.32,14.51,5,15-7.61.37-11-3-4.86,2.31-7,5-6.24,5.5-5,7,3.93,3.89-1,5-6.19,6.35-3,10,11.02,5.95,8,8-14.53,9-13,15,3.92,15.5,9,16,6.11-.65,7,3,5.89,2.04,8-1,4.72-.34,7,1,2.39-1.45,4-3,4.14,0.12,3,3-2.45,7.09,0,11,1.54,13.94-3,12-6.54-.71-4,2,6.02,11.04,3,12-3.7-.56-4-3-2.99-.72-6,2-8.49,11.64-11,10-4.17,1.94-6,0-4.28,4.13-11,5-10.47,18.67-16,13-18.34-9.68-25-7-16.99,2.67-16,9-0.64,8.25-4,5-3.99,1.67-3,5-2.18,13.55-8,11-3.02,5.74-2,9,3.67,14.4,0,13-10.76-9.23-13-4-0.07,9.72-3,8-7.02,7.09-3,9,4.29,9.04,1,6-10.29-3.91-11,1-0.44,10.83,1,13,2.34,4.57-1,6-9.13,3.63-9,7,8.55,8.95,5,8-14.56-.79-18-1-4.67.84-8-1-33.48-8.08-43-31-6.21-19.13-3-18,2.36-10.13,2-12,7.15,0.18,3-4-4.95-6.61-6-10-12.74-14.62-9-14,3.88-3.93,0-6-5.38-6.57-2-8-1.38-4.62-4-5-9.59-7.1-4-9,6.73,2.8,8,4,1.46-2.05,5-2,4,0,4,0,1.94,13.21,4,15,7.46,6.17,9,3,2.81-3.87,5-2,8.33,0.34,12-4,10.46-16.79,15-16,9.85,5.04,11,4,1.59-6-2-7-3.89-2.87-2-4,2.5-2.96,1-4,0.28-6.09,2-4,3.5,6.56,5,4,4.94-15.96,3-16a7.718,7.718,0,0,1-5-2,6.032,6.032,0,0,1-2-5c0.05-2.73-1.25-8.68-2-9s-1.2-1.75,1-4,4.15-5.54,4-9-4-9-4-9-6.17-2.48-2-8,7.75-8.99,9-11,3.35-5.13,7-6,7.6-2.11,7-4-5.46-5.42-4-9,5.84-7.13,6-9-7.78-4.9-6-8,2.55-3.33,5-2,5.72,2.08,7,0,0.61-4.61-2-8-1.28-7.96-1-9,0.46-3.18-2-6-4.98-10.56-6-14-6.79-12.41-4-14,4.96-3.46,9-3,6.45,1.34,8-1a75.568,75.568,0,0,0,6-14C1880.05,1691.23,1885.52,1688.4,1887,1691Z" transform="translate(-236.781 -237.281)"/>
    <path id="形状_21" data-name="形状 21" class="cls-1" d="M1961,1912a12.379,12.379,0,0,1,13,7c4.54,8.69,2.95,13.39-2,14s-11.04,7.85-15,1-7.04-10.53-2-13,5.29-3.58,4-5S1958.13,1909.67,1961,1912Z" transform="translate(-236.781 -237.281)"/>
    <path id="形状_22" data-name="形状 22" class="cls-1" d="M1999,1917s-6.2,3.52-3,8,4.31,9.77,6,10,8.9-4.96,7-10S2002.95,1914.31,1999,1917Z" transform="translate(-236.781 -237.281)"/>
    <path id="形状_25" data-name="形状 25" class="cls-1" d="M1809,2013s-6.05-3.86-8,4-7.3,10.67-6,14,4.09,0.72,3,6,1.54,10.63-1,13,1.23,2.58,5,4,10.37-.9,6,5-9.91,5.38-5,9,10.69,11.91,13,7,6.05-5.96,8-1,2.38,3.46,4,1,8.18-2.71,13,2,11.4,1.7,13,11,5.42,14.47,11,18,10.26,1.64,7-2,0.78-5.66-2-10-3.55-5.1-5-9,1.23-5.87-5-11-12.95-13.31-18-19-3.01-11.17-8-15-6.37-8.19-4-8-0.25-6.58-2-9-2.45-4.35-5-4-6.11.23-8-2S1813.28,2010.86,1809,2013Z" transform="translate(-236.781 -237.281)"/>
    <path id="形状_26" data-name="形状 26" class="cls-1" d="M1775,1996c-1.54-.2-5.98.6-3,2s9.34,6.52,11,7,3.42,4.78,7,5,10.45,1.3,11,0-4.09-4.34-5-5-2.16-.58-4-1-4.93-1.02-5-3-2.34-3.94-5-4A55.428,55.428,0,0,1,1775,1996Z" transform="translate(-236.781 -237.281)"/>
    <path id="形状_23" data-name="形状 23" class="cls-1" d="M2014,1936c-0.17,1.87,2.3,2.39,1,5s-3.34,5.86,4,7,16.36,6.66,16,12-4.97,4.24-8,4-6.85,1.43-8,0-7.1-4.63-6,3,0.41,13.51-3,16-5.99.32-6,6-0.15,5.22,3,8,0.07,7.28-2,8,1.8,6.95-3,5-9.89-2.21-10,1-3.44,7.24-4,10-4.22,3.88-6,3-6.29,6.56,0,9,15.08,0.98,11,5-10.35,3.92-7,8-0.64,6.95-3,7-9.5,3.39-2,10,8.47,1.57,10,6,5.04,9.3,7,4,4.61-12.04,7-4-5.57,11.41,0,11,8.02,1.53,12,3,8.99-.04,12-3,19.98-32.95,15-36-12.17-5.53-9-8,1.76-12.1-9-11-12.73,1.67-11-7,3.02-12.23,8-13,21.07-6.44,23-7-1.57-5.2-3-5,0.15-8.43,7-9,22.9-4.21,17-6-23.78-11.9-21-13,10.22,1.62,3-6-2.77-15.68-12-16-10.15-8.74-15-4-4.73,1.54-5-1S2014.21,1933.67,2014,1936Z" transform="translate(-236.781 -237.281)"/>
    <path id="形状_24" data-name="形状 24" class="cls-1" d="M2087,1985c-2,0-11.34.02-9,3s2.53,7.56,7,11,10.19,5.92,12,5,5.59-1.65,2-5-10.22-3.34-12-6-2.04-5.43,0-5S2089.34,1985,2087,1985Z" transform="translate(-236.781 -237.281)"/>
  </g>
  <g id="组_2" data-name="组 2">
    <text id="莒溪镇" class="cls-6" x="435.613" y="291.666">莒溪镇</text>
    <text id="桥墩镇" class="cls-6" x="868.615" y="475.667">桥墩镇</text>
    <text id="灵溪镇" class="cls-6" x="1267.616" y="312.668">灵溪镇</text>
    <text id="藻溪镇" class="cls-6" x="1482.614" y="496.666">藻溪镇</text>
    <text id="望里镇" class="cls-6" x="1708.615" y="429.666">望里镇</text>
    <text id="宜山镇" class="cls-6" x="1789.614" y="254.666">宜山镇</text>
    <text id="钱库镇" class="cls-6" x="1890.616" y="408.667">钱库镇</text>
    <text id="金乡镇" class="cls-6" x="2065.613" y="618.668">金乡镇</text>
    <text id="炎亭镇" class="cls-6" x="2283.613" y="498.667">炎亭镇</text>
    <text id="大渔镇" class="cls-6" x="2052.614" y="777.667">大渔镇</text>
    <text id="南宋镇" class="cls-6" x="1201.613" y="819.666">南宋镇</text>
    <text id="矾山镇" class="cls-6" x="1255.614" y="1012.668">矾山镇</text>
    <text id="凤阳畲族乡" class="cls-6" x="1505.615" y="1007.667">凤阳畲族乡</text>
    <text id="赤溪镇" class="cls-6" x="1687.615" y="1066.668">赤溪镇</text>
    <text id="马站镇" class="cls-6" x="1570.613" y="1333.667">马站镇</text>
    <text id="沿浦镇" class="cls-6" x="1503.614" y="1503.668">沿浦镇</text>
    <text id="霞关镇" class="cls-6" x="1582.615" y="1707.666">霞关镇</text>
    <text id="岱岭畲族乡" class="cls-6" x="1364.615" y="1253.666">岱岭畲族乡</text>
  </g>
</svg>
