<svg id="组_3" data-name="组 3" xmlns="http://www.w3.org/2000/svg" viewBox="0 0 2176.809 1457.998">
  <defs>
    <style>

      .cls-1, .cls-2, .cls-3, .cls-4, .cls-5, .cls-6 {
        stroke: #303254;
        stroke-width: 1px;
        stroke: #9d9d9d;
        stroke-width: 1px;
        fill-rule: evenodd;
    fill: none;
    fill-opacity: 0.35;
      }

      .cls-7 {
        font-size: 35px;
    fill: #fff;
    font-weight: 700;
    text-anchor: middle;
    font-family: "Microsoft YaHei UI";
      }
    </style>
  </defs>
  <g id="组_1" data-name="组 1">
    <path id="形状_1" data-name="形状 1" class="cls-1" d="M323,548s-5.136,19.685,12,24,44.466,19.5,55,26,111.081,76.417,118,83,88.706,64.119,122,92,77.011,56.615,94,73,98,108,98,108L991,742S868.722,638.672,838,618s-149.508-93.676-212-95-130.922.522-158,1-54.975-4.589-75,6-35.651,11.908-45,13S325.8,542.4,323,548Z" transform="translate(-321.781 -337.562)"/>
    <path id="形状_2" data-name="形状 2" class="cls-1" d="M1785,1268s-1.78-5.01,2-12c6.62-12.25,16.9-8.98,27-10,33.46-3.37,38.49-13.83,49-13s20.32,8.09,31,7,20.37-5.43,38,0,15.24-2.87,20-8,20.19-21.36,25-24,14.41-6.64,22-6,18.62-1.74,21-6,6.9-2.54,9,3,5.55,2.35,9,0,3.38,2.46,6,4,15.31,7.46,17,6,5.98-7.59,7,0-1.99,11,1,9,10.25-10.12,9-12-4.47-5.66,1-6,14.21-3.56,14-7,1.3-11.87,5-13,1.05-5.01,0-5-0.51-3.77,1-5-2-4-2-4,1.66-7.95,10-6,4.14,6.55,3,13,2.82,5.38,7-3,5.83-10.71,11-11,16.25-2.19,18,2-5.82,8.03-9,10-4.6,5.34-6,9-3.43,7.8-17,8-18.22,8.03-18,14-0.32,16.96,4,16,14.02-8.61,21-9,18.76-4.91,20-2-4.6,5.53-8,6-13.74,11.32-11,14,6.78,2.45,8-1,1.75,6.6,1,10,2.05,5.73,6,1,8.87-9.59,9-1,10.58,2.17,12,7-2.19,11.02-8,11-20.24,6.78-14,11,15.81,0.81,12,3-13.33,11.55-17,14-9.85-.28-10,4-7.86,9.02-10,12,5.81,2.33,2,8,4.15,6.08-4,13-4.75,1.04-9,3,12.62-12.89,8-14-9.95,2.94-12-1-2.54-6.69-2-9-2.69-6.87-8-4-3.68-4.56-7-6-7.35-6.31,1-8,15.23-1.77,14-6-1.87-6.94-7-5-12.73,7.34-16,7-6.18,3.27-9,5-11.51-.6-16-4-9.49.5-12,4-5.15,9.08,0,11,4,3,4,3-5.5-2.96-6,6-1.95,7.36-9,8-16.85,2.94-22,6-7.73,1.8-16,0-8,.35-7,3,2.19,6.54-1,8-5.19,8.34-5,13-8.58,3.01-11,4,8.26,6.64,6,9-10.07,4.23-12,2-1.81-7.77-9-5-5.52-1.31-7-3-4.09,3.59-7,5-3.58-2.5-6-2-0.34,6.81-3,9-4.75,8.62-11,8-1.64,3.23-2,6-3.98,1.93-8,3-4.48,6.13-4,10,2.39,18.2,3,22,3.3,14.44,3,18-15.47,14.22-23,13-9.51-.51-16,4-11.31,3.48-19,1-20.25.12-28,2-25.46,11.89-34,11-6.01-10.64-17-11-21.4,3.47-19-2,2.71-7.8-1-10-14-6.54-39,5-19,12-19,12a43.268,43.268,0,0,1-11-6c-6.26-4.51-17.33-.66-13-6s7.37-8.66-5-7-44.98,3.57-55,0-9.3-2.78,3-9,19.2-20.96,26-16,5.51,1.49,16-2,20.66-1.29,21-5-2.22-7.86-14-9-25.31-11.97-30-16,12.18-5.99,16-3,5.68-2.14,15-5,45.67-8.24,49-16,4.28-19.35,3-23,15.5-20.3,26-17,12.28,2.34,13-2S1801.08,1288.5,1785,1268Z" transform="translate(-321.781 -337.562)"/>
    <path id="形状_3" data-name="形状 3" class="cls-1" d="M1911,1188s-3.61.4-4,5,0.35,6.36-2,7,4.65,1.05,8,1,7.99-7.47,11-10,8.51-4.68,12-3,5.77,0.4,6-2,8.37-2.12,11,2,8.54,0.97,10-4,11.19-9.37,15-9,17.79-8.2,14-10-18.21-12.11-11-10,12.79-1.15,17,2,4.96,8.41,9,7,11.52-4.19,9-6,0.86-4.67,8-4,14.25-8.45,18-15,12.9-8.05,17-14-0.7-19.92-19-14-20.74,1.25-25,8-8.56,11.38-9,15-8.12,13.81-16,11-5.12-5.75-3-9,5.8-5.84,0-5-5.55-1.53-4-4-2.81-1.57-2-4-3.07-4.4-6,1-1.33-9.1-7-2-8.85,4.99-10,3-1.84,1.34-5,5-8.49,9.51-11,11,14.02-1.58,12,3-11.93,13.45-12,18-2.27-.93-3-2-15.05.93-12,8,3.47,11.01-1,13S1912.83,1187.09,1911,1188Z" transform="translate(-321.781 -337.562)"/>
    <path id="形状_4" data-name="形状 4" class="cls-1" d="M1634,1485s13.39,4.48,7,10-15.02,16.56-18,16-13-12-13-12,5.56-4.51,11-5S1630.5,1487.92,1634,1485Z" transform="translate(-321.781 -337.562)"/>
    <path id="形状_5" data-name="形状 5" class="cls-2" d="M1586,1577s-2.31-.68-8,1-8.7,3.11-11,3-8.22,6.06-8,8-6.09,1.4-4,7,4.74,7.57-1,11-4.78,6.66-1,9,3.61,14.17-3,18-15.04,4.3-16,3-4.86,1.39-9,4-4.68,6.56-7,9-8.42,4.38-4,6,7.18,6.56,9,5,4.7-2.88,6-1,5.74-.53,9-1,16.3-6.53,18,0-6.18,5.86-3,10,4.74-4.32,7-1,6.12,1.55,8,0,1.73-1.01,5,1,7.46,0.29,11,1,4.59,0.03,10-1,17.62-14.48,24-21,10.71-22.51,9-27,2.11-17.25-3-20-16.59.15-18-8,2.9-9.59-2-11-1.84-6.37-2-8-7.23-3.72-11-1A41.72,41.72,0,0,0,1586,1577Z" transform="translate(-321.781 -337.562)"/>
    <path id="形状_6" data-name="形状 6" class="cls-2" d="M1841,1733c-4.31-3.02-7.49,8.83-10,12s-6.43,3.9-10,3-7.65,9.91-9,12,7-2.59,8-4,3.72,0.2,2,6,2.79,6.42,0,7-9.79,11.14-7,13,5.07-2.2,5,5,1.94,7.73,7,8,10.37-.28,12-5,3.16-4.99,4-2,7.82,1.43,12-1,12.04-1.86,14-5,13.63-12.51,16-13-2.66-2.37-3-5,0.39-14.17-8-15-13.18-.96-14-5,1.45-9.33-7-9S1844.57,1735.5,1841,1733Z" transform="translate(-321.781 -337.562)"/>
    <path id="形状_7" data-name="形状 7" class="cls-2" d="M1901,1750c-3.11,4.28-7.93,9.71-8,15s0.67,15.76,3,17,3.31,3.04,3,7,2.43,1.76,7-2,6.24-2.56,9-1,5.2-2.88,11-3,11.21,3.96,13,3,2.32-6.36-1-6-0.52-4.4-3-4-6.6,3.31-4-3,4.48-9.57,3-11-0.27-3.74,2-6,0.32-9.38-5-6-14.24,1.47-15,8,0.15-4.86-3-6S1903.88,1746.04,1901,1750Z" transform="translate(-321.781 -337.562)"/>
    <path id="形状_8" data-name="形状 8" class="cls-2" d="M1894,1691c-3.84,1.65-9.36,5.14-12,14s5.09,1.46,14,3,15.25-6.19,11-7,3.1-2.51,5-4,1.61-4.91-4-5S1896.52,1689.92,1894,1691Z" transform="translate(-321.781 -337.562)"/>
    <path id="形状_9" data-name="形状 9" class="cls-2" d="M1845,1678c-0.81,5.53-7.62,5.08-12,5s-6.46,1.85-11,7-3.98,11.9-3,15-13.3,14.62-4,13,14.06-6.71,16-11-2.21,10.22,4,8,5.47-3.9,8,0,13.75,3.82,13-1,14.4,0.01,16-6,8.16-5.07,11-14,15.24-19.07,4-14-12.32,5.04-17,2-10.17,5.96-13,2-7.01-6.72-6-12S1847.88,1658.21,1845,1678Z" transform="translate(-321.781 -337.562)"/>
    <path id="形状_10" data-name="形状 10" class="cls-2" d="M1837,1523c-4.43,4.98-7.05,12.83-14,12s-20.41-3.42-18,5,14.2,1.26,15,7,13.91,8.88,8,14-20.96,16.9-13,19,4.84,8.91,1,15,10.52,6.88,15,8,9.2-10.55,9-14,2.11-17.21,7-14,11.22-4.82,10,2,1.91,11.38,12,5,18.02-10.78,16-17-2.77-4.99,3-11,17-16.83,17-22,10.5-15.95,10-22-0.89-20.2,6-25,12.36-9.5,12-16,11.25-10.12,13-15,9.71-20.87,4-20-21.95,17.18-27,25-11.8,24.91-19,25-19.25,16.14-21,12,2.27-19.91-6-9-7.77,13.32-5,16S1840.45,1519.11,1837,1523Z" transform="translate(-321.781 -337.562)"/>
    <path id="形状_11" data-name="形状 11" class="cls-2" d="M2037,1294s12.52,6.7,14,11,3.41,9.16,7,7,9.97-2.83,10,3,10.3,1.26,12,1,1.83,3.27-4,7-27.67,17.36-26,21,4.25,4.36-2,4-6.17,4.95-5,9,7.84,3.44,10,2,0.01,2.96-2,8-2.86,8.05,4,4,16.51-14.21,20-9-7.77,9.26-13,13-19.92,12.73-17,14,6.13,1.1,6,4,6.56,5.84,0,10-19.81,14.7-3,16,17.27-1.01,22-2,19.06-4.23,19-1-7.28,13.03-16,21-33.74,24.22-40,24-11.18-2.75-11-11,4.15-9.85-4-12a37.755,37.755,0,0,1-15-8c-1.19-1.12,5.01-7.35,7-10s-6.88-5.13-7,0-5.67,12.3-10,13-11.67,2.29-8-4-1.48-9.96-4-10-12.41-3.92-8-6,2.83-6.02,0-7-2.73,4.82-6,5-5.1-3.52-7-1-6.64,5.04-4,7,2.93,6.56-7,6-11.9-2.76-14-3-11.69,4.77-14,2-4.97-2.73-9,1-7,3-7,3-2.89-13.65-4-19-4.48-20.68-3-25,1.87-8.25,5-8,7.64-.61,7-3-2.41-4.59,2-5,9.55-4.34,10-6,1.72-9.66,3-11,4.06,3.12,7,2,5.22-7.06,7-5,1.37,4.93,5,4,5.72-4.5,8-1,6.21,8.52,12,5,2.86-5.06,1-6-6.98-5.23-2-5,10.26-.89,9-7,2-6.83,4-9,3.98-5.28,2-9-0.7-4.7,8-3,10.97,2.26,15,0,13.7-5.45,26-6c3.04-.14,4.94-2.36,5-7S2031.95,1294,2037,1294Z" transform="translate(-321.781 -337.562)"/>
    <path id="形状_12" data-name="形状 12" class="cls-2" d="M2310,1387s-23.29,17.12-30,20-4.38,2.91-12,1-25.24-1.75-17,5,14.32,12.23,9,15-4.4,11.31,9,4,21.34-13.65,28-12,22.58,3.54,15-5-9.36-9.69-6-15S2315.7,1387,2310,1387Z" transform="translate(-321.781 -337.562)"/>
    <path id="形状_13" data-name="形状 13" class="cls-2" d="M2259,1444s-0.36,6.35-5,7-8.53-.62-10,4-10.05,4.44-5,7,9.36,6.1,11,3,3.62-7,7-6,6.83-4.09,7-8S2272.67,1439.44,2259,1444Z" transform="translate(-321.781 -337.562)"/>
    <path id="形状_15" data-name="形状 15" class="cls-3" d="M1952,922c-6.82.705-14.62,6.578-17,7s-2.4-1.527-1-5,3.16-7.275-8,0-12.31,6.131-18,9-12.35,3.131-18,3-4.26-1.1-6-5,11.77-8.757,0-8-16.39-1.2-17,5-0.94,6.395-6,4-12.26-2.223-12,5-1.31,5.524-7,7-7.33.324-4,8-4.79,8.677-7,4-5.66-12.006-15-5-24.9,5.388-19,11,7.05,12.87,0,13-9.34-.13-13,0-15.14,7.992-22,15a54.127,54.127,0,0,0-10,14l20,31,7,5s-2.2,10.55-17,15-28.9,1.24-34,15-24.75,31.44-33,36-11.63,12.33-14,17-19.42,13.42-18,16,5.62,2.06,8,0,13.91-3.67,10,1-6.14,11.17,1,9,17.21,5.51,25,6,29.56-7.65,40-11,122-42,122-42,8.59,3.65,9,2-7.26-5.87-6-9,10.54-27.24,14-27,7.58-10.23,8-13-7.46-9.23-8-12,4.06-7.13,9-8,10.01-.18,11-1,7.67-12.6,7-13-10.37-1.02-16-3-16.74-3.55-19-4-2.69-4.87,0-8,7.21-2.78,8-4,4.16-3.731,6-2,9.77,3.7,12,3,11.29-3.013,10-5-2.03-2.33,0-5,0.84-4.533-2-3-7.38,3.278-7,0,8.51-8.475,9-10,3.9-6.572,4-8-2.94-2.008-4,0-5.97.369-6-2-2.52-4.312-3-6,0.34-5.1-5-3-10.8-.269-13,2,8.82-7.651,11-9,0.16-4.314-1-5,4.96-8.582,9-7,8.7-1.47,11-3,10.74-5.625,15-2,3.37,4.178,5,4,7.11-3.85,9-3,10.19-4.2,9-7,3.11-6.218,5-5-1.89-2.824-4-1-2.91-.2-2-1S1955.28,921.66,1952,922Z" transform="translate(-321.781 -337.562)"/>
    <path id="形状_16" data-name="形状 16" class="cls-3" d="M1909,1077s4.49-2.94,7-3,4.35-4.73,5-2a2.22,2.22,0,0,0,4,1c0.77-1.02,6.28-2.44,5,2s-7.54,5.01-5,6,3.78,6.34,1,7,0.69,3.88,2,6-3.26,5.45-5,3-4.18-1.05-6,1-10.83,6.15-13,4-1.39-9.42-6-5-4.84.52-6,1-8.37.86-8-1,0.74-3.16-2-3,0.57-5.56,5-8,12.58-9.36,14-11S1907.82,1072.29,1909,1077Z" transform="translate(-321.781 -337.562)"/>
    <path id="形状_17" data-name="形状 17" class="cls-3" d="M1905,1060c0.48,0.89,3.82,2.39,1,4s-4.22,5.68-10,6-4.2-1.65,1-4,6.41-3.72,6-5S1903.82,1057.84,1905,1060Z" transform="translate(-321.781 -337.562)"/>
    <path id="形状_18" data-name="形状 18" class="cls-3" d="M1764,837s-19.91,9.165-25,12-7.77,4.955-11,1-7.19-.1-11,3-19.79,12.4-15,14,8.91,0.748,7,3,2.29-1.471,4,1-6.26,5.778-7,9-0.39,6.512-3,7-3.25,1.588-4,5-4.07,2.151-5,4-2.9,7.275-1,7,11.3-1.459,13-3,5.35,0.97,2,2-3.7,3.18-2,5,1.69,9.248,2,13,6.11,4.9,9,6,4.41-3.352,7-6,7.01-2.61,8-4,3.69-8.82,6-8,5.73-1.506,6-4-1.75,7.047,2,7,6.59-4.545,7-9,2.66-14.8,9-11,5.01,3.932,4,6,8-3.136,7-8-6.47-6.7-8-7-7.82-3.32-3-14,2.76-11.187-2-12-3.87-5.4,3-6,11.74-10.332,9-14S1763.7,837.305,1764,837Z" transform="translate(-321.781 -337.562)"/>
    <path id="形状_19" data-name="形状 19" class="cls-4" d="M1312,1160c-0.87,4.34.15,11.12-10,8s-15.79-4.74-21-5-26.08-12.98-21-1,6.49,21.53,9,28,8.85,27.98,3,29-9.44,6.33-13,1-16.3-1.69-11,8,8.38,18,13,20,4.12,25.01-5,21-18.1-12.79-27,9,7.62,17,9,21,7.27,1.77,7-3,11.7,16.54,10,19-12.3,5.51-7,8,13.77,8.94,9,10-5.69,7.45,2,8,6.06-2.52,5-5,12.1,5.86,9-5-0.54-14.96,3-18,10.21-16.84,5-26-2.99-16.59,5-11,11.97,4.44,14,1,2.76-14.14,4-12,7.52-6.2,10,6,7.6,12.37,12,8-7.58-13.35-4-11,5.99-6.21,8-3,6.67-2.89,3-6-7.29-16.58-2-16,18.39,1.11,18,7,7.4,12.64,11,9,3.16-17.4,9-14,8.6-6.58,19-4,12.97-4.61,24,3,17.19,8.78,20,9,11.38,7.36,17,7,26.35-6.38,20,6-12.93,33.2,0,26,11.46-9.56,13-14,12.79,4.83,16,1,8.04-15.68,0-21-24.13-9.27-11-18,31.13-21.6,39-24,20.83-15.59,28-28,15.3-20.77,19-19,6.02-4.38,7-8,7.24-4.1,10-6,7.72-15.57-6-9-35.84,9.4-47,12-22.85,3.85-32,15-26.02,12.88-39,8-46.07-11.71-48-19-8.15-23.29-12-26,7.49-12.78-3-23-24.25-19.67-42-12-29.12.25-32-3-15.48-5.74-14,3-2.63,17.37-7,16-4.91,6.27,5,7,3.2,13.72,2,19S1312.87,1155.66,1312,1160Z" transform="translate(-321.781 -337.562)"/>
    <path id="形状_20" data-name="形状 20" class="cls-2" d="M1471,512s-30.32,37.611-51,47-31.87,7.17-29,11-1.55,14.284-4,11-6.67-11.711-10-4-13,1-13,1-24.13,16.967-22,20,7.31,13.972,2,12-18.35,12.987-13,16,27.1,5.328,24,10-22.02,7.12-18,16,21.1-2.88,18,3-15.35,19.58-10,24,11.1-3.2,9,1,12,2,12,2,16,7.927,13,14,15.58-10.984,23-18,17.71-26.32,25-19,10.72,2.67,23-2,19.5-8.212,19-1,4.19-4.548,17-1,17.2,4.224,22,0a73.719,73.719,0,0,1,6-5l84,33s-9.08,9.041-4,16,14,24,14,24,21.71-5.831,20,1,0.83,12.61,5,7,10.17-13.177,13-16,2.41-24.182,17-17,10.99,12.489,18,11,9.06-9.2,16-8,8.25,7.684,16,4a42.815,42.815,0,0,0,13-10s4.45,5.878,10,3,20.84-15.157,32-13,16.65,2.692,17-2,11.06-18.653,15-13,4.08-.379,6-4,11.99-3.3,22-7,24.72-17.291,24-22-12.59-13.822-4-19,6.58-15.017,14-7,2.79,12.267,4,17,4.42-1,11-3,10.57-7.273,13,2,1,14,1,14,4.62,1.807,9-5,6.56-17.459,11-17,15.98-6.282,8-8-18.76-.034-22,2-3.26-2.5-9-2-12.27,1.665-11-6-0.25-11.22-9-9-37.28,6.594-27-4,25.52-7.867,21-11-1.87-13.592,3-15-4.32-7.035-13-4-23.21,6.08-29,5-32.44-1.894-20-11,34-29,34-29,4.66-5.965-10-1-47.45,15.053-43,12,23.9-19.018,29-19-7.49-7.982-20,0-18.19-.938-20-4,1.4-12.336,4-15,0.04-5.16-2-9,1.86-13.594,5-20-1.89.053-8,7-13.12,1.672-24-1-20.08-5.735-23,0,2.42,7.628-6,10-19.91,17.469-27,17,0.18-.452-5-4-25.15,1.106-28-1-13.67-8.531-16-2,8.76,0.6,1,6-18.06-2.142-18-7,11.25-8.965,3-12-15.61,2.2-21,6-2.63,7.814-6,12-26.77,15.867-31,16-3.6-7.035-9-5a12.158,12.158,0,0,0-7,7s-25.76,10.575-30,9-4-9.363-7-11-14.53-5.319-5-11-2.22-9.682,1-11,8.62-18.08,13-17,7.85-11.806,7-12-11.48-1.08-19,6-11.65,13.4-16,14-15.49-4.071-17,8S1473.65,508.018,1471,512Z" transform="translate(-321.781 -337.562)"/>
    <path id="形状_21" data-name="形状 21" class="cls-2" d="M1441,381s-6.82,1.246-20,8-78.66,43.706-78,52,5.13,7.954,4,11-0.89,20.388-3,23-8.09,8.751-2,9,48.41-4.975,58-9,13.49-13.816,33-16,24.39-2.966,35-7,49.85-27.029,57-35,24.78-22.082,33-21,26.54-14.764,28-21,1.78-13.781-9-12-8.98-4.95-7-8,3.72-18.7-6-8-27.91,20.626-27,15-6.3-13.967-10-14,1.68-9.348-3-10-10.77,12.281-21,14-19.84,9.2-23,9-3.34-6.436-9,0-5.72,6.449-11,6-5.2.945-9,6A30.654,30.654,0,0,1,1441,381Z" transform="translate(-321.781 -337.562)"/>
    <path id="形状_22" data-name="形状 22" class="cls-4" d="M2074,438c0,3.353-13.32-8.6-25,14a188.66,188.66,0,0,0-16,44s8.98-5.871,12-10,7.69-1.575,6,1-18.73,26.6-10,27,16.71-14.555,20-12,13.44,3.741,12,7-7.01,11.325-10,12,6.01,3.037,9,1,7.88,1.049,11,4,11.73,6.925,4,12-6.11,10.8-2,15,2.45,9.24-1,11-12.27,6.4-10,9,1.31,10.252,5,6,9.75-13.468,14-11,8.32,10.116,5,11,2.91,7.116,6,4,8.64-2.464,11-6-3.07-8.184,2-8,21.53-22.651,24-26,11.41-17.531,17-19,4.1-7.815-2-4-19.37,5.946-22,4-8.42-6.113,5-9,19.7-5.8,17-8-13.02-5.173-14-5,7.25-4.618,16-5,15.47-1.233,20-3,7.28-3.788,10,0,8.18,10.412,17,9,15.49-5.173,18-3,11.24-3.063,6-6-17.44-6.2-9-11-4.06-7.153-6-7-2.93-5.814,4-4,10.39,1.508,11,4,2.09,5.953,5,7,8.27-3.937,11-7,7.08-5.043,9-8,11.5-4.365,7-6-9.5-4.027-7-4-0.24-4.073,8-1,11.37-3.365,12,0,1.42,5.864,0,9-5.06,7.894,1,8,1.6-1.429,5-3,17.16-8.2,23-10,14.65-4.309,17-4,4.89-7.973,12-10,20.43-10.8,25-11,9.53,3.045,8,0,5.83-2.434,8-1,8.13-1.313,8-5-2.18-9.661-1-13,5.15-3.508-3-2-21.4,8.381-23,7,1.69-3.977,4-6,4.04-7.884-6-1-9.02,8.167-7,8-27.13,14.678-29,12-0.68-10.14,6-14,13.75-8.875,8-7-16.54,1.371-17,7-4.57,8.566-9,12-7.84,11.2-21,7-21.66-4.22-25-5-24.4-9.508-27-14-4.85-12.14-11-8-16.78,14.278-17,10,4.22-11.917,2-13-18.58,6.869-24,4,9.6-9.633,10-14-4.03-3.754-17,1-32.49,15.144-27,9,23.55-30.451,18-30-12.87,1.9-16,7-13.48,7.157-19,11-10.89,10.414-17,12-20.53,4.413-29,15S2074,434.435,2074,438Z" transform="translate(-321.781 -337.562)"/>
    <path id="形状_23" data-name="形状 23" class="cls-5" d="M2367,1341v-3l2-2,1-3h5l2,2,1,4-4,1-4,3-2-1Z" transform="translate(-321.781 -337.562)"/>
    <path id="形状_24" data-name="形状 24" class="cls-5" d="M2382,1309l-5-1v-2l1-3,3-1,2,2,2,2,1,2,1,1-1,2h-7l1-1Z" transform="translate(-321.781 -337.562)"/>
    <path id="形状_25" data-name="形状 25" class="cls-5" d="M2405,1334l1,2h3l2-1,4-2v-2l-3-1s-1.68.35-2,1a11.1,11.1,0,0,1-2,2h-2Z" transform="translate(-321.781 -337.562)"/>
    <path id="形状_26" data-name="形状 26" class="cls-5" d="M2440,1329l-6,3-2,1,1,3,2,2,6,3s8.29,2.59,9,3,0,2,0,2l3,1,5-1v2l-1,3h5l2-2v3h2l1-2-1-1,1-4a1.127,1.127,0,0,0,0-1,36.582,36.582,0,0,0-3-3l-2-2h2v-2h-3l-2-1-5-3-5-1h-6l-2-2Z" transform="translate(-321.781 -337.562)"/>
    
  </g>
  <g id="组_2" data-name="组 2">
    <text id="北岙" class="cls-7" x="1577.783" y="937.754">北岙</text>
    <text id="东屏" class="cls-7" x="1615.783" y="1049.755">东屏</text>
    <text id="霓屿" class="cls-7" x="1097.783" y="897.755">霓屿</text>
    <text id="元觉" class="cls-7" x="1483.784" y="696.755">元觉</text>
    <text id="大门镇" class="cls-7" x="1226.784" y="317.756">大门镇</text>
    <text id="鹿西乡" class="cls-7" x="1755.785" y="143.755">鹿西乡</text>
    <text id="灵昆" class="cls-7" x="359.785" y="334.755">灵昆</text>
  </g>
</svg>
