<svg id="组_517" data-name="组 517" xmlns="http://www.w3.org/2000/svg" width="800" height="600" viewBox="0 0 800 600">
  <defs>
    <style>
      .cls-1 {
        fill: #276afb;
      }

      .cls-1, .cls-2, .cls-3, .cls-4 {
        stroke: #fff;
        stroke-width: 2px;
        fill-rule: evenodd;
      }

      .cls-2 {
        fill: #21cc99;
      }

      .cls-3 {
        fill: #fba927;
      }

      .cls-4 {
        fill: #fb2727;
      }

      .cls-5 {
        font-size: 16px;
        fill: #fff;
        font-family: "Source Han Sans CN";
        font-weight: 700;
      }
    </style>
  </defs>
  <g id="地图">
    <path id="形状_634" data-name="形状 634" class="cls-1" d="M343.056,112.542l-2.3,2.3-3.446-1.149-3.446,4.595-5.744,3.446-3.447-1.148-3.446,2.3h-6.892l-5.744-10.338-6.893,2.3-6.893,6.892,1.149,6.893-10.339,4.595-9.19-3.446h-9.19l-6.893-2.3-4.6,10.338h-2.3l-6.893,8.042-6.893,1.149-2.3,3.446-4.595,1.149L228.18,156.2l-8.042,2.3h-2.3l-2.3-2.3v-3.447l-8.041-5.743L197.163,151.6l-9.19,10.338-5.744,2.3-6.892-2.3-3.447,6.893,2.3,3.447-4.595,13.785-2.3,1.148-4.595-5.744h-5.744l-1.149,5.744-11.487-2.3-3.447-2.3-2.3,1.149-3.447-3.446H124.791l-3.447-3.446H117.9l-9.19-5.744-6.893,3.446-3.446,5.744h-4.6l-2.3-4.595-4.6,1.149-6.893-2.3-5.744-5.744-6.893-2.3-2.3-8.042-3.446,1.149-5.744-2.3-1.149,2.3-2.3-5.744-8.041,3.446v3.447l-6.893,5.744H34.038l-6.893,6.892L21.4,174.575l1.149,8.041-2.3,4.595,4.6,16.083-2.3,4.595,4.595,3.447,3.447,10.338,9.19,2.3,2.3,5.744-3.446,1.149-3.446,5.744L7.616,248.1l-1.149,3.447,4.6,4.595,4.6-2.3,3.446,2.3h9.19v4.6l-3.446,4.595v5.744h-4.6l-3.446,4.595,3.446,20.678H23.7l4.595,5.743L26,306.683v2.3l4.595,3.446-2.3,6.893,3.447,2.3h9.19l2.3,2.3,1.149-2.3,2.3,1.149,6.893-5.744h3.447l6.893-6.892,2.3,2.3v5.744l6.892-2.3,4.6-4.6,6.892-1.149-3.446,6.892,3.446,1.149,3.446,4.6,3.446-1.149,1.149,2.3h5.744l10.339-3.446,8.041,1.148,2.3,1.149L117.9,328.51l3.446,9.19,5.744-1.149L133.981,340l1.148,2.3,9.191,3.446,8.041-1.148,6.892,3.446,8.042-1.149,2.3,2.3,1.148,2.3,4.6,8.042,4.594-3.446-2.3-19.53-3.446-5.743,2.3-3.447,5.744-2.3,2.3,2.3,2.3-1.149,5.744-5.743,4.595,3.446-1.149,2.3,4.595,4.6,2.3-2.3,2.3,1.149,5.744-5.744h2.3l8.041,2.3,11.488,6.893,1.149-2.3,6.892-2.3,8.042,3.446,3.446-10.339V305.535l-4.595-8.042,5.744-3.446-2.3-2.3,1.149-4.6,3.446-2.3-2.3-3.446,8.041-4.6,3.446-6.892-6.892-3.447-2.3-4.6,2.3-2.3,13.785-3.446,2.3,2.3,2.3-1.149,3.446,2.3,2.3-8.041h9.19l4.595-12.637,4.6-1.149,5.744-4.595,4.6-1.148,4.595,4.595-1.148,10.338,10.338,4.6,2.3,9.19h2.3l1.149,6.892,2.3,1.149,11.487-4.6,16.083,16.083,19.529,5.743,3.446-3.446,9.191,5.744,4.595-1.149,1.148-8.041,3.447,1.149v-3.447l5.744-3.446,4.6-9.19,3.446-1.149,3.446-4.595v-6.892l9.191-9.191-1.149-5.743-5.744-4.595,3.446-11.488,8.042-8.042,2.3-6.892-2.3-2.3,1.148-6.892-9.19-1.149-6.892,2.3v-6.892l3.446-3.447-2.3-9.19-9.19,6.893-3.446-1.149,1.149-12.636,2.3-2.3-1.149-6.893-3.446-1.148-2.3-5.744-10.338-10.339h-4.6l-3.447-3.446,3.447-2.3-9.191-3.446-3.446,3.446h-3.446l-14.934-9.19-3.446,2.3-1.149-2.3-2.3,1.149,1.149,2.3-5.744-2.3v2.3l-5.744,4.595-3.446-1.149,1.149-3.446-2.3-3.446,3.447-1.149-2.3-6.893,2.3-2.3,2.3,1.149-1.149-2.3h2.3l1.148-5.743M170.741,351.485l4.595,8.042,4.595-3.446-2.3-19.53-3.446-5.743,2.3-3.447,5.744-2.3,2.3,2.3,2.3-1.148,5.744-5.744,4.595,3.446-1.149,2.3,4.595,4.595,2.3-2.3,2.3,1.149,5.744-5.744h2.3l8.041,2.3,11.488,6.892,1.149-2.3,6.892-2.3,8.042,3.446,3.446-10.339V305.535l-4.595-8.042,5.744-3.446-2.3-2.3,1.149-4.6,3.446-2.3-2.3-3.446,8.041-4.6,3.446-6.892-6.892-3.446-2.3-4.6,2.3-2.3,13.785-3.446,2.3,2.3,2.3-1.149,3.446,2.3,2.3-8.041h9.19l4.595-12.637,4.6-1.149,5.744-4.595,4.6-1.149,4.595,4.6-1.149,10.338,10.339,4.6,2.3,9.19h2.3l1.149,6.892,2.3,1.149,11.487-4.6,16.083,16.083,19.529,5.744,3.447-3.447,9.19,5.744,4.595-1.149,1.148-8.041,3.447,1.149v-3.447l5.744-3.446,4.6-9.19,3.446-1.149,3.446-4.595v-6.892l9.191-9.191-1.149-5.743-5.744-4.6,3.446-11.487,8.042-8.042,2.3-6.892-2.3-2.3,1.148-6.892-9.19-1.149-6.892,2.3v-6.892l3.446-3.447-2.3-9.19-9.19,6.893-3.446-1.149,1.149-12.636,2.3-2.3-1.148-6.893-3.447-1.148-2.3-5.744-10.339-10.339h-4.6l-3.447-3.446,3.447-2.3-9.191-3.446-3.446,3.446h-3.446l-14.934-9.19-3.446,2.3-1.149-2.3-2.3,1.149,1.149,2.3-5.744-2.3v2.3l-5.744,4.595-3.446-1.148,1.149-3.447-2.3-3.446,3.447-1.149-2.3-6.892,2.3-2.3,2.3,1.149-1.149-2.3h2.3l1.149-5.744-2.3,2.3-3.446-1.149-3.447,4.595-5.743,3.447-3.447-1.149-3.446,2.3h-6.893l-5.743-10.339-6.893,2.3-6.893,6.893,1.149,6.892-10.339,4.595-9.19-3.446h-9.19l-6.893-2.3-4.6,10.339h-2.3l-6.893,8.042L239.667,147l-2.3,3.447-4.595,1.149L228.18,156.2l-8.042,2.3h-2.3l-2.3-2.3v-3.447L207.5,147l-10.339,4.6-9.19,10.338-5.744,2.3-6.893-2.3-3.446,6.893,2.3,3.446-4.6,13.786-2.3,1.148-4.595-5.743h-5.744l-1.149,5.743-11.487-2.3-3.447-2.3-2.3,1.149-3.447-3.446H124.791l-3.447-3.446H117.9l-9.19-5.744-6.893,3.446-3.446,5.744H93.774l-2.3-4.595-4.595,1.149-6.893-2.3-5.744-5.744-6.892-2.3-2.3-8.042-3.446,1.149-5.744-2.3-1.149,2.3-2.3-5.744-8.041,3.446v3.447l-6.893,5.744H34.038l-6.893,6.892L21.4,174.575l1.149,8.041-2.3,4.595,4.6,16.083-2.3,4.595,4.595,3.447,3.446,10.339,9.19,2.3,2.3,5.744-3.446,1.149-3.446,5.744L7.616,248.1l-1.149,3.447,4.6,4.595,4.6-2.3,3.446,2.3h9.19v4.6l-3.446,4.595v5.744h-4.6l-3.446,4.595,3.446,20.678H23.7l4.6,5.743L26,306.683v2.3l4.595,3.446-2.3,6.893,3.446,2.3h9.19l2.3,2.3,1.149-2.3,2.3,1.149,6.893-5.744h3.446l6.893-6.892,2.3,2.3v5.744l6.892-2.3,4.6-4.6,6.893-1.149-3.446,6.892,3.446,1.149,3.446,4.6,3.446-1.149,1.149,2.3h5.744l10.339-3.446,8.041,1.148,2.3,1.149L117.9,328.51l3.446,9.19,5.744-1.149L133.981,340l1.148,2.3,9.191,3.447,8.041-1.149,6.893,3.446,8.041-1.149,2.3,2.3Z"/>
    <path id="形状_635" data-name="形状 635" class="cls-2" d="M370.032,52.1L365.437,56.7l-3.446-1.149,6.892,25.273v4.6l-2.3,2.3,2.3,2.3-3.446,10.339-3.446,2.3,6.892,13.785-10.339,8.041-1.148,4.6,14.934,9.19,6.892-3.447,9.19,3.447-2.3,2.3,2.3,3.446h4.6l10.339,10.339,2.3,5.744,3.446,1.149,1.149,6.893-2.3,2.3-1.148,12.637,3.446,1.148,9.19-6.892,2.3,9.19-3.447,3.446v6.893l6.893-2.3,9.19,1.149-1.149,6.893,2.3,2.3-2.3,6.893-8.041,8.041-3.446,10.339,2.3,4.595,3.446,1.149,1.149,5.744,17.232-8.042,3.446,2.3,5.744-2.3,5.744,2.3,2.3,4.595-1.148,6.893,1.148,2.3h3.447l3.446-4.595,9.19-3.446,2.3,1.149,6.892-3.447,5.744-6.892-1.149-6.893,4.6-1.149-4.6-4.595,3.447,2.3,2.3-1.149-1.149-3.446,9.19-3.447,2.3-4.595h3.446l2.3-6.892v-5.744l-1.149-2.3h-2.3l2.3-6.892-1.149-5.744-2.3-2.3-6.893,2.3-4.595-8.042,1.149-5.743-2.3-2.3,4.595-1.149-2.3-6.892h11.488l6.892-3.447,6.893,8.042-1.149,2.3,2.3,2.3,1.149-2.3h3.445v-2.3l3.447-2.3,3.446,3.447H541.2l6.892-3.447-3.446-9.19V126.773l8.041-12.637-1.148-20.677L541.2,94.607l-2.3,2.3-8.042-5.744,1.149-3.446-12.636-1.149-4.595,11.488v6.892l3.446,5.744v4.595l-2.3,1.149,1.148,2.3-8.041,1.149-1.149-3.446H496.4l-3.447-4.595-6.892-1.149h-3.447l-4.595,6.893h-4.6l-3.446-3.447v-2.3l-6.893-1.149-2.3-6.892-2.3-1.149-5.744,3.446-3.446-2.3-4.6,1.148-8.041-2.3,1.148-4.6,2.3-1.149-6.893-3.446L427.47,83.12l-1.148,2.3-4.6,1.149-6.893-6.892-9.19,2.3L390.71,76.227l2.3-1.149V67.037l2.3-4.6-1.149-2.3L376.925,59,370.032,52.1m174.613,89.6V126.773l8.041-12.637-1.148-20.677L541.2,94.607l-2.3,2.3-8.041-5.744,1.148-3.446-12.636-1.149-4.595,11.488v6.892l3.446,5.744v4.595l-2.3,1.149,1.148,2.3-8.041,1.148-1.149-3.446H496.4l-3.447-4.595-6.892-1.149h-3.447l-4.595,6.893h-4.6l-3.446-3.447v-2.3l-6.893-1.149-2.3-6.892-2.3-1.149-5.744,3.446-3.446-2.3-4.6,1.148-8.041-2.3,1.148-4.6,2.3-1.149-6.893-3.446L427.47,83.12l-1.148,2.3-4.6,1.149-6.893-6.893-9.19,2.3L390.71,76.227l2.3-1.149V67.037l2.3-4.6-1.149-2.3L376.925,59,370.032,52.1l-4.595,4.6-3.446-1.149,6.892,25.273v4.6l-2.3,2.3,2.3,2.3-3.446,10.339-3.446,2.3,6.892,13.785-10.339,8.041L357.4,129.07l14.934,9.191,6.892-3.447,9.19,3.447-2.3,2.3,2.3,3.446h4.6l10.339,10.339,2.3,5.744,3.446,1.149,1.149,6.893-2.3,2.3-1.148,12.637,3.446,1.148,9.19-6.892,2.3,9.19-3.447,3.446v6.893l6.893-2.3,9.19,1.149-1.149,6.893,2.3,2.3-2.3,6.893-8.041,8.041-3.446,10.339,2.3,4.595,3.446,1.149,1.149,5.744,17.232-8.041,3.446,2.3,5.744-2.3,5.744,2.3,2.3,4.595-1.149,6.893,1.149,2.3h3.447l3.446-4.595,9.19-3.446,2.3,1.149,6.892-3.447,5.744-6.892-1.149-6.893,4.6-1.149-4.6-4.595,3.447,2.3,2.3-1.149-1.149-3.446,9.19-3.447,2.3-4.595h3.446l2.3-6.892v-5.744l-1.149-2.3h-2.3l2.3-6.892-1.149-5.744-2.3-2.3-6.893,2.3-4.595-8.041,1.149-5.744-2.3-2.3,4.595-1.149-2.3-6.892h11.488l6.892-3.447,6.893,8.042-1.149,2.3,2.3,2.3,1.148-2.3h3.447v-2.3l3.446-2.3,3.446,3.447H541.2l6.892-3.447-3.446-9.19v-9.19Z"/>
    <path id="形状_636" data-name="形状 636" class="cls-1" d="M311.742,232.716l-9.19,3.446-1.149,2.3h-3.446l-4.595,9.19,1.149,3.446H284.172l-3.447,9.19-8.041-3.446L258.9,260.286l-2.3,2.3,2.3,4.595,5.744,3.446v3.447l-2.3,3.446-8.041,4.6,4.595,4.6,5.744-1.149,2.3,6.893,4.6-3.446,5.744,3.446h4.6l3.446,3.446-1.148,8.041,2.3,3.447-4.595,8.041v4.595l2.3,2.3,6.892-2.3,8.042,4.6-1.149,12.637,3.446,2.3,6.893-3.446,4.6,3.446,10.339,2.3V345.3l4.595,1.149,3.446,8.041,3.447,1.149,1.149,8.041,2.3,1.149,8.041-3.446,4.6,1.149,1.148,3.446h2.3l1.148,2.3v13.786l3.447,3.446h3.446l8.042,10.339,10.339-5.744,5.743,1.149,18.381-2.3,8.041-3.447,3.446,1.149,2.3,5.744,10.339,12.636,5.744,1.149,8.041-3.446,1.149,1.148-2.3,8.042v10.339l-5.744,1.148-3.446,8.042,4.6,9.19L445,441.792l5.743,4.6,8.042,2.3v2.3l10.339-5.744,4.595,1.149,5.744-5.744h2.3v3.446l5.744,3.447,6.893-2.3,2.3-3.446,6.893-3.447V432.6l2.3-2.3-2.3-10.339,3.446-6.892,11.488,1.148,4.6-3.446,5.744,5.744h2.3l2.3-3.446-1.149-3.447,4.595-6.892-3.446-1.149,1.149-2.3-11.488-14.934v-2.3l3.446-3.446v-5.744l-2.3-2.3,1.149-2.3,6.893-3.446-1.149-3.446,2.3-2.3-4.6-5.743,4.6-4.595L534.6,338.4l-2.3-1.149,4.595-1.149,5.744-4.6,5.744-14.934-1.149-9.19-4.6-2.3,5.744-6.892-2.3-1.149,2.3-2.3-1.149-5.743,4.6-3.447-6.892-5.744-4.6,8.042-9.19,2.3h-5.744l-6.892-3.446-2.3-3.446-6.892,3.446v-3.446l-5.744-1.149v-2.3l-3.447-3.446-1.148,1.149-1.149-4.595H490.95l6.893-17.232V243.055l-1.149-2.3-6.893-1.149-1.148,1.149L481.76,244.2l-2.3-1.149-5.744,3.446h-3.446l-3.447,4.595-4.6-2.3,1.149-6.893-3.447-5.744-4.595-1.149-4.6,2.3-4.595-2.3-13.785,5.744-12.636,11.488v6.893l-2.3,4.6-4.595,1.148-4.6,9.191-4.595,2.3-1.149,3.446h-2.3l-2.3,6.893-3.446,2.3-10.339-5.744-2.3,1.149v2.3l-16.083-3.446-9.19-5.744-2.3-2.3v-3.446l-4.6-2.3-3.447-4.6-12.636,4.6-2.3-1.148-1.148-6.893h-2.3l-2.3-9.19-10.338-4.595,1.148-10.339-4.595-4.595m176.911,8.041L481.76,244.2l-2.3-1.149-5.744,3.446h-3.447l-3.446,4.595-4.6-2.3,1.149-6.893-3.447-5.744-4.595-1.149-4.6,2.3-4.595-2.3-13.785,5.744-12.636,11.488v6.893l-2.3,4.6-4.595,1.148-4.6,9.191-4.595,2.3-1.149,3.446h-2.3l-2.3,6.893-3.446,2.3-10.339-5.744-2.3,1.148v2.3l-16.083-3.446-9.19-5.744-2.3-2.3v-3.446l-4.6-2.3-3.447-4.6-12.636,4.6-2.3-1.149-1.148-6.893h-2.3l-2.3-9.19-10.339-4.595,1.148-10.339-4.595-4.595-9.19,3.446-1.149,2.3h-3.446l-4.595,9.19,1.149,3.446H284.172l-3.447,9.19-8.041-3.446L258.9,260.286l-2.3,2.3,2.3,4.595,5.744,3.446v3.447l-2.3,3.446-8.041,4.6,4.595,4.6,5.744-1.149,2.3,6.893,4.6-3.446,5.744,3.446h4.6l3.447,3.446-1.149,8.042,2.3,3.446-4.595,8.041v4.595l2.3,2.3,6.892-2.3,8.042,4.6-1.149,12.637,3.446,2.3,6.893-3.446,4.6,3.446,10.339,2.3V345.3l4.595,1.149,3.446,8.041,3.447,1.149,1.148,8.042,2.3,1.148,8.041-3.446,4.6,1.149,1.148,3.446h2.3l1.149,2.3v13.785l3.446,3.446h3.446l8.042,10.339,10.338-5.744,5.744,1.149,18.381-2.3,8.041-3.446,3.446,1.149,2.3,5.744,10.339,12.636,5.744,1.149,8.041-3.446,1.149,1.148-2.3,8.042v10.339l-5.744,1.148-3.446,8.042,4.6,9.19L445,441.792l5.743,4.6,8.042,2.3v2.3l10.339-5.744,4.595,1.149,5.744-5.744h2.3v3.446l5.744,3.447,6.893-2.3,2.3-3.446,6.893-3.447V432.6l2.3-2.3-2.3-10.339,3.446-6.892,11.488,1.148,4.6-3.446,5.744,5.744h2.3l2.3-3.446-1.149-3.447,4.595-6.892-3.446-1.149,1.149-2.3-11.488-14.934v-2.3l3.446-3.447v-5.743l-2.3-2.3,1.148-2.3,6.893-3.447-1.149-3.446,2.3-2.3-4.6-5.743,4.6-4.595L534.6,338.4l-2.3-1.149,4.595-1.149,5.744-4.6,5.744-14.934-1.149-9.19-4.6-2.3,5.744-6.892-2.3-1.149,2.3-2.3-1.149-5.743,4.6-3.447-6.893-5.744-4.6,8.042-9.19,2.3h-5.744l-6.892-3.446-2.3-3.446-6.892,3.446v-3.446l-5.744-1.149v-2.3l-3.447-3.446-1.148,1.149-1.149-4.595H490.95l6.893-17.232V243.055l-1.149-2.3-6.892-1.148Z"/>
    <path id="形状_637" data-name="形状 637" class="cls-3" d="M518.223,155.344l-6.893,3.446-1.148-2.3-10.339,2.3,2.3,6.892-4.595,1.149,2.3,2.3v8.041l3.446,5.744,4.6-2.3,4.6,2.3,1.149,2.3-2.3,2.3,2.3,1.149-2.3,5.743,3.447,3.447v8.041l-1.149,3.447-4.6,1.148-2.3,4.595-9.19,3.447v4.595l-3.446-2.3v2.3l3.446,2.3-4.6,1.149,1.149,6.893-3.446,3.446-2.3,3.446h6.893l2.3,2.3L496.4,243.8l2.3,4.595-2.3,2.3,1.148,3.447-6.892,18.38,6.892-1.149,1.149,5.744,1.149-1.149,3.446,3.447v2.3l4.6,1.149,1.149,3.446,6.892-3.446,2.3,3.446,6.893,3.446h5.744l8.041-2.3,5.744-8.041,6.892,5.743,10.339-6.892,4.6-1.149-2.3-5.744-16.083-12.636-5.744-11.488V241.5l2.3-4.595,4.6-2.3-1.149-9.19,3.446,1.149,5.744-9.19-2.3-5.744,3.446-5.744-2.3-3.446-1.148-8.042-5.744-9.19-13.785,1.149-2.3-10.339-3.446-5.744-5.744-4.595,1.149-2.3-6.893-8.041m-29.868,85.008h6.893l2.3,2.3L496.4,243.8l2.3,4.595-2.3,2.3,1.148,3.447-6.892,18.38,6.892-1.149,1.149,5.744,1.149-1.149,3.446,3.447v2.3l4.6,1.149,1.149,3.446,6.893-3.446,2.3,3.446,6.893,3.446h5.744l8.041-2.3,5.744-8.041,6.892,5.743,10.339-6.892,4.6-1.149-2.3-5.744-16.083-12.636-5.744-11.488V241.5l2.3-4.595,4.6-2.3-1.149-9.191,3.446,1.149,5.744-9.19-2.3-5.744,3.446-5.744-2.3-3.446-1.148-8.041-5.744-9.191-13.785,1.149-2.3-10.339-3.446-5.744-5.744-4.595,1.149-2.3-6.893-8.042-6.892,3.447-1.149-2.3-10.339,2.3,2.3,6.892-4.595,1.149,2.3,2.3v8.041l3.446,5.744,4.6-2.3,4.6,2.3,1.149,2.3-2.3,2.3,2.3,1.149-2.3,5.744,3.446,3.446v8.041l-1.149,3.447-4.6,1.148-2.3,4.595-9.19,3.447v4.595l-3.446-2.3v2.3l3.446,2.3-4.6,1.149,1.149,6.893-3.446,3.446Z"/>
    <path id="形状_638" data-name="形状 638" class="cls-1" d="M763.762,213.633h0m-88.455-28.719-6.893,5.744H658.076l-9.19,12.636-9.191,4.595-5.744-1.148-12.636-13.786-6.893-4.595-10.339,2.3-9.19,5.744-11.488,17.231,5.744,4.595,1.149,20.678-5.744,2.3-2.3,8.041,3.446,1.149-2.3,3.446v6.893l-3.446,2.3-3.446-3.446-3.446,1.149-1.149-3.446-3.446,1.148,1.148-1.148-1.148,1.148-4.6-4.595-2.3,3.447-3.446-1.149-5.744,5.743,14.934,12.637v3.446l-4.6,1.149-14.934,10.339,1.148,4.6-2.3,3.446,2.3,1.149-5.743,5.744,1.149,2.3,3.446,1.148,1.148,9.19L543.2,331.956l-5.744,4.595-4.6,1.149,2.3,1.149-1.148,10.339-4.6,3.446,4.6,6.893-2.3,2.3,1.149,3.447-3.446,3.446h-3.447l-1.149,2.3,2.3,2.3v4.595l-1.149,3.446h-2.3V384.8l11.488,14.934v3.446h2.3l12.636-11.488,3.447-5.744V374.461l4.6-1.149,2.3-4.6h3.446l1.149,3.446,3.447,2.3,2.3-1.149,5.744-6.893-1.149-3.446,8.041-6.892,8.042,1.148,2.3,2.3h2.3l2.3-3.446,2.3,2.3,1.149,6.893,4.6,2.3,3.446-1.149,3.447-6.892,5.743,3.446h3.447l4.595-4.6v-3.446l6.892-4.6,2.3-9.19h6.892V329.659l-2.3-2.3v-4.595l-5.744-4.6v-6.893l-5.744-1.148-2.3-3.446,5.743-6.893V295.2l-2.3-2.3,1.149-8.041-9.19-8.042h-2.3l-3.446,4.6-4.6-1.149-1.149-3.447,5.744-5.743,1.149-3.447h-2.3l2.3-3.446,3.446-2.3,2.3,2.3v3.446l3.446,1.149,5.743-6.893v-2.3l6.893-1.149v-3.446l1.149,2.3,3.446-3.447,8.042-1.149,5.744,6.893-1.149,2.3h3.446v4.6h2.3V256.138l2.3,1.149,1.149-2.3,1.149,2.3,1.148-2.3-1.148,2.3,2.3,1.148-1.149,4.595,5.744,1.149,3.447-1.149,2.3-6.892,4.595-2.3V248.1l8.042-2.3h5.744l3.446,2.3,1.148,3.447,4.6,2.3,9.19-1.149,8.041,2.3v2.3l4.6-2.3,9.19,3.446,6.893-3.446,6.893-17.232,8.041-13.785,4.595-4.595-5.744-1.149,4.595-4.595L731.6,217.08l-5.744-13.786-4.595,3.447-2.3-3.447-1.148,2.3-4.6-2.3-1.149,2.3h-5.744l-2.3,6.892-3.446-1.148v-3.447l-1.149,2.3-2.3-1.149v-2.3H691.39l1.149-4.6h-2.3l-1.149,2.3h-5.744L682.2,196.4l-5.744-2.3-1.149-9.19m89.6,34.463-5.744-1.149,4.595-4.595L731.6,217.079l-5.744-13.785-4.595,3.447-2.3-3.447-1.148,2.3-4.6-2.3-1.148,2.3h-5.744l-2.3,6.892-3.446-1.148v-3.447l-1.149,2.3-2.3-1.149v-2.3H691.39l1.149-4.6h-2.3l-1.149,2.3h-5.744L682.2,196.4l-5.744-2.3-1.149-9.19-6.893,5.744H658.076l-9.191,12.636-9.19,4.595-5.744-1.148-12.636-13.786-6.893-4.595-10.339,2.3-9.19,5.744-11.487,17.231,5.743,4.595,1.149,20.678-5.744,2.3-2.3,8.041,3.446,1.149-2.3,3.446v6.893l-3.447,2.3-3.446-3.446-3.446,1.149-1.149-3.447-3.446,1.149,1.148-1.149-1.148,1.149-4.6-4.595-2.3,3.446-3.446-1.148-5.744,5.743,14.934,12.637v3.446l-4.6,1.149-14.934,10.339,1.149,4.6-2.3,3.446,2.3,1.149-5.744,5.744,1.148,2.3,3.447,1.149,1.149,9.19L543.2,331.956l-5.744,4.595-4.6,1.149,2.3,1.149-1.148,10.339-4.6,3.446,4.6,6.893-2.3,2.3,1.149,3.447-3.446,3.446h-3.447l-1.149,2.3,2.3,2.3v4.595l-1.149,3.446h-2.3V384.8l11.487,14.934v3.446h2.3l12.636-11.488,3.447-5.743V374.461l4.6-1.149,2.3-4.6h3.447l1.148,3.446,3.447,2.3,2.3-1.149,5.744-6.893-1.149-3.446,8.042-6.892,8.041,1.148,2.3,2.3h2.3l2.3-3.446,2.3,2.3,1.149,6.893,4.6,2.3,3.446-1.149,3.447-6.892,5.743,3.446h3.447l4.595-4.6v-3.446l6.892-4.6,2.3-9.19h6.892V329.659l-2.3-2.3v-4.595l-5.744-4.6v-6.892l-5.744-1.149-2.3-3.447,5.744-6.892V295.2l-2.3-2.3,1.149-8.041-9.19-8.042h-2.3l-3.446,4.6-4.6-1.149-1.149-3.447,5.744-5.743,1.149-3.447h-2.3l2.3-3.446,3.446-2.3,2.3,2.3v3.446l3.447,1.149,5.744-6.893v-2.3l6.892-1.149v-3.446l1.149,2.3,3.446-3.446,8.042-1.149,5.744,6.893-1.149,2.3h3.446v4.6h2.3V256.138l2.3,1.148,1.149-2.3,1.149,2.3,1.148-2.3-1.148,2.3,2.3,1.149-1.149,4.595,5.744,1.149,3.447-1.149,2.3-6.892,4.595-2.3V248.1l8.042-2.3h5.743l3.447,2.3,1.148,3.447,4.6,2.3,9.19-1.149,8.041,2.3v2.3l4.6-2.3,9.19,3.446,6.893-3.446,6.893-17.232,8.041-13.785Z"/>
    <path id="形状_639" data-name="形状 639" class="cls-2" d="M583.405,213.782l-16.082,14.934-21.827,9.19-2.3,4.595v5.744l5.744,11.488,3.446,2.3,5.744-5.744,3.446,1.149,2.3-3.446,4.6,4.595,3.446-1.149,1.148,3.446,3.447-1.148,3.446,3.446,3.446-2.3v-6.892l2.3-2.3-3.446-2.3,2.3-6.893,5.744-3.446-1.149-20.678-4.6-3.446-1.149-1.149m0,0-16.082,14.934-21.827,9.19-2.3,4.595v5.744l5.743,11.488,3.447,2.3,5.744-5.744,3.446,1.149,2.3-3.446,4.6,4.595,3.446-1.149,1.149,3.446,3.446-1.148,3.446,3.446,3.446-2.3v-6.892l2.3-2.3-3.446-2.3,2.3-6.893,5.744-3.446-1.149-20.678-4.6-3.446Z"/>
    <path id="形状_640" data-name="形状 640" class="cls-2" d="M586.7,137.112l-8.041,6.893,2.3,8.041-4.595,5.744h-2.3l5.743,3.446v4.595l-6.892,6.893h3.446l-1.149,4.595-4.6-1.149-1.148,4.595h2.3l-3.446,9.19,1.149,13.785-12.637-1.148,2.3,3.446-2.3,2.3-1.149,5.743,2.3,2.3-5.744,10.339-3.446-1.149,1.149,9.19,17.231-6.892,12.636-10.339L594.744,195.7l9.19-5.744,10.34-2.3V175.021l-8.042-2.3,2.3-3.447-1.149-4.594-5.744,5.743-2.3-4.595,1.149-1.148h-3.446l-4.6-3.447-2.3,2.3,2.3-9.191,2.3-2.3L589,145.153l2.3-4.595-1.149-1.148-3.446-2.3m27.571,37.909-8.042-2.3,2.3-3.447-1.149-4.595-5.744,5.744-2.3-4.595,1.149-1.149h-3.446l-4.6-3.446-2.3,2.3,2.3-9.19,2.3-2.3L589,145.153l2.3-4.595-1.149-1.148-3.446-2.3-8.041,6.893,2.3,8.041-4.595,5.744h-2.3l5.743,3.446v4.595l-6.892,6.893h3.446l-1.149,4.595-4.6-1.149-1.148,4.595h2.3l-3.446,9.19,1.149,13.785-12.637-1.148,2.3,3.446-2.3,2.3-1.149,5.743,2.3,2.3-5.744,10.339-3.446-1.149,1.148,9.19,17.232-6.892,12.636-10.339L594.744,195.7l9.191-5.744,10.339-2.3V175.021Z"/>
    <path id="形状_641" data-name="形状 641" class="cls-1" d="M760.167,140.409H699.282l-22.975,5.744-2.3,2.3-10.339,26.421-14.934-12.636,4.6-12.636h3.446l2.3-3.447-1.149-3.446L639.546,147.3,626.91,157.641l-10.339,3.446-2.3,10.339h2.3v4.595h-2.3v12.637l6.892,4.595L633.8,207.038l5.744,1.149,9.191-4.595,9.19-12.637h10.339l5.744-5.744,2.3,9.191,5.744,1.148,1.149,9.19h5.743l1.149-2.3h2.3l-1.149,4.595h5.744l1.149,3.446,2.3-2.3v3.446l3.446,1.149,2.3-6.893h5.744l1.149-2.3,4.6,2.3,1.149-2.3,2.3,2.3,3.446-2.3,5.744,13.785,33.315-3.446-4.6,4.595,1.149,1.148h4.595l5.744-3.446,10.339-13.785,12.636-11.488-5.743-5.744-2.3-9.19V151.9l-2.3-4.595-22.976-6.893M614.274,188.658l6.892,4.595L633.8,207.038l5.743,1.149,9.191-4.595,9.19-12.637h10.339l5.744-5.744,2.3,9.191,5.744,1.148,1.149,9.191h5.743l1.149-2.3h2.3l-1.149,4.595h5.744l1.149,3.446,2.3-2.3v3.446l3.446,1.149,2.3-6.893h5.744l1.149-2.3,4.6,2.3,1.149-2.3,2.3,2.3,3.446-2.3,5.744,13.785,33.314-3.446-4.6,4.595,1.149,1.149h4.595l5.744-3.447,10.339-13.785,12.636-11.488-5.743-5.744-2.3-9.19V151.9l-2.3-4.595-22.976-6.892H699.282l-22.975,5.743-2.3,2.3-10.339,26.422-14.934-12.637,4.6-12.636h3.446l2.3-3.447-1.149-3.446L639.546,147.3,626.91,157.641l-10.339,3.446-2.3,10.339h2.3v4.595h-2.3v12.637Z"/>
    <path id="形状_643" data-name="形状 643" class="cls-4" d="M572.066,135.814l-3.446,6.893-6.892,5.744-6.893-2.3v-2.3l-4.6,2.3-4.6-3.446v9.19l3.446,9.19-6.893,3.447h-3.446l-3.446-3.447-3.447,2.3v2.3h-3.446l-1.148,2.3,6.892,8.041,1.149,10.339,14.934-1.148,5.744,9.189,1.148,8.042,12.637,1.149-1.149-13.786,3.446-9.19h-2.3v-2.3l1.149-2.3,4.6,1.149,2.3-4.595h-4.595l3.447-2.3,1.148-3.447h2.3v-5.744l-5.744-3.446h2.3l4.595-4.595-2.3-9.19,4.6-3.446-11.488-4.6m-44.8,32.166,6.892,8.041,1.149,10.339,14.934-1.149,5.744,9.191,1.149,8.041,12.636,1.149-1.149-13.785,3.446-9.191h-2.3v-2.3l1.149-2.3,4.6,1.149,2.3-4.595h-4.595l3.447-2.3,1.148-3.446h2.3v-5.744l-5.744-3.446h2.3l4.595-4.595-2.3-9.19,4.6-3.446-11.488-4.6-3.446,6.893-6.892,5.744-6.893-2.3v-2.3l-4.6,2.3-4.6-3.446v9.19l3.446,9.19-6.892,3.447h-3.447l-3.446-3.447-3.446,2.3v2.3h-3.447Z"/>
    <path id="形状_642" data-name="形状 642" class="cls-1" d="M633.8,99.5h0M623.464,75.376l-6.893,1.149-1.149,2.3-8.041,4.6H589l-4.6-2.3h-4.6l-3.446,2.3-1.149-4.6-2.3,1.149v3.446l-5.744,2.3,1.149,3.446-4.6,1.149,2.3,3.446h-2.3V97.2l-10.339,4.6v13.785l-6.893,8.041-2.3,11.488,1.148,8.041,4.6,3.447h2.3l1.149-2.3,1.149,2.3,6.892,2.3v-2.3l6.893-3.447,3.446-6.892,10.339,4.595,4.6-3.446,4.6,3.446-2.3,4.595,5.744,6.892L589,163.831l3.446-2.3,4.6,3.447h3.446l-1.148,1.149,2.3,4.595,5.744-5.744,1.149,4.595-3.447,3.446,9.191,2.3h2.3v-4.595h-2.3l2.3-10.339,10.339-3.447L633.8,151.2l1.149-1.149L624.612,144.3l-1.148-6.892-4.6-1.149,6.892-3.447v-2.3l4.6-4.595-1.149-4.595,4.6-3.447-2.3-11.487,2.3-6.893-4.6,2.3-2.3-5.744,1.149-5.744-4.595-14.934m11.487,74.67L624.612,144.3l-1.148-6.893-4.6-1.148,6.892-3.447v-2.3l4.6-4.595-1.149-4.595,4.6-3.447-2.3-11.487,2.3-6.893-4.6,2.3-2.3-5.744,1.149-5.744-4.595-14.934-6.893,1.149-1.149,2.3-8.041,4.6H589l-4.6-2.3h-4.6l-3.446,2.3-1.149-4.6-2.3,1.149v3.446l-5.744,2.3,1.149,3.446-4.6,1.149,2.3,3.446h-2.3V97.2l-10.339,4.6v13.785l-6.893,8.041-2.3,11.488,1.148,8.041,4.6,3.447h2.3l1.149-2.3,1.149,2.3,6.892,2.3v-2.3l6.893-3.447,3.446-6.892,10.339,4.595,4.6-3.447,4.6,3.447-2.3,4.595,5.743,6.892L589,163.831l3.446-2.3,4.6,3.446h3.446l-1.148,1.149,2.3,4.595,5.744-5.744,1.149,4.595-3.447,3.446,9.191,2.3h2.3v-4.595h-2.3l2.3-10.339,10.339-3.447L633.8,151.2Z"/>
  </g>
  <g id="组_515" data-name="组 515">
    <text id="富阳区" class="cls-5" x="414.962" y="335.533">富阳区</text>
    <text id="临安区" class="cls-5" x="175.962" y="232.532">临安区</text>
    <text id="余杭区" class="cls-5" x="432.962" y="159.532">余杭区</text>
    <text id="临平区" class="cls-5" x="564.962" y="128.533">临平区</text>
    <text id="拱墅区" class="cls-5" x="529.962" y="174.532">拱墅区</text>
    <text id="上城区" class="cls-5" x="558.962" y="195.532">上城区</text>
    <text id="滨江区" class="cls-5" x="547.962" y="247.532">滨江区</text>
    <text id="西湖区" class="cls-5" x="496.962" y="236.533">西湖区</text>
    <text id="萧山区" class="cls-5" x="610.962" y="236.533">萧山区</text>
    <text id="钱塘区" class="cls-5" x="701.962" y="180.532">钱塘区</text>
  </g>
</svg>
