<svg xmlns="http://www.w3.org/2000/svg" xmlns:xlink="http://www.w3.org/1999/xlink" width="868" height="429" viewBox="0 0 868 429">
  <defs>
    <style>
      .cls-1 {
        filter: url(#filter);
      }

      .cls-2 {
        fill: #002762;
        stroke: #b4d1f9;
        stroke-width: 2px;
        fill-rule: evenodd;
      }

      .cls-3 {
        font-size: 14px;
        fill: #fff;
        font-family: "Microsoft YaHei";
      }
    </style>
    <filter id="filter" filterUnits="userSpaceOnUse">
      <feGaussianBlur result="blur" stdDeviation="6" in="SourceAlpha"/>
      <feComposite result="composite"/>
      <feComposite result="composite-2"/>
      <feComposite result="composite-3"/>
      <feFlood result="flood" flood-color="#0a52ca" flood-opacity="0.76"/>
      <feComposite result="composite-4" operator="in" in2="composite-3"/>
      <feBlend result="blend" in2="SourceGraphic"/>
      <feBlend result="blend-2" in="SourceGraphic"/>
    </filter>
  </defs>
  <g id="画板_1" data-name="画板 1">
    <g id="组_12_拷贝" data-name="组 12 拷贝">
      <g id="组_9" data-name="组 9" class="cls-1">
        <path id="形状_29_拷贝" data-name="形状 29 拷贝" class="cls-2" d="M458,310c1.592,0.061,4.192-.273,4-2s-0.7-6.284,2-9,3.811-6.305,6-5,0.831,2.737,2,3,2.759,1.458,5-1,4.233-1.067,5,0a7.873,7.873,0,0,1,1,3s2.749-1.943,4,1,2.244,4.665,4,4,4.955,0.676,6,5,2.254,3.325,4,5,1.078,3.779,2,4,5.831,0.954,7,0,0.48-3.675,2-3,4.408,0.346,6,1,1.934-3.17,0-4-5-4.9-2-6,2.285-4.2,0-5-3.8-1.758-5-5-2.953-9.12-1-10,1.336-4.852-1-6,2.615-2.543,2-4-1.695-6.512,1-8,9.9-8.09,11-9,4.831-4.235,6-6,4.284-2.472,4-3-0.066-4.142,1-4,0.656-4.421-1-4-5.365,1.342-4,0,5.583-2.071,7-2,3.1-4.545,5-4,0.6-2.236-1-3-2.355-2.257-1-2,3.707,0.918,4,0,1.517-.893,2-3,0.62-2.089,3-2,5.228-1.388,4-3-4.308-2.626-6-3-7.885-7.636-9-9-1.638-4.719-5-5-3.7,1.26-5,0a10.936,10.936,0,0,0-6-3c-2.352-.219-1.033,1.121-2,2s-4.176,1.074-5,3-2.481,3.426-4,3-6.578-.268-9,2-4.1,3.246-6,3-2.54-2.02-4,0-3.616,4.581-1,5-1.741,1.643-2,2a3.375,3.375,0,0,0-1,3c0.339,1.679-1.715,2.211-3,3s-9.97,9.6-11,11-5.914.733-7,1a2.393,2.393,0,0,0-2,3c0.26,2.1-.3,3.416-1,4s-2.509,2.29-5,2-2.07.219-2,2,0.738,4.429-1,5-1.454,1.463-3,2-1.437,1.919-1,2-1.629,3-2,4-1.558,3.917-3,4-5.294-.048-4,1,3.826,6.038,6,6,7.566,1.214,8,3-2.743,2.662-1,4,2.561,0.516,3,2-0.22,3.035-2,4-6.325,2.922-4,4,4.616,3.542,5,5,1.765,4.408,0,7S454.709,309.873,458,310Z"/>
        <path id="形状_30_拷贝" data-name="形状 30 拷贝" class="cls-2" d="M520,314c1.521,0.106,3.877-1.585,5,0a5.587,5.587,0,0,1,1,4c-0.042,1.2,2.483,3.293,5,2s4.2-1.256,5-3,0.374,1.8,1,2,2.938-3.186,4-1,1.843,10.118,4,11,5.134-.2,8,1,2.012,3.873,4,5a5.585,5.585,0,0,0,3,1s0.607-3.9,4-4,7.192,0.574,7-2-2.4-5.633-1-5,2.3-2,2-3,1.159-2.463,2-3-1.853-2.027-2-3a4.739,4.739,0,0,1,1-4c1.244-1.454,6.516-3.857,5-4s-6.359-.214-7-1-2.106-5.6-1-7,2.205,1.164,3,1,3.378-5.206,5-5-1.265-2.471,1-3,1.793,1.093,3,2,7.024,0.288,8,0,6.658-1.264,8-1,6.832-3.152,7-6,3.591-4.015,3-5-2.6-.567-1-1,5.082,1.633,7,2,3.321-2.379,6-2,2.537,1.434,4,2,4.783-3.186,7-3,3.584,1.6,3,0-4.434-2.631-4-5a11.5,11.5,0,0,1,3-6c1.609-1.738,4.016-4.894,5-6s0.13-3.927-2-7a40.935,40.935,0,0,0-3-4s3.329-.74,2-1-5.922-5.366-8-5-1.711-2.8-1-4-1.144-1.208-3-2-5.383-.2-7,0a8.942,8.942,0,0,1-4,0c-1-.394-1.015-5.033-2-5s-5.237-4.068-5-5-5.3-4.5-8-5-6-3-6-3-4.376,1.107-7,2-6.627-.3-9,0-5.662,1.107-7,1a27.015,27.015,0,0,1-7-2c-1.7-.89-2.328-0.1-4,0s-5,0-5,0,0.131,2.584-2,2-5.512-.8-5,2-0.584,2.973-2,3-6.788-1.6-5,0,4.416,2.922,4,4-3.207,1.555-4,3-3.931,1.321-5,2-7.043,2.4-4,3,4.038-1.475,5-1,0.834,4.362,0,5-6.639,7.744-10,11-14.045,11.033-14,12-1.634,2.8,0,4,1.145,4.218,0,4-2.46,1.008-1,2a4.91,4.91,0,0,1,2,4c0.1,1.486-2,3-2,3s-0.743,4.366,1,6-0.308,2.435,1,4,2.592,3.662,4,4,3.265,1.321,3,3-0.961,1.356-2,2-2.288,2.221-1,3,3.215,3.362,4,4S518.478,313.894,520,314Z"/>
        <path id="形状_31_拷贝" data-name="形状 31 拷贝" class="cls-2" d="M560,338c0.393,0.472-3.27,1.484-1,3s3.065,1.064,6,1,7.01-1.879,12-3,10.433,0.916,13-3,4.768-8.808,7-6,2.378,2.467,6,3a19.84,19.84,0,0,0,10-1c2.46-1.075,3.687-.084,8,0s5.05-2.808,7-1,2.224,4.714,1,5-2.254-.169,0,1,1.922-1.894,6,0,8.765,3.092,12,3,2.679,2.064,6,2,6.941-3.561,6-5,1.986-3.982,4-3,2.886,0.729,6,1,1.641,4.251,6,4,5.584,0.6,7-2,3.513-4.822,5-4,1.9,0.8,3-1,0.239-1.967,4,0,3.2,2.93,5,1,6.08-3.868,3-5-5.877-2.376-6-4,0.617-6.666,3-4,2.344,7.044,7,5,10.72-1.158,12-2-2.859-3.086,2-3a5.513,5.513,0,0,0,6-6c-0.185-2.2,1.578-6.291,5-6s10.392-.522,14,1,3.539,2,7,2,8.729-1.7,10-3,2.584-2.929,4-1,3.147,1.787,5,0,4.671-2.125,9-1,9.464,0.612,9-2-0.444-7.339-6-11-5.957-4.426-7-5,1.13-2.836,1-4-2.706-4.159-4-4-0.69-3.1-3-3-4.63,4.754-5,3a9.942,9.942,0,0,1,1-8c2.072-3.7,2.032-7.225,1-9s-8.553-6.384-9-8,2.813-6.542,3-8,0.769-3.012,0-3-5.389-5.422-7-5-2.007,1.212-2-1-2.843-6.346-4-6-3.488-.728-5,0-4.82,1.324-6,3-0.316-.216-2,0-4.977.288-5-1,0.735-3.287-1-5-4.718-.618-5-2,0.786-6.236-1-6-3.955,3.052-6,3-8.86-2.941-9-4-3.81-5.933-5-6-4.428-1.811-5,0-3.168,1.024-5,1-4-1.472-5-2-3.988-1.472-5-1-3.685,4.347-6,7-1.685,4.965-2,6,0.315,1.627,0,3-2.764,3.95-3,6-1.174,8.107-3,8-3.461-2.137-4-3-1.705,1.194-3,1-3.7-.763-5-1-4.82-1.432-4,0,0.518,4.186-1,5-8.726,6-7,8,2.742,11.033-1,11-5,0-5,0a49.082,49.082,0,0,0-4,5,19.394,19.394,0,0,1-3,4c-0.567.431-2.859,4.871-1,6s3.571,2.876,3,3-5.016-.119-6,1-4.313,3.166-5,2a4.521,4.521,0,0,0-6-1c-2.81,1.544-2.768,2.166-4,1s-5.21-2.971-6-1-3.1,9.911-9,11-6.691.341-10,1-5.271.766-6,0-0.421-1.809-2-2,0.719,1.2-1,2-4.148,3.641-5,5-1.438,1.924-2,1-1.728-1.926-2,0-0.426,4.659,3,6,5.862,1.377,5,2-7.006,2.969-6,6,3.854,1.972,3,3-2.723.982-3,3-0.868,2.419-1,4,1.13,1.284,0,3-1.455,4.574-4,4-6.035,1.154-6,2S559.287,337.145,560,338Z"/>
        <path id="形状_32_拷贝" data-name="形状 32 拷贝" class="cls-2" d="M591,217c2.043,0,5.276,4.16,8,3s5.438-.084,5-2-1.032-4.063,0-4,2.459-2.572,0-3-5.562-2.957-3-5,2.845,0.615,5-2,4.722-2.445,5-4,2.556-2.1,5-1,4.779,2.555,6,1-1.284-5.117,3-6,7.611,1.25,11,0a54.212,54.212,0,0,0,8-4c2.739-1.476,4.075-3.421,8-3s5.135,2.66,6,2,0.909-5.093,3-6,3.521-1.114,4,0,1.662,4.13,3,4,1.722,2.25,3,4-1.32.392,2,3,0.969,2.857,3,3,4.683,1.793,4,4-4.42,2.486-2,4,3.4,2.26,3,4-0.36,1.158,1,2a8.246,8.246,0,0,0,2,1s-4.982,2.963-7,7-1.679,6.042-2,8-0.945,1.942-2,4-0.971,7.44-2,9-2.112,3.021-4,1-2.442-2.738-3-2-1.342,2.021-3,1-8.708-2.165-9-2c-0.8.453,3.01,4.01,1,5s-8.219,5.748-8,8,2.325,4.79,2,8-1.057,4.79-4,4a8.711,8.711,0,0,0-5,0s-0.26-4.2-1-5-5.59-5.707-4-5,1.9-.911,0-2-4.934-3.875-6-4-1.238-2.079-1-3-0.394-3.1-6-3-7.99,1.513-9-2-5.22-6.843-6-7-0.487-2.5-2-3a92.889,92.889,0,0,1-9-4c-3.295-1.66-7.338-4.571-6-6S590.089,217,591,217Z"/>
        <path id="形状_34_拷贝" data-name="形状 34 拷贝" class="cls-2" d="M510,191c-0.6.523-4.343,0.706-5,0s-0.051-2.433-1-2-1.9.267-2,2-0.773,3.111,1,4,3.054,2.959,6,3,8.454,0.8,9,2-0.124,2.794,1,3,3.138-.214,5,1,1.412,1.351,3,2,4.951-1.088,7,1,4.052,6.579,8,10,5.892,2.857,7,4,3.027,1.136,3,2a7.174,7.174,0,0,0,0,1s6.119-1.012,9,0a28.162,28.162,0,0,0,10,1c2.063-.275,10.452-0.865,13-1a68.524,68.524,0,0,0,7-1s-4-1.426-3-4,2.686-2.612,4-2,2.913,2.8,4,3,7.907,0.5,8-1-1.123-2.839-1-4,1.721-.516,2-1,1.063-2.39-1-3-4.32-2-4-4,2.613-1.893,4-2,4.685-2.827,6-4,1.31-3.056,5-2,6.312,3.062,7,2-0.1-7.059,2-7,9.674,0.645,14-1,7.677-4.357,9-5-1.752-1.119-2-4a12.514,12.514,0,0,0-1-5c-0.955-2.848-1.594-6.5-5-7s-0.475-3.442,0-5a51.482,51.482,0,0,0,1-9c-0.06-1.56-2.353-6.541-4-7s-4.884,1.336-8,3-4.538,1.733-6,1-2.073-2.437-2-5-0.175-3.885-3-4-9.18-.136-12-2-10.59-2.292-14-2-3.348,1.965-4,4-1.45,5-4,6-6.172,2.652-7,4-2.516,5.548-4,5-4.29-1.607-7-1-4.979.133-4,2,3.966,2.529,4,5-3.408,7.458-4,8-4.4.807-5,0-0.842-1.362,0-2,0.893-4.35,0-5-1.614-1.567-4,0-6.193,5.783-8,7-4.193,1.144-3-2,2.349-6.857,1-9a5.866,5.866,0,0,0-7-2c-2.252,1.11-2.23,7.421-2,10s-0.375,2.94-2,3-2.809-2.4-4-3-4.207.265-4,2,2.052,3.845,1,7-0.74,4.955-2,6-3.373,1.9-3,0,0.781-5.686-1-6-2.013,1.053-4,1-5.069,1.534-5,4S512.523,188.792,510,191Z"/>
        <path id="形状_35_拷贝" data-name="形状 35 拷贝" class="cls-2" d="M551,49c-0.18-1.531-3.331-.513-4-1s-1.636-2.252-3-1-3.464,3.64-5,3-2.954.946-4,2-2.89.608-4,0-3.565-2.284-4-2-0.795,3.315-2,3-6.393-.641-5,1,0.454,1.219,0,3-1.546,1.449-1,3-1.775,1.309-2,3,0.626,6.092-1,5-2.9-.787-3,1-2.386,2.8-3,1-3.66-5.984-5-5-2.258,3.939-3,2,0.219-5.29-1-5a5.361,5.361,0,0,0-4,3c-0.914,2.092-3.36,3.538-5,3s-2.3,1.43-4,1-3.493,1.041-5,4-4.365,6.118-7,5-3.333,1.054-4,2-2.684,3.36-5,4-2.174,1.882-4,2-6.881,2.125-5,5,3.871,1.736,5,6,1.578,2.628,2,4,1.794,5.3,0,5a15.487,15.487,0,0,1-5-2c-0.673-.52-1.849-0.99-2,1s-1.206,12.711,2,14,5.132,2.953,5,6-5.314,3.412-3,6,9.744,11.874,12,15,3.255,4.035,2,4-1.768,2.691,0,2,2.385-.835,3,1,0.866,3.647,2,4a40.686,40.686,0,0,0,5,1c3.018,0.529,6.112,3.762,7,5s2.944,0.259,2,1-3.392,3.061-2,4,3.937-.115,3,1a9.325,9.325,0,0,1-4,3c-1.806.633-5.339,1.337-5,3s-0.69,4.292,1,6,2.982,2.6,2,4-4.362,2.079-2,3,5.074,0.744,8,1,6.373,0.568,7,1,1.358,0.393,2,1,6.32,1.408,6,0-3.42-5.027-1-7,5.533-2.359,7-3,1.907-.155,2,2-0.908,5.864,1,5a6.736,6.736,0,0,0,4-6c0.306-3.414.841-5.354,0-6s-2.183-2.662,0-4,3.314,0.314,4,1,5.144,4.253,5,2-1.051-13.008,3-13,5.759,0.779,6,3a36,36,0,0,1-1,9c-0.324.52,0.049,3.48,2,2s6.437-5.534,8-7,4.475-3.018,5,0a10.862,10.862,0,0,1-1,6s3.384,2.982,6,0,5.906-6.468,4-9-5.051-4.34-4-5a15.7,15.7,0,0,1,9-1c3.73,0.757-.564,1.348,2,1s2.586-2.171,4-4,5.158-4.072,7-5,3.936-2.72,4-4-0.082-5.443,3-6,6.143,0.851,7,0,0.488-2.444,0-4,0.773-6.125-1-7a38.961,38.961,0,0,0-6-2c-1.285-.353-6.38-1.63-8-2s-3.54.891-5,1-3.179.6-4-2,0.568-3.807-1-3-5.474.57-5-2,1.913-2.742,2-4-1.533-1.65-2-3,1.021-3.305-1-3-3.425,1.291-4,1-0.8-3.357-2-3-2.268-.49-3-2-3-2.224-2-5-0.2-4.692,2-7,4.066-5.159,4-6-8.482-5.1-6-8,2.664-4.526,2-5-2.482-3.367-1-5,2.942-2.643,3-4-3.315,6.927-7,3-2.039-5.346-1-7,4.1-1.624,4-3-0.61-6.041-2-6S551.286,51.435,551,49Z"/>
        <path id="形状_36_拷贝" data-name="形状 36 拷贝" class="cls-2" d="M587,28c-2.359-.181-6.044-0.167-6,1s-0.093,2.985-1,3-2.987.088-4,0a14.065,14.065,0,0,0-3,0,67.29,67.29,0,0,0-7,1c-2.409.452-3.846,2-4,4s1.8,2.925,0,4-3.686,2.666-5,3-3.352,2.533-3,4,1.188,1.814,0,2-3.477-2.8-3-1-0.07,4.5,2,5,2.546,4.932,2,6-3.206,1.48-4,3-2.561,2.936-1,5,4.279,4.524,6,2,2-3,2-3-2.887,5.118-3,6,3.156,3.668,3,4-1.626,1.2-2,2-2.641,2.154-2,4a7.1,7.1,0,0,0,4,4c1.692,0.68,2.46.734,3,2s-4.309,5.586-5,7-1.779,6.206-1,8,2.178,4.6,4,5,0.472,0.3,2,2,2.833,0.463,4,0,2.037,0.255,2,2,1.649,2.208,2,3-0.3.934-1,2-2.328,4.385-1,5a5.378,5.378,0,0,0,4,0,1.457,1.457,0,0,1,2,1c-0.01.638-1.4,3.5,1,4a9.583,9.583,0,0,0,6-1c1.4-.656,8.31,1.94,12,3s4.413,0.571,5,4a32.723,32.723,0,0,1,0,8s6.646,1,10,3,10.236-1.044,12,2,0.314,5.672,2,7,3.83,2.992,5,2,5.7-4.844,8-5,2,0,2,0a18.172,18.172,0,0,0,4-6c1.423-3.6,3.769-8.389,7-10s6.363-.389,8-1,4.285-3.3,2-9-2.751-4.617-5-5-11,0-11,0-0.09-3.559-1-4-0.5-4.575,0-7-0.447-6.228-2-6-1.857-1.824-1-3,0.843-2.005-1-3-3.39-6.789-2-9,2.257-8.8,2-10-1.339-1.447-3,0-8.588,3.547-9,1-0.106-4.645,3-8,3.962-8.417,6-8,0.376,1.52,2,0,3.858-5.07,6-4,2.273,0.339,3,0,1.75-3.081,3-4a5.8,5.8,0,0,1,3-1c0.54-.1-0.478-3.677,1-4s3.879-.682,4-2,4-8,4-8-4.359,1.245-5,0-0.478-3.232-1-4-4-4-4-4-0.608,4.239-2,4-2.546,1.721-1,4-2.5-1.875-4-2-3.919,3.721-5,4-2.867-.517-4-1a18.508,18.508,0,0,1-2-1,62.683,62.683,0,0,0,7-1c1.09-.42-0.157-1.994-2-2s-3.028-1.176,1-2,3.319-1.59,2-2-2.008-3.343-5-4-0.911-5.325-3-5-9.875.434-10,3-1.08,2.735-2,3-4.11,2.843-4,4-2.869.259-4-2-0.092-4.325,0-6-0.248-4.4-2-4-3.1-.4-4,0-3.182,1.518-3,0-0.862-2.927-2-1,0.535,4.151-1,4-5.224.054-6,1S591.542,28.349,587,28Z"/>
        <path id="形状_37_拷贝" data-name="形状 37 拷贝" class="cls-2" d="M654,119s0.8-3.541,3-4,14.135,0.2,17,0,4.477,0.569,7,3,2.819,1.569,6,2a7,7,0,0,0,6-2c1.022-.9,3.632-2.431,7,0s4.68,5.935,3,7-6.223.979-6,8,2,26,2,26,0.169,2.488,3,1c0.694-.365-1.343,3.341-1,11,0.49,10.946-.352,8.816-1,9s-7.327-.417-10,2-6.958,7.715-9,8-8.839,1.558-9,4-0.012-3.8-1-4-2.683-2.994-4-4-2.278-3.916-3-4a3.33,3.33,0,0,0-3,1c-1.089,1.128-3.179,5.581-3,6s-2.139-.207-3-1-5.555-1.281-6-1c-2.258,1.426-2,1-2,1s-0.516-1.878-1-2-0.992-2.03-1-3-0.942-3.095-1-4-0.807-4.781-3-6-4.281-.873-4-2,1.032-1.988,2-4,1.492-8.162,0-11a52.116,52.116,0,0,0-3-5s2.5-2.309,3-4,4.295-10.987,8-12,6.908-.378,8-1,3.383-2.262,3-5-1.518-7.163-4-8S651.56,119.712,654,119Z"/>
        <path id="形状_38_拷贝" data-name="形状 38 拷贝" class="cls-2" d="M655,49c0.705,0,1.692.2,2,2s1.116,1.782,2,3-1.689,3.4,0,4,2.583,0.528,6,0,5.041,1.308,6,2,3.635-.234,6,2,2.253,4.707,4,5,2.2-2.175,6-4,7.119-1.37,9-2,0.967,0.079,4-1,5.467-4.32,9-6,5.544-3.354,8-3,3.841-.558,5-3,2.655-2.592,4-3,4.24-.143,4-1,2.511-1.329,5,1a12.25,12.25,0,0,0,7,3c1.768,0.295,3.037,0,2,2s-3.929,8.249-2,11,2.783,4.1,3,6-0.31,2,1,3,6.318,1.809,8,1,3.165-3.835,5-2a49.985,49.985,0,0,0,11,7c3.071,1.275,3.319,2.632,4,3s2.811,0.183,4,1,0.235,2.446,2,3,3.108,0.387,3,2,0.2,3.718-1,5-1.257,2.785-3,3-8.343,1.353-11-3-3.157-3.071-5-5-8.579-5.325-11-3-4.721,3.806-4,12-5.71,10.376-10,10-6.279-4.186-7-9-2.4-10-13-10c-4.877,0-5.555,7.382-3,9s12.586,8.37,9,14-8.833,3.946-13,1-12.856-10.752-21-4c-3.559,2.951.177,9.082,2,10s4,2,4,2-4.106.651-5,2-5.527,1.367-8,0-4.378-3.631-8-4-17.159-1.311-20,1-0.73,4.4-2,4-12,0-12,0,0.85-3.881,0-4-2.722-.163-2-3a46.944,46.944,0,0,0,1-5s0-4.73-2-5a1.665,1.665,0,0,1-1-3c1.006-.844.282-2.154-1-3s-4.433-5.432-2-9,2.424-5,2-7,0.286-4.714-3-3-8,3.858-9,2-0.713-5.136,2-8,4.426-8.131,6-9,1-.847,2,0,0.564-2.129,3-3,3.99-1.987,5-1,4.271-3.7,6-5,1.841-4.981,3-4S653.57,49,655,49Z"/>
        <path id="形状_39_拷贝" data-name="形状 39 拷贝" class="cls-2" d="M705,159s4.412,0.049,5,0,0.289-2.937,5-2,4.134,0.67,4,3-2.739,4.77,0,6,2,0.515,6-2,6.225-.978,9-2,2.69-.923,4-3,1.339,0.584,2-1,2.8,0.767,3-1-0.251-3.389,2-3,4.343,0.625,6,0-1.123-3.151-1-4,1.343,0.032,2-1-2.406-5.027-4-7-2.433-7.551-1-10,1.58-2.82,1-5-1.981-5.907,1-7,6.315-2.683,6-4,4.064-5.472,5-5-1.529-1.911-3-3-2.388-1.983-1-5,3.712-5.38,5-8a45.742,45.742,0,0,1,4-6c1-1.52-3.712-5.722-6-7s-8.927-2.07-10,5,0.343,14.811-5,16-10.789,1.616-12-4-0.73-10.424-8-14-15.34,3.539-8,10,10.129,6.733,8,12-7.072,5.559-11,3-13.773-8.857-17-8c-5.006,1.33-10.19,6.513-7,10,4.45,4.863,6,5,6,5s0.426-.827,3,0,3.754,2.558,5,4,0.87,3.447-2,4c-2.657.512-4.112,2.808-4,6s0.911,28.608,2,29,1.679-.069,3,0S704.838,159.646,705,159Z"/>
        <path id="形状_40_拷贝" data-name="形状 40 拷贝" class="cls-2" d="M795,54s-3.1,7.822-4,10-2.253,12.716-3,15-2.813,10.743-8,13-8.986,1.7-11-1a17.9,17.9,0,0,0-4-4,65.428,65.428,0,0,1-4,8c-1.492,2.113-7.3,8.671-6,11s5.761,3.4,4,5-2.9,2-3,3-1.1,4.325-3,4-2.228,2.323-3,2-3.091-.484-3,2-0.1,4,1,6-0.516,1.9-1,3-2.162,4.817-1,7,1.768,5.293,3,6a15.263,15.263,0,0,1,3,3s0.953,1.539,0,2-2.863.872-2,2,1.045,1.493,1,2,0.528,0.757-1,1a10.605,10.605,0,0,1-3,0s2.137,3.1,4,4,1.8,1.319,2,3,3.016,1.095,5,2,5.34,0.873,7,1,6.44-4.79,8-4,3.761-3.558,7-5,3.977-2.883,6-5,2.973-3.881,4-4,2.853,0.564,5,0,1.4-.771,3,0,0.619,1.785,4,1,2.5-1.993,5-1,2.5,1.566,5,0,3.156-3.989,5-3,1.817,1.125,4,0,0.045-.539-1-2,1.927-3.2,3-5,2-5.82,6-6,5.809-3.369,5-5-0.665-3.678,2-5,7.08-2.182,8-4,2.493-6.122,2-7-7.251-5.2-7-9-2.387-5.266-4-6,0.14-4.184,2-5-1.124-3.756-1-6a3.47,3.47,0,0,1,2-3l-2-2a28.611,28.611,0,0,1-2-5c-0.222-1.432-1-8-1-8a45.738,45.738,0,0,1-10,0c-5.542-.605-17.205-3.62-19-5S796.037,52.075,795,54Z"/>
        <path id="形状_33_拷贝" data-name="形状 33 拷贝" class="cls-2" d="M683,187c0,1.932,3.7-3.113,5-4a18.879,18.879,0,0,1,6-3c2.286-.489,5.279.762,7,0s-0.352-5.434,0-7-0.649-13.018,3-14,5.066,0.625,6-1,1.316-1.608,4-1,7.81-.715,6,2-3.476,7.4-1,8a4.518,4.518,0,0,0,5-2c0.761-1.232,2.8-1.947,5-2a16.018,16.018,0,0,0,5-1,6.832,6.832,0,0,0,4-3c0.862-1.666,1.769-1.893,2,0s1.275,5.125,0,7-3.546,1.387-2,3,4.293-.3,6,1,4.6,3.036,5,6,2.061,4.572,0,5-4.463,2.673-6,6-6.136,2.072-5,4,3.5,2.459,3,5-1.7,2.037,0,4,4.354,6.863,7,8,3.734,2.188,7,1,6.746-.621,6,1-4.438,3.268-4,7-0.5,8.624-5,8-4.5-1.352-5,1a14.86,14.86,0,0,0,0,5s-0.357.634-4,1-4.872,3.527-6,4-2.524-.979-5-1-1.868-1.783-2-3c-0.663-6.083-5.675-3.512-6-4s0.93-7.414-2-7-0.624,4.466-8,3-5.255-3.689-7-6-3.616-4.617-8-5c-2.36-.206.151,2.337-6,2-3.461-.19-6.935-2.52-9-3s-2.566-1.164-3-3-1.957-3.675-3-4-0.7-1.817,1-3,0.043-3.207-1-4-2.974-1.723-4-3a12.272,12.272,0,0,0-2-2s1.052-.616,4-2,5.194-.127,6-2S683,186.5,683,187Z"/>
        <path id="形状_22_拷贝" data-name="形状 22 拷贝" class="cls-2" d="M59,180c-5.184,1.595-13.13,1.37-15,1s-1.891,3.912-2,5-2.628,3.084-4,4-1.26,5.277,0,8,2.09,8.905,0,10-8.906-.291-11,1-7.035,4.1-6,7,5.376,6.094,5,10-0.275,5.549-2,7-2.667,3.134-1,6a11.634,11.634,0,0,0,6,5c1.887,0.736,4.372.872,6,2s11.062,1.523,14,3,7.646-.434,9,1,3.861,0.5,5,3,4.343,10.437,4,14,2.906,2.914,4,4,2.817,4.608,5,6,4.311,3.721,8,3,7.392-.024,9,2,2.857-2.291,5-3,6.914-3.953,7-5-3.074-1.417-1-4,4.17-6.429,5-5,0.844,3.408,4,4,3.7,1.78,6,0,4.366-.569,6,1,8.7,3.861,11,4,3.748-1.569,5-2,5.387,1.709,5,4,1.886,5.139,5,5,6.363,0.185,8,2,6.257,1.022,8,3,3.117,3.429,5,3a40.446,40.446,0,0,1,9-1c2.57,0.175,6.069-4.465,6-6s-5.779-6.581-5-9,4.232-3.627,3-5-1.931-4.742,0-8,5.476-11.055,4-12-3.885-5.717-1-6,9.254-.159,12-2,1.475-3.961,3-3,3.707-.81,4-2,1.6-7.739,5-10,4.229,0.133,5,2,5.1,5.121,6,3,3.414-7.134,7-7,1.972-4.18,1-4,7.529-3.459,10-5,3.506-3.714,2-5-0.273-5.818,0-8-1.239-4.655,1-5,6.575-1.352,5-5-8.913-4.4-9-6-1.563-4.223-3-4-9.492-1.037-11-1-1.352-5.118-4-6-7.224-.768-8-3-4.258-6.536-4-3,3.672,7.522-1,8-14.455-.653-15,1-3.3-1.745-4-4-9.464-4.361-12-4-7.55-1.23-9-3-2.419.248-4,0-3.852-2.839-5-1-5.761,1.466-9,1-10.8.205-13-1-10.535-6.795-13-4-3.1,4.421-3,6-2.967,5.636-6,6-6.574.592-6,2-9.177-.278-13,1-7.7,3.677-10,4-9.04-1.5-11-2-5.734,1.417-7,1-3.037-3.366-4-2S61.827,179.13,59,180Z"/>
        <path id="形状_23_拷贝" data-name="形状 23 拷贝" class="cls-2" d="M84,281c-1.028.771,4.349,6.129,3,7s-2.7,6.838-4,7-3.259,4.649-3,6-1.789-.453-4,0-5.273-.407-5,2,4.649,3.077,3,4,0.188,4.607-1,6-2.07,4.832-1,5,2.8-.863,4,1,1.4,2.722,4,4,5.114-2.334,7,1,5.667,7.049,8,6,5.58-4.592,8-3,9.492,6.546,10,10-0.462,12.5,2,14,3.045,5.269,5,5,2.271,1.439,4,4,4.925,2.9,8,3a13.76,13.76,0,0,1,8,3c1.9,1.593.883-.358,4-1s7.492-.976,8,0,2.39,5.789,1,5,4.224,1.734,6,2,9.667-4.312,13-4,9.344,0.9,12-2a40.024,40.024,0,0,0,6-9c0.43-1.269,4.427-3.9,8-6s5.754-5.791,7-7,5.565-.454,7-2,1.712-2.634,4-2-2.739-1.062-4-3,2.971-1.007,4-3-5.232-3.537-3-6,7.118-5.808,8-8,11.749-10.959,10-17-4.43-6.724-3-8-0.96-3.153-3-5-6.209-4.424-7-7,0.229-4.369-1-5-3.559,2.654-5,2-3.707-3.526-5-2-3.5.654-5,1-4.7,1.452-4,0,3.459-5.415,1-6-3,6.216-3,7-2.227-.244-3,0-5.555,1.161-6,2-2.624,5.668-4,6-6.559-.669-9,1-3.965.106-5-1-4.158-3.738-7-4-4.665-.784-6-2-6.218-.807-8-2-1.858-.853-2-3-2.716-7.369-7-4-6.729-.078-10-1-4.416-3.843-6-4a14.4,14.4,0,0,0-6,1c-0.976.617-7.374-.944-7-2s-1.623-3.539-4,0-2.96,4.3-2,5,1.478,2.608,0,3-1.208,2.553-3,3-4.895,1.419-5,3-1.48.419-3,0S87.595,278.3,84,281Z"/>
        <path id="形状_24_拷贝" data-name="形状 24 拷贝" class="cls-2" d="M144,109c-2.559,3.473-5.728,1.824-7,2s0.574,3.126,3,5,6.962,0.126,9,1,4.44,3.864,3,5,2.5,1.256,4,0,1.852,2.405,0,5-3.5,4.468-1,7,6.738,0.6,10,3,4.843,2.728,8,4-2.525.661-1,3,5.384-.013,8,2a24.467,24.467,0,0,0,5,3c1.682,0.927,4.231.528,2,3s-2.792,6.2,0,9,4.968,3.133,4,5-1.905,2.965-1,5,0.722,3.8,2,5,15.523,0.593,17,0,3.511-3.256,2-4-0.734-5.6,1-5c0.675,0.233,1.011,4.57,3,6s6.289-.989,8,2,0.928,4.255,3,5,6-1.338,7,0,3.078,0.86,5,1,1.09,2.708,2,4,3.368,2.545,6,3,4.356,3.835,3,6-4.294,2.847-5,3-2.327,8.108-1,11c0.119,0.259,1.694,3.647,0,5s-6.805,2.5-8,4-3.607,1.123-3,2,0.347,4.344-1,4-5.513,2.018-6,4-5.065,4.1-6,3c-2.4-2.833-2.884-7.621-6-6s-3.3,5.064-4,7-5.663,7.916-12,10c-6.171,2.03-11.655-.563-10,2s-1.265,2.315,1,4,0.921,8.091-1,9-2.935,5.412-3,8,1.574,4.634,1,5-3.262,3.425-2,5,2.529,7.36,5,7,7.32-.5,8-1,0.255-7.287,3-7,1.176,3.628,0,4-2.091,1.994,0,2,5.7,0.974,7,0,1.961-2.5,4-1,2.53,1.811,4,1,4.079-1.927,4,1,2.975,6.4,5,8,6.493,4.371,6,6-2.444,2.228-1,3,3.886,4.641,3,9-8.029,11.492-13,17-7.467,4.885-6,6,5.8,3.918,4,5-6.343,2.535-4,4,4.78-.049,4,1-3.029,2.367-3,2,8.43,0.175,10,1,1.316,1.861,4,2,7.719-1.746,9,0,5.022,3.624,6,4,1.954-1.4,3,0,3.155,4.456,4,3,1.11-4.454,2-5,2.571-1.656,1-3-5.643-4.767-2-7,5.828,0.087,7-1,4.3-2.677,5-4,7.658-3.664,8-5,3.98-5.915,2-7-0.533-3.589,0-3c2.274,2.514,3.856,5.425,6,6s2.41-1.594,3-3,2.91-2.433,4-2-1.018-2.416,1-3a11.705,11.705,0,0,0,5-4c0.268-.673-1.268-3.668-1-8s4.268-7.794,5-10,4.447-2.187,5-3-1.838-2.688,0-4,6.288,0.437,8-1,4.324,0.615,4-2,1.628-7.34,2-9,0.543-3.712,2-5,0.228-2.784,2-3,4.193-.349,3-2a7.618,7.618,0,0,0-7-3c-2.18.139-3.286-2.251-3-5s4.771-6.838,6-10,2.264-5.054,3-7-0.036-2.462-1-5-1.493-4.834-2-6-4.358-.063-6-1-5.658-2.144-5-8,3.892-7.9,7-9,7.3-3.695,8-5-6.772-.525-4-4,2.914-11.368,4-8a19.532,19.532,0,0,1,1,6s6.922-4.884,9-8a48.789,48.789,0,0,0,3-5s-10.019-6.055-16-10-11.928-5.21-18-3-7.824,1.055-8,3-2.251,5.107-5,3-6.51-4.167-7.1-8.116c-0.587-3.919-1.306-6-2.9-7.884s-0.943-5.071-2-8-6-4.753-7-3-7.431,5.195-10,4-7.544.143-10,0-4.6,2.567-5,3-4.239.936-8,1-10.773,2.046-12,4-2.562-.171-2-3-6.047-5.805-10-6-6.044-3.708-3-7,6.325-6.921,5-7-4.345,4.4-9,3-6.337-5.593-8-6-10.187-3.175-15-2-8.352-5.248-7-6,3.4-.622,3-1-8.057-2.235-6-6,2.986-4.688,2-6-4.511-3.817-4-1-4.461,5.355-5,2,0.245-2.559,1-4-0.288-6.926-3-7-5.741,5.729-6,7-3.691-3.969-5-5S146.921,105.036,144,109Z"/>
        <path id="形状_25_拷贝" data-name="形状 25 拷贝" class="cls-2" d="M186,83c-0.475,1.537,0,5,0,5a7.361,7.361,0,0,1-3,4c-2.357,1.487-6.66,5.494-6,10s2.323,8.884,0,9,0.595,2.256-1,2,0.4,0.7-1,2-2.282,1.853-2,3-1.435,3.373-2,4-0.6,3.683,2,4,4.661,2.836,4,3-4.707.146-3,2,2.5,3.932,4,4,8.786-1.755,13,0,8.507,4.337,11,7,4.865,1.027,7,0,6.5-2.241,4,0-8.659,6.9-6,9,0.808,2.725,4,3,9.919,2.453,10,5-0.123,4.3,1,4,3.305-2.165,4-2,2.626-.889,3-1a10.157,10.157,0,0,1,3-1,13.745,13.745,0,0,0,4,0c1.795-.387,4.719-0.337,6-1a45.273,45.273,0,0,1,8-3,11.006,11.006,0,0,1,5,0c2.315,0.423,5.178,1.49,7,0s5.2-3.32,6-4,4.568-1.148,6,1a15.164,15.164,0,0,1,2,7,7.645,7.645,0,0,0,2,5c1.278,1.307,2.442,4.1,2,6s-0.646,3.291,1,4,5.442,2.66,6,4,2.355,0.765,3,0,2.583-3.306,4-4a30.152,30.152,0,0,1,6-2c1.451-.238,3.917-1.762,5-1s4.953-.587,8,1,19.116,11.112,20,12,4.383-1.131,5-2,0.373,6.885,3,6,3.007-1.342,4,0,6.048-1.27,7-4,0.337-4.661-2-3-0.865-1.12,0-3-0.6-1.981-3-2-5.06,2.3-7,1-5.049-1.795-6-6-2.617-10.1,1-13,2.852-4.064,4,0,0.971,6.684,6,6,18.247-.69,24-7,8.08-7.181,7-9-6.569-2.5-8-5-5.721-.668-7-2-3.556-3.324-2-5,1.446-4.646,1-6-4.222-1.966-2-5-0.394-6.954,2-8,5.928-1.113,7-3,1.1-3.111-1-3,0.429-1.268,1-3-2.062-1.926-3-4,1.1-3.417,1-5,0.277-5.068-2-7-3.719-4.056-4-6-8.024-3.4-11-1-4.849,5.433-6,5a10.907,10.907,0,0,0-9,2c-3.675,2.744-6.316,2.428-7,1s0.68-4.889,1-7,1.851-2.716,0-4-5.908-1.624-8-2-6.511-3.633-9-4-5.086-2.563-5-4-5.709-5.256-7-5-2.284-.525-3-3-3.331-3.084-5-3-6.631-6.336-9-5-3.206,1.53-4,0-2.576-4.266-4-4a8.189,8.189,0,0,1-4,0c-1.392-.4-7-1-7-1s-5.467-6.243-5-8-4-2-4-2-2.782-7.9-5-10-5.657-4.1-10-2-4.554,2.544-5,1-2.043.425-4-1-2.909-2.606-1-4-0.35-1.345-2,0-1.585,1.2-2,0-2.355-2.07-3-1-2.59,1.955-2,3-5.265-.529-6-1-2.106-1.9-4-2-2.378,4.4-2,5-0.984,2.782-2,4-2.848,4.437-2,5-0.232.722-2,2-5.852,3.527-7,6-3.964,2.712-5,3-6.385-.768-5,2,2.884,4.563,2,7-2.346,6.07-3,8-2.116,4.088,0,7,2.581,6.9,3,8S186.474,81.463,186,83Z"/>
        <path id="形状_26_拷贝" data-name="形状 26 拷贝" class="cls-2" d="M259,334c-0.277,1.386,1.291,2.306,1,4s-0.029,3.365-1,4-0.819,2.644-1,5-0.038,5.973-2,7-5.929,3.722-3,5,7.721,3.59,9,8,1.7,6.44,8,7,16.158,1.76,19,2,6.337-2.971,9,0,6.306,5.258,9,8-2.054,2.527,2,4,8.276,0.628,9,0-0.195-4.542,1-5-0.884-2.921-1-4,0.235-1.551,3-1,8.1,2.509,11,3,5.753-5.542,8-2,2.5,7.947,5,9,7.622,0.518,8-1,3.642-8.071,6-7,4.281,1.129,5-1,7.52-4.811,10-2-0.661,6.507,3,6,4.174-2.89,6-3a15.175,15.175,0,0,0,4-1s-1.817-3.618,1-5,0.391-3.515,0-6,0.434-3,3-4,6.914-2.246,6-3-4.981.315-1-4,6.061-11.605,8-13,1.312-.209,3,0,5.166-2.481,4-4-0.9-7.546,0-9a5.606,5.606,0,0,1,3-2,16.936,16.936,0,0,0-6,0c-3.894.546-3.981,0.265-6-2s-2.96-3.153-1-5,7.124-2.258,5-4-4.96-2.134-4-4,2.353-.926,2-3-0.836-.49-3-3,0.913-5.2-2-5-5.817-3.264-7-6-5.64-4.643-4-9,2.531-3.984,3-6,0.446-2.7,0-8-2.065-8.2-4-13-2.065-6.663-2-10-0.065-4.224,0-5-4.307,7.091-7,12-8.257,13.065-7,16-9.221,15.758-2,22,23.9,21.876,18,29-11.257-1.232-13-3-9.889.987-11-1,0.026,0.086-1-4-3.924,1.745-4-3-3.251-8.341-7-7-0.215,3.817,0,7-4.286,4.171-6,2-5.1,1.83-6-2-3.847-11.974-1-14,5.324-3.1,5-5,1.884-4.472,2-7a9.483,9.483,0,0,1,2-6c1.47-2.016,6.054-4.02,3-5s-2.166-10.689-2-13-4.2-.64-4-3-1.421-6.627,0-8-0.082-4.411-4-3-8.354,2.388-9,4-5.473-1.02,2-4,6.618-1.492,8-3,6.408-6.773,8-5,0.116,6.608,2,4,7.143-10.6,9-13,6-8,6-8l-5-2-8,9,3,3-5,5-4-3s-5.182,4.091-7,4-5.6.583-6-3a13.119,13.119,0,0,0-3-7c-1.219-1.739-7.335-.462-8,1s-3,1-3,1a22.445,22.445,0,0,1-1,8c-1.293,3.287-7.586,12.167-8,14s1.632,5.285,4,5,6.92,2.52,6,4-3.52,1.333-4,2-2.773,6.652-4,9-0.23,7.718-2,8-9.719.531-11,1,0.773,2.784,0,4-4.615,1.7-6,4-4.242,6.677-4,10,1.293,7.191,0,9-4.977,2.647-5,4-3.688.731-4,3-0.7,4.612-2,4-6.871-7.42-8-7,1.078,2.866,1,5-1.954,6.271-4,7S259.559,331.2,259,334Z"/>
        <path id="形状_27_拷贝" data-name="形状 27 拷贝" class="cls-2" d="M448,78c-1.363-1.818-1.575,6.7-3,7s-2.523,2.728-3,5-6.035,5.215-9,6a35.165,35.165,0,0,0-10,5c-2.2,1.733-4.623,2.318-7,1s-6.6-4.99-9-5-5.493,1.908-6,3-2.211,7.677-3,9-2.9,2.113-4,1-9.261-1.3-10-1,0.227-3.169-2-4-6.336-2.656-9,0-4.464,3.344-5,3-1.677,1.2-1,2,2.126,1.7,0,3-7.671,3.445-7,5-1.528,5.588-2,7,1.436,2.384,2,4,0.253,4.43,0,6-1.615,4.46,0,5,5.466,0.43,7,1,2.131,3.355,6,5,5.38,1.41,3,4-8.8,12.387-20,13-15.156,1.609-16,0,0.237-5.466-1-6-2.318.209-3,2-3.626.825-3,3-0.028,11.791,5,13,5.706-.269,8,0,5.638-.781,5,2,1.065,2.655,2,3-2.969,8.442-6,9-2.9-1.054-4-1-3.139.271-4-2a22.63,22.63,0,0,1-1-3s-6.708,4.911-10,10-6,5-6,5-1.247-7.586-2-5-4.564,8.134-3,9,4.388,0.176,4,2-6.642,4.536-10,5-5.959,9.155-5,13,9.208,2.922,11,6,1.367,6.065,5,5,7.584-4.35,10-1,1.03,8.957,4,9,7.013-.465,8-2,3.109-2.579,4-1,4.067,1.884,5,1,4.091-1.863,3-3a6.961,6.961,0,0,1-2-3c-0.393-1.228,7-10,7-10l4,3-14,20a23.453,23.453,0,0,1-2-3c-0.4-.921-1.393-1.463-3,0s-4.363,5.312-6,5-8.791,1.544-9,3-1.932,2.581-1,3,4.338-2.353,6-3,8.168-2.4,8,1-0.813,4.075,0,5,1.805,3.62,1,4,1.226,2.168,2,2,1,1.754,1,3-0.491,9.133,1,10,1.112,1.511,0,3-5.077,5.909-4,8,0.341,4.318-1,5-0.258,3.172-1,4-8.71,4.738-7,8,1.354,5.923,2,7-0.252,2.649,1,3,4.729,0.305,6,2,7.92,1.26,6-2-4.086-4.459-2-6a4.751,4.751,0,0,1,7,1c1.908,2.676,1.557,6.642,2,7s3.544-.9,4,1,0.047,5.292,5,5,8.359-.39,10,2,4.878,7.155,8,4,6.3-6.8,3-11-16.52-19.027-18-20a10.754,10.754,0,0,1-3-12c2.4-5.894,4.273-6.427,4-8s0.655-4.248,1-6,2.211-7.8,4-10,4.3-6.5,4-7,4.854-7.852,5-8,2.47,0.982,4,1,1.122,1.819,2,4-0.923,6.884,2,8,3.536-1.144,4-3,0.81-8.128-1-10-2.235-6.01,0-5,4.8,1.88,4,0-1.923-4.653-3-5,4.38-5.223,3-5-3.509-2.445-1-4,5.106,0.519,4-1a7.927,7.927,0,0,0-4-3c-1.728-.637-0.628-1.629,2-2s9.356,1.437,11,4,1.614,0.592,5,1,3.414-1.9,6-2,3.561-1.637,5,0,1.332,4.08,1,7,0.168,6.117,3,5,7.061-.326,10-3,7.068-1.964,7-4-0.041-4.073-1-4,2.974,0.55,5-2,0.4-5.357,3-7,4.67-3.1,5-3-1.286,5.39-3,6,0.989,0.34,3,1,1,3,1,3a17.9,17.9,0,0,0,5,1c2.315,0.022,2,3.775,1,4s4.265,4.631,3,6-3.373,4.429-4,5-2.844,1.118-1,2,3.222,0.589,6,0,1.86-4.579,4-5,5.447-3.695,6-5,5.244-2.913,5-4-0.169-3.551,2-4-1.22-4.618,1-6,2-1.878,4-1,5.165-1.306,6-2,4.977-3.205,9-3,4.412-2.431,8-5,1-7,1-7-2.75.482-4,0a24.167,24.167,0,0,0-5-1c-1.523-.17-6.059-3.412-7-5s0.42-2.12,1-3-2.953-.891-6-1a63.546,63.546,0,0,1-9-1c-2.528-.484,2.173-0.932,2-3s-5.1-9.555,0-12,4.838-1.951,6-3-0.119-1.805-2-2,1.422-4.533,0-5-3.535-3.178-5-4-4.8-.949-6-1-4.631-4.548-5-6-2.631,1.2-3,0,2.12-2.546,0-5-9.127-12.793-11-14-2.128-3.542,0-6-0.127-6.29-2-7-3.626-3.537-4-9-0.127-8.537,2-7,6.872,3.464,6,0-2.877-4.284-3-7a5.7,5.7,0,0,0-4-5c-1.874-.716.125-4.782-2-7S450.251,81,448,78Z"/>
        <path id="形状_28_拷贝" data-name="形状 28 拷贝" class="cls-2" d="M406,378c-3.256.651-11.671,1.462-14,5s-2.779,2.068-4,2-1.349-1.916,0-3-0.779-2.024-1-3-2.6-2.92,1-5,3.615-3.35,2-4-3.293-4.924,1-6,5.707-.121,5-1-3.06-3.5-1-5,7.105-12.362,9-14,2.892,0.674,4,0,3.928-6.651,3-8,0.679-3.671,1-5,0.659-3.064-2-3-2.7,1.614-3,1-0.647.614-2,0-5.434-2.157-5-5,1.944-2.908,4-4,1.317-1.856,0-3-2.128-2.518-1-4,2.084-1.948,0-3-2.676-3.8-3-5-3.337-3.118-5-4-5.558-6.428-6-8-2.02-4.463,0-7,3-10.52,2-14-4.024-9.006-5-12,0.042-4.805,0-6-1.18-1.825-1-4,0.108-4.736,1-4,4.44-.85,5,5-0.981,8.077,2,8,5.361-1.546,5-4-2.2-9.257-3-10-1.914-5.089,1-4,3.938,1.206,4,0-1.98-3.045-3-4,0.269-2.985,2-4,0.428-1.689,0-2-2.6-2.851,0-4,3.59-.147,4,0-1.053-3.741-3-4-2.978-1.668,0-2,8.656-.233,11,3,4.053,2.149,7,2,4.933-3.173,8-3,3.71,2.942,3,7-0.313,3.955,1,5,1.318,0.769,3,0,5.579-.021,7-1a43.1,43.1,0,0,1,6-3c1.382-.57,3.15.816,3-1s-1.492-4.124,0-5,4.746-1.18,5-3-1.343-3.609,1-5a15.971,15.971,0,0,0,4-3c1.431-1.355,2.075-1.856,2,0s-3.678,4.561-2,5,3.086-.786,3,1-0.384,3.991,1,4,4.045-.627,5,0,1.91,1.791,1,3,0.068,2.073,1,3,2.551,2.75,1,4-4.62,4.7-5,6a4.832,4.832,0,0,1-2,3c-1.014.581,1.014,3.083,0,4a25.972,25.972,0,0,1-4,3c-1.19.647-4.241-.253-4,1s0.883,3.374,0,4-1.584,2.966-3,3-1.781,1.148-2,3-2.087,3.563-3,6-2.751,2.206-4,2-3-.452-1,2,1.183,3.052,4,5,4.847-.269,6,1,4.847,2.322,3,3-2.4,1.789-1,3,4.117,1.416,3,3-1.19,3.2-3,4-5.474,1.35-3,3,3.832,3.3,5,4,1.19,4.164,0,7-2.039,5-2,7-0.955,5.686-2,5-1.1-3.122-3-2-6.177,7.529-7,10-1.3,6.3,0,7,3.025,2.468,4,3-0.167,1.508-2,3-5.742,3.821-4,4,2.722,0.387,4,0,4.157-1.876,3,0-3.989,2.206-3,3-0.984,1.753-2,3-3.05,1.305-3,1-0.249-3.628-3-1-0.84,3.576,0,4,0.955,2.057,0,2a22.37,22.37,0,0,0-7,2c-1.215.842-2.456,2.967-3,3a11.8,11.8,0,0,1-6-1c-2.489-1.3-6.416.775-5,2a8.127,8.127,0,0,0,6,2c2.812-.09,6.174.036,6,1s-4.282,3.189-3,5,0,5.307,1,6-4.869.968-6,3-2.157,2.329-3,2A45.724,45.724,0,0,0,406,378Z"/>
      </g>
    </g>
  </g>
</svg>
