<svg xmlns="http://www.w3.org/2000/svg" width="822" height="486" viewBox="-12 -12 822 486" preserveAspectRatio="none">
    <defs>
        <style>
            .cls-1{opacity:0.6;}.cls-2,.cls-282{fill:#fff;}.cls-2{opacity:0.1;}
        </style>
    </defs>
    <g id="图层_2" data-name="图层 2">
        <g id="C区">
            <g class="cls-3" transform="translate(0,18)">
                <path class="cls-282"
                      d="M67.23,121s0,.31,0,.43c-.19,3.47-.37,4.74-.76,5.17a1.17,1.17,0,0,1-.87.41A15.71,15.71,0,0,1,64,127a2.79,2.79,0,0,0-.2-.75h-.39v-.36H57.11v-3H58v2.21h2.18v-2.74h.89v2.74h2.31v-2.25h.87v3.35c.42,0,.8,0,1,0a.57.57,0,0,0,.47-.15c.27-.28.45-1.38.62-4.19H58v-5.11h2.8c.19-.41.37-.9.49-1.25l1.07.13c-.19.38-.4.79-.59,1.12h4.05s0,.25,0,.36c-.17,1.92-.32,2.74-.63,3.05a.9.9,0,0,1-.67.3,7.22,7.22,0,0,1-1.15,0,2.8,2.8,0,0,0-.24-.83,8.5,8.5,0,0,0,1,0c.17,0,.28,0,.36-.12a4.34,4.34,0,0,0,.44-2H59V121Zm-4.81-.93a15,15,0,0,0-2.64-1.35l.48-.6a13.56,13.56,0,0,1,2.67,1.28Z"/>
                <path class="cls-282"
                      d="M75.1,117.42a18.29,18.29,0,0,1-1.51,3.28h7v6.36h-1v-.87h-6v.88h-.93v-5a11.16,11.16,0,0,1-2.1,2.13,4.44,4.44,0,0,0-.66-.72A12.45,12.45,0,0,0,74,117.42h-3.6v-.92H81.36v.92Zm-1.49,4.18v3.68h6V121.6Z"/>
                <path class="cls-282"
                      d="M85.69,117.82a10.09,10.09,0,0,1-1.25,1.67,5.35,5.35,0,0,0-.49-.9,7.56,7.56,0,0,0,1.82-3l.84.25c-.14.38-.29.79-.46,1.15h2.4v.86Zm2.71,6.75a5.61,5.61,0,0,0,.17.8,15.93,15.93,0,0,0-2.7,1.61,3.76,3.76,0,0,0-.48-.67A1.33,1.33,0,0,0,86,125.2v-2.59H84.26v-.86H86v-1.7H84.91v-.85h3.41v.85H86.89v1.7h1.68v.86H86.89v2.74Zm7.12-.68v.82h-7v-.82h.91v-5.57h1.73c0-.27.12-.55.19-.85H88.93v-.77h2.6c.07-.41.14-.81.19-1.15l1,.07c-.07.35-.16.72-.24,1.08h2.82v.77h-3c-.08.3-.16.58-.23.85h2.69v5.57Zm-3.83,1.4a14,14,0,0,1-2.54,1.79,4.25,4.25,0,0,0-.58-.64,10.61,10.61,0,0,0,2.34-1.67ZM90.32,119v.81h3.56V119Zm3.56,1.38H90.32v.75h3.56Zm-3.56,2.11h3.56v-.78H90.32Zm0,1.43h3.56V123H90.32Zm2.81.91a15.91,15.91,0,0,1,2.31,1.65l-.64.62a17.35,17.35,0,0,0-2.27-1.72Z"/>
            </g>
            <g class="cls-3" transform="translate(0,30)">
                <path class="cls-282"
                      d="M269.69,165.35v5.54h-1v-.59h-7.6v.61h-1v-5.56Zm-8.61.84v1.21h7.6v-1.21Zm7.6,3.29V168.2h-7.6v1.28Zm0-5.1h-7.59v-4.56h7.59Zm-1-3.78h-5.64v1.11h5.64Zm0,1.86h-5.64v1.14h5.64Z"/>
                <path class="cls-282"
                      d="M277.36,159.64a17.14,17.14,0,0,1-1.27,2.49v8.76h-1V163.6a11.79,11.79,0,0,1-1.45,1.65,6.62,6.62,0,0,0-.62-.9,14,14,0,0,0,3.4-5Zm5.42,10.08c.67,0,.76-.54.86-2.69a3.17,3.17,0,0,0,.92.46c-.12,2.35-.4,3.16-1.73,3.16h-2.22c-1.26,0-1.62-.38-1.62-1.79v-2.17a17.47,17.47,0,0,1-1.75,1,5.17,5.17,0,0,0-.7-.71,18.39,18.39,0,0,0,2.45-1.44v-6h1v5.23a15.72,15.72,0,0,0,3.38-3.64l.93.61A19.44,19.44,0,0,1,280,166v2.88c0,.69.12.83.73.83Z"/>
                <path class="cls-282"
                      d="M288.58,161.64a10.09,10.09,0,0,1-1.25,1.67,4.19,4.19,0,0,0-.49-.9,7.63,7.63,0,0,0,1.82-3l.84.25c-.13.38-.29.78-.46,1.15h2.4v.86Zm2.71,6.74a5.61,5.61,0,0,0,.17.8,14.62,14.62,0,0,0-2.7,1.62,3.43,3.43,0,0,0-.48-.67,1.36,1.36,0,0,0,.63-1.11v-2.59h-1.76v-.86h1.76v-1.71H287.8V163h3.41v.85h-1.43v1.71h1.68v.86h-1.68v2.74Zm7.12-.68v.82h-7v-.82h.91v-5.57h1.73c.05-.26.12-.54.19-.85h-2.45v-.77h2.6c.07-.4.14-.81.19-1.15l1,.08c-.07.34-.16.72-.24,1.07h2.82v.77h-3c-.08.31-.15.59-.23.85h2.69v5.57Zm-3.83,1.4a13.73,13.73,0,0,1-2.54,1.8,4.3,4.3,0,0,0-.58-.65,10.59,10.59,0,0,0,2.34-1.66Zm-1.37-6.31v.81h3.56v-.81Zm3.56,1.37h-3.56v.75h3.56Zm-3.56,2.11h3.56v-.78h-3.56Zm0,1.43h3.56v-.84h-3.56Zm2.81.91a16.62,16.62,0,0,1,2.32,1.66l-.65.62a16.51,16.51,0,0,0-2.27-1.72Z"/>
            </g>
            <g class="cls-3" transform="translate(0,18)">
                <path class="cls-282"
                      d="M359.19,151.87c.86,2.93,2.51,5.33,5,6.4a4.18,4.18,0,0,0-.7.86c-2.52-1.21-4.13-3.6-5.09-6.66a10,10,0,0,1-1.57,3.72l.37-.26a17.16,17.16,0,0,1,2.46,2.42l-.8.62a15.87,15.87,0,0,0-2.31-2.4,8.46,8.46,0,0,1-3.35,2.53,2.92,2.92,0,0,0-.69-.77,8.07,8.07,0,0,0,5-6.46h-4.71v-1h4.86a31.22,31.22,0,0,0,.14-3.34h1a31.06,31.06,0,0,1-.16,3.34h5.23v1Z"/>
                <path class="cls-282"
                      d="M357.18,162.35c-.48,1-1.09,2.25-1.62,3.22A3.54,3.54,0,0,1,357,168.3a1.69,1.69,0,0,1-.58,1.48,1.89,1.89,0,0,1-.77.25,6.57,6.57,0,0,1-1.09,0,2,2,0,0,0-.25-.86,8.33,8.33,0,0,0,1,0,1.09,1.09,0,0,0,.52-.14c.24-.14.33-.45.33-.86a3.46,3.46,0,0,0-1.52-2.54,29.6,29.6,0,0,0,1.31-2.83H354V173h-.87V162h3.24l.16,0Zm6.25-.11v10.57h-.92v-.87h-3.74v1h-.91V162.24Zm-4.66.88v3.4h3.74v-3.4Zm3.74,7.95v-3.68h-3.74v3.68Z"/>
                <path class="cls-282"
                      d="M354.23,177.66a9.09,9.09,0,0,1-1.25,1.67,4.72,4.72,0,0,0-.49-.9,7.56,7.56,0,0,0,1.82-3l.85.25a11.55,11.55,0,0,1-.47,1.15h2.4v.86Zm2.71,6.75a7.44,7.44,0,0,0,.17.8,15.93,15.93,0,0,0-2.7,1.61,3.76,3.76,0,0,0-.48-.67,1.33,1.33,0,0,0,.63-1.11v-2.59h-1.75v-.86h1.75v-1.7h-1.11V179h3.41v.85h-1.43v1.7h1.68v.86h-1.68v2.74Zm7.12-.68v.82h-7v-.82H358v-5.58h1.73c0-.26.13-.54.19-.84h-2.45v-.77h2.6c.08-.41.14-.81.19-1.15l1,.07c-.08.34-.17.72-.24,1.08h2.81v.77h-3c-.08.3-.15.58-.23.84h2.69v5.58Zm-3.82,1.4a14.38,14.38,0,0,1-2.54,1.79,5,5,0,0,0-.59-.64,11,11,0,0,0,2.34-1.67Zm-1.38-6.32v.81h3.56v-.81Zm3.56,1.38h-3.56v.74h3.56Zm-3.56,2.11h3.56v-.78h-3.56Zm0,1.43h3.56v-.85h-3.56Zm2.82.91a17.09,17.09,0,0,1,2.31,1.65l-.65.62a17.35,17.35,0,0,0-2.27-1.72Z"/>
            </g>
            <g class="cls-3" transform="translate(0,18)">
                <path class="cls-282"
                      d="M495.85,106.2a7.2,7.2,0,0,0,4.9,4.63,3.56,3.56,0,0,0-.6.8,7.8,7.8,0,0,1-4.93-4.76c-.54,1.75-1.85,3.52-4.9,4.78a2.92,2.92,0,0,0-.57-.75c3.08-1.26,4.24-3,4.66-4.7h-4.36v-.9h4.54a10.63,10.63,0,0,0,.07-1.35v-1.41h-4.19v-.9h9.42v.9h-4.3V104a12.34,12.34,0,0,1-.06,1.34h4.88v.9Z"/>
                <path class="cls-282"
                      d="M499.21,114.66V124.8h-.92V124H492v.82h-.87V114.66Zm-7.2.87v1.94h6.28v-1.94Zm0,2.79v2h6.28v-2Zm6.28,4.79v-2H492v2Z"/>
                <path class="cls-282" d="M499.88,129.58V138H499v-.89h-8.43v-7.54h.91v6.65h3.29v-9h.91v9H499v-6.66Z"/>
                <path class="cls-282"
                      d="M491.32,142.49a9.06,9.06,0,0,1-1.19,1.58,4.26,4.26,0,0,0-.47-.85,7.19,7.19,0,0,0,1.73-2.88l.8.24a11.46,11.46,0,0,1-.44,1.1H494v.81Zm2.57,6.41a5.2,5.2,0,0,0,.16.75,13.67,13.67,0,0,0-2.56,1.54,4,4,0,0,0-.46-.64,1.28,1.28,0,0,0,.6-1.05V147H490v-.82h1.67V144.6h-1.06v-.8h3.24v.8h-1.35v1.62h1.59V147h-1.59v2.6Zm6.76-.65V149H494v-.78h.86V143h1.65c0-.25.12-.52.18-.8h-2.33v-.74h2.47c.07-.38.13-.76.18-1.09l.94.07c-.08.33-.16.69-.23,1h2.67v.74h-2.84c-.07.28-.14.55-.22.8h2.56v5.29ZM497,149.58a13.81,13.81,0,0,1-2.41,1.7,5.25,5.25,0,0,0-.56-.61,10.42,10.42,0,0,0,2.22-1.58Zm-1.31-6v.77h3.38v-.77Zm3.38,1.31h-3.38v.71h3.38Zm-3.38,2h3.38v-.74h-3.38Zm0,1.36h3.38v-.81h-3.38Zm2.67.86a16.34,16.34,0,0,1,2.2,1.57l-.61.59a17,17,0,0,0-2.16-1.63Z"/>
            </g>
            <g class="cls-3" transform="translate(0,60)">
                <path class="cls-282"
                      d="M225.59,319.51a18.55,18.55,0,0,0-2-1.23l.51-.69a14,14,0,0,1,2.06,1.14Zm-1.67,5.22a38.33,38.33,0,0,0,2-4l.73.6c-.52,1.33-1.23,2.87-1.83,4.05Zm.91-10.53a16.5,16.5,0,0,1,2.09,1.23l-.55.77a15.25,15.25,0,0,0-2.07-1.32Zm6.57,5.26c-.18.4-.34.82-.5,1.17h3.65v4c0,.42-.07.65-.34.78a2.81,2.81,0,0,1-1.24.16,2.68,2.68,0,0,0-.26-.8h.83c.11,0,.13,0,.13-.14v-3.21h-1.3v4h-.77v-4h-1.25v4h-.76v-4h-1.25v4.12h-.86v-4.93H230c.13-.35.27-.78.37-1.17H227v-.84h8v.84Zm3-1.77h-6.74v-3h.87v2.19h2V314h.91v2.82h2.08v-2.19h.91Z"/>
                <path class="cls-282" d="M248,315.34v9.85h-1v-1h-7.43v1.08h-.95v-9.92Zm-1,7.9v-7h-7.43v7Z"/>
                <path class="cls-282"
                      d="M253.05,316.33A8.68,8.68,0,0,1,251.8,318a3.94,3.94,0,0,0-.49-.89,7.67,7.67,0,0,0,1.82-3l.85.26c-.14.38-.29.78-.47,1.15h2.4v.86Zm2.71,6.74a5.57,5.57,0,0,0,.18.8,15.06,15.06,0,0,0-2.71,1.62,3.43,3.43,0,0,0-.48-.67,1.36,1.36,0,0,0,.63-1.12v-2.59h-1.75v-.86h1.75v-1.7h-1.11v-.85h3.41v.85h-1.42v1.7h1.68v.86h-1.68v2.75Zm7.12-.68v.82h-7v-.82h.91v-5.57h1.73c.05-.27.13-.55.19-.85h-2.45v-.77h2.6c.08-.4.14-.81.19-1.15l1,.08c-.08.34-.17.72-.24,1.07h2.81V316h-3c-.08.3-.15.58-.23.85h2.69v5.57Zm-3.82,1.4a14.44,14.44,0,0,1-2.54,1.8,4.92,4.92,0,0,0-.58-.65,10.78,10.78,0,0,0,2.33-1.67Zm-1.38-6.32v.81h3.56v-.81Zm3.56,1.38h-3.56v.75h3.56ZM257.68,321h3.56v-.78h-3.56Zm0,1.43h3.56v-.85h-3.56Zm2.82.91a17.09,17.09,0,0,1,2.31,1.65l-.65.62a16.7,16.7,0,0,0-2.27-1.71Z"/>
            </g>
            <g class="cls-3" transform="translate(0,45)">
                <path class="cls-282"
                      d="M219,269.11a22.18,22.18,0,0,0-2.33-1.37l.52-.68a24.66,24.66,0,0,1,2.33,1.28Zm-2,5.08a34.09,34.09,0,0,0,2.39-4l.68.62c-.66,1.32-1.53,2.88-2.27,4Zm11.31-9h-1v8.46c0,.68-.18,1-.67,1.15a11.15,11.15,0,0,1-2.77.18,4.26,4.26,0,0,0-.37-1c1.1,0,2.18,0,2.5,0s.39-.1.39-.38v-8.45h-6.29V265l-.54.74c-.53-.36-1.57-1-2.35-1.42l.53-.67c.77.39,1.8,1,2.36,1.32v-.7h8.19Zm-6.57,6.3v.87h-.86v-5.43h3.95v4.56Zm0-3.7v2.85H224v-2.85Z"/>
                <path class="cls-282"
                      d="M234.3,270.06a16.4,16.4,0,0,0-.87-1.72V275h-.86v-6.1a13.62,13.62,0,0,1-1.54,3.55,4.19,4.19,0,0,0-.49-.91,14.18,14.18,0,0,0,1.94-4.76h-1.7v-.89h1.79v-2.42h.86v2.42h1.48v.89h-1.48v.44c.32.42,1.25,1.81,1.44,2.17Zm2.39-.27h.9v1a5,5,0,0,1-2.18,4.28,3.08,3.08,0,0,0-.65-.65,4.09,4.09,0,0,0,1.93-3.66Zm3.47-2.22a7.1,7.1,0,0,0,2.15,2.32,3.84,3.84,0,0,0-.63.7,9,9,0,0,1-2.39-3H238a6.91,6.91,0,0,1-2.66,3.09,3.72,3.72,0,0,0-.57-.73,5.87,5.87,0,0,0,2.25-2.36h-1.83v-.85h2.2a10.12,10.12,0,0,0,.48-1.71c-.72.08-1.42.13-2.06.16a3,3,0,0,0-.27-.77,30.19,30.19,0,0,0,5.42-.76l.56.78a18.36,18.36,0,0,1-2.72.49,11.66,11.66,0,0,1-.47,1.81h3.81v.85Zm-.5,2.23h.92V275h-.92Z"/>
                <path class="cls-282"
                      d="M246.23,265.75a9.6,9.6,0,0,1-1.25,1.66,4.92,4.92,0,0,0-.49-.89,7.69,7.69,0,0,0,1.81-3l.85.25c-.14.38-.29.78-.47,1.15h2.4v.86Zm2.7,6.74a7.35,7.35,0,0,0,.18.8,14.62,14.62,0,0,0-2.7,1.62,3.43,3.43,0,0,0-.48-.67,1.36,1.36,0,0,0,.63-1.12v-2.59H244.8v-.85h1.76V268h-1.11v-.85h3.41V268h-1.43v1.71h1.68v.85h-1.68v2.75Zm7.13-.68v.82h-7v-.82H250v-5.57h1.74c.05-.27.12-.54.18-.85h-2.45v-.77h2.61c.07-.4.14-.81.19-1.15l1,.08c-.07.34-.16.72-.24,1.07h2.82v.77h-3c-.07.31-.15.58-.22.85h2.69v5.57Zm-3.83,1.4a14.08,14.08,0,0,1-2.54,1.8,4.92,4.92,0,0,0-.58-.65,10.93,10.93,0,0,0,2.34-1.66Zm-1.38-6.31v.8h3.57v-.8Zm3.57,1.37h-3.57V269h3.57Zm-3.57,2.11h3.57v-.78h-3.57Zm0,1.43h3.57V271h-3.57Zm2.82.91a16.48,16.48,0,0,1,2.31,1.66l-.64.61a16.86,16.86,0,0,0-2.28-1.71Z"/>
            </g>
            <g class="cls-3" transform="translate(0,50)">
                <path class="cls-282"
                      d="M714.35,222.9c-.17-.43-.57-1.2-.91-1.85v6.71h-.88v-6.28A14.26,14.26,0,0,1,711,225.2a6,6,0,0,0-.48-.9,13.5,13.5,0,0,0,2-4.76h-1.68v-.89h1.75v-2.42h.88v2.42h1.5v.89h-1.5v.38c.33.45,1.25,1.89,1.46,2.26Zm7.16-2.81a11.4,11.4,0,0,1-2,4.92,6.34,6.34,0,0,0,2.66,2,2.77,2.77,0,0,0-.63.81,7.12,7.12,0,0,1-2.61-2.06,8.77,8.77,0,0,1-2.8,2,3.57,3.57,0,0,0-.57-.77,7.42,7.42,0,0,0,2.82-2,14.05,14.05,0,0,1-1.68-4.16h-.37c0,2.1-.3,5-1.68,7a2.67,2.67,0,0,0-.76-.53c1.39-2,1.52-4.81,1.52-6.81v-3.06a21,21,0,0,0,5.65-.93l.63.73a19.36,19.36,0,0,1-5.36,1v1.76h4.4l.16,0Zm-3.94.71a11.9,11.9,0,0,0,1.43,3.41,9.82,9.82,0,0,0,1.45-3.41Z"/>
                <path class="cls-282"
                      d="M728.13,222.83a17.43,17.43,0,0,0-.87-1.71v6.64h-.86v-6.1a13.62,13.62,0,0,1-1.54,3.55,4.19,4.19,0,0,0-.49-.91,14.27,14.27,0,0,0,1.94-4.76h-1.7v-.89h1.79v-2.42h.86v2.42h1.48v.89h-1.48V220c.32.42,1.25,1.81,1.44,2.17Zm2.39-.26h.9v1a5,5,0,0,1-2.18,4.29,3.08,3.08,0,0,0-.65-.65,4.09,4.09,0,0,0,1.93-3.66Zm3.47-2.22a7.1,7.1,0,0,0,2.15,2.32,3.77,3.77,0,0,0-.63.69,9,9,0,0,1-2.39-3h-1.29a6.91,6.91,0,0,1-2.66,3.09,3.45,3.45,0,0,0-.57-.73,5.87,5.87,0,0,0,2.25-2.36H729v-.85h2.2a10.12,10.12,0,0,0,.48-1.71c-.72.08-1.42.13-2.06.15a3.23,3.23,0,0,0-.27-.77,29.26,29.26,0,0,0,5.42-.75l.56.78a18.36,18.36,0,0,1-2.72.49,12.91,12.91,0,0,1-.47,1.81H736v.85Zm-.5,2.23h.92v5.16h-.92Z"/>
                <path class="cls-282"
                      d="M740.06,218.53a9.6,9.6,0,0,1-1.25,1.66,4.92,4.92,0,0,0-.49-.89,7.77,7.77,0,0,0,1.81-3l.85.26c-.14.38-.29.78-.47,1.15h2.4v.86Zm2.7,6.74a7.35,7.35,0,0,0,.18.8,15.06,15.06,0,0,0-2.71,1.62,2.76,2.76,0,0,0-.48-.67,1.37,1.37,0,0,0,.64-1.12v-2.59h-1.76v-.85h1.76v-1.71h-1.11v-.85h3.41v.85h-1.43v1.71h1.68v.85h-1.68v2.75Zm7.13-.68v.82h-7v-.82h.91V219h1.73c.06-.27.13-.55.19-.85h-2.45v-.77h2.61c.07-.4.13-.81.18-1.15l1,.08c-.08.34-.16.72-.24,1.07h2.82v.77h-3c-.07.3-.15.58-.22.85h2.69v5.57Zm-3.83,1.4a14.44,14.44,0,0,1-2.54,1.8,4.92,4.92,0,0,0-.58-.65,10.61,10.61,0,0,0,2.34-1.67Zm-1.38-6.31v.8h3.56v-.8Zm3.56,1.37h-3.56v.75h3.56Zm-3.56,2.11h3.56v-.78h-3.56Zm0,1.43h3.56v-.85h-3.56Zm2.82.91a17.34,17.34,0,0,1,2.31,1.65l-.64.62a16.86,16.86,0,0,0-2.28-1.71Z"/>
            </g>
            <g class="cls-3" transform="translate(0,18)">
                <path class="cls-282"
                      d="M632.2,62.42v.81h-11v-.81h5.17c-.12-.36-.27-.79-.4-1.15l.91-.21c.18.43.37,1,.51,1.36Zm-.4,9.23c0,.45-.12.64-.46.77a5.92,5.92,0,0,1-1.66.11,3,3,0,0,0-.31-.69c.55,0,1.13,0,1.28,0s.21,0,.21-.2V68h-8.3v4.68h-.91V67.15H631.8Zm-1.37-7.71v2.53h-7.32V63.94Zm-1.13,7.34h-4.45v.62H624V68.69h5.32Zm.17-6.64H624v1.13h5.44Zm-4.62,4.76v1.17h3.6V69.4Z"/>
                <path class="cls-282"
                      d="M646.42,71.1V72h-6.27v-.58l-.43.13c0-.2-.09-.47-.16-.73-1.62.34-3.29.69-4.55.94l-.15-.91c.64-.1,1.45-.25,2.33-.41V68h-1.12v.59h-.79V63.38h1.93V61.16h.84v2.22h1.87V68h-1.87v2.31l1.28-.23c-.13-.39-.28-.77-.42-1.11l.72-.21a13,13,0,0,1,.82,2.38h2.34V63.18H640.4v-.89h5.76v.89h-2.4V71.1Zm-10.35-3.94h1.2v-3h-1.2Zm3.08-3H638v3h1.16Z"/>
                <path class="cls-282"
                      d="M650.42,63.4a9.6,9.6,0,0,1-1.25,1.66,4.92,4.92,0,0,0-.49-.89,7.75,7.75,0,0,0,1.82-3l.84.25c-.14.38-.29.78-.47,1.15h2.41v.86Zm2.7,6.74a7.35,7.35,0,0,0,.18.8,14.62,14.62,0,0,0-2.7,1.62,3.43,3.43,0,0,0-.48-.67,1.36,1.36,0,0,0,.63-1.11V68.19H649v-.86h1.76V65.62h-1.11v-.85h3.41v.85h-1.43v1.71h1.68v.86h-1.68v2.74Zm7.13-.68v.82h-7v-.82h.9V63.89h1.74c.05-.27.12-.54.19-.85h-2.46v-.77h2.61c.07-.4.14-.81.19-1.15l1,.08c-.07.34-.16.72-.24,1.07H660V63h-3c-.07.31-.15.58-.22.85h2.69v5.57Zm-3.83,1.4a14.08,14.08,0,0,1-2.54,1.8,4.92,4.92,0,0,0-.58-.65,10.93,10.93,0,0,0,2.34-1.66ZM655,64.55v.81h3.57v-.81Zm3.57,1.37H655v.75h3.57ZM655,68h3.57v-.78H655Zm0,1.43h3.57v-.84H655Zm2.82.91A16.48,16.48,0,0,1,660.17,72l-.64.62a16.06,16.06,0,0,0-2.28-1.72Z"/>
            </g>
            <g class="cls-3" transform="translate(0,50)">
                <path class="cls-282"
                      d="M586.38,197.27l.16.86c-1.32.48-2.72,1-3.8,1.32l-.23-.87c.45-.13,1-.32,1.63-.52l0-3.39h-1.38v-.88h1.38l0-2.75h-1.56v-.86l4,0v.86h-1.53l0,2.76h1.19v.87H585l0,3.07ZM591,189.6c-.07.18-.15.34-.24.52a11.44,11.44,0,0,0,3.51,3.64,5.23,5.23,0,0,0-.68.74,13.17,13.17,0,0,1-3.26-3.6,12.33,12.33,0,0,1-3.16,3.55,4.13,4.13,0,0,0-.67-.65,11,11,0,0,0,3.63-4.47Zm2.28,6a19.26,19.26,0,0,1-2.72,3.56c.52.41,1,.83,1.34,1.15l-.68.61a29.63,29.63,0,0,0-3.2-2.67l.65-.51c.36.25.77.54,1.17.86a17.13,17.13,0,0,0,2.06-2.51l-4.35,0v-.88l4.89,0,.16-.05Zm-3.35-2.69a13.47,13.47,0,0,1,1.31,1.44l-.74.48a10.37,10.37,0,0,0-1.28-1.56Z"/>
                <path class="cls-282"
                      d="M600.47,198.16c-1.31.49-2.73,1-3.82,1.36l-.22-.89c.47-.15,1-.32,1.67-.54l0-3.34h-1.43v-.88h1.43l0-2.76h-1.61v-.86l4,0v.86H599v2.75h1.25v.88H599v3.05l1.38-.49Zm6.34,1.72c.3,0,.37-.25.41-1.44a2.34,2.34,0,0,0,.77.35c-.1,1.46-.33,1.91-1.12,1.9H605.4c-.93,0-1.17-.28-1.17-1.29v-.27a11.45,11.45,0,0,1-1.68,1.32,4,4,0,0,0-.62-.61,10.66,10.66,0,0,0,2.31-1.87l0-4.74h-.9c-.28,3.52-1,6-3.16,7.76a4.68,4.68,0,0,0-.67-.75c2-1.47,2.73-3.81,3-7h-1.9v-.81h1.94c.06-.94.08-1.93.08-3l.91,0c0,1.07,0,2.07-.1,3l4.44,0v.81h-2.74l0,3.75a13.32,13.32,0,0,0,1.72-2.78l.79.28a16,16,0,0,1-2.52,3.78v1.15c0,.39.07.46.43.47Zm-.35-8a12.93,12.93,0,0,0-1.86-1.57l.61-.46a13.43,13.43,0,0,1,1.88,1.5Z"/>
                <path class="cls-282"
                      d="M613.72,192.27a13.63,13.63,0,0,1-1.11,1.86l0,6.86h-.87l0-5.72a14.89,14.89,0,0,1-1.11,1.13,6.45,6.45,0,0,0-.56-.84,10.93,10.93,0,0,0,2.83-3.57Zm-.34-2.49a11,11,0,0,1-2.59,2.89,5.89,5.89,0,0,0-.53-.68,8.8,8.8,0,0,0,2.26-2.52Zm5.06,9.66c-1.84.25-3.76.47-5.13.64l-.11-.88c.61-.06,1.36-.13,2.19-.23V197h-1.84v-.82h1.84v-1.56h.9v1.56h1.83V197H616.3v1.86l2.15-.26Zm-3-7.57h-1.67v-.81h1.66v-1.6h.89v1.59H618v.81h-1.69v1.68h1.92v.83l-4.74,0v-.83h1.93Zm6.46,2.59h-1.18l0,5.43c0,.53-.1.82-.47,1a5.64,5.64,0,0,1-1.9.17,3.2,3.2,0,0,0-.27-.94c.7,0,1.3,0,1.48,0s.24-.05.24-.22l0-5.42h-1.35v-.86l3.45,0Zm-.15-3.38h-3.17v-.85l3.17,0Z"/>
                <path class="cls-282"
                      d="M627,198.8c.25.13.53.34,1,.6a7.11,7.11,0,0,0,3.26.55c1.47,0,3.34-.08,4.55-.21a4,4,0,0,0-.27.93c-.9.05-3.11.11-4.29.11a6.84,6.84,0,0,1-3.44-.64c-.53-.31-.92-.68-1.22-.68s-1.08.66-1.74,1.43l-.56-.76a5.92,5.92,0,0,1,1.85-1.37l0-3.88H624.4V194h2.65Zm-.65-6.23a14.84,14.84,0,0,0-1.77-2.13l.71-.44a13.8,13.8,0,0,1,1.83,2.05Zm4.33.47A8.2,8.2,0,0,0,631,192h-3.31v-.78h2.13a7.52,7.52,0,0,0-.84-1.4l.79-.32a6.3,6.3,0,0,1,.9,1.42l-.66.3h2.33a11.52,11.52,0,0,0,1-1.65l.91.27c-.3.45-.63,1-.93,1.38h2.36V192L632,192c-.15.38-.31.73-.46,1.06h3l0,5.9-6,0,0-5.9Zm2.93,4.15-4.19,0v1.06l4.2,0Zm0-1.72-4.19,0v1.06l4.2,0Zm0-1.69-4.19,0v1l4.2,0Z"/>
            </g>
            <g class="cls-3" transform="translate(0,55)">
                <path class="cls-282"
                      d="M55.73,251.46a12,12,0,0,0-2.07-1.4l.54-.66a11,11,0,0,1,2.1,1.34Zm-1.68,5.22a37.06,37.06,0,0,0,2-4.1l.74.56c-.54,1.34-1.25,2.9-1.85,4.09Zm2.18-8.58a11,11,0,0,0-2-1.38l.54-.64a10.58,10.58,0,0,1,2,1.28Zm8.89,1.84v.72H56.74v-.72h3.69v-.88H57.51v-.69h2.92v-.79H57.21v-.72h3.22v-1h.92v1h3.31v.72H61.35v.79h3v.69h-3v.88ZM64,256.35c0,.48-.1.72-.44.86a5.61,5.61,0,0,1-1.82.14,3.8,3.8,0,0,0-.26-.81c.63,0,1.23,0,1.4,0s.23-.05.23-.22v-.89H58.61v2h-.87v-6H64Zm-5.43-4.24v.94h4.54v-.94Zm4.54,2.62v-1H58.61v1Z"/>
                <path class="cls-282"
                      d="M70.36,252.46c-.54,1.45-1.26,3.1-1.87,4.32l-.91-.43a36.69,36.69,0,0,0,2-4.31Zm-1-2.48a16.92,16.92,0,0,0-1.68-3.21l.79-.42a17,17,0,0,1,1.74,3.12Zm3.54,3.68a15.72,15.72,0,0,1-1.9,3.09,3.47,3.47,0,0,0-.74-.55,12.2,12.2,0,0,0,1.77-2.81Zm5.75-5.45H70.84v-.88h3.6c-.15-.4-.35-.86-.53-1.23l.9-.25c.24.47.51,1.05.68,1.48h3.2Zm-3.43,4.5v3.64c0,.5-.11.74-.49.87a5.89,5.89,0,0,1-1.87.15,3.06,3.06,0,0,0-.33-.85c.64,0,1.31,0,1.48,0s.24,0,.24-.2v-3.61H71.62v-3.46h6.24v3.46Zm-2.74-.8h4.41v-1.85H72.52Zm4.69,1.49a20.93,20.93,0,0,1,1.61,2.74l-.8.4a29.73,29.73,0,0,0-1.6-2.81Z"/>
                <path class="cls-282"
                      d="M85,248h.72v8H85v-.48l-3.09.25V248h.74v6.95l.78-.06V246h.77v8.8l.8-.06Zm7.16-.82a7.29,7.29,0,0,1-1.87,2.68A8.78,8.78,0,0,0,93.09,251a4.26,4.26,0,0,0-.57.77,8.63,8.63,0,0,1-2.94-1.39A10.24,10.24,0,0,1,86.3,252a4.16,4.16,0,0,0-.48-.75,9.08,9.08,0,0,0,3.1-1.37,6.18,6.18,0,0,1-1.11-1.33,8.43,8.43,0,0,1-1.29,1.2,6.42,6.42,0,0,0-.61-.69,7.24,7.24,0,0,0,2.58-3.14l.86.22a7.1,7.1,0,0,1-.41.83h2.44l.17,0Zm-2.17,8h2.8v.77H90v1.48h-.92v-1.48H86.23v-.77h2.82v-.9H86.82v-.72h2.23v-.83h-2.3V252h2.3v-.81H90V252h2.32v.72H90v.83h2.28v.72H90Zm-1.63-7.3a5.9,5.9,0,0,0,1.25,1.44,6.22,6.22,0,0,0,1.32-1.62H88.48Z"/>
                <path class="cls-282"
                      d="M97.08,248.16a10.09,10.09,0,0,1-1.25,1.67,5,5,0,0,0-.49-.9,7.75,7.75,0,0,0,1.82-3l.84.25c-.14.38-.29.78-.47,1.15h2.41v.86Zm2.7,6.75a7.14,7.14,0,0,0,.18.79,16.25,16.25,0,0,0-2.7,1.62,3.43,3.43,0,0,0-.48-.67,1.34,1.34,0,0,0,.63-1.11V253H95.65v-.86h1.76v-1.71H96.3v-.84h3.41v.84H98.28v1.71H100V253H98.28v2.74Zm7.13-.69v.83h-7v-.83h.9v-5.57h1.74c0-.26.12-.54.19-.84h-2.46V247h2.61c.07-.4.14-.8.19-1.14l1,.07c-.07.34-.16.72-.24,1.07h2.82v.78h-3c-.07.3-.15.58-.22.84h2.69v5.57Zm-3.83,1.41a14,14,0,0,1-2.54,1.79,3.82,3.82,0,0,0-.58-.64,11,11,0,0,0,2.34-1.67Zm-1.38-6.32v.81h3.57v-.81Zm3.57,1.38H101.7v.74h3.57Zm-3.57,2.11h3.57V252H101.7Zm0,1.42h3.57v-.84H101.7Zm2.82.91a16.48,16.48,0,0,1,2.31,1.66l-.64.62a16.85,16.85,0,0,0-2.28-1.72Z"/>
            </g>
            <g class="cls-3" transform="translate(0,30)">
                <path class="cls-282"
                      d="M413,159.39s0,.3,0,.43c-.15,4-.29,5.31-.65,5.76a.84.84,0,0,1-.72.39,7,7,0,0,1-1.16,0,2.2,2.2,0,0,0-.23-.86c.43,0,.79,0,1,0a.35.35,0,0,0,.38-.16c.23-.28.38-1.48.51-4.75H410.4c-.14,2.5-.51,4.57-1.63,5.94a2.31,2.31,0,0,0-.71-.68c1.35-1.63,1.47-4.44,1.5-7.86h-1.25v-.87h5.09v.87h-2.91c0,.59,0,1.18-.05,1.74Zm-2.11-2.63a7.53,7.53,0,0,0-1-1.79l.83-.32a7.47,7.47,0,0,1,1.08,1.76Zm6.17-1.87c-.07.24-.14.47-.23.7a8.67,8.67,0,0,0,3.09,3.43,3.92,3.92,0,0,0-.69.77,9.65,9.65,0,0,1-2.81-3.28,8.19,8.19,0,0,1-2.72,3.36,3.77,3.77,0,0,0-.66-.74,7.77,7.77,0,0,0,3.16-4.5ZM414.87,163a19.31,19.31,0,0,1,3.45,2.11l-.63.82a18.3,18.3,0,0,0-3.41-2.23Zm2.35-1.12a18.68,18.68,0,0,0-2.17-1.74l.6-.61a15.12,15.12,0,0,1,2.21,1.66Z"/>
                <path class="cls-282"
                      d="M424.3,160.19c-.51-.34-1.51-.91-2.25-1.32l.53-.68a22.8,22.8,0,0,1,2.25,1.23Zm-1.9,5.3a38.43,38.43,0,0,0,2.15-4.08l.72.57c-.6,1.34-1.39,2.92-2,4.09Zm2.38-8.6c-.5-.38-1.5-1-2.2-1.4l.53-.69c.71.4,1.7,1,2.21,1.32Zm3.62,3.64a14.82,14.82,0,0,0-1.43-1.4,5.49,5.49,0,0,1-1.7,2.19,3.77,3.77,0,0,0-.63-.55,4.62,4.62,0,0,0,1.77-2.36h-1.32v-.78h1.52a5.23,5.23,0,0,0,.09-.87v-.11h-1.36v-.76h1.36v-1.07h.8v1.07h1.15v.76H427.5v.13a5.14,5.14,0,0,1-.08.85h1.44v.78h-1.63a17.6,17.6,0,0,1,1.67,1.51Zm-2.42.73h6.4v4.89h-.92v-.38h-4.57v.43H426Zm.91.76v1.1h4.57V162Zm4.57,3v-1.16h-4.57V165Zm.19-6.59a4.53,4.53,0,0,0,2,2.16,2.8,2.8,0,0,0-.56.64,5,5,0,0,1-1.93-2.16,5.08,5.08,0,0,1-1.81,2.08,2.36,2.36,0,0,0-.61-.56,4.19,4.19,0,0,0,1.81-2.16h-1.28v-.78h1.48a3.28,3.28,0,0,0,.07-.65v-.33h-1.33v-.76h1.33v-1.07h.82v1.07h1.29v.76h-1.29V157a5.58,5.58,0,0,1-.05.64h1.59v.78Z"/>
                <path class="cls-282"
                      d="M437.65,157a10.09,10.09,0,0,1-1.25,1.67,5,5,0,0,0-.49-.9,7.75,7.75,0,0,0,1.82-3l.84.25c-.14.38-.29.78-.47,1.15h2.4V157Zm2.7,6.75a7.14,7.14,0,0,0,.18.79,15.39,15.39,0,0,0-2.7,1.62,3.43,3.43,0,0,0-.48-.67,1.34,1.34,0,0,0,.63-1.11v-2.59h-1.76v-.86H438v-1.71h-1.11v-.84h3.41v.84h-1.43v1.71h1.68v.86h-1.68v2.74Zm7.13-.69v.83h-7v-.83h.91v-5.57h1.74c.05-.26.12-.54.18-.84h-2.45v-.77h2.61c.07-.41.13-.81.19-1.15l1,.07c-.07.34-.16.72-.24,1.08h2.82v.77h-3c-.07.3-.15.58-.22.84h2.69v5.57Zm-3.83,1.41a14,14,0,0,1-2.54,1.79,4.3,4.3,0,0,0-.58-.64,11,11,0,0,0,2.34-1.67Zm-1.38-6.32V159h3.57v-.81Zm3.57,1.38h-3.57v.74h3.57Zm-3.57,2.11h3.57v-.79h-3.57Zm0,1.42h3.57v-.84h-3.57Zm2.82.91a16.48,16.48,0,0,1,2.31,1.66l-.64.62a16.85,16.85,0,0,0-2.28-1.72Z"/>
            </g>
            <g class="cls-3" transform="translate(0,18)">
                <path class="cls-282"
                      d="M732.52,74.42v.75h-11v-.75h5V73.5h-3.79v-.72h3.79V72h-4.22V71.2h4.22v-.85h.94v.85h4.41V72h-4.41v.83h3.88v.72h-3.88v.92Zm-1.66,6.45c0,.51-.12.74-.52.87a7.78,7.78,0,0,1-2.11.14,3,3,0,0,0-.31-.78c.77,0,1.54,0,1.73,0s.28-.07.28-.25v-1h-5.78v2.09h-.92V76h7.63Zm-6.71-4.2v.91h5.78v-.91Zm5.78,2.49v-.91h-5.78v.91Z"/>
                <path class="cls-282" d="M731.92,86.85v8.9h-1v-.94h-8.88V86.87h1v7h3.46V84.4h1v9.47H731v-7Z"/>
                <path class="cls-282"
                      d="M723.28,103.59a8.64,8.64,0,0,0-2.06-1.25l.51-.67a8.6,8.6,0,0,1,2.08,1.16Zm-1.82,5.46a37.85,37.85,0,0,0,1.75-4l.74.49c-.47,1.31-1.11,2.85-1.65,4Zm2.26-8.74a7.64,7.64,0,0,0-2-1.35l.52-.66a7.39,7.39,0,0,1,2,1.28ZM725.2,108v1h-.83v-5.08h1.45v-2.27h-1.88v-.87h1.88v-2.3h.86v2.3h1.68v.87h-1.68v2.27H728V108Zm0-3.26v2.43h2v-2.43Zm7.18,3.81c0,.48-.11.72-.43.87a4.52,4.52,0,0,1-1.67.15,3.33,3.33,0,0,0-.28-.8h1.28c.18,0,.24-.06.24-.25v-3h-1.88a7.31,7.31,0,0,1-1.59,4.21,2.8,2.8,0,0,0-.7-.51c1.39-1.5,1.53-3.7,1.53-5.48v-5.1h3.5Zm-.86-3.88v-2.2h-1.81v1.26c0,.29,0,.62,0,.94Zm-1.81-5.2v2.15h1.81V99.47Z"/>
                <path class="cls-282"
                      d="M707.73,80.12a15.49,15.49,0,0,1-1.1,1.87v6.86h-.87V83.13a15,15,0,0,1-1.12,1.13,6.61,6.61,0,0,0-.55-.83,10.93,10.93,0,0,0,2.8-3.59Zm-.36-2.49a11,11,0,0,1-2.58,2.91,4.88,4.88,0,0,0-.53-.69,8.74,8.74,0,0,0,2.25-2.52Zm5.12,9.64c-1.85.25-3.77.48-5.13.66l-.11-.87,2.18-.24v-2h-1.84V84h1.84V82.48h.9V84h1.83v.82h-1.83v1.85l2.15-.26Zm-3-7.55h-1.66v-.81h1.66v-1.6h.89v1.6H712v.81h-1.69V81.4h1.92v.83h-4.74V81.4h1.93Zm6.47,2.55h-1.17V87.7c0,.53-.1.82-.47,1a5.54,5.54,0,0,1-1.89.18,3.86,3.86,0,0,0-.28-.94,14.65,14.65,0,0,0,1.48,0c.19,0,.24,0,.24-.22V82.27h-1.36v-.86h3.45Zm-.16-3.38h-3.17v-.84h3.17Z"/>
                <path class="cls-282"
                      d="M707.17,100.48c.25.13.53.35,1,.6a7,7,0,0,0,3.26.53,45.18,45.18,0,0,0,4.55-.23,4.08,4.08,0,0,0-.27.94c-.89.05-3.1.12-4.29.12a6.77,6.77,0,0,1-3.44-.62c-.53-.31-.92-.68-1.22-.68s-1.08.67-1.74,1.44l-.56-.76a5.9,5.9,0,0,1,1.84-1.37V96.57h-1.74v-.89h2.65Zm-.68-6.22a15.67,15.67,0,0,0-1.78-2.13l.7-.44a14,14,0,0,1,1.85,2Zm4.33.45a9.16,9.16,0,0,0,.28-1.06h-3.31v-.78h2.13a8,8,0,0,0-.84-1.39l.78-.33a6.55,6.55,0,0,1,.91,1.41l-.66.31h2.33a10.21,10.21,0,0,0,1-1.66l.91.27c-.29.45-.62,1-.92,1.39h2.36v.78h-3.61c-.15.38-.31.73-.46,1.06h3v5.9h-6v-5.9Zm3,.72h-4.2v1h4.2Zm0,1.69h-4.2v1.07h4.2Zm0,1.72h-4.2V99.9h4.2Z"/>
            </g>
            <g class="cls-3" transform="translate(0,35)">
                <path class="cls-282"
                      d="M158.89,159.53c.51,0,.61-.25.66-1.45a3,3,0,0,0,.87.38c-.12,1.5-.41,1.95-1.47,1.95h-2.4c-1.24,0-1.58-.32-1.58-1.46a13.72,13.72,0,0,1-2.09,1.22,4.48,4.48,0,0,0-.65-.74,13.4,13.4,0,0,0,2.74-1.59v-4.72h-1.4c-.45,3.5-1.49,5.86-4.07,7.46a4.94,4.94,0,0,0-.69-.79c2.41-1.34,3.38-3.5,3.79-6.67H149v-.89h3.66c.09-.93.14-1.93.18-3l1,0c0,1.06-.1,2.05-.19,3h6.53v.89h-4.28v3.95a12.1,12.1,0,0,0,2.61-3.27l.85.35a14.25,14.25,0,0,1-3.46,4.1v.69c0,.49.1.59.73.59Zm-.78-7.64a18.14,18.14,0,0,0-2.28-1.87l.61-.52a19.87,19.87,0,0,1,2.3,1.8Z"/>
                <path class="cls-282"
                      d="M173.52,159.59c0,.58-.14.84-.56,1a8.4,8.4,0,0,1-2.23.16,3.75,3.75,0,0,0-.33-.9c.85,0,1.67,0,1.89,0s.31-.07.31-.27V154h-8v6.79h-.94v-7.66h9.89Zm-.13-7.48h-9.72v-2.43h.92v1.59H168v-2H169v2h3.49v-1.59h.94Zm-2.4,7.18a21.64,21.64,0,0,0-2.18-1.79,16.38,16.38,0,0,1-3.19,2,4.36,4.36,0,0,0-.65-.72,13.67,13.67,0,0,0,3.1-1.79c-.92-.64-1.9-1.24-2.8-1.74l.59-.56c.93.49,1.94,1.11,2.9,1.74a10,10,0,0,0,1.82-2.11l.84.33a11.85,11.85,0,0,1-1.94,2.26,19.16,19.16,0,0,1,2.17,1.71Z"/>
                <path class="cls-282"
                      d="M178.33,151.52a9.69,9.69,0,0,1-1.25,1.67,4.37,4.37,0,0,0-.49-.89,7.67,7.67,0,0,0,1.82-3l.85.26c-.14.37-.3.78-.47,1.15h2.4v.85Zm2.71,6.75a5.61,5.61,0,0,0,.17.8,15.93,15.93,0,0,0-2.7,1.61A3.76,3.76,0,0,0,178,160a1.33,1.33,0,0,0,.63-1.11v-2.59h-1.75v-.86h1.75v-1.7h-1.11v-.85H181v.85h-1.43v1.7h1.68v.86h-1.68v2.74Zm7.12-.68v.82h-7v-.82h.91V152h1.73c0-.27.13-.55.19-.85h-2.45v-.77h2.6c.08-.4.14-.81.19-1.15l1,.08c-.08.34-.17.72-.24,1.07h2.81v.77h-3c-.08.3-.15.58-.23.85h2.69v5.57Zm-3.83,1.4a14,14,0,0,1-2.53,1.8,5,5,0,0,0-.59-.65,10.61,10.61,0,0,0,2.34-1.67ZM183,152.67v.81h3.56v-.81Zm3.56,1.38H183v.75h3.56ZM183,156.16h3.56v-.78H183Zm0,1.43h3.56v-.85H183Zm2.81.91a16.62,16.62,0,0,1,2.32,1.65l-.65.62a18.28,18.28,0,0,0-2.27-1.72Z"/>
            </g>
            <g class="cls-3" transform="translate(0,60)">
                <path class="cls-282"
                      d="M385.8,300.77c-.5-.34-1.5-.91-2.25-1.32l.54-.68c.72.36,1.73.89,2.24,1.23Zm-1.89,5.31a39.68,39.68,0,0,0,2.15-4.09l.72.57c-.6,1.34-1.39,2.92-2,4.1Zm2.37-8.61c-.49-.38-1.49-1-2.19-1.4l.53-.68c.7.39,1.7,1,2.21,1.31Zm3.63,3.64a16.07,16.07,0,0,0-1.43-1.4,5.59,5.59,0,0,1-1.7,2.2,3.41,3.41,0,0,0-.63-.56,4.51,4.51,0,0,0,1.76-2.36H386.6v-.77h1.52a5.27,5.27,0,0,0,.08-.88v-.11h-1.35v-.76h1.35V295.4H389v1.07h1.15v.76H389v.13a4.54,4.54,0,0,1-.09.86h1.44V299h-1.63a14.45,14.45,0,0,1,1.67,1.52Zm-2.43.73h6.41v4.89H393v-.38h-4.58v.43h-.91Zm.91.76v1.1H393v-1.1Zm4.58,3v-1.16h-4.58v1.16Zm.19-6.59a4.56,4.56,0,0,0,2,2.16,2.75,2.75,0,0,0-.55.64,5.12,5.12,0,0,1-1.94-2.16,5.14,5.14,0,0,1-1.8,2.09,2.38,2.38,0,0,0-.61-.57,4.19,4.19,0,0,0,1.81-2.16h-1.28v-.77h1.48a3.35,3.35,0,0,0,.06-.66v-.33H391v-.76h1.32V295.4h.82v1.07h1.29v.76h-1.29v.34a4.17,4.17,0,0,1-.05.65h1.6V299Z"/>
                <path class="cls-282"
                      d="M399.93,296v4.27c0,2.4-.19,4.8-1.82,6.67a3.74,3.74,0,0,0-.77-.66c1.48-1.69,1.64-3.86,1.64-6V296Zm4,.52v9.22H403v-9.22Zm4.23-.56v10.86h-1V295.93Z"/>
                <path class="cls-282"
                      d="M413.05,297.57a9.09,9.09,0,0,1-1.25,1.67,4.22,4.22,0,0,0-.49-.9,7.56,7.56,0,0,0,1.82-3l.85.25a11.55,11.55,0,0,1-.47,1.15h2.4v.86Zm2.71,6.75a5.57,5.57,0,0,0,.18.8,15.84,15.84,0,0,0-2.71,1.61,3.76,3.76,0,0,0-.48-.67,1.34,1.34,0,0,0,.63-1.11v-2.59h-1.75v-.86h1.75v-1.7h-1.11V299h3.41v.85h-1.43v1.7h1.69v.86h-1.69v2.74Zm7.12-.68v.82h-7v-.82h.91v-5.58h1.73c.05-.26.13-.54.19-.84h-2.45v-.77h2.6c.08-.41.14-.81.19-1.15l1,.07c-.08.34-.17.72-.24,1.08h2.81v.77h-3c-.08.3-.15.58-.23.84h2.69v5.58Zm-3.82,1.4a14.38,14.38,0,0,1-2.54,1.79,5.69,5.69,0,0,0-.58-.64,11.13,11.13,0,0,0,2.33-1.67Zm-1.38-6.32v.81h3.56v-.81Zm3.56,1.38h-3.56v.74h3.56Zm-3.56,2.11h3.56v-.78h-3.56Zm0,1.43h3.56v-.85h-3.56Zm2.82.91a17.09,17.09,0,0,1,2.31,1.65l-.65.62a16.69,16.69,0,0,0-2.27-1.72Z"/>
            </g>
            <g class="cls-3" transform="translate(0,25)">
                <path class="cls-282"
                      d="M537.06,87c.86,2.93,2.51,5.33,5,6.41a3.92,3.92,0,0,0-.71.86c-2.51-1.21-4.13-3.6-5.09-6.66a9.9,9.9,0,0,1-1.57,3.71l.37-.25a17.67,17.67,0,0,1,2.46,2.41l-.79.62a17.57,17.57,0,0,0-2.32-2.4,8.51,8.51,0,0,1-3.34,2.54,2.8,2.8,0,0,0-.7-.77,8.08,8.08,0,0,0,5-6.47h-4.71v-.94h4.87c.13-1.22.12-2.38.13-3.34h1a31.06,31.06,0,0,1-.16,3.34h5.23V87Z"/>
                <path class="cls-282"
                      d="M546.38,88.17a8.64,8.64,0,0,0-2.06-1.25l.51-.67a8.6,8.6,0,0,1,2.08,1.16Zm-1.82,5.46a37.85,37.85,0,0,0,1.75-4l.74.49c-.46,1.31-1.11,2.85-1.65,4Zm2.27-8.74a8,8,0,0,0-2-1.35l.51-.66a7.64,7.64,0,0,1,2,1.28Zm1.47,7.69v1h-.83V88.5h1.45V86.23H547v-.87h1.88v-2.3h.86v2.3h1.68v.87h-1.68V88.5h1.34v4.08Zm0-3.26v2.43h2V89.32Zm7.18,3.81c0,.48-.11.72-.43.87a4.52,4.52,0,0,1-1.67.15,3.28,3.28,0,0,0-.27-.8c.59,0,1.12,0,1.27,0s.24-.07.24-.26v-3h-1.88a7.24,7.24,0,0,1-1.59,4.21,2.54,2.54,0,0,0-.7-.5c1.39-1.51,1.53-3.71,1.53-5.49v-5.1h3.5Zm-.86-3.88v-2.2h-1.81v1.26c0,.29,0,.62,0,.94Zm-1.81-5.2V86.2h1.81V84.05Z"/>
                <path class="cls-282"
                      d="M560.32,88.26a21.61,21.61,0,0,0-2.13-1.35l.55-.66c.68.38,1.64.91,2.13,1.25Zm.79,1.78c-.51,1.33-1.22,2.88-1.82,4l-.83-.52a38.18,38.18,0,0,0,1.92-4Zm-.2-5.08c-.48-.38-1.41-1-2.1-1.44l.55-.64a23,23,0,0,1,2.11,1.34Zm2,1.84c0,2.19-.21,5.32-1.7,7.42a3.06,3.06,0,0,0-.77-.49c1.42-2,1.55-4.86,1.55-6.93V83.35h7.68v.86h-6.76Zm2,4.13a12.94,12.94,0,0,1-1.59,2.59,6.18,6.18,0,0,0-.76-.48,8.79,8.79,0,0,0,1.51-2.34Zm1.87-.94v3.3c0,.47-.07.71-.43.85a4.88,4.88,0,0,1-1.72.12,3.18,3.18,0,0,0-.26-.81c.6,0,1.16,0,1.3,0s.21,0,.21-.19V90H563.6V85.66h1.91c.14-.41.29-.92.37-1.28l1,.22-.52,1.06h2.75V90Zm-2.31-2.51h3.84v-1.1h-3.84Zm0,1.79h3.84V88.16h-3.84Zm4,1.33c.49.77,1.12,1.81,1.44,2.41l-.86.38a26.82,26.82,0,0,0-1.39-2.48Z"/>
                <path class="cls-282"
                      d="M573.8,85a9.6,9.6,0,0,1-1.25,1.66,4.92,4.92,0,0,0-.49-.89,7.73,7.73,0,0,0,1.81-3l.85.25c-.14.38-.29.78-.47,1.15h2.4V85Zm2.7,6.74a7.35,7.35,0,0,0,.18.8,14.14,14.14,0,0,0-2.7,1.62,3.11,3.11,0,0,0-.49-.67,1.36,1.36,0,0,0,.64-1.11V89.82h-1.76V89h1.76V87.25H573V86.4h3.41v.85H575V89h1.68v.86H575v2.74Zm7.13-.68v.82h-7v-.82h.91V85.52h1.73c.06-.27.13-.54.19-.85H577V83.9h2.61c.07-.4.13-.81.18-1.15l1,.08c-.08.34-.16.72-.24,1.07h2.82v.77h-3c-.07.31-.15.58-.22.85h2.69v5.57Zm-3.83,1.4a14.08,14.08,0,0,1-2.54,1.8,4.92,4.92,0,0,0-.58-.65A10.93,10.93,0,0,0,579,92Zm-1.38-6.31V87H582v-.81ZM582,87.55h-3.56v.75H582Zm-3.56,2.11H582v-.78h-3.56Zm0,1.43H582v-.85h-3.56Zm2.82.91a16.48,16.48,0,0,1,2.31,1.66l-.64.62a16.06,16.06,0,0,0-2.28-1.72Z"/>
            </g>
            <g class="cls-3" transform="translate(0,35)">
                <path class="cls-282"
                      d="M653.2,125.75a8.27,8.27,0,0,1-1.05,1.59,4.85,4.85,0,0,0-.49-.87,8,8,0,0,0,1.52-3l.84.23a10.46,10.46,0,0,1-.41,1.19h2.57v.9Zm2.78,6.52a3.4,3.4,0,0,0,.23.78,15.7,15.7,0,0,0-2.68,1.74v0a2.75,2.75,0,0,0-.48-.64,1.65,1.65,0,0,0,.67-1.23v-2.44H652v-.86h1.76v-1.7h-1.18v-.85h3.34v.85h-1.32v1.7h1.57v.86h-1.57v2.59Zm6.84.72c0,.44-.08.67-.39.8a4,4,0,0,1-1.46.14,4,4,0,0,0-.26-.81c.49,0,.91,0,1,0s.18,0,.18-.17v-2.2h-1.74v4.15h-.91v-4.15H657.5V134h-.89v-4h2.66v-1h-2.33V124.6h1.82c.1-.41.2-.88.25-1.22l1.07.12c-.13.36-.27.77-.38,1.1h2.79v4.32h-2.31v1h2.64Zm-5-6.6h3.75v-1.06h-3.75Zm0,1.79h3.75v-1.09h-3.75Z"/>
                <path class="cls-282"
                      d="M669.11,123.64h.95v11.18h-.95V132l-3.19,1.35-.44-1c.92-.29,2.28-.82,3.63-1.34v-3.54h-3.24v-.92h3.24Zm6.52,10.09c.58,0,.67-.54.76-2.63a2.67,2.67,0,0,0,.89.45c-.11,2.28-.36,3.1-1.59,3.1h-2c-1.18,0-1.5-.38-1.5-1.72v-9.28h.94v4.17a19,19,0,0,0,3.12-2.26l.7.81a30.19,30.19,0,0,1-3.82,2.42V133c0,.65.12.78.66.78Z"/>
                <path class="cls-282"
                      d="M682.8,126.21a12.21,12.21,0,0,1-1.1,1.87v6.86h-.87v-5.72a12,12,0,0,1-1.11,1.14,6.45,6.45,0,0,0-.56-.84,10.89,10.89,0,0,0,2.81-3.58Zm-.35-2.49a11,11,0,0,1-2.58,2.91,4.29,4.29,0,0,0-.53-.68,8.77,8.77,0,0,0,2.25-2.53Zm5.12,9.64c-1.85.26-3.77.48-5.13.66l-.12-.87,2.19-.24v-2h-1.85v-.82h1.85v-1.55h.9v1.55h1.83V131h-1.83v1.86l2.14-.27Zm-3.05-7.55h-1.67V125h1.67v-1.59h.89V125h1.69v.81h-1.69v1.68h1.92v.83h-4.74v-.83h1.93Zm6.47,2.55h-1.17v5.43c0,.54-.11.83-.47,1a5.33,5.33,0,0,1-1.9.18,3.09,3.09,0,0,0-.28-.93c.7,0,1.31,0,1.48,0s.24,0,.24-.23v-5.42h-1.35v-.86H691Zm-.16-3.37h-3.18v-.85h3.18Z"/>
                <path class="cls-282"
                      d="M696.15,132.68c.25.13.53.34,1,.6a7,7,0,0,0,3.25.53,45.18,45.18,0,0,0,4.55-.23,3.67,3.67,0,0,0-.26.93c-.9.05-3.11.13-4.3.13a6.82,6.82,0,0,1-3.43-.62c-.54-.31-.93-.68-1.23-.68s-1.07.67-1.73,1.44l-.57-.76a6.24,6.24,0,0,1,1.84-1.38v-3.87h-1.74v-.89h2.66Zm-.69-6.23a15.51,15.51,0,0,0-1.78-2.12l.71-.44a13.91,13.91,0,0,1,1.84,2Zm4.34.46a9.13,9.13,0,0,0,.27-1.06h-3.31v-.79h2.14a8.53,8.53,0,0,0-.85-1.39l.79-.32a7,7,0,0,1,.91,1.41l-.66.3h2.32a10.21,10.21,0,0,0,1-1.65l.91.26c-.29.46-.62,1-.93,1.39h2.37v.79h-3.62c-.15.38-.3.73-.45,1.06h3v5.9h-6v-5.9Zm3,.72h-4.19v1h4.19Zm0,1.69h-4.19v1.06h4.19Zm0,1.72h-4.19v1.06h4.19Z"/>
            </g>
            <g class="cls-3" transform="translate(0,40)">
                <path class="cls-282"
                      d="M599.58,149.79a8.86,8.86,0,0,1-1.05,1.6,5.38,5.38,0,0,0-.5-.88,7.93,7.93,0,0,0,1.52-3l.85.23c-.12.39-.26.81-.42,1.19h2.58v.89Zm2.78,6.52a3,3,0,0,0,.22.79,16.94,16.94,0,0,0-2.68,1.74v0a2.56,2.56,0,0,0-.48-.64,1.65,1.65,0,0,0,.67-1.23v-2.44h-1.76v-.86h1.76V152h-1.17v-.85h3.33V152h-1.31v1.7h1.56v.86h-1.56v2.59Zm6.83.72c0,.44-.08.67-.39.81a3.89,3.89,0,0,1-1.45.14,3.85,3.85,0,0,0-.27-.81c.49,0,.91,0,1,0s.17,0,.17-.16v-2.2h-1.74V159h-.91v-4.15h-1.77V158H603v-4h2.65v-1h-2.32v-4.32h1.81a11.07,11.07,0,0,0,.26-1.21l1.06.11-.38,1.1h2.79V153h-2.31v1h2.64Zm-5-6.59H608v-1.06H604.2Zm0,1.79H608v-1.1H604.2Z"/>
                <path class="cls-282"
                      d="M615.71,155.91c-1.2.5-2.46,1-3.45,1.38l-.3-.93,1.48-.51v-4.46h-1.33v-.88h1.33V147.6h.87v2.91h1.2v.88h-1.2v4.14l1.22-.46Zm7.45-4.12a14.21,14.21,0,0,1-1.76,4.26c.3,1.21.66,1.92,1.09,1.92.24,0,.37-.62.42-2.07a2,2,0,0,0,.7.48c-.14,1.89-.41,2.47-1.23,2.47s-1.24-.71-1.63-1.89a9.22,9.22,0,0,1-2.11,2,3.34,3.34,0,0,0-.66-.64,8.46,8.46,0,0,0,2.49-2.39,33.53,33.53,0,0,1-.6-5.66h-3v1.69h2.41s0,.27,0,.38c0,2.88-.09,3.89-.33,4.21a.81.81,0,0,1-.64.35,7.09,7.09,0,0,1-1.14,0,2.11,2.11,0,0,0-.22-.79c.43,0,.83,0,1,0s.25,0,.3-.12.19-1,.23-3.26h-1.59v.55c0,1.77-.22,4.17-1.57,5.74a3,3,0,0,0-.69-.59c1.26-1.46,1.39-3.53,1.39-5.16v-3.9h3.8c0-.64,0-1.28,0-1.94h.9c0,.66,0,1.32,0,1.94h1.69a8.59,8.59,0,0,0-1.45-1.44l.63-.41a7.71,7.71,0,0,1,1.51,1.42l-.63.43h.92v.87h-2.64a39.91,39.91,0,0,0,.4,4.55,12.9,12.9,0,0,0,1.15-3.15Z"/>
                <path class="cls-282"
                      d="M629.18,150.26a14.76,14.76,0,0,1-1.1,1.87V159h-.87v-5.72c-.36.41-.75.79-1.12,1.14a6,6,0,0,0-.55-.84,10.8,10.8,0,0,0,2.8-3.59Zm-.36-2.49a10.87,10.87,0,0,1-2.58,2.91,4.29,4.29,0,0,0-.53-.68,8.77,8.77,0,0,0,2.25-2.53Zm5.12,9.64c-1.85.25-3.77.48-5.13.66l-.11-.87,2.18-.24v-2H629v-.82h1.84v-1.56h.9v1.56h1.83V155h-1.83v1.86l2.15-.27Zm-3.05-7.55h-1.66v-.81h1.66v-1.59h.89v1.59h1.69v.81h-1.69v1.68h1.92v.83H629v-.83h1.93Zm6.47,2.55h-1.17v5.43c0,.53-.1.82-.47,1a5.3,5.3,0,0,1-1.89.18,4,4,0,0,0-.28-.94c.69,0,1.3,0,1.48,0s.24-.05.24-.23v-5.42h-1.36v-.86h3.45ZM637.2,149H634v-.85h3.17Z"/>
                <path class="cls-282"
                      d="M642.52,156.73c.25.13.53.34,1,.59a6.85,6.85,0,0,0,3.26.53c1.46,0,3.33-.08,4.55-.22a4,4,0,0,0-.27.93c-.9.05-3.11.13-4.29.13a6.86,6.86,0,0,1-3.44-.62c-.53-.32-.92-.68-1.23-.68s-1.07.67-1.73,1.44l-.57-.76a6.09,6.09,0,0,1,1.85-1.38v-3.88h-1.75v-.88h2.66Zm-.68-6.23a14.52,14.52,0,0,0-1.79-2.12l.71-.44a13.49,13.49,0,0,1,1.85,2Zm4.33.46c.1-.33.21-.71.28-1.07h-3.31v-.78h2.13a8.43,8.43,0,0,0-.84-1.39l.78-.33a6.75,6.75,0,0,1,.91,1.42l-.66.3h2.33a10.91,10.91,0,0,0,1-1.65l.91.26c-.29.46-.62,1-.92,1.39h2.36v.78H647.5c-.16.38-.31.74-.46,1.07h3v5.9h-6V151Zm3,.72h-4.2v1h4.2Zm0,1.69h-4.2v1.06h4.2Zm0,1.72h-4.2v1.06h4.2Z"/>
            </g>
            <g class="cls-3" transform="translate(0,35)">
                <path class="cls-282"
                      d="M671,193.3a8.43,8.43,0,0,1-1,1.59,5.77,5.77,0,0,0-.5-.87,7.93,7.93,0,0,0,1.52-3l.85.23c-.12.39-.26.81-.42,1.19H674v.89Zm2.78,6.52a3,3,0,0,0,.22.79,16.94,16.94,0,0,0-2.68,1.74v0a2.81,2.81,0,0,0-.48-.65,1.61,1.61,0,0,0,.67-1.22V198h-1.75v-.86h1.75v-1.7h-1.17v-.85h3.33v.85h-1.31v1.7h1.56V198h-1.56v2.59Zm6.83.72c0,.44-.07.67-.39.81a3.89,3.89,0,0,1-1.45.14,3.85,3.85,0,0,0-.27-.81c.49,0,.91,0,1,0s.17,0,.17-.16v-2.2H678v4.14h-.91v-4.14h-1.77v3.17h-.88v-4h2.65v-1h-2.32v-4.32h1.81a11.07,11.07,0,0,0,.26-1.21l1.06.11c-.13.37-.27.77-.38,1.1h2.79v4.32H678v1h2.64Zm-5-6.59h3.75v-1.06h-3.75Zm0,1.79h3.75v-1.1h-3.75Z"/>
                <path class="cls-282"
                      d="M689.53,193.1c-.07.47-.14.94-.21,1.34H694v7c0,.56-.14.81-.54.95a7.71,7.71,0,0,1-2.14.15,4.08,4.08,0,0,0-.34-.85c.8,0,1.57,0,1.78,0s.29-.08.29-.28v-6.09h-7.82v7.18h-.92v-8.05h4.11c.06-.39.11-.86.16-1.34h-5v-.88h5c0-.46.07-.9.09-1.28l1,.11c0,.37-.09.77-.14,1.17h5v.88Zm0,6.92v2.23h-.89V200H686v-.78h2.72V198h-2.46v-.78h1.33a6.15,6.15,0,0,0-.69-1.49l.74-.19a5.58,5.58,0,0,1,.73,1.47l-.68.21h2.26a13,13,0,0,0,.72-1.73l.85.19c-.24.53-.49,1.08-.73,1.54h1.43V198h-2.61v1.27h2.82V200Z"/>
                <path class="cls-282"
                      d="M672.82,210.61a12.21,12.21,0,0,1-1.1,1.87v6.87h-.87v-5.73a12,12,0,0,1-1.11,1.14,5.76,5.76,0,0,0-.56-.83,11,11,0,0,0,2.81-3.59Zm-.35-2.48a11.16,11.16,0,0,1-2.58,2.9,4.29,4.29,0,0,0-.53-.68,8.79,8.79,0,0,0,2.25-2.53Zm5.12,9.64c-1.85.25-3.77.48-5.13.65l-.12-.87,2.19-.24v-2h-1.85v-.82h1.85V213h.9v1.55h1.83v.82h-1.83v1.86l2.14-.27Zm-3.05-7.56h-1.67v-.81h1.67v-1.59h.89v1.59h1.69v.81h-1.69v1.68h1.92v.83h-4.74v-.83h1.93Zm6.47,2.55h-1.18v5.44c0,.53-.1.82-.46,1a5.64,5.64,0,0,1-1.9.17,3.09,3.09,0,0,0-.28-.93c.7,0,1.31,0,1.48,0s.24,0,.24-.23v-5.42h-1.35v-.86H681Zm-.16-3.37h-3.18v-.85h3.18Z"/>
                <path class="cls-282"
                      d="M686.16,217.08c.26.13.53.35,1,.6a7,7,0,0,0,3.26.53,45.18,45.18,0,0,0,4.55-.23,3.63,3.63,0,0,0-.26.94c-.9.05-3.11.12-4.3.12a6.71,6.71,0,0,1-3.43-.62c-.54-.31-.93-.68-1.23-.68s-1.07.67-1.73,1.44l-.57-.76a6,6,0,0,1,1.84-1.37v-3.88h-1.74v-.89h2.65Zm-.68-6.23a15.51,15.51,0,0,0-1.78-2.12l.71-.44a13.91,13.91,0,0,1,1.84,2.05Zm4.34.46a9.13,9.13,0,0,0,.27-1.06h-3.31v-.78h2.14a8.12,8.12,0,0,0-.85-1.39l.79-.33a7,7,0,0,1,.91,1.41l-.66.31h2.32a10.74,10.74,0,0,0,1-1.66l.91.27c-.29.45-.62,1-.93,1.39h2.37v.78h-3.62c-.15.38-.3.73-.45,1.06h3v5.9h-6v-5.9Zm2.95.72h-4.19v1h4.19Zm0,1.69h-4.19v1.06h4.19Zm0,1.72h-4.19v1.06h4.19Z"/>
            </g>
        </g>
    </g>
</svg>