<svg xmlns="http://www.w3.org/2000/svg" xmlns:xlink="http://www.w3.org/1999/xlink" width="822" height="486" viewBox="-12 -12 822 420" preserveAspectRatio="none">
  <defs>
    <style>
      .cls-1 {
        filter: url(#filter);
      }

      .cls-2 {
        fill: #002762;
        stroke: #b4d1f9;
        stroke-width: 2px;
        fill-rule: evenodd;
      }

      .cls-3 {
        font-size: 27px;
        fill: #fff;
        font-family: "Microsoft YaHei";
      }
    </style>
    <filter id="filter" filterUnits="userSpaceOnUse">
      <feGaussianBlur result="blur" stdDeviation="6" in="SourceAlpha"/>
      <feComposite result="composite"/>
      <feComposite result="composite-2"/>
      <feComposite result="composite-3"/>
      <feFlood result="flood" flood-color="#0a52ca" flood-opacity="0.76"/>
      <feComposite result="composite-4" operator="in" in2="composite-3"/>
      <feBlend result="blend" in2="SourceGraphic"/>
      <feBlend result="blend-2" in="SourceGraphic"/>
    </filter>
  </defs>
  <g id="画板_1" data-name="画板 1">
    <g id="组_2_拷贝" data-name="组 2 拷贝">
      <g id="组_1" data-name="组 1" class="cls-1">
        <polyline id="形状_1" data-name="形状 1" class="cls-2" points="307.54 130.5 314.29 130.5 318.57 127.44 325.82 127.59 326.65 133.57 329.61 135.26 338.51 145.23 336.97 153.4 336.92 164.55 339.66 169.3 338.78 174.56 334.67 179.88 334.12 193.83 331.04 195.83 331.15 211.47 339.06 214.43 337.85 218.73 335.98 221.18 335.76 232.63 331.81 234.67 331.7 246.53 335.1 252.77 346.31 261.46 348.72 261.46 348.72 274.54 354.55 277.91 354.55 291.82 359.16 293.04 365.86 287.01 365.86 276.48 389.58 276.48 386.01 273.26 385.57 264.11 381.45 256.96 380.25 251.44 380.14 244.54 382.22 240.24 388.38 240.55 391.34 236.72 387.77 234.37 385.13 230.43 390.35 221.79 388.92 215.81 382.06 213.97 378.49 210.91 378.49 196.13 374.87 194.5 374.81 188.72 379.59 185.96 379.59 180.65 375.08 177.58 375.08 173.54 379.53 169.76 392 170.01 392 166.64 386.18 164.55 380.91 160.46 380.14 147.68 373.66 144 373.55 132.55 368.06 127.44 368.06 123.04 390.79 124.47 394.75 121.61 397.93 124.47 403.53 124.47 406.06 121.61 403.31 115.38 403.31 106.58 400.46 105.15 397.38 101.88 397.38 91.05 399.14 89.82 399.14 77.45 392.77 72.85 389.14 65.39 382.99 61.3 372.45 60.07 363.66 62.83 356.41 64.16 350.81 69.17 348.72 74.69 337.74 82.05 332.8 83.07 315.33 83.79 308.41 94.01 312.15 101.58 311.49 105.67 309.84 106.99 308.85 113.43 305.12 117.32 302.26 118.65 301.6 124.83 307.54 130.5"/>
        <polyline id="形状_1" data-name="形状 1" class="cls-2" points="219.88 126.06 218.57 134.65 217.74 142.08 217.74 167.15 219.06 168.3 219.06 183.25 220.96 184.86 220.3 191.46 231.42 200.12 240.4 208.02 252.09 215 252.75 222.97 249.46 224.88 249.46 232.17 244.76 232.25 241.96 227.34 236.73 227.34 230.35 234.39 230.35 243.44 243.12 254.91 250.64 254.91 277.11 233.04 282.16 233.45 287.98 237.02 302.04 237.13 307.43 242.54 310.83 242.85 317.86 237.02 316.98 219.44 325.11 212.69 331.15 211.47 331.04 195.83 334.12 193.83 334.67 179.88 338.78 174.56 339.66 169.3 336.92 164.55 336.97 153.4 338.51 145.23 329.61 135.26 326.65 133.57 325.82 127.59 318.57 127.44 314.29 130.5 307.54 130.5 301.6 124.83 302.26 118.65 298.42 113.23 283.15 112.92 276.56 119.47 270.08 118.95 267.77 115.78 253.06 115.38 243.39 110.06 229.04 109.45 228.62 117.47 219.88 126.06"/>
        <polyline id="形状_1" data-name="形状 1" class="cls-2" points="557.39 179.04 557.96 161.12 554.89 164.7 550.99 164.5 545.94 160.05 536.93 160.51 532.81 168.74 527.37 168.74 516.83 158.26 511.94 147.12 511.5 130.04 513.7 128.72 513.75 120.54 509.91 115.38 509.96 108.94 513.31 108.12 513.31 97.74 511.56 95.75 510.68 91.45 507.55 87.98 506.83 72.9 512.16 72.39 513.15 70.09 508.54 65.49 515.95 62.58 523.03 56.9 523.03 39.12 524.23 36.64 523.8 36.66 509.31 32.78 474.16 29.51 470.42 31.86 470.75 39.42 467.24 45.15 448.02 52.3 437.03 59.36 433.09 62.21 433.09 62.21 446.26 72.08 445.35 75.23 439.26 79.37 433.57 84.58 431.76 89.49 432.25 93.7 436.62 101.14 444.69 104.52 454.08 111.88 456.89 119.85 464.3 123.3 473.77 131.89 483.16 145.07 484.24 170.76 476.9 176.93 464.75 180.8 456.19 188.47 451.94 188.89 448.07 193.34 448.11 198.2 451.7 200.77 452.11 205.72 448.4 207.17 449.55 213.38 461.99 217.14 465.45 219.29 470.07 225.19 470.6 228.86 474.87 229.77 478 238.88 478 238.88 496.67 238.97 499.2 239.89 511.94 240.19 511.94 233.55 515.46 233.24 515.46 227.21 529.85 227.11 533.58 226.39 536 221.9 536 217.09 537.42 216.38 539.84 208.2 545.44 207.28 550.71 202.88 555.5 202.19 554.83 180.95 557.39 179.04"/>
        <polyline id="形状_1" data-name="形状 1" class="cls-2" points="332.08 325.96 332.08 318.65 328.79 316.2 329.28 305.72 312.53 304.08 307.37 299.74 304.95 299.18 293.97 294.42 291.06 299.38 286.39 300.25 283.98 292.12 274.42 283.59 272.11 286.71 272.11 292.89 266.51 299.38 253.66 299.79 243.06 285.43 222.08 285.33 207.86 282.11 203.41 283.89 188.97 283.33 185.34 289.42 177.38 289.42 176.28 292.38 164.69 299.23 159.09 296.77 154.26 300.66 156.62 303.93 156.62 310.52 141.79 320.24 142.34 326.98 158.49 337.31 188.25 337.31 193.19 334.85 209.45 338.23 208.13 344.97 208.13 349.27 215.49 361.84 227.9 361.43 233.94 365.32 238.78 367.46 245.26 368.89 249.32 372.78 264.48 372.78 268.54 371.25 275.57 373.6 281.06 374.01 287.54 378.91 294.02 378.5 299.08 376.05 303.47 378.91 303.47 392 307.64 392 309.18 394.96 321.92 394.96 328.29 390.06 324.67 382.49 328.29 377.89 326.43 371.45 322.58 367.98 320.06 360.1 321.15 354.48 316.65 349.98 318.74 345.08 325.33 345.18 328.29 342.11 328.24 330.61 332.08 325.96"/>
        <polyline id="形状_1" data-name="形状 1" class="cls-2" points="758.22 193.37 747.76 187.09 726.18 187.09 714.04 178.14 708.99 189.08 706.24 189.9 706.74 197.77 700.07 205.33 698.91 222.66 689.85 234.47 662.91 247.89 645.28 248.27 634.08 254.3 635.73 258.39 641 260.23 646.27 266.26 658.24 275.26 663.52 275.56 671.97 281.8 678.13 283.84 694.27 283.64 699.65 281.9 701.85 278.22 704.38 282.51 708.88 283.54 714.92 286.5 728.21 285.58 728.21 274.95 735.24 272.6 736.23 267.38 744.8 264.42 747.43 256.75 752.15 252.05 764.9 247.35 768.74 238.86 768.19 228.64 786.86 215.46 783.02 204 775 197.46 774.52 193.37 774.52 193.37 758.22 193.37"/>
        <polyline id="形状_1" data-name="形状 1" class="cls-2" points=""/>
        <polyline id="形状_1" data-name="形状 1" class="cls-2" points="792.03 151.16 791.81 138.48 785.88 136.43 777.75 137.05 772.8 139.81 766.21 140.12 764.79 134.08 772.14 126.93 774.34 121 773.9 116.3 766.76 109.45 760.61 109.45 751.06 114.56 748.97 115.07 746.55 112 750.07 107.3 748.86 95.03 746.11 85.73 738.64 77.86 738.42 75.3 728.1 65.29 719.2 59.87 711.85 57.82 706.13 57.82 708.66 51.08 708.99 43.82 704.71 42.08 693.39 42.08 682.19 49.24 665.71 39.83 661.21 39.83 660.33 48.01 666.7 55.57 667.03 59.56 664.07 62.12 663.63 67.02 668.24 69.58 673.07 69.17 673.84 74.28 679.44 81.03 688.89 81.03 686.03 85.73 687.46 90.33 693.06 91.25 693.61 98.92 689.33 101.78 689.99 111.7 695.37 115.78 704.27 107.71 709.43 106.89 709.32 123.76 711.51 124.58 717.34 120.9 725.13 124.58 733.92 128.36 738.32 136.43 744.14 137.56 746.44 147.58 744.25 152.07 727.33 152.07 723.38 158.11 724.37 164.96 719.86 167.92 714.04 178.14 726.18 187.09 747.76 187.09 758.22 193.37 774.52 193.37 774.52 193.37 774.34 191.84 777.31 188.88 776.54 179.37 780.82 178.86 787.41 174.05 792.36 168.12 793.12 162.3 796.09 160.66 796.09 153.51 792.03 151.16"/>
        <polyline id="形状_1" data-name="形状 1" class="cls-2" points="156.62 303.93 154.26 300.66 159.09 296.77 164.69 299.23 176.28 292.38 177.38 289.42 185.34 289.42 188.97 283.33 203.41 283.89 207.86 282.11 222.08 285.33 243.06 285.43 253.66 299.79 266.51 299.38 272.11 292.89 272.11 286.71 274.42 283.59 283.98 292.12 286.39 300.25 291.06 299.38 293.97 294.42 304.95 299.18 307.37 299.74 312.53 304.08 329.28 305.72 332.58 305.72 335.21 303.57 355.31 303.57 359.93 298.77 359.16 293.04 354.55 291.82 354.55 277.91 348.72 274.54 348.72 261.46 346.31 261.46 335.1 252.77 331.7 246.53 331.81 234.67 335.76 232.63 335.98 221.18 337.85 218.73 339.06 214.43 331.15 211.47 325.11 212.69 316.98 219.44 317.86 237.02 310.83 242.85 307.43 242.54 302.04 237.13 287.98 237.02 282.16 233.45 277.11 233.04 250.64 254.91 243.12 254.91 243.12 254.91 219.45 254.91 215.05 249.91 202.64 250.62 196.82 249.19 191 252.41 178.31 255.78 169.14 260.84 158.87 264.27 150.36 270.4 137.56 272.85 135.42 278.48 142.78 283.79 142.45 287.63 137.12 292.89 136.19 318.5 141.79 320.24 156.62 310.52 156.62 303.93"/>
        <polyline id="形状_1" data-name="形状 1" class="cls-2" points="590.04 37.79 592.67 42.9 595.31 43.72 597.17 54.24 607.83 68.56 607.61 79.7 609.7 84.4 615.85 85.32 616.29 94.93 620.79 102.19 621.89 111.49 626.94 114.86 650.01 115.89 656.82 123.96 687.79 123.96 695.37 115.78 689.99 111.7 689.33 101.78 693.61 98.92 693.06 91.25 687.46 90.33 686.03 85.73 688.89 81.03 679.44 81.03 673.84 74.28 673.07 69.17 668.24 69.58 663.63 67.02 664.07 62.12 667.03 59.56 666.7 55.57 660.33 48.01 661.21 39.83 653.08 32.57 648.58 32.57 643.31 37.89 636.83 41.47 623.1 41.47 618.48 40.04 614.53 30.84 613.76 23.88 626.28 16.93 626.17 10.8 621.56 0.58 615.63 1.91 610.9 8.04 601.13 17.75 586.41 17.55 585.86 21.43 585.86 21.43 590.37 23.78 590.04 37.79"/>
        <polyline id="形状_1" data-name="形状 1" class="cls-2" points="645.28 242.44 665.71 222.66 666.37 206.87 661.87 206.87 657.64 200.43 658.63 186.32 671.75 179.68 660.66 177.22 647.04 178.14 642.87 175.38 630.35 175.38 626.72 180.7 606.51 180.7 603.33 178.65 594.65 176.92 578.83 172.72 577.29 167.2 567.3 167 557.96 161.12 557.39 179.04 554.83 180.95 555.5 202.19 560.71 201.45 563.57 198.79 568.51 198.89 571.69 202.88 572.57 223.22 592.78 226.5 592.78 242.54 603.99 256.75 614.97 256.24 623.32 252.56 629.8 248.88 634.08 254.3 645.28 248.27 645.28 242.44"/>
        <polyline id="形状_1" data-name="形状 1" class="cls-2" points="142.45 287.63 142.78 283.79 135.42 278.48 137.56 272.85 150.36 270.4 158.87 264.27 169.14 260.84 178.31 255.78 191 252.41 196.82 249.19 196.82 238.15 193.77 236.77 193.19 230.33 191.13 228.49 178.12 228.49 171.86 217.06 163.87 217.06 154.39 206.33 142.61 206.33 133.06 193.53 124.16 193.53 112.05 202.88 102.91 202.88 95.41 198.13 93.52 200.66 72.02 201.27 57.6 209.78 51.17 208.71 42.64 202.33 42.64 202.33 41.62 202.88 33.49 205.95 25.36 205.95 17.13 210.91 11.2 211.78 1.69 217.4 0.54 224.96 9.33 231.3 10.43 241.11 9.99 252.56 13.67 254.76 13.34 259.72 17.57 266.36 24.76 269.48 28.49 269.48 27.45 281.9 30.42 287.32 39.53 295.39 39.75 312.16 41.51 316.76 46.45 319.62 46.45 324.32 44.26 330.46 60.62 333.73 81.16 333.73 90.17 327.49 95.44 325.65 102.03 327.39 106.64 330.46 117.3 330.66 125.75 327.08 136.19 318.5 137.12 292.89 142.45 287.63"/>
        <polyline id="形状_1" data-name="形状 1" class="cls-2" points="698.66 184.99 690.76 176.1 686.69 180.7 671.75 179.68 658.63 186.32 657.64 200.43 661.87 206.87 666.37 206.87 665.71 222.66 645.28 242.44 645.28 248.27 662.91 247.89 689.85 234.47 698.91 222.66 700.07 205.33 706.74 197.77 706.24 189.9 703.94 189.28 698.66 184.99"/>
        <polyline id="形状_1" data-name="形状 1" class="cls-2" points="85.94 177.96 85.94 170.07 91.05 164.85 97.47 164.85 119.63 143.16 120.37 128.9 137.01 114.02 137.01 102.75 128.72 91.35 118.94 87.16 119.49 77.86 114.44 73.97 105.22 74.08 96.76 73.36 92.8 67.43 82.59 67.23 78.53 70.7 74.79 78.27 70.95 78.68 65.78 83.38 65.78 87.78 55.13 87.78 48.54 91.35 40.3 99.53 32.17 100.04 32.72 113.13 30.09 118.55 29.87 130.4 34.7 135.41 35.14 148.6 30.31 151.97 35.36 157.49 41.51 159.74 42.17 166.39 45.68 169.04 51.51 169.25 55.9 173.85 55.9 179.78 66.22 182.03 66.22 183.41 73.83 183.41 85.94 177.96"/>
        <polyline id="形状_1" data-name="形状 1" class="cls-2" points="656.82 123.96 650.01 115.89 626.94 114.86 621.89 111.49 616.07 115.99 615.85 122.33 620.24 127.13 621.34 138.58 625.51 143.08 630.35 143.08 630.35 150.13 643.64 155.55 656.05 155.04 657.91 163.93 664.07 166.28 679.44 166.28 681.75 159.33 690.54 159.03 691.85 162.4 703.06 162.09 706.46 158.92 723.38 158.11 727.33 152.07 744.25 152.07 746.44 147.58 744.14 137.56 738.32 136.43 733.92 128.36 725.13 124.58 717.34 120.9 711.51 124.58 709.32 123.76 709.43 106.89 704.27 107.71 695.37 115.78 687.79 123.96 656.82 123.96"/>
        <polyline id="形状_1" data-name="形状 1" class="cls-2" points="703.06 162.09 691.85 162.4 690.54 159.03 681.75 159.33 679.44 166.28 664.07 166.28 657.91 163.93 656.05 155.04 643.64 155.55 630.35 150.13 630.35 143.08 625.51 143.08 621.34 138.58 612.33 141.75 611.01 146.56 605.19 147.88 602.01 151.36 594.43 151.77 587.73 154.73 577.29 167.2 578.83 172.72 594.65 176.92 603.33 178.65 606.51 180.7 626.72 180.7 630.35 175.38 642.87 175.38 647.04 178.14 660.66 177.22 671.75 179.68 686.69 180.7 690.76 176.1 698.66 184.99 703.94 189.28 706.24 189.9 708.99 189.08 714.04 178.14 719.86 167.92 724.37 164.96 723.38 158.11 706.46 158.92 703.06 162.09"/>
        <polyline id="形状_1" data-name="形状 1" class="cls-2" points="397.38 91.05 397.38 101.88 400.46 105.15 403.31 106.58 403.31 115.38 406.06 121.61 403.53 124.47 397.93 124.47 394.75 121.61 390.79 124.47 368.06 123.04 368.06 127.44 373.55 132.55 373.66 144 380.14 147.68 380.91 160.46 386.18 164.55 392 166.64 392 170.01 379.53 169.76 375.08 173.54 375.08 177.58 379.59 180.65 379.59 185.96 374.81 188.72 374.87 194.5 378.49 196.13 378.49 210.91 382.06 213.97 388.92 215.81 390.35 221.79 385.13 230.43 387.77 234.37 391.34 236.72 388.38 240.55 382.22 240.24 380.14 244.54 380.25 251.44 381.45 256.96 385.57 264.11 386.01 273.26 389.58 276.48 399.47 269.07 409.96 269.79 412.7 271.27 429.4 271.68 433.3 269.07 433.96 262.02 438.74 258.64 438.74 249.19 443.4 244.18 447.41 239.63 453.45 234.83 459.93 229.51 465.92 227.88 470.6 228.86 470.07 225.19 465.45 219.29 461.99 217.14 449.55 213.38 448.4 207.17 452.11 205.72 451.7 200.77 448.11 198.2 448.07 193.34 451.94 188.89 456.19 188.47 464.75 180.8 476.9 176.93 484.24 170.76 483.16 145.07 473.77 131.89 464.3 123.3 456.89 119.85 454.08 111.88 444.69 104.52 436.62 101.14 432.25 93.7 431.76 89.49 433.57 84.58 439.26 79.37 445.35 75.23 446.26 72.08 433.09 62.21 433.09 62.21 433.08 62.22 423.3 63.96 415.5 70.19 406.94 73.67 399.14 77.45 399.14 89.82 397.38 91.05"/>
        <polyline id="形状_1" data-name="形状 1" class="cls-2" points="51.17 208.71 57.6 209.78 72.02 201.27 93.52 200.66 95.41 198.13 102.91 202.88 112.05 202.88 124.16 193.53 133.06 193.53 142.61 206.33 154.39 206.33 163.87 217.06 171.86 217.06 178.12 228.49 191.13 228.49 193.19 230.33 193.77 236.77 196.82 238.15 196.82 249.19 202.64 250.62 215.05 249.91 219.45 254.91 243.12 254.91 230.35 243.44 230.35 234.39 236.73 227.34 241.96 227.34 244.76 232.25 249.46 232.17 249.46 224.88 252.75 222.97 252.09 215 240.4 208.02 231.42 200.12 220.3 191.46 220.96 184.86 219.06 183.25 219.06 168.3 217.74 167.15 217.74 142.08 218.57 134.65 219.88 126.06 228.62 117.47 229.04 109.45 226.59 109.34 218.68 106.48 212.42 105.05 194.18 93.91 188.36 95.44 186.16 97.79 178.26 104.54 173.09 108.63 167.05 108.73 161.89 103.42 153.87 101.88 149.59 90.64 136.41 90.02 128.72 91.35 137.01 102.75 137.01 114.02 120.37 128.9 119.63 143.16 97.47 164.85 91.05 164.85 85.94 170.07 85.94 177.96 73.83 183.41 66.22 183.41 66.22 186.53 57.44 188.16 50.19 195.32 47.33 199.81 42.64 202.33 42.64 202.33 51.17 208.71"/>
        <polyline id="形状_1" data-name="形状 1" class="cls-2" points="474.87 229.77 470.6 228.86 470.6 228.86 470.6 228.86 470.6 228.86 465.92 227.88 459.93 229.51 453.45 234.83 447.41 239.63 443.4 244.18 438.74 249.19 438.74 258.64 433.96 262.02 433.3 269.07 429.4 271.68 412.7 271.27 409.96 269.79 399.47 269.07 389.58 276.48 365.86 276.48 365.86 287.01 359.16 293.04 359.93 298.77 355.31 303.57 335.21 303.57 332.58 305.72 329.28 305.72 328.79 316.2 332.08 318.65 332.08 325.96 328.24 330.61 328.29 342.11 337.08 342.83 343.12 340.37 347.63 336.29 360.04 350.09 365.97 349.88 374.87 347.12 383.76 340.99 393.43 344.46 402.21 344.56 410.34 348.25 415.72 354.28 424.51 354.07 429.56 349.88 441.87 350.19 447.8 357.65 454.17 350.49 459.99 340.27 459.99 327.8 456.58 320.34 459.99 317.07 459.99 308.48 452.63 298.77 458.34 296.31 462.07 291.41 457.57 285.89 463.39 280.98 463.39 273.11 471.96 268.51 477.45 266.26 483.6 259 482.94 252.97 473.39 250.72 467.13 245 467.9 241.01 475.81 238.86 478 238.88 478 238.88 474.87 229.77"/>
        <polyline id="形状_1" data-name="形状 1" class="cls-2" points="523.03 56.9 515.95 62.58 508.54 65.49 513.15 70.09 512.16 72.39 506.83 72.9 507.55 87.98 510.68 91.45 511.56 95.75 513.31 97.74 513.31 108.12 509.96 108.94 509.91 115.38 513.75 120.54 513.7 128.72 511.5 130.04 511.94 147.12 516.83 158.26 527.37 168.74 532.81 168.74 536.93 160.51 545.94 160.05 550.99 164.5 554.89 164.7 557.96 161.12 557.96 161.12 567.3 167 577.29 167.2 587.73 154.73 594.43 151.77 602.01 151.36 605.19 147.88 611.01 146.56 612.33 141.75 621.34 138.58 620.24 127.13 615.85 122.33 616.07 115.99 621.89 111.49 620.79 102.19 616.29 94.93 615.85 85.32 609.7 84.4 607.61 79.7 607.83 68.56 597.17 54.24 595.31 43.72 592.67 42.9 590.04 37.79 590.37 23.78 585.86 21.43 578.83 21.02 569.39 15.09 562.58 6.81 550.38 7.12 546.32 13.87 542.26 17.75 535.78 20.82 535.89 32.06 529.51 36.36 524.23 36.64 523.03 39.12 523.03 56.9"/>
        <polyline id="形状_1" data-name="形状 1" class="cls-2" points=""/>
      </g>
    </g>
  </g>
</svg>
