<svg xmlns="http://www.w3.org/2000/svg" xmlns:xlink="http://www.w3.org/1999/xlink" width="880" height="421" viewBox="0 0 880 421">
  <defs>
    <style>
      .cls-1 {
        filter: url(#filter);
      }

      .cls-2 {
        fill: #002762;
        stroke: #b4d1f9;
        stroke-width: 2px;
        fill-rule: evenodd;
      }

      .cls-3 {
        font-size: 14px;
        fill: #fff;
        font-family: "Microsoft YaHei";
      }
    </style>
    <filter id="filter" filterUnits="userSpaceOnUse">
      <feGaussianBlur result="blur" stdDeviation="6" in="SourceAlpha"/>
      <feComposite result="composite"/>
      <feComposite result="composite-2"/>
      <feComposite result="composite-3"/>
      <feFlood result="flood" flood-color="#0a52ca" flood-opacity="0.76"/>
      <feComposite result="composite-4" operator="in" in2="composite-3"/>
      <feBlend result="blend" in2="SourceGraphic"/>
      <feBlend result="blend-2" in="SourceGraphic"/>
    </filter>
  </defs>
  <g id="画板_1" data-name="画板 1">
    <g id="临海_拷贝" data-name="临海 拷贝">
      <g id="组_12" data-name="组 12" class="cls-1">
        <path id="形状_58" data-name="形状 58" class="cls-2" d="M37,116c-0.165,2.029-3.731,11.582-8,11s-10.68,1.436-8,7,5.712,5.56,7,6,4.227,5.889,6,10,1.248,8.209,3,8,8.856,0.528,11,2,1.825-2.348,4,0,7.515,3.981,8,10,1.278,4.4,5,6,5.649,3.991,6,7,3.3,3.588,2,4-6,4-6,4l9,9a17.878,17.878,0,0,0,5,0c1.674-.439,5.111-1.3,6,0s3.107,3.857,5,4-1.632,2.959,1,4,1.269,3.957-2,4-2.1,3.058,0,4,2.117,0.092,3,2,1.484,1.71,3,2,1.145,0.636,2,4,0.557,5.577,3,6,3.713-2.529,6-5,4,0.784,8-2,8.063-12.793,8-16,2.891,1.67,5-1,3.645-6.092,6-6,3.033-1.7,2-3,2.256-1.227,2-3-6.34-2.907-7-5-5.273-7.647-1-11,6.488-11.463,7-14,3.308-3.014,7,0,7.748,0.157,10-2-1.424-6.224,4-5,8.725,2.327,8-1,2.083-5.353,6-7,8.911-2.242,10-9,7.261-5.228,11-9,6.1-2.527,7-5,1.575-6.656-2-10-7.612-7.553,1-11,7.7,1.081,7-5,0.979-4.995,4-9-5.086-7.046,0-10,5.6-3.834,5-5-6.38-4.41-2-6,5-1,5-1-0.822-3.9,1-5,4.373-5.133,0-3-9.99,4.72-12,4-1.7-3.544-3-5,0.187-4.02-4-4-2.83-1.89-5-3-3.241.422-5,0-3.128-1.414-6,0-3.228-.366-5-2-5.05-.431-8,0-7.707,2.093-9,0-2.677-.331-6,2-8.252,3.34-9,1-8.537-9.725-16-5-8.621,11.834-11,16-12.107,9.283-15,10-10.834-.441-16,1-12.009,4.388-16,8a45.508,45.508,0,0,0-9,12c-0.852,2.127-16.979,8.5-19,11S37.517,109.622,37,116Z"/>
        <path id="形状_59" data-name="形状 59" class="cls-2" d="M227,56c2.407,0.241,3.634-.85,5-3s5.858-1.463,8-4a44.836,44.836,0,0,0,7-13c1.943-5.552,10.867-10.576,12-13s8.581-4.622,11-1,5.539,3.526,11,5,10.91,3.894,14,4,3.3,4.654,1,6,1.134,4.267,6,5,7.97-.81,13-3,5.7-1.05,8,2,1.071,4.782,3,6,4.148,0.68,6-3-1.042-4.295,6-3,10.84-1.243,13,2-0.329,12.058,3,15,5.5,5.329,2,6-12.485-.774-16-4-8.873,3.6-4,6,8.468,1.7,7,6,1.764,6.217,3,8-9.532,4.978-7,7,4.734,2.79,1,8-3.658,10.579-5,11-2.082,4.588-6,4-11.717,2.194-14,2-5.74,1.391-8,0-6.97-5.8-10-1-4.189,3.194-7,2,0.783-5.415-6-5-6.425.765-8-3-8.464-4.612-12,0-6.692,1.172-10,0-6.925-7.038-11-6-4.728.746-5-2-5.944-3.875-6-7,5.457-8.5,3-10-7.748-2.914-6-5-1.776-6.723-5-6-4.781.463-5-2,3.825-3.548,3-5a5.039,5.039,0,0,0-2-2S225.006,55.8,227,56Z"/>
        <path id="形状_60" data-name="形状 60" class="cls-2" d="M176,158c0.189,2.838,7.032.858,9,2s-0.167,1.074,1,4,5.659,4.265,8,2,2.263,1.5,3,6-6.97,16.353-9,20-6.352,6.974-1,9,6.243,3.193,5,6,6.268,8.628,7,12-7.136,8.267-4,13,7.684,4.686,9,8,0.617,6.159,7,8,0.652,2.3,4,4,6.205,3.021,9,2,4.412-.288,3,2-1.415,2.644,1,5,8.035,4.712,8,1,2.276-6.979,1-8-4.585-.945-1-4,0.517-2.532,0-4-1.655-5.291,0-7,3.106-6.5,6-7,4.071-8.295,3-12-1.273-12.985,1-11-0.686-11.608,2-10,14.867,8.736,13,3-4.615-6.4-3-8,6.56-10.4,10-13,0.357-13.027,13-13,9.324-2.3,14-5,11.05-5.27,11-7-4.846-3.685-1-5,8.223-4.479,7-7-2.949-4-1-7,2.256-5.86-2-6-8.606,4.967-8,0,3.324-7.241,1-9-4.71-2.38-4-4,7-6,7-6-1.209-3.389-4-3-7,6-7,6-4.218-1.263-5-3-0.348-3.516-3-4-5.1.609-7,0-3.616-6.521-9-6-7.5,7.234-10,6-10.852-6.582-13-8-5.351-.46-7,0-2.062-1.4-2-3-5.56-4.168-6-7,3.261-4.788,3-8-5.237-3.586-6-6,1.941-3.374-1-6-4.968.193-8-1-9.812.957-7,4,5.089,3.056,2,5-7.778,5.1-5,8,1.625,6.407-3,10,2.815,8.483-3,9-9.066.631-9,5,8.485,6.638,7,14c-0.942,4.671-8.354,7.82-13,10s-5.362,2.94-6,8-7.256,5.876-10,7a21.789,21.789,0,0,0-5,3s3.3,3.125,5,3S175.847,155.7,176,158Z"/>
        <path id="形状_61" data-name="形状 61" class="cls-2" d="M111,257c0.942,2,3.084,13.353-2,19s-3.332,8.26-1,13,4.979,15.465,6,18,4.614,5.269,8,6,2.536,3.814,0,4-2.23,2.138-3,4-6.1,4.955-8,6-3.189,4.487-6,4-2.345,1.8,1,3,4.66,4.591,6,7,8.377,4.748,10,4,4.286-3.634,7,0,5.846,1.569,9,1,4.809-6.5,13-8,9.886-.452,13-3,6.772-6.272,10-5,8.972-8.292,12-10,8.015-4.024,11,0,8.058,0.09,11-3,0.339-8.819,4-10,2.384-3.784,1-4,0.273-3.739-3-4-5.762-.513-3-3,2.756-7.928,2-9,1.653-4.568,5-4,3.833-5.757,3-9,0.887-5.386,5-6,6-7,6-7-2.6-.639-2-3,2.276-4.574-1-5-5.39,1.49-9-1-2.489-3-5-4-4.892-1.341-6-5-5.279-7.1-8-9-3.649-5.58-1-9,4.624-6.715,1-10-4.7-4.548-5-6,1.306-4,0-5-8.905-3.971-8-6,6.255-10.14,9-15,5.85-12.891,2-17,0.781,2.411-4,1-5.331-2.184-5-6-3.7-.425-6-1a5.447,5.447,0,0,1-4-3c-0.988-1.609-2.753-1.27-4-2a11.043,11.043,0,0,1-3-4c0.072-.2-1.718.359-2,4s-1.554,3.592-4,3-7.632-2.58-7,2-7.548,5.638-9,5-6.614-5.456-8-2-5.13,14.29-7,15-4.531,3.4-1,8,4.941,5.594,6,6,2.76,1.976,2,3-2.336.543-2,3-2.817,1.915-4,3-4.033,6.573-6,6-2.857-1.317-3,1-2,7.777-5,12-9.057,4.195-10,4-2.231,3.927-5,5-2.395,3.494-3,5-1.51,7.592,3,11S109.406,253.614,111,257Z"/>
        <path id="形状_62" data-name="形状 62" class="cls-2" d="M139,347s3.813,0.715,4,4,1.148,1.755,3,3,0.17,3.758,3,6,8.331,0.6,11,3,5.019,1.27,7,3,6,3.41,9,6,4.576,5.373,9,7,8.421,1.081,8,3-3.695,9.142,0,8,8.21-3.566,10-4,4.215-4.88,10-3-0.824,3.593,2,5,2.468,5.928,1,6,1.922,5.459,4,4,3.437-4.05,9-2-2.982,2.544,1,3,8.43,1.306,9-2,3.049-7.3,6-6,3.287,3.909,6,4,6.112-3.9,10-4,9.651-9.581,10-12,5.715,2.465,6,5,4.381,0.7,6-1,7.127-6.629,9-6,2.619-5.041,6-5,5.38-3.073,7-3,4.444,2.514,6,4,1.65,0.355,3-1,5.682-8.088,5-9,4.189-.818,9-2,4.729-3.168,8-2,0.363-.8,4-2,8.363-3.834,6-4-6.652.786-8-1,0.014-1.167,3-2,3.554-5.77,1-4-3.7-1.484-4-3-1.589-5.944-4-6-4.525-1.308-6-4-2.144-1.562-6-3-4.032-2.292-7-3-0.318,4.375-4,0,3.1-6.752-3-6-6.667,2.454-9,3-3.762-5.37-2-8-0.524-4.83-2-6,1.413-3.878-3-2-9.031.376-11,2-3.3,4.8-7,4-8.856-5.2-13-3-14.76,8.582-16,6,4.637-5.577,1-6-3.046,3.725-5,2-2.538-3.418-6-1-5.125,1.249-7,0-5.664-7.608-7-6a4.013,4.013,0,0,1-5,1c-2.1-.963-1.458-2.608-3-1s-3.664,7.312-4,9-5,8.121-10,7-0.711-3.387-6-4-9.98,4.835-12,7-3.329,5.041-8,5-7.646,4.533-10,6-12.963.6-17,4S140.571,344.73,139,347Z"/>
        <path id="形状_63" data-name="形状 63" class="cls-2" d="M240,260c3.438,2.063,5.292-3.861,9-3s5.5-1.192,6-4,8.347-3.473,10-5,2.066,1.949,0,3-0.118,3.23,1,4-3.674,3.371,0,3,2.98-5.721,6-2-3.95,3.166,0,6,7.959,5.857,7-1,2.084-8.959,8-10,10.646-1.614,12-4-0.6-10.22,7-7,5.848,11.527,13,9,2.989-6.171,6-4,7.784,1.041,9,3,2.417-5.874,6-8,6.093-1.311,6,2-4.7,8.977-1,13,5.184,5.279,2,5-12.54,4.476-11,10,1.805,6.2-1,9-9.476,10.186-8,13-5.99,5.009-4,11,0.989,7.826,3,9,7.151,0.41,4,3-6.941,1.924-4,4,9.243,2.064,4,3-5.222,2.557-5,5a5.984,5.984,0,0,1-1,4s-4.241-2.33-6-3-3.365-1.694-5,0-2.74-2.977-3-5-0.511-2.785-6-1-9.624,1.376-8-3,3.035-4.9,1-7a18.541,18.541,0,0,1-3-4,15.125,15.125,0,0,1-5,1c-3.639.306-6.541-.727-11,4s-6.6-.079-9-1-6.617-2.17-15,2-9.774,3.384-9,2,3.014-4.39,1-5-4.085,2.984-5,2-2.747-3.616-5-1-6.108,1.772-8,0-4.419-6.327-6-6-2.405,2.648-5,1-2.805-4.451-4-5-0.367-1.013-2-2-6.579-1.275-5-3a14.556,14.556,0,0,0,3-7c0.042-1.551-.868-5.948,3-7s4.832-.284,5-4-1.094-8.645,1-10,6.592-.307,8-4,2.578-3.882,5-2,4.815,1.481,5-1S238.375,259.025,240,260Z"/>
        <path id="形状_64" data-name="形状 64" class="cls-2" d="M292,168s5.62-.285,7,2,5.426,2.436,8,2,8.181-1.53,7,1-3.883,8.62-1,9,5.314,0.014,5,2-2.373,2.426,1,5-0.7,4.052-2,8,1.855,3.167,1,5-1.557,6.219-4,7-1.669.909,2,4,1.644-1.434,5,2,5.614,5.484,8,5,7.828-1.86,7,0,2.5,4.484,3,2,3.931-2.417,6-2,6.472,2.7,4,3-2.79.651-2,3a7.461,7.461,0,0,1-2,7c-1.536,1.3,3.931,3.113,3,5s-2,4-2,4-2.468-6.9-8,0-3.6,6.164-7,5-6.077-1.574-6-2-4.359,6.28-8,5-4.033-3.329-6-6-7.4-7.132-10-4,1.4,8.937-7,10-14.568.008-15,10-3.079,5.58-5,4-4.6-3.373-2-5,0.625-4.029-1-4-6.409,5.61-6,3a10.042,10.042,0,0,0,0-4s-2.031-1.8,0-3,1.72-5.7-2-3-6.512,3.348-8,6-3.842,2.627-6,3-4.09,2.743-7,3a26.318,26.318,0,0,1-5,0,2.482,2.482,0,0,1,0-3c1.189-1.43.416-3.866-1-4s-1.648-1.359,0-3,1-3,1-3a7.24,7.24,0,0,1,0-9c3.532-4.964,8.141-7.628,8-9s-1.318-11.846-1-14,2.077-7.339,3-7-1.087-9.686,1-9,6.737,6.429,10,5,3.621-3.377,2-7,0.951-7,3-10,4.9-6.153,6-8,2.483-11.139,9-11S288.575,167.459,292,168Z"/>
        <path id="形状_65" data-name="形状 65" class="cls-2" d="M307,158s5.872,0.145,8,2,4.949,0.9,8-1,14.344-6.295,20-4,5.387,4.533,8,5,4.792,2.4,4,5,0.413,0.438,1,4,1.861,7.714,4,10,2.042,2.559,1,5-2.527,3.179,0,4,4.335,0.929,7-2,7.007-4.424,9-1,3.265,4.559,6,3,8.558-1.777,11,2,3.626,3.843,7,5,5.2,2.481,3,4-8.08,3.524-10,5-5.735,3.3-7,1-0.985-3.881-4-2-3.467,2.714-8,2-6.3-5.665-7-2-3.527,6.8-4,9-1.148,4.231-2,5-8.751,8.757-5,12,7.343,2.99,11,5-0.088,4.456,0,7a5.227,5.227,0,0,1-4,5c-1.861.32-4.389,2.111-6,3s-5.449-3.32-7-3-5.871,4.025-5-1-0.465-3.484,0-4,4.048-1.533,2-4-3.543-3.428-1-7-0.543-5.76,1-6,1.279-3.861-1-4-6.436-1.812-8,2-3-.732-3-2-3.841-1.708-7,0-6.172-3.91-8-5-8.733-3.267-8-5,5.881-4.212,5-8-2.3-3.184,0-6,3.188-4.925,1-7-0.689-4.473-1-6-3.606-.473-5-1-2.3-3,0-6,1.6-5.1-3-5-3.679,2.141-7,1-4.239-4-7-4-6,0-6,0a23.176,23.176,0,0,1,7-6C301.11,159.887,306.046,155.615,307,158Z"/>
        <path id="形状_66" data-name="形状 66" class="cls-2" d="M334,113c3.751-.17,8.933-0.048,12,4s1.822,6.618,4,11,4.489,4.063,11,3,5.933-2.271,10,0,4.378-6.271,8-3,4.6,9.4,9,13,9.378,8.4,13,11,4.378,8.063,5,11,1.6,4.174,5,5-0.067,2.952,0,6,3.044,5.174,1,6-4.622,5.174-6,8-3.067,4.507-2,7-2.488.08-5-1-7.821-7.526-11-7-4.165,2.979-8,1-3.14-6.139-7-5-7.351,7.732-11,5-2.365-3.755-1-5,1.9-.734-1-4-5.591-11.812-5-14-3.691-4.676-5-5-4.243-6.533-13-6-11.253,3.686-14,5-2.772,2.154-7,1-8.76-3.052-10-3,0.382-1.976-1-3-1.837-1.551,1-3,6.065-3.865,6-6-2.794-3.343-2-6,4.065-3.962,3-6-3.618-3.429-6-2-7.335,2.485-7,0,3.644-6.34,2-8-6.03-4.144-4-6,5.24-2.556,6-4,0.631-2.883,2-2a15.168,15.168,0,0,0,11,1,55.441,55.441,0,0,1,13-2c1.832,0.089,2,1,2,1S330.412,113.163,334,113Z"/>
        <path id="形状_67" data-name="形状 67" class="cls-2" d="M360,60c1.848-3.7,9.331-6.019,8-4s1.465,3.613,5,4,6.15-3.427,8-3,4.823,1.429,6,3,4.732,1.3,7,4-0.86,1.944,1,4,5.459,1.156,6,4,6.982,4.891,10,4,14.665,1.572,18,2,7.754-2.286,8,0,2.514,8.821-3,10-10.362-.1-9,2,3.256,6.469-3,8-8.292,2.116-9,7,2.044,8.664-7,10-3.171,3.829-3,5-0.337,6.736-3,7-6.151,4.458-7,8-2.1.976-4,2a6.841,6.841,0,0,1-3,1s-1.317-2.042-4-6-3.983-7.3-8-2-3.131.662-5,0-4.907-.968-10,1-9.073-.486-10-6-4.035-11.1-10-12-8.683-.1-7-4,1.854-.54,3-3,3.539-8.91,5-11,4.243-6.336,0-7-0.314-3.762,2-5,5.761-2.095,3-4-3.888-3.613-3-6-0.016-5.983-3-6-6.368-3.242-5-5,2.15-4.057,5-2,11.019,4,14,4,6.185-.427,4-3S359.611,60.778,360,60Z"/>
        <path id="形状_68" data-name="形状 68" class="cls-2" d="M440,75c1.788,0.143,5.322-.557,6-2s-3.627-6.279-1-5,7.78,4.165,9,5,2.2,5,0,7-3.206,7.93,1,8,4.669,0.893,7,2,4.34,1.68,4,5-0.452,13.394,9,15a43.16,43.16,0,0,0,17,0c3.271-.482,3.6-3.037,6-1s3.15,6.575,6,10,3.048,6.413,2,9,7.1,11.353,11,12,16.626-3.828,17-7-4.184-4.856-2-8a19.986,19.986,0,0,1,9-7c3.624-1.459-1.128-15.824,4-15s12.533,3.657,15,3,2.117-4.949,4-1,7.677,7.306,10,8,5.765,3.991,3,5-7.7,2.246-4,4,4.908,5.983,10,7,5.288-.244,5,2-2.028,10.192,3,14,6.758,8.153,10,9,4.961,0.429,7,1,2.579-1.6,4-1,1.169,7.114-1,7-6.517-6.06-7-2,0.107,5.766-2,6-4.955-2.06-8-2-4.231-3.576-4-2-0.983,7.525-4,6-8.354-3.992-11-3-7.8,6.205-8,10-5.68,9.307-12,8-2.512-3.823-2-8-0.018-6.335-7-9-4.36,3.592-7,3-10.518,2.9-16,2-3.445,2.244-7,2-13.479,1-9,4,2.825,0.476,8,5,14.1,7.195,10,9-6.866,7.634-5,11,2.415,7.842-1,5-8.546-4.7-9-8,1.836-8.8-1-11-6.372-4.563-4,0,0.474,5.613-2,4-5.337-2.18-7,0-2.348-1.393-5-3-8.15-1.783-6,1,1.037,10.84-2,13-7.376,4.25-9,6-3.378-.77-3-5-3.194-8.177-6-8-8.2,3.616-8,0,0.984-6.188-3-6-3.623-3.4-6-4-24.272-9.016-27-10-3.7-2.8-6-4c-1.075-.56-2-1-2-1a25.993,25.993,0,0,0-3-2c-4.616-2.426-3.8-6.474-5-9s-6.57-10.474-12-14-8.934-6.474-5-8,2.566,0.344,4-1,5.43-7.929,8-9,4.293-5.247,2-8-1.616-3.611,2-4,8.793-.52,9-4-1.389-9.611,5-12,9.435-.745,8-7-0.419-2.944,5-4,8.048-3.621,7-7S436.67,74.734,440,75Z"/>
        <path id="形状_69" data-name="形状 69" class="cls-2" d="M349,262s4.674,7.833,10,10,8.942,4.4,14-2,10.154-12.133,15-9,2.45,6.594,4,9,6,5.545,8,6,4.175,4.616,3,5-4.473,1.1-3,4-7.5,7.532-9,9-4.339,8.019-6,8-5.713-5.5-8-1-3.938,3.64-1,9,7.506,10,12,9,7.266,0.422,5,2-6.642,6.2-10,6-5.776,4.853-8,4-3.037-3.485-8,1-2.509,4.7-4,6-6.523-.548-7-2-1.6-2.822-5,2-5.721,1.784-5,7,4,4,4,4-2.472,5.326-4,5-9.234.582-8-3,6.11-.78,6-4-3.925,1.548-5-2-1.8-6.633-5-8-6.394-3.5-8-6-1.923-5.792,1-8,5.3-1.464,2-3-5.8-1.263-2-3,5.733-3.026,2-5-3.939-2.169-5-6-1.6-7.294,1-10,1.805-4.419,3-8,8.366-8.488,9-12-2.343-5.9-1-9,5.928-6.1,8-7,2.873-.994,4,0A2.473,2.473,0,0,1,349,262Z"/>
        <path id="形状_70" data-name="形状 70" class="cls-2" d="M398,253c3.842,0.216,6.559-2.608,11-3s0.146,3.619,5,2,7.805-5.412,12-3,10.722,1.268,13,3-0.207,3.371,4,5,9.545,2.1,11-2,6.421-8.083,6-3-0.28,5.824,3,7,3.813,6.638,2,7,5.894,0.536,9-2,6.708-.868,8,5,3.749,0.07,6,4,5.386,8.719,14,8,5.644-6,7-8,3.231-2.589,5-5-5.449-6.691-3-7,3.026-12.216-1-10-5.9-1.515-2-3,11.4,3.29,11,0-1.079-10.71,3-7,16.188,4.022,14,0-4.833-9.534,1-10,8.239,2.013,10,0-0.286-6.121-3-6-4.255-5.233-4-9,2.661-9.078,7-9-4.936-8.8-7-9,2.465-2.19,6-3-4.575-2.746-4-5,8.022-3.035,11-2-3.637-4.973-6-3-4.544-.364-5-1a58.917,58.917,0,0,1-3-9c-0.807-3.235-2-8-2-8s-4.14,3.153-8,3-8.951-1.221-10,1-6.242.072-9,1-5.2,2.617-2,5,8.088,4.19,11,6,8.447,4.468,7,6-8.445,6.732-7,10,5.1,9.065,1,8-9.883-5.4-10-8,1.252-11.37-2-13-4.509-2.145-3,2,1.093,4.349-2,3-5.866-2.373-8,1-0.717-3.4-7-5-1.824,3.094-2,5,2.22,8.05-8,14-6.861,2.319-7-1-0.937-11.893-10-9-3.778-2.092-4-4-2.3-2.771-5-3-0.973-3.9-8-5-14.111-5.78-18-7-9.442-5.058-11-6-3.494-1.3-4,2,0.425,5.579,1,6-2.68,3.6-4,6-5.64,7.987-4,11-1.317,3.767-4,5-7.38,5.528-11,5-1.822-4.62-4-3-5.76,2.21-9,2-6.5-4.426-7-3-4.381,7.832-5,10-8.048,11.385-8,13a7.791,7.791,0,0,0,4,6c2.7,1.413,11.194,1.94,10,5s-1.142,8.6-3,9a25.041,25.041,0,0,0-8,4c-1.891,1.615-2.895-.824-5-2s-4.258-1.334-6,1-0.287-2.408-3-2c-0.518.078-2.412,4.452-1,7s3.937,5.279,5,8,9.121,14.4,17,13,11.833-11.775,15-13,7.433-1.455,10,5c1.341,3.372,1.433,3.953,3,4s3.983-2.576,2-7-3.908-12.305,0-11S394.158,252.784,398,253Z"/>
        <path id="形状_71" data-name="形状 71" class="cls-2" d="M423,315c4.181,0.747,19.721,3.683,26,6s15.673-.551,21-2,7.807-1.338,10,3,0.708,6.17,2,8,3.49,7.42,5,13,4.054,15.944,8,19,1.272,5.136,0,10-5.785,18-6,15,0.377-3.04-5-7-10.813-7.766-14-6-8.694-3.487-8-8,2.644-6.269-3-8-5.568.239-10,2-10.068,6.55-17,8-7.85,5.923-10,3-10.393-2.134-13-5-4.414-9.6-2-12-1.428-6.425-5-4-12.428,5.616-8,1-1.872-6.912-6-7-11.83,8.088-11,4-2.31-8.855-12-4-15,5-15,5-4.839-.071-4-5,6.606-8.531,8-9,5.178,6.2,8,4,2.02-6.468,6-8,5.83-.389,7,0,5.322-2.976,7-4,2.83-.1,4-1,8.815-4.818,7-6-4.583-.12-8-1-10.821-9.487-10-14,3.322-6.36,6-5,5.037,2.751,7-1a22.306,22.306,0,0,1,9-9c4.137-2.433,1.688-5.107,3-7s5.672-4.6,0-7-1.32-1.069,1-1,7.123-2.055,10,0,8.211,9.312,8,13-10.557,10.851-9,16S412.377,313.1,423,315Z"/>
        <path id="形状_72" data-name="形状 72" class="cls-2" d="M521,345c1.746,1.195-1.931,5.255-2,9s0.208,9.184-2,10-2.552,4.975-1,6-11.271-2.023-14-3a16.439,16.439,0,0,1-7-5c-2.283-2.531-7.164-11.081-8-20s-4.123-9.257-5-12-1.571-11.706-6-12-13.007,4.049-19,4-27.7-5.114-36-8-13.695-9.155-10-15,8.623-6.806,8-11-5.94-14.764-12-14-7.482,3.012-10,1-5.1-4.436-3-5,3.9-4.171,3-6-3.159-5.353-3-9,1.482-3.42,3-2,3.055,0.132,6-1,7.081-3.191,8-2,0.785,2.1,4,1,6.129-3.223,10-2,5.61,2.309,9,2,4.42,1.252,6,4,10.179,3.9,12,2,5.578-9.565,8-7-2.187,6.818,1,8,5.821,3.195,5,5-2.678,3.864,2,3,6.846-5.342,11-2,3.4,5.586,4,7,5.119-.061,6,2,5.49,10.3,13,8,7.042-5.083,7-7,5.19-4.475,5-7-2.777-4.076-3-5,3.379-5.269,2-8-4.61-3.48-6-3-2.726-2.052,1-3,7,2,9,1-0.115-9.514,3-9,9.912,5.8,14,3,0.868-4.241,0-6-2.521-6.34,4-6,8.422,1.984,9-1,2.887-1.972,4,0-1.858,5.81,2,6,5.72,1.268,5,5-0.967,2.367,0,5-0.847,8.938-4,8-5.269.506-4,3-2.844,2.862-2,6a9.038,9.038,0,0,1-2,8,45.592,45.592,0,0,1-5,4c-0.908.733-4.568,0.838-2,3a29.929,29.929,0,0,1,4,4s-4.044-.156-1,4a25.493,25.493,0,0,1,4,9,16.239,16.239,0,0,0-6,1c-2.337,1.094-1,4-1,4s-0.877,5.015,0,6,1.189,4.667,0,6,0.17,2.077,2,2,4.1,2.615,4,4,2.775-.566,2,1-2.971,5.479-8,4-6.651-3.959-9-4-9.987,2.525-13,5-6,5-6,5S517.755,342.78,521,345Z"/>
        <path id="形状_73" data-name="形状 73" class="cls-2" d="M613,167c-0.395.939,1.149,3.466,1,5s0.112,3.963,2,5,2.907,2.441,1,5,0.006,2.2,2,3,1.876,4.522,9,6,9.3,1.571,10,3-2.229,4.981-1,6,5.647,4.266,6,8-3.13,12.154-1,14,3.814-2.33,6,1,3.485,1.409,4,4,1.094,8.905-3,8-7.869,4.812-8,7,0.479,9.893-2,10-6.36-1.5-9,0-4.718,3.649-6,2-5.217-3.69-4,0-2.544.142-4,3-6.542,4.817-5-1-0.2-10.177-2-11-11.361-7.007-11-6-5.017,5.826-8,4-8.5-.508-13-1-11.824-1.842-15-1-4,1-4,1,1.847-4.17-1-5-5.816-1-6-3-0.478-6.994-3-7-8.973-3.644-8-11,6.852-9.141,8-10-5.639-5.634-7-7-3.145-2.132,1-3,4.361-.959,1-4-0.817-3.124,4-4,6.683,1.043,6,0-3.81-4.789-6-4-4.14,3.882-5,0-3.637-10.438-4-14,1.192-3.769,3-5,5.517-.94,8,1,5.018,5.048,3,10,3,8.716,8,6a12.95,12.95,0,0,0,7-9c0.665-2.725,6.153-11.437,11-10s6.48,4.9,9,4,3.314-4.932,3-6,4.467,3.064,9,3,5.3,0.57,5-3,1.293-4.6,4-2,4.624-.434,5,1A9.559,9.559,0,0,1,613,167Z"/>
        <path id="形状_74" data-name="形状 74" class="cls-2" d="M554,297c0.994,1.136,2.925,1.217,5,2s2.093,2.907,3,5,7.085,4.208,10,6,12.191,0.243,16,0,4.9-2.27,7,2,2.872,11.084,9,9,12.881,0.889,15,5-3.818,6.526,2,10,13.7,3.986,18,2,6.633,0.49,13,2,9.456-4.156,13,0,16.58,19.455,18,23,5.588,3.065,9,3,12.27-4.368,17-7,8.349-2.7,10,1,17.084-3.483,17-6-4.014-23.129-5-23-3-2-3-2,3.447-9.881,1-11-9.244-8.836-9-12-3.013,4.925-8,2-5.19-7.1,0-10,13.34-9.332,17-11-3.483-4.5-5-4,6.668-4.19,4-5-10.173.067-11-2-0.721-4.615-8-1-8.854-.491-10-2-4.642-3.305-9-2-2.42-.756-4-4-8.473-8.685-15-8-7.571,5.518-10,3-8.978-10.154-17-10-11-1-11-1l-7,4s-4.211-4.2-5-3a11.333,11.333,0,0,0-1,4,1.863,1.863,0,0,0-3,0c-1.643,1.743-5.347,6.64-6,2s1.279-10,0-11-12-8-12-8-4.16,3.884-6,4-19-2-19-2-11.751-1.433-15,1-0.727,2.626-1,5,0.319,7.18-5,7-2.657,2.416-3,4-3,3-2,6-2.6,7.594-5,9-5.764,1.654-4,4,3.742,4.03,3,5-3.069,1.266-1,4,5.789,7.2,5,9S549.389,291.73,554,297Z"/>
        <path id="形状_75" data-name="形状 75" class="cls-2" d="M652,225s6.626-2.416,8-1,1.974,2.827,3,0,5.447-2.233,10-2,5.921-2.886,12,0a21.667,21.667,0,0,0,17,1c4.728-1.827,6.519-7.886,10-3s6.971,8.032,10,5,6.606-.9,8,4,1.036,8.014,4,5,5.875-4.7,8-2,8.183,3.279,9,1,7.226-2.351,8,1,5.7,4.649,10,4,7.112-4.355,13-9,12.32-11.011,16-13,2.817,1.16,12,1,19.857-5.175,17,2-11.933,13.82-9,21,13.4,0.152,14,6-4.557,9.151-10,11a108.187,108.187,0,0,0-22,11c-9.117,5.728-16.253,3.98-21,5s-15,3.1-9,6-0.875,3.142-4,9-1.163,6.807-9,11-17.533,5.807-21,5-7.008,1.867-9,2-6.319,1.418-7,1a3.025,3.025,0,0,1-1-1s-6.341,6-9,0-0.068-4.809,5-9,16.4-9.425,15-11-3.96-2.479-5-3,5.692-4.539,3-5-8.474-.042-10-1-1.1-4.5-7-4-2.31,5.653-8,3-6.279-7.4-11-6-3.333-.161-5-2-4.88-10.023-16-9-5.383,4.528-9,3-6.938-8.162-17-10c-2.089-.382-5.392-0.674-5-1s-0.691-10.87,3-13,6.64-3.083,8-3S651.213,225.945,652,225Z"/>
        <path id="形状_76" data-name="形状 76" class="cls-2" d="M689,367s0.651,5.175,3,7,5.967,2.4,9,2,13.6,1.408,21,2,31.486-9.525,41-10,10.887-4.066,20-4,15.189,1.771,23-1,19.322-6.343,24-11,17.673-24.354,19-30,5.16-16.093,8-19,2.514-.491-3-4,4.138-10.207,1-11-0.078-23.911,1-28,1.355-13.025-4-15-19.3-2.922-20,2-2.586,6.788-5,8-15.686,6.839-23,11a55.15,55.15,0,0,1-23,7c-7.563.542-14.171,2.716-12,5s4.371,2.736,3,4-5.177,4.272-7,9-10.379,12.282-22,13-17.562,3.4-20,3-3.795,3.19-1,5,8.074,6.392,8,8-3.123,7.719-2,9,2.147,0.7,3,3,5.613,15.864,5,20-5.9,6.4-10,8-4.6,1.776-7,0-2.821-4.56-10-1-12.848,7.389-17,7S688.518,364.752,689,367Z"/>
      </g>
    </g>
  </g>
</svg>
