<svg xmlns="http://www.w3.org/2000/svg" xmlns:xlink="http://www.w3.org/1999/xlink" viewBox="3880 3770 650 450">
  <defs>
    <style>
	.cls-1,.cls-2,.cls-3,.cls-4,.cls-5,.cls-6,.cls-7{
        stroke: #303254;
        stroke-width: 1px;
        stroke: #9d9d9d;
        stroke-width: 1px;
        fill-rule: evenodd;
    fill: none;
    fill-opacity: 0.35;
	}
	    .cls-8{
        font-size: 16px;
    fill: #fff;
    font-weight: 700;
    text-anchor: middle;
    font-family: "Microsoft YaHei UI";
	    }
    </style>
  </defs>
  <g id="温州市地图">
    <path id="龙港市" class="cls-1" d="M4726,4316l6-8,3-3-3-6-1-5,2-4,9-5-3-6v-6l-1-2-3-1-5-2-1-3,3-2,6-1,9-2,5,2,5-3-2-8-5-14-9-10-6-2-12-10-11-10-5-8,14,3s16.79-.69,24-4c0,0,18.12-6.44,27,16l6,24s4.07,12.73,15,6l12-7s10.7-5.09,7-21l-10-20v-11l2-6,5-3,4-4,4-3,12-3,11,3,23,9,12-1,5-3s22.01-22.58,25-24c0,0,14.73-6.08,18,3,0,0,18.79,25.98,21,41,0,0,13.56,21.56,38,5l10-3,8-8,15-10,18-9,7-5,4-2,7,3,4-3,2-3,3-1,6,1,2,5,4,1,2,5,6,2s21.67,15.8,24,22l55,38,15,9,25,16-17,16,66,151s-1.4,9.1,11,6c0,0,7.67-1.47,7-11l4,3v9l-6,3-7,1s-4.18,2.05-5,3-6.62,3.58-7,4-2.67.38-5,0a6.283,6.283,0,0,1-3-1s-2.66,1.67-3-2,0.34-3.26,0-4,0.21-3.39,0-4a1.315,1.315,0,0,1,0-1,24.685,24.685,0,0,0-10,0c-4.79,1.19-5,1-5,1l-20,3-6,2-8,8-17,21-1,5,4-1,4-3v-2l7-1,8,1,2,3h3l1-2,4-2s4.83-2.55,5-1a5.257,5.257,0,0,1,0,2h3l1-3,1-2s1.74,0.27,2-1a30.941,30.941,0,0,0,0-5l3-1,6,5,3,1,3-1,2-2,1-2s0.6-.78,4-1-1.29-2.06,4,0,4,1,4,1l9,4a13.3,13.3,0,0,1,3,2c0.65,0.81,3,3,3,3l1,2h-6v6l2,2,1,3-2,2-3,1-5-6-4,1-1,3-6,15-16,8-1,1,5,8-3,8-6,3-4,1-1,2v3l1,3,2,3,1,2,1,4-1,10-3,4h-2l-9-10-4-2-3-1-2,1-2,2-5,4s-5.01,4.16-18,1l-14-3-10,7h-6l-8-9-10-1-19-13-15-1-3-1-2-3-3-5-3-1-9,8-2,7-6,11-3,6-3,3h-5l-11-7h-8l-2,2-2,1-2-2-1-2,2-3v-7l-9-9v-7l3-4s4.58-7.74,16-14h1v-5l-13-8-2-2v-9l3-5,1-4,1-5v-14l1-23-5-1-3-2,6-10,5-6-2-1-2-1-4-2-1-1,4-5-1-2-20,1-3-2-4-5-2-5v-7l-9-1-18,10-7,2h-6l-3-3-2-6-5-5-21-1-5-4v-7l-25,2-18-13-8-1-4-3-3,1v6l-9,8v4l10,16v7s-6.01,7.07-14,7h-9l-6,4v3l3,1-1,8a10.948,10.948,0,0,1-10,7l-6,4v6l1,6,1,5v18l-1,4s-4.15,6.41-10,6l-18-1s-26.09,2.85-45,17l-5-1s-10.23-5.08-12-10l-1-6-5-4-10,4-2-1-4-4v-5l-2-2h-5l-1,2h-8l-7-6-7-12v-3s41.23-27.53,41-39v-4l-4-3-2-3-2-3v-2l1-2,6-2s10.15-3.03,16-11l8-2,2-4-1-6-1-21,2-3,3-1,1-4S4731.34,4316.18,4726,4316Z" transform="translate(-760 -359)"/>
    
    <text id="龙港市-2" data-name="龙港市" class="cls-8" x="4108.917" y="3962.623">龙港市</text>
  </g>
</svg>
