<svg xmlns="http://www.w3.org/2000/svg" width="977" height="640" viewBox="0 0 977 640">
  <defs>
    <style>

      .cls-1, .cls-10, .cls-11, .cls-12, .cls-13, .cls-2, .cls-4, .cls-5, .cls-6, .cls-7, .cls-8, .cls-9 {
        stroke: #9d9d9d;
        stroke-width: 1px;
      }

      .cls-1, .cls-10, .cls-11, .cls-12, .cls-13, .cls-2, .cls-3, .cls-4, .cls-5, .cls-6, .cls-7, .cls-8, .cls-9 {
        fill-rule: evenodd;
    fill: #e5e5e5;
    fill-opacity: 0.35;
      }


      .cls-14 {
        font-size: 80px;
    fill: #fff;
    font-weight: 700;
    text-anchor: middle;
    font-family: "Microsoft YaHei UI";
      }
    </style>
  </defs>
  <g id="画板_1" data-name="画板 1">
    <g id="组_2" data-name="组 2">
      <path id="形状_21" data-name="形状 21" class="cls-1" d="M907.188,1212.62l0.148-.29,0.443-.3,0.591-.29h0.444v-0.3l0.148-.3,0.147-.29,0.148-.15,0.591-.15v0.3h0.444l0.148,0.29,0.147,0.15,0.3,0.3,0.295,0.15,0.444,0.44,0.148,0.15,0.3,0.14,0.3,0.3h1.33l0.148,0.15,0.148,0.29v0.15l0.147,0.3,0.148,0.14h0l0.148,0.15h0.148v0.15h0.148v0.15l0.147,0.15h0.148l0.148,0.14v0.15h0.148v0.15l0.148,0.15h0.147v0.14h0.3v0.15h0.3v-0.59h1.182l0.3-.29,0.443-.45,0.3-.15,0.443-.59,0.443-.44,0.444-.59,0.3-.15,0.148-.29,0.3-.3,0.591-.44,0.295-.3,0.148-.15,0.148-.44,0.148-.15-0.148-.29-0.148-.15-0.148-.45-0.147-.29-0.148-.15,0.148-.29h0.147l0.3-.15,0.148-.15h0.295l0.148-.15,0.148-.29v-0.59l-0.148-.15v-0.3l0.148-.15,0.148-.29,0.148-.3v-0.14l0.147-.15,0.148-.3,0.148-.29,0.3-.45,0.739-.74,0.3-.29,0.148-.3,0.443-.44v-0.74l0.148-.3,0.591-.44,0.3-.29,0.148-.15,0.295-.15,0.148-.3,0.148-.14,0.148-.3,0.295-.15-0.295-.29-0.444-.15-0.295-.44-0.444-.3-0.591-.29-0.591-.45-0.591-.44-0.444-.44-0.295-.3v-2.51h0.591l0.148-.15,0.148-.15,0.147-.15a0.176,0.176,0,0,1,0-.14c0.037-.06.148-0.3,0.148-0.3a0.248,0.248,0,0,0,0-.15,1.526,1.526,0,0,1,0-.29v-0.15l-0.3-.59v-0.59l0.147-.45-0.147-.29v-0.3l0.3-.44,0.148-.3,0.443-.44,0.887-1.33,0.591-.59,0.444-.74,0.148,0.15,0.443-.15,0.148-.3v-0.29l0.3-.15,0.3-.15,0.443-.29,0.592-.15,0.443-.44,0.739-.3h0.591l0.591-.15,0.591-.29,0.592-.15,0.739-.44,0.295-.15,0.3,0.15,0.295,0.14h3.252l0.443-.29,0.592-.59h0.443l0.148-.15,0.443-.15,0.148-.15-0.148-.29-0.443-.3-0.148-.15,0.739-.14,0.443-.3,0.444-.15,0.591-.44,0.887-.89,0.886-.88,0.444-.15h3.7l0.443,0.15,0.148,0.29,0.591,0.59,0.148,0.15,0.3,0.15,0.295-.15,0.443-.15h1.035l0.3,0.3,0.3,0.44,0.3,0.3,0.3-.15h0.444l0.148,0.15,0.295,0.15,0.3,0.14,0.295,0.15,0.444,0.15,0.295,0.29h0.3l-0.148-1.03,0.887-.74,0.591-.74,0.444-1.03,0.147-.45,0.444-.44,0.739-.3,0.887-.29,0.591-1.18,0.295-.74v-3.55h-0.148l0.3-.59,1.478-1.48,0.443-.29v-3.11l0.887-1.03,0.148-1.92,0.443-.74,0.887-1.18,1.035-1.34,0.739-.88,0.739-.89,0.591-2.07,0.591-1.18v-0.74l0.591,0.3,0.444,0.44,0.295,0.44,0.3,0.59,0.148,0.45,0.147,0.44,0.3,0.3h1.921l4.287-.15,3.547,0.15,3.1-1.04,0.3-1.92,0.3,0.74-0.3,6.06,0.148,4.88,1.33,1.03,1.182,0.15,1.035,1.48,0.443,0.88-0.3,1.33-0.739,1.33a7.04,7.04,0,0,0-.739,1.33c-0.263.68-.887,2.07-0.887,2.07s-2.055,4.77-.443,9.17l2.217,5.32,1.625,2.51,0.444,0.74,0.739,2.22,0.739,1.18-0.444,1.33v1.92l0.591,1.77,0.148,2.66,0.444,2.07,0.443,1.92,0.591,1.93a11.074,11.074,0,0,1,1.035,2.07,5.076,5.076,0,0,0,.443,1.33l-0.443.73H991.58l-4.286,2.37-3.1,2.07-2.512,2.66v1.03l-2.07,1.92v2.07l-5.911,2.96-1.035,1.03v0.89l1.921,1.77,0.148,7.39L973.7,1241H971.48l-0.739,1.03-0.148,1.92-1.774,1.04-1.921,2.66-2.217,1.63-3.1,2.66-6.059,6.2h-1.035l-1.035,1.04-5.025-.15v1.03l-1.034,1.04-0.887-.3-0.887.45-1.034.44-1.035-1.18a2.12,2.12,0,0,0,0-.89,2.736,2.736,0,0,0-.739-0.74l-1.33.74-0.887-.44-1.33-.89-1.774,1.33-0.886.74s-1.391-.65-1.478-0.74a9.6,9.6,0,0,1-.739-1.33,12.425,12.425,0,0,1,0-1.33s0.7-1.78-1.774-4.29l-0.739-3.99-1.478-1.18-0.739-2.36-0.739-1.78-1.034-1.77-1.774-1.77-2.66-2.52-1.626-.14-0.148-1.19,0.591-2.07,0.148-1.92v-1.77l-0.887-2.22-0.739-1.03-1.33-1.33-0.148-1.18-1.182-1.19-1.035-1.18-1.478-.44h-2.069l-1.773-.45-0.887-2.36-0.148-2.66v-1.63l-0.148-.88h-1.182l-0.591.88-1.035-1.03Z" transform="translate(-490 -827)"/>
      <path id="形状_20" data-name="形状 20" class="cls-2" d="M1296.49,1241.44l-3.4,3.4-2.52,4.44v2.36l0.59,3.4,1.63,4.73,0.89,2.66,1.18,4.29,1.33,2.95,2.36,6.5,1.33,4.44,1.19,2.22,1.03,1.62,7.98,8.28,1.33,0.44,3.55,2.66,2.36,1.63s4.63,3.71,5.18,5.32,4.28,6.35,4.28,6.35l5.47,8.72,3.25,4.44a9.817,9.817,0,0,0,5.77,4.14l19.36,7.39,10.64,3.39,5.32,1.33,2.22,0.89h1.48l1.92-.15,1.33,0.74,2.21-.44,0.89-.44,1.33-.45,3.55-2.36,0.89-1.63-1.93-5.61-1.18-3.55-1.18-4.14-1.04-3.4-1.03-3.99-0.74-2.96-0.74-5.02-0.29-2.07-0.45-3.25-1.18-5.77-1.63-8.42-1.18-3.1-1.18-3.25-1.48-3.55-2.51-3.7-1.63-1.62-2.07-1.48-3.84-2.51-4.43-2.22-2.51-1.18-6.36-2.37-2.66-1.03-2.22-1.18-2.07-1.19-6.35-1.62-5.91-1.92-2.81-.3-3.7-.89-5.76-2.21-4.29-1.92-2.95-1.19-2.22-.44-1.48-.59-2.81-.89-5.76-2.22-3.4-1.33Z" transform="translate(-490 -827)"/>
      <path id="形状_16" data-name="形状 16" class="cls-3" d="M1151.35,1264.79l-1.78.3-1.33.15-0.88-.45-0.59-.44-0.45-.29h-1.77s-0.27-.24-0.3,0a0.945,0.945,0,0,0-.14.73c0.03,0.75-.04.55,0,1.19s-0.04.32,0,.59a0.7,0.7,0,0,1,0,.29,1.634,1.634,0,0,1-.74.59,0.665,0.665,0,0,0-.3.3s-0.11-.28-0.29,0a1.091,1.091,0,0,1-.74.3v1.03c-0.01.33,0,.89,0,0.89a2.072,2.072,0,0,0-.89.29,2.935,2.935,0,0,0-.44.59l1.18,0.15,0.3,0.15-0.3.3-0.59.73a4.122,4.122,0,0,1,0,.74c-0.04.32,0.04,0.1,0,.45s0.04,0.11,0,.44a0.732,0.732,0,0,1,0,.44,2.611,2.611,0,0,0-.15.74c-0.02.36,0.02,0.31,0,.59a0.776,0.776,0,0,0,0,.3l-0.89.29a2.856,2.856,0,0,1,0,.6,1.01,1.01,0,0,1,0,.29c-0.03.48,0.04,0.4,0,.59s0.04,0.01,0,.59,0.04,0.71,0,1.04a3.843,3.843,0,0,0,0,.59,3.544,3.544,0,0,0,0,.59,2.882,2.882,0,0,1,0,.3,2.892,2.892,0,0,0,0,.59,1.52,1.52,0,0,1,.15.44c0.03,0.39-.16.06,0,0.44s0.05,0.25.15,0.45,0.03,0.05.15,0.29,0.34,0.17.29,0.45a1.934,1.934,0,0,0,.15.74,1.767,1.767,0,0,0,0,.59,0.8,0.8,0,0,1,0,.44l-1.92.89v1.33s-0.05-.08,0,0.29a0.83,0.83,0,0,1,0,.45,0.44,0.44,0,0,0,0,.29c0.05,0.19-.05.22,0,0.45s-0.05.23,0,.44a0.877,0.877,0,0,0,.59.29l2.07-.29h3.55l0.29-.44a1.442,1.442,0,0,1,.74.14,0.538,0.538,0,1,0,.3.15,1.533,1.533,0,0,0,.44.3,3.02,3.02,0,0,0,.44,0,0.623,0.623,0,0,0,.59.14c0.55,0.01,1.04,0,1.04,0l0.44-.14h0.74a0.475,0.475,0,0,0,.59,0c0.34-.24.3-0.3,0.3-0.3s-0.31-.22.29-0.15a2.17,2.17,0,0,1,.6.15,5.467,5.467,0,0,0,.59,0s-0.18-.1.29,0a0.636,0.636,0,0,1,.45.15s0.38,0.14.44-.15,0-.29,0-0.29l0.15-.3s-0.06-.26.14,0a1.086,1.086,0,0,0,.74.44,2.169,2.169,0,0,0,.59.15,4.645,4.645,0,0,0,.6.15h1.33l0.29-.44,0.44-.74a1.655,1.655,0,0,1,.3.29,4.031,4.031,0,0,1,.3.3c0,0.07-.25.12,0,0.15a0.747,0.747,0,0,0,.59.14c0.21-.14.32,0.04,0.29-0.14a0.944,0.944,0,0,1,0-.6c0.11-.13,0-0.16.15-0.14s0.17-.26.44,0,0.11,0.11.3,0.29a2.159,2.159,0,0,1,.44.15c0.37,0.27.15,0.35,0.3,0.3s0.12-.09.29-0.15a4.031,4.031,0,0,0,.3-0.3,0.568,0.568,0,0,1,.3-0.15l0.59,0.6a0.3,0.3,0,0,0,.29.29,1.771,1.771,0,0,1,.59.15,0.369,0.369,0,0,0,.3,0c0.22-.06.74-0.15,0.74-0.15s0.31-.01.44,0,0.74,0,.74,0-0.52.03,0.3,0,0.9,0.03,1.03,0a3.078,3.078,0,0,1,.89,0c1,0.01,1.03,0,1.03,0h4.29l2.81-.15,2.66,0.3,4.28-.15,3.99-.15,1.33-.14,3.25,0.29,3.11-.29,2.07-.15,1.77,0.15a10.627,10.627,0,0,0,1.63.59c0.45,0.06,2.21,0,2.21,0l0.89,0.14,1.04-1.33,1.33-.44v-0.74l-0.74-1.77-0.89-2.22-0.74-2.22-0.59-2.51-0.74-2.22-0.29-1.18-0.15-3.1-0.45-1.92s-0.89-1.78-2.21-1.78l-2.96-.88-1.18-.15h-1.18l-0.15.44s-0.3.05-.74,0.15-0.74.15-.74,0.15,0.08,0.1-.3.15a2.788,2.788,0,0,1-.29,0c-0.4.02-.43,0.14-0.59,0s0.21-.03-0.15-0.15a0.835,0.835,0,0,0-.44-0.15c-0.16.02-.09-0.02-0.3,0s-0.08-.02-0.29,0-0.36-.02-0.6,0a0.87,0.87,0,0,1-.29,0,2.025,2.025,0,0,1-.74,0,10.088,10.088,0,0,0-1.03-.15,0.517,0.517,0,0,1-.3,0c-0.11-.07.38-0.14-0.3-0.29a5.5,5.5,0,0,1-.73-0.15c-0.21-.09.17-0.13-0.3-0.15s-0.63.02-.74,0-0.89-.15-0.89-0.15a0.341,0.341,0,0,1-.29.15,15.145,15.145,0,0,1-1.92-.15,2.914,2.914,0,0,1-.59-0.14,2.133,2.133,0,0,0-.89-0.3,1.3,1.3,0,0,0-.44,0,1.289,1.289,0,0,1-.74.15c-0.51.02-1.92-.15-1.92-0.15s-0.42-.01-0.6,0-1.03,0-1.03,0a0.559,0.559,0,0,1-.3,0,0.514,0.514,0,0,1-.59-0.15,0.96,0.96,0,0,0-.29-0.29s0.08-.05-0.15-0.15,0.07-.14-0.3-0.15a1.908,1.908,0,0,1-.44,0,0.389,0.389,0,0,0-.3,0,1.242,1.242,0,0,1-.29.15,0.8,0.8,0,0,1-.3.15,2.685,2.685,0,0,0-.29,0,0.537,0.537,0,0,0-.3,0h-0.15a1.173,1.173,0,0,0-.29-0.3c-0.15-.09.23-0.21-0.15-0.15s0.14,0.13-.74,0-0.88-.14-0.88-0.14,0.17,0-.15.14-0.03.13-.3,0.15a2.549,2.549,0,0,1-.44,0l-2.81-.29a8.857,8.857,0,0,0-1.18-.3,0.884,0.884,0,0,1-.45-0.15,2.878,2.878,0,0,1-.44-0.15s0.06,0.09-.44,0a1.084,1.084,0,0,0-.45-0.14,5.407,5.407,0,0,0-.88-0.15,6.554,6.554,0,0,0-1.33-.15,0.724,0.724,0,0,1-.45.15c-0.3.02-.01-0.02-0.59,0a7.456,7.456,0,0,1-.88,0c-0.15-.01.25,0.01-0.15,0a2,2,0,0,1-.59,0c-0.11-.06-0.16.06-0.3,0a0.925,0.925,0,0,0-.29,0,0.593,0.593,0,0,0-.3,0c-0.21.08-.19-0.07-0.44,0s0.04,0.01-.3,0a0.844,0.844,0,0,1-.74-0.15,8.411,8.411,0,0,0-1.33-.15l-0.74-.14-0.74.14a0.65,0.65,0,0,0-.44,0,4.3,4.3,0,0,0-.29.45h-0.45Z" transform="translate(-490 -827)"/>
      <path id="形状_2" data-name="形状 2" class="cls-4" d="M589.729,1059.09l-2.01,3.01,1,3.01,1,1.01h2.009l2.009-2.01h1l-2.009,3.01,1,2.01,2.01,2.01,2.009,3.02,1,1v2.01l-1,3.01h-2.009v2.01l5.023,4.02v1.01l-2.009,2.01,1,3.01,1-2.01H605.8l-2.01,3.02,2.01,1,1,1,1-1,1.121-2.82,1.921-2.07a3.542,3.542,0,0,0,1.035-1.04,1.446,1.446,0,0,0-.058-1.1v-3.02l1-1,0.975-1.67,1.182-1.04,0.857-1.31,4.021,0.13,0-3.14v-2.01l2.071-1.95,1.948-2.07,1-1.01a1.176,1.176,0,0,0,1.334-.02c0.319-.29.351-1.51,0.676-1.81,0.6-.54,1.1-1,1.1-1l-0.094-3.19,2.163-.5a1.975,1.975,0,0,0,1.034-.59,4.779,4.779,0,0,0,.739-1.48l1.088-1.45h6.028l3.821,3.96,2.207-1.95,4,0.18a5.141,5.141,0,0,0,3.842,0c2.6-1.18,11.874-3.3,13.255-7.22l1.082,1.16,2.937-.15,2.531-3.4,4.434-3.99,3.1-2.07,1.034-.44v-1.04l-0.052-1.12V1041h3.014l6.2-7.95,1.835-1.09,3.015,2.01,2.009,1a11.968,11.968,0,0,0,2.156.15c0.139-.02-0.111-0.91,0-1.04a0.852,0.852,0,0,1,.858-0.11l1.359,0.56,0.887,1.33,1.626,2.21,2.365,1.04,1.921,0.15,2.808,1.92a3.014,3.014,0,0,1,1.035.88,1.293,1.293,0,0,1,.055.95v1.01h2.009a2.35,2.35,0,0,0,1.187-.03,1.989,1.989,0,0,0,.823-0.98v-1a1,1,0,0,1,.064-0.83,1.434,1.434,0,0,1,.94-0.18,11.4,11.4,0,0,1,2.016.03,5.745,5.745,0,0,1,.443,1.18l0.555,0.8,1,1.01s-0.042.85-.082,1.15a26.926,26.926,0,0,0,3.1-.15,1.679,1.679,0,0,0,1.191,0,2.631,2.631,0,0,0,.886-1.03,17.376,17.376,0,0,1,2.069.29c0.692,0.18.877,1.75,0.877,1.75a4.426,4.426,0,0,0-.138,1.06c0.008,0.24.767-.12,1.183,0a1.819,1.819,0,0,1,.887.89,1.351,1.351,0,0,1,0,1.18l1.082-.12h4.019l2.01,1v1.01h11.051l2.234,0.03,6.808-7.06,3.242,1.15,3.791-.15h4.018l3.128,1.18,1.9-2.18,1.5-.63,3.52-1.38a4.546,4.546,0,0,0,2.1.05,5.411,5.411,0,0,0,1.923-1.06,27.026,27.026,0,0,0,2.659-2.48c1.428-1.51,3.287-3.52,5.321-5.32,0.422-.38,2.06,0,4.076-0.23a10.109,10.109,0,0,0,3.166.08,1.216,1.216,0,0,0,.853-1.09,5.552,5.552,0,0,1,.92-1.72,1.139,1.139,0,0,1,1.089-.29h2.009a1.163,1.163,0,0,1,.893.14c0.145,0.19-.221.78,0,0.89a1.72,1.72,0,0,0,1.117-.02h3.014a1.648,1.648,0,0,0,1.042.02,8.285,8.285,0,0,0,1.034-.89,1.392,1.392,0,0,1,.938-0.14l6.157-.01,1.88-2,1.815-1.39,2.217-1.04,0.991-.58v-3.02l-2.009-2.01a6.075,6.075,0,0,0,.131-1.93,3.524,3.524,0,0,0,1.034,0,1.561,1.561,0,0,0-.16-1.08,3.939,3.939,0,0,1,.9-0.69,3.255,3.255,0,0,1,1.11-.31,0.869,0.869,0,0,1,.959.31,8,8,0,0,1,1.051,1.7l1,2,1.345,1.47,1.034,1.18,0.592,0.45a1.646,1.646,0,0,1,1.034.15,14.522,14.522,0,0,1,1.035,1.92,1.491,1.491,0,0,0,1.034-.15,1.273,1.273,0,0,0-.046-1l1.524-1.37a0.868,0.868,0,0,1,.444-0.44,3.816,3.816,0,0,1,1.046-.2,4.638,4.638,0,0,1,2.057.2,1.4,1.4,0,0,1,.444,1.04l1.33,1.92,1.773-.89a2.689,2.689,0,0,0,2.07-.59,23.635,23.635,0,0,0,3.378-3.69l1-1h2.01l3.214-.04,0.739-1.48,1.07-.49,2.921-.54,5.116-1.47,9.043,1.01h3.014l3.014,1a5.606,5.606,0,0,0,1.835,1.08,4.378,4.378,0,0,0,2.183-.07,3.068,3.068,0,0,1,1.955.22,7.812,7.812,0,0,1,2.064,1.78l3.109,1.77,3.547,1.62,3.391,2.64h5.023l2.671,0.02,1.348-.02v-12.05l3.014-6.03,2.009-5.03,1-4.014,2.009-2.009v-9.042s-4.312-8.193-9.042-8.038l-12.056-1-6.028-1H876.061l-8.038-1v3.014h-8.037l-7.033,1-9.042,4.019-7.032,3.014-5.024,4.019-6.028,4.018-14.065-1L798.7,990.769l-14.065-8.038s-4.045-6.427-11.052-5.023c0,0-14.244,8.682-38.178,10.047l-19.088-1-6.028-7.033-6.028-1-3.014-6.028-5.024-6.028L691.2,956.61l-7.033-12.056-3.014-4.019-4.019-3.014-3.014-1-11.051-1-5.023-2.01L649,939.53l-13.06-1-17.08-3.014-7.032,1-8.038,3.014-4.019,1s-6.1-1.007-18.084,7.033c0,0-11.075,2.644-13.06,8.037l-4.019,5.024,6.028,4.018,3.014,3.014,2.009,4.019,11.052-1,4.018,1,2.01,2.009,1,3.014v4.019l3.014,2.009,6.028,1,2.01,2.009,4.019,2.01a11.2,11.2,0,0,1,1,2.009,13.376,13.376,0,0,1,0,2.01l-1,3.014-4.019,9.042-1,2.01,4.019,3.01,3.014,2.01,4.019,1.01,3.014,2.01-1,3.01-1,2.01,2.01,3.01-2.01,3.02-5.023,6.03-1,4.01L604.8,1040l-3.014,4.02-6.028,8.03-3.014,3.02Z" transform="translate(-490 -827)"/>
      <path id="形状_5" data-name="形状 5" class="cls-4" d="M732.392,972.685s-0.192,6.182,0,6.028-0.4.548,0,1-1.836,1.946,1,2.01,7.033,0,7.033,0a19.93,19.93,0,0,1,2.009,0c0.615,0.063,4.019,0,4.019,0a3.185,3.185,0,0,1,2.009,0c0.559,0.414,3.014,0,3.014,0h0a7.178,7.178,0,0,1,2.01-2.01c0.383-.105.572,0.6,1,0s1.619-.358,2.01-1,1.66-2.108,2.009-2.01a1.01,1.01,0,0,0,1,0c0.187-.253,1.653-2.079,2.009-2.009a18.725,18.725,0,0,0,3.014-1s0.382,0.682,1,0a4.737,4.737,0,0,1,2.009-1l1-1,2.009-1s-0.2.619,1,0,2.018-1.32,3.014-1a3.758,3.758,0,0,0,2.009,0v-2.01l-2.009-2.009s-1.01-2.03-2.01-2.009a16.049,16.049,0,0,1-4.018-1c-1.127-.38.41-1-2.01-1s-5.1.43-5.023,0,1.078,0.008-1,0-1.908.008-3.014,0-4.018,0-4.018,0,0.066,0.43-1,0a15.109,15.109,0,0,1-2.009-1,1.657,1.657,0,0,1-2.01,0,8.432,8.432,0,0,0-3.014-1,1.448,1.448,0,0,1-1,0c-0.693-.177.439-0.1-1,0s-1.38-.245-2.009,0a11.183,11.183,0,0,0-2.01,1c-0.562.491-.157,0.591-1,1s-1.837-.371-2.01,1-1.064,1.448-1,2.009-1.084,1.631-1,2.01,0.833-.688,0,1a15.393,15.393,0,0,0-1,2.01c-0.25.737,0.391,0.5,0,1A13.065,13.065,0,0,0,732.392,972.685Z" transform="translate(-490 -827)"/>
      <path id="形状_6" data-name="形状 6" class="cls-5" d="M607.813,1095.25v-2l1-2.01h0l1-1.01v-1h1l1-1.01v-5.02h1v-1.01l1-1,1-1.01h0l1-1h4.019v-5.02l1-1.01,2.009-2.01,2.009-2.01h1l1-2.01,1-1v-3.01l3.014-1.01,1-2.01,1-1h6.028l2.009,2.01,1,1,1,1.01v-1.01h1v-1h9.042l1-1.01s9.69-1.03,12.056-6.03h1.005v1.01H670.1l2.009-3.02s6.115-6.12,9.042-7.03V1041h3.014l7.033-9.04h2.009l1,1.01,1,1,2.009,1h2.009v-1h2.01l3.014,4.02,2.009,1h2.009l1,1.01,2.009,1,1,1.01v2.01h3.014l1-1.01V1041h3.014a12.125,12.125,0,0,0,1,2.01c0.25,0.19,1,1.01,1,1.01v1h4.019l1-1h2.01l1,1v2.01h1l1,1.01v1h6.028l1,1v1.01h13.06l7.033-7.03h2.009l1,1h9.042l2.009,1.01,1-1.01,1.005-1,2.009-1.01,2.009-1h3.015l2.009-1.01,8.037-8.03H798.7l1-1.01,1-2.01h4.019v1.01h5.023l1-1.01h7.033l3.014-3.01,2.009-1.01,2.009-1v-3.02l-2.009-2.01v-2h1v-1.01l1-1h2.01l1,2.01,1,2,1,1.01,2.009,2.01h1l1,2.01h1v-1.01l1-1,1-1.01h3.014l1,2.01,1,1.01,2.009-1.01h1.005l5.023-5.02h5.024l1-2.01,5.024-1,3.014-1.01h4.018l6.029,1.01h5.023l3.014,2.01h4.019l2.009,2,2.009,1.01,2.01,1,4.018,2.01,2.01,2.01h9.042l1-1h2.01l2.009,2.01,2.01,5.02v3.01l1,5.03,1,4.02,2.009,4.02-1,4.01,1,1.01-2.009,2.01v1h3.014l1.005-1,1-1.01a2.168,2.168,0,0,0,1,0,10.564,10.564,0,0,1,2.009,0s0.445,0.02,1,0a17.729,17.729,0,0,1,3.014,1.01h4.019l4.018,1h4.019l3.014-2.01,2.009-1,2.01-2.01h5.023v4.02l-1.005,2.01,1.005,1v2.01l-2.009,1.01v3.01l2.009,2.01,1,2.01v2.01l-2.01,1-1,1.01v2.01h0c0.66,0.94,4.018,5.02,4.018,5.02l4.019,3.01,2.01,4.02-6.029,1.01-1,1-1,2.01v1.01s-0.409,1.25-1.005,1-0.811.7-1,1.01a6.858,6.858,0,0,0,0,2s-1.094.74-1,0a4.011,4.011,0,0,0-1-2s-1.055-.25-1,0-1,0-1,0h-2.009v3.01a4.489,4.489,0,0,0,0,2.01,4.5,4.5,0,0,1,0,2.01l1,1v2.01l-2.009-2.01-1-1c-0.421.06-1.806-.62-2.009,0a2.773,2.773,0,0,1-1,1h0s0.283,1.19,0,1.01,0.283,0.99,0,1,0.163-.74,0,0,1.148,0.25,1,1.01-0.4.1,0,1-1,2.01-1,2.01l-1-1-1-1.01-1,1.01h0s0.039,1.47,0,2.01a2.748,2.748,0,0,1,0,1c-0.159.67,0.882-.47,0,1.01s-0.525,1.76-1,2a3.86,3.86,0,0,0-1,1.01h0c-0.2,1.17.559,1.16,0,2.01s-1.27-.05-1,1-1,3.02-1,3.02l-2.01-2.01h0a8.756,8.756,0,0,1,0-3.02h1s1.06,0.5,1,0,0-2.01,0-2.01a0.849,0.849,0,0,0-1,0c-0.556.37-.309,0.36-1,0a2.4,2.4,0,0,1-1-1H927.3s-1.377-.41-1,0a3.2,3.2,0,0,1,0,2.01c-0.05-.03.109-0.45,0,0s1,1,1,1l-1,1.01-1-1.01c-0.482.24-1.1-.89-1,0a2.422,2.422,0,0,1,0,1.01,2.591,2.591,0,0,1,0,1c-0.148.03,0.269-.68,0,0a1.763,1.763,0,0,0,0,1.01c-0.087.28-.394,1.18,0,1a1.749,1.749,0,0,1,1,0,8.9,8.9,0,0,0,0,2.01,0.958,0.958,0,0,0-1,0,0.956,0.956,0,0,1-1,0s0.769,1.01,0,1.01h-2.01v-1.01h-3.014c-0.241,0,.624.08,0,0a15.921,15.921,0,0,0-2.009,0,8.53,8.53,0,0,0-1-1c0.1,0.2-1,0-1,0l-1-1.01H910.22a1.528,1.528,0,0,1-1,0c-0.615-.18-2.2.12-2.009,0s-1-.2-1-1,0-2.01,0-2.01-0.674-.01-1,0h-1s-1.178.56-1,1a1.786,1.786,0,0,1,0,1.01h-2.009l-1,1-1-1-1,1-1,1.01-2.009,1v-2.01l-2.01,1.01v1a1.517,1.517,0,0,1,1,1.01c0.122,0.72-.122.56,0,1s0.36,0.73,0,1.01a1.215,1.215,0,0,1-1,0h-1l-1-1.01-1-1a8.322,8.322,0,0,0-1,2.01,2.282,2.282,0,0,1,0,1h2.009a1.257,1.257,0,0,0,0,1.01c0.245,0.49-1,1-1,1l-1-1a2.267,2.267,0,0,0-1,0,2.437,2.437,0,0,1-1,0h0a3.725,3.725,0,0,0-1,1,14.42,14.42,0,0,0,0,2.01,0.8,0.8,0,0,1,0,1c-0.393.58,0.611,0.35-1,1.01s-1.017.93-2.009,1a4.079,4.079,0,0,0-2.01,1.01l-2.009,2.01-2.009,1s-2.19.28-2.01,0-1-2.01-1-2.01l1-1,1-1.01-1-1-1,1h-1a1.243,1.243,0,0,1-1,1.01,2.3,2.3,0,0,1-1,0l-1,1h0v-1a3.847,3.847,0,0,0-1-1.01c-0.3-.05-0.87-0.67-1,0s-1.092.74-1,1.01,0.394,1.13,0,1-1.254-.71-1,0a1.066,1.066,0,0,1,0,1.01h0l1,1,1,1.01h1l1,1s-0.446.98,0,1.01a2.222,2.222,0,0,1,1,1l2.009,2.01,1,1v2.01l-1,1.01-2.009-1.01h-1l-1-1h-2.009s0.252,0.18-1,0a5.881,5.881,0,0,0-2.009,0s-0.835-.42-1,0a3.769,3.769,0,0,1-1,1c-0.128.14,0.671-.68,0,0s-1,1.01-1,1.01h-3.014a3.426,3.426,0,0,1-1,0c-0.586-.08-1.183-0.34-1,0a5.314,5.314,0,0,1,0,1h0v1.01a3.382,3.382,0,0,0,1,0,6.737,6.737,0,0,0,1,0,1.494,1.494,0,0,1,1,0h1l1.715-.86,0.294-.15h1l1-1h4.018s2.347,1.69,2.01,2.01,0.758,2.13,0,2.01-0.046-.3-1,0-2.009-1.01-2.009-1.01-0.832.03-1,0h0l-1,1.01-1,2.01s-0.353,1.31-1,1a9.573,9.573,0,0,0-3.014,0v2.01l1,1.01h0c0.153-.08,1.051-0.84,0,0s-1,1-1,1h-2.009l1,1a3.138,3.138,0,0,0,2.01,1.01,2.223,2.223,0,0,1,1,0h1s1.615,1.81,0,2.01-2.932-.47-2.959.04c-0.044.81,2.808,3.1,2.808,3.1l1.33,0.89,0.3,0.74a1.329,1.329,0,0,1,.189.51c-0.19.45,0.716,1.84,0.845,2a3.943,3.943,0,0,1,.3.89l0.591,1.03a4.936,4.936,0,0,0,.591,1.18c0.242,0.61.287,0.32,1.036,1.67,0.107,0.2-.646-0.62,0,0,1.661,1.62,0,4.02,0,4.02-1.978,5.77-2.292,2.94-6.909,7.77l-5.147,7.3-1,1.01s-1.769,3.16-2.01,3.01-2.009,1.01-2.009,1.01h-4.019a7.108,7.108,0,0,1-2.009,0c-0.092-.2-0.532,1.38-1.005,2.01a23.14,23.14,0,0,1-2.009,2.01s0.692,1.22,0,1-2.009,1.01-2.009,1.01-0.437,1.06-1,1a10.456,10.456,0,0,1-1.9,1.77l-2.069,1.18-1.33-.74a2.057,2.057,0,0,0-.739,1.33c-0.04.78-.3,0.91-0.991,1.48-0.642.04-.223,0.35-1,1.01-1.259.69-.665,1.35-0.665,1.35l-2.513,2.37-2.956,2.51a7.247,7.247,0,0,1-2.217,1.04,2.859,2.859,0,0,1-1.7-.24l-1-1h-1v1s-1.1,1.1,0,1.01,0.311-.27,1,0a1.984,1.984,0,0,1,1,1,0.811,0.811,0,0,1,0,1c-0.431.37-.676,1.04-1,1.01s-2.063.27-2.009,0-0.438-.29-1-1.01a5.034,5.034,0,0,0-1-1h0v-1s0.083-.27-1,0-0.2-.27-1,0-0.12-.39-1,0-1,0-1,0v1a0.844,0.844,0,0,0-1,0c-0.381.41-1,1-1,1l-1,1.01s-0.928,1.2-1,1-1.029-.88-1,0a7.673,7.673,0,0,1,0,1.01,1.833,1.833,0,0,1-1,1c-0.537.03-.871-0.38-1,0s-1.092,1.39-1,1.01h0s-0.29-1.83-1-2.01a1.4,1.4,0,0,0-1,0s-0.433-1.47-1-1.01-0.534,1.13-1,1.01,0.027-.37-1,0,0.528-.61-1,0-1.582,1.1-2.009,1a1.215,1.215,0,0,0-1,0c-1.048.15-1.766,0.7-2.009,0s0.725-.4,0-1-0.983-.63-1-1.01a1.433,1.433,0,0,1,0-1c0.22-.34-0.882.82,0,0s-0.318-.35,1-1.01-0.156-.63,1-1-0.116,1.58,1,0,0.649-1.66,1-2.01a14.678,14.678,0,0,0,1-3.01l1-4.02v-2.01a6.726,6.726,0,0,0,1-1.01c0.233-.36.271-1.73,1-2.01a8.167,8.167,0,0,0,2.009-2l2.009-2.01,1-2.01a6.727,6.727,0,0,1,1-1.01,1.131,1.131,0,0,0,0-1s0.394,0.13-1,0-1,0-1,0a4.892,4.892,0,0,1-2.009,0c-0.854-.26-3.014-1.01-3.014-1.01s0.287,0.64-1,0a15.644,15.644,0,0,0-3.014-1l-1-1.01-2.01-1-2.009-1.01-2.009,1.01h-1l-1-2.01h-2.009l-1-1.01-2.009-1-1-2.01s-0.735-.46-1,0,0.27,0.89,0,1-0.091-.9,0,0,1.015,1.62,1,2.01-0.411.71,0,1.01a1.648,1.648,0,0,1,1,1c0.19,0.68-.371.67,0,1.01s-1,1-1,1,0.651-.17-1,0-2.243.13-2.009,0,0.128-.31,0-1,0.67-.36,0-1.01-0.737-.75-1-1-0.778.49-1,0,0.948-.06,0,0a3.384,3.384,0,0,1-1.005,0l-2.009,1s-1.124-.45-1-1-0.8-.68-1-1.01a7.6,7.6,0,0,0-1-1,3.07,3.07,0,0,1,0,1c-0.1.4,1.184,1.14,0,1.01a3.6,3.6,0,0,1-2.01-1.01l-2.009-1h-1s-1.211-.92-1,0,0.756,0.19,0,1,0.614,1.14-1,1.01a13.322,13.322,0,0,0-2.009,0,4.438,4.438,0,0,0-1,0c-0.291-.01,1.315,1.27,0,0a23.976,23.976,0,0,1-2.009-2.01h0c-0.57-1.07-1-1.01-1-1.01l-5.023-4.01-2.01-2.01v-3.02l-2.009-1s0.641-1.34,0-1.01a3.913,3.913,0,0,1-2.009,0s-1.451-.23-1-1,0.578-1.74,0-2.01-2.009-1.01-2.009-1.01v-2l1-1.01-3.014-3.01-2.009-1.01-2.01-1h-3.014l2.01-2.01,1-1.01,1-1-1-1.01-2.009-1-1-2.01-1-1h-5.024l-1,2-1-1s0.136-1.09-1,0a6.339,6.339,0,0,0-1,1h0l-4.019,1.01-2.009,1a2.946,2.946,0,0,0-1,1.01c-0.27.56-1.2,0.54-1,1s-0.877.47-1,1.01a2.148,2.148,0,0,1-1,1c0.034-.04-0.719-0.56-1,0s0.828,1.09,0,1.01-0.639-.64-1,0-1.042.76-1,1,0.565,0.93,0,1.01a3.973,3.973,0,0,1-1,0s-0.018.42,0,1a1.873,1.873,0,0,1,0,1.01c-0.162.77,0.283,0.44,0,1a2.71,2.71,0,0,1-1,1.01,9.587,9.587,0,0,0-1,1,6.142,6.142,0,0,0-1,0c-0.4.05-.585,0.49-1,0s0.721-1.46,0-1a18.931,18.931,0,0,1-2.01,1s1,0.39,0,1-0.407.68-1,1.01a7.794,7.794,0,0,0-1,1c-0.617.48-.248,1.06-1,1.01a16.986,16.986,0,0,1-3.014-1.01h0a0.791,0.791,0,0,0-1,0s-0.274,2.05-1,2.01-2.264.48-2.01,1.01,0.108-.15,0,1,0.529,0.52,0,2.01-1.179,1.63-1,2.01,0.427,1.65,0,2.01-1.221.75-1,1.01,0.567,0.84,0,1-0.6-.7-1,0,0.083,0.41-1,1,0.041,2.14-1,1.01a3.091,3.091,0,0,1-1-2.01s0.343-1.08,0-1h0s-0.221-1.13-1-1.01a5.617,5.617,0,0,0-1,0c-0.742.18-.906-0.18-1,0a7.5,7.5,0,0,1-2.009,0,4,4,0,0,1-1-1,1.456,1.456,0,0,1,0-1.01h-1s1.2-1.31,0-1,1.177-.07-1,0a14.481,14.481,0,0,1-3.014,0c-0.432-.12-0.132.6-1,0s0.309-1.29-1-1.01a8.009,8.009,0,0,1-2.01,0c-0.027.17,1.111,0.26,0,0s0.186,0.32-1,0,0.144,0.32-1,0-1.183.32-2.009,0-0.4.08-1.005,0a3.852,3.852,0,0,0-1,0l-1-1-3.014-1.01a5.416,5.416,0,0,1-1,1.01,12.455,12.455,0,0,1-2.009,1s2.383,2.11,0,2.01a19.663,19.663,0,0,0-3.014,0h0c-1,.08-1.4,1.27-2.01,1.01a4.958,4.958,0,0,0-2.009,0s-2.909.64-3.014,1,1.611-.66,0,0-1.083,1.17-2.01,1.01-0.239.46-1,0-1.124-.11-1-1.01-0.42-.2,0-1,1.107-.43,1-1.01a1.708,1.708,0,0,1,0-1c0.078-.18-0.259,1.08,0,0s-0.38-.63,0-1.01a0.891,0.891,0,0,0,0-1h1a6.989,6.989,0,0,0,1-1.01c0.121-.3.185,0.9,0,0s0.787-.63,0-1a1.974,1.974,0,0,1-1-1.01c-0.18-.66-1.5-0.83-1-1s-0.139-.69,0-1.01,0.644,1.1,0,0-0.823-.61-1-1,0.844-1.08,0-1.01-0.683.35-1,0h0s-0.341-2.34,0-2a1.024,1.024,0,0,0,1,0h0a3.027,3.027,0,0,1,1,0,3.353,3.353,0,0,0,1,0h1l1-1.01,2.009-1a4.009,4.009,0,0,0-1-1.01,3.846,3.846,0,0,1-1-1h0c0.677-.29,2.009-1.01,2.009-1.01l-1-2.01h-4.018l1-1v-2.01l1-1.01s1.291-.92,1-1,0.045-.49,0-1.01,0.045,0.26,0-1,0.165-1.92,0-2.01a0.691,0.691,0,0,1,0-1c0.376-.42-0.738-1.12,0-1.01a2.165,2.165,0,0,0,1,0v-8.04l2.01-2.01,1-3.01v-9.04l3.014-3.02-2.01-2h-1a1.067,1.067,0,0,0-1,0c-0.65.25-.336,0.84-1,1a1.629,1.629,0,0,1-1,0h0c-0.808-.09-1.019.87-1,0s-0.015-.18,0-1-0.316-.46,0-1.01-0.557-.8,0-1,1.271,0.98,1,0,0.026-.06,0-1.01a5.3,5.3,0,0,1,0-1c0.035-.61-0.034-0.51,0-1.01a8.193,8.193,0,0,0,0-1h0a5.845,5.845,0,0,1-1-1.01c0.2,0.19-.015.66,0,0s0.346-.2,0-1,0.346-.79,0-1.01a1.007,1.007,0,0,1,0-1h-1l-1-1.01-1-2.01h-1l-1-1h0c0.7-1.4.524-1.9,1-2.01s0.686-.94,1-1-0.922.55,0,0,0.064-.68,1-1.01-0.316-.6,1-1A5.951,5.951,0,0,0,649,1105.3s0.229,0.43,1,0a7.716,7.716,0,0,0,2.01-1c0.332-.45,1.014-0.6,1-1.01s0.01-.58,0-1,0-1.01,0-1.01v-1h-2.009s-1-.8-1,0,0.91,0.6,0,1-0.135-.4-1,0-1,0-1,0h0c-2.273-.26-2.731,1.05-3.014,0s-0.4-.3-1-1a4.373,4.373,0,0,0-1-1.01c-0.08,0-.9.36-1,0s-0.826-1.4-1-1-1,0-1,0l-1,1s-1.771-.34,0,1.01,1.526,0.24,2.009,1,0.02,0.53,1,1.01,2.07,0.44,2.009,1-0.3.43,0,1.01,0,0.34,0,1,1.326,0.39,0,1.01-1.669,1.21-2.009,1a1,1,0,0,0-1,0c-0.239.15-1.168-.45-1,0s0.319,1.19,0,1.01-0.968,1.21-1,0,0-2.01,0-2.01l-1-1.01c-0.241-.06-0.267-0.84-1,0s-0.91.69-1,1.01,0.636,0.73,0,1-0.169.95-1,1.01a4.134,4.134,0,0,1-1,0,1.639,1.639,0,0,0-1,0c-0.513.17-.052-0.6-1,0s-0.514,1.17-1,1-0.314-.67-1,0-0.115,1.04-1.005,1.01-0.457-.28-1,0-0.317-.76-1,0a10.284,10.284,0,0,1-1,1c-0.723-.12-0.52-0.73-1-1s0.545-.72,0-1.01-1-2.01-1-2.01l-1-1s0.342-.94,0-1.01-0.643-.6-1,0,0.482,0.99,0,1.01,0.542-.32,0,0-0.263-.2-1,0a1.3,1.3,0,0,1-1,0v-2.01h-1c-0.178-.15.72-0.46,0,0s0.277,1.19-1,1-1,0-1,0a6.508,6.508,0,0,1-1-1,5.141,5.141,0,0,0,0-1.01l-1-2.01-1-1-2.009-2.01-2.01-1.01-1-2.01h-1Z" transform="translate(-490 -827)"/>
      <path id="形状_7" data-name="形状 7" class="cls-6" d="M837.883,1204.76l2.01-2,1-1.01,2.01-2.01v-1l1-2.01s3.113,0.2,3.014,0,4.019,0,4.019,0l2.009-1.01,1-3.01,3.275-2.7,3.7-5.47,3.077-2.88,2.009-1.01,1-2.01,1.151-2.08,0.739-2.37-3.1-5.17-1.8-4.44-3.014-2.01-1-2.01,3.454-.26-0.148-1.33-3.306-.42-2.009-2.01h1l1.208-.38,0.591-.74-0.887-.88,0.093-2.02h1l2.6-.2a3.2,3.2,0,0,1,.417-0.8v-1.01a2.54,2.54,0,0,0,1-1,2.516,2.516,0,0,1,1-1.01h1s1.212-.75,1,0a3.434,3.434,0,0,0,0,1.01c-0.134.04-1.773-.05,0,0a18.935,18.935,0,0,0,2.01,0v-2.01l-1-1.01-1-1h-2.009l-3.014,1-2.009,1.01s-1.319-.01-2.01,0-3.014,0-3.014,0v-2.01h4.019l2.009-1.01,1-1h6.028l2.01,1,1.27,0.6a0.794,0.794,0,0,0,.739.41,0.747,0.747,0,0,0,.443-0.56,1.227,1.227,0,0,0,.562-0.45,1.332,1.332,0,0,0,0-1,1.246,1.246,0,0,1,0-1.01l-2.01-2-2.009-2.01-1-1.01-2.009-2.01-1-1v-1.01l1-1,1-1.01h2.01v1.01h2.009l1-1.01h1l1-1h1a2.319,2.319,0,0,1,0,1c-0.126.5-.981,0.72-1,1.01h0a0.646,0.646,0,0,1,0,1c-0.575.44-1.434-.69-1,0a20.691,20.691,0,0,1,1,2.01h1a1.278,1.278,0,0,0,1,0c0.172-.27,1.5-0.57,2.041-1.3a10.5,10.5,0,0,1,6-3.72l0.8-.42,0.2-4.6h3.014l1,1,0.952-.53,0.053-1.48h-2.009v-3.01h2.009s1.065,0.49,1,1a4.79,4.79,0,0,0,0,1.01,3.036,3.036,0,0,0,1,0,3.043,3.043,0,0,1,1,0v-1.01l-0.407-1.54-0.6-.47v-1l1-1.01,1.071-.03-0.066,2.04,0.953-.56,1.056-.44,1-1.01,1-1h2.01l1.724-1.25,1.29-.76H906.2l0.544,2.53,6.489,0.48,1,1.01,1.373-.16,0.636,1.16h5.023v1.01h2.01v-1.01h2.009v-2.01h-1v-4.02h2.01v1.01h1l-0.6-1.16-0.4-.85v-2.01h3.014l0.492,0.49,2.66,0.3a25.736,25.736,0,0,0-.148,2.66c0.1-.22-2-0.44-2-0.44v2.01l1.409,2.27,0.6,0.75,1.025-3.56,1.035-.29-0.148-2.07,1.182-1.48,0.924-1.64v-5.03h2.01a1.075,1.075,0,0,0,0,1.01c0.291,0.49,1.5.34,1.5,0.34l0.509-.34v-2.01l-1.1-.75,0.1-2.27,1.235-1.43,1.779,0.43a3.214,3.214,0,0,0,1,1,1.367,1.367,0,0,1,1,1.01,1.991,1.991,0,0,0,1,1s0.025-.41,0-1,0-1.01,0-1.01-1.283-.66-1-1a1.2,1.2,0,0,0,0-1.01v-6.02a19.189,19.189,0,0,0,2.009,0,16.794,16.794,0,0,1,2.009,0v1s0.938-.57,1,0-0.619,1.34,0,1a0.9,0.9,0,0,1,1,0,3.924,3.924,0,0,0,0-1,6.631,6.631,0,0,1,0-1,9.72,9.72,0,0,1,0-1.01,2.545,2.545,0,0,1,1,0,1.436,1.436,0,0,0,.855-0.37l0.15-2.64,1-1.01,1-1,3.014-.52,3.015-.49-0.355-.55-0.65-.45-0.532-1.61-1.626-2.22-3.1-2.37-3.78-4.85v-2.01l1-1.01,1.005-1h1l-0.268-2.8-2.746-3.23v-3.01l2.009-1.01-1.005-2.01v-2.01l1.005-1,0-3.99,2.011-1.04h5.024s3.225,0.69,3.014,1.01,4.019,1,4.019,1l1,1.01H970.5l4.019,3.01,3.014,1.01,1,2.01,1,2.01,2.01,3.01v4.02l2.009,5.02,2.009,2.01v4.02l1,4.02v4.02l1,2.01,2.009,10.04,1,2.01v3.02l2.009,2.01-1,9.04-1,3.01-1,5.03-2.009,4.01v4.02l-2.01,3.02-1,5.02-1,5.02v4.02l-1,7.04-3.014,1H969.5l-1-2.01-1-1s0.528,0.29,0,1a12.848,12.848,0,0,0-1,3.01,13.512,13.512,0,0,0-1,1.01l-3.014,4.02v2.01l-1,1v3.02l-1,1a5.664,5.664,0,0,0-1,1.01c-0.345.49,0.026,0.29,0,1s0,3.01,0,3.01l-1,2.01s-1.655.34-2.009,1.01a11.667,11.667,0,0,1-1,2.01,8.443,8.443,0,0,0-1,1v1.01l-2.009-1.01h-1.005a1.245,1.245,0,0,0-1-1,5.836,5.836,0,0,1-1,0,0.592,0.592,0,0,1-1,0c-0.537-.65-0.517-1.31-1-1.01s0.069-.3-1,0a3.722,3.722,0,0,1-2.009,0h-1l-1,1.01s-0.339.38-1,1a5.894,5.894,0,0,1-2.01,1.01s1.361,0.63,0,1-0.907,1.17-2.009,1.01a17.537,17.537,0,0,0-3.014,0s-0.262-.53-1,0a7.4,7.4,0,0,1-3.014,1c-0.062-.16-1.3.95-2.009,1.01s-0.509,1.04-1,1,0.025-.28-1,1-2.141,2.73-2.01,3.02,0.028-.08,0,1,0.558,1.03,0,2.01-1.239.02-1,1.01a5.027,5.027,0,0,1,0,2.01l4.018,3.01-2.009,2.01a4.53,4.53,0,0,1-1,2.01c-0.77.8-.5,0.04-1,1s-0.812,1.63-1,2.01,0.564,0.25,0,1.01-1.233.29-1,1,0.992,1.24,0,2.01a3.033,3.033,0,0,0-1,1.01c-0.783.88-.432,0.06-1.005,1a9.613,9.613,0,0,1-2.009,2.01h-1s0.058,1.18-1,0a4.594,4.594,0,0,0-1-1c-0.536-.5-0.042-1.15-1-1.01s-0.463.23-1,0-0.3-.66-1-1a2.284,2.284,0,0,1-1-1.01c-0.478.16-.613-0.56-1,0s-0.026.76-1,1.01a1.162,1.162,0,0,0-1,1h-3.014l-1-1a1.061,1.061,0,0,0-1-1.01c-0.943-.02-2.009,0-2.009,0s0.632,1.55,0,2.01-1.007.65-1,1.01,0.476,0.8,0,1a1.381,1.381,0,0,0-1,1.01c-0.16.62,0.637,0.63,0,1a2.9,2.9,0,0,0-1,1.01h0l-1,1s-1.624,1.68-2.009,2.01-1.99.52-2.009,1,1.239,0.94,0,1.01-1.4-.44-2.01,0-0.551.67-1,1a7.618,7.618,0,0,0-1,1.01s-1.129-2.44-1-3.02a1.069,1.069,0,0,0,0-1c-0.194-.31.884,0.47,0,0s-1,0-1,0h-1s-0.961-.54-1,0,0.84,0.89,0,1,0.475-.64-1,0a18.412,18.412,0,0,1-2.01,1.01c-0.265-.04-1.107-0.44-1,0s-4.019,1-4.019,1a2.746,2.746,0,0,0-1,0c-0.23.13-1.142,0.72-1,1.01s0.445,0.77,0,1a1.317,1.317,0,0,0-1,1.01c-0.078.66,0.4,0.44,0,1s-0.712.55-1,1.01a1.72,1.72,0,0,1-1,1c-0.668.25-.494,1.34-1,1.01s-1.386.38-2.01,0-1.592-1.36-2.009-1.01-2.169.18-2.009,0-1.215-.88-1,0,0.745-.04,0,1.01-2,1.59-2.009,2.01,0.8,1.9,0,2a11.166,11.166,0,0,1-2.01,0l-1-1a0.791,0.791,0,0,1,0-1c0.407-.54.541-1.32,1-1.01a1.029,1.029,0,0,0,1,0c0-.21.807-0.88,0-1a2.824,2.824,0,0,0-1,0,1.769,1.769,0,0,0-1,0c-0.283.14-.56-0.36-1,0a5.943,5.943,0,0,1-1,1c-0.288.04-.925-0.99-1,0s0.557,2.02,0,2.01-0.816,1.17-1,1-0.919.33-1,0a1.949,1.949,0,0,0,0-1c-0.245-.7.192,0.38,0-1s-0.232-2,0-2.01,1.088,0.54,1,0-0.713-1.04,0-1.01,0.13,0.39,1,0,0.6,0.71,1,0,1.026-.56,1-1a6.54,6.54,0,0,1,0-1.01,5.829,5.829,0,0,0,0-1c-0.02-.19.18-1.08,0-1.01h0l-1-1h0a2.633,2.633,0,0,0,0-1.01,4.769,4.769,0,0,1-1,0h-1a8.39,8.39,0,0,1-1,0c-0.085-.03.51,0.72,0,1.01a1.854,1.854,0,0,0-1,1c-0.142.45-.807,0.56-1,1.01a3.555,3.555,0,0,1-1,1s0.414-1.03,0-1,0.308,0.82,0,0,0.1-.45,0-1.01a3.047,3.047,0,0,1,0-1h0s0.155-1.39-1-1.01a17.465,17.465,0,0,0-2.01,1.01c0.161-.19-1.056-0.29-1,0s0.956,1.03,0,1,0.431-.34-1,0a3.452,3.452,0,0,1-2.009,0c0.095,0.08-.043.72,0,0s-1.422-.01,0-1,1-1.01,1-1.01l1.005-1-1.005-1.01-1-2.01-2.01-1h-2.009a7.532,7.532,0,0,1-1-2.01,16.3,16.3,0,0,1,0-2.01l1-1v-2.01l-1-1.01s-1.824,1.3-1,0,0.871-.13,1-1-0.186-1.93,0-2.01a1.846,1.846,0,0,0,0-1.01v-2.01Z" transform="translate(-490 -827)"/>
      <path id="形状_9" data-name="形状 9" class="cls-7" d="M947.393,1261.03l1-1.01v-1h2.01s2.264,0.23,2.009,0,1,0,1,0h0a1.51,1.51,0,0,0,1-1.01h1l8.038-8.04,3.014-2,2.009-3.02,2.009-1v-2.01l1-1.01h2.009l1-1v-7.03a4.043,4.043,0,0,0-1-1.01,3.862,3.862,0,0,1-1-1v-1.01l1-1,2.01-1.01,2.009-1,2.009-1.01v-2.01l1-1,1-1.01v-1l1-1.01,1-1,1-1,3.014-2.01,2.009-1.01,2.009-1h1l10.047,7.03,2.01,1,3.01,2.01,3.02,3.02,4.02,3.01s8.96,4.24,9.04,4.02,5.02,1,5.02,1l6.03,1.01,3.01,1h6.03l7.03,2.01,3.02,1.01,6.03,2.01-5.03,1-3.01,1.46-3.02.55-3.01,3.02s-0.81,0-1.06-.02a2.726,2.726,0,0,1,.03,1.05c-0.5.49-.98,0.97-0.98,0.97v1.01l1.01,1a2.034,2.034,0,0,1,1,1.01c0.01,0.32-.17.24-1,1a6.8,6.8,0,0,0-1.01,1.01s-1.39,1.21-2.01,1a6.426,6.426,0,0,0-2.01,0,1.72,1.72,0,0,1,0,1.01c0.04-.03-2.03,1.01-2.01,1a5.873,5.873,0,0,0-1,1.01l-2.01,2.01s-0.37,1.98-.8,2.14a1.886,1.886,0,0,0-1.21,1.87l7.03,1.01,2.01,2.01a12.31,12.31,0,0,1,2.01,2.01,6.442,6.442,0,0,0,0,1,21.848,21.848,0,0,1,0,3.02c0,0.32-1,3.01-1,3.01a7.775,7.775,0,0,1-1.01,2.01,7.838,7.838,0,0,0-1,2.01l-5.03,7.03-3.01,6.03-3.01,4.02v2.01l-2.01-1.01-2.05-2.63,0.44-1.48,0.6-1.77-0.45-.89a7.823,7.823,0,0,1-2.36-1.18,0.637,0.637,0,0,0-.2-1.09,1.613,1.613,0,0,1-1.01-1l-1.9-1.31-0.88-1.03-1.24-.68s-3.59-2.37-7.04.08l-2.36.89-1.93.59-1.33-.88-1.03-.74-1.18-1.19-1.19-.44h-0.88a6.286,6.286,0,0,1-.45.74c-0.4.63-.19,0.57-0.59,1.18-0.28.45-.61,0.86-0.74,1.04s-2.336.62-2.212,0.74a5.605,5.605,0,0,0-2.171-1c-0.42.06-.471,0.86-0.933,1s-1.28-1.11-2.081,0c-0.445.62-.449,0.92-1,1.01s0.41-.63-1,0a15.491,15.491,0,0,0-2.857,1.79l-2.217-.44-2.217.3-1.33-.45,0.739-1.62-0.156-1.59-1-1.01a2.866,2.866,0,0,1-1,0,6.136,6.136,0,0,0-1,0c-0.361-.01-0.687-0.35-1,0s-0.43,1.24-1,1.01a1.138,1.138,0,0,0-1,0c-0.471.06-.4-0.43-1,0s-1.128,1.34-2.01,1-1,0-1,0a1.793,1.793,0,0,1-.883-0.89,1.15,1.15,0,0,1,0-1.18c0.166-.58.252-0.25-0.122-0.94a2.638,2.638,0,0,0-1-1.01l-1-1-2.01-1.01s0.381,1.07,0,1.01-1.027-.96-1,0,1.174,0.52.416,1.62-1.33.88-1.33,0.88a1.072,1.072,0,0,1-1.33,0c-2.136-2.68-2.07,1.63-2.07,1.63a2.9,2.9,0,0,1-.886-2.37c0.259-1.67-1.833-1.76-1.833-1.76a3.205,3.205,0,0,0-.384-2.37,1.122,1.122,0,0,1,.147-0.89,7.073,7.073,0,0,0,0-1.33l1.035-.89-0.8-.55-1-1s-1.063-.34-0.709-0.96-0.917-.46-0.444-1.33,0.346-.15.3-0.74,0.187-.81.857-0.99,0.532-1.12.768-1.23c0.718-.32.237-1.79,0.237-1.79l-5.262-3.97-3.78-3.06Z" transform="translate(-490 -827)"/>
      <path id="形状_10" data-name="形状 10" class="cls-8" d="M1029.78,1299.2v-2.01a3.108,3.108,0,0,1,1-1c0.54-.26.26,0.68,1.01-1l1.47-2.17,0.53-1.85,1.01-1.01v-2.01l1-1,1.01-1.01,2.01-3.01,1-1.01,1.01-2,1-1.01,1.01-3.01,1-1.01v-5.02l-1-1.01-2.01-1-1.01-2.01-0.94-.07-1.07.07h-2.01l-2.01-1.01h-1v-1l1-1,0.5-.17a3.846,3.846,0,0,1,.59-1.92,9.06,9.06,0,0,1,1.93-1.93l1.18-1.32,1.83-.69,0.09-1.08h2.66l1.27-.93,2.01-2.01-2.01-2.01v-1.01l1.01-1v-1h1l1.01-1.01,2-2.01,4.02-1,2.01-1.01h8.04l2.01-1,2.01-1.01h4.02l1-1h1.01l1-1.01H1077l2.08-.14-0.07,3.16a27.42,27.42,0,0,0,0,3.01c0.1,0.18-.11,4.2,0,4.02s0,3.01,0,3.01v13.06h-5.03l-1.85-.39-2.17-.61h-1a10.247,10.247,0,0,1-.23,1.49,2.179,2.179,0,0,0,.15,1.92c0.37,0.9-.11,2.74,0,2.81a1.684,1.684,0,0,1-.15.74,3.86,3.86,0,0,1-.15.74c-0.07.1-.44,0.59-0.44,0.59l-1.77,1.63-1.19,1.48-1.18,1.33-0.3,2.21,0.23,1.14,1.01,2-0.64-.33-0.89-.29-0.59.14-0.74.15a2.847,2.847,0,0,0-.74.59c-0.13.91-.65,0.7-1.03,1.18a21.54,21.54,0,0,0-2.37,1.04c0.41-.1-2.54,1.16-3.05,1.54a3.749,3.749,0,0,0-1,1.01l-1.27.85a1.165,1.165,0,0,1-.95,1.52c-0.41,1.75-.89,2.22-0.61,1.76,0.12,2.45-.66,2.19-0.66,2.19l-3.25-.74-1.48.15a4.124,4.124,0,0,0-1.47.73c-0.8.6-2.42,0.35-2.37,0.57a1.47,1.47,0,0,1-1,1.01c-0.7.33-.02,0.6-1.01,1s0.28,0.62-1,1-0.91-.47-2.01,0-2.23-.12-2.22.27,0.14-.56-1.04,0-1.45,1.13-1.92.74a0.6,0.6,0,0,0-.85,0Z" transform="translate(-490 -827)"/>
      <path id="形状_15" data-name="形状 15" class="cls-9" d="M1151.35,1264.94l1.77-.74,0.89-.14,3.1,0.59,2.52-.15s1.47,0.19,2.95.29a4.846,4.846,0,0,1,1.77.3l3.26,0.59h1.62s-0.26-.19,1.18,0,0.91,0.26,1.63.3,0.98-.39,2.07,0-0.14.36,1.03,0.44,1.23,0.15,2.07.15a4.8,4.8,0,0,1,1.48,0,5.742,5.742,0,0,1,2.07.15c2.17,0.41,2.22.44,2.22,0.44a2.863,2.863,0,0,1,1.03-.15,6.336,6.336,0,0,1,1.48.15c0.93,0.1,1.05.36,2.07,0.44a5.621,5.621,0,0,1,1.18.15s-1.07-.28.74,0,2.22,0.3,2.22.3l2.07-.45,0.14-.44s-0.72-.19.6-0.15a4.928,4.928,0,0,1,1.47.15s0.34,0.15.89,0.44,1.74,0.49,2.36.74a5.221,5.221,0,0,1,.89.44,0.741,0.741,0,0,0,.59.15,11.761,11.761,0,0,1,.89,2.22,5.294,5.294,0,0,0,.15,1.03v1.33c-0.01.23,0,1.33,0,1.33l1.33,3.85a3.872,3.872,0,0,0,.29,1.77c0.39,0.81.4,1.63,0.74,2.37s-1.35-3.62.89,2.21c1.14,2.97,1.24,3.34,1.05,2.98-0.17-.34-0.61-1.35-0.61-1.35l0.89,2.51,0.44,0.59,0.3,0.45,2.66,0.59,3.69,0.88,1.92,0.45,2.66,0.14a2.237,2.237,0,0,1,.89.3c0.68,0.32.24,0.06,0.74,0.3a13.246,13.246,0,0,1,1.63.44,3.2,3.2,0,0,1,.88.44c0.57,0.46.34,0.12,1.19,0.74s0.3-.37,1.47,1.04,0.22,0.58,1.19,1.47,0.75,0.55,1.03,1.04,0.74,1.18.74,1.18-0.42-.56.3,0.59a3.96,3.96,0,0,1,.73,1.33,3.258,3.258,0,0,0,.6,1.33,4.342,4.342,0,0,1,.44.74l0.44,0.59,10.5,1.63,1.47,0.74s-0.14.51,0.89,0.44a2.844,2.844,0,0,1,1.33,0c1.09,0.14.79,0.09,1.18,0.15s-0.57-.25.89,0.15a5.4,5.4,0,0,0,1.63.44,3.341,3.341,0,0,1,1.18,0,4.436,4.436,0,0,0,1.03.15,1.444,1.444,0,0,0,.74.29,1.433,1.433,0,0,1,1.04.15,1.46,1.46,0,0,0,.88.3c0.35-.91.52-0.81,0.59-1.19a2.741,2.741,0,0,1,.3-0.73s0.13-.14.44-0.45a1.189,1.189,0,0,1,.3-0.29c0.36-.29.74-0.6,0.74-0.6l0.88-.44,0.45-.15c0.76,0.14.29-.33,1.03,0a5.931,5.931,0,0,0,1.04.45c1.31,0.52.74,0.29,0.74,0.29a7.984,7.984,0,0,0,.88.3,1.63,1.63,0,0,0,.59,0c0.44-.69.63-0.79,0.72-0.69a1.122,1.122,0,0,1,.02.54l0.45-1.33,1.47-2.96a10.928,10.928,0,0,1,1.63-2.36s0.21-.39.3-0.59,0.29-.89.29-0.89l0.59-1.18,0.59-.74s0.26-.39.45-0.74a10.792,10.792,0,0,0,.44-1.18l0.3-.89,0.44-.44,1.63-1.18,0.73-.15h0.6a1.276,1.276,0,0,1,.44.74,3.691,3.691,0,0,0,.29,1.03c0.19,0.33-.13-0.94.45,0.74s0.4,1.77.59,2.07a1.288,1.288,0,0,1,.44,1.03,5.549,5.549,0,0,0,.45,1.63,7.7,7.7,0,0,1,.44,1.48,2.039,2.039,0,0,0,.15.89,13.2,13.2,0,0,1,.59,1.47c0.14,0.56.15,0.45,0.15,0.45s-0.47-.47.14,0.59,0.55,0.89,1.04,1.77a14.775,14.775,0,0,0,.88,1.33,1.743,1.743,0,0,0,.6.59s-0.13.13,0.59,0.59a3.974,3.974,0,0,1,.74.6c0.46,0.35.38,0.33,0.74,0.59s0.58,0.52.88,0.74a2.473,2.473,0,0,1,.74.44,2,2,0,0,0,1.04.59c0.47,0.15-.03-0.24.88,0.44a3.692,3.692,0,0,1,1.04.74c0.5,0.57.2,0.56,0.74,0.74a1.508,1.508,0,0,0,.59.15s-0.23,0,.59.29a3.933,3.933,0,0,0,1.18.3s0.07,0.25.44-.3a4.034,4.034,0,0,1,.45-0.59h0.29s0.28-1.82-.14-2.07-0.86-.25-0.89-0.73-0.15-1.33-.15-1.33l-0.44-1.33a2.4,2.4,0,0,0-.3-1.34c-0.39-.88-0.4-1.25-0.89-2.21s-0.45-1.14-.88-1.92a4.527,4.527,0,0,1-.74-1.33,7.924,7.924,0,0,1-.44-1.04c-0.23-.79-0.23-0.72-0.3-1.03s0.24,0-.3-0.89-0.36-.62-0.59-1.03,0.48,0.03-.29-0.89a5.476,5.476,0,0,1-.74-0.89c-0.24-.38-0.51-0.28-0.44-0.88s-0.07-.3,0-0.6a4.8,4.8,0,0,0,.29-1.03,3.516,3.516,0,0,0,0-1.48,9.96,9.96,0,0,0-1.62-1.03l-2.07-4.14a7.159,7.159,0,0,1-1.63-.89,4.1,4.1,0,0,1-.59-1.33c-0.1-.49.88,0.01-0.44-1.18s-0.64-.83-1.33-1.18a1.779,1.779,0,0,1-.89-0.45,1.625,1.625,0,0,1-.74-0.88,1.891,1.891,0,0,0-.44-0.74l-0.89-2.37-1.03-1.77-1.19-2.81s-1.63-3.84-2.51-4.14l-1.33-2.07-1.48-1.47-3.84-3.7-2.96-2.81-2.95-1.92-3.11-2.22-5.61-3.25-2.81-1.47-4.14-2.07-8.57-.74-23.5,2.51-12.71-1.18-6.5-.15-10.35-1.92-6.06-2.37h-3.1l-3.26-1.03-1.18.15-0.44,1.33-0.74,1.18-0.44.89-0.74,1.33-0.89,1.77-0.44,1.03-0.15,1.19v4.43l-0.15,1.77v0.74l-1.92.15h-2.22l0.45,0.44,0.59,0.6v0.73h-0.59l-0.3.15s-0.33-.23-0.44.45a10.213,10.213,0,0,1-1.33,2.36l-0.59.15h-0.59l-0.89.15c-0.05.14-.13,0.89-0.15,1.03s0.02-.21,0,0.3,0.02,0.27,0,.59a2.274,2.274,0,0,0,0,.44Z" transform="translate(-490 -827)"/>
      <path id="形状_11" data-name="形状 11" class="cls-10" d="M1079.01,1238.92v26.12l0.95,1.97,0.15,6.5,0.44,7.39-1.18,2.52,2.22,5.91,1.48,4.28,0.44,4.88,1.18,3.55,2.37,4.29,4-2.1s0.6,1.01,1.67-.56a1.491,1.491,0,0,1,1.35-.45s1.53,0.94.96-.89c-0.26-.83,1.92.3,1.92,0.3a3.352,3.352,0,0,0,1.18-.44c0.19-.23-0.34-0.54,0-0.89a4.952,4.952,0,0,0,.96-1.09l2.01-1.01a2.589,2.589,0,0,0,1.17-.12,2,2,0,0,0,.84-0.88,5.483,5.483,0,0,0,1.97,0c0.52-.27.04-1.01,0.04-1.01s1.09,0.41.99-.03c-0.25-1.13.59-.89,0.59-0.89l0.74-1.03a1.717,1.717,0,0,0,.74-0.89,2.761,2.761,0,0,0-.05-1.17l-1-1.01v-3.01l2.01-1.01v-1l1-1.01V1276.1h-1l-2.01-1.01,1-2.01,1.01-1v-2.01l-2.01-2.01-1.01-3.02v-3.01l-2.01-1-1-4.02-1.01-2.01v-2.01l-2.01-4.02-1-2.01-1.01-2.01v-2.01l-3.01,1.01s-1.49-.5-1-1.01a7.761,7.761,0,0,0,1-2.01h2.01l1-1-1-1.01v-1l-2.01-1.01-1-1s-1.64,1.35-2.01,1-0.73.31-2.01,0a9.179,9.179,0,0,0-3.02,0l-3.01,1.01-3.02-1.01Z" transform="translate(-490 -827)"/>
      <path id="形状_14" data-name="形状 14" class="cls-11" d="M1108.14,1295.19v1l1.01,1h7.03v-1h4.02l6.02,6.03h11.06l3.01,5.02h3.01v5.02l2.01,2.01v1.01l1.01,2.01v3.01h-1.01l-1,2.01,2.01-1h1s0.05,1.7,0,2.01,0.05,0.33,0,1,0,2.01,0,2.01,0.4,1.14,0,1a4.534,4.534,0,0,0-2.01,0c0.12,0.17-.63,1.37-1,1.01s-1.1.24-1.01,0h0l-4.01,1-4.02,1.01-2.01,1a15.747,15.747,0,0,1-2.01,1.01,0.561,0.561,0,0,0-1.01,0c-0.38.63-.19,0.96-1,1s-1.65-.4-2.01,0-0.76,1.13-1.01,1.01-0.39-.65-1,0-0.68,1.06-1,1-0.73-.48-1.01,0-0.06,1.11-1,1.01a1.617,1.617,0,0,0-1.01,0c-0.47.07-1-.61-1,0s0.54,0.98,0,1-1.29,1.09-1.01,1.01-0.28-.75,0,0-0.88-.06,0,1a4.433,4.433,0,0,1,1.01,2.01,14.012,14.012,0,0,0,1,1c0.24,0.38,1.23.87,1.01,1.01a0.623,0.623,0,0,0,0,1h0l-1.01,1.01v1h0a13.913,13.913,0,0,1-1,1.01h0c-0.55.18-1.05-.66-1.01,0a2.548,2.548,0,0,1,0,1c-0.07.49,0.26,0.63,0,1.01s0.61,0.2,0,1a3.594,3.594,0,0,1-1,1.01h0c-0.21.81,0.8,0.06,0,1s-0.79.41-1.01,1.01a1.334,1.334,0,0,0,0,1s-1.43-.37-1,0a0.823,0.823,0,0,1,0,1.01h0c0.43,0.67-.67.91,0,1a4.484,4.484,0,0,1,1,0c0.09,0.15-.32-0.39,0,0s-0.02.49,0,1,0.22,0.96,0,1.01,0.52-.65,0,0a5.487,5.487,0,0,1-1,1v1.01a1.534,1.534,0,0,0-1.01,0,1.484,1.484,0,0,1-1,0l-1.01-1.01-1-1s-1.09.49-1.01,0a3.3,3.3,0,0,0,0-1.01l-1,1.01s-1.01-.29-1,0,0.65-.11,0,0a2.4,2.4,0,0,1-1.01,0,2.5,2.5,0,0,1,0-1.01h0l-1-1h0a1.3,1.3,0,0,0,0-1h0v-1.01h0l-3.02-1h-2.01l-2.01,2.01a3.8,3.8,0,0,1-1,1c-0.39.15-.31-0.27-1.01,0s-0.65.33-1,0-1.24-.25-1.01-1a1.05,1.05,0,0,0,0-1.01,4.306,4.306,0,0,1-1-1c0.05-.18.67,0.83,0,0a2.088,2.088,0,0,0-1-1.01c-0.92-.6.27-0.75-1.01-1s-0.07.73-1,0,0.65-.2-1.01-1.01-2.01-1-2.01-1a4.658,4.658,0,0,0-1-1.01c-0.32-.28.97,0.47,0,0a1.439,1.439,0,0,1-1.01-1h0l1.01-1.01v-1s0.02-.62,0-1.01,0-1,0-1-0.52-.9,0-1.01,1.89,0.35,2.01,0-0.72-.07,0,0,0.1,0.81,1,1.01,1.01,0,1.01,0h2.01s-0.28-2.13,0-2.01h0s1.09-.58,0-1-0.32.48-1.01,0-0.73.12-1,0,0.57,0.12,0,0a2.166,2.166,0,0,0-1.01,0,3.079,3.079,0,0,0,0-1.01c-0.11-.13-0.25-1.22,0-1s-0.78.26,0,0a0.925,0.925,0,0,1,1.01,0v-1.01l1-1h1.01v-1.01h0s1.77-.94,2-1h0s0.66-1.05,0-1.01a14.331,14.331,0,0,1-2,0c-1.99-.01-2.01,0-2.01,0s-0.78.61-1.01,0a3.845,3.845,0,0,0-1-1,2.744,2.744,0,0,1,0-1.01s-0.64-.62-1.01,0,1.03,1.15,0,1.01-0.45.32-1,0-0.62-.85-1.01-1.01a3.97,3.97,0,0,1-1-1l-1.01-1.01h-1a5.567,5.567,0,0,1,0-1h0a13.366,13.366,0,0,1-1.01-1.01h0a0.6,0.6,0,0,1-1,0c-0.56-.61-1.1-0.8-1.01-1s0.03,0.8,0,0,0.57-.2,0-1a2.946,2.946,0,0,0-1-1.01h0v-3.01s0.75-.33,0-1.01-0.06-.61-1-1-1.01-.55-1.01-1.01a8.054,8.054,0,0,1,1.01-2.01,1.293,1.293,0,0,0,1,0,5.507,5.507,0,0,1,2.01,0h0a14.738,14.738,0,0,1,0-2.01v-4.01l2.01-2.01,1-1.01h1.01a4.128,4.128,0,0,1,1-1,4.211,4.211,0,0,0,1.01-1.01h1l1.01-1h1a0.718,0.718,0,0,0,1.01,0c0.55-.48.55-1.18,1-1.01a1.894,1.894,0,0,0,1.01,0c0.27-.01,1.07.19,1,0a4.689,4.689,0,0,1,0-1,2.407,2.407,0,0,0,1,0c0-.15,1.06.5,1.01,0s1,0,1,0v-1.01h0l1.01-1h0s0.97-.95,1-1.01-0.87.41,0,0a3.033,3.033,0,0,1,2.01,0l1.01-1h2.01l-1.01-1.01h2.01s-0.81-1.04,0-1a1.162,1.162,0,0,0,1.01-1h1" transform="translate(-490 -827)"/>
      <path id="形状_17" data-name="形状 17" class="cls-12" d="M1139.23,1289.48v0.88l0.89,1.63,0.14,4.28,1.19,1.19,0.59,2.81,0.29,1.03v1.18l0.45,0.89a0.954,0.954,0,0,1,.44.59,2.718,2.718,0,0,1,.15.74s-0.15.91-.15,1.03a9.515,9.515,0,0,1-.74,1.19v0.29h0.74v5.32l1.92,1.78,0.15,0.88,0.74,1.78,0.29,1.62-0.14,1.63h-0.89l-0.89,1.92,1.18-.44,1.63-.3-0.15.44,0.15,2.81,0.15,2.22,3.4-2.22,1.03-.88,1.33-.3,1.78-.74,0.88-.44,1.18-.3,1.19-.15,0.59-.14c0.31,0.31.51,0.27,0.89,0.59a0.984,0.984,0,0,1,.44.44,1.752,1.752,0,0,1,.59,1.04,17.42,17.42,0,0,0,.44,2.36s-0.32-.46,0,0.89a16.95,16.95,0,0,0,.45,1.77,6.655,6.655,0,0,0,.29.89,2.087,2.087,0,0,0,.59,1.03,5.506,5.506,0,0,0,.59.59l1.33,0.45a0.832,0.832,0,0,1,.6.59,3.756,3.756,0,0,1,.29.74c0.15,0.68.15,0.74,0.15,0.74l-1.18,1.03v1.03l1.77,0.45,1.92,0.88s-0.14.34,1.04,0.6,1.47,0.29,1.47.29l2.81-1.33,1.63-.29,2.51,0.29,0.89,1.63a19.412,19.412,0,0,1,.59,2.07,6.458,6.458,0,0,0,.89,1.92l0.73,0.59,2.66-1.18,1.63-.74,1.48-.15a10.634,10.634,0,0,0,1.18-.44,4.133,4.133,0,0,1,.89-0.3s0.66-.67.88,0,0.63,1.97.74,2.51a8.378,8.378,0,0,1,.15,1.19,6.212,6.212,0,0,1,0,.88c-0.03.62,0,1.18,0,1.18s-0.57.29,0.3,0.3,1.47,0,1.47,0a6.681,6.681,0,0,1,1.04-.15,6.912,6.912,0,0,0,1.03.74,5.186,5.186,0,0,0,.74.74s-0.23.92,0.59,0a12.455,12.455,0,0,0,.89-1.03,1.07,1.07,0,0,0,.59-0.45c0.31-.39.45-0.59,0.45-0.59l2.21-2.22,0.74-1.62,1.78-.44,0.14-.89,1.04-.74s0.13-.18,1.33.15a5.671,5.671,0,0,0,1.33.29s-0.23.01,0.29,0.3a2.787,2.787,0,0,1,1.04.59,3.987,3.987,0,0,0,1.18.74,2.516,2.516,0,0,0,1.18.89c0.46-.03.07,0.02,0.74,0a3.294,3.294,0,0,1,.74,0l1.18-1.19,0.3-.88,0.29-.74,0.6-.74,2.51-4.14,2.51-3.99,1.48-2.66,0.74-1.63,0.59-2.36-1.33-2.07,0.15-1.33,3.69-5.32-0.74-1.04v-1.62l1.92-1.63,1.48-2.66-0.74-1.18,1.78-1.33,2.8-2.37-3.54-6.5-1.92-1.92-1.19-.74-2.07-1.18-2.95-1.04-3.4-.29-1.77-.3-2.66-.74-2.96-.73-1.04-.74-0.88-1.63s-1.01-.22-2.37,1.63l-3.1-.15-1.63-.44-5.76.14h-7.83l-4.88.15-2.37-.15h-13.89l-1.03-.14-0.45-.45-0.88.3-1.19-.74-0.59.15-0.14.59-0.45.15-0.74-.89-0.88,1.18h-1.48l-1.18-.29-0.3-.3-0.3-.3-0.14.3-0.45.15v0.44h-0.29l-0.59-.15-0.74-.14h-0.89l-0.15.44-0.29.15-0.45-.3-0.74.15-0.59.15h-1.18l-0.59-.15-0.3-.3-0.44-.14-0.44-.15-0.89.29-0.59.3h-3.99l-0.74.15h-0.59Z" transform="translate(-490 -827)"/>
      <path id="形状_19" data-name="形状 19" class="cls-6" d="M1096.96,1237.75v1.18l1.03,1.03-1.03.89h-1.77l-0.45.74-0.44,1.03-0.3.3v0.59l0.59,0.3,0.45,0.14,0.59-.14,0.74-.3,1.18-.44,0.44-.15v2.07l3.99,7.98v2.22l0.89,1.33,0.15,0.59,0.29,0.59,0.15,1.03,0.45,1.19,0.14,0.74,0.15,0.44,1.77,0.89,0.15,3.25,0.89,2.81,2.07,1.92-0.15,1.92,0.3,1.03,0.88-.14,0.89-.45,1.33-.74,0.59-.29,0.44-.3,0.45-.44,1.33-.74,0.44-.3,0.59-.44,0.74-.3,0.89-.44,0.59-.29h0.44l0.45-.15,1.18-.3,1.92-.74,1.33-.59,2.22-.74,1.33-.44,0.59-.3,1.18-.29,0.89-.44,1.18-.45,0.44-.29,0.3-.3,0.44-.44h0.45l0.29-.3,0.3-.29h3.1l1.63,0.14,1.18,1.04,0.15,0.59,0.14,0.59v0.74l-0.29.59v0.59l-0.15.59,0.15,2.96,0.44,0.89,0.59,0.29h0.3l0.29-.29,0.45-.45,0.74-.29,0.15-.45v-1.18l0.88-.44,0.59-.45,0.59-.44v-2.66l0.6-.15h1.62l0.89,0.74,0.74,0.3,2.07-.15,1.18-.3v-2.06l0.15-.6,1.33-.14,0.59-.15,0.44-.59,0.3-.3,0.29-.59,0.3-.59,0.29-.44,0.15-.45,1.04-.15v-1.03l-0.6-.3-0.44-.44h3.99l0.15-.29v-1.19l0.15-.88v-5.03l0.15-1.03,1.47-3.11,1.48-2.66,0.59-1.48,1.33-.29v-0.3l-3.25-.88-2.07-.59-2.81-.74-1.47-.59-2.07-.89-2.37-1.04-2.51-.88-2.81-1.04-3.25-.88-3.84-1.04-4.14-.89-3.55-.59h-5.61l-6.66.45-2.66-.15-1.18-.44-3.25,1.77-3.4.89-1.48.59-3.69.44-2.66.89-2.07.29-1.04.3-1.92.15-0.74.14,1.04,1.04,1.18,0.44,0.3,0.45Z" transform="translate(-490 -827)"/>
      <path id="形状_18" data-name="形状 18" class="cls-13" d="M1109.08,1271.89l0.15,1.03,1.03-.29,1.63-.89,1.18-.59,1.03-.89,0.59-.29,1.04-.59,0.74-.6,1.62-.73,1.33-.3,1.19-.3,1.18-.44,1.03-.44,1.04-.45,2.95-1.03,1.78-.59,1.48-.59,1.18-.59,0.88-.74,0.89-.45,0.3-.29h2.81l2.06,0.15,0.74,0.59,0.45,0.44,0.14,0.89v1.48l-0.29,1.18,0.15,3.4,0.88,1.03,0.59-.29,1.19,0.29,0.15,0.3-0.45.44-0.29.3v0.29l-0.15,1.63v1.18l-0.15.74-0.74.29v6.21l0.59,0.89,0.15,0.59,0.15,0.59v0.74l-0.89.44-1.03.59-0.15,4.14,0.89,1.48,0.14,1.04v3.39l1.19,0.89,0.14,0.74,0.45,1.63,0.29,1.33,0.15,1.03v0.74l0.59,0.89,0.3,0.59,0.15,0.88-0.74,1.78-0.3.59-2.22-.15-2.95-4.88h-11.09l-6.06-6.06h-3.99l0.15,0.89h-7.24l-0.89-.89-0.15-1.03h-0.59l0.3-.74,0.29-.29v-1.04l-0.88-.89-0.15-1.03v-2.07l2.07-1.18v-0.89l1.03-.89v-10.05l-1.03-.14-0.74-.15-0.59-.44-0.59-.3v-0.3l0.44-.59,0.3-.74,0.29-.59,0.3-.29Z" transform="translate(-490 -827)"/>
    </g>
  </g>
</svg>
