<svg id="组_2559_拷贝" data-name="组 2559 拷贝" xmlns="http://www.w3.org/2000/svg" xmlns:xlink="http://www.w3.org/1999/xlink" width="778" height="564" viewBox="-12 -12 778 564">
  <defs>
    <style>
      .cls-1 {
        filter: url(#filter);
      }

      .cls-10, .cls-11, .cls-12, .cls-13, .cls-14, .cls-15, .cls-16, .cls-17, .cls-18, .cls-19, .cls-2, .cls-3, .cls-4, .cls-5, .cls-6, .cls-7, .cls-8, .cls-9 {
        fill: none !important;
        stroke: #b4d1f9;
        stroke-linejoin: round;
        stroke-opacity: 0.8;
        stroke-width: 2px;
        fill-rule: evenodd;
      }

      .cls-2 {
        filter: url(#filter-2);
      }

      .cls-3 {
        filter: url(#filter-3);
      }

      .cls-4 {
        filter: url(#filter-4);
      }

      .cls-5 {
        filter: url(#filter-5);
      }

      .cls-6 {
        filter: url(#filter-6);
      }

      .cls-7 {
        filter: url(#filter-7);
      }

      .cls-8 {
        filter: url(#filter-8);
      }

      .cls-9 {
        filter: url(#filter-9);
      }

      .cls-10 {
        filter: url(#filter-10);
      }

      .cls-11 {
        filter: url(#filter-11);
      }

      .cls-12 {
        filter: url(#filter-12);
      }

      .cls-13 {
        filter: url(#filter-13);
      }

      .cls-14 {
        filter: url(#filter-14);
      }

      .cls-15 {
        filter: url(#filter-15);
      }

      .cls-16 {
        filter: url(#filter-16);
      }

      .cls-17 {
        filter: url(#filter-17);
      }

      .cls-18 {
        filter: url(#filter-18);
      }

      .cls-19 {
        filter: url(#filter-19);
      }

      .cls-20 {
        font-size: 18.947px;
        fill: #fff;
        font-family: "Source Han Sans CN";
      }
    </style>
    <filter id="filter" filterUnits="userSpaceOnUse">
      <feGaussianBlur result="blur" stdDeviation="10" in="SourceAlpha"/>
      <feComposite result="composite"/>
      <feComposite result="composite-2"/>
      <feComposite result="composite-3"/>
      <feFlood result="flood" flood-color="#0a52ca" flood-opacity="0.6"/>
      <feComposite result="composite-4" operator="in" in2="composite-3"/>
      <feBlend result="blend" in2="SourceGraphic"/>
      <feBlend result="blend-2" in="SourceGraphic"/>
    </filter>
    <filter id="filter-2" x="1673" y="1430" width="205" height="235" filterUnits="userSpaceOnUse">
      <feGaussianBlur result="blur" stdDeviation="6" in="SourceAlpha"/>
      <feFlood result="flood" flood-color="#176dfb"/>
      <feComposite result="composite-2" operator="out" in2="blur"/>
      <feComposite result="composite" operator="in" in2="SourceAlpha"/>
      <feBlend result="blend" in2="SourceGraphic"/>
    </filter>
    <filter id="filter-3" x="1389" y="1344" width="155" height="109" filterUnits="userSpaceOnUse">
      <feGaussianBlur result="blur" stdDeviation="6" in="SourceAlpha"/>
      <feFlood result="flood" flood-color="#176dfb"/>
      <feComposite result="composite-2" operator="out" in2="blur"/>
      <feComposite result="composite" operator="in" in2="SourceAlpha"/>
      <feBlend result="blend" in2="SourceGraphic"/>
    </filter>
    <filter id="filter-4" x="1460" y="1251" width="169" height="155" filterUnits="userSpaceOnUse">
      <feGaussianBlur result="blur" stdDeviation="2.667" in="SourceAlpha"/>
      <feFlood result="flood" flood-color="#176dfb"/>
      <feComposite result="composite-2" operator="out" in2="blur"/>
      <feComposite result="composite" operator="in" in2="SourceAlpha"/>
      <feBlend result="blend" in2="SourceGraphic"/>
    </filter>
    <filter id="filter-5" x="1533" y="1233" width="164" height="116" filterUnits="userSpaceOnUse">
      <feGaussianBlur result="blur" stdDeviation="6" in="SourceAlpha"/>
      <feFlood result="flood" flood-color="#176dfb"/>
      <feComposite result="composite-2" operator="out" in2="blur"/>
      <feComposite result="composite" operator="in" in2="SourceAlpha"/>
      <feBlend result="blend" in2="SourceGraphic"/>
    </filter>
    <filter id="filter-6" x="1469" y="1181" width="206" height="157" filterUnits="userSpaceOnUse">
      <feGaussianBlur result="blur" stdDeviation="6" in="SourceAlpha"/>
      <feFlood result="flood" flood-color="#176dfb"/>
      <feComposite result="composite-2" operator="out" in2="blur"/>
      <feComposite result="composite" operator="in" in2="SourceAlpha"/>
      <feBlend result="blend" in2="SourceGraphic"/>
    </filter>
    <filter id="filter-7" x="1349" y="1170" width="154" height="167" filterUnits="userSpaceOnUse">
      <feGaussianBlur result="blur" stdDeviation="6" in="SourceAlpha"/>
      <feFlood result="flood" flood-color="#176dfb"/>
      <feComposite result="composite-2" operator="out" in2="blur"/>
      <feComposite result="composite" operator="in" in2="SourceAlpha"/>
      <feBlend result="blend" in2="SourceGraphic"/>
    </filter>
    <filter id="filter-8" x="1182" y="1198" width="215" height="228" filterUnits="userSpaceOnUse">
      <feGaussianBlur result="blur" stdDeviation="2.667" in="SourceAlpha"/>
      <feFlood result="flood" flood-color="#176dfb"/>
      <feComposite result="composite-2" operator="out" in2="blur"/>
      <feComposite result="composite" operator="in" in2="SourceAlpha"/>
      <feBlend result="blend" in2="SourceGraphic"/>
    </filter>
    <filter id="filter-9" x="1130" y="1362" width="265" height="187" filterUnits="userSpaceOnUse">
      <feGaussianBlur result="blur" stdDeviation="2.667" in="SourceAlpha"/>
      <feFlood result="flood" flood-color="#176dfb"/>
      <feComposite result="composite-2" operator="out" in2="blur"/>
      <feComposite result="composite" operator="in" in2="SourceAlpha"/>
      <feBlend result="blend" in2="SourceGraphic"/>
    </filter>
    <filter id="filter-10" x="1237" y="1468" width="183" height="122" filterUnits="userSpaceOnUse">
      <feGaussianBlur result="blur" stdDeviation="2.667" in="SourceAlpha"/>
      <feFlood result="flood" flood-color="#176dfb"/>
      <feComposite result="composite-2" operator="out" in2="blur"/>
      <feComposite result="composite" operator="in" in2="SourceAlpha"/>
      <feBlend result="blend" in2="SourceGraphic"/>
    </filter>
    <filter id="filter-11" x="1476" y="1444" width="193" height="182" filterUnits="userSpaceOnUse">
      <feGaussianBlur result="blur" stdDeviation="6" in="SourceAlpha"/>
      <feFlood result="flood" flood-color="#176dfb"/>
      <feComposite result="composite-2" operator="out" in2="blur"/>
      <feComposite result="composite" operator="in" in2="SourceAlpha"/>
      <feBlend result="blend" in2="SourceGraphic"/>
    </filter>
    <filter id="filter-12" x="1235" y="1565" width="131" height="141" filterUnits="userSpaceOnUse">
      <feGaussianBlur result="blur" stdDeviation="2.667" in="SourceAlpha"/>
      <feFlood result="flood" flood-color="#176dfb"/>
      <feComposite result="composite-2" operator="out" in2="blur"/>
      <feComposite result="composite" operator="in" in2="SourceAlpha"/>
      <feBlend result="blend" in2="SourceGraphic"/>
    </filter>
    <filter id="filter-13" x="1575" y="1304" width="150" height="333" filterUnits="userSpaceOnUse">
      <feGaussianBlur result="blur" stdDeviation="6" in="SourceAlpha"/>
      <feFlood result="flood" flood-color="#176dfb"/>
      <feComposite result="composite-2" operator="out" in2="blur"/>
      <feComposite result="composite" operator="in" in2="SourceAlpha"/>
      <feBlend result="blend" in2="SourceGraphic"/>
    </filter>
    <filter id="filter-14" x="1348" y="1373" width="200" height="183" filterUnits="userSpaceOnUse">
      <feGaussianBlur result="blur" stdDeviation="2.667" in="SourceAlpha"/>
      <feFlood result="flood" flood-color="#176dfb"/>
      <feComposite result="composite-2" operator="out" in2="blur"/>
      <feComposite result="composite" operator="in" in2="SourceAlpha"/>
      <feBlend result="blend" in2="SourceGraphic"/>
    </filter>
    <filter id="filter-15" x="1321" y="1287" width="170" height="112" filterUnits="userSpaceOnUse">
      <feGaussianBlur result="blur" stdDeviation="2.667" in="SourceAlpha"/>
      <feFlood result="flood" flood-color="#176dfb"/>
      <feComposite result="composite-2" operator="out" in2="blur"/>
      <feComposite result="composite" operator="in" in2="SourceAlpha"/>
      <feBlend result="blend" in2="SourceGraphic"/>
    </filter>
    <filter id="filter-16" x="1378" y="1536" width="209" height="113" filterUnits="userSpaceOnUse">
      <feGaussianBlur result="blur" stdDeviation="2.667" in="SourceAlpha"/>
      <feFlood result="flood" flood-color="#176dfb"/>
      <feComposite result="composite-2" operator="out" in2="blur"/>
      <feComposite result="composite" operator="in" in2="SourceAlpha"/>
      <feBlend result="blend" in2="SourceGraphic"/>
    </filter>
    <filter id="filter-17" x="1135" y="1485" width="200" height="142" filterUnits="userSpaceOnUse">
      <feGaussianBlur result="blur" stdDeviation="2.667" in="SourceAlpha"/>
      <feFlood result="flood" flood-color="#176dfb"/>
      <feComposite result="composite-2" operator="out" in2="blur"/>
      <feComposite result="composite" operator="in" in2="SourceAlpha"/>
      <feBlend result="blend" in2="SourceGraphic"/>
    </filter>
    <filter id="filter-18" x="1677" y="1309" width="120" height="172" filterUnits="userSpaceOnUse">
      <feGaussianBlur result="blur" stdDeviation="6" in="SourceAlpha"/>
      <feFlood result="flood" flood-color="#176dfb"/>
      <feComposite result="composite-2" operator="out" in2="blur"/>
      <feComposite result="composite" operator="in" in2="SourceAlpha"/>
      <feBlend result="blend" in2="SourceGraphic"/>
    </filter>
    <filter id="filter-19" x="1517" y="1363" width="124" height="141" filterUnits="userSpaceOnUse">
      <feGaussianBlur result="blur" stdDeviation="6" in="SourceAlpha"/>
      <feFlood result="flood" flood-color="#176dfb"/>
      <feComposite result="composite-2" operator="out" in2="blur"/>
      <feComposite result="composite" operator="in" in2="SourceAlpha"/>
      <feBlend result="blend" in2="SourceGraphic"/>
    </filter>
  </defs>
  <g id="组_2558" data-name="组 2558" class="cls-1">
    <g transform="translate(-1130 -1170)" style="fill: #0146ae; filter: url(#filter-2)">
      <path id="形状_7" data-name="形状 7" class="cls-2" d="M1689.8,1634.05l5.07,2.54,5.07,2.53s4.9,1.91,6.75,2.53,8.45,2.54,8.45,2.54,4.79,3.66,6.75,4.22,13.16,4.21,14.36,5.07,8.44,4.22,8.44,4.22l6.76,2.53s2.54,1.81,4.22,1.69a24.987,24.987,0,0,0,5.91-1.69c1.33-.54,4.53-0.73,6.76-1.69s7.58-2.35,8.44-3.38,8.49-4.35,10.14-4.22,6.75-2.53,6.75-2.53,1.19-3.08,2.54-4.22,8.96-12.99,10.13-15.2,16.89-36.32,16.89-36.32,1.13-4.92.84-6.75,1.03-5.75.85-6.76,0.18-4.88,0-5.91,2.53-8.44,2.53-8.44-1.15-1.8.84-1.69,4.23,0,4.23,0l6.75-23.65s1.42-7.49,2.54-9.28,2.57-7.79,3.37-9.29,4.23-5.92,4.23-5.92,5.82-2.9,6.75-4.22,15.12-11.95,15.2-12.66,2.54-7.6,2.54-7.6l0.84-4.23-1.69-1.69-5.07-.84h-4.22l-2.53-3.38-3.38-1.69-6.76,4.23-0.84-2.54,2.53-5.06,0.85-3.38-5.91-.85-2.54,1.69-5.06,4.22-2.54,2.54-2.53-.85-1.69,2.54-5.07-.85s-0.17.59-2.53,0a15.035,15.035,0,0,1-4.22-1.69c-0.82-.42-3.22-2.15-4.22-2.53s-2.31-.35-3.38-0.84a17,17,0,0,0-3.38-.85h-3.38l-2.53,1.69-0.84,2.53v3.38l-1.69,2.53-1.69.85-3.38-.85-2.53-1.68,1.69-1.69-1.69-1.69h-2.54l1.69-2.54,0.85-2.53,1.69-.84,1.68,1.69h2.54v-3.38l0.84-.85-1.69-2.53-1.69-1.69,1.69-2.53,1.69-.85h5.07v-1.69l-3.38-1.68-3.38-2.54a13.5,13.5,0,0,0-2.53-.84c-0.83-.1-1.94-0.06-2.53-0.85s-2.56-1.56-2.54-3.37a40.558,40.558,0,0,0-.84-5.92c-0.28-1.83-1.02-5.74-.85-6.75s-0.84-5.91-.84-5.91l-2.53-.85h-3.38s-5.55.89-5.91,1.69-3.65,2.32-5.07,3.38-2.81.79-4.22,1.69-2.7,2.06-2.54,2.53a34.7,34.7,0,0,1,0,4.22l-2.53,2.54-1.69,2.53-5.06.85-1.69.84,0.84,4.22-3.38,1.69v3.38l2.54,3.38,0.84,1.69-1.69,3.37-2.53,1.69s-2.9.77-3.38,1.69a3.71,3.71,0,0,1-3.38,2.53c-2.46.31-5.85-.3-7.6,0s-6.75,1.04-7.6,0-4.22-1.68-4.22-1.68-2.31-.21-2.53-1.69-2.54-3.38-2.54-3.38l-1.68-1.69,0.84-5.07,1.69-3.37-0.85-2.54s-1.63-2.4-2.53-2.53-2.22,1.06-3.38.84-1.61-1.06-2.53-1.69a29.257,29.257,0,0,0-3.38-1.68l-0.84,1.68h-3.38l-4.22-.84-1.69,3.38-0.85,3.38-3.37,1.68-3.38-2.53-3.38,1.69s-1.61,5.78-3.38,6.76-4.22,5.91-4.22,5.91l0.84,43.91,2.54,6.75v4.23s-3.54,5.22-3.38,5.91-1.69,11.82-1.69,11.82l-0.84,6.76-0.85,6.75,0.85,5.07s2.94,2.02,2.53,3.38,2.61,7.11,2.53,8.44,2.12,6.4,1.69,7.6a39.04,39.04,0,0,0-.84,5.07l2.53,3.37s0.39,3.45,0,4.23a22.643,22.643,0,0,0-.84,6.75c0.26,1.11,1.69,5.07,1.69,5.07l0.84,3.38v8.44l-0.84.85,0.84,3.37,1.69,3.38v3.38Z" style="stroke: inherit; filter: none; fill: inherit"/>
    </g>
    <use transform="translate(-1130 -1170)" xlink:href="#形状_7" style="stroke: #b4d1f9; filter: none; fill: none"/>
    <g transform="translate(-1130 -1170)" style="fill: #0146ae; filter: url(#filter-3)">
      <path id="形状_11" data-name="形状 11" class="cls-3" d="M1392.56,1395.92a14.221,14.221,0,0,1,3.37,0c1.15,0.24,4.36-.63,5.07-0.85a13.659,13.659,0,0,0,2.53-1.69s0.09,1.05,1.69.85a13.764,13.764,0,0,0,4.22-1.69c0.23-.18.66-4.13,1.69-5.07s3.38-2.53,3.38-2.53a6.277,6.277,0,0,1,2.53-.85c0.95,0.07,7.6,0,7.6,0s0.14,1.7.85-.84a19.712,19.712,0,0,1,1.69-4.22s-0.8-.81,0-2.54,1.03-2.67,1.69-4.22-0.28-2.24.84-3.38,0.5-2.38,2.53-2.53a43.819,43.819,0,0,0,6.76-.84c0.98-.38,1.83-0.7,2.53,0s2.22,2.97,2.54,3.37a7.3,7.3,0,0,0,1.69.85,23.65,23.65,0,0,0,4.22.84,33.862,33.862,0,0,1,3.38,2.54c0.65,0.7,6.75,3.37,6.75,3.37l0.85,3.38s-0.04,1.09.84,0.85,5.91-.85,5.91-0.85a4.661,4.661,0,0,0,1.69-.84c1.25-.81,4.13-0.52,5.07-0.85s3.46-1.86,4.22-1.69,7.6-3.37,7.6-3.37,2.81-1.73,4.22-2.54,5.91-2.53,5.91-2.53-0.02-4.37,0-5.07-1.08-1.28,0-2.53a15.789,15.789,0,0,0,2.54-3.38,12.586,12.586,0,0,0,.84-2.53s-0.04-2.1,1.69-1.69a13.2,13.2,0,0,0,4.22,0l1.69-.85,1.69-2.53,3.38-1.69,2.53,1.69s4.07-.72,4.22-0.84-0.01-1.21.85-.85a2.713,2.713,0,0,1,1.69,2.54,11.151,11.151,0,0,1-1.69,3.37l2.53,0.85,0.85,2.53-1.69,1.69-2.54-1.69s-1.51.4-1.69,0.85,0.32,1.4.85,2.53,0.07,2.9,0,3.38a21.186,21.186,0,0,0-.85,2.53c-0.05.8-.58,2.72-1.68,2.53a16.372,16.372,0,0,0-3.38,0c-0.58.05-2.12-.52-2.53,0a10.109,10.109,0,0,0-.85,2.54,17.334,17.334,0,0,1-1.69,1.69c-0.5.34-1.04,1.48,0,1.69s0.19,0.03,1.69,0a12.643,12.643,0,0,0,3.38-.85c0.61-.14,6.75,1.69,6.75,1.69l3.38,3.38-1.69,1.69s-1.46.65-.84,1.69a13.562,13.562,0,0,0,2.53,2.53v4.22a34.911,34.911,0,0,0,.85,5.07c0.33,0.51,3.37,3.38,3.37,3.38l1.69-.85,1.69,2.53,2.53,2.54,1.69,0.84-2.53,5.91a24.792,24.792,0,0,0-4.22.85,17.851,17.851,0,0,0-3.38,2.53c-0.51.61-2.18,2.8-2.53,2.53s-0.5.18-.85,0.85,2.54,5.91,2.54,5.91l1.69,1.69s2.43,0.53,4.22.84,0.47-.4,4.22.85,4.6,0.94,5.07,1.69a8.66,8.66,0,0,0,1.69,1.69v1.68l-2.54,2.54-1.69,3.38a22.711,22.711,0,0,1-1.69,2.53c-0.06-.14-2.14-0.58-2.53,0s0.12,0.42-.84,1.69a12.964,12.964,0,0,1-3.38,2.53s0.3-.51-0.85,0-3.59,1.94-3.37,2.54-0.74,2.45-1.69,2.53,0.52,1.01-2.54.84-0.73,1.36-3.37,0-1.12-3.8-2.54-1.69a6.5,6.5,0,0,1-2.53,2.54,6.827,6.827,0,0,0-1.69-2.54c-1-.73-3.26-2.69-3.38-3.37s-1.69-1.69-1.69-1.69-2.47-.29-2.53,0a2.854,2.854,0,0,1-.84.84l-1.69-3.38a13.883,13.883,0,0,0-4.23-.84c-1.62.1-2.8,2.42-5.06,0.84s-3.38-2.53-3.38-2.53a16.873,16.873,0,0,0-2.53.84c-0.99.47-3.54,2.34-4.23,2.54s-4.45,1.14-5.06.84a8.25,8.25,0,0,1-3.38-2.53c-0.8-1.33-.56-2.2-1.69-2.53s-5.91-.85-5.91-0.85l-2.53.85-2.54,1.68s-1.1-1.61-1.69-2.53a9.173,9.173,0,0,0-1.69-2.53c-0.79-.65-4.22-0.85-4.22-0.85a5.643,5.643,0,0,1-4.22,1.69c-2.69-.06-9.25.66-10.13,0s-3.64-.67-4.23-0.84-2.53,1.69-2.53,1.69l-2.53,1.69-2.54-1.69-0.84-4.23-2.53.85a2.052,2.052,0,0,1-1.69,1.69c-1.47.19-10.14,3.38-10.14,3.38a1.534,1.534,0,0,1-1.68,1.68c-1.77-.12-3.45-0.63-3.38-1.68a12.439,12.439,0,0,0,0-1.69l-2.54,1.69s-0.86,1.76-1.68,0-2.09-2.76-1.69-4.23,0.22-2.55.84-3.37,1.69-2.54,1.69-2.54,0.95-1.05,0-1.69-1.5.24-2.53-1.69-2.35-2.57-1.69-3.37,1.79-2.39,2.53-3.38,2.19-1.08,2.53-1.69,1.35-.75.85-1.69-1.93-3.22-1.69-4.22-0.24-3.88,0-4.22a6.03,6.03,0,0,0,0-2.54c-0.12-.18.21,0.16-0.84-0.84s-2.85-1.31-3.38-1.69a16.7,16.7,0,0,0-3.38-.84Z" style="stroke: inherit; filter: none; fill: inherit"/>
    </g>
    <use transform="translate(-1130 -1170)" xlink:href="#形状_11" style="stroke: #b4d1f9; filter: none; fill: none"/>
    <g transform="translate(-1130 -1170)" style="fill: #0146ae; filter: url(#filter-4)">
      <path id="形状_12" data-name="形状 12" class="cls-4" d="M1535.27,1402.67a34.661,34.661,0,0,1,3.38-3.38c1.31-1.02,3.37-2.53,3.37-2.53a35.653,35.653,0,0,0,4.23-.84,23.4,23.4,0,0,0,3.37-2.54,12.292,12.292,0,0,0,1.69-2.53s-0.62-1.72-.84-2.53-1.94-2.31-.85-3.38,3.38-5.91,3.38-5.91a0.85,0.85,0,0,1,0-.85c0.25-.48,2.54-0.84,2.54-0.84l4.22-.85-0.85-5.06-0.84-3.38v-0.84s5.41-1.11,5.91-.85,11.82,3.38,11.82,3.38l1.69,3.38,0.85,0.84s0.3-2.48,1.68-2.53a27.256,27.256,0,0,0,4.23-.85s2.63-1.95,3.37-1.69,10.83,0.85,12.67,0,10.98-4.22,10.98-4.22l1.69-2.53s2.18-.43,1.69-1.69-0.85-2.53-.85-2.53l4.22-2.54,3.38-2.53,4.23-.85v-3.37l-0.85-1.69a4.291,4.291,0,0,1-1.69-2.54,25.253,25.253,0,0,1,0-3.37c0.08-1.46-1.56-2.46-1.69-3.38a7.414,7.414,0,0,0-1.69-2.53s-3.78,1.71-5.06,2.53a29.736,29.736,0,0,1-4.22,1.69c-0.86.39-4.23,1.69-4.23,1.69l-3.38.84-2.53,2.53a1.022,1.022,0,0,1-1.69,0,19.712,19.712,0,0,0-3.38-2.53s-1.42-.66-1.68-0.84-5.07-1.69-5.07-1.69-1.8-2.46-2.53-2.54-2.54-3.37-2.54-3.37a6.183,6.183,0,0,0-2.53-.85c-1.04.03-3.38,0-3.38,0s-3.34,2.03-4.22,2.54-4.22,1.68-4.22,1.68-1.72.35-3.38,0.85-2.36.76-4.22,0-2.25.02-2.54-.85-0.61-1.82-.84-2.53-1.25-1.88-1.69-1.69,0.17,0.6-.84,0-2,.18-2.54-0.84-2.31-2.15-2.53-2.54-1.1-1.72-1.69-1.68-0.15-.57-0.84-1.69-0.79-2.21-1.69-2.54-2.69-.25-3.38-0.84a32.887,32.887,0,0,0-3.38-3.38,8.446,8.446,0,0,1-2.53-4.22h-2.54s-4.59.85-5.06,0.84-5.07.85-5.07,0.85l-3.38,1.69a17.6,17.6,0,0,0-2.53,1.69c-0.72.67-.49,2.17-0.85,2.53s-0.96,2.02-1.68,2.53a9.453,9.453,0,0,0-1.69,2.54l2.53,2.53v1.69a10.167,10.167,0,0,0-2.53.84c-0.3.35-3.38,0-3.38,0l-0.84,2.54s-2.72-.83-1.69-2.54,0.45-2.51,1.69-3.38a11.95,11.95,0,0,0,2.53-3.37s1.19-2.63,1.69-3.38a17.146,17.146,0,0,0,1.69-3.38c0.38-1.17,1.68-5.07,1.68-5.07l-0.84-2.53h-5.07s-5.51-.26-5.91,0-1.69-2.53-1.69-2.53-2.82-.37-3.37-0.85a8.469,8.469,0,0,0-2.54-.84s-2.58-1.63-1.69-2.53,2.07-1.42,3.38-3.38a31.684,31.684,0,0,0,2.53-5.07s-0.83-1.11,0-1.69,1.28,0.16,1.69-.84,1.07-3.81,1.69-4.22,0.43-1.8.85-2.54a3.124,3.124,0,0,0-.85-3.38,21.188,21.188,0,0,1-2.53-4.22s-4.59,2.63-5.07,2.54-4.22-1.69-4.22-1.69-0.53-4.56-.84-5.92,0.04-3.13-.85-4.22a10.9,10.9,0,0,0-1.69-1.69l-3.38-.84-1.68-.85,2.53-2.53,0.84-5.07a11.211,11.211,0,0,1-.84-0.84c-0.63-.66-3.18-1.3-5.07-1.69s-4.71-.51-5.91-0.84-4.22-.85-4.22-0.85a3.1,3.1,0,0,0-1.69,1.69c-0.19,1.03-1.69,5.91-1.69,5.91a21.574,21.574,0,0,0-1.69,4.22c-0.13,1.19.72,4.79,0.85,5.92s0.92,5.16.84,5.91-1.69,8.44-1.69,8.44-0.98,3.43-2.53,5.07a7.113,7.113,0,0,0-1.69,4.22c-0.18.74,0.55,2.43,1.69,2.53s5.62,3.02,5.91,3.38,2.53,2.54,2.53,2.54l-0.84,2.53,1.69,2.53s0.82-.4.84,0.85-1.76,5.98-2.53,5.91-5.91,1.69-5.91,1.69a29.43,29.43,0,0,0,1.69,4.22c0.44,0.5.84,4.22,0.84,4.22l0.85,3.38s2.03,2.46,2.53.84,0.03-6.41,1.69-5.91a3.768,3.768,0,0,1,2.53,2.54c-0.09.33-2.53,5.91-2.53,5.91l-2.54,1.69s-1.02,2.67,0,2.53a4.873,4.873,0,0,1,2.54.84l-2.54,1.69,2.54,0.85,2.53,2.53v2.53l2.53,1.69a0.933,0.933,0,0,0,1.69,0c0.91-1.26,4.23,0,4.23,0l-0.85,1.69h2.53l0.85,4.22-2.53,2.54s-3.43,2.92-1.69,3.38a28.4,28.4,0,0,1,4.22,1.68s-0.62,4.41-.85,5.07-0.84,4.22-.84,4.22-0.94,2.36,0,1.69,3.97-.65,5.07-1.69,3.37-3.37,3.37-3.37l2.54-2.54s-0.09-3.2,0-4.22-0.3-4.1.84-4.22,2.54-1.69,2.54-1.69-0.4-1.78.84-1.69,4.22,0,4.22,0l4.23-2.53s-0.08-2.52,2.53-1.69a21.255,21.255,0,0,0,5.91.84,17.583,17.583,0,0,0,2.53-1.69,39.243,39.243,0,0,0-.84,4.22,7.653,7.653,0,0,0,.84,1.69l2.54,3.38a15.953,15.953,0,0,0-2.54.85c-0.78.4-2.81-1.2-3.38,0s0,5.06,0,5.06a4.7,4.7,0,0,1,0,2.54c-0.4,1.18-.91,3.51-1.68,3.37l-5.07-.84a20.954,20.954,0,0,1-1.69,3.38c-0.5.49-1.69,1.69-1.69,1.69l2.54,1.69s3.3,0.35,4.22,0,1.57-1.08,3.37,0a15.362,15.362,0,0,1,3.38,2.53c0.96,0.91-.84,5.07-0.84,5.07s-1.17-.17,0,0.84a6.582,6.582,0,0,1,1.69,2.53s0.78,3.48.84,4.23a32.368,32.368,0,0,0,1.69,4.22,27.163,27.163,0,0,0,1.69,3.38,12.816,12.816,0,0,0,1.69.84l1.69-1.69,1.69,4.22Z" style="stroke: inherit; filter: none; fill: inherit"/>
    </g>
    <use transform="translate(-1130 -1170)" xlink:href="#形状_12" style="stroke: #b4d1f9; filter: none; fill: none"/>
    <g transform="translate(-1130 -1170)" style="fill: #0146ae; filter: url(#filter-5)">
      <path id="形状_13" data-name="形状 13" class="cls-5" d="M1536.96,1314.85l0.84,3.38,1.69,2.53,3.38,1.69,2.53,0.84h2.54v1.69a17.568,17.568,0,0,0,1.68,2.54,17.406,17.406,0,0,1,1.69,2.53l2.54,0.84v1.69h2.53l2.53,0.85v3.37s2.02,2.16,2.54,1.69,4.22-.84,4.22-0.84a25.486,25.486,0,0,0,3.38-.85c0.75-.34,5.06-2.53,5.06-2.53l3.38-1.69h5.07l2.53,3.38s0.43,2.19,1.69,2.53a17.955,17.955,0,0,1,3.38,1.69c0.43,0.23,4.69,2.68,5.06,2.54s1.84,0.55,2.54.84a6.472,6.472,0,0,1,1.69,1.69s0.03-1.59.84-1.69,4-.01,4.22-0.84,3.21-1.98,4.23-2.54,3.62-1.85,5.06-2.53,3.78-.93,5.07-1.69,2.42-1.84,3.38-1.69,4.36-.15,5.06,0,5.91,0.85,5.91.85l1.69-1.69s-0.78-2.53-.84-2.54a18.715,18.715,0,0,0-.85-2.53c-0.29-.33.49-0.99,0-1.69s-1.02-1.71-1.68-2.53-0.55-1.77-1.69-1.69-4.22,0-4.22,0-1.54-2.3-.85-2.53,2.53-.85,2.53-0.85,3.44-.12,5.07,0a15.112,15.112,0,0,1,5.07,1.69,21.819,21.819,0,0,0,2.53,1.69,23.577,23.577,0,0,0,4.22,1.69,11.626,11.626,0,0,1,1.69-.85l3.38-4.22,1.69-.84a2.113,2.113,0,0,1,1.69.84c0.72,0.91,1.09,3.69,1.69,3.38s2.71-1.18,3.37-.85a20.3,20.3,0,0,0,2.54.85s3.46-1.47,4.22-2.53,1.85-1.16,2.53-2.54,1.42-1.43,1.69-2.53a18.451,18.451,0,0,1,1.69-3.38l1.69-1.69,2.53-.84,5.07,0.84,2.53,0.85a29.1,29.1,0,0,0,4.23-1.69,23.011,23.011,0,0,0,1.69-1.69,34.727,34.727,0,0,0,2.53-2.53c0.42-.6,1.38-0.72,1.69-1.69s0.69-1.84.84-2.54,0.35-3.3,0-3.37-1.58-1.15-2.53-1.69a24.076,24.076,0,0,1-4.22-4.23c-0.96-1.23-3.97-3.08-5.07-4.22s-1.44-1.87-3.38-2.53a5.626,5.626,0,0,1-3.38-2.53c-0.33-.79-1.68-5.07-1.68-5.07l-1.69-1.69-2.54-.85s-2.8.36-3.38,0-1.44-.35-2.53-0.84-1.7-.21-1.69-0.84-0.23-4.38-.84-4.23a6.368,6.368,0,0,1-3.38,0c-1.17-.43-0.64-0.56-1.69-0.84s-1.05-.94-1.69-1.69a20.171,20.171,0,0,1-1.69-3.38,8.422,8.422,0,0,1-1.69-.84c-0.2-.27-2.71.26-3.37,0s-3.38.84-3.38,0.84-0.19,2.35-.85,2.54a12.024,12.024,0,0,1-2.53.84c-1.66.33-2.95,0.18-4.22,0.84s-1.97,1.44-4.22,1.69-1.75-.25-3.38,0a5.261,5.261,0,0,1-2.53,0c-1.07-.14-1.04-0.66-1.69-0.84a23.958,23.958,0,0,1-3.38-2.53s-3.2.41-3.38,0.84-2.45,1.18-3.38,1.69-4.39-.23-5.06-0.85-2.43-2.62-2.54-4.22a19.971,19.971,0,0,1,0-3.38c0.09-1.26,2.52-1.93,2.54-2.53a10.594,10.594,0,0,0,0-1.69c-0.09-.58-1.25-0.73-2.54-1.69s-1.81-.65-2.53-1.69a26.58,26.58,0,0,1-2.53-5.06,18.478,18.478,0,0,0-1.69-3.38,26.892,26.892,0,0,0-2.54-2.53l-0.84-1.69-2.53-2.54s-1.21-.02-1.69,0-3.95,2.3-5.07,2.54a57.856,57.856,0,0,0-5.91,1.69c-0.61.31-3,.6-3.38,1.69s-5.07,4.22-5.07,4.22-4.11,4.82-5.06,5.06-1.57,1.08-2.54,1.69-1.83,3.51-2.53,4.23-0.91,2.69-1.69,3.37a15.223,15.223,0,0,0-2.53,3.38c-0.4.84-1.21,2.58-1.69,3.38a25.179,25.179,0,0,0-1.69,4.22c-0.07.51-.84,5.91-0.84,5.91s0.69,2.63,0,3.38-2.41,9.09-2.54,9.29-2.53,5.91-2.53,5.91l-0.84,3.38s-0.64,2.27-1.69,2.53-4.56,4.25-5.07,4.22-5.07,3.38-5.07,3.38v1.69Z" style="stroke: inherit; filter: none; fill: inherit"/>
    </g>
    <use transform="translate(-1130 -1170)" xlink:href="#形状_13" style="stroke: #b4d1f9; filter: none; fill: none"/>
    <g transform="translate(-1130 -1170)" style="fill: #0146ae; filter: url(#filter-6)">
      <path id="形状_14" data-name="形状 14" class="cls-6" d="M1472.78,1254.05v-1.69l2.53-.85v-1.68l-1.69-1.69s0.08-2.41,0-3.38,0.76-2.73,1.69-4.22,6.57-9.6,6.76-10.14,1.24-1.47,2.53-3.37,3.73-3.38,3.38-4.23-0.6-.74,0-2.53a9.114,9.114,0,0,1,3.38-4.22c1.02-.58,4.52-1.49,5.06-2.54s2.32-2.54,2.54-3.37,0.84-3.38.84-3.38v-0.85h6.76s8.66-.22,10.13,0,9.29,0,9.29,0-1.78.52,1.69,0.85,10.53-.33,11.82,0,8.74-.33,9.29,0,7.6,0,7.6,0a13.136,13.136,0,0,0,5.07.84c2.43-.2,10.29.05,11.82,0s10.13,0,10.13,0l7.6-.84s0.71-.6,5.07-3.38,15.03-7.15,16.89-8.44,2.9-2.88,7.6-4.23,9.03-3.77,10.98-4.22,3.12-1.98,5.06-1.69,5.03-.29,7.6,0,5.67-.03,7.6.85,1.14,1.71,4.23,1.69,6.15,0.34,9.28,0a13.1,13.1,0,0,1,5.92.84s0.56,2.41,0,3.38-3.38,5.91-3.38,5.91-3.78,3.47-5.07,3.38-3.38,0-3.38,0-0.87,2.15-1.69,2.53-1.98,5.16-3.37,5.07-3.26,1.42-4.23,1.69-11.82,4.22-11.82,4.22-4.06.84-5.07,1.69-6.6,1.85-7.59,2.53-5.56,1.53-6.76,2.53-4.03,2.49-5.07,2.54a40.656,40.656,0,0,0-5.06.84c-2.31.47-4.51,0.59-5.07,0.85s-5.91,3.37-5.91,3.37l-4.22,2.54v3.38l-3.38,1.68s-1.84,2.19-3.38,2.54-5.91,1.69-5.91,1.69l-4.22,2.53s-4.17,4.67-5.07,5.07-5.23,3.77-5.91,4.22-2.44,4.15-3.38,5.07-3.23,4.89-4.22,5.91a26.118,26.118,0,0,0-3.38,5.91c-0.46,1.27-.75,10.82-0.84,11.82s-2.29,6.45-2.54,7.6-3.37,10.13-3.37,10.13-0.55,1.13-.85,1.69a23.112,23.112,0,0,1-4.22,3.38c-1.3.82-3.35,3.67-4.22,4.22a7.171,7.171,0,0,0-1.69,2.54l0.84,3.37-5.07.85h-6.75l-6.76,4.22-1.69,3.38-1.68,1.69s-0.65,1.26-.85,1.69,1.69,4.22,1.69,4.22l0.84,1.69s0.04,1.37-1.68.84a6.259,6.259,0,0,0-3.38,0s-0.61,1.65-1.69,1.69-2.22.55-2.53,0-1.87-1.47-.85-2.53a30.169,30.169,0,0,0,2.54-2.54c1.23-1.47,1.96-3.52,2.53-4.22s1.75-3.03,2.53-4.22a8.345,8.345,0,0,0,1.69-3.38c0.38-1.64,1.61-2.97.84-4.22s1.44-1.34-.84-1.69-4.85.54-6.75,0-1.63.03-4.23-.84a16.915,16.915,0,0,1-5.06-2.54c-0.19-.3.14,0.29-1.69-0.84s-2.16-.58-2.54-1.69-0.99-2.09,0-2.53a6.039,6.039,0,0,0,2.54-1.69,6.838,6.838,0,0,0,1.69-2.54,24.292,24.292,0,0,1,1.68-3.37c1.08-1.79,2.23-2.03,2.54-3.38s1.89-2.45,1.69-3.38,0.1-2.39,0-3.38-1.32-2.23-1.69-3.37-0.23-2.95-.85-2.54a26.454,26.454,0,0,1-4.22,1.69c-1.01.29-.91,1.01-2.53,0.85s-1.68-.67-2.54-1.69a6.744,6.744,0,0,1-1.68-3.38c-0.54-1.97.73-1.39,0-3.38s0.91-2.21-.85-3.38a28.9,28.9,0,0,0-2.53-1.69c-0.9-.45-2.01-0.34-2.54-0.84a7.5,7.5,0,0,0-2.53-.85l2.53-2.53a4.4,4.4,0,0,0,1.69-2.53,4.723,4.723,0,0,0-.84-2.54s1.46-1.5,0-1.68,1.6,0.97-2.53,0-1.27-.03-4.23-0.85a22.32,22.32,0,0,0-4.22-.84c-2.08-.37-1.51-1.03-2.53-0.85A1.839,1.839,0,0,1,1472.78,1254.05Z" style="stroke: inherit; filter: none; fill: inherit"/>
    </g>
    <use transform="translate(-1130 -1170)" xlink:href="#形状_14" style="stroke: #b4d1f9; filter: none; fill: none"/>
    <g transform="translate(-1130 -1170)" style="fill: #0146ae; filter: url(#filter-7)">
      <path id="形状_15" data-name="形状 15" class="cls-7" d="M1499.8,1205.91l-1.69-1.68h-10.13V1200s-0.32-3.67-.85-4.22,0.22-.72-1.68-1.69-4.41-1.07-5.07-1.69-0.73-.27-3.38-1.69-4.35-1.35-6.75-2.53-1.65-1.4-4.23-2.53-0.95-1.29-2.53-1.69a16.423,16.423,0,0,1-2.53-.85l-2.54.85s1.53,0.4-.84,0-5.07-.85-5.07-0.85-0.72-1.17-1.69-.84a18.241,18.241,0,0,0-3.38,2.53s2.38-.12,0,0.85-2.46,1.45-3.37,1.69a0.873,0.873,0,0,0-.85.84,11.178,11.178,0,0,0-2.53,0,5.658,5.658,0,0,1-2.53,0c-1.13-.22-1.1.22-1.69,0s-0.46-.92-2.54,0-1.65-.58-2.53.84a10.916,10.916,0,0,1-2.53,3.38,7.432,7.432,0,0,0-1.69,1.69s-1.55-.15-1.69-0.84-0.78-1.31-.85-2.54-0.86-1.16-.84-2.53,0.75-1.01,0-2.53a12.143,12.143,0,0,1-.84-1.69c-0.48-1.17.32-2.02-.85-1.69s-2.91-.68-3.38-0.85a7.439,7.439,0,0,0-1.69-.84c-2.03-.85-1.66.12-3.37-0.84a7,7,0,0,0-1.69-.85c-1.56-.69-1.4-0.96-2.54-1.69s0.06,0.19-1.68-.84a4.109,4.109,0,0,0-2.54-.85c-0.93-.19-3.88.19-4.22,0s-4.22-.84-4.22-0.84l-1.69-.85-1.69.85a2.062,2.062,0,0,0-.84,1.69c0.06,1.07-.45,1.31,0,2.53a5.927,5.927,0,0,0,.84,1.69s0.98,0.4,0,1.69-0.87,1.87-1.69,2.53-1.03-.31-1.69.85a11.46,11.46,0,0,0-.84,1.69l-2.54,2.53h-1.68s-1.09-1.22-1.69,1.69a33.321,33.321,0,0,1-.85,4.22c-0.72,2.51,1.52.45-.84,2.53s-1.14,1.23-3.38,3.38-7.6,4.22-7.6,4.22-2.93,2.71-3.38,3.38-1.01,2.83-1.69,3.38-2.32-.24-1.69,1.69-0.21,3.84-.84,4.22-1.53-.76-3.38,0a55.382,55.382,0,0,1-7.6,1.69v2.53s5.15,3.29,5.07,4.23,0.77,3.07,1.69,5.06a38.358,38.358,0,0,1,1.69,6.76s2.93,2.75,3.37,2.53a40.668,40.668,0,0,1,5.07,0l4.22,1.69a2.255,2.255,0,0,1,1.69,0,5.317,5.317,0,0,0,2.54,0h1.68s-1.19,1.45,1.69,1.69a23.849,23.849,0,0,0,6.76-.85,9.727,9.727,0,0,0,1.69,1.69c1.14,0.92.51-1.21,1.69,2.54s0.89,3.9.84,5.06a33.3,33.3,0,0,1-.84,4.23l-3.38,1.68-4.22,1.69-1.69,2.54,0.84,5.91v2.53s2.44,2.19,0,2.53a12.533,12.533,0,0,0-5.06,2.54,10.872,10.872,0,0,0,0,3.38c0.32,1.13.84,4.22,0.84,4.22l1.69,5.07,1.69,0.84h3.38l0.84,2.53v3.38l3.38-.84v5.91l1.69,3.38,1.69,2.53h1.68v2.53l-0.84,2.54h2.53s-0.51.26,0,1.68a41.317,41.317,0,0,1,.85,4.23c0.24,0.83.65,2.69,1.69,2.53s1.69-2.53,1.69-2.53-0.54-3.42.84-2.54,2.53,4.23,2.53,4.23-2.32,1.93.85,1.68,1.67,0.44,3.38,0,5.06-.84,5.06-0.84-0.38-1.94,2.54,0a24.579,24.579,0,0,1,4.22,3.38s0.86-.36,1.69,1.69,1.56,2.57,2.53,4.22,0.11,3.99,1.69,2.53-0.28-3.38.84-3.38,2.58-2.68,3.38,0-1.41,3.15.85,2.54,1.08-.12,2.53-0.85a15.628,15.628,0,0,1,1.69-.84c1.48-.65,3.38-3.38,3.38-3.38v-3.38l-0.85-2.53a19.543,19.543,0,0,1,.85-3.38,5.551,5.551,0,0,1,1.68-2.53c1.4-1.34.77-2.78,3.38-2.53a12.642,12.642,0,0,0,5.91-.85,30.98,30.98,0,0,0,6.76-3.38c0.47-.51-0.28-3.88,0-5.06s-0.38-2.86,2.53-4.23,2.85-.86,4.23-1.68,2.93-1.91,2.53-3.38,1.69-6.76,1.69-6.76,1.44-5.59,1.69-6.75a16.528,16.528,0,0,0,.84-4.23c-0.02-1.72.98-2.12,0-4.22s-0.13-.67-0.84-2.53-2.29-2.95-1.69-4.22a29.4,29.4,0,0,0,1.69-3.38c0.62-1.73,1.75-6.05,2.53-6.76s-0.23-1.67.84-2.53,4.23-.85,4.23-0.85v-1.68l-1.69-2.54-1.69-4.22,2.53-1.69,11.82-17.73,1.69-3.38s-1.96-2.04-.84-2.53,4.22-1.69,4.22-1.69l5.07-3.38,2.53-3.38v-3.38Z" style="stroke: inherit; filter: none; fill: inherit"/>
    </g>
    <use transform="translate(-1130 -1170)" xlink:href="#形状_15" style="stroke: #b4d1f9; filter: none; fill: none"/>
    <g transform="translate(-1130 -1170)" style="fill: #0146ae; filter: url(#filter-8)">
      <path id="形状_17" data-name="形状 17" class="cls-8" d="M1330.91,1367.21s-0.2-.14-0.53-0.35c-1.29-.87-4.54-3.03-4.54-3.03l-0.84-2.54,0.84-4.22,2.54-1.69s1.05-1.93,1.69-3.38a43.4,43.4,0,0,1,3.37-5.06s2.21-2.23,2.54-3.38,1.69-5.07,1.69-5.07,0.14-2.1,1.68-2.53,3.5-1.17,5.07-1.69,1.21-.15,2.53-0.84,2.54-3.38,2.54-3.38l1.69-4.22,4.22-.85,1.69,1.69,3.38-1.69,2.53-3.38,4.22,1.69v-1.69l-1.69-3.37,1.69-2.54,4.22-.84a2.195,2.195,0,0,0,1.69-1.69,4.074,4.074,0,0,0-.84-2.53,36.969,36.969,0,0,0-5.07,1.69c-0.85.54-2.53-2.54-2.53-2.54l-0.85-2.53s0.05-.27-0.84,0-2.53-.85-2.53-0.85-0.09-1.74.84-1.68,0.87,0.34,2.53-.85,0.02-2.45,1.69-1.69a5.434,5.434,0,0,1,1.69.85c0.64,0.44-.27,2.29,1.69.84s1.67-.1,2.53-1.69a9.235,9.235,0,0,0,.85-1.69s0.09,0.95,1.69,0,1.64-1.63,2.53-2.53,3.14,0.79,1.69-1.69,1.69-6.75,1.69-6.75l-0.85-1.69s-0.48-2.17-.84-3.38-0.84-4.22-.84-4.22a3.663,3.663,0,0,1,0-2.54,4.708,4.708,0,0,1,3.37-3.38c2-.56,1.64.46,2.54-0.84s1.94,0.37.84-1.69-0.45-1.85-.84-2.53-1.44-1.33-.85-3.38,0.52-.18.85-1.69-1.41-.68,1.69-2.53,1.03-1.2,4.22-2.54,3.42,0.12,3.38-1.68,0.04,0.29,0-1.69,1.05-1.15,0-4.23,0.51-2.23-.85-3.37,0.75-1.09-2.53-1.69-3.38-.85-3.38-0.85,4.94-.78,0-0.84-8.21-.08-8.44,0,4.58,0.82-.85-0.85-1.64-1.13-5.91-1.68-5.4-1.14-5.91-.85-2.4.57-2.54,0-2.48-5.44-2.53-5.91a5.955,5.955,0,0,0,0-3.38c-0.63-1.98-1.45-4.55-1.69-5.06s-2.39-1.97-2.53-2.54-1.15-.76-3.38-2.53-4.2.59-4.22-2.53-0.7-2.63,0-3.38,1.96-2.16,1.69-2.54,2-.55,0-1.68-2.74-2.39-3.38-1.69-2.53,3.37-2.53,3.37-0.43,1.1-.85,0,0.61-3.35-.84-3.37a12.665,12.665,0,0,1-3.38,0,21.7,21.7,0,0,1-4.22-.85,0.857,0.857,0,0,0-.85-0.84c-0.91-.2-3.37.84-3.37,0.84s0.16,0.9-.85,0-0.21-.89-1.69-1.69-0.61,1.27-1.69-.84a23.845,23.845,0,0,1-1.69-5.07h-4.22a19,19,0,0,0-.84,3.38c0.06,0.59.79,1.03,0,2.53a7.234,7.234,0,0,0-.85,3.38c-0.09,1.01.39,2.05,0,2.53s-1.27.06-1.69,0.85-3.27,1.97-4.22,2.53a17.317,17.317,0,0,0-1.69.85c-1.7,1.01-3.18.93-3.37,1.69s-1.18,1.17-1.69,1.68a19.754,19.754,0,0,0-1.69,3.38,23.116,23.116,0,0,1-1.69,1.69c-0.59.48-.06,0.06-1.69,0.85s-1.71.9-2.53,0.84,0.75,0.78-1.69,0-2.15-1.77-3.38-.84-0.71,2.66-1.69,3.37-2.51.94-2.53,1.69-4.22,1.69-4.22,1.69-1.07-1.72-2.54-1.69-2.81-1.5-4.22-2.53-3.38-2.53-3.38-2.53a4.336,4.336,0,0,0-1.69,0,18.607,18.607,0,0,0-2.53,1.68c-0.72.54,0.22,0.3-1.69,0.85s-1.58,1.14-2.53.84-5.01-.24-5.07-0.84a5.3,5.3,0,0,0-2.53-2.53,23.661,23.661,0,0,0-3.38-1.69c-1.05-.26-2.9,2.55-1.69,3.37s5.04,4.14,5.07,5.07,0.07,0.43.84,1.69a18.717,18.717,0,0,1,.85,1.69c0.49,0.86,1.66-.04,0,0.84s-3.91.53-4.23,0.85-0.04-1.22-1.69.84,0,2-1.68,2.54-2.88.28-4.23,0.84-4.65,2.06-4.22,2.53,1.47,1.44,2.53,2.54,1.42,2.2,2.54,3.37,0.82,1.92,1.69,1.69,0.84,0,.84,0,0.95-.53.85,0.85a7.951,7.951,0,0,0,.84,4.22c0.64,1.04-.28,1.59,1.69,2.53s3.2,1,3.38,1.69a12.144,12.144,0,0,1,0,2.54s-2.33,1.86-3.38,2.53-2.97,1.81-3.38,2.53-0.27,2.44-.84,3.38-1.69,3.38-1.69,3.38h-3.38a16.7,16.7,0,0,0-2.53,3.38c-0.74,1.51-1.78.92-1.69,3.37s0.19,1.03,0,2.54-0.63,1.55-.85,2.53,1.55-.52-0.84,2.53-2.25,1.3-2.53,2.54-0.54-.78-0.85,2.53,1.75,2.3,0,3.38a19.342,19.342,0,0,0-4.22,4.22c-0.98,1.17-6.76,6.76-6.76,6.76s0.37-.25-2.53,1.69-0.94,1.69-4.22,2.53-1.17.71-3.38,0.84-7.6,0-7.6,0v5.91s0.47,3,.84,4.23a7.834,7.834,0,0,0,1.69,2.53,2.813,2.813,0,0,1,.85,1.69c0,0.88-.54,1.16-0.85,2.53s0,0.85,0,.85l-5.06,2.53s-2.25-3.06-1.69.84,0.84,4.23.84,4.23l1.69,1.69v4.22a3.46,3.46,0,0,1,1.69.84c0.36,0.56-.84,3.38-0.84,3.38s-1.75,1.17-.85,1.69,1.44,1.67,2.53,2.53a4.578,4.578,0,0,1,1.69,1.69c0.42,0.76,1.03.47,0,1.69s-1.16.75-2.53,0.85-2.26-2.15-2.53.84,2.53,5.07,2.53,5.07l-1.69,2.53s-2.08-.17-2.53.84,0,5.92,0,5.92,0.2,2.33-.85,2.53-1.57.77-2.53,0.84a4.768,4.768,0,0,1-2.53,0c-1.59-.36-1.57-0.25-3.38.85a16.6,16.6,0,0,1-1.69.84c-1.13.68-.1-1.58-1.69,0.85s-1.21,3.18-1.69,3.37a3.652,3.652,0,0,1-1.69.85c-1.67.5-1.42-.26-1.69,0.84a2.868,2.868,0,0,0,0,1.69l3.38,2.54s1.81-1.27,2.53-1.69,1.04-2.42,2.54-.85a55.222,55.222,0,0,0,5.07,4.22s0.07,2.55.84,2.54,4.48,0.83,5.07.84a4.884,4.884,0,0,0,2.53,0c0.93-.42-1.87,2.19,1.69-0.84s2.98-2,5.07-3.38,0.82-4.01,2.53-1.69,2.92,1.99,2.53,3.38,0.29,1.66-.84,2.53-2.61,3.84-3.38,4.22-2.53,5.07-2.53,5.07c2.01-1.15,5.06-2.53,5.06-2.53s-1.05-.66.85,1.69,2.99,1.81,3.37,3.37,0.41,3.29,1.69,4.23,1.09-2.27,1.69.84,0.37,3.9.85,4.22-0.59.47,2.53,1.69,0-.58,4.22,1.69,3.08,2.8,4.23,2.53,4.22-3.37,4.22-3.37,0.66-2.14-.85-2.54-1.29.33-1.69-1.69,0.83-2.33,0-2.53-3.19-.05-3.37-0.84a16.125,16.125,0,0,1-.85-2.54c-0.2-1.27-.95-0.3,0-3.37s-0.27-3.5.85-4.23-0.51-1.35,2.53-1.69,3.39-.96,4.22,0a19.246,19.246,0,0,1,1.69,1.69c0.72,1,2.26,1.05.85,2.54a21.272,21.272,0,0,0-2.54,3.37l-0.84.85s0.55,0.75,1.69,2.53,1.05,3.94,2.53,4.22,0.03,0.72,1.69,0,0.42,0.55,1.69-2.53-1.16-3.07.84-4.22,1.63-1.22,2.54-1.69,2.57-.17,2.53-1.69-1.9-3.48-1.69-4.22-2.22-3.42,0-3.38,2.63,0.06,4.22.85-0.01.76,3.38,0.84,2.36,0.21,3.38,0,3-.94,3.38,0-1.28,2.47.84,0.84,1.22-1.17,2.53-1.68,2.03-.64,2.54,0,0.46-.71.84-1.69-2.43-1.97.85-1.69a9.941,9.941,0,0,1,5.06,1.69,4.657,4.657,0,0,1,1.69,1.69c1.12,1.5.82,1.22,1.69,3.37s-0.76,5.8.85,2.54,1.15-3.43,2.53-5.07,9.29-17.73,9.29-17.73l0.84-1.69a1.86,1.86,0,0,1,1.69-.85c1.02,0.19.16,0.97,2.53,0a12.049,12.049,0,0,0,4.23-3.37l1.69,0.84s-0.71.98,1.68,0.84,2.5-.83,3.38-0.84,2.13,0.48,3.38-.84,1.13-1.62,1.69-1.69-0.93.5,1.69,0,5.06-.85,5.06-0.85l2.54-2.53,4.22-2.53" style="stroke: inherit; filter: none; fill: inherit"/>
    </g>
    <use transform="translate(-1130 -1170)" xlink:href="#形状_17" style="stroke: #b4d1f9; filter: none; fill: none"/>
    <g transform="translate(-1130 -1170)" style="fill: #0146ae; filter: url(#filter-9)">
      <path id="形状_18" data-name="形状 18" class="cls-9" d="M1142.6,1513.3h-3.38l-3.38-.85s-3.86-1.34-1.69-2.53,3.05-1.2,3.38-2.54a15.622,15.622,0,0,0,0-4.22,15.094,15.094,0,0,1,.84-4.22,2.783,2.783,0,0,1,1.69-1.69s0.11-3.08,0-4.22-2.42-2.39.85-2.53,2.47-1.2,5.06,0,2.25,1.95,3.38,2.53-1.93,1.68.85,0.84,3.21-1.19,3.37-1.69a34.686,34.686,0,0,0,0-4.22s1.4,0.36-.84-1.69-2.6.43-3.38-2.53-0.14-.74-0.84-3.38-2.33-.86-0.85-3.38a15.127,15.127,0,0,0,1.69-5.91l4.22-4.22s0.03-.27,0-1.69,0.6-1.7,0-3.38,0.06-1.86-.84-2.53-3.28,1.47-.84-0.84,1.07-2.15,3.37-3.38,2.7-.77,4.23-2.53,2.96-1.2,2.53-2.54-2.41-2.01-.85-2.53a32.86,32.86,0,0,1,5.07-.85s2.99-.63,3.38-1.68,1.99-1.91,2.53-2.54,4.22-.84,4.22-0.84-1.64-1.81-.84-3.38a14.022,14.022,0,0,0,1.69-4.22c0.26-1.56,1.46-2.14,0-3.38s0.03-2.1-2.53-2.53-2.66-2.03-3.38-.85-2.75,3.82-4.22,4.22-3.38.85-3.38,0.85l-0.85-2.54a31.425,31.425,0,0,1-1.69-3.37,2.982,2.982,0,0,1,0-2.54c0.61-.99,1.59-2.92,2.54-2.53s3.51,0.57,3.38,0-0.67-2.01.84-2.53a26.307,26.307,0,0,1,3.38-.85s1.8-.83,1.69-1.69-1.01-.57-0.85-2.53,1.76-2.11,0-3.38-1.62.57-1.69-1.69-2.03-.51,0-2.53,1.69-3.38,1.69-3.38a15.352,15.352,0,0,1-1.69-3.38c-0.06-.81-0.84-4.22-0.84-4.22H1173s3.19,0.26,4.22-.84a33.472,33.472,0,0,0,3.38-4.22c0.32-.72-0.94-2.26.84-2.54a6.111,6.111,0,0,0,2.53-.84h2.54l0.84,2.53s-0.53.25,1.69,0a10.288,10.288,0,0,0,4.22-1.69l3.38,1.69,2.54,2.53v1.69l4.22,1.69a8.464,8.464,0,0,0,2.53,0c1.03-.22,1.55.99,2.53,0s1.79-.28,2.54-1.69a15.143,15.143,0,0,1,3.38-3.37l2.53-.85,2.53,1.69v2.53l-3.38,3.38a25.627,25.627,0,0,0-2.53,3.38,45.362,45.362,0,0,0-1.69,4.22l2.54-.84a7.809,7.809,0,0,1,2.53-1.69c1.34-.48,2-1.98,2.53-0.85a9.823,9.823,0,0,1,.85,3.38c0.07,1.01,3.37,2.53,3.37,2.53s-1.06,2.19-.84,2.54-0.63,1.31.84,1.69,2.64-.57,2.54,0,0,5.06,0,5.06l5.06,1.69s2.54,0.57,3.38,1.69a15.364,15.364,0,0,0,2.54,2.53c0.41,0.32,4.22-2.53,4.22-2.53s1.29-.86.84-1.69a15.381,15.381,0,0,0-2.53-2.53l-0.85-2.53s2.24-2.07,0-1.69-2.41,3.48-3.37-.85-2.61-3.47-1.69-5.91,0.54-2.22,1.69-3.38,0.48-1.64,2.53-1.69,4.06-.71,5.07,0,3.37,2.54,3.37,2.54-0.81,2.83-1.68,3.38-1.17.88-1.69,2.53-2.13,1.88-.85,2.53,3.38,3.38,3.38,3.38l2.53,0.84,0.85-1.68,0.84-3.38a12.25,12.25,0,0,1,1.69-2.54,15.706,15.706,0,0,1,2.53-1.68l0.85-.85s0.67-2.06,0-2.53a5.4,5.4,0,0,1-1.69-2.54,6.153,6.153,0,0,1,0-2.53s3.6-.38,4.22,0,1,1.28,2.54,1.69,4.19-.03,5.06,0a11.335,11.335,0,0,0,2.54,0c1.02-.16.06,0.51,1.68,0.84s1.88-.11,3.38-0.84,0.54,1.72,1.69-.84,0.85-2.54.85-2.54l3.37-.84a24.421,24.421,0,0,1,2.54,2.53c0.71,0.96,1.69,2.53,1.69,2.53l1.69,4.23s2.17-4.72,2.53-5.07,5.18-6.43,5.07-7.6,1.12-2.04,3.37-5.91,2.59-5.46,3.38-5.91,2.53-1.69,2.53-1.69a18.971,18.971,0,0,1,3.38-1.69c1.19-.33,2.54-0.84,2.54-0.84a1.312,1.312,0,0,0,1.68,1.68c2.14-.4,3.75-0.13,5.92-0.84a2.132,2.132,0,0,0,1.68-2.53,14.237,14.237,0,0,1,5.07-.85c2.3,0.18.98,3.65,4.22,0s3.83-4.19,5.07-5.06,3.06-2.73,2.53-.85-1.89,5.51-1.69,6.76,4.23,2.53,4.23,2.53l1.69,0.84,1.68,2.54h2.54a7.479,7.479,0,0,1,2.53-1.69,21.4,21.4,0,0,1,2.53-.85c1.28-.21,5.07.85,5.07,0.85l2.54,0.84s-0.88,3.46-1.69,4.23-0.85,4.22-.85,4.22l2.54,5.91v4.22l-1.69.85c3.06,0.57,4.22-.85,4.22-0.85s-0.84,3.28-1.69,4.22a15.5,15.5,0,0,0-1.69,2.54,8.519,8.519,0,0,0,3.38.84c1.28-.14,1.67-0.44,2.53,0a13.9,13.9,0,0,1,2.53,2.53s-1.7,2.51-1.68,4.23a6.68,6.68,0,0,0,.84,3.37c0.51,1.22-.84,4.23-0.84,4.23l-2.54,3.37s-3.5-3.31,0,3.38,3.19,7.93,5.07,7.6a24.029,24.029,0,0,1,5.07,0h7.6s2.1-.08,1.69.85-4.23,3.37-4.23,3.37l1.69,3.38,1.69,1.69,2.53-2.53s-0.57-6.4,0-2.54a38.666,38.666,0,0,0,2.54,9.29c0.72,1.47.04,7.04,0,7.6s1.22-.47-0.85,2.54-1.69,4.22-1.69,4.22l6.76,5.07v4.22s-4.06,1.56-2.53,3.38,2.01-1.54,2.53,2.53,1.55,3.58.84,5.07a11.153,11.153,0,0,0-.84,3.37h3.38l1.69,2.54s0.71,3.83,0,5.06-1.67,3.96-2.54,4.23-2.6,1.39-4.22,1.69-2.42,1.58-4.22.84-5.91-2.53-5.91-2.53-1.87,4.35-3.38,4.22-5.15,1.94-5.91,2.53-0.86,2.92-2.54,3.38,0.09-.53-3.37,1.69-2.14,2.46-3.38,2.53-3.38-3.38-3.38-3.38,1.57-.89-1.69-1.68-3.38-.85-3.38-0.85l-1.68-1.69-1.69,1.69-3.38-1.69s-1.96-3.29-3.38-4.22-1.73.81-2.53-1.69-2.42-1.77-.85-3.38,1.42-.62,1.69-1.69a7.184,7.184,0,0,0,0-2.53s0.08,0.13.85-1.69,1.3-1.71.84-2.53-0.88-1.95,0-2.53a1.453,1.453,0,0,0,.85-0.85s-3.12.19-4.23-1.69,3.09-4.72-1.69-2.53a63.362,63.362,0,0,1-5.91,2.53,2.068,2.068,0,0,0-1.69,0c-0.81.42,1.3,1.88-2.53,0s-4.22-1.69-4.22-1.69-2.85-.32-0.85-1.69,5.07-3.37,5.07-3.37l-1.69-.85-2.53-.84-1.69,1.69s0.82,2.16-.84.84-1.11-2.82-2.54-1.69-1.56-.05-1.69,1.69a4.349,4.349,0,0,1-.84,2.53s0.5,0.35-1.69,1.69a13.061,13.061,0,0,1-4.22,1.69s-2.32,1.39-2.54,2.54,0.06,1.66-.84,1.68a10.635,10.635,0,0,0-2.53,0c-2.01.22-.7-0.02-4.23,0s-4.88,4.95-5.06,0,0.18-4.03,0-5.06,0.75-1.01,0-1.69-0.48-1.01-2.54-.85-0.75-.16-1.68,0-0.69-2.07-2.54,0,0.8,2.04-2.53,2.54-3.58,1.19-4.22.84-1.64-.58-5.07-0.84-3.3.26-4.22,0-7.6.84-7.6,0.84l-2.54-5.06v6.75a7.03,7.03,0,0,0,.85,3.38c0.89,1.48,1.52.33,1.69,2.53s0.98,2.84,0,3.38-3.06,2.26-4.23,1.69-3.37-5.07-3.37-5.07-2.65-1.75-3.38-1.69-6.76.85-6.76,0.85l-0.84,2.53s-2.75-1.08-2.53,0,1.12,2.8,0,3.38-1.69,3.38-1.69,3.38-0.47,3.2-2.54,4.22-1.97-.54-4.22,2.53-0.75,1.61-1.69,2.54-2.05,1.27-1.69,2.53-2.53,3.38-2.53,3.38a10.91,10.91,0,0,1,.84,1.69c0.72,1.55.44,1.78,0,2.53s-0.64,1.61-1.69,3.38-0.84,2.53-.84,2.53l-0.84,5.07s-1.57,1.71-.85,2.53a13.626,13.626,0,0,0,2.53,2.53,20.833,20.833,0,0,0,3.38,2.54s2.63,1.97,1.69,4.22-0.84,2.53-.84,2.53-0.53.63-3.38,0.85a24.957,24.957,0,0,1-6.76-.85l-2.53.85-4.22,2.53-2.53.85-0.85-5.07s1.15,2.56-1.69-1.69-1.27-2.88-2.53-3.38-0.61-.2-5.91-1.69-3.84,1.94-5.91-1.69,0.03-2.14-1.69-4.22,0.26-5.09-1.69-2.53,2.59,4.8-1.69,2.53-2.64-1.45-4.22-2.53,4.78,0.95-3.38-1.69-5.63-3.73-9.29-3.38-2.68-.35-4.22,0-2.69,1.72-4.22.85,1.28,0.56-3.38-1.69-3.91-2.25-5.91-2.54-3.73-.63-5.07-0.84S1142.6,1513.3,1142.6,1513.3Z" style="stroke: inherit; filter: none; fill: inherit"/>
    </g>
    <use transform="translate(-1130 -1170)" xlink:href="#形状_18" style="stroke: #b4d1f9; filter: none; fill: none"/>
    <g transform="translate(-1130 -1170)" style="fill: #0146ae; filter: url(#filter-10)">
      <path id="形状_3" data-name="形状 3" class="cls-10" d="M1351.18,1585.07l4.22-.84s1.91-1.68,3.38-.84,4.48,0.83,4.22,1.68a3.08,3.08,0,0,0,0,1.69s1.75-2.36,2.53-2.53,3.33-1.03,3.38-1.69,0.84-4.22.84-4.22,0.62-1.19.85-1.69,2.53-.84,2.53-0.84l2.54-4.23,3.37-2.53h2.54l1.69-1.69,0.84-2.53-2.53-2.54,0.84-2.53a6.158,6.158,0,0,1,1.69-1.69c0.58-.15,2.46-1.52,3.38-1.69s1.28-1.51,1.69-1.69a4.156,4.156,0,0,0,.84-1.68h2.54l2.53-.85,0.84-.84,2.54,3.37,1.69-.84,1.68-2.53,3.38-3.38,1.69-2.53s1.89-2.08,2.53-1.69,2.54,0,2.54,0l1.69-1.69,1.69-2.54,0.84-1.68a20.67,20.67,0,0,1-4.22-1.69,33.669,33.669,0,0,1-3.38-3.38c-0.63-.75-2.73-3.14-2.53-3.38a4.743,4.743,0,0,0,.84-2.53c-0.11-.9,1.69-2.89,1.69-3.38s0.94-2.02.84-2.53-1.26-1.59-1.68-2.54a25.622,25.622,0,0,1-.85-4.22l-1.69-3.38,0.85-2.53,1.69-.85s2.5,0.07,3.37,0,2.54,0,2.54,0l-0.85-1.68,1.69-1.69,0.85-1.69-2.54-1.69s-0.95-1.88-2.53-1.69a36.441,36.441,0,0,1-5.91,0c-1.52-.13-5.07-0.84-5.07-0.84l-2.53.84s0.72-.61-0.85-0.84a7.344,7.344,0,0,1-3.37-1.69,6.563,6.563,0,0,0-1.69-1.69,3.776,3.776,0,0,0-2.54.84,5.96,5.96,0,0,1-1.69,1.69,10.35,10.35,0,0,1-2.53,1.69c-0.91.3-4.22,0.84-4.22,0.84s0.87-.29-3.38-0.84-4.18-1.78-5.07-.84-2.53,2.53-2.53,2.53l-1.69,1.69a14.891,14.891,0,0,0-2.53,1.69,36.014,36.014,0,0,1-4.22,2.53,19.116,19.116,0,0,0-1.69,1.69,5.219,5.219,0,0,1-1.69,1.69,17.318,17.318,0,0,1-2.53.84,3.2,3.2,0,0,1-1.69-1.69,17.67,17.67,0,0,0-.85-2.53l-3.38-.84-3.37-.85s-0.31-3.07-.85-2.53-2.53,2.53-2.53,2.53l-1.69-1.69-5.91-4.22s-1.92-1.75-1.69-2.53a32.451,32.451,0,0,1,1.69-3.38s1.03-1.3,0-1.69-1.52-.97,0-1.69a2.916,2.916,0,0,0,1.69-1.69c0.25-.3-0.88-1.16-0.85-1.69s0.27-2.09.85-2.53,2.5-1.34.84-1.69-4.44-3.65-5.07-3.38-4.22,1.69-4.22,1.69-2.27,1.41-3.38.85a12.843,12.843,0,0,0-4.22-1.69c-1.77-.26-1.7-0.16-2.53-0.85s-0.85-2.53-.85-2.53a4.16,4.16,0,0,1,1.69-.84,8.05,8.05,0,0,0,2.54-1.69l-0.85-.85-3.38-.84-0.84,2.53-2.53-1.69s-1.88-.97-1.69,0a10.432,10.432,0,0,1,0,2.54,22.451,22.451,0,0,0-1.69,1.68c-0.46.58-2.9,1.84-3.38,2.54s-4.22,2.53-4.22,2.53l-0.85,2.53a1.026,1.026,0,0,1-.84.85,14.2,14.2,0,0,1-4.22,0,18.17,18.17,0,0,0-4.22,0,5.323,5.323,0,0,1-1.69-.85c-0.17-.32-1.21-2.5-0.85-2.53a8.72,8.72,0,0,0,1.69-1.69c0.27-.25-0.84-1.69-0.84-1.69l-5.91-1.69a2.68,2.68,0,0,0-2.54.85c-1.07,1.22.46,1.73-1.69,1.69s-6.26-1.22-6.75-.85-5.07.85-5.07,0.85a47.93,47.93,0,0,1-5.07.84,23.673,23.673,0,0,0-4.22.85l-3.38-5.07v3.38l0.85,2.53s-1.4,2.64-.85,3.38a8.076,8.076,0,0,1,1.69,2.53,14.578,14.578,0,0,1,0,3.38l-2.53.84s-2.11.5-2.53,0a9.844,9.844,0,0,1-.85-3.37,5,5,0,0,0-.84-1.69l-2.54-.85h-3.37l-2.54,1.69-0.84,1.69-0.85.85,4.23,4.22,3.37,4.22a8.888,8.888,0,0,0,2.54.84c1.05,0.1,4.22,0,4.22,0s3.33,1.92,3.38.85,1.69-2.53,1.69-2.53l1.68-1.69s3.19,2.34,3.38,2.53a31.239,31.239,0,0,0,4.22,0l1.69,0.84-5.06,3.38-0.85,2.54s2.22,3.95,2.54,4.22,3.37,5.91,3.37,5.91l0.85,3.38,0.84,1.69,2.54-.85,0.84-.84v-3.38s0.66-2.51,1.69-2.53,2.53-1.69,2.53-1.69l-0.84-1.69-5.07-.85s-1.93-1.4-1.69-1.69,0-3.37,0-3.37h2.54a18.074,18.074,0,0,1,2.53.84,16.537,16.537,0,0,0,3.38,0h2.53l0.85,4.22,1.68,2.54,0.85,2.53a2.23,2.23,0,0,1,.84,0c0.57,0.08,3.38,0,3.38,0s-0.38-.6.85-0.84,4.22,0.84,4.22.84,2.94,0.96,3.38,1.69,4.22,3.38,4.22,3.38h3.38l2.53,1.69,5.07,4.22s3.56,3.39,3.37,5.07a4.792,4.792,0,0,0,.85,3.37,11.77,11.77,0,0,1,.84,2.54h5.91l2.54,1.69,0.84,3.37-3.38,2.54s-0.82,2.75,0,3.37,1.5,4,1.69,4.23,2.54,4.22,2.54,4.22,0.73,1.94.84,2.53,0,6.76,0,6.76l-2.53,2.53-0.85,3.38,1.69,1.69v0.84s2.84,1.62,2.53,1.69a5.014,5.014,0,0,0-.84,1.69l-3.38,1.69,0.85,2.53,3.37,0.85,3.38-1.69,1.69,0.84s0.78,1.57,1.69,1.69a30.465,30.465,0,0,0,3.38,0h1.69l4.22,1.69Z" style="stroke: inherit; filter: none; fill: inherit"/>
    </g>
    <use transform="translate(-1130 -1170)" xlink:href="#形状_3" style="stroke: #b4d1f9; filter: none; fill: none"/>
    <g transform="translate(-1130 -1170)" style="fill: #0146ae; filter: url(#filter-11)">
      <path id="形状_5" data-name="形状 5" class="cls-11" d="M1479.53,1538.63l0.85-4.22,0.84-2.54,1.69-1.68,4.22,0.84,4.23,1.69,0.84,0.84,1.69-2.53,0.84-5.07-0.84-4.22,5.07-.84,2.53-1.69v-4.23l0.84-4.22,3.38-2.53,2.54-2.53,0.84-5.07,0.85-1.69,1.68-.84-0.84-5.07-0.84-5.07v-3.38l5.91-.84,6.75,1.69,6.76-.85s0.96-1.81,2.53-.84a21.13,21.13,0,0,0,5.07,1.69l4.22,0.84,1.69,0.85,0.84-.85-0.84-2.53-5.07-1.69-2.53-.84,1.69-3.38,0.84-2.53a33.114,33.114,0,0,1-2.53-2.54c-0.49-.67-0.26-1.76-0.85-2.53a10.405,10.405,0,0,1-.84-3.38l-1.69-4.22v-5.07l1.69-3.38,1.69-3.37s-0.28-.76,1.69-0.85a8.586,8.586,0,0,0,3.38-.84l0.84-1.69,3.38,0.84,2.53,2.54,4.22-.85s2.4,0.27,2.54.85,1.17,1.48,1.69,2.53,3.37,2.53,3.37,2.53l-2.53,2.54,1.69,0.84s2.37-.98,2.53,0a12.245,12.245,0,0,1,0,2.53s-0.91.98,0.85,1.69a15.933,15.933,0,0,0,4.22.85l0.84,1.69,2.54,0.84a3.555,3.555,0,0,1,.84,1.69,19.748,19.748,0,0,1,0,3.38,1.579,1.579,0,0,0,.85,1.69h7.6l-0.85,2.53-4.22,1.69-2.53.84v2.54s0.73,0.26,2.53.84,4.22,1.69,4.22,1.69,3.71,1.47,4.22,1.69a58,58,0,0,1,4.23,4.22l3.37,4.22s2.93,1.82,4.23,1.69a38.176,38.176,0,0,1,5.91.85l4.22,1.69h3.38v1.68a1.767,1.767,0,0,0,2.53.85,36.957,36.957,0,0,0,4.22-2.53l5.91-3.38h3.38a45.744,45.744,0,0,1,5.07,2.53c0.38,0.45,1.3,2.17,1.69,2.53s0.37,6.37,0,7.6-1.69,10.14-1.69,10.14v8.44l5.06,5.91s4.29,7.58,4.23,8.45,6.75,9.29,6.75,9.29l0.85,6.75a61.141,61.141,0,0,1,2.53,5.91,9.482,9.482,0,0,0,1.69,5.07c1.67,2.47,3.76,2.77,4.22,5.07s4.22,9.29,4.22,9.29,1.68,6.19,2.54,6.75,1.69,5.07,1.69,5.07l1.69,7.6s1.75,12.77,1.68,13.51-0.86,4.5-.84,5.07a11.17,11.17,0,0,1-.84,2.53l-4.23-2.53-8.44-4.22-6.76-4.23s0.63-.15-3.38-1.69-4.98-.9-6.75-1.68-5.54-2.03-5.91-1.69-6.73-.34-8.45,0-4.44-.34-6.75,0-9.3.6-10.98,0a21.893,21.893,0,0,0-3.38-.85c-1.32-.32-3.92-1.17-5.06-0.84s-4.09.04-5.92,0a33.007,33.007,0,0,1-4.22,0c-1.74-.24-4.62-1.07-5.06-1.69s-5.07-2.54-5.07-2.54l-3.38-2.53-1.69-3.38s-9.62-8.33-10.13-8.44-7.6-4.22-7.6-4.22l-3.38-1.69-4.22-.85-3.38-.84-1.69,2.53-3.38.85-2.53-3.38-1.69,4.22-1.69,1.69-4.22-3.38s-2.57-2.12-1.69-2.53a18.642,18.642,0,0,1,2.54-.85l-2.54-3.37a6.332,6.332,0,0,0-1.69-1.69c-1.38-1.1-1.8-1.15-2.53-2.54s-0.58-3.3-1.69-3.37a25.633,25.633,0,0,1-5.07-.85,23.237,23.237,0,0,0-3.37-.84l-1.69-1.69-0.85-2.53-3.38,1.68-1.68,1.69-1.69-2.53,0.84-2.53,0.85-2.54h-5.92s-1.25-1.56-.84-2.53-0.22-1.65,0-2.53-0.84-2.54-.84-2.54l-2.54-3.37-2.53-.85-0.85.85-2.53-3.38-3.38-2.54-1.69.85v-1.69Z" style="stroke: inherit; filter: none; fill: inherit"/>
    </g>
    <use transform="translate(-1130 -1170)" xlink:href="#形状_5" style="stroke: #b4d1f9; filter: none; fill: none"/>
    <g transform="translate(-1130 -1170)" style="fill: #0146ae; filter: url(#filter-12)">
      <path id="形状_1" data-name="形状 1" class="cls-12" d="M1244.78,1623.92l0.84-3.38s2.86-1.87,3.38-1.69,3.38,1.69,3.38,1.69l2.53-1.69s3.48-2.06,5.07.85,0.84,4.22.84,4.22l6.76-.84,4.22-1.69,6.75-2.54,3.38-2.53-0.84-4.22,4.22-2.54,1.69-3.37,2.53-3.38h4.22l-1.68,3.38s-0.39.69,1.68,1.69,5.07,4.22,5.07,4.22h2.53l1.69-1.69h5.07l1.69-3.38,0.84-5.07,2.54-2.53,3.37-.84,1.69-1.69a24.043,24.043,0,0,1-2.53-4.23c-0.3-1.13-.84-4.22-0.84-4.22l1.68-1.69-0.84-3.37v-0.85l4.22-.84v-3.38l-2.53-.85,2.53-1.68,3.38-3.38,3.38-1.69,1.69-2.53v4.22l2.53,1.69v2.53l-2.53,1.69,0.84,2.53,5.91-.84,4.22,2.53,2.54-.84,3.38,0.84,1.68,1.69,3.38,0.84v3.38l-1.69,3.38,3.38,2.53h5.07l4.22,0.85,0.84,3.38-2.53,3.37v3.38l-4.22,2.54-3.38.84h-1.69l0.85,6.76-1.69,5.06-5.91.85a3.674,3.674,0,0,0-.85,1.69,54.516,54.516,0,0,0,0,5.91l-3.38,4.22-1.68,2.53v4.22l5.06,4.23v5.91l-1.69,1.69-2.53,1.69-0.84,5.06-4.23,1.69-0.84,3.38s0.44,1.83-.85,1.69a51,51,0,0,0-6.75.84l-2.53.85-2.54-.85-2.53,1.69s-5.87,9.2-6.76,10.13-2.53,2.54-2.53,2.54l-0.84,5.06-5.92-.84-2.53-.84,1.69-3.38a6.272,6.272,0,0,0-.84-2.54,26.636,26.636,0,0,0-3.38-2.53s0.65-1.58-.85-1.69a14.484,14.484,0,0,0-4.22.85s-2.71-2.43-2.53-.85a12.049,12.049,0,0,1-.85,4.22,14.454,14.454,0,0,1-1.69-3.37,18,18,0,0,1,0-2.54l-2.53,3.38,1.69,5.07,1.69,1.69s1.52,1,0,2.53a5.9,5.9,0,0,0-1.69,3.38,17.864,17.864,0,0,0,0,3.38v2.53l-1.69.84-2.53.85,1.69,2.53-0.85,3.38-3.38.84-2.53-.84h-3.38v-3.38l-1.69-.84h-3.37l-3.38-2.54-1.69-3.37-2.53-1.69-5.07.84-1.69-.84,0.84-2.54-0.84-2.53-1.69-.84,0.85-1.69,0.84-.85a2.453,2.453,0,0,0,1.69,0,2.855,2.855,0,0,0,.84-1.69l-1.69-.84-1.68-.85-3.38-1.68-1.69-1.69a29.233,29.233,0,0,1-4.22,0,31.583,31.583,0,0,1-3.38-1.69l-1.69-1.69v-4.22l2.53-1.69v-2.54l-0.84-1.68,1.69-4.23,1.69-2.53-0.85-8.44,0.85-2.54,1.69-3.38s-2.84-3.33-3.38-3.37-2.54-3.38-2.54-3.38l1.69-.85,2.54-1.68,2.53-.85,1.69-3.38v-1.69Z" style="stroke: inherit; filter: none; fill: inherit"/>
    </g>
    <use transform="translate(-1130 -1170)" xlink:href="#形状_1" style="stroke: #b4d1f9; filter: none; fill: none"/>
    <g transform="translate(-1130 -1170)" style="fill: #0146ae; filter: url(#filter-13)">
      <path id="形状_6" data-name="形状 6" class="cls-13" d="M1663.63,1622.23l16.04,5.91,5.91,3.38,3.38,1.69v-2.53l-0.84-5.07s-2.11-4.41-1.69-5.07,0.84-5.06.84-5.06,0.28-5.41,0-5.92-1.38-4.61-1.69-5.06,0.31-3.13,0-4.23,1.1-5.82,0-6.75-2.53-5.07-2.53-5.07l0.84-5.91-3.38-10.13s-1.54-3.68-1.68-4.22a16.987,16.987,0,0,0-1.69-2.54s0.03-2.92,0-6.75a68.2,68.2,0,0,1,.84-9.29,19.981,19.981,0,0,1,0-5.91c0.54-2.45,2.49-8.29,2.53-9.29s1.93-7.42,1.69-8.45-1.69-9.29-1.69-9.29a52.888,52.888,0,0,0,0-6.75c-0.27-1.46,0-38,0-38l4.23-5.91,4.22-6.76s2.76-1.25,3.38-2.53,2.53-5.91,2.53-5.91l0.85-5.91s-0.81-4.67-.85-5.07a29.525,29.525,0,0,1,.85-3.38l-4.23-3.38h-2.53a14.52,14.52,0,0,0-.84-2.53c-0.35-.52-1.23-1.72,0-2.53a16.659,16.659,0,0,1,2.53-1.69,16.385,16.385,0,0,0,2.53-1.69l1.69-1.69s-0.08-2.54-.84-3.38-2.54-2.53-2.54-2.53l-3.37-.85h-1.69l-1.69-3.37-1.69-2.54,1.69-4.22s0.38-5.2.84-5.91a40.088,40.088,0,0,0,1.69-4.22l0.85-.85-1.69-3.38-0.85-1.68,2.54-.85-0.85-3.38-3.38-.84-3.38,1.69s1.93-2.92,1.69-3.38a9.149,9.149,0,0,1,0-2.53l1.69-1.69,2.54-.85a14.338,14.338,0,0,1-.85-2.53c0-.54-1.49-2.72-1.69-4.22s-1.8-2.87-.84-4.22a13.583,13.583,0,0,1,2.53-2.54,26.047,26.047,0,0,1,0-5.06c0.31-1.61,1.69-5.92,1.69-5.92l3.38-2.53,5.91,1.69,2.53,2.53h1.69l-2.53-5.91-2.53-3.38s-0.26-1.79.84-1.69a47.206,47.206,0,0,0,7.6.85,41.108,41.108,0,0,1,4.22,0,9.517,9.517,0,0,1-.84,1.69c-0.63,1.02-2.54,4.22-2.54,4.22l2.54,0.84,5.06-1.68,4.23,0.84a5.252,5.252,0,0,0,1.69.84,2.662,2.662,0,0,0,2.53-.84c-0.02-.22,0-2.53,0-2.53l-2.53-1.69-1.69-2.54a1.244,1.244,0,0,0-1.69-.84,17.336,17.336,0,0,1-4.22,0,12.426,12.426,0,0,1-.85-3.38c-0.02-1.32-1.39-2.45,0-3.38a4.451,4.451,0,0,1,2.53-.84s1.42,0.27.85-.84-2.53-4.23-2.53-4.23l-1.69-4.22-1.69-2.53,4.22,2.53,3.38,0.85v-4.23l0.84-1.69s0.79,1.14-.84-0.84-1.95-2.89-4.22-3.38-5.12-.11-6.76-0.84-1.98-1.39-3.38-1.69a18.884,18.884,0,0,1-5.06-2.53c-1.04-.76-2.74-1.97-3.38-2.54s-2.54-2.53-2.54-2.53h-2.53l-2.53,2.53s-1.36,1.32-2.54.85a10.85,10.85,0,0,0-4.22-.85,16.877,16.877,0,0,1-4.22-.84l-2.53.84a34.1,34.1,0,0,0-2.54,4.22c-0.53,1.33-1.55,1.83-2.53,3.38s-3.39,3.32-4.22,3.38a14.494,14.494,0,0,0-3.38,1.69s-0.12.37-1.69,0-3.58-.97-4.22-1.69a20.751,20.751,0,0,1-1.69-2.53l-3.38,2.53-2.53,3.38h-3.38l-2.53-1.69a16.625,16.625,0,0,1-3.38-1.69,7.5,7.5,0,0,0-3.38-1.69c-0.78.03-5.07,0-5.07,0l-1.68.85s-0.96,2.59,0,2.53a40.124,40.124,0,0,1,5.06.84,6.385,6.385,0,0,1,.85,1.69c0.06,0.55.84,3.38,0.84,3.38l0.84,1.69,1.69,3.38s-0.57,2.02-.84,1.69-4.69-.14-5.07,0-5.32-1.05-5.91-.85a10.382,10.382,0,0,1-2.53,0l0.84,2.53,1.69,3.38v5.07l2.54,3.38v1.69s0.4,1.49-2.54,1.68-6.75,3.38-6.75,3.38l-2.54,2.54v4.22l-2.53,1.69-5.91,2.53-5.07,1.69-6.75.84-7.6.85-5.92,3.38-1.68,3.37a3.8,3.8,0,0,1,2.53,2.54c0.37,1.88-.53,3.81,0,2.53s0-5.07,0-5.07,1.87-1.08,2.53-.84,2.54-.84,2.54-0.84l1.68-1.69H1591l1.69,1.69,1.69-.85,3.38-.84h2.53l0.85-1.69,1.68,0.84,1.69-1.69h2.54l2.53,1.69,2.53-.84a16.111,16.111,0,0,0,2.54-2.54,16,16,0,0,1,2.53-2.53h5.07l0.84,3.38,2.54,1.69,0.84,1.69a7.227,7.227,0,0,1,2.53,0c1.04,0.26,1.8-.42,3.38,0a13.007,13.007,0,0,1,3.38,1.69l-0.85,2.53-0.84,2.53-0.85,2.54,1.69,3.37,0.85,6.76-0.85,3.38-2.53,1.69-1.69-1.69,0.85,5.91,1.68,4.22-0.84,2.53v1.69l2.53,0.85,1.69,1.69,0.85,5.06-0.85,5.91s1.15,1.78-1.69,3.38-4.19.68-4.22,1.69-0.25,2.76-.84,3.38-2.54,0-2.54,0-0.33-.93-0.84,0-1.18,3.59-.84,4.22a23.524,23.524,0,0,1,.84,3.38l-0.84,2.53h-4.23v5.07a24.307,24.307,0,0,0-.84,3.38c-0.09,1.02-1.56,2.75-1.69,3.37s-0.85,2.54-.85,2.54l2.54,1.69,3.38,4.22v2.53l-3.38,2.54-0.85,3.37,1.69,6.76,2.54,3.38,2.53,3.37,1.69,4.23v4.22c-0.01.53,0,2.53,0,2.53l0.84,4.22,0.85,2.54v5.91s-2.28,5.43-2.54,6.75,1.17,6.98.85,7.61a7.655,7.655,0,0,0,0,4.22,38.6,38.6,0,0,0,2.53,3.38c0.6,0.71,4.22,6.75,4.22,6.75s2.7,6.37,3.38,6.76a39.2,39.2,0,0,1,4.22,3.37c0.39,0.46,1.69,9.29,1.69,9.29l2.54,4.23,1.69,5.06,0.84,1.69,2.53,2.53s3.42,4.83,3.38,5.92,2.72,9.02,3.38,9.28,3.58,6.47,3.38,7.6a14.828,14.828,0,0,0,0,5.92c0.57,1.81,2.29,7.54,2.53,8.44s-0.99,3.9-.84,5.07,0,6.75,0,6.75v3.38Z" style="stroke: inherit; filter: none; fill: inherit"/>
    </g>
    <use transform="translate(-1130 -1170)" xlink:href="#形状_6" style="stroke: #b4d1f9; filter: none; fill: none"/>
    <g transform="translate(-1130 -1170)" style="fill: #0146ae; filter: url(#filter-14)">
      <path id="形状_10" data-name="形状 10" class="cls-14" d="M1411.98,1544.54l1.69,2.53a25.13,25.13,0,0,1,3.37,0,7.538,7.538,0,0,1,.85.85c0.38,0.29.13,0.91,0.84,0.84s2,0.66,2.54,0a2.348,2.348,0,0,1,1.69-.84c0.81-.2.6-2,1.68-1.69a15.11,15.11,0,0,0,2.54.84,9.416,9.416,0,0,1,3.38,1.69c0.67,0.53,1.93,2.38,2.53,2.54s1.01,1.14,1.69.84,4.22-1.69,4.22-1.69l2.53-1.69a11.988,11.988,0,0,0,1.69,0c0.78-.06,1.74.66,2.54,0s1.71-1.86,2.53-2.53a28.326,28.326,0,0,1,2.53-1.69,3.441,3.441,0,0,0,1.69,0c0.63-.26,1.69.38,2.53,0.85s3.68,1.83,4.23,1.68a24.951,24.951,0,0,0,3.38-2.53c1.1-.85,3-1.86,3.37-2.53a5.3,5.3,0,0,1,3.38-1.69c1.03,0.03,5.2-.03,5.91,0s4.22,0,4.22,0a6.924,6.924,0,0,0,.85-2.53,18.9,18.9,0,0,1,0-3.38c0.07-.25,1.69-2.54,1.69-2.54l4.22-.84,4.22,1.69h3.38s-0.41-2.7,0-3.38a12.941,12.941,0,0,0,.84-2.53l-0.84-4.22s-1.98-.79,0-0.85,5.07,0,5.07,0l1.69-1.69c0.62-.62,1.68-1.69,1.68-1.69s-0.7-3.73,0-5.06a18.824,18.824,0,0,1,2.54-3.38c0.63-.71-0.2-1.31,1.69-2.54s2.53-1.68,2.53-1.68,1.25-2.71.85-3.38c-0.42-.67-1.26-1.94,0-2.54a12.18,12.18,0,0,1,2.53-.84l-0.85-3.38s-1.86-6.33-1.68-6.75-0.58-2.7,0-3.38,5.06-.85,5.06-0.85l7.6,0.85s5.06,0.87,5.91,0,0.66-1.91,1.69-1.69,2.78,0.38,3.38.84,6.76,1.69,6.76,1.69l4.22,0.85s0.45-1.6,0-1.69a2.306,2.306,0,0,1-1.69-.85c-0.54-.71-0.78-1.57-1.69-1.68s-4.1-.31-4.22-0.85-1.27-1.26-.85-1.69,1.38-2.28,1.69-2.53,0-2.53,0-2.53-2.16-1.85-2.53-3.38-0.23-2.18-.85-3.38-1.78-3.32-1.69-4.22,0-4.22,0-4.22,0.42-1.73.85-3.38,1.67-3.04,1.69-3.38a17.855,17.855,0,0,1,1.69-2.53,20.437,20.437,0,0,0,.84-2.54c-0.06-.18-1.04-2.03-0.84-2.53s-3.02-2.21-3.38-2.53-4.22-.85-4.22-0.85a3.7,3.7,0,0,0-1.69-.84,27.746,27.746,0,0,0-3.38,1.69v1.69s-2.21,1.56-2.53,1.68-2.54.85-2.54,0.85a2.689,2.689,0,0,1-1.69.84c-1.2.21-4.22-.84-4.22-0.84a6.476,6.476,0,0,0-1.69.84c-0.4.41-1.69,0.6-1.68,0.85s-0.23-1.66-.85-1.69a2.125,2.125,0,0,1-1.69-.85,48.828,48.828,0,0,1-3.38-5.06h-2.53l-1.69.84-0.84-1.69-0.85-1.69h-5.91l-4.22-.84s-1.59-1.42-2.53-.85a34.4,34.4,0,0,1-5.07,2.54c-0.3-.09-1.45,1.09-3.38.84s-1.36,1.04-2.53,0a34.222,34.222,0,0,1-3.38-3.38c-0.44-.6-1.78-0.39-2.53-0.84s-2.96-1.24-3.38-.84-1.69-.85-1.69-0.85l-2.53.85a7.138,7.138,0,0,0-1.69.84,1.1,1.1,0,0,1-1.69,0,8.808,8.808,0,0,1-1.69-2.53,20.623,20.623,0,0,1-.85-2.54h-3.37c-1.75.01-3.26,1-8.45,0.85s-12.66,0-12.66,0a18.935,18.935,0,0,1-1.69,1.69c-0.36.22-2.54,1.69-2.54,1.69s-1.81-.74-1.69-1.69-0.73-2.85-.84-3.38-1.69-.85-1.69-0.85a4.191,4.191,0,0,1-1.69,1.69,44.863,44.863,0,0,1-5.06,1.69s-4.84,3.24-5.92,3.38a4.767,4.767,0,0,0-2.53.84,9.961,9.961,0,0,1-1.69.85l-0.84-3.38a1.254,1.254,0,0,0-1.69,0c-0.9.75-1,1.65-1.69,1.69s-1.31-.85-1.69-0.84-0.43-2.13-.84-2.54,0.12-2.1,0-2.53a3.564,3.564,0,0,1,.84-2.53c0.61-.45.69-0.57,0.85-1.69a4.527,4.527,0,0,0-.85-2.54l-2.53-3.37s1.02-2.08.84-2.54a4.546,4.546,0,0,1,.85-2.53c0.45-.67-0.05-1.43.84-1.69s1.8,0.63,1.69-.84-1.18-3.18-.84-5.92-0.15-2.05,0-3.37,0.64-2.37,0-2.54a1.289,1.289,0,0,1-.85-0.84s-2.73-1.7-3.38-1.69a24.04,24.04,0,0,1-3.37-.84,19.516,19.516,0,0,1,0-3.38c0.17-1.27-.85-4.22-0.85-4.22a3.758,3.758,0,0,0-.84-3.38c-1.38-1.33-2.34-2.87-3.38-3.38s-2.37-1.59-3.38-1.69-2.51-.9-3.38-0.84-4.04-.48-4.22-0.85-4.22-.84-4.22-0.84-2.64,1.61-3.38.84a8.72,8.72,0,0,1-1.69-1.69,3.41,3.41,0,0,0-1.69-1.69,6.786,6.786,0,0,1-2.53,0,17.463,17.463,0,0,0-4.22,0,6.045,6.045,0,0,0-2.54.85c-0.54.59-1.16,0.53-1.68,1.69a22.624,22.624,0,0,1-1.69,3.38c-0.61.82-2.09,2.78-1.69,3.37s0.11,3.83.84,4.23a3.52,3.52,0,0,1,1.69,2.53,5.6,5.6,0,0,1,0,2.53l-0.84.85,1.69,0.84h1.68s-1.35,2.6-1.68,3.38-1.05,3.23,0,3.38,1.66,1.65,2.53,1.69a7.428,7.428,0,0,0,2.53-.85s2,1.03,1.69,1.69a44.044,44.044,0,0,0-.84,5.07,7.989,7.989,0,0,0,.84,2.53,5.706,5.706,0,0,1,.84,1.69l-1.68,3.38s-1.46,2.84-1.69,3.37a17.618,17.618,0,0,0-.85,3.38c0.03,0.5.85,4.22,0.85,4.22l2.53,3.38h4.22l1.69,0.85s1.05,1.68,1.69.84a4.641,4.641,0,0,1,2.53-1.69c0.66-.03,3.38,0,3.38,0l1.69,1.69-1.69,1.69s-0.85,1.88-1.69,1.69-6.31-3.17-3.38-.85,5.07,4.23,5.07,4.23l2.54,1.69a1.364,1.364,0,0,0,.84-1.69c-0.4-1.21-1.59-4.8-.84-5.07s1.68,1.69,1.68,1.69l1.69,5.91s0.6,4.45.85,5.07,0.84,4.22.84,4.22l0.85,1.69-2.54,2.53-1.69,2.54s1.42,1.36,1.69,1.68,3.44,2.99,3.38,3.38a5.172,5.172,0,0,0,.85,1.69l1.68,2.53a6.924,6.924,0,0,0-.84,2.54,1.743,1.743,0,0,1-.84,1.69c-0.62.49-.85,2.53-0.85,2.53a31.315,31.315,0,0,1,1.69,3.38,17.854,17.854,0,0,0,.84,2.53l-1.68,1.69s0.25,1.82,1.68,1.69a20.916,20.916,0,0,1,2.54,0c0.86-.03,1.69,0,1.69,0s0.04,2.15,0,2.53,0.13,2.84,0,3.38a21.208,21.208,0,0,0,0,2.53c-0.04.27,0.55-.05,0.84,0.85a11.637,11.637,0,0,0,1.69,2.53s-0.71,1.68,2.53,1.69a56.63,56.63,0,0,1,8.45.84c1.38,0.25,3.74.74,5.06,0s2.98-1.93,3.38-.84a15.06,15.06,0,0,0,1.69,2.53,10.777,10.777,0,0,1,0,2.54c-0.21.25-1.69,2.53-1.69,2.53a9.256,9.256,0,0,1-3.38.84c-1.32-.08-3.26.21-3.37,0.85s-0.85,3.38-.85,3.38l1.69,2.53,0.85,3.38,1.68,2.53a3.4,3.4,0,0,1,0,1.69c-0.24.79-2.65,3.73-2.53,4.22s-1.42,2.24-.84,3.38,1.64,3.57,2.53,4.22,3.33,3.55,4.22,3.38,3.38,0.85,3.38.85a2.969,2.969,0,0,1,.84,0,51.028,51.028,0,0,0-4.22,3.37l-0.84,2.54v0.84Z" style="stroke: inherit; filter: none; fill: inherit"/>
    </g>
    <use transform="translate(-1130 -1170)" xlink:href="#形状_10" style="stroke: #b4d1f9; filter: none; fill: none"/>
    <g transform="translate(-1130 -1170)" style="fill: #0146ae; filter: url(#filter-15)">
      <path id="形状_16" data-name="形状 16" class="cls-15" d="M1464.33,1297.12l4.23,2.53,2.53,2.53,1.69,3.38,0.84,1.69s-1.67,1.05-.84,1.69a23.249,23.249,0,0,0,3.38,1.69l-0.85,3.37a2.384,2.384,0,0,1-2.53,2.54,35.4,35.4,0,0,0-6.76.84,1.674,1.674,0,0,0,0,1.69c0.5,1.03,2.54,5.07,2.54,5.07l0.84,5.06,0.85,1.69h3.37v-3.37l0.85-2.54,2.53,0.85a5.663,5.663,0,0,1,0,2.53c-0.33,1.12-2.59,5.54-3.38,5.91a35.209,35.209,0,0,0-3.37,2.53l4.22,0.85v1.69l-3.38.84,3.38,0.85,2.53,3.37v2.54l2.53,0.84s1.62,2,2.54.85,0.55-2.03,1.69-1.69a3.134,3.134,0,0,1,1.69,1.69l0.84,0.84,1.69,2.53v3.38l-4.22,2.54s-3.02,1.38-.85,1.69,5.07,2.53,5.07,2.53l-1.69,7.6-0.84,3.38-4.23,1.69a8.324,8.324,0,0,1-5.06,2.53,24.167,24.167,0,0,0-5.91,1.69s0.03-1.17-3.38,0-2.17,1.09-4.22.84-1.48,2.39-2.54-.84-0.84-3.38-.84-3.38-3.61-1.96-5.07-2.53a19.608,19.608,0,0,1-3.38-1.69c-0.95-.61-4.22-0.85-4.22-0.85a11.127,11.127,0,0,1-2.53-2.53,13.738,13.738,0,0,0-5.07-3.38s-6.19.33-6.76,0.85a21.73,21.73,0,0,1-3.37,1.69v3.37s-1.22,6.19-1.69,6.76-1.76,2.74-1.69,3.38-1.69,2.53-1.69,2.53l-7.6.84-5.07,4.23-1.69,3.37a15.341,15.341,0,0,1-1.68,1.69,27.022,27.022,0,0,1-4.23,0,8.461,8.461,0,0,0-2.53.85,34.981,34.981,0,0,1-5.07,1.69h-3.37l-0.85-2.54a15.18,15.18,0,0,1,0-4.22c0.35-2.07,1.95-.12,0-2.53s1.1-.56-2.53-2.54-3.25-1.36-5.07-2.53-4.07-1.06-5.91-1.69-1.63-2.17-4.22-1.69-3.17,1.56-4.23,1.69-3.94-1.95-4.22-2.53,1.49-1.46-1.69-1.69a20.028,20.028,0,0,0-5.06,0,22.234,22.234,0,0,0-4.22,1.69s-2.18,1.51-2.54.84-3.88-1.56-4.22-1.69-0.35-.64-1.69,0a19.97,19.97,0,0,0-3.38,2.54s-0.98,2.27-2.53,0-1.8-3.72-2.53-3.38a25.929,25.929,0,0,1-3.38.84s-1.62-.57-1.69-1.68,0-7.6,0-7.6l-5.91-1.69a2.946,2.946,0,0,1-1.69-2.54c0.06-1.73-1.4-.08,0-2.53s0.06-.89,1.69-2.53,2.86-1.13,2.53-2.54,1.69-4.22,1.69-4.22l3.38-4.22,1.69-2.54a2.314,2.314,0,0,0,.84-1.68c0.11-1.18-1.29-1.75.85-3.38a41.259,41.259,0,0,1,3.37-2.54c1.82-1.2,1.65-1.76,4.23-2.53s2.3,0.04,2.53-.84a21.869,21.869,0,0,0,.84-3.38,4.516,4.516,0,0,1,1.69-3.38c1.15-.83,2.54-1.69,2.54-1.69l2.53,1.69h3.38l1.69-3.38,3.37,0.85h2.54l0.84-1.69-1.69-2.53a3.142,3.142,0,0,1-.84-1.69c-0.01-.81-1.34-1.24,0-1.69a30.259,30.259,0,0,1,3.38-.85l3.37-.84,1.69-.85a3.289,3.289,0,0,0-.84-1.68,5.338,5.338,0,0,0-2.54,0,20.4,20.4,0,0,0-3.37.84,10.424,10.424,0,0,1-.85-1.69c-0.46-1.13.89-.71-0.84-1.69s-0.85-1.06-2.54-1.69-1.68-.84-1.68-0.84l3.37-3.38,1.69-1.69,3.38,1.69,1.69-.84,0.84-2.54h2.54s0.61,0.33,1.69-.84,2.26-1.79,2.53-2.53a11.643,11.643,0,0,1,.84-1.69l0.85-4.23,3.38-.84s2.59,0.27,2.53.84,0,4.23,0,4.23l-0.84,1.69,3.37-.85s2.15,0.41,1.69,1.69a29.339,29.339,0,0,0-.84,5.91c0.01,0.92,5.06,2.53,5.06,2.53a7.821,7.821,0,0,0,0,1.69,24.678,24.678,0,0,1-.84,4.23l3.38-.85a0.655,0.655,0,0,1,.84.85c-0.2,1.08-.84,6.75-0.84,6.75l1.69,1.69,1.69-4.22,0.84-.85,2.53,2.54v3.37s-0.49.36,2.54,0,2.89-1.14,5.06-.84a4.234,4.234,0,0,0,3.38-.84s-0.93.32,0.85,1.68,0.92,1.95,4.22,3.38,4,2.1,4.22,2.54a3.75,3.75,0,0,1,.84,2.53c-0.04,1.53,0,3.38,0,3.38s0.94-1.51,1.69-2.54a4.205,4.205,0,0,0,.85-1.69l2.53-.84,0.85,3.38s-1.2,2.07,1.68,0a15.276,15.276,0,0,1,5.07-2.54,2.84,2.84,0,0,0,1.69-2.53c-0.04-1.78-.5-1.87-0.84-4.22s-1.19-2.43,0-5.07-1.06-1.62,1.68-3.38-3.04-1.62,2.54-1.68,6.02,0.82,6.75,0,2.93-3.25,4.23-3.38a2.257,2.257,0,0,0,1.68-1.69s0.75-3.5.85-4.22,0.84-3.38.84-3.38,2.52-1.63,3.38-1.69S1464.33,1297.12,1464.33,1297.12Z" style="stroke: inherit; filter: none; fill: inherit"/>
    </g>
    <use transform="translate(-1130 -1170)" xlink:href="#形状_16" style="stroke: #b4d1f9; filter: none; fill: none"/>
    <g transform="translate(-1130 -1170)" style="fill: #0146ae; filter: url(#filter-16)">
      <path id="形状_4" data-name="形状 4" class="cls-16" d="M1381.58,1569.87l0.84,4.23,2.54,2.53,1.68,1.69h3.38s0.72-1.51.85,0a28.2,28.2,0,0,1,0,3.38,3.509,3.509,0,0,0,.84,1.69,10.947,10.947,0,0,0,2.53.84,6.326,6.326,0,0,1,.85,1.69c0.34,1.04-.85,2.53-0.85,2.53l0.85,2.54s2.27,0.68,2.53.84,1.65,0.48,2.54.84a2.236,2.236,0,0,0,1.68,0l2.54,2.54,0.84,1.69a4.894,4.894,0,0,1-.84,1.69c-0.53.53-.18,1.89,0,3.37a32.7,32.7,0,0,1,0,4.23l0.84,1.69,0.85,1.68-0.85,1.69-2.53.85-1.69,1.69,0.84,2.53,0.85,3.38,1.69,1.69a14.976,14.976,0,0,0,2.53,1.69,6.3,6.3,0,0,0,2.53,0c0.84-.23,1.66-1.12,2.54-0.85s4.22,0.85,4.22.85a8.4,8.4,0,0,1,1.69-.85c0.69-.2,2.85-0.84,2.53-1.69s2.54-.84,2.54-0.84l2.53,2.53a15.184,15.184,0,0,0,2.53-.84c1.55-.64,2.05-1.57,3.38-1.69a39.189,39.189,0,0,0,5.91-.85c0.68-.32,7.6-0.84,7.6-0.84s6.98,0.47,8.45.84,7.54,0.38,7.6.85,5.96,3.13,6.75,3.38,5.07,5.06,5.07,5.06l5.07,3.38,5.06,5.07s3.45,0.34,4.22.84,7.6,2.53,7.6,2.53,2.48-.54,3.38,0,8.45,1.69,8.45,1.69H1515l14.36,0.85,10.98,0.84,2.53,1.69,5.91-.84a11.932,11.932,0,0,0,2.53,0,32.536,32.536,0,0,1,4.23,0,3.439,3.439,0,0,0,1.68.84c0.6-.08,3.38-0.84,3.38-0.84l0.85-.85,3.37-1.69,0.85-5.91s-0.33-8.66,0-10.13,0.66-3.58.84-4.22-0.07-2.78,0-4.23-0.42-3.26,0-4.22a33.683,33.683,0,0,0,.85-5.06l0.84-1.69,0.85-1.69s6.27,0.63,6.75.84a23.727,23.727,0,0,0,5.07,0,11.277,11.277,0,0,1,2.53,0,41.84,41.84,0,0,1-5.06-2.53c-1.47-1-7.54-2.95-7.6-3.38s-1.62-3.92-2.54-4.22-3.32-3.12-4.22-4.22-3.92-3.84-4.22-4.23-5.32-3.09-5.91-3.37-3.77-1.11-4.23-1.69a17.728,17.728,0,0,0-4.22-2.54c-0.44-.03-4.22,0-4.22,0l-0.84-.84h-1.69l-0.85,1.69s-3.15,2.03-3.38,1.69-2.62-.41-2.53-0.85-1.69-1.69-1.69-1.69l-0.84,2.54-0.85,1.69s-1.98.75-2.53,0-1.19-.99-1.69-1.69-2.41-2.5-1.69-2.54,2.54-1.69,2.54-1.69l-1.69-.84s-2.67-3.58-3.38-4.22a13.111,13.111,0,0,1-1.69-3.38l-4.22-3.38s-5.45-.78-5.91-0.84-1.4,1.11-1.69,0-0.85-3.38-.85-3.38-3.33.59-3.38,0.84-1.97,1.32-2.53.85a2.167,2.167,0,0,1-.84-2.53c0.52-1.1,1.69-3.38,1.69-3.38a8.841,8.841,0,0,0-2.54-.85,23.62,23.62,0,0,0-3.38,0v-2.53l-0.84-2.53s-1.25-1.8-1.69-2.54a19.7,19.7,0,0,0-2.53-3.37,25.894,25.894,0,0,0-3.38-.85l-1.69-2.53a13.326,13.326,0,0,0-2.53-1.69,28.839,28.839,0,0,0-3.38-.85c-1.54-.21-5.14.97-5.91,0.85s-6.95-.35-7.6,0-1.96,2.15-2.53,2.53a4.631,4.631,0,0,0-1.69,1.69c-0.18.57-3.38,1.69-3.38,1.69s-3.58-1.32-4.22-1.69a6.669,6.669,0,0,0-3.38,0,2.366,2.366,0,0,0-1.69.85c-0.72.77-2.53,2.53-2.53,2.53a8.374,8.374,0,0,1-1.69.84c-0.47.09-1.8-.84-2.54-0.84s-0.41.93-1.69,1.69-4.22,2.53-4.22,2.53l-3.38-.84s-1.17-.53-1.68-0.85,1.28-.25-0.85-1.69-0.95-1.36-2.53-1.69a5.554,5.554,0,0,0-2.54,0c-0.45.02-1.68,1.69-1.68,1.69s-2.15.04-3.38,0-3.47-1.82-4.22-1.69a6.323,6.323,0,0,1-2.54-.84l-2.53-2.53-1.69.84-2.53,3.38-5.91,5.07s-0.41,2.83-1.69,1.68-3.38-3.37-3.38-3.37a5.663,5.663,0,0,1-2.53,1.69,10.441,10.441,0,0,1-2.54,0s-1.42,2.18-1.69,2.53-3.37,2.53-3.37,2.53l-1.69,2.54v2.53l1.69,1.69-1.69,2.53Z" style="stroke: inherit; filter: none; fill: inherit"/>
    </g>
    <use transform="translate(-1130 -1170)" xlink:href="#形状_4" style="stroke: #b4d1f9; filter: none; fill: none"/>
    <g transform="translate(-1130 -1170)" style="fill: #0146ae; filter: url(#filter-17)">
      <path id="形状_2" data-name="形状 2" class="cls-17" d="M1243.93,1623.92l-3.38-1.69-4.22-.84-2.53-4.23-0.85-5.06-0.84-2.54a37.373,37.373,0,0,1-5.07-3.37,18.721,18.721,0,0,1-2.53-3.38l-1.69-1.69-5.07-3.38a24.166,24.166,0,0,1-3.37-2.53c-0.42-.61-0.2-1.32-0.85-1.69s-1.69-4.22-1.69-4.22l0.85-3.38,0.84-2.53,0.85-4.23v-2.53l-0.85-2.53-3.38-1.69s-2.26-.05-2.53-0.85a13.873,13.873,0,0,0-1.69-2.53l-1.69-4.22-2.53-.85-3.38-.84,2.53-3.38v-3.38h-6.75l-2.54,2.54a8.389,8.389,0,0,1-2.53,0l-1.69.84-1.69,1.69h-5.91l-1.69,2.53-2.53-.84-1.69-.85h-3.38l-1.69.85-1.68.84-5.92-1.69s-3.56-1.05-4.22-.84a27.931,27.931,0,0,1-4.22,0s-2.72-.59-2.53,0-0.34,2.01-.85,1.69-1.85-.08-2.53-0.85a21.9,21.9,0,0,0-1.69-1.68c-0.53-.5-3.38-0.85-3.38-0.85l-1.69-.84-1.69-2.54s1.13-2.24.85-2.53,0.84-3.38.84-3.38,1.68-.8,1.69-1.69a8.635,8.635,0,0,1,.85-2.53l1.69-2.53-0.85-2.54-2.53-3.37a26.523,26.523,0,0,1,0-4.23c0.21-.86-0.85-3.37-0.85-3.37v-1.69l3.38,0.84h0.85l0.84-2.53-1.69-1.69s0.77-2.24,0-2.53-0.53-2.07-.84-2.54,0-2.53,0-2.53l0.84-1.69,3.38,0.84,4.22,1.69,5.07,0.85,4.22,2.53a5.306,5.306,0,0,0,2.53,0c1.28-.35,1.73-0.82,2.54-0.84s4.04-.24,4.22,0,4.22,1.69,4.22,1.69,3.61,2.27,4.22,2.53,5.07,2.53,5.07,2.53l1.69,0.85,0.84-2.54,1.69,0.85s1.13,2.25,1.69,2.53,1.69,3.38,1.69,3.38,1.95,0.67,2.53.84,2.98-.17,4.23,0,4.22,0.85,4.22.85l1.69,1.69,0.84,3.37,1.69,0.85-0.84,2.53,1.69,2.54,2.53-1.69,5.07-2.54h1.68l1.69,1.69,2.54-1.69s1.67,0.51,2.53.85a10.861,10.861,0,0,0,3.38,0,11.307,11.307,0,0,1,0-2.54,11.842,11.842,0,0,0,0-2.53l-0.85-3.38s-1.85,1.25-2.53,0-3.5-3.72-3.38-4.22a16.092,16.092,0,0,0,0-2.53l2.53-1.69v-4.22a2.328,2.328,0,0,1,.85-2.54,13.588,13.588,0,0,0,2.53-4.22l-0.84-4.22,2.53-1.69v-1.69a9.861,9.861,0,0,0,2.54-1.69c0.92-.95,2.48-3.37,3.37-4.22s4.23-7.6,4.23-7.6l1.68-4.22h1.69l0.85,2.53s1.16,3.2,1.69,3.38a34.019,34.019,0,0,1,5.06,3.38,35.071,35.071,0,0,0,4.23,2.53h3.37s2.03-.71,2.54-0.85a18.035,18.035,0,0,0,2.53-1.68l0.84-.85,2.54,1.69a15.977,15.977,0,0,0,3.38.84,16.119,16.119,0,0,1,2.53,0,38.462,38.462,0,0,1-3.38,3.38c-1,.74-1.21,3.32-0.84,3.38a10.508,10.508,0,0,1,1.69,1.69c0.6,0.55.31,2.2,0.84,2.53s1.05,2.69,1.69,3.38a17.514,17.514,0,0,1,1.69,3.38l0.84,3.38,3.38-.85a2.287,2.287,0,0,1,0-1.69,24.9,24.9,0,0,0,.85-4.22,8.692,8.692,0,0,0,2.53-1.69c0.87-.96,1.33-1.51.84-1.69a12.531,12.531,0,0,0-3.37-.84,15.073,15.073,0,0,1-3.38-.85l-0.85-3.37,0.85-2.54a19.352,19.352,0,0,0,2.53,1.69c0.39,0.08,1.34-.07,2.53,0s3.38,0,3.38,0,1.83-.19,1.69.85a17.671,17.671,0,0,0,.85,4.22l1.68,0.84,0.85,3.38a3.583,3.583,0,0,0,2.53,0c1.67-.47,1.35-0.45,2.54-0.84s1.98,0.15,4.22.84,3.37,2.19,4.22,2.53,5.07,2.54,5.07,2.54h3.37s5.79,5.93,5.92,6.75,3.37,4.23,3.37,4.23a24.314,24.314,0,0,0,.85,3.37c0.4,0.94.79,2.59,1.69,2.54s5.78,0.43,5.91,0,1.69,1.69,1.69,1.69,1.83,4.13.84,4.22-2.53,1.69-2.53,1.69-0.9,1.04,0,4.22a28.127,28.127,0,0,0,2.53,5.91s0.62,2.02.85,2.53a29.366,29.366,0,0,0,1.68,2.54s0.57,1.81,0,2.53-0.84,4.22-.84,4.22l-2.53,1.69-1.69,3.38a19.162,19.162,0,0,1-3.38,1.69,4.753,4.753,0,0,0-2.53,1.69c-0.78.91-2.54,3.37-2.54,3.37a3.672,3.672,0,0,1-.84,0c0.93-.01,3.38,2.54,3.38,2.54l-0.85,1.69-3.38.84v2.53s1.31-.06,0,1.69-1.81.86-1.68,1.69,0.4,3.22.84,3.38,1.69,3.38,1.69,3.38l0.84,1.69-2.53,1.69-2.53.84-2.54,2.53v3.38l-1.69,3.38-2.53,1.69-5.07.84-1.68.85-3.38-1.69-3.38-2.53a16.959,16.959,0,0,1,0-3.38c0.22-.68,3.27-1.03.84-1.69s-5.13-1.67-5.06-.85-1.69,4.23-1.69,4.23l-2.53,2.53s-3.59,1.88-3.38,3.38a23.328,23.328,0,0,0,.84,3.38l-2.53,1.68-4.22,3.38-6.76,2.54h-7.6s-0.43-4.11-.84-4.23-2.54-.84-2.54-0.84h-2.53l-1.69,1.69-0.84.84-3.38-1.69-1.69,1.69-2.53,1.69Z" style="stroke: inherit; filter: none; fill: inherit"/>
    </g>
    <use transform="translate(-1130 -1170)" xlink:href="#形状_2" style="stroke: #b4d1f9; filter: none; fill: none"/>
  </g>
  <g id="组_63_拷贝" data-name="组 63 拷贝">
    <g transform="translate(-1130 -1170)" style="fill: #0146ae; filter: url(#filter-18)">
      <path id="形状_8" data-name="形状 8" class="cls-18" d="M1690.65,1459.25l2.53,1.69,1.69,0.84,1.69-1.68,0.84-3.38,1.69-2.54,2.54-.84,3.37,0.84,3.38-.84v-1.69l4.22,3.38,2.54,0.84,2.53-.84,1.69,0.84,0.84,3.38-1.68,3.38v7.6l4.22,2.53s1.56,2.63,2.53,2.54a21.531,21.531,0,0,1,4.22.84s3.91,2.21,5.91,1.69,6.89-1.81,7.6-1.69,3.1-.75,4.23-0.84,2.53-2.54,2.53-2.54l3.38-.84s2.69-2.68,2.53-3.38a4.225,4.225,0,0,1,0-1.69c0.05-1.33-3.38-5.07-3.38-5.07v-2.53l1.69-.84,1.69-.85v-3.38l-0.84-1.68,5.91-.85s2.29-.61,2.53-1.69a7.441,7.441,0,0,1,1.69-2.53l0.84-1.69v-4.22l0.85-1.69,5.91-1.69,3.38-2.53a10.841,10.841,0,0,1,3.38-1.69c1.67-.41,2.97-0.65,4.22-0.85a9.946,9.946,0,0,0,2.53-.84v-5.91s-2.51.59-1.69-.85,1.69-3.38,1.69-3.38l1.69-2.53v-1.69l1.69-2.53,2.53-2.53,1.69-1.69-0.84-4.23s-0.81-.72-1.69-1.68a22.94,22.94,0,0,0-3.38-2.54l-0.84-2.53,2.53-1.69-1.69-2.53s-1.24-2.66-.84-3.38,0-3.38,0-3.38l-3.38-1.69s0.17-1.16-2.53-1.69-4.18.41-4.23-.84a3.132,3.132,0,0,0-.84-2.53,43.93,43.93,0,0,1-2.53-4.23s1.12-1.43-.85-1.69-2.69,1.18-3.38,0-1.77-2.31-2.53-3.37-1.69-2.54-1.69-2.54-0.66-2.86,0-3.37,2.71-3.76,2.53-4.23,0.7-1.07,0-1.69a7.1,7.1,0,0,1-1.69-1.68c-0.44-.76-0.85-1.06-0.84-1.69s1.69-2.54,1.69-2.54l0.84-.84a8.136,8.136,0,0,0,0-3.38c-0.43-1.2-1.24-1.51-1.69-2.53a10.647,10.647,0,0,1-.84-4.23c0.14-1.11,1.03-2.76.84-3.37a5.8,5.8,0,0,1,.85-4.23c1.06-1.35,3.09-.57,2.53-2.53a8.686,8.686,0,0,0-1.69-3.38c-0.56-.8-1.49-3.06-2.53-4.22s-2.2-1.67-2.53-3.38,0.84-6.75.84-6.75V1314s0.01-2.07-.84-1.68a24.5,24.5,0,0,1-2.54.84s-3.2.7-3.37,1.69-3.38,3.38-3.38,3.38l-3.38-.85-1.69-.84s0.12-.6-1.69-0.85-4.22-.84-4.22-0.84l-2.53-1.69-3.38-.84-3.38.84a22.226,22.226,0,0,1-.84,4.22c-0.4.55-1.68,0.99-1.69,2.54a18.01,18.01,0,0,0,.84,4.22,11.4,11.4,0,0,0-1.69.84,8.244,8.244,0,0,1-2.53.85,7.351,7.351,0,0,1-4.22-.85,18.531,18.531,0,0,0-1.69-1.69c-1.32-1.05-.49-1.41-1.69-1.69s-1.91-.64-2.53,0a6.905,6.905,0,0,1-1.69,1.69c-0.64.26,1.28,1.67,0.84,2.54s-0.72,1.73-1.69,1.69,0.21,0.82-1.69,0a37.451,37.451,0,0,1-3.37-1.69,6.761,6.761,0,0,0,0,2.53c0.3,0.55,1.76.86,1.69,1.69s-0.85,2.15,0,2.53a19.491,19.491,0,0,1,2.53,1.69,9.861,9.861,0,0,1-2.53,1.69c-1.13.4-2-.54-1.69,0.84s0.86,3.28.84,3.38,0,2.54,0,2.54a32.607,32.607,0,0,1,4.22.84,3.629,3.629,0,0,0,1.69,0,6.849,6.849,0,0,0,1.69,2.53c1.15,0.99,3.38,3.38,3.38,3.38a1.431,1.431,0,0,1,0,1.69,1.5,1.5,0,0,1-1.69.84c-1.2.05-1.39-.16-2.53-0.84a6.077,6.077,0,0,0-2.54-.84,16.94,16.94,0,0,0-3.37.84l-2.54,1.69-2.53-1.69s-1.98-.23-0.85-0.84,2.5-1.58,2.54-2.54,0-2.53,0-2.53a1.62,1.62,0,0,0-1.69-.85,38.086,38.086,0,0,1-5.91.85h-4.22s0.68,2.19.84,2.53,2.29,2.62,2.53,3.38,1.69,3.38,1.69,3.38,1.45,0.64,0,.84-0.49,1.11-1.69,0-2.94-2.13-3.37-2.53-2.02-.5-2.54-0.85a14.447,14.447,0,0,0-1.69-.84s-1.15-.76-1.69,0a14.33,14.33,0,0,0-1.68,4.22c-0.16,1.12-1.91.94-2.54,3.38a37.759,37.759,0,0,0-.84,6.76c-0.05.91-2.54,1.66-2.54,2.53s1.02,2.23,1.69,3.38,2.06,2.86,1.69,3.38,0.85,3.37.85,3.37-3.97.88-4.23,1.69a14.79,14.79,0,0,0,0,3.38s-2.08,1.37-.84,1.69,5.91,0.84,5.91.84l0.85,1.69s0.67,1.28,0,1.69a13.207,13.207,0,0,1-2.54.85l2.54,3.37a3.779,3.779,0,0,1-.85,2.54c-1.01,1.37-3.78,5.61-3.38,5.91s0.12,3.05,0,4.22-0.84,4.22-.84,4.22a9.271,9.271,0,0,1,1.69,2.54c0.34,1.08.84,3.37,0.84,3.37a10.773,10.773,0,0,1,2.54,0c0.76,0.19,5.91,2.54,5.91,2.54l0.84,3.37a2.413,2.413,0,0,1-.84,1.69c-0.84.7-4.23,3.38-4.23,3.38s-2.7,1.09-2.53,1.69,0.85,2.53.85,2.53-0.12,1.53.84,1.69,2.65-1.08,3.38,0,2.53,3.38,2.53,3.38l0.85,0.84v3.38l-0.85,1.69a20.334,20.334,0,0,1,.85,2.54c-0.05.24,0,2.53,0,2.53s-1.12,2.51-1.69,3.38-2.54,5.91-2.54,5.91Z" style="stroke: inherit; filter: none; fill: inherit"/>
    </g>
    <use transform="translate(-1130 -1170)" xlink:href="#形状_8" style="stroke: #b4d1f9; filter: none; fill: none"/>
    <g transform="translate(-1130 -1170)" style="fill: #0146ae; filter: url(#filter-19)">
      <path id="形状_9" data-name="形状 9" class="cls-19" d="M1537.8,1449.12l-0.84-4.22s0.1-.57-0.85-0.85-4.22-.84-4.22-0.84l-1.69-.85v-2.53l1.69-1.69,3.38-.85,0.84-.84,0.85-2.53,0.84-2.54,2.54-.84,0.84-.85-1.69-2.53-2.53-1.69-2.54-.84s-2.17-.56-3.37-0.85-3.94-1.25-4.23-.84-2.53-.85-2.53-0.85l-0.84-1.68-1.69-1.69-0.85-3.38,1.69-1.69s2.43-.02,2.54-0.84,2.53-2.54,2.53-2.54,2.03-.09,2.53-0.84a23.674,23.674,0,0,1,2.53-2.54s1.67-.7,1.69-1.68,0.67-1.78.85-2.54,3.23-2.84,4.22-3.38a22.987,22.987,0,0,1,4.22-1.68,41.563,41.563,0,0,0,4.23-1.69l1.68-1.69,1.69-3.38-0.84-2.53a1.5,1.5,0,0,1-.85-1.69,25.9,25.9,0,0,1,1.69-3.38s0.58-1.19.85-1.69a14.516,14.516,0,0,0,0-3.38h4.22l1.69-1.69a5.811,5.811,0,0,0,.84-1.68,13.546,13.546,0,0,0,0-3.38l-1.69-2.54v-1.68l0.85-.85s3.3,0.79,4.22.85a13.1,13.1,0,0,1,3.38,0c1.28,0.33,4.22.84,4.22,0.84a7.829,7.829,0,0,1,2.53.84,39.475,39.475,0,0,0,5.07,1.69l0.85,2.54v2.53l-0.85.84,4.22,2.54v3.38l0.85-5.92,3.38-1.68,4.22-1.69,3.38,2.53,1.68-.84s3.79-.76,4.23-0.85,4.22-1.69,4.22-1.69,2.92-1.96,3.38-1.69,3.38,1.69,3.38,1.69,1.4,0.56,1.68,0,1.69-2.53,1.69-2.53l4.22-2.53,2.54-.85,1.69,1.69a4.378,4.378,0,0,1,1.69,1.69c0.4,0.97,1.39,1.79,1.69,2.53s4.22,0.85,4.22.85l5.06,0.84,0.85,0.85s-0.19,2.79-.85,3.37a13.55,13.55,0,0,0-1.69,2.54l0.85,4.22s1.75,1.46,1.69,2.53a29.534,29.534,0,0,0,0,5.07c0.23,0.75-1.69,3.38-1.69,3.38l-0.85.84-2.53-2.53,0.85,5.06s-0.71,2.41,0,3.38,1.68,2.54,1.68,2.54v1.68l-0.84,2.54v0.84h3.38l1.69,4.22s0.31,4.3,0,5.07a48.718,48.718,0,0,0-.85,5.07l-0.84,2.53-4.22,1.69-0.85,2.53s-0.9,2.21-1.69,1.69a9.536,9.536,0,0,1-1.69-1.69l-2.53,2.54,2.53,4.22-0.84,3.38-2.53.84h-2.54v2.54l0.85,3.37-0.85,2.54-1.69,2.53-1.69,2.53,1.69,1.69a6.491,6.491,0,0,1,2.54,1.69c0.79,1.06,1.69,2.53,1.69,2.53s0.03,2.37,0,2.54a13.742,13.742,0,0,0-1.69,1.69c-0.93,1.21-1.15.58-1.69,1.69s-1.73,1.76-.85,3.37,1.06,4.21,1.69,5.07,1.02,4.67,1.69,5.07,2.78,0.68,3.38,1.69a13.663,13.663,0,0,1,1.69,4.22c0.2,1.38-.35,1.49,0,3.38a15.129,15.129,0,0,1,0,4.22v1.69l-2.53-.85-4.23-.84a8.123,8.123,0,0,0-2.53,0c-0.43.26-1.33,1.93-2.53,2.53s-4.23,2.53-4.23,2.53l-2.53.85h-2.53l-0.85-1.69-1.69-.84s-3.81-.3-4.22-0.85-2.07-1.96-2.53-1.69a25.127,25.127,0,0,1-3.38.85s-0.79-.26-2.53-0.85-1.17-.92-2.54-1.69a10.756,10.756,0,0,1-3.37-2.53c-1.3-1.4-2.44-2.48-3.38-3.38s-1.69-1.72-2.54-2.53,1.36-.99-1.68-1.69-5.92-1.69-5.92-1.69l-1.68-1.69s0.19,0.38,0-.84,2.48-2.55,3.37-2.54,2.02-1.66,2.54-1.68a5.732,5.732,0,0,0,1.69-.85s1.31-.49,0-0.84a23.618,23.618,0,0,0-5.07,0l-3.38-.85s0.35-2.79,0-3.38-0.04-1.89-.84-2.53a7.205,7.205,0,0,0-2.54-1.69,4.4,4.4,0,0,1-1.69-.84h-2.53s0.13-.13-0.84-0.85a1.931,1.931,0,0,1-.85-1.69v-1.68l-2.53-1.69h-2.53l3.37-3.38-2.53-.85s-1-1.55-1.69-2.53a20.29,20.29,0,0,0-2.53-2.53l-2.54,1.69a5.057,5.057,0,0,1-2.53,0c-0.71-.42-1.37-0.12-1.69-0.85a6.285,6.285,0,0,0-1.69-1.69s-1.01-1.21-1.69-.84-2.53,1.69-2.53,1.69h-1.69Z" style="stroke: inherit; filter: none; fill: inherit"/>
    </g>
    <use transform="translate(-1130 -1170)" xlink:href="#形状_9" style="stroke: #b4d1f9; filter: none; fill: none"/>
    <text id="长街镇" class="cls-20" transform="translate(599.862 391.918) scale(0.844)">长街镇</text>
    <text id="胡陈乡" class="cls-20" transform="translate(577.066 238.226) scale(0.844)">胡陈乡</text>
    <text id="越溪乡" class="cls-20" transform="translate(419.994 382.629) scale(0.844)">越溪乡</text>
    <text id="茶院乡" class="cls-20" transform="translate(427.597 263.56) scale(0.844)">茶院乡</text>
    <text id="桃源街道" class="cls-20" transform="translate(303.462 241.604) scale(0.844)">桃源街道</text>
    <text id="大佳何街道" class="cls-20" transform="translate(441.952 136.893) scale(0.844)">大佳何街道</text>
    <text id="强蛟镇" class="cls-20" transform="translate(372.704 82.002) scale(0.844)">强蛟镇</text>
    <text id="西店镇" class="cls-20" transform="translate(273.901 95.514) scale(0.844)">西店镇</text>
    <text id="深甽镇" class="cls-20" transform="translate(132.036 150.402) scale(0.844)">深甽镇</text>
    <text id="黄坛镇" class="cls-20" transform="translate(110.079 290.582) scale(0.844)">黄坛镇</text>
    <text id="前童镇" class="cls-20" transform="translate(215.639 370.807) scale(0.844)">前童镇</text>
    <text id="桑洲镇" class="cls-20" transform="translate(132.882 486.498) scale(0.844)">桑洲镇</text>
  </g>
  <text id="力洋镇" class="cls-20" transform="translate(505.288 285.516) scale(0.844)">力洋镇</text>
  <text id="跃龙街道" class="cls-20" transform="translate(289.101 318.452) scale(0.844)">跃龙街道</text>
  <text id="梅林街道" class="cls-20" transform="translate(242.656 190.094) scale(0.844)">梅林街道</text>
  <text id="一市镇" class="cls-20" transform="translate(324.574 428.228) scale(0.844)">一市镇</text>
  <text id="岔路镇" class="cls-20" transform="translate(109.233 397.829) scale(0.844)">岔路镇</text>
  <text id="桥头胡街道" class="cls-20" transform="translate(366.792 180.805) scale(0.844)">桥头胡街道</text>
</svg>
