<svg id="组35" xmlns="http://www.w3.org/2000/svg" xmlns:xlink="http://www.w3.org/1999/xlink" width="1000" height="720" viewBox="-60 -21 1000 720">
  <defs>
    <style>
      .cls-1 {
        filter: url(#filter);
      }

      .cls-2, .cls-3 {
        fill: #000d3b;
        stroke-linejoin: round;
        fill-rule: evenodd;
      }

      .cls-2 {
        stroke: #2769e4;
        stroke-width: 1px;
      }

      .cls-3 {
        stroke: #0146ae;
        stroke-width: 2px;
      }

      .cls-4, .cls-5, .cls-6 {
        font-size: 20.106px;
        font-family: PangMenZhengDao;
      }

      .cls-4 {
        fill: #38ffc0;
      }

      .cls-5 {
        fill: #fff;
      }

      .cls-6 {
        fill: #ffce38;
      }

      .cls-10, .cls-11, .cls-12, .cls-13, .cls-14, .cls-15, .cls-16, .cls-17, .cls-18, .cls-19, .cls-20, .cls-21, .cls-22, .cls-23, .cls-24, .cls-25, .cls-7, .cls-8, .cls-9 {
        fill: #00d2ff;
      }

      .cls-7 {
        opacity: 0.4;
      }

      .cls-8 {
        filter: url(#filter-2);
      }

      .cls-9 {
        filter: url(#filter-3);
      }

      .cls-10 {
        filter: url(#filter-4);
      }

      .cls-11 {
        filter: url(#filter-5);
      }

      .cls-12 {
        filter: url(#filter-6);
      }

      .cls-13 {
        filter: url(#filter-7);
      }

      .cls-14 {
        filter: url(#filter-8);
      }

      .cls-15 {
        filter: url(#filter-9);
      }

      .cls-16 {
        filter: url(#filter-10);
      }

      .cls-17 {
        filter: url(#filter-11);
      }

      .cls-18 {
        filter: url(#filter-12);
      }

      .cls-19 {
        filter: url(#filter-13);
      }

      .cls-20 {
        filter: url(#filter-14);
      }

      .cls-21 {
        filter: url(#filter-15);
      }

      .cls-22 {
        filter: url(#filter-16);
      }

      .cls-23 {
        filter: url(#filter-17);
      }

      .cls-24 {
        filter: url(#filter-18);
      }

      .cls-25 {
        filter: url(#filter-19);
      }
    </style>
    <filter id="filter" filterUnits="userSpaceOnUse">
      <feGaussianBlur result="blur" stdDeviation="27" in="SourceAlpha"/>
      <feFlood result="flood" flood-color="#178dfb" flood-opacity="0.4"/>
      <feComposite result="composite-2" operator="out" in2="blur"/>
      <feComposite result="composite" operator="in" in2="SourceAlpha"/>
    </filter>
    <filter id="filter-2" x="95" y="311" width="35" height="35" filterUnits="userSpaceOnUse">
      <feGaussianBlur result="blur" stdDeviation="4.333" in="SourceAlpha"/>
      <feComposite result="composite"/>
      <feComposite result="composite-2"/>
      <feComposite result="composite-3"/>
      <feFlood result="flood" flood-color="#1ddffc"/>
      <feComposite result="composite-4" operator="in" in2="composite-3"/>
      <feBlend result="blend" in2="SourceGraphic"/>
      <feBlend result="blend-2" in="SourceGraphic"/>
    </filter>
    <filter id="filter-3" x="121" y="151" width="35" height="35" filterUnits="userSpaceOnUse">
      <feGaussianBlur result="blur" stdDeviation="4.333" in="SourceAlpha"/>
      <feComposite result="composite"/>
      <feComposite result="composite-2"/>
      <feComposite result="composite-3"/>
      <feFlood result="flood" flood-color="#1ddffc"/>
      <feComposite result="composite-4" operator="in" in2="composite-3"/>
      <feBlend result="blend" in2="SourceGraphic"/>
      <feBlend result="blend-2" in="SourceGraphic"/>
    </filter>
    <filter id="filter-4" x="299" y="88" width="35" height="35" filterUnits="userSpaceOnUse">
      <feGaussianBlur result="blur" stdDeviation="4.333" in="SourceAlpha"/>
      <feComposite result="composite"/>
      <feComposite result="composite-2"/>
      <feComposite result="composite-3"/>
      <feFlood result="flood" flood-color="#1ddffc"/>
      <feComposite result="composite-4" operator="in" in2="composite-3"/>
      <feBlend result="blend" in2="SourceGraphic"/>
      <feBlend result="blend-2" in="SourceGraphic"/>
    </filter>
    <filter id="filter-5" x="415" y="71" width="35" height="35" filterUnits="userSpaceOnUse">
      <feGaussianBlur result="blur" stdDeviation="4.333" in="SourceAlpha"/>
      <feComposite result="composite"/>
      <feComposite result="composite-2"/>
      <feComposite result="composite-3"/>
      <feFlood result="flood" flood-color="#1ddffc"/>
      <feComposite result="composite-4" operator="in" in2="composite-3"/>
      <feBlend result="blend" in2="SourceGraphic"/>
      <feBlend result="blend-2" in="SourceGraphic"/>
    </filter>
    <filter id="filter-6" x="490" y="133" width="35" height="35" filterUnits="userSpaceOnUse">
      <feGaussianBlur result="blur" stdDeviation="4.333" in="SourceAlpha"/>
      <feComposite result="composite"/>
      <feComposite result="composite-2"/>
      <feComposite result="composite-3"/>
      <feFlood result="flood" flood-color="#1ddffc"/>
      <feComposite result="composite-4" operator="in" in2="composite-3"/>
      <feBlend result="blend" in2="SourceGraphic"/>
      <feBlend result="blend-2" in="SourceGraphic"/>
    </filter>
    <filter id="filter-7" x="408" y="188" width="35" height="35" filterUnits="userSpaceOnUse">
      <feGaussianBlur result="blur" stdDeviation="4.333" in="SourceAlpha"/>
      <feComposite result="composite"/>
      <feComposite result="composite-2"/>
      <feComposite result="composite-3"/>
      <feFlood result="flood" flood-color="#1ddffc"/>
      <feComposite result="composite-4" operator="in" in2="composite-3"/>
      <feBlend result="blend" in2="SourceGraphic"/>
      <feBlend result="blend-2" in="SourceGraphic"/>
    </filter>
    <filter id="filter-8" x="263" y="192" width="35" height="35" filterUnits="userSpaceOnUse">
      <feGaussianBlur result="blur" stdDeviation="4.333" in="SourceAlpha"/>
      <feComposite result="composite"/>
      <feComposite result="composite-2"/>
      <feComposite result="composite-3"/>
      <feFlood result="flood" flood-color="#1ddffc"/>
      <feComposite result="composite-4" operator="in" in2="composite-3"/>
      <feBlend result="blend" in2="SourceGraphic"/>
      <feBlend result="blend-2" in="SourceGraphic"/>
    </filter>
    <filter id="filter-9" x="343" y="260" width="35" height="35" filterUnits="userSpaceOnUse">
      <feGaussianBlur result="blur" stdDeviation="4.333" in="SourceAlpha"/>
      <feComposite result="composite"/>
      <feComposite result="composite-2"/>
      <feComposite result="composite-3"/>
      <feFlood result="flood" flood-color="#1ddffc"/>
      <feComposite result="composite-4" operator="in" in2="composite-3"/>
      <feBlend result="blend" in2="SourceGraphic"/>
      <feBlend result="blend-2" in="SourceGraphic"/>
    </filter>
    <filter id="filter-10" x="486" y="276" width="35" height="35" filterUnits="userSpaceOnUse">
      <feGaussianBlur result="blur" stdDeviation="4.333" in="SourceAlpha"/>
      <feComposite result="composite"/>
      <feComposite result="composite-2"/>
      <feComposite result="composite-3"/>
      <feFlood result="flood" flood-color="#1ddffc"/>
      <feComposite result="composite-4" operator="in" in2="composite-3"/>
      <feBlend result="blend" in2="SourceGraphic"/>
      <feBlend result="blend-2" in="SourceGraphic"/>
    </filter>
    <filter id="filter-11" x="655" y="256" width="35" height="35" filterUnits="userSpaceOnUse">
      <feGaussianBlur result="blur" stdDeviation="4.333" in="SourceAlpha"/>
      <feComposite result="composite"/>
      <feComposite result="composite-2"/>
      <feComposite result="composite-3"/>
      <feFlood result="flood" flood-color="#1ddffc"/>
      <feComposite result="composite-4" operator="in" in2="composite-3"/>
      <feBlend result="blend" in2="SourceGraphic"/>
      <feBlend result="blend-2" in="SourceGraphic"/>
    </filter>
    <filter id="filter-12" x="571" y="313" width="35" height="35" filterUnits="userSpaceOnUse">
      <feGaussianBlur result="blur" stdDeviation="4.333" in="SourceAlpha"/>
      <feComposite result="composite"/>
      <feComposite result="composite-2"/>
      <feComposite result="composite-3"/>
      <feFlood result="flood" flood-color="#1ddffc"/>
      <feComposite result="composite-4" operator="in" in2="composite-3"/>
      <feBlend result="blend" in2="SourceGraphic"/>
      <feBlend result="blend-2" in="SourceGraphic"/>
    </filter>
    <filter id="filter-13" x="460" y="425" width="35" height="35" filterUnits="userSpaceOnUse">
      <feGaussianBlur result="blur" stdDeviation="4.333" in="SourceAlpha"/>
      <feComposite result="composite"/>
      <feComposite result="composite-2"/>
      <feComposite result="composite-3"/>
      <feFlood result="flood" flood-color="#1ddffc"/>
      <feComposite result="composite-4" operator="in" in2="composite-3"/>
      <feBlend result="blend" in2="SourceGraphic"/>
      <feBlend result="blend-2" in="SourceGraphic"/>
    </filter>
    <filter id="filter-14" x="672" y="437" width="35" height="35" filterUnits="userSpaceOnUse">
      <feGaussianBlur result="blur" stdDeviation="4.333" in="SourceAlpha"/>
      <feComposite result="composite"/>
      <feComposite result="composite-2"/>
      <feComposite result="composite-3"/>
      <feFlood result="flood" flood-color="#1ddffc"/>
      <feComposite result="composite-4" operator="in" in2="composite-3"/>
      <feBlend result="blend" in2="SourceGraphic"/>
      <feBlend result="blend-2" in="SourceGraphic"/>
    </filter>
    <filter id="filter-15" x="348" y="480" width="35" height="35" filterUnits="userSpaceOnUse">
      <feGaussianBlur result="blur" stdDeviation="4.333" in="SourceAlpha"/>
      <feComposite result="composite"/>
      <feComposite result="composite-2"/>
      <feComposite result="composite-3"/>
      <feFlood result="flood" flood-color="#1ddffc"/>
      <feComposite result="composite-4" operator="in" in2="composite-3"/>
      <feBlend result="blend" in2="SourceGraphic"/>
      <feBlend result="blend-2" in="SourceGraphic"/>
    </filter>
    <filter id="filter-16" x="317" y="343" width="35" height="35" filterUnits="userSpaceOnUse">
      <feGaussianBlur result="blur" stdDeviation="4.333" in="SourceAlpha"/>
      <feComposite result="composite"/>
      <feComposite result="composite-2"/>
      <feComposite result="composite-3"/>
      <feFlood result="flood" flood-color="#1ddffc"/>
      <feComposite result="composite-4" operator="in" in2="composite-3"/>
      <feBlend result="blend" in2="SourceGraphic"/>
      <feBlend result="blend-2" in="SourceGraphic"/>
    </filter>
    <filter id="filter-17" x="229" y="412" width="35" height="35" filterUnits="userSpaceOnUse">
      <feGaussianBlur result="blur" stdDeviation="4.333" in="SourceAlpha"/>
      <feComposite result="composite"/>
      <feComposite result="composite-2"/>
      <feComposite result="composite-3"/>
      <feFlood result="flood" flood-color="#1ddffc"/>
      <feComposite result="composite-4" operator="in" in2="composite-3"/>
      <feBlend result="blend" in2="SourceGraphic"/>
      <feBlend result="blend-2" in="SourceGraphic"/>
    </filter>
    <filter id="filter-18" x="115" y="446" width="35" height="35" filterUnits="userSpaceOnUse">
      <feGaussianBlur result="blur" stdDeviation="4.333" in="SourceAlpha"/>
      <feComposite result="composite"/>
      <feComposite result="composite-2"/>
      <feComposite result="composite-3"/>
      <feFlood result="flood" flood-color="#1ddffc"/>
      <feComposite result="composite-4" operator="in" in2="composite-3"/>
      <feBlend result="blend" in2="SourceGraphic"/>
      <feBlend result="blend-2" in="SourceGraphic"/>
    </filter>
    <filter id="filter-19" x="132" y="547" width="35" height="35" filterUnits="userSpaceOnUse">
      <feGaussianBlur result="blur" stdDeviation="4.333" in="SourceAlpha"/>
      <feComposite result="composite"/>
      <feComposite result="composite-2"/>
      <feComposite result="composite-3"/>
      <feFlood result="flood" flood-color="#1ddffc"/>
      <feComposite result="composite-4" operator="in" in2="composite-3"/>
      <feBlend result="blend" in2="SourceGraphic"/>
      <feBlend result="blend-2" in="SourceGraphic"/>
    </filter>
  </defs>
  <g id="组_1_拷贝_2" data-name="组 1 拷贝 2" class="cls-1">
    <path id="形状_6" data-name="形状 6" class="cls-2" d="M688.257,559.986l18.9,6.963,6.963,3.979,3.979,1.989v-2.984l-1-5.968s-2.475-5.2-1.989-5.969,0.994-5.968.994-5.968,0.325-6.371,0-6.963-1.621-5.431-1.989-5.968,0.368-3.681,0-4.974,1.292-6.86,0-7.957-2.985-5.969-2.985-5.969l1-6.962L708.152,501.3s-1.818-4.333-1.99-4.974a19.927,19.927,0,0,0-1.989-2.984s0.038-3.439,0-7.957a81.443,81.443,0,0,1,1-10.942,23.332,23.332,0,0,1,0-6.963c0.63-2.877,2.935-9.767,2.984-10.942s2.267-8.739,1.989-9.947-1.989-10.942-1.989-10.942a64.1,64.1,0,0,0,0-7.957c-0.321-1.714,0-44.763,0-44.763l4.973-6.962,4.974-7.958s3.256-1.473,3.978-2.985,2.985-6.963,2.985-6.963l1-6.962s-0.952-5.5-1-5.969a35.722,35.722,0,0,1,1-3.978l-4.975-3.979H718.1a17.157,17.157,0,0,0-1-2.984c-0.4-.614-1.445-2.028,0-2.984a20.626,20.626,0,0,1,2.984-1.99,19.3,19.3,0,0,0,2.985-1.989l1.989-1.99s-0.1-2.989-1-3.979-2.985-2.984-2.985-2.984l-3.978-.994h-1.989l-1.99-3.979-1.99-2.984,1.99-4.974s0.446-6.121,1-6.963a47.639,47.639,0,0,0,1.989-4.973l1-1-1.989-3.979-1-1.989,2.984-.995-1-3.979-3.978-1-3.979,1.99s2.267-3.441,1.989-3.979a10.535,10.535,0,0,1,0-2.984l1.99-1.99,2.984-.994a16.447,16.447,0,0,1-1-2.984c-0.006-.641-1.756-3.208-1.989-4.974s-2.125-3.376-1-4.973a15.953,15.953,0,0,1,2.985-2.985,30.862,30.862,0,0,1,0-5.968c0.364-1.885,1.989-6.963,1.989-6.963l3.979-2.984,6.963,1.989,2.984,2.985h1.989l-2.983-6.963-2.984-3.979s-0.3-2.116.994-1.99,5.708,1.124,8.952,1a48.664,48.664,0,0,1,4.974,0,11,11,0,0,1-1,1.989c-0.734,1.208-2.983,4.974-2.983,4.974l2.983,1,5.969-1.99,4.973,1a6.188,6.188,0,0,0,1.99,1,3.165,3.165,0,0,0,2.984-1c-0.017-.255,0-2.984,0-2.984l-2.984-1.99-1.99-2.984a1.458,1.458,0,0,0-1.989-1,20.187,20.187,0,0,1-4.974,0,14.638,14.638,0,0,1-1-3.978c-0.022-1.554-1.641-2.893,0-3.979a5.276,5.276,0,0,1,2.985-1s1.668,0.32,1-1-2.985-4.973-2.985-4.973l-1.989-4.974-1.99-2.984,4.974,2.984,3.979,1v-4.973l0.994-1.99s0.93,1.336-.994-1-2.294-3.409-4.974-3.978-6.028-.127-7.958-0.995-2.331-1.632-3.979-1.99a22.519,22.519,0,0,1-5.967-2.984c-1.224-.884-3.223-2.311-3.98-2.984s-2.983-2.984-2.983-2.984h-2.985l-2.984,2.984s-1.6,1.553-2.984.995a12.977,12.977,0,0,0-4.973-.995,19.767,19.767,0,0,1-4.974-1l-2.985,1a40.059,40.059,0,0,0-2.983,4.974c-0.626,1.561-1.832,2.145-2.984,3.979s-3.989,3.906-4.974,3.978-3.979,1.99-3.979,1.99-0.135.439-1.989,0-4.212-1.137-4.974-1.99a25.09,25.09,0,0,1-1.989-2.984l-3.979,2.984-2.984,3.979H662.4l-2.984-1.989a19.621,19.621,0,0,1-3.979-1.99c-1.381-1.036-3.065-2.017-3.979-1.989s-5.968,0-5.968,0l-1.989,1s-1.13,3.053,0,2.984a47.062,47.062,0,0,1,5.968,1,7.354,7.354,0,0,1,.994,1.989c0.081,0.643,1,3.979,1,3.979l1,1.989,1.99,3.979s-0.679,2.38-1,1.989-5.521-.164-5.968,0-6.271-1.229-6.963-.994a12.348,12.348,0,0,1-2.984,0l1,2.984,1.989,3.979v5.968L643.5,237.7v1.989s0.479,1.76-2.985,1.99-7.957,3.979-7.957,3.979l-2.984,2.984v4.973l-2.985,1.99-6.962,2.984-5.969,1.989-7.958,1-8.952,1-6.963,3.978-1.989,3.979s2.545,0.766,2.984,2.984-0.623,4.49,0,2.985,0-5.969,0-5.969,2.2-1.278,2.984-.994,2.984-1,2.984-1l1.989-1.99h3.979l1.99,1.99,1.99-1,3.978-1h2.984l1-1.989,1.989,1,1.99-1.99h2.984l2.984,1.99,2.984-1a19.14,19.14,0,0,0,2.984-2.984,19.137,19.137,0,0,1,2.985-2.984h5.967l1,3.979,2.985,1.989,0.994,1.989a8.749,8.749,0,0,1,2.984,0c1.217,0.311,2.121-.5,3.979,0a15.4,15.4,0,0,1,3.979,1.99l-0.994,2.984-1,2.984-0.994,2.984,1.99,3.979,0.994,7.958-0.994,3.979-2.985,1.989-1.989-1.989,0.994,6.963,1.99,4.973-1,2.984v1.99l2.985,0.994,1.989,1.99,0.994,5.968-0.994,6.963s1.354,2.093-1.989,3.979-4.94.8-4.974,1.989-0.293,3.256-1,3.979-2.984,0-2.984,0-0.39-1.092-1,0-1.385,4.234-.994,4.974a27.55,27.55,0,0,1,.994,3.978l-0.994,2.985h-4.974v5.968a28.98,28.98,0,0,0-1,3.978c-0.11,1.2-1.836,3.246-1.989,3.979s-1,2.984-1,2.984l2.984,1.99,3.979,4.974v2.984l-3.979,2.984-1,3.979,1.99,7.958,2.984,3.978,2.984,3.979,1.99,4.974s0.006,4.349,0,4.973,0,2.984,0,2.984l0.994,4.974,1,2.984V425.7s-2.679,6.4-2.984,7.958,1.371,8.214,1,8.952-0.548,4.034,0,4.974a44.543,44.543,0,0,0,2.984,3.978c0.706,0.842,4.974,7.958,4.974,7.958s3.169,7.508,3.978,7.958a46.667,46.667,0,0,1,4.973,3.979c0.456,0.536,1.99,10.941,1.99,10.941l2.984,4.974,1.99,5.968,0.994,1.989,2.984,2.985s4.029,5.687,3.979,6.963,3.2,10.628,3.979,10.942,4.224,7.611,3.979,8.952-0.679,4.823,0,6.963,2.7,8.884,2.984,9.947-1.162,4.59-1,5.969,0,7.957,0,7.957v3.979Z" transform="translate(-60 -28)"/>
    <path id="形状_7" data-name="形状 7" class="cls-2" d="M719.094,573.912l5.968,2.984,5.968,2.984s5.778,2.254,7.958,2.984,9.947,2.984,9.947,2.984,5.644,4.31,7.957,4.974,15.5,4.96,16.91,5.968,9.948,4.974,9.948,4.974l7.957,2.984s2.989,2.136,4.974,1.989a29.834,29.834,0,0,0,6.963-1.989c1.561-.637,5.334-0.862,7.957-1.989s8.929-2.773,9.948-3.979,10-5.134,11.937-4.974,7.957-2.984,7.957-2.984,1.394-3.622,2.984-4.974,10.558-15.294,11.937-17.9,19.894-42.772,19.894-42.772,1.338-5.8.994-7.958,1.206-6.77,1-7.957,0.211-5.749,0-6.963,2.984-9.947,2.984-9.947-1.354-2.116,1-1.99,4.973,0,4.973,0l7.958-27.852s1.668-8.829,2.985-10.942,3.033-9.174,3.978-10.941,4.974-6.963,4.974-6.963,6.866-3.42,7.957-4.974,17.807-14.083,17.9-14.92,2.984-8.953,2.984-8.953l0.995-4.973-1.99-1.99-5.968-1H924l-2.983-3.978-3.98-1.99-7.957,4.974-1-2.984,2.984-5.969,1-3.979-6.962-.994-2.985,1.989-5.969,4.974-2.983,2.984-2.985-1-1.989,2.984-5.968-.994s-0.2.689-2.984,0a18,18,0,0,1-4.974-1.99c-0.967-.5-3.793-2.533-4.973-2.984s-2.72-.411-3.979-1a20.26,20.26,0,0,0-3.979-.994h-3.979l-2.984,1.989-1,2.984v3.979l-1.989,2.984-1.989,1-3.979-1-2.985-1.989,1.99-1.99-1.99-1.989h-2.984l1.99-2.984,0.994-2.984,1.99-1,1.989,1.989H849.4v-3.979l0.994-.994-1.989-2.984-1.99-1.99,1.99-2.984,1.989-.994h5.969v-1.99L852.385,369l-3.979-2.985a15.829,15.829,0,0,0-2.984-1c-0.983-.118-2.281-0.067-2.985-0.994s-3.009-1.845-2.984-3.979a47.1,47.1,0,0,0-.994-6.963c-0.333-2.159-1.206-6.766-.995-7.958s-1-6.962-1-6.962l-2.983-1h-3.98s-6.536,1.045-6.963,1.989-4.294,2.73-5.968,3.979-3.312.926-4.974,1.989-3.179,2.425-2.984,2.985a41.8,41.8,0,0,1,0,4.973l-2.984,2.984-1.989,2.984-5.969,1-1.989,1,1,4.973-3.979,1.99v3.979l2.984,3.979,1,1.989-1.989,3.979-2.985,1.989s-3.416.9-3.979,1.99a4.367,4.367,0,0,1-3.978,2.984c-2.9.358-6.891-.358-8.953,0s-7.951,1.22-8.952,0-4.974-1.99-4.974-1.99-2.724-.239-2.984-1.989-2.984-3.979-2.984-3.979l-1.989-1.989,0.994-5.968L755.9,369l-1-2.985s-1.928-2.826-2.984-2.984-2.618,1.246-3.979,1-1.9-1.248-2.984-1.99a35.2,35.2,0,0,0-3.979-1.989l-1,1.989H736l-4.973-.994-1.989,3.978-1,3.98-3.979,1.989-3.979-2.984L716.109,370s-1.9,6.8-3.978,7.958-4.974,6.963-4.974,6.963l1,51.725,2.983,7.957v4.974s-4.167,6.158-3.978,6.963-1.989,13.926-1.989,13.926l-1,7.958-1,7.957,1,5.969s3.472,2.381,2.984,3.978,3.074,8.377,2.984,9.948,2.49,7.541,1.99,8.952a44.922,44.922,0,0,0-1,5.968l2.985,3.979s0.461,4.054,0,4.974-1.3,6.654-1,7.957,1.99,5.968,1.99,5.968l0.994,3.98V558l-0.994,1,0.994,3.979,1.99,3.979v3.979Z" transform="translate(-60 -28)"/>
    <path id="形状_8" data-name="形状 8" class="cls-2" d="M720.088,368.007L723.073,370l1.989,1L727.051,369l1-3.98,1.989-2.984,2.984-.994,3.98,0.994,3.978-.994v-1.99l4.974,3.979,2.984,1,2.984-1,1.989,1,1,3.979-1.989,3.979v8.952l4.973,2.984s1.837,3.09,2.984,2.984a25.5,25.5,0,0,1,4.974,1s4.606,2.6,6.963,1.99,8.107-2.13,8.952-1.99,3.645-.889,4.974-1,2.984-2.984,2.984-2.984l3.979-1s3.169-3.149,2.984-3.978-0.063-.421,0-1.99-3.979-5.968-3.979-5.968v-2.984l1.99-1,1.989-1v-3.979l-1-1.989,6.963-1s2.7-.719,2.984-1.989a8.724,8.724,0,0,1,1.99-2.984l0.994-1.99v-4.973l1-1.99,6.963-1.989,3.979-2.984a12.952,12.952,0,0,1,3.978-1.989c1.975-.479,3.508-0.768,4.974-1a11.767,11.767,0,0,0,2.984-1v-6.963s-2.956.7-1.989-1,1.989-3.978,1.989-3.978l1.99-2.985v-1.989l1.989-2.984,2.984-2.984,1.99-1.99-1-4.973s-0.952-.853-1.989-1.99a27.386,27.386,0,0,0-3.979-2.984l-0.994-2.984,2.983-1.989L834.48,293.4s-1.458-3.129-.994-3.979,0-3.979,0-3.979l-3.98-1.99s0.2-1.371-2.984-1.989-4.918.476-4.973-1a3.739,3.739,0,0,0-1-2.984,51.3,51.3,0,0,1-2.984-4.973s1.326-1.688-1-1.99-3.173,1.38-3.979,0-2.082-2.728-2.984-3.979-1.989-2.984-1.989-2.984-0.78-3.377,0-3.978,3.186-4.418,2.983-4.974,0.819-1.267,0-1.989a8.168,8.168,0,0,1-1.989-1.99c-0.523-.889-1-1.242-0.994-1.989s1.989-2.984,1.989-2.984l0.994-.995a9.7,9.7,0,0,0,0-3.979c-0.509-1.414-1.466-1.783-1.989-2.984a12.473,12.473,0,0,1-.994-4.974c0.163-1.31,1.209-3.26.994-3.979a6.822,6.822,0,0,1,1-4.973c1.255-1.6,3.636-.675,2.984-2.984a10.3,10.3,0,0,0-1.99-3.979c-0.663-.948-1.761-3.609-2.983-4.974s-2.591-1.973-2.984-3.978,0.994-7.958.994-7.958v-2.984s0.016-2.443-.994-1.99a27.711,27.711,0,0,1-2.984,1s-3.772.824-3.98,1.989-3.978,3.979-3.978,3.979l-3.979-.994-1.99-.995s0.143-.7-1.989-1-4.973-1-4.973-1l-2.985-1.989-3.979-1-3.978,1s-0.527,4.328-1,4.974-1.97,1.164-1.99,2.984a21.331,21.331,0,0,0,.995,4.973,13.835,13.835,0,0,0-1.989,1,9.712,9.712,0,0,1-2.984.995c-1.431.4-4.358-.542-4.974-0.995a21.561,21.561,0,0,0-1.989-1.989c-1.552-1.236-.579-1.666-1.99-1.99s-2.248-.754-2.984,0-1.24,1.685-1.989,1.99,1.506,1.968.994,2.984-0.848,2.038-1.989,1.989,0.242,0.973-1.989,0a43.02,43.02,0,0,1-3.979-1.989s-0.362,2.334,0,2.984,2.077,1.018,1.989,1.989-0.99,2.534,0,2.984a23.463,23.463,0,0,1,2.985,1.99,11.78,11.78,0,0,1-2.985,1.989c-1.32.476-2.351-.642-1.989,1s1.012,3.857.994,3.979,0,2.984,0,2.984a39.571,39.571,0,0,1,4.974.994,4.341,4.341,0,0,0,1.989,0,7.978,7.978,0,0,0,1.99,2.985c1.349,1.166,3.979,3.979,3.979,3.979a1.674,1.674,0,0,1,0,1.989c-0.782.9-.579,0.939-1.99,1s-1.631-.2-2.984-1a7.3,7.3,0,0,0-2.984-1,20.435,20.435,0,0,0-3.979,1l-2.984,1.989-2.984-1.989s-2.326-.268-0.994-1,2.942-1.853,2.983-2.984,0-2.984,0-2.984-0.785-1.379-1.989-1a44.574,44.574,0,0,1-6.963,1c-1.171,0-4.973,0-4.973,0s0.8,2.575.994,2.984,2.7,3.082,2.984,3.979a44.463,44.463,0,0,0,1.989,3.979s1.705,0.76,0,.995-0.58,1.305-1.989,0-3.468-2.507-3.978-2.985-2.379-.588-2.984-0.994a16.767,16.767,0,0,0-1.991-1s-1.358-.9-1.988,0a16.8,16.8,0,0,0-1.99,4.974c-0.182,1.312-2.244,1.1-2.984,3.978a45.411,45.411,0,0,0-1,7.958c-0.053,1.08-2.989,1.962-2.984,2.984s1.2,2.624,1.99,3.979,2.421,3.369,1.989,3.979,1,3.979,1,3.979-4.671,1.033-4.974,1.989a16.912,16.912,0,0,0,0,3.979s-2.456,1.612-1,1.989,6.963,1,6.963,1l1,1.989s0.8,1.5,0,1.99a15.107,15.107,0,0,1-2.984.995l2.984,3.978a4.407,4.407,0,0,1-1,2.985c-1.189,1.614-4.458,6.614-3.978,6.963s0.136,3.592,0,4.973-1,4.974-1,4.974a10.861,10.861,0,0,1,1.99,2.984c0.409,1.277,1,3.979,1,3.979a12.569,12.569,0,0,1,2.984,0c0.9,0.224,6.963,2.984,6.963,2.984l1,3.979a2.835,2.835,0,0,1-1,1.989c-0.985.82-4.973,3.979-4.973,3.979s-3.181,1.286-2.985,1.989,1,2.984,1,2.984-0.139,1.794,1,1.99,3.127-1.274,3.978,0,2.985,3.979,2.985,3.979l1,0.994v3.979l-1,1.99a24.47,24.47,0,0,1,1,2.984c-0.049.284,0,2.984,0,2.984a42.4,42.4,0,0,1-1.99,3.978c-0.676,1.021-2.985,6.963-2.985,6.963Z" transform="translate(-60 -28)"/>
    <path id="形状_9" data-name="形状 9" class="cls-2" d="M540.046,356.07l-1-4.973s0.124-.667-1-1-4.973-.995-4.973-0.995l-1.99-.994v-2.985l1.99-1.989,3.978-1,1-.994,1-2.984,1-2.985,2.984-.994,1-1-1.99-2.984-2.984-1.99-2.984-.994s-2.56-.652-3.98-1-4.631-1.477-4.972-1-2.985-.994-2.985-0.994l-0.994-1.99-1.99-1.989-1-3.979,1.99-1.99s2.861-.029,2.984-0.994,2.984-2.984,2.984-2.984,2.392-.112,2.984-1a27.994,27.994,0,0,1,2.984-2.984s1.966-.828,1.99-1.99,0.78-2.1.994-2.984,3.8-3.342,4.974-3.978a27.522,27.522,0,0,1,4.974-1.99,47.108,47.108,0,0,0,4.973-1.989l1.99-1.99,1.989-3.979-1-2.984a1.756,1.756,0,0,1-.994-1.989,29.818,29.818,0,0,1,1.989-3.979s0.682-1.4,1-1.989,0-3.979,0-3.979h4.974l1.988-1.99a6.832,6.832,0,0,0,1-1.989,16,16,0,0,0,0-3.979l-1.989-2.984v-1.989l0.994-1s3.893,0.935,4.974,1,2.471-.4,3.979,0,4.974,0.994,4.974.994a9.124,9.124,0,0,1,2.984,1,46.837,46.837,0,0,0,5.968,1.989l1,2.984v2.985l-1,.994,4.973,2.984v3.979l1-6.963,3.979-1.989,4.974-1.99,3.978,2.985,1.99-1s4.457-.89,4.973-1,4.974-1.989,4.974-1.989,3.436-2.306,3.979-1.99,3.979,1.99,3.979,1.99,1.654,0.656,1.989,0,1.99-2.984,1.99-2.984l4.973-2.984,2.984-1,1.989,1.989a5.15,5.15,0,0,1,1.99,1.99c0.471,1.141,1.645,2.115,1.99,2.984s4.973,0.994,4.973.994l5.969,1,0.994,1s-0.223,3.3-.994,3.979a15.6,15.6,0,0,0-1.99,2.984l0.994,4.973s2.062,1.724,1.99,2.984a35.019,35.019,0,0,0,0,5.969c0.267,0.883-1.99,3.979-1.99,3.979l-0.994.994-2.984-2.984,0.994,5.969s-0.836,2.833,0,3.978,1.99,2.984,1.99,2.984v1.99l-1,2.984v1h3.979l1.989,4.973s0.367,5.065,0,5.968a56.671,56.671,0,0,0-.994,5.969l-1,2.984-4.974,1.989-0.994,2.984s-1.066,2.6-1.99,1.99a11,11,0,0,1-1.989-1.99l-2.984,2.985,2.984,4.973-1,3.979-2.984,1h-2.984V351.1l0.994,3.978-0.994,2.984-1.99,2.985-1.989,2.984,1.989,1.989a7.547,7.547,0,0,1,2.984,1.99c0.936,1.25,1.99,2.984,1.99,2.984s0.038,2.788,0,2.984a18.222,18.222,0,0,0-1.99,1.99c-1.1,1.425-1.355.69-1.989,1.989s-2.034,2.084-1,3.979,1.246,4.959,1.99,5.968,1.2,5.506,1.989,5.968,3.274,0.806,3.979,1.99a16.082,16.082,0,0,1,1.99,4.973c0.24,1.632-.41,1.752,0,3.979a17.943,17.943,0,0,1,0,4.974v1.989l-2.984-1-4.974-.994s-2.477-.3-2.984,0-1.565,2.276-2.984,2.984-4.974,2.984-4.974,2.984l-2.984,1h-2.984l-1-1.99-1.989-.994s-4.5-.347-4.974-1-2.44-2.314-2.984-1.99a30.239,30.239,0,0,1-3.978,1s-0.933-.3-2.985-1-1.375-1.084-2.984-1.989a12.891,12.891,0,0,1-3.979-2.984c-1.527-1.648-2.873-2.922-3.979-3.979s-1.982-2.031-2.984-2.984,1.6-1.162-1.989-1.99-6.963-1.989-6.963-1.989l-1.99-1.989s0.225,0.45,0-1,2.931-3,3.979-2.984,2.379-1.961,2.984-1.99a6.562,6.562,0,0,0,1.99-.994s1.553-.583,0-1-5.968,0-5.968,0l-3.979-.995s0.416-3.289,0-3.979-0.049-2.228-1-2.984a8.383,8.383,0,0,0-2.984-1.989,5.234,5.234,0,0,1-1.989-1h-2.985s0.148-.152-0.994-0.994a2.263,2.263,0,0,1-1-1.99V369l-2.985-1.99h-2.984l3.979-3.979-2.983-1s-1.182-1.836-1.99-2.984a23.317,23.317,0,0,0-2.984-2.984l-2.984,1.989s-2.149.493-2.984,0-1.619-.141-1.99-0.994a7.406,7.406,0,0,0-1.989-1.99s-1.194-1.431-1.99-.994-2.984,1.989-2.984,1.989h-1.989Z" transform="translate(-60 -28)"/>
    <path id="形状_10" data-name="形状 10" class="cls-3" d="M391.834,468.472l1.99,2.985a29.175,29.175,0,0,1,3.978,0,8,8,0,0,1,1,.994c0.443,0.342.158,1.069,0.994,1s2.355,0.768,2.985,0a2.773,2.773,0,0,1,1.989-1c0.955-.236.71-2.353,1.99-1.989a18.109,18.109,0,0,0,2.984,1,10.712,10.712,0,0,1,3.978,1.989c0.8,0.62,2.28,2.8,2.985,2.984s1.19,1.345,1.989,1,4.974-1.989,4.974-1.989l2.984-1.99a15.7,15.7,0,0,0,1.989,0c0.918-.074,2.042.768,2.984,0s2.018-2.191,2.984-2.984a32.8,32.8,0,0,1,2.985-1.99,4.017,4.017,0,0,0,1.989,0c0.738-.307,1.99.446,2.984,1s4.325,2.157,4.973,1.99,2.681-1.983,3.979-2.985,3.536-2.189,3.979-2.984a6.265,6.265,0,0,1,3.979-1.989c1.209,0.038,6.122-.037,6.963,0s4.973,0,4.973,0,1.146-2.187.995-2.984a22.78,22.78,0,0,1,0-3.979c0.081-.289,1.989-2.984,1.989-2.984l4.974-1,4.974,1.99h3.978s-0.48-3.178,0-3.979a15.548,15.548,0,0,0,1-2.984l-1-4.974s-2.331-.93,0-1,5.969,0,5.969,0,1.251-1.253,1.989-1.989,1.99-1.99,1.99-1.99-0.832-4.4,0-5.968a22.1,22.1,0,0,1,2.984-3.978c0.741-.835-0.233-1.547,1.989-2.985s2.984-1.989,2.984-1.989,1.478-3.187,1-3.979-1.483-2.283,0-2.984a14.367,14.367,0,0,1,2.984-1l-0.994-3.979s-2.2-7.46-1.99-7.957-0.674-3.179,0-3.979,5.968-1,5.968-1l8.953,1s5.956,1.032,6.963,0,0.773-2.253,1.989-1.99,3.27,0.453,3.979,1,7.958,1.99,7.958,1.99L548,400.832s0.536-1.883,0-1.989a2.725,2.725,0,0,1-1.989-1c-0.629-.847-0.92-1.859-1.989-1.989s-4.829-.355-4.974-1-1.5-1.487-1-1.989,1.626-2.689,1.99-2.984,0-2.985,0-2.985-2.542-2.175-2.985-3.979-0.273-2.567-.994-3.978-2.1-3.907-1.99-4.974,0-4.973,0-4.973,0.489-2.029,1-3.98,1.969-3.577,1.989-3.978a20.861,20.861,0,0,1,1.99-2.985,24.286,24.286,0,0,0,1-2.984c-0.071-.218-1.225-2.394-1-2.984s-3.559-2.6-3.979-2.984-4.973-.994-4.973-0.994-1.358-1.1-1.99-1a34.224,34.224,0,0,0-3.979,1.989v1.99s-2.6,1.838-2.984,1.989-2.984,1-2.984,1a3.207,3.207,0,0,1-1.989.994c-1.424.245-4.974-.994-4.974-0.994a7.468,7.468,0,0,0-1.989.994c-0.478.476-2,.7-1.99,1s-0.262-1.955-1-1.989a2.5,2.5,0,0,1-1.989-1,58.15,58.15,0,0,1-3.979-5.968h-2.984l-1.989,1-1-1.99-1-1.989h-6.963l-4.973-1s-1.869-1.673-2.984-1-5.614,3.091-5.969,2.984-1.7,1.287-3.978,1-1.609,1.218-2.985,0a42.357,42.357,0,0,1-3.979-3.979c-0.52-.71-2.091-0.469-2.983-0.994s-3.479-1.465-3.979-1-1.99-.995-1.99-0.995l-2.984.995a8.441,8.441,0,0,0-1.99,1,1.291,1.291,0,0,1-1.989,0,10.334,10.334,0,0,1-1.989-2.984,24.008,24.008,0,0,1-1-2.985s-1.921,0-3.979,0-3.835,1.175-9.947,1-14.921,0-14.921,0a22.237,22.237,0,0,1-1.989,1.99c-0.426.26-2.984,1.989-2.984,1.989s-2.14-.861-1.989-1.989-0.867-3.358-1-3.979-1.99-1-1.99-1a4.936,4.936,0,0,1-1.989,1.989,54.563,54.563,0,0,1-5.969,1.99s-5.693,3.81-6.962,3.979a5.633,5.633,0,0,0-2.984.994,12.415,12.415,0,0,1-1.99,1l-0.994-3.979a1.473,1.473,0,0,0-1.99,0c-1.064.886-1.179,1.936-1.99,1.99s-1.547-1-1.989-1-0.507-2.5-.994-2.984,0.14-2.479,0-2.984a4.225,4.225,0,0,1,.994-2.984c0.716-.53.81-0.673,1-1.99a5.259,5.259,0,0,0-1-2.984l-2.984-3.979s1.2-2.45,1-2.984,0.458-2.194,1-2.984-0.051-1.685.994-1.99,2.124,0.746,1.989-.994-1.392-3.739-.994-6.963-0.166-2.419,0-3.979,0.759-2.789,0-2.984a1.536,1.536,0,0,1-1-1s-3.217-2-3.978-1.989a28.216,28.216,0,0,1-3.98-1,23.4,23.4,0,0,1,0-3.979c0.209-1.5-.994-4.973-0.994-4.973a4.409,4.409,0,0,0-1-3.979c-1.621-1.569-2.75-3.381-3.979-3.979s-2.794-1.877-3.979-1.989-2.954-1.067-3.978-1-4.758-.557-4.974-1-4.973-1-4.973-1-3.111,1.9-3.979,1a10.761,10.761,0,0,1-1.99-1.989c-0.614-.994-1.4-1.944-1.989-1.99a8.425,8.425,0,0,1-2.984,0c-1.195-.393-4.974,0-4.974,0s-2.341.3-2.984,1-1.369.622-1.989,1.989a25.5,25.5,0,0,1-1.99,3.979c-0.714.975-2.455,3.28-1.989,3.979s0.135,4.5.994,4.974a4.165,4.165,0,0,1,1.99,2.984,6.668,6.668,0,0,1,0,2.984l-1,1,1.99,0.994h1.989s-1.6,3.064-1.989,3.979-1.232,3.8,0,3.979,1.96,1.952,2.984,1.989a8.74,8.74,0,0,0,2.984-.994s2.352,1.21,1.989,1.989a52.777,52.777,0,0,0-1,5.968,9.5,9.5,0,0,0,1,2.984,6.814,6.814,0,0,1,1,1.99l-1.99,3.979s-1.718,3.353-1.989,3.979a20.053,20.053,0,0,0-.995,3.978c0.03,0.581.995,4.974,0.995,4.974l2.984,3.979h4.974l1.989,1s1.238,1.982,1.99.994a5.435,5.435,0,0,1,2.984-1.989c0.776-.041,3.979,0,3.979,0l1.989,1.989-1.989,1.99s-1.008,2.212-1.99,1.989-7.439-3.733-3.979-1,5.969,4.974,5.969,4.974l2.984,1.989a1.607,1.607,0,0,0,1-1.989c-0.471-1.425-1.867-5.652-1-5.968s1.989,1.989,1.989,1.989l1.99,6.963s0.7,5.237.994,5.968,1,4.974,1,4.974l1,1.989-2.984,2.984L353.04,369s1.672,1.6,1.99,1.989,4.052,3.52,3.978,3.979a6.045,6.045,0,0,0,1,1.989l1.99,2.984s-1.131,2.152-1,2.984a2.037,2.037,0,0,1-1,1.99c-0.721.579-1,2.984-1,2.984A36.525,36.525,0,0,1,361,391.88a20.894,20.894,0,0,0,1,2.984L360,396.853s0.3,2.146,1.99,1.99a24.887,24.887,0,0,1,2.984,0c1.016-.04,1.989,0,1.989,0s0.048,2.537,0,2.984,0.163,3.345,0,3.979a25.661,25.661,0,0,0,0,2.984c-0.047.311,0.648-.058,1,1a13.842,13.842,0,0,0,1.989,2.984s-0.835,1.976,2.985,1.989a65.517,65.517,0,0,1,9.947,1c1.626,0.291,4.409.866,5.968,0s3.506-2.281,3.979-1a17.825,17.825,0,0,0,1.989,2.984c-0.012.154,0.244,2.691,0,2.985s-1.989,2.984-1.989,2.984a11.011,11.011,0,0,1-3.979.994c-1.566-.1-3.847.236-3.979,1s-1,3.979-1,3.979l1.99,2.984,0.994,3.979,1.99,2.984a4.021,4.021,0,0,1,0,1.989c-0.293.928-3.13,4.392-2.984,4.974s-1.673,2.631-1,3.979,1.935,4.2,2.984,4.973,3.922,4.178,4.974,3.979,3.978,1,3.978,1a3.713,3.713,0,0,1,1,0,61.342,61.342,0,0,0-4.973,3.979l-1,2.984v0.994Z" transform="translate(-60 -28)"/>
    <path id="形状_11" data-name="形状 11" class="cls-2" d="M368.955,293.4a17.039,17.039,0,0,1,3.98,0c1.345,0.291,5.13-.741,5.967-1a16.508,16.508,0,0,0,2.985-1.99s0.105,1.235,1.989,1a16.109,16.109,0,0,0,4.974-1.989c0.271-.211.767-4.866,1.989-5.969s3.979-2.984,3.979-2.984a7.361,7.361,0,0,1,2.984-.994c1.119,0.076,8.953,0,8.953,0s0.161,1.994.994-1a23.167,23.167,0,0,1,1.99-4.974s-0.944-.952,0-2.984,1.215-3.154,1.989-4.973-0.324-2.639,1-3.979,0.588-2.808,2.984-2.984,6.8-.553,7.958-1,2.15-.818,2.984,0a48.654,48.654,0,0,1,2.984,3.979c0.37,0.479,1.229.529,1.989,1s4.974,0.994,4.974.994a40.222,40.222,0,0,1,3.979,2.984c0.768,0.827,7.958,3.979,7.958,3.979l0.994,3.979s-0.048,1.28,1,1,6.962-1,6.962-1a5.518,5.518,0,0,0,1.99-1c1.471-.956,4.866-0.613,5.968-0.994s4.084-2.2,4.974-1.99,8.952-3.979,8.952-3.979,3.31-2.034,4.974-2.984,6.963-2.984,6.963-2.984-0.021-5.15,0-5.968-1.281-1.51,0-2.984a18.436,18.436,0,0,0,2.984-3.979,14.659,14.659,0,0,0,1-2.984s-0.045-2.467,1.989-1.99a15.74,15.74,0,0,0,4.974,0l1.989-.994,1.989-2.984,3.979-1.99,2.984,1.99s4.788-.846,4.974-1-0.016-1.421,1-.995a3.179,3.179,0,0,1,1.989,2.984c-0.138,1.362-1.989,3.979-1.989,3.979l2.984,1,1,2.984-1.99,1.989-2.984-1.989s-1.784.465-1.989,1,0.374,1.658.994,2.984,0.08,3.411,0,3.979a24.748,24.748,0,0,0-.994,2.984c-0.065.943-.694,3.2-1.99,2.984a18.58,18.58,0,0,0-3.979,0c-0.677.059-2.491-.62-2.984,0a11.817,11.817,0,0,0-1,2.984,19.691,19.691,0,0,1-1.989,1.989c-0.589.407-1.231,1.753,0,1.99s0.228,0.043,1.989,0a14.615,14.615,0,0,0,3.979-1c0.723-.168,7.958,1.99,7.958,1.99l3.979,3.978-1.99,1.99s-1.725.764-.994,1.989a16.041,16.041,0,0,0,2.984,2.984v4.974s0.6,5.368,1,5.968,3.979,3.979,3.979,3.979l1.989-.995,1.989,2.985,2.984,2.984,1.99,0.994-2.984,6.963a29.765,29.765,0,0,0-4.974,1,21.079,21.079,0,0,0-3.979,2.984c-0.6.713-2.565,3.3-2.984,2.984s-0.591.2-1,1,2.985,6.963,2.985,6.963l1.989,1.989s2.864,0.628,4.974,1,0.557-.478,4.973,1,5.42,1.106,5.969,1.989a10.36,10.36,0,0,0,1.989,1.99v1.989l-2.984,2.984-1.99,3.979a27.72,27.72,0,0,1-1.989,2.984c-0.078-.162-2.53-0.678-2.984,0s0.145,0.5-1,1.989a15.133,15.133,0,0,1-3.978,2.985s0.352-.606-0.994,0-4.232,2.283-3.979,2.984-0.872,2.887-1.99,2.984,0.61,1.192-2.984.994-0.863,1.6-3.979,0-1.312-4.481-2.984-1.989-2.984,2.984-2.984,2.984a7.987,7.987,0,0,0-1.99-2.984c-1.178-.868-3.839-3.169-3.978-3.979s-1.99-1.989-1.99-1.989-2.917-.34-2.984,0a3.377,3.377,0,0,1-1,1l-1.989-3.979a16.289,16.289,0,0,0-4.974-1c-1.909.119-3.306,2.851-5.967,1s-3.98-2.984-3.98-2.984a18.934,18.934,0,0,0-2.984.994c-1.158.554-4.168,2.755-4.974,2.984s-5.25,1.341-5.968,1-3.039-1.422-3.979-2.984-0.659-2.586-1.989-2.984-6.963-.995-6.963-0.995l-2.984.995-2.984,1.989s-1.3-1.9-1.99-2.984-1.048-2.225-1.989-2.984-4.973-1-4.973-1a6.711,6.711,0,0,1-4.974,1.99c-3.174-.074-10.9.773-11.937,0s-4.288-.8-4.973-1-2.984,1.99-2.984,1.99l-2.984,1.989-2.984-1.989-1-4.974-2.984,1a2.4,2.4,0,0,1-1.99,1.989c-1.725.221-11.936,3.979-11.936,3.979a1.822,1.822,0,0,1-1.99,1.989c-2.08-.147-4.057-0.751-3.978-1.989a13.245,13.245,0,0,0,0-1.989l-2.984,1.989s-1.022,2.078-1.99,0-2.451-3.249-1.989-4.974,0.267-3.013.994-3.978,1.989-2.985,1.989-2.985,1.124-1.236,0-1.989-1.765.274-2.983-1.989-2.761-3.035-1.99-3.979,2.117-2.813,2.984-3.979,2.581-1.273,2.985-1.99,1.586-.881.994-1.989-2.267-3.8-1.99-4.974-0.277-4.572,0-4.973a7.114,7.114,0,0,0,0-2.984c-0.142-.217.254,0.188-0.994-1s-3.35-1.536-3.979-1.989a19.263,19.263,0,0,0-3.979-1Z" transform="translate(-60 -28)"/>
    <path id="形状_12" data-name="形状 12" class="cls-2" d="M537.061,301.361a41.182,41.182,0,0,1,3.98-3.978c1.55-1.213,3.978-2.985,3.978-2.985a41.817,41.817,0,0,0,4.974-.994,27.745,27.745,0,0,0,3.979-2.985,14.636,14.636,0,0,0,1.989-2.984s-0.731-2.031-1-2.984-2.285-2.719-.994-3.979,3.979-6.963,3.979-6.963a0.994,0.994,0,0,1,0-.994c0.293-.57,2.983-1,2.983-1l4.974-1-1-5.968-1-3.979v-0.994s6.372-1.308,6.963-1,13.926,3.979,13.926,3.979l1.99,3.978,1,1s0.358-2.918,1.989-2.984a31.751,31.751,0,0,0,4.974-1s3.1-2.3,3.978-1.989,12.751,1,14.921,0,12.931-4.974,12.931-4.974l1.99-2.984s2.568-.506,1.989-1.989-0.994-2.984-.994-2.984l4.973-2.984,3.979-2.985,4.974-.994V237.7l-1-1.99s-1.9-1.393-1.99-2.984a28.394,28.394,0,0,1,0-3.979c0.1-1.711-1.839-2.891-1.989-3.978s-1.99-2.985-1.99-2.985-4.458,2.022-5.968,2.985-3.964,1.525-4.973,1.989-4.974,1.989-4.974,1.989l-3.979.995-2.984,2.984a1.205,1.205,0,0,1-1.989,0,23.013,23.013,0,0,0-3.979-2.984s-1.681-.774-1.99-0.995-5.968-1.989-5.968-1.989-2.125-2.892-2.984-2.984-2.984-3.979-2.984-3.979a7.312,7.312,0,0,0-2.984-.995c-1.227.036-3.979,0-3.979,0s-3.941,2.392-4.973,2.984-4.974,1.99-4.974,1.99-2.022.405-3.979,1-2.773.9-4.973,0-2.65.029-2.985-1-0.723-2.149-1-2.984-1.471-2.212-1.988-1.99,0.205,0.71-1,0-2.345.211-2.983-1-2.721-2.526-2.985-2.984-1.293-2.03-1.99-1.989-0.174-.666-0.994-1.989-0.923-2.595-1.989-2.984-3.164-.3-3.979-1a37.79,37.79,0,0,0-3.979-3.979,9.941,9.941,0,0,1-2.984-4.974h-2.984s-5.417,1-5.968,1-5.969,1-5.969,1l-3.979,1.989a21.451,21.451,0,0,0-2.984,1.99c-0.851.794-.579,2.565-0.994,2.984s-1.141,2.381-1.99,2.984a11.122,11.122,0,0,0-1.989,2.984l2.984,2.984v1.989a11.844,11.844,0,0,0-2.984,1c-0.35.409-3.979,0-3.979,0l-0.995,2.984s-3.2-.97-1.989-2.984,0.534-2.962,1.989-3.979,2.984-3.978,2.984-3.978,1.408-3.094,1.99-3.979a19.728,19.728,0,0,0,1.989-3.979c0.456-1.379,1.99-5.968,1.99-5.968l-1-2.985H509.21s-6.5-.3-6.963,0-1.99-2.984-1.99-2.984-3.332-.434-3.979-0.994a9.8,9.8,0,0,0-2.984-1s-3.045-1.916-1.989-2.984,2.43-1.672,3.979-3.979a38.1,38.1,0,0,0,2.984-5.968s-0.987-1.3,0-1.99,1.5,0.187,1.989-.994,1.255-4.48,1.99-4.974,0.509-2.12.994-2.984a3.671,3.671,0,0,0-.994-3.979,24.743,24.743,0,0,1-2.985-4.973s-5.407,3.1-5.968,2.984-4.974-1.99-4.974-1.99-0.624-5.366-.994-6.963,0.058-3.692-1-4.973a13.163,13.163,0,0,0-1.989-1.99l-3.979-.994-1.989-1,2.984-2.984,0.994-5.968s-0.257-.223-0.994-1-3.746-1.529-5.968-1.99-5.554-.6-6.963-0.994-4.974-1-4.974-1-1.766.772-1.99,1.989-1.989,6.963-1.989,6.963a24.955,24.955,0,0,0-1.99,4.974c-0.157,1.393.843,5.638,1,6.963s1.091,6.079.994,6.963-1.99,9.947-1.99,9.947-1.151,4.042-2.983,5.968a8.448,8.448,0,0,0-1.99,4.974c-0.215.866,0.654,2.866,1.99,2.984s6.627,3.554,6.962,3.979,2.985,2.984,2.985,2.984l-1,2.984,1.989,2.984s0.974-.478,1,0.995-2.076,7.049-2.984,6.963-6.963,1.989-6.963,1.989a35.252,35.252,0,0,0,1.99,4.974c0.524,0.59.994,4.973,0.994,4.973l1,3.979s2.4,2.9,2.984,1,0.042-7.551,1.989-6.963,3.089,2.585,2.985,2.984-2.985,6.963-2.985,6.963l-2.984,1.989s-1.205,3.155,0,2.985a5.788,5.788,0,0,1,2.984.994l-2.984,1.99,2.984,0.994,2.985,2.984v2.985l2.983,1.989a1.1,1.1,0,0,0,1.99,0c1.071-1.485,4.974,0,4.974,0l-1,1.99h2.984l1,4.973-2.984,2.984s-4.03,3.446-1.99,3.979a33.277,33.277,0,0,1,4.974,1.99s-0.734,5.193-1,5.968-1,4.973-1,4.973-1.106,2.773,0,1.99,4.681-.773,5.969-1.99,3.978-3.978,3.978-3.978L492.3,256.6s-0.1-3.767,0-4.973-0.348-4.827.994-4.974,2.984-1.989,2.984-1.989-0.468-2.095,1-1.99,4.974,0,4.974,0l4.973-2.984s-0.083-2.969,2.984-1.989a24.971,24.971,0,0,0,6.963,1,21.052,21.052,0,0,0,2.984-1.99,46.7,46.7,0,0,0-.994,4.974,9.319,9.319,0,0,0,.994,1.989l2.985,3.979a19.594,19.594,0,0,0-2.985,1c-0.916.473-3.313-1.405-3.978,0s0,5.968,0,5.968a5.547,5.547,0,0,1,0,2.984c-0.479,1.4-1.078,4.138-1.99,3.979s-5.968-1-5.968-1a23.974,23.974,0,0,1-1.99,3.979c-0.594.583-1.989,1.989-1.989,1.989l2.984,1.99s3.9,0.414,4.974,0,1.849-1.264,3.979,0a18.152,18.152,0,0,1,3.978,2.984c1.133,1.074-.994,5.968-0.994,5.968s-1.382-.2,0,1a7.711,7.711,0,0,1,1.989,2.984s0.92,4.1,1,4.974a36.985,36.985,0,0,0,1.989,4.973,32.336,32.336,0,0,0,1.989,3.979,15.441,15.441,0,0,0,1.99,1l1.99-1.99,1.988,4.974Z" transform="translate(-60 -28)"/>
    <path id="形状_13" data-name="形状 13" class="cls-2" d="M539.051,197.911l1,3.979,1.989,2.984,3.979,1.99,2.984,1h2.984v1.989a21.223,21.223,0,0,0,1.99,2.984,21.265,21.265,0,0,1,1.989,2.984l2.984,1V218.8h2.985l2.983,0.995v3.979s2.37,2.537,2.985,1.989,4.973-.994,4.973-0.994a30.915,30.915,0,0,0,3.979-1c0.886-.4,5.968-2.984,5.968-2.984l3.979-1.99h5.968l2.985,3.979s0.5,2.577,1.989,2.984a20.79,20.79,0,0,1,3.979,1.99c0.513,0.269,5.522,3.153,5.968,2.984s2.166,0.654,2.984.994a7.515,7.515,0,0,1,1.989,1.99s0.038-1.867,1-1.99,4.708-.015,4.974-0.994,3.78-2.328,4.973-2.984,4.264-2.188,5.969-2.984,4.445-1.1,5.968-1.99,2.848-2.163,3.978-1.989,5.137-.174,5.969,0,6.963,0.994,6.963.994l1.99-1.989s-0.928-2.971-1-2.984a22.288,22.288,0,0,0-.994-2.984c-0.345-.385.576-1.164,0-1.99s-1.2-2.019-1.99-2.984-0.647-2.088-1.989-1.989-4.973,0-4.973,0-1.8-2.711-1-2.984,2.984-1,2.984-1,4.046-.143,5.968,0a17.836,17.836,0,0,1,5.968,1.989,26.3,26.3,0,0,0,2.985,1.99,26.759,26.759,0,0,0,4.973,1.989,13.216,13.216,0,0,1,1.989-.994l3.979-4.974,1.99-1a2.51,2.51,0,0,1,1.989,1c0.845,1.069,1.283,4.343,1.99,3.979s3.2-1.394,3.978-1a23.876,23.876,0,0,0,2.985,1s4.075-1.732,4.973-2.984,2.177-1.36,2.984-2.984,1.668-1.683,1.99-2.985a21.429,21.429,0,0,1,1.989-3.979l1.99-1.989,2.984-1,5.968,1,2.984,0.995a34.1,34.1,0,0,0,4.974-1.99,25.583,25.583,0,0,0,1.989-1.989,39.1,39.1,0,0,0,2.984-2.984c0.5-.7,1.633-0.844,1.989-1.99s0.822-2.161,1-2.984,0.4-3.894,0-3.979-1.86-1.349-2.985-1.989a28.794,28.794,0,0,1-4.973-4.974c-1.127-1.452-4.677-3.634-5.969-4.973s-1.69-2.2-3.978-2.984-3.588-2.059-3.979-2.984-1.99-5.968-1.99-5.968l-1.99-1.99-2.983-1s-3.3.42-3.979,0-1.707-.412-2.984-0.994-2.007-.251-1.99-1-0.271-5.153-.994-4.974a7.614,7.614,0,0,1-3.979,0c-1.374-.515-0.755-0.664-1.99-0.994s-1.24-1.1-1.989-1.99a23.259,23.259,0,0,1-1.99-3.979,9.663,9.663,0,0,1-1.989-.994c-0.242-.311-3.2.31-3.979,0s-3.978.994-3.978,0.994-0.217,2.761-1,2.985a13.916,13.916,0,0,1-2.983.994c-1.961.386-3.475,0.215-4.974,1s-2.315,1.695-4.974,1.989-2.059-.294-3.978,0a6.32,6.32,0,0,1-2.984,0c-1.25-.168-1.226-0.779-1.99-0.994s-3.979-2.984-3.979-2.984-3.766.493-3.978,0.994-2.886,1.394-3.979,1.99-5.174-.271-5.969-1-2.858-3.09-2.984-4.974a22.754,22.754,0,0,1,0-3.978c0.106-1.492,2.969-2.278,2.984-2.985a11.292,11.292,0,0,0,0-1.989c-0.1-.684-1.47-0.865-2.984-1.989s-2.14-.772-2.984-1.99a31.9,31.9,0,0,1-2.984-5.968,21.01,21.01,0,0,0-1.99-3.979,31.675,31.675,0,0,0-2.983-2.984l-1-1.989L605.7,105.4s-1.417-.023-1.989,0-4.653,2.7-5.968,2.985a68.324,68.324,0,0,0-6.963,1.989c-0.717.373-3.539,0.713-3.979,1.989s-5.968,4.974-5.968,4.974-4.851,5.682-5.969,5.968-1.842,1.263-2.983,1.99-2.167,4.129-2.985,4.973-1.077,3.179-1.989,3.979a17.911,17.911,0,0,0-2.985,3.979c-0.473.986-1.422,3.036-1.988,3.979a29.436,29.436,0,0,0-1.99,4.973c-0.082.6-1,6.963-1,6.963s0.822,3.1,0,3.979-2.831,10.705-2.984,10.942-2.985,6.963-2.985,6.963l-0.994,3.979s-0.746,2.672-1.989,2.984-5.371,5.006-5.968,4.973-5.969,3.979-5.969,3.979v1.989Z" transform="translate(-60 -28)"/>
    <path id="形状_14" data-name="形状 14" class="cls-2" d="M463.453,126.292V124.3l2.984-.995v-1.989l-1.989-1.99s0.086-2.834,0-3.979,0.9-3.211,1.989-4.973,7.743-11.3,7.957-11.936,1.467-1.734,2.985-3.979,4.39-3.975,3.979-4.973-0.707-.871,0-2.984a10.708,10.708,0,0,1,3.979-4.974c1.2-.68,5.332-1.747,5.968-2.984s2.724-2.994,2.984-3.979,1-3.979,1-3.979v-1h7.957s10.2-.261,11.937,0,10.941,0,10.941,0-2.092.61,1.99,1,12.4-.385,13.926,0,10.3-.385,10.941,0,8.954,0,8.954,0a15.408,15.408,0,0,0,5.968.994c2.866-.237,12.127.051,13.926,0s11.936,0,11.936,0l8.952-.994s0.839-.7,5.969-3.979,17.7-8.418,19.894-9.947,3.414-3.387,8.952-4.973,10.634-4.447,12.931-4.974,3.677-2.335,5.969-1.989,5.923-.345,8.952,0,6.677-.033,8.952.995,1.336,2.019,4.974,1.989,7.251,0.4,10.942,0a15.506,15.506,0,0,1,6.962.995s0.664,2.833,0,3.979-3.978,6.963-3.978,6.963-4.444,4.085-5.968,3.979-3.979,0-3.979,0-1.029,2.534-1.99,2.984-2.339,6.082-3.978,5.968-3.836,1.67-4.974,1.989-13.926,4.974-13.926,4.974-4.785.993-5.968,1.989-7.777,2.177-8.952,2.984-6.541,1.806-7.958,2.984-4.743,2.927-5.968,2.984a48.078,48.078,0,0,0-5.969.995c-2.71.553-5.312,0.691-5.968,1s-6.963,3.979-6.963,3.979L605.7,99.435v3.979l-3.978,1.989s-2.161,2.57-3.979,2.985-6.963,1.989-6.963,1.989l-4.974,2.984s-4.911,5.5-5.968,5.968-6.161,4.449-6.963,4.974-2.869,4.89-3.979,5.968-3.806,5.766-4.974,6.963a31.079,31.079,0,0,0-3.978,6.963c-0.543,1.5-.888,12.747-1,13.926s-2.693,7.595-2.984,8.952-3.979,11.937-3.979,11.937-0.646,1.327-.994,1.989-3.45,3.01-4.974,3.979-3.95,4.32-4.973,4.974-1.99,2.984-1.99,2.984l1,3.979-5.969.994h-7.958l-7.957,4.974-1.989,3.979-1.99,1.989s-0.764,1.486-1,1.99,1.99,4.973,1.99,4.973l1,1.989s0.045,1.622-1.99,1a7.347,7.347,0,0,0-3.979,0s-0.715,1.945-1.989,1.99-2.611.649-2.984,0-2.2-1.732-1-2.985a35.594,35.594,0,0,0,2.984-2.984c1.457-1.739,2.313-4.157,2.984-4.973s2.058-3.577,2.984-4.974a9.912,9.912,0,0,0,1.99-3.978c0.442-1.931,1.895-3.5,1-4.974s1.687-1.583-1-1.99-5.711.638-7.958,0-1.915.037-4.973-.994a20.016,20.016,0,0,1-5.969-2.984c-0.214-.362.17,0.339-1.989-1s-2.536-.678-2.984-1.989-1.172-2.459,0-2.985A6.988,6.988,0,0,0,494.289,182a7.972,7.972,0,0,0,1.989-2.984,29.659,29.659,0,0,1,1.99-3.979c1.267-2.1,2.617-2.382,2.984-3.979s2.224-2.89,1.989-3.979,0.119-2.818,0-3.978-1.545-2.632-1.989-3.979-0.273-3.464-1-2.984a31.794,31.794,0,0,1-4.973,1.989c-1.187.342-1.079,1.185-2.984,1s-1.98-.781-2.985-1.99a7.983,7.983,0,0,1-1.989-3.978c-0.635-2.322.866-1.638,0-3.979s1.075-2.609-1-3.979a31.205,31.205,0,0,0-2.983-1.99c-1.054-.538-2.371-0.409-2.985-0.994a8.909,8.909,0,0,0-2.984-1s1.979-1.981,2.984-2.984,1.816-1.725,1.989-2.984a5.547,5.547,0,0,0-.994-2.984s1.725-1.77,0-1.99,1.889,1.146-2.984,0-1.487-.034-4.974-0.995a26.371,26.371,0,0,0-4.973-.994c-2.449-.429-1.785-1.214-2.985-1A2.177,2.177,0,0,1,463.453,126.292Z" transform="translate(-60 -28)"/>
    <path id="形状_15" data-name="形状 15" class="cls-2" d="M495.284,69.594l-1.99-1.989H481.358V62.631s-0.37-4.325-1-4.973,0.254-.85-1.989-1.989-5.184-1.262-5.969-1.989-0.859-.32-3.978-1.989-5.13-1.594-7.958-2.984-1.934-1.646-4.974-2.984-1.124-1.514-2.984-1.99a19.034,19.034,0,0,1-2.984-.995l-2.984.995s1.794,0.475-1,0-5.968-.995-5.968-0.995-0.845-1.382-1.989-.995-3.979,2.984-3.979,2.984,2.8-.148,0,0.995-2.9,1.709-3.979,1.989a1.033,1.033,0,0,0-1,.995,13.294,13.294,0,0,0-2.984,0,6.636,6.636,0,0,1-2.984,0c-1.332-.263-1.294.263-1.99,0s-0.538-1.089-2.984,0-1.943-.678-2.984.995-1.771,3.129-2.984,3.979a8.787,8.787,0,0,0-1.989,1.989s-1.824-.174-1.99-0.995-0.922-1.54-.994-2.984-1.015-1.368-1-2.984,0.881-1.2,0-2.984a15.814,15.814,0,0,1-1-1.99c-0.564-1.377.378-2.376-1-1.989s-3.428-.8-3.979-0.995a8.859,8.859,0,0,0-1.989-.995c-2.394-1.005-1.956.143-3.978-.994a8.126,8.126,0,0,0-1.99-.995c-1.838-.82-1.65-1.13-2.984-1.989s0.061,0.223-1.99-.995a4.846,4.846,0,0,0-2.984-.995c-1.095-.223-4.567.223-4.974,0s-4.973-.995-4.973-0.995l-1.989-.995-1.99.995a2.422,2.422,0,0,0-1,1.99c0.071,1.263-.521,1.549,0,2.984a7.017,7.017,0,0,0,1,1.989s1.15,0.475,0,1.989-1.025,2.2-1.989,2.984-1.211-.374-1.989.995a14.01,14.01,0,0,0-1,1.989l-2.984,2.984H360s-1.276-1.434-1.989,1.989-0.149,2.015-1,4.974,1.787,0.53-1,2.984-1.342,1.445-3.978,3.979-8.953,4.973-8.953,4.973a55.06,55.06,0,0,0-3.979,3.979c-0.528.8-1.195,3.329-1.989,3.979s-2.734-.278-1.99,1.989-0.254,4.523-.994,4.974-1.805-.9-3.979,0-8.953,1.989-8.953,1.989v2.984s6.06,3.874,5.969,4.973,0.913,3.622,1.989,5.969,1.989,7.958,1.989,7.958,3.46,3.238,3.979,2.984,5.969,0,5.969,0l4.973,1.989a2.642,2.642,0,0,1,1.99,0c0.891,0.462,2.984,0,2.984,0h1.989s-1.41,1.713,1.99,1.989a27.951,27.951,0,0,0,7.957-.994,11.467,11.467,0,0,0,1.99,1.989c1.343,1.085.606-1.429,1.989,2.984s1.057,4.592,1,5.969a39.371,39.371,0,0,1-1,4.973l-3.979,1.99-4.973,1.989-1.99,2.984,1,6.963v2.984s2.875,2.578,0,2.984-5.968,2.985-5.968,2.985a12.817,12.817,0,0,0,0,3.978c0.387,1.335,1,4.974,1,4.974l1.989,5.968,1.989,1H360l1,2.984v3.979l3.979-1V182l1.989,3.979,1.989,2.984h1.99v2.984l-1,2.984h2.985s-0.6.313,0,1.99a48,48,0,0,1,.994,4.973c0.283,0.987.764,3.178,1.99,2.984s1.989-2.984,1.989-2.984-0.628-4.024.994-2.984,2.985,4.974,2.985,4.974-2.738,2.275,1,1.989,1.97,0.512,3.978,0,5.969-1,5.969-1-0.445-2.286,2.983,0a29.206,29.206,0,0,1,4.974,3.979s1.015-.416,1.99,1.99,1.836,3.032,2.984,4.973,0.125,4.7,1.989,2.984-0.325-3.983,1-3.979,3.03-3.161,3.979,0-1.666,3.709.994,2.984,1.279-.137,2.985-0.994a16.477,16.477,0,0,1,1.989-1c1.745-.764,3.979-3.979,3.979-3.979v-3.978l-0.994-2.985a23.759,23.759,0,0,1,.994-3.978,6.57,6.57,0,0,1,1.989-2.985c1.64-1.572.906-3.268,3.979-2.984a14.941,14.941,0,0,0,6.963-1,36.756,36.756,0,0,0,7.958-3.978c0.553-.6-0.328-4.57,0-5.969s-0.448-3.362,2.984-4.973,3.358-1.015,4.973-1.99,3.451-2.248,2.985-3.978,1.989-7.958,1.989-7.958,1.7-6.587,1.99-7.958a19.376,19.376,0,0,0,.994-4.973c-0.029-2.034,1.157-2.5,0-4.974s-0.157-.792-0.994-2.984-2.69-3.471-1.99-4.973a32.807,32.807,0,0,0,1.99-3.979c0.74-2.033,2.071-7.12,2.983-7.958s-0.276-1.973,1-2.984,4.974-.995,4.974-0.995v-1.989l-1.99-2.984-1.989-4.974,2.984-1.989,13.926-20.889,1.989-3.979s-2.306-2.4-.994-2.984,4.973-1.99,4.973-1.99l5.969-3.979,2.984-3.979V69.594Z" transform="translate(-60 -28)"/>
    <path id="形状_16" data-name="形状 16" class="cls-2" d="M453.506,177.022l4.974,2.985,2.983,2.984,1.99,3.979,1,1.989s-1.966,1.24-1,1.989a26.8,26.8,0,0,0,3.979,1.99l-1,3.979a2.8,2.8,0,0,1-2.984,2.984,42.051,42.051,0,0,0-7.958.995,1.946,1.946,0,0,0,0,1.989c0.587,1.213,2.985,5.968,2.985,5.968l0.994,5.968,1,1.99h3.979v-3.979l0.994-2.984,2.985,0.995a6.8,6.8,0,0,1,0,2.984c-0.4,1.318-3.054,6.521-3.979,6.963a40.048,40.048,0,0,0-3.979,2.984l4.973,1v1.989l-3.979.995,3.979,0.994,2.985,3.979v2.984l2.983,1s1.907,2.357,2.984.995,0.647-2.391,1.99-1.99a3.688,3.688,0,0,1,1.99,1.99l0.994,1,1.99,2.984v3.979l-4.974,2.984s-3.558,1.628-.994,1.989,5.968,2.984,5.968,2.984l-1.99,8.953-0.994,3.978-4.974,1.99a9.794,9.794,0,0,1-5.968,2.984,28.821,28.821,0,0,0-6.963,1.989s0.037-1.38-3.979,0-2.549,1.286-4.974,1-1.739,2.81-2.983-1-1-3.978-1-3.978-4.245-2.31-5.968-2.985a21.671,21.671,0,0,1-3.978-1.989c-1.127-.714-4.974-1-4.974-1s-0.8-.387-2.984-2.984a16.227,16.227,0,0,0-5.968-3.979s-7.3.383-7.958,1a25.746,25.746,0,0,1-3.979,1.99v3.978s-1.432,7.293-1.989,7.958-2.068,3.235-1.99,3.979-1.989,2.984-1.989,2.984l-8.953,1-5.968,4.973-1.989,3.979a18.19,18.19,0,0,1-1.99,1.989c-0.453.253-4.973,0-4.973,0a10.011,10.011,0,0,0-2.985,1c-0.838.611-5.967,1.99-5.967,1.99h-3.98l-0.994-2.985a17.571,17.571,0,0,1,0-4.973c0.408-2.439,2.3-.147,0-2.984s1.29-.651-2.984-2.984-3.829-1.606-5.969-2.984-4.8-1.249-6.962-1.99-1.918-2.561-4.974-1.989-3.735,1.829-4.974,1.989-4.649-2.3-4.973-2.984,1.757-1.713-1.99-1.989a24.057,24.057,0,0,0-5.968,0,26.208,26.208,0,0,0-4.973,1.989s-2.567,1.775-2.985,1-4.568-1.845-4.973-1.99-0.417-.757-1.99,0a22.926,22.926,0,0,0-3.979,2.984s-1.159,2.678-2.984,0-2.114-4.378-2.983-3.978a30.952,30.952,0,0,1-3.98.994s-1.9-.678-1.989-1.989,0-8.952,0-8.952l-6.963-1.99a3.449,3.449,0,0,1-1.989-2.984c0.07-2.04-1.649-.1,0-2.984s0.075-1.051,1.989-2.984,3.377-1.33,2.984-2.984,1.99-4.974,1.99-4.974l3.978-4.974,1.99-2.984a2.754,2.754,0,0,0,.994-1.989c0.125-1.388-1.517-2.06,1-3.979a45.115,45.115,0,0,1,3.978-2.984c2.141-1.415,1.943-2.074,4.974-2.984s2.713,0.048,2.984-1a25.463,25.463,0,0,0,1-3.979,5.276,5.276,0,0,1,1.989-3.979c1.346-.976,2.984-1.989,2.984-1.989l2.984,1.989h3.979l1.989-3.978,3.979,0.994h2.984l0.995-1.989-1.989-2.984a3.706,3.706,0,0,1-1-1.99c-0.006-.949-1.573-1.451,0-1.989a36.266,36.266,0,0,1,3.979-1l3.979-1,1.989-.994s-0.379-1.691-.994-1.99-1.52-.152-2.985,0a25.127,25.127,0,0,0-3.979,1,12.149,12.149,0,0,1-.994-1.99c-0.549-1.333,1.04-.841-1-1.989s-1-1.253-2.984-1.989-1.99-1-1.99-1l3.979-3.979,1.99-1.989,3.979,1.989,1.989-.995,1-2.984h2.984s0.721,0.391,1.989-.994,2.671-2.1,2.985-2.985a13.083,13.083,0,0,1,.994-1.989l1-4.974,3.979-.994s3.054,0.324,2.984.994,0,4.974,0,4.974l-1,1.989,3.979-.994s2.524,0.483,1.99,1.989a34.393,34.393,0,0,0-1,6.963c0.009,1.081,5.968,2.984,5.968,2.984a9.232,9.232,0,0,0,0,1.99c0.129,0.842-1,4.973-1,4.973l3.979-1a0.772,0.772,0,0,1,1,1c-0.242,1.28-1,7.958-1,7.958l1.99,1.989,1.989-4.973,0.994-1,2.985,2.984v3.979s-0.582.419,2.984,0,3.41-1.345,5.968-1a4.978,4.978,0,0,0,3.979-.994s-1.1.379,0.994,1.989,1.089,2.29,4.974,3.979,4.71,2.475,4.974,2.984a4.451,4.451,0,0,1,1,2.984c-0.055,1.809,0,3.979,0,3.979s1.1-1.769,1.989-2.984a5.009,5.009,0,0,0,.995-1.99l2.984-.994,0.994,3.978s-1.4,2.436,1.99,0a17.85,17.85,0,0,1,5.969-2.984,3.37,3.37,0,0,0,1.989-2.984c-0.053-2.1-.584-2.207-1-4.973s-1.393-2.858,0-5.968-1.247-1.917,1.989-3.979-3.582-1.916,2.984-1.99,7.1,0.975,7.958,0,3.447-3.826,4.974-3.979,1.989-1.989,1.989-1.989,0.874-4.118,1-4.974,0.994-3.978.994-3.978,2.969-1.917,3.98-1.99S453.506,177.022,453.506,177.022Z" transform="translate(-60 -28)"/>
    <path id="形状_17" data-name="形状 17" class="cls-2" d="M296.342,259.584l-0.619-.413-5.349-3.566-1-2.984,1-4.974,2.984-1.989s1.238-2.282,1.989-3.979a52.207,52.207,0,0,1,3.979-5.969s2.593-2.625,2.984-3.979,1.99-5.968,1.99-5.968,0.175-2.481,1.989-2.984,4.12-1.375,5.968-1.989,1.42-.175,2.984-1,2.985-3.979,2.985-3.979l1.989-4.973,4.973-.995,1.99,1.989,3.978-1.989,2.985-3.979,4.973,1.99v-1.99l-1.989-3.979,1.989-2.984,4.974-1s1.851-.436,1.989-1.989a4.834,4.834,0,0,0-.994-2.984,44.488,44.488,0,0,0-5.969,1.989c-1,.642-2.984-2.984-2.984-2.984l-1-2.984s0.054-.321-0.994,0-2.985-1-2.985-1-0.1-2.06,1-1.989,1.023,0.4,2.984-1,0.017-2.888,1.99-1.989,1.235,0.474,1.989.994-0.317,2.7,1.99.995,1.967-.116,2.984-1.989a11.288,11.288,0,0,0,1-1.99s0.106,1.116,1.989,0,1.93-1.926,2.984-2.984,3.695,0.929,1.99-1.989,1.989-7.958,1.989-7.958l-1-1.989s-0.567-2.557-.994-3.979-1-4.974-1-4.974a4.36,4.36,0,0,1,0-2.984,5.545,5.545,0,0,1,3.979-3.979c2.348-.666,1.925.541,2.984-0.994s2.286,0.437.994-1.99-0.528-2.186-.994-2.984-1.693-1.569-1-3.979,0.614-.214,1-1.989-1.654-.805,1.989-2.984,1.221-1.417,4.974-2.984,4.036,0.13,3.978-1.99,0.058,0.343,0-1.989,1.244-1.347,0-4.974,0.609-2.636-.994-3.979,0.887-1.28-2.984-1.989-3.979-1-3.979-1,5.822-.92,0-1-9.667-.094-9.947,0,5.406,0.966-1-.994-1.934-1.341-6.963-1.99-6.357-1.341-6.963-.994-2.82.67-2.984,0-2.924-6.409-2.984-6.963,0.738-1.643,0-3.979-1.716-5.366-1.99-5.969-2.814-2.316-2.984-2.984-1.35-.895-3.979-2.984-4.946.695-4.973-2.984-0.82-3.093,0-3.979,2.311-2.541,1.99-2.984,2.354-.655,0-1.989-3.231-2.814-3.98-1.989-2.984,3.979-2.984,3.979-0.5,1.29-1,0,0.71-3.956-.994-3.979-0.832.361-3.979,0a25.59,25.59,0,0,1-4.974-.995,1.012,1.012,0,0,0-.994-0.995c-1.076-.236-3.979.995-3.979,0.995s0.189,1.061-1,0-0.253-1.055-1.99-1.99-0.717,1.487-1.988-.994a28,28,0,0,1-1.99-5.969H283.41a22.7,22.7,0,0,0-1,3.979c0.08,0.694.938,1.208,0,2.984a8.487,8.487,0,0,0-.994,3.979c-0.112,1.185.451,2.411,0,2.984s-1.5.061-1.989,0.995-3.862,2.324-4.974,2.984a19.164,19.164,0,0,0-1.989.995c-2,1.19-3.753,1.094-3.979,1.989S267.109,86.9,266.5,87.5a23.545,23.545,0,0,0-1.989,3.979,26.265,26.265,0,0,1-1.989,1.99c-0.7.561-.065,0.073-1.99,0.995s-2.01,1.068-2.984,1,0.892,0.92-1.989,0-2.536-2.086-3.979-1-0.841,3.139-1.99,3.979-2.956,1.106-2.984,1.989-4.973,1.989-4.973,1.989-1.257-2.025-2.985-1.989-3.307-1.769-4.973-2.984-3.979-2.984-3.979-2.984a5.168,5.168,0,0,0-1.989,0,22.581,22.581,0,0,0-2.984,1.99c-0.847.627,0.255,0.346-1.99,0.995s-1.86,1.341-2.983.995-5.9-.288-5.969-0.995-1.664-2.381-2.984-2.984-2.741-1.681-3.979-1.989-3.418,3.013-1.989,3.979,5.933,4.872,5.968,5.968,0.091,0.511.994,1.99a20.723,20.723,0,0,1,1,1.989c0.586,1.014,1.955-.041,0,1s-4.6.615-4.973,1-0.052-1.441-1.99.994-0.008,2.348-1.989,2.984-3.392.337-4.974,1-5.485,2.43-4.973,2.984,1.73,1.687,2.984,2.984,1.664,2.594,2.983,3.979,0.966,2.255,1.99,1.99,1,0,1,0,1.112-.625,1,0.994a9.374,9.374,0,0,0,1,4.974c0.75,1.221-.331,1.867,1.989,2.984s3.775,1.168,3.979,1.989a14.048,14.048,0,0,1,0,2.985s-2.741,2.2-3.979,2.984-3.5,2.135-3.979,2.984-0.325,2.874-1,3.979-1.99,3.979-1.99,3.979h-3.978a19.925,19.925,0,0,0-2.984,3.978c-0.866,1.788-2.1,1.088-1.989,3.979s0.231,1.214,0,2.984-0.742,1.826-1,2.984,1.822-.611-0.995,2.984-2.643,1.526-2.984,2.985-0.632-.912-1,2.984,2.057,2.706,0,3.979a22.979,22.979,0,0,0-4.973,4.973c-1.149,1.382-7.958,7.958-7.958,7.958s0.438-.288-2.984,1.989-1.1,2-4.974,2.984-1.377.833-3.979,1-8.952,0-8.952,0v6.963s0.552,3.533,1,4.974a9.139,9.139,0,0,0,1.989,2.984,3.3,3.3,0,0,1,.995,1.989c0,1.041-.634,1.37-0.995,2.984s0,0.995,0,.995l-5.968,2.984s-2.64-3.609-1.99,1,1,4.973,1,4.973l1.99,1.99v4.973a4.046,4.046,0,0,1,1.989,1c0.421,0.652-1,3.979-1,3.979s-2.049,1.376-.994,1.989,1.694,1.967,2.984,2.985,1.5,1.1,1.989,1.989,1.208,0.546,0,1.989-1.372.885-2.984,1-2.662-2.525-2.984,1,2.984,5.968,2.984,5.968l-1.989,2.984s-2.449-.2-2.985,1,0,6.963,0,6.963,0.24,2.755-.994,2.984-1.854.913-2.985,1a5.737,5.737,0,0,1-2.983,0c-1.874-.427-1.849-0.295-3.979.994s-0.663.193-1.99,1-0.111-1.863-1.989,1-1.423,3.745-1.99,3.979a4.293,4.293,0,0,1-1.989.994c-1.966.6-1.674-.3-1.989,1a3.275,3.275,0,0,0,0,1.989l3.978,2.985s2.131-1.486,2.985-1.99,1.217-2.841,2.984-1a66,66,0,0,0,5.968,4.974s0.092,3,.994,2.984,5.274,0.986,5.969,1,1.886,0.5,2.984,0-2.2,2.576,1.99-1,3.509-2.354,5.968-3.979,0.968-4.726,2.984-1.989,3.444,2.341,2.984,3.979,0.334,1.958-1,2.984-3.071,4.516-3.979,4.974-2.984,5.968-2.984,5.968c2.372-1.356,5.968-2.984,5.968-2.984s-1.234-.78.995,1.989,3.526,2.14,3.979,3.979,0.477,3.872,1.99,4.973,1.28-2.669,1.989,1,0.433,4.589.994,4.974-0.692.544,2.985,1.989,0-.685,4.973,1.989,3.621,3.294,4.974,2.985,4.974-3.979,4.974-3.979,0.783-2.522-1-2.984-1.523.38-1.99-1.99,0.976-2.751,0-2.984-3.764-.063-3.979-1a20.216,20.216,0,0,1-.994-2.984c-0.237-1.5-1.119-.353,0-3.979s-0.315-4.118.994-4.973-0.593-1.6,2.985-1.989,4-1.135,4.973,0,1.14,0.81,1.99,1.989,2.664,1.232.994,2.984a25.282,25.282,0,0,0-2.984,3.979l-0.994.994s0.652,0.889,1.989,2.985,1.243,4.632,2.984,4.973,0.035,0.845,1.989,0,0.5,0.637,1.989-2.984-1.363-3.615,1-4.974,1.916-1.435,2.984-1.989,3.036-.2,2.984-1.989-2.232-4.1-1.989-4.974-2.615-4.031,0-3.979,3.1,0.073,4.973.995-0.018.9,3.979,1,2.775,0.242,3.979,0,3.534-1.113,3.979,0-1.5,2.909.994,1,1.437-1.387,2.984-1.99,2.388-.752,2.984,0,0.546-.834,1-1.989-2.864-2.316,1-1.99a11.815,11.815,0,0,1,5.968,1.99s0.667,0.22,1.989,1.989,0.963,1.445,1.99,3.979-0.9,6.823,1,2.984,1.361-4.032,2.984-5.968S255.559,275.5,255.559,275.5l0.995-1.99a2.174,2.174,0,0,1,1.989-.994c1.2,0.219.193,1.136,2.984,0a14.159,14.159,0,0,0,4.973-3.979l1.99,1s-0.828,1.158,1.989.994,2.937-.979,3.979-0.994,2.511,0.567,3.979-1,1.326-1.908,1.99-1.99-1.091.59,1.988,0,5.969-.994,5.969-0.994l2.984-2.984,4.974-2.984" transform="translate(-60 -28)"/>
    <path id="形状_18" data-name="形状 18" class="cls-2" d="M74.521,431.668H70.543l-3.979-.994s-4.546-1.582-1.989-2.984,3.6-1.41,3.979-2.985a18.31,18.31,0,0,0,0-4.973,17.567,17.567,0,0,1,.994-4.974,3.248,3.248,0,0,1,1.989-1.989s0.122-3.626,0-4.974-2.849-2.816.995-2.984,2.907-1.41,5.969,0,2.641,2.3,3.978,2.984-2.28,1.985.995,1,3.781-1.41,3.979-1.989a41.517,41.517,0,0,0,0-4.974s1.646,0.419-1-1.989-3.062.5-3.979-2.985-0.17-.867-0.995-3.978-2.744-1.014-.995-3.979a17.966,17.966,0,0,0,1.989-6.963l4.974-4.974s0.028-.325,0-1.989,0.7-2.01,0-3.979,0.068-2.195-1-2.984-3.858,1.73-.995-1,1.261-2.527,3.979-3.979,3.17-.909,4.974-2.984,3.489-1.413,2.984-2.984-2.837-2.369-.995-2.984a37.873,37.873,0,0,1,5.968-1s3.515-.75,3.979-1.989,2.347-2.25,2.984-2.984,4.974-1,4.974-1-1.937-2.131-1-3.979a16.4,16.4,0,0,0,1.989-4.973c0.306-1.835,1.724-2.516,0-3.979s0.04-2.476-2.984-2.984-3.13-2.383-3.979-.995-3.235,4.5-4.973,4.973-3.979,1-3.979,1l-0.995-2.984a36.35,36.35,0,0,1-1.99-3.979c-0.186-.773-0.715-1.813,0-2.984s1.871-3.445,2.984-2.984,4.138,0.667,3.979,0-0.783-2.371,1-2.984a30.12,30.12,0,0,1,3.978-1s2.122-.978,1.99-1.989-1.18-.674-1-2.985,2.069-2.49,0-3.978-1.909.665-1.99-1.99-2.4-.608,0-2.984,1.99-3.979,1.99-3.979-1.909-3.022-1.99-3.978-0.994-4.974-.994-4.974h3.979s3.766,0.306,4.973-1a38.058,38.058,0,0,0,3.979-4.973c0.386-.837-1.1-2.652,1-2.985a7.225,7.225,0,0,0,2.984-.994h2.984l1,2.984s-0.625.293,1.989,0a12.124,12.124,0,0,0,4.974-1.99l3.979,1.99,2.984,2.984v1.989l4.973,1.99a10.156,10.156,0,0,0,2.985,0c1.21-.267,1.827,1.169,2.984,0s2.1-.33,2.984-1.99,3.979-3.978,3.979-3.978l2.984-.995,2.984,1.989v2.984l-3.979,3.979a30.36,30.36,0,0,0-2.984,3.979c-0.752,1.43-1.99,4.974-1.99,4.974l2.985-1a9.292,9.292,0,0,1,2.984-1.989c1.582-.56,2.357-2.332,2.984-1a11.454,11.454,0,0,1,1,3.979c0.083,1.191,3.979,2.984,3.979,2.984s-1.252,2.575-1,2.984-0.747,1.541,1,1.989,3.1-.673,2.983,0,0,5.969,0,5.969l5.969,1.989s2.992,0.667,3.979,1.989a18.068,18.068,0,0,0,2.984,2.985c0.483,0.367,4.974-2.985,4.974-2.985s1.519-1.018.994-1.989a18.14,18.14,0,0,0-2.984-2.984l-1-2.984s2.634-2.438,0-1.99-2.843,4.1-3.979-.994-3.069-4.1-1.989-6.963,0.644-2.611,1.989-3.979,0.565-1.935,2.985-1.989,4.781-.847,5.968,0,3.979,2.984,3.979,2.984-0.961,3.331-1.99,3.978-1.372,1.037-1.989,2.984-2.5,2.218-1,2.985,3.979,3.978,3.979,3.978l2.984,1,0.994-1.989,1-3.979a14.116,14.116,0,0,1,1.989-2.984,17.955,17.955,0,0,1,2.984-1.99l1-.994s0.789-2.425,0-2.984a6.34,6.34,0,0,1-1.989-2.984,7.248,7.248,0,0,1,0-2.985s4.236-.449,4.973,0,1.173,1.5,2.984,1.99,4.939-.038,5.968,0a13.276,13.276,0,0,0,2.985,0c1.2-.188.071,0.6,1.989,1s2.206-.131,3.979-1,0.628,2.031,1.989-1,1-2.984,1-2.984l3.979-1a28.187,28.187,0,0,1,2.984,2.984c0.844,1.126,1.989,2.985,1.989,2.985l1.99,4.973s2.563-5.555,2.984-5.968,6.1-7.572,5.968-8.953,1.329-2.4,3.979-6.963,3.053-6.432,3.979-6.963,2.984-1.989,2.984-1.989a21.919,21.919,0,0,1,3.979-1.989c1.4-.385,2.984-1,2.984-1s-0.529,2.467,1.989,1.989,4.418-.159,6.963-0.994a2.527,2.527,0,0,0,1.99-2.985,16.832,16.832,0,0,1,5.968-.994c2.705,0.212,1.154,4.3,4.974,0s4.509-4.935,5.968-5.968,3.607-3.211,2.984-1-2.228,6.485-1.99,7.957,4.974,2.985,4.974,2.985l1.99,0.994,1.989,2.984h2.984a8.945,8.945,0,0,1,2.984-1.989c1.327-.345,1.484-0.742,2.984-1s5.968,1,5.968,1l2.985,1s-1.037,4.072-1.99,4.973-1,4.974-1,4.974l2.985,6.963V294.4l-1.99.995c3.608,0.676,4.974-.995,4.974-0.995s-0.983,3.862-1.99,4.974a17.592,17.592,0,0,0-1.989,2.984,10.092,10.092,0,0,0,3.979,1c1.514-.162,1.974-0.515,2.984,0a16.375,16.375,0,0,1,2.984,2.984s-2,2.947-1.99,4.973a7.975,7.975,0,0,0,1,3.979c0.6,1.429-1,4.974-1,4.974l-2.984,3.979s-4.127-3.909,0,3.978,3.752,9.342,5.969,8.953a28.236,28.236,0,0,1,5.968,0h8.952s2.476-.1,1.99,1-4.974,3.978-4.974,3.978l1.99,3.979,1.989,1.99,2.984-2.985s-0.68-7.541,0-2.984a45.845,45.845,0,0,0,2.984,10.942c0.853,1.732.049,8.282,0,8.952s1.442-.563-0.994,2.984S353.04,370,353.04,370L361,375.965v4.973s-4.779,1.838-2.984,3.979,2.37-1.809,2.984,2.984,1.826,4.213,1,5.968a13.017,13.017,0,0,0-1,3.979h3.979l1.989,2.984s0.844,4.518,0,5.969-1.967,4.664-2.984,4.973-3.068,1.641-4.974,1.99-2.855,1.865-4.973.994-6.963-2.984-6.963-2.984-2.2,5.129-3.979,4.974-6.064,2.29-6.963,2.984-1.01,3.432-2.984,3.979,0.1-.627-3.979,1.989-2.522,2.9-3.979,2.984-3.979-3.979-3.979-3.979,1.843-1.051-1.989-1.989-3.979-1-3.979-1l-1.989-1.989-1.99,1.989-3.979-1.989s-2.308-3.877-3.979-4.974-2.042.951-2.984-1.989-2.851-2.087-.994-3.979,1.671-.734,1.99-1.989a8.482,8.482,0,0,0,0-2.985s0.092,0.155.994-1.989,1.538-2.021.994-2.984-1.034-2.3,0-2.984,1-1,1-1-3.674.22-4.974-1.989,3.634-5.563-1.99-2.984-6.962,2.984-6.962,2.984a2.435,2.435,0,0,0-1.99,0c-0.956.5,1.526,2.209-2.984,0s-4.973-1.99-4.973-1.99-3.355-.377-1-1.989,5.968-3.979,5.968-3.979l-1.99-.995-2.983-1-1.99,1.99s0.97,2.554-1,1-1.3-3.322-2.984-1.99-1.841-.058-1.989,1.99a5.186,5.186,0,0,1-1,2.984s0.586,0.4-1.989,1.989a15.516,15.516,0,0,1-4.974,1.99s-2.73,1.639-2.984,2.984,0.069,1.957-1,1.989a11.835,11.835,0,0,0-2.984,0c-2.364.257-.819-0.032-4.974,0s-5.752,5.83-5.968,0,0.216-4.753,0-5.968,0.893-1.186,0-1.989-0.566-1.186-2.984-1-0.885-.191-1.989,0-0.805-2.446-2.985,0,0.947,2.395-2.983,2.984-4.213,1.4-4.974,1-1.931-.682-5.968-1-3.881.313-4.973,0-8.953,1-8.953,1l-2.984-5.969v7.958a8.288,8.288,0,0,0,.994,3.979c1.055,1.742,1.8.393,1.99,2.984s1.16,3.338,0,3.979-3.6,2.661-4.974,1.989-3.979-5.968-3.979-5.968-3.123-2.061-3.979-1.989-7.957.994-7.957,0.994l-0.995,2.984s-3.241-1.277-2.984,0,1.321,3.3,0,3.979-1.99,3.979-1.99,3.979-0.548,3.776-2.984,4.974-2.325-.64-4.973,2.984-0.88,1.893-1.99,2.984-2.418,1.5-1.989,2.984-2.984,3.979-2.984,3.979a12.927,12.927,0,0,1,1,1.989c0.839,1.833.513,2.106,0,2.984s-0.76,1.9-1.99,3.979-1,2.984-1,2.984l-0.994,5.969s-1.848,2.014-1,2.984a15.958,15.958,0,0,0,2.984,2.984A23.886,23.886,0,0,0,172,456.536s3.1,2.32,1.989,4.974S173,464.494,173,464.494s-0.626.742-3.978,0.994a29.271,29.271,0,0,1-7.958-.994l-2.984.994-4.973,2.984-2.985,1-0.994-5.968s1.35,3.022-1.99-1.989-1.5-3.4-2.984-3.979-0.718-.241-6.963-1.99-4.524,2.28-6.962-1.989,0.038-2.522-1.99-4.974,0.3-6-1.99-2.984,3.05,5.662-1.989,2.984-3.1-1.713-4.974-2.984,5.637,1.125-3.979-1.989-6.631-4.393-10.941-3.979-3.156-.414-4.974,0-3.169,2.027-4.973,1,1.514,0.66-3.979-1.99-4.6-2.642-6.963-2.984-4.387-.745-5.968-1S74.521,431.668,74.521,431.668Z" transform="translate(-60 -28)"/>
    <path id="形状_3" data-name="形状 3" class="cls-2" d="M320.215,516.219l4.973-1s2.251-1.979,3.979-1,5.287,0.979,4.974,1.99a3.68,3.68,0,0,0,0,1.989s2.065-2.79,2.984-2.984,3.923-1.218,3.979-1.989,0.994-4.974.994-4.974,0.729-1.4,1-1.989,2.984-1,2.984-1l2.984-4.974,3.979-2.984h2.984l1.99-1.99,0.994-2.983-2.984-2.985,1-2.984s1.305-1.811,1.989-1.989,2.893-1.8,3.979-1.99,1.515-1.784,1.99-1.989,1-1.989,1-1.989h2.983l2.985-1,1-1,2.984,3.979,1.989-1,1.99-2.984,3.978-3.979,1.99-2.984s2.221-2.448,2.984-1.989,2.984,0,2.984,0l1.99-1.99,1.988-2.984,1-1.989s-3.878-1.136-4.973-1.99a39.919,39.919,0,0,1-3.979-3.978c-0.747-.881-3.219-3.7-2.984-3.979a5.55,5.55,0,0,0,1-2.984c-0.134-1.054,1.984-3.4,1.989-3.979s1.109-2.385,1-2.984-1.487-1.864-1.99-2.985a30.393,30.393,0,0,1-.994-4.973l-1.99-3.979,1-2.984,1.989-1s2.953,0.082,3.979,0,2.985,0,2.985,0l-1-1.989,1.989-1.989,0.994-1.99-2.983-1.989s-1.125-2.217-2.985-1.99a43.037,43.037,0,0,1-6.962,0c-1.782-.148-5.969-0.994-5.969-0.994l-2.984.994s0.855-.714-0.994-0.994a8.705,8.705,0,0,1-3.98-1.99,7.409,7.409,0,0,0-1.989-1.989c-0.764-.308-3.076.794-2.984,0.994s-1.192,1.4-1.989,1.99a12.422,12.422,0,0,1-2.985,1.989c-1.068.352-4.973,1-4.973,1s1.031-.346-3.979-1-4.923-2.091-5.968-.994-2.984,2.984-2.984,2.984l-1.99,1.989a17.81,17.81,0,0,0-2.984,1.99c-0.348.517-4.974,2.984-4.974,2.984a23.761,23.761,0,0,0-1.989,1.989,6.019,6.019,0,0,1-1.989,1.99,20.856,20.856,0,0,1-2.984.994,3.851,3.851,0,0,1-1.99-1.989,20.622,20.622,0,0,0-1-2.984l-3.978-1-3.979-1s-0.359-3.613-1-2.984-2.984,2.984-2.984,2.984l-1.99-1.989-6.963-4.974s-2.26-2.064-1.989-2.984a38.189,38.189,0,0,1,1.989-3.979s1.219-1.53,0-1.989-1.786-1.141,0-1.99a3.383,3.383,0,0,0,1.99-1.989c0.3-.361-1.036-1.365-0.994-1.989s0.32-2.465.994-2.985,2.943-1.581.994-1.989-5.23-4.295-5.968-3.979-4.974,1.99-4.974,1.99-2.679,1.659-3.978.994a15.246,15.246,0,0,0-4.974-1.989c-2.084-.3-2.006-0.184-2.983-1s-1-2.984-1-2.984a4.973,4.973,0,0,1,1.989-1,9.346,9.346,0,0,0,2.984-1.989l-0.995-.995-3.978-1-1,2.985-2.984-1.99s-2.216-1.145-1.99,0a12.043,12.043,0,0,1,0,2.984,25.331,25.331,0,0,0-1.989,1.99c-0.538.678-3.413,2.16-3.979,2.984s-4.973,2.984-4.973,2.984l-1,2.984a1.211,1.211,0,0,1-1,1c-0.863.119-3.951,0.381-4.973,0s-4.974,0-4.974,0a6.289,6.289,0,0,1-1.989-1c-0.194-.388-1.421-2.952-1-2.984s1.675-1.693,1.989-1.989-0.994-1.99-.994-1.99l-6.963-1.989a3.135,3.135,0,0,0-2.985,1c-1.262,1.435.539,2.041-1.989,1.989s-7.378-1.436-7.958-1-5.968,1-5.968,1a57.13,57.13,0,0,1-5.968,1,27.5,27.5,0,0,0-4.974.994l-3.978-5.968v3.979l0.994,2.984s-1.65,3.108-.994,3.979a9.607,9.607,0,0,1,1.989,2.984,17.239,17.239,0,0,1,0,3.979l-2.984,1s-2.485.577-2.984,0a11.636,11.636,0,0,1-1-3.979,6.046,6.046,0,0,0-1-1.99l-2.984-.994h-3.979l-2.984,1.989-0.994,1.989-1,1,4.973,4.974,3.979,4.973a10.531,10.531,0,0,0,2.984,1c1.241,0.108,4.974,0,4.974,0s3.929,2.256,3.979,1,1.989-2.984,1.989-2.984l1.99-1.99s3.749,2.757,3.978,2.984,4.974,0,4.974,0l1.989,1-5.967,3.979-1,2.984s2.61,4.659,2.985,4.974,3.978,6.962,3.978,6.962l0.995,3.979,1,1.99,2.984-1,1-1v-3.979s0.781-2.95,1.989-2.984,2.984-1.989,2.984-1.989l-0.994-1.989-5.969-1s-2.279-1.658-1.989-1.99,0-3.978,0-3.978h2.984a21.062,21.062,0,0,1,2.984.994c0.331,0.274,3.979,0,3.979,0h2.984l1,4.974,1.989,2.984,0.995,2.984a2.557,2.557,0,0,1,1,0c0.662,0.1,3.978,0,3.978,0s-0.452-.71,1-1,4.974,1,4.974,1,3.471,1.127,3.978,1.989,4.974,3.979,4.974,3.979h3.979l2.984,1.99,5.968,4.973s4.2,3.99,3.979,5.968a5.652,5.652,0,0,0,.994,3.979,13.376,13.376,0,0,1,1,2.984h6.964l2.984,1.99,0.994,3.979-3.978,2.984s-0.968,3.243,0,3.979,1.759,4.7,1.988,4.973,2.985,4.974,2.985,4.974,0.863,2.286,1,2.984,0,7.958,0,7.958l-2.984,2.983-1,3.98,1.99,1.989v1s3.346,1.908,2.984,1.989-0.994,1.99-.994,1.99l-3.98,1.989,1,2.984,3.978,1,3.98-1.99,1.988,1s0.921,1.848,1.99,1.99a35.935,35.935,0,0,0,3.979,0h1.989l4.974,1.989Z" transform="translate(-60 -28)"/>
    <path id="形状_4" data-name="形状 4" class="cls-2" d="M356.024,498.314l1,4.973L360,506.272l1.99,1.989h3.979s0.847-1.779.994,0a31.9,31.9,0,0,1,0,3.979,4.188,4.188,0,0,0,1,1.989,12.445,12.445,0,0,0,2.984,1,7.325,7.325,0,0,1,1,1.989c0.406,1.227-1,2.984-1,2.984l1,2.985s2.669,0.809,2.984.994,1.936,0.565,2.984,1a2.7,2.7,0,0,0,1.99,0l2.984,2.984,0.994,1.99a5.6,5.6,0,0,1-.994,1.989c-0.621.628-.206,2.234,0,3.979a37.475,37.475,0,0,1,0,4.973l0.994,1.99,1,1.989-1,1.989-2.984,1-1.99,1.989,1,2.984L380.892,557l1.99,1.989a17.3,17.3,0,0,0,2.984,1.99,7.235,7.235,0,0,0,2.984,0c0.984-.264,1.953-1.314,2.984-1s4.973,1,4.973,1a9.718,9.718,0,0,1,1.99-1c0.815-.232,3.363-0.992,2.984-1.99s2.984-.994,2.984-0.994l2.984,2.984a18.711,18.711,0,0,0,2.985-1c1.822-.752,2.416-1.849,3.978-1.989s6.167-.61,6.964-1,8.952-1,8.952-1,8.22,0.554,9.947,1,8.88,0.446,8.952,1,7.03,3.691,7.957,3.979,5.969,5.968,5.969,5.968l5.969,3.979,5.968,5.968s4.064,0.4,4.973,1,8.952,2.984,8.952,2.984,2.92-.637,3.979,0,9.947,1.989,9.947,1.989h9.947l16.911,1,12.931,1,2.984,1.989,6.962-1a13.772,13.772,0,0,0,2.985,0,39.493,39.493,0,0,1,4.973,0s1.294,1.093,1.99,1,3.979-1,3.979-1l1-.994,3.979-1.99,0.994-6.963s-0.388-10.2,0-11.936,0.775-4.221,1-4.974-0.082-3.273,0-4.973-0.5-3.84,0-4.974a39.573,39.573,0,0,0,.994-5.968l1-1.99,1-1.989s7.388,0.75,7.957,1a27.928,27.928,0,0,0,5.969,0,13.013,13.013,0,0,1,2.984,0,49.879,49.879,0,0,1-5.968-2.984c-1.726-1.179-8.881-3.475-8.953-3.979s-1.9-4.623-2.984-4.974-3.908-3.675-4.974-4.973-4.612-4.517-4.973-4.974a78.4,78.4,0,0,0-6.963-3.979c-0.7-.333-4.431-1.3-4.973-1.989A20.728,20.728,0,0,0,549,509.256c-0.526-.043-4.973,0-4.973,0l-1-.995h-1.989l-1,1.989s-3.715,2.4-3.979,1.99-3.089-.478-2.984-1-1.99-1.989-1.99-1.989L530.1,512.24l-1,1.989s-2.34.885-2.985,0-1.406-1.166-1.989-1.989-2.845-2.942-1.989-2.984,2.984-1.99,2.984-1.99l-1.989-.994s-3.137-4.214-3.979-4.974-1.99-3.979-1.99-3.979l-4.973-3.979s-6.414-.924-6.963-0.994-1.64,1.31-1.99,0-0.994-3.979-.994-3.979-3.921.7-3.979,0.994-2.329,1.555-2.984,1-1.61-1.69-1-2.984,1.989-3.979,1.989-3.979a10.479,10.479,0,0,0-2.984-.995,27.879,27.879,0,0,0-3.979,0v-2.984l-1-2.984s-1.473-2.12-1.989-2.984a23.041,23.041,0,0,0-2.983-3.979,30.474,30.474,0,0,0-3.98-1l-1.989-2.984a15.748,15.748,0,0,0-2.985-1.989,32.4,32.4,0,0,0-3.978-1c-1.814-.25-6.053,1.138-6.963,1s-8.182-.407-8.952,0-2.306,2.531-2.985,2.984a5.508,5.508,0,0,0-1.989,1.989c-0.2.667-3.979,1.99-3.979,1.99s-4.221-1.555-4.973-1.99-3.074-.253-3.979,0a2.783,2.783,0,0,0-1.99,1c-0.843.912-2.984,2.984-2.984,2.984a10.153,10.153,0,0,1-1.989,1c-0.552.1-2.111-.988-2.984-1s-0.49,1.094-1.99,1.99-4.973,2.984-4.973,2.984l-3.979-1s-1.379-.62-1.99-0.994,1.513-.3-0.994-1.99-1.12-1.6-2.984-1.989a6.462,6.462,0,0,0-2.984,0c-0.533.024-1.99,1.989-1.99,1.989s-2.529.038-3.979,0-4.09-2.151-4.974-1.989-2.983-1-2.983-1l-2.985-2.984-1.989.994-2.984,3.979-6.963,5.969s-0.482,3.343-1.989,1.989-3.979-3.979-3.979-3.979-1.556,1.768-2.985,1.99a11.745,11.745,0,0,1-2.983,0s-1.679,2.579-1.99,2.984S360,484.388,360,484.388l-1.989,2.984v2.984l1.989,1.99-1.989,2.983Z" transform="translate(-60 -28)"/>
    <path id="形状_5" data-name="形状 5" class="cls-2" d="M471.41,461.51l0.995-4.974,1-2.984,1.99-1.99,4.973,1,4.974,1.99,0.994,0.994,1.989-2.984,1-5.968-1-4.974,5.969-.994,2.984-1.99v-4.973l0.995-4.974,3.979-2.984,2.984-2.984,0.994-5.968,1-1.99,1.99-.994-1-5.969-0.995-5.968v-3.979l6.963-1,7.958,1.99,7.958-1s1.133-2.133,2.984-1a25.046,25.046,0,0,0,5.968,1.99l4.974,1,1.989,0.994,1-.994-1-2.985-5.968-1.989-2.985-.995,1.99-3.978,1-2.985a38.434,38.434,0,0,1-2.985-2.984c-0.576-.789-0.3-2.074-0.994-2.984s-1-3.979-1-3.979l-1.989-4.973v-5.969l1.989-3.979,1.989-3.979s-0.323-.892,1.99-0.994a10.167,10.167,0,0,0,3.979-1l1-1.989L548,355.075l2.985,2.984,4.973-.994s2.824,0.317,2.984.994,1.379,1.743,1.989,2.985,3.979,2.984,3.979,2.984l-2.983,2.984,1.988,1s2.8-1.154,2.985,0a14.656,14.656,0,0,1,0,2.984s-1.08,1.152,1,1.99a18.6,18.6,0,0,0,4.973.994l1,1.99,2.984,0.994s1.105,1.354,1,1.99,0.332,2.664,0,3.978a1.846,1.846,0,0,0,.994,1.99h8.953l-1,2.984-4.973,1.99-2.985.994v2.984s0.865,0.306,2.985.995,4.973,1.989,4.973,1.989,4.374,1.732,4.973,1.99a67.968,67.968,0,0,1,4.974,4.973l3.979,4.974s3.442,2.135,4.973,1.989,6.963,1,6.963,1l4.974,1.99h3.979v1.989a2.083,2.083,0,0,0,2.984,1,43.325,43.325,0,0,0,4.974-2.984l6.962-3.979h3.979s5.524,2.458,5.969,2.984,1.538,2.559,1.989,2.984,0.436,7.5,0,8.952-1.989,11.937-1.989,11.937v9.947l5.968,6.963s5.048,8.921,4.973,9.947,7.958,10.942,7.958,10.942l1,7.957a71.189,71.189,0,0,1,2.984,6.963,11.145,11.145,0,0,0,1.989,5.968c1.968,2.906,4.432,3.266,4.974,5.969s4.973,10.942,4.973,10.942,1.973,7.3,2.985,7.957,1.989,5.969,1.989,5.969l1.989,8.952s2.068,15.044,1.99,15.916-1.024,5.3-1,5.968a13.479,13.479,0,0,1-1,2.984L683.284,557l-9.947-4.974-7.958-4.974s0.739-.179-3.979-1.989-5.875-1.06-7.958-1.989-6.52-2.385-6.962-1.99-7.92-.395-9.948,0-5.239-.395-7.957,0-10.948.714-12.931,0a25.964,25.964,0,0,0-3.979-.994c-1.553-.385-4.618-1.384-5.969-1s-4.813.055-6.963,0-2.918.276-4.973,0-5.447-1.263-5.968-1.989-5.968-2.985-5.968-2.985l-3.979-2.984-1.99-3.979s-11.336-9.82-11.937-9.947-8.952-4.973-8.952-4.973l-3.978-1.99-4.974-.994-3.979-.995-1.989,2.984-3.979,1-2.984-3.979-1.99,4.974-1.989,1.989-4.974-3.979s-3.028-2.5-1.989-2.984a22.408,22.408,0,0,1,2.984-1l-2.984-3.979a7.755,7.755,0,0,0-1.99-1.989c-1.629-1.289-2.121-1.353-2.984-2.984s-0.676-3.887-1.989-3.979a30.432,30.432,0,0,1-5.968-1,27.229,27.229,0,0,0-3.979-.994l-1.99-1.99-0.994-2.984-3.979,1.989-1.99,1.99-1.989-2.984,1-2.984,0.994-2.985h-6.963s-1.48-1.844-1-2.984-0.262-1.946,0-2.984-0.994-2.984-.994-2.984l-2.984-3.979-2.984-1-1,1-2.984-3.979L473.4,462.5l-1.99,1V461.51Z" transform="translate(-60 -28)"/>
    <path id="形状_2" data-name="形状 2" class="cls-2" d="M193.887,561.975l-3.979-1.989-4.974-1-2.984-4.973-0.995-5.968-0.994-2.985a43.99,43.99,0,0,1-5.969-3.979,22.432,22.432,0,0,1-2.984-3.978l-1.989-1.99-5.969-3.979a29.05,29.05,0,0,1-3.978-2.984c-0.489-.716-0.23-1.548-1-1.989s-1.99-4.974-1.99-4.974l1-3.979,1-2.984,1-4.973v-2.984l-1-2.985L154.1,501.3s-2.669-.058-2.984-1a16.067,16.067,0,0,0-1.989-2.984l-1.99-4.973-2.984-1-3.979-1,2.985-3.979V482.4H135.2l-2.984,2.985a9.634,9.634,0,0,1-2.985,0l-1.989.994-1.989,1.99h-6.964l-1.988,2.984-2.985-1-1.989-1h-3.98l-1.988,1-1.99,1-6.963-1.99s-4.2-1.239-4.973-.994a33.254,33.254,0,0,1-4.974,0s-3.2-.7-2.984,0-0.392,2.37-.995,1.989-2.184-.093-2.984-1a24.549,24.549,0,0,0-1.99-1.989c-0.628-.578-3.979-1-3.979-1l-1.99-.994L69.548,482.4s1.325-2.638.995-2.984,0.995-3.978.995-3.978,1.972-.947,1.99-1.99a10.012,10.012,0,0,1,.995-2.984l1.99-2.984-1-2.984-2.984-3.979a31.575,31.575,0,0,1,0-4.974c0.255-1.012-.995-3.979-0.995-3.979v-1.989l3.979,1h1l0.995-2.984-1.99-1.99s0.911-2.633,0-2.984-0.624-2.436-.995-2.984,0-2.984,0-2.984l0.995-1.99,3.979,1,4.973,1.989,5.969,0.995,4.974,2.984a6.2,6.2,0,0,0,2.984,0c1.508-.416,2.038-0.967,2.985-0.994s4.759-.276,4.973,0,4.974,1.989,4.974,1.989,4.253,2.684,4.974,2.984,5.968,2.984,5.968,2.984l1.989,1,0.995-2.984,1.989,1s1.325,2.658,1.989,2.984,1.99,3.979,1.99,3.979,2.295,0.795,2.984.994,3.5-.2,4.974,0,4.973,1,4.973,1l1.989,1.989,1,3.979,1.99,1-1,2.984,1.989,2.984,2.985-1.989,5.968-2.984h1.989l1.989,1.989,2.985-1.989s1.966,0.593,2.984.994,3.978,0,3.978,0a13.541,13.541,0,0,1,0-2.984,13.48,13.48,0,0,0,0-2.984L172,455.541s-2.184,1.467-2.984,0-4.128-4.39-3.979-4.973a19.521,19.521,0,0,0,0-2.984l2.984-1.99v-4.973a2.726,2.726,0,0,1,1-2.985c1.623-1.436,2.984-4.973,2.984-4.973l-0.995-4.973,2.984-1.99v-1.989a11.736,11.736,0,0,0,2.985-1.99c1.088-1.123,2.93-3.976,3.978-4.973s4.974-8.953,4.974-8.953l1.989-4.973h1.99l1,2.984s1.365,3.769,1.989,3.979a40.748,40.748,0,0,1,5.968,3.979c0.26,0.472,4.974,2.984,4.974,2.984h3.979s2.39-.841,2.984-1a21.079,21.079,0,0,0,2.984-1.989l1-1,2.984,1.989s3.42,1.149,3.979,1a18.924,18.924,0,0,1,2.984,0,46.717,46.717,0,0,1-3.979,3.979c-1.174.866-1.422,3.91-.994,3.979s1.279,1.335,1.989,1.989,0.37,2.587.994,2.984,1.235,3.168,1.99,3.979a20.451,20.451,0,0,1,1.989,3.979l1,3.979,3.979-1a2.7,2.7,0,0,1,0-1.99,29.552,29.552,0,0,0,.994-4.973,10.3,10.3,0,0,0,2.985-1.989c1.022-1.139,1.572-1.78.994-1.99a15.219,15.219,0,0,0-3.979-.994,17.788,17.788,0,0,1-3.979-1l-0.994-3.979,0.994-2.984a23.573,23.573,0,0,0,2.985,1.989c0.457,0.089,1.572-.088,2.984,0s3.978,0,3.978,0,2.154-.22,1.99,1,1,4.974,1,4.974l1.989,0.994,0.995,3.979a4.23,4.23,0,0,0,2.984,0c1.962-.553,1.583-0.528,2.984-1s2.335,0.184,4.974,1,3.976,2.583,4.973,2.984,5.968,2.984,5.968,2.984h3.979s6.819,6.986,6.963,7.958,3.979,4.973,3.979,4.973a28.243,28.243,0,0,0,.994,3.979c0.473,1.109.932,3.042,1.99,2.984s6.809,0.513,6.963,0,1.99,1.99,1.99,1.99,2.158,4.875.994,4.973-2.984,1.99-2.984,1.99-1.063,1.234,0,4.973a33.061,33.061,0,0,0,2.984,6.963s0.73,2.376,1,2.984,1.989,2.985,1.989,2.985,0.664,2.133,0,2.984-0.994,4.973-.994,4.973l-2.984,1.989-1.99,3.98s-3.265,1.951-3.979,1.989a5.686,5.686,0,0,0-2.984,1.989c-0.911,1.079-2.984,3.979-2.984,3.979s-2.093.023-.994,0,3.978,2.984,3.978,2.984l-0.995,1.99-3.978,1v2.984s1.542-.074,0,1.989-2.134,1.007-1.99,1.989,0.482,3.795,1,3.979,1.99,3.979,1.99,3.979l0.994,1.99-2.984,1.989-2.984,1-2.984,2.984v3.979l-1.99,3.978-2.984,1.99-5.968.994-1.99,1-3.978-1.99-3.979-2.984a20.2,20.2,0,0,1,0-3.979c0.255-.8,3.855-1.21.994-1.989s-6.046-1.967-5.968-.995-1.989,4.973-1.989,4.973l-2.984,2.984s-4.224,2.22-3.979,3.98a26.64,26.64,0,0,0,.994,3.978l-2.983,1.99L230.691,558l-7.958,2.985h-8.952s-0.508-4.835-1-4.974-2.984-1-2.984-1h-2.984L204.829,557l-1,.994-3.98-1.989L197.865,558l-2.984,1.99Z" transform="translate(-60 -28)"/>
    <path id="形状_1" data-name="形状 1" class="cls-2" d="M194.881,561.975l1-3.979s3.37-2.2,3.978-1.989,3.98,1.989,3.98,1.989l2.984-1.989s4.1-2.436,5.968,1,1,4.973,1,4.973l7.958-.994,4.973-1.99,7.958-2.984,3.978-2.984-0.994-4.973,4.974-2.985,1.989-3.979,2.984-3.978h4.973l-1.989,3.978s-0.454.823,1.989,1.99,5.969,4.974,5.969,4.974h2.984l1.989-1.99h5.969l1.989-3.979,1-5.968,2.984-2.984,3.979-1,1.989-1.989s-2.629-3.642-2.984-4.974-1-4.974-1-4.974l1.99-1.989-1-3.979v-0.994l4.973-1v-3.979l-2.983-1,2.983-1.989,3.979-3.979,3.979-1.989,1.99-2.985V501.3l2.984,1.989v2.985l-2.984,1.989,0.994,2.984,6.964-1,4.973,2.985,2.984-1,3.979,1,1.989,1.989,3.979,1V520.2l-1.989,3.979,3.978,2.984h5.969l4.973,1,1,3.979-2.984,3.979v3.979l-4.974,2.984-3.979.994H319.22l0.995,7.958L318.226,558l-6.964,1a4.338,4.338,0,0,0-1,1.99,63.3,63.3,0,0,0,0,6.962l-3.978,4.974L304.3,575.9v4.974l5.967,4.973v6.963l-1.989,1.99-2.984,1.989-0.994,5.969-4.974,1.989-1,3.979s0.518,2.151-1,1.989-7.957,1-7.957,1l-2.985,1-2.984-1-2.983,1.989s-6.919,10.83-7.958,11.936-2.984,2.985-2.984,2.985l-1,5.968-6.963-1-2.984-.994,1.989-3.979a7.255,7.255,0,0,0-1-2.985,30.655,30.655,0,0,0-3.978-2.984s0.768-1.859-1-1.989a17.108,17.108,0,0,0-4.974,1s-3.191-2.861-2.984-1-0.994,4.973-.994,4.973-1.854-2.854-1.99-3.978a20.112,20.112,0,0,1,0-2.984l-2.984,3.978,1.99,5.969,1.989,1.989s1.8,1.186,0,2.984a6.993,6.993,0,0,0-1.989,3.979,20.788,20.788,0,0,0,0,3.979v2.984l-1.99,1-2.984,1,1.989,2.984-1,3.978-3.978.995-2.984-.995h-3.979V649.51l-1.99-1h-3.978l-3.979-2.984-1.99-3.979-2.984-1.989-5.968.994-1.989-.994,0.994-2.984-0.994-2.985-1.99-.994,1-1.99,1-.994a2.907,2.907,0,0,0,1.989,0,3.4,3.4,0,0,0,.995-1.99l-1.99-.994-1.989-1-3.98-1.989-1.989-1.989a34.251,34.251,0,0,1-4.973,0,37.9,37.9,0,0,1-3.979-1.99l-1.989-1.989v-4.973l2.984-1.99v-2.984l-0.995-1.99,1.99-4.973,1.989-2.984-1-9.947,1-2.984,1.989-3.979s-3.339-3.927-3.978-3.979-2.985-3.979-2.985-3.979l1.99-1,2.984-1.989,2.984-1,1.989-3.979V562.97Z" transform="translate(-60 -28)"/>
    
  </g>
  <g>
    <text id="长街镇" class="cls-5" transform="translate(706.282 460.942) scale(0.995)">长街镇</text>
    <text id="胡陈乡" class="cls-5" transform="translate(689.425 279.905) scale(0.995)">胡陈乡</text>
    <text id="力洋镇" class="cls-5" transform="translate(604.874 335.608) scale(0.995)">力洋镇</text>
    <text id="越溪乡" class="cls-5" transform="translate(494.408 450) scale(0.995)">越溪乡</text>
    <text id="一市镇" class="cls-5" transform="translate(382.006 503.714) scale(0.995)">一市镇</text>
    <text id="跃龙街道" class="cls-5" transform="translate(350.228 368.402) scale(0.995)">跃龙街道</text>
    <text id="茶院乡" class="cls-5" transform="translate(520.361 300.746) scale(0.995)">茶院乡</text>
    <text id="桃源街道" class="cls-5" transform="translate(377.138 283.883) scale(0.995)">桃源街道</text>
    <text id="桥头胡街道" class="cls-5" transform="translate(441.742 212.264) scale(0.995)">桥头胡街道</text>
    <text id="大佳何街道" class="cls-5" transform="translate(524.271 158.539) scale(0.995)">大佳何镇</text>
    <text id="强蛟镇" class="cls-5" transform="translate(448.705 95.883) scale(0.995)">强蛟镇</text>
    <text id="西店镇" class="cls-5" transform="translate(332.324 111.798) scale(0.995)">西店镇</text>
    <text id="梅林街道" class="cls-5" transform="translate(295.519 218.206) scale(0.995)">梅林街道</text>
    <text id="深甽镇" class="cls-5" transform="translate(155.212 176.454) scale(0.995)">深甽镇</text>
    <text id="黄坛镇" class="cls-5" transform="translate(129.35 334.577) scale(0.995)">黄坛镇</text>
    <text id="前童镇" class="cls-5" transform="translate(261.689 436.074) scale(0.995)">前童镇</text>
    <text id="岔路镇" class="cls-5" transform="translate(148.355 467.904) scale(0.995)">岔路镇</text>
    <text id="桑洲镇" class="cls-5" transform="translate(166.207 572.349) scale(0.995)">桑洲镇</text>
  </g>
  <g id="点亮">
    <g id="组_373" data-name="组 373">
      <circle id="椭圆_1_拷贝_10" data-name="椭圆 1 拷贝 10" class="cls-7" cx="112" cy="328" r="7"/>
      <circle id="椭圆_1_拷贝_10-2" data-name="椭圆 1 拷贝 10" class="cls-8" cx="112" cy="328" r="4.062"/>
    </g>
    <g id="组_373_拷贝" data-name="组 373 拷贝">
      <circle id="椭圆_1_拷贝_10-3" data-name="椭圆 1 拷贝 10" class="cls-7" cx="138" cy="168" r="7"/>
      <circle id="椭圆_1_拷贝_10-4" data-name="椭圆 1 拷贝 10" class="cls-9" cx="138" cy="168" r="4.062"/>
    </g>
    <g id="组_373_拷贝_2" data-name="组 373 拷贝 2">
      <circle id="椭圆_1_拷贝_10-5" data-name="椭圆 1 拷贝 10" class="cls-7" cx="316" cy="105" r="7"/>
      <circle id="椭圆_1_拷贝_10-6" data-name="椭圆 1 拷贝 10" class="cls-10" cx="316" cy="105" r="4.062"/>
    </g>
    <g id="组_373_拷贝_3" data-name="组 373 拷贝 3">
      <circle id="椭圆_1_拷贝_10-7" data-name="椭圆 1 拷贝 10" class="cls-7" cx="432" cy="88" r="7"/>
      <circle id="椭圆_1_拷贝_10-8" data-name="椭圆 1 拷贝 10" class="cls-11" cx="432" cy="88" r="4.062"/>
    </g>
    <g id="组_373_拷贝_4" data-name="组 373 拷贝 4">
      <circle id="椭圆_1_拷贝_10-9" data-name="椭圆 1 拷贝 10" class="cls-7" cx="507" cy="150" r="7"/>
      <circle id="椭圆_1_拷贝_10-10" data-name="椭圆 1 拷贝 10" class="cls-12" cx="507" cy="150" r="4.062"/>
    </g>
    <g id="组_373_拷贝_5" data-name="组 373 拷贝 5">
      <circle id="椭圆_1_拷贝_10-11" data-name="椭圆 1 拷贝 10" class="cls-7" cx="425" cy="205" r="7"/>
      <circle id="椭圆_1_拷贝_10-12" data-name="椭圆 1 拷贝 10" class="cls-13" cx="425" cy="205" r="4.062"/>
    </g>
    <g id="组_373_拷贝_6" data-name="组 373 拷贝 6">
      <circle id="椭圆_1_拷贝_10-13" data-name="椭圆 1 拷贝 10" class="cls-7" cx="280" cy="209" r="7"/>
      <circle id="椭圆_1_拷贝_10-14" data-name="椭圆 1 拷贝 10" class="cls-14" cx="280" cy="209" r="4.062"/>
    </g>
    <g id="组_373_拷贝_7" data-name="组 373 拷贝 7">
      <circle id="椭圆_1_拷贝_10-15" data-name="椭圆 1 拷贝 10" class="cls-7" cx="360" cy="277" r="7"/>
      <circle id="椭圆_1_拷贝_10-16" data-name="椭圆 1 拷贝 10" class="cls-15" cx="360" cy="277" r="4.062"/>
    </g>
    <g id="组_373_拷贝_8" data-name="组 373 拷贝 8">
      <circle id="椭圆_1_拷贝_10-17" data-name="椭圆 1 拷贝 10" class="cls-7" cx="503" cy="293" r="7"/>
      <circle id="椭圆_1_拷贝_10-18" data-name="椭圆 1 拷贝 10" class="cls-16" cx="503" cy="293" r="4.062"/>
    </g>
    <g id="组_373_拷贝_9" data-name="组 373 拷贝 9">
      <circle id="椭圆_1_拷贝_10-19" data-name="椭圆 1 拷贝 10" class="cls-7" cx="672" cy="273" r="7"/>
      <circle id="椭圆_1_拷贝_10-20" data-name="椭圆 1 拷贝 10" class="cls-17" cx="672" cy="273" r="4.062"/>
    </g>
    <g id="组_373_拷贝_10" data-name="组 373 拷贝 10">
      <circle id="椭圆_1_拷贝_10-21" data-name="椭圆 1 拷贝 10" class="cls-7" cx="588" cy="330" r="7"/>
      <circle id="椭圆_1_拷贝_10-22" data-name="椭圆 1 拷贝 10" class="cls-18" cx="588" cy="330" r="4.062"/>
    </g>
    <g id="组_373_拷贝_11" data-name="组 373 拷贝 11">
      <circle id="椭圆_1_拷贝_10-23" data-name="椭圆 1 拷贝 10" class="cls-7" cx="477" cy="442" r="7"/>
      <circle id="椭圆_1_拷贝_10-24" data-name="椭圆 1 拷贝 10" class="cls-19" cx="477" cy="442" r="4.062"/>
    </g>
    <g id="组_373_拷贝_12" data-name="组 373 拷贝 12">
      <circle id="椭圆_1_拷贝_10-25" data-name="椭圆 1 拷贝 10" class="cls-7" cx="689" cy="454" r="7"/>
      <circle id="椭圆_1_拷贝_10-26" data-name="椭圆 1 拷贝 10" class="cls-20" cx="689" cy="454" r="4.062"/>
    </g>
    <g id="组_373_拷贝_13" data-name="组 373 拷贝 13">
      <circle id="椭圆_1_拷贝_10-27" data-name="椭圆 1 拷贝 10" class="cls-7" cx="365" cy="497" r="7"/>
      <circle id="椭圆_1_拷贝_10-28" data-name="椭圆 1 拷贝 10" class="cls-21" cx="365" cy="497" r="4.062"/>
    </g>
    <g id="组_373_拷贝_14" data-name="组 373 拷贝 14">
      <circle id="椭圆_1_拷贝_10-29" data-name="椭圆 1 拷贝 10" class="cls-7" cx="334" cy="360" r="7"/>
      <circle id="椭圆_1_拷贝_10-30" data-name="椭圆 1 拷贝 10" class="cls-22" cx="334" cy="360" r="4.062"/>
    </g>
    <g id="组_373_拷贝_15" data-name="组 373 拷贝 15">
      <circle id="椭圆_1_拷贝_10-31" data-name="椭圆 1 拷贝 10" class="cls-7" cx="246" cy="429" r="7"/>
      <circle id="椭圆_1_拷贝_10-32" data-name="椭圆 1 拷贝 10" class="cls-23" cx="246" cy="429" r="4.062"/>
    </g>
    <g id="组_373_拷贝_16" data-name="组 373 拷贝 16">
      <circle id="椭圆_1_拷贝_10-33" data-name="椭圆 1 拷贝 10" class="cls-7" cx="132" cy="463" r="7"/>
      <circle id="椭圆_1_拷贝_10-34" data-name="椭圆 1 拷贝 10" class="cls-24" cx="132" cy="463" r="4.062"/>
    </g>
    <g id="组_373_拷贝_17" data-name="组 373 拷贝 17">
      <circle id="椭圆_1_拷贝_10-35" data-name="椭圆 1 拷贝 10" class="cls-7" cx="149" cy="564" r="7"/>
      <circle id="椭圆_1_拷贝_10-36" data-name="椭圆 1 拷贝 10" class="cls-25" cx="149" cy="564" r="4.062"/>
    </g>
  </g>
</svg>
