<svg xmlns="http://www.w3.org/2000/svg" viewBox="0 0 3128.17 1745.37">
    <defs>
        <style>.cls-9{fill:none;stroke:#38305b;stroke-miterlimit:10;stroke-dasharray:4}
	    .cls-1,.cls-2,.cls-3,.cls-4,.cls-5,.cls-6,.cls-8{
        stroke: #303254;
        stroke-width: 1px;
        stroke: #9d9d9d;
        stroke-width: 1px;
        fill-rule: evenodd;
    fill: #e5e5e5;
    fill-opacity: 0.35;
}
	    .cls-7{
        font-size: 35px;
    fill: #fff;
    font-weight: 700;
    text-anchor: middle;
    font-family: "Microsoft YaHei UI";
}
        </style>
    </defs>
    <g id="图层_2" data-name="图层 2">
        <g id="图层_1-2" data-name="图层 1">
            <path id="形状_1" data-name="形状 1" class="cls-1"
                  d="M231.63,640.56s22.5,17.79,37,19c0,0,5.66,4,26-1l5-2s7.22-9.24,13-9l30-3s.92,20.54,20,24c0,0,15.24,5.21,43,5,0,0,24.8,1.33,32,10l5-1,6-1s5.3,25,12,27c0,0,5.77.6,9,42,0,0-1.84,4.6-6,3,0,0-8.11-2.6-10,0,0,0-13.77,5.3-22,27,0,0-12,20.83-14,37,0,0-2.85,11.94-2,15,0,0-1.72,8.78-4,12,0,0,1.81,6.36,7,5l28,2,23,3,10,4s12.4.87,15,7c0,0,28.46,10.3,32,10l17,2,21,1s19.55,2.69,26,17c0,0,3.65,14.49,47,23l4,12s8.43,13,9,14c0,0,3,7.28-2,10,0,0-20.08,15.86-14,31l1,32-4,11v11s3.33,7.75,19,5l26-1,38,12s15.93,2.22,23-1c0,0,9.44,1.84,7,12l-16,20-1,4,2,15-4,7-1,7-11,12-2,5v5l-2,9s-3.33,5.29-5,6c0,0-22.59,9.84-33,8h-27s-3.87-1.29-10,17c0,0-3.49,8.54-11,26,0,0-7.9,25.19,1,38,0,0,5.5,11.64,5,16v18l-2,7s-5.66,6.17-24,15c0,0-1.63-17.66-21-17,0,0-10.31-4.62-14-11a7,7,0,0,0-7,5s-5.29,18.62-27,16c0,0-14.39-4.86-17-5,0,0-4.32-.12-2,7,0,0,15.72,13.08,15,23,0,0,2.12,5.37-10,11l-9,6-10,10-5,1s-23.6-12.78-39-32c0,0-3.18-10.75-16,4l-3,2h-5l-20-11s-15.64-2.76-21,2c0,0-5.48-.6-5-6,0,0-.43-9.15-7-10l-11-7s-5.59-2.86-1-23l3-24s5.16-20-24-19c0,0-44.5,5.52-47,8l-11,1-4-1-22-12-1-2h-5s-6.08-4.52-9-11c0,0-7.1-15.67-31-19,0,0-17-4.64-23-3,0,0-13.13,2.71-23,19,0,0-1.36,3.56-3,8h-2l-12-12s-9.78-13.51-18-16l-13-9-9-7s-4.31-2,0-7l14-10s8.11-7.65,0-16l-8-12s-3.44-4.27,0-16l4-8s2.23-7-4-5l-17,7a16.63,16.63,0,0,0-10,14s-1.47,5.51-5,7c0,0-1.24,2.51-9-9,0,0-5.24-10.32-10-12,0,0-13.54-3.81-24,5,0,0-7.19,2.3-7,17,0,0-6.2,3.28-11,1a9.73,9.73,0,0,0-1-13l-15-12-2-21s3.71-8.84-2-13a17.14,17.14,0,0,1-7-16v-15s1.81-10,5-3c0,0-1.72,16.6,11,17,0,0,3.36.78,7-11,0,0,.38-3.81,3-4h8l19,16,5-1s5.18-12.29,10-13l7-1,13,12,25-2s9.06-5.54,6-13l-1-8s-.2-3.43,4-5l24-16v-13s-1.7-2.74-4-2h-8s-7.37.28-3-6l9-7v-9l6-7,23-2s30.89-4.77,34-17v-4s-6.7-6-16-5c0,0-5.58-1.89-3-11,0,0,7.89-4.38,4-10l-4-4v-2s7.22-.81,16,6l2,7s1.8,5.92,11,8l21-8v-17l-3-13-5-8v-5l1-2-1-9-11-11-14-13s-21.18-17-29-19l-7-4-1-28s3.46-17.23,7-19l1-2v-6l-11-13v-8l6-8,1-28-1-14-5-13-1-9a20.9,20.9,0,0,1,13-7s8.65-2.62,8-11l2-8s.17-2.28,7,0c0,0,14.24,7.2,28,4Z"/>
            <path id="形状_2" data-name="形状 2" class="cls-2"
                  d="M231.63,640.56l10-5,1-3-2-8s-4.31-5.39,1-15c0,0,23.49-22.13,11-42,0,0-8.37-11.88-15-12h-6s-6.86-3.9-7-11l-2-36s.18-16,9-22c0,0,9.24-14.26,36-25,0,0,3.49-1.58-2-5,0,0-9.4-9.07,1-15,0,0,8.12-5.17,5-14,0,0,0-13.29,23-3l10,12,3,2,5,3,3,2,2,3a10.06,10.06,0,0,1,0,3,4.23,4.23,0,0,0,0,2l2,4,18,12,8,3h5l11-11,3-3,3-3,8-5s10.56-2.94,19-2l15,3h10l8-6s25.95-29.71,28-30c0,0,9.36-7.71,11,2l1,14s5.16,14.71,31,18l33,1s11.55-1.8,19-14c0,0,8.46-11.74,23-11l11-1s8.9-3.65,12-13l5-4,2-1,8-1s5.79-4,7-16c0,0,3.91-10.89,18-9,0,0,10.53.29,12,7l1,6s2.26,4.76,6,0c0,0,4.53-2.53,6,2l2,4h4l8-7,2-3,4,1,3,4s2.27,8,13,9c0,0,8.57,2,7,9l3,11,3,4s4.92.35,7-3c0,0,5.68.54,6,1,0,0,18.15,8.64,19,11l-1,2-2,3-5,7-3,6v3l4,7v2l-3,3-20,20s-2.1,1.67-2,9l4,11,6,10,4,3s4.07.67,3,6l1,4,3,5,8,6v5l4,4,1,4-6,10v7l-8,5s-20.85-.59-28,14l-8,13-4,9,2,3,2,6,2,4,3,4,2,2h7l4,1,3,2,1,4,1,9,1,5v3l2,4,3,3,6,2h5l7,1,8,4,5,3,3,3-1,8-4,7-3,7s-6.28,12.65-17,12c0,0-4.54-3.06-6,1l-5,4s-3.8,2.86-7,0c0,0-10.58-7.88-19-1,0,0-9.29,5.29-12,20,0,0-1.2,9.62-9,11l-8,7s-2.9,3.12-1,9l9,28,8,9,5,3,1,5,4,6,12,19-3,1-4,9-3,2h-2l-4-7-5-6s-7.09-4.12-18-2a17.47,17.47,0,0,0-9,14s4.52,42.18,13,56c0,0,5.54,21.16-7,25l-24-4s-40.76-5.08-49-25c0,0-9.13-17.41-39-15,0,0-46.58-4.37-57-16,0,0-29.85-11.65-51-11l-26-2s-7.55-.85-3-10l1-2,1-10,1-4s14.31-72.1,46-71c0,0,4.95,5,6-3,0,0,.82-33-10-42,0,0-11-16.93-9-26l-13,2s-5.16-10.6-54-11c0,0-39.39-.17-40-29,0,0-31.27,3.05-35,6,0,0-11.77,12.18-19,10C288.63,659.56,263.36,667.26,231.63,640.56Z"/>
            <path id="形状_3" data-name="形状 3" class="cls-3"
                  d="M678.63,387.56l4,1a18.22,18.22,0,0,0,11.28,11.76c.24.09.47.17.72.24,9.77,3.1,8.15,1.87,10,7l1,9,3,7s2,5.2,10-1c0,0,7,0,8,2l17,10-4,5-8,13s1.3,7.44,4,11c0,0,2,.85-1,3l-23,22s-2,19.31,11,31c0,0,7,1.11,5,10,0,0,.65,4.5,13,12v6l3,3v5l-4,7-1,9-8,5s-24.45.68-29,16c0,0-10.33,14.74-10,19l1,3,1,3,2,6,2,4,2,2,2,2,11,1s3.9,1,4,6l3,17s-1.43,5.83,9,8c0,0,22.26,2.18,28,12v7s-9.2,28.6-24,27c0,0-4-2.3-5,0l-8,6h-4s-12.35-9.77-21-1c0,0-12.17,8.2-12,26l-4,2-9,6-3,3s-2.87,7.12,0,13c0,0,6.5,29,20,35l2,3,2,5,13,20,1,4h3l7,3h6l12-12,11-3h18l23,10,7,1,47-1s17.35-1.63,24-15v-5l-3-8v-3l1-6a21,21,0,0,1,18,1s13.82,4.34,17,8l13,1,15,4,14,3,16,6h8l28-8,11-2,5-2,17-8,12-5,7-2,9-7,15-7-2-3-3-10-5-11-3-6-7-4-9-4-10-8,1-8,3-27,5-30s-1.88-9.48-14-10l-12-1s-9.11-3.18-12-8l-17-18-12-12-12-16-13-10-13-11-11-9-11-9-9-15-9-18-3-14-2-25-1-4-3-7-5-5-6-13-4-10-2-8-2-16-6-5-18-11-13-12-5-12-8-14-9-14-14-21-8-18v-9l4-5,5-4,7-4,11-3,10-6,6-3-12-9-5,4s-14.07,10.83-21,11c0,0-10.63,3.4-10,11l-3,13-7,8-3,22s2.42,18.12-14,19l-22-4s-18.92-5.18-24-1c0,0-14.32,7-18,17Z"/>
            <path id="形状_4" data-name="形状 4" class="cls-2"
                  d="M823.63,283.56l3,3,2,5s2.24,3.64,8,4h5l14,10h7l4-2,6-1h17l14,3,13,6,8,3,15-1h16l4,4,2,9,1,4s2.49,18.58,27,22c0,0,22.16,4.22,25,10v27l1,7s.53,8.61,17,8c0,0,14.3,4.19,14,15l1,6s5.26,11.94,23,10l40,1,14,3s27.55,4.8,31,18v10s-10.56,6.49-10,12v7s-4.23,10.63-8,13l1,7s40.16,23.89,50,25l7,6,1,9-7,16-5,12v12s4.48,11.79,11,16l7,7s-20.13,8-21,14c0,0-8.85,12.91,3,22,0,0,8.36,12,6,25,0,0-1.78,9.65-19,7,0,0-13.94,9.65-17,12l-1,4,15,10,7,2s4-.37,2,9l-1,6,4,5v3l-7,3-13,5s-19.48,11-21,19l-9,9-9,9s-7,11.36-25,6c0,0-19.89-6.7-30-4l-2-3-2-5-3-7-6-13-1-3-3-2-10-5-12-8-1-4,2-10,1-12,2-14,2-12,2-14-1-4-4-3-2-2-5-1-13-1-7-2-11-11-6-7-8-8-6-7-9-10-7-9-11-9-13-10-14-12-10-8-4-6-5-8-4-10-6-12-3-17v-14l-2-10s-2.62-7.33-7-10l-10-19-4-17-1-12-3-3-21-13-12-11-3-6-4-9-4-7-4-7-7-10-8-12-7-12-6-13-2-3v-11l5-5,6-4,5-3,8-2,6-3Z"/>
            <path id="形状_5" data-name="形状 5" class="cls-4"
                  d="M1596.63,301.56l-4,1s-14.28,1-15,6l-2,4v6l5,6h13s22.2,5.67,27,22l1,8s-5.13,8.16-10,9v5l2,4,13,12,17,15,7,9,6,11,6,11,4,9,1,6-1,3v3l11,6,13,5,21,2v12l-5,11-7,9-4,5,1,8,2,5,1,7-1,8-3,12-3,14-5,19-3,9-7,7-4,3-12,4s-6.65,3.25,0,7l7,3,1,2,2,2v4l6,6,8,9,8,8s7.19,7.83,8,17l-1,23,1,40s-8.31,7.31-9,9l-8,10-10,12s-7.58,9-16,10l-13,1-5-6-5-6-4-4-5-2h-4l-9-1s-6.67-2.66-7-8l-4-11s-.8-5.68-9-6c0,0-25,.85-34,4l-48,11s-3.94,1.62-1,3l4,5,1,9h-3l-5-2-4-2s-11-1.53-11,6l3,5,6,8,3,3v6l-2,5-4,4,1,4,3,4,1,26,2,6s3.42,11.17,6,15l3,10,1,7,2,14v9l1,11,3,14s1.67,16,12,23c0,0,16.59,10.16,19,12v9s-7.36,18.84-14,22c0,0-12.33,14.29-27,18,0,0-7.51,2.43-8,7,0,0-8,8.3-8,13l2,19a15.86,15.86,0,0,0,12,8s10.61,1.78,15,7l6,5,7,1s4.3,2.55,3,7l2,8,6,8,3,4,2,5s10.5,12.29,16,13l-38,21a23.9,23.9,0,0,1-18,6l-12-3s-14.46-5.82-16,6v6l8,4,5,3s2.7,4.32-5,8l-14,9s-4.43.74-4,7l-1,6s-.75,6.87-12,4l-4-2h-8s-8.24,2.74-8,8c0,0-10,9.74-21,9,0,0-24.15,2.29-27-6l-1-5s1-5.42-7-3c0,0-13.41,3.42-14,8,0,0-18-10.36-25-10l-18,2h-8l-10-4-9-5-6-4-2-5-3-3-5-7-4-7-1-4v-6l5-12s1.2-4.68,9-7l12-5s10.65-4.48,10-16v-17l-11-10-4-4-1-7-4-3-5-2s-6.83-5-7-10c0,0-1.9-5-9-4l-7-1s-15.41-5.23-23-27l-6-21s1-11.91-16-12l-12-1s-11.28-4.1-13-15l1-2,4-7v-8s-3-7.27-8-3l-7,4h-5s-14.1-6.08-20-21l2-10,1-13v-6l-23-18-19-18s-3.16-4.38-10-3l-8,1-4-2-3-2-14-1s-4.43-1.45-4-8v-3s14.06.29,13-13l-3-7a7.62,7.62,0,0,1,0-9l4-6,1-14h6s8.53,1.57,12-2l13-12,11-11,3-6a100.53,100.53,0,0,1,38-21v-4a4.63,4.63,0,0,1-3.06-5.82l.06-.18,1-9-1-3-2-2-4-1h-5l-6-5-6-5v-3l2-3,14-10h11l4-1,3-3,2-2,1-5-1-9-2-5-2-4-5-6-2-4-1-10,4-7,3-3,5-3,12-6,5-3,16-8,15-5,32,2,8,2,6,5,5,9v7s1.93,5.25,6,6h8l15-5,10-2,5-2,9-4,9-8,9-7,12-9s20.2-1.48,28,8h2l2-2,1-9,3-21,1-4,2-3h12l4-6,1-2,8-6,5-6,8-9v-3l-8-6-5-3-7-2-2-3v-14l6-1,11-2s33.95-4.06,45-13c0,0,10.51-2.91,14-14v-10s3.41-8.78,12-10c0,0,12-4.83,21-14,0,0,14-17,13-32l1-12-5-12-3-7-5-8-4-8-2-8-3-5-5-6-1-2v-6l4-9,7-10,4-6,4-4,7-5,40-1h8Z"/>
            <path id="形状_6" data-name="形状 6" class="cls-5"
                  d="M812.63,274.56l5,4,6,4,2,4,3,5,4,3,9,1,4,2,2,2,7,5h6l7-2h20l9,1,13,4,7,4,6,2h13l13-1,8,1,3,4,1,6,2,8,7,12,8,5,5,2,10,2,11,3s10.66,2.22,11,10l1,31a13.28,13.28,0,0,0,13,8h6s11,4.24,12,14l2,8a20.36,20.36,0,0,0,16,9l43,1s38,3.4,46,17l2,2v12l-8,7-2,3v7l-1,6-4,5-3,4v7s12.95,6.19,16,8c0,0,21.45,12.68,36,18a11.37,11.37,0,0,1,7,12v4s-9.87,18.23-11,23v17s8,15.62,17,20l2-1,2-1,6-3,15-7,10-3,17,1,19,1,7,3,4,4,4,7,2,3v8l4,4,11-1,13-4,7-2,9-2,6-3,9-8,12-9,10-8h15s10.32,3.19,13,7l2,1,2-1,1-3v-6l2-11,3-16,3-3,9,1h3l2-6,7-6,16-16v-4s-9.94-8-18-10l-4-3-1-15s48.07-5.82,58-14c0,0,16.66-4.8,19-16v-10s2.5-7.54,12-11c0,0,19.83-5.93,27-23,0,0,12.9-23.66,4-43,0,0-5.39-14.07-12-23l-1-5-1-2-1-4-2-4-3-3-3-3-1-4v-5l5-10,5-8s9.06-13.46,16-16l49-1-1-11-7-13-3-7-5-5-3-6-5-5-9-5-14-6-7-3-8-5-20-13-6-3-5-1-6-1h-3l-8,1-5,2-8,2-7,2s-17.26,7.63-22-7c0,0-1.12-6.42-7-6,0,0-12.58-7.13-15-13,0,0-9.49-5.54-24-4l-22,3-3-7-6-24-5-14s.1-3.29-6-5l-17-4s-12.59-2.34-20-18l-14-25-7-11a50,50,0,0,0-8-9s-18.16-7.34-20,11l4,30s2.51,17.94-14,24l-16,9-3-3-3,1-7,6-6,7-3,1s-3.91,3.1-8-1l-7-5-6-4-3-1s-7-2.05-10,5l-2,7a5.89,5.89,0,0,0,4,8l6,5a21.51,21.51,0,0,1,5,14v8s-.57,4.56-3,6c0,0-5.3,8.58,3,9l10,2s5.62,3.27,6,7v8s-6.55,7.94-10,9l-6,8-5,10-3,4-6-1s-1.88-6.28-7-7l-5-1s-8.86-2.29-22-22l-12-13-6-8-16-22-4-6-6-8-3-2h-10s-3-.63-4-11c0,0-1.26-10.7-9-7l-1,7-1,6h-3s-6.29-3.43-8-10c0,0-7.1-14.56-19-5,0,0-7.63,5.3-3,15,0,0,1.85,6.34,10,6l6,1v3s-14.91,5.12-14,12l-5,4-8,1-5-2-4,2-2,3,1,6-8,1-6-2h-7s-10.36,1.09-7,10l4,5s3.86,4.92-5,8h-6l-15-7-8-2h-9l-17,23-10,1-7-1-8-3-10-8-1-6,3-14,1-7v-7s-.21-7.23-11-5c0,0-8.14,6.57-24,4,0,0-14.94-5.15-21,8,0,0-12.89,15.73-12,21,0,0-3.23,12-15,15,0,0-11.26,5.2-21,5,0,0-16.63,9-4,10,0,0,5.81,2.08,7,13l3,8-1,5Z"/>
            <path id="形状_7" data-name="形状 7" class="cls-5"
                  d="M692.63,842.56h3l3-3,2-6,3-3,5,1,4,2,7,1,5-4,6-5,2-2,5-2,5-2h21l12,6,6,3,8,2h7l42-1s15.79,0,25-16l-1-7-3-4,1-9,4-2h8l6,2,6,2,4,2,4,2,4,2,8,1,7,1,13,3,12,3,6,2,9,3,4,2,8-1,8-3,12-3,12-3,10-3,13-6,12-5,9-3,6-4,9-6,7-3,4-1,8-1,11,2,6,2,7,2-1,13-6,10,1,6,2,3,1,4v2l-1,6a8.53,8.53,0,0,1-7,4h-3l-2,3,1,2v4l1,2,3,1,12,1s6.44,1.57,9,4l14-1,14,13,13,11,19,14-3,29s-1.09,3-6,1l-13-3h-7l-5,2s-7.53,3.59-8,5c0,0-17.27,14.72-19,17l-11,10-12,18-11,21v7l-3,3h-9s-7-.3-7,8v6s-2.28,5.91-12,6c0,0-42.39,5.68-57,22l-29,21-22,14s-16.35,7.93-19,14c0,0-47.42,52.56-83,38,0,0-41,8.93-101-16l-2-1v-17l17-22-1-6-6-5h-3l-3,1h-16l-11-3-13-4-10-3-6-2-18,1-16,1-6-2-4-3v-11l3-12v-5l-2-36,3-6s6.67-13.46,15-18v-7s-14.64-19.72-13-27l24,4s9.84.2,8-18c0,0-2.25-14-6-21l-4-18-3-17v-11l4-6,2-3,2-1h10l9,2,2,3,3,5Z"/>
            <path id="形状_8" data-name="形状 8" class="cls-4"
                  d="M728.63,1105.56l11,4s18.33,6.06,37,10c0,0,14.41,5.13,54,3,0,0,.9,21,28,36l17,12,19,11,19,8,13,6,10,7,1,4-3,6v3l3,3,9,11,8,12,5,8,5,11,1,9-1,7-6,7s-5.18-5.39-12-2l-11,3-12,1-8,2-11,5-6,4h-3l-10-8-6-5s-6.88,2.54-8,5c0,0-4.54,8.23-10,13,0,0-11.53,7.87-20,9l-14,1h-18l-3-2-13-13s-14.26-11-27-12l-3-1-2,2-3,1-1,2v4l1,7,1,3,1,7,1,2,1,11v4s-10.9,11.93-21,1c0,0-5.08-14.19-19-11,0,0-12.28,3.55-15,10,0,0-9.19,11.26-14,13,0,0-19.33,9.73-50,9,0,0-32.21,3.36-39-6,0,0-4.63-7.63-4-16l2-25,6-3,10-5,7-5,3-5,2-23-4-13-5-8v-8l1-20,6-16,5-11,6-16s1.91-5.51,10-4h31l21-7,5-3,3-4,2-8v-9l12-13,2-3v-3l2-5Z"/>
            <path id="形状_9" data-name="形状 9" class="cls-4"
                  d="M2813.63,414.56l1,13,5-1,4-1,3-3,11,1v5l10,2h9l3,3,1,3-1,3-6,16-3,8-1,8-3,1-7-2-6,1s-11.63,4.32-13,12l-2,7s-2.64,5.5-8,6h-7l-3,13v8l3,5,5,8,6,4,2,3v6l3,2,8,1,2,2-2,13-1,16,3,9,1,11-3,4v11l3,8,3,7,7,15,6,10,6,6,7,5,12,9,7,4,2,3v5l1,8,1,8,1,7,5,13,2,6,2,8v11l-2,6v15l4,5,2,4v7l-13,10-5,2-5,1h-20l-4,2-4,1-4,2-3,5-1,5-1,4-1,8v4l-2,5-1,5v5l2,7,5,5,2,6,2,3,4,7,6,5,6,3,4,5,2,3-1,5-3,1-9,1-3,1v3l-1,5-4,4h-4l-3-1-4-1h-5l-8,1-5,2s-14.53,14.23-14,21l-5,22-4,18-2,15-3,16-2,13-1,3,28,13,15,7,4-1,3-2,7-5,11-6,14-8,19-12,10-7s13-9.42,27-7l16-17,5-3v-2h-19l-3-1-13-14-8-11-7-8-4-4-7-2-7,1-1-5-4-1-1-7,3-1,2-2-1-2-1-2,1-3,3-3,1-4,5-6,7-1-1-1,3-3v-2l3-1,5,2,1-5-1-6-3-4v-9l5-1,1-3,3-1,2-2h6l3,5,5,6,10,4,6-3,6-3,2-4,8-1,5-1v-2l10-4h7l7-3,3-2-4-2-1-3h6l-1-3h-5l1-2h10v-3l-6-4v-3l2-1-1-4,2-3,2-2v-2l4-2,5-5-2-5-2-3,3-5,1-3,5-5,5,2h2v-3l-2-1,4-1-2-5-3-1-2-7-2-5-9-1-1-3v-4l1-5-2-4v-2l4-3,12-6,3-2s3.21-.31,3,0,4.7,4.08,5,4,3.07,1.45,3,2,2.21,2.65,3,3,4-1,4-1-.35-3.95-1-5a11.32,11.32,0,0,1-1-2v-2l1-1,15-5,7,3h4l1-3h2a25,25,0,0,0,3,0c-.4-.11-1-2-1-2l-3-2v-4l3-2,1-5,3-4s1.65-3.95,2-4-2-2-2-2v-1l2-2-2-3-7-2-3-1v-3l3-2v-6l3-2v-3l-3-2v-3l3-1h12l15-43,22-64,18-53-1-2-8-3-73-26-6-1-13-13-17-10-15-10-14-9-24-14-24-15-8-12-10-12-7-2h-7l-8,1-9,2-17-1-6-2-6-6-13-4-11-2h-7l-5,2-3,4v13l6,11,2,3,3,5s-1.64,5.56-2,6-8,2-8,2Z"/>
            <path id="形状_10" data-name="形状 10" class="cls-4"
                  d="M3022.63,777.56s-1.43,5.54-1,6,3,4,3,4a27.05,27.05,0,0,0,3-1c.42-.26,3-3,3-3l1-3-1-2-1-2-3-1-2,1Z"/>
            <path id="形状_11" data-name="形状 11" class="cls-5"
                  d="M2777.63,1059.56l8-46v-6l4-23,9-44,4-16s7.64-25.43,32-20l7,1h4l3-5,1-7,13-2,3-5-2-3-5-6-10-7-3-4-3-6-3-7-4-3-2-7-1-7,1-7,2-4,2-17,2-6,4-3,8-3,2-1h19l8-1,16-12-1-8-5-7v-17l2-10-1-11-4-11-5-13-6,3-7,3-6,4-3,1-4,1-1-1-11-10-22,10h-7s-4.81.2-5-7v-17s-10.48-.5-21,0c0,0-4.57,2-8-4l1-14-3-2h-4l-3,1a35.09,35.09,0,0,1-16,6s-11.58,13.44-16,14l-3,1h-4s-9.32-11-17-12l-6-4v-12l1-4,4-3,5-6,2-2v-3l-4-2h-14l1-12-2-2-5-3h-5l-10,2s-12,4.65-13,11l-4,17-4,15v6l2,7-2,3-6,4-6,4-5,6-4,7-5,7-4,9-5,8s-2.93,6.78-17,6l-17-2-5-1-5-1h-9l-7-1-10-1-6-2-5-2h-4l-6,1-7,2s-14.63,6.17-23,2l-5-4s-7.54-7-1-17l19-17,1-2-1-5-1-6s-5.59-16.65-26-25c0,0-26.13-11.06-31-12,0,0-23,3.67-23,7l-3,14s1.38,24.79-28,26l-16,1-12-3-6-3h-7l-10,9-4,2-7-2-6-4-9-9-7-10-4-6v-5l2-4,1-5-1-2-2-1h-4l-4,2-4,2-3,1a15,15,0,0,0-3,0c-.39.2.22.85-1,0s-3.5-2.1-4-2-3-2-3-2-1.36-.43-1-1,0-4,0-4l2-30s.35-3.88-5-4c0,0-38.32,1.8-46-1l-13-6-7-6h-8s-9.39-11.5-11-22c0,0-.92-2.43-5-3l-7,1-7-7-1-3-1-6s-7.32-8.28-12-9l-10-6-12-9-4-3-7-1-8-3-12-9-3-4-6-1-6-1-7,1-2,1-3-1,1-6v-7l-5-5-6-4h-7l-9,4-7,1-4-5-4,1h-2l-4-5-3-2h-3l-2,1-2,3-1,4,1,4,2,10-1,3-9,1-11,1-6,1-3,1-10,3-10,4-5,3-7,6-8,6-7,4-8,2a28.9,28.9,0,0,1-22-15l-12-14-6-4-4-5-1-4v-16l-5-13-3-7-5-3-4-1-27-17-4-9-1-4-7-7-2-2-5-1-4,1h-10l-13-9-7-4s-3-1.7-4,3l-1,10s-5,.38-8-3l-17-16-8-7s-5.18-3.95-9-3c0,0-4.45.22-3,6l4,20s-1.56,15.74-15,11l-4-1-3-3s-12.71-14.22-34-9c0,0-19.85,7.48-19,13v4s17.08,8.81,23,15c0,0,7.51,6,6,8,0,0-2.56,3.47-6,4l-1,13-6,12-6,8-3,4,1,8,3,9-2,16-3,11-7,31s-3.44,17.79-26,21l-2,2v4l7,2,5,6v5l10,10,12,12,8,13v68l6,1s12.7,12.13,36,6c0,0,9.59-1.71,15,4l19,20,10,17,8,24,7,17s5.39,5.84,12,6c0,0,5.66,3.51,6,5,0,0,11.26-.76,16,6l6,7,42-2a27.47,27.47,0,0,1,14,13s11.95,26.12,26,36c0,0,14.51,16.37,25,20l18-3s10.51-.52,15,6l19,18s4.26,3.78,11,0l6-2,2,5-1,32-3,22-2,9v7l6,14s1.83,24.78,2,26,1.34,10.43,24,10l8,2,21,3,17,2,12-3,6-1,10-3,6-1,11,2,10,6,12,12,7,13,5,21,5,21,3,7,8,7h8l14-5,17-14,6-6,6-13-1-15-6-9-9-12-7-20,1-10,5-11,10-10,10-7,21-6,19,3,33,13,10,2,12-1,10-2,10-5,9-9,15-15,12-14,11-6s20.48-8.92,34,14a75.89,75.89,0,0,1,18,36s5,18.47,10,27c0,0,19.9,27,55,20l17-5,7-6,10-9,11-9,8-8,11-8,13-6,21-9,18-5,16-1,19,2,20,3,15,7,17,14,14,12,27,22Z"/>
            <path id="形状_12" data-name="形状 12" class="cls-6"
                  d="M2234.63,213.56l16-10,6-4,6-6,6-5,5-2,4-2,8-3h7l4,1,5-2,12-6,15-8,12-7,9-4s11.12-3.12,14,10a40.82,40.82,0,0,0,24,31l16,6,26,13s14.7,9.27,19,15l9,13s6.16,5.54-1,11l-7,12s-2.9,8.1,4,10l23,7,21,10,18,13,30,10,16,10,1,4-1,10,1,8a139.23,139.23,0,0,0,23,9,6.34,6.34,0,0,0,6-3l4-3,11,7s.47,2.82,6-2c0,0,11-1.14,16,12,0,0-.76,10.95-4,14l2,4s12.13,1.47,15.58,6.3a7.2,7.2,0,0,1,.42.7,27.1,27.1,0,0,0,8,9h5l11-2,12-4h9l2,1v13l1,16,1,17,1,11-1,11-10,13-7,8s-7.4,10.63,1,15l8,11a11.62,11.62,0,0,1-5,11l-8,13s-6.47,11,4,12c0,0-1.36,6.88-6,11l-2,5,1,9v9s4.28,7.84,10,9l1,19,13,11,5-1,3,3v6l5,3s1.22,13.56,1,14,15,1,15,1,2.87,1.42,2,4l-12,12v15s18.46,8.49,24,16l7-1,3-3,9-9,4-2,6-1,5-3,7-3h5l2,5v12l4,3,21-1,3,2v4l1,15s-.94,4.21,8,4l6-1,17-9h2l11,10h5l11-6,11-5-1-11-1-16s-38.51-23.17-41-38c0,0-15.58-26.35-13-39l4-3-1-13-4-7,4-29s-1.55-4.41-9-3l-5-4,1-4a40.84,40.84,0,0,0-8-9l-8-12,2-17,1-4h8a14.24,14.24,0,0,0,9-13s5.91-17.53,27-11l2-2s1.76-14.22,4-18l6-15s1.54-7.29-5-7l-15-2h-2v-5l-11-1-3,4-4-1-6,2v-12s-17.53-4.35-25-16l-5-4-6-5s-10.52-9.22-30-2v22s-4,7.05-10,1l-12-18s-3.15-7.21-16-9c0,0-20.51-1.6-21-20l1-28s.67-23.81,15-34c0,0,18.57-10,17-27,0,0-1.33-19.8,15-21,0,0,16.81-7.21,14-32l-19-28-11-17-17-24-19-28-13-16-16-17-6-9-14-18s-8.21-8.91-15-12c0,0-11.66-5.26-13-8,0,0-6.3-7.94-13,1l-20,15-8,12-4,7-11,12s-6.14,3.86-7,11c0,0-4.28,11.17-10,5l-17-22-22-30-19-25s-18.53-21.6-24-23c0,0-6.89-8.9-33-8,0,0-26.67-.63-50,25l-17,17s-7.54,11-23,19c0,0-20.54,2.15-35,33,0,0-13.62,33.1-23,37,0,0-17.69,14.75-9,29,0,0,5.76,10.46-6,17,0,0-22.18,8.14-22,28Z"/>
            <path id="形状_13" data-name="形状 13" class="cls-2"
                  d="M2050.63,495.56s21.65-22,22-32l6-15,9-11v-5l-11-4s-5.48-6.18,9-11l13-3,3-10,5-13,1-8v-5l-11-11v-5l8-9,1-5-1-5-3-7-1-8s-2.35-33.49,3-39c0,0,5.78-24,10-27,0,0,5-12.31,13-6l19,14,13,8s7.18,7.55,12-5l6-20s1.59-6.45,14-7l39-9s7.9-3.47,5-14v-10l9-5,9-6,8-7,7-6,8-4,8-3h1l10-1,3,1,4-2,31-16,12-6,5-3h4l5,1,4,5,3,12s8.39,21.12,29,25c0,0,26,11.66,27,13,0,0,27.58,10.94,38,35v5l-6,8-3,6-1,2v6l5,4h4l13,5s14,4.11,20,8c0,0,13,7.27,15,10l12,7,16,5,15,6,10,7s3.4,2.32,3,8l-2,12,3,4,5,2,10,4,8,3,4-2,3-4h3l5,2,6,5,6-3s14.51,2.41,15,16l-2,7-2,4,2,3,6,1,9,4,4,7a9.23,9.23,0,0,0,10,4s11.95-1.85,18-5c0,0,15.95-1.47,16,0l1,15,2,48-1,4-3,4-5,8-9,10-3,5s-2.36,5.12,3,10l8,9s3.08,6.15-2,11c0,0-12.71,15.56-12,19l1,6,3,1,2,2-1,2-2,4-5,7v7l1,13s2.62,7.32,10,9l1,20,12,10h7s3.82,5.87,1,8c0,0-20.35-.39-28,11l-3,16-2,8-3,6-1,5,1,7,2,5-3,3-7,5s-13.36,11.23-15,19c0,0-12.25,24.26-17,26,0,0-17.37,2.77-24-1,0,0-37.8-4.38-39-4l-11-3s-10.63-3.07-24,4l-12,1-6-1-4-3-4-5v-10l19-19,3-3-1-7s-5.85-22.75-27-29l-28-11s-5.77-1.06-9,0c0,0-13.54,1.39-14,3a14.67,14.67,0,0,0-5,12s1.61,24.93-22,30c0,0-28.22,5.64-41-5l-8,1-12,11s-10.9-1.27-15-7c0,0-19.26-21-19-24,0,0-.77-5.8,1-7l1-4v-4l-1-2s-7.58-.21-12,4c0,0-10.87,2.72-16-4l2-35s-2.07-4.26-8-3c0,0-50.94,5.87-62-13l-9-1s-9.73-9.64-11-21c0,0-2.3-3.22-6-3l-6,1-7-8-2-7-4-4-5-5-4-1-24-17-2-1-5-1s-11.33-.25-24-16c0,0-12.08-3.7-16-1l-6,1-1-1v-14l-11-8s-10.13-.44-12,2l-5,2h-6l-4-4Z"/>
            <path id="形状_14" data-name="形状 14" class="cls-1"
                  d="M1820.63,819.56s13.78-2.26,22,13l37-2,7,1s10.43,5.44,13,14c0,0,15.62,35.83,50,54l22-3s7.53,1.18,15,10l16,15s4.77,2,11-1l5-2,2,3s0,38.32-4,54l-3,12a30.36,30.36,0,0,0,5,14l2,6,2,26s-.82,9.89,21,10l9,2s-4,1.06-1,5l6,5,5,8,7,8,4,5,8,10,10,7,10,3,7,2,10,8s6.36,4.09,8,17l3,7,4,10s10.16,21.09,0,23c0,0-18.93-4.86-37-3,0,0-9.34.85-4,14,0,0,19.91,7,22,8,0,0,1.36,4.75-1,8l-1,11-6,5-13,7s-4.05,3.37-4,5l6,6,2,5v6l-1,6-5,4-8,6-3,6-19-1s-7.09-3.17-5-8l6-14,5-4v-5s-2.47-8.09-24-10c0,0-34.1-4.34-53,2,0,0-9.06,2.3-7-8l-1-12s-4.38-10.18-12-11c0,0-9.85,1.27-18,12,0,0-10.84,8.41-12,16l7,8s3.24,3.76-9,8l-27,11s-25.85,14-34,12c0,0-6,2-6-5,0,0-8.82-22.16-42-16a38.31,38.31,0,0,1-14,0s-8.91-6-5-18c0,0,15.73-17.5,18-37,0,0-1.94-18.81-26-10l-11,14s-9.93,7.83-14-5c0,0-11.76-18.92-15-21l-13-22-4-13-3-7s-8.26-15.71-29-17c0,0-39.23,9.67-46,15l-12,5-8,10s-3.88,6.53-19,2a31.89,31.89,0,0,0-16-3s-14.83,1.1-18-4c0,0-5.64-4.36,1-7,0,0,8.77,1.45,9-2,0,0-.34-11.63-6-11l2-2s11.15-4.45,12-6l5-3,5-4,5-1,7-2h5l6-1s13.32-2.16,16-7c0,0,7.39-7,23-9,0,0,5.74,0,10-6,0,0,8.24-10.13,18-11h13s8.75-2.3,15-7c0,0,16.67-7.8,21-6,0,0,8.32-2.56,15,11,0,0,7.11,14,20,12h12l4-2,9-4,5-4,10-6,11-4,11-4,7-2,12-4,10-3,10-3,5-2a18.72,18.72,0,0,0-18-9s-6,4.05-12-2l-4-12-4-11-7-13-5-8-2-4,1-10,2-21v-16l-2-13-6-16-8-12-5-10-6-13-2-6-1-9-2-13Z"/>
            <path id="形状_15" data-name="形状 15" class="cls-6"
                  d="M1597.63,1100.56s17.74-6.57,22-12c0,0,7-5.43,26-6,0,0,12.64-1.91,15-7,0,0,15.84-9.56,28-10,0,0,17-16.47,24-16h14l23-11,11-2,8,1,7,9,5,6,8,6,16,1,6-1,8-4,20-12,15-5,19-6,20-7,10-3s-6.72-12.68-23-8c0,0-9,.63-9-10,0,0-14.71-37.41-20-40,0,0,12-59.18-11-86,0,0-15.43-24.9-15-33,0,0-2.92-26.22-4-26a12.55,12.55,0,0,0-11-4s-10.07-5.94-9-11l-8-20-2-9-5-10-7-11-3-5-14-14-6-6s-10.63-5.21-17,0h-14s-14.76-4.66-18-8h-5s-3.75-.67-7,4l-19,25s-9.84,11.35-23,11h-7s-11.77-17.16-20-18l-11-1s-8-1.56-9-11c0,0-2.84-18.18-15-13,0,0-34.76.33-80,15,0,0-2.41.14,1,4,0,0,6.65,3.59,3,12h-3s-11.88-7.43-16-3c0,0-5.62,3.67,0,9l8,11s3.58,9-5,16l1,3,4,5v26s7.57,21.37,9,23c0,0,5.32,21.6,5,31,0,0,.43,28.64,5,35,0,0,3.47,17.36,14,22,0,0,13.85,6,16,11a31.72,31.72,0,0,1-9,24s-12.48,17.83-31,24c0,0-8.08,1.07-9,8l-6,7-1,4,1,19,3,5,5,3h3l7,2,6,3,4,4,5,4,8,1,2,3,1,8,2,5,5,6,8,13,7,7,6,3S1594.87,1094.23,1597.63,1100.56Z"/>
            <path id="形状_16" data-name="形状 16" class="cls-1"
                  d="M831.63,1122.56s31,6.4,54-14l11-9,13-11,8-9,7-5,26-16,19-13,21-16,9-5,15-6,16-4,17-3,4-3,3-3-1-9,6-4h10l3-4v-6l10-19,7-10,6-10,16-15,8-7,14-10s8.14-3.91,27,1c0,0,2.76,2.68,4-2l3,8,4,5,10,8,6,2,6-2,6-4,4,3,1,5-1,5-2,4-2,3,1,6,1,3,6,5,5,4h6l12,1,5,2,4,5,2,10s7.6,35.44,27,42l9,1h5l3,4,2,4,4,6,4,1,4,3,3,4v4l2,3,7,5,5,5v22l-2,6-5,4s-14.71,7.15-21,10c0,0-9.17,14.45-6,24l3,8,5,8,4,3,2,4,6,5,13,7s8,4.3,33,0l24,10,1,9s2,13.83-15,24c0,0-30.37,15.93-55,7,0,0-13.14-3.79-18-4l-7,2-7,1-4-1-4-5-2-5-4-1-7,4-2,5v5l-1,7-12,5s-11.78-.22-15,12c0,0-19.78,31.4-36,41,0,0-13.48,15.27-44,32,0,0-2.72,8.44-29,5,0,0-14.49,3-12,20,0,0,5.48,19.88-4,9l-13-8s-5.41-.7-8,3l-11,6s-7.68,6.16-18,1l-29-13-19-10-22-8-9-5s-7.61-10.4-7-16c0,0,1.11-14.29-3-15,0,0,14.27-4.66,9-22,0,0-19.73-37-31-47l1-5,1-2v-4a56.66,56.66,0,0,0-25-15s-42.37-18-47-26c0,0-23.3-12.7-31-31Z"/>
            
            <path class="cls-8"
                  d="M1436.57,1560.44l10.45-1.66,2.38-.79,1.29-2.58,2-2,3.17-3,1.52,3.31s2.08,2,2.08,2.58-1.19,6.74-1.19,6.74l-2.44,5.69a41.38,41.38,0,0,1-4.1.89c-.67,0-7.38-1.19-7.87-1.06s-5.29,0-5.29,0a16.25,16.25,0,0,1-2-2C1436.63,1566.39,1436.57,1560.44,1436.57,1560.44Z"/>
            <path class="cls-8"
                  d="M1579.7,1691.9l4-2.65,4.5-3.84,3.44-2.64,4.76-4.63a28.35,28.35,0,0,1,3.7,1.72c.4.4,4.37,1.06,4.37,1.06v4.1l-5.56-.66h-2.38l-1.85,2.51,3.7,1.32a25.69,25.69,0,0,1,.4,2.91c0,.8-1.72,3.84-1.72,3.84l-7.14,1.85s-6.22,4.76-6.88,5.29-5.16,0-5.16,0l-.53-5.82Z"/>
            <polygon class="cls-8"
                     points="1728.89 1662.67 1746.74 1676.42 1747.93 1672.85 1748.72 1668.88 1744.49 1665.97 1740.26 1664.12 1739.47 1661.21 1737.48 1657.51 1731.8 1657.51 1728.89 1657.51 1728.89 1662.67"/>
            <path class="cls-8"
                  d="M1778.22,1677.61l4.76,6.22,2.91,2.11,2.38,6.22,6.21-.66v-2.25s.53-4.1.66-4.36,0-6.09,0-6.09L1792,1675l-3.31-2.25-2.91-.93h-5.29a15.36,15.36,0,0,0-1.45,1.85c-.26.53-.79,2-.79,2Z"/>
            <path class="cls-8"
                  d="M1805.33,1631.06v-4.63l2.91-2.78,2.51-2.25,5.29,3.18,7.41,4.89,9.39,4,5.42-1.72,4.76-2.25,6.48,4,4.23,5.55,4.5,5.16,1.72,7.94v10.31l-9.13.93s-7.53-.13-8.86,0a20,20,0,0,1-4.63-.66c-1.45-.27-7.53-6.62-7.53-6.62l.13-3.3s-.53-2.65-.53-3.31-3.84-4-3.84-4v-3.09l-.92-1.27-6.48.66a18.86,18.86,0,0,1-4.63-.13c-1.59-.4-5.69-2.65-5.82-3l-1.59-4.76Z"/>
            <path class="cls-8"
                  d="M1877.27,1676.82l1.19,3.57.93,3.44,5.29,1.72H1890l2.78,1.32s3.17-1.85,2.78-2.78a35.55,35.55,0,0,0-3.18-4.1l-3.31-.66s-4.62-3.44-5.29-3.44a15.27,15.27,0,0,1-3.17-1.32Z"/>
            <path class="cls-8"
                  d="M1792.37,1605.27l-5.95-5.69v-7.4l-7.67-6.22-5.82-3.17-7.15-1.59s-7.67-1.06-8.06-1.06-1.85-1.32-2.25,0a9.89,9.89,0,0,0,0,5.56c.66,1.71,5.69,3.7,5.69,3.7l1.58,3a10.75,10.75,0,0,0-.79,2,13.82,13.82,0,0,0,.13,4c.4,1.19,4.37,2.65,4.5,3.18s4.63,1.32,4.89,2.11,2,1.32,3.31,1.59l5.29,1.06,3-3.57s2.12-.66,2.64.53,2.78,2,3,2.51-.93,2.91.39,3.44,4.5,0,4.5,0v-2.65Z"/>
            <path class="cls-8"
                  d="M1664.51,1622.3c.1.26,2.65,2.58,2.65,2.58a5.09,5.09,0,0,0,2.64.69,23.88,23.88,0,0,0,3.41-.93c1.12-.39,2-2.87,2-3.5s-.07-3.08,0-3.21-3.14-4.76-3.14-4.76a27.91,27.91,0,0,0-4-.56c-.49.13-3.57.36-3.57.36l-2.64.4-1,1.36a22.73,22.73,0,0,0,.3,3.83,12.05,12.05,0,0,0,1.09,2Z"/>
            <path class="cls-8"
                  d="M1655.22,1600.47l2.94,5.82s2.45,3.15,3.28,3.54a25.29,25.29,0,0,0,4.66.63s1.25-2.31,1-3.27-2.84-4.17-3-4.43-3.17-2.68-3.17-2.68Z"/>
            <path class="cls-8"
                  d="M1998.05,1454.3c-.19.3-1.78,6.85-1.78,6.85l-1.19,1.19a4.44,4.44,0,0,0-1.39,2.67,8.83,8.83,0,0,0,.89,3.77,11.58,11.58,0,0,0,2.38,2.38c1.79,1.59,6.55,2.68,7,2.78a32.74,32.74,0,0,1,4.86,1.29c.89.5,2.48.5,3.27,1.09s3,1.79,3.27,2.18,3.18,1.39,3.38,1.89a55.4,55.4,0,0,1,2.18,5.36c.3,1.28,1,3.47,1,3.47l1.49,4s2.28,3.67,2.48,4.27a2.46,2.46,0,0,0,1.59,1.59c1.09.49,1.28.69,2.47,0a7,7,0,0,0,2.29-2.38c.19-.4-.8-3.08-.8-3.08s-.79-1.19-1.19-1.88a34.22,34.22,0,0,1-2-3,26.66,26.66,0,0,0-2.18-3.27l-1.09-2.28s-.3-1.89.09-2.19a20.46,20.46,0,0,1,2.68-1.88c.3,0,.4-.2,1.49-.7s3-.93,3-1.51,0-3.74,0-3.74.37-3.77.47-4.37.25-3.77-.47-4.16a61.69,61.69,0,0,0-5.78-2.78h-6.94l-6.26-1.69a4.89,4.89,0,0,0-1.28-.69c-.3,0-2.18-.89-2.68-1s-3.87-1.49-3.87-1.49Z"/>
            <path class="cls-8"
                  d="M1925.05,1452.91c.2,1.49,1,5.66,1,5.66a32,32,0,0,1,1.79,4.86c0,.79-4.17,1.29.89,2.48a43.78,43.78,0,0,0,9,1.19l1.49,1.19a7.27,7.27,0,0,1,.19,2c0,1.39.4,3.77.4,4.76a24.87,24.87,0,0,1-1.69,5.76,18.75,18.75,0,0,0-1.19,2.57s-1,4.27-1.09,5.36-.29,6.35-.29,6.35l3.76,3.27,13.69-5.55,3.67-.7,4.76.1,4.07-2.08,1.59-2.78s2.48-.49,2.87-.49a21.78,21.78,0,0,1,3.08,1.58l2,1.49,5.56,1,3.47-1.88s-.5-3.37-.79-4.27-2.88-5.55-5.06-6.94-7.44-4.36-7.84-4.86-4.07-4.66-4.56-5.06-4.27-4.07-5-4.46-4.56-2.88-5.36-2.88-6.94-1.59-7.34-1.69-4.16-1.38-4.16-1.38l-4.57-1.89-4.76-3.47-.89-1.69h-4.66Z"/>
            <path class="cls-8"
                  d="M1887.85,1421.47l.45,2.43.79,1.64,1.34,1.24s4.57,1.09,5,1.29,2,.34,2.73.49,3.27-.69,3.57-.49,3.67-1.24,4-1.24,2-1.49,2.88-1.49,2-.15,2-.84,1.19-1.79,0-3a10.36,10.36,0,0,0-6-2.73c-2,0-5.16-.54-6.45-.35s-3.77.6-5.26.8S1887.85,1421.47,1887.85,1421.47Z"/>
            <path class="cls-8"
                  d="M1881.46,1402.92h2v-3l-3.12-5.31s-2-1.74-2.14-2-3.37-3.58-3.37-3.58a29.63,29.63,0,0,1-3.12-1.58c-.2-.25-1.54-.85-1.44-1.24a5.93,5.93,0,0,1,.25-1.24,23.79,23.79,0,0,1,1.48-2.18s1.14.14,1.29,0,2.68-.4,2.93,0a6.89,6.89,0,0,0,1.88,1s1.44.39,1.89.59a36.77,36.77,0,0,0,4.81-.1l8.53.3,1.34-.45s.49-3.17.54-3.37-.69-1.44-1.29-1.54-6-1.09-7.93-.94-4.56.25-4.56.25l-3.67.1a10.12,10.12,0,0,1-2-.1,1.4,1.4,0,0,1-1-1.14c-.1-.69-.79-2.68-.84-2.93s-.15-1.88-.15-2.23,1.59-2.38,1.54-2.53.25-2.13-3.23-2.53-5.45-.74-5.45-.74-1.59.15-2.78.2a36.76,36.76,0,0,0-4.71.29,18.53,18.53,0,0,0-2.28.35l-2.38,1a7.24,7.24,0,0,0-2.78.4c-.64.45-2.43.74-3.52,1.49s-1.74.89-2,2a7.08,7.08,0,0,0-.05,3.23,9,9,0,0,0,.94,2.33,42.86,42.86,0,0,0,3.17,5c.25.19,16.27,11.65,16.27,11.65s5.4,4.46,5.45,4.81a12.58,12.58,0,0,0,3.48,3.13C1876.84,1403.17,1881.46,1402.92,1881.46,1402.92Z"/>
            <path class="cls-8"
                  d="M1734.57,1410.59l4.1,1.72,3.71,2v2l2.24,4A35.57,35.57,0,0,1,1747,1423c.53.8,3,1.86,3,1.86a32.3,32.3,0,0,1,4.63,2.24,13.6,13.6,0,0,0,5,2c2.51.66,5.69,1.32,5.69,1.32l3.57.79,2.11-3s1.33-1.19-.66-3.57-2.77-3.31-3.7-4.5a20.76,20.76,0,0,0-3.57-3.43c-.66-.4-1.32-1.06-2-1.46s-2.65-2.12-2.65-2.12a2.31,2.31,0,0,0-1.59-1.32c-1.19-.26-2.11-.53-5-1.19a26.7,26.7,0,0,0-4.23-.92c-2.78-.4-5.56-.93-6-.93a12,12,0,0,1-2.24,0C1738.28,1408.61,1734.57,1410.59,1734.57,1410.59Z"/>
            <path class="cls-8"
                  d="M1769.88,1443.26l2.52,5,5.42,1.72a11,11,0,0,1,3,1.46,18.79,18.79,0,0,0,3.57,1.85s6.09,2.78,6.88,3.57,2.91.79,2.91.79v1.86c0,1.72.79,2.51,0,3a2.88,2.88,0,0,0-.93,1.85l1.28,3.44s.09,2.25,0,3,.84,0-.09.79a5.28,5.28,0,0,1-3.17.8c-.53,0-6.22-2.12-6.22-2.12a24.23,24.23,0,0,0-2.7-.93c-1.79-.52-2.72-1.45-3.64-1.71s-3-2.91-3-2.91a10.79,10.79,0,0,1-1.58-2.12c-.14-.53,0-1.59-1.46-1.59s-1.32-.66-2.78-.66a11.23,11.23,0,0,0-2.51.27l-2.78.39s-2.38-.26-2.77-.66l-1.72-1.72-3-2.51a15.06,15.06,0,0,0-1.19-1.72c-.4-.4-.8-1.45-2.12-1.59s-2-.79-2.65-.79h-2.64l-4.5-.26-6.61-.67-1.45.27a13.13,13.13,0,0,0-3.84.4,8.37,8.37,0,0,0-2.51.92s-.4,1.32.92,3.31.8.92,1.33,2a30.31,30.31,0,0,0,1.58,2.65s1.06,1.85,1.85,3.3a11.59,11.59,0,0,1,1.06,2.52,4,4,0,0,1,.93,2.77v5l.92,4a20.71,20.71,0,0,1,1.06,2.24c.4,1.06,1.46,2.38,2.12,3.84s1.45,1.72,1.45,1.72l2,1.59,2.11,2.24,1.19,4.1s-.39.67-1.06,2.12a16.51,16.51,0,0,1-2,3s.53.53-.79,1.06a5.8,5.8,0,0,0-2.25,1.85h-3.57s-.27.79-1.85,0a5.28,5.28,0,0,1-2.25-2.11l-2.38-4.63-3.57-5V1489a60.91,60.91,0,0,0-5.69,2.25,20.45,20.45,0,0,0-1.72,1.32c-1.19.92-1.85,1.45-1.85,1.45l-.93.4s-1.58.27-2.91.53-.13,0-1.32.26-.53,0-1.85.27,0,.26-2,.26-2.65-.13-3.44-.66-.8-.66-1.85-1.45-3-2.25-3-2.25-3.3-3.18-4.62-3.31-4.5-2.64-4.5-2.64c-1.32,1.45-.93,1.45-1.85,2.51s-.27-.13-3.18,2.38-3,2.65-3.57,3.44a6.86,6.86,0,0,0-.53,2.78s-1.45-1.19.53,2.11,2,2.82,3,3.79,2,1.77,2,1.77-.53.26,1.85,1.32a10.51,10.51,0,0,0,3.83,1.06l3.44.53s.66-.53,1.06,0a2.56,2.56,0,0,0,1.46.66L1705,1509s-1.32,2.38-1.06,4.1a23.58,23.58,0,0,0,1.72,4.76s-.27,0,.66.79a14.08,14.08,0,0,0,2.25,1.59c2.11,1.45.66.13,2.91,1.59a14,14,0,0,0,3.83,1.85c1.59.66,1.46-.13,2.91.66s3,1.72,3,1.72,3.3,2,5.15,3.17a20.79,20.79,0,0,0,3.18,1.72l1.72.8s3.44,1.58,3.57,2a6.85,6.85,0,0,0,.92,1.32l1.59,2,.13.79,2.25,5.82s5.82,1.06,6.48,2.51a18.7,18.7,0,0,0,2.38,3.44l2.25,2.78s2.25.39,3,1.72,2,3,2,3a14.05,14.05,0,0,1,3.17,3,18.87,18.87,0,0,0,2.12,2.51,10.87,10.87,0,0,0,1.45,2.12c1.19,1.45,11,8.86,11,8.86l7.8,4.23s4.5-.39,5.16,0,3.3.53,3.7-.92-4.5-9.79-4.5-10.58,1.06,1.19-.39-4.9-1.46-7.27-3.31-9.65-1.59-2.78-3.3-3.57-3.58-1.06-4.37-2.12,0-.13-1.45-1.59-1.72-1.85-2.38-2.38a12.24,12.24,0,0,1-1.59-1.72,37.1,37.1,0,0,0-1.59-3.7c-.66-1.19-5.16-10.31-5.16-10.31l.14-5.29-2.78-6.09-1.19-5s-.27-1.33,0-1.72,3.17-4.1,3.17-4.1l4.63-2.52,6.22,2.12,2,3.44,6.88,2.38s1.72.93,2.11,1.06,4.1,2.51,4.1,2.51l8.73,7,4.5,2.51s1.06,1.72,9.52,4.37,14.42,2.77,14.68,3.17,18.39,11,18.39,11.38,10,3.83,10.44,4.23-1.19,0,3.44,2,5,2.25,6.48,2.51,6.09.8,6.09.8,1.19-1.06,1.58-1.33,5.29,1.46.93-2.51-5-3.44-6-4.89-.53-3.57-3.18-6-5.29-3.71-6.48-5.43a30.1,30.1,0,0,0-2.11-3c-.93-1-.66-1-2-2.77a21.85,21.85,0,0,0-2.51-3,49.1,49.1,0,0,1-3.7-3.7c-.53-.79-1.72-2-2-2.51s-2.77-3.57-2.77-3.57l-2.25-3.57-2-2.78v-.93l4.37-.66s.13,1.19,1.85,4.23,3.31,3.71,4.5,5.69,1.19,2.25,3,3.7,4.76,3.05,5.69,4.24,2.11,2,2.64,2.64-1.72-.92,2.12,2,5.29,4,5.29,4l8.33,11.11,11.24,3.31h3.31l4.63,3.83,1.85,3.44,1.72,2.52,1.58.66s2.91-.53,3,.26-.39,1.72,0,2.91a7.71,7.71,0,0,1,0,3.57c-.16.4-1.74.93-1.74.93a15.6,15.6,0,0,0,.13,2.25c.13.39.57.92,1.61,1.58s3.81.66,3.81.66h3.17l2.52-.13s.39-.66.92-.66a5.25,5.25,0,0,0,1.72-.79l1.32-.4,1.33.79.66.93v.66l-.93,4v.92l.93.8,4,.53h.66a12.25,12.25,0,0,1,3.57,1.19c.79.66,1.59.53,3,1.45s3.44,2.32,3.44,2.32l5.82,2.31,1.72,2.12a17.54,17.54,0,0,0,1.72,1.19,10.16,10.16,0,0,0,2.51.26s1.85-2.91,1.72-3.44a18.26,18.26,0,0,0-1.32-2.44s0-1.92-.53-2.45.92-.4-3.84-2.65-3-2-5.55-2.51l-2.52-.53s-.66-.39-1.05-.26a7.3,7.3,0,0,1-1.46.13,2.31,2.31,0,0,1-1.59-1.59c-.39-1.32-.13-2.25-1.32-3.17s-1.12-1.85-2-2.38a7.07,7.07,0,0,1-1.62-1.72,14.66,14.66,0,0,1-2.64-2.25,5,5,0,0,0-1.46-1.72,25.15,25.15,0,0,0-2-1.59c-.66-.52-.66,0-1.33-.79a22.7,22.7,0,0,0-1.85-1.85l-1.58-1.19-2.38-1.59a5.5,5.5,0,0,1-.93-2,14.78,14.78,0,0,1,.26-2l1.59-.92s3-2.65,3.57-2.91a9,9,0,0,0,1.19-.79l2.78-2.65a15.75,15.75,0,0,0-.53-2.78,7.46,7.46,0,0,0-1.32-1.45l-2.51-2.51-.8-1.86s.13-.26-.79-1.45-2.25-1.72-2.91-2.65-2.38-2.77-2.38-2.77l-1.06-1.33s-3.44-5.55-3.84-5.68a10.25,10.25,0,0,1-2.11-1.72c-1.19-1.06-2.38-.8-3-1.66s-5.29-3.5-5.29-3.5l-3.18-1.45-2.38,1.45s5.69,1.19-1.85.66a64.69,64.69,0,0,1-9.12-1.06,13.44,13.44,0,0,1-3.84-.92,33.41,33.41,0,0,0-4-1.32c-1.45-.27-2.11-1.06-2.91-1.33a21,21,0,0,1-3.44-2l-3.17-2.38-2.78-2.65s.13-1,.27-3.83a31.72,31.72,0,0,0-.53-6.22s-1.19-2.11-1.72-3.17a30.81,30.81,0,0,0-2.38-3.84c-.8-1.06-6.75-6.21-6.75-6.21s-.79-1.49-1.19-2.2-5.82-3-5.82-3l-.92-1.85s.26-.66,1.72-.66a10.41,10.41,0,0,1,2.11,0l3.18.39s1.06.27.13-1.45a56.87,56.87,0,0,0-3.17-4.76l-1.06-2.78-4.37-1.72-5.82.66-7-2.11s-1.19-.67-1.19-1.2a2.56,2.56,0,0,0-.52-2.11c-.8-1.32.26-1.19-2.52-2.38s-2.64-1.85-4.23-1.85a79,79,0,0,1-7.93-.93c-1.59-.26-.8-.79-2.91-.79h-2.12a28.5,28.5,0,0,1-4.23-.66,2.25,2.25,0,0,1-1.06-1.33c-.4-1.05-.53-2.77-1.85-4.36a32.37,32.37,0,0,0-3.57-3.44l-5.43-2.51s-.79-1.32-3.83-1.32h-7s-1.65-.67-2.21-.4.09-.53-.57.26-.92.4-1.19,1.33-.26-.53-.26.92V1439C1769.49,1439.56,1769.88,1443.26,1769.88,1443.26Z"/>
            <path class="cls-8"
                  d="M1773.72,1531.21c0,.2,1.26,3,1.26,3a6.21,6.21,0,0,0,1.19,1.78c.92,1.06-.6,1.06,3.3,1.92s3.64,2.12,3.9.86.67-6.15.4-6.54-3.83-4.17-3.83-4.17l-1.46-.79-5.16-.73Z"/>
            
            <rect class="cls-9" x="1416.72" y="1337.43" width="672.63" height="407.44"/>
        </g>
    </g>
</svg>