<svg id="组_392" data-name="组 392" xmlns="http://www.w3.org/2000/svg" xmlns:xlink="http://www.w3.org/1999/xlink" width="961" height="633" viewBox="0 0 961 633">
  <defs>
    <style>
      .cls-1, .cls-11, .cls-12, .cls-13, .cls-15, .cls-17, .cls-18, .cls-19, .cls-20, .cls-21, .cls-22, .cls-23, .cls-4, .cls-5, .cls-6, .cls-8 {
        fill: #177c80;
      }

      .cls-1, .cls-10, .cls-11, .cls-13, .cls-14, .cls-15, .cls-17, .cls-18, .cls-19, .cls-2, .cls-20, .cls-21, .cls-22, .cls-23, .cls-3, .cls-4, .cls-5, .cls-6, .cls-7, .cls-8, .cls-9 {
        stroke: #fff;
      }

      .cls-1, .cls-10, .cls-11, .cls-12, .cls-13, .cls-14, .cls-15, .cls-17, .cls-18, .cls-19, .cls-2, .cls-20, .cls-21, .cls-22, .cls-23, .cls-3, .cls-4, .cls-5, .cls-6, .cls-7, .cls-8, .cls-9 {
        stroke-width: 1px;
        stroke-dasharray: 4 2;
      }

      .cls-1, .cls-10, .cls-11, .cls-12, .cls-13, .cls-14, .cls-15, .cls-17, .cls-18, .cls-19, .cls-2, .cls-20, .cls-21, .cls-22, .cls-23, .cls-24, .cls-3, .cls-4, .cls-5, .cls-6, .cls-7, .cls-8, .cls-9 {
        fill-rule: evenodd;
	fill: none !important;
      }

      .cls-1 {
        filter: url(#filter);
      }

      .cls-10, .cls-14, .cls-2, .cls-24, .cls-7 {
        fill: #c2984f;
      }

      .cls-2 {
        filter: url(#filter-2);
      }

      .cls-3 {
        fill: #b34c3d;
        filter: url(#filter-3);
      }

      .cls-4 {
        filter: url(#filter-4);
      }

      .cls-5 {
        filter: url(#filter-5);
      }

      .cls-6 {
        filter: url(#filter-6);
      }

      .cls-7 {
        filter: url(#filter-7);
      }

      .cls-8 {
        filter: url(#filter-8);
      }

      .cls-9 {
        fill: #b34e3e;
        filter: url(#filter-9);
      }

      .cls-10 {
        filter: url(#filter-10);
      }

      .cls-11 {
        filter: url(#filter-11);
      }

      .cls-12 {
        stroke: #ffa024;
        filter: url(#filter-12);
      }

      .cls-13 {
        filter: url(#filter-13);
      }

      .cls-14 {
        filter: url(#filter-14);
      }

      .cls-15 {
        filter: url(#filter-15);
      }

      .cls-16 {
        font-size: 37.97px;
        fill: #fff;
        font-family: "Source Han Sans CN";
        font-weight: 700;
      }

      .cls-17 {
        filter: url(#filter-16);
      }

      .cls-18 {
        filter: url(#filter-17);
      }

      .cls-19 {
        filter: url(#filter-18);
      }

      .cls-20 {
        filter: url(#filter-19);
      }

      .cls-21 {
        filter: url(#filter-20);
      }

      .cls-22 {
        filter: url(#filter-21);
      }

      .cls-23 {
        filter: url(#filter-22);
      }
    </style>
    <filter id="filter" x="42" y="117" width="294.5" height="343.344" filterUnits="userSpaceOnUse">
      <feGaussianBlur result="blur" stdDeviation="12.667" in="SourceAlpha"/>
      <feFlood result="flood" flood-color="#20aeb2" flood-opacity="0.44"/>
      <feComposite result="composite-2" operator="out" in2="blur"/>
      <feComposite result="composite" operator="in" in2="SourceAlpha"/>
      <feBlend result="blend" mode="screen" in2="SourceGraphic"/>
    </filter>
    <filter id="filter-2" x="120.688" y="35.813" width="354.031" height="236" filterUnits="userSpaceOnUse">
      <feGaussianBlur result="blur" stdDeviation="9.333" in="SourceAlpha"/>
      <feFlood result="flood" flood-color="#cc9029" flood-opacity="0.44"/>
      <feComposite result="composite-2" operator="out" in2="blur"/>
      <feComposite result="composite" operator="in" in2="SourceAlpha"/>
      <feBlend result="blend" mode="screen" in2="SourceGraphic"/>
    </filter>
    <filter id="filter-3" x="257.5" y="21.25" width="126.656" height="125.188" filterUnits="userSpaceOnUse">
      <feGaussianBlur result="blur" stdDeviation="8" in="SourceAlpha"/>
      <feFlood result="flood" flood-color="#cc4e3b" flood-opacity="0.44"/>
      <feComposite result="composite-2" operator="out" in2="blur"/>
      <feComposite result="composite" operator="in" in2="SourceAlpha"/>
      <feBlend result="blend" mode="screen" in2="SourceGraphic"/>
    </filter>
    <filter id="filter-4" x="354.312" y="41.969" width="180.782" height="129.875" filterUnits="userSpaceOnUse">
      <feGaussianBlur result="blur" stdDeviation="8" in="SourceAlpha"/>
      <feFlood result="flood" flood-color="#20aeb2" flood-opacity="0.44"/>
      <feComposite result="composite-2" operator="out" in2="blur"/>
      <feComposite result="composite" operator="in" in2="SourceAlpha"/>
      <feBlend result="blend" mode="screen" in2="SourceGraphic"/>
    </filter>
    <filter id="filter-5" x="413.938" y="142.875" width="187.718" height="224.156" filterUnits="userSpaceOnUse">
      <feGaussianBlur result="blur" stdDeviation="9.667" in="SourceAlpha"/>
      <feFlood result="flood" flood-color="#20aeb2" flood-opacity="0.44"/>
      <feComposite result="composite-2" operator="out" in2="blur"/>
      <feComposite result="composite" operator="in" in2="SourceAlpha"/>
      <feBlend result="blend" mode="screen" in2="SourceGraphic"/>
    </filter>
    <filter id="filter-6" x="289.625" y="233.969" width="245.781" height="287.562" filterUnits="userSpaceOnUse">
      <feGaussianBlur result="blur" stdDeviation="10.667" in="SourceAlpha"/>
      <feFlood result="flood" flood-color="#20aeb3" flood-opacity="0.44"/>
      <feComposite result="composite-2" operator="out" in2="blur"/>
      <feComposite result="composite" operator="in" in2="SourceAlpha"/>
      <feBlend result="blend" mode="screen" in2="SourceGraphic"/>
    </filter>
    <filter id="filter-7" x="268.188" y="351.594" width="98.312" height="104.906" filterUnits="userSpaceOnUse">
      <feGaussianBlur result="blur" stdDeviation="6.667" in="SourceAlpha"/>
      <feFlood result="flood" flood-color="#cc9029" flood-opacity="0.44"/>
      <feComposite result="composite-2" operator="out" in2="blur"/>
      <feComposite result="composite" operator="in" in2="SourceAlpha"/>
      <feBlend result="blend" mode="screen" in2="SourceGraphic"/>
    </filter>
    <filter id="filter-8" x="403.219" y="419.344" width="103.406" height="125.437" filterUnits="userSpaceOnUse">
      <feGaussianBlur result="blur" stdDeviation="8" in="SourceAlpha"/>
      <feFlood result="flood" flood-color="#20aeb2" flood-opacity="0.44"/>
      <feComposite result="composite-2" operator="out" in2="blur"/>
      <feComposite result="composite" operator="in" in2="SourceAlpha"/>
      <feBlend result="blend" mode="screen" in2="SourceGraphic"/>
    </filter>
    <filter id="filter-9" x="507.75" y="298.75" width="103.656" height="155.031" filterUnits="userSpaceOnUse">
      <feGaussianBlur result="blur" stdDeviation="6.667" in="SourceAlpha"/>
      <feFlood result="flood" flood-color="#cc4e3b" flood-opacity="0.44"/>
      <feComposite result="composite-2" operator="out" in2="blur"/>
      <feComposite result="composite" operator="in" in2="SourceAlpha"/>
      <feBlend result="blend" mode="screen" in2="SourceGraphic"/>
    </filter>
    <filter id="filter-10" x="599.094" y="356.125" width="138.968" height="96.25" filterUnits="userSpaceOnUse">
      <feGaussianBlur result="blur" stdDeviation="5" in="SourceAlpha"/>
      <feFlood result="flood" flood-color="#cc9029" flood-opacity="0.44"/>
      <feComposite result="composite-2" operator="out" in2="blur"/>
      <feComposite result="composite" operator="in" in2="SourceAlpha"/>
      <feBlend result="blend" mode="screen" in2="SourceGraphic"/>
    </filter>
    <filter id="filter-11" x="584.781" y="269.344" width="101.157" height="123.562" filterUnits="userSpaceOnUse">
      <feGaussianBlur result="blur" stdDeviation="6.667" in="SourceAlpha"/>
      <feFlood result="flood" flood-color="#20aeb2" flood-opacity="0.44"/>
      <feComposite result="composite-2" operator="out" in2="blur"/>
      <feComposite result="composite" operator="in" in2="SourceAlpha"/>
      <feBlend result="blend" mode="screen" in2="SourceGraphic"/>
    </filter>
    <filter id="filter-12" x="684.469" y="344.594" width="43.093" height="43.281" filterUnits="userSpaceOnUse">
      <feGaussianBlur result="blur" stdDeviation="3" in="SourceAlpha"/>
      <feFlood result="flood" flood-color="#20aeb2" flood-opacity="0.44"/>
      <feComposite result="composite-2" operator="out" in2="blur"/>
      <feComposite result="composite" operator="in" in2="SourceAlpha"/>
      <feBlend result="blend" mode="screen" in2="SourceGraphic"/>
    </filter>
    <filter id="filter-13" x="651.875" y="252.219" width="82.813" height="105.437" filterUnits="userSpaceOnUse">
      <feGaussianBlur result="blur" stdDeviation="6" in="SourceAlpha"/>
      <feFlood result="flood" flood-color="#20aeb2" flood-opacity="0.44"/>
      <feComposite result="composite-2" operator="out" in2="blur"/>
      <feComposite result="composite" operator="in" in2="SourceAlpha"/>
      <feBlend result="blend" mode="screen" in2="SourceGraphic"/>
    </filter>
    <filter id="filter-14" x="614.969" y="197.594" width="75.593" height="136.375" filterUnits="userSpaceOnUse">
      <feGaussianBlur result="blur" stdDeviation="5" in="SourceAlpha"/>
      <feFlood result="flood" flood-color="#cc9029" flood-opacity="0.44"/>
      <feComposite result="composite-2" operator="out" in2="blur"/>
      <feComposite result="composite" operator="in" in2="SourceAlpha"/>
      <feBlend result="blend" mode="screen" in2="SourceGraphic"/>
    </filter>
    <filter id="filter-15" x="524.344" y="154.562" width="157.687" height="123.25" filterUnits="userSpaceOnUse">
      <feGaussianBlur result="blur" stdDeviation="8" in="SourceAlpha"/>
      <feFlood result="flood" flood-color="#20aeb2" flood-opacity="0.44"/>
      <feComposite result="composite-2" operator="out" in2="blur"/>
      <feComposite result="composite" operator="in" in2="SourceAlpha"/>
      <feBlend result="blend" mode="screen" in2="SourceGraphic"/>
    </filter>
    <filter id="filter-16" x="664.281" y="435.219" width="142.063" height="104.843" filterUnits="userSpaceOnUse">
      <feGaussianBlur result="blur" stdDeviation="6" in="SourceAlpha"/>
      <feFlood result="flood" flood-color="#20aeb2" flood-opacity="0.44"/>
      <feComposite result="composite-2" operator="out" in2="blur"/>
      <feComposite result="composite" operator="in" in2="SourceAlpha"/>
      <feBlend result="blend" mode="screen" in2="SourceGraphic"/>
    </filter>
    <filter id="filter-17" x="699.281" y="377.594" width="126.094" height="117.844" filterUnits="userSpaceOnUse">
      <feGaussianBlur result="blur" stdDeviation="6" in="SourceAlpha"/>
      <feFlood result="flood" flood-color="#20aeb2" flood-opacity="0.44"/>
      <feComposite result="composite-2" operator="out" in2="blur"/>
      <feComposite result="composite" operator="in" in2="SourceAlpha"/>
      <feBlend result="blend" mode="screen" in2="SourceGraphic"/>
    </filter>
    <filter id="filter-18" x="746.375" y="370.75" width="125.031" height="112.844" filterUnits="userSpaceOnUse">
      <feGaussianBlur result="blur" stdDeviation="6" in="SourceAlpha"/>
      <feFlood result="flood" flood-color="#20aeb2" flood-opacity="0.44"/>
      <feComposite result="composite-2" operator="out" in2="blur"/>
      <feComposite result="composite" operator="in" in2="SourceAlpha"/>
      <feBlend result="blend" mode="screen" in2="SourceGraphic"/>
    </filter>
    <filter id="filter-19" x="754.188" y="329.562" width="129.25" height="133.5" filterUnits="userSpaceOnUse">
      <feGaussianBlur result="blur" stdDeviation="6" in="SourceAlpha"/>
      <feFlood result="flood" flood-color="#20aeb2" flood-opacity="0.44"/>
      <feComposite result="composite-2" operator="out" in2="blur"/>
      <feComposite result="composite" operator="in" in2="SourceAlpha"/>
      <feBlend result="blend" mode="screen" in2="SourceGraphic"/>
    </filter>
    <filter id="filter-20" x="755.594" y="299.75" width="132.687" height="99.781" filterUnits="userSpaceOnUse">
      <feGaussianBlur result="blur" stdDeviation="6" in="SourceAlpha"/>
      <feFlood result="flood" flood-color="#20aeb2" flood-opacity="0.44"/>
      <feComposite result="composite-2" operator="out" in2="blur"/>
      <feComposite result="composite" operator="in" in2="SourceAlpha"/>
      <feBlend result="blend" mode="screen" in2="SourceGraphic"/>
    </filter>
    <filter id="filter-21" x="710.844" y="306" width="60.344" height="89.281" filterUnits="userSpaceOnUse">
      <feGaussianBlur result="blur" stdDeviation="4" in="SourceAlpha"/>
      <feFlood result="flood" flood-color="#20aeb2" flood-opacity="0.44"/>
      <feComposite result="composite-2" operator="out" in2="blur"/>
      <feComposite result="composite" operator="in" in2="SourceAlpha"/>
      <feBlend result="blend" mode="screen" in2="SourceGraphic"/>
    </filter>
    <filter id="filter-22" x="682.25" y="204.125" width="234.219" height="168.437" filterUnits="userSpaceOnUse">
      <feGaussianBlur result="blur" stdDeviation="6.667" in="SourceAlpha"/>
      <feFlood result="flood" flood-color="#20aeb3" flood-opacity="0.44"/>
      <feComposite result="composite-2" operator="out" in2="blur"/>
      <feComposite result="composite" operator="in" in2="SourceAlpha"/>
      <feBlend result="blend" mode="screen" in2="SourceGraphic"/>
    </filter>
  </defs>
  <g id="组_358_拷贝_6-2" data-name="组 358 拷贝 6">
    <g style="fill: #177c80; filter: url(#filter)">
      <path id="形状_1" data-name="形状 1" class="cls-1" d="M121.157,119.739h0.959l0.639,0.639,0.959,0.64h7.352l2.876,0.319,0.959-.319h0.959l0.64-.32,0.639-.32,4.795-3.2,1.278,0.959,0.32,0.959h1.6l0.639,1.278,1.6,1.279,0.319-.639,0.32,0.639,0.959,0.319,0.319,0.32,2.558-.639,1.6-.639,3.516-1.279,1.918-.959h0.959l0.959,0.32,0.959,0.639,0.639,0.639,0.639,0.64,0.64,0.319,0.319,0.959,0.32,0.639,0.32,0.64,0.639,0.319,0.639,0.32,0.32,0.639H170.7l2.237,1.279,0.64,0.959,0.319,2.557v2.238l0.32,3.835v1.918l0.32,3.836s-0.117,1.129,2.237,2.557l2.238,1.918,0.639,0.959v2.237l-0.32.959-0.959,1.918-0.639,1.6L177.1,154.9l-0.64,1.6a1.363,1.363,0,0,0,.959,1.918l1.279,0.639,0.959,0.64h1.918l0.959,0.319v4.156l0.639,0.959v1.278l0.32,0.64,0.319,0.959,0.32,0.319v1.6l0.32,0.64h3.835l0.959,0.319,0.64,0.32h0.639l0.639,0.32,1.279,0.319,3.2,1.918,3.2,2.877,1.6,1.918,0.639,0.639,0.32,1.6,0.959,1.279,0.319,0.639,0.32,0.959,1.279,0.64,1.6,0.639H208.1l0.959,0.319,0.32,0.32,0.32,0.32v1.278l-0.959.32,0.319,0.959v1.6l0.959,1.918,0.64,0.639,0.639,0.64,0.959,0.639,0.32,1.918-0.32,2.557,0.32,0.959v0.959l0.319,0.639a0.844,0.844,0,0,1,.32.32,0.84,0.84,0,0,0,.319.319l0.32,0.32h2.238l0.639,0.959,1.279,0.639,0.639,0.64,0.639-.32h0.639l0.959-.639,0.32-.32h1.918l0.639,0.959,0.959,0.639,0.639,0.64,0.64,0.958,0.959,0.32,0.639,0.32,0.639,0.639,0.32,0.639,0.319,0.959v0.959l0.64,0.32,0.639,0.959,0.639,0.32s0.019,0.949,0,.958a1.9,1.9,0,0,0,0,.32l0.64,0.959,3.835,1.6,0.959,0.32,2.238,0.639,2.237,0.639,2.238,0.64H243.9l0.639,0.959v1.278l1.6,1.279,0.959,0.32,1.6,0.319h1.6l1.278,0.32,1.279,0.959,1.6,0.959,1.279,0.959,2.877,0.319,1.278,0.64,1.279,0.319h1.6l0.959-.639,0.32-.32,0.959-.639h0.639l1.6,0.639,0.959,0.64,2.877,1.278h1.918l1.918,0.639,1.6,0.32,2.237,1.279,3.516,1.278,2.238,1.279,4.8,2.557,1.6,1.279,2.237,0.959,0.32,1.278v0.959l0.959,1.279,1.279,1.6,2.557,2.557,0.639,1.279,0.639,0.639,0.64,0.639,0.639,0.64,1.278,0.639,1.279,0.959,0.639,0.639,0.959,0.32,0.959-.32,0.64-.32,0.319-.319,0.639-.639h1.6s0.539,0.577.639,0.639a3.146,3.146,0,0,1,.639.639c0.042,0.127.32,0.639,0.32,0.639l0.32,1.279,0.319,0.639,0.32,0.32,0.639,0.32,1.279-.32h0.639l0.639-.639,0.32-.64v-0.319l0.959-.64,0.639-.639h2.238a1.209,1.209,0,0,0,.319.32,5.458,5.458,0,0,1,.64.639v0.959a1.869,1.869,0,0,0,0,.959,3.427,3.427,0,0,1,0,1.279l0.319,1.278s0.045,1.588,0,1.6a3.111,3.111,0,0,0,0,.64l0.32,0.959,0.639,0.639h0.64l1.278-.32,0.959-.639,0.959-.639,1.6-.64,0.64-.639,0.958-.32,0.959-.319h1.279l0.959,0.959,0.959,0.959,1.6,1.918,0.639,0.958,0.32,0.959,0.32,1.279,0.319,1.6a1.974,1.974,0,0,0,0,.959,2.446,2.446,0,0,1,.32.959,13.141,13.141,0,0,1,.32,1.279l-0.32.959-1.6,1.278-0.64.32h-0.958s0.059,0.09-.32,0a9.076,9.076,0,0,0-1.6,0l-1.6.639a3.757,3.757,0,0,0-.639.639c-0.154.253-.209,1.05-0.32,1.279s-0.253-.082-0.319.639a8.464,8.464,0,0,0-.32,1.279,1.137,1.137,0,0,1,0,.639,7.005,7.005,0,0,0-.319.959c0.022,0.354.283,0.557,0,.639s-0.169.16-.64,0.32-0.074.357-.639,0.32a6.672,6.672,0,0,0-.959,0,0.866,0.866,0,0,1-.32,0c-0.113-.037-0.006-0.269-0.319,0a7.652,7.652,0,0,0-.64.639s0.073,0.03,0,.32,0,0.319,0,.319l-0.319.64a1.26,1.26,0,0,1,0,.959,2.477,2.477,0,0,0-.32.639c-0.136.21-.319-0.03-0.32,0.319s0.276,0.531,0,.64a1.591,1.591,0,0,0-.639.639,2.535,2.535,0,0,0-.639.639,1.842,1.842,0,0,1-.32.64c-0.024,0-1.278.319-1.278,0.319a3.9,3.9,0,0,1-.959,0c-0.541-.017-0.187.018-0.64,0a4.951,4.951,0,0,1-.959,0,1.267,1.267,0,0,1-.639-0.319l-2.237-.32h-3.2l-0.639.639a2.507,2.507,0,0,0-.639.959,2.7,2.7,0,0,1-.32.959,5.78,5.78,0,0,1-.32.639,0.673,0.673,0,0,1-.639.32,1.4,1.4,0,0,1-.959,0c-0.185-.2-0.053-0.254-0.639-0.32s-0.444-.359-0.959-0.319,0.766,0.358-.639,0-1.21-.129-1.6-0.32a7.2,7.2,0,0,1-.959-0.639l-0.959-.32h-1.6a0.84,0.84,0,0,1-.639.32,3.969,3.969,0,0,0-1.279.32,1.633,1.633,0,0,0-.639.639c-0.16.376-.639,1.6-0.639,1.6a11.2,11.2,0,0,0-.64,1.279,4.411,4.411,0,0,1,0,1.278,1.748,1.748,0,0,0-.319.959,13.723,13.723,0,0,1,0,1.6l0.319,3.2,0.32,0.639,0.32,0.959-0.32.639a0.673,0.673,0,0,1-.32.64,6.452,6.452,0,0,0-.958.639,10.838,10.838,0,0,0-.959.959l-1.918,1.278-0.32.32-0.639.639-1.279.959a10.3,10.3,0,0,0-.639,1.279c0.028,0.091,0,1.279,0,1.279l0.32,1.278a5.622,5.622,0,0,0,.319.959c0.154,0.278.32,0.639,0.32,0.639l0.639,0.64h7.352l1.6,0.319,2.877,0.64h0.959l0.32,0.639v0.959l-0.32.639-0.32,1.279v0.959l0.64,0.959,0.959,0.959,2.557,0.319,0.639,0.639,1.279,1.279,0.319,0.639v2.557l-0.319,2.238v2.557l0.639,0.959v0.639l0.32,0.32,0.319,15.663s4,1.387,4.156,4.155l-0.64.639a12.085,12.085,0,0,0,.32,1.6,1.166,1.166,0,0,1,0,.639l0.959,0.32,0.639,0.959,0.32,8.31-0.639,1.6s0.079,0.852-4.156,4.475c0,0-5.211,3.367-7.352,5.753l-5.434,4.156-3.835,1.918-3.2,1.6-4.155,2.557L285.455,386l-1.279,2.238-0.959,1.279-2.876,3.516s-1.909,1.855-1.918,8.311a9.165,9.165,0,0,1-2.558,2.876l-1.6,1.6-0.319,1.278-0.959,1.918-0.959.959-0.959,1.279-1.6.319-0.64-.319-0.959-.959-0.959-.64-0.639-.959-0.959-.639-0.959-.639-0.639-.32-0.959-.32-1.279.32-0.959.639-0.319.64-0.32.639a3.8,3.8,0,0,0-.319,1.6,6.974,6.974,0,0,0,0,1.279,0.828,0.828,0,0,1,.319.639c-0.019.267,0,1.918,0,1.918l0.32,4.8v1.6l-5.115,7.032-3.835,2.238-6.074,1.918-1.917-.64-1.6-1.278-1.278-.959-1.279-.32-2.557.959-1.279.959,0.32,0.959-0.32.639,0.32,1.6,0.959,0.32,0.32,0.959,0.639,1.279,0.32,1.278v4.475l0.639,2.877L240.7,447.7l0.959,0.64,0.32,0.959,0.32,1.278v1.279l-0.32,1.278-0.32,1.918-0.639,1.279-3.2,2.877-1.6.639h-2.876l-0.959-.639-1.279-.959-0.639-1.279v-0.959a1.077,1.077,0,0,0-.32-0.639,6.934,6.934,0,0,1-.639-0.959l-0.959-.32s-0.781-.806-0.959-0.959-1.6-.959-1.6-0.959l-0.959-1.278-0.64-.959-1.278-.959-0.32-.959-0.959-1.279-1.278-1.6-2.877-3.2-2.238-2.238-1.278-1.6-0.64-.959L211.3,435.23l-0.959-.959-1.6-.639-1.279-.959-3.516-2.238-1.6-.959-2.238-.959-2.877.32-1.278.32L195,429.8l-0.32,1.279,0.32,1.278,0.639,0.959,0.639,1.6v1.6a4.266,4.266,0,0,1-.319,1.278c-0.153.047-2.238,2.238-2.238,2.238L190.2,441.3l-2.237.64-1.918.959h-1.6l-3.2.959-1.279.639-2.876,1.6-1.918.639-2.557.959-1.279.32-1.6.32-0.639,1.278-1.279,1.6-1.6,2.238-1.6,1.278-4.476-.958-1.6-.64-1.6-.959-0.639-1.6V447.7l0.319-2.237,0.32-2.557v-0.959l-0.32-.959-0.319-.32-1.279-.959-0.959-.639-0.319-1.918s0.251-1.022.319-1.279,0.32-1.278.32-1.278a3.763,3.763,0,0,1,.639-1.6,8.119,8.119,0,0,0,1.279-.959l0.639-.64,0.959-.639h2.877l0.319-.959,0.959-.639,0.32-.64-0.32-.958v-1.6l-0.959-1.918-0.959-.959-0.639-.639a2.84,2.84,0,0,1-.639-0.639,6.176,6.176,0,0,0-1.279-.959l-1.278-.959-1.279-.639-1.6-.64-1.279-.959-0.639-.319-1.279-.32-0.639-.319-1.278-.32a1.12,1.12,0,0,1-.64,0c-0.093-.123.3,0.123-0.319,0s-0.183.123-.959,0-0.327.123-.959,0a4.157,4.157,0,0,0-.959,0,4.127,4.127,0,0,1-.959,0c-0.529-.123.583-0.146-0.639-0.32a8.659,8.659,0,0,1-1.6-.319v-0.959a15.594,15.594,0,0,1-.639-1.6,1.682,1.682,0,0,0-.32-0.958c-0.294-.411-0.639-0.959-0.639-0.959l-0.32-.64-0.639-.959s-0.62-.954-0.639-0.959-0.639-.639-0.639-0.639,0.184,0.1-.32-0.32a3.089,3.089,0,0,1-.639-0.639l-0.959-.639s-0.3-.327-0.64-0.639-1.278-.959-1.278-0.959l-1.279-.959-0.959-.64-1.278-.959-0.64-.639-1.6-.959-0.959-.639-0.959-.639-1.278-.959-1.918-1.279-1.6-.959-2.238-1.278-3.2-1.6-2.238-1.278-3.2-1.279-1.6-.639-2.876-1.6-2.558-1.279-0.319-.959,0.319-.639,0.32-.639,0.959-.64,0.639-.639,1.918-1.279,0.32-.959,0.319-.639,0.64-.319v-1.918l-0.32-.959-0.32-1.279v-0.959l-1.278-.639a1.954,1.954,0,0,0-.639-0.639c-0.539-.4-1.918-1.279-1.918-1.279l-2.238-.32-1.278-.639v-0.959l-0.64-2.237L99.1,366.826l-0.32-.64-0.32-1.278-0.639-1.6-0.639-.959-4.155-2.238-2.557-1.278-2.237-.959-0.959-.32H84.4a11.67,11.67,0,0,1-1.918,0c-0.123-.1-3.516,0-3.516,0a10.5,10.5,0,0,0-1.918,0,13.754,13.754,0,0,1-2.237-.32l-0.639-.639v-0.959l0.32-.639v-0.32l0.959-.639,0.32-.32h0.639l1.279-.959,1.6-.639,1.6-1.6,1.279-1.6,1.918-2.877a6.5,6.5,0,0,0-.32-1.918l-1.6-.959-1.6-.959-1.279-.639-1.918-.32-2.557-.32-3.2-.639-2.877-1.279-1.279-1.6L64.9,335.5l-0.959-1.278-1.6-1.279L61.7,331.665l-1.6-.959-0.959-.959H53.392l-1.918-.32-2.237-.32-1.918-.959-2.557-1.6-0.639-.959A13.878,13.878,0,0,1,42.843,316s0.479-4.3,7.352-4.475c0,0,7.063-2.473,7.032-7.991V298.1l0.32-1.279,0.32-1.278v-1.918l0.639-1.918,0.639-.959,0.639-.639,0.959-.959,1.6-.32,1.6-.32,0.639-.639,1.6-.959,1.6-1.918,1.6-1.6,4.155-4.475,1.6-1.6,0.639-1.6,0.639-1.278,0.32-1.279-0.639-3.2-0.32-5.115v-4.794s-0.078-3.26,1.6-4.8c0,0,1.535-3.4-.32-5.114,0,0-1.178-5.473,1.279-7.352l-0.959-1.918-0.32-1.279-1.278-1.278-1.279-2.238-1.6-1.6-1.6-2.237-2.238-2.238L68.1,228.738l-1.6-1.917-0.639-.959-1.279-1.918L63.3,221.706l0.32-1.918-0.32-.639,0.959-.639h1.6l1.6,0.639h0.959l1.279-.32,1.6-.639,1.279-.32,0.639-.959,2.238-1.917,0.32-.959,0.959-.64,0.32-.639,1.6-.959,0.959-.959,1.6-.639,1.278-.959,1.279-.32,1.6-.319h1.918l1.918,0.639h2.237a7.474,7.474,0,0,0,3.516-7.032v-5.115s-0.868-5.1,4.795-4.794a16.849,16.849,0,0,0,9.27-5.754s1.627-1.606,5.434.32c0,0,6.155,3.364,6.073-2.557l2.557-7.672s0.806-2.861-.639-4.795c0,0-5.3-5.327-5.114-7.352,0,0,.107-6.212-4.8-8.95,0,0-1.55-1.038-.32-4.794,0,0,1.912-6.191,2.238-7.991a6.506,6.506,0,0,1,5.434-6.074l5.114-.639v-3.516l-0.319-3.2-0.64-1.917-1.278-2.238-0.639-1.6-0.64-.959-0.319-1.279v-1.6Z" style="stroke: inherit; filter: none; fill: inherit"/>
    </g>
    <use xlink:href="#形状_1" style="stroke: #fff; filter: none; fill: none"/>
    <g style="fill: #c2984f; filter: url(#filter-2)">
      <path id="形状_2" data-name="形状 2" class="cls-2" d="M121.157,119.739s2.91-6.585,3.516-6.393c0,0,8.144-4.473,12.146-2.877,0,0,4.33-.435,3.836-6.073,0,0-1.57-3.914,5.114-7.672,0,0,5.267-.713,2.877-9.27l-0.959-7.991s2.744-6.6,2.271-9.42c-0.009-.058-0.021-0.115-0.033-0.17-0.621-2.71.319-8.311,0.319-8.311s2.862-6.349,8.631-6.393c0,0,4.223-.688,6.393.32,0,0,1.834,2.047-.639,6.073a12.537,12.537,0,0,0,10.548,9.909s16.529-.235,16.941-3.516a4.155,4.155,0,0,0-.639-4.475s0.843-2.461,6.712-1.6c0,0,1.17-2.228.32-7.032a9.322,9.322,0,0,1,4.475-3.516s6.47-1.5,7.991-5.114c0,0,.83-6.511,4.156-7.672,0,0,1.468-1.214,8.63,1.6a11.151,11.151,0,0,0,4.156-2.237,12.813,12.813,0,0,1,7.671.32s4.722,3.07,8.95.959c0,0,8.11-4.88,16.941-1.918,0,0,5.262,3.132,4.475,7.352,0,0-2.255,6.877,3.836,7.672,0,0,1.109-.179.639,0.639l-6.073,5.114s-2.381-1.016-2.557,1.279l-1.918,2.237v4.155l-1.918,1.6a1.08,1.08,0,0,0,0,1.6s1.875,4.419,1.6,6.393c0,0-1.375,5.8,1.278,8.311l2.238,1.918,1.278,0.32,0.32,1.279a11.815,11.815,0,0,1,3.516,5.754s0.464,2.786,2.877,1.279a1.787,1.787,0,0,1,1.6.639s1.286,1.781,4.475,1.6c0,0,5.322.831,7.991,4.475l0.32,4.155a15.289,15.289,0,0,1,4.8,8.95s0.267,8.339,5.114,10.549l4.8,0.319,7.671,5.115,2.238,2.237,1.918-.319s4.351-.937,7.351,1.917c0,0,2.888,1.31,3.836-.319,0,0,2.385-2.672,5.114-3.2,0,0,3.914-.561,3.836,3.2a12.174,12.174,0,0,0,1.279,2.237,2.75,2.75,0,0,1,1.6,2.557l4.475,0.64,0.639,4.475,0.32,0.639s3.385-.432,5.114,2.238h4.8a2.4,2.4,0,0,0,2.238-1.6V140.2s2.678-6.038,5.753-1.278a0.694,0.694,0,0,0,1.279,0s-0.469-1.512,3.2-3.2l3.516-1.278a3.544,3.544,0,0,1,2.558-.32,4.69,4.69,0,0,0,2.876-.32s1.21,0.189,12.147-5.753l0.959,2.557s-0.166.776,1.278,0.959a10.7,10.7,0,0,1,2.558,4.155s1.572,2.979,2.876,3.2c0,0,.536,3.275-0.958,4.475h-2.877s-3.425-.164-2.557,5.114l1.917,1.6v4.8s0.075,1.715,2.558,2.238c0,0-.348,2.785,1.917,3.2l1.6-.32a8.822,8.822,0,0,1,1.278,1.918,2.85,2.85,0,0,0,1.918,2.238v1.918s1.158,0.986,4.475-.32c0,0,3.636-.434,5.434-1.918h2.877s1.639,3.7,4.155,3.836a8.406,8.406,0,0,0,4.8.32s-0.075.6,2.877-.64l1.918,1.279a8.881,8.881,0,0,0,7.352-1.279s1.407,3.147,3.516,4.156c0,0,5.924.923,7.991-4.156,0,0,2.283-.081,1.918-2.877l2.237-1.278,0.32-1.6,2.557-1.918h4.475l2.557,1.6s0.088,0.752,1.6.32l1.278-.959,1.918,0.319s0.354,0.987,2.557.32c0,0,6.885-.137,11.188-2.557,0,0-1.561,4.429-5.114,5.434,0,0-.79-0.458-1.6,3.516,0,0-.371,3.394-1.6,4.475l-3.2,5.434-0.64,5.434-1.918,3.516-0.639,3.2s-4.2,1.458-3.2,5.114l-2.557.959s-2.938,1.54-2.238,4.155L451.032,207a3.462,3.462,0,0,1-3.2,3.836,2.112,2.112,0,0,0,.32,3.516s2.23,1.361,1.918,3.516l0.319,4.795s-2.162,2.9-5.114,1.279l-4.475-3.836s-0.923-.768-1.6.959a9.121,9.121,0,0,1-4.795,4.795s1.068,2.751.32,3.835c0,0,1.031.906-3.516,0.64a1.42,1.42,0,0,0-1.6,1.6,4.839,4.839,0,0,1-1.917,4.155,2.234,2.234,0,0,0-1.6,1.6,5.254,5.254,0,0,1-3.516,1.278s-1.38.908-1.278,1.918c0,0-7.628,6.028-6.393,7.672v3.516s2.265,5.806-.959,8.63c0,0-6.609-2.751-10.868-2.237a1.8,1.8,0,0,0,.639,2.237L405,263.9s0.173,0.827-1.6,2.876a7.54,7.54,0,0,1-7.351,2.558s-6.22-.376-7.992,1.278a9.714,9.714,0,0,1-9.909-1.6s-5.756-4.511-9.269-3.516c0,0-3.816,1.978-4.475-6.393l-0.64-1.6s-3.571-4.623-7.352-2.238l-4.794.639a6.033,6.033,0,0,0-3.836-.959l-2.877-.319-1.6-1.6s-0.308-1.848-1.918-1.6l-2.557-2.557s0.061-2.3-.959-2.237c0,0,.012-2.935-0.959-3.2a2.68,2.68,0,0,0-2.877-1.6s-3.158-.386-7.032-5.754c0,0-4.647-3.135-8.631,0a33.127,33.127,0,0,0-6.392,3.2h-3.2s-2.257.147-2.557-1.6l-0.32-1.918s-2.425,2.431-3.516-.32c0,0-2.4-1.955-4.155,0a5.263,5.263,0,0,1-5.754.959,49.245,49.245,0,0,0-21.416-9.27l-4.8-2.557a4.991,4.991,0,0,0-2.237.639l-0.959.64h-3.516s-0.977-.954-3.517-0.959l-5.114-2.877s-6.042-.068-6.393-3.516c0,0-.023-1.585-2.877-1.279,0,0-9.158-2.04-10.868-4.795,0,0,.224-1.3-1.6-2.557l-0.639-2.237A2.361,2.361,0,0,0,226,206.363l-2.238-2.877a2.5,2.5,0,0,0-3.516,0,6.766,6.766,0,0,1-1.918.64s-0.151-.668-2.237-2.238h-1.918l-1.279-.959-0.319-6.393a0.87,0.87,0,0,0-.32-0.959h-0.639l-0.64-.639-1.6-2.557-0.32-2.877a1.305,1.305,0,0,0,.64-1.6l-0.64-.959s-3.361.209-4.475-.639c0,0-2.213-.71-2.237-2.558a2.512,2.512,0,0,1-.959-2.237s-4.592-5.888-8.311-7.352c0,0-4.493-2.182-8.63-1.6a53.494,53.494,0,0,0-1.918-7.672l-0.32-2.877-2.557-.319a3.616,3.616,0,0,0-1.918-.959,9.184,9.184,0,0,0-1.6-1.279s2.827-6.6,3.2-7.352c0,0,1.062-2.814-.319-4.155l-3.517-2.877a6.842,6.842,0,0,1-1.278-4.475l-0.639-11.507a4.332,4.332,0,0,0-3.517-2.238h-3.516l-2.237-2.237a1.132,1.132,0,0,0-1.279-1.279l-2.557-2.557a5.093,5.093,0,0,0-2.237,0l-8.951,3.516-0.958-.32-0.64-.958-0.639.319L145.13,119.1l-1.6-.32v-0.959l-1.6-.639-5.754,3.836-12.786-.32S121.967,119.4,121.157,119.739Z" style="stroke: inherit; filter: none; fill: inherit"/>
    </g>
    <use xlink:href="#形状_2" style="stroke: #fff; filter: none; fill: none"/>
    <g style="fill: #b34c3d; filter: url(#filter-3)">
      <path id="形状_3" data-name="形状 3" class="cls-3" d="M271.071,52.294l-6.713,5.754H262.44a2.4,2.4,0,0,0-.639,1.6l-1.6,1.6-0.32,4.475-2.237,1.918s1.4,4.231,1.918,6.073a59.522,59.522,0,0,0,0,7.672l3.516,4.155h1.278l0.32,1.279a17.8,17.8,0,0,1,4.155,7.352s0.3,0.836,1.918.32a1.164,1.164,0,0,1,1.6,0,4.4,4.4,0,0,0,3.836,1.6s6.165,0.865,8.95,4.795l0.32,3.836a16.637,16.637,0,0,1,5.114,11.507s0.81,6.789,4.795,8.311h4.8s8.375,5.759,9.909,7.352c0,0,5.583-1.324,8.31.958,0,0,1.96,1.924,3.836,1.279a13.6,13.6,0,0,1,6.073-4.155s3.544-.213,3.836,2.237l0.32,1.918s0.435,1.6,1.6,1.6a7.726,7.726,0,0,1,1.279,2.557l4.155,0.32,0.959,5.434s3.324-.415,5.114,1.918h5.434l1.279-1.279v-4.155S354,136.791,356.736,137l1.918,2.237a0.692,0.692,0,0,0,.959-0.319s-0.627-1.267,2.877-3.2l4.794-1.918,3.517,0.32s5.7-1.949,7.671-3.516c0,0,4.8-1.909,5.114-2.877l-6.073-4.8s-0.545-2.516,3.2-4.155c0,0,.511.075,0.32-0.959a11.886,11.886,0,0,1,.639-2.557l-1.917-3.516a5.927,5.927,0,0,1-3.836-2.877s-1.044-2.787-2.557-1.6l-2.238.959-1.278.319-5.115-5.753s-1.8-5.844-2.877-6.393c0,0-2.046-5.325-4.155-6.393l-2.877-3.2V85.537l0.639-.959,0.32-1.6V80.742l2.557-2.237,1.279-2.877,5.114-3.516,1.279-.959,1.918-.639,0.639-.32V68.915l1.279-3.2-0.32-.959L369.2,63.8V61.244l-1.278-.639,0.319-7.991v-3.2s-3.8-6.981-8.31-8.631c0,0-11.583-6.293-15.983-7.352a13.533,13.533,0,0,0-6.393-1.279l-9.909-1.6-5.114-.959-4.156-1.279s-4.12-1.07-7.032.32c0,0-3.641-.447-4.794-1.6L296,22.247l1.6,3.516a3.718,3.718,0,0,1-3.835,4.795s-5.252,1.282-5.434,3.516c0,0-1.686.828-1.279,7.671,0,0,1.916,4.889-1.6,6.073L281.3,47.5h-1.278S276.245,52.225,271.071,52.294Z" style="stroke: inherit; filter: none; fill: inherit"/>
    </g>
    <use xlink:href="#形状_3" style="stroke: #fff; filter: none; fill: none"/>
    <g style="fill: #177c80; filter: url(#filter-4)">
      <path id="形状_4" data-name="形状 4" class="cls-4" d="M368.563,53.253s3.362,5.989,7.671,7.032c0,0,6.2,3.435,7.033,7.671,0,0,1.209,4.753,3.835,5.754,0,0,2.189.9,2.877-3.2V60.285a2.788,2.788,0,0,1,3.516-1.918s5.77,0.159,8.311-.959l6.393-1.279s2.683-.369,3.836,1.279c0,0,4.955,4.7,7.671,2.877,0,0,2.229-2.5,4.795-9.27,0,0,.887-3.419,5.114-2.237,0,0,4.167,3.7,10.549.959l1.6-3.836,1.918-2.877s4.718-1.723,6.393.959l3.516,4.795s0.213,1.767,5.754,2.237c0,0,3.165-.262,6.073,5.114,0,0,1.4,3.257,6.073,3.516H481.4l19.5-.639,3.516,0.32s5.254,0.68,3.2,7.671c0,0-5.336,6.261-1.6,8.311,0,0,.517,2.038,4.475,2.237h4.155s1.31-.308.64,2.238l-4.475,6.393s-1.523,3.755,3.516,5.754c0,0,5.517,2.352,1.278,7.032,0,0-2.511,3.029-8.95,5.754,0,0-13.481,4.065-14.064,5.753,0,0-2.187,5.2,3.516,7.672,0,0,3.615-.181,4.475-1.918a16.78,16.78,0,0,1,8.311-.639,15.318,15.318,0,0,0,5.753.639s5.846,0.814,7.992,2.877c0,0,2.75,1.757,2.876,3.2,0,0,1.216,2.564,2.877,3.2,0,0,4.77.151,5.114,3.516,0,0,.644.956-0.639,4.794,0,0-2.777,7.3,1.279,10.868,0,0-4.49,1.784-4.475,3.2a9.53,9.53,0,0,1-7.672.959s-8.161-.55-8.63.319c0,0-4.222,1.7-7.032.64,0,0-4.715-.308-5.754,1.278,0,0-1.607,2.066-8.95,1.918L484.6,151.7s-0.952-.2-1.918,1.6l-3.2,1.918a3.238,3.238,0,0,0-1.278,2.557s0.332,0.892-.959.639l-3.2.32s-3.407,1.971-12.786,2.557l-0.959-.639h-1.917l-1.279.959a1.32,1.32,0,0,1-1.6-.64l-1.6-1.278-5.115-.32-2.557,2.238-0.32,1.6-2.237,1.278-0.639,2.558-1.279.319s-1.908,4.867-7.991,3.836l-3.516-3.836s-6.029,3.16-8.311.32a2.785,2.785,0,0,0-2.557,0l-0.959.32s-4.562.4-5.754-.64a7.919,7.919,0,0,1-3.2-2.877s0.282-1.1-3.516-.639a11.878,11.878,0,0,1-3.516,1.6s-3.967,1.349-5.435.64h-0.639l0.32-1.918a2.326,2.326,0,0,1-1.918-2.238l-1.279-1.918h-2.237l-1.279-.959v-1.917s-3.351-.193-2.877-3.516V150.1s-2.195-1.3-1.917-3.2c0,0-.251-3.294,2.557-3.2h2.877l0.958-1.278,0.32-3.2s-3.034-2.412-2.877-3.835l-1.6-2.558-0.959-1.278-0.959-.32-0.639-.639-0.32-1.279-0.959-1.6s-4.822-4.143-6.073-4.475c0,0-.212-1.722.639-2.237a4.29,4.29,0,0,1,2.877-2.238l0.32-.32v-1.6l0.959-1.918a1.332,1.332,0,0,1-1.279-1.278l-0.639-1.279a1.73,1.73,0,0,0-1.6-.959l-0.64-.32a5.9,5.9,0,0,1-2.237-2.876l-1.279-1.279a1.613,1.613,0,0,0-1.6.32l-2.557.959h-0.639l-4.156-4.475-0.959-1.279-0.639-1.918A26.7,26.7,0,0,0,362.17,96.4l-0.959-1.6s-1.582-3.755-4.155-5.434l-1.918-2.237-0.32-.32V85.537l0.959-1.279V80.742l1.918-1.6a6.605,6.605,0,0,0,1.279-1.918l0.319-.639,0.32-.639,0.959-.959,1.918-1.279,1.6-1.279,1.6-.959,2.238-.639,0.639-.639V68.276l0.639-.639V66.358l0.64-.639V64.44l-0.64-.32V61.244l-1.278-.639Z" style="stroke: inherit; filter: none; fill: inherit"/>
    </g>
    <use xlink:href="#形状_4" style="stroke: #fff; filter: none; fill: none"/>
    <g style="fill: #177c80; filter: url(#filter-5)">
      <path id="形状_5" data-name="形状 5" class="cls-5" d="M534.459,144.671s-4.78,1.818-4.794,3.2a6.726,6.726,0,0,1-4.475,1.6s-5.759-.964-8.311-0.639h-2.557a9.382,9.382,0,0,1-4.8,1.278H502.5s-5.409,5.289-17.9,1.6l-1.6.959-0.319.959-1.279.319-2.877,2.238L478.2,158.1s-0.207.807-1.279,0.319l-2.877.32s-0.419,3.093-2.557,4.155l-2.877,1.918-1.278,4.475a10.178,10.178,0,0,1-1.6,3.516l-1.917,3.2-0.959,1.6-0.64,5.434-1.918,3.516-0.319,3.2-1.918.959s-1.65.9-1.918,4.155c0,0-4.39,2.164-4.155,3.516l-0.959,9.909a3.308,3.308,0,0,1-2.238,2.238s-2.882,1.295-.959,3.2a12.176,12.176,0,0,1,2.238,2.877l0.319,6.073s-1.561,1.706-2.876,1.6h-1.279l-5.434-4.155a1.029,1.029,0,0,0-1.279.32s-1.415,4.27-4.794,5.114l0.319,4.155-0.639.64h-3.836s-0.916.72-.639,1.278l-0.32,2.557-2.876,2.558-1.279,1.6-1.918.639-1.278.32-0.959.959-0.32.959-5.754,5.753s-0.605,4.28,0,5.754c0,0,2.056,5.115-1.278,7.991,0,0,3.581,1.268,4.155,3.516,0,0,1.26,2.62,2.557,3.2l3.2,0.319a3.121,3.121,0,0,1,2.237,2.557h5.754a6.849,6.849,0,0,1,2.238,4.156v4.8s2.053,0.166,1.917,1.6l0.32,1.278s1.919,2.5,4.475,2.877l11.188,0.32s6.313,0.825,7.991,1.918c0,0,7.4,3.452,8.63,3.2a9.2,9.2,0,0,1-.319,3.836l-0.64,7.352-0.639.639-0.959.32-2.237,2.237-1.6,1.6H460.3s-1.643,2.659-1.6,3.516h-0.319a5.593,5.593,0,0,0,0,.639c0.022,0.265.319,4.475,0.319,4.475a2,2,0,0,0,1.6.959s1.574-1.841,2.877-1.6H465.1s2.514,0.676,2.877,2.557l0.32,5.753-2.558,4.8s-0.821,1.782,0,2.557l0.32,1.279h-1.6s-1.648.117-.639,2.238c0,0,1.308,3.654,2.237,3.835,0,0-3.545,1.4-3.2,2.238v1.6a3.584,3.584,0,0,0,2.876,1.918l2.238-.639a9.837,9.837,0,0,1,7.032.639,14.313,14.313,0,0,1,4.156,6.073s2.544,4.461,2.876,6.393a11.839,11.839,0,0,0,6.713,5.434s1.383,0.744,8.311,1.6c0,0,6.318.6,7.032,1.279l5.434,1.918a8.618,8.618,0,0,0,3.516.639h4.475s6.068-1,7.672-6.393l2.237-16.941s2.271-9.441,4.795-11.507c0,0,2.593-5.472,2.237-8.951l-0.319-16.621,0.959-2.557a7.584,7.584,0,0,1,5.434-4.475s7.649-1.037,9.909,7.352l4.155,13.425s3.418,17.448,17.261,22.375c0,0,9.006,3.443,14.065-2.877,0,0,5.941-4.507,1.917-17.261l-1.6-7.671s-1.275-5.661-.639-6.074c0,0-.343-22.311,9.589-25.571l5.754-6.393-10.868-8.95-0.639-.64v-2.237l-2.877-2.557s-0.315-.4-1.6,0h-0.64l-0.639.639h-0.959l-4.795-4.475s-1.581-.321-2.237.32l-2.557.639a5.509,5.509,0,0,1-4.475-2.557l-1.6-1.918s-0.826-3.1-2.237-4.156a7.189,7.189,0,0,1-1.279-3.516l-0.319-2.237-0.959-2.238s-0.5-1.869-1.6-1.918h-1.918l-1.279-1.278-0.639-1.6-0.32-.959-0.639-1.279-0.959-2.238s-1.678-3.239-3.836-3.835L548.2,227.14l-1.918-2.557-0.639-.959v-1.918l0.32-1.918,0.319-2.557,0.64-5.114,0.639-1.918V207s-2.732-4.539-5.754-4.475c0,0-2.341-2.173-1.918-3.2,0,0,.415-0.95-0.958-1.918l-0.64-3.2a4.679,4.679,0,0,0-2.557-3.2s-6.97-3.208-8.311-8.95v-3.836s-0.514-1.892-1.6-1.918c0,0-2.04-1.752.32-5.434a17.86,17.86,0,0,1,4.794-5.753,2.471,2.471,0,0,1,2.877,0,1.949,1.949,0,0,0,1.6,0l0.64-.959a1.145,1.145,0,0,1,1.918.319l1.6,1.6,1.6,0.319,3.516,3.516,0.639-.319,2.238-2.238a2.854,2.854,0,0,1,2.877,0l1.6,1.279,0.959-.32,0.959-.639,1.279-.32,1.278-.639,2.238-1.918,0.959-.639,2.557-.639,1.6-.959,0.32-.959,0.319-.64,0.64-.319,1.278-.64,0.639-.639,2.238-.32,1.918-.958,1.6-.959,1.279-1.6v-1.6a5.022,5.022,0,0,0-2.238-.959s-2.045-.275-4.155-0.639h-0.64s-2.486-.238-3.2-0.959c0,0-2.161-2.537-2.877-3.2,0,0-3.551-3.514-5.114-3.836a16.659,16.659,0,0,0-5.434-.64l-6.713-.319-2.557.959Z" style="stroke: inherit; filter: none; fill: inherit"/>
    </g>
    <use xlink:href="#形状_5" style="stroke: #fff; filter: none; fill: none"/>
    <g style="fill: #177c80; filter: url(#filter-6)">
      <path id="形状_6" data-name="形状 6" class="cls-6" d="M293.446,236.73l2.238,0.319,0.958-.639,0.64-.32,0.959-.639,0.959-.639,0.639-.32,1.6,0.32,0.959,0.959,0.639,0.639s0.052,0.853,1.6.32l1.278-.959v1.918l0.959,1.278,0.959,0.32s1.231,0.476,4.475,0a43.279,43.279,0,0,1,7.352-3.836l1.918-.639,3.2,0.319,1.6,0.64s4.237,5.082,6.712,6.073l2.557,0.32a4.268,4.268,0,0,1,1.918,2.237v1.918l0.959,0.639,0.32,1.6,2.237,2.557,1.279,0.319,0.959,1.279v0.639l1.278,0.959,0.959,0.639h4.475l1.279,0.959,3.516-.319,2.557-.64,2.558-.319,2.876,1.918,0.959,1.278,0.32,0.959,0.32,0.959,0.319,1.918,0.32,1.279,0.32,1.278,0.639,0.639,0.639,0.64h4.475s3.894,1.173,4.8,2.237l4.155,2.877,1.918,0.639h4.155l1.279-.319,1.918-.959,1.6-.639h7.991l1.279-.32,1.918-.959s2.548-2.246,2.877-3.516v-1.918a19.444,19.444,0,0,0-1.918-2.877l0.319-1.278h2.238s7.322,1.335,8.311,2.237c0,0,3.652,1.4,4.155,3.836l2.238,2.877,3.516,0.319a3.188,3.188,0,0,1,2.237,2.557l5.754,0.32s2.321,1.064,2.238,6.393v2.238s1.8,0.029,1.917,1.6l0.32,1.278S438.6,284.9,440.483,285l13.106,0.32s6.026,1.363,7.671,2.557c0,0,5.531,2.483,7.352,2.557v2.877l-0.959,8.311a31.264,31.264,0,0,0-5.434,4.8h-1.6l-2.237,3.835,0.319,5.115a2.427,2.427,0,0,0,1.6.639l1.918-1.6a6.38,6.38,0,0,1,4.475.639,3.255,3.255,0,0,1,1.6,1.918l-0.32,6.393-2.238,4.475-0.319,1.918,0.319,1.6-0.958.32s-1.864-.394-0.959,1.6l1.278,3.2s0.738,1.118,1.279.959l-2.238.64s-1.965,1.3-1.6,2.557c0,0,.881,2.758,3.2,2.557l2.877-.959s5.472-.361,7.033,1.6c0,0,2.989,2.623,6.392,11.507,0,0,1.5,5.321,9.59,6.393l1.6,0.32,1.6,0.32,2.877,0.319a23.17,23.17,0,0,1,6.073.959l5.115,1.918,2.237,0.959s1.288,0.156,2.238.32v4.155l3.2,3.516,2.238,4.475,1.278,2.238-0.639,5.434-0.959,1.6-1.918.32-3.2,1.918-2.557,1.278L508.888,394l-0.32.639-0.32,2.237s1.475,4.827,4.8,5.754l-0.959,2.557,1.279,1.6v1.6l-2.238,3.2A22.014,22.014,0,0,0,514,423.083l3.2,6.713a44.741,44.741,0,0,1,.319,4.8s0.886,2.262,2.557,1.6a2.349,2.349,0,0,0,2.238-1.279s0.482-1.576,1.6-1.278l2.557,0.639,1.6-.32,0.319,0.959s1.779,2.764,2.557,3.2a0.906,0.906,0,0,1-.319.959l-1.6,2.557-1.6-.32s-1.809-.587-2.237.32a5.1,5.1,0,0,0,1.278,3.2s5.664,7.93,8.311,8.631c0,0-.929,3.373-3.2,3.2,0,0-8.136,2.354-9.27,2.877a5.327,5.327,0,0,0-3.836,5.434l-0.32,2.557a1.708,1.708,0,0,1-2.557.64l-4.475-2.238-2.557-1.6s-3.2-3.512-5.753-2.238v-3.2l3.2-5.434,0.32-2.238s-0.954-1.614-1.279-1.6c0,0-1.607-3.07-1.279-3.516v-1.279l0.64-2.237s0.968-1.555-.32-2.238l0.32-1.278a1.586,1.586,0,0,0-1.279-.639s-2.608-1.034-2.877-1.6l-2.237-.959s-2.595-.765-3.2-0.319l-0.959-.64-0.639-.319a1.765,1.765,0,0,0-2.237-.32l-0.959-.639-3.2-.639-1.278-.32-0.64-.639-0.639-.959a10.318,10.318,0,0,0-4.155-2.558l-3.836-2.237-3.836-1.6s-2.953,2.88-3.2,4.794c0,0-3.463.741-4.156-.639V426.6s-0.393-2.257-3.516-.32c0,0-1.911,2.216-3.836.959a1.805,1.805,0,0,0-2.237-.639l-3.516,2.237-1.6,1.279-1.6.319a0.964,0.964,0,0,0-.639.959v2.238l1.6,2.557s-0.76,1.856-3.516,1.279l-2.557-1.279-0.32-1.918s-0.42-1.514-2.877-.32c0,0-1.048,1.618-2.557.959l-2.237-.639-2.877-2.237-1.6-.959-1.279-1.279s-3.492-1.354-5.434-.639l-2.877-2.557s-0.485-1.37-4.155-.959l-2.557-2.238s-0.993-3.774-2.877-3.516c0,0-1.9-.512-2.238.959l-0.319,3.2-1.279-.959a1.592,1.592,0,0,0-1.918,0l-2.557,2.558v1.918a1.27,1.27,0,0,0,1.6.958s3.739,1.065,1.6,3.517l-0.64,1.6s-0.181,1.955,1.279.959l1.6-1.279a1.226,1.226,0,0,1,1.279.639l2.237,1.918v3.516s-0.4,1.378,1.6,2.558c0,0,5.682,6.623,4.475,9.589,0,0-2.615,2.422-.639,5.114,0,0,2.529,4.177-1.6,4.795h-3.2a4.067,4.067,0,0,0-2.237,3.2v1.6l0.639,1.278v1.918s3.1,2.49,5.115,2.557h2.876l1.279-.319h1.6l0.959,0.959,0.959,1.278,0.959,0.32a2.529,2.529,0,0,1,.639,1.279s0.627,1.631,1.6,1.917h2.237s1.086,0.9-.32,1.918l-0.958.959s-0.385,1.364,1.6.959l3.516-.639s1.179,0.471,1.6,3.836v2.237s-2.3,1.787-3.516,1.918c0,0-2.156.1-1.918,2.877a1.33,1.33,0,0,1-.639.959l-1.6,1.918s-0.8,1.467.639,1.278c0,0,3.5.91,2.557,1.918l-2.557,3.836s-0.645,2.956.639,4.155v2.877a13.4,13.4,0,0,1-.959,2.557l-0.319,4.156s-8.013-5.973-12.147-6.074c0,0-10.927-4.245-12.466-7.032,0,0-4.992-2.9-3.836,1.279l1.279,6.073s-1.191,4.416-4.156,2.557c0,0-5.587-4.305-6.393-4.475h-7.032s-3.93,2.307-2.877,5.434a12.144,12.144,0,0,0,4.8,4.475s2.62,1.707,0,2.877c0,0-2.172,1.593-5.754.32,0,0-4.258-1.97-5.114-4.475a9.686,9.686,0,0,1-1.279-3.836s-0.358-3-2.237-3.516c0,0-1.269-2.881-2.238-3.516,0,0,.6-0.491-0.319-1.6,0,0-4.708-4.965-10.549-6.712a3.174,3.174,0,0,1-.959-3.836s2.263-4.2,2.558-4.155v-2.238s-1.69-2.906-9.59-5.114c0,0-4.521-2.02-3.516-4.8,0,0,.673-2.174,4.475-1.6,0,0,2.34-3,1.6-5.114l0.32-2.238s-3.783-10.067-7.672-11.507c0,0,1.359-.282-3.835-4.156,0,0-.6-1,0.959-3.2,0,0,.832-4.35,4.155-6.073a3.241,3.241,0,0,1,4.155.639l3.517,2.557H356.1a7.617,7.617,0,0,1,3.836-.959l1.917-.639v-1.918l-6.393-3.836s-0.837-2.525,1.279-2.877h3.836s2.807-2.238,2.877-3.835c0,0,1.1-3.206,3.2-3.836a2.925,2.925,0,0,0-1.278-2.238s-2.824-1.753-1.918-4.475c0,0,1.848-1.6.959-2.557,0,0-5.154-3.286-4.8-11.188,0,0-.251-0.427-1.918-0.319l-1.918-1.6h-0.32a1.962,1.962,0,0,0-2.237,0s-1.079,1.248-4.155.958l-5.435-.639-4.794,4.156s-3.23,3.526-3.836,0l-1.279-1.279v-6.073s-0.636-4.453-.639-5.115c0,0,.288-3.346.959-4.155l1.6-4.8,0.32-2.877s0.908-14.57,3.516-16.941a17.531,17.531,0,0,0-5.434-4.794s-8.643-.083-11.827-7.033v-2.557l-3.2-2.557-2.557.32-0.959-.32-0.32-.959V350.2l0.32-.639-0.32-1.6s-1.918-2.377-3.836-2.877l-0.319-15.663-0.64-1.918a7.845,7.845,0,0,1,0-3.836l0.32-3.516L308.15,317.6l-2.238-.319a3,3,0,0,1-.959-4.8v-0.959a2.8,2.8,0,0,0-2.557-.959s-7.032-1.122-10.548-.639c0,0-2.23-1.15-1.6-5.115,0,0,.147-1.434,3.835-3.516l2.877-2.237a3.425,3.425,0,0,0,0-2.238s-2.744-10.348,3.516-11.507a4.452,4.452,0,0,1,2.877.32l2.557,0.958h1.279l0.959,0.32s1.7,0.474,2.237-2.237c0,0-.662-1.916,5.434-0.959,0,0,6.9,2.525,7.672-4.156l0.639-1.918,2.238-.319s1.751-.681,1.6-4.156c0,0-.053-3.795,5.753-3.2,0,0,3.094-.776,2.558-3.2l-0.64-1.278v-1.279l-0.319-.959V262.3l-0.32-.959s-0.053-2.13-4.8-5.753c0,0-2.127-.039-2.876.639a32.874,32.874,0,0,1-4.8,2.557s-2.3.358-1.918-1.278l-0.639-5.754s-0.174-4-4.475-1.279a2.613,2.613,0,0,1-2.558,2.238s-2.053.414-2.237-2.238c0,0-.946-2.3-2.557-1.917h-0.959s-1.6,2.452-3.2.958l-3.835-2.557-1.279-1.278-0.32-.64-4.475-5.114Z" style="stroke: inherit; filter: none; fill: inherit"/>
    </g>
    <use xlink:href="#形状_6" style="stroke: #fff; filter: none; fill: none"/>
    <g style="fill: #c2984f; filter: url(#filter-7)">
      <path id="形状_7" data-name="形状 7" class="cls-7" d="M316.461,352.442l2.557-.32,2.557,2.238,0.639,2.557s1.547,6.012,10.229,7.352a4.739,4.739,0,0,1,3.516,1.278l3.2,3.2s0.49,0.437-.319.959c0,0-3.116,8.107-2.238,10.548l-0.639,7.671-1.918,5.115s-1.762,6.086-.32,8.311v7.991s1.461,0.054,1.279,1.918c0,0,1.5,1.093,1.918.319l6.393-5.114a15.5,15.5,0,0,1,5.754.639,7.6,7.6,0,0,0,4.794-1.6s1.931-.08,2.557.959a2.012,2.012,0,0,0,2.238.959h0.959s-0.873,7.644,4.8,11.507v1.279l-0.959,1.278v2.238a9.71,9.71,0,0,0,2.876,3.2v0.959s-2.539,2.375-2.557,3.2a2.522,2.522,0,0,0-.319,1.278s-1.864,3.25-3.2,3.516h-3.516s-2.239-.121-1.279,2.558c0,0,1.317,1.447,6.074,3.835a2.311,2.311,0,0,1-.32,2.557l-2.877.32-1.6.639s-3,1.081-5.114-.959c0,0-3.057-3.709-6.074-1.917,0,0-2.2,1.29-4.475,6.712,0,0-1.241,2.333.32,3.2,0,0,4.429,3.26,2.557,3.2,0,0-6.228-1.19-7.671-3.2,0,0-6.491-4.53-8.311-5.434,0,0-5.451-2.622-12.466,1.278,0,0-4.9,2.532-7.352-1.278l-5.115-6.393s-3.734-2.118-6.073-.32l-3.836,1.279s-2.853,2.313-3.516-1.6l-1.6-6.712s-1.358-4.878-3.2-5.115l-6.713-3.835s-4.392-2.435-4.8-4.8c0,0-3.793-7.484-5.114-7.991l2.877-.639,2.557-3.2,0.639-1.6a14.771,14.771,0,0,1,2.877-3.2s1.917-2.4,1.6-4.794l0.32-2.557a5.051,5.051,0,0,1,2.557-4.156l2.877-3.836a6.661,6.661,0,0,1,3.2-3.516l3.836-2.557,5.434-2.877s6.242-3.411,9.59-6.712a44.927,44.927,0,0,1,5.114-4.156s6.025-3.427,5.434-8.63C317.1,359.474,316.933,352.756,316.461,352.442Z" style="stroke: inherit; filter: none; fill: inherit"/>
    </g>
    <use xlink:href="#形状_7" style="stroke: #fff; filter: none; fill: none"/>
    <g style="fill: #177c80; filter: url(#filter-8)">
      <path id="形状_8" data-name="形状 8" class="cls-8" d="M404.363,428.517s3.516,0.263,3.2,2.558l-0.959,2.237v1.279s0.622,0.757,1.279-.32l0.958-.639a0.8,0.8,0,0,1,1.279,0l2.238,2.237,0.319,4.795s6.819,5.824,6.073,10.548c0,0-2.118,2.87-1.278,4.156,0,0,2.159,3.361,1.278,5.114,0,0-1.167,1.491-5.114.959a3.9,3.9,0,0,0-2.557,4.155l0.639,1.6v2.237s3.878,3.943,8.95,2.238H422.9l1.918,2.237,0.959,0.64,1.278,2.557,2.877,0.319a1.045,1.045,0,0,1,0,1.6l-1.278,1.278s-0.609,1.337,1.917.959l2.877-.639a2.239,2.239,0,0,1,1.279,1.918s1.818,3.647-.639,5.114l-2.558,1.279s-1.773-.19-1.6,2.876l-2.237,2.558v1.278l1.917,0.32a1.16,1.16,0,0,1,.959,1.918l-1.917,3.516-0.32.639v2.557a3.714,3.714,0,0,1,.639,2.558v1.6l-0.639,1.918-0.639,4.475s1.805,2.051,3.2,2.237a24.509,24.509,0,0,0,4.475,2.557s5,1.243,5.114,8.311l0.32,3.836s1.791,3.232,3.836,3.836a3.273,3.273,0,0,1,1.918,3.2s1.433,5.763,6.712,5.115c0,0,4.541-.259,6.393-1.918l7.352-3.516,3.836-1.6s5.148-1.322,6.073-2.237c0,0,3.209-1.723,1.279-3.2l-0.32-2.237s0.233-.878,3.516-0.64c0,0,5.6,1.78,6.393-2.876,0,0,4.222-14.472,7.672-17.581,0,0,1.62-2.732.319-7.032v-7.352l1.918-3.2s2.469-2.06.32-5.434l-0.959-2.877s0.149-14.284,3.2-18.54a2.761,2.761,0,0,1,2.558-1.6v-3.516s2.6-4.474,2.876-5.114a3.546,3.546,0,0,0-.959-4.475,6.1,6.1,0,0,1-.319-6.713l0.319-1.918-0.639-.32v-1.278l-1.278-.639s-5.187-3.681-8.311-2.558l-0.32-.639-0.639-.32-0.959-.639h-2.238l-0.639-.639-1.6-.32-2.557-.319s-2.016-3.383-4.795-4.156c0,0-5.52-3.081-8.311-4.155,0,0-2.728,2.36-3.2,5.114,0,0-4.344.331-4.156-1.279V426.6a1.477,1.477,0,0,0-2.557-.64l-1.918,1.279s-2.481,1.187-3.2-.32c0,0-1.305-1.324-3.2.32l-3.836,2.877s-2.385-.037-2.237,1.918c0,0,.228,3.036,1.6,3.835,0,0-.128,1.909-2.877,1.918,0,0-2.769-.686-3.2-1.918l-0.32-1.278s-0.4-2.181-2.877-.32l-1.278.959a3.637,3.637,0,0,1-3.2-.959l-5.753-4.155a9.055,9.055,0,0,0-6.074-.959l-2.876-2.877s-0.273-.619-2.238-0.32l-1.6-.319-3.2-2.877v-1.279l-1.278-1.278a2.741,2.741,0,0,0-3.2.319v3.516h-0.639a2.665,2.665,0,0,0-1.278-.959,1.439,1.439,0,0,0-1.918.64l-1.918,1.6-0.32,1.918Z" style="stroke: inherit; filter: none; fill: inherit"/>
    </g>
    <use xlink:href="#形状_8" style="stroke: #fff; filter: none; fill: none"/>
    <g style="fill: #b34e3e; filter: url(#filter-9)">
      <path id="形状_9" data-name="形状 9" class="cls-9" d="M513.363,366.506v4.8a10.405,10.405,0,0,1,4.155,4.794l2.238,4.795s0.735,6.685-2.238,7.991c0,0-.527-0.5-1.918.32,0,0-5.064,2.723-5.114,3.2,0,0-3.65,2.607-1.6,5.754,0,0,.966,3.487,3.836,4.155,0,0,.589,1.721-0.64,2.558,0,0-.113.944,1.279,1.917v1.6l-1.918,2.877s-0.648,4.674.639,7.671l4.8,9.909a20.014,20.014,0,0,1,.639,4.475s-0.151,3.714,3.2,2.557a2.491,2.491,0,0,0,1.918-1.6s0.477-1.626,3.2-.32h2.238s1.3,2.98,3.2,4.156l-1.918,3.516s-4.889-1.454-4.155.639c0,0,3.192,6.823,8.95,10.868,0,0,1.1.724,0.639-.959,0,0,.72-0.561.959-5.434,0,0,1.122-6.326,5.754-7.352,0,0,4.692-2.937,1.918-4.794a6.019,6.019,0,0,1,1.278-6.393s7.644-8.4,9.59-16.941c0,0,0-2.441,6.712-4.156,0,0,7.488-2.606,9.27-7.671,0,0,14.815-17.051,28.129-7.992a34.033,34.033,0,0,1,5.114-3.2s1.67-.906,0-2.557c0,0-1.54-3.115-.959-3.836,0,0,.83-0.356.959-3.836a7.951,7.951,0,0,1-2.877-7.352s2.307-6.35,4.156-9.909c0,0,.542-1.331-1.918-2.237,0,0,3.577-5.3,6.073-7.352a2.064,2.064,0,0,0-.639-2.557l2.877-3.2a1.051,1.051,0,0,0-.64-1.6l-5.753-2.877s-0.371-1.179.319-1.6l0.959-.959-0.319-.639-1.279-1.6-2.237.959s-1.5.925-2.238-2.238l-0.639-1.918a1.645,1.645,0,0,1,.959-2.237l0.959-.959a0.6,0.6,0,0,0-.32-0.959l-0.959-1.279s-0.508-.443.639-1.278c0,0,1.345-.31,0-0.959l-0.959-.64s-0.951-.752.32-1.6c0,0,.6-5.04-1.6-5.434,0,0-.386-0.217-1.279.639,0,0-3.415,5.288-9.27,4.475a19.861,19.861,0,0,1,1.279,9.59s0.387,7.328-8.95,10.548c0,0-8.212,2.348-16.3-5.753a34.364,34.364,0,0,1-9.27-17.9L549.8,304.814s-4.943-10.01-13.426-3.2c0,0-2.577,1.432-2.237,8.95l0.319,12.466s-0.218,6.523-3.2,9.27c0,0-4.577,10.254-4.475,14.7a112.9,112.9,0,0,1-1.918,13.425S523.129,367.4,513.363,366.506Z" style="stroke: inherit; filter: none; fill: inherit"/>
    </g>
    <use xlink:href="#形状_9" style="stroke: #fff; filter: none; fill: none"/>
    <g style="fill: #c2984f; filter: url(#filter-10)">
      <path id="形状_10" data-name="形状 10" class="cls-10" d="M696.52,380.251s9.575,20.223,9.909,21.736c0,0,8.636,18.338,22.056,26.85,0,0,9.121,6.225,9.589,7.032,0,0-7.648,4.824-10.548,5.754,0,0-7.355,4.113-15.023,3.836h-8.311a2.882,2.882,0,0,0-2.557,2.237s-1.586,2.844-3.836,3.836l-4.156-3.2h-0.958v-0.959s-2.577-2.707-2.877.959l-1.918.319s-2.841,3.4-4.156,3.2c0,0-5-6.384-5.753-8.631,0,0-6.568-9.55-7.672-10.228,0,0-7.279-10.212-8.311-12.786,0,0-2.7-4.111-5.114-4.8a14.109,14.109,0,0,1-3.2-5.114s-4.89-6.018-8.311-9.27c0,0-5.866-4.653-8.631.959l-2.557,5.753s-1.991,2.861-1.918,4.476c0,0-2.745,3.721-4.794,3.2,0,0-2.548,1.532-3.2,3.2,0,0-1.931.759-2.557-.319,0,0-6.245-6.882-6.393-8.311,0,0-3.051-3.372-4.8-5.754a16,16,0,0,1-4.155-4.475s-4.953-6.388-6.393-7.032c0,0-1.47-1.449-.32-1.918l0.959-.639,2.557,0.32s1.734-2.86,9.59-2.877a5.458,5.458,0,0,0,2.877-.959s1.634-.115,1.918.959v1.6h2.557l3.2,1.918,1.6,0.959,0.959-1.918s0.713-3.117,1.918-3.836l-2.877-1.6s-1.642-1.166.32-2.557l2.877,0.319,2.877-5.114s0.564-.585-0.959-0.959c0,0-1.333-.688,0-1.6l2.557-1.918,3.836,1.918a5.346,5.346,0,0,0,2.557-1.6l2.557-3.2,2.238-1.918H645.7a82.306,82.306,0,0,0,8.631.32s3.145-.969,1.918-4.795c0,0-1.953-.981-0.64-1.278h4.156a8.188,8.188,0,0,0,2.557-.959,6.855,6.855,0,0,0,2.877-2.238s0.53-5.225,7.671-.639l1.279,0.639h2.237l0.64,2.238h1.6a7.26,7.26,0,0,0,5.114-1.6s1.819-.83,2.238-0.639l0.959,2.557,1.278,2.877,1.279,2.877,2.238,4.8S695.689,379.269,696.52,380.251Z" style="stroke: inherit; filter: none; fill: inherit"/>
    </g>
    <use xlink:href="#形状_10" style="stroke: #fff; filter: none; fill: none"/>
    <g style="fill: #177c80; filter: url(#filter-11)">
      <path id="形状_11" data-name="形状 11" class="cls-11" d="M603.823,386l0.639,0.64-0.32.959a9.034,9.034,0,0,1-2.237,1.6s-1.822.564-1.279,0.959h2.238a6.9,6.9,0,0,1,3.836-1.918l1.6-.32,5.434-.639,1.6-.32a1.4,1.4,0,0,1,2.238.32l0.319,1.918s4.314,0.648,6.713,2.877l2.877-5.754a5.974,5.974,0,0,0-1.918-1.278H624.6l-0.32-.959-0.319-.959,0.319-.64,1.6-.319a4.664,4.664,0,0,0,2.238.319c0.606-.025.959-1.6,0.959-1.6l1.278-2.557,0.64-1.279-1.279-.639a0.906,0.906,0,0,1,0-1.6l2.877-1.918,2.557,1.279a1.858,1.858,0,0,0,2.557,0l3.836-4.156,1.279-1.278s0.437-.824,2.237-0.64l8.631,0.32s3.05-.958,2.557-2.557a2.274,2.274,0,0,0-1.279-2.877v-0.639s6.306,0.419,7.352-1.279c0,0,2.4-.763,2.877-1.918V358.2l1.278-1.278,2.877-.32,1.918,0.959,1.279,0.959,1.918,0.639h1.6l0.959,2.238h3.516l5.114-2.238-0.639-2.237L684.374,355l-2.558-3.516-2.876-3.836-2.877-4.155-2.557-3.836s-0.826-2.351-6.074-3.516a63.408,63.408,0,0,0-11.827-2.238s-2.328-.328-3.2-0.319c0,0-19.647-.384-24.613-9.59,0,0-8.43-7.34-2.877-20.138a204.456,204.456,0,0,0,7.352-19.5s0.931-16-7.352-14.384c0,0-10.071,1.751-17.26,6.712a5.616,5.616,0,0,1-5.115-.319,1.552,1.552,0,0,0-2.237.639l-4.8,5.434s-5.739,2.587-7.352,8.63a67.661,67.661,0,0,0-2.877,19.5s2.862,10.907,2.877,12.146c0,0,5.832-.106,7.991-3.516,0,0,2.838-4.315,3.836.959,0,0,.6,2.608-0.959,3.836l1.918,1.6-1.279,1.6,1.6,1.6v0.959l-1.918,1.918a7.3,7.3,0,0,0,1.918,5.434,4.717,4.717,0,0,0,2.876-.959,3.957,3.957,0,0,1,1.6,2.237s-1.375,1.861-.959,2.557c0,0,5.815,2.4,6.393,3.516,0,0,.634.816-0.64,1.6l-1.918,2.237a1.491,1.491,0,0,0,.64,1.6,1.794,1.794,0,0,1-.64,1.6l-5.434,7.032,1.6,0.959a1.2,1.2,0,0,1-.32,1.6l-1.279,3.2s-5.322,8.641-.639,12.785c0,0,2.181,1.2,0,5.434C602.544,382.488,602.892,385.248,603.823,386Z" style="stroke: inherit; filter: none; fill: inherit"/>
    </g>
    <use xlink:href="#形状_11" style="stroke: #fff; filter: none; fill: none"/>
    <g style="fill: #177c80; filter: url(#filter-12)">
      <path id="形状_18" data-name="形状 18" class="cls-12" d="M685.013,356.917l9.589-4.795a3.274,3.274,0,0,1,2.558.32l6.393,1.6,1.917,0.639s1.034,1.129,1.6-.639l1.278-4.156,0.64-3.835a3.254,3.254,0,0,1,3.835,0l0.32,3.516h0.639l1.918-1.6s1.063-.613,1.279.319v1.279s0.212,1.029,1.278,0c0,0,2.454-3.352,5.115-3.516l3.516-.959s0.454-.082,0,0.959c0,0-4.3,7.732-7.033,10.228l-5.114,5.115s0.417,3.783-2.557,8.95c0,0,6.638,2.259,3.516,8.311,0,0-8.846,6.878-15.982,8.63,0,0-3.683-8.262-4.795-9.27l-2.237-4.155-3.517-6.713-3.2-7.671-0.639-.32Z" style="stroke: inherit; filter: none; fill: inherit"/>
    </g>
    <use xlink:href="#形状_18" style="stroke: #fff; filter: none; fill: none"/>
    <g style="fill: #177c80; filter: url(#filter-13)">
      <path id="形状_19" data-name="形状 19" class="cls-13" d="M652.089,333.583s9.87-4.286,12.147-8.631a5.7,5.7,0,0,1,2.237-2.877s6.841-8.284,5.434-12.786v-2.876s-0.42-2.193,2.877-2.238h2.238s1.3-.249.959-2.557c0,0,.229-2.789,1.918-2.877l2.557-.32a3.436,3.436,0,0,0,.639-4.155,7.25,7.25,0,0,0-4.155-4.475l-3.836-3.516s-0.867-.167.639-1.279l4.795-3.516a1.581,1.581,0,0,0-.639-2.557s-4.8-2.895-3.836-4.8c0,0-1.354-3.238.639-4.475l3.836-4.475s0.844-.656-0.639-1.278l-5.115-4.475s-1.264-.757,0-1.279c0,0,5.753-3,7.672-5.114a12.663,12.663,0,0,1,1.6,3.2l1.918,1.279s3.84-.37,11.507,4.475a6.082,6.082,0,0,0,3.516,0s1.683-.674,2.238.639l0.32,1.918s-3.334.662-2.558,2.877c0,0,3.631,3.91.32,6.393v2.237a7.991,7.991,0,0,1,.959,5.114s1.629,1.7,13.425,7.992c0,0,5.238.75,2.557,4.155,0,0-.245,1.637,4.475,3.836,0,0,2.978-.467,4.156,1.918h3.2l0.959,4.155,0.639,0.32,0.32,3.2s-1.786.841-.32,1.918l1.918,2.557s-0.809-.074-0.959,1.918l-0.319,1.918s-3.1,1.516-3.2,2.877v1.6a11.19,11.19,0,0,0-3.2,2.238s-0.928.519,0.319,1.278c0,0,.173,1.053-0.319,1.279,0,0-2.808,2.581-2.877,3.835,0,0-.962,4.435-1.918,4.795,0,0-.735.12-0.32,1.6l0.64,1.918s-0.067.973,1.278,0.64l0.959,0.319,0.639,5.115,2.558,2.557s-5.031.8-6.393,1.918c0,0-2.806,2.937-2.877,3.2l-0.639-.32v-1.917a1.23,1.23,0,0,0-1.279,0,6.189,6.189,0,0,0-1.918,1.917,1.774,1.774,0,0,1-.959-1.278v-2.557a0.82,0.82,0,0,0-.959-0.64h-2.237a1.681,1.681,0,0,0-.639,1.918s-1.312,6.55-2.558,7.672c0,0-9.566-3.194-10.868-2.877H694.6l-9.589,4.795-0.32-1.279-1.6-2.557-3.516-4.8-2.877-4.155-2.877-4.156s-1.173-3.21-7.991-4.155C665.834,335.82,665.05,334.51,652.089,333.583Z" style="stroke: inherit; filter: none; fill: inherit"/>
    </g>
    <use xlink:href="#形状_19" style="stroke: #fff; filter: none; fill: none"/>
    <g style="fill: #c2984f; filter: url(#filter-14)">
      <path id="形状_20" data-name="形状 20" class="cls-14" d="M624.919,269.973l-3.835-4.475a2.815,2.815,0,0,0-3.2-2.877l-1.6.639s-1.65-3.577-.32-6.393l0.959-2.876s1.05-2.715,2.877-2.877a9.708,9.708,0,0,0,2.238-.959,16.526,16.526,0,0,1,5.114-2.557s3.524-1.129,1.918-3.836a16.67,16.67,0,0,1-3.516-8.311s-1.374-3.518-3.836-4.475c0,0-1.775-2.249,1.279-5.114,0,0,2.169-3.391,9.269-3.2,0,0,1.029-.156,4.475-2.877,0,0,3.01-2.848,9.59-1.918,0,0,5.165-5.5,9.589-4.475,0,0,.734-0.12,1.6-1.917,0,0,1.751-5.1,6.074-5.115a2.107,2.107,0,0,0,.639-2.557,4.326,4.326,0,0,1,3.836-1.6l3.516-3.516,0.639-.32,4.8-.32,3.2,0.64,7.032,6.712,1.6,4.156s1.907,5.367.959,10.228a24.337,24.337,0,0,1-6.713,10.229s-5.7,7.321-3.516,12.466c0,0-1.134,5.042,7.991.32,0,0-4.251,9.3-5.114,10.229,0,0-5.43,4.206-8.311,5.434l0.639,0.959,4.156,3.516,1.6,1.6v0.639l-4.795,5.434v4.795a53.675,53.675,0,0,0,5.115,4.475v1.278l-6.074,4.476,0.32,0.958,5.434,4.156a8.1,8.1,0,0,1,2.877,5.753s-0.3,2.5-2.557,1.918a3.278,3.278,0,0,0-3.2,2.558s1.244,3.355-1.6,3.2c0,0-4.622-.74-4.156,2.557,0,0,.88,6.143-1.6,9.909,0,0-4.276,5.947-5.114,6.393,0,0,.113,4.482-12.786,10.549,0,0-13.414-.455-20.777-5.435,0,0-10.163-6.9-8.311-19.5,0,0,5.6-15.2,6.393-16.622,0,0,4.435-7.861,2.238-13.425,0,0-.663-8.086-4.475-8.63h-2.558Z" style="stroke: inherit; filter: none; fill: inherit"/>
    </g>
    <use xlink:href="#形状_20" style="stroke: #fff; filter: none; fill: none"/>
    <g style="fill: #177c80; filter: url(#filter-15)">
      <path id="形状_21" data-name="形状 21" class="cls-15" d="M563.867,162.572l-3.836,1.6-0.959.639a22.306,22.306,0,0,1-3.835,2.557l-1.279.32-1.279.959-2.237-1.279-0.639-.319h-1.918l-3.2,2.876-3.2-3.2-0.32-.32v-0.319h-1.6l-2.557-2.238-0.959.32-1.279,1.278-0.959-.319-0.959-.64-1.278.32a19.972,19.972,0,0,0-6.713,8.631l0.32,1.917s1.91,1.777,2.237,2.238v5.114s2.486,5.345,7.032,7.672c0,0,3.239,1.229,3.836,3.836l0.64,3.2s1.445,0.446.958,2.557l1.6,2.238s2.056-1.1,6.073,4.475c0,0,.5.394,0,4.155l-1.6,10.549a5.9,5.9,0,0,0,2.557,5.753,15.737,15.737,0,0,0,4.155,3.2s2.63,2.743,2.877,4.155l1.918,4.8,1.279,1.278,2.237,0.32s1.192,0.092,1.918,2.557c0,0,.548,5.254,2.238,7.032a13.552,13.552,0,0,1,1.6,3.517s3.5,6.447,6.712,4.794l2.877-.639s1.163-.778,2.877.959l2.557,2.557,1.279,0.959,0.959-.32,0.639-.319a2.617,2.617,0,0,1,2.237,0l2.558,2.237V267.1l11.187,8.95a4.81,4.81,0,0,1,2.877.639s2.577,2.145,6.713-1.6c0,0,10.49-5.013,14.7-4.8a10.167,10.167,0,0,0-1.6-2.237l-2.237-2.238v-1.278a3.35,3.35,0,0,0-4.795-1.279s-2.48-4.378.959-9.909a3.208,3.208,0,0,1,3.2-2.237l3.517-2.238,3.2-1.278s3.826-1.2,1.6-4.156l-2.237-2.877-0.959-3.2v-1.918s-0.271-2.372-3.836-4.475c0,0-2.792-2.24,3.2-6.713a15.043,15.043,0,0,1,7.992-1.6,16.028,16.028,0,0,1,13.744-4.795s3.516-4.893,9.27-4.475l1.279-.959s0.952-5.614,6.712-6.073l0.32-.959,0.32-1.918s0.26-1.182,3.516-1.278l3.835-3.516,0.32-.32h2.557V191.02s0.191-2.975,6.713-4.8a4.532,4.532,0,0,0-2.877-3.835s-10.769-3.179-16.622-9.27l-2.237-2.557a14.868,14.868,0,0,0-4.156-5.115s-1.306-1.435-.319-6.073c0,0,2.735-3.592-.639-4.475,0,0-2.358.124-4.8,4.155,0,0-3.355,7.42-6.393,8.311,0,0-7.364,2.181-16.941-1.918,0,0-8.309-3.537-11.508-4.475a3.174,3.174,0,0,0-2.557.32s-1.3-.155-2.877,2.557c0,0-1.557,2.618-3.835,2.877,0,0-3.332,1.646-4.156,3.836a8.709,8.709,0,0,1-3.516,4.155l-1.918,1.6s-1.346,2.61-3.836,1.918c0,0-1.473-.141-1.917-2.557l-5.434-6.073-4.8-.32-4.475-.319-2.557-.64-7.032-3.516A10.987,10.987,0,0,1,563.867,162.572Z" style="stroke: inherit; filter: none; fill: inherit"/>
    </g>
    <use xlink:href="#形状_21" style="stroke: #fff; filter: none; fill: none"/>
    <text id="高楼镇" class="cls-16" transform="translate(158.887 305.371) scale(0.32)">高楼镇</text>
    <text id="湖岭镇" class="cls-16" transform="translate(266.927 177.193) scale(0.32)">湖岭镇</text>
    <text id="林川镇" class="cls-16" transform="translate(425.472 110.707) scale(0.32)">林川镇</text>
    <text id="陶山镇" class="cls-16" transform="translate(497.073 258.703) scale(0.32)">陶山镇</text>
    <text id="马屿镇" class="cls-16" transform="translate(382.32 365.145) scale(0.32)">马屿镇</text>
    <text id="平阳坑镇" class="cls-16" transform="translate(290.581 412.772) scale(0.32)">平阳坑镇</text>
    <text id="仙降" class="cls-16" transform="translate(543.421 375.694) scale(0.32)">仙降</text>
    <text id="云周" class="cls-16" transform="translate(615.343 349.802) scale(0.32)">云周</text>
    <text id="飞云" class="cls-16" transform="translate(667.125 402.224) scale(0.32)">飞云</text>
    <text id="潘岱" class="cls-16" transform="translate(642.832 270.53) scale(0.32)">潘岱</text>
    <text id="锦湖" class="cls-16" transform="translate(686.304 318.797) scale(0.32)">锦湖</text>
    <text id="玉海" class="cls-16" transform="translate(692.377 368.981) scale(0.32)">玉海</text>
    <text id="桐浦镇" class="cls-16" transform="translate(580.501 211.395) scale(0.32)">桐浦镇</text>
    <g style="fill: #177c80; filter: url(#filter-16)">
      <path id="形状_12" data-name="形状 12" class="cls-17" d="M792.1,484.456l13.425,10.868s2.3,22.752-5.434,41.873c0,0-2.567-1.037-3.516.32,0,0-2.136,2.612-7.992,1.918,0,0-3.675.238-5.434-1.6,0,0-10.838-7.166-14.384-10.549,0,0-9.585-8.024-14.384-10.548,0,0-10.726-4.951-15.982-8.95a7.523,7.523,0,0,1-3.2-4.156s-2.723-6.594-9.909-6.393l-7.991.959s-4.494-1.558-5.753-3.2c0,0-5.492-2.076-7.352-.32,0,0-3.856,1.59-2.557,5.115,0,0,.837,3.249,2.237,4.155,0,0,.636,3.215-2.557,3.2,0,0-3.456-.238-4.8-1.6,0,0-2.744-1.892-2.877-3.2,0,0-5.338-4.173-8.95-2.238,0,0-1.959.686-1.6,3.516,0,0,1.364,1.9-1.918,1.6,0,0-1.372.109-2.557-3.836a12.38,12.38,0,0,0-4.795-2.557l-5.114-1.6s-2.806-.454-3.2-5.434c0,0-1.642-5.441,0-7.991,0,0,1.491-5.7,5.114-7.671,0,0,2.54-4.318,3.2-5.754v-6.073a4.234,4.234,0,0,1,3.836-3.2s5.239-2.223,6.073-6.073a8.234,8.234,0,0,0-.319-2.877,4.736,4.736,0,0,0,1.918-.959l1.917-1.917,0.959-.64,1.6-.319,0.639-1.6h0.959l5.754,4.475s1.668,0.419,2.237-.639l3.2-4.475,0.639-.639h12.786s7.108-1.35,10.228-3.2c0,0,9.128-4.147,11.827-6.393L749.262,446.1l9.27,8.311,10.548,9.27,10.229,9.269Z" style="stroke: inherit; filter: none; fill: inherit"/>
    </g>
    <use xlink:href="#形状_12" style="stroke: #fff; filter: none; fill: none"/>
    <g style="fill: #177c80; filter: url(#filter-17)">
      <path id="形状_13" data-name="形状 13" class="cls-18" d="M699.717,387.6s13.522-5.508,15.982-9.27c0,0,2.526,2.185,5.114.959a24.706,24.706,0,0,1,7.672,4.8s8.686,8.114,9.589,8.31l3.516,2.558a4.4,4.4,0,0,0,1.918-2.558s0.729-4.323,3.516-3.835a4.205,4.205,0,0,1,1.6,5.434s-2.138,2.713,0,4.475a5.786,5.786,0,0,0,2.876,4.475l5.115,5.434,1.6-1.6,4.475,3.836,8.95,9.909,5.754,6.393,8.63,9.909,5.115,5.434,8.95,9.59s15.271,18.509,24.612,25.891c0,0-11.559,16.083-19.5,17.581L789.218,481.9l-8.311-7.671L766.2,460.8l-13.745-11.827-14.384-13.106s-12.862-8.834-18.859-15.023c0,0-12.433-14.985-13.425-20.777C705.79,400.069,700.387,388.847,699.717,387.6Z" style="stroke: inherit; filter: none; fill: inherit"/>
    </g>
    <use xlink:href="#形状_13" style="stroke: #fff; filter: none; fill: none"/>
    <g style="fill: #177c80; filter: url(#filter-18)">
      <path id="形状_14" data-name="形状 14" class="cls-19" d="M747.024,388.562l6.393-15.343s-0.188-2.362,1.6-1.918c0,0,12.023,2.785,16.3,2.877l1.917-.959s6.734,3.926,7.352,5.434v0.959l0.32,0.959,8.63,6.712,13.745,12.147s11.545,10.987,15.982,13.425c0,0,9.531,7.328,11.508,8.95,0,0,13.438,11.719,15.982,14.384,0,0,23.308,25.035,23.974,26.211l-8.311,4.475-3.516,1.918-2.877,1.918-5.114,3.836-5.115,3.2-7.671,5.434-1.6-.32L824.379,478.7l0.319-.959s-15.081-14.222-16.621-16.622c0,0-21.172-23.931-22.056-24.293,0,0-14.814-17.3-16.3-18.539,0,0-9.865-10.967-11.507-11.508l-1.6,1.6-1.6-1.6-0.64-.958-2.237-2.238-2.238-2.237-0.639-1.279-0.959-1.918s-1.585-1.631.639-4.8C748.942,393.356,749.646,389.792,747.024,388.562Z" style="stroke: inherit; filter: none; fill: inherit"/>
    </g>
    <use xlink:href="#形状_14" style="stroke: #fff; filter: none; fill: none"/>
    <g style="fill: #177c80; filter: url(#filter-19)">
      <path id="形状_15" data-name="形状 15" class="cls-20" d="M754.7,371.3s1.169-28.064,13.425-32.285c0,0,1.9-.908,2.877-8.95a12.946,12.946,0,0,1,8.311,2.238s4.435,2.071,6.712,1.918l1.279-1.279,1.278,0.959,1.6,0.32L790.5,335.5l-0.959,3.2,4.795,4.8,3.836,3.2L809.036,355l16.3,11.827,12.146,8.311,15.983,10.548,5.434,3.2a5.123,5.123,0,0,1,4.475,2.877l12.466,7.032L871.686,410.3l-1.278,4.475-1.6,3.516-2.557,5.434-3.836,7.991L882.874,446.1l0.32,0.959-0.32,1.279L875.522,459.2l-4.794,3.2-2.558-2.877-17.26-18.859s-10.06-11.13-12.147-11.827c0,0-18.5-15.645-26.211-21.416,0,0-11.755-9.882-18.859-16.622l-12.786-10.548-0.32-1.918-1.6-1.6-3.516-2.238-2.557-1.278s-1.556,1.118-5.115.639Z" style="stroke: inherit; filter: none; fill: inherit"/>
    </g>
    <use xlink:href="#形状_15" style="stroke: #fff; filter: none; fill: none"/>
    <g style="fill: #177c80; filter: url(#filter-20)">
      <path id="形状_16" data-name="形状 16" class="cls-21" d="M755.975,306.732a3.129,3.129,0,0,1,2.876-.959s4.087,0.536,6.074,0c0,0,1.848-.633,1.917,1.918,0,0-.053,3.575,2.238,4.475a10.97,10.97,0,0,1,9.27-2.237s6.49,0.405,9.27,1.6c0,0,6.325.9,7.351-.959a3.076,3.076,0,0,0-.319-2.877s-2.467-6.949-1.279-7.352l4.156,4.8,0.958,1.279,2.558-1.6,1.278,1.279s0.33,0.246,0,.959l-0.959,1.278v0.64l5.754,3.835,0.639-.639,1.918-1.918a3.844,3.844,0,0,1,2.238.959s4.584,2.628,5.434,3.836l11.187,9.27,9.59,8.95,6.073,6.073,3.516,2.238,2.557,2.237,2.238,1.918,0.639,1.6,1.6,1.279,3.836,2.877,4.155,3.2,13.426,9.59L886.39,371.3l1.279,0.959-6.713,14.384-5.434,12.146-4.475-2.876-4.475-2.238-2.237-1.6-0.959-.64-0.959-.958s-0.863-1.355-4.156-1.918l-13.425-8.311-13.105-8.95-12.147-8.631L805.2,352.122l-7.032-5.434-8.631-7.991,0.64-1.279,0.319-1.6-0.319-1.279-0.32-.639H788.9l-1.278-.639h-0.64l-0.959.959h-1.6l-1.918-.639-3.836-1.918a16.6,16.6,0,0,0-3.835-1.6s-3.535-.362-4.156.32l-3.836.32s-2.188-.751-2.237-2.558l-0.639-3.2s-0.008-2.016-2.238-.959c0,0-.512,1.048-1.278,0a3.893,3.893,0,0,0-1.918-2.557V311.207l-1.6-1.6-0.639-1.918Z" style="stroke: inherit; filter: none; fill: inherit"/>
    </g>
    <use xlink:href="#形状_16" style="stroke: #fff; filter: none; fill: none"/>
    <g style="fill: #177c80; filter: url(#filter-21)">
      <path id="形状_17" data-name="形状 17" class="cls-22" d="M733.6,310.888l-0.639.958-0.32,2.877-1.278.64s-2.326,2.035-2.238,2.557V319.2l-3.2,2.558s-0.885.364,0,1.278a0.731,0.731,0,0,1,0,1.279s-3.43,2.937-3.2,5.434c0,0-.292,2.378-1.918,3.2v1.279s0.406,2.331,1.279,2.877h1.279l0.319,0.639,0.32,1.278v1.6l0.319,1.918s1.648,2.3,2.877,2.237a1.2,1.2,0,0,1-.319,1.279,66.479,66.479,0,0,1-6.713,9.909l-5.434,5.434s-0.483,5.527-1.6,6.712a8.95,8.95,0,0,1-1.279,2.238s3.825,0.473,4.156,3.516a5.293,5.293,0,0,1,0,4.8,9.114,9.114,0,0,0,4.794.959,12.509,12.509,0,0,1,7.033,4.155s10.578,9.113,11.827,9.909c0,0,2.324,2.7,3.2-.32l1.6-3.2s0.955-2.294,2.557-1.6l2.558-5.754,0.959-2.877,1.917-4.475,1.279-3.2s-0.273-1.439,1.279-.959c0,0-.433-6.4.959-10.549,0,0,2.062-11.516,5.434-15.662,0,0,2.724-5.088,6.712-6.074,0,0,2.535-2.791,2.557-8.63l-3.2.32s-2.582.423-2.877-3.2l-0.639-2.557a1.321,1.321,0,0,0-2.238-.959l-0.639.32-0.959-.64V322.4l-1.279-.959-0.319-9.909-1.279-1.6-0.639-1.279-0.32-.639-0.319-1.279-4.156,2.238h-2.557l-0.959.639v1.279l-3.2.319-0.959.32-0.64-.32a9.085,9.085,0,0,0-2.877.959s-4.032.857-4.794,0.32Z" style="stroke: inherit; filter: none; fill: inherit"/>
    </g>
    <use xlink:href="#形状_17" style="stroke: #fff; filter: none; fill: none"/>
    <g style="fill: #177c80; filter: url(#filter-22)">
      <path id="形状_22" data-name="形状 22" class="cls-23" d="M687.57,243.442s6.165-4.89,9.59-6.393c0,0,6.045-5.595,13.425-4.155,0,0,5-.986,10.548,3.836,0,0,3.507,2.643,3.836,5.753a6.025,6.025,0,0,0,4.155,4.795s7.667,2.138,11.188-.639c0,0,3.643-3.509,4.795-3.836,0,0,8.739-3.253,14.7,0a7.611,7.611,0,0,0,10.229,1.278s7.333-2.184,5.114-7.351c0,0-.985-5.177,2.238-5.115l3.516,1.279h2.557s2.57-3.6.639-6.393l-3.516-2.877-0.639-.959v-0.639l3.836-1.6,3.2-1.6,3.2-.639h0.639l1.279,0.639,1.917,0.959s6.222,2.014,7.672-.959l0.32-5.114a6.19,6.19,0,0,1,3.835-2.237s9.446-1.472,12.147-2.877c0,0,11.5-4.477,17.261-3.836,0,0,7.07-1.074,5.753,2.237,0,0,.628,1.556-4.155,1.279,0,0-8.675,1.523-9.27,2.557,0,0-7.031,1.552-.319,3.516,0,0,6.7,3.711,19.179,1.279,0,0,6.972-.613,9.269-2.557,0,0,9.644,1.886,15.024,7.991,0,0,7.954,1.079,8.63,8.95,0,0-.182,5.715,1.279,7.991,0,0,1.591,3.173,4.155,4.156,0,0,2.23,5.255,1.6,8.31,0,0-8.442,7.417-8.63,8.631,0,0-1.09,3.09-.64,5.114a7,7,0,0,1-3.2,3.2s-1.107,1.872-2.557,7.671a10.447,10.447,0,0,1,0,5.754s-1.14,7.008,6.393,12.146l13.745,14.384,2.876,2.558,2.238,0.959,3.836,3.835,3.2,2.877,2.557,3.516,6.393,6.713,1.918,1.918,1.279,1.918-1.279.959-5.114,7.032-1.279-.64-1.6-.639s-7.808,10.888-10.229,16.3c0,0-8.184,16.6-8.63,17.261l-1.6-.639-23.015-16.622-10.229-7.671-0.319-1.279-8.95-7.352-14.384-13.425-9.27-7.671s-5.6-5.426-9.909-7.033a6.089,6.089,0,0,0-2.238,1.918,0.985,0.985,0,0,1-1.6,0l-4.475-2.877s-0.561-1.148.32-1.6a1.565,1.565,0,0,0,.319-1.918s-0.937-1.579-1.918-.639l-1.918,1.279-5.114-6.074a9.819,9.819,0,0,0,0,3.836l1.918,4.475s0.614,2.954-2.877,2.877H787.62s-13.323-4.1-18.22.639c0,0-2.551-.442-2.558-5.434,0,0-.342-1.468-2.237-0.959,0,0-5.071.352-6.713-.319l-1.6.959L751.5,308.97h-2.237l-0.959,1.6-3.516.639-3.2.32-2.237.959h-3.2l-2.237-1.6-2.557-2.558a1.343,1.343,0,0,1,.639-1.6v-1.918l-0.32-1.278-0.639-.959v-0.64l-0.639-.958v-1.918h-3.516l-1.279-1.279-1.918-.639-1.278-.32-2.558-1.278-1.278-1.6v-0.959l0.639-.639v-1.6l-1.278-.959-0.959-.959H715.06l-4.475-2.557-3.836-2.557-4.155-2.238-0.32-1.278v-0.959l-0.32-1.6-0.319-.959-0.32-2.876,0.959-.959a2.982,2.982,0,0,0,0-3.516L701,267.416s-0.932-1.678,2.238-2.877l0.32-1.918a1.648,1.648,0,0,0-1.6-.959l-1.918.32s-2.37.568-3.516-.64c0,0-4.857-3.642-9.589-3.835,0,0-1.953-.184-2.557-1.279,0,0-1.791-2.8-1.6-3.516,0,0,1.367-2.369,1.918-3.516l1.279-3.2S686.833,243.667,687.57,243.442Z" style="stroke: inherit; filter: none; fill: inherit"/>
    </g>
    <use xlink:href="#形状_22" style="stroke: #fff; filter: none; fill: none"/>
    <text id="芳庄乡" class="cls-16" transform="translate(302.088 88.012) scale(0.32)">芳庄乡</text>
    <text id="曹村镇" class="cls-16" transform="translate(444.332 476.702) scale(0.32)">曹村镇</text>
    <text id="安阳" class="cls-16" transform="translate(731.694 353.638) scale(0.32)">安阳</text>
    <text id="东山" class="cls-16" transform="translate(738.086 428.116) scale(0.32)">东山</text>
    <text id="南滨" class="cls-16" transform="translate(720.826 477.661) scale(0.32)">南滨</text>
    <text id="上望" class="cls-16" transform="translate(783.796 417.567) scale(0.32)">上望</text>
    <text id="莘塍" class="cls-16" transform="translate(805.851 392.954) scale(0.32)">莘塍</text>
    <text id="汀田" class="cls-16" transform="translate(821.834 355.876) scale(0.32)">汀田</text>
    <text id="塘下镇" class="cls-16" transform="translate(801.377 276.603) scale(0.32)">塘下镇</text>
  </g>
  <path id="形状_1535" data-name="形状 1535" class="cls-24" d="M769.082,136.275h-1.891l-0.945.923a5,5,0,0,1-.946,1.384c-0.723.8-1.168,0.707-.946,0.923s-1.262.105,0,.461a13.219,13.219,0,0,1,1.344.488,0.126,0.126,0,0,0,.075-0.027,0.032,0.032,0,0,1,.018-0.007,0.368,0.368,0,0,1,.028.217,0.186,0.186,0,0,0,.168.216,1.478,1.478,0,0,0,.731-0.426c1.215-1.009,1.39-.422,1.418-0.922s0.355-.367,0-0.923-0.548-.139-0.472-0.462c0.07-.3-0.922-0.934-0.2-0.934a1.735,1.735,0,0,1,.2.012c0.361,0.037.586,0.049,0.726,0.049,0.28,0,.219-0.049.219-0.049l0.473-.923m16.105,18.693c-0.14,0-.031.225-0.031,0.225l-1.418,1.384h-0.946a1.575,1.575,0,0,1,.316.044c-0.07,0-.289-0.011-0.789-0.044-1.032-.068-0.621-0.37-0.5-0.445a3.851,3.851,0,0,1-.444-0.478,1.212,1.212,0,0,0-.473-0.461,0.429,0.429,0,0,0-.316-0.085,3.207,3.207,0,0,0-.63.085l-0.472.461-0.946.461-0.472.462v1.846s-1.2-.421-1.419-0.462a0.466,0.466,0,0,0-.067-0.01,1.012,1.012,0,0,1-.406.472,1.032,1.032,0,0,1-.316.2c-0.062,0,.037-0.168-0.156-0.2a0.388,0.388,0,0,0-.06-0.006,4.511,4.511,0,0,1-.413.928c-0.317.4-.185,0.483,0.02,0.483a1.878,1.878,0,0,0,.209-0.017,1.793,1.793,0,0,1,.18-0.016,0.117,0.117,0,0,1,.064.012,5.168,5.168,0,0,0,1.418.923c0.769,0.444.608,0.551,0.277,0.551a4.807,4.807,0,0,1-.75-0.09H775.7a1.656,1.656,0,0,1-.946,0,0.59,0.59,0,0,0-.116-0.011,1.166,1.166,0,0,0-.829.934l-0.473.461-0.473.462a1.282,1.282,0,0,1-.473,0c-0.157-.012-0.315-0.018-0.472-0.018s-0.316.006-.473,0.018a2.465,2.465,0,0,1-.473-0.462,0.567,0.567,0,0,0-.138-0.134,0.589,0.589,0,0,0-.807.134l-1.419,1.384-0.473.462a2.957,2.957,0,0,0-.945,0q-0.473.038-.945,0.038t-0.946-.038v0.923l0.473,0.922h0.945l0.946,0.923,0.472,0.462H768.13a2.14,2.14,0,0,0-.939.462,9.537,9.537,0,0,0-.945.923c-0.591.442,0.25-.166,0,0.923a1.457,1.457,0,0,0-.1.641,0.581,0.581,0,0,0,.1-0.18l0.945-.461a11.182,11.182,0,0,1,1.418-1.385c0.384-.212.946-0.461,0.946-0.461l0.945,0.923s-0.349.386-.945,0.923c-0.466.419,0.086,0.465,0.348,0.465,0.074,0,.125,0,0.125,0s-0.331-.362.472-0.461a4.027,4.027,0,0,1,1.419,0,1.4,1.4,0,0,0,.153.012,2.009,2.009,0,0,1,1.188-.557c0.335,0-.265.508,0.55,1.006a1.712,1.712,0,0,0,.9.3,3.433,3.433,0,0,0,1-.3c0.51-.135.472-1.384,0.472-1.384l1.419-1.384,2.363-2.307,1.419-.923,1.891-3.23,3.309-3.691a2.32,2.32,0,0,0,0-1.385c-0.217-.892-0.227-0.418-0.945-0.922a1.013,1.013,0,0,0-.442-0.225m-3.34,1.147-0.029.017a0.055,0.055,0,0,0,.029.015c0.014,0,0-.032,0-0.032m-31.223.711c-0.078,0-.236.057-0.925,0.212-1.241.279-1.129,0.4-1.014,0.444l0.068,0.018a0.486,0.486,0,0,1-.068-0.018,3.429,3.429,0,0,0-.682-0.109c-0.14,0-.233.031-0.2,0.127a0.1,0.1,0,0,0,.09.073,0.225,0.225,0,0,0,.1-0.037,0.305,0.305,0,0,1,.065-0.037,1.867,1.867,0,0,1-.259.462,1.229,1.229,0,0,1-.438.562,0.025,0.025,0,0,1-.019-0.007,1.083,1.083,0,0,1-.016.368,0.256,0.256,0,0,1-.27.1,3.441,3.441,0,0,1-.675-0.1,5.272,5.272,0,0,0-1.311-.524,0.09,0.09,0,0,0-.108.063c-0.037.276,0.686,1.615,0.473,2.307s-0.553.752,0,1.384a1.2,1.2,0,0,0,.356.35,0.013,0.013,0,0,0,.01,0,0.017,0.017,0,0,1,.007,0,0.346,0.346,0,0,1,.1.119c0.227,0.315-.213.03,0.946,0.462,0.83,0.309.713,0.412,0.58,0.445l0.365,0.016c0.534,0.026.665,0.067,0.749,0.067a0.481,0.481,0,0,0,.2-0.067,0.131,0.131,0,0,1,.055-0.012,0.218,0.218,0,0,1,.154.1,0.236,0.236,0,0,0,.105.1,1,1,0,0,0,.159-0.658,3.513,3.513,0,0,0,.063-0.7,1.3,1.3,0,0,0-.063.237,2.144,2.144,0,0,1,0-.923c0.128-.3-1.555-0.651,0-0.922,1.28-.224.044-0.5,0.43-0.5,0.083,0,.241.013,0.516,0.042a7.606,7.606,0,0,0,.795.053,1.047,1.047,0,0,0,.362-0.041,0.3,0.3,0,0,1,.117-0.041,0.572,0.572,0,0,1,.144.029,0.976,0.976,0,0,0,.285.044,1.545,1.545,0,0,0,.251-0.026,1.646,1.646,0,0,1,.268-0.026,1.2,1.2,0,0,1,.142.008c0.257,0.03.417,0.354,0.606,0.354a0.484,0.484,0,0,0,.339-0.354,0.82,0.82,0,0,1,.4-0.524,0.083,0.083,0,0,1,.07.063s0.827-.812,0-0.923a2.177,2.177,0,0,0-.28-0.024,0.353,0.353,0,0,0-.1.01,0.07,0.07,0,0,0-.021.01,1.553,1.553,0,0,0-.546-0.457,1.38,1.38,0,0,0-.7-0.316,0.224,0.224,0,0,0-.234.174c0,0.047-.009.094-0.014,0.142a0.421,0.421,0,0,1,.014-0.142,4,4,0,0,0-.014-0.781c-0.071-.173,1.1-0.269-0.473-0.462a3.344,3.344,0,0,1-.966-0.212m-3.289,1.6a0.14,0.14,0,0,0,.016.093c0-.031-0.009-0.062-0.016-0.093m-26.947,3.691-0.473.923a13.377,13.377,0,0,0-1.418,1.384h0a0.232,0.232,0,0,0,.1-0.046,0.239,0.239,0,0,1,.1-0.047c0.07,0,.066.177-0.2,1.016a2.088,2.088,0,0,1-.433,1.016,0.044,0.044,0,0,1-.032-0.04,3.085,3.085,0,0,1-.008.869c-0.088.2-.606,0.462-0.038,0.462h0.06c0.592,0-.022.462-0.022,0.462a6.218,6.218,0,0,0,.946-0.461,0.094,0.094,0,0,1,.071-0.029,0.394,0.394,0,0,1,.082.013,0.54,0.54,0,0,0,.107.013,1,1,0,0,0,.685-0.459,3.092,3.092,0,0,1,.492-0.512,4.156,4.156,0,0,1,.454-0.872,0.077,0.077,0,0,1,.055-0.033,0.248,0.248,0,0,1,.13.173,0.3,0.3,0,0,0,.106.173,1.353,1.353,0,0,0,.182-0.774,2.743,2.743,0,0,0,.068-1.06,0.338,0.338,0,0,0-.068.137,1.413,1.413,0,0,1,0-.923,1.42,1.42,0,0,0,0-.923l-0.946-.461m26.906,1.365c-0.139,0,.041.019,0.041,0.019a0.563,0.563,0,0,0,.108-0.016l-0.149,0m33.607,2.787h0m0,0a3.471,3.471,0,0,0-.946.923c-0.008.039,0,.059,0.013,0.065a0.756,0.756,0,0,1,.183-0.123,0.093,0.093,0,0,1-.053.063,0.255,0.255,0,0,1-.118.062l-0.012,0c-0.1.079-.26,0.205-0.485,0.4-0.344.292-.53,0.455-0.62,0.539q0.072-.042.147-0.078a2.306,2.306,0,0,1-.219.155,0.2,0.2,0,0,1,.072-0.077,2.013,2.013,0,0,0-.8.845,9.513,9.513,0,0,0-.473.923,7.088,7.088,0,0,1-.473,1.384c-0.175.29-.2,1.292-0.473,1.384s-0.718,1.266-.945,1.385a0.126,0.126,0,0,1-.055.012,0.55,0.55,0,0,1-.231-0.089,0.57,0.57,0,0,0-.211-0.089c-0.093,0-.118.133,0.024,0.627,0.331,1.15.529,1.342,0.473,1.384s-0.364.162,0,.462a2.545,2.545,0,0,1,.472.461s-0.35.048-.21,0.048c0.07,0,.263-0.012.683-0.048,0.153-.013.29-0.018,0.413-0.018a3.3,3.3,0,0,1,.6.05c0.078-.1.207-0.258,0.405-0.493a11.617,11.617,0,0,0,.945-1.385c0.454-.472.444,0.2,0.945-0.922,0.185-.414.152-0.476,0.091-0.476a0.213,0.213,0,0,0-.042.006,0.206,0.206,0,0,1-.039.006c-0.065,0-.043-0.1.463-0.921,1.073-1.73.534-1.519,0.946-1.845a12.577,12.577,0,0,0,.945-1.385c0.743-.931.161-0.759,0.946-1.384a3.946,3.946,0,0,0,.945-0.923,2.031,2.031,0,0,0-1.069-.62,0.443,0.443,0,0,0-.349.159c-0.468.538,0.118,0.009-.473,0.923a8.216,8.216,0,0,1-.945,1.384,0.984,0.984,0,0,1-.455.417c-0.14,0-.018-0.417-0.018-0.417l-0.473-1.384a0.582,0.582,0,0,0,.159.023c0.155,0,.362-0.074.314-0.485a2.75,2.75,0,0,1,0-.923m-62.877,0a0.267,0.267,0,0,0,.008.054c0-.018,0-0.036-0.008-0.054m2.383,0.411h0l-0.019.051a0.077,0.077,0,0,0,.019-0.051m70.126,1.827c-0.129,0-.258.015-0.192,0.06,0.609-.02.4-0.06,0.192-0.06m-0.192.06c-0.119,0-.27.007-0.458,0.009-0.593.007-.9,0.009-1.037,0.009a0.437,0.437,0,1,1,.092-0.009h-0.946l-0.945.923-1.418,1.385-0.473,1.384-0.473,1.384a2.314,2.314,0,0,0-.465.806,1.43,1.43,0,0,0,.465-0.344,4.206,4.206,0,0,0,.949-0.924h0l0.472-.462a3.785,3.785,0,0,0,.623.069,0.537,0.537,0,0,0,.323-0.069,1.262,1.262,0,0,1,.639-0.373,0.348,0.348,0,0,1,.306.373l0.473,0.923s0.364,0.122,0,.462a1.4,1.4,0,0,0-.473.461c-0.628.708-.472,0.923-0.472,0.923v0.923a2.166,2.166,0,0,0,.874.938,0.178,0.178,0,0,0,.071-0.015,0.233,0.233,0,0,1,.079-0.026c0.037,0,.008.05,0,0.1s0.01,0.1.137,0.1a2.718,2.718,0,0,0,.728-0.173c1.38-.458,1.087-0.079,1.418-0.462s1.376-1.335,1.418-1.384a0.024,0.024,0,0,1,.019,0,0.781,0.781,0,0,1,.115.019,0.845,0.845,0,0,0,.162.02c0.161,0,.3-0.084.177-0.5-0.192-.621.465-0.967,0.254-0.967a1.455,1.455,0,0,0-.254.045c-0.771.174-2.364,0.461-2.364,0.461s-0.52-.205,0-0.923,0.114-.713.473-0.923a0.2,0.2,0,0,1,.082-0.034c0.023,0,.018.025,0,0.055,0.068-.088.188-0.238,0.389-0.482,0.931-1.13.761-.412,0.945-0.923s0.137-.092.473-0.923,0.667-.82.473-0.923,0.4-.1-0.946-0.461a3.73,3.73,0,0,0-.842-0.16c-0.28,0-.1.16-0.1,0.16s-0.672-.315-0.946-0.462l-0.015-.009m-1.4.009h0m1.975,4.174a0.614,0.614,0,0,0-.076.108,0.429,0.429,0,0,0,.061-0.081,0.182,0.182,0,0,0,.015-0.027m-9.539,3.671-0.877.428c-0.015.117-.037,0.278-0.069,0.5-0.2,1.352-.018,1.384,0,1.384h0s-0.449.727,0,.923a3.307,3.307,0,0,0,1.419,0,8.4,8.4,0,0,0,1.418-1.385,2.014,2.014,0,0,1,0-.922s0.17-.152-0.473-0.462a6.756,6.756,0,0,0-1.418-.461m-0.858.145a1.963,1.963,0,0,0-.088.316l0.069-.033a0.889,0.889,0,0,0,.019-0.283m-2.507.265a0.552,0.552,0,0,0-.232.107,2.012,2.012,0,0,0,.248.057c0.044,0,.051-0.029.04-0.113a0.052,0.052,0,0,0-.056-0.051m-0.349.083c-0.091.117-.113,0.159-0.095,0.159a1.122,1.122,0,0,0,.192-0.121l0.02-.014-0.041-.009-0.076-.015m-8.578-40.636h0"/>
    <text id="北鹿乡" class="cls-16" transform="translate(737.636 170.162) scale(0.32)">北麂乡</text>
</svg>
