<svg xmlns="http://www.w3.org/2000/svg" viewBox="0 0 2161 1992">
    <defs>
        <style>
	.cls-1,.cls-2,.cls-3,.cls-4,.cls-5,.cls-6,.cls-7{
        stroke: #303254;
        stroke-width: 1px;
        stroke: #9d9d9d;
        stroke-width: 1px;
        fill-rule: evenodd;
    fill: none;
    fill-opacity: 0.35;
	}
	    .cls-8{
        font-size: 40px;
    fill: #fff;
    font-weight: 700;
    text-anchor: middle;
    font-family: "Microsoft YaHei UI";
	    }
        </style>
    </defs>
    <g id="图层_2" data-name="图层 2">
        <g id="组_3" data-name="组 3">
            <path id="形状_17" data-name="形状 17" class="cls-1"
                  d="M544.51,760.5l-1-7,2-12,1-5,4-3h14l5-4v-3l-4-2,2-5,5-3,7-4,4-1,4,3,4-1,1-5,1-10v-2l-5-4v-4l-5-5-3-7,1-3,8-6,6-6,2-1h3l3,4,4,2,1-1,2-2v-15s-.07-1.87,0-3-2-4-2-4l-3-1h-3l-3-2-4-6-5-5-4-4-2-3,4-2h5l7-1,5-1,5-3h3l2,2,4,3h3l5-3,3-7,1-6,7-10,12-14,3-5,2-2h4l2-3,5-3,4-2,3-1,9,2,4,3h6l3-4,2-3h5l4,1,3,5,2,2,2,6v4l3,3,3-1,2-2,4-1,4-1v-6l3-3s3.31-3.13,4-3a32.31,32.31,0,0,0,5-1l3-3,6-5h11l7-2,6,3v4l2,3h4l4,1,2,4,5,6,3,3,7-1,3-3,2-3,2-5,2,2,1,4,5,1,4-2v-7l4-4,5-3,2-2,1-5v-2l-2-1-1-4v-2l4-2,2-1,3-1,4-3,2-5,1-5,4-7,7-1s12.88-.39,15,0a11.68,11.68,0,0,0,4,0v9l1,8,1,6,4,4,5,5,4,3s4.51,1.38,6,1,12-1,12-1l6-2-1-5v-5l-3-4-3-4-5-1-2-4,3-3,6-3v-4l-5-1-3-3,7-3-2-7-3-10-4-3-3-2h-3l-2-3,3-3v-4l-3-8-1-4-1-7-5-4-6-5-4-5-3-8s-1.47-4.71-1-6,0-5,0-5l3-6,3-6,6-4,2-3-2-4-2-3-3-3h-5l-4-2,1-3,3-6,4-5v-3l-2-4-1-3,4-2,3-3a34.39,34.39,0,0,0,1-4c.07-.9,1.82-7.29,2-9s-.45-4.32,0-5-.6-8.31-1-9l-4-7-8-1h-6l-3,3-2,2h-3l-2-4-6-9-5-6-3-4,2-5,5-5v-3l-4-4-5-2-5,1-5-2-5-5-9-8h-7l-5-2-3,3c-1.06-.27-4-3-4-3l-1-5-1-8s-2.14-3.43-3-4-5-4-5-4l-4-6-5-12h-4l-5-3h-16l-6-10-4-6-4-1-3,2-5-1-8-4-6-5-4-4,2-1,8-7,4-4v-3l-2-3-1-4,4-4,2-4,1-4,3-4,3-2,1-5-1-5v-5l3-7s-1.22-5.31-1-6-3-8-3-8l-2-9-1-6-1-7v-5l-2-4-4-4-3-4,3-3,3-2,3-2-2-4-2-2,2-3,3-2,3-4-1-9v-13l2-5v-5l-1-3-5-4s-1.51-1.52-3-3-4-4-4-4l-3-3h-18l-5-5-7-2-5,2-4,3-2-2v-5l-1-3s-2.11-1.92-3-2-3,0-3,0l-6-1-3-1-5-3h-5l-2,5h-5s-1.53-1-3-2-3-2-3-2l-6,2-7,3-6,3-6,5-2,4-1,6v5l-4,8-5,6-3,13-9,14-5,7-1,4-1,5v4l-2,1-4-1-2-7-3-2v-6l2-5,1-4-1-6-3-4-3-2s-2.38-3-4-3a43.67,43.67,0,0,1-6-1l-4,4s-5.58,2.9-8,3a13.43,13.43,0,0,1-5-1l-6-3-3-3,2-2,1-1s.7-.33,0-2-3.33-3.56-4-5-6-5-6-5l-2-3-2,3s-.06,2.85,0,4,.09,4.08,1,5,2.29,3.37,2,4,0,4,0,4v4l-2-1-3-2s-2.64,2.28-4,2a17.83,17.83,0,0,0-4,0v-14l-1-17-1-6-1-5s-3.19-4.83-5-5a13.68,13.68,0,0,0-3,0l-4,3s-.71,5.51-2,7-3.95,6.57-5,8-4.06,5.68-6,7-6,3.24-7,4a28.82,28.82,0,0,1-5,2l-5-2-1,2-3,5-2,4-3,1-4-6-1-10-1-3-3,3-1,7-4,6-3,4v4l-3,8-1,2,5,1,4-3v-6l3-1,4,3,3,4-3,5-2,7-4,2-4,7v4l-6,2-5,8-1,6s-10.42,10.27-12,10-8,1-8,1l-13,20-6,8-2,6v7l-1,4s-2.77,2.88-4,4a4.41,4.41,0,0,1-3,1,66.35,66.35,0,0,1-7-2c-1.81-.79-8-5-8-5l-4-2-4,1-1,3-8-2-3,2-5,8-5,16-6,6-4,1h-6l-5,1-12,8-6,3-2,4-3,2h-8l-4-4-4-2-8,3s-3.6,1.17-6,2-5.91,1.05-8,2a14.7,14.7,0,0,1-5,1l-5,6-3,4s-.49,1.6-3,2-5.66-.4-7,0-3,1-3,1l-2,2-3,3-4,1h-11l-6,3-3,6,2,5-7,7s-4.45,3.95-4,5,0,5,0,5l1,7a20.56,20.56,0,0,0,0,4c.26.94-2,6-2,6s1.34,4.61,1,6-1,10-1,10-.27,3.22-1,3-6.82-1.64-10,0-4.17.77-5,2-3.61,2.53-5,4-3.7,2.56-4,4a27.83,27.83,0,0,0,0,5v4s.4,3-3,3a52.2,52.2,0,0,0-11,2c-1.13.42-3,1-3,1l1,8-7,9-7,3h-8l-6,2-7,6s-6,2.38-8,2-3.82.23-7-1a14.56,14.56,0,0,1-4-2v6l-2,7-8,7-5,2,1,4,3,4,5,3,4,4,2,4-4,6s-1.4,9.69-2,11-.61,8.21-1,9,2,6,2,6,2.15.74,2,2-1,7-1,7-1.38,1.26,0,2,9,3,9,3l8,3,4,4,1,4,5,3a7.18,7.18,0,0,0,2,3,8.55,8.55,0,0,0,5,1c1.56-.13,6,0,6,0l2,2,2,4,9,2,2-2,3,1s2.22,4.56,3,6,6,12,6,12,.19,5.48,0,7,4.36,9.77,5,12,2.06,6.06,4,6,5.59,1.65,8,0c1.62-1.08,3.29-2.09,5-3l5,2,1,8,6,8s6.07,2.64,7,2,5.92-.72,7-2a41.73,41.73,0,0,1,5-4l3-6s1-2.79,3-3,5.79-.21,8-1,6.63-.94,8-1,4.69-1.7,7-3,3.45-7.28,5-8,5.56-3.58,7-4,5-1,5-1l2,3v5l2,2,3-5,1-5,5,2h6l12-4,5-2,1,3,2,7a41.61,41.61,0,0,1,3,5c.28,1,2,8,2,8s-.9,3.23,2,3,8,0,8,0l4-7,11-13,4-7,4-4,1-5-2-4,5-5,4-4,4-3s4,.71,5,2,4,5,4,5a29.81,29.81,0,0,1,5,0c1.27.26,4,1,4,1l3,2,1,8,4,14s2.58,3.33,4,4,6,0,6,0l6-4,6-6,5-5,1-3,3,2,1,6,5,7,3,8a11.68,11.68,0,0,1,0,4c-.4,1.73-1,4-1,4l-8,4-7,7s-3.81,3.25-1,4a39.15,39.15,0,0,0,5,1,17.9,17.9,0,0,1,0,2c-.06.66-3,7-3,7s-1.9,1.48-2,3,0,9,0,9l7,4a6.5,6.5,0,0,1-2,3c-.85.62-9,2-9,2s-10.42,3.14-12,3-11.17-1.74-13-2-13,1-13,1l-11,1-9,3h-8l-7,5s-2,5-4,6-5.75,2.8-6,4,2,4,2,4,5.54,1.62,8,1,6.68-1.64,10-1,22,6,22,6l3-5s5.07-.17,6,0a23.71,23.71,0,0,1,4,2l1,4s5.62-.41,7-1,9-3,9-3,8,1.44,10,1-4.62-1.44,11-2,7,0,7,0l3,6s7.34,3,9,3,10,1,10,1h5l5,3,7,2,6-1s6.14-1.21,7-1a13.68,13.68,0,0,0,3,0v5l5,4,2,2-1,4,3,5s1.24.74,3,2a48.5,48.5,0,0,1,4,3,27,27,0,0,0,3,2l3,4-1,5-3,2-6,1-10,1-5,4s-3.44,2.51-5,4-3.68,1.36-5,5-4,2-4,2v4l3,3a48.1,48.1,0,0,0,7,0c2-.33,9-2,9-2s10,.18,13,0,12,1,12,1l4,1,1,5-1,8s2.05,2.11,3,3a8.56,8.56,0,0,0,5,2c2.31.22,6,1.66,8,2a32,32,0,0,1,7,2c1.35.72,2,3,2,3l2,9s-2.41,4.47-2,6-1,4-1,4l-7,2s-1.11,3.2,1,4a5.78,5.78,0,0,1,3,3l-2,6a29.81,29.81,0,0,1-3,4c-.92.78,0,1.1,1,2s9,4,9,4l6,2v3l-6,2-9,2-5,4s-2.58,1.7-2,3a20.55,20.55,0,0,1,1,4s-4.54.34-5,2a31.4,31.4,0,0,1-1,3s-2.25,3.37,1,3,8-1,8-1l6-3h5l6,1,8,4s5.72,1.81,6,3,3,4,3,4M422.12,167.28v5.35l-.39,4.57-1.89,4.37-.78,3.13,3.06,4.17,3.2,3.46L428,195l2,2.09-.72,9-1.89,9.45-2.09,2.94h-2.8l-1.17-.91-3.13.52-1.64.06L414.82,220l-1,3.19,1.5,3.33,2,1.89,7.95,2.41,1,1.7-.65,4.3-1,3.59-1.11,4.31.65,1.69h1.63l1-1.56,2.35-2,2.55.59,1.89,1.11.45,1.24v1.43l-5.87,6.4-1.82,1.69-1.76-.65-.62-2.61s.68-1.24,0-1.3-3-.07-3-.07l-1.44,1.17-2.34,1.37-1.31,2.61.39,3.65,1.37,2.61-.45,4.31L415,268.43l-1.69-1.5-1-1.63-2.81.59h-2.8L400.73,269v3.45l2.42,3.85,4,.52h2.74l.91,2.81v2.28a23.5,23.5,0,0,1-.59,2.74l-5.34,9.13-3.85,5.35-1.83,3.13,1.11,9.06.91,4.5.66,4.76,1.5,4.44,3.65,9.06,1.76,3.33.26,5.54-.59,9-1.11,3.66L420,378.65l10.17,10.27,10.66,12.13,4.11,1.77,2.45,4.2,1,5,2.44,3.72,3.23,2.74h20.64l3.91,7.24,3.92,6.16L484.6,435h4.8l5.18-4.3,1.76-1.18,2.06,1.08,1.85,3.52v4.3l-1,3.43-.4,1.56h14.29l2.83-1.27,2.74-.19,4.31.58,2.93,1.86,3.43,3a14.42,14.42,0,0,1,1.27,2.94v4c0,.29,3.23,2.15,3.23,2.15l2.64,2.06,11.15,3.13h10.76l3.82-1.47,6.45-1.37,2.64-2.25,4-1.47,6.85-4.2,1.47-3.13V443.9l-.59-4-.1-5.09.69-3.62,3.62-4.59,1.56-2.45,2.55-2.74.58-2.54,1.77-2,.78-3,.59-1.76.48-4.89,1.28-5.68,11-9.19V385.3l-1.07-4.8.39-3.9,3.12-4.89,3.82-3,1.47-7.82,9.49-7.34,1.27-3.23L620.78,343l1.27-2.94,4.3-.39,22.21-6.07,3.91-1.17,1.66-2.25.59-1.86V320l5.09-1.67,3.72,1.08,4.1,4.79,6.07,5,3.72-4.6v-3.62l-3.13-4.59-1.86-4.11-.39-3.82,1.46-2.64h5.58l4.3,1.37,3.23-.19,2.55-2.94,6.75-8.9V290l-2.84-3.91-9.29-7.34-4.31-14.09,2.35-7.23,2.44-4.6-.19-8.42-6.75-6.26-4.5-.58-3.13,1-.29,3.52s1.07,4.4,1.17,4.89,1.37,3.32,1.37,3.32l.19,4.11v3.33s-1.07.29-2,3.23a64.6,64.6,0,0,0-1.78,7.73l-2.72,3.22-4.11-.58-1.86-.2.69-5.18s.1-5.48.1-5.78-1.28-5.08-1.57-5.86a27.24,27.24,0,0,0-2.35-3.43l-1.17-6-.69-5.47-1.76-2.55-1.37-2.35L649,234s-2-.2-2.84-.2a17.32,17.32,0,0,0-2.15.2,5.05,5.05,0,0,1-1.47,0c-1.07-.1-1.07,0-1.66-.3a13.32,13.32,0,0,1-2.15-1.46,29.33,29.33,0,0,1-1.37-3.72,9.11,9.11,0,0,0-1.18-2c-.39-.29-2.93-1.86-2.93-1.86H622.83L616,223.11l-5.68-1-2.73-2.35-4-3.91-4.6-6.16-1.27-7.54-2.45-7.43-3.91-9.88-3.23-4.6-6.26-3.52-5.58-2.54-6.45-1.57-2.94-2-6-7.93-6.36-3.81-6-2.55L540.17,153l-5.58,1-3.81,2.73-2.16,2.45-2.44,1.37a23,23,0,0,0-2.55-1c-.29,0-5.18-.68-5.18-.68l-3.52-.69h-7.24l-8.81-1.27-6.75-3.23a11.57,11.57,0,0,0-1.37-2c-.39-.3-2.73-2.25-2.73-2.25l-1.86-.49a5.43,5.43,0,0,0-1.37.68c-.49.39-2.55,1.57-2.74,1.86s-2.06,3-2.55,3.23-13.89,4.11-13.89,4.11l-5.87-.1-5.87.19-3.22,3.14-2.94,3.52a10.25,10.25,0,0,1-1.76,1.76c-.29.1-4.3,0-4.79.1s-8.71.88-8.71.88l-4.6.29Z"/>
            <path id="形状_1" data-name="形状 1" class="cls-2"
                  d="M498.51,1950.5l8-1,4,3,9,4,11,5,11,2h8l8,2,2,2,6-3,3-8,2-9,1-10,9-2,10,4,30,14,11,5,6,10,5,10,12,8,12,4,6-4,1-8,2-9,7-2,4,3h4l4,1-3,5,3,2,7-1,7-4,7-2,10,1,9,7,5,2,5-2,4-10,2-7,2-11-4-2h-4l-14-6-10-11-2-4,10-13,5-8,9-14,5-6,7-3h9s7,7,7,8,8,0,8,0l8,1,4-8,3-9,6-9,3-5-5-8-5-9-2-5,3-6,3-5,1-5,1-7-5-6-1-5v-4l2-4,2-4v-2l-3-4-1-4a58.78,58.78,0,0,1,2-7,37.66,37.66,0,0,1,3-7c.85-1.33,3.47-1.22,3-4a63.13,63.13,0,0,1-1-8c.11-.87-3-2-3-2a11.14,11.14,0,0,1-2-2,7.66,7.66,0,0,0-3-2l-4,2s-2.37.11-3-1-1.49-3.32-2-4a60.39,60.39,0,0,0-5-4s-1.68-1.87-3-2-5-1.13-6,0-4.08,4.26-4,5a10.29,10.29,0,0,1-1,3l-2,1-5-2-5,2-1,1-3-3-2-3a25.32,25.32,0,0,0-4-2c-1.46-.45-4-5-4-5l-1-3-2,2-3,2h-2l-2-3a2,2,0,0,1,1-2c1.26-.89,2.32-2.17,2-3s-1-3-1-3l-1-2h-3l-2-2v-3l-2-1-2,1-2,1-1,2,1-6v-4l-2-2-3,3-2-2a5.66,5.66,0,0,1-3,0,10.76,10.76,0,0,0-4,0h-4l-3,1-2,2-4-1-2,3a1.21,1.21,0,0,1-1,1c-1,.27-4-2-4-2l-2-2a9.43,9.43,0,0,0-3,0c-1.39.28-2.09-1.54-3,0s-2,3-2,3l-1,2h-1v3l-2,2a8,8,0,0,1-4-2c-1.61-1.64-3-8-3-8l-2-2-4-5,1-2,4,1,2-2-1-4-2-1-2,1h-2l-2-2-2,3-1,2v-5l-2-1-5-4-6-2-3-1-1-3,1-4-1-1h-1l-4,2-3-1v-2l5-2,4-1,4-2,1-3h-4l-6,1-4,2-7,3-4,3-6,2-1,2-2,1h-3l-5,1-2,3,1,4,1,2,2,5-1,3-1,4s-6,5.14-7,5-8,5-8,5l-8,1-2,1-3,4s-.9,2.88-2,3-6.19-1.5-7-1-5,0-5,0-6.35,2.57-8,3-3.2-.11-4,1a31.1,31.1,0,0,0-2,4l-2,2-9,1s-6.5,2.66-9,3-5,1.56-7,2-6.65,1.79-8,3a12.73,12.73,0,0,1-4,2,19.1,19.1,0,0,1-5,3c-2.41.83-4,1.61-5,3a24.06,24.06,0,0,0-2,5l2,4v2a5.47,5.47,0,0,1-1,3c-1,1.45-1.29,3.2-2,4s-2,6-2,6l1,3,2,2s.76,2.56-1,3a20.3,20.3,0,0,0-3,1,26.51,26.51,0,0,0,2,3,46.85,46.85,0,0,0,3,4c.65.62,0,9,0,9v5l-2,5-2,6a27.58,27.58,0,0,0-1,7,15.64,15.64,0,0,0,2,7c1.13,1.68,1.83,3.81,4,6s6.8,5.2,7,6,5,4,5,4-.22.58,2,1,5.91.84,7,0,3.13-2.32,4-2a30,30,0,0,1,4,3s2.74,1.33,4,1,5,1,5,1l4,3s5.06,5.53,6,7,5,8,5,8,.28,5.32,0,6-2.57,5.86-3,6-10.78,5.68-12,7-3.85,3.74-6,4a27.83,27.83,0,0,1-5,0,34.7,34.7,0,0,1-2-4c-.6-1.62-3-10-3-10l-7-7-3-3s-1.62-2.25-3-2a33.64,33.64,0,0,0-5,2l-4,4,1,6s2.2,9.84,2,11-1,11-1,11,.58,7,1,8,1,9,1,9,1,6.44,0,7-2.81,3-4,4a41,41,0,0,0-4,5l-2,3a21.44,21.44,0,0,1,2,3c.5,1.08,2,4,2,4l2,3,3,1Z"/>
            <path id="形状_2" data-name="形状 2" class="cls-3"
                  d="M771.51,1894.5l3,6,4,4,5,4,6,4,1,3,2,2,2,2,2-4,3-4,5-2h3l3,2,5,3,4,2h5l3-1,3,1,3,2,4-2h6a7.22,7.22,0,0,1,3,0c1.11.38,1.5.38,2,2a9.63,9.63,0,0,1,0,4l-2,5a24.07,24.07,0,0,0-3,2c-1.2,1-4,3-4,3s-4.27,4-5,4-4.19,1.7-5,2a27.61,27.61,0,0,0-5,2c-1.81,1.07-3,8-3,8l2,2,6,2,7-1s3.89.54,6-1,4-3,4-3h7l1,3,1,7-2,6-1,4s.81,3,2,4,6,3,6,3l4-1,4-4v-8s-.11-2.53,0-5,1-11,1-11l1-6,4-2,5,1,5,2,4,2a23.89,23.89,0,0,0,1,4c.56,1.3,5,2,5,2l2-2-1-5,3-3v-4l-2-6,1-3s3-1.92,4-1,4.36,1.85,5,3a12.85,12.85,0,0,0,5,5c2.56,1.23,6,3,6,3l4,1,5-3,2-1,5,1,3,3,5-3,1-5,1-8s-1.09-2.77,1-4,13-7,13-7l8-2,8,1,6-2h7s3.15-.31,4,1,4,.61,6,2a13.16,13.16,0,0,1,4,4c1.24,1.77,7,8,7,8s2.76,2.08,3,3a1.27,1.27,0,0,0,1,1h6v-5l-1-4v-2h6s7,.38,8,0,5,0,5,0l5-1s3.39,2.38,4,3,3.23,2.46,4,2,2.85-3,4-3,4.85-1.92,6-2,4.39-.85,6,0,9,2,9,2l8,1h6s3.78,1.31,4,2,3,3,3,3l4,2,4-2,1-3v-4l-1-4-2-4,1-4-1-4v-7h-5l-5,2h-6l-3-2-1-4,1-3,2-4,4-2,1-2-5-3-4-6v-8a7.31,7.31,0,0,1,3-1c1.84-.22,7-1,7-1l2-5,3-5v-4l-2-2-7-1a28.71,28.71,0,0,0-4,2c-1.55,1-2.76.53-4,1s-4-2-4-2l1-4,3-2,13-2,8-2,9-3,5-3,2-5,1-11,2-9s-1-2.94,3-5a60.3,60.3,0,0,1,10-4c1.37-.36,6.63-3,10-4s6.87-4.87,8-8,8.18-8.18,8-9,3-4.1,3-5a12.09,12.09,0,0,1,3-5c1.21-1,7-5,7-5l7-5v-4l-7-1a23.84,23.84,0,0,0-6-1,11.59,11.59,0,0,0-9,3,42.24,42.24,0,0,1-8,6c-1.25.49-1.06,1.28-3,1s-4.29-2-6-3-1.44-4-1-5,.86-7,1-9a19.71,19.71,0,0,1,1-6,8,8,0,0,1,3-3s3.33,1,4,1,8,0,8,0l7-3s-.67-5.11,0-6,1.79-3.49,1-3-7.21.43-10,0a82,82,0,0,0-9-1,48.76,48.76,0,0,1-7-1l-4-1-4,2-4,3-3,2h-4a13.83,13.83,0,0,1-2-1c-1.09-.66-3-5-3-5l-2-1-1,1s-.06,1.89,0,3,0,4,0,4l-1,2-2-1v3l1,2-2,5a6.1,6.1,0,0,0-2,0c-1.09.18-.83-1-2-2a15.09,15.09,0,0,1-3-4,12.55,12.55,0,0,1,0-3l3-4s0-1.65,0-3,1.86-3.26,0-3a8.89,8.89,0,0,1-3,0h-2a22.46,22.46,0,0,0-1,3,19.92,19.92,0,0,1-1,3,9,9,0,0,1-3,2c-1.32.34-6,0-6,0s-2.3-1.65-4-1a9.73,9.73,0,0,0-3,2l-3,3s.24,2.2-2,1-5-6-5-6a12,12,0,0,0-2-4,60.15,60.15,0,0,1-4-6l-4,1s-1,1.43-3,0a10.05,10.05,0,0,1-3-4s-.31-.73-3,0-2.54,1.27-4,1-2.15-.57-4-1a31.23,31.23,0,0,1-5-2s-2.62-1.88-4-2a8.36,8.36,0,0,0-2,0s-1.16,2-2,2-2.39.27-3,0-2-1-2-1l-3,1h-3s1.07.35-2-1a28.71,28.71,0,0,1-4-2h-3l-1,1-4-3v-2h-5l-2,2-3,1-1,1-2-3v-4l-1-2-1-2a5.38,5.38,0,0,1-2-1,16.43,16.43,0,0,0-2-2,25,25,0,0,1-3-3s-2.09-3.35-3-3-1.17-.88-3,1-2.7,3.42-4,3-4-1-4-1l1-4h3l3-4,2-4-2-4a15.52,15.52,0,0,0,3-2h2a1.71,1.71,0,0,0,0-2c-.76-.88-3-3-3-3l-1-2,2-2,2-1v-4l1-2a10.1,10.1,0,0,0-1-2c-.76-1.26-2-3-2-3l1-2,3-3s2.37.26,2-1-1-3-1-3l-3-2-1-2-3-1-1-1,3-2s-1.09-1.12,1-1,4-2,4-2l2-1,3,3,1,1,1-2v-3l1-2,5-1,3-2-1-4-1-4-1-2,6-3,1-1s-5.85-1.36-8-1a12,12,0,0,1-5,0c-1.3-.33-2.55.72-4,1s-3.32.8-4,1-3-3-3-3,1.14-2.51,0-3a5.66,5.66,0,0,0-3,0l-3-1-1-3a14.29,14.29,0,0,1-3,1c-1.3.21-1.24,1.26-3,2s-3.86,3.18-5,3,.83.8-5,1-7.09,0-9,0a66.63,66.63,0,0,1-7-1l-4,2s-4.87,2.18-6,4-7.48,1.64-9,2-7,1-7,1l-11,1s-2-2.74-3-3-1.33-2-2-3a35.46,35.46,0,0,1-2-5,2,2,0,0,1-1-2,19.1,19.1,0,0,0,0-4v-2l-4-2-3-3s-3.26-.36-4-1-5-1-5-1l-8,2a7.35,7.35,0,0,0-4,0c-1.74.67-5,2-5,2a5,5,0,0,0-2,2c-1.2,1.74-2,3-2,3a3.6,3.6,0,0,1-2-1,31.62,31.62,0,0,1-1-5,4.36,4.36,0,0,0-1-4c-1.66-1.87-4-4-4-4s-1-2.59-2-3a2.8,2.8,0,0,0-3,0,18.12,18.12,0,0,0-3,3v3l-1,4-1,4-1,3-1,1s-3.58-.21-5-1-5-3-5-3l-2-1-3,2-2,2s-1,.87-2,2-2.58,3-4,3-6,0-6,0a7.16,7.16,0,0,0-4,0,23,23,0,0,1-4,1l-4,2v3a22,22,0,0,1,4,2c.81.74,3,3,3,3l-4,12s-3.35,3.11-4,4-3.81,1.88-5,3-6,3-6,3a54.59,54.59,0,0,0-6,0c-1.88.2-3.2-.74-3-2a17.27,17.27,0,0,0,0-6,79.81,79.81,0,0,1-1-8l-2-1s-3.74.64-5,2a47.36,47.36,0,0,1-7,5c-1,.51-8,5-8,5s-5.82,6.88-7,8a20.71,20.71,0,0,1-6,3c-1,.2-4,.57-4-1s1.72-2.74,1-4-1-6-1-6-1-3.35-2-3a29,29,0,0,0-4,3v15s.41,5.8,0,7a12.78,12.78,0,0,0,0,4l-3,1-3-2-5,2s-3.21,3.5-3,4,2,5,2,5l2,5,2,2a1.14,1.14,0,0,1,.46,1.55,1.11,1.11,0,0,1-.46.45,20.21,20.21,0,0,1-4,2,30.46,30.46,0,0,1-4,2c-1,.27-3-2-3-2s-1.29-2.12-3-2a30,30,0,0,1-6-1,11.12,11.12,0,0,1-4-1c-1.63-.88-4-2-4-2h-3s0,3-1,3-2.14,0-4,0-4.6-1-3-2,1.63-2,3-3a3.74,3.74,0,0,1,2-1s-2.76-.12-4-1a25.46,25.46,0,0,0-5-2l-4-2-3,4-2,5s-5,5.58-8,4a49.73,49.73,0,0,1-5-3s-.91-3.89-2-4-5,0-5,0l-1,4v2s.55,1.81-2,2a37.92,37.92,0,0,1-5,0v2a4.26,4.26,0,0,1-2,2,12.51,12.51,0,0,1-4,1l-4,3s-2.07-1-3,0-2,2-2,2l5,1,2-1,1-1a5.48,5.48,0,0,1,2,2,9.44,9.44,0,0,1,0,3v3l5,1,5,2,3,2,3,3,3-1,2,3,3-1h2l2,3v2s-2.91,3.35-4,3a3.25,3.25,0,0,0-2,0l4,5a10.78,10.78,0,0,1,2,3c.45,1.34,2,8,2,8s.24.43,2,0,3.7-2.57,4-3,0-3,0-3,3.32-3,4-3a28.53,28.53,0,0,0,4-1l4,3s3.55,1.2,4,1,3-2,3-2a12.17,12.17,0,0,0,3-1c.45-.43,8,0,8,0l5-2,5,1,3-1h2l1,4v4h4s1.56-1.42,2,0,1,4,1,4l3,1,2,2a20.56,20.56,0,0,1,0,4c-.25.8-1,3-1,3v3h4l5-3,1,3,1,3,3,2s3.49,1.28,4,2,3,5,3,5l3-1a5.28,5.28,0,0,0,3,0c1.43-.51,5,1,5,1s2.41,1.28,3,0,2-4,2-4l1-4a6.72,6.72,0,0,1,3-1c1.74-.13,4.34.13,5,0s4.26,1.74,5,3,2,3,2,3l3,3,2,2,5-1a1.74,1.74,0,0,1,2,0,8.68,8.68,0,0,1,2,3h3l2,3-1,4v5s.19,2.51-1,3-2.5.28-3,2-1,4-1,4l-2,2v7l4,4v3l-1,4-2,4-1,5s2.42,3.52,2,4,2,4,2,4l2,2v7l-2,7-5,6-1,5,3,5,1,3,5,6,2,5v5l-3,3-4,7-3,6v6l-3,4a2.27,2.27,0,0,1-2,2c-1.88.31-2.74-.77-6,0a48.36,48.36,0,0,1-7,1Z"/>
            <path id="形状_3" data-name="形状 3" class="cls-4"
                  d="M486.51,1791.5l2-1,1-1h2l-1-3a10.68,10.68,0,0,0-1-2c-.27-.22-2-2-2-2l2-4v-3l3-4,1-2s.36-2.55,0-3a14.93,14.93,0,0,1-1-2l-1-3,3-4,4-3,4-2,3-2,5-3c.35-.21,5-2,5-2l6-1,5-2h4l6-1,4-1,2-3,1-2,3-2,4-1,7-1h11l2-2,2-3,3-2,3-1h4l5-3,7-5,3-4,2-2a9.65,9.65,0,0,0,1-3c0-.9,0-3,0-3l-1-2a13.83,13.83,0,0,1-1-2c-.13-.54-1-3-1-3v-2l1-2a9.56,9.56,0,0,0,3-1c.78-.61,6-1,6-1l6-4,5-3,4-2,4-3,6-1,5-2,3,1,6-1,1-2a24.54,24.54,0,0,0,1-3c0-.45,0-2,0-2l2-1h2a20.87,20.87,0,0,0,2,3,9.61,9.61,0,0,1,2,3c0,.41,2.78-.45,3,0s4,0,4,0h3l1-1,2-3,2-3,2-3,1-1,7,2,3,2,1,1s-2.23,2.41-3,3a3.74,3.74,0,0,0-1,2l3,1h4l2-3h1l4,1,3,1,2,1h6l3,2,1,2h4l1-1,2-1,2-1,1-1v-1l-2-2-1-2s-1.39-1.64-1-2a.87.87,0,0,0,0-1l-1-4s-1.44-.26-1-1a16.77,16.77,0,0,0,1-3l3-2a7.44,7.44,0,0,0,2,0,16.7,16.7,0,0,1,3,0s-.25-.61,1,0,2.4,1.39,3,1a3.66,3.66,0,0,0,1-1l1-6-1-7s-.38-4.9,0-6,0-5,0-5l1-3,2-2h2l1,2v4l1,5-1,3h4l2-1,2-1,4-3,7-7,2-2,6-4,4-2,3-2,4-1s2.17,0,2,1,1.39,2.51,1,3a19.38,19.38,0,0,0-1,5c.09.44-.22,4.22,0,5a10.68,10.68,0,0,0,1,2l4,1h3l4-2,5-2,4-2,2-3,3-5,1-4,1-3s.69-1.55,0-2-2.71-2.24-3-2a17.76,17.76,0,0,1-2,1,6.36,6.36,0,0,0-2-2,1.44,1.44,0,0,1-1-1c-.37-.49,1-2,1-2l3-2,2-1a15,15,0,0,0,3,0c1.44-.18,3.48-1.3,5-1a16.73,16.73,0,0,0,4,0h3s2.23-3.48,3-4,4-3,4-3l1-2s3.51.52,4,1a34.74,34.74,0,0,0,3,2l2,1,4,1,2-2a1.86,1.86,0,0,0,1-2,27.83,27.83,0,0,1,0-5l1-4,1-2,2-2s1.78-.66,3-1a4,4,0,0,0,2-2l2-1-1-2-1-1s-1.48-1.71-1-2,0-2,0-2l-1-2s-2.88-2-2-2,2-2,2-2l3-2v-2l-1-2-3-1-1,1-1,1s-2,.31-2,0a3.18,3.18,0,0,0-1-1v-4l-3-1-2-1h-3l-1-3,1-2,1-1a2.49,2.49,0,0,0-2-1c-1.49-.12-2-3-2-3l2-1a.94.94,0,0,0,.86,1h.14c1.1.07,5,1,5,1l2-1,3-1s1.31,0,2,0a11.59,11.59,0,0,0,3,0c.55-.23,2.84-1.25,3-1a1.57,1.57,0,0,0,2,0c.76-.66.81-.69,3-1s4.29-1.3,5-1,5.43-.3,6,0,4.71-.17,7,0,7,0,7,0,4.29.35,5,0a32.94,32.94,0,0,1,4-1h3l2-2-2-2a2.14,2.14,0,0,1-1-2,26.7,26.7,0,0,0,0-4v-4l1-4v-1l-2-1-1-1,1-2s2.73-1.86,3-2a27.05,27.05,0,0,1,3-1c1.18-.32-1,.45,2,0s5-4,5-4,2.71-3.17,3-3a29.66,29.66,0,0,0,4,0l3,1a17.76,17.76,0,0,0,2-1c1.06-.61,4-3,4-3l2-2h3s2.74-.09,3,0,2.17,1.08,2,0-1-1.62,0-2,3-1,3-1l2-1a5.48,5.48,0,0,0,2-2l-1-1v-2l-1-2v-1a9.48,9.48,0,0,0,2-2c.25-.63,0-1.29,2-2s1.32.53,2-1a16.77,16.77,0,0,0,1-3v-3l3-5s1.85-1.66,2-3-1-4-1-4v-2a4.14,4.14,0,0,1,2-2,10.85,10.85,0,0,0,3-2v-1l-2-2-1-2-1-2-4-3s-1.25-3.61-2-4a10.24,10.24,0,0,1-2-2s-3.78-.92-4-2a7.45,7.45,0,0,0-2-3c-.57-.56-1.61-.14-2-1s-1-2-1-2l1-5v-3l-4-1h-8s.33-1.29-1,0-1.89.89-2,2,0,2,0,3l-1,1h-1s-.5-1.89-1-2-4,0-4,0l-1,1a8.06,8.06,0,0,1-3-1,10.24,10.24,0,0,1-2-2s.57-2.94,1-3,1.31-1.47,1-2-1.3-2.73-1-3,1.1-2.17,2-2a29.66,29.66,0,0,0,4,0l2-1v-2l-3-2h-5a13.83,13.83,0,0,1-1,2c-.27.3-1.91.83-2,2s.48,2.1,0,3,0,3,0,3l-2,1a.94.94,0,0,1-.9,1h-.1c-1-.06-4-3-4-3l-2-2h-3l-1,3-3,3-6,1-2,2s-3.65-.37-4,0a24.1,24.1,0,0,0-2,4c-.18.67-2.92,3.16-5,4s-6.06,2.82-7,3-2.76-.13-4,1-3.38,3-4,3-3,1.3-4-1a12,12,0,0,0-3-4c-.4-.38,1.09-1.1-2-1a26,26,0,0,0-6,1l-3-1,4-3,1-1a20.72,20.72,0,0,1-1-2,9.72,9.72,0,0,0-2-2,5.69,5.69,0,0,1-3-1c-1.49-1-3-2-3-2a3.74,3.74,0,0,1-1-2,10.71,10.71,0,0,0-1-3l-5,2v4a11.91,11.91,0,0,1-2-3,2.69,2.69,0,0,0-1-2,21.94,21.94,0,0,1-2-1c-1.62-1-.81.07-2-1a23.59,23.59,0,0,1-2-2c-.61-.65-1-1-1-1s0,.44-1,0a2.76,2.76,0,0,0-2,0l-1-2,2-2s.13.11,0-1-.13-3-1-3-1.4-1-2-1a22,22,0,0,1-5-2c-.33-.31-1-1-1-1v-1l1-3-2-2a1.66,1.66,0,0,1-2-1c-.74-1.45-2-5-2-5s2.37-.35,0-1a17,17,0,0,1-3-1l-1-1v-2s1-2.41,2-3a7.32,7.32,0,0,0,2-2s1.74-.89,0-1-4,0-4,0-1.69-.37-2,0-.59,1.27-1,2a21.11,21.11,0,0,0-1,3s-2.81.27-3-1a3.54,3.54,0,0,0-1-2l-3-2h-1l-2,1-2-1v-8l1-3v-3l-1-2h-3l-1-1,1-3,1-2,3-2,1-1,3-2s-.07.69,1,0a8.83,8.83,0,0,0,2-2l-1-1-3-6s-.8-2.51-2-3a56.52,56.52,0,0,1-5-3,4.86,4.86,0,0,0-1-3c-1-1.11-4-2-4-2l-1,4s.49,1.49-1,1-3.2-.25-4-1-2.83-.57-3-2a16.7,16.7,0,0,1,0-3s1.43-1.79,0-2a11.9,11.9,0,0,1-3-1l-2-2v-3l1-2-1-5v-2s-3.39-.82-7-2-10-3-10-3a15.75,15.75,0,0,0-4,0c-2.85.25-5.68-.25-6,0s-6,0-6,0-.65,1.33-3,0-5.55-3.1-6-3-7.2-.36-8-1-3.26-1.52-4-1a12.18,12.18,0,0,1-3,2c-1.21.41-4,6-4,6s1.3,3.66,0,4-.91.71-3,1-8.77,2-10,2-9.11.72-11,1-2.69,1.83-3,2-.32,1.31,0,2,2.52,2.11,3,4,3.79,5.38,3,6-.37,1.8-2,2-8,2-8,2-3.72-.72-6,0-7,2-7,2-2.68,2.82-3,4-2.84,5.73-3,7a25.91,25.91,0,0,0,1,7c.42.73,6,4,6,4s2.86-1.15,4,0,2.29.76,4,3,2.29,7.56,2,9-.49,6.26,0,7a45,45,0,0,1,2,8c.07,1.09-1,9-1,9l2,7v5s-1.81.84-2,0-.5-1.27-2-2-3.19-2.75-4-3a17.6,17.6,0,0,1-3-2,13.51,13.51,0,0,1-2-2c-.22-.5-2.64-3.86-6-1a84.07,84.07,0,0,0-7,7s-5.5,3.9-7,5-12.49,9.08-17,11-4.08,4.45-8,5-7.15,3.51-9,4-4.27,3.42-7,4-11.65,1.52-12,2-2.93,2.8-4,4-.56,3.75-2,5a38.72,38.72,0,0,0-5,5c-1.17,1.6-2.89,4.41-4,6s.32,4.15,0,5-.79,3.48,0,5,1.59,3.48,3,4a9.63,9.63,0,0,0,4,0,17,17,0,0,1,3-1c1.66-.38,3.19.11,4-1s.78-.73,3-1,1.68-.52,4,0,5,1,5,1l-7,3s-5.24,6-7,7-3.61,1.19-3,3a8.7,8.7,0,0,0,3,4c1.08.8,5,0,5,0s1.35-.22,1,1-1.44,5.26-2,6-8,12-8,12-1.71,2.65-3,3-4.77.81-5,2-1.14,2.82-1,5-.14,7.2,0,8,.23,3.11-1,4-3,1.42-4,1-2.63-1.89-3-1-2.74,2.85-4,4-2.85,5.65-3,6-2.07,2.23-3,2-2.23-.92-3,1-3.4,4.83-5,7-1.52,5.26-4,6-2.52.16-4,1-4.69,2.53-6,2a27.21,27.21,0,0,0-4-1v-5a6.16,6.16,0,0,0-2-2,7.75,7.75,0,0,0-4-1c-1.87.12-8.1-.28-9,0s-3.06.3-6,1-6.91,2.15-8,3-3.34,2.74-3,4,1,5.54,2,6,2.57,3,4,3,2.95-1.35,4-1,1.95-.73,3-2,1.22-.73,2-1,1.64.85,2,1,1.49,4.34,1,5,.12,5.35,1,6,7,8,7,8,6.3,5.17,6,6,1,2.55,2,5,3.58,6.46,3,8-.64,4.63-1,6-3.65,5-5,6a97.4,97.4,0,0,0-8,8c-1.86,2.19-3.73,3.82-5,6s-.83,4.2-2,5-2.79,2-3,3-1.63-.31-1,3-.47,9.75,0,10-.85,2.44-2,3-3.71.81-7,1a40.47,40.47,0,0,0-18,5c-7.83,4.33-8.38,4.21-10,6s-4.08,4.42-6,5-3.46,1.64-6,3-11.06,6.65-12,7a23.52,23.52,0,0,0-5,3c-1.29,1.13-1.91,4.57-2,6s-1.71,3.1-2,4-3.25,6.64-5,7-7.31,3.38-8,4-2.53,3.4-5,5-3.6,5.78-5,7-3.4,5-5,6-6.72,5.38-7,7,1,4,1,4,3.87,2,5,2a10.63,10.63,0,0,1,4,1c1.23.61,6.16,1.34,7,2s2.69.66,5,2,5.17,4.83,5,6,2.28,7.69,2,9-.51,7,0,8,4,9,4,9a8.91,8.91,0,0,1,2,4,9,9,0,0,0,2,4s1.94,2.16,4,2,5.32.79,7,0,7,1,7,1l2,3s5,4.71,6,5,6.16,1.34,8,2,6.59.45,8,0a21.42,21.42,0,0,1,5-1c2.4-.24,5,.39,6,0S486.51,1791.5,486.51,1791.5Z"/>
            <path id="形状_4" data-name="形状 4" class="cls-5"
                  d="M967.51,1684.5v1l1,2h2l1-1,2-2,2-1h2l2,1,1,1,1,3,2,1,2,2,3,2,1,1v3a7.44,7.44,0,0,0,0,2,3.23,3.23,0,0,0,1,2l1,1s1.56.64,2,0a18.88,18.88,0,0,1,2-2l2-1h4s2.37.59,2,1,0,2,0,2a7,7,0,0,1,2,1c.26.39,3,0,3,0h2l2,1,5,2s2.22-.82,3-1a6.7,6.7,0,0,1,2,0s2.8.51,3,1,1.18,0,2,0,1.74-.11,2-1a9.84,9.84,0,0,1,1-2l2,1,4,2,3,1s1,2.24,2,2,2.82-1.17,3-1a46.33,46.33,0,0,0,5,0,4.18,4.18,0,0,0,1,0c.39-.07,3,2,3,2s-1.81.85,0,1a17.12,17.12,0,0,1,4,1h4a14.54,14.54,0,0,0,2,2c.28,0,0,1.36,1,2a7.25,7.25,0,0,1,2,3,17.76,17.76,0,0,0,1,2l1,3,3,2,2,1,2-1s.47-1.93,1-2a18.43,18.43,0,0,0,3-2l1-1h4l5,1,3-1,2-2v-2l1-3s1.21,0,2,0a13.56,13.56,0,0,1,3,1v5l-2,2-1,3v1a9.12,9.12,0,0,0,1,2,31.91,31.91,0,0,1,2,3l1,1h3l2-2-1-4v-2l1-1h2v-8l1-1,2,1s2.17,1.52,2,2,1,3,1,3a2.76,2.76,0,0,1,2,0,10.68,10.68,0,0,0,2,1c.56.18,2-1,2-1l4-1,3-2,2-2h8l9,2s11.21.12,12,0,7.15,1.07,10,0,12-2.78,13-3,12-2,12-2,5.5-1.48,6-2,5.74-3,7-3,14.89-4.39,15-4,9.47.89,11,1a17,17,0,0,1,5,1c1.07.54,8,3,8,3l6-2s1.53-9.84,2-11,.7-7.56,1-8,1-7,1-7,1.23-2.68,2-2,3.06,3.53,4,3a19.79,19.79,0,0,0,3-3l6-6s3.88-2.53,4-3a27.44,27.44,0,0,1,2-3s1.13-1.63,1-2-.67-1.13-1-2-3.91-9.1-6-10-6.51-5.13-8-6-3.86-2.5-5-3-4.65-1.59-6-2-5.87-2.28-6-2-3,0-3,0l-3,2s-1.72.62-3,1-3.71-1.07-5-1a10,10,0,0,1-4-1,8.19,8.19,0,0,0-4-1,12.54,12.54,0,0,1-3,0c-1.75-.08-5.56.08-7,0s-6.8-.46-8-2-9.63-4.69-10-5-2.64-2.14-3-2-2.51-1.42-4-1-3.73-.33-5,1-8.62,7-9,8-.75,2.88-2,3a23.22,23.22,0,0,1-5,0c-1.74-.23-1.84-.81-4-1s-4.62-1.3-5-2-2-.32-2-2,.41-5,0-6,.65-15.87,0-17-1-8-1-8a12.27,12.27,0,0,0-2-3c-.75-.51-2.83-3-4-3s-1.93.14-4,0-7.58.38-9,0-5.17.38-7,0-4-.78-5-1a5.88,5.88,0,0,1-2-1s-1.44-1.32-1-2a15.75,15.75,0,0,1,2-2v-2s-1.37-2.88-2-3-7.13-6.23-8-7a16.85,16.85,0,0,0-3-2,21.54,21.54,0,0,0-3,1,10.24,10.24,0,0,1-2,2,2.89,2.89,0,0,0-2,1c-.66.82.33,1.51-1,2s-.28.83-2,0a15,15,0,0,1-4-3c-.46-.57-2.1-.44-2-2s1.15-1.58,2-3l3-5s.57-3.19,1-5,1-10,1-10a2.53,2.53,0,0,1-1-1c-.4-.72-3.66-1-4-1s-1.72,1.24-3,1-2.63.12-5,0-3.6.12-4,0-.4.12-1,0-2,1-2,1-.18,2.35-1,3-.55,2.27-2,2-1.24-.18-2-1-1.6-.55-1-2,2-1.6,1-2-3-1-3-1l1-4s-.28-1.79,0-2a13.55,13.55,0,0,1,3-3,11.41,11.41,0,0,0,3-3s1.27-1.55,1-2-.66-2.33-1-3-1.75-2.34-2-3-2-4.57-3-5-1.26-1.42-2-2-1-6-1-6l2-2s.58-3.24-1-4-2.63-1.12-3-1-2.17.09-3,1-1.79,1.57-4,1-2.93-1.55-4-1-2.18.58-3,2a15.3,15.3,0,0,0-2,5c-.13,1.43-.91,5.07-1,6s-2.21,4.75-3,6-3.84,5.7-5,7a54.13,54.13,0,0,0-5,8c-.58,1.42-2.8,2.64-3,4s-1,2.82-1,4,1.8,2.41,1,4-5.47,4.23-6,5-4.31,4.24-6,4-2.34-1.43-5,0-8,4-8,4-2.74,4.33-3,5-1,5-1,5a3.6,3.6,0,0,1-1,2c-.77.59-3.77,3.5-4,3s-7,0-7,0-2.15-.93-3,0-2.85,3.36-4,4-3,2-5,3a52.62,52.62,0,0,1-5,2s-.58-.08-1,1-.42,3.57,0,4a3.92,3.92,0,0,0,2,1,6.34,6.34,0,0,0,3,0c.67-.22,4-1,4-1l3-1h3a4,4,0,0,1,3,0c2,.59,4,1,4,1l1,2s-3.2,3-4,3-2.37-.23-2,1,2,5,2,5l1,2v2s-1.25.58-2,1-.29.26-1,1-.31,1.14-2,1-1.8-.69-3,0-2.32,1.4-2,2,1.56,1,1,2-1,2-1,2l-1,1-1-1-3-1-1-1-2,1-1,1-2,1-3,1a2.91,2.91,0,0,0,1,2,11.39,11.39,0,0,0,3,1l1,2,2,1h1v4a13.83,13.83,0,0,1-1,2c-.08-.09-3,2-3,2v4l2,2a4.81,4.81,0,0,1,0,2c-.27.3-1,1-1,1a2.57,2.57,0,0,1,0,2,2.66,2.66,0,0,0,0,2s1.18,1.09,0,1-1.39-.39-2,0a19.63,19.63,0,0,1-2,1l1,4s2.18.52,2,1a1.7,1.7,0,0,0,0,1s.78,1.54,0,2-.71.34-2,1-2,1-2,1l1,2v3s.52.78,0,1-3.21,1.75-3,2a2.76,2.76,0,0,1,0,2,14.54,14.54,0,0,1-2,2s-.31-.39-2,0a1.39,1.39,0,0,0-1.13,1.61A1.79,1.79,0,0,0,967.51,1684.5Z"/>
            <path id="形状_5" data-name="形状 5" class="cls-1"
                  d="M855.51,1595.5l2,1,1-3,2-3,3-1h5a8.44,8.44,0,0,1,3-1c1.39-.09,4.61.45,5,0a3.94,3.94,0,0,1,3-1l6,2,4,3h1l3,2a21.45,21.45,0,0,0,0,3c.14.26,0,5,0,5l4,6s-.6,1.35,0,2,2,2,2,2,1.94,1.17,3,1,4.44.17,5,0a46.33,46.33,0,0,1,5,0l7-2s3.91-1.28,4-1,3,0,3,0l4-2,3-2,6-2s3.09,0,5,0,10,0,10,0l4-1,3-1,2-2,5-2,2,1,2,1a4,4,0,0,1,2,0c.44.33,4,0,4,0l4-1,3-1,4-3,3-4,2-1a23.83,23.83,0,0,0,5,1c1.66,0,4,0,4,0l3-2,3-3v-3l1-4a36.59,36.59,0,0,0,4-3c1.71-1.53,1.86-3,3-3s5.15-.92,6-1a26.78,26.78,0,0,0,6-2c.55-.5,5-3,5-3l3-5,1-1-1-3s.46-4.38,1-5,4-4,4-4l3-5s2.27-5.57,3-6,2.23-3.44,3-4,2-4,2-4l1-5v-3l2-3,1-1h8l3-1,2-2,2-1s5.77-5.89,6-7,4.43-8.15,5-9,4.69-5.57,5-6,3.32-2.23,4-2,2-.11,3,0,3,1,5,1,3-3,3-3l7-13,5-12s-.92-4.34-1-5a28.71,28.71,0,0,0-2-4l-3-2-4-3s-.06-3.23,0-4,1.15-2,2-4,6.84-11.2,7-12,3-6,3-6,2.22-5.06,2-6,.29-12.56-1-15-2.47-7-2-8-.35-5.9,0-6,.08-6.38-1-7-2.31-3.06-4-5-5.57-4.6-6-6-2-2.47-2-4-.18-4,1-6-.1-2,4-4,8.07-6.45,9-7a20.75,20.75,0,0,0,3-3s-1.38-2.56-1-4-.87-4.56,0-5a6.33,6.33,0,0,0,3-3c.78-1.69,2.67-7,3-8a33.86,33.86,0,0,0,1-6c.06-1.53-1-6.7,0-8s4.48-3.48,5-5a30.52,30.52,0,0,1,3-5c.8-1.25.65-1.65,2-4a21.33,21.33,0,0,1,3-4s3.1-.8,4,0,2.85.59,4,1a12.78,12.78,0,0,0,4,0s1-2.1,2-2,2-.71,5,0,6.55,1.84,8,2,7-4,7-4,2.14-3.06,2-4,.32-3.42,1-4,3-3,3-3q-.08-1.5,0-3c.11-.53,1-1.41,1-2s2-2,2-2h3l2-2,2-3v-1l-1-1s-2.87,1.12-4,1-3.35,2.06-4,2a33.36,33.36,0,0,0-4,0c-3,.07-8.11.42-11,0s-4-2.91-5-3-3.07-2.51-4-3-3-4-3-4-2.61-.3-3,1-3,2-3,2l-2-1s.61-2.53,0-3-.65-2.88,0-4,4.25-1.66,5-2,1.61,1.07,3,0,3.27-2.39,3-3,.39-.89,0-3-.88-2.37-1-4a18.33,18.33,0,0,0-3-7,45.87,45.87,0,0,1-4-5c-.53-1-1.65-1.93-2-3s.35-1.41,0-3,.11-4.28,0-5a3,3,0,0,0-2-2c-1.14-.42-1.76-1.88-4-2s-8.17-6-10-7-4.35-4.32-6-6-4.4-4.61-6-6-6.08-3.88-7-5-3.14-5.47-5-7-4.8-4.89-6-6a30,30,0,0,0-4-3c-.72-.42-.67-2-1-4s1.72-3.87,1-5-1.09-2.26-2-2-2.9,1.43-3,2-2,2-2,2-2.69-.57-3-1a8.44,8.44,0,0,0-2-2c-1.59-1.34-3-3.14-4-4s-3.12-7.43-4-9-1.3-3.15-2-4a26.41,26.41,0,0,1-3-5c-.25-1-1.33-2.32-2-2s-4-1-4-1-2.35.86-2,0,0-4,0-4l-2-1s-3.13,1.08-3,2-.43,4.59-1,5,.45,3.76,0,5,0,1.36,1,3,3.07,3.44,5,6,5.46,10.57,6,13,2.25,16.63,2,21,.49,7.68,0,9,.19,2.62-1,3-.93,2-3,1a10.47,10.47,0,0,1-4-3,36.23,36.23,0,0,0-4-5c-.75-.51-3.91-5.72-5-7s-3.81-5.14-5-6-4.43-5.68-9-4-11.17,5.59-13,6-6,2.25-9,2-6,1.16-9-1-3.29-3.4-6-6-4.19-5.28-6-6a21.73,21.73,0,0,0-8-2c-4.25-.3-6.1-.3-9-2s-3.7-1.44-5-4a10.12,10.12,0,0,1-1-6c.19-.93,1.21-3,1-4s-.76-3.49-2-3-6.26.18-8-1-2.86-9.35-4-12-2.49-13.92-4-18-2.55-7.25-3-9-1-5-1-5a9,9,0,0,0-3-2,47.39,47.39,0,0,0-12-1c-5.21.3-11,.73-12,1s0,3,0,3,1.82,1.15,2,2,1.94,6.11,1,7a26.46,26.46,0,0,1-5,4c-1.77.9-5,1.4-6,2s-5.31,2.54-4,6,5.1,7.2,6,8,5.16,4.22,6,5,2.06.79,2,2,1.21,7.93,1,9-1,2.14,0,3,2.21.83,3,2,1.69,2.41,1,3a17.41,17.41,0,0,1-4,2c-1.43.54-2.39,4.54-3,6a36.11,36.11,0,0,0-2,6c-.19,1.4,1.35,3.68-1,4s-5.58,1.74-7,2-6.34,4-6,7a17.22,17.22,0,0,0,2,6c.64,1.46,1.72,2.78,1,4s-1.46,2.89-2,4a2.2,2.2,0,0,0,0,2s1,3.19,2,4,7.86,6,8,7,3,3,3,3,3.76,1.6,5,1,4.39-.19,5-1,0-.88,1-2-.22-2.21,0-3a4.06,4.06,0,0,1,2-2c.77-.37.14-.42,1-1s1-3,1-3l1-2,1-2s2.43.31,3,1,1.61,4.09,2,5,.76,3.82,1,4,3.93,2,5,2,5.47.18,6,1,3.29-.65,3,1-1.35,3.2-1,4,1.53,1.13,1,2,1.14-.81-2,3-3.28,5.09-4,7-1.89,3.66-1,4a15.75,15.75,0,0,0,4,0,9.12,9.12,0,0,1,2,1c.47.43,1.65,1.75,1,2s-3.35.41-2,1,5,0,5,0,3.88-.22,4,0,2.55,5.71,2,6-1.4,3.1,0,2a16.69,16.69,0,0,0,3-4s0-1.5,1-1,2.23,1.07,2,2a12.55,12.55,0,0,0,0,3c0,.36.41,3.46,1,3s3.17-.15,4,0,2.8,1.79,4,2,2.43,2.51,2,3-.3,3,0,3a2.66,2.66,0,0,1,1,2c.15,1.07,1.67,7.1,0,7s-2.38-.08-3,1-2.35,1.09-3,2-6,.49-8,1-4.72.33-5,2,.22,1.9-1,3-2.65,2.78-4,4a8.3,8.3,0,0,0-3,4c-.89,2.32-.32,7.49,0,8s-.8,2.45-2,3-3.34,1.93-3,3a30.78,30.78,0,0,1,1,4c.07.71,1.26,4.14,2,4a5.18,5.18,0,0,1,2,0c.81.11.71.19,1,1a8,8,0,0,1,0,3,3.29,3.29,0,0,0,1,3c1.11,1.12,2.35,2.21,1,3s-3.38,1.27-4,2-2.16,2.48-2,3,.81,1.17,0,2-2.28,2.63-3,1a3.49,3.49,0,0,0-2-2s-2,.29-2,1-2.36,2.92-3,4-4.75,4.49-5,6-4,6-4,6-.59,5.32,0,8,2.32,15.29,2,17,.32,4.29,0,5,1.35,1.77,1,3,.22,4.22,2,4,3.73-.33,5-1,4,0,4,0,1.15,0,0,1a20.33,20.33,0,0,1-3,2s-1.3.45-3,1-3.75,1.27-4,2,.13,3.86,0,6,0,6,0,6,.83.11,1,2,.44,2.29,0,3-1.38,2-2,3a6.06,6.06,0,0,0-1,3c0,.9-1.83,3.88-2,5a35.16,35.16,0,0,1-3,7c-1.18,2.13-3.91,2.89-4,5s-2,3-2,5a21.45,21.45,0,0,1,0,3,6.2,6.2,0,0,0,2,5,9.72,9.72,0,0,1,2,2c1.31,1.55.93,3.9,3,4s3.14,4.8,4,5,4.58,2,6,4,1.25,2.46,1,4,1.7,2,1,3-3.9,2.6-4,3-.5,2.32,0,3a5.88,5.88,0,0,1,1,2c.48,1.23.32-.81-1,3s-2,3.4-3,5-2,6-2,6-1.49,2.39-2,3-4.09,2.23-4,3-.7,2.86,0,4,2.51,2,1,3a20.21,20.21,0,0,1-4,2,3.6,3.6,0,0,0-2,2c-.49.94.53,1.21-2,1s-.59.09-3,0-3,.12-4,1-2.61,1.18-3,2,.44,1.56-2,2c-5.65,1-10.14-.83-11,1s-3.25,5.8-4,6-2.58-1.17-5,0-3.79,2.53-5,3-.61,2.13,0,3,3.42-.21,3,1-2,5.51-2,7,0,5,0,6a5.63,5.63,0,0,0,1,3c.67,1.14,2,3,1,3s-27.83.62-31,1-3.79.41-7,1-8.32,2-11,2-3.46,1.49-5,1a27.58,27.58,0,0,0-7-1c-1.21.17-1.45-.6-2,1s.24,4.1,1,4,1.79-1,2,0-.76,2.45-1,3-1.82,2.66,0,3,3.27-.46,4,0a20.55,20.55,0,0,0,4,1v4s2.23,1.32,3,1,2-1,2-1l3,1s1.86,2.07,1,3-4,3.31-4,4-.47,2.28,0,3,2,1.33,2,2,0,3,0,3l2,3s-2,.47-2,2,0,5.46,1,5c.43-.21,2.7,1.28,3,2s.73,3.64,1,4a8,8,0,0,1,1,3,25,25,0,0,0,0,3l1,2Z"/>
            <path id="形状_6" data-name="形状 6" class="cls-4"
                  d="M1069.51,1515.5l4,2,1,3a16.22,16.22,0,0,0-1,2c-.37,1-1,3-1,3a34.39,34.39,0,0,0,1,4,9,9,0,0,0,2,3c.86.82.71,1.63,2,3s3.26,4.27,3,5,1.17,4.8-1,6-2.6,1.09-4,3,1.4,1.34,0,3-.28,1.21-1,2-.89.08,0,1,2.46,1.14,2,2a20.7,20.7,0,0,0-1,3,2.57,2.57,0,0,0,2,2,2.42,2.42,0,0,0,3-1.75,1,1,0,0,0,0-.25c-.1-.85,1.67-1.76,2-3a4,4,0,0,1,2-2s3.21,1.24,4,1,3.66.24,4,0,5-1,5-1l4,2a6.13,6.13,0,0,1,0,5c-1.22,2.48-2,8-2,8s-.41,4.37-2,5-3,5-3,5a24.07,24.07,0,0,0,2,3,23.59,23.59,0,0,1,2,2h3l2-1,3-3,3-1h3l3,3,6,5s2.12.86,2,2a19.92,19.92,0,0,1-1,3c-.09.57-.78,2-1,3s2,2,2,2l3,1s6-.22,8,0,7.47-.22,9,0a22.27,22.27,0,0,0,4,0s4.07.87,5,2,4.32,5.76,4,7-.16,22,0,24a26.7,26.7,0,0,1,0,4l2,3a13.91,13.91,0,0,0,3,1,57.75,57.75,0,0,1,6,1,6.66,6.66,0,0,0,4,0c.84-.42,3.77-.83,4-2s2.28-5,4-6,3.59-2.59,5-3,5-1,5-1a8.52,8.52,0,0,1,4,2c2.26,1.82,11.13,5.33,13,6s4.38,2.2,7,2,6.37.2,7,0a15,15,0,0,1,3,0s5.22-.23,7,1,2.18.94,4,1,5.72-1.64,7-2a9.85,9.85,0,0,0,3-2l-2-4a32.48,32.48,0,0,0,1-4c.09-1,3-2,3-2l1-2-1-3-3-2a9.55,9.55,0,0,1-2,0,11.83,11.83,0,0,0-4,1l-4-1s-2.58-3-4-3a31.62,31.62,0,0,1-5-1v-3l-1-4s-.86-1.33,0-2,4.68-.84,6-1a16.51,16.51,0,0,0,3-1c1.07-.29,2.24-.58,4-1s7.3-2.29,8-2a17.83,17.83,0,0,0,4,0v-4l-3-3-5-5s-4-7.29-4-8-2-4-2-4l-1-4s-2-6.42-2-7-3-5-3-5-1-2.89,0-4a33.78,33.78,0,0,0,3-5s1.83-.56,3-1,4.08-.14,4,1a7.26,7.26,0,0,0,1,3s3.59-.79,4-1,.62-1.21,1-2,.75-3.33,0-4-2.73-3.45-4-4-3-7-3-7-1-5.36-1-6a26.1,26.1,0,0,1,0-5c.3-1.78-.73-5.22,1-6a18.69,18.69,0,0,0,4-3l2-3s-.09-2.17,0-3a5.31,5.31,0,0,0-1-3,5.59,5.59,0,0,1-1-4c.57-2,1.24-4,2-6a19.87,19.87,0,0,1-2-2,25.76,25.76,0,0,0-3-3c-.73-.6,0-4,0-4l2-3s.85-4.73,1-7-1.34-5.42-1-7a10.32,10.32,0,0,0,0-5c-.47-1.1-.4-4.38-1-5a6.26,6.26,0,0,1-1-2l-6-2s-4.41-4.17-7-5-3.14-1.68-4-4-3-25-3-25,2.5-3.92,2-5-3-9-3-9l-3-2s-3.48-5.44-4-6-.41-4.11-2-5-4.37-2.58-5-4-1.37-5.09-1-6,2.88-5.11,3-6,3.36-6,4-7,2.61-3.29,3-4,3.37-1.51,6-2,5.88-.86,7-1,4-2,4-2a3.37,3.37,0,0,0,0-3c-.78-1.6-4-4-4-4l-1-11s.75-3.08,2-3,6-2,6-2,2.45-4.81,2-5-1-12-1-12l-4-2-4-3-6-3-2-4a27.83,27.83,0,0,1-3-4c-.32-.94-5.7-3.5-6-4s-5-3-5-3a12.58,12.58,0,0,0-4-1c-1.31.11-2.59.54-3,0s2-5,2-5l-1-2s-2.49-.77-3-2-.74-3.54-2-4a2.94,2.94,0,0,1-2-3,10.77,10.77,0,0,0,0-3,7.22,7.22,0,0,0-3,0c-1.43.37-3.18-.21-4,0s-4-2-4-2-1.84-.75-2,0-1.74,1.11-2,4-.84,4.58-2,6a11.58,11.58,0,0,1-4,3,7.27,7.27,0,0,1-4,1c-1.89,0-1.91.1-4-1s-4-2.58-5-2-2.73,2.35-5,3-4.24,1.68-6,1-6.48-2.94-8-1-3,7-3,7-2.86,3.75-4,5-4,4-4,4l-1,1s0,8.56,0,10-2.26,9.36-3,10a19.38,19.38,0,0,0-3,5c-.64,1.62.16,5.75,0,7a12.5,12.5,0,0,1-3,5c-1,.93-11.65,8-12,9s-2.36,4.72-2,6,2.63,5,4,7,8,9,8,9,2.55,9,2,10-1.12,5.92-1,7,1.61,3,2,4,2,12.67,2,14-5,11.36-5,12-8.62,14.72-9,16-1.88,5.61,0,7,2.24.41,4,3,6.68,6.3,6,8-8.59,17.07-9,19-1.55,8.64-3,9-1.22,1.16-4,1-5.24-1-7,0-1.88-.85-4,2-9.8,13.68-10,14-4.15,4-5,5S1069.51,1515.5,1069.51,1515.5Z"/>
            <path id="形状_7" data-name="形状 7" class="cls-2"
                  d="M1275.51,1669.5l4,4,4,3,4,1,4-3,2-2,5,2,3,4v4l1,2,7,2,9,5,1,8-1,13v4l1,3,5,5,3,3h1v-7s-.41-3.64,0-4,3-3,3-3l2-3,4-3,3-6,2-7s2.69-9.31,3-10a38.47,38.47,0,0,0,1-5c0-.43,0-1.2,0-3a7.65,7.65,0,0,1,1-4c.5-.6,2.83-2.36,3-3a29.66,29.66,0,0,0,0-4l4-33-4-3s-.71-4-1-4,1-5,1-5l2-4s4.54-4.8,5-6,9-7,9-7l2-3,4-3v-3l4-1s4.71.3,5,1,3.82,2.45,4,2a14.54,14.54,0,0,1,2-2l1-2a4.5,4.5,0,0,0,0-2c-.27-.64,3-2,3-2s1.2-1.59,0-2a4.5,4.5,0,0,1-2-2s2-2.55,3-2,3,0,3,0v-8l2-1h3l7-8,3-3,3-4,3-2s3.71-.12,4,0a15.54,15.54,0,0,0,3-1l1-2,3-1,2-1,2-2v-6l1-2,2-2,1-3a21.54,21.54,0,0,0-1-3,14.54,14.54,0,0,0-2-2h-3s.32-2.8,0-3,0-4,0-4l-1-2-2-2,1-2q-.08-1.5,0-3c.1-.81-.71-2.88,0-3a28.51,28.51,0,0,0,3-1v-3s1.55-1.68,2-2a7.31,7.31,0,0,1,3-1,3.39,3.39,0,0,0,2-1l-3-2-3-3,1-2h2s2.2,2.67,3,3a3.77,3.77,0,0,0,2,0l1-1a18.78,18.78,0,0,0,0-3,22.64,22.64,0,0,0-2-4s-2.22-5-2-5-2-3-2-3l3-5v-2l-2-1a15.85,15.85,0,0,0-4,1,16.16,16.16,0,0,0-3,2c-.41.54-3.82,2.24-4,2s-6,0-6,0h-4s-4.73,1.51-7,1-9-3-9-3l-4-3s-3.18-1.71-4-2-3.65-1.16-4-2-4-4-4-4l-13-13c-.85-.86-4-3.79-5-5s-2.86-4.12-3-4a12.54,12.54,0,0,1-3,0c-.79-.12-5.55-.42-7-1s-8-3-8-3-5.67-3.07-6-3-3-.19-4,0l-5,1s-2.69.69-4,0-4-2-4-2-4.84.63-6,0a16.07,16.07,0,0,0-4-1s-2.52-1.09-3-2-4-4-4-4-1.08.49-2,1-3.07.1-4,0-3.84-2.37-5-3-4.71-1.43-5-2a3.94,3.94,0,0,0-2-2,15.37,15.37,0,0,1-3-2v-2l-2-3-5,2-2,2-1,3s1.12.41,0,1a14.89,14.89,0,0,1-3,1s-2.23-1.65-2-2a12.55,12.55,0,0,0,0-3,5.31,5.31,0,0,0-2-1c-1.29-.36-7.54-1.39-8-1s-3.15,1.12-6,1-10,0-10,0-3.9-.61-5,0-1.74.3-3,1a9.57,9.57,0,0,1-4,1,26.67,26.67,0,0,1-4-2l-3,1-3,1a24.54,24.54,0,0,1-1,3c-.48,1.08,0,9,0,9s1.81,11.62,2,12,1,6,1,6,3.46,1.36,4,2a41.61,41.61,0,0,0,5,3s6.91,2.52,7,3,2.45,1.34,2,2,.87,18.86,1,19-1,7-1,7l-2,2,1,3,1,3,2,1,1,3-2,2v4c0,1.15,3,5,3,5a8.36,8.36,0,0,0,0,2,1.65,1.65,0,0,1,0,2c-.69.66-.76,2.67-2,3a10.1,10.1,0,0,0-3,2s-2,4.67-2,6,1,12,1,12l1,5,3,2,2,3,1,2a1.25,1.25,0,0,1,.23,1.77,1,1,0,0,1-.23.23c-1.08,1.22-4,2-4,2s.06,1.69-1,1-2-3-2-3a17.9,17.9,0,0,1-3-1c-.8-.46-3,1-3,1s-2.61,7.25-3,8,1,5,1,5l2,2,1,5,1,4,2,3s-.21,3.39,1,4,6,8,6,8l2,2,4,4v2l-1,1-5,1-6,1s-5,3.37-5,3-4.91,0-5,0-3,1-3,1v2l1,3,1,4a7.35,7.35,0,0,1,2,1,4.36,4.36,0,0,0,2,1c.67.15,1.5,1,2,1a7.35,7.35,0,0,1,2,1,.8.8,0,0,0,.51,1,.82.82,0,0,0,.49,0c1.26-.17,1.7.42,3,0s4-1,4-1h2l3,2v2l-1,3-2,1-1,6v2h1l1,1-1,1,1,2s2.82,0,3,0,4.23.39,5,1,10,5,10,5l3,2s3.46,4.72,4,5,4.06,2.07,4,3a9.31,9.31,0,0,0,1,3l2,3s-.23.15,0,1-1,3-1,3Z"/>
            <path id="形状_8" data-name="形状 8" class="cls-6"
                  d="M1328.51,1728.5l3,2a21.45,21.45,0,0,1,3,0c.25.13,9,0,9,0l5,1,4,2a4.81,4.81,0,0,1,0,2c-.25.57-1,4-1,4s-3.36,5.14-3,6,3.55,5.93,6,7a69.5,69.5,0,0,0,7,3c1.63.42,6,4,6,4s3.6,4.46,3,5-.51,1.78-1,3,1,2.58,3,3,2.37-.86,4,0,15,9,15,9a6.42,6.42,0,0,1,1,4,34.45,34.45,0,0,0,1,7l-2,7-2,3-5,3-4,6v4l2,4h4l6-4,5-2,7-1,4,1v5l7,2s4.36-.07,6,0a32.31,32.31,0,0,1,5,1l2,3,4,9,5,4s7.86-2.37,8-2,7.18.66,8,0a56.5,56.5,0,0,0,4-5l4,1,6,5,5-1,3-6s1.65-3.63,2-4,1.42-5.31,0-6-4.91-4.9-5-5,1.15-12.22,2-13a28.81,28.81,0,0,0,3-5c0-.19,4.51-3.45,5-3a42,42,0,0,0,5,2s10.71,4.34,12,5,7,6,7,6a37.49,37.49,0,0,0,5,1c1.06,0,0-15,0-15l1-5,1-5-1-4s-2.28-3.08-3-4a28.82,28.82,0,0,1-2-5s-.31-3.94,1-5,8.54-5.94,10-6,7.8-4.79,10-5,7.27-1.58,9-2,9-2,9-2l-1-4s5.62-7.61,6-8,3-5,3-5l-1-3-2-4,2-5,4-3,8-4s6.77-3.46,9-5,11-6,11-6l5-10,4-6,5-2h6s6.88,6.16,7,6,3,3.57,4,2,4-7,4-7l3-3,7-1,2,4s2.94,1,3,0,0-7,0-7v-6s-3.35-5.72-4-6-3-6-3-6,.29-13.13,0-14-3-11-3-11,.76-7.6,1-8,1.12-2.13,2-2,8-.42,9,0,7.5-2.16,8-3,3-4,3-4-4.71-1.42-5-2-2-5-2-5l2-5s1.26-2.57,1-4-1-5-1-5-12.85-12.66-14-13a31.76,31.76,0,0,1-4-2l-4-3-3-3-1-1a13.28,13.28,0,0,0-4,1c-1.32.74-5,3-5,3h-3l-2-3-1-2,3-3,1-10,1-3,3-3v-7l2-5s14.74-13.8,15-14,12-11,12-11l5-7s16-12.77,17-13,6-4,6-4l-1-16s.29-4.47,1-5,5-5,5-5l3-1,4-2,3-6,3-6,2-4-1-3-5-4a2.41,2.41,0,0,0,0-2c-.49-1.06,2-8,2-8l3-3,7-3,3-3v-15l-4-5-3-3-2-3-2-2-1-3,4-4,1-4v-19l6-4,3-6,1-3-2-5-5-5v-2l7-3,4-6,5-2,7-2,5-3s.76-1.57,1-2-.71-.54-2-1-8-3-8-3-19.3-8.57-21-10a120.17,120.17,0,0,1-9-10c-.49-.84-2.33-6.1-2-7s-1.3-4-1-5-1-5-1-5l-2-3v-3h2l2-3,1-3-2-1s-11-3.36-13-6,2.06-3.24-1-5-11.62-6-13-6-3.71-3.36-6-5-1-1.51-4-4-2.94-5.24-4-6-9.41-3-12-3-7.32.55-9,0a22.39,22.39,0,0,1-6-4c-.24-.52-3.82-1.71-6-2s-9.56.43-13,0-7,2-7,2a17.83,17.83,0,0,1,0,4c-.27,1.07-1.32,1.84-3,3a65.6,65.6,0,0,1-8,4c-1,.39-4.11,1.55-5,2s-1.44-.24-3-1-3-4.1-5-5-5.52-2.74-7-3a37.2,37.2,0,0,0-7,0c-.51.18-1.58,4.23-2,5s.13,4.37,0,5-.64,3.4-2,4-3.93,1.64-5,2-5.43,0-7,1-3,4.4-3,6-.31,6.08,1,7a38.37,38.37,0,0,1,6,5c1.2,1.51,3.71,3.64,4,5s2,2.75,1,5-2,5-2,5-3-.13-3-1,0-2.51-3-5-5.11-2.86-7-4-4.67-3.1-6-3-2.9-.6-3,1,2.8,7.87,4,9,5.42,9.84,5,11,.13,5,0,6,0,8.37,0,10,1.39,10.22,1,11,0,10,0,10-.43,3.31-1,3-2.23,1.19-5,0-12-5-12-5-7.46-.19-10,1a80.64,80.64,0,0,0-8,4c-1.16.87-3.93,3.16-6,4s-4,2.51-5,3,.63,2.51,2,4a3.85,3.85,0,0,1,1,4c-.37.87-1.43,5.78-2,7a53.77,53.77,0,0,1-3,5l-2,3a1.28,1.28,0,0,1-1,2c-1.93.49-2.87,1.6-6,2s-2.6.8-5,2-6.31,4.69-7,5-.78,1.57,0,3a5,5,0,0,0,2,2l-1,3-3,2s-8.51,6.8-10,9a40.1,40.1,0,0,0-3,5,9.87,9.87,0,0,1-3,4,26.43,26.43,0,0,0-4,3c-.75.79-3.8,5.86-5,7s-4,4.59-5,5-2.66.89-2,3a12.22,12.22,0,0,0,2,4c.42.47,2,1.33,1,2a43.15,43.15,0,0,0-4,4s-4.36,4-4,7a14.36,14.36,0,0,0,3,7,37.82,37.82,0,0,1,3,5,6.1,6.1,0,0,1,3,2,13.67,13.67,0,0,1,3,5,21.63,21.63,0,0,1,0,7,15.43,15.43,0,0,1-4,7,40.5,40.5,0,0,0-5,6c-.73,1.12-3,6-3,6s1.87,1.09,2,2,1.9,1.09,3,1,4,0,4,0l4-3,3-1,2-1s3-1.09,3,0,.78,2.41,0,3a31.62,31.62,0,0,0-3,4l1,3s.78,3.23,1,4a18.43,18.43,0,0,0,2,3l2,2v2l-1,3h-3l-2-3h-2l-1,1v2l2,1s1.52,2.85,2,3-1,2-1,2h-3l-2,3,1,2h-2l-1,1-1,3v2l1,2s-1.36.08-1,1-.8,1.32,0,2,1.43-.59,2,1,1.43,3.76,1,4a4.12,4.12,0,0,0-1,3c.28.77-.78,1.91,1,2s2.17-.09,3,0,2,2,2,2v4a8.44,8.44,0,0,0-2,2c-.49.92-.33,2.73-1,3s-1,2-1,3,0,3,0,3l-3,3h-3l-1,2v1h-5l-4,2-2,3-4,3-9,9a22.94,22.94,0,0,0-3,1c-.82.42-2.15,1.52-2,2a18.78,18.78,0,0,1,0,3s1.26,2.64,1,3-1.54,2.31-2,2-4,0-4,0l1,3,1,2-3,1v2s-.51,1.14-1,2-3,2-3,2l-3-2-7-1-3,3v2l-4,3-3,4-6,4s-2.53,3-4,5-3.3,5-4,6-.56,2.84-1,4a9.3,9.3,0,0,0,0,4c.15,1.28,3,4,3,4s2.44,1,2,2-1.65,8.93-2,11-1.74,13.66-2,15-2,6.57-2,8a31.62,31.62,0,0,1-1,5,7.5,7.5,0,0,1-1,2c-.53.61-1,7-1,7s-2.65,11.13-3,12-2,8-2,8-.8,3.51-2,4-2.83,3.1-4,4a26.09,26.09,0,0,0-4,4c-.85,1.17-3.24,3.16-3,4a62.87,62.87,0,0,1,0,7l1,3Z"/>
            <path id="形状_9" data-name="形状 9" class="cls-4"
                  d="M1647.51,1617.5l3-3,3-2,3-2,4,1,4,1h5l5-3,6-3,4,1,3,4a39.15,39.15,0,0,0,5,1c1.18,0,8-1,8-1l5-1,5-2,4-4s3.24-2.3,4-2,5,0,5,0l2,6,1,3s.37,4,0,5a38.47,38.47,0,0,0-1,5,16.68,16.68,0,0,0,0,2s3.21.67,5,1a48.1,48.1,0,0,0,7,0l5-1,4-3a2,2,0,0,1,2-2h0c2-.07,5,0,5,0l4-3,3-7,3-5s2.16-4.56,3-5a20.26,20.26,0,0,0,3-3l3-1v-4s-2.5-4.64-3-6-.08-5.42-1-6-1-10-1-10v-4h-8l-7-1-4-1v-4s-.37-3.26,0-4-1-5-1-5l-2-3s-2-2.6-3-3a6.26,6.26,0,0,1-2-2s.5-.16,1-2,5-6,5-6a3.45,3.45,0,0,1,1-3,14.51,14.51,0,0,0,3-5c.74-1.82,1.61-3,2-5s-.29-3.6,1-4a24.06,24.06,0,0,0,5-2c1.74-1,2-5,2-5l2-2,2-2,4,1a47.8,47.8,0,0,0,5,2,32.1,32.1,0,0,0,5,0l7-2a9.31,9.31,0,0,1,3,1c1.34.78,6,3,6,3s3.31-.5,3-1,0-4,0-4l-1-4,5-1,5,1,3,4h5l7-1,6-1,9-3a36.42,36.42,0,0,1,6-2c1.59-.16,6.12-.89,8-1s11,0,11,0l7,2,1,2s-.75,3.93-1,5-1.53,3.4,1,2,5-3,5-3l5-1s.44-1.18,3,0,5.86,3.4,8,3,6-4,6-4,2.75,1.69,3,3,3.94,6.53,6,7,10,1,10,1l14-4s6.67-2.13,8-3,10-7,10-7l7-7,8-9s6.38,4.56,9,6a18,18,0,0,0,9,2c3.1-.09,3.93.11,6-2a17.24,17.24,0,0,0,3-4s3.69-2.1,6-2a15.64,15.64,0,0,1,7,2c1.94,1.18,6.14,3.14,7,5s2,3.64,2,5,2.51,4.11,4,7,3.9,7.53,4,9,2.35,3.56,3,5,6,2,6,2,3.74-.87,5,0,8.21,3.58,9,4,3.84-.52,8-1,6-.79,9-3,4.76-4.81,6-6,11.26-13.55,13-14,7.84-4.91,10-6,5.79-4.41,8-5a63.64,63.64,0,0,1,8-2c2.27-.24,7.79.48,10,0a73.31,73.31,0,0,0,11-3c3.77-1.51,7.34-4.57,11-6s10.76-4.41,11-6,3-7,3-7,9.59-23,9-23-1-10-1-10-.38-8.17-2-10-6-8-6-8-5.82-4.43-7-6a26.7,26.7,0,0,0-6-5,39.31,39.31,0,0,1-7-7,21.41,21.41,0,0,0-4-5c-1.94-1.63-6.24-5.27-8-7s-8.19-11.77-18-9-16.35,5.68-19,6-3.27,3-9-2-4.58-6-8-8-7.92-4.71-11-3-6,4.31-10,1-7-14-7-14l-5-8s-1-2.79-8-2-16.13.26-19,1-8.73,3.47-9,4-1.5,3.32-1,5,1.37,2.87,2,5,1.71,5.47,2,7-1,4-1,4,1.69,4.92-1,3-5.63-2.19-7-3-4.6-8.42-5-9-.89-5.61-1-7,0-10,0-10l-2-6-3-2a31.91,31.91,0,0,1,2-3c1.1-1.42,5.79-6.53,7-8s10-10,10-10,2.42-4.21-2-4a18.83,18.83,0,0,0-9,3c-1.82,1-6.26,1.58-7,2s-1.18.55-7-2-17.58-11.71-22-14-9.28-11.87-11-13-3,4-3,4l-3,5a7.25,7.25,0,0,1-4,1c-2.61,0-5.1,0-8-2s-3.65-3.81-6-6-4.44-5.31-6-6-6.12-3.18-10-3-3.31,1.19-3,4,2.85,8.32,3,9-1.07,2.24-2,3-4.81,1.55-5,4-1.12,4.47,1,5,3.24,1.47,6,1,4.88-1.42,5,0-1,5-1,5-3.78,1.89-5,2-4.39-.34-6,0-8.67-.55-10-2-3.25-3.1-3-5,0-7.1,0-9,.83-3.74-1-4a5,5,0,0,1-3-2,19.18,19.18,0,0,1,2-4c.83-.9,5.11-2.94,7-5s4.46-3.44,4-5-.23-3.47-2-5-4.91-3-5-5-2.12-8.07-3-10-.36-2.39-5-5-18.78-14.46-20-16-4.17-9.54-4-13,2.41-10.38-7-10-22.35.43-25,1-7.41,1.3-10,2-9.35,1.67-10,0a15.29,15.29,0,0,1,0-8c.77-2.2,4.15-8.8,4-10s3-9,3-9-1.9-8-3-9-2.35-4.54-8-5-19.77,2.91-21,3a76,76,0,0,0-8,2c-2.47.7-3.37,2.59-6,2s-8.74-1.85-9-3a20.56,20.56,0,0,1,0-4l-4-4s-2.64-.12-3,1-3,4-3,4l-3,3s-2.06.65-2,2,0,3,0,3l1,1,2,2v4s-1.64,15.06-3,16-10.79,7.48-12,8-5.69,1.12-7,2-4.08.85-4,3,3,4,3,4a2.62,2.62,0,0,1,0,3c-1,1.78-6,7-6,7l-4,1s-5.11.06-6,0-6,0-6,0l-1,5,3,3a5.66,5.66,0,0,1,0,3c-.45,1.49-3,10-3,10s0,3.11,0,5a12.07,12.07,0,0,1-1,4h-6l-4,2-1,2-2,3s-3.13,1.4-3,2,1.07,2.72,1,3a20.87,20.87,0,0,0,2,3s1.53,3.63,1,4,.92,12.53,2,13,7.3,7.38,8,8,7.53,3.76,10,5,12.83,5.55,14,6,3.61.07,6,2,3,2,3,2-.18,2.59-2,3-11.08,3.18-13,4-4.73,3.17-5,4a17.6,17.6,0,0,1-2,3s-4.25,1.09-5,2-3.64.28-3,2,.55,2.81,2,4,3.34,2,4,4,.81.78,1,3,.35,3.77-1,5-5.7,8.75-7,9-.64,5.13-1,7-1,13-1,13l-3,6s-1.56,1.67-1,3,2.37,4.79,3,5,3.89,4.84,5,6a38.62,38.62,0,0,1,3,4,8.06,8.06,0,0,1,1,3c-.08,1-1.12,10.72-1,11s-1.31,2.52-3,3-7.08,2.82-9,6-1.81,9.47-2,10,5,5,5,5v5a84.59,84.59,0,0,0-5,7,22.39,22.39,0,0,0-1,5l-3,1-4,2s-6.57,3.85-7,6,.43,6.63,0,8,0,12,0,12-.09,2.32-2,3-15.78,9.82-18,12-6.16,8.46-7,9-21.09,19.94-23,21-4.88,6.92-5,7-.68,5.77-1,6-1,4-1,4l-3,3-1,6,1,3v3l-3,2-1,3,1,2a2.85,2.85,0,0,0,1,2,6.49,6.49,0,0,0,3,1l3-1s1.91-2.7,2-3,3-1,3-1l3,1,4,4,4,3,4,3,7,6,5,5,1,4v4l-2,3-1,4,2,3,1,3Z"/>
            <path id="形状_10" data-name="形状 10" class="cls-3"
                  d="M1179.51,1279.5v2h2v1l2,1h7l1,2-1,3,3,2,1,4h1l2,2,1,1-1,2-1,2v1l2,1h4l3,1,1,2,3,1,3,1,4,4,2,3v3l4,2,4,2,2,2,3,1,2,1v15l-2,2-4,1a10.52,10.52,0,0,1-2,2,8.45,8.45,0,0,0-2,3l1,4v6l2,1,2,2s.67,1.49,1,2-1,3-1,3l-2,1s-3.71-.25-4,0-4.89.81-6,1-4,1-4,1l-3,5s-2.93,7.25-3,7-2,2-2,2l-2,3a20.7,20.7,0,0,0-1,3c.12.18,1,3,1,3s2.74,1.07,3,2a3.23,3.23,0,0,0,1,2,41.7,41.7,0,0,1,3,4s1.46,2.52,1,3,1,3,1,3,1.32,1.84,2,2a16.85,16.85,0,0,1,3,2s2,1.29,2,2,.83,2.35,1,3a38.12,38.12,0,0,1,0,4c0,.93,0,2,0,2l-1,1h2l3-2h2l4,2s2.33-1.27,3-1,4-.79,5-1,6.3.21,7,0,8.87-1,10-1,10,1,10,1l2,1a6.2,6.2,0,0,1,1,3c-.1,1.28.36,1.92,1,2s4,0,4,0a1.07,1.07,0,0,0,1-1c0-.93-.58-3.86,0-4s2-2,2-2l3-1,1-1,2,2,1,3,3,2,2,2c1.3.73,2.64,1.4,4,2a7.73,7.73,0,0,1,3,2,13.65,13.65,0,0,0,3,2l3-1s2.6.38,3,0,2,1,2,1l2,2,3,3h9l3,1s.81,2.28,2,2a29.81,29.81,0,0,1,5,0s4.72-.51,5-1,2.11-1.51,3-1,3.36,1.35,4,2,4.28,1.48,5,2,3.14.54,4,1,3.39,2.07,5,2,5,0,5,0l2,2,6,6,14,14,9,7,6,3,3,2,5,1h12l1-1-2-1,1-4,2-4,5-5,4-5v-6s.39-3.08,0-4-1.6-3.07-2-3-7.32-6.58-7-7-2-6-2-6-1.38-2.89-1-4a14.39,14.39,0,0,1,2-3,52.06,52.06,0,0,0,4-4c.8-1.07,2-3,2-3l-2-2-1-2v-2s-.2-1.64,1-2,9.58-8.68,9-9,0-3.27,2-4a24.38,24.38,0,0,0,5-3c1-.67,2.22-5.18,3-6s3-4,3-4,5.13-4.09,6-5a54.74,54.74,0,0,1,5-4,21,21,0,0,0,2-2l-2-3-1-2,2-3,2-1,8-4a7,7,0,0,1,3-1,14.5,14.5,0,0,0,4-1l1-3,4-8,1-3,1-3-1-4-2-2v-1l1-2,2-1,4-2s2.62-1.34,3-2,4.28-1.73,5-3,6.72-1.06,7-1,4.64-2.06,6-2a19.52,19.52,0,0,1,4,1s3,1.53,4,2,2.47-1.14,4,0a18.25,18.25,0,0,0,4,2l2-1,1-1v-6l-1-32v-4l-2-2-2-5-2-3a24.83,24.83,0,0,0-2-3c-.49-.45-1-4-1-4l3-1,4,1s4.19,2.72,5,3,5,3,5,3,2.56.57,3,2a25.75,25.75,0,0,0,2,4l2-1,1-3v-3l-2-3s-3.43-3.8-4-4-3-2.46-4-3-1-5-1-5a14.88,14.88,0,0,0,0-4c-.34-1,1-4,1-4s.08-2.31,2-2a37.56,37.56,0,0,0,6,0s3.56-2.27,5-3,1.49-2,2-3,2-8,2-8-.81-1.86,0-2,5-1,5-1a22.73,22.73,0,0,1,4,1c1.78.67,4.31,2.09,5,3s3.26,1.86,4,3a8.44,8.44,0,0,0,2,2h3l4-2s3-2.18,4-2,5-2,5-2,1.85-1.32,2-2,1-4,1-4l1-2s6-1.26,7-1,10,0,10,0,5.23,1.59,6,2,5,3,5,3l2,1c1.72.86,7.67.73,8,1s5.47,1.33,6,1,4,0,4,0,1,3.74,2,4,2.28,1.16,4,3,3.83,3.58,5,5a35.64,35.64,0,0,0,5,4l3,2,8,2a7.76,7.76,0,0,1,2,2,8.44,8.44,0,0,1,1,3,5.7,5.7,0,0,0,1,2l3,3,5,2a32.94,32.94,0,0,0,4,1,12.17,12.17,0,0,1,3,1l2-1,1-1a12.54,12.54,0,0,0,3,0,13.41,13.41,0,0,1,4,0c.52.16,1-2,1-2v-9l1-3,3-3v-4l-1-2-3-2v-4l3-1a17.45,17.45,0,0,0,5,0c1.77-.44,6,0,6,0l4-2,3-3,3-4-1-3-1-2v-2l2-1,2-1,5-2,3-1,4-3a52.14,52.14,0,0,0,5-4c.88-1,1.64-5.18,2-6a65.89,65.89,0,0,0,1-7c-.08-1.67-.08-3.33,0-5a16.7,16.7,0,0,0,0-3l-3-2s.06-1.71,0-2,3-3,3-3l2-3,4-4a.88.88,0,0,1,.72-1,.66.66,0,0,1,.28,0c1.13.06,4,3,4,3l2,2,1-2,4-7,3-5,4-5,2-4a36.54,36.54,0,0,1,1-4,52.88,52.88,0,0,0,1-6s-4.9-3.19-5-3-6.08-2.82-7-3-5.28-1.93-6-2-9.31-1.25-10-1-1.78-.39-4,0a8.79,8.79,0,0,0-5,3,42.93,42.93,0,0,1-5,5c-1.12.88-5.2,1.39-7,1s-17.34-1.07-18-1a26.17,26.17,0,0,1-6,0c-3.42-.33-13-1-13-1l-2-3s-.77-2.12-1-3a24.28,24.28,0,0,1,0-4l4-4,3-5,1-4a42.37,42.37,0,0,0-5-2c-1.47-.35-4.86.08-6,0s-5.31-.21-7,1-5.06,2.25-6,2-6.43-2.63-8-4-14.79-19.44-16-22-4.34-8.25-5-11a53.2,53.2,0,0,0-5-11,16.15,16.15,0,0,0-6-5c-2.47-1.31-6.36-2.87-9-6s-5.3-8.22-7-11,2.2-3.87-4-4-23.65,1.84-28,2-6.43.54-12-1-9-2.17-10-3-2-2.72-4-4-3.6-3.62-5-4-4.16-2.38-5-3-3.51-.08-4,1-3,5-3,5-.58,2.28-2,1-1.64-3.46-2-5,.5-10.87,0-12,0-8,0-8,1.26-1.3,2-2,6-4,6-4,2.38-2,2-3-.92-1.38-2-3,0-6,0-6,1.44-2.29,2-3,2-3,2-3a29.66,29.66,0,0,1,0-4c.18-1.4-1.1-4.69-1-5s-1.54-3.24-2-4-4-5-4-5-2-6.11-2-7,2.58-2.39,3-4,2.25-1.8,1-4,.11-2.3-3-4-12.87-4.25-15-5-5.38-1.48-8-3-12.17-5.6-14-7-5-3.35-6-5a66.53,66.53,0,0,0-4-6c-1.41-1.86-1.34-4.5-4-5s-1.79,0-6-1-8-2-10-4a14,14,0,0,1-3-5s-.76-1.14-3,0-8.6,3.22-10,4-4.55,2.11-5,3a10.63,10.63,0,0,0-1,4,9.28,9.28,0,0,0,1,4c.77,1.78,1.35,1.79,2,3a12.17,12.17,0,0,1,1,3s-.71,3.7-1,5-2.43,6-5,7-7.72,4.38-10,5-11.79,5.29-22,7-29,12.53-33,14-14.46,8.15-17,10-9.48,5.55-11,7-6.91,4.61-9,6-4.07,7.22-8,7-8.61.51-12-1-7.44-3-10-3-6,2.87-9,4-9.69,8.29-10,12-2.23,9.28-1,10,4.21,2.15,4,4,0,11,0,11-.85,3.54-1,4-5.92,4.14-6,5-4.5,2.06-6,2-3,0-3,0l1,2a41.35,41.35,0,0,0,3,5c1,1.16,5,5,5,5s4.42,2,5,2a30.38,30.38,0,0,1,4,1l2,2s-.62,8-1,9,.38,3.84,0,5a7.57,7.57,0,0,0,0,3l6,3,3,2s1.38,3.52,2,4a4.71,4.71,0,0,1,2,2c.38,1,2.66,1.74,3,2l4,3s1.57,1.89,3,2a20.91,20.91,0,0,0,5,0,29.13,29.13,0,0,0,5-1c1.27-.51,3.09.24,4,0s3.56,1.27,5,2,2.78.71,4,2,3,1.47,3,3a2.08,2.08,0,0,0,1,2s1.93,1.26,2,1,3.1-2.37,3-3a3.24,3.24,0,0,1,1-3c1.19-1.14.4-3.76,1-4s3.09-1.74,4-2,4.24-1,5-2,2.67-2.48,3-3a5.33,5.33,0,0,1,3-2,11.15,11.15,0,0,0,3-1l3-1a37.92,37.92,0,0,1,4,3c.63.73,2.93,1.92,3,3s2,1.51,2,2,1.07.49,2,1,1.53,1,3,0a5.78,5.78,0,0,1,3-1s1-.42,1,1-3,3-3,3-1.59-.27,0,1,2.39,1,3,2a5.1,5.1,0,0,1,1,2c.22.91-.22,1.16,0,2a5.18,5.18,0,0,1,0,2s0-.46-1,0-.36.45-2,0-1.93-1.45-3-1-.7,2-2,2-1.89,1.68-2,3,0,4,0,4l1,3s-1.88-.32-2,1a9.91,9.91,0,0,1-1,3,12.27,12.27,0,0,1,2,3,6.1,6.1,0,0,0,2,3c1,.83,1.63,2.74,3,3s1.72-.19,2,1,.7,1.57,1,3a18.53,18.53,0,0,0,1,3,6.82,6.82,0,0,1,1,2c-.08.38-4,5-4,5s-3.39.57-5,2-3.63,2.62-5,4-3,3-3,4,.3,2.34,0,3-1.27.5-2,2-1.07.68-1,2q-.08,1.5,0,3a4.28,4.28,0,0,1-3,1c-1.69,0-3.7,0-7,0s-13.35.45-14,0-1.53.43-2,1-1.1,1.71-2,2-1.25.82-3,0,0-4.32-1-5-.72-2.89-2-3-3.71-1.15-3-2,1.27-2.62,2-3,2.46-1.29,2-2a5.33,5.33,0,0,0-2-2c-.58-.13-2.17-.68-3,0a7.61,7.61,0,0,0-2,2,10.63,10.63,0,0,0-1,4c0,.56,0,7,0,7l-2,2-2,2-1,3s-1.17,2.63-1,3-2,3-2,3a13.51,13.51,0,0,0-2-2c-.39-.12-3.08-3.32-3-4a13.35,13.35,0,0,0,0-2s-1.85-1.4-2-1a1.12,1.12,0,0,1-1,1c-.87.21-.73,1.06-1,2a10.77,10.77,0,0,0,0,3v3s-3.88,1.84-4,3a11.77,11.77,0,0,1-1,3h-2s.47-.11,0,1,.74,1.78,1,2,2,0,2,1-.69,2.22,0,3,2,1.4,2,2a3.35,3.35,0,0,0,0,1c.1,1,1.41,1.56,0,2s-5.62,1.94-6,2a27.41,27.41,0,0,0-3,3s-1.2,1,0,1h4s.34-1.4,1-1,.73,1.87,1,2-.07,2.63,0,3-1.33,4.57-2,5-1.53.33-1,2,.76,2,1,3,1.15,3.76,1,4-1.6,3.2-3,4-5,7-5,7-2.07,2-4,2-4.4.78-6,1-1,2.11-2,0-.48-5.94-1-6-.74-1-2,0-1.12,1.32-2,2-.59.92-2,1-3.35-1-4-1,0,0-1,0a3.45,3.45,0,0,0-2,1s0,3.36,0,4,.92,2.25-1,2-2.43.35-4,0a22,22,0,0,0-5,0,39,39,0,0,1-1-4c.08-.3-.15-3.27-1-3s-3.51,6.84-4,7-2.37,1.92-3,2-4.43-3.91-4-5-2-4-2-4-1.29.06-1-1,.62-1.63,0-2-6,5-6,5-3,3.07-4,3-2.41.88-3,0-2.58-1.58-3-3-1-4-1-4-2.17-1.82-1-2,1.71-1.59,2-2,0-3,0-3-2.26-1.42-2-2,1-3,0-3-1.73-1.31-2,0a36.87,36.87,0,0,1-1,5c-.39.76-1.18,1.49-2,3a11.41,11.41,0,0,1-3,3c-.35.33-6-1-6-1s-1.85.56-2,1-.33,3.82-1,4,.41,3.64,2,5,1.5,1,2,2,1.43,1.67,0,3-4.55,6.19-4,7-.67.46,1,2,2.78,1.52,4,3,3.34,1.78,4,3,2.6.86,3,2,.79,2.12,1,3-3.24,1.4-4,2-8,1-8,1l-1,2s-.52-3-1-3-2-2-2-2a5.1,5.1,0,0,0-2,1c-.43.58-.15,2.68-1,3s-.62,1.48-2,1-2.77-2.1-4-2-2.54-1.29-3-1-1.11.49-2,1a7.54,7.54,0,0,1-4,1,5.52,5.52,0,0,0-4,2c-.49.85.31.82-1,2s-3.25.59-4,2a28.44,28.44,0,0,1-2,3A10.68,10.68,0,0,0,1179.51,1279.5Z"/>
            <path id="形状_11" data-name="形状 11" class="cls-5"
                  d="M758.51,1332.5l5-3,2-3,3-2,1-3,1-9v-11s0-2.3,1-3,3-2.61,6-3,7-1,7-1,3-.28,4-1,6.31-5.93,6-7,.6-6.43,1-7,.12-3.88,1-4,2.31-1.14,3-1a38.12,38.12,0,0,0,4,0h4l7-5s4.86-3.25,6-5,4-4.21,4-5,2-4,2-4,4.07-3.24,5-4,3.07-2.54,5-3,8.63-4.27,10-5a21.16,21.16,0,0,1,5-2c1.89-.44,8-3,8-3s7.9-5,8-5,5-3,5-3l2-5a31.76,31.76,0,0,0,2-4c0-.54,2.27-3.25,3-3s4.53-1,6-1,9-2,9-2,2.87-.35,3-1,4-3,4-3l-3-3-1-2-1-2,3-1,1,1,2,2,4,1,2-2,2-1,1,2,4,4,4,3,3,3,3,3h6l4-1,1-2-1-3,1-2,2-1,2-4v-2l2-1,3,3,1,5v3h3s3.24,2.08,4,2,4,0,4,0l3,1,1,1-1,2-1,1,1,1v2l-2,2-2,3-1,3-2,4s-1.25.38,0,1,1.93,1.38,3,1,4-.48,4,0,1.26,1.81,1,2-.85.83,0,1,3.23-.54,4,0a11.9,11.9,0,0,0,3,1l1,2v5h1l3-3,1-2,1,1,1,4,1,2,3,1,4,1,2,2,1,2-1,1,2,2v6l-3,4s-2,1.82-3,2-1.57,1.45-4,1a34.12,34.12,0,0,0-7,0s-2.2,0-2,1-.24,3.45-1,4-3,2-3,2l-2,3-2,3-1,5,1,3a.59.59,0,0,1,.2.81.61.61,0,0,1-.2.19c-.63.59-3,3-3,3s-1.84.37-2,1a18.78,18.78,0,0,0,0,3s.69,1.87,1,3,1,3,1,3l4,1v5l2,2v2l-4,1-2,3v3l-2,1-2-2h-2l-3,2-1,3-3,3-2,4-3,4-1,2s.32,3.3,0,4,0,4,0,4l1,5s.09,8.65,0,9,1.48,4.38,1,5,0,4,0,4l1,3,2,2,3-1,3-1,3,1v2l-6,2h-3s-.27.31-1,1-1.27,4.65-1,5,1.49,4.91,1,6,0,5,0,5v2l-3,8-2,5-3,5-1,3-2,3-2,1h-4l-2-1h-6l-3,1v2l-1,2-2-1-2-1-3,2h-3s-3.44-1.83-3-2,1-3,1-3l1-2h1l-1-4,1-2h4l3-1v-2l-3-2h-3l-3,1-2,2-1,3v5l-1,1a7.67,7.67,0,0,1-3-1,23,23,0,0,1-3-3l-1-1-4,1,1,3-2,1-6,2-4,2h-4l-1,4-5,3-5,3-4,1-3,2-3,2-3,1-3-3-3-3h-8l-3-1,2-2,2-1,1-2-1-3-4-1-3-2v-3l-2-1-3,1-1,1-1,2-2,1-1-4-1-2-3-1-3-3h-3l-2-2,2-2,1-2-2-2-3-1-2-2-2-1v-3l-1-3s-3.16-1.69-3-2,.17-.88-1-2,0-4,0-4l-2,1-2-1v-3l1-2,2-1v-3h-4l-2,3s.42,2,0,2h-1l-4-1,1-1-2-2s-3-1.48-3-1-2,1-2,1h-2l-1-4v-6l1-1,1-3v-2l-5-2,1-2,1-3,3-3,2-1,3-2,2-2-3-4-2-3-4-5-5-3-2-1a10.77,10.77,0,0,1,0,3,1.1,1.1,0,0,0,0,1l-5-1-2-1-2-2Z"/>
            <path id="形状_12" data-name="形状 12" class="cls-7"
                  d="M1225.51,1265.5v-3l-5-2-4-4-3-3-1-2v-3l2-2,2-4,1-1-4-3-1-3,1-3,1-3,1-1,2,1,3,1,3-1,2-2,2-3-1-3,1-3,2,1,1,3v4l-1,3,1,3,3,5,2,2,3-1,3-2,3-4,3-1v3l4,2,1,2v3l1,2,2-2,2-2,1-2,2-3h1l1,3,1,2,3,2,3-1h3l2-2-1-4,2-1,4,1h2l3-2,1-1,2,3-1,3,3,1,5-1,7-5,2-5,2-2,3-1-1-2-2-3v-5l4-2v-3l-1-4h-4l-3-1,4-3,4-1,3-1-1-3-2-2v-4l-4-1,1-2,3-1,1-3,2-2,1-2v-5l2-1h2l1,2,1,4a8.51,8.51,0,0,0,2,1c1,.3,4-1,4-1v-3l2-4,2-3,1-2v-9l2-2,3-1,2,1,1,2-3,1-1,3,1,3h3v4l1,3,2,1,4-2,2-1,6-1h15l3-1v-3l2-3,1-2v-4l4-3,6-3,5-2,2-4a7.44,7.44,0,0,0,0-2c-.16-.2-2-3-2-3s0-2.28,0-3a11.39,11.39,0,0,0-1-3l-4-2a12.56,12.56,0,0,1-3-2,31.91,31.91,0,0,1-2-3l2-3,1-3-1-4,1-3,2-3h7v-5l-3-3,1-2,2-2-2-2-6,2-3-2-4-4-2-2-3-1-4,1-1,1-3,1-2,2-3,2-5,1-2,3-1,5-4,4h-1l-3-5-5-2-5-2s-4.83.46-5,0-4.81-.52-6,0-2.57,1.81-4,1a53.08,53.08,0,0,1-5-4s-1.91-3.32-3-3a8.89,8.89,0,0,1-3,0s-.81-4.61-1-5-8-5-8-5l-3-2,1-9,1-7-1-2s-4.26-1.88-5-2-7-3-7-3l-3-3-3-4-1-3-7-2s-2.9,0-6,0-13.19-.24-15-1-11-1-11-1-11.5,2.13-12,2-5,0-7,1-8.55,3.58-10,4-5.09.44-8,1a37.81,37.81,0,0,1-9,1c-3.37-.12-9.9.4-13-1a65.39,65.39,0,0,0-10-3c-2.07-.52-29.75-3-31-3s-7.62-.52-9,0-7.44,2.54-8,3-10.22,4.49-12,5-6.07,2-8,2-5.3-.64-9,0-13.21.39-14,1-3.13,2.33-4,4-1.46,8.21-1,10,3,11,3,11a53.48,53.48,0,0,1,4,6c.8,1.75,4.64,3.15,5,4s4,3,4,3,1.19,3.83,0,5-3.55,2.75-4,4a57.06,57.06,0,0,1-6,9c-1.14,1.06-2.53,2.86-2,4s2,5,2,5l-3,4s-2.89,2.45-5,3-7.85,3-8,4a2.87,2.87,0,0,0,1,2v4h5l2,1a13.65,13.65,0,0,1,2,3c.13.75,3.1,5.22,3,6a6.06,6.06,0,0,0,1,3,55.52,55.52,0,0,1,2,6l3,5,3,3,3,2,3-2,3-2h2l1,2-1,2v7l9,6,5,5,5,7s5.58,3.09,6,4,5.71,6.73,6,7,8.41,7.74,9,8,4.89,2.8,6,3,3.79,1.52,4,2,1.3,2.74,1,3a26,26,0,0,0-1,4l1,3,4,5a44.84,44.84,0,0,1,3,4c.21.57,2,5,2,5l1,5-1,3s-3.6,2.24-4,2-6,1-6,1l-1,2v2l1,2,1,3h2l3-1,2-2,1,2,3,3,3,2,3,2,6,1h12l3-3h4l2,2,3-1,3-2,2,1,2,2,4,1,2-1,2-3,2,1,1,1s4.34.07,5,0,4,0,4,0Z"/>
            <path id="形状_13" data-name="形状 13" class="cls-4"
                  d="M925.51,1106.5h-3l-3-3-4-2-3-2-5,1-4-1-3-2s-5.17-7.08-6-7-5.83-2.22-6-3-7-4-7-4l-4-2-3-3s-15.58-4.43-16-5-9.57-3.06-11-3-7,0-7,0-2.07,1.87-3,2-5,3.64-6,3-5.21-1.28-6-2-7.87-3.43-9-4l-8-4s-4.63-2.46-6-3-3.88-4-5-4a25,25,0,0,1-6-1c-1-.44-4.87-.75-6,0s-3,.66-4,1a9,9,0,0,1-4,0c-1.73-.25-4-4-4-4s.11-.71-2-1a37.56,37.56,0,0,0-6,0s-2.18,5.25-3,5-5,2-5,2-1.88-1.23-3-1-3.39-1.86-5-2-3-.6-4,0-4,5-4,5l-1,3a6.06,6.06,0,0,1-2,1c-.69,0-6-1-6-1l-7,1-1,4s-7,3.19-9,3-5.7-.26-6,0a19.55,19.55,0,0,1-3,1c-1.75.59-3.51-.44-5,0s-12-4-12-4-3.68-6.13-4-7-1-3.13-2-4-.64-1.87-2-3-1.52-3.24-3-3-5,1-5,1l-1-2a22.27,22.27,0,0,0,0-4c-.22-1,1-4,1-4s-.18-2.34-1-3-3-2-3-2l-2-5,2-4,2-4s2.7-2.84,3-3,3-2,3-2l2-2s.77-2.94,1-4,.73-4,1-5,.84-5.85,1-6a16,16,0,0,0-1-3l-3-3s-.45-3.55,0-5,2-8.61,3-10,1.73-3.2,3-4a37.92,37.92,0,0,0,4-3c.09-.17,1-5,1-5s.32-3.78,0-4a37.3,37.3,0,0,1-2-4s-1.23-5-2-6-2.49-2.8-2-4,4.69-4.87,6-6,5.42-3.46,5-4-.09-3-1-4-3.39-1.53-4-2-4.49.54-5,1a5.58,5.58,0,0,1-4,2c-2.14-.06-3-1.12-5-2s-7.06-1.26-9-3a27.83,27.83,0,0,1-5-8,9.91,9.91,0,0,0-1-3,10.23,10.23,0,0,0-2-3c-.91-.93-3.17-3.36-3-4s-1.42-3.06-1-4,2-4,2-4l3-2h8s3.67-.69,4,1,2.55,5.64,3,7,2.74,3.45,3,3,4-1,4-1l5-4s4.65-2.32,5-2a36.42,36.42,0,0,0,6,2c.88.1,4.23,3.09,5,3s1.52-.73,3-1,3-3,3-3l1-4,2-2a19.1,19.1,0,0,1,4,0c1.12.27,3.61,2.09,6,2s13.31-.2,14,0,4.48,1.13,6,0,3.89-3.16,5-4,4.14-3.3,5-4,3.14-.19,4,0,4.54,4.84,5,6,6,7.87,6,8a34.74,34.74,0,0,0,3,2,9.63,9.63,0,0,0,4,0,39.26,39.26,0,0,0,4-2,9.46,9.46,0,0,1,4-1c1.85.1,3.84-.32,5,1s5,6,5,6h4l3-3,2-4,2-1s5.71,1.27,7,2,5.07,3,6,3,4.33,2.42,5,2,6.51-2.25,7-2,3,1,3,1v5l-1,5s-.94,4.29,1,3,7-4,7-4l2,2,1,9s-.4,8.65,0,9,5,5,5,5,3.11,1.68,4,2,3.55,1.82,4,3,7,5,7,5,4.1,2,5,2,6,0,6,0,6.19.19,7,0,4.52-2,6-2a13.74,13.74,0,0,0,4-1,38.12,38.12,0,0,1,0-4c.15-1,0-14,0-14a54.5,54.5,0,0,1,0-7c.3-1.85.22-8.15-1-9s-4.11-1.74-4-3-1.07-6-1-8-1.18-9.53-1-12-1.44-10.19-1-11-.81-2.81-1-3-8.46-3.14-9-3-4.27-1.48-5-2-2.24-2.21-2-3,.58-4.32,1-5,2.39-3.31,4-4,4.68-2.2,5-3,2.49-5,2-6-2.61-4.23-4-5-3.87-1.82-5-3-2.27-2-2-3,3.13-3.66,4-5,2.9-3.4,3-4a13.14,13.14,0,0,0,0-5c-.5-2-5.13-7-6-9s-2.9-4.49-3-6a12.2,12.2,0,0,1,0-4c.35-1.22.91-3.89,3-3s6.49,3.48,8,3,8-5.74,8-6,2.93-4.4,4-5a49.76,49.76,0,0,0,4-3h4l4,3s7.72,2.89,9,3,5.75.71,7,1a27.83,27.83,0,0,0,5,0l1-3,2-1s4.29-.44,5,0,5.8,1.93,6,2,4,0,4,0l2-4v-3l-1-3a20.87,20.87,0,0,1-2-3c-.13-.58,1.69-2.16,3-3s4.09-2.79,5-3,5.08-2.53,5-3,2-2.93,2-4,2-4,2-4,1.26-1.3,2,0,2.89,4.84,3,5,3.22-1.41,5-1,10-2,10-2l6-3s6.12-2.07,7-3,5-4,5-4l3-4s1.48-2,2-2,5,2,5,2h2l4-8,3-5,1-2,2,7,1,5,3,5s6.6,3.23,7,4,9,7,9,7l4,1a36.85,36.85,0,0,0,4,4,11.39,11.39,0,0,0,3,1l3,1,2-1a6.61,6.61,0,0,1,0,3c-.42.94-2.46,2.47-3,4s2.17,5.13,2,6,5.2,6.6,6,7a31.53,31.53,0,0,1,5,5,20.56,20.56,0,0,1,0,4s0,4.07,0,5,2.26,3.51,2,4,2,4,2,4-1,2.32-2,2a8.89,8.89,0,0,0-3,0l1,3,1,2a56,56,0,0,1-3,6c-.71.84-5,3-5,3s-5.09.75-5,1-2,4.78-2,6-2,6-2,6l-2,1v2s1.33,2.58,2,3,2.93.48,3,1,0,2.9-2,3-3.5-.5-5,1-3.4,1.74-3,3,1.55,3.08,3,3a13,13,0,0,1,5,1c.41.39,1.2,2.85,2,3s1.51-.75,3-2,2.12-4.44,3-4,1.46.15,2,2,2.36,4.1,2,5,.88,3.35,1,3,1.86-1.63,2-2,1-4,1-4a18.88,18.88,0,0,1,2-2c.92-.73,5-2,5-2a4.81,4.81,0,0,1,2,0,2.89,2.89,0,0,1,1,2c-.08.1-3.87,1.23-4,2s.41,2.81,0,4,0,4.39,0,5-.35,1.92,1,2,3.33-2,4-3,2.57-2.09,3-3a41.7,41.7,0,0,1,3-4l2-2,2-1,1,3v8l1,3a22.64,22.64,0,0,0-4,2c-1.26,1-3.36,2.19-3,3s-2,9-2,9-.39,6.09-1,7-3.18,7.79-3,9a10.41,10.41,0,0,1-1,5c-.57.72-1.43,2.24-1,3s2.19,5.25,2,6,.41,1.78,2,2,3-.29,3-1,0-5,0-5l2-1s2.35.4,2,1,2,5,2,5,1.1,2.23,2,2,3.21.32,5,0c2-.43,4-.77,6-1,.86,0,3.34-.5,5,0s7.25,1.66,8,2,3.47.9,4,2,3,2.32,3,3-3.06,5.8-3,6-1.33,2.57-1,3,3.9,1.11,4,1,1-1,1-1,3.74,1.73,4,2a29,29,0,0,0,4,3,6.77,6.77,0,0,1,3,1,35.39,35.39,0,0,1,3,3l-2,5,1,4s2.58,2.56,3,3,2,3,2,3l1,4s.16,1.72,1,2,3.57-.19,4,0,3-1,3-1l3-5a5,5,0,0,0,1-2c0-.65,1.51-2.22,0-3a4.4,4.4,0,0,1-2-2,4.94,4.94,0,0,1,2-2,14.92,14.92,0,0,0,4-4,6.72,6.72,0,0,1,3-2,16.68,16.68,0,0,0,2,0c.73-.08,4-1.52,4-2s1-2.23,2-2,5,2.39,5,2,3-3,3-3l1-3s2.23.81,3,1,1.17.29,3-1,3.5-3.14,4-3a23.47,23.47,0,0,1,4,3,3,3,0,0,0,3,1c1.69-.36,2.28-.08,3-1s2-6,2-6a10.71,10.71,0,0,0-1-3,54.33,54.33,0,0,1-2-7,9.65,9.65,0,0,0,1-3c.21-1.55,2-4,2-4l-2-1a37.92,37.92,0,0,0-5,0c-1.13.21-1.09,1.38-3,1s-5-6-5-6l-1-5s-3.47.71-4,0-6-1-6-1-2.32-1.46-2-2a40.43,40.43,0,0,1,3-3h10s6.46-.44,7,0,3-2,3-2a6.85,6.85,0,0,0,1-3c-.09-1.17.49-3.06,0-4a18.12,18.12,0,0,0-3-3l-6-2c-1.2-.39-2.49-1.59-4-2a16.28,16.28,0,0,1-4-2c-1.15-.7-2.44.19-2-1s2-5,2-5,2.84-1.77,3-1,5,1,5,1,5.78-2.4,6-3,5-1,5-1,4.76.52,7,1,9.13,1.25,10,1a15.22,15.22,0,0,0,3-2s-.83-1.18,0-1,5,2,5,2l2,3-1-5v-3l2-2a3.16,3.16,0,0,0,2,2,14.11,14.11,0,0,0,4,0l2-5a5.79,5.79,0,0,1,1-2c.42-.2,3.94-.59,4-1a13.83,13.83,0,0,1,1-2,12.17,12.17,0,0,0,3-1c1.18-.65,5-1,5-1a11.77,11.77,0,0,0,1-3c-.1-.56-1-3-1-3l-2-1,1-4,4,1,2,5,2,6s.13,2.87,2,3,6,0,6,0l7-1,6-5s9.49-3.88,10-4a23.89,23.89,0,0,0,4-1,31.62,31.62,0,0,1,5-1v-4s5.39,1.22,6,2,3,3,3,3l-3,3-1,2s2.36-.47,3,0,5,0,5,0h3l2,2,3,4,4,2h5l1,1,3,2,3-3s.86-1.19,0-2a15.83,15.83,0,0,1-2-3l1-3h4l2-1h3a18.43,18.43,0,0,1,3,2c.41.55,3,1,3,1s1.74-1.66,2-2-1-3-1-3a18.53,18.53,0,0,1-1-3c0-.68-.53-2.49,1-3s2.58-.93,3-2,.37-3.15,1-4,0-3.13,1-3,2.71-1.19,4-1a25.46,25.46,0,0,1,5,2c1,.48,1.89-.34,3,0s2.86.08,3-1,.65-4,1-4,0-2,0-2l2-2h2l3,3,5,4,3,2s10,1.88,11,3,8,2,8,2l-1,4s-3.55,3-3,4a12.94,12.94,0,0,0,3,3,18.47,18.47,0,0,0,6,2c2.06.28,4-1.62,5,0a15.77,15.77,0,0,1,2,4c.46,1.53.71,4.17,2,4s3.32.44,5,0a40.71,40.71,0,0,0,5-2c.46-.2,3-2,4-2s5.25,1.84,8,0a17.39,17.39,0,0,1,7-3c1.68-.18,6.12.45,7,0s5-2,5-2l5-2a8.31,8.31,0,0,1,3,1c1.23.79,8.17,3.79,8,6s1,10.87,1,12,0,8,0,8v9s-1.89,2.19-2,3-1,6-1,6-.42,1.5-3,2-10.25,2.81-11,3-6.24,2.55-7,4-3.11,3.56-2,5,3.93,4.52,4,5,1.25,6.64,1,7-.78,2-2,4-2.47,4.07-4,5-5.33,4.81-9,6-32.35,8.19-39,11a146.87,146.87,0,0,0-17,9c-3.4,2-30.76,19.55-36,24s-5.87,5.77-8,6-6.23,1-9,0-4.62-4.37-8-4-6.76,0-9,1a39.73,39.73,0,0,0-8,5c-1.35,1.34-6.42,7.39-7,10a50.21,50.21,0,0,0-1,7,7.41,7.41,0,0,0,2,4c.94,1,2.17,6,2,8s-.09,6.77,0,8-5,6.36-6,7a16.85,16.85,0,0,1-5,2c-1.63.28-6.44.32-7,0s-15.13-2.2-16-2-10.07,0-12,0-2.8-1.46-8-1-15.75,1.47-17,2-5.63,2.2-7,3-5.22,1.57-7,2-5.32,2.24-8,2-9.75.68-12,0-6.18-2.13-14-4-23.64-2.79-27-3-7.07-1.5-9-1-10.06,1.43-12,2-14.56,5.64-15,6-4.59,2.16-6,2-8.36-.43-10,0-13.83.53-15,1-3.56,1.08-4,3-2.53,7-2,9,1.25,8,2,9,1.32,4.43,4,7,6.5,7.35,8,8,3,1.49,3,3-3,7-3,7l-5,7s-2.42,2.33-3,3a6.64,6.64,0,0,0-1,3c-.17,1.08,1,3,1,3l-1,5-2,2s-2.71,2.61-4,3-3.59.34-6,2-5.88,3.53-6,4-2,4-2,4-.1,5.29,0,6,.27,3,1,4a20.48,20.48,0,0,0,4,4c.89.42,2.44,5.06,3,6s1.88,6.31,3,8,1.55,4.6,2,7a40.72,40.72,0,0,1,1,8c-.11,2.12.4,6.69,0,9s.25,5.91,0,7-.93,3-2,3-3.52,1-4,0a18.28,18.28,0,0,0-3-4,26.31,26.31,0,0,1-5-5c-1.08-1.8-5-6.34-6-8a28.32,28.32,0,0,0-4-5c-.58-.37-4-3.48-8-2s-13,7-13,7-3.14,1.29-5,1-2.13.29-6,0-6.71-3-9-4a17.46,17.46,0,0,1-6-5c-1-1.52-.82-3.51-3-4s-5.51-1.73-8-2-4.39.2-7-1-8.76-3.54-8-7,1.5-5.86,1-7a17.6,17.6,0,0,0-2-3,9.24,9.24,0,0,0-4-1c-1.62.19-5-2-5-2l-6-22s-.85-7.42-1-8-1.92-3.93-2-5a47.43,47.43,0,0,0-2-6s-.72-3.59-6-4-16-1-16-1Z"/>
            <path id="形状_14" data-name="形状 14" class="cls-2"
                  d="M1010.51,753.5l2-3,4-1-1-3-5-2-5-2h-3l-5,2h-2l-2-3v-4l1-3,8-2s2.67-5.73,3-7-1.63-3.74,0-5,7-5,7-5l2-4s2.68-5.41,2-6-1-3-1-3l3-3s8.35-8.9,10-10a26.74,26.74,0,0,1,7-4c4.2-1.66,7.12-3.52,10-4s6-.44,8-1a35.46,35.46,0,0,0,5-2l2-4a14.28,14.28,0,0,0-1-5c-.91-1.72-.87-6.29-1-9s-.26-4,1-5,5.09-2.38,6-2,3.67,2.32,5,2,5.46-2.21,6-3,6-2,6-2l5,3,4,2,3-1,2-5,1-6s1-3.14,3-3a65.67,65.67,0,0,0,10-1c1.94-.38,3.07,1.34,5,2s5.56,3.43,7,4a11.31,11.31,0,0,0,6,0c1.09-.52,10-5.18,10-6a27.53,27.53,0,0,1,1-4l-4-5-1-5,6-1h4l2-5a7.12,7.12,0,0,1,1-3c.76-.83,5-2,5-2s2.9-2.61,4-3,3.26-3.22,5-3,4.7.48,8,1,8.93.56,11,0,6.51-1.48,7-2a26.67,26.67,0,0,1,4-2,32.1,32.1,0,0,0,5,0c.61-.26,2,2,2,2l-1,3a15.32,15.32,0,0,0,3,1c1.39.26,4-2,4-2l2,6a5.2,5.2,0,0,0,4,2,35.62,35.62,0,0,0,6-1l5,1s5.34.62,6,2,7,5,7,5l1,5a11.06,11.06,0,0,0,5,1,26.1,26.1,0,0,1,5,0l-4,5s-.77,2,0,3,3.32,3.52,4,5,2,5,2,5l3,2s-3.42,14.81-3,18-2,8-2,8-8,4-8,5a54.59,54.59,0,0,0,0,6c.22.9,2,8.68,2,10a37.8,37.8,0,0,0,2,7,24.35,24.35,0,0,1,1,5c.31,1.7,2.31,3.26,5,4s4.75,1.91,6,1,4-5,4-5,3.63-3.31,5-2,7.08,3.22,9,4,6.09,1.31,9,3,4.75,1.48,6,3,3.75,5.54,5,7,6.72,4.41,8,5,8,6,8,6,3.91,2.51,5,3,5,2,5,2l2-2-4-4-2-2s5.92-2.46,8-2,4.71-1.37,6-1,2.54-1.46,3,0-1,6-1,6-.33,3.21,1,4a12.07,12.07,0,0,0,4,1s.72,2.56,0,4a27.11,27.11,0,0,1-3,4l-2,5s3.07,0,4,0,3-3,3-3l2-2,4,1,1,5s.47,2.62,2,3,7.09,1.45,8,2a26,26,0,0,0,5,2l7,2,5,13s-1.42,4.78-3,6-7.25,7.23-8,9a26.5,26.5,0,0,0-1,6l-3,7s-.69,5-1,7-.87,5.78-2,8-3,4.62-4,7a16.53,16.53,0,0,0-1,8c.4,1.55,2.13,6.16,3,7s4,3,4,3l5-1,1,4-4,3h-4l-4-1h-3l-4,6-1,2a12.61,12.61,0,0,0-2,2c-.59.87-1.41,1.88-1,3s2,4,2,4l-1,3s-2.63.67-4,0-5-3-5-3l-3,1-4,2v4l2,3-3,1h-2l-2-3-3,1s-.75.32-3-1-5-2.77-6-4a23.35,23.35,0,0,1-2-3v-3l-3,3s.84.84-4,0a32.78,32.78,0,0,1-5-1l3-4,1-1-5-4-4-1v5l-12,2s-8.45,4-9,5-.63,2.41-2,3-6,2-6,2h-8l-3-1-2-8-2-5-4-1v6l1,1,1,2-1,2s-3.36,1.29-4,1-1.61.06-3,1-4,3-4,3-2.54.11-3,1-.52,3.06-1,4-1.6,3.13-2,3a12.9,12.9,0,0,1-3-1c-.54-.45-2-2-2-2a22.46,22.46,0,0,0-1,3,29.81,29.81,0,0,0,0,5s-3.67-.61-4-1a11.47,11.47,0,0,0-2-2,10.38,10.38,0,0,1-2,1l-1,2h-3s-9.69-.82-12-1-4.15-1-5-1-5,2-5,2-6.9.55-7,1-4,1-4,1l-2,3,1,2,4,3,7,2,5,2,1,5-1,5a10,10,0,0,0-3,1c-.81.61-8.66,1.39-10,1s-5.84-.06-7,0-4,3-4,3-1.35,2.2,0,2,10,1,10,1l3,1,2,4v3l4,1,5,1h4l-1,4-3,1v3l2,1v5s3.36-.24,3,1-1,7-1,7l-2,3h-4l-2-3h-3v-2l-3,3-3,2-3-1-1-1-1,1v4a10.39,10.39,0,0,0-3,1,10.2,10.2,0,0,1-3,1l-1-1-2-1-2,3a6,6,0,0,1-3,1c-1.47,0-2,0-2,0l-2-2-1,4-2,3-3,1s-1.78,2-1,3a32.67,32.67,0,0,0,3,3l-2,3-5,6h-3s-2.66-1.34-3-2a31,31,0,0,1-1-3l-1-3s-.24-2.59-1-3-3-2-3-2l-1-2,2-3v-3a5.48,5.48,0,0,0-2-2c-1.06-.42-3.09-2.47-4-3a34,34,0,0,0-3-2c-1.47-.76-1.86-2.21-3-2s-3.6,1-4,1-2,0-2,0l-1-3s3-1.16,3-2,1.22-2.49,1-3-.45-2.53-1-3a23.35,23.35,0,0,1-2-3,22.09,22.09,0,0,1-4-1,21.42,21.42,0,0,0-6-1,29.52,29.52,0,0,1-5-1h-2a12,12,0,0,0-2,1,13,13,0,0,1-5,1,27.61,27.61,0,0,1-5-2c-1.44-.7-3.23-2.19-3-3s1.11-2.07,0-3a24.07,24.07,0,0,0-3-2s-2.48,0-2,1l2,4-2,3s.78.7-1,0a15.42,15.42,0,0,1-4-3,16.51,16.51,0,0,1-1-3,18.78,18.78,0,0,0,0-3c-.19-.89,3-9,3-9a37.92,37.92,0,0,1,0-5c.22-1.28,3-10,3-10s2-5.74,2-6a26.51,26.51,0,0,1,2-3l2-2s2-1.18,2-2-.19-6.06,0-7,0-6,0-6l-2-1-2,1-2,3-2,4-2,3-2,1h-3s-2.29-1.47-2-2a45.13,45.13,0,0,0,1-5l1-3,2-1,2-3a2.13,2.13,0,0,0-2-1,30.53,30.53,0,0,0-5,1s-2.1,1.43-3,2-2.21,2.9-2,3,.24.94,0,2a5.38,5.38,0,0,1-1,2l-3-1a32.48,32.48,0,0,1-1-4,29.24,29.24,0,0,0-1-4l-3,3s-2.9,1-3,2a4.26,4.26,0,0,1-1,2s-1.34-3.43-2-4-1.78-2.24-3-2a20.56,20.56,0,0,1-4,0l-1-2,1-3a22,22,0,0,0,3-1c.37-.28,3,0,3,0l2-1,1-2a1.73,1.73,0,0,0-1-1c-.77-.29-3-.23-3-1v-5l2-2,2-1-1-4v-2l5-4,4-2,3-1,2-4a4.5,4.5,0,0,0,0-2,26.38,26.38,0,0,0-1-3l2-2h3a12.54,12.54,0,0,0,0-3c-.23-.77-2-4-2-4a7.61,7.61,0,0,1-2-2,8.56,8.56,0,0,1-1-4c.17-1,1-6,1-6s-2.65-1.14-3-2-1-3-2-4-3.64-4.68-5-5-3-3-3-3v-3l2-3,2-3v-3s-1.49-1.64-2,0-.53,4.07-2,3-3-1-4-2-3.56-2.19-4-3-5-4-5-4-5.8-4.73-7-5-6.13-3.28-7-4-4-3-4-3l-1-4-1-4-1-2-1-4Z"/>
            <path id="形状_15" data-name="形状 15" class="cls-3"
                  d="M1062.51,654.5l-3-1-2-2-3-4,1-5-1-3s.34-1-1-1-4,2-4,2-2.88-.49-3-1-2.61-3.41-3-5-3-6-3-6l-2-1-3,5v2l-2,1a4.17,4.17,0,0,1-2-1,11,11,0,0,1-1-3l1-2,2-1s.69-2.26,1-3-.23-3.84-1-4a14.66,14.66,0,0,1-3-2s-.6-1.77-2-1a9.73,9.73,0,0,0-3,2c-.48.7-1,3.23-2,3s-2-.62-3-1l-4,1s-.36.74-2,1-5-2-5-2l-3-3s-1.76-3.32-2-4-.8-1.91,0-3a27.32,27.32,0,0,0,2-5s.24-3.6-1-4-4.83-1.82-6-2-4-1-4-1-1.19-1.27,0-2a39.19,39.19,0,0,1,5-2l2-1s-.79-1.52-1-2-1.57-.55-2-2,.43-2.7,0-4-1-4-1-4v-2a32.1,32.1,0,0,0-5,0,10.77,10.77,0,0,1-3,0v-5a1.57,1.57,0,0,0,0-2c-.78-1.2-1.59-1.16-2-2a8.26,8.26,0,0,0-2-2s1.52-2.35,2-2,4,0,4,0l-2-5-3-4-1-2s-1.59-4.29-2-5a20.7,20.7,0,0,1-1-3s2-2.81,3-3,3-2,3-2a16.39,16.39,0,0,1-3-3,22.47,22.47,0,0,0-3-4,12.62,12.62,0,0,1-3-5c-.56-1.91,1-6,1-6l1-5s1.15-3.44,3-4,11-8,11-8l6-3,4-3,1-3v-1a17,17,0,0,1-3-1c-.82-.48-4,1-4,1l-2,2-1,1h-3l-2-3-4-4a16.77,16.77,0,0,0,1-3c.09-.85.28-3.44,1-4a14.39,14.39,0,0,0,2-3s1-.58,0-1-3.53-2.25-5-2-2.31.94-3,0-.79-2.69-2-3-1-2-1-2-.46-1,1-1,5.06-1,6-1,6.53-.2,7-1,5.3-4.6,6-5,3-3.45,4-4,3-2,3-2,3.7.25,5,1,10.61,4.21,11,5,2.35,0,3,1,.39,4.42,0,5-.72,4.46-1,6-.83,3.86-1,5,0,6,0,6v4l5,2,4-3s1.16-5.18,2-6a6.72,6.72,0,0,0,2-3c.33-1.23-.18-6.54,0-7s.34-4.05,1-5,3.48-4.9,4-5,3.48-2.79,4-3,5.62-3,7-3,1.65.47,3,0,5,.55,6,1,4,5,4,5a50.25,50.25,0,0,0,5,1c.59-.06,4,1.61,4,3s6.07,14.38,6,15,10,7,10,7,4.72-.6,6,0a11.73,11.73,0,0,0,6,0c.92-.44,5-3,5-3a55.13,55.13,0,0,1,7-1c3-.15,8-2,8-2l7-2s6.86-.51,7-1,2-1.58,3-2,5.3-4.17,7-4,5-1,5-1,1.29,4.53,3,5,6.21,2,7,2,8-3,8-3l4-2h6l4-4,2-5s2-2.83,2-4-1-3-1-4-.7-4.22-2-5-.92-2.41-2-3-1-3-1-3l9-9-1-5,1-6s-1.16-.6,0-2,5-5,5-5,9.46-.34,10,0,9,3,9,3,6.29,2.28,7,3l6,6a28.32,28.32,0,0,0,3,3c1.2.91,2.87,1.23,5,3s6.6,3.27,8,4a20.59,20.59,0,0,0,6,2c1.48.07,4.22-.81,5,0s2.92,1.34,4,3,4,6,4,6a19.89,19.89,0,0,0-2,7c-.33,3.94-5,8.2-6,10s-2,2.79-2,6,2,9,2,9,4.33,1.33,5,2a24.07,24.07,0,0,0,3,2l2,6,2,3,7-4s4.86-.78,6,0,2.56,1.8,4,3a20.21,20.21,0,0,1,4,4c.85,1.35,2.26,5,2,6a35.21,35.21,0,0,1-3,5,9,9,0,0,1-3,2c-.93.36-2.47-3.25-4-3s-7.87,1.53-9,2-5.38,6.78-6,8,.1,4.48,1,5a13.55,13.55,0,0,0,6,1c2.17-.18,3.68-1.44,5-2s4-2,4-2l4,2,4,3s1.41,2.59,1,3-3.07,4.84-3,7a112.22,112.22,0,0,1-1,12c-.41,2.92-1,9.74-1,11s-1.47,3.33-2,4-3.54,1-3,2,3.9,5,4,6,1,2.58,1,4-6,13-6,13-2.35,3.11-3,4-5,4.37-5,5-.79,2.85-2,3-4,2-4,2l-3,1-4,2-1-3a4,4,0,0,0-3-1,3.82,3.82,0,0,0-3,2c-.26.56,1,3,1,3l1,3-6,2c-.42.13-1.66,2.17-2,3s0,5,0,5l-1,3h-8l-2-2s-1.24-2.17-1-3a2.68,2.68,0,0,0-1-3c-1.14-.65-2.56-2.31-4-2a4.52,4.52,0,0,1-4-1c-.85-.91.26-1-2-2s-2.77-2.42-4-2-4.55-1.31-6,0a11.58,11.58,0,0,1-4,2l-4-3v-5l-5,1h-3v-2l2-2s.28-.74-1-1-6-1-6-1l-3,1-3,3s-8.25.81-9,1-9-.49-10,0-4-1.45-5-1-5,2-5,2a19.34,19.34,0,0,1-3,3c-1.33.93-4.37,1.43-5,2s-1,4-1,4l-3,4s-5.14,2.24-6,2-3.43-.65-4,0,0,3.49,0,4,2.27,1.64,3,3,0,7,0,7-5.76,5.26-6,5-7,2-7,2-3.49,1.07-4,0-3-3-3-3l-2-2s-1.44-1.18-5-1a80.17,80.17,0,0,0-9,1c-.94.22-5,1-5,1s-1,5.22-1,6-1,6-1,6l-5,1-3-1s-1.45-2.27-2-3-.63-.67-2-1-2.48.4-4,1-3.36,1.91-4,2a15.37,15.37,0,0,0-3,2,3.41,3.41,0,0,0-2,0c-1.27.31-1.91-.53-3-1a21.94,21.94,0,0,1-2-1Z"/>
            <path id="形状_16" data-name="形状 16" class="cls-7"
                  d="M986.51,542.5l-4-4-3-2-5-3a20.5,20.5,0,0,1-4-3,71.06,71.06,0,0,1-4-6s-3-1.6-5-1-6,1.81-7,3-3.77,3.71-5,4a20.17,20.17,0,0,1-5,1c-2,0-4.07-3.71-6-4s-6-3-6-3-2.51-2-4-3-2.21-3.92-4-4-5-2-5-2v-5s-2.29-2.08-3-2-7,0-7,0a34.9,34.9,0,0,0-4,1,36.87,36.87,0,0,1-5,1l3,4,5,1s2.92.08,2,1l-3,3-4,3-1,3s2.27,4,3,5,3.44,1.65,4,3,3.86,8.38,4,10,0,5,0,5a11.92,11.92,0,0,1-5,1c-2.74-.08-6.18.65-9,1s-5.93.36-7,0-3.67-2.53-5-3-2.46-3.32-5-5-5.07-3.55-5-5a57,57,0,0,0-1-7,55.2,55.2,0,0,1-1-6c-.08-1.83,0-7,0-7v-2h-23l-4,1-2,6s-2.2,7-3,8-5,5-5,5-10.11,5.1-10,7,2,5,2,5,2.3.17,2,2-.35,4.35-2,5-6.71,4.9-8,6-3,5-3,5v4a1.3,1.3,0,0,1-.42,1.81,1.29,1.29,0,0,1-.58.19,30.07,30.07,0,0,1-6,0l-2-6-3,1-2,5-2,3-8,3-3-3a45.32,45.32,0,0,1-3-4,24.43,24.43,0,0,0-5-5c-.79-.32-4-2-4-2l-5-2-1-4-4-3a46.33,46.33,0,0,0-5,0c-1.85.17-6,1-6,1a43.05,43.05,0,0,1-7,0c-2.46-.35-10,6-10,6a11.91,11.91,0,0,1-3,2c-1.65.73-4.15,1.93-6,3s-4,5-4,5,1.91,4.14,0,5-8,2-8,2l-4,3-4-4v-9l-4-3-4-5s-3.66-1.19-5-1-3.08.23-4,2-5,6-5,6-1.18.55-5-1-4.93-2.77-7-3-9,0-9,0-7.41,3-8,4-3,5-3,5-2.52-.09-4,0-4.88,6.93-7,9-9.61,10.46-11,12-6,8-6,8v9l-8,8h-5l-3-5h-4l-5,2s-3.6,2.69-5,3-4.63-.31-6,0-5.14-.31-6,0a19.33,19.33,0,0,0-3,2s-1.75,3.48-1,4,4,3.18,5,4,6,6,6,7,4,5,4,5l5,1h2l4,5-1,16-1,3-3,1a18,18,0,0,1-3-2c-.77-.79-4-4-4-4h-3l-7,8s-4.93,4.61-6,6a23,23,0,0,1-3,3s3.92,4.77,4,6,5,9,5,9l4,6-1,11v4s-.14.92-2,1-8-2-8-2l-4,1-5,3s-5.64,2.28-6,4-1.64,2.69-1,4a12.21,12.21,0,0,0,3,3l-1,4-5,3s-6-.14-8,0-7,1-7,1-2.19,7.63-3,9-1.19,7.08-1,9,2,9,2,9,5,6.45,9,9,8.21,7,11,8,9.09,6.55,10,7,9,5,9,5,7.7,3.57,9,5,3.53,3.37,6,3,6-1,6-1l7,5,5,6,1,5a15,15,0,0,0,0,3c.19,1,2.56,2.31,4,2s3.78-.88,5,0,5,3,5,3a45.39,45.39,0,0,1,2,6c.19,1.44,2,8,2,8s-.82,6.08,0,8,4.88,6.11,5,7,3.35,2.25,4,3,.57.53,3,1,4.88-.47,7,0,7,0,7,0l1,4-5,5-5,2-4,2a9.07,9.07,0,0,0,4,2c2.45.52,7,1,7,1l5,4,1,2v4l-1,5-3,5-3,4-5,3-8,3s-4-.64-5,0-6,1-6,1l4,5,4,7,5,3,5,1,1-3-1-4,3-4,8-1,5,1,3,2,1,6s-.22,3.12,2,3,6-3,7-3,6-4,6-4l5-1,3,2,3,3h5l1-1,2-3,1-3,1-2a8.4,8.4,0,0,0,3,0c1.52-.3,11,2,11,2l9,1,9-2,5-3s-.39-2.93,1-3,4-2,4-2l3-1,4,6,4,5,3,4s2,3.22,3,3,2.19.62,3,0,1.41.11,3-1,5-3,5-3,3.59-.41,4,0,2.62.89,3,2,4,5,4,5,3.54-.29,4,0,2-2,2-2l3-4s-.72-2.2,0-2,9,3,9,3,5.18,3.28,6,3,1.94.79,3,1a37.92,37.92,0,0,0,5,0l3-1h3l1,2v3l-1,4-1,4c.67,0,1.34,0,2,0,.92-.06,1.76,1.15,3,0a8.68,8.68,0,0,0,2-3l3,1,1,2,1,3v13l2,3,1,1,3,3h2l4,1,2,3,5,3,2,3s4.08,1.36,5,1,8,0,8,0l8-2,5-1,1-4v-16l1-5a31,31,0,0,1-1-3c0-.5,0-5,0-5l-1-2-4-2-1-9v-6l-1-5v-13l-3-2-6-1-5-2-3-3-1-2v-3l2-3,3-2,2-1,2-1,1-2,1-3v-3l-1-3-3-2s-.78-1.92-2-2a3.18,3.18,0,0,1-2-1l-1-2,1-4s2-3.73,3-4a2.52,2.52,0,0,0,2-2,8,8,0,0,0-1-3v-4s-5.55-7.34-6-8-2-4-2-4l-1-3s.53-1,1-2a7.32,7.32,0,0,1,2-2l3,1,3,1,3,1,3-2,3-2,1-3,4-3,4-4s-.78-1.5,1-1,4,1,4,1a28.44,28.44,0,0,0,3,2c.58.19,1.51,1.38,3,2s7.09,3.09,8,3,6,0,6,0h3s3.17-.7,3-1a8.36,8.36,0,0,1,0-2l1-2,4-1,3,3h4s1.86,1.24,3,1a23.45,23.45,0,0,0,3-1l1-3,1-1-1-3-2-2-1-2,1-3,2-1,4-2,2-1,2-1,2-2,1-4,2-4a2.57,2.57,0,0,0,2,0c1.15-.45,2,2,2,2l2,2h4l9-1,6-3,4-1,4-3a23.35,23.35,0,0,0,3-2c.45-.51,3-3,3-3l1-2,2-2,3-1,2,1a.8.8,0,0,0,.51,1,.82.82,0,0,0,.49,0c1.26-.17,4-2,4-2l1-1,1-2,2-4,1-3,2-2,1-3,3-2,2-1v-2l-2-2h-2s-2.89.71-3,0-2-2-2-2h-7l-3,1s-1.32,1.71-2,1a25.23,25.23,0,0,1-2-3l-1-7s-.73-1,1-1a56.71,56.71,0,0,0,7-1l3-2,1-4,1-4v-2l1-2,3-2,4-3,2-5v-8l2-2,4-3,4-3,2-3s2-3.1,4-4,7.08-3.06,9-4a28,28,0,0,1,7-2c1.93-.29,3.89-1.3,5-1s3.25.77,4,0,2-2,2-2,1.1-1.32,1-2a9.55,9.55,0,0,0,0-2c-.23-.57-.29-2.87-1-3s-1-1.3-1-2,.12-4.59,0-5,1.31-2.22,1-3-.63-3.17,0-4a9.4,9.4,0,0,0,1-3l-1-1-2-1-1-3-1-3,2-3-1-3a1.79,1.79,0,0,0-1-1c-.89-.49-4,1-4,1l-3,1-4-6a20.7,20.7,0,0,1-1-3c-.08-.77-3-4-3-4h-1l-3,4v2l-1,2h-3l-1-3v-2l2-2,2-2v-2s-1.81-2.52-2-3-1-2-1-2l-3-1-4,1v2l-1,1h-8v2l-3-1a17.76,17.76,0,0,0-2-1c-.71-.26-4-2-4-2l-2-3-1-2,1-3,2-3-1-3-1-4h-4l-3-1h-4l1-2,3-3h4l1-1v-2l-3-2-1-4,1-3-1-3h-7l-1-2v-5l-2-2-1-2v-2s2,.06,3,0,2-2,2-2l-2-3s-2.78-3.23-3-4a44.41,44.41,0,0,0-2-4l-2-4v-2l3-2,2-2,1-1Z"/>
            <path id="形状_18" data-name="形状 18" class="cls-3"
                  d="M428.51,1684.5l6-5,9-5,9-4,5-4,4-4c1-1,7.24-3.75,9-5s8.32-2.9,11-3a91.94,91.94,0,0,0,11-1c1.49-.43,3.86.49,4-5a101.47,101.47,0,0,1,1-11s1.56-4.79,3-6,7.29-8.87,9-11,7.14-5.78,8-7,4-6,4-6,0-2.74,0-6-2.33-8.26-3-10a33,33,0,0,0-4-6c-.64-.77-3.79-3.93-5-5s-5-5-5-5l-2-5v-7l-3-1s-2.23,2.85-4,3a15.53,15.53,0,0,1-5,0c-2.07-.38-5-5-5-5s1.34-4.29,2-5,5.66-3.32,7-4,5.38-.52,8-1,9,0,9,0l3,1,1,5v2l6,1,5-1,6-3,7-11v-2l5-1,3-4,1-3,4-4h3l1,3,3-3,1-4v-10l1-3,3-2,5-2,7-12,3-5v-4h-2l-5-2-1-2,4-4,5-5s3.79-1.44,5-2,2-1,2-1l-5-2h-5l-5,2-5,2-4-3-2-4-1-6,2-4,6-6,3-3,2-4,3-3,6-2,6-1,17-10,7-2,6-5,8-4,6-5,5-4,6-6,4-1,4,3,5,5,3,4,3-1v-7a34,34,0,0,1-1-5c-.09-1.74.09-8.46,0-10s-.06-10.27-1-12-.53-8.06-1-9-4-4-4-4l-6-3-5-4s-1.43-3.9-1-5,2-8,2-8,.28-2.31,2-3a71.25,71.25,0,0,1,9-2c1.73-.28,9-2,9-2h5l1-3-4-7-2-3,2-3h5l7-1,8-1,4-2,2-1v-5l3-4,3-3,6,1,6,3,4,1,4,1,6,1h11l6,2a52.91,52.91,0,0,1,7,1,34.9,34.9,0,0,0,4,1v12l3,3,3,1,4-3,3-2,1-3h2l1-10v-16l6-3,8-1,6-1,2-3,2-3,1-6,1-5,3-2h8s6.94-2.88,8-4,7-7,7-7,.29-5.31,3-7,8.54-7.42,10-8,12-5,12-5l10-5,7-2,5-4,2-3,3-5,3-5,7-2a58.78,58.78,0,0,1,7-2,58.25,58.25,0,0,0,7-2l3-3-2-2-1-2-2-2,2-1,5,2,1,1h4l2-2,2-3,2-4-1-3-2-2-1-4,3-5,7-3,4-1v-6l3-7,2-3,3-1,2-1-1-2-2-2-2-3,1-4-2-5-1-3a8.41,8.41,0,0,1-3-2c-.92-1.19-3.78-3.24-5-5s-2.4-3.07-3-4a11.77,11.77,0,0,1-1-3l-1-2,4-3,5-1,4-2,3-4,1-4-4-5-3-2a23.42,23.42,0,0,1-5-2c-1.48-1-4-3-4-3l-4-1h-5l-5-1s-4-4.86-5-6-5.58-3-7-5-7.84-4.32-9-5-5-3.35-6-4-4.66-1.23-6-2-7-3-7-3l-8-1s-3.26-3.4-5-3-8,0-8,0l-4,2-3,4-3-1-9-2-9-6a22.59,22.59,0,0,1-15-7l-5-3s-3.06-1-5,0-7,3-7,3h-3l-4-5-4-2-5,1-3,5-3,2h-4l-4-4h-4l-3,2-2,5-2,3-3-1h-7l-5,2-1,4-4,1-6,1-7,1-7-1s-3.61,0-5-1-5.31-2-6-4-.67-4-2-5-4-5-4-5v-3l-2-2h-5l-3-1-1-4,2-2v-4l-4-4-2-5,2-6a34.2,34.2,0,0,1,4-3c1.33-.69,6-5,6-5l1-4,1-11,2-1-1-3-3-2-1-3,1-8,4-6,4-4,1-2,2-4v-4l-2-4-1-4-2-4s-2.34-.78-2-2,1-3,1-3l8-6,2-2-1-4-4-2h-2l-5,3h-8l-4-3-5-3-2-1s-2.76-4.35-3-5-2.17-2.85-2-4-1-4-1-4l-2-2h-4l-6-2-3-4-2-4-1-4,2-1,8-1c.7-.08,7-4,7-4l6-3,1-4,1-4,2-3,1-4-1-3-4-4-3-2h-5l-4-2,4-3,6-1s4.53-2.54,4-4a33.92,33.92,0,0,0-2-4l-3-2s-4.14-.3-5,0-2.52,2.09-5,0-8-6-8-6-2.51-3.17-3-4,0-7,0-7l-1-6-1-4-2-4-4-3-5-1-5-1-2-3,1-3-2-4v-2l-4-3-3-3-3-3h-8l-3-1-6-3-5-3s-7.32-3.42-8-4-6-3-6-3-7-6.09-8-7-12-8-12-8l-4-6-2-3-6-2-6-4-6-3-8-3-4,1-5,1-6,1h-5l-1-2,2-4,4-2-1-5,4-3,9-3,5-1,5-2-1-3-4-1s-2.8-2.52-5-3a23.42,23.42,0,0,1-5-2l-2-1,2-5,2-5v-3l-2-4,2-3h4l2-7v-7l-1-7-5-3-7-1-8-2-3-2-1-5v-6l-1-4-8-2-8-1h-9l-9,2-5,1-4,1h-3v-4l-1-1-1-3,7-6,10-8,8-1h8l3-3,3-6-3-3-3-3-4-2-4-5-1-4,1-3-3-2-3-3-2-4v-2l-4-1-5,2h-3s-5.21-.24-7-1-6-3-6-3l-4-1h-7a32.38,32.38,0,0,1-7,1c-2.41-.14-4.81-1.89-6-3s-3.9-3.85-4-5a11.39,11.39,0,0,0-1-3h-6l-7,1s-4.61.35-9,1-14,1-14,1l-5,3s-2.86.7-3,0-2-5-2-5l-6-1-5-1-2,5-5-2h-6s-7-1.73-9-2-6.36-.94-8-1-7,0-7,0-1.55.06-3,0-3-2-3-2v-4l5-1v-3l5-4,3-4h13l6-3s7.65-2.83,9-3,10.73.17,12,0a109.28,109.28,0,0,1,12,1c3.06.42,3.92-.42,6,0s7-1,7-1l11-2,3-2-1-2-4-3-2-1,1-7,2-5,3-5s1.23-1.84,0-3-5-2-5-2l1-5,6-4,6-4,3-2,2-7s-1.95-5.05-2-7-4-7-4-7l-2-4-2-6-3-1-1,4s-3.41,3.25-5,5-6.46,3.21-8,5,.3,3.57-3,4-6.34,2.21-8,0-2.75-2.75-3-5-3-9-3-9-.24-5.12-1-7-2-6-2-6a29.66,29.66,0,0,0-4,0c-1.9.15-3.2.09-6-2s-1.38-2.47-5-4-1.87-1.94-5-2a18.78,18.78,0,0,0-3,0s-6.4,6.44-8,9-3,5-3,5l2,2s.66.19,0,2-6,9-6,9l-11,15-5,6-1,3h-10l-1-6v-3l-3-5-1-5-2-7-3,1-9,3a7.16,7.16,0,0,0-3,1c-1.55.93-2.61.54-5,1s-6-1-6-1l-3-2v3l-1,3-2,4a.78.78,0,0,1-1,1c-1.3-.12-2-2-2-2v-4l-1-4s-2.4,1.13-3,1a21.29,21.29,0,0,0-4,1l-6,3-3,4-3,6-5,1-9,1-8,1-4,2-3,7s-2.86,3.93-4,4-4.38,2.34-7,2-7-1-7-1l-3-6-2-5-2-4-1-3h-5l-4,1s-1.42,2.23-3,2-3.39.09-5-1a8.22,8.22,0,0,1-3-3c-.72-1.27-3-12.28-4-13s-1.7-4.66-2-6-5-15-5-15l-2-3-3-2h-6s-.78.68-3,0a45.7,45.7,0,0,1-5-2l-1-5-5-1-5,1s-3.91-1.46-5-3-5-4-5-4-2.76,1.95-3,3-1.9,3.39-2,5-4,5-4,5l-6,1s-12.47,6.88-14,8-4,4.52-5,6-.85,6.86-2,10-1.55,10.39-4,11a26,26,0,0,0-5,2s2.5,5.58,2,7-2.6,9.34-5,12-7.1,7.66-7,9-6.56,5.36-8,6-5.53,2.85-6,4l-2,5,2,8,6,2s3.37,1.17,6,2,8.22,5.34,9,6,4,13,4,13l-2,5-6,17-5,5s-2.8,5.66-3,7,.46,3.77,0,6-.72,3.26,1,5,7,2,7,2l3,2,2,3q-.08,1.5,0,3c.06,2.86-1,3.31,1,6s2.33,3.48,4,6,4.5,3,6,5a26.54,26.54,0,0,0,4,4v5l-1,14v5l-7,3-5-1-2,5-2,8-2,4s-3.16,2.91-3,4-2,4.55-2,6,0,3,0,3,3.47,2-5,1-11-1-11-1-2,1-4,2,2.19-2.25-2,2-.25,2-5,5q-2.42,1.62-5,3h-8l-10,14-3,6-3,7,1,7,3,10,5,2,3,2,2,9,2,12-1,8-3,10-2,11v5l5,3,4,8,2,9s-2.48,11.82-2,13,0,9,0,9l1,5,3,7s4.1,4.39,4,5,2,4,2,4a13.84,13.84,0,0,0,5,1c1.67-.08,3.34-.08,5,0l4-5h5l10,2,5,2a10.59,10.59,0,0,1,4,3,24,24,0,0,0,4,4l8-3h6l1,3,2,1a8.87,8.87,0,0,0,4,1c1.67-.2,13,1,13,1s8.42,2.7,9,3,6,2,6,2l5-1,7,6h7l14-1a57.75,57.75,0,0,1,6,1c1.42.45,7.32,3.43,9,3s7.81,5.36,9,6,4,5,4,5-.4,4-2,5-1.36,3-4,4a42.91,42.91,0,0,0-7,4l-3,5v8a7.06,7.06,0,0,0-3,3c-.76,1.87-1.12,4.56-2,6s-.59,5.68-1,7,2,7,2,7l-1,6-5,4-9,1-4,3v3l-3,5-3,4s-3.42.85-3,3,1.32,7.64,1,9-4,11-4,11l-6,4-10,13-4,5,2,3,5,1,6,1,1,3s3.08,2,4,2,3,0,3,0l2,3,4,5,3,4-4,5s-1.92,2,0,2,6,0,6,0l2-4,5-4,1-4,6-1s4.94.22,8,0,10-1,10-1,6.92-1.6,9-2,9,0,9,0l3,3,5-2a63.41,63.41,0,0,0,1-7,48.76,48.76,0,0,0-1-6l3-2s2.2-.47,3,1,1.08,3,2,5,6,6,6,6,4.22,3.08,5,3a57.75,57.75,0,0,1,6,1l1,3-5,3s-.63,2.89,0,4a50.85,50.85,0,0,1,2,6l11,8,7,9,8,6s4.8,2.4,7,5,5.69,4.22,5,5-4,8-4,8a36.87,36.87,0,0,1,1,5c-.07.76,2,6,2,6s0,2.37,0,4,3,4,3,4a36.57,36.57,0,0,1,5,3c1.06,1,6,3,6,3l5,3,5,3,4,8,1,7s-3.15.41-4,3-3.59,7.31-5,8l-8,4a101.75,101.75,0,0,1-2,10c-.94,3.11-3,13-3,13l-1,7,5,5s3.47,1.25,5,2,2.26,1,6,1,6,.13,7,1,3,5,3,5l-3,10s3.43,7,3,9,.43,6.55,0,8,3.73.58-1,3-2-.13-6,3a36.59,36.59,0,0,1-4,3s-2.38-2.22-2,2-.38,4.21,0,7,1,6,1,6a51.1,51.1,0,0,0,7,0c2.19-.3,6-1,6-1v5l1,6-7,5-4,3a36.54,36.54,0,0,0,1,4c.42,1-.27,1,1,3a43.44,43.44,0,0,0,3,4l-1,4s-2.91,1.67-3,3a12.31,12.31,0,0,1-2,5c-.73.84-2.62-.14-3,3s-.41,3.16,0,5a13.72,13.72,0,0,0,3,7c2.45,3.06,4,7.26,4,9a11.92,11.92,0,0,0,1,5c.9,2.3,1.52,3.46,2,5s0,5,0,5l-6,6-5,3a34.66,34.66,0,0,1-5,3,10,10,0,0,0-4,4s4.21,5.91,4,7,1,6,1,6v4l-6,3s-1.37,4.31-2,6,.36,5.15,0,7,1.16,6.06,0,7-2.05,1.5-2,4,2.07,5.11,0,5-6,0-6,0l-3,1-4,4-2,3-7,1a19.21,19.21,0,0,0-4,1c-.7.48-1,5-1,5l1,8-4,2-5,1a37.92,37.92,0,0,0-4-3c-1.47-.86-9-3-9-3s-2.54-.81-4,0-8,6-8,6-2,.59,0,3,1.85,3.88,3,5,1.26.52,2,4,1.93,3.64,2,7-2.83-1.58,1,5,3.78,6.77,5,8-.11,3.19,4,3,7.13.45,8,0,.09-1.55,3-1a14.45,14.45,0,0,1,7,3c1.74,1.52,3.62,2.77,4,4s3,6,3,6l5,4,5-2s5.42-1.44,7,0,7,6,7,6l1,11,2,9s3.39,2.89,0,4-4,5-4,5l3,7,6,7,7,6,7,8-2,5-2,7s.9,5.29,0,6,0,5,0,5,7.37,6.22,8,6,10-3,10-3a31.07,31.07,0,0,1,9-1c4.16.33,11.93,1.55,14,2s11,8,11,8,3.69,7.12,4,8,0,5,0,5,4.12,6.32,5,6,10,2,10,2l3,4s.06,4.14-1,5-2.94,3.57-2,5,2.44,5.57,5,8,5.49,6.94,8,8,10,3,10,3l5-1,4,6,3,12s2.83,7.68,2,10c-.81,3-1.48,6-2,9l-1,8,7-1,10-7a35.36,35.36,0,0,0,6,0c1.44-.33,8,2,8,2l2,5Z"/>
            <text id="龟湖镇" class="cls-8" transform="translate(610.3 1841.92)">龟湖镇</text>
            <text id="仕阳镇" class="cls-8" transform="translate(906.3 1788.92)">仕阳镇</text>
            <text id="雪溪乡" class="cls-8" transform="translate(1069.3 1649.92)">雪溪乡</text>
            <text id="东溪乡" class="cls-8" transform="translate(1131.3 1478.92)">东溪乡</text>
            <text id="柳峰乡" class="cls-8" transform="translate(1285.3 1547.92)">柳峰乡</text>
            <text id="雅阳镇" class="cls-8" transform="translate(1497.3 1547.92)">雅阳镇</text>
            <text id="彭溪镇" class="cls-8" transform="translate(1801.3 1415.92)">彭溪镇</text>
            <text id="泗溪镇" class="cls-8" transform="translate(1424.3 1230.92)">泗溪镇</text>
            <text id="风垟乡" class="cls-8" transform="translate(1181.3 1147.92)">凤垟乡</text>
            <text id="筱村镇" class="cls-8" transform="translate(998.3 1017.92)">筱村镇</text>
            <text id="南浦溪镇" class="cls-8" transform="translate(1137.3 792.92)">南浦溪镇</text>
            <text id="包垟乡" class="cls-8" transform="translate(1102.3 568.92)">包垟乡</text>
            <text id="百丈镇" class="cls-8" transform="translate(750.3 711.92)">百丈镇</text>
            <text id="三魁镇" class="cls-8" transform="translate(988.3 1415.92)">三魁镇</text>
            <text id="大安乡" class="cls-8" transform="translate(846.3 1337.92)">大安乡</text>
            <text id="西旸镇" class="cls-8" transform="translate(668.3 1539.92)">西旸镇</text>
            <text id="罗阳镇" class="cls-8" transform="translate(437.3 1145.92)">罗阳镇</text>
            <path class="cls-2"
                  d="M422.12,167.28v5.35l-.39,4.57-1.89,4.37-.78,3.13,3.06,4.17,3.2,3.46L428,195l2,2.09-.72,9-1.89,9.45-2.09,2.94h-2.8l-1.17-.91-3.13.52-1.64.06L414.82,220l-1,3.19,1.5,3.33,2,1.89,7.95,2.41,1,1.7-.65,4.3-1,3.59-1.11,4.31.65,1.69h1.63l1-1.56,2.35-2,2.55.59,1.89,1.11.45,1.24v1.43l-5.87,6.4-1.82,1.69-1.76-.65-.62-2.61s.68-1.24,0-1.3-3-.07-3-.07l-1.44,1.17-2.34,1.37-1.31,2.61.39,3.65,1.37,2.61-.45,4.31L415,268.43l-1.69-1.5-1-1.63-2.81.59h-2.8L400.73,269v3.45l2.42,3.85,4,.52h2.74l.91,2.81v2.28a23.5,23.5,0,0,1-.59,2.74l-5.34,9.13-3.85,5.35-1.83,3.13,1.11,9.06.91,4.5.66,4.76,1.5,4.44,3.65,9.06,1.76,3.33.26,5.54-.59,9-1.11,3.66L420,378.65l10.17,10.27,10.66,12.13,4.11,1.77,2.45,4.2,1,5,2.44,3.72,3.23,2.74h20.64l3.91,7.24,3.92,6.16L484.6,435h4.8l5.18-4.3,1.76-1.18,2.06,1.08,1.85,3.52v4.3l-1,3.43-.4,1.56h14.29l2.83-1.27,2.74-.19,4.31.58,2.93,1.86,3.43,3a14.42,14.42,0,0,1,1.27,2.94v4c0,.29,3.23,2.15,3.23,2.15l2.64,2.06,11.15,3.13h10.76l3.82-1.47,6.45-1.37,2.64-2.25,4-1.47,6.85-4.2,1.47-3.13V443.9l-.59-4-.1-5.09.69-3.62,3.62-4.59,1.56-2.45,2.55-2.74.58-2.54,1.77-2,.78-3,.59-1.76.48-4.89,1.28-5.68,11-9.19V385.3l-1.07-4.8.39-3.9,3.12-4.89,3.82-3,1.47-7.82,9.49-7.34,1.27-3.23L620.78,343l1.27-2.94,4.3-.39,22.21-6.07,3.91-1.17,1.66-2.25.59-1.86V320l5.09-1.67,3.72,1.08,4.1,4.79,6.07,5,3.72-4.6v-3.62l-3.13-4.59-1.86-4.11-.39-3.82,1.46-2.64h5.58l4.3,1.37,3.23-.19,2.55-2.94,6.75-8.9V290l-2.84-3.91-9.29-7.34-4.31-14.09,2.35-7.23,2.44-4.6-.19-8.42-6.75-6.26-4.5-.58-3.13,1-.29,3.52s1.07,4.4,1.17,4.89,1.37,3.32,1.37,3.32l.19,4.11v3.33s-1.07.29-2,3.23a64.6,64.6,0,0,0-1.78,7.73l-2.72,3.22-4.11-.58-1.86-.2.69-5.18s.1-5.48.1-5.78-1.28-5.08-1.57-5.86a27.24,27.24,0,0,0-2.35-3.43l-1.17-6-.69-5.47-1.76-2.55-1.37-2.35L649,234s-2-.2-2.84-.2a17.32,17.32,0,0,0-2.15.2,5.05,5.05,0,0,1-1.47,0c-1.07-.1-1.07,0-1.66-.3a13.32,13.32,0,0,1-2.15-1.46,29.33,29.33,0,0,1-1.37-3.72,9.11,9.11,0,0,0-1.18-2c-.39-.29-2.93-1.86-2.93-1.86H622.83L616,223.11l-5.68-1-2.73-2.35-4-3.91-4.6-6.16-1.27-7.54-2.45-7.43-3.91-9.88-3.23-4.6-6.26-3.52-5.58-2.54-6.45-1.57-2.94-2-6-7.93-6.36-3.81-6-2.55L540.17,153l-5.58,1-3.81,2.73-2.16,2.45-2.44,1.37a23,23,0,0,0-2.55-1c-.29,0-5.18-.68-5.18-.68l-3.52-.69h-7.24l-8.81-1.27-6.75-3.23a11.57,11.57,0,0,0-1.37-2c-.39-.3-2.73-2.25-2.73-2.25l-1.86-.49a5.43,5.43,0,0,0-1.37.68c-.49.39-2.55,1.57-2.74,1.86s-2.06,3-2.55,3.23-13.89,4.11-13.89,4.11l-5.87-.1-5.87.19-3.22,3.14-2.94,3.52a10.25,10.25,0,0,1-1.76,1.76c-.29.1-4.3,0-4.79.1s-8.71.88-8.71.88l-4.6.29Z"/>
            <text id="司前畲族镇" class="cls-8" transform="translate(477.17 523.14)">司前畲族镇</text>
            <text id="司前畲族镇-2" data-name="司前畲族镇" class="cls-8" transform="translate(478.48 305.33)">竹里畲族乡</text>
        </g>
    </g>
</svg>