<svg xmlns="http://www.w3.org/2000/svg" xmlns:xlink="http://www.w3.org/1999/xlink" width="933" height="726" viewBox="0 0 933 726">
  <defs>
    <style>
      .cls-1 {
        filter: url(#filter);
      }

      .cls-2, .cls-3 {
        fill: #002762;
        stroke: #b4d1f9;
        fill-rule: evenodd;
      }

      .cls-2 {
        stroke-width: 2px;
      }

      .cls-3 {
        stroke-width: 2px;
      }

      .cls-4 {
        font-size: 24px;
        fill: #fff;
        font-family: "Microsoft YaHei";
      }
    </style>
    <filter id="filter" filterUnits="userSpaceOnUse">
      <feGaussianBlur result="blur" stdDeviation="8" in="SourceAlpha"/>
      <feComposite result="composite"/>
      <feComposite result="composite-2"/>
      <feComposite result="composite-3"/>
      <feFlood result="flood" flood-color="#0a52ca" flood-opacity="0.76"/>
      <feComposite result="composite-4" operator="in" in2="composite-3"/>
      <feBlend result="blend" in2="SourceGraphic"/>
      <feBlend result="blend-2" in="SourceGraphic"/>
    </filter>
  </defs>
  <g id="画板_1" data-name="画板 1">
    <g id="台州新区_拷贝" data-name="台州新区 拷贝">
      <g id="组_1" data-name="组 1" class="cls-1">
        <path id="形状_5" data-name="形状 5" class="cls-2" d="M458.086,52.131L475.8,26.368s26.458,7.288,33.01,8.051,28.106,3.04,31.4,4.026,8.914,4.976,12.077,5.636,16.136,2.878,20.932,4.026S635.21,71.454,635.21,71.454L674.66,83.53a288.379,288.379,0,0,1,33.009,20.933c17.455,12.8,28.984,20.933,28.984,20.933l37.84,13.687,68.434,100.638,16.1,83.731,4.026,49.917-16.907,16.907s3.164,18.484,10.466,26.569,8.856,8.051,8.856,8.051,9.633,23.78,11.272,28.984,5.923,29.944,9.661,33.009,4.315,4.146,9.661,4.831,11.527,0.611,9.662,3.22-7.246,7.246-7.246,7.246l-19.323,4.026-6.441,10.466s-13.283,8.743-11.271,13.687,14.492,38.645,14.492,38.645-2.446,4.83-6.441,7.246-4.166,2.736-1.61,3.22,5.6-4.246,4.83,7.246-3.22,54.748-3.22,54.748L888.013,662.4l-8.856,17.713L870.3,691.386l-136.868,7.246L677.88,647.105s18.568-10.375,24.153-13.686,29.753-19.977,37.84-28.179,11.272-11.272,11.272-11.272l-25.763-22.543-34.62-46.7s-6.393-11.756-7.246-16.1-1.61-4.026-1.61-4.026H618.3l-5.635,1.611-30.6-45.891L555.5,473.2l31.4,47.5-34.619,12.881L495.121,409.6l-25.764,4.025L491.1,472.4l-20.932,9.661s-22.677-31.71-25.764-36.229-0.133-9.271-1.61-14.492-6.441-12.882-6.441-12.882l-2.415-5.636s13.257-2.975,32.147-5.89c38.638-5.963,98.28-14.238,98.28-14.238l-60.383-192.42-16.1-54.747-9.661-41.061L469.357,62.6Z"/>
        <path id="形状_1" data-name="形状 1" class="cls-3" d="M71.634,91.581L27.354,193.025l59.578,16.907,0.805,16.907-3.221,10.467,22.543,1.61,1.61,11.271,19.323-7.245L161,240.526v4.026h8.857v-5.636L223.8,226.839l-5.636-8.856,12.882-1.61,3.22,7.246,56.358-4.026,0.8,4.026,47.5-2.415-3.22-12.077,19.322-3.22,1.61,7.246,14.492-.806-1.61-4.025h10.467l2.415,13.687,49.111-6.441,72.46-15.3-15.3-49.112L474.993,91.581,468.552,62.6,458.086,52.131l-23.348,7.246L409.779,70.649,413,80.31l-35.425,7.246L359.058,63.4l-17.713,3.22,4.026,41.866-15.3,2.415-1.61,6.441H275.327v4.025l-4.026.8v-4.83H264.86l-0.805-4.026-66.824-4.025-1.61,6.441-61.188-3.221,0.805-13.687-12.077-1.61L126.382,79.5,112.7,95.607Z"/>
        <path id="形状_3" data-name="形状 3" class="cls-3" d="M270.5,447.439l92.587-15.3,0.8,4.83,26.569-3.22v-6.441l45.086-8.051-1.61-6.441,15.3-3.22s-3.335-14.34-7.246-19.323-8.636-13.532-11.272-30.594a201.535,201.535,0,0,1-2.415-30.594s-2.15-2.251-2.415-7.246,0.021-15.895-.805-18.517-4.831-12.882-4.831-12.882l12.077,0.805-1.611-14.492H418.636s0.832-12.519,0-15.3-3.283-8.122-2.416-13.687,0.013-8.409-2.415-13.687-7.246-14.492-7.246-14.492L381.6,222.814l-2.416-13.687h-8.856l1.61,4.026h-15.3l-2.415-6.441-18.517,3.22,4.025,11.272-48.306,2.415-1.61-4.026s-34.361,2.564-42.671,3.221-12.882.805-12.882,0.805l-3.22-7.246-12.882,2.415,5.636,8.051-45.891,10.467,1.61,9.661s6.714,2.236,5.636,10.466,0,5.636,0,5.636l-12.882.805,0.805,16.1,13.687,0.806L187.57,284l8.051,0.805,3.22,19.323,12.882,1.61,1.61,16.1h22.543l0.805,14.492-7.246,2.415V362.9L239.9,362.1l5.636,19.323-6.441.805,4.83,24.153,11.272,0.805ZM438.763,214.763l65.214-14.492,60.383,192.42-98.223,13.687L443.594,283.2Z"/>
        <path id="形状_4" data-name="形状 4" class="cls-3" d="M406.559,219.593l33.009-4.83,2.416,48.306,1.61,21.738,4.026,20.933,18.517,100.638L449.23,409.6s-2.28-10.193-4.026-13.687-5.61-8.074-8.051-13.687-7.523-22.113-8.051-37.035-0.8-16.1-.8-16.1-2.172-1.827-2.415-6.441-0.805-19.322-.805-19.322l-4.831-12.882,12.077,0.805-1.611-14.492H418.636s1.142-14.47,0-16.907-2.554-4.087-2.416-8.856,0.36-11.254-.805-13.687S406.559,219.593,406.559,219.593Z"/>
      </g>
    </g>
  </g>
</svg>
