<svg xmlns="http://www.w3.org/2000/svg" viewBox="680 190 2020 2000">
  <defs>
    <style>

      .cls-1, .cls-10, .cls-2, .cls-3, .cls-4, .cls-5, .cls-6, .cls-7, .cls-8, .cls-9 {
        stroke: #303254;
        stroke-width: 1px;
        stroke: #9d9d9d;
        stroke-width: 1px;
        fill-rule: evenodd;
    fill: none;
    fill-opacity: 0.35;
      }

      .cls-11 {
        font-size: 40px;
    fill: #fff;
    font-weight: 700;
    text-anchor: middle;
    font-family: "Microsoft YaHei UI";
      }
    </style>
  </defs>
  <path id="形状_1" data-name="形状 1" class="cls-1" d="M953,478l-5,4a9.225,9.225,0,0,0-5,5s-14.829,34.65-19,37v8l1,11s-0.312,7.47-14,4c0,0-12.308-4.524-15-8,0,0-2.632-2.527-9-1H874s-6.953-.85-8-6c0,0-3.61-7.009-9-11l-7-7-10-9-5-5-5-2-12-5-6-6-4-5-4-3s-3.565-1.152-7,3c0,0-14.387,15-16,22,0,0-8.2,13.317-17,18,0,0-12.693-6.191-16,4,0,0-2.52,5.975-7,9,0,0-8.017,3.3-8,11l-2,7-1,17s-5.178,2.941-5,7c0,0-3.344,10.926-2,17l2,3h13l4,4,5,4,10-3s4.625-1.914,6,3l6,15,5,18,5,10,5,6,4,2,1,3-2,2-1,4-1,2v3l2,2,3,3,5,3,2,2-1,2h-5l-6-4-5-6-3-2h-4l-4,2v12l-3,8-4,8s-2.336,9.275-5,11c0,0-12.063,5.833-12,17,0,0-1.912,17.549-6,21,0,0-10.848,12.759-20,16a10.2,10.2,0,0,0-4,11v8a96.112,96.112,0,0,0,7,8l8,8s6.011,13.842-4,24l-7,10-3,5v7l-1,31,2,14v6l-1,15s7,3.719,9,9l6,2,16,1s5.447,10.217-5,19c0,0-15.562,7.359-21,12,0,0-10.013,5.648-10,17l-2,11v22l1,3,4,3,6,5,5,4,1,3-1,5-2,5-7,1-2,4-2,3v5s1.4,2.2,2,3a40.553,40.553,0,0,0,3,3v6l-2,9-2,4v5s-1.392,4.36-1,5,4,4,4,4l6,1s3.272,3.26,4,4,4,4,4,4,7,6.8,4,19c0,0-3,2.83-1,8l2,7,3,4s6.043,6.1,8-4l-1-13,5-8,6-7,4-9s10.608-20.1,11-25l7-16,3-7s2.25-7.02,15-11c0,0,26.182-9.53,50-4,0,0,12.451,2.75,12,12,0,0-.367,5.37,8,4,0,0,10.879-1.87,13-1,0,0,23.766,3.28,35,12,0,0,10.629,9.15,11,15l-1,9-2,10-1,10s-3.346,23.04-7,28c0,0-4.348,4.35-6,5,0,0-.341,3.57,5,7,0,0,5.9,7.54,5,13l2,16,1,5,3,5,2,6,1,8-1,15s-10.225,48.94-16,52c0,0-7.037,8.23-9,10,0,0-6.234,10.82,12,15,0,0,19.224,3.3,23,3l8-8,6-2,3-2,5-8,5-1,5-4,3-3-2-3,2-3,1-2-2-3-3-1,1-10-2-2,2-3,16,2,3-1,1-2,2-4s6.829-6.91,12-9a3.558,3.558,0,0,0-2-3l-10-9h-6l-3,1-2-3-5-5-4-4-1-3,1-1,1-5v-6l-1-3-3-3-3-4-3-4-1-2,1-5,1-4,3-2,4,3h3l3,1,5,4,8,5,5,2h9l3-1,3,1v6l-5,2h-2a20.329,20.329,0,0,1,1,3c0.17,1,2,2,2,2l4,2h11l5,2,4,4,2,5,3,3,3,2v4l3,3,1,4,2,2h7l1,2,4,1h2l6,1,1,1-1,2-4,4-1,5-5,5,1,10h-4l-7,3h-4l-1-11-1-3h-2l-4,3-2,2,1,4v9l-1,2v2h3l3-1,2,1,2,1,3,3h11l4-1,3,1,2,3s-1.26,2.28-1,3-1.42,3.11-1,3,0.6,1.44,1,2a39.716,39.716,0,0,0,4,3l4,1,2-1v-15l3-5v-4l-1-4v-5l7-8,6-8,7-11,3-4,4-6,3-3,3-7,1-5-3-5-4-4,1-2,3,1,3-2,3-4,7-8,3,1,2,1,9,5h2l3-2,3-4h6l2-2,1-2h14l4,1s4.52,1.38,5,12v8l2,2,2-1,1-1v-11l1-3v-2l2,1,5,5,2-1-1-5,3-2s3.55,0.81,4,1,5,2,5,2l8,2,2,2-1,3-2,4-2,3-1,3v5l2,3,6,3,3,4,1,2-1,2s0.4,1.75,0,2,0,2,0,2l2,2h3l1-2a22.493,22.493,0,0,1,0-3l1-5,3-11,2-4,3-1,2,2,5,6,3,4s4.35,3.86,4,4,3,1,3,1l1-5v-3l-4-1-1-3s1.21-1.85,1-3a18.779,18.779,0,0,0-1-3v-3l2-3s3.14-1.43,3-1,3,2,3,2l2,1,5-1,5-1,3,4,2,1,3-1v-5l2-4,3-14v-2l3-3,1-2,4-1h5l3-1,4-3,3-2s4.21,2.16,4,2a14.265,14.265,0,0,0,1,2l1,3-2,3-1,3-1,3s-0.53,1.67,0,2,0.35,1.25,1,1,1.67,0.46,2,0a6.691,6.691,0,0,1,2-2c0.65-.21,2.09-0.24,2-1s0-3,0-3,2.13-3.05,2-3a17.743,17.743,0,0,1,1-2,10.935,10.935,0,0,0,1-2c-0.23.12-.19-1.88,0-2a1.776,1.776,0,0,0,0-1l1-2,8,3,8,1,5-1,1-7,1-8-5-6-1-5-5-7,3-3,2-5,1-4v-9l-4-7-4-4v-7l-2-16-1-2a29.3,29.3,0,0,0-9-4s-9.93-6.61-13-15c0,0-6.3-3.75-11-5l1-7-3-9-2-4-6-1-6-8h-10l-5-4-7-4-8-4-6-4-7-4-1-4,1-6v-6l-2-3-5-2-7-3-9-3-8-2-7-2-8-2-3-2v-4l3-6,3-2h14l3-2,6-4,5-3,3-2,1-2v-3l-2-1-7-5-4-3s-4.88-3.419,1-8l5-4s3.86-2.925,0-7l-5-5v-7l2-3,1-4,3-2h10l1-5,2-3,2-1,4-1,2-3-2-2-4-3-7-6-4-3-4-3-1-3,2-3v-9l-1-6-2-2-1-3,2-3-1-2-3-5-3-4-1-3v-3l4-3h4l1-3-4-3-4-4-3-4-1-7,9-8,6-6v-3l-11-14V730l-4-5-2-4v-3l5-7v-6l-5-1-3-4-2-4-2-2h-3l-4,1-9,5-4,2-4,2v2l-3,2h-3l-4-2h-2l-1,2-1,1h-10l-4-2-2-2v-5l-1-1h-3l-2,1h-3l-2-1-1-3-2-2-8-7-2,2-4-4-2-2,1-7-7-6-3-1-2-1,1-6,6-7,1-6,7-8,1-2h7l7-7-2-3v-4l7-8v-7l14-10h9l5,1,7-8,1-4-9-11-1-4-3-4-3-4h-3l-7,5-3,1h-5l-2-2-3,1-1-1-2-1-3-2-3,1-3,2a6.027,6.027,0,0,1-2,1c-0.62.009-6-1-6-1l-2-1h-3l-1,1a18.338,18.338,0,0,0-3,0c-0.53.161-2-1-2-1l-2-2-2-1-7-1-4-3-2-3-1-5v-2l12-11-2-6-3-2-3-1-3-3-3-5-2-5,1-4-4-5-5-1-1-3-3-2-3-4-2-5-2-4-6-4-2-1-1,2-2-1-2-6-3,2-2,2-3-2v-4l-3-2-3,1-2,1-4,2-2-2h-1s-0.57,2.134-1,2,0.64-.127,0,1-0.37,1.46-1,2-9,5-9,5h-4l-5,5-4-1-4,5-1,3-2,3-3,2-6,1-2,2-2,7-8-13-4-6-1-6-3-7Z"/>
  <path id="形状_2" data-name="形状 2" class="cls-2" d="M936,1288l2-3,5-4,1-2,3-1h1l3-1,2-2,2-3,2-3,2-2,3-1,2-1,4-3,3-2v-3l-2-1,1-2,2-3-1-3-3-1-1-3v-8l-1-1,2-2,5-1,3,2h11l1-3,2-3,2-3,4-3,5-4,1-1-3-3-5-4-4-5-5,1h-4l-11-11-1-2,1-3,1-3v-7l-1-3-3-3-5-5-2-4v-3l1-5,2-3,2-1,4,3h6l7,6,8,5,3,1h7l7-1,1,7-4,2-3,1v2l1,1,3,2,4,2,6-1,5,1,5,1,3,7,3,3,3,2,1,2v2l2,3,2,3a12.9,12.9,0,0,1,1,3c0.1,1.07,3,2,3,2l6,1,2,2h5l6,1v2l-4,5-1,4-4,5v10l-5,2-6,2h-5v-12l-1-2-2-1a24.431,24.431,0,0,1-2,2c-0.53.38-1.68,2.4-2,2s-1.56,1.71-2,2,0.12,3.4,0,4,0,12,0,12l1,1h4l2-1a18.882,18.882,0,0,1,2,2c-0.08.12,3,3,3,3h13l3-1,5,3-1,5a3.585,3.585,0,0,1,0,2c-0.35.75-.62,2.4,0,3s2.93,0.1,3,1,2.92,2.12,3,2a25.013,25.013,0,0,1,3,0l1-2,1-6v-5l-1-4,2-2v-15l15-19,16-25,2-4v-5l-3-4-2-3-1-2,2-1h4l2-3,7-8,3-1h3l6,4,4,2,2,1,3-4,2-1,1-2h5l2-1,3-3h8l7,1,3,1,3,6v6l1,7v1l2,1,3-3s-0.35-3.78,0-4-0.4-1.61,0-2-0.19-4.22,0-4-0.13-1.79,0-2a10.217,10.217,0,0,0,0-2l1-1,2,1s1.84,1.79,2,2,1.88,1.83,2,2,1.25,1.14,1,1,1-1,1-1,0.97-1.9,1-2,0-2,0-2v-1l3-1s0.16-.3,1,0a21.093,21.093,0,0,0,3,1c-0.1-.17.71-0.46,2,0s3.75,0.59,4,1,3.68,1.58,4,2,3,1,3,1v3a29.494,29.494,0,0,0-1,3,8.173,8.173,0,0,1-1,2l-1,2s-2.26,4.97-2,5,1,5,1,5l2,3,4,1s3.74,5.37,4,6a11.3,11.3,0,0,1,0,3v3l2,3h3l2-1s-1.5-4.64-1-5,0.76-2.2,1-3,1-3,1-3l2-7,1-4,3-3,2,1s1.76,0.91,2,2,4.37,4.89,4,5,4,5,4,5l4,4,2-1s1.16-1.77,1-2a33.3,33.3,0,0,1,0-4v-2h-3l-1-2v-2l-1-2v-5l1-1,1-2,1-1,4,1,3,1h4l4-1s5.44,2.06,5,2,1,2,1,2h3l1-1a14.255,14.255,0,0,1,0-3,1.56,1.56,0,0,0,0-1l2-5,1-4,1-8,1-3,3-4,2-2h3l4-1h3l1-1s1.41-1.99,2-2a6.381,6.381,0,0,0,2-1l2-1h2l3,2,1,1v3s0.58,1.98,0,2-0.21,1.7-1,2a1.3,1.3,0,0,0-1,1,23.221,23.221,0,0,0-1,3s-0.57,2.67,0,3a15.3,15.3,0,0,1,2,2l2-1,2-2,1-2,1-2,1-2,2-2,1-2-1-3,1-2,3,1,5,2,4-1,8,1,2-1v-3l1-11-1-3-4-3-1-6-2-4-2-2v-3l3-3,2-5v-12l-2-3-3-4-3-3,1-6,2-1h3l3,2,4,1,3-1,3-2,2-2s4.07,2.93,4,3,6,6,6,6l3,4v5l3,2,5-2,3-1,2-4s4.82-10.55,4-14l-1-5,1-5,2-1s-0.39,5.3,0,6,4,1,4,1l3-1,17-13v-5l-3-4-4-7-2-3,1-5,2-3,1-1,3,1,7,2,4,2,6-1,6-1,6-3,3-1,3-2,2-2,3-2,2-1h3l3,1,3,2,3,1,1-1v-3l-2-3-1-6-1-5-2-3-2-1-3-2v-9l4-2,11-8,4-4h4l4,2,2,2-2,3v3l1,2h3l3-2,5-1,2,3,2,2-2,4v2a1.418,1.418,0,0,0,0,1,14.225,14.225,0,0,0,1,2l2,1h5l1,2,2,1,3-2,1-2,3,2h2l3-2,3-1,1-3-1-3-1-9,4-2,4-3,2-2,2-3,3-2,1-2,4-4,6-4,2,1,1,3,3,1,3,1,4,1,7,6,2,1,4,3,2,2,3,7-1,4,1,3,3,2h6l7,1h6l1,3v2l-7,6-4,3-4,1v6l2,4,2,1v2h-1l-4-2-2-2s-1.17.57-1,1,2,3,2,3l1,2-1,3-2,1s-0.45,3.59,0,4,0.64,2.21,1,3,0.09,0.19,1,2a8.953,8.953,0,0,1,1,3l-4,1-5,1-5,1-3,2-4,1-1,3v2l4,2a2.652,2.652,0,0,0,1,1c0.28-.08,1.08,2.34,1,3a10.759,10.759,0,0,0,0,3c0.2,0.77,1,3,1,3s1.25,2.84,1,3,1,3,1,3a27.194,27.194,0,0,0-1,3c-0.25,1.11.42,1.15,1,2a10.876,10.876,0,0,0,3,2l2-2s0.85,0.54,1-1,0.66,0,1-2,1.11-1.62,1-3a13.954,13.954,0,0,1,0-2c-0.02-2.03.38,0.22,0-2s-1.43-2.59-1-3,1-1,1-1,2.28,1.58,2,2a4.7,4.7,0,0,0,0,2l2,3h2l2-1-1-3-2-3v-2a0.916,0.916,0,0,1,1-1,4.357,4.357,0,0,1,2,1s2.32-.04,3,1,2.67,1.5,3,2,1.84,1.67,2,2a19.624,19.624,0,0,0,1,2c0.26,0.34-.35,1.37,0,2s-2,3-2,3l-2,2-3,3-2,4v3l2,1,2,2s-0.05,2.63,0,3,1,3,1,3h1v-3l4-6,3-3,4-6,4-3,3-3,3-1,3,1,4,2,6,1s5.01,0.54,5,1a2.015,2.015,0,0,0,1,1h3l2-2,3-1-1,3-3,3v4l-2,14-1,15,4,2,1,2-2,3a2.3,2.3,0,0,1,0,2c-0.53.98,0,3,0,3a2.348,2.348,0,0,1,1,1c0.39,0.73-1,3-1,3h-2v4a15.414,15.414,0,0,1,2,1c0.2,0.22,6,4,6,4v2l-2,5-1,4s-1.39.33-1,1a2.886,2.886,0,0,0,1,1,5.381,5.381,0,0,0,1,2,5.543,5.543,0,0,1,1,2l-1,4-2,2-2,3s0.61,2.79,1,3a6.491,6.491,0,0,1,1,2s-0.38,3.3-1,4-3.1,3.64-3,4,6,3,6,3,2.4-.01,3,0,6.36-1.46,7-1a13.837,13.837,0,0,0,3,1l2,3,1,1-3,2s-1.73,2.76-2,3-3.35,1.11-3,2-0.27,4.18,1,5,3,2,3,2l5-2,3-2,5-1,3,3,2,2h9l7,1,1,2,4,11,3,6,4,2,4,1,2,1,2,3,4,4v4l1,4s-0.37,5.47,4,7l3-1s1.27,0.2,1,1a2.489,2.489,0,0,0,0,2c0.28,0.45.35,1.45,1,2a10.234,10.234,0,0,0,3,1h3s11.79-7.46,22-4l2,1v1l1,2h6l3,3,3,2,5-2,2,2,2,3,3,2,3,1,4,2,2,8,4,3,4,4,4,3,4,3,3,5,3,3,1,2v5l1,5,3,4,1,3-2,4v2l1,2v4l-2,5-2,13-1,3h-5l-5-3-4-4-3-2h-3l-1,2v4l-2,5,1,3,2,1,12,1,2,2v5l2,7,2,3,1,3v4l-3,6s-4.78,7.34-13,9l-2,1-1,5-5,6-1,6-1,9,3,4v10l1,2-2,16-3,8-3,3-2,7v12l-1,4-2,3-2,5-3,1-3,8-4,6-3,4v12l-3,5-2-1h-2l-4,3-5,2h-2l-3,1-2,4-2,3-5,6h-6l-2-1-3-1h-2l-1,1a2.809,2.809,0,0,1-2,0c-0.78-.45-3-2-3-2a5.759,5.759,0,0,0-2,1,20.139,20.139,0,0,0-2,2l-3-3-7-7-2-2-1-1-4,3-2-1-2-2-7-1-2-3h-9l-3-7-11-1-1-4-2-1h-8l-3-2-2-6-3-1-3,1-6,3-4,3-2,7-3,1-7,6h-5l-2-2-3-1-1-4-1-1-3,1h-3l-1-1,2-3v-2l-2-2-3-1-3-3-3,1-4,3-5,1-2-2-3,4-1,1-5,2-2,4-4,2v-2l-2-2s-3,.66-3,1v1l-3-1-1-2-4-1-2-1-3-2h-2a0.879,0.879,0,0,0-1,1c0.18,1.05-.18,1.86,0,2s0.44,1.94,1,2,0.35,1.38,1,2a5.107,5.107,0,0,1,1,2l-1,5-2,1s-2.45,3.59-2,4,1,6,1,6a7.907,7.907,0,0,1,2,2,2.473,2.473,0,0,0,2,1h4l2-2,2-2s0.84-1.43,1-1,3,2,3,2l1,7v4s-1.44,3.66-2,4-0.16,1.91-1,3-2,3-2,3h-1l-4-3-5-3-6-6-6-6s-4.13-4.3-14-3c0,0-18.01,1.06-18,10l-1,8s-1.77,6.15-5,8l-4,5-1,2,1,3,2,3,3,6,1,3-1,5-3,7-6,5-9,4-6,2-7-1-5-2-6-3h-7l-4,1s-9.27,1.41-9,2l-9,3-8,2-7,3-13,6-5,2-3-1-6-2-7-6-12-11-4-5-5-5-3-4s-6.42-6.04-9-6c0,0-9.55-.26-14,4,0,0-10.07,5.71-11,9a149.148,149.148,0,0,0-3,18s1.81,9.66-8,11c0,0-6.82-1.1-6-11l3-13v-5l-1-4-3-2a27.6,27.6,0,0,0-15-4h-5l-6,5-5,5-6,2h-13s-6.09.97-2,4l6,4,4,3v12l2,4,3,3,3,1,3-1,4-3h4l6,1v3l-7,5-4,1-6,2s-16.45,6.53-17,19c0,0-1.39,7.64-1,12a4.812,4.812,0,0,1-7,1l-2-3-3-4s-2.09-6.88-14-7c0,0-7.39,1.62-9,6,0,0-5.74,6.89-13,1l-7-5-6-6-3-5h-10l6-7h-14l-2-2-3-4-1-6-2-6-3-4-3-2-3-2-3-1-2-5-1-8-2-7-4-19s-0.43-5.09-7-5c0,0-6.53-6.09-8-8,0,0-4.99-12.13-5.01-15.69,0-.11,0-0.21.01-0.31a45.558,45.558,0,0,0,0-7l4-7,5-6,5-6-1-8-4-6s-7.42-.5-7-4c0,0-1.51-16.55,1-20l5-19,2-7,5-11-1-7s0.84-12.62-11-13c0,0-10.37-2.43-15,5,0,0-5.4,2.76-7-2,0,0-10.56-15.89-16-18,0,0-3.19-9.23,3-14l-1-6s-16.51-20.75-39-27c0,0-10.47-.54-13,3,0,0-5.211-4.52-7-9,0,0-13.249-19.86-14-25l-4-8-2-7s-4.535-4.87-16-5H949l-3-3-6-7-4-6v-2Z"/>
  <path id="形状_3" data-name="形状 3" class="cls-3" d="M953,477l12-16,9-2h6l11-5,7-9s1.941-1.662-4-9l-23-15-15-15-23-23-20-19-11-8-2-3,1-2h3l6-6,3-3s2.436,6.266,2,7-0.374,17.46,9,9l4-5v-9s-0.838-6.68,14-6h13l1-2-3-3-5-7s-1.31-6.9,9-7l17-4,10,1,8,1,8-4,3-2h4l6,3,1,6,4,11,4,6,7,6,7,7v4l-1,6,1,5s1.23,7.68,10,6l10-9,2-3-1-4s-16.71-2.914-11-28c0,0,1.11-4.8,5-6l7-5s2.57-3.451-1-4c0,0-11.46-2.02-5-14,0,0,1.85-11.5,8-13l7,1,3-3,1-12s3.37-6,8,1l3,7s5.39,10.158,10-3l9-16s1.24-2.656,2,4c0,0-.7,8.88,5,13l12,15,10,13,12,17,4,7,7,16,3,7,3,6,4,3s10.6-2.065,16-8l6-6,5-1,7,1,4,2,3,1,5-3,5-3,6,1,5,3,6,3,5-3,3-3,7-5h4l1-5,4-9,6-7,8-9,9-8,5,1,4,2h4l8-5s9.05-11,1-17c0,0-3.35-8.291,9-9h23s8.54-1.9,11-7c0,0,8.22-12.993,16-6,0,0,10.75,7.815,19-2,0,0,5.55-11.4,12-2,0,0,6.72,8.689,14,6,0,0,8.83-10.529,17-8,0,0,9.37-.079,14,5,0,0,5.13,4.14,7-4l2-12s4.07-6.244,7,0c0,0,18.21,27.186,16,34l2,6,7,4s10.2,3.491,4,13l-9,21-2,9-1,10-7,9-2,4,1,4,1,6-2,3-5,6-5,4-3,3-2,3s-1.24,4.862,6,4a9.059,9.059,0,0,1,5,7l4,15,5,7,5,4s7.12,0.961,10-2l25,1s15.05-.025,16-1c0,0,28.78-14.2,35-6,0,0,5.7,8.564,20,6,0,0,60.95-10.986,61-23,0,0-11.47-18.86-2-21l16,7,2,9,9,8,7,3,4,5v7s7.33,11.193,29,9c0,0,25.72-.959,28-8l1-4,5-3,10-1,6-4,2-9-9-11v-3h5l27,1s8.86-1.476,3-6l5-9,6-5,7,5,6,6,7,5,4,1,3-4,2-4,2-2,6,4s14.02,2.729,22,1c0,0,7.8-1.489,11-13,0,0,5.42-5.019,11,2,0,0,6.79,12.067,14,1l4-6,3,1,3,3v2l4-1h2l-3,7,1,3h6v7h-10l-1,1v4l2,2,4,2s8.28,3.589,10,11l-3,8-1,4h-4v3l1,3-4,2,1,4,1,1-1,2-4-3h-11l-2,1-1,2,2,3s4.99,4.695,3,13l-1,4,1,2v2l-1,1-4,2v1l2,3s3.26,3.378-3,8l-5,4,1,4,3,10,2,2,4-5,3-2h2l-1,4s3.99-.062,4,5l1,5,3,1h5l4-1,4-1,1-4s1.67-4.3,7,0l5,1,1,4,2,2,6-2,1-1,1-3,3,1,3-1,3-2,2-3,2,1,3,3,1,5,3,3,2,6v4l-11,11-7-2-7-4-4,2-1,3h6v5l-2,2s1.34,6.392,1,7,4.87,11.381,9,13l5,1,1,8s2.79,4,5,4l2-1,3-2s4.14-.417,5,6c0,0,9.35-3.74,12-2l-11,11h-5l-1,6-4,3-3-1s-3.17.442,2,5l4,3,3,1s-3.83,10.416-10,12a3.623,3.623,0,0,1-4-2v8l4,4-1,3-3,3-1,4-2,3v2l1,3-3,8-2,5-3-3v-2l-2-2-5-5-14-5-5-2h-7l-12-7-9-3h-8l-7,4-4-1-3-2-1-4-3-2-6,4h-4l-4,3-3-7-2-5s-5.83-6.43-16-2l-2,1v-1l13-15-1-2-5,2h-7l-1-1-2,2-4,2-2-1h-2l3,6v3l-5,1v4h-4l-2,3s-2.53,8.981-8,11l-2,1-2-2h-4l-2,5-1,1h-2l-2-2s-2.36.9-2,1-5,4-5,4l-3-2v-2h-4l-4,2h-4l-1-1-2-1-3,1-4-1-6-7h-6s-4.16,3.015-5,3-6-1-6-1-1.69.448-2,0-3-7-3-7,0.05-2.645,0-3a20.782,20.782,0,0,1,1-3l1-6-8,5h-4l-3,1-1,2,5,1v-1l-1,4v3l-2,4-2,5-2,2-3-3-2,1-2,2s-1.27,4.047-1,4-2,5-2,5l-1,2-4-1s-2.84.324-1,3l3,5,1,2v2h-3l-3-1h-11l-8,7-3-1h-2l-2,2-3-2-1-1-7,6-1,2,3,3-4,2-7,5-2,3,1,3v3l-1,1-3,1h-2l-4,1-5,4-5,4-5,5-3,5-5,7-3,2h-6l-3,1-1,3v2l-6,5-3-1,2-3v-4l-3,1-4,2v2h3v2l-2,2h-5v6l-1,2h-3l-2-1a4.433,4.433,0,0,1-1,0c0.24-.073-1.48.621-1,1s0,2,0,2l-2,1h-4v1l-8,1-2,2-1,7-2,2-4-1-4,3-16,8-5,1-4,4-6,3h-2l-2-2,1-4-3-3-10,10,1,3,1,2,1,3-2,1-4,1h-4l-2,2,2,12,2,1,3-1-1,3-3,1h-2l-2-2-2-1-2-1-4,1-2,1-3,1-2-1h-4l-2,2-1,4v4l-1,8-4,5v4l1,2-2,4-3,3s-4.82,5.221-12,5a7.469,7.469,0,0,1-5-8s-0.08-4.714-4-7v-8l-5,4-2,2h-11l-1-7,3-2-1-2-4-6,2-3,2-2,1-4-1-4-2-2h-3v-2l7-3s-0.39-4.343-2-5l-7-9s-1.1-2.386,2-3l4-3,3-1,4-1,1,3v3h4l11-4,1-5,2-1,4-1,1-2-3-2v-3h5l3-3,2-1,3,3h2v-4l3-3v-3l-3-2,4-1,2-4-1-4v-4s-5.37-8.434-11-11l-1-5-2-8-2-1v-6l3-3-2-2-4-3-2-2-3,3-1,2-3-1-5-3-3-2,4-3h-6l-2-1-1-2s1.51-1.144,2-1,4-1,4-1v-2h-7l-6-1-2-2-10,9-4,1h-2l-2-1-4,3-2,2-1,1h-2l-2-2,9-9,4-4-1-1-2,1-5,4h-2l-2-3h-2l-2,3-3,10h-1l-2-5-2-1-1-5-1-3s-3.98-8.423-6-8l-6,5v7l-1,8-2,10-1,15-1,10-2,13-2,9s-2.14,1.666-9,1l-5-2h-2l-1,2-2-1-3-1-2-5-4-8-1-8s-2.24-8.7-5-9l-3-4-4-5-7-8-8-7-8-4,1-6,1-2-1-2h-2l-6,9s-9.49,15.011-10,19l-2,2-2-1h-2l-1-3-1-1-1,3v4s-4.81,8.131-7,8v-6l-16-1-3-1-4,1-2,3s1.13,10.168,10,15v4l-4,2h-3l-3-1v-7l-2-2-2-1-1,1v7l-1,1h-2l-2-2-5,2-2,2-2-1-1-2-2-2h-8l-1-3-1-2-1-3-2-2h-5l-4,1-7,5-4,1-4,3-2,2-2,2h-4l-2-2-1-1-2,1-2,3h-10l-3-2-2-1v-6l-3-1-7,1-3-4-5-5-3-3-3-1-2,2-2-3-3-3v-7s-3.13-6.128-8-6l-2-2v-6l1-2,6-5v-6l8-9,7-1,7-7-2-2,1-6,6-6,1-7,4-4,6-4,2-2h13l4-2,3-3,3-5-1-4-3-3-2-3-2-2-1-3-4-6-2-3-4-1-3,2-6,4h-7l-5-2-4-3h-3l-3,2-4,2h-4l-2-2h-5l-2,1-3-2-3-2-5-1a5.879,5.879,0,0,1-5-2s-1.88-.566-4-4v-7l10-10v-6l-4-3-3-2s-2.82-1.253-5-6l-1-2-1-9s-1.57-3.566-5-4h-3l-2-3-1-2-3-2-2-3-2-5-2-5-5-2-2-2-2,1-1,1-2-3v-3l-2-1-3,3-3,1-1-5-1-3h-3l-3,2-4,2-2-1-1-1h-2v3l-1,2-8,4-5,1-5,5-4-1-3,3-2,4-3,5-2,1h-6a15.238,15.238,0,0,0-4,9l-1-1-9-15-4-11-3-8Z"/>
  <path id="形状_10" data-name="形状 10" class="cls-3" d="M1686,1955l8,7,2,2,1,3h13s7.13,1.95,8,12l6-3s3.31-2.86,3-9c0,0,20.36-2.7,25,3,0,0,11.54,11.13,12,13h7l9,9,7,2,1,12,5,3,4-1,4-1,6,2,6,1,3-3,11,1,7,2h20l1,8,8,5h2l2-3h5l2-3,11-13,12,4h7l7,1,3,2,5-5,4-4,3-1,4-1,5,2,2,1,4-4h4l2,2,2,2h8l7,1h7l11,2,8,3,7,6,10,7,3,2,4-1h3l5,3h3l3-2,7-4,5-2,3-2,4-2v-2l-2-3-4-2-2-2-2-2-1-2-2,1-2,2-1,1-2,2h-5l-5,1-4-1-3-1h-2l1,3,3,1,2,3,2,1v2l-4-1-3,1h-3l-2-1-2-3v-3l-3-1h-4l-2-4-2-3-3-4-1-3-6-2-5,4-4-1-2-2-2-2-2-2-1-2-2-2-1,1-3,1-2,1-2-2-2-2-5,6-3,3-5-1-5-1-3-1-7-8-5-9s-2.8-7.39,7-9h5l3-1,3-1,6,1,3,2h8l3-1v-4l-4-3-2-2s-2.14-2.92,1-4c0,0,5.72-1.27,4-6,0,0,1.41-5.15-2-7l-2-3v-11h9s9.48-9.7,22-4a14.777,14.777,0,0,0,9,2l3-3,2,1,2,1-2,2v2l3,3,8,8,4,4,1,5,1,5,1,2,4,1h2a12.119,12.119,0,0,1,1-2c0.44-.59-0.19-4.21,0-4s0-2,0-2l1-1,2-1,2-2s-0.05-2.5,0-3,0-3,0-3l-2-3,4-2,3,1,4,1,3-1,2-3,1-1,2-2,3,2,8,4,15,10s13.88,11.2,16,17c0,0,6.45,12.1,8,23,0,0,3.29,23.03-8,26,0,0-14.04,6.23-17-1,0,0-4.95-7.78-6-10,0,0-6.02-6.36-12-2,0,0,4.66,4.73,4,7,0,0-1.25,4.01-3,6v3l8,5,5,3,1,3-8,7-8,4-17,3-6,1-7,2-4,8-3,7s-6.15,1.33-6,5c0,0-2.99,2.74,5,3,0,0,13.37,1.74,9,10,0,0-7.02,11.6-16,13,0,0-5.68-1.13-5,5,0,0-3.15,16.29-16,18,0,0-18.29-1.14-26-9,0,0-7.03-3.45-7,4,0,0,2.04,11.45-6,9l-20-12s-4.37-3.22-7,3c0,0-3.02,9.37-7,8,0,0-5.57-4.93-6-9,0,0-2.12-9.71-5-1,0,0-1.79,13.13,0,20,0,0,1.19,4.68,3,7a6.26,6.26,0,0,1,4,7l1,9,2,8,2,4,4,5,2,2,5,5a6.012,6.012,0,0,1-4,7s-5.2.92-7-1c0,0-7.94-6.25-15-3,0,0-18.45-.37-22-4,0,0-34.88-12.02-39-17,0,0-19.02-10.37-20-14,0,0-.9-9.83-11-7,0,0-13.67,4.5-11-10l5-32s1.11-17.35-7-21c0,0-5.41-8.95-19-1,0,0-24.23,5.13-27,6,0,0-13.67,10.16-21,3,0,0-26.91-23.31-28-27,0,0-18.98-18.35-22-17,0,0-5.35-.73-5,5,0,0-3.86,8.9-11-2,0,0-5.04-6.46,2-32,0,0,6.84-21.1,10-24C1674,1976,1686.14,1959.35,1686,1955Z"/>
  <path id="形状_4" data-name="形状 4" class="cls-2" d="M1938,636s9.9,10.385,23-2l2-8,2-5,5-7,3-1,2,2h2l2-4,4-1,2-2-2-3v-2h1v-9l5-4h2l1,4h2l2,4,5,4,1,4s-3.47,5.952-6,7v2l3,3,3,2,1,5,2-3,7-3,3-1,1,2-2,5-1,3-3,3v4l3,4h3l2-2h1v5l1,3,4,2,1,1-1,2v3h3l1,2v2l-1,2,1,3,2,1v3l3,1h3l1,2-1,2-1,2,1,2,2,2v6l2,2-2,5h-10l-5-6-4-3-12,2-10,5-4,2-3,6-2,3h-4l-1-1h-1l-1,1v3h-4s-7.61,2.577-9,8l-2,3-4-4-3-3-3-1h-3l-8,4-6,3-8,8-7,9-6,4-1,6-10,1-2,1v2l2,1v6h-4l-4,4,2,1h5l2,2,4,2,2,2s1.32,7.271,1,8,2,3,2,3l6,6,5,1,8,6,8,3,2,1-1,9,1,7,3,8,1,2,2,1,2-3,1,1,2,1v3l-1,2-3,3,1,4-2,1-3,1v1l-1,3-1,6-2,2-1,2,4,1h2l5,2,3,3,4-2,2-2v-3l-1-3v-4l-2-1v-2l4-1,1-1,5,1h6l3-2,3,2,3,2,8,1,3-1,3-3,6,3,5-2,3,1,4,3,4,4v3l-1,2v4l3,1h4l2,2,3,3,3-1,3-1h0l2,2v-5l-3-3-3-3-2-5-6-1-2-2,1-1,5-1-1-2-2-1-4-1-1-1-1-7-3-2-1-3v-4l-3-2-5-4,1-1,2-2,3-2-1-1-2-1h-2v-7l2-4,3-4,2-4h3l4,2h8l6,2,2-2,2-2,3,1,5,2h3l10-2,7-2,2-1,4-1,8,1h3l3,1,2-2,2,3,1,3v3h3l3-1,6-1,1-1,3,3,2,1,5,1,2,1,2,1v5l3-1,4,1,3,2,2-2,2-2h4l2-1,2-5,3-4,3-3,2-1h3v-4l1-2h3s-0.05,2.71,0,3,3,1,3,1h5l8,1,1,2,2,2s2.11,1.746,2,2,1,1,1,1l-7,8-1,3,1,4h4v1l-1,1-1,2,1,3h6l3,5,4,2,3,3,6,1s2.06,2.115,2,2,11,8,11,8l2-1h2l2,1-1,2h-2l-2,2,1,2,4,1-1,4s0.02,2.067,0,2,0,1,0,1l4-2,6-3,9-6h7l3-3,2-2h4l1,3s0.68,2.289,1,3,3,2,3,2h5l3-2s-0.59-2.694,0-2,6.29,3.945,6,4,7,5,7,5h9l4,6,7,1,3-1,1-3,2-2,4,2,5-2h2l1,3-2,1s0.31,3.879,0,4,2,1,2,1l-1,3-1,1s0.1-.051,0,1,0.45,1.294,1,2a22.857,22.857,0,0,0,2,2l-6,3a5.973,5.973,0,0,0,0,2c0.21,0.687,1,3,1,3l3,3,3,12h6s1.8-1.8,2-1,0.92,4.438,1,5,1.9,4.267,2,5a6.656,6.656,0,0,0,1,2l-1,3-4,1a3.435,3.435,0,0,1,1,2,3.435,3.435,0,0,0,1,2s2.56,1.131,3,1,1,3,1,3l-1,3-3,1-8,3-2,1h-5l-4-2-1-2-7,4-3,4-4,4-4,3h-6l-2-2-3,1-2,4-2,6-2,5v4l5,6,3,5,1,1-1,2-3,3-1,2,1,3,2,2,2,2,1,1,2-1a9.168,9.168,0,0,0,1-2,14.147,14.147,0,0,0,0-2l1-1h2l2,2-1,4-1,4,4,7,2,2,3,3,3,1,1,1-2,2h-1l-3-1-1-1h-2l-2,1h0l-1,3v2l1,3,1,3v3l-2,2s-1.3,1.36-1,2a4.251,4.251,0,0,1,0,2l2,2,2,2,1,1-2,1-4,3-1,1h-3l-3,1h-3l1,2s2.39,1.81,2,2,0,2,0,2l-5,4,1,3s1.11,2.25,1,3,5,1,5,1l4-1h2l2-2,1,1-1,2v1l4,3,2,4,2,2,1,2-2,2-2,3-2,7,1,1,2-2v-2l2-2,3,1,2,3h2l2-2,5-1,1-1,2,3,3,5,1,3,3-1,1-1,1-2,1-3,1-1,2-10,1-7s8.12-9.75,16-12c0,0,17.4-6.08,19-6,0,0,7.95-3.46,4-11,0,0-5.12-12.184,1-14,0,0,9.21-7.876,5-11,0,0-7.84-.844-6-7,0,0,3.18-9.122,9-14,0,0,5.87-4.5,9,1,0,0,6.32,5.808,7-2,0,0-2.04-16.814,10-15,0,0,10.01-1.716,14-15a31.958,31.958,0,0,0,4-18V894l3-15,2-10v-9l-3-7-1-4v-8l6-7,1-2v-3s-18.31-12.954-20-25c0,0-4.01-11.9-5-15l-1-4s-0.62-5.146-7-6c0,0-13.14-.668-11-11l1-7h7l6,6s3.56,2.684,9-2l11-5,1-2-1-2-2-2,2-3,5-4,6-6,6-5,5-1,32-1,2-1s3.44-3.11-2-6c0,0-3.44-5.577-4-7l1-4,8-9,1-3-1-4-2-3-1-2,2-2,5-1,9-3s19.79-6.415,23-15c0,0-.29-9.207,5-6,0,0,14.73,10.5,24,9,0,0,10.54-4.61,5-11,0,0-2.28-5.216,4-11,0,0,2.91-2.526,3-10,0,0,.95-14.857-3-19l-9-11-2-5-6-11-1-4s-0.14-4.674-3-6c0,0-.23-5.5-7-6l-3-7,1-3s5.58-3.954,9-21c0,0,3.94-17.593,8-19,0,0,3.8-4.559,22-5l-2-23-2-7-5-6-3-4v-3l3-5,3-10,4-6-1-2-7-2-10-3-6-2-11-8-7-3-7-2-6,2-3,1-4-1-7-3-5-2-14,1-9,2-16-1s-14.77-5.232-20-13a11.355,11.355,0,0,0-7-5l-14-7-1-5-5-16s-7.69-17.958-19-21c0,0-52.51-6.276-43-36,0,0,6.68-19.419-5-12l-7-1s-2.32-4.07,2-9l15-24s4.96-17.467-6-15c0,0-7.51.58-4-10,0,0,5.2-12.791-16-27,0,0-22.34-18.7-36-12,0,0-5.17,3.082-4,11,0,0-4.22,14.019-12,8,0,0-6.15-8.791-15-4l-14,3-4-6-5-5s-9-1.981-12,2c0,0-.8,11.019-4,13a128.194,128.194,0,0,0-26,3s-9.44,11.574-12,1c0,0-5.73-9.283-23-17l-14-7-5-2-9,1-12,1-8-3-9-2-9,1-5,4-3-2v-3l-1-6v-7l-5-1-5,3s-11.39,4-16,1c0,0-5.08,3.805-3,10,0,0,8.21,7.815,3,11,0,0-12.75,8.924-19,2l-4-6-2-8-2-2-6,4s-7.51,8.017-9,14c0,0-.3,12.211-13,15,0,0-18.98,4.2-19,6,0,0-2.17.96-1,14,0,0,4.69,13-5,16,0,0-24.49,9.363-41-3l3-13,2-10s-0.15-6.739-6-3l-2,2v2l-5,5-9,4-4-1h-4l-3-1-4,6-2,6-3,4-6,5-2,5-4,7-3,5v5l1,3,8,6,7,5,3,4,1,4-1,3-6,5-3,5,4,5,4,2,1,4,2-1h4l-2,6v3h4l3,1-1,7h-8l-3,1,1,4,2,2s12.35,4.9,13,13l-2,6-2,5-2,1h-2v5l-2,2-1,3,2,3-2,1h-3v-2h-11l-2,2v2l1,2,3,6v15l-4,3-1,3,3,2-1,3a25.469,25.469,0,0,1-8,8s4.3,14.474,6,16c0,0,5.35-9.086,8-7v4s4.4-.369,4,5l1,5s10.5,2.282,16-1v-2l1-2s1.3-3.315,6-1l5,2h1s1.16,2.465,1,3,1,3,1,3h3l4-2,1-2,1-2h4l5-2,2-3,3,2,3,3,2,6,3,7v5l-11,10-4-1-5-2-3-2-2-1-3,1-2,4h6v5l-2,2s1.44,18.112,11,20l5,1,1,9,4,3,3-2,3-1,2,1,2,2v2l4-1h8l-11,11h-4l-1,1v3l-2,3-4,2h-2v2l6,4,3,3-4,7-5,4h-3l-2-2v9l3,2v3l-3,3-1,6-2,1v3l1,2Z"/>
  <path id="形状_5" data-name="形状 5" class="cls-4" d="M1607,690l2,3,1,2,3-2h3l2,1h6l2,2,1,2-2,1h-5l-2-2h-4v3l1,2,2,5,3,4,6,2,6,6h2l2-3,3,1,2,3-1,3-2,3h5l2,2,1,3,3,4,4,2,3,4-1,3-1,1v3l3,3-2,1-3-1-3,2,1,1s18.09,7.39,20,14v4l3,2h5l9,8,9,8,6,11,6,9,4,9,5,5s8.63,3.778,11,3l2-2h2v9l5,6,2,1,1-3h2l5,6h3l-1-11s2.05-7.148,7-2v4l2,3-2,1-1,1v7l-12,13-5,1-2,4-1,11,1,2,4,4,2,4,7,3,3,3,5,1,6,1v6l8,3,4,1,4,4,9,6,4,3,5,2h6l3-2v-3l6-5,3,2,3,4,3,1,1-3,3-2,3-3v3l1,3,4,4,2,3,5,1,10,5h11l9-3,5,1-2,3,1,2h10l6-5v-2l3-2,5-1,1-6,2-2-2-2,2-2,2,1h2l4-5,4-11-4-5,3-3-1-3-4-2-2-5,4-3,4-7,2-4,6-7v-4l1-3s13.27,1.887,17,4l5-4v-4l3-4,1-9,2-2,3-1,1-2v-3l1-3,2-3-1-2h-3l-1,2-3-3s-5.61-13.328-3-24c0,0-16.3-5.4-17-10h-5l-9-9-1-7-1-3s-2.64-4.169-7-4l-6-1s-1.18-4.245,6-5l1-6-2-1s-1.34-3.474,4-3l8-1v-6l7-4,4-5,10-11,5-4,4-1,7-4s9.84,4.109,11,8h2s2.07-8.235,8-8l5-2,1-3,2-2,2,2h3l5-9,6-4,6-2,11-2h4l8,8,9-1,3-3-2-4-1-5-2-4,2-3v-4l-5,1-3-2v-3l-2-3v-5l-3-1v-6l-4-2-1-5-1-3-2,2-4-1s-4.14-4.853-2-7c0,0,7.09-9.426,6-13,0,0-9.3,2.3-12,6l-2-1,1-2-6-5-1-3,5-5v-6l-4-4-3-3v-1h-2l-1-4s-6.06.384-7,6v7h-1l1,5-1,2-4,1s-1.83,6.766-5,4c0,0-1.71-3.235-4,0,0,0-5.82,4.451-10,20,0,0-10.97,11.494-22,1l-2-1-1-4-4-4s-2.65-3.6-17-8c0,0-1.14-1.563-13-2,0,0-16.48-12.869-29-10,0,0-5.6,7.787-12,1l-2-4-3-1h-2l-3,3-5,1-3,1-1,1-2-2-1-4-1-5s-7.63-7.828-16-3l-3,1v-1l2-3,5-5,2-2v-1l3-3v-2l-1-1-3,2h-9v-1l-1,1s-3.47,3.252-4,3a21,21,0,0,0-4,0l1,4,2,4-6,1,1,5h-5s-6.73,14.208-11,14l-3-2h-4s0.23,4.784-4,6l-2-1-1-1-2,1-5,4-3-3-5-1-2,2-5,1-2-2-1-1h-8l-4-5-2-2h-5l-5,3h-8l-1-3-2-4v-3l1-7v-2l-8,4h-5l-2,1,1,2,4,1s-1.21,8.591-4,14c0,0-.48,2.976-4,2,0,0-4.06-3.948-5,1l-2,2a7.972,7.972,0,0,1-3,8h-5l-1,3,3,4,2,4-1,1h-3l-7-1h-5l-9,7-6-1-1,1h-2l-2-1-8,6v1l3,3-2,1s-8.28,4-10,7v8l-3,2h-4l-7,4S1609.77,683.652,1607,690Z"/>
  <path id="形状_6" data-name="形状 6" class="cls-5" d="M1198,704l2,1,3,3,2,1,3-2,2-1,5,1,2-1,1-3v-4l2,1,2,2v5l2,2h5l2-2,1-1v-3l-1-1-3-2-2-3-1-2-2-3-1-3,2-4,3-1h3s1.22,1.954,2,2,11,0,11,0h3l1,1v4l1,1,4-5,3-4-1-5h1l3,3,2,1,4-3,3-7,2-5,4-5,1-3,3-4,2-2h2v3l-1,5v1l1,2s11.07-.253,32,30l2,6v5l2,5,3,5,1,3,1,2,2,1,2,1,3-2h2l3,1,2,1h5l4-2,1-4,2-16v-9l3-22,2-15,1-6,5-4s6.12,4.5,8,16l2,2,2,5,1-1,1-3,2-5,2-4,2-1,3,3h2l2-3,4-1-2,3-6,6-3,4,1,2,2,1,3-3,3-3h6l7-4,4-4,2-1,3,2h12v3h-5l-1,4h8l-3,3,3,3,7,3h2l1-3,2-1,3,1,2,2,2,3-1,2-2,2v5l3,1,1,3v3l1,4,1,2,3,3,6,7,2,3v6l1,2-1,1-1,2h-3v3l2,2-1,2-2,2-1,4-2-1-1-2a6.319,6.319,0,0,0-4,2l-4,2h-3v3l3,2-1,2h-3l-3,2-1,2v3s-11.38,4.069-14,4l-1-5s-0.18-2.24-3,0c0,0-5.68.226-12,5l1,2,5,6,3,5v3l-4,1-2,2v2s4.57,0.914,5,3l1,7-3,2-1,3v1l1,3,2,2v2l-2,2v4l1,3h12l6-6v7l3,4,1,6v2l4,4v1l-2,3v4l2,4,3,1,8,2h4l2,1,1,2-1,1h-3l-3-1-3-1-3,1-1,2v2l2,1,6,8,3,2-1,6-3,5v4l3,4,4,4,6,2v5l-3,3v5l4,3,6,2,4,1,4-1s1.71-1.294,3,2l2,7,1,6s3.47,1.739,5-1l2-2,1,1-1,3-2,1-2,3,3,2,3,3,3,4h8l4-3,2,1,2,2-1,2-1,3-10,9-5,7-5,5a10.1,10.1,0,0,1-9,3s-5.66.561-3,7c0,0-1.69,17.74-8,15,0,0-4.64-6.193-11-2l-9,7-5,4-3,3-1,4,1,4,4,3,2,2,1,4,1,5,1,4,2,4-2,3-2-2-3-2-4-2-2,1-8,5-10,5s-8.99,4.82-17,1l-8-3h-2l-2,2-1,2-1,2,1,3v3l6,9s4.93,5.97-1,9l-15,11-4,1-2-2v-5h-3v17l-4,10-4,3-6,1-2-2v-4l-3-5-7-6-2-2-6,4h-4s-4.53.56-6-2a4.237,4.237,0,0,0-5,2l-1-3-1-8-1-7s-2.25-4.3-6-5h-3s-10.85-8.26-13-14c0,0-1.9-4.14-4-4l-7-3v-4l1-1-1-3-2-5-3-7-5-1-7-8-10-1-4-2-11-7-18-10V967s-4.18-5.824-17-9c0,0-28.73-8.213-30-9,0,0-3.47-4.782,0-9,0,0,1.24-4.472,10-4h9l17-12,1-3-11-8-4-5v-3l8-7,1-4-4-4-3-3,1-9,2-5s2.11-1.835,7-1h6l1-6,2-3,5-2,2-1,1-3-5-3-6-5-8-6-3-3,1-4,1-4V820l-2-2-1-3v-5l-6-9-1-6,4-2,4-1,1-4-6-4-5-5v-8l4-5,9-9,1-3-3-4-6-7-2-3v-9l-5-9-1-5,4-5Z"/>
  <path id="形状_7" data-name="形状 7" class="cls-6" d="M1435,822s14.68-2.879,18-13l-1-6,4-4,2-16s3-4.773,8-1l7-3a7.874,7.874,0,0,1,8,4l5-2,1-3h-3l-2-1-1-3v-8l1-2,7-1,3-1-1-4-2-3,9-10,2,1,2,2v3l2,2h2l3-2,5-4,5-1,7-3,9-5,3-3,3-1,2,1h2l1-1v-4l1-4,4-2h5l4-2,4-2v-2l4,1,3-1,1-6h3l3-2v-3l-3-1,2-2,4-2,1,1-2,5,1,1,2,1,3-2,3-2,1-3v-3l9-1,4-2,4-6,3,4,3-2,4,1h5l3,1,1,3-2,1-4-1-3-1-3,1,1,3,1,4,5,7,3,1h2l6,6h2l1-2,1-1,3,1,1,2v2l-1,3-1,2h2l5,2v2l2,3,5,4h2l2,5-1,1-2,2,1,3,2,2,1,1h-4l-3,1-1,1,1,1s18.81,8.374,19,13l2,6,2,1h6s13.84,14.9,19,19l5,10,5,8,3,7s7.13,9.233,16,10l4-3v3l1,7,2,1,3,4h2l1-2,3,1,2,3,2,1v1h3V832l2-2h3l1,4,2,4-3,1v6l-1,4-12,12h-3l-3,4-1,13,5,4,2,4,2,1,5,1,4,5h6l4,1,1,6,5,2,6,2,12,10-3,4-2,2v12l1,3,7,1,3,1,1,2h9l4,2,6,1,8,3,5,2,7,6,4,2,4-2,3-1h6l1,2,3,2,3-1,4,2,3,3-1,7,1,9,2,2,1,1v2l-1,3-1,1h-3s-3.34,9.074-24,19l-1,9s-0.83,7-6,8h-5v4l-2-1s-4.12-4.52-11-2h-6v-1h-2l-1,2-1,1h-3l-4-2-5-3-4-4-6-1h-3l-1-1-2-1-2,1h-3l-3-5h-7l-1-2,2-2,2-3h-9l-3-1-2,1v4l1,2,3,2h1l2,1,1,1,1,3-1,2v3l1,2a9.618,9.618,0,0,1-1,6h-2l-3-1-5-2-5-1h-9l-5-1-6-1-3-2-5-4-6-4-5-6s-1.46-1.05-6,1l-5,2h-18l-1,3v4l2,2v5l-1,1-1,2a3.751,3.751,0,0,0,1,1,1.539,1.539,0,0,1,1,1c-0.05.35,0,3,0,3v2l-1,4h-2l-3-2h-5s-0.47,2.27,0,3,0,3,0,3h-1l-1-1h-1l-3-1h-1l-1-1-3,2-4,2-4,3h-3l-1-2-1-2-1,1s-1.26,1.82-1,2,0.48-.17,0,1-0.58.94-1,2-0.95,2.95-1,3l-1,1-3,2s-3.53,17.23-6,18h-2l-4,3-5-1-8-2-5-1-4-2s-2.52.04-8,5l-9,11-3,6-2,3-1-3v-3l-3-2-1-2,1-3,2-3,5-6,1-4-1-3-6-3-3-2-2,1,1,3,2,5h-4l-2-3-1-3h-2l1,6-1,5-3,3-1,1-2-1s-1.48,1.58-1-3l-2-7-1-3v-6l-2-3-3-1v-4s11.92-7.09,21-6l-1-4-2-3v-6l3-2-1-4-1-2v-2l5,4,2,1,1-3-4-2v-9l4-1,10-9v-4l-4-1h-4l-8-1-4-1-3-1v-3l-1-8s-4.91-8.073-12-10l-4-4-4-2-4-1-3-1-2-3-2-1-3,3-14,13-8,6,1,5v6l-1,3-1,2h-2l-2,2-4-2-2,1-1,2h-2l-2-1-1-1h-3l-2-1-3-2v-4l2-2v-2l-2-3-3-1-6,2-2,2-3-2v-4l2-3,2-1a15.773,15.773,0,0,0,4-8l1-4,1-3-2-1,1-4,1-2h5l3-1,3-2,17-19,3-2,2-5-1-1-1-2-2,1h-1l-1,1-2,1h-4l-4-1-6-6-2-1-1-2,3-2,2-2v-2h-3l-2,2h-3l-1-2v-3l-1-4v-3l-2-3h-6l-5-1-4-1-5-3v-6l3-1,1-3v-2l-1-1-3-1-4-2-1-2a8.309,8.309,0,0,1-4-9l3-6v-5l-4-3-3-5-3-3v-3l3-2,4,1,3,1,2,1,2-1-1-2-2-2-2-1-7-1h-5l-2-2-2-4Z"/>
  <path id="形状_8" data-name="形状 8" class="cls-5" d="M1627,1069l2-4,1-5,1-4,3-5,3-4,1-3v-2l1-2,2,1v2l2,2,3-1,2-1,7-5,1-1,4,2,4,1,1-2v-3l3-1,3,1,1,1,2,1,2-4-1-5-1-3v-2l1-2,1-4-3-3,1-5,9-1,10,1,4-2,4-2,4,3,12,9,7,5,9,1h12l7,3,3,1h2l1-4-1-5,1-4-1-3-4-2-3-3-1-5,1-1h3l3,3,3-2h3l-2,4-1,1,3,2h6l2,5h7l3,1h4l3,2,9,7h3l1,1h4v-2l3-1,2,2,4-1h6l2,1,4,1,1,1v-3l1-1h5l2-1s3.41-5.17,4-8v-8l1-1s17.4-7.307,23-17l3-1,2-2,1-4-3-2-2-3V960l-2-3-2-1-3-1h-2l-3-1-1-2h-8l-4,2h-3l-4-3-4-3s-19.12-7.658-24-9h-8a18.838,18.838,0,0,0-11-4l-2-2V919l5-5,3,2,4,2,4,2,6-1,2-2,1-3s1.71-4.86,6-4l6,6h2l2-3,4-4,2,5,2,2,6,6h4l3,2,4,2,5,1h10l4-1,2-2,4,1h1l-1,3,1,1,1,1h9s5.55-2.014,6-6l2-3h5l2-4v-3l2-2-1-2v-1h4l5-4,2-5,1-4,1-2-1-3-3-3,2-2,1-3-3-2-2-2-1-4,2-2,5-8,3-5,5-7v-3l2-2,3-1,4,1,5,2,4,1,3-2,2-3v-3s10.7,0.974,14,6h2l1-1,3-2v-4l-1-4-2-4v-3l3,1,2-1h11l2-1h3l2,2,2,1h11l3-2,4,1,3,2,3-3,5,2,6,5,1,2-1,4v4l2,2,2-1h2l3,1,2,4h2l2-1h6l5,3h3l5,1h8l3,2,4,1v3l4,6,2,4,3,3v8l-2,3-2,5s-6.2,10.2-5,16l1,6,1,3,1,3s4.09,6.493-3,9c0,0-8.32,5.743-9,9l-2-1-6-7-4-4s-1.61-1.583-4,1l-2,2v3l3,5,2,3,3,5,8,7,6,5,13,10,12,8,10,9,6,6,6,5,2,1,2,3,3-2,1-1,3-1,1,2,2,2,3,2h6l2,2,2,1v2l1,3,9,6,11,4,15,6,4,1,5-1,3,2,8,7,4,3,5,3s8.09,3.47,8,11v7l3,3h6l4,3,3,3,4,1,6,3,4,1h4l5-1,1-1,4,1,2,1h6l8,1h5l1-1h4l2,1,2,2a2.124,2.124,0,0,0,1,1,17.411,17.411,0,0,0,3-1s1.5-2.92,1-3,0-4,0-4v-4l2-1,1,5,2-1,2-1h4l1,1,1,2v1l2,2,3-1,1-2,3-3,5,1,2-1a11.8,11.8,0,0,1,1-1h4l1,2,4,6,1,3v4l2,3,1,4-2,1-2,2v9l-4,7-9,1v3l6,1v7l-2,5,2,2v3l-1,4,1,1h5l2,1,2,3-2,1-1,1,3,1h5l2,2,2,2v2l-1,3,6,4,2,2,6,5,3,4,3,4,2,4v4a4.689,4.689,0,0,1,0,1,46.325,46.325,0,0,1-5,0l-1-1h-4l-2,1v3l1,4v2l-4,1-1-1-3,2v7l-1,12,1,3-13-1h-1l-3-2-2-1h-3l-2,2-2,1-3-1-9-5-2,1-3,2-3-3-4-4v-2l-2-2h-4l-1,1s-1.27,4.86-1,5-1,2-1,2l-3-1-1-4-1-1-1,3v-4s1.5-2.03,2-2,3.03-.53,3-1a8.933,8.933,0,0,0-1-2,0.557,0.557,0,0,0-1,0c-0.54.73-1.24,2.12-2,2s-2.13.25-2,1a22.292,22.292,0,0,1,0,3v2l-1,3,1,4,1,2,2,1v3l1,4v1l-6-2-3-1s-1.84.52-2,1-4,1-4,1l-2,1-1,7,1,2-2,1-2,1-2-1-1-3-1-3-3-3-2-2-4-1-4-1v-2l-1-2h-4l1-4-2-3-3-2-3-1-7,4-2,2-3-2v-1l-3,2v2l-6,1-3-2v-4l-2-1-2,1-1,2s0.51,0.32,0,1l-3,4-1,6h-6l-5,1-5,4-4,1-1,1v5l3,4,3,1,5,1,5,1v7l-6,1-1,3,3,3,2,4-1,1-2,1-2-3-1-4-3-2-3,1-1,2-2-1h-2l-2,3-1,3-3,6-1,1-2-1-1,1,1,2,1,2,3,3,2,1-3,9,1,2h-4v3l3,1-3,6h-2l-2-3-2-4-1-1h-1l-1,2s0.98,1.9,1,2,1,2,1,2l-2,1-1,1,1,1s1.85-.27,2,0a9.519,9.519,0,0,0,2,1h3l3,3,1,1,1,3-1,2-1,2a1.789,1.789,0,0,1,0,1,2.652,2.652,0,0,1-1,1,1.331,1.331,0,0,1-1,0l-2-1-2-2-3-1-2,1a9.271,9.271,0,0,1-1,2c-0.4.41-1,1-1,1l-2,2-1,1-2-1h-3l-2,1-3,1s1.39-2.53,1-3,0-3,0-3h2l-1-3a0.8,0.8,0,0,1-1,0,5.334,5.334,0,0,1-2-2,22.566,22.566,0,0,0-2-3l-4-4-1-1-1,1v3l2,2v3l-2,2,2,3,1,1,2,2h-1s-0.51,1.31-2,0a15.219,15.219,0,0,1-2-2h-1a9.027,9.027,0,0,1-1,2l-1,1h-3l-1,1-4-5-9,10-2-1-2-2h-2v5l-1,7h-1l-2-2-2-4-1-1-3,1-2-2-1-2v-5l-1-3-2-1-6,1-1-4h-2l-2-3,1-2-1-2h-3l-2,3-1,1,1,2,1,2,1,4-2,3s0.35,1.17,0,1a5.064,5.064,0,0,0,1,1v1l-4,3-1,3,1,1,2,1,2,3v1l-1,1,1,5,3,4h-2l-2-1-1-1-1-3-1-3-1-2-2-1h-2l-1,1v2l1,3,1,1,2,2v3h-2l-3,2-1,3-2,2-1,7-1,5s0.44,1.43,1,1a19.916,19.916,0,0,1,4-1v-1l-1,4-1,3v2l3,3,2,1v4l-1,1-3,1h-4l-1-2s-1.13-4.13-1-5-0.03-4.63,0-5,0-5,0-5v-2a7.731,7.731,0,0,0-2,1,51.3,51.3,0,0,0-2,5l-2,2-4,4h-3l-5-2s-2.35-3.92-3-4a30.139,30.139,0,0,1-4-2l-2-2-3-2-1-2-2-1-2,1s-1.7.32-2,1-1,2-1,2-0.66-2.89-1-3a11.945,11.945,0,0,0-2,0,5.367,5.367,0,0,1-1,2,1.626,1.626,0,0,0-1,1c-0.18.62-1.57,0.36-2,1a17.266,17.266,0,0,1-2,2l-2-1-1-4v-2h-3l-3-1v-5l-1-3-5-1-2-4-1-3-7-2-1-2h-2a4.024,4.024,0,0,1-1,1c-0.55.34-3,2-3,2l-2,3-1,2-6,6-4,2-1,1-7-2-3-1-2-3-5-2-2,2-4,5-2,4-2,5,1,2,2,4,3,4,2-1,2-1h5l5,2,1,2-1,4-3,2,2,1,2,4-1,5v2l-1,2-2,2,1,3s1.12,0.53,1,1,2,2,2,2l2-3v-2l2-2,2-2,3-1,3,2,3-1,2-1,2-1,3-1,2,1,1,2,2,4,4,1h3l6,6,2,1v3l1,2,2-2,2-1,2,2v3l-1,2s-7.26,6.18-20,6c0,0-15.13-1.92-18-10,0,0-1.3-6.24-8-4l-12,10-2-2-1-1-1-2-3,1,1,3,1,2,3,3-1,3-2,2h-6l-7-1-1-3s-2.35-4.08-11-3l-14-11-3-6,1-4,1-3,3-1-1-1-3-1h-2l-3-2h-1l-2,1h-5l-3,2-2-1-1-2h-3l-1,1s-3.03.35-4,1-6,2-6,2l-9,3-5,3-5-4-4-4-2-3-3-3-2-4v-4l-3-1-5-4-3-2h-3l-2,2v3l2,3,4,3,1,3-3,2-1,1-5-1h-3l-3,3-2,3-3,2-2-3v-3l1-2h2l2-2,1-2-1-8s-5.62-5.07-13,1l-1-3-2-3-2,1-1,2s1.93,1.25,2,2a12.045,12.045,0,0,1,0,3c-0.18.7-.18,2.31-1,2s-2.8-1.61-3-1-1.14-.97-1-1a21.454,21.454,0,0,0,0-3l-2-4-3-6,1-7s-0.86-2.53-3-2l-13-1-1-4,1-2,1-5v-3l3-1,2,2,10,7h5l1-3,1-9,3-9v-3l-1-3,1-4,1-2-1-3-3-6v-9l-5-4-3-5-4-3-5-5-6-5-1-3-1-4s-2.21-3-4-3l-4-2-3-2-2-3-2-1-3,1-2,1-2-3-5-3-5,1-3-4-5-1h-5l-7,2-4,2-3,1-4-1-1-4-1-1h-2l-1,1-3-2v-5l-1-3v-5l-1-1-4-4-4-3-1-1h-3l-4-3-3-6-2-5-2-6-1-1-6-1h-7l-4-1-3-3-2-1-4,1-3,2-4,2-4-2v-5l2-2,2-2,3-3-1-2-3-2-3-2-4,1-2,1h-4l-3-2-2-2,4-4v-5l-1-2,2-5,2-3v-4l-3-3,2-2v-3l2-6-1-3-3-1-4-2,1-4,2-2,1-2-2-1v-2l1-3,1-3-2-2-2-1v-16l1-8v-5l2-4,2-4Z"/>
  <path id="形状_9" data-name="形状 9" class="cls-7" d="M1758,1475h3l2,2,3,5,5,2,5,3,2,1,1,5,3,3,5,4,9,7,8,8,1,4,4,1,6,2,7,1,3,2,5,2,6,6,2,3-1,4,1,3v2l-3,2h-7l-2,1-1,3,1,2,2,1h4l3-2,1-2h2l3,1,2,1-2,3v5l-7,8-3,2-2,2-3,3-2,3,1,2,3,1,3-1,2-1,3-2,2,2,4,1,1,1a26.767,26.767,0,0,1,3,2c0.54,0.55,3,1,3,1l2-1,4,3,7,5h9l5,5v2l-3,1,3,3h-11l1,2,2,2,2,2,1,2v2l1,3,5,1,7,1h4s3.7-.34,5,2l1,4s6.31-1.56,8-3l9-6,3-2,3,1,3,4,4,3,2,2,2-2,5-6,4-5,2-3,1-3,2-1h2l3,4,2,4,1,3,3,1h4l5,1,4,2,6,1,3-1,3,4,4,2,2,2,2,3,7-1,5,1,4,4,4,3,7,1,3,2,2,1h7l2-1h3l4,3,4,6,4,5v1l3,2h12l3,2,12,4,4,3,4,1,3-1,1-3,4,1,1,6-1,8v25s1.92,4.86,7,5h4s6.69,2.48,7,5c0,0,6.65,6.02,7,12,0,0,1.76,9.57-5,20,0,0-10.97,11.15-8,24,0,0,5.45,7.54-9,11,0,0-14.56,2.8-22,1,0,0-13.83-5.31-16,1,0,0,1.59,14.54-9,14,0,0-9.22-1.26-8,10,0,0,5.71,18.02,6,26,0,0,2.66,17.26-4,25,0,0-6.06,5.81,2,13,0,0,9.01,8.31,3,16,0,0-6.68,6.32-6,19,0,0-2.98,16.98,9,21l1,1-2,2-5,4-2,1-3-1-3-1-2,1-2,1,2,3v6l-3,3-2,1v3l-1,5-5-1-2-1-1-5v-5l-2-3-3-2-2-3-3-2-3-4-3-2v-1l2-2-1-2-2-1-4,2-3,1-3-1h-1l-2-2h-1l-6-1h-4l-4,1-2,1-3,3-5,2-4-1-2,1v9l2,4,2,3v3l1,4-3,2-3,1-1,1,1,3,2,2,3,3,1,1-1,3-3,1-6-1-6-2h-6l-5,2h-7l-4,4h-1l1,4,1,5,2,3,2,3,6,7,5,1,6,2,3,1,3-3,2-4,3-2,2,1,2,2,4-2h4l1,3,1,3,3,2,2,2h5l2-2,2-2,3,1,3,1,1,3,2,4,3,4,2,4h5l3,2v3l2,2h2l1,1,3-2h2l3,1v-2l-1-2-2-1-3-2-2-1v-2l5,1s3.93,1.33,4,1,7,0,7,0l2-1,4-2v-2l2-1h2l3,4,6,3,2,5-7,4-6,3-5,3-5,2-7-2-1-2-5,2a35.319,35.319,0,0,0-4-1,4.511,4.511,0,0,0-2-2,36.141,36.141,0,0,1-4-3s-2.86-1.43-3-2-3-3-3-3l-3-3-6-3-7-1-5-2-10-1h-6l-4-1h-2l-2,1-5-3-3-1-4,2-2,2-4-2s-2.23-.77-2-1-4,0-4,0l-3,3-5,4-3,4-3-1-3-2h-12l-6-2-2-1-3-1s-2.36.13-4,4l-6,6-4,6h-5l-2,3-4-1-4-2-2-2v-8h-21l-6-2-3-1h-10l-3,3-4-1-7-2-8,1-3-1-2-1-1-2v-10l-3-1-4-1-8-8-1-1-4-1-2,1-3-2-4-6-7-6-3-1-4-1-8-1h-8l-1,1v4l-1,3s-3.24,4.79-8,4c0,0-.09-9.06-8-11h-12l-3-5-4-3-3-3-2-1-1-4s-4.37-13.7-10-14l-10-2-6-1a7.794,7.794,0,0,1-5-5v-7s-1.37-3.19-5-1c0,0-2.36,5.51-8,4,0,0-6.46-.98-5-5,0,0,6.83.52,8-3v-5s-6.81-1.88-7-5c0,0,7.23-6.3,0-7h-12s-6.47.45-3,5c0,0,5.83,5.25,2,6,0,0-4.01,2.15-8-3l-17-11-6-3-2-5s-5.3-6.9-12-6l-8-4-8-3-6-4s-4.19-.79-7,2a7.642,7.642,0,0,1-8,5l-5-1s-1.44.46-2-4l1-1v-3s-4.23-1.29-5-5v-13s-3.93-5.98-2-10c0,0,2.46-5.53,5-6,0,0,5.41-.42,5-5v-16l3-8,2-3-1-2h-4l-1-1v-2l1-1-1-3-2-2v-1l8-1,5-1,3-1v-4l-8,2-4,1-6,1-2-4,2-1,4-4-1-6-2-5,2-2,2,2h8l-1-8-2-2-1-2,2-1,4-1,2-1h2v2l1,2,3-1s11.33-3.71,13-6l5-7,5-9,7-9,1-3-1-2-4-5-1-2,1-3,2-2,2-2v-3l-3-7v-7l3-3-2-5-1-6v-3l4-3,3-4-1-3-4-3h-4l-7,3s-5.93,3.58-9,1l-3-4v-6l2-5,8-5h6l2,4,2,1,5-5,2-8s4.11-10-10-13h-4l-8,5-3-1-1-5-5-3-7-5-3-6-1-5,2-7,5-7s6.04-6.15,2-17c0,0-4.81-8.68-19-9,0,0-8.41-2.15-13-6l3-4,2-4,2-5-2-7v-3l-1-1h-2l-2,2-2,1-3,2-5-2v-2l-1-3v-5l3-2,1-6-2-3v-4h3l5,3,4,1,1,2h2v-1h5v3l3-2,2-2,1-2h3l2-2,2-3,2-2,2,2,5-1,3-1,2-2h3l3,2,3,2,1,2-1,2v3h6l1,2,2,2,2,2,2,1h4l4-3,4-2,4-3v-5l4-3,8-4,4-1,3,5,1,3,2,1h7l3,2v3h5l7,1,3,7h10l1,3,6,1,4,3,3-2h4l5,7,4,5h3l2-3,3,2,3,1,3-2,3,1,1,1h7l3-3,2-3,2-4,2-3,4-1,5-2,5-3h5l3-4v-13l6-9,1-3,2-4,3-2,2-4Z"/>
  <path id="形状_11" data-name="形状 11" class="cls-7" d="M1957,1392l2-1v-3l2-2,3-2,2-1,3,2h3l4-3,2-1,3,1,2,3,1,3,3,1h5l2,3,4,4,2,1v4l2-2,3-1,2,3-2,3v1l2,1,2-2,2-1,3-1,5,1,2,2,5-4,6-3,5,1-1,5v2l7,1,10,1h15l4,5,2,1,2-2,4,1h2l3,2h5l-1-5-1-2,16-7,3,1v3l3,2,2,1,4-1h3l3,2h4l3-2h2v3l-4,5,2,2,5,2,4,1h14l3-2,4-1h1l3-2,1-1,1-3,2-2,3,2,1-2,1-3v-1l-1-1-4-1a1.929,1.929,0,0,1-1-1c-0.27-.71-1-4-1-4l1-3,1-6v-14l-2-5v-2l2-1,2,1,5,2s2.36-.06,2-1a60.622,60.622,0,0,1-1-6v-2l-3-3-7-3-3-2-1-1v-2l6-5,2-4s2.13-1.98,1-10l2-1h9l2,4,3,3,4,3,3,1,2-4,1-3,1-2h2l1-1-3-4-2-3-2-2v-2l1-1,5,1,7,3h3l2-2,1-3,1-2h5v-2l1-2,1,1s2.23,0.38,2,1,2,0,2,0l1-1v-3l-2-2,2-2,2,1,4,1,2,1,3-1,4-2,4-2h3l4,1,1,1,2-4,5,1,5,1,5-3,2-1,1,1v3l-1,3,6,1,3,1v4s-3.12,3.79-5,4v2l1,3s5.7,5.04,13,5c0,0,10.32,1.63,16,0,0,0,7.12-4.96,12-2h6l2-2,1-1,5,1,3,1h6l2-1,1-1v-3l2-4-1-5,3-2h10l3,1,4,3h4l3,2,5-1,5-3,4-3,3-1,7,1,4,2,4,1,4-1,4-4,2-4,1-2v-4l-1-5-2-6-4-3-3-3-1-4v-5l5-3,1-6v-19l3-3,1-1-1-4v-9l2-2-1-9v-8h6l1-5-1-8v-12l3-7v-5l-10,1v-7l27-22s6.11-5.55,6-11c0,0-3.62-6.66-9-10,0,0-25.04-9.95-31-10,0,0-11.37.39-23-20,0,0-1.61-11.02-13-5l-7,2-8-2-19-9-6-4,3,11,1,3v2l-3,3v8l-4,8-4,1h-5l1,3,3,1h2v7l-1,3-1,2,1,1,1,2a7.052,7.052,0,0,0,0,2,15.824,15.824,0,0,1,0,3v2h6l3,3-2,2v1l5,1,4,1,2,3v2l-1,3,3,1,3,3,7,6,4,5,3,3,2,8-1,2s0.12,0.68-3,0h-2l-3-1-3,2v2l1,2v4h-4l-2,1-2,2,1,4-1,7v9l-10,1h-4l-3-3h-4l-3,1-3,1-4-1-3-2-3-2-6,2-2-2a17.88,17.88,0,0,1-2-2c-0.1-.31-2-3-2-3l-2-3-2-1h-1s-0.51,1.15-1,1,0.1-.99-1,0-2.16.39-2,2,1.05,1.97,0,3-0.08-.57-1,1a8.733,8.733,0,0,0-1,2l-2-2a20.241,20.241,0,0,1-1-2c-0.42-1,.42-0.33,0-1s-1.05.01-1-1,0-2,0-2v-2h3l1-2-2-1-1,1-2,1-2,2,2,4-1,2v6l3,3v2l1,2v3l-5-1-2-1-3-1-3,1-4,1-1,5v4h2l-2,1-1,1s-0.73.75-1,1-3-1-3-1l-1-3-1-2-1-2-4-3-2-1-4-2-3-3-4-1v-5l-2-2-3-3-5,1-2,2-4,3-2-2h-2l-1,1s-0.87.9-1,1,0.55,0.43-1,1,0.93,1.48-2,1-3,0-3,0l-2-2-2-2v-3l-2,1-2,1-1,3-2,2v7h-7l-3,1-4,2-3,1-2,2-2,1-1,6,6,4,4,1h3l2,1,1,1v6l-6,1v4l3,4,1,2-2,1h-1l-1-1-2-3-1-2-1-1h-3l-2,2-4-1s-2.23,1.96-2,2-1,4-1,4l-2,4-2,3-3-1v2l2,3,2,2,2,2v6l-1,2-1,3a3.559,3.559,0,0,0,0,1c0.09-.28-2,0-2,0l1,3h1l-3,5-1,1-2-1s-0.42-3.07-1-3-1.96-1.65-2-2a3.019,3.019,0,0,0-1-1v-1l-1,1s-2.04.98-1,2,2,2,2,2v1l-2,1v2l4,1,4,1,2,2,2,3-1,3-1,2-1,3-2-1-4-2-2-2-1,1-1,1-2,2-2,3-3-1-5,1-2,1-1-3,1-2,1-1-1-3-2-1-1-3-2-2-3-3-1-1-1,1,1,3,1,3v3l-2,2,1,2,2,1s0.94,1.79,1,2a5.43,5.43,0,0,1,0,1s-1.48-.75-2-1-2-1-2-1l-1,1h-1l-3,2h-2l-2-1-1-2-1-1-2,1-7,8h-2l-2-2h-2v11l-3-1s-2.04-1.51-2-2a6.458,6.458,0,0,0-1-2l-2-2-3,1-1-2-3-1v-2s2.11,0.26,2-1-1.3-2.39-1-3a4.274,4.274,0,0,0,0-2l-2-2-3,1h-2l-1-2-1-1-1-1-3-2,1-3-1-2h-3l-2,2-1,2,1,2,1,2,1,4v1s-3.19-.26-2,1,2,2,2,2l-1,2-3,2-1,2v3l3,3,1,1-1,2v3l2,3,1,2v1a10.835,10.835,0,0,1-3-1c-0.45-.47-2-1.04-2-2s-1.17-3.16-1-3a7.847,7.847,0,0,0,0-2l-1-1-2-1h-2v4l1,2,2,2v3l-2,1-2,1-2,3-2,3v3l-1,3-1,4s0.89,2.42,1,2,1.51-.23,2-1a12.758,12.758,0,0,1,2-2v3l-1,4v3l1,2,1,1,2,2v4h-1s-3.35,1.14-3,1-1.86-.6-2,0-2,0-2,0a9.162,9.162,0,0,1-1-1,17.314,17.314,0,0,1-1-3c0.02-.29,0-4,0-4l-1-5,1-4-2-1-1,4-3,3-3,3-3,2-5-2-4-3-2-3-4-3-3-2-1-2h-2l-4,1-1,1-2-2-3,3-4,3-2-1-1-4-1-1-3-1-2-1v-3l-1-4-2-1-3-1-1-3-1-2-2-2-2-1h-2l-2-1-1-1h-3l-3,3-2,3-2,3-2,2-5,4-2,2-5-1-4-2-4-3-3-2h-2l-3,3-2,3-3,5-1,4,1,4,2,3,2,2h2l2-1h5l3,2,2,1,1,2-1,2-1,2-1,1,1,2,2,2v7l-1,1-1,2h-1v5l1,1Z"/>
  <path id="形状_12" data-name="形状 12" class="cls-6" d="M2011,807l3,2,3,2,1,3v2l2,3,1,2,1,2v4l3,2,5,2h2v2l-5,1-2,1,3,3h6v3l1,2,3,3,3,3v3l1,1,3,2,4,1,12,1,4,1,4,2,2,1v3l3,5,2,4,3,4-1,10-4,6s-8.45,15.113,0,27v6l-3,2-8,8-3,2-2-1-4-5-4-5-2-1h-3l-2,2v3l2,5,3,5,14,13,8,7,21,15,10,9,8,8,6,4v1h3l3-2,3-1,2,3,2,2,5,1,4,1,3,3v3l5,4,15,7,15,6h9l4,3,5,4,8,6,5,3s6.03,3.99,6,9l1,8,1,3,3-1,6,1,4,5,4,2,9,3,5,1,6-1h3l6,1,17,1,1-1h6l2,3h3l1-3,1-5v-3l2-2,1,2v3l2,1,3-2h3s2.42,1.33,2,2,1,3,1,3l2,1,4-4,4-2h4l1-3-5-8h-1l-4,1h-2l-4,3-2-3-1-1-2-1-1,2-1,3-2,1-1-2,1-3,1-4,3-4,1-2-4-4-2-3-3-2v-3l-5,1-3,1-3-1h-2v-3l-2-1,1-3,3-2,1-2s-1.7-3.03-3-3v-2l8-1s5.98-2.99,7-6l-4-3v-4l3-4-1-4-1-6,1-3,3-1h2l1,1,2,1,2-2v-1l-2-1-4-3-4-5-2-2v-4l2-4-1-3-2-1-2,1v3l-2,1h-1l-2-1-2-1-2-3v-3s2.49-3.888,4-5v-3l-3-3-1-3-4-3-1-4,2-4,2-6,3-6,4-1,2,2h3l3-1,3-2,3-3,5-6,4-2h2l3,2,4,1,5-1,8-3,3-2v-6h-3l-2-3v-2l5-1-2-6-1-4-1-3h-8l-2-8-2-4-2-2-1-4v-1l1-1,1-1,2-1,1-2-2-2-1-2,2-1v-2l-1-2,1-5v-2h-4l-1,1-4-1-3-1-2,3v2h-10l-2-2-2-4h-8l-4-2-9-6-4,3h-5a7.364,7.364,0,0,1-4-5l-1-3h-4l-4,4-2,2-7-1-17,12-1-5v-3l-3-1-2-1,6-5-7-1-5-3-5-4-3-3h-5l-3-3-3-1-2-2-2-3-5-1s-3.03-1.19-2-4c0,0,2.29-2.138-1-3l-1-1-1-5,4-5,1-2,2-1-1-3-3-3-3-2-12-1-2-1-1-3h-3v7h-4l-5,4-2,5-2,3-3,1-4,1-2,3h-2l-2-2h-6l-2-1,1-3-3-2-3-1-4-1-2-2-2-1-5,1-4,1h-3l-2-2v-4l-2-2-3,1h-2l-3-1-3-1h-7l-6,3-5,1-6,2h-7l-4-1-2-1h-3l-1,2-2,1-4-1-4-1-4,1-2-2h-4l-2-1-2,1-1,3-2,2s-0.48,4.253-1,4-2,2-2,2v7l4,1,1,2-4,2-1,2v1Z"/>
  <path id="形状_13" data-name="形状 13" class="cls-4" d="M1793,1363l1-2,1-1,2,2a1.307,1.307,0,0,1,1,1c0.07,0.78-.07,2.64,0,3s2,0,2,0l1-2h2l3-1h3l2,1,1,3v4l-1,3v2l-3,2-1,3,1,4s-0.63-.84,0-1,5-2,5-2l2-2,2-2,2-1,5,1,4-2,1-2-1-3-3-1-2-4v-4l1-1h2l3,2,6,4,3,2,1,5,2,4,12,12h2l6-4,14-4,5-2,4,3,6-2h5l5,1,4,1h1l-3,4-1,5,2,5,4,4,4,4,7,4h6l5,6,13,1s4.14-2.92,2-6l-2-4-1-2v-2l3,2,3,3,3-3,4-3,6-4h3l2,1,2,3,2,3,6,4,4,2,7,1,5-1h6l3-2,4-2h2l3-1,2-1,4-2,4,2,2,1,5-4,3-1,5-2,2,1-1,7,7,2h10l16,1,5,4,6-1,4,1,3,3,4-1-1-4-1-2,3-3,7-2,5-3h4v5l4,2,6-1,4,1,2,1h3l5-2-2,5-1,3,3,4,8,1h7l9-1,3-2,3-1,2-1,1-3v8l1,4,2,5-1,7v4l-3,4-3,5,1,5,5,5v7l-12,8-1,6-3,2-1,2,1,2,2,2v10l1,5v3l4,4v3l3,4,5,7,4,5,1,5,8,15,2,3,1-2,2-1,2-1,1,5v2l2,1h3l2,2,3,2-1,5v11l-2,3-1,2-1,2,1,3h5s-0.36,1.83-1,2a11.863,11.863,0,0,0-2,1l4-1h1l1,2,2,1,1,6,1,4-1,2-2,2s-0.22.1,0,1,2,2,2,2h2l2-2h3l4,2-1,2s1.13,0.09,0,2-1,2-1,2l-3,3-1,3v2l-6,5-8,8s-3.45,4.18-14-1a106.251,106.251,0,0,1-25-21s-10.89-14.14-15-17c0,0-7.43-6.94-13,3,0,0-8.65,13.74-8,22,0,0,6.26,8.55-4,12,0,0-25.76,15.11-26,21,0,0-1.81,5.5-4,8l-3,2h-6l-2-2-9-3-2-1-2-1-3-1-3-1h-8l-3-1-2-2-4-5-3-4-2-4s-2.96-1.99-4-2l-3,1-2,1h-5l-3-1-2-2-3-1h-4l-4-2-1-2-2-2-2-1-10-1-3-1-2-3-2-1-2-1-2-1v-2l-4-1h-5l-4-2-7-1h-5l-2-2-1-3-3-5-2-1-1-2-4,3-1,4-6,6-3,5-4,3-3-4-6-5-3-1s-14.02,11.95-20,11v-3s0.06-2.84-4-3l-16-2s-1.64.61-2-6l-5-5s-1.31-1.86,2-2h7l-1-3,2-1-1-2-4-5h-7l-3-1-9-7-4,1-2-1-5-4h-3l-2-1h-2l-5,3-3-1-2-2,2-2,2-3,13-13,1-5,1-3-3-2h-4l-2,2-3,2h-2l-3-1v-2a1.355,1.355,0,0,1,0-2c0.99-1.14-1.3-2.49,1-2s0.71-.34,4,0l5-1,2-2v-3l-1-4,1-3s-9.67-11.55-29-14l-3-1-2-5-7-6-6-5-7-6-4-4-2-5-2-1-3-1-2-2-3-1-2-2-2-4-3-2h-3v-5l1-10,1-4,2-4,3-4,1-8,2-9-1-15-3-4,2-14,4-5,1-2v-4l6-3,5-2s6.64-5.72,6-10l5-2,1-1,1-3-1-2Z"/>
  <path id="形状_14" data-name="形状 14" class="cls-8" d="M2166,1394l5-1,2,1a34.656,34.656,0,0,0-2,3,3.456,3.456,0,0,0,1,1c0.42,0.46,5-1,5-1h3l3-1,4,2,1,1,4,1-1,2-2,3,1,3,7,8h6l2,8,4,2,2,4,2,4,2,3,8-1,3,1,2-4h2l2,1h2l2-1,1-1,4,1,2,2,1-2,1-2h3l4-2,2-1,3,3v2l-1,2s-6.08-.24-6,5v10l5,1-1,6-6,8-1,2,1,2,2,3,3,2s2.14,1.49,4-1c0,0,2.51-3.36,4-2h1v2l-1,1-1,2v12h1v3l-2,1s-0.52,1.74,0,2a5.788,5.788,0,0,0,2,1c0.63-.01,7-1,7-1h6l3,2,1,4,1,1h4l5,1-1,3,1,4,2-4,3-2,2,1h6l1-2h11l3,4,3,3,1,1,1,3,1,2,2,4h6l1-2,1-1,1-2h1l4,1,3,2,4-1,3-1h9l2,2,1,1h2l1-2h2l1-1a19.468,19.468,0,0,0,1,2,23.5,23.5,0,0,1,1,4s0.31,0.63,2,1a13.052,13.052,0,0,0,4,0l-1-3v-3h0s4.09-6.01,10-2c0,0,6.18,1.58,10,9v17s3.86,10.01,8,11h3s0.31,4.59,0,5,4.16,3.5,4,4,3,3,3,3v4l1,3s-5.38,9.19-8,11l-3,2-7,6-8,5-15,3-8,2s-8.21,6.72-9,8c0,0-8.28,11.8-19,12,0,0-21.13,2.8-28-3,0,0-20.38-5.78-21-17,0,0,3.66-13.09-6-10l-12,11-10,9s-11.87,11.16-23,8c0,0-19.7-4.18-26,5l-1-4,4-4,1-2v-4s-4.35-4.79-9,0l-3-2,2-4v-10l-3-4-4-3h-4v-4l1-3,2-3v-8l1-7-5-4-5-1v-7s-5.61,1.09-6,3l-2-1-1-3-3-6-3-5-1-4-4-7-7-10-3-7-2-1-2-19-4-4,4-4,2-3,1-3,9-6,2-3v-7l-5-4v-6l5-7v-16l-2-4v-8l3-4,2,1,2,1,1-3v-3l-1-1-4-1-2-1Z"/>
  <path id="形状_15" data-name="形状 15" class="cls-2" d="M2317,1325l9,7v3l-3,3-2,3,1,3h6l3,6,5,6,4,4v10l4,6v10l-3,3-1,3-4,2-3,4-1,5-5,6-6,3-3,6-2,3-1-2v-2l-1-2h-3l-1,1-1,1,1,2s3.9,5.61,2,11c0,0,10.29.26,11,8l7,1,1-2h2l2,2,2,1,1-3s3.33-14.54-4-18v-2l8,1,5,7v5l1,2,2,2,1-1,1-3,3-2,2-1,6-5s3.43-2.32,2,2l-6,12-5,10-2,6v13l-4,1h-7l-3,3-3,6-2,4-1,1h7l2,1,2,2-1,1-6,1-2,1,2,1v2l-1,1,2,2,1,1,1,2-1,3,1,2-3,2v6h2a5.464,5.464,0,0,0,2-1c0.51-.58-0.87-1.98,1-2s2,0,2,0l3,1,2,1s4.42,3.15,5,3a19.609,19.609,0,0,1,3,0l-2,4-6,1-5,1h-2l-2-1-3-1h-2l-2,1s-0.37,2.93-1,3-4,1-4,1h-3l-1-1-1-3-2-5-2-2-2-2-2-2-3-2h-8l-3,2h-9l-3,3-1-1v-4l-7-1-2-5-4-3-7,1-4,1h-3l-1-3,2-1v-4l-1-9v-3l2-3-1-1h-2l-4,4-3-2-3-2-2-5,2-2,2-4,3-3,1-3v-3l-5-1v-5l1-7v-2l3-1h2l1-2-1-3-2-2h-3l-3,2-2,1-4,2,1,2-3-2-2-1h-2l-1,1-2,1-3-1h-2l-1,2-1,1-11,1-2-4-2-4-3-5h-3l-1-6-2-2-6-1-4-4-2-3s-2.34-2.23,1-6h1v-2l-2-1-4-2-6-1-6,1h-2l1-2v-1l-3-1-2,1h-2c0.47,0.49,1-7,1-7v-6l-1-8v-5l1-1,4,2,2,1s3.97,2.14,3-2l-1-7-2-2-3-3-5-2-4-2v-2l6-5,3-7v-7l3-1h8l2,4,3,3,3,2,1,1h4l1-3v-2l2-2,1-1h2v-2l-2-3-3-3-2-2v-2h5l2,1,4,2h4l2-1,3-5,2-1h3l1-3,3,1,2,1,1-2v-3l-2-3,3-1,3,1,3,2h2l4-1,2-2,5-2h3l3,1v1l3-2v-1h6l2,1h2l1-2h3l1-1h2v7h7l1,1v2l1,3-3,1-2,2v3s2.31,6.05,13,7c0,0,9.37.99,14,1l7-3,4-1Z"/>
  <path id="形状_16" data-name="形状 16" class="cls-9" d="M2318,1326l5-1,2-2,2-1,3,1,10,1,4-7,1-3v-5l2-1h8l5,1,4,3h4l3,2,5-1,4-2,6-4,5-1,4,1,5,3h5l4-2,2-3,1-2,2-2,1,2,2,2v2l2,4-1,4v3l-1,4,1,3,6,5,1,2-3,7,1,8,3,12,1,11,1,4,4,4,8,5,3,1,3,4,3,6s5.7,10.84,16,14l6-1,7-2,9,1,12,10,9,6,4,3,3,6,3,1,12-1,9,3,3,2,3,3,2,3,8,1,5,4,1,2,3,4,1,1,2,3,1,4,1,5s3.29,8.88-3,14l-9,5s-16.71,2.09-19,17a56.29,56.29,0,0,0-5,28s0.08,21.76-16,18l-18-3-8-1-9-1s-12.91,1.76-12,9c0,0-5.72,17.14-18,22,0,0-7.52,4.56-12-3l-6-7-2-1-2-2h-12l-6,6h-1l-1-4-2-3-4-6v-4h-4l-6-7-1-17v-4l-5-5s-10.29-8.96-15-1v5l1,1-3,1-3-2-1-4v-2l-5,2v1l-3-1-3-3-1-1,1-2-1-1h-3l-3-2-2-2-2-2h-3l-2,2-1,2h-3v-5l2-3v-6l-3-3,2-3-3-1v-1l8-2s0.91-3.7-4-4h-4l-1-1s5.06-10.75,7-12l10-1,2-2v-12s8.32-20.67,13-29c0,0,.77-3.57-4,0,0,0-8.67,7.6-9,8l-1,2h-2l-2-2-1-7s-1.77-7.92-12-6c0,0,4.61,4.59,4,8l-1,12,1,1h-2l-2-2h-3l-1,1h-6l-2-2-1-2-1-1-4-2-4-1v-6l-3-6,2-3h3l1,4,1,1,2-2,3-5,7-5,3-3,1-6,3-3,4-3,4-6,1-2v-9l-3-5-1-12-2-1-4-5-4-5-2-4h-5l-2-1,1-3,2-3,2-1,1-2-1-2-3-2Z"/>
  <text id="铜铃山镇" class="cls-11" x="944.195" y="909.099">铜铃山镇</text>
  <text id="西坑畲族镇" class="cls-11" x="1274.195" y="882.1">西坑畲族镇</text>
  <text id="黄坦镇" class="cls-11" x="1322.196" y="1357.098">黄坦镇</text>
  <text id="珊溪镇" class="cls-11" x="1746.195" y="1757.099">珊溪镇</text>
  <text id="桂山乡" class="cls-11" x="1833.197" y="2076.099">桂山乡</text>
  <text id="巨屿镇" class="cls-11" x="1953.197" y="1512.1">巨屿镇</text>
  <text id="双桂乡" class="cls-11" x="2213.195" y="1542.098">双桂乡</text>
  <text id="周山畲族乡" class="cls-11" x="2208.196" y="1400.098">周山畲族乡</text>
  <text id="公阳乡" class="cls-11" x="2406.198" y="1465.099">公阳乡</text>
  <text id="峃口镇" class="cls-11" x="2275.196" y="1261.099">峃口镇</text>
  <text id="大峃镇" class="cls-11" x="1944.196" y="1130.098">大峃镇</text>
  <text id="百丈漈镇" class="cls-11" x="1578.197" y="882.1">百丈漈镇</text>
  <text id="二源镇" class="cls-11" x="1751.197" y="739.1">二源镇</text>
  <text id="周壤镇" class="cls-11" x="2150.197" y="926.099">周壤镇</text>
  <text id="玉壶镇" class="cls-11" x="2185.196" y="563.099">玉壶镇</text>
  <text id="南田镇" class="cls-11" x="1403.196" y="514.099">南田镇</text>
  <path id="形状_18" data-name="形状 18" class="cls-4" d="M2422,1169l-1,6-2,4v8l1,10s0.14,7.42-1,8h-6v11l1,4-1,3-1,2,1,13-4,3v25s-9.89,3.41-4,12c0,0,5.92,5.25,7,7,0,0,3.16,9.41,2,16,0,0,6.97,4.49,4,21v2l7,7-1,3-1,6,1,8,1,9,2,8v6s5.21,8.89,12,11c0,0,7.93,4.85,9,10,0,0,5.47,10.31,11,13,0,0,5.84,4.41,14,0h14s11.21,11.28,16,13l5,3s7.31,6.68,8,10h15s12.24,3.77,17,11l7,1,5,5,5-4a21.7,21.7,0,0,1,9-2s18.95-1.63,24-15c0,0,6.26-17.74,11-22,0,0,9.13-5.33,19-3,0,0,11.76,3.14,18-3l-1-14,13-15s3.71-1.65,6,1l3,3s1.82-.23,2-4v-8l-1-4-1-3s-15.33-9.09-17-9l-1-1-1-4s-9.39-9.66-31-9c0,0-7.33-1.47-9-12,0,0-2.24-4.79-5-7,0,0-36.1-37.16-55-41,0,0-34.5-10.86-47-24v-5s11.43-5.25,12-17l1-10-2-2s-22.19-10.17-23-18l1-14-1-3-10-6-13-5-11-1-12,1h-12Z"/>
  <text id="平和乡" class="cls-11" x="2474.195" y="1328.099">平和乡</text>
</svg>
