<svg xmlns="http://www.w3.org/2000/svg" xmlns:xlink="http://www.w3.org/1999/xlink" width="965" height="539" viewBox="0 0 965 539">
  <defs>
    <style>
      .cls-1 {
        filter: url(#filter);
      }

      .cls-2 {
        fill: #002762;
        stroke: #b4d1f9;
        stroke-width: 2px;
        fill-rule: evenodd;
      }

      .cls-3 {
        font-size: 14.979px;
        fill: #fffefe;
        text-anchor: middle;
        font-family: "Microsoft YaHei";
      }
    </style>
    <filter id="filter" filterUnits="userSpaceOnUse">
      <feGaussianBlur result="blur" stdDeviation="6" in="SourceAlpha"/>
      <feComposite result="composite"/>
      <feComposite result="composite-2"/>
      <feComposite result="composite-3"/>
      <feFlood result="flood" flood-color="#0a52ca" flood-opacity="0.76"/>
      <feComposite result="composite-4" operator="in" in2="composite-3"/>
      <feBlend result="blend" in2="SourceGraphic"/>
      <feBlend result="blend-2" in="SourceGraphic"/>
    </filter>
  </defs>
  <g id="画板_1" data-name="画板 1">
    <g id="温岭_拷贝" data-name="温岭 拷贝">
      <g id="温岭" class="cls-1">
        <path id="形状_41" data-name="形状 41" class="cls-2" d="M102,358s0.844,14.292,2,20-3.156,15.533-1,17,2.077,34.737-2,50,1,13,1,13,13.142,2.618,17,1,10.379-8.793,10-5,4.382,3.737,9,5,9,2,9,2l-3-6s3.032-10.741,7-12,5.741-.388,10,0,17.157-3.687,21-7,10.219-9.162,13-12-1.779-7.342,4-9,14.756-13.055,22-16,16.7-12.3,20-14,7.291-1.473,9-2,4.881-8.888,7-8,7.648-1.479,9-4,1-4,1-4a26.019,26.019,0,0,1-5-2c-2.366-1.292-5.784-3.568-8-4s-4.12-6.428-5-5-0.765,3.357-2,2-0.578-1.166-3-1-6.251-1.437-8-6-9.2-11.866-20-9-31.091,12.928-39,13-7.6-4.315-2-5-1.474-7.988-5-8-12.8,1.437-17,4-6-1-6-1-6.688-.238-4-3-3.979.127-6,3-8.161,1.818-12,2S107.182,347.984,102,358Z"/>
        <path id="形状_42" data-name="形状 42" class="cls-2" d="M636,447c11.876,6.612,17.171,13.579,22,14s10.416-3.464,13-3,3.192,2.749,5,4,3.968-8.435,5-5,4.491,5.185,6,6,0.44,15.949,9,15,11.388-11.476,18-11,10.066,9.133,12,11,11.055-2.654,11,2-1.945,4.024-1,8,4.3,7.322,6,11,3.423,7.931,2,12,2.44,7.086,6,6-1.388-2.408,7-4,8.883-6.833,13-9,6.055,0.788,11,1,8.722,6.886,15,2,6.739-8.16,12-13,13.417-6.373,13-8-8.433-4.034-14-1-6.686-5.516-5-8,9.641-4.643,12-3,2.032-4.573-4-4-8.445-7.251-4-7,9.14,3.081,15-2,3.178-16.4,6-14,7.479,5.228,13,5,2.256-.366,3-4,0.292-4.812-2-6-7.784-3.11-8-6,4.96-6.889,8-8,12.517-11.785,10-18-16.563-9.781-17-5,5.053,7.165-6,12-13.453,4.794-16,4-8.1,7.075-12,2,8.366,8.785,5,10-16.614-1.957-24-2-12.514.695-15,0,0.722-6.835-3-8-8-5-8-5-5.562,12.446-14,7-27.126-16.129-30-16-26.455-4.59-29-5,4.274-6.727,0-8c-5.069-1.509-20.973-8.753-21-9C661.056,387.512,634.877,446.375,636,447Z"/>
        <path id="形状_59" data-name="形状 59" class="cls-2" d="M864,416s-4.62,2.874-4,4,5,2,5,2l3,1s-5.215,1.082-4,3-1,4-1,4l-4,5s-0.434,2.489-6,1-6-2-6-2l5-5,2-5s-3.621,1.072,1-2S861.6,414.8,864,416Z"/>
        <path id="形状_60" data-name="形状 60" class="cls-2" d="M889,419c-0.81.328-9,2-9,2s-1.2-.521-2,2-1,3-1,3l-3,5s-3.808-1.309-3,2,1,3,1,3l1,3-3,4a12.272,12.272,0,0,0,6,1c3.4-.3,5-4,5-4l2-2-5-2,2-4,3-4h-3l2-2,3-2,2-3,3-1,3,1S889.81,418.672,889,419Z"/>
        <path id="形状_61" data-name="形状 61" class="cls-2" d="M926,439c-1.9-1.631-7,4-7,4l-5-1h-2l-1,4s-1.372-2.3-4,0-3,2-3,2,5.834-1.09,6,2,4.627,1.713-1,4-6,2-6,2l6,4s5.64,1.92,6,2,1.644-2.877,3,0,1,3,1,3a2.174,2.174,0,0,0,0,3c1.355,1.672,6.241-.668,2,2s-5,3-5,3,8.251-1.264,9,1,0,3,0,3,3.054-3.269,3-4-0.55-.876-2-4-0.95-1.478-1-3,6.647-1.883,2-4-5-2-5-2l3-5,2-2a16.771,16.771,0,0,1-5-2c-2.444-1.506-1.556-1.695-2-2s1-5,1-5S927.4,440.2,926,439Z"/>
        <path id="形状_62" data-name="形状 62" class="cls-2" d="M940,469c-0.451,1.58,0,9,0,9s-10.544.342-10,2,0.866,4.344,5,4,2.068,0.743,4,0,5-4,5-4,1.27,1.529,0-4-1-7-1-7S940.8,466.2,940,469Z"/>
        <path id="形状_42-2" data-name="形状 42" class="cls-2" d="M152,461s14.726,1.345,17,3,16.193,7.857,17,8,3-4,3-4,2.986-9,6-10a48.463,48.463,0,0,0,5-2c0.964-.373,3.267,6.542,3,8s4.565,0.637,5-2,0.88-4.02,4-5,4.588-6.763,7-8,1.886,0.451,5,0,8.431-5.549,10-3,4.993-.156,8,1,1.027,5.271,3,4,3.634-1.813,3-4,0.735-3.027,3-3,6.623-1.118,7-9a10.506,10.506,0,0,1,13-10c5.269,1.528,4.337,6.078,5,4s1.242-5.135,4-4,7.018-1.433,10-3,1.675-3.159,4-6,5.024-4.338,8-3,4.637-7.8,10-5,6.508,3.757,8,2,9.138-9.429,12-11,9.131-1.033,10-3,12.391-14.482,14-10-3.8,14.742-5,20-4.038,7.593-2,9,7.513,2.153,3,4-2.869,4.742-6,8a24.229,24.229,0,0,0-4,5s12.121-.071,12,3-1.178,10.134-5,9-2.982-4.1-5,2-5.851,5.283-5,8,1.234,7.779-1,8,8.84,10.722,16,10,13.652-2.913,16,2,0.371,5.7,5,3,14.174-5.323,16,1-0.551,7.665,3,11,5.107,11.625,7,12,2.354-8.786,5-4,3.7-.061,8,0,5.4-7.789,3-9,2.177,0.347,4-3,9.137-7.378,10-3,0.877,6.021,2,9,2.3,2.211,5-1,5.755-1.677,7,3,4.331,8.1,7,3,2.606,1.145,5,1,13.282,0.38,29,7,18.885,8.969,21,8,21.3-15.695,34-27,23.973-20.549,32-27,31.947-22.092,57-14c2.236,0.722,5.326,3.355,6,3,1.814-.955,5.682-14.322,8-20,1.087-2.663,9.934-21.392,11-26,1.017-4.394,6.93-14.58,6-15-4.064-1.836-34.008-12.36-39-13s-67.825-4.241-82,1-5.546-1.628-9-4-9.943-2.94-11,1-7.567-3.08-17,0-20.481,8.49-27,6-20.427-8.65-21-26,0.831-32.155,4-34,4.422-3.3,1-3-14-3-14-3-11.413,11.324-18,13-28.3,13.355-47,16-49.158,15.5-55,14,0.26,6.8-5,4-12.26-6.181-22-2-1.456,5.769-7,7-14.568.228-18,4-6,0-6,0,0.671,4.088-6,7-7,1-7,1-1.475,5.235-4,7-8.341.136-14,5-27,20-27,20-7.072,6.707-10,7-4.137,5.739-4,8-17.984,19.566-27,20-21.257-2.2-22,5-3.557,4.546-2,10c0.142,0.5,1,3,1,3S151.128,460.346,152,461Z"/>
        <path id="形状_43" data-name="形状 43" class="cls-2" d="M102,321c0.692,2.305,1.573,16.022,0,21s-2.132,12.415-1,14,2.976-.785,7-4,12.876-6.348,22-5,6.5-3.481,10-5,2.214-1,3,1,1.134,2.148,3,2,0.929,0.943,3,2,7.65-3.375,12-4,9.915-2.514,15,2,0.491,4.612-1,5-6.88,2.95-2,4,8.471,0.341,16-2,16.338-6.839,24-9,15.587-2.583,21,5,5.4,8.779,11,9,5.109-.087,5-1,1.444,5.372,7,6,2,0,2,0,4.176-4.375,6-6,1.045-1.948,3-2,0.187-5.4,1-6-1.105-3.853-1-5,2.187-1.3,2-3,0.227-4.715,5-2,5.527,1.554,7,0,0.938-2.32-1-4,0.966-2.478,3-4,0.543-1.49,2-3,5.644,0.394,7-1,5.116-3.314,5-5-0.945-7.083-3-8-8.474-1.908-5-3,4.052-2.967-1-3-9.008.38-8-6,3.168-1.621,2-4-4.774-1.564-5-4,3.7-4.332,2-7-2.422-2.035-4,1-4.775,1.9-3-3,6.756-14.106,7-17-2.482-1.456-5,1-7.775,3.478-4-4,1.345-5.58,6-6,18.47,2.127,21,2,1.819-2.172,0-11-1.694-7.641,2-8,11.028-4.615,11-10-5.173-9.119-8-15-5.773-14.146-7-16-7.53-11.58-16-12-19.322,1.376-20,4-6.983,7.985-7,10-2.583,2.576-4,3-6.5,5.481-11,8-5.74,2.776-7,3-3.358,6.959-9,5-8.027-2.024-12,2-3,4-3,4-5.871-2.972-8-3-6.706,3.794-7,2-2.184-3.615-3-2-1.3,5.454,0,6-7.915,11.828-10,11-4.637-.824-7-2-3.646.837-5,3-3.481.081-5,3-4.436,7.249-4,10-0.791,4.487-3,6-3.968,5.315-3,8-5.268,6.316-10,6-17.744-.685-19-2a11.515,11.515,0,0,1-2-4s-1.862,3.787-1,5-8.75,8.91-11,10,3.806,3.23,3,5,0.519,5.311-4,5-16.139,6.937-17,3-3.178-7.9-4-3-1.008,6.266-3,6,8.647,12.146,14,16A10.114,10.114,0,0,1,102,321Z"/>
        <path id="形状_44" data-name="形状 44" class="cls-2" d="M368,275c-3.807,0-5.081,3.931-6,6s-5.846,1.22-9,4-7.792,11.079-11,13-8.294,3.7-13,1-6.945.354-8,1-4.991-1.371-10,0-11.736,2.106-11,5,1.8,4.757,0,6-6.387.582-5,2,6.4,7.9-1,12-7.164-.988-10,4-0.071,4.663-1,7-6.01,5.837-8,3-3.842-3.5-5,1-2.66,2.965-2,5,1.514,8.535,0,9-9.962,7.019-9,8,5.621,5.22,9,6,3.178-.424,5-1a41.648,41.648,0,0,1,13-3c7.85-.656,8-2,8-2s-1.253-5.559,7-7,15.062-.176,18,2,3.974,3.247,4-2,3.464-.74,7-1,28.6-8.512,37-11,19.131-3.525,25-5,34.257-12.579,39-15,12.384-9.431,14-11,1-2,1-2-4.676-4.924-5-6,3.882-1.831,2-3-7.574-6.645-9-7-1.248-.109-2-2-5.441-2.047-7-3-7.478-6.458-11-4-4.059,10.557-6,11-4.166-.761-6-2,1.919-2.194,1-4-2.282-6.008-3-7-5.6.341-5,1,0.2-4.767-1-5-3.181,1.621-3-1-1.909-2.286-3-4-0.234-2.6,0-4-4.087-1.448-2-4,1.154-4.06,0-5-1.373-1.417-2,0a67.177,67.177,0,0,0-3,8c-0.278,1.518-2.8,3.621-5,5a16.384,16.384,0,0,1-6,2C369.084,276.116,369.768,275,368,275Z"/>
        <path id="形状_45" data-name="形状 45" class="cls-2" d="M313,236c3.8-.149,7.794,3.744,9,5s2.761,4.372,4,4-1.374-6.512,1-7,4.305-1.544,5,1,1.95-1.8,5-2,5.629-1.633,6-4,2.647-3.768,4-2,2,3.623,5,4,3.784,4.1,6,2,5.04-2.307,6,1-3.366,11.1,2,11,7.856-2.782,11-5,6.586-.9,7,2-1.093,8.935-2,9,3.465,1.789,2,6-3.041,12-10,14-6.219-.22-7,0a5.937,5.937,0,0,0-4,4c-1.169,3.076-4.878,3.553-7,4s-5.789,5.625-8,9-8.432,7.689-13,8-7.536-.746-9-2-1.874-.448-4,1-8.953.5-15,2-8.573,1.976-7,5,0.859,6.733-2,6-2.2.284-5,0-4.2-.575-2-2,3.992-2.182,1-3-11.23,2.352-11-2-0.324-5.61,1-7,0.061-1.021-2-3-2.781-.786-1-4,0.762-4.748,0-6-2.247.317-3,2-5,2.6-4-1,6.415-13.2,7-17,0.446-4.24-3-2-7.657,4.49-6,0,1.518-8.724,6-9,13.868,1.584,18,2,6.615,0.6,5-6-4.368-13.421,0-13,5.893-2.084,7-3,3.658-5.289,5-4S309.2,236.149,313,236Z"/>
        <path id="形状_46" data-name="形状 46" class="cls-2" d="M467,310c3.322-1.51,5.3-2.248,6-4s0.592-4.8,3-4,5.982-3.59,7-8,4.3-5.6,8-6,6.513-1.437,8-3-2.4,4.7-1,7,6.445,1.923,7,6-3,12-3,12,6.844-5.886,9-6,7.737-2.457,13-4,12.069-1.933,15-4,9.152-5,15-1,5.989,10.6,8,13,0,5.989,2,7,5.293-1.011,6,0-2.7,3.569,0,6,1.845,8.016,2,14,2.7,10.768-5,11a98.251,98.251,0,0,0-16,2,34.389,34.389,0,0,0-11,5c-3.5,2.461-3,3-3,3a11.067,11.067,0,0,0,10,4c6.333-.919,24-2,24-2v13s-17.242.161-22,1-14.879,4.488-16,4,0.132-5.326-3-7-8.682-1.51-10,2-3.5.834-6,0a26.143,26.143,0,0,0-18,2c-7.556,3.848-15.891,7.163-23,3s-16.656-9.284-18-21,0.054-31.955,3-36S465.177,310.828,467,310Z"/>
        <path id="形状_47" data-name="形状 47" class="cls-2" d="M665,373l-5,13s-15.21-5.9-22-8-20.654-6.97-35-6-32-1-32-1V358s-24.4,2.236-27,2-7.881-2.774-7-4,5.184-6.8,18-9,15-1,15-1l3-4-1-19s-3.871-3.035-3-5a13.192,13.192,0,0,0,1-4s-3.947,2.9-6,1-0.86-5.774-3-10-5.558-13.422-16-12-3.3,3.814-11,5a135.245,135.245,0,0,0-25,7,27.017,27.017,0,0,0-7,4s3.779-5.564,3-10-6.169-6.515-7-7-0.41-3.7,1-6-1.389-3.645-2-6-0.286-3.636-3-5-2.931-4.621-1-6a5.69,5.69,0,0,1,4-1s-0.852-3.243,1-5a16.285,16.285,0,0,1,7-4c3.6-1.22,5.129-1.864,4-3s-4.506-3.037-3-4,2.69-2.85-1-3a10.983,10.983,0,0,1-6-2s-5.01,9.407-7,9a11.426,11.426,0,0,1-4-2s2.536-1.766,2-2-3.468-1.939-1-3a6.549,6.549,0,0,0,4-4c0.473-1.435,1.181-5.448-3-9s-8.9-2.625-9-4-1.524-6.424-3-8,1.462-4.774,3-6,5.349-6.045,8-4,6.059,3.235,8,1,3.676-6.494,7-4,5.937,2.782,7,2,1.47-.863,4,1,3.269-1.316,7,0,0.446,2.128,3,4,6.329,2.137,10,0,11.025-3.508,14-1,1.4,4.029,0,5,0.843,3.212,2,2,2.637-3.508,7-4,4.721-3.69,6-2-0.378,4.487,2,4,3.076-3.316,3-5,2.431-4.321,3-2,0.5,5.132,5,4,9.851,1.109,10,5,0.944,8.641,0,9,4.738,1.66,7-3-0.823-9.326,4-10,7.308-4.412,11-7,4.393,0.288,7,0,1.994-4.482,0-6-3.1-4.375,0-5,4.3,3.475,6,2,3.342-2.468,4,0,2.22,0.1,3-2,8.018-1.267,9-3-0.076-3.145,3-4,37.409-8.2,42-9,6.854-2.238,8,0,7.492,0.015,9,1-1.328-4.177,3-4,11.527-1.467,14,1-2.064,4.774,4,4,9-1,9-1,8.042,17.383,10,19,39,53,39,53-27.023,3.625-33,6-40.276,20.818-42,22-9,6-9,6l7,7-7,7a6.9,6.9,0,0,0-6,1c-3.127,2.105-8.477,6.376-6,9a41.785,41.785,0,0,0,6,5s-0.873,2.211-2,2-5.088-1.97-4,0,1.954,2.443,4,3,3.557,1.064,3,2-2.219,2.089,0,3,1,2,1,2l-4,6,2,2s-5.878,6.422-6,9-4.2,5.849-4,8-2,5-2,5l-2,3s-0.849,3.143,2,2,4.555-2.208,5-2a35.935,35.935,0,0,1,3,4l-6,7Z"/>
        <path id="形状_49" data-name="形状 49" class="cls-2" d="M352,235c1.235,0.082,4.166,3.938,5,3s4.245-5.751,6-1,0.143,6.225,0,8,0.328,4.774,4,4a17.393,17.393,0,0,0,8-4c2.036-1.686,7.926-3.682,9,1s-2.171,7.624-2,9,2.591,3.824,3,5,2.568,2.065,2,4-2.262,3.158-1,4,2.876,1.422,2,3a3.377,3.377,0,0,0,2,5c2.66,0.868-1.49,2.364,1,3s3.849-.1,4,2,2.036,1.212,4,2,3.545,5.878,4,7-2.593,1.418-1,3,4.241,5.462,7,2,2.107-10.373,7-11,7.557,5.431,11,6,9.008,5.4,11,7,5,4,5,4-2.981,2.494-2,3,3.7,5.973,6,7,10.062,3.39,14,3,4.719-5.058,7-5,5.168-2.361,6-6,3.012-.142,4-1,4.085-3.726,6-11,5.993-2.09,9-3,4.024-.913,5-2,0.805-3.965,0-5-1.414-3.4-2-4-7.018-4.3-4-7,4.211-2.289,5-2-1.517-5.383,3-7,5.942-3.612,8-4-2-5-2-5,0.691-2.695,0-3a8.99,8.99,0,0,0-4-1c-1.639.1-2.778-2.3-3-1s-4.477,8.982-7,9-5.477-2.456-4-3,1.294-2.289,0-3,2.961-.539,4-3,2.658-9.467-3-12-7.571-1.883-8-3-0.6-4.352-2-6-2.321-5.644,2-8,1-1,1-1-4.521-4.182-7-4-2.1-4.986-4-6-7.128-7.166-10-4-7.752,4.675-9,5-5.61-1.848-1-4,3.168-2.43,2-4-0.451-1.932,0-4-0.2-1.011-5-1-10.137-2.095-9-5,3.4-.936,2-3-2.8-2.878-3-4-1.7-.137-5,0-4.184-2.317-5-1-8.908,7.39-9,12-0.193,6.608-5,3-14.5-1.789-20,0-1.742,2.93-2,2-4.566-5.313-7-6-3.788-.614-5-2,3.752-3.556,1-4-7.29-.614-7,1,1.107,10.851-2,11a18.473,18.473,0,0,0-10,4c-2.642,2.266-6.14,2.253-7,1s-2.664-2.5-5,1-1.981,6.939,0,9,5.8,3.981,2,5-3.6,4.843-1,5-0.262,2.806,0,4-2,3-2,3l-1,1S349.3,234.82,352,235Z"/>
        <path id="形状_50" data-name="形状 50" class="cls-2" d="M285,189s1.919-12.351,4-15,5.087-7.3,8-8,3.615-1.879,4,1,0.746,3.083,4,2,3.549-3.08,7-2,8.044,1.061,10-4,1.5-5.266,5-5a12.352,12.352,0,0,0,6-1,5.975,5.975,0,0,0,2,4c2.04,2.01,3.707,3.953,5,2s3.385-5.1,7-5,6.712,2.462,5,3-0.9,2.719,0,4-5.559,3.121-2,4,4.389,3.083,7,1,1.954,0.158,4,1,5.992-1.184,5,4-1.737,2.816-3,4,0.646,3.054,1,4-0.845,3.129,0,4,0.613,0.475,4,1,1.832-3.544,4-2,3,1,3,1l-1,10s-0.346.98-4,2-6.939,2.8-8,4-5.075,3.014-7,1-3.16-2.13-5,1-2.493,6.851,0,9,5.105,2.656,3,4-5.605,1.719-4,4,3.379,1.541,3,3-0.717,3.893-2,5a17.067,17.067,0,0,0-2,2s-3.343-1.833-4-1-1.568,4.666-3,5-4,.147-7,3-2.854.23-3-1-4.771-1.853-5,1a45.793,45.793,0,0,0,0,6s-3.639-4.5-6-6-8.087-4.463-9-4,0-6,0-6a114.332,114.332,0,0,0-6-10c-2.319-3.142-5-11.32-7-15S294,195.1,285,189Z"/>
        <path id="形状_51" data-name="形状 51" class="cls-2" d="M358,151c0.372-1.862.535-2.7,2-2s2.743-2.579,5-1,1.734,0.558,3-1,2.469-2.452,5-1,3.431,0.43,7,1,4.521-1.652,7,2-2.134,4.565,1,6,8.019,4.466,8,1-0.709-6.161,2-7,8.081-4.551,9-5,6.078,6.775,10,6,6.887-2.378,7-4,4.657-6.052,8-1,0.529,6.121,3,6,5.856-4.078,7-6,4.875-1.544,1,4-7.544,8.655-5,11,3.447,3.182,4,3-3.844,1.927-2,3,5.2,3.372,5,5-5.3,6.225-6,7,0,5,0,5-6.314,1.034-8,0-2.177-2.039-4,0-8.149,8.386-8,10-0.021,6.013-1,6-5.409-4.205-12-4-11.952,1.067-14,3-4.16-4.6-6-5-7.2-.994-6-3,2.232-2.458-1-3-4.049.542-5,0-1.5-2.049-3-1-1.184,2.6-4,2-3.42-1.021-3-4-0.411-1.72-1-3,3.043-2.7,3-4,1.363-5.973-2-6a6.541,6.541,0,0,1-5-2c-0.372-.272-1.954,2.5-4,2s-3.817-2.2-5-2-1.89-1.245,0-2,2.464-1,2-2-2.718-1.69-1-3,1.573-2.681,2-3a22.093,22.093,0,0,0,3-4C356.146,154.425,357.764,152.182,358,151Z"/>
        <path id="形状_52" data-name="形状 52" class="cls-2" d="M52,58c-4.018,1.488-12.247.992-17,2s-5.419,3.472-8,3-4.913.085-4,5-0.352,11-2,11,1.314,1.191,3,3,2.486,1.124,5,4,6.926,9.217,7,12-0.608,3.363,1,7,1.831,6.31,4,7,2.031-.01,4,3,6.657-1.01,9,1,2.816,1.71,6,3,2.309,0.883,3,4-3.478,6.3,0,8,9.094,8.189,13,9,15.786-.438,12,5-2.893-2.225-6,3,0.493,2.015,3,4,6.733,4.468,5,5-4.548,1.135-2,4-1.561,3.054,1,6,5.665,2.521,5,4,2.078,9.907,4,10,11.555-4.88,17-1,4.156,6.52,1,9-2.59,6.68-3,8-3.283-1.88-4,2-0.857,6.04,2,8,3.876-.867,4-3,1.6-.907,2,0,4.5,3.573,6,3a1.563,1.563,0,0,0,1-2s1.194,3.586,3,2,1.127-2.947,4-1,6.259,2.506,9,4,6.391,7.666,9,8,2.72-.43,4,2,9.3,2.715,12,4,3.018,5.58,6,8,2.155,3.581-2,4-14.136,3.009-14,1,0.73,6.586,8,6,2.966-4.362,7-4,4.783,3.275,10,1,9.51-7.906,9-10-2.264-6.36,1-6,0.509,3.367,4,2,3.144-3.315,7-2,5.234,4.458,7,2,4.5-7.087,9-6,6.095,2.595,10,0,2.114-3.5,5-4,7.84-3.847,13-8,7-4,7-4a50.8,50.8,0,0,1,5-8c3.048-3.944,4.576-6.417,11-7s12.513-1.578,16,0,1,0,1,0,0.426-8.714,3-13a56.13,56.13,0,0,1,6-8s-3.742.275-4-1,2.924-4.237,1-6-5.248-1.741-5-3,3.08-3.248,0-4-0.917-4.934-1-8,2.256-7.448,3-9,0.244-3.453-3-4-4.933,2.543-7,0-4.588-5.472,0-8,7.26-.137,10-1,1.267-3.137,4-2,5.107,0.686,6-2,6.289-3.821,8-5,2.618-4.326,1-4-2.388-5-4-5-4.063,2.667-5,2-2.747-3.832-7-2-10.409,1.31-6-5,6.619-3.808,6-6-4.1-2.318-3-5,3.279-5.657,1-6-4.047,3.611-6,2-10.868-6.027-13-6-1.192-3.671,1-4-0.868-2.96-2-6,2.164-7.458,1-9-3.5-1.682-1-5-0.449-3.97-2-8-12.719-18.789-15-20-7.007.179-9-1-5.921-4.4-14-4-13.565,1.371-13,5-8.643,8.691-9,11-5.914,2.724-11,3-9.17,4.677-11-2-3.75-2.938-4,1,3.232,5.948,5,7,0.346,9.738-1,6-2.056.834-4,0-0.974-4.084-4-5-3.828-.1-5,3-3.02-.8-5,2-2.048,8.542-10,7-3.7-4.834-12-5a8.263,8.263,0,0,1-6-3s-4.04,3.962-5,8-7.523,2.842-9,1-7.589-2.45-11-3-8.828.062-11,0-4.221-.082-1-3-1.168-5.13-3-5-8.794,2.6-13,1-7.253,1.942-10,2-7.98,2.138-10,0,2.761-6.955-6-7c-3.585-.019-2.171,5.722-3,7S56.018,56.512,52,58Z"/>
        <path id="形状_53" data-name="形状 53" class="cls-2" d="M255,27c2.209-1.472,5.472-5.368,8-5s3.745,3.852,6,2,6.395-6.554,16-2,9.108,7.939,12,9,1.821-1.113,5-3,5.94-3.2,5-1-1.211,6.3,3,7,1.975,1.587,1,5-0.329,2.4,1,5-0.854,9.2,2,7,2.3-7.563,5-4,1.027,6.014-1,6,3.233,1.706,6-4,2.828-.022,5,0,4.523-4.224,5-1,5.779,9.384,5,3-1.575-7.175,4-7,12.512,2.468,14,0,4.124-5.5,6-2,1.736,2.52,5,4,6.127,7.066,8,10,6.232,1.577,10,6,3.183,0.017,7,2,6.879,3.392,7,5a4.776,4.776,0,0,0,5,4c3.272,0.031,8.56-.2,9,3s-2.608,5.717,2,6,1.9-4.758,7-4,9.871,0.986,12-1-0.06-10.3,5-10,4.993,4.832,8,4-0.091-4.269,3-2,2.706,0.392,4,1-0.158,4.088,2,4,5.93-2.1,9,1,5.811,5.193,4,8-3.633,6.955-9,4-11.839-2.737-14,2-11.689,12.232-11,13,10.3,3.743,11,6,3.773,1.557,4,4-4.025,3.813-3,5a3.093,3.093,0,0,1-1,5c-2.6,1.254-.651,5.663,3,5s4.842-5.1,7-2,0.979,6.31,3,9,6.86,7.362,4,8-18.416,1.6-20,2-4.928,4.027-7,6-2.783-.028-4-3-4.507-6.353-7-4-4.252,7.841-9,7-8.466-6.028-10-6-10.866,5.861-11,7,1.748,7.716-3,6-7.086-2.973-6-4,1.341-5.842-4-6-7.707.144-10-1-3.748-1.642-6,2-2.438-.166-4,0-2.3.013-4,1-1.93,5.5-3,7a33.5,33.5,0,0,1-4,4,6.464,6.464,0,0,0-8-1c-4.473,2.734-3.853,5.57-6,5s-2.385-5.848-7-6-6.661-2.468-10,6-7.317,3.478-9,3-4.039.048-7,2-4.223-.491-4-3-4.529-1.2-6,1-4.915,2.11-5,0,2.453-4.509,2-5-0.2-1.429-4-3-2.049-1.514-1-3-0.153-1.716-2-3,1.3-10.027,2-13,3.363-5.781-1-7-4.741,2.869-7,1-2.925-3.136-3-6,4.318-5.253,9-4,4.036-.706,5-2,2.722-.455,4,0a3.424,3.424,0,0,0,4-3c0.309-2.374,4.948-3.061,7-4s3.328-2.416,1-5-2.658-4.348-5-3-2.511,1.45-4,0-2.485-2.882-7-1-7.5.646-7-2,3.878-5.379,6-7,2.032-2.522,0-4-2.271-3.993,0-6-1.148-3.922-3-2-2.955,1.194-5,0-8.036-4.909-10-5-2.684-1.789-1-3,2.228-2.375,1-4-3.8-3.339-2-8,1.141-3.426,0-5-1.36-3.718,0-5-0.19-3.776-3-8-9.653-15.357-12-17S252.528,28.648,255,27Z"/>
        <path id="形状_54" data-name="形状 54" class="cls-2" d="M470,59c0.918-1.722,4.068-4.1,7-2s4.1,4.808,7,5a12.15,12.15,0,0,1,8,3c2.636,2.3,15.732,9.771,17,13s-0.934,9.318-2,12-0.518,4.21,3,6,6.445-.373,8-2,0.576,2.674,3,3,3.707-1.719,5,0,1.9,0.127,5,1,7.3,2.222,10,0,2.49,0.365,6,0,1.692-4.23,5-4,5.894,0.246,7-1,5.037,2.746,4,4-7.094,2.71-6,5-2.617.912-2,4,2.584,4.876,4,7,3.025-.743,4,1a107.019,107.019,0,0,1,5,13c0.541,2.3,8.117-4.509,8-2s0.684,3.4,1,6-0.644,5.045,1,4,20-8,20-8,1.493,1.373-1,3-0.7,2.582,1,3,7.614,0.21,6,3-3,3-3,3l5,11s8.214-2.132,10-3,0.87,0.212-1,2-6.907,4.153-6,7,2.856,2.049,6,2,0.379,2.946,4,7,4.856,8.6,2,10,3.186,3.918,5,4,3.051,0.546,1,3-5.662,3.2-6,8-2.084,7.55,0,9,3.311,1.927,3,3-1.5,2.8-3,2-5.823-4.63-7,0,5.762,3.781,4,7-5.563.178-7,1-6.609,5.416-10,7-4.418-1.364-6,5-1.636,9.359-7,9,2.376-8.6-1-11-9.363-1.624-12-3-2.4-5.858-4-5-1.065,8.424-4,8-3.311-8-5-5-5.791,3.2-7,3-3.457,6.424-5,4-0.63-2.217,0-4-3.885-5.8-12-3-10.377,4.118-13,0-2.66-4.648-6-3-4.906-2.487-6-2-3.225,1.687-7,0-6.322-2.019-9,2-5.395,2.13-7,1-2.516-3.588-7,1-2,1-2,1-2.918-3.671-6-4-2.4-5.026-4-6-7.422-6.152-9-5-9.849,9.926-12,5,2.224-3.254,3-4,2.122-1.637,1-2-3.776-2.249-2-4-0.615-1.89-4-2-8.868-.526-9-4,2.516-1.089,2-3-3.149-3.827-3-7,4.127-8,6-9,1.492-3.793-2-5-2.46-3.2-1-4-3.173-2.89-4-4,2.181-6.269,4-8,4.564-5.24,4-6-1.184-2.162,2-2,15.548,0.891,17-1-2.267-4.206-4-7-0.83-6.74-2-8-1.825-5.434-5-2-8.849,2.289-7-1,3.792-4.555,3-5-2.058-3.089,1-5-1.693-4.7-3-6-7.95-5.646-10-6,5.176-8.192,7-10,5.416-7.553,10-7,8.862,3.852,11,3,4.672-3.9,5-6-1.829-8.939-8-9-6,0-6,0-1.219-2.894-2-3,2.576-4.739,6-3,5.036,4.318,8,2,1.149-5.343,0-7S468.629,61.57,470,59Z"/>
        <path id="形状_55" data-name="形状 55" class="cls-2" d="M581,81c-2.052,0-7.4,6.936-10,7s-2.973,1.319-1,3,1.878,2.808,2,5,4.154,4.063,4,7,0.112,4.041-3,2-2.8-2.874-4,0-8.036,7.232-7,9,3.389,5.232,4,7,1.516,5.763,3,6,6.26-4.386,7-2-1.208,11.061,2,10,15.748-6.237,17-7,4.45-1.407,3,1-3.466,3.359,0,4,7.045,0.89,6,3-3.913,1.656-3,3,2.98,8.826,5,10,7.043-.046,9-1-7.4,5.187-6,8,4.256,2.081,7,2-0.074,2.084,2,5,5.42,5.72,5,8-4.05,4.55-2,6,7.876,1.729,7,3-7.045,6.915-7,9-1,5.88,0,8,2.141,2.747,3,4,1.328,2.977,3,3,1.424-2.482,4-3,6.113-.077,7-2-0.242-4.945,4-5,24.117-5,31-6,15-3.91,17-3,0.819,2.137,4,2,5.006-1.318,6-1-1.489-3.05,2-3,11.479-.322,13,0,1.526,1.456,2,3,1.626,2.184,5,2,9-1,9-1l-2-4s3.654-3.761,6-3,0.844-6.79,0-8-3.959-7.224-3-10,6.666-19.084,8-21,13.916-10.718,16-12,20,11,20,11l17-10,3-6-8-15s-18.694-2.8-26-6-16.549-12.05-21-16-23.838-12.818-29-3-14.1,9.759-20,6-5.346-8.651-13-8-10.587,10.962-16,8-4.787-3.467-5-8-10.668-12.071-19-9-4.865,2.73-6,3-6.7-1.467-9,0,2.7,3.935-1,3-8.14-3.258-12-1-4.544,2.733-5,1-1.17-1.863-5-1S581.8,81,581,81Z"/>
        <path id="形状_56" data-name="形状 56" class="cls-2" d="M785,134l18,35s6.9-1.4,9-1,1.106,19.469,4,22,15,2,15,2,9.707-.184,13-2c1.135-.626,16.153,5.156,17,6,3.508,3.5,15.11-8.781,16-7,0.678,1.357,4.444,2.784,3,5-0.717,1.1,9.463-1.571,11-1,1.156,0.429,1.361,2.614,0,4-0.777.792,7.939,0.164,7,1-0.963.857,1.239,1.1,0,2-1.4,1.023-7.268-.064-9,1-1.922,1.181-4.992-4.254-7-3-3.921,2.449-7.589-.6-12,1-1.024.372-8.641,0.6-9,1-1.138,1.27-9.949,3.183-11,5-0.39.674-11.151-.063-10,2,0.849,1.522-.734,4.115,2,6,2.273,1.567,6.785.215,10,0,1.709-.114,6.864-4.351,8-3,0.68,0.809,14.413-1.1,16-2,2.781-1.582,14.769-2.916,12-1-1.947,1.348,16.161,3.735,11,6-3.807,1.671-9.474,3.263-18,6-2.445.785-11.8,6.695-13,7-6.277,1.6-4,5-4,5s10.68,12.662,11,13c2.618,2.759,7,2,7,2s-2.3,3.867-2,5c0.579,2.152,5.182,1.237,5,2-0.768,3.216-8.777,2.189-10,3-2.864,1.9-3.562,4.077-4,4-3.13-.547-9.984-4.807-10-4-0.009.447-7.66,1.084-7,7,0.215,1.929,2.736,2.243,3,4,0.3,2.007-1.33,3.409-1,6,0.183,1.436,3.258,8.47,7,12,2.219,2.093,4.906,1.148,5,2,0.352,3.178-7.374,5.927-8,7-2.615,4.484-4.908,1.112-6,1-1.5-.154-4.918,2.879-1,3,1.391,0.043,1.644,3.734,1,5-0.926,1.82-10.065,8.168-11,10-1.028,2.014-14.726,5.208-19,5-2.356-.115-1.7-3.427-2-2-0.391,1.876-3.182,3.447-4,5-1.6,3.036-13.782-7.186-15-5-1.9,3.408,13.439,8.812,13,9-2.407,1.032,27.547-3.787,23-2-0.98.385,18.71-18.173,14-9-1.073,2.089,20.2-7.393,19-5-0.239.477,1.808,1.421,6,1,0.355-.036-8.038,2.91-9,6-0.222.712,0.977,4.305-1,7-1.658,2.26-6.377,3.715-8,4-0.747.131-10.376,8.413-11,9-2.69,2.531,14.338-3.175,14-2-0.689,2.4,6.631-2.021,7-2,0.7,0.041,6.786-.29,7,1,0.209,1.26-16.572,6.98-14,10,1.637,1.922.509,3.179,2,5,0.9,1.1,7.386-1.646,15-4,1.793-.555,4.45,2.379,5,2,4.567-3.151,11.815-6.35,12-6,1.242,2.353,1.573,3.972,0,5-0.389.254-5.721-.553-6,0-0.076.15-5.418,4.6-6,6-0.408.977-1.407-3.98-2-3-0.639,1.056-6.032,6.486-9,13-0.517,1.134-3.684,3.854-7,7-2.261,2.145-4.8,4.379-7,5-1.718.484-2.8,5.968-2,7,1.134,1.465,11.055.772,11,1-1.264,5.274-2.282,5.132-3,6a18.127,18.127,0,0,1-6,5c-1.758.917-3.732-1.53-5,0-1,1.209-6.012,2.812-7,4-2.24,2.694.443,8.421,0,9-1.94,2.534-9.842-2.1-10-2-0.3.185,2.585,3.263-2,11-2.74,4.624-7.463,2.106-11,5-4.826,3.948-8.894,2.178-11,3-5.123,2-9.721,1.793-10,3-0.423,1.83,2.788,6.643,2,9-1,2.988-30.461-3.251-40-3-1.225.032-.611-6.255-1-5-0.051.163-7.568-6.218-8-6-1.067.538-9.921,8.11-11,8-3.15-.321-32.4-16.14-33-17-0.24-.344-24.4-4.2-30-6-1.61-.517.626-8.23-0.177-8.521C672.544,392.751,661.178,386.744,661,387c-0.126.18,4.278-13.8,4-14-0.317-.225,16.7,9.767,15,7-2.1-3.418,6.664-7.264,5-9-0.888-.927-2.179-2.184-3-3-0.785-.78-2.784,3.446-3.478,2.805A21.951,21.951,0,0,0,675,368c-0.971-.547,4.979-5.651,5-6,0.144-2.333,3.454-7.382,2.974-9.033-0.538-1.852,6.207-11.091,5.026-11.967-1.767-1.31,2.5-4.428,3-5,2.2-2.521-1.852-3.915-2-4-0.817-.467,1.736-3.666-1-4a5.614,5.614,0,0,1-4-3h5l-1-3-5-8,12-7,7-7s-7.875-3.985-7-7c0.389-1.34,44.978-23.957,46-25,5.555-5.665,38.911-6.145,39-7,0.173-1.665-5,29-5,29s-11.172,15.722-11,16c0.443,0.717,12.51,13.94,15,13,0.9-.341,7.834-3.38,10-5,0.146-.109,1.844,2.613,3,3,1.531,0.512,1.88-3.377,4-3,1.677,0.3,2.708,2.428,4,2s3.765-2.261,4-3c1.283-4.029,2.281,7.257,7-1,0.017-.031,4.711.62,5,0,1.33-2.85,3.562-5.33,5-9,1.475-3.765,6.5-1.688,8-6,2.438-7,8.8-16.665,11-24,0.449-1.5,12.268-11.083,13-13,2.466-6.458-2.03-5.618,0-7,1.64-1.117,13.989-10.438,15-12,2.575-3.978-11.563-16.2-11-19,1.1-5.475-9.5,4.965-11,5-5.447.129-51.253-13.394-51-14,0.472-1.133-6.279-.72-8-1-0.28-.046-18-11-18-11l5-47,2-14Z"/>
        <path id="形状_57" data-name="形状 57" class="cls-2" d="M896,220l-9,5-5,3-6,2-2,3,2,5,6,4,3-4,4-4,4-4,2-3v6l3,3,3-2,3-1,5,1,2,3,1,1,4-2s-0.128.267,1,2,2,3,2,3,7.663,0.019,8-2c0.25-1.5-1.251-5.5-1-7,0.34-2.043-5-3-5-3h-8l-1-4-2-2v-4l-12,6v-3Z"/>
        <path id="形状_64" data-name="形状 64" class="cls-2" d="M757,129l19,11-7,58v4h3l3,2,11,7,8,1,2,1,26,8,20,6h4l2-2,3-2v-1l4-1,5-2-3,4,5,6,9,10-13,10-6,5,2,4-5,7-6,5-3,3-4,9-5,12-3,5-6,4s-4.069,3.67-5,6a11.232,11.232,0,0,1-3,4l-2-1-4,3-4-2-4,4-4-3-4,3-3-3-11,5-14-12s9.618-15.456,11-18,6-28,6-28l-15-19-27-37-9-20,1-3,4-3,1-2-5-12,3-11,6-13Z"/>
        <path id="形状_58" data-name="形状 58" class="cls-2" d="M918,265l-1,1-1,4,2,1h1l2,1v1s-0.782,1.057,1,1,1.27-.654,2,0a9.081,9.081,0,0,1,1,1l1,1,1,1v3l-3,4-1,2-3,1-1,4-2,2-2-1h-3l-2,1-1,2h-3l-1,1,2,3a25.378,25.378,0,0,1,4-1c1.414-.138,1.461-0.809,2,0a2.66,2.66,0,0,0,1,1v6s2.257-2.783,3-2,2.369,0.862,2,1,0,1,0,1l4,2s-0.394.139,2,0,2.955,0.968,3,0a9.314,9.314,0,0,1,1-3c0.229-.395,1.856-1.144-1,0s-3,1-3,1-4.355-.131-4-1,2.224-.77,3-1c3.591-1.066,3.494-2.579,3-4a31.416,31.416,0,0,0-4-6c-0.639-.644,0-3,0-3l4-3,3,1,2-2a35.452,35.452,0,0,0,4-2c0.275-.347.541-2.693,1-3s-1-2-1-2h-3l-10-9v-1s0.178-2.536-1-3A32.7,32.7,0,0,0,918,265Z"/>
      </g>
    </g>
  </g>
</svg>
