<svg id="组_1" data-name="组 1" xmlns="http://www.w3.org/2000/svg" width="980" height="930" viewBox="800 1180 980 930">
  <defs>
    <style>

      .cls-1, .cls-2, .cls-3, .cls-4, .cls-5 {
        stroke: #303254;
        stroke-width: 1px;
        stroke: #9d9d9d;
        stroke-width: 1px;
        fill-rule: evenodd;
    fill: none;
    fill-opacity: 0.35;
      }

      .cls-6 {
        font-size: 150px;
    fill: #fff;
    font-weight: 700;
    text-anchor: middle;
    font-family: "Microsoft YaHei UI";
      }
    </style>
  </defs>
  <path id="形状_1" data-name="形状 1" class="cls-1" d="M1231,2088s89-98.68,99-109,119-116,119-116l-36-31,6-8-14-11-9-4,10-13-7-4-14-6-6,6-2-2-2-1-6-1-4-2-11-2-6,2-9,1-13,5h-14l-14-4-19,2-8-6v-9l1-7-7-8-6-15-10-10,7-7,1-13-10-5-16-5-14-8-3-12,2-3,6-1,5-3v-2l-6-1h-3l-2-5-1-4-8-10-2-2-1-3-4-1-4-2-2-7v-7l-6-6v-7l-8,1-8-5-2-4-5,2-7-1-9,1-10-9-6-2-6,1-6-3h-13l-7,7-9,5,1,10,9,13v6l4,5-1,20-5,7-20,3-3-1-6,6-9,22-5,6h-7l-8,22-1,28-3,3-14-2-4,7v20l-2,5-6,1-2,4,4,3v10l3,2-1,22-2,2-1,27,2,2,2,6,3,6,1,5,5,1,10,5,7,1-1,11,3,6,9,3-1,8,4,7,8,1,6,3-3,10-2,5,19,19,66,69,5-3,7,1,5,7,4,2,7,1,5,4,8-2,28,36,5-1Z"/>
  <path id="形状_11" data-name="形状 11" class="cls-1" d="M972,1773"/>
  <path id="形状_2" data-name="形状 2" class="cls-2" d="M1419,1824l-12-9-10-6,9-13-8-5-14-5-4,6-6-3-6-1-10-4-11,2-8,1-9,4-2,1h-18l-11-4-14,1-6,1-8-5v-5l-1-4,2-3v-5l-7-8-4-11-5-8-7-6,7-7,1-12-5-4-13-4-11-4-11-8-3-11,1-2,3-1,5-1,4-4-1-2h-7l-3-4-1-5-3-4-5-5-2-4-2-2-4-1-4-3v-3l-2-3,1-4-1-4-5-5v-7h-3l-5,1-7-5-3-3h-3l-1,1h-18l-7-7-4-4h-6l-2,1-4-1-5-2h-10l-5,2-3,4-4,3-7,4-6-3-7-3-4-2-2-5-1-6-5-6-2-6-3-5,1-6,4-6,2-4-2-2-4-4v-6l-2-4-4-5,1-16-3-7-5-5-1-5-9-5-7-7-7-4h-3l-7,5-3-1-6-8-6-7-4-2-3-3-1-3-6-5-7-4-6-1h-3l-4-4-3-2-7-1-12-5-8-3-8-2-6-2-1-2,3-7,6-10,4-2,5-10,1-4,1-1,4,2,8,5,8,4h12v-3l-4-3-2-2,3-1,1-2-2-3-1-3-1-4-4-3h-4l-11-10-3-2-1-5h-7l-1-4-7-4-7-2-2-1-2-4-8-6-4-1-1-5-2-4-8,1-8-1v-2l4-3-1-2-2-1-2-3-1-5-5-3h-4l-1-2-4-1-7-4-11-1-9-1-4,1h-8l-9-2-1-4,7,1,5-1,4-1,4,1h5l3-2s0.93-2.17,2-2,3,2,3,2l4-2,3-2,4,3h3l5-3,4,2a35.236,35.236,0,0,0,4-1,15.737,15.737,0,0,0,3-2l4-1,1,3,6,1,4-4h4l6,3,4,1,2-2,6,4h5s5.9,0.1,6,0a12.4,12.4,0,0,1,2,1l3,3,4,1,9-1,3,1,3,2-7,4-3,1-7-1-7,1-7-3h-3l-3-2-2,3v3l-3-1v-1l-5-2-4-2-5,1-2,1-2-1-5-2-4,1h-4l5,5,6-1,5,3,2,3-1,4,9,8s5.35,3.97,6,5,10,8,10,8,5.022,7,6,7,7,1,7,1l14,13,3,6,6,6,5,4,4,1,12,12h4l5,7,5-3s6.08-4.93,8-5,13-2,13-2l4-5-1-8-7-3v-4l5-2,7,2,10,3,6,2,10,10,4,1,9-4,8-2,6-1h4l-1-4-8-7-2-20-7-4-4-4,2-3,7-1,7-2,5,5,11,1,7,2h11l3-2,10,1,10,5h6l6-2,8,3,23,8,16,9,13,9,4,11v11l5,3,4,2,3-3,5-6,3,1,2,4,3,1,6,1,11,1h7l8,4,8,9,7,7,8,2,7,3,6,8,18,8,2-5h3l23,15,7-7,5-4h4l15,10,8,7v6l2,3,7,9v7l4,1,13,12-3,4,4,4,7,6,4,1,13,11,3,3,4-1,4,2,3,3-16,38-31,63-30,56-6,8,91,64Z"/>
  <path id="形状_12" data-name="形状 12" class="cls-2" d="M862,1532"/>
  <path id="形状_3" data-name="形状 3" class="cls-3" d="M1459,1522l-6,17-5-4h-7l-10-10-5-4-3-1-11-8-1-2,3-4-13-12-4-1v-7l-9-11v-7l-9-8-14-9h-5l-11,11-23-14-1-1h-2l-2,5-18-8-4-5-3-3-3-1-5-2-6-2-7-7-4-5-4-3-6-4-5-1h-7l-13-2h-3l-2-2v-3l-2-1h-2l-4,3-3,6h-2l-4-2-4-3v-11l-2-5-2-5v-3l3-1,4,1,8-2,5-2,6-5,4-7,2-4h2l1,2,5-1,4-2,4,2,1,7,5,3h5l3-2,3,1,3,3,3-1,2-1,1,2-1,3,2,1h13l3,3,2,2,3-2,2,1,1,6,3,4h3l10,6,18-1,11-4,9-3,5-4,3-1h2l3,3h3l8,3h4l3-1h9l4,4h4l3-3-1-2-5-4,2-1-5-4-5-1v-2l12-12,4,3,2-1,11-12,6-3,4,1,19-15,8-10-1-3-6-5v-3l11-12v-5l-5-7,1-4,5-6,7-6,4-3,4-4,8-10,3-3,4,1,5,3h2l4-3,9,7,3,2,7-1,3-2-1-3-10-9v-2l3-4,27-30,2-2v-3l1-6,6-5h3l8,6,1,4,15,12v4l-4,3,5,4-1,5,18,14-3,3,4,4-2,3,14,16,17,23,5,6-112,132-48,55-12,15Z"/>
  <path id="形状_4" data-name="形状 4" class="cls-4" d="M1647,1303l100,130-52,46-66,56-3,2,27,33,34,42,16,19,8,10-41,36-40,47-27,32-41,32-55,41-50,37-25-18-19-16,19-24,15-21,14-19-91-64,24-42,18-35,27-55,14-33-1-1,2-5,4-10,8-13,14-16,38-44,27-32,39-46,29-33,25-30,6-8Z"/>
  
  <text id="星海" class="cls-6" transform="translate(1538.649 1573.159) scale(0.148)">星海</text>
  <text id="沙城" class="cls-6" transform="translate(1452.648 1408.157) scale(0.148)">沙城</text>
  <text id="天河" class="cls-6" transform="translate(1205.648 1546.157) scale(0.148)">天河</text>
  <text id="海城" class="cls-6" transform="translate(1166.647 1873.159) scale(0.148)">海城</text>
</svg>
