<svg xmlns="http://www.w3.org/2000/svg" xmlns:xlink="http://www.w3.org/1999/xlink" viewBox="1450 480 4750 4800">
  <defs>
    <style>

      .cls-1, .cls-2, .cls-3 {
        stroke: #303254;
        stroke-width: 1px;
        stroke: #9d9d9d;
        stroke-width: 1px;
        fill-rule: evenodd;
    fill: none;
    fill-opacity: 0.35;
      }

      .cls-4, .cls-5, .cls-6 {
        font-size: 90px;
    fill: #fff;
    font-weight: 700;
    text-anchor: middle;
    font-family: "Microsoft YaHei UI";
      }
    </style>
  </defs>
  <g id="温州市地图">
<!--    <path id="形状_12" data-name="形状 12" class="cls-1" d="M5761,3337l13-13,11-11,35-32,18-18,2-22,5-33,1-7,9-6,3-17,4-19,1-13,3-6,10-18,3-4-14-16-33-29-21-22-10-12-15-13-9-6-13-13-5,1-12-9-11-2-8-6-5-2-11-10-6-8-14-10-20-13s-17.84-9.21-21-7l-7,3-6,5-10,4-9-1-13-2-14-4-6-4v-4l-14-1-15,2-11,1-4-7-6-5h-14l-8-8-11-8-21-13-12-9-2-3v-3l-6-6-4-1-10-10-3-4-6-16s-1.4-1.29-6,3l-3,6v4l-7,4-17,2s-15.04-8.47-23-5c0,0-10.74,30.19-16,36l12,1,1,4,6-3,6,1,7,7,10,9,5,5,1,2,1,15,3,3v24s-19.08,32.16-19,36l-1,12s17.64,3.88,20,20l18,9,1,9s29.24-6.4,34-5l11,15s1.79,5.38-7,16l6,1,2,7v2l-11,9h-5l-5,2v14l8,8-1,18s22.42,6.24,16,23l-1,42-7,5h-5l-3,4,14,6h4l2-2,5,2v2l3,6,10,1s24.61,4.54,33,11c0,0,9.64-2.4,14-7,0,0,22.88,9.72,25,13,0,0,13.82-2.49,17-6l6,4h8v-2l-4-4,11-9,4-1,6-5,1-3-2-2,3-4,1-4-2-1,12-12,5,1,3,2h4l-5-4,2-4,9-9,1-4,3-2,8,8-1,4,6,7,3,5,6,7,3,5,4-1,10,13,23,29v3l-40,35,17,21,14,17,22,16,9,6Z" transform="translate(-760 -359)"/>-->
<!--    <path id="形状_11" data-name="形状 11" class="cls-1" d="M5498,3226l8,1,8,1,3,1h4l11,4,10,5,5-2,4-1,2-3,3-1,3,3h5l3,2,5,1s5.68,4.92,8,6c0,0,7.39,2.12,17-5l6,3h6l2,1,1-1-2-2-3-3,4-3h1l6-6h3l9-8-3-3,4-4v-3l-2-2,3-4,6-5,3-3,5,1,3,3,3-1-4-5,11-12,1-4,3-2,2,3,6,5-1,4,7,7v3l12,15,3-2,34,44-41,36,28,35,41,31-34,30-14,14-13,12-10,6-14,12-13,19s-42.72,60.74-48,65l-2,1h-11l-44-39-7-9s-5.36-13.16-26-19l-9-13-14-14-10-10-7-8s-8.07-21.52,2-33l10-10,1-9,4-6,9-10,6-8-6-11-9-14s-3.33-13.12-2-19c0,0-21.66-21.41-47-24l5-11s3.94-6.35-2-10c0,0-19.17-19.73-32-23,0,0,5.7-6.95,19-5,0,0,18.23,2.48,19,5,0,0,1.36,3.25-1,4l-5,2v1l2,4,8,9,11,11,8-1,9-2,8-2,4-1,2-3-1-4-1-4Z" transform="translate(-760 -359)"/>-->
    <path id="形状_11" data-name="形状 11" transform="translate(1450 480)" class="cls-1" d="M3156.2,2058.1c0,0,15.6-29.6,16-36c0,0,13.7-1.5,22,6c0,0,14.2-0.4,25-6c0,0,0.4-10.8,8-14  c0,0,10.1,26.1,20,31c0,0,8.1-0.4,9,10c0,0,16.1,13.6,22,16c0,0,27,15.8,32,25h15c4.9,2.4,8.6,6.7,10,12l39-2c0,0-1.3,7.7,29,13  c10.9,3.1,22.5,0.5,31-7c0,0,4.9-8.7,25,3c0,0,30.8,17.6,37,25c0,0,11.1,15.8,17,17c0,0,5.3,1.3,11,8c0,0,5.2,0.9,12,2l10,8h8  c0,0,8.6,11.8,17,15c0,0,20.9,17.3,29,29c0,0,31.2,33.3,38,36c0,0,26.9,26.6,29,29l-15,28l-8,50l-9,6l-8,62l-91,86l6,7  c0,0-57.9,51.1-58,54c0,0-34.4,20.1-36,34l-50,68c0,0-6,5.9-15,2l-47-43c0,0-11.1-20.6-29-24c0,0-32.6-42.3-39-42c0,0-14.6-29,12-45  v-10l19-22l-14-25c0,0-1.8-5.4-3-20c0,0-19.5-22.6-47-24l5-11c0,0,5.3-9.4-13-20c0,0-15.7-13.4-20-13c0,0,9.8-11.9,37,1  c0,0-13.3,5.1,0,15l14,14l28-3c0,0,6.8-1,2-15c0,0-4-15.1-11-9c0,0-11.9-2.2-18-6c0,0,4.2-6.6,9-3l6-5l2-44c0,0,2.3-18.5-17-21l1-19  l-8-8v-15h10l11-9l-1-10l-7-2c0,0,8.6-5.7,6-16l-9-13c0,0-6.3-4.7-36,4l-1-8l-17-11c0,0-7.2-19.1-20-19l1-14l20-33v-25l-4-3l-1-15  l-22-22c0,0-4.5-4.5-13,1l-1-4L3156.2,2058.1z"/>
    <path id="平阳县" class="cls-1" d="M4059,3706l3,4v20l14,8,5-3,10-7,2-4s1.24,0.01,4-2,6-4,6-4l21-6,10-4,5-3,2-3v-6l-3-5v-4l10-3s4.22-2.01,6,1,20,13,20,13l8,12,12,13,7,9,8,8,10,8,6-4,3-3,5-6v-8l-2-6-3-3-4-8v-8l-3-7-2-5,3-3,3-2s3.52,2.76,4,3,7.65,5.06,8,5,6-2,6-2l10-4,14-15,2-5-2-11-1-7,2-3,6-4,4,2,6,6,4,6,7,12,5,6,13,8,7,6,4,6,1,9,2,8,12-1,4-2,5-1,5,5,12,13h14l19-5,7,3,18,13,10,2,8,6,8,13,1,14-4,4-7,2-2,3,6,8,14,5s9.15,4.94,6,11l-4,11,6,8,15,10,10,17,6,11,7,4,6,1h6l2-1-4-7-8-7,1-4,4-6s-1.18-.67,3-1,5,0,5,0,12.86,0.36,19,9l4,1,3-3,1-2-1-6-1-5,1-4,2-2,9,6,6,4,11,4,8,2,11,7,16,9,8,3,6,5v4l4,10,3,9,5,8,8,10,5,4h6l10-2,7-4,18-8,8-4,6-4-1-3-2-3,3-2,2-1s-0.96-1.6,2,0,3,2,3,2l5-1,5-5,2-4,3-10,6-14,7-16-1-4-1-4,1-12,5-9v-7l-4-12,1-7,1-13,4-10,3-4,7-2,11,5,9,7,5,2,2-6,2-9,6-4,11-2,10-4,3-5,3-13,3-9,7-6,7-6-3-7,2-6,3-6,13-18,3-8,1-3a76.869,76.869,0,0,0,6-5c1.28-1.4,4-5,4-5l11-4,6-4s3.96-4.62,4-5,3-5,3-5l7-6,9-6,11-5s23.07-5.69,35,13l35,41,16-7,1-3v-3l6-5,5-2,5-10,3-4s5.6-5.6,14,4l12,14,8,14,18,10,2,5,1,11,8,7,6,8,23,29-11,18-6,2s-5.99,1.8-6,18l-3,10-6,4s-14.14,27.28-2,37c0,0,16.55,4.31,21,10,0,0,4.52,13.01,10,5,0,0-4.14-14.07,14-6l17,13,4-1h5l1-6-4-6s-3.12-4.15-2-5,3-5,3-5l3-2,7-2,11,6,12,10,11,3h5l5-1h4l15,13,12,5,46,22,43,27,4,3s-25.25,74.19-28,81l-14,5s-0.02,27.96-5,32l-32,6-2,5,2,4-2,2,6,5,5,5,1,6-4,8-6,3-3,4s-3.38.61-3,3-0.38,2.31,0,5,0,3,0,3,2.54,2.88,0,5-3,2-3,2l-5,1s1.95-3.51-2-1-4,3-4,3l-11,7-6,2-8-9-7-4-1,8-8,1,8,10-1,4-6-2-7,10-4,6,3,7,9,3,9,2,15,18,4,2-7,10-8-1-45,27-20-9-40-20-22-6h-7l-2,2-4,1-3,4-4,2-3-2-2-2-5,3s-40.71,22.54-44,29l-4,3-6,2-17,7s-17.71,1.87-24-11l-2-6-5-10s-12.39-23.91-16-27c0,0-12.58-7.79-21,3,0,0-23.12,22.16-26,23s-13,1-13,1l-20-9-10-2h-6l-10,2-12,10s-4.55,12.88,0,20c0,0,12.27,20.46,8,28,0,0-1.49,7.44-7,9l-13,9s-10.45,4.95-15-9l-4-16s-2.37-25.18-27-22c0,0-25.09,6.92-39,1,0,0,6.28,13.73,29,28l5,2a39.46,39.46,0,0,1,14,25l2,8-5,1h-6l-13,2s-7.75.58-2,6l6,2,2,7,2,5-1,4-6,3-2,3-1,3,1,5,3,3-8,11h-6l-6-2-3-3,3-5,2-4v-3l-2-3h-6l-10-2-7-2-6-1-4,4h-9l-1-4-1-4-1-4s-3.41-4.63-10,0a12.249,12.249,0,0,0-3,7c-0.16,3.95-42.32,21.52-50,22l-7-5-2-1-4-3-6-7-3-2-2,1-1,3-3,3h-4l-4-1-2-4s0.83-3.1,1-4,3-5,3-5l5-5,2-3,2-4,1-3-1-2-3-3-4-1s-4.71-2.25-11,3l-6,6h-2l-3-1-4-5s-11.91-19.19-16-34c0,0-7.21-13.48-13-12l-7,5-4-1s-37.65,20.6-55,17c0,0-3.81-4.3-4-9l4-3-1-1-4-3s-9.14-4.74-15-4c0,0-23.76,12.98-32,11h-9l-6,7s2.02,13.31-9,21h-9l-11,9h-12l-12-5-7-1-4,4s1.31,9,3,10c0,0,2.53,10.08-23,13,0,0-16.85,4.28-22-1,0,0-7.31-5.75-22-3,0,0-12.53,5.46-18,18a75.467,75.467,0,0,1-17,18l-5,1-10,8-12,9-12,9s-6.72,2.63-9-2c0,0-24.19,15.57-38,18,0,0-23.98-5.71-33-14l-14-7-2-11s1.33-7.56-10-6l-9,1s-4.81,2.31-6,7h-6l-7-2-5-3h-4l-12,10-27,3s-16.62-13.14-25-16c0,0-5.71.02-6,5l3,18-5,5s-17.28-7.84-18-9h-1l-7,7s-3.14,12.53-24,10l-28,1s-10.13.16-7-14c0,0,5.28-11.29-3-17l-14-10-1-1-1,1-4,4-4,5-2,1-12-1-3-2h-2l-4,5,2,3,6,8s1.95,4.43-1,6l-9,10a10.505,10.505,0,0,1-13-3l-14-13a16.512,16.512,0,0,0-11-1l-5,2h-6l-11-7a13.117,13.117,0,0,0-5-2s-3.96-.04-11-8l-2-3v-24s-2.02-12.67-22-10l-13,3s-20.31,5.63-35-17l-6-15-6,8h-16s-7.22,1.2-9,4l-6,6s-8.25,2.22-8-7l-24-15,2-3,8-12-7-11s-2.49-3.33,2-8l3-3v-3l-1-2-2-1-2,2-1,2h-3l-4-1-5,5-3,8-3-2-6-7s-3.62-4.04-12-2c0,0-9.69,3.62-10,12h-4s-0.63-12.19-11-13c0,0-.59-24.26-5-30l1-6,5-4,11,6,28-1,5,2,14-2,3-1,4-3-1-5,9-8,2-1-2-11-2-6-2-9,5-2h10l9-1s12.13-3.37,12-11v-2l-3-1-4-5v-7l2-4h4l12,11,6,1,2-4v-10l-3-7v-8l3-5v-5l-6-3-6-6-17-12-5-3-1-8v-9l4-11v-3l-6-4-2-8,6-5v-22l-3-9v-4l2-2h4s6.54-5.17,6-12l2-1,4,1,6,1,11-1s9.85-4.51,8-11c0,0,1.46-10.34,4-13l5-11-1-8-16-11-1-31,24-21v-11s3.09-14.04,15-6c0,0,23.45,27.28,31,26,0,0,12.27-11.27,21-13,0,0,7.32-2.47,12,0l2,2h7l1-3s18.33-14.12,20-20h4s5.98,16.8,13,19h30l9-11,15-2,3-1,11-8,4-1v-5l2-3,4-6,6,1,12,8,3,1,3-1,2-3,11-13,8-7,8,2,13,4,3-2,3-3,2-1,3-3,1-8,3-5,1-4,2-7,3-4,11-6,4-3,1-2v-9l-2-5v-7s22.43-10.05,23-14l2-6,7-10,20-1h4Z" transform="translate(-760 -359)"/>
    <path id="乐清市" class="cls-1" d="M5581,2804s22.38,26.8,25,41c0,0,7.08,38.31,28,48l18,16,17,7,32,6,29-1,18-8,20-11,18-7,18-4,37-3,36,2,29,2,34,5,29,6,45,17,44,20,46,13,40,15,47,15,30-59,30-52,45-77,23-34,282,33-9-10-49-70-60-89-52-73,5-12,16-25,37-61,19-33,34-60,18-33s37.47-55.61,36-136l1-108,4-63,7-49,10-32,13-35,8-25,45,36,51,41,13-2,17-2,4-21,11-75,8-54,3-50,5-18,5-12,4-14-4-16-5-10-24-20-3-8,3-5,10-1,17-4,20-2s4.52-2.07,2-10l-3-8,4-7,12-14,9-6,20,4,13,2h5l3-4,2-5v-9l6-6,5-10-2-3,9-6,1-7-2-5-4-6-3-6,5-3,7-1s10.36,0.91,11-9l-6-8-21-12-21-16-13-9-12-1h-8l-9,3h-6l-4-5v-6l2-5,8-14,2-7v-5l-3-5-4-2-8-3-7,1h-6l-4-4-13-23-3-24-2-8-8-10-9-8h-4l-4-2-8-8-4-10-2-4-4-5-12-7-11-6-10-6-4-10-4-13-4-17-9-23-8-15-9-18s-8.52-14.58-17-19h-6l-3-2-2-5-4-4-4-6-10-5-8-5-8-1-13-2-12,1-12,3-5,3-5-2a9.79,9.79,0,0,1-5-2c-2.3-1.84-6-9-6-9l-5-9s-9.45-12.81-16-16c0,0-13.82-12.12-22-14,0,0-14.72-7.46-26,9,0,0-6.56,19.48-14,25l-13,11-7,10-4,10-1,10-3,26,1,10s-1.17,16.95-16,20c0,0-16.81,8.84-25,8,0,0-9.59,5.56,4,9,0,0,11.2,8.52,4,26,0,0-14.2,14.29-44,11l-10,3-5,2-7,5-8,1h-10l-12-5-8-3-7-1-8-2-5,4s-25.91,34.95-36,15a20.41,20.41,0,0,0-14-14s-13.97,6.63-23-2c0,0-10.77-.91-14,13,0,0,4.82,22.55-16,7l-24-20-10-5-9-1-12-1-17-1-12-7-2-1s-3.25,3.57-1,6l5,5h6l5,2,3,1,3,3s1.1,4.17-4,5c0,0-6.78,6.84-5,9a42.818,42.818,0,0,1,4,7l4,5s3.67,6.35-3,10l-4,8-2,4v4l4,1,10,1,8-1,6,6,1,5,1,9,1,13,5,11,3,8s4.51,9.63-2,13l-20,24a8.048,8.048,0,0,1-9-3s-12.08-4.14-20,5l-14,17-7,11s-3.01,22.89,12,19h8s9.01,5.22,3,11l-17,26-3,6s-0.15,19.36,16,17c0,0,12.28-2.88,24,11,0,0,4.99-7.68,10-7,0,0,3.45,1.42,13-2,0,0,7.49-3.52,14,6,0,0,5.94,9.06-11,28,0,0-11.97,12.78-6,15,0,0,14.67,8.48,5,12,0,0-2.83,9.26-14,6l-12,3s-5.01,19.57-19,22c0,0-5.28,5.24-13,0l-3,4-1,6v6l-4,9v8l4,3,11,3s19.12,3.28,4,25l-19,34-6,11s-7.83,9.38-27-1c0,0-19.14-3.45-19,6,0,0-1.54,7.26,4,10,0,0,4.07,9.12-6,10,0,0-22.43-.01-24,2,0,0-22.34,3.31-28,9l-6-3-5-5,2-7,3-6-1-8v-6l-9-10-12-2-13-3-8-1-5,3-8,3-6-1-4,1-3,2s-5.44,2.41-5,7l-7,8-9,6-5,7v4l2,6,1,4-2,2-3,2-7,2-10,4,5,4-3,5-4,4-1,7,4,4,3,2,5-1,4-2,4-3,4-4h2l5,4,1,13,4,6,3,5,20,16s5.89,13.01-1,19c0,0-12.14,12.75-11,19,0,0,7.84,4.65,3,15,0,0-1.01,9.05,6,5l10-2,4,1,3,3-5,13-4,10v7l1,17,2,12,6,12v17l-2,14s-0.89,18.17-28,27c0,0-15.93,6.91-27,11,0,0-9.35,8.15-7,8l-1,19s2.93,18.25,13,12l8-9s6.01-11.01,15-1c0,0,6.1,10.05,16,4l15-3s8.54-3.86,9,5l-9,7-7,3-2,4-1,4-1,9-1,26,2,19s-2.41,5.89-13,5c0,0-27.68,11.28-36,14,0,0-3.07,5.39-14,11v30s1.29,7.61-12,8c0,0-38.75,5.33-44,17l1,4,5,4,9-1,6-1,3,3,2,5,1,3-6,7-7,6-4,6-2,5-1,5-5,6-9,13-5,2v6l-2,10s-3.96,9.35-14,4c0,0-14.92-5.84-22,7,0,0-8.69,14.89-6,22,0,0,13.67,10.15,5,17,0,0-12,5.74-18,7,0,0-4.16,4.34,6,14l1,7-8,5-6,10,6,24-10,9-5,3-7,2-13,15-3,5-7,10-2,22-1,12,1,5s0.34,10.82-13,10c0,0-3.05,17.83-2,15s-5,13-5,13l-5,5,2,10,3,9,3,6,6,5,6-3,5-6h12l19,17-26,4h-7l-10,6-3,5,3,7s8.54,27.24-9,45l-4,3s-2.46,1.86-2,3-0.13,3.59-2,6-2,3.26-4,5-0.62.88-2,2-1.25,1.05-2,6-0.26-1.61-1,6-2,10-2,10l-6,8,3,6v3l-7,5-5,7-1,21-4,8-14,6-8,5Z" transform="translate(-760 -359)"/>
    <path id="洞头区" class="cls-1" d="M6323,2868s-2.45,3.84-3,5-2.36,1-3,4-0.67,3.85-1,6-2.76.23,0,6-6.67,1.14,2,5,6.52,4.14,10,4,4.5-1.18,10-1,7.69-.46,9-1,6.72-2.93,9-5-0.52-.43,5-4-0.62-1.34,4-4,5-3,5-3-1.46-1.31,2-1-4.27-.65,2,0,5.67,0.66,7,1,1.24-.34,3,0-0.23,2.47,3-1,4.02-3.16,5-4-0.82.62,3-2,3.03,0.06,6-3a17.149,17.149,0,0,1,5-4,26.822,26.822,0,0,1,4-2s-0.63.27,2-2,3.59-4.63,5-5,0.19,0.08,2-1-2.06-.17,4-2,9.76-2.45,11-3-0.52.11,5-4,6.14-.8,6-4,0.14-3.3,0-6,1.86-3.24,0-4-5-2-5-2v-5s1.67-3.31,0-3a78.007,78.007,0,0,0-8,3s0.6,0.17-1,2a9.688,9.688,0,0,1-2,2s-5.47-5.59-7-7-1.94-3.5-5-4-0.53-1.5-3-1,0.25-2.9-3,0-1.32,1.04-4,3-2.39,2.95-7,4-3.83-.83-8,2-1.64,1.73-6,4-3.8,1.67-7,3,2.76-2.42-4,1-7.74,3.83-10,5-1.22.71-5,3-3.41.27-6,3-1.22,1.49-5,4-3.41,2.74-6,4-1.23-.35-5,2-4.45,3.24-6,4-4,2-4,2Zm373,44,7-2c4.2,0,3.84-1.43,5-1a2.631,2.631,0,0,0,2,0c0,4.58-5,6-5,6,5.72,3.43,10.97,1.27,11,3s1,7,1,7-4.16,2.39-6,6-2,5-2,5a4.022,4.022,0,0,0-1,3c0.02,2.09,0,4,0,4v3c3.81,2.29,2.64,2.13,4,3s1,1,1,1l11-2,3,1s-3.45,3.44,1,3,4,0,4,0-0.93.98,0-2a21.756,21.756,0,0,1,1-3l1-3c4.54,0.48,6,0,6,0s1.04-2.75,2-5,0.33,0.16,1-2,0.37-.16,1-2-0.3-1.3,1-3,0.31-1.67,2-3-1.03.2,2-2,3-3,3-3l4-5s-3.17-.79-5,0a8.32,8.32,0,0,0-2,1,1.9,1.9,0,0,1-2,1c-1.65-.02.52,1.45-2,0a14.474,14.474,0,0,1-3-2v-1l2-3c0.96-.48-1.65.14,2-1s4-1,4-1,0.68-1.8,1-3a3.413,3.413,0,0,0,0-2s-3.57-2.41,1-2,5,0,5,0-5.69-.41,1,0,2.2-.41,6,0,4,0,4,0,3.31-1.64,0-3-4-1-4-1l-1-2s0.28-.05-2-1a12.249,12.249,0,0,0-3-1l-1-4a3.991,3.991,0,0,1,4,0,14.9,14.9,0,0,1,2,1c1.45,0.9,1.11.14,2,1s-0.56-.29,1,1a34.964,34.964,0,0,0,4,3c1.14,0.68-1.11.21,3,2s5.26,3.02,6,3,1.92-1.17,3,0-0.19,1.63,2,2,1.75,1.87,4,1a19.759,19.759,0,0,1,3-1s0.75-.64,0-3a12.443,12.443,0,0,0-2-4c-0.9-1.47-.38-0.95-1-3a38,38,0,0,1-1-5s-3.49-.65,0-1a27.857,27.857,0,0,1,6,0s-0.74-2.75,1,0,1.54,0.05,2,2-0.85,1.34,1,2,0.48,0.62,2,1a6.85,6.85,0,0,0,3,0,3.252,3.252,0,0,0,1-1,3.252,3.252,0,0,1,1-1l4-5a29.251,29.251,0,0,1,2-5s-0.7-1.48,1-1a10.092,10.092,0,0,0,4,0l1,2s0.04-.78,1,1-0.39,1.02,1,2-0.41.31,3,1a21.647,21.647,0,0,1,4,1s-0.66,1.98,2,0-0.57-1.07,2-2,0.56,0.13,3-1,3-1,3-1-0.69-1.15,2-1a26.558,26.558,0,0,0,4,0l2-1c4.3-3.34,3.75-3.66,5-4s-1.16,1.29,1,0,0.02-.79,3-2,0.96,0.4,4-1,2.81,0.12,4-1-0.53-.17,2-1,3.41-1.11,5-3a15.319,15.319,0,0,1,2-2c1.27-1.33-.37-1.96,2-2s1.96,0.76,3,0a6.413,6.413,0,0,1,2-1l-1-5s0.41-.7-3,0,0.75,1.3-3,1-3.53.3-4,0-3-2-3-2l-5-2a23.645,23.645,0,0,0-3,0c-2.13.12-1.25,0.21-3,1s-0.58,1.78-2,2,0.68-.61-3,1-3.69,1.43-5,2-1.26-.48-2,1,0.17,0.61-1,2,0.85,0.7-1,2-0.96,1.74-2,2a5.247,5.247,0,0,0-2,1,21.889,21.889,0,0,1-6,2c-2.12.36,0.74-.36-2,0s-3,0-3,0c-0.48-1.67.61,0.65-1-2a29.867,29.867,0,0,1-2-4,13.962,13.962,0,0,0-1-2,33.677,33.677,0,0,1-2-4,4.251,4.251,0,0,0-3,0c-1.25.66,1.64,0.63-1,1s-1.69-.85-3,0-1.82,1.15-3,1-1,0-1,0a6.056,6.056,0,0,1-2,0c-1.52-.15.48-0.33-1,0a7.928,7.928,0,0,1-3,0c-1.19-.96-0.98.06-2-1s-2-2-2-2l-1-1v-2s-4.58-1.64-5-1,0.09,0.01-1,2a8.33,8.33,0,0,0-1,2h0c-1.53,1.18,2.15.82-1,1s-3,0-3,0-1.7-2.36-2-3a2.486,2.486,0,0,0-1-1s0.41-.93-1-1-1.25-1.36-3,0-0.57-.08-2,1-0.66.69-2,1,2.68-.79-1,0a23.959,23.959,0,0,0-4,1,16.118,16.118,0,0,0,0-3c-0.16-1.51-1.75-.34,0-2a24.8,24.8,0,0,0,2-2h1l3-1s-0.41-1.19-4-1-3.22-.67-4,0,0.46,0.85-1,1,0.65-1.1-1,0-0.92.66-2,1a20.505,20.505,0,0,0-3,1c-1.91.78,0.29-.69-2,1s-0.03-.4-2,1-0.84,2.75-2,1-1-2-1-2-2.62.29,1-2,4-2,4-2l1-3,2-3,1-1c-2.87,0-5-4-5-4s0.4-.5-2,2a13.312,13.312,0,0,1-2,2c-1.36,1.22-.97-0.18-2,1s-1.06,1.63-2,2-3.81.43-5,1-0.66.72-2,1-1.46-1.24-2,0,0.69,0.61-1,2a8.458,8.458,0,0,0-2,2s0.79-.01-1,1a13.163,13.163,0,0,0-3,2c-1.42,1.16-.43,1.88-2,2s-0.28.69-2,1a14.285,14.285,0,0,0-3,1c-1.58.51-1.79,0.06-3,1s3.03-1.33-1,1-5,3-5,3-3.8-.35-5,2-0.89,3.03-2,4-3,3-3,3a9.206,9.206,0,0,0-3,2c-1.08,1.23-1,1-1,1a4.115,4.115,0,0,1-1,2c-0.99,1.33.57-.35-2,3s-1.99,3.31-3,5,0.11-2.71-2,2-1.17,1.8-2,6-1.41,2.93-1,5,0.4,2.17,1,2-1.14-.49,2-2,3-2,3-2v4s-0.47-.76-1,3-1,4-1,4Zm-930,20,9,8,34,22,31,22,45,31,28,26,28,23,39,35,23,24,13,18,15,17,5,3,4-6,14-21,16-22,31-42,10-16,6-9,8-8-72-54-30-20-12-2s-3.71-2.13-5-3-8-6-8-6-7.28-1.39-9-2-5.25-2.66-8-4-18-11-18-11l-9-6a34.846,34.846,0,0,1-7-3c-4.03-2.21-.16-1.64-5-3s2.52-1.78-6-2-4.32,1.51-9,0-0.5-.77-7-2-3.82-.77-10-1-8.35.23-12,0-9.17.23-12,0-9.83,1.16-13,1a111.646,111.646,0,0,0-12,0c-2.79.27-41-1-41-1l-19,3-10,5h-16Zm555,78,5,2,4,1s1.4-4.54,2-3,1.02,1.32,1,2a4.044,4.044,0,0,0,1,2c0.49,0.76-1.63.1,0,1a13.419,13.419,0,0,0,2,1s-0.09,1.72,1,1,1.58,1.38,2-1-1.18-.11,0-2-0.88-.4,1-2,2-2,2-2a12.748,12.748,0,0,0,6-3s-0.7,1.04,0-1,1-2,1-2c1.14-1.33.32-1.22,2-3a17.336,17.336,0,0,1,2-2,6.961,6.961,0,0,0,1-1s-2.37-.19,1-1,1.87-1.76,3-1,0.33,0.29,3,1-0.57.92,2,1,4,0,4,0c1.33-.57,3.18.95,4-1s-0.15-2.73,1-3,1.06-1.07,3-2,1.3-.32,2-1-0.59-.66,1-2,2-1,2-1a4.793,4.793,0,0,1,2,1c0.81,0.75-1.47.12,1,1a14.791,14.791,0,0,1,4,2,18,18,0,0,1,2,1c1.39,0.92-1.56.71,2,1s1.79-.29,4,0,3.51,0.27,4,0,0.1-.02,2-1-0.07-1.13,3-2,1.04-.75,3-1-0.05.06,2,0,0.73-.32,3,0a48.009,48.009,0,0,1,5,1c2,0.45,2.58-.35,4,1s1.36,1.52,3,2a21.228,21.228,0,0,1,3,1,42,42,0,0,1,5,2c1.59,0.71-.71-0.22,3,1s0.5,0.69,4,2,1.38,0.23,5,2,3.73,3.09,5,3,3.13,2.01,4,2,1.43-.75,2,0,1.61-.05,1,3-1.01,2-1,3-0.01.64,0,3-0.57.61,0,3a10.15,10.15,0,0,0,2,4s-0.93.49,1,2a17.354,17.354,0,0,0,3,2s2.71,0.03,3,1-1.98.27,2,1,4,1,4,1a12.385,12.385,0,0,0,5-2c1.8-1.49,2-1,2-1s-0.45.09,1-2,0.28-.01,2-2-0.19-1.36,2-3,0.68-1.6,2-2,1.92-.65,2-1-3.11-2.03,0-1-4.04-3.12,2,0,6.06,2.12,7,3-0.16.94,2,1a5.9,5.9,0,0,0,4-1c0.43-.45-1.65-3.74,1-2s-1.12.07,2,1,5.47,0.69,6,1-0.23-.88,1,0,0.87-.2,2,1a2.324,2.324,0,0,0,2,1l5-3s-0.46.38,1-2a27.306,27.306,0,0,1,2-3,33.915,33.915,0,0,1,4,2s-2.1.54,0,1,0.11,2.38,3,0a23.369,23.369,0,0,1,4-3,12.372,12.372,0,0,1,2-1s-0.36-1.16,3-1,1.69-.16,3,0-0.42-.35,3,0,0.11-.73,3,0,1.6,0.89,3,1a23.958,23.958,0,0,0,3,0s0.38,0.63,1-2,1.38-2.61,1-3-1.43,1.23-1-1-0.81-1.01,0-2-0.52-.25,1-1a14.434,14.434,0,0,1,4-1c1.33,0.76.8,1.18,2,1s1.58,1.59,3-1,0.01-2.65,1-3-0.21-1.46,2-1,0.46-1.22,2,0,2,1,2,1l1-1s-1.74,1.81,2,0,4-2,4-2,0.17,0.76,1,0,1.09-1.73,2-2a9.12,9.12,0,0,0,2-1s0.06,0.49,1-1,1.35-.99,2-2-0.54-.04,1-1a6.274,6.274,0,0,1,2-1c0-3.41.46-2.17,0-4s-1.35-1.14-1-3-0.54-1.48,0-3,0.7-.78,1-2a5.068,5.068,0,0,1,1-2s0.43,1.2,1-1,1-2,1-2-0.04-2.28,1-2,2.23-1.23,4,0,1.47,1.63,2,2a5.248,5.248,0,0,1,1,1,1.868,1.868,0,0,1,1,2c-0.14,1.54-3.84.95,0,2a27.748,27.748,0,0,0,4,1,9.452,9.452,0,0,1,3,1c0.44,0.19-.14-0.95,1,0a12.745,12.745,0,0,0,3,2c0.42,0.08-.31-2.36,1,0s-0.91,3.26,2,3,1.95,1.21,3,0,1.63-.14,2-2,0.11-1.86,1-3,0.16-.4,1-2a9.352,9.352,0,0,0,1-3c0.41-1.44-1.73,1.34,0-1s3.4-3.39,2-4-6.15-1.77-7-1,1.69,0.58-1,2,0.58,0.58-2,1-0.2-.04-3,0-3,0-3,0a11.469,11.469,0,0,1-2-2c-0.95-.38-3-1-3-1-0.95-3.22-.75-3.27-1-4a7.66,7.66,0,0,0-2-2,14.367,14.367,0,0,1-4-1c-0.5-.19-1,1-1,1-1.52.95-1.38,0.35-3,1s-1.94,1.62-5,0a20.357,20.357,0,0,0-5-2v-3h5c2.27-.38.43-1.21,2-1s0.72,0.36,2,0a5.447,5.447,0,0,0,2-1l-1-4-1-2c1.33-.76,4.64-1.65,4-3s-0.71-1.51-2-2-1.19-.75-2-1,0.51,0.25-1,0-1.35.25-2,0,0.92,0.06-1,0-0.75-1.08-2,0-0.48.35-2,1-1.53.97-2,1,0.64-.03-2,0,0.81,0.73-3,0-2.87-.89-4-1,0.35-1.32-2-1-2.13-.32-3,0,1.9,0.25-1,0a9.087,9.087,0,0,1-4-1c0-1.9-1.1-.21,0-2s-0.42-.69,1-2-0.18-.12,1-1,0.73,0.58,2-1,0.27-.71,2-2,0.38,0.42,2-1,4.02-1.35,5-3,0.07-1.22,1-2a7.341,7.341,0,0,0,2-4c0.07-1.14,2.19-3.24-2-2s0.75-1.62-2,0-2.97,1.25-4,2-1.08.11-2,1,0.9-.22-2,1-1.2.59-3,1-1.44-.22-2,0-0.98-.51-2-1-1.55,1.44-1,0-3.67-.29,1-2a34.388,34.388,0,0,0,5-2,1.505,1.505,0,0,0,2-1c0.51-1.55,1.49-1.5,1-2s2.28-2.17-1-2a37.206,37.206,0,0,1-5,0s2.34-1.12-1,0-1.71.5-3,1-1.19.17-2,1-2,2-2,2a9.863,9.863,0,0,1-3-2c-1.87-1.64.33-.85-2-2s-3-1-3-1v-4s-0.83-.08,2-2,2.79-.75,3-2,1.22,1.79,1-2a11.15,11.15,0,0,0-2-6l-1-2s2.42-3-1-3-3.74-.19-5,0,1.62,1.05-2,1-2.4.05-5,0-7-3-7-3l-1-2s-1.08-1.46-4-1-1.95-.84-3,0-0.86.13-2,2-0.97,2.34-2,4,0.17,1.12-1,3-1.69.79-2,2,1.34,0.9-1,2-1.58-.62-3,1-1.06,1.44-2,2-1.36-.08-2,1-1,1-1,1,0.57-.27-2,0-0.97.87-3,0,0.12-.37-2-1-2.66-1.18-4-1,0.48-.18-1,0-0.25-.18-2,0-2.55-.56-3,0,0.35,1.44-1,1-4.4-3.48-6-3-0.69-1.05-2,0a11.716,11.716,0,0,0-2,2s2.8,1.25-1,1,2.46,1.38-2,0-2.22-.62-4-1-1.65-.29-2-1,0.35,0.23,0-1,0-1,0-1v-6s1.19-1.33-1-1-1.45-.5-4,2-1.26,1.12-2,2-0.8-.77-2,1-0.33,1-2,3-0.25,1.35-2,3-2.35,1.51-3,3a3.919,3.919,0,0,1-2,2l-2,2s-0.45,1.77-3,2-0.98-.23-3,0-0.66-.61-2,0-0.57,1.02-2,1-2-2-2-2,1.59-1.33-1-1-3,0-3,0-0.89-.61-1,1,1.44,1.45,0,2a8.109,8.109,0,0,0-2,1c-3.98-2.08-2.31-2.23-4-2s-0.41-1.36-2,0-2.14,3.6-3,4,0.19-.1-1,1-7-2-7-2c-0.95-1.14.04-1.71-2-3s-1.58,1.18-2-1,0.04,0.46,0-2-0.61.06,1-3,2-3,2-3v-5c1.52-1.14,1.92-.61,2-2s0.79-1.09,1-2,0.08-.25,1-2,0.32-.73,1-2,1-2,1-2,4.3-.84,0-1-1.51-1.84-3-1-0.72,1.65-3,2-2.5.13-4,1-0.98-.38-2,1-1.09,2.34-2,3-1.87,1.26-3,2-0.4-.07-2,1,0.44-.58-2,1-0.15-.62-3,2,3.48-1.73-3,3-6,5-6,5,2.4,0.18,2,1,0.19,1.88-2,4,1.03,0.74-2,2-2.21-.02-3,1,0.3-1.29-1,1-1.75,1.81-2,3-0.23.54-1,2,0.47,0.27-1,2-1.2.56-2,2-1.5.48-2,2-1.41,1.82-2,3a20.714,20.714,0,0,0-1,2c-0.54,1.26.05,0.85-1,2s-1.05,1.9-2,2-1.26-1.05-3,0-1.82,1.92-5,3-3.68.35-4,1,1.16-.17-1,1-0.05,1.89-3,2a28.582,28.582,0,0,0-6,1l-4,2-2,3-2,3a66.465,66.465,0,0,0-8,0c-1.9.19,1.67-.86-3,1s-4.2,2.43-5,3a1.943,1.943,0,0,0-1,2c0.2,0.65-2.85,1.45,0,2s5.36,3.35,6,1-2.24-4.41,1-3,2.76-.55,3,1,1.38,2.56,1,3,1.98,0.42-1,1-1.69,1.04-3,1-1.85-.52-3,0a20.2,20.2,0,0,1-2,1c-1.61.66-1.06,0.01-2,1s-1.73.06-2,1,0.27-.73,0,2-0.96,1.57,1,3a26.8,26.8,0,0,0,3,2c2.37,1.51,2.31.02,3,2s1.31,0.13,1,2,0.31,2.23,0,3,0.77-1.8-1,1a14.106,14.106,0,0,0-2,4s-0.15,4.57-1,5,0.75-2.41-1,1-0.25,2.59-1,3-1,2-1,2a9.43,9.43,0,0,1,0,2,14.481,14.481,0,0,0,0,3c0.06,1.94-2.8,1.79,1,3S6321,3010,6321,3010Zm192,98s1.37,1.57,1,5,1.11,1.95-2,7-3,5-3,5l-2,1-2,4c5.17-.86,8,0,8,0s0.08-.53,1,2a26.188,26.188,0,0,1,1,3v7s-4.54,2.58,2,1,7-2,7-2-0.71.47,2-3,0.55-3.79,4-6,3-2,3-2l2-1h5s0.21-2.2,2-2,1.91-1.34,4-1a6.526,6.526,0,0,0,3,0s8.23,2.71,0-3-8-6-8-6-2.2,2.29-1,0a17.283,17.283,0,0,1,3-4s-0.36.75,0-2a29.48,29.48,0,0,0,0-6s-10.23.23-3-3,8-5,8-5,2.92-.02,0-3l-3-1a1.24,1.24,0,0,0-2,0c-0.99,1.2-.37,1.21-1,2a5.558,5.558,0,0,0-1,2c-0.1.38,2.33,0.34,0,1s-1.92.71-3,1,0.2-.77-1,0a12.009,12.009,0,0,1-2,1,11.282,11.282,0,0,1-2,1c-1.02.36-.91,0.68-2,1a3.554,3.554,0,0,1-2,0s0.05,0.21-1,0c-1.59-.32-2,0-2,0l-1-1s-3.52-.04-4,0h0l-1,1s0.58-1.34-2,1-2,2-2,2Zm-212,135c-0.13,1.63,2.1,2.6,2,4s-6,3-6,3a11.331,11.331,0,0,0,0,2c0.1,1.04,2,2,2,2a27.419,27.419,0,0,1,3,3c0,6.96-.03,3.46,0,7s0.26,2.4,0,5-0.87,3.34-1,5-1,2.57-1,4,0.58,0.83,0,2,3.22-.04-1,1a26.786,26.786,0,0,1-5,1s1.89,2.28-2,0,1.66-.27-3-2a38.106,38.106,0,0,1-5-2,11.338,11.338,0,0,0-3-1l-1-1-5-2-2,1s-0.03-1.91,0,3-0.61,3.06,0,5-2.09-2.06,1,4,1.46,3.07,3,5,3.27,1.49,4,2,0.05-1.41,3,1,3.05,1.3,3,2,0.08,4.89-1,7,3.43,1.89-1,2-2.12-.4-4,0-2.93-.98-4,0,1.97,1.02-1,1-0.97.6-4,0-3-1-3-1h0s-1.65-.46-2,2-1.94.06-1,3,0.48,0.48,1,2-0.26.13,1,3,3.55,5.59,4,8-1,7-1,7,0.32-1.53-1,1-1,2-1,2l-1,1a5.642,5.642,0,0,0-2,0c-1.96.11,0.89-.4-3,0s-4,0-4,0a9.315,9.315,0,0,1-1,2c-0.92,1.59-.5,1.51-1,3s-1.21,2.19-1,3,1,3,1,3l2,1a1.973,1.973,0,0,1,2,2,13.537,13.537,0,0,0,1,4s1.06,0.11,3,3-0.52.24,1,2,3.87,3.57,4,6-0.42.67,0,3,1,5,1,5l-1,2s-0.77,1.48,2,0,3-1,3-1,1.91-2.85,2-5,0.49-2.66,0-4-0.38,1.08,0-1a10.123,10.123,0,0,1,2-4s1.01-.12,1-2-0.28.2,0-2-0.28-1.16,0-4-0.28-1.13,0-3-0.28-.65,0-3,0-2,0-2-1.18-1.33,1-2,2-1,2-1h2s-0.27-.07,2,1,0.8,0.93,4,1,5,0,5,0v-5s-3.13-1.24,0-2,1.71-2.98,3-1,1.26,1.7,2,3a15.533,15.533,0,0,1,1,2s-0.12.38,3,1,3,1,3,1h0c0.41-2.99-.12-8.6,0-10s-0.12-.28,0-2-1.28-1.38,0-3,1-2,1-2l-1-2s-4.73-.61-1-1,4,0,4,0c1.16,0.58,2.76-.22,4,1s0.44,1.62,2,2,0.12,0.17,2,1a14.109,14.109,0,0,0,4,1s1.19,1.33,2,0,0.03-.38,1-1a1.832,1.832,0,0,0,1-1s3.1-.06,4-1,3.04-1.03,4-2,1-1,1-1c2.03-.87.82-1.16,3-1s2.34-.45,4,0,0.02-.74,2,0,0.83,1.81,3,2-1.42-1.96,4,1,6,3,6,3-4.67-2.89,1,1,2.88,3.53,5,4,2.1,0.66,4,1a6.954,6.954,0,0,0,3,0s0.75-2.05,2-1a4.958,4.958,0,0,0,3,1l3-2c4.35,0.58,6,1,6,1s3.73-1.66,2,1-0.24.12-2,4-1.95,3.25-2,4,0.34,1.22,0,2-2.56.61,0,2,4,1,4,1l1,1s2.93,1.77,3,0,0-4,0-4l1-3,1,1,2,2s-1.06.96,2,0,2.94,0.41,3-1-0.06-.27,0-2,1.1,0.63,0-2a28.115,28.115,0,0,0-2-4v-2c-2.61-2.32,2.61-.99-1-2a29.7,29.7,0,0,0-4-1v-6a6.341,6.341,0,0,1,3-2,3.094,3.094,0,0,0,2-2l1-1c2.03-2.32,2.01-4.2,4-4s0.24-.2,3,0-0.27.38,4,0,3.44,1.54,4,0a32.889,32.889,0,0,1,2-4s-1.46-1.24,0-2,1.09-1.24,2-1-2.13.92,2,0,3.29,0.37,4-1a14.786,14.786,0,0,0,1-4l4-9,3-3,2-3c2.61-1.74.5-1.62,3-2s1.76,0.96,3,0,4.12-1.27,5-3,1-2,1-2h0c-4.18-3.79-2.08-3.63-4-4a24.368,24.368,0,0,1-5-2c-2.03,0-.93-2.79-4,0s-0.35-1.37-2,1a8.968,8.968,0,0,1-3,3s0.19-1.43-3,1a19.024,19.024,0,0,1-5,3s1.12,1.41-1,1-0.66-.17-4,0-2.92-.46-4,0-1.44.38-3,1a23.12,23.12,0,0,1-4,1s1.39-.81-2,1a39.549,39.549,0,0,1-4,2v3c-10.15.29-12,1-12,1h-7s-3.04-1.78-1-4,3.69-.33,2-2-0.28.28-2-2,0.92-1.98-2-3a12.582,12.582,0,0,1-4-2s1.29-1.82-2-1-0.64-.85-4,1-2.06.15-3,1a4.17,4.17,0,0,1-2,1s-1.29-.72-2,0-5-1-5-1,1.25,0.34-1-1-2-1-2-1l-1-1,2-3c0-3.19.96-5.77,0-7a6.309,6.309,0,0,0-2-2c-0.7-.39.76,0.71-2-1a21.863,21.863,0,0,1-3-2h0c0.82-4.06,1-4,1-4s0.18,2.44,0-2,0.47-2.4,0-4,1.08-2.34-1-4-2-2-2-2,4.2-.6-2-1a70.137,70.137,0,0,1-9-1c-1.45.87-.07,0.79-4,2s1.96,0.79-2,1-2.85-.5-5,0-0.08-.5-3,0-2.47-.5-4,0,1.04,0.66-3,0l-2-1h-4S6301.13,3241.37,6301,3243Zm193,15s1.58,5.42,2,8,7,6,7,6-1.21,2.63,0,4-2.41-.77,1,1,3.21,6.83,9,3-0.98-1.78,6-4,8-2,8-2-1.77.82,2-1,5.24-.98,9-3,0.24-.39,4-2-2.94,1.01,6-2,10.67-3.99,12-4,2.67-1,5-2,1.88-1.6,5-2,1.49,0.4,4,0,2.49,0.2,5-1,3.7-1.8,5-2-2.69-.01,3-2,1.51-.61,5-2,2.32-.81,5-2,2.32-.61,3-1-0.68.39,1-1a25,25,0,0,0,3-3l3-2s-2.27-1.22,1-1,5.54-.42,7,0-0.65,1.98,4,1,5.15-1.02,6-1,1.16,0.38,3-1,1.36-.83,2-2,1.56,2.36,1-3-1-5-1-5l-1-3s-0.25-1.64-4,0-2.86.96-4,2-6,3-6,3-1.67,2.36-4,0-2.67-1.44-3-3-0.07.56,0-1a6.92,6.92,0,0,1,1-3l1-3a17.566,17.566,0,0,0,2-4c0.27-1.35,2.73-3.66,0-6s-3-2-3-2l5-5s-1.46.53,1-1-0.06-2.47,2-2a4.84,4.84,0,0,0,3,0c0.2-3.4,1-4,1-4l-7-2a41.135,41.135,0,0,1-4-2,23.878,23.878,0,0,0-5-2s-1.68-1.89-1-3a7.083,7.083,0,0,1,3-3c1.87-1.1,2-1,2-1a1.33,1.33,0,0,1,2,0c0.87,1.09.74,2.11,2,2s3.54,1.11,5,1-1.25,1.31,1,0,1.95-.9,3-2a6.63,6.63,0,0,1,1-1s0.55,3.1,0-1-1.45-2.31-1-4-0.45.69,0-2,0-3,0-3,0.75,2.08,1-1,0.55-2.72,0-3,1.54,1.28-1-1-3-2-3-2l-1-2-2-1h-2s0.13,1.88-1,2-1,0-1,0l-2-1a1.354,1.354,0,0,1,0-2c1.07-.87-0.06-0.93,2-2a13.289,13.289,0,0,0,3-2s0.94,1.86,1-1a24.474,24.474,0,0,0,0-3h0s-3.85.86,1-1,3.75-1.34,5-2-0.05-.34,2-1,2.76,0.26,4-1a10.548,10.548,0,0,1,3-2c1,0-.43.06,2,1a25.216,25.216,0,0,0,3,1c1.63,0.54-.63,1.06,2,1s1.58,0.06,3,0,1.38-.35,3-2,1.98-.35,2-2,0.38-1.55,0-3,0-1,0-1-0.83-2.95-3-2-5,2-5,2l-1,2c-3.4-1.2-4-1-4-1s-1.45-.95-4,0-3.45.65-4,1h0s1.35-.35-1,1-1.05.25-2,1,0.54,1.25-2,1,0.14,0.25-2,0a4.861,4.861,0,0,0-4,1c-1.14.74-1.87,1.26-2,2a1.48,1.48,0,0,1-1,1c-3-1.2-4-1-4-1l-1-4-1-2-4,1h-2a4.819,4.819,0,0,1,0,3c-0.52,1.74,0,2,0,2l-1,1c-1.2,0-2.89.66-3-1s0.31-4.55-1-4a9.716,9.716,0,0,0-3,2c-0.51.54,0.5,0.46-1,2s0.5-.14-1,1-2.1,1.86-3,2a1.365,1.365,0,0,1-1,0s-0.3.07-1,2-1,2-1,2l1,3h-3l-2,2s0.49,0.28-1,1-5-1-5-1,2.08,0.67-1-1-3-2-3-2h0c-1.27.73,0.27,0.27-1,1a14.922,14.922,0,0,1-2,1,16.922,16.922,0,0,0-3,2s-3.34,1.88-5,2-2.75.88-5,2-2.96,2.09-5,3a37.167,37.167,0,0,0-4,2,18.637,18.637,0,0,0-3,2c-0.64.51,2.83-2.1-2,1s-2.17,2.3-4,3-0.18.7-3,2-1.98,1.71-4,3-2.39.71-4,3-0.79,2.11-2,3,0.41,0.52-2,2-3,1.32-4,2-0.8-.48-1,1,0.2,1.92,0,3-0.6.93,0,2-0.59.53,1,2a10.285,10.285,0,0,0,3,2c1,2,1.41,3.74,2,5a5.064,5.064,0,0,0,2,2v5s-1.99-.44-4,3a25.179,25.179,0,0,0-2,4c-0.41.64,1.2-.44-2,2s-2.61.57-5,4-1.01,1.17-2,3-0.61,1.57-2,3a7.75,7.75,0,0,1-3,2c-1.18.62,0.78-2.22-3,1s-3.03,4.18-5,5-2,1-2,1,0.37-.21,0,2S6494,3258,6494,3258Zm128,34a2.867,2.867,0,0,1,0,3,10.42,10.42,0,0,0-1,3c4.61-.28,4.45-0.02,5,0s1.81-1.36,3-2,1-1,1-1-0.14.43,1-1,0.02-.57,1-1,3.2,0.43,6,0,2.08,1.13,3,0,1.59-.78,3-2,2.68-.12,4-2,2.63-1.61,4-3,1-.65,3-2,1.9-.42,3-2,1.09-.88,2-2,4.9-4.37,5-4,0.87,0.47,3,0,1.77-.37,3,0a3.882,3.882,0,0,1,2,1c1.32,0.9,1.42-.02,2,1s4-1,4-1-0.63.82,0-2,1-3,1-3v-1s-1.64,1.62,2,0,2.69-2.1,4-2a10.134,10.134,0,0,0,2,0c0.99-.04-0.11.59,1,0s-0.18,1.2,2-2,0.98-1.68,2-3-0.55-1.14,1-2,0.63-.03,2-1,1.1,0.09,2-1-0.3.77,1-1,1.86,0.84,2-2,0-6,0-6c-5.31-.7-5.85-1.39-6-1s0.8,1.05-1,1-2.11-.65-3,0-4,1-4,1-0.26-.76-2,0a9.765,9.765,0,0,0-2,1c-0.3.18-.17,0.7-1,1s0.23,0.02-1,1-1.37,2.37-2,3-1.14.44-2,2-0.62,2.06-2,3-1.65-.33-2,1a3.624,3.624,0,0,1-2,2s1.66,1.13-1,1-1.8.13-3,0-1.27,1.81-2,0-0.99-.66-1-2,0.01,1.16,0-1,0.01-1.33,0-3,0.99-.37,0-2a7.615,7.615,0,0,0-3-3,14.316,14.316,0,0,0-3-1h-3c-1.35,0-1.39-1.39-2,0s-0.6,1.35-2,2-2.41.51-4,1-0.46-.45-2,1a10.482,10.482,0,0,1-3,2s-1.59-1.08,0,1,1.01,1.22,2,2a5.688,5.688,0,0,0,2,1,1.22,1.22,0,0,1,1,1c0.37,1.01.89,1.03,0,2s0.99-1.06-1,1-1.59,1.38-2,2,0.36-.43-1,1,0.06-.55-1,1-1.54.35-2,2-0.85,1.24-1,2-0.73.68-1,1,0.97-.6,0,0-4,0-4,0a15.76,15.76,0,0,1-1,4c1.82,1.4,2,2,2,2s1.74-.28,0,1,2.21-1.38-2,1l-4,1h-4a0.806,0.806,0,0,1,0,1c-0.4.52-1.04,0.08-1,1S6622,3292,6622,3292Zm-162,132,25,2,4-1,8,3,5,5,7-2,5-3h9l6-2,13,4v4l10,1,6,1,5,4h6l1-3s-1.22-2.77,5-3,8.14-.37,10,0,15,2,15,2l12-6,18-6,9-4h4l4,2,3-6h2l3-2,3-1s2.13,2.66,2,4,1,6,1,6l4,5,4-1h5l3,1,3,3,3,7s-2.84,1.7,2,2,5,0,5,0,1.33-.01,4,0-0.82,2.67,3,0,4-3,4-3l2-2s-0.06.71,2-1a37.776,37.776,0,0,0,4-4l1-2,2-2,4-6-1-2a23.673,23.673,0,0,0-6,1,17.556,17.556,0,0,1-3,1c-2.21.71-6,2-6,2h-3l-2-4,1-5,1-3v-9l6-3,2-3,1-3s5.47-2.37,0-3-11-4-11-4-0.19,2.73,0-2-2.56-3.71,0-6-0.71.36,3-2,3.02-1.56,5-3,3.27-3,5-4a7.684,7.684,0,0,1,2-1s4.36-4.06-3-5-5.29,2.88-9-2-3.11-2.16-4-5-2-6-2-6l2-8,7,2,9-6,10-1s2.92-3.18,3,1-0.6,3.37-1,6,0.1-.56,0,4a44.4,44.4,0,0,0,0,5s-1.02,2.14,3,1,5.9-.49,6-2-2.25-1.81,1-3-0.22,1.26,3-1-0.05.71,5-3,5-4,5-4,0.55,1.06,0-2-1.45.02-1-3a14.821,14.821,0,0,0,0-5,9.472,9.472,0,0,0,2-1,9.472,9.472,0,0,1,2-1s0.64,0.48,3,0-0.51-1.23,3-1a61.028,61.028,0,0,0,7,0s7.86-7.62,1-8-3.58.38-7,0-1.67-.14-7-1-5-1-5-1l-3-1-2-1v-4s0.6,0.69,2-1,0.41-.84,1-2,2.49-1.89,2-3,0-1,0-1,1.07-2.07-1-1a12.161,12.161,0,0,1-5,1c-1.29.37,1.18-1.18-2,0s-4,1-4,1,1.21,1.42,0,2-3.82,1.08-5,0,1.79,3.14-2-1-4.03-3.13-4-4,2-4,2-4,0.1,0.4,1-1,0.55-.23,1-1-3.06,1.54,1-1,4.1-2.36,5-3,1.05-1.33,3-2,0.94-.96,2-1,3,0,3,0h2s-1.27,3.57,2-1,1.99-3.41,3-5,2.07,2.41,2-3,3.57-6.22,0-6-4.04-.4-5,0,0.1,0.31-2,1-1.51-3.3-3,1-0.29,3.83-2,6a13.367,13.367,0,0,0-2,3s-0.08,4.36-1-1-0.35-2.98-1-5-1-2-1-2,0.6-1.98-1-1-2.55.41-3,3,1,1.35,0,4-1.53,1.67-2,4-1.13,1.61-2,4-0.18,2.3-2,4-1.97,1.16-3,3-0.73.85-3,3-2.26,4.71-3,5,1.69-1.23-1,1-3,4-3,4-2.1-1.5-2-2-0.84-1.26,0-3a12.808,12.808,0,0,0,1-4l-5,1a23.19,23.19,0,0,0-4,3,19.862,19.862,0,0,0-2,2c-1.14,1.42.06,0.92-1,2a17.8,17.8,0,0,0-2,2c-2.01,2.21.59,0.87-2,2s-4.98.9-6,0,0.52,1.32-2-2-2.93-1.76-3-3,1.73-.76,0-1-0.06-.87-2,0-1.66.4-3,1,2.71,0.5-3,0-6.79-.39-8-1-2.61.64-2-1,2.63-4.47,3-6,4.21-1.33,1-3,0.18-4.94-4-1-4.5,2.9-6,6-0.1,2.69-2,4-1.68,1.58-4,2-2.73.29-4,1-2.15,2.16-3,3,2,5,2,5-6.12-3.13-9-3,1.38,2.45-6,0-5.7-1.37-7-2,0.83-1.52-3-2-1.77,1.03-4,0-1.87-1.5-5-2-0.48-1.5-3-1-2.26-.87-7,0-1.95.58-5,1-2.34-.63-5,1-3.1,2.9-5,3,0.16-.87-4,1a47.474,47.474,0,0,1-5,3c-1.93.89-4.94,1.63-5,2s0.3,0.87-2,2a9.418,9.418,0,0,0-3,2l-1,2-3,3a45.048,45.048,0,0,0-1,7c-0.03,2.63.03,2.21,0,3s0,4,0,4-0.23,2.95-1,3,0.99-1.93-3,1-3.04,2.29-4,3,1.62-.65-2,1-1.41.35-3,1-1.36,1.35-4,1-4.06-1.79-5,0a13.428,13.428,0,0,0-2,5,27.634,27.634,0,0,1-1,4l-12,1s2.38-4.08-1-1-4.29,2.46-5,5,3,5,3,5,0.74-.15-1,2-2,2-2,2a5.2,5.2,0,0,1-2,1,5.2,5.2,0,0,0-2,1s0.79-1.78,0,1a13.722,13.722,0,0,1-1,3s3.23,0.67-1,1-4,0-4,0,1.86,0.31-2,1,0-.88-3,0-4.34.14-6,1-1.82-.02-3,1-0.16-.77-3,1-0.77-.16-2,1-0.58.9-1,2-0.02-.26-1,1,3.19-.23-2,1-6.93-.85-8,0-2.01,2.18-3,2-1,0-1,0l3,3s-1.69.25,3,3,0.98,2.67,4,3a11.1,11.1,0,0,0,4,0l5,2,3,3s-2.91,1.23-4,1,0.78,0.1-2,1-2.05.71-3,1-2.33-.04-3,1,0.03,0.18-1,1a6.556,6.556,0,0,0-2,2,1.8,1.8,0,0,1-1,1s0.69-.28-1,1-1,1-1,1l-5-4s-0.29-.59-1,0-0.13,1.08-1,2a3.889,3.889,0,0,0-1,2s2.34-.61-1,1-2.28.19-3,1a2.468,2.468,0,0,1-1,1,12.1,12.1,0,0,1-2,1Zm121,96,3-6s0.97-4.18,1-5a4.668,4.668,0,0,1,1-2l2-1a35.221,35.221,0,0,0,3,4c0.63,0.45,7,3,7,3l4-4,5-1,3-5-2-4,3-4,2-3,3-3,3-5s2.39-3.97,4-7a51.148,51.148,0,0,0,3-8l-1-7,2-5,5-5v-4l-2-2a3.9,3.9,0,0,0-3-1c-1.57.32-1.96,0.17-3,2s-1.1,1.29-2,3,0.14,2.02-1,3-0.45.55-1,2-0.63.28-1,2-1,2-1,2h-2l-3-2s2.53,0.4-2-1-5-1-5-1-0.55-.34-2,2a31.872,31.872,0,0,1-2,3s0.27-.49,0,2,0.27,3.45,0,4,0.69-1.03,0,1-1.31,1.5-1,3a8.394,8.394,0,0,1,0,3c-2.89-1.44-3-1-3-1a6.477,6.477,0,0,1-2-2c-0.66-1.18-1-1-1-1-0.82-.21,3.85-2.44-1-1s-5.3.3-6,2a10.762,10.762,0,0,1-3,4,16.742,16.742,0,0,0-2,2,1.638,1.638,0,0,0-1,2c0.35,1.54.47,1.23,0,2s0.12,0.2-1,1-3,2-3,2l-5,1-8-4-14-6-6-3-4-2-2,1-2,3,25,12,10,2,2,2,1,3,2,3,1,1,1,3-2,3-3-1s-1.28-.44-1,1a17.72,17.72,0,0,1,0,4,3.108,3.108,0,0,1,1,3,6.449,6.449,0,0,0,1,4s-1.05,1.81-2,2,0,2,0,2Zm37,53c-1.03-.21-4.68.55-5,1s-2.09,2.92-3,3-1.7-1.46-2,0-1.5-.43,0,1v3h5s0.31,0.46,2,0,2,0,2,0l2-1v-5S6619.03,3573.21,6618,3573Zm1,31s0.58,1.05-1,2a19.468,19.468,0,0,0-3,2c-0.1.2-1.34-4.28-1,1s-0.62,2.02,0,4,1.1,1.95,1,3,0.58,0.52,1,3a17.5,17.5,0,0,0,1,4,6.828,6.828,0,0,0,1,2,3.052,3.052,0,0,0,2,1,29.673,29.673,0,0,1,3,0s-2.07-1.49,1-1,1.13,0.2,3,0,0.89,0.48,2,0,0.12,1.25,2-1-1.4.18,1-2,1.33-1.26,2-2a6.021,6.021,0,0,0,1-3c0.09-.78-0.37-0.18,0-2s-0.58-1.27,1-3,2.14-.06,2-2,0-2,0-2a5.054,5.054,0,0,0-1-2c-0.8-.98,2.26-0.88-1-1s-3.49-.85-4,0,0.3,1.22-1,2a7.772,7.772,0,0,1-3,1c-1.35.34-3-1-3-1s-1.64.26-2-1S6619,3604,6619,3604Zm-34-8c-0.81.99-1.04,1.96-3,3s-3.28.47-4,2,0.11,2.12-1,3,1.6,2.09-1,1a27.65,27.65,0,0,1-4-2c0.41,7.19-.85,3.62,0,6a18.123,18.123,0,0,0,2,4s0.94-1.98,1,0,0.63,1.47,0,2-1.3.37-2,1-0.74.12-1,1-0.57.08,0,2,1.77,0.56,2,2-0.93-.21,0,2,1.28,4.61,2,5-1.21.36,1,1-0.16,2.55,4,0,0.71-3.04,7-3,9-1,9-1-1.45,1.11,2-1,1.31-.23,3-2,0.51,0.12,2-2,0.85-.7,2-3,0.16-.79,1-3,3.23-.2,1-3-2.25-.02-3-3,0.41-2.8-1-4-0.51.03-2-1-0.44-.56-2-1,0.05,0.93-2-1-0.15.7-2-2-0.49-1.64-2-3-0.55-2.09-2-2-1.45-.64-2,0S6585.81,3595,6585,3596Zm14-13c1.24-1.36,7-6,7-6s-1.7-.55,0-3,2-3,2-3l-1-4h-8s1.26,0.16-2,0-5-4-5-4l-1-2s-2.93-.73-3,0-0.54-.05-1,2,0.46,1.54,0,2,1.64,0.02-1,1-2.26.6-3,1a5.76,5.76,0,0,1-3,1,9.384,9.384,0,0,1-2,0,2.37,2.37,0,0,0-2,1c-0.52,1.02-1.06.15-1,1s-1.23.3-1,3-0.23.34,0,2-0.65,2.12,0,3,1.35-.67,1,1-1.23,1.08-1,2-1.88.39-2,1-0.85-.13,0,1,0.66,0.59,2,1,0.31,1.25,2,0,0.37-2.61,2-2,3,1,3,1-1.61.59,1,1-2.55-.55,3,0,5.34,1.45,6,1-1.01.45,1,0,2.12-.16,4-1S6597.76,3584.36,6599,3583Zm-167-64a8.739,8.739,0,0,1,2,3c0.41,1.44,3.42,1.93,0,3s-0.43-.03-3,1,1,5,1,5c-0.24,3.11.85,2.97-1,5s-0.56,3.33-3,4-4.05-.34-6,1a47.669,47.669,0,0,1-6,3c-1.45.74-.4-0.89-2,1s-0.96-1.09-2,1-2,3.28-2,4-1.92-.07,0,2,1.14,1.93,5,2,2.71-.31,4,0,0.07,0.17,2,0,6-2,6-2a16.5,16.5,0,0,0,5,4s-0.65,2.1,1,2-2.52.1,1,0-0.94-2.29,5,0,6.38,1.71,7,2-1.88,2.1,2,0,4-2,4-2a18.881,18.881,0,0,0,2-1c1.95-1.02-2.1,1.17,1-1s6-4,6-4a5.326,5.326,0,0,0,2-2,5.326,5.326,0,0,1,2-2l3-7s-2.07.73,0-1a10.352,10.352,0,0,1,3-2s4.28,1.71,0-2-4-4-4-4,0.6-4.39,1-6,3.43,0,0-2-3-2-3-2-1.74,2.39-3,0-1.78-2.26-2-4,0.7-1.38,0-3-0.34-1.75-1-3a27.508,27.508,0,0,0-2-3l-1-2-6-1s-0.29-.12-1,1,3.25-.32-1,1-6,1-6,1-3.52-.8-4,0a25.882,25.882,0,0,1-3,3c-0.48,1.68-1,3-1,3Z" transform="translate(-760 -359)"/>
    <g id="大北列岛">
      <path id="大北列岛-2" data-name="大北列岛" class="cls-1" d="M5971,3864l-2,2s0.07-.22,0,1-0.96.02,0,1-0.47.93,1,1,3,0,3,0-0.51.31,1,0-0.45,1.34,1,0a11.913,11.913,0,0,0,2-2c0.39-.56.76,0.16,1-1s1.29-1.05,1-2,0.29-.67,0-1,2.45-1.3,0-1-1.08-.3-2,0,0.52-.3-1,0-1.16-.77-2,0a8.579,8.579,0,0,0-1,1Zm-5-19c-0.84-.11-4,2-4,2a3.886,3.886,0,0,1,0,2c-0.22,1.63-3.26-.29,0,1s0.88,0.43,4,1,1.69,2.08,4,1,1.03-.35,2-1,0.58-1.19,2-2-1.46,1.92,2-1,3.12-1.39,4-3a29.153,29.153,0,0,1,2-3c0.29-.49-0.45.84,1-1s2.46-1.5,2-2,3.18-2.09,0-2-1.78-1.03-3,0-0.34-.63-2,1-1.11,1.43-2,2,0.65,0.49-2,1-0.69-.79-2,0-1.75-.01-2,1,0.81,0.42,0,1-5,0-5,0S5966.84,3845.11,5966,3845Zm-36-41c-0.21.26-2.97,3.79-3,4s0.1-.56-1,1-0.74,2.47-2,3-0.67-.23-2,1-1.82.89-2,2-0.95.19,0,3-0.46.44,1,2,0.66,1.78,2,2,0.52,0.37,3,1,1.67,0.71,4,1,1.88-1.23,3,0,0.81,1.26,2,2,0.93,1.19,2,2,1.14-.31,2,1,1,2.33,3,3a34.935,34.935,0,0,0,4,1c0.91,0.23,3.7.03,4-1s4.78,0.2,0-3-3.65-1.1-6-3-1.67-2.69-3-3-2.48-.66-2-1-0.86.03,0-1a11.817,11.817,0,0,0,2-3c0.55-1.23,1.16-.6,1-2s2.14-1.03,0-3-2.35-2.62-3-3,1-.33-1-2a14.885,14.885,0,0,1-2-2,18.92,18.92,0,0,0-2-1S5930.21,3803.74,5930,3804Zm-197,169-9,5-8,3-5,6-1,5s-1.03,1.08-2,2a3.6,3.6,0,0,1-2,1s-5.31.98-5,2-3,11-3,11h-5l-2-3,2-7,1-6,1-6v-3s4.83-3,7-4,5-5,5-5l13-6,10,1Zm146-194s-1.38,4.6-1,6-2.9,3.17,1,3l6-1s0.62-.98,3,0,4.71,0.17,5,1,4,0,4,0l1-3s-0.04-.44,2,0,1.11,0.62,2,1,0.1,2.09,2,1,1.16,0.5,2-1a28.445,28.445,0,0,1,2-3s7.07-2.35,7-4,0-6,0-6l1-2s-3.69-2.36-6-2-1.74-.54-4,0-4,1-4,1-1.41-.86-2,0a10.065,10.065,0,0,0-1,4,4.636,4.636,0,0,1-1,2s-1.46.74-2,1-2.82,1.27-3,1-2.34-.01-3,0a4.814,4.814,0,0,1-2,0c-0.63-.27-4-2-4-2a0.573,0.573,0,0,0-1,0,1.687,1.687,0,0,1-1,1C5880.97,3777.63,5879,3779,5879,3779Zm-139,114c0,1.11,4,8,4,8s0.26-1.1,2,2,0.97,2.66,2,5,1,2,1,2-2.06,0,0,1-0.28,1,2,1,3.48,1.66,5,0a17.4,17.4,0,0,1,2-2s-0.01.64-2-2-0.72.48-2-2a24.8,24.8,0,0,1-2-4c-1.68-3.83.78-.7-1-3s-0.74-.04-2-2-0.72-2.19-2-3a6.725,6.725,0,0,1-2-2h-3S5740,3891.88,5740,3893Zm-27-37,3,1h1a3.137,3.137,0,0,1,1,1c0.24,0.52.47-.95,1,2s1.47,0.5,1,2-0.45-3.25,0,3-0.82.64,0,4,0.07,2.43,1,4,1.2-1.63,3,2-0.07,2.69,4,5,2.09,0.03,4,2-1.42.92,2,2,4.37,1.32,5,0,1-1,1-1h2s-0.06.32,1,0,0.55,1.42,2,0,0.55,1.08,1-1-1-5-1-5,0.21,1.01,0-2a12.32,12.32,0,0,1,0-3c-0.02-1.12.94,0.99,0-2s0.42-2.27-1-3a8.559,8.559,0,0,1-3-2c-1.37-1.31.66,0.97-1-1s-1.23-.74-2-2,0.43-.71-1-2-0.18-.87-2-2,0.56-.13-1-1a13.32,13.32,0,0,0-2-1v-2s3.25-1.36,0-1-2.01-.55-3,0,1.78,4.4-2,1-3.48-2.23-4-3a12.512,12.512,0,0,1-1-2,1.182,1.182,0,0,0-1-1c-0.92-.17-0.68-1.83-2-1s-1.02-.12-2,1a22.786,22.786,0,0,1-2,2Zm-40-32-3,3s2.69,0.69-1,2-2.99-1.74-5,2a26.341,26.341,0,0,0-2,4s-0.91-1.11,0,3,1.95,4.6,3,5,1.94-1.42,5-3,4-2,4-2-1.85,1.45,1-1,2.41-.81,3-2-0.25-1.15,1-2,1-1,1-1,1.72-1.23,2-1,0.59-.76,2-1-0.15.24,1,0-0.1.64,2-1,1.9-.7,2-2a10.2,10.2,0,0,0,0-2s4.35-.86-1-1a31.321,31.321,0,0,1-8-1h-4Zm334,120s-2.76.84-3,2-1.28.85-1,2-0.28-.1,0,1,0.3,0.63,1,2,1.01,0.35,1,1-1.22.4,0,1,1.55,1.12,2,1,3.2-.76,4-2,1.98-1.53,2-2,1.03-.11,1-1-0.06-.85,0-3a7.83,7.83,0,0,0,0-2s-0.57-2.06-2-2a15.852,15.852,0,0,1-2,0Zm20-17c0.49,0.68-.2,2.01,1,3s0.06,0.16,2,1,1.21,0.97,2,1-0.65-.79,3,0,3.5,0.93,4,1,2.28,0.89,3,1,0.15-.68,1,0,1.06,0.28,2,1-0.06,1.56,2,1a14.006,14.006,0,0,0,4-2s-0.42-.24,0-2-0.42-1.39,0-2,0.24-.55,0-2,1.66,1.34,0-1-1.91-3.47-5-3-2.64,1.34-4,1-1.98.34-2,0a12.311,12.311,0,0,0-1-2s2.71-2.06,0-2-2.34-.25-3,0-1.55.9-2,1,0.63,0.19-1,1,0.86,0.63-1,1-2.63-.94-3,0S6026.51,3926.32,6027,3927Zm-6,74a30.793,30.793,0,0,1,1,3,30.793,30.793,0,0,0,1,3l2,2,4-1s0.89-.1,1-2,1.37-.38,0-3-1-3-1-3a11.046,11.046,0,0,0-2,0c-1.35.09,0.09-.09-1,0a12.363,12.363,0,0,1-2,0Zm-9-20s0.33,5.41,0,6,0.4-.38,1,1,1.25-.05,1,2,0.25,1.72,0,3,0,1,0,1-1.47.82,1,1,2.64,0.57,3,0a10.084,10.084,0,0,1,3-3c2.12-1.58,1.28-1.82,2-2s-0.5.86,1-1a7.2,7.2,0,0,1,2-2c0.69-.6,1.37-2.28,2-3s0.48,0.89,1-2,1.48-2.52,1-3a10.812,10.812,0,0,1-1-3s1.43-1.61-2-2-2.49-1.46-4-1a24.9,24.9,0,0,1-4,1c-0.79.05,0.13-1.84-1,0s-1.98,2.52-2,3-0.79.19-1,1S6012,3981,6012,3981Zm129-80,1,6,1,2a15.649,15.649,0,0,1-3,4c-2.23,2.28-3,3-3,3s-2.01-1.14-3,2a24.25,24.25,0,0,1-1,3l-3,3c-3.3-1.47-2.75-.97-5-1s-3,0-3,0-4.5-1.23-7-1a11.884,11.884,0,0,0-4,1s-0.57-1.86-1,4,0.43-.95,0,3,0.43,4.55,0,7,0.24,3.16,1,5a41.453,41.453,0,0,0,2,4c1.46,2.93,2.84,2.44,3,6a9.332,9.332,0,0,0,3,6s2.52,3.91,3,5,1.68,0.59,1,3-0.83,2.29-1,3,0.17,2.96-2,4a14.477,14.477,0,0,0-2,1l-5,9s-6.83,1.83,1,1,8-1,8-1l6-4,4-4,6-8,7-4,11-10,3-6-3-6-2-4,1-2,6-5,4-2-1-4s-2.87-.08-4-1-4-6-4-6l1-2-2-3-10-10Z" transform="translate(-760 -359)"/>
    </g>
    <g id="北麂列岛">
      <path id="北麂列岛-2" data-name="北麂列岛" class="cls-1" d="M6751,3966l5-2a31.432,31.432,0,0,0,3-3c0.65-.91,2-3,2-3s2.99-1.23-1-3-4-2-4-2-0.25-1.04-1,1-0.42,2.55-1,3-1.19,1.2-2,2-0.37,2.26-1,3-1.37-.02-1,2,0,2,0,2h1Zm-196,106c0.37,0.96,0,6,0,6a3.89,3.89,0,0,0,1,1c0.44,0.21,1.06,1.22,2,0s0.88,1.9,1-1a22.407,22.407,0,0,0,0-5c-0.24-1.65-3-2-3-2S6554.63,4071.04,6555,4072Zm127-17c1.04,0.28,3.57,1.54,4,1s0.35-.86,2-4,1.64-1.96,2-3-0.5-.82,1-2a3.306,3.306,0,0,1,2-1,26.357,26.357,0,0,1,4-1c2.83-.61,4.5-2.14,5-2s5-2,5-2c-1.07-1.79.82-.82-3-3s-4-2-4-2h0v-3l-3-3h-5s1.39-.61-2,1-1.18,1.68-3,2-3.15-.46-4,1a9.517,9.517,0,0,1-3,3c-1.07.78-.08-4.14-2,1s-1.9,1.61-2,4,0.28,1.64,0,3,0.1,1.25,0,3a24.285,24.285,0,0,0,0,3,1.843,1.843,0,0,1,2,1,5.721,5.721,0,0,0,2,2A6.843,6.843,0,0,0,6682,4055Zm-98-3a2.865,2.865,0,0,1-1,2c-1.03.93,0.95,0.93-2,2s-5,2-5,2a2.507,2.507,0,0,1,0,2,6.187,6.187,0,0,0,0,3v5s1.06,2.25,2,2,0.6-.53,3-2,0.88,0.72,2-1,1.81-.68,2-2-1.26.18,0-2,0.74,0.32,1-2-0.62-.82,0-3,0.85-1.68,1-3-0.51-1.25,0-2S6584,4052,6584,4052Zm223,45a14.06,14.06,0,0,0-1,3c-0.01.76-1.17,1.05-1,3s-0.17-.41,0,1-0.17,2.84,0,3a1.79,1.79,0,0,0,1,1c0.92,0.43,3.71,1.22,4,1s-0.75.45,0,0,1.15,1.47,2-1,1.04-.95,1-2,3.43-.62,1-2-2-1-2-1-1.22,2.47-1,0-0.22-.14,0-2-0.22-2.28,0-3S6807,4097,6807,4097Zm-5-36h4s2.73-.55,2,2-0.92,1.59-1,3,0.43,1.8,0,3-0.27.83,0,2-3.29,2.45,0,1,1.55-1.04,3-2,2.83-1.08,4-3-0.1-1.62,1-2,5.74-4.48,4,1-0.87,1.73-2,5-0.08,2.43-2,5-2.33,3.34-3,4-2.8,5.18-4,6,1.59-1.93-3,2-4.25,3.02-5,4,0.7,0.84-2,3-2.37,1.61-3,2a4.306,4.306,0,0,1-3,1c-2.05.09-1.72,0.37-2,0s-1.72,3.23-1-2,0.82-.93,1-5,1.12-4.1,1-6-0.69.46,0-2,0.26-1.45,1-3,0.94,0.43,2-3,0.59-3.41,1-4-0.85-.41,1-3a23.786,23.786,0,0,0,2-3Zm27,11-3,4a4.3,4.3,0,0,0-2,3c-0.58,2.35-1.19,1.9-1,3s-4.26.67,0,1a26.163,26.163,0,0,0,6,0,17.826,17.826,0,0,1,3-3,9.776,9.776,0,0,1,2-1s1.19-.47,1,1,0,1,0,1l2,3-2,4-1,5s-3.56-.3-3,1,0.42,1.91,2,3,1.72,0.44,2,1a2.066,2.066,0,0,0,1,1c0.56,0.37-.86,1.17,2,1s2.21,0.17,3,0-0.99,1.79,1,0,2-1,2-1,0.24,0.28,0-2,1.49-1.19-1-4-3-3-3-3c1.98-2.09,2.59-1.42,3-3s1.5-1.29,2-3-0.02-2.08,1-3,0.89-.98,2-2a14.684,14.684,0,0,0,3-3c0.66-1.15,1.45,1.34,1-2s3.71-1.73,0-3-0.46.2-4-1a13.685,13.685,0,0,0-4-1c-1.4-.31-0.76-1.45-3-1s-2.02-.45-3,0-0.58.73-2,1-1.07-.97-2,0,0.77-.83-2,1S6829,4072,6829,4072Zm-43-39,3,3-6,4s0.76-1-2,2-3.89,5.98-5,7-0.67-1.1-2,2,0.08,1.41-1,3-0.51-.31-2,5-0.14,1.21-1,4-0.95,2.94-1,5-0.51,1.38,0,2,2.62,2.68,5,1a10.711,10.711,0,0,1,4-2c1.16-.42-2.07-0.09,4-1s3.14,0.76,6-1a18.271,18.271,0,0,0,3-2s-0.13-.2,2-1,0.76-.08,2-1,0.86-.48,3-2,0.56-.63,2-2,0.89-.4,2-2,1.22-.17,2-2-0.45-1.39,1-3,1.25-.72,2-2-0.24-.49,1-2,1.28-.63,2-2,0.49,0.52,2-2a15.561,15.561,0,0,1,2-3c0.25-.27-0.1-1.14,1-2s-0.59-.02,1-1,1.07-.05,3-2,1.51-1.31,2-2,0.4,2.07,1-2,0.66,0.34,1-4a69.107,69.107,0,0,0,0-9s0.77-1.6,0-2,0.9-.39-3,1-3.73.06-4,1a2.961,2.961,0,0,1-1,2,9,9,0,0,1-1,1l-4,2-5-3-3-5-5,3s-2.13,2.27-2,3a14.382,14.382,0,0,1,0,4c-0.24,1.18.29,2.4-1,3a24.842,24.842,0,0,1-5,1Z" transform="translate(-760 -359)"/>
    </g>
    <path id="南麂列岛" class="cls-1" d="M6379,4630l1,3,2,2v1a7.568,7.568,0,0,1,1,3c0.27,1.93-2.01,1.73,2,4s1.07,1.08,4,2,2.09,0.98,3,1,6-2,6-2l3-1s1.1-.31,1-2a4.011,4.011,0,0,0-1-3c-0.84-1.18-1.16-.28-1-1s1.03-.62,0-3,1.73-1.89-1-3-3-1-3-1-0.47.98-2,0-1.22-.31-3-2,1.46-1.99-2-2-1.68.01-3,0-5,2-5,2Zm42,29-4,3s-0.28-1.04,0,2-3.04,2.47,1,4,3.31,1.93,4,2,5,1,5,1l3,1s1.89,1.76,2,3-1.47-.77,1,3,1.09,3.37,2,4,1.58,0.33,2,2-2.86,1.25,1,2,1.97,1.03,4,1,4,0,4,0a6.359,6.359,0,0,0,2,0,7.335,7.335,0,0,0,4-1,4.266,4.266,0,0,0,2-2,5.572,5.572,0,0,1,1-2c0.94-1.43,1-6,1-6a19.3,19.3,0,0,1,0-4c0.27-.85,2.93-0.12-1-2s-0.71-1.36-4-2-0.11-1.36-3-1-0.56-.58-6,0-3.47,1.42-5,1-0.52.42-2,0,1.21,0.75-1,0a17.92,17.92,0,0,1-4-2l-3-3-3-1Zm50,40s-0.59,2.09,0,3,1.99,3.29,3,3a28.133,28.133,0,0,1,5,0l-2-7h-1Zm-75,1,3,3s0.2-1.79,1,0,1.2,0.92,1,2a3.252,3.252,0,0,0,0,2c0.22,1.13-.91.45,0,1a17.556,17.556,0,0,0,4,1s0.39,0.24,1-1,1-1,1-1,0.73,0.26,0-2-1.27-1.06-1-2-1-2-1-2-1.22-1.81-1-2,2.18-1.24,0-2-0.62-1.33-2-1-2.32-1.35-3,0-0.89,1.71-1,2a2.91,2.91,0,0,0,0,1Zm-36-11c0.1,0.57,5,3,5,3s3.12,3.42,3,4,4,1,4,1l1-1s3.19,0.03,1-2-0.39-.97-3-3-3.13-1.29-3-2,1.03-.3-1-2-2-2-2-2l-3,1S6359.9,4688.43,6360,4689Zm-62-7c-0.41,1.07,1.33,1.68,2,3s0.25,1.14,2,2,1.99,1.14,2,1,1.69,0.91,2,0-0.49.19,0-1,0.37-.25,0-2,0-2,0-2l-3-1-3-2-2,1S6298.41,4680.93,6298,4682Zm12-26v3l2,1s0.02-.19,2-1-0.46-.08,2-1,2-1,2-1,3.85-1.09,1-2-3-1-3-1h-4Zm-57,48-4,3-3,4-2,2s-1.64-1.21,0,1,2,2,2,2-2.13,2.39,2,1,3.27-2.49,4-2,1.18,0.03,3-1a7.967,7.967,0,0,1,2-1s0.5,1.04,1-1,1.38,0.57,1-2,1.22-3.15,0-4S6253,4704,6253,4704Zm-153-91,4,4,6,1,4-2a9.6,9.6,0,0,0,0-3,21.354,21.354,0,0,1,0-4l-7-1-5,1Zm410-75s5.89,1.27,6,2a4.733,4.733,0,0,0,1,3c0.95,0.99,2.48-1.43,1,1s-0.69.27-2,4-0.28,3.46-1,4-2.5-.41-1,2-0.73.98,1,2,3.42,1.35,4,2-0.08,2.9,3,3a35.584,35.584,0,0,0,4,0s-4.61,1.74,1,0,4.35-1.45,6-2,0.69-.84,3-1,1.65,0.16,3,0a31.232,31.232,0,0,1,4,0,10.287,10.287,0,0,0,3,0,10.287,10.287,0,0,1,3,0s1.49,0.07,1-3,4.6,0.53-1-3-5.92-.97-8-5,0.72-1.53-2-4-5.78-3.45-7-5-1-2-1-2,2.57,1.01-3-1-4.8-1.79-6-2-0.08-1.18-4-1-1.43-.58-4,0-3,1-3,1-1.99-.03-2,1A21.17,21.17,0,0,0,6510,4538Zm47,2,5,2,4,2a9.782,9.782,0,0,0,4,1c2.12,0.01,2,0,2,0h9a1.735,1.735,0,0,0,3,0c1.56-2.03,2-2,2-2s8.18,0.95,0-3-6.8-3.44-8-4-0.05-2.99-5-3-3.38.01-6,0-3.1-2.2-5-1-2,1-2,1Zm-108-67s2.63,3.16,3,5,2,1.11,2,3-0.81,2.07,0,3-2.52,1.85,2,2,3.04-.36,5,0a39.948,39.948,0,0,1,4,1c1.42,0.37,2.13,1.83,3,1s0.56-2.49,0-4a10.507,10.507,0,0,0-2-3s-1.48-1.82,1-2,2.1-.23,3,0a22.574,22.574,0,0,0,4,0v-4c-5.5-1.43-6-2-6-2l-3-3v-3c0-2.84.41-.71,0-3s0.04-1.71-1-2,0.74-.12-3,0-3.04-.12-4,0-0.59.66-2,1,0.02-.95-1,0-4,3-4,3l-2,2Zm-112,98,4-3,2-5v-4l7-1,5,4,5,2,4,1h6l2-2,1-5-6-14-7-13,2-3h14l25,16h6v-3l1-1-3-7-6-1-9-10-3-4-4-4-12-7-5-4,1-3,3-2,8,3,11,7,7,10,8,6h10l26,13-2,6h-2v3h4l6,3,1,4,9,7-1,7-2,2,5,4,4,1h7l7-1h5l2,3s0.98,4.8,1,5a9.827,9.827,0,0,0,2,1,6.174,6.174,0,0,0,0,3,20.447,20.447,0,0,0,2,5c0.62,1.03,2.84,1.07,3,2s5,2,5,2v8l8,8,4,8s3.4,2.72,2,5-2,1-2,1l-7-3-2-3s-2.28.49-3,0-5,0-5,0l-2-4-1-4a11.276,11.276,0,0,0-2-3c-1.03-.9-16-14-16-14l-14-12-8-6-3-1-1,2,4,5,1,4s0.91,3.71,1,4,7,7,7,7l4,7-6-1-6-4-14-8-22-11-18-10s-7.83-4.27-13,0c0,0-3.39,5.18,0,14l3,7,1,4,5,6,10,17,1,4a16.358,16.358,0,0,1-13,0l-7-4-1-6-6-6-4-2-4-4-2-5s-3.59.43-5,0a25.545,25.545,0,0,1-4-2l-10-10Z" transform="translate(-760 -359)"/>
    <path id="龙港市" class="cls-1" d="M4726,4316l6-8,3-3-3-6-1-5,2-4,9-5-3-6v-6l-1-2-3-1-5-2-1-3,3-2,6-1,9-2,5,2,5-3-2-8-5-14-9-10-6-2-12-10-11-10-5-8,14,3s16.79-.69,24-4c0,0,18.12-6.44,27,16l6,24s4.07,12.73,15,6l12-7s10.7-5.09,7-21l-10-20v-11l2-6,5-3,4-4,4-3,12-3,11,3,23,9,12-1,5-3s22.01-22.58,25-24c0,0,14.73-6.08,18,3,0,0,18.79,25.98,21,41,0,0,13.56,21.56,38,5l10-3,8-8,15-10,18-9,7-5,4-2,7,3,4-3,2-3,3-1,6,1,2,5,4,1,2,5,6,2s21.67,15.8,24,22l55,38,15,9,25,16-17,16,66,151s-1.4,9.1,11,6c0,0,7.67-1.47,7-11l4,3v9l-6,3-7,1s-4.18,2.05-5,3-6.62,3.58-7,4-2.67.38-5,0a6.283,6.283,0,0,1-3-1s-2.66,1.67-3-2,0.34-3.26,0-4,0.21-3.39,0-4a1.315,1.315,0,0,1,0-1,24.685,24.685,0,0,0-10,0c-4.79,1.19-5,1-5,1l-20,3-6,2-8,8-17,21-1,5,4-1,4-3v-2l7-1,8,1,2,3h3l1-2,4-2s4.83-2.55,5-1a5.257,5.257,0,0,1,0,2h3l1-3,1-2s1.74,0.27,2-1a30.941,30.941,0,0,0,0-5l3-1,6,5,3,1,3-1,2-2,1-2s0.6-.78,4-1-1.29-2.06,4,0,4,1,4,1l9,4a13.3,13.3,0,0,1,3,2c0.65,0.81,3,3,3,3l1,2h-6v6l2,2,1,3-2,2-3,1-5-6-4,1-1,3-6,15-16,8-1,1,5,8-3,8-6,3-4,1-1,2v3l1,3,2,3,1,2,1,4-1,10-3,4h-2l-9-10-4-2-3-1-2,1-2,2-5,4s-5.01,4.16-18,1l-14-3-10,7h-6l-8-9-10-1-19-13-15-1-3-1-2-3-3-5-3-1-9,8-2,7-6,11-3,6-3,3h-5l-11-7h-8l-2,2-2,1-2-2-1-2,2-3v-7l-9-9v-7l3-4s4.58-7.74,16-14h1v-5l-13-8-2-2v-9l3-5,1-4,1-5v-14l1-23-5-1-3-2,6-10,5-6-2-1-2-1-4-2-1-1,4-5-1-2-20,1-3-2-4-5-2-5v-7l-9-1-18,10-7,2h-6l-3-3-2-6-5-5-21-1-5-4v-7l-25,2-18-13-8-1-4-3-3,1v6l-9,8v4l10,16v7s-6.01,7.07-14,7h-9l-6,4v3l3,1-1,8a10.948,10.948,0,0,1-10,7l-6,4v6l1,6,1,5v18l-1,4s-4.15,6.41-10,6l-18-1s-26.09,2.85-45,17l-5-1s-10.23-5.08-12-10l-1-6-5-4-10,4-2-1-4-4v-5l-2-2h-5l-1,2h-8l-7-6-7-12v-3s41.23-27.53,41-39v-4l-4-3-2-3-2-3v-2l1-2,6-2s10.15-3.03,16-11l8-2,2-4-1-6-1-21,2-3,3-1,1-4S4731.34,4316.18,4726,4316Z" transform="translate(-760 -359)"/>
    <path id="形状_7" data-name="形状 7" class="cls-2" d="M4682,5535l-5,5-2,5s-0.96.54,0,2,1,1,1,1l1,3a3.019,3.019,0,0,0-2,2,4.608,4.608,0,0,1-1,2s-1.65.6,0,3,0.23,2.7,2,3,0.76-1.06,3,0,1.45,0.19,2,1,1.15-.63,1,1,1.36,0.94,0,4-1,3-1,3-2.28,1.1-2,3-3.72.63,1,3a18.5,18.5,0,0,0,9,2,2.215,2.215,0,0,1,2-1c1.27,0.16.95,2.56,3,0s2-3,2-3-4.81-4.67,2,0,10,5,10,5h4l15,20,3-4-2-5-5-4s0.82,0.12,0-3,0.63-2.01-1-4-1.46-1.26-2-2,0.47,0.52-2-2-0.48-2.12-2-3,0.09-.4-2-2-0.74-1.23-3-3-0.53,1.58-2-1,0.08-1.91-1-3-0.51,1.93-2-2,1,0.19-1-3a35.291,35.291,0,0,0-2-3,1.914,1.914,0,0,0-1-1s0.97,0.97,0-1a16.8,16.8,0,0,0-1-2c-0.27-.42-2-6-2-6s5.07-.7,0-3-5-2-5-2h-2a19.365,19.365,0,0,1-4-3c-1.17-1.38-1-1-1-1Z" transform="translate(-760 -359)"/>
    <path id="形状_8" data-name="形状 8" class="cls-2" d="M4797,5461s-3,.02-3,1-0.95,2.05-1,3-1.51-.62-1,2,1.05,2.08,1,3-3.27,1.42,1,2,4,1,4,1-0.2,1.55,2,0,1.36-2.19,2-2-0.3,1.57,1-1,0.44-2.91,1-3,1.44,2.28,1-1,0-3,0-3Z" transform="translate(-760 -359)"/>
    <path id="形状_9" data-name="形状 9" class="cls-2" d="M4826,5460s-1.51,4.83-1,6,0.09,3.68,1,5,0.74,0.59,1,1,1,0,1,0,1.86-1.96,2-3-0.58,1.15,0-2,1.69-.41,1-3a12.182,12.182,0,0,0-1-3l-3-1h-1Z" transform="translate(-760 -359)"/>
    <path id="形状_10" data-name="形状 10" class="cls-2" d="M4838,5480s3.9,0.77,4,2-2.73.49,1,3,4,3,4,3a3.623,3.623,0,0,0,1,1c0.65,0.43-.74-0.61,0,0a11.348,11.348,0,0,1,1,1c0.43,0.39,1.65-.4,2,1s-0.53.16,0,1,0,1.07-1,2-0.46.81-3,1-3.11-.19-3,0,0.95-.37-1,0-4.91,1.71-5,2a3.144,3.144,0,0,1-1,2,3.229,3.229,0,0,0-1,2l-1,6-1,5-2,2a0.788,0.788,0,0,0-1,1c0.27,1.23.42-.29,1,2a11.59,11.59,0,0,0,1,3h0l-1,6-4,5s-6.02,2.43-6,3-3,5-3,5l-4,2s-2.47-.23-1,3,3,4,3,4l4,1,1,3-3,4-2,4-2,3,2,6,3,3,2,3,4-2h3s1.9,3.74,2,4a11.838,11.838,0,0,1,1,3,1,1,0,0,0,1,1h5l10,1,4-4,4-9,5-13-3-5-4-5-2-3-2-2-7-1-2,1-2-4,1-3,10-9,6-4,3-3,1-4,1-3,10-5v-3l-4-2h-2l-1-4,1-5-2-5-6-3-5-5-4-1-6-2-4-1v5Z" transform="translate(-760 -359)"/>
    <path id="形状_6" data-name="形状 6" class="cls-2" d="M4659,5524l6,4s2.6,0.91,3,2,6,0,6,0v-3l-4-5-5-2-5-3-2,7" transform="translate(-760 -359)"/>
    <path id="形状_5" data-name="形状 5" class="cls-2" d="M5013,4961l2,3-4,1a10.168,10.168,0,0,0,0,5c0.68,2.86-1.17,1.81,2,5s3.49,5.04,5,6,1.37,2.1,4,2,3.69,3.13,4,0a15.693,15.693,0,0,0,0-5c-0.22-2.52.74,0.28,0-3s-1.05-1.67-1-3a14.523,14.523,0,0,0-1-4v-6s-0.72.2,1-1,2-1,2-1-0.43-1.7,2-1,1.94,0.36,6,1,10,1,10,1,1.36,4.82,1,5,3,3,3,3,3.73,0.76,4,2-2.03,3.7,1,2-1.94-.52,3-2a74.5,74.5,0,0,1,8-2s4.86,0.7,2-2-1.15-.79-3-3-2-2-2-2,1.48-.95-3-1-6,0-6,0l-4-3-2-5s0.23-2.77,1-3a13.948,13.948,0,0,1,3-1c2.48-.59.39,0.57,3-1s3-3,3-3l4-4-1-3h-4l-5-3a1.833,1.833,0,0,1-2,1c-1.58-.13-6,0-6,0l-2-1-3,3-7,10-5,2-3-2v-7l-4,1s-2.96,3.68-3,4-5,3-5,3l-5,3v3Z" transform="translate(-760 -359)"/>
    <path id="形状_4" data-name="形状 4" class="cls-2" d="M4946,5010s-1.49,5.82-2,6,0.3-.21-1,2,0.44,2.15-2,3,1.71,2.46,3,3,4,0,4,0,3.69-2,4-2,3.71-2.21,5-2,2.02,2.78,3,0a17.118,17.118,0,0,0,1-5l-4-5-4-2h-5Z" transform="translate(-760 -359)"/>
    <path id="苍南县" class="cls-1" d="M3562,4236h4l2-6s10.29-11.6,19-4l9,9a41.3,41.3,0,0,0,5-9l5-4,5,1,4-4,4,4-1,2-4,5s-2.65,4.11-1,6l7,11-10,15,23,15s1.73,10.5,9,7l10-9,10-2,11,1,6-9,6,16,8,10,12,6,9,2,9-2,11-2h9s11.21,1.22,12,14v20s1.92,8.37,18,13l10,7s5.86,1.99,11-1c0,0,6.5-4.11,11,0l11,9s3.12,6.98,8,6c0.74,0,5.29,6.82,13-3l7-8s-0.72-6.19-4-8l-5-7,3-4,1-1,3,1,3,2h12l3-4,7-7,6,5,6,3,4,4,4,6-2,9-1,6,1,6,2,2,11,1h17l12-1,8-1s6.86-3.32,9-9l7-7,19,9s6.96-1.99,5-10l-3-12s0.95-8.31,7-6l14,8,8,6s1.44,3.13,11,1l19-2,3-3,6-6,3-2,6,3,10,3s2.85,0.65,4,0,4-5,4-5l2-2,9-1h5l4,1,2,4,1,6,1,5s25.67,16.14,42,21a19.3,19.3,0,0,0,16-3s20.33-6.92,26-13c0,0,5.55,3.23,11,0,0,0,21.35-14.33,32-25h5l14-13,5-7,4-8s15.59-18.14,36-5l11,2,11-2,9-2s9.22-2.72,13-7c0,0,1.09-4.87-1-6l-2-7s3.81-7.63,10-4l9,4s14.91,4.61,21-2c0,0,4.89-8.24,14-6,0,0,10.48-3.95,9-20l7-8,11,1,10-3,16-7,5-2,10,2,5,3,4,3-4,3s0.69,3.93,1,4a3.882,3.882,0,0,1,1,1l1,4,4,1,6-1,9-1,24-9,11-6h7l4-3,3-3,7,5,4,6,3,7s7.55,22.89,12,27l4,6s5.02,6.36,9-1l9-6s13.62-1.11,14,7a39.179,39.179,0,0,1-13,17s-5.91,14.82,10,11l4-7,5,3,5,6,10,7,2,2,4,1,4-2,11-4s25.85-10.42,30-16l3-2v-3a15.97,15.97,0,0,0,2-2,38.414,38.414,0,0,1,3-3s2.41,0.33,3,0,4,1,4,1,0.91,4.67,1,5-0.43,2.82,0,3,2.35,4.54,2,5,1.25,1.19,3,1,6-1,6-1h1l3-5,6,3,12,2,11,2,3,3-2,3-2,4-2,3s-0.09,2.98,0,3,3,2,3,2l6,1,3,1h3s10.73,3,15,6l-1,4-6,3,1,6v14l1,7,1,5-6,1-5,2-8,7-7,3-6,1-2,4,5,7s7.66,2.63,3,11c0,0-12.64,16.65-17,18,0,0-18.46,13.41-24,18l3,6,4,7s5.36,9.34,17,6c0,0,8.84-2.92,6,6l7,5,10-4,5,4v5l2,2,4,5a53.178,53.178,0,0,1,5,3c0.59,0.6,5,2,5,2l6-3,14-7,12-5,14-2h16s11.97,4.1,14-11l1-13-3-19s4.88-5.71,11-6c0,0,7-2.26,6-14,0,0-6.42-3.9,2-7l9-1s14.67,0.77,16-12l-11-19v-3l2-2,2-2h1s1.98-.74,5-5l-1-3,1-2,2-1,2,3,10,1,8,5,10,8,15-1,7-1,2,1,1,4v2l2,3,7,2h17l5,5,2,7,5,3,10-2,4-3,14-7,5-1,4,1,1,5,2,7,3,4,4,4h11l9-1-3,7,5,3h3l-7,12-3,5,3,3h5l-1,26s1.58,17.68-5,24c0,0-5.13,10.18,6,14l8,5s3.77,6.01-2,7c0,0-23.97,16.08-16,25l5,5,2,3,1,5-2,3v4l4,2,3-2s7.74-1.7,8-1,8,4,8,4,3.75,3.01,6,3,5-2,5-2,1.72-3.34,2-4,1.75-4.49,2-5,1-4,1-4l2-2,2-3,1-6,3-3,6-4,3-2,3,4s1.26,3.62,4,5,12,1,12,1l5,1,7,5s7.62,4.3,8,5,4,3,4,3l9,1,6,5,4,5,8-2,4-4,1-2,7,1,14,3,7,1,6-3,4-3,1-2,2-1,3-1,6,2,5,6,3,4s3.55,1.55,4,1,1.75-3.68,2-4,1-7,1-7v-6a2.749,2.749,0,0,1-1-2c0.07-1.13-3-5-3-5l-2-4,2-3,5-2,5-2,3-8s-2.9-4.67-3-5-1-4-1-4l3-2s1.46-.48,3-1,2.33-1.33,4-2,6-3,6-3l4-12,4-6h3s1.54,3.66,2,4,3,2,3,2,0.08-1.26,2-2,5.51-.98,3-4-2.95-1.18-3-3-0.67-1.84,0-3-2.26-1.23,1-2,3.71,0.03,6-1a7.835,7.835,0,0,0,3-2s2.94-1.69,3,0a14.734,14.734,0,0,0,1,4l4,1a7.974,7.974,0,0,0,3,1,7.974,7.974,0,0,1,3,1,5.152,5.152,0,0,1,2,2,21.33,21.33,0,0,0,2,3c0.69,0.83,59,42,59,42l1,4-4,3-36-27-22-15s-6.98,1.49-11-1l-7-4-2,2-5,3-3,3s0.67,2.64,0,4-2.82,4.15-3,5-2.22,1.19-3,3a3.014,3.014,0,0,1-2,2l-3,3,11,5,2,3,4,1s6.45,3.31,6,4,0,6,0,6-2.06,2.12,0,2l4-1,1-3s0.1-2.21,2-1,1.1,0.9,2,2a8.376,8.376,0,0,0,2,2c1.36,1.11-1.7.89,1,1s8,0,8,0l-4,8a4.7,4.7,0,0,0,0,2c0.26,0.82,1.85.06,1,2s-3.8,2.5-4,3-2.81.05,0,1a16.856,16.856,0,0,0,4,1s-2.06.17,1-2,2.94-.48,4-3,0.6-2.7,1-3-1.07.41,0,0,2.26,0.64,3,0,0.59-.58,1-2l6,1s4.33-1.48,4,0-1.45.51-1,2-4.24,1.96,0,2,4,0,4,0l3,1v-1l3-3,4-1,3,2,4,3a12.61,12.61,0,0,0-3,2,34.566,34.566,0,0,1-3,3h-4a18.458,18.458,0,0,0-2,3,9.862,9.862,0,0,1-2,3c-0.31.09-5.56,1.24-6,1a22.117,22.117,0,0,0-4,0v5l-1,1a2.523,2.523,0,0,0-1,2c-0.02,1.35.35,2.31,0,3a28.339,28.339,0,0,0-1,3v8l-4,4-3,1-4,4-4,3v4l-2,4-3,3-4,2h-8l-2,4-4,7-1,4-3,1a12.328,12.328,0,0,0-1,3c-0.25,1.5.11,2.53,0,4s-0.57.89,0,2,0.96,0.35,2,1a14.3,14.3,0,0,0,4,1,1.648,1.648,0,0,1,0,3c-2.28,1.58-.71,1.19-3,2a18.692,18.692,0,0,0-4,2s-0.29,2.55-1,3-3-.64-5,1-1.13,1.13-3,2-2.08,1.13-3,1a43.1,43.1,0,0,1-5-2s0.29-.04,0-1-4,0-4,0l1-8a2.371,2.371,0,0,0,0-3,41.8,41.8,0,0,0-3-3,11.476,11.476,0,0,1-1-1c-0.81-.86-1-2.32-2-2s-2.4-.24-3,1,0.78,1.26-1,2-0.53,1.21-3,2-3,1-3,1l-1,2h-4s-0.14-.53-1,0a5.547,5.547,0,0,0-2,2c-0.63.99-2.14,2.45-2,5s0.68,4.94,0,6-0.08,3.2-1,5-2.04.51-1,3a26.368,26.368,0,0,0,2,4c0.68,1.23-.73-0.23,1,2a14.141,14.141,0,0,1,2,3l2,1,2,2-1,2v3l-1,1s0.58,2.73,1,4-1.11-.14,0,2a33.638,33.638,0,0,1,2,4c0.47,1.29,1.39.03,1,1a7.322,7.322,0,0,0,0,3s1.53,1.84-1,1-2.65-.07-3-1-2.23-1.51-3-3-1-1-1-1a12.018,12.018,0,0,0-1-3,11.673,11.673,0,0,0-2-1l-3,1s-1.34.72-2,1-0.25.49-1,1,0.66,0.89-1,2-3.05.83-4,5a46.111,46.111,0,0,0-1,5l-3,5-4,5h-5l-2,1v5l2,3,1,1h3s0.01,2.08,0,3,0.01,0.76,0,2,0.01,2.3,0,3a1.346,1.346,0,0,0,1,1,24.18,24.18,0,0,0,0,4c0.22,0.35,1,2,1,2l1,3,5,3-5,5-2,3,1,4a4.126,4.126,0,0,0,0,1,28.764,28.764,0,0,0,1,4l-3,5-7,2-4,4s-0.82-.77-1,1-0.5,2.13,0,4-0.28.44,1,3,1,3,1,3l4,1s-1.12-.39,1,1,2.52,2.12,3,1a30.231,30.231,0,0,0,1-3s-0.22.17,1,0,0.18-.02,2,1a6.611,6.611,0,0,0,3,1s3.72,1.07,4,0,3-3,3-3,1.79-1.5,2-3-1.3-2.18,0-3-0.94-2,1-1-1.08-2.01,2,1,3,3,3,3,0.6,3.62,0,4-2,4-2,4-0.31-1.27,0,2-1.67,2.41,0,4a19.367,19.367,0,0,1,3,4v3a33,33,0,0,0-3,3c-0.92,1.16-3.11-.53-4,1s-5,3-5,3l-3,5-3,2h-3a26.464,26.464,0,0,1-4-2c-1.21-.87.08-0.31-2-1s-0.69-1.31-2-1-1.73-.59-2,0,0.32,0.18-1,1-1,1-1,1,0.45,3.26,0,4-1.19,2.8,0,3-1.75-.47,3,0,5,0,5,0a14.124,14.124,0,0,1,3,0,14.994,14.994,0,0,0,5,0c1.87-.35,2,0,2,0a9.343,9.343,0,0,0,3-1c2.2-.99,2-1,2-1s-0.52.45,1-1,1.11-.55,2-1a2.738,2.738,0,0,1,2,0l6,1s-2.97-.6,2,0l4,1,1,4a4.558,4.558,0,0,1-1,2c-0.67.57,0.04,0.61-1,1a56.708,56.708,0,0,1-6,1h-3s-2.39,6.13-2,7,1,3,1,3c6.84,0.27,7.04.22,8,0s0.08-.33,1,0,1.85-1.06,2,1a8.781,8.781,0,0,1,0,2,6.091,6.091,0,0,1-1,3c-0.49,1.03-1.24-.81-1,1s-0.42.28,1,2,2.17,0.5,2,2-0.74,1-1,2-1,3-1,3l-19,2,1,5a26.049,26.049,0,0,1,2,3c0.47,0.99,4,7,4,7a22.627,22.627,0,0,0,2,2c0.62,0.46,3,3,3,3s3.45-.11,3,1-4,4-4,4-2.49-.31-2,1-2.67-.32,0,2,3,3,3,3-0.77-.87,0,1,0.96,1.53,1,3,0,2,0,2l-3,2v5s5.23-1.22,4,0-7,5-7,5a6,6,0,0,1-1,2c-0.89,1.33-1,1-1,1l3,4s5.88,2.56,3,3-2.03.47-3,1,1.76,0.51-2,1-2.87.47-4,0,1.36-.38-2-2-3.49-1.38-5-3,0.79-.74-2-2-1.3-.74-3-1-1.29.54-3,0-2.1.04-3-1-1.6-1.54-2-3,0.68,0.55,0-1-0.37-2.04-1-2-0.09-.04-2,0,0.51,0.65-2,0-3.22.88-3-2,0.6,0.03,0-3-1-3-1-3l-8,6,1,4,2,4s0.81,3.03-1,4a21.482,21.482,0,0,0-4,3c-0.13.16-3.64,4.51-12,5,0,0-12.48,3.21-15-3,0,0-1.31-3.08-8,0,0,0-.88-10.95-7-12l3-11,4-2,4,2a1.961,1.961,0,0,1,1-1c0.89-.53.02,0.17,1-1a16.658,16.658,0,0,1,2-2,4.541,4.541,0,0,1,2-2c1.22-.45,7.47-1.55,4-9,0,0-3.05-10.21-9-13l-6,3h-5l-6,9h-4l-2-2,1-3,2-3s0.66-2.22,1-3a58.963,58.963,0,0,0,1-6s1.26-2.74-1-3-2-.79-5-1a69.28,69.28,0,0,1-7-1l-1-8,5-2-1-4,6,1s1.76,0.84,2,0a21.718,21.718,0,0,0,0-4s2.49-1.55,0-2-3.68-2.32-5-2,0.6-.6-2,0-3.21.31-4,1-3,3-3,3-3.05.12-5,0a9.977,9.977,0,0,0-2,0c-2.41.01-1.13-.56-3,0s-1.81.89-3,1-1,0-1,0a6.555,6.555,0,0,0-3,0c-1.71.38,1.76-.38-1,0s-1.28.17-4,0-3,0-3,0-2.09-1.34-2,0a5.262,5.262,0,0,0,1,3c0.73,1.21,3.35,1.15,3,2s-0.74.96,0,2,0.85,0.23,1,2,1.08,1,0,2,0.36,1.72-2,3,3.3,2.03-5,2-8,0-8,0,0.02,3.39,0,4a14.827,14.827,0,0,0,1,3l-3,1a6.482,6.482,0,0,1-5-1c-2.87-1.7-2.4-1.29-4-3s-2.4-1.74-2-2,0.29-1.23,0-3,0-2,0-2a15.08,15.08,0,0,1-3,0c-1.25-.18-1.52-0.42-2,1s1.57,0.31,0,1,1.68,1.44-2,1a21.14,21.14,0,0,1-5-1h-5l-2-4s3.16-.35,0-2-1.75-1.67-3-2-4.01-1.35-4-2-0.01-.39,0-1,0.26,1.35,0-1,5.05-1.11,0-2-5-1-5-1-0.67-.43-2,1,0.83,0.43-1,1-0.61,3.48-3,1-3.2-1.74-3-3-0.2-.96,0-2,1.3,1.14,0-2,0.39-2.54-1-4-1.92-.62-2-2-0.69-1.48-1-3,3.3-4.38,3-5-1.79-2.32-2-4-0.92-3.36-2-3,1.24,1.96-3,0,1.84,0.42-4-2-5.29-2.35-7-3-0.87-.12-3-1-2.73-2.3-4-2-6.52-3.29-8-3-3.55,1.13-6-1-1.28-.91-2-2-0.87-.04-1-2,6.29-.08,0-3-3.39-3.08-6-3-3.43-.22-5,0-1.56.01-3,1-1.55,1.5-3,2-2.36.41-3,1,1,3,1,3a9.063,9.063,0,0,1-4,0c-2.15-.5-6.24-0.77-7-2s3.97-.4-4-3-6.12-2.71-8-3a8.349,8.349,0,0,1-3-1c-0.93-.38-0.47-2.17-2-1s-0.28,1.01-2,3a21.214,21.214,0,0,1-2,2c-0.4.54,0.45-.18-1,1s-1.46.77-2,2-1.32,2.03-1,3,1.85,1.7,3,4a34.519,34.519,0,0,1,2,4c0.38,1.17-.43.51,1,2s0.93,0.59,2,2,1.65,1.31,3,3a19.792,19.792,0,0,0,3,3c0.95,0.87,1.82.03,2,1s-0.64,1.53,1,2,0.17-1.16,2,0,2,1,2,1,0.76-.21,2,1-0.52,1.84,2,2a11.377,11.377,0,0,0,3,0v2s2.66-.13,0,1-2.38.33-3,1-13,4-13,4l-3-5s-2.02-1.13-2,0-1.97,4.09-2,5-7,13-7,13l10,8,4,5,1,4,1,3,4-2,1-4,1-2,5-4,1-2,3,4s3.62,1.23,4,2,3,1,3,1,3.23,2.01,4,0-2.59-2.81,1-2,4.9,0.05,5,2,0.18-1.06,0,4,0.18,4.07,0,6,2.91,1.33,0,3a28.141,28.141,0,0,0-3,2c-0.73.35,0.34-.13-3,1s-1.38.32-4,1-4.1-.45-5,1-1,7-1,7l7,4,4,4-3,4s-2.06,1.93-3,3-0.23,1.43-1,2-1.95,3.27-3,5-1.21,2.5-4,3-2.48.95-4,1-2.19-.6-5,0-4.27.04-6,1a81.09,81.09,0,0,1-8,3v3a6.693,6.693,0,0,1,1,2c0.34,1.17-3,10-3,10s-11.87,10.78-18,2c0,0,.88-5.92-7-4,0,0-.07,15.34-5,21,0,0-3.5,23.19-9,27h6l4,1,4,2,2,3h4s-2.64,5.3-3,6-1.73.43-2,2-1.18.92-1,2-0.18,2.33,0,3a1.44,1.44,0,0,1,0,1l1,8-4-1a2.845,2.845,0,0,1-2-2,23.321,23.321,0,0,0-1-3s1.66,1.56-1-1-4-3-4-3-4.86-.03-6,0-2.52,1.2-6,0a20.947,20.947,0,0,0-3-1l4,5a5.538,5.538,0,0,1,1,1,5.538,5.538,0,0,0,1,1s1.14-1.19,0,1-0.04,1.4-1,2,1.29,1.67-1,1a24.409,24.409,0,0,1-3-1c-1.34-.49-1.38-0.96-3-1s0.35,0.58-2,0-1.87-1.55-3-1-0.54.22-2,1,1.01,1.3-2,2-3.03-.75-5,1-0.06,3.3-3,3-1.92,1.17-4-1,0-1.24-2-3,1.28-1.36-2-3-3-2-3-2-1.4-2.82-2,0,0.88,0.35,0,2a8.633,8.633,0,0,0-1,3l-8,11,5,3s4.09,2.76,6,3,1.08-2.43,3,0,1.4,2.62,2,3,0.67-.3,2,1-0.26,1.61,3,2,2.06-.8,3,0-0.22-1.12,2,1,1.37,1.06,2,2,1.73,0.32,2,2,0,2,0,2-1.23.41,0,1,2.17,0.45,3,1-1.47-.38,2,2,1.02,1.21,3,2,2,1,2,1l2,1h3a2.53,2.53,0,0,0,1-1c0.13-.49,2.09-1.05,2-2a12.956,12.956,0,0,1,0-2s-1.41.64,0-1,0.04-2.23,1-2,2.53-.86,4-1,2.07,0.42,3,0,0.61-1.17,2-1,4.37,1.28,5,1a2.516,2.516,0,0,1,2,0c0.82,0.27,1.49-.27,3,0s0.8-.27,3,0,4.06,0.69,6,0,2.42-1.17,3-1a1.636,1.636,0,0,0,1,0s-0.64.97,2-1,1.31-1.07,3-2,2.76-2.53,4-2,3.2,3.1,4,4,0.93-.13,1,1,1.02-.41,0,2-0.11,3.9-2,5-2.74,1.39-3,2,0.04,1.7-1,3-1.27,2.51-3,3a5.11,5.11,0,0,1-3,0l4,6s-0.14-1.56,0,2-0.14,3.07,0,4a11.162,11.162,0,0,1,0,3,9.04,9.04,0,0,0,0,2s-1.78.33,0,1,0.7,1.19,5,1a67.773,67.773,0,0,1,7,0h3l3-3,5-3,4-3,3-3,9,1-5,6-4,5s0.74,1.01,6,2a55.009,55.009,0,0,1,8,2,5.177,5.177,0,0,1,4,0c1.83,0.95,2,1,2,1s-1.42,3.29-2,5,0.53,1.08-1,2-11,4-11,4-2.04.16-2,2-0.34,1.46,0,3-0.1-.05,2,3,5.04,0.49,5,2-1.59,7.88-3,8-0.23-.42-3,0-0.57.03-4,0a34.7,34.7,0,0,1-4,0,18.345,18.345,0,0,0-5,0c-1.8.27-.49,0.22-4,1a12.787,12.787,0,0,0-5,2l-8,6-4,5a1.773,1.773,0,0,1,0,2c-0.65,1.26,1.05-1.24-1,4s-2,5-2,5a12.778,12.778,0,0,0-1,2c-0.26.79,5,0,5,0h16l5-3,3-3,4-3h1s4.6,3.32,6,4,2.09-.44,4,2,1.04,0.36,2,2a33.006,33.006,0,0,0,2,3l1,1,10,3s-2.01-.36,2,0,4,0,4,0-0.31-1.06,0,1a17.4,17.4,0,0,1,0,4c0.01,1.22,1.04,2.37,0,3s-0.94,1.67-4,1,0.67-.27-3-1-1.31.08-7-1-4.65.28-6-1,0.05-1.36-2-2-1.2-1.51-2-1-0.79-.02-2,1-1.93,1.03-3,2-2.18.92-2,2,1.02,1.27,0,2a8.363,8.363,0,0,1-3,1l-23,10,1,4a16.99,16.99,0,0,1,3,1c0.98,0.52,3.56,1.37,4,2s0.54,2.17,5,2a27.164,27.164,0,0,1,5,0,6.749,6.749,0,0,1,1,4c-0.34,1.85-1.06.65-1,2a16.546,16.546,0,0,1,0,2l3,5a1.606,1.606,0,0,1-1,2c-1.49.77-1.16,0.48-2,1s1.65,1.78-2,1-0.24-1.22-3-1-1.89,1.18-3,1,0.27-3.28-2,0-2,3-2,3-1.73-.84-1,1-1.39.85,2,3,7.42,0.65,3,2-1.22,2.45-5,1-2.56-.4-4-1-0.31-1.55-2-1-3.19,0-5,2-2,2-2,2-0.54,3.14-1,3,1.32-.42-1,1-5,3-5,3,0.08,0.23-2,0-2.01-1.21-4-2a20.647,20.647,0,0,0-3-1l-1-2-3,2s-0.49-1.22,0,1-0.49,1.52,0,3,1.16,1.71,0,4-0.88,2.55-2,4-1.58,3.05-3,3-5.01.5-6,0,0.3,1.21-2-1-0.95.31-2-2,0.55-.38-1-3,0.26,0.53-2-3-3-4-3-4-23.66-10.37-28,4v5l4,3s2.46-.46,3,1,0.15,2.84,2,2,3.64-.75,5-2,1.79-4.55,3-2,0.18,2.74,1,4,2.54,0.18,1,2-2.51,2.23-3,3a3.405,3.405,0,0,1-2,1l2,6a3.618,3.618,0,0,1,1,3c-0.14,2.05-.61.39,0,4s1.09,1.98,1,4a7.8,7.8,0,0,0,1,4c0.27,0.58.08-.23,1,1s5,2,5,2,4.83,1.51,0,3-6.31,1.6-7,2a5.9,5.9,0,0,1-3,1,68.545,68.545,0,0,1-8,0h-2l-3,1a10.709,10.709,0,0,0-1,2,10.709,10.709,0,0,1-1,2v4s0.88,0.37,0,2-2.11,6.65-3,7-3,1-3,1l2,3,4,3,2,1,2,2s-3.87,5.56-4,6,6,9,6,9l2,2,3,2a7.368,7.368,0,0,1,3,1c1.36,0.87,6,2,6,2s3.17,0.38,4,0,0.36-.42,3-1,3-1,3-1-1.4-.66,1-2,1.94-.06,3-1,1.93-2.61,3-2-2.67-1.81,1,0,2.52,0.98,4,2,2.31,0.28,4,2,0.01-.47,1,1,2,3,2,3a2.414,2.414,0,0,0,1,1c0.55,0.18-.86-0.93,3,0s1.73,0.77,4,1,4.18-3.2,3,1,0.94,2.74-2,7l-4,2-1,1s-0.75-1.22-1,1,0.4,1.83,0,3,0.55-.63,0,2-1,2.31-1,3,3.16-1.2,0,2a38.2,38.2,0,0,1-6,5l-9,1s0.45,0.29-1,1a12.6,12.6,0,0,0-4,4c-0.6,1.07-6.64,4.58-4,12,0,0,14.2,8.04,10,16,0,0-.21,6.55-11,5l-10-4-3-1a9.3,9.3,0,0,1-3,1c-1.56.19,1.73,1.31-3,0s-4.97.37-5-1,2.73-2.38,0-3-3-1-3-1,1.19-2.18-1,0-2.91,2.81-3,4-0.96.9,0,3,0.14,0.7,1,2-0.32-.87,2,3,1.23,1.68,2,3a12.539,12.539,0,0,1,1,2,7.127,7.127,0,0,1,1,2c0.57,1.53,1.42,1.27,1,2s3.28,1.76,0,2a13.514,13.514,0,0,1-4,0c-0.64-.06.39,0.32-2-1s-2-1-2-1-5.84,14.97-15,18c0,0-2.18,5.25,2,7,0,0,10.88.07,4,7l-6,4s-1.61,2.47-2,3-1.31,2.46-1,3-0.42,1.4,1,3a14.28,14.28,0,0,0,2,2s-0.57-.76,1,1,2.82,2.09,4,2,0.26,1.34,2,1,2,0,2,0,1.25-1.42,2,1,0.5,1.48,1,3a5.224,5.224,0,0,0,1,2,1.39,1.39,0,0,0,1,1c0.91,0.33,1,0,1,0l3-1,3-2h2l2,1c1.64,0.82,2.26.42,3,1s1.15-.38,2,1,1.5-.99,2,2a16.553,16.553,0,0,0,1,4s-2.64,3.45-3,4a4.416,4.416,0,0,1-1,1l-2,3-3,2s-1.03-1.02-1,0,2,2,2,2,1.87-1.83,1,1,0.22,2.72-1,3-3.97.47-5,0a4.651,4.651,0,0,0-4,0,27.189,27.189,0,0,0-4,3c-1.91,1.49-1.04,2.1-2,3s-0.94-.25-2,1-1,1-1,1a70.735,70.735,0,0,1-6,4,9.848,9.848,0,0,0-2,1,27.106,27.106,0,0,1-5,2c-2.4.62-.74-0.28-3,1s-1.18,1.22-3,2,0.52,0.47-2,1-1.52,1.47-3,1-0.42-.63-2-1-1.21.93-2-1-0.91-.72-1-2,0.19-1.52-1-2-1.15-1.37-2-1,0.5-.37-1,0,0.51-.37-2,0-1.09-.37-3,0a9.71,9.71,0,0,0-3,1c-1.02.42-.87-0.07-2,1s-1.22,1.92-2,3-1.11.51-2,2a12.985,12.985,0,0,1-3,3l-10,13-5,4,1,7v3l-6,1-5,3-2,3s-0.41-1.76-1,2-1.2,3.4-1,4,1.58,1.61-1,3-4,2-4,2h-2c-0.21,1.26-1.21,1.99-1,3s-0.21,1.63,0,3-0.85,2.42,0,4,1.89,1.9,2,3,0.42,3.22,1,3,2.7,0.01,5,0a21.513,21.513,0,0,0,4,0c4.4-.22,8.65-3.77,6,0a30.748,30.748,0,0,1-3,4s2.48,1.28-3,0-2.21-.72-5-1a11.64,11.64,0,0,0-3,0c-1.05-.07.31-0.14-3,0a12.2,12.2,0,0,0-5,1c-1.25.4,1.87,0.13-2,1s0.82,1.13-3,1-2.71-.93-4,0-0.72.86-3,1,3.11,0.28-2,0-9-7-9-7,2.73-.42-1-4a53.39,53.39,0,0,1-4-4s-0.91-2.53-2-2-1.01,1.37-2,2,0.24,0.53-3,1,0.71,0.37-4,0-4.45-.16-5-1,0.02,0.73-1-1,0.28-.7-1-3,0.33-.55-1-3-1.2-.18-2-3,1.31-21.78-1-27c0,0-4.76-18.9-9-19l2-4-4-3-2-3,1-3a3.26,3.26,0,0,1,3,1,19.968,19.968,0,0,0,4,3l4,2,2-1,2-4s8.07-1.73,8-7l-2-4c0-1.89,1.33-.95-1-3s-2-2-2-2,0.53,0.25-2-2-3-2-3-2-0.47,1.51,0-2,0-4,0-4l3-2,4-4a3.9,3.9,0,0,0,2,0,3.9,3.9,0,0,1,2,0s9.39-6.21,5-9l-2-3v-7s-3.51-6.08-4-7-2.57-3.61-3-5-0.31-3.04-3-4a30.063,30.063,0,0,0-3-1s0.21,1.53-1-1a10.726,10.726,0,0,1-1-5v-3s-3.73-16.14-15-19c0,0-18.01-22.23-20-22a4,4,0,0,0-3,4s2.33,11.7-6,13l-4-2s-6.61-6.23-6,4l3,12,2,8-2,2s-3.72,2.32-4,4-2.47,5.06-4,2-1.84-2.21-2-4-1.21-5.17-1-6-1-4-1-4v-2l-7-2-7-1-7,1-3,2-4,1-2,2a45.235,45.235,0,0,0,1,6c0.78,3.31,1.96,4.91,2,8s-0.04,5.03,0,7,0.38-.38,0,5,1.22,3.36,0,5-5,0-5,0a21.874,21.874,0,0,0-1,4c-0.05,1.22.68,0.69,0,4s-0.27,1.64-1,3a12.645,12.645,0,0,1-3,3s0.67,0.49-2,1-3,1-3,1,0.08,0.8-2-1a8.353,8.353,0,0,1-2-2c-1.13-1.27-.98-0.63-2-2s0.71-1.37-1-2a5.307,5.307,0,0,1-2-1h-3l-2,1-1,2v3l2,1a34.968,34.968,0,0,1,0,5h-1s-2.15,2.5-2,3-1.83-1.12,0,2,1.75,2.25,2,3,3,1,3,1,0.76-.28,1,1,0.18-.01,0,2a17.559,17.559,0,0,1-1,6,22.163,22.163,0,0,0-1,4,4.353,4.353,0,0,0,0,2s2.29-.62,3,1,1.6,1.33,2,2-0.71-.77,1,1,2,2,2,2-4.96-.92,0,1c0,0-.96,1.55,2,3s4,2,4,2l3,1s2.05,2.62,3,4,2.64,0.62,4,3,10,14,10,14,5.59,0.93,1,8l-3,6,4,4-2,4-5,8-7,1-7-2h-6l-14-16-17-31s2.05-8.11-25-16l-3-3s0.09-6.28,0-8-1-7-1-7a20.519,20.519,0,0,0-2-7c-1.93-4.33-6-12-6-12l-6-16s-4.58-33.8,8-43l16-22s11.27-8.35-9-21c0,0-33.14-23.37-39-24,0,0-4.52-14.26,7-21l17-10,8-3,6-4,8-3,5,1,9,3,8,7,4,2,6-1,7-3s11.66-11.67,10-14l-7-16-8-14-19-5-8-4-5-4-11-15-8-8-4-6-3-7,4-6,4-11v-10l-10-16-12-20-13-15-14-7-8-2-20-40-10-13-13-12-19-15-26-31-4-2h-9l-4-8,1-8,8-4,5-6-2-14-12-12-13-14a19.965,19.965,0,0,1,2-21l13-39s3.06-22.98-15-41c0,0-10.85-17.41-34-5,0,0-27.31,8.46-39-13l6-8s3.41-2.32,4-4,3.09,0.41,1-4-0.23-3.7-2-5-8-4-8-4l-7,2-3,4-14,30s-10.18,23.93-35,10c0,0-24.44-9.95-36,0,0,0-1.87,10.46-22,21,0,0-7.19,10.08-17,2l-10-12-7-15s-1.23-25.86-21-37c0,0-12.43-9.24,1-25,0,0,15.16-10.02,12-34,0,0-1.05-28.75-25-36l-9-8h-5l-2,3h-1l-1-5v-3l-2-2-2-6-2-3-2-3v-9l1-3-2-3-2-1h-4l-1,1-3,1-4-2-3-1-3-7v-5l-3-2-2-3-3-4s-7.38-.46-10,2c0,0-19.13,14.32-33-3l-4-3s-0.57-3.95-7,0l-1,1-4,1v-2l-3-2s-3.77-13.27-17-16h-8s-9.22,1.27-9,9v8s-3.1,4.12-5,4l-2-2-1-2-1-15s-1.88-6.17-6-8l1-5,7-5,1-1,1-2,3-2,2-4v-3h-9l-6,1h-6s-15.22-3.68-18-11l-4-6s-3.66-4.52-8,0l-4,4s-4.5,3.92-9-3l-5-12-3-3a24.443,24.443,0,0,0-7,1s-5.31.89-5,6l1,3,1,2,3,1,2,4,1,5-1,4s-0.87,5.26-9,5c0,0-6.92-.99-8-10l-2-7-1-5-1-4,4-3s6.71-9.6-3-16l-21-21v-15s-3.29-11.23-10-6l-3,2-3,1h-14s-2.87.6-6,1h-4v-4l1-5,1-8s5.3-11.96-8-13h-20l-5,1-11,2s-4.06-1.67-1-6l12-20s6.57-8.76-7-9l-55,2s-12.23,1.14-8-12c0,0,7.14-7.47,1-9h-5l-4,2s-15.27,3.44-17-9a23.141,23.141,0,0,0-13-5v-15s-0.64-8.9-11-12l-9-6-1-7s-0.86-7.9-19-6l-4,3s-40.97-4.05-46-25c0,0,14.34-23.38,4-38,0,0-3.15-11.92,5-16l4,1h15l2,3h4Z" transform="translate(-760 -359)"/>
    <path id="泰顺县" class="cls-1" d="M2679,3457s-12.81,30.2-39,33c0,0-13.84,4.2-6,16,0,0,4.34,11.38-3,15,0,0-21.52,24-34,33,0,0-12.3,18.73-11,27,0,0-1.85,6.8-10,4,0,0-6.81-9.47-22-5l-6,6-3,14s0.23,4.57-5,5l-3,3-14,5-5,1-13,8-13-4-18,7-23,11s-20.98,5.2-27,31c0,0-2.57,14.63-2,18,0,0,1.24,5.14-4,9,0,0-25.89,32.91-47,39,0,0-22.09,2.52-34,19,0,0-3.96,6.7-3,14l5,37s9.86,9.3,16,10l2,10s-1.49,5.42-12,9c0,0-10.86,1.68-11,6l-6,10-4,15-5,12s-4.44,8.11-10,11l-10,7s21.02,9.06,23,18c0,0,4.52,15.11-6,23,0,0-8.73,10.71-1,26a65.35,65.35,0,0,0,17,26s3.15,10.88-4,16l-17,22-33,16s-11.94,4.75-10,14l4,27,5,7,2,12s-5.89,26.61,4,35c0,0,3.55,15.52-1,25,0,0,10.05,15.43,28,16l18,4,19,1,22,4,23,5,14,4s8.95,1.44,5,11c0,0-12.07,16.27-15,27l-5,17-10,12v5s-17.64,16.15-16,28c0,0,3.24,22.64,23,21,0,0,52.64-22.35,65,7,0,0,9.14,17.61,24,24,0,0,6.77,12.45,8,21,0,0-.36,11.55,14,16l8,10-6,16-11,12s-6.8,13.92,4,17c0,0,8.85,1.51,14,12v14s-4.56,12.05-14,17c0,0-3.93,3.62,5,7l7,6s0.21,4.51-3,7l-5,14s-12.23,17.55,0,29c0,0,5.74,8.08-10,35l-1,11-6,8-9,10-6,8-9,6-14,3s-13.2-1.01-10,17a38.3,38.3,0,0,0,19,26l11,4,6,5,9,6,7,7s4.66,7.99,1,22l5,5,5,4,3,10,2,9,6,14,18,1,17,6,6,6,6,5,4,10,6,6,12,8,12,11,3,20s-1.6,6.05,4,6h14l7,16-11,16-2,9,5,6,4,4,3,5,1,5,1,7,3,5,3,4,6,3,12,4,12,4,22,4,1,20,1,16,2,6,10,7,15,1,8,2s11.85,3.99,4,25c0,0-7.54,17.6-19,19l-4-4-9-5s-12.18-3.4-7,9c0,0,7.54,8.63,3,18l-4,9s-2.15,2.15,4,6l35,11s13.26,6.63,11-5c0,0,3.51-18.1,13-17,0,0,30.84,10.79,44,20,0,0,17.43,11.82,24,18,0,0,8.18,3.85,17-4l34-5,10,7h14s9.84-7.21,6-18l-19-4s-17.13-9.85-10-21l21-27s10.4-6.46,25,5c0,0,9.45,19.18,38,17l20,3s1.93,5.74-5,7c0,0-15.74,11.49-15,16,0,0,21.62,2.38,26,12,0,0,16.51,18.79,19,0l14-4,6,1,8-8,11-4,6-3,20-19s18.64-9.46,32,3c0,0,8.95,18.99,22,9,0,0,32.42-16.48,62-3,0,0,15.98,13.29,13-8,0,0-1.38-19.48-17-21,0,0-14.94-7.37-11-24l-1-13,11-12s14.5,0.38,14-8c0,0,6.09-2.98,6-15,0,0-3.47-9.32,19-18,0,0,41.73-26.98,13-27,0,0-30.94,7.46-6-14,0,0,39.14-28.18,82-21,0,0,5.08-53.69,51-14l16,13,10,22,6,7,6,10,16,13,13,20-8,17s-3.69,10.53,15,4c0,0,15.26-6.92,24,6,0,0,32.15,17.52,35-3,0,0-1.93-29.04,20-20,0,0,19.57,16.4,12-17,0,0-1.63-19.29,24-24,0,0,16.89-7.9,12-23,0,0,18.05-16.77,59-31,0,0,17.73-.97,10-19,0,0-22.12-32.22,15-41,0,0,7.88-6.54,34-4l18-1,11,10s3.33,12.46,16,3c0,0,16.79-11.03,13-25,0,0,10.79-22.53-8-21,0,0-15.12-2.47-8-25,0,0,2.63-22.32,29-21l21-1,11-2,6-2,9-3s18.03-5.26,34,2l27,8s7.08,3.44,16-1c0,0,21.47-18.17,28-18,0,0,18.8,6.76,27-3,0,0,11.12-8.65,18,13,0,0-1.67,21.39,18,16l13-2s4.06,1.48,13-10l13-11,15-7s21.01-1.01,26-7c0,0,16.56-13.7,17-25,0,0,1.81-4.44,0-8,0,0-3.24-6.51-5-11l-3-6-1-6,2-3-2-5-6-1-3,2-4-1-4-2-2-6-2-4,1-2-2-1-3-2-1-3s-1.45-5.11-10-2c0,0-15.97,13.42-30,3l-8-7s-2.22-5.56-8,0c0,0-5.74,2.07-7-3l-5-8s-7.14-10.27-23-7c0,0-7.74.17-7,10,0,0,.86,7.69-4,10,0,0-3.6.27-4-7l-1-10-1-5-4-4-1-3,2-4,6-4,2-3,4-4,1-2-1-3h-3l-3,1h-3l-2,1-9-1-11-3-9-10-3-5h-4l-4,2-2,3-3,1s-1.47.59-2,0a21.483,21.483,0,0,0-3-2l-3-5-1-3-2-3-1-3-2-2-3-1h-4l-3,1s-2.08,2.07-2,3a18.269,18.269,0,0,1-1,4s0.6,3.79,2,4,3,2,3,2l2,3v2l1,4v4a1.964,1.964,0,0,0-2,1,5.954,5.954,0,0,1-2,2c-0.44.34,2.95,0.73-2,1s-4.73.97-6,0-3-2-3-2v-1l-4-4v-3l-1-7-2-2,1-8,3-2s5.66-7.39,0-13c0,0-21.01-20.58-21-22l-3-3s0.75-15.1-3-19c0,0-2.81-4.29-7-1,0,0-3.43,4.72-9,3,0,0-14.63-.01-18,2,0,0-4.63-.1-4-4l2-10,2-9s-0.68-9.87-9-8h-22l-6,2-7,1s-6.98.76-2-7l13-21s3.53-8.18-11-7l-32,1h-9l-14,1-6-3v-9l3-3,1-4-2-1-4-1-5,3h-7l-6-2-4-4v-4l-4-3-9-2v-7s4.7-14.58-12-20l-9-6s3.94-10.62-8-13c0,0-8.81-1.81-12,1,0,0,2.04,4.45-6,1,0,0-31.83-3.12-40-17l-4-7,3-5,2-5,1-2,1-4,2-3v-10l-2-4-2-5-1-3v-2l2-7,2-3-6-4-9-3-10-3-16-9-3-3-5-4-5-1-4-4v-8l2-12v-11l-1-6-5-5-4-3-10,2-11,4s-10.63.97-11,2-6-3-6-3l-5-4-9-9-10-6-13-4s-7.37,1.86-9,0c0,0-7.54-3.32-2-11l5-21,3-7,8-17s2.89-7.87-4-9l-20-10s-6.08-2.01-5-8c0,0-1.28-13.64-7-11l-7,5-3,3s-5.14-3.25-11-7l-16-12-4-5-7-2-8,4-5,1-4-2-5-7-1-8,1-5,1-5,4-3v-5l-1-27,1-12s4.19-11.19,12-8c0,0,11.62-2.39,15-12l-3-6-1-3,3-1h4v2l3-3-4-7,3-8v-25l-3-3h-7l-5-1,2-8,6-1,9-1,2-4-1-3-3-4-12-1-4-3-3-3-3-4-4-5,3-8,4-6,2-4-1-3-2-4-15-9-16-10-7-3-10-1-8,3-4,3-2,4-2,7v5l2,10v2l-1,4-4,5-10,3-9,1-5-3-3-1-11,3-9,4-9,4-7,3-10-4-3-1-10-12-7-8-4-1-4,1-9,8-4,5-5,14-7,6h-18l-8,3-4,4-4,4v9l-4,5-4-3-4-4-4-4-10-12h-3l-2,9-3,5-1,3-12-6-13-10-3-4-2-8-6-8v-14l-4-4-7-8-9-10-3-5,1-6-1-4,2-3,5-5,5-4-2-7-7-5-2-7,1-5,10-29-1-5-2-5-8-5-10,5-5-3-7-6-4-4,5-7v-7l-7-5-7-3-8-6-3-5-4,1h-12l-3-6-2-7-4-5-3-4-1-4-1-4-4-3-4-2h-9l-11-5-4-8-7-1h-9l-6-3-1-3,2-3,5-9,2-10,5-11s8.46-16.57,3-31c0,0-3.72-22.94-8-28,0,0-1.68-17.39,6-26l3-19s-1-19.67-26-21l-15-2-16-9-15-1s-20.37-1.08-24,4c0,0-7.51,1.61-20,43l-10,21-2,3-4-2-2-21-2-6-9-6-3-1-7,4s-20.6,5.79-25,1l-6-8-1-7-1-7v-7l-3-4Z" transform="translate(-760 -359)"/>
    <path id="文成县" class="cls-1" d="M2725,3487s7.24-5.92,7-12v-7l3-10v-4l-3-5-9-8-3-4v-21l4-6,4-4,5-4,4-2,11-7s2.68-3.87-4-10l-6-5-6-7s-5.05-3.8-3-14c0,0,.4-13.56-2-17,0,0-4.05-6.85,0-12l5-10,3-3,3-6v-7l-1-4-3-5-4-8-3-6s-3.02-9.41,11-14c0,0,16.05-15.07,19-28l3-14,1-7,1-4,11-7,3-3-2-3-8-10-3-9-1-5-3-10-3-5s-1.07-3.94-5,0c0,0-14.71,5.42-17-3,0,0-5.52-2.16-3-19,0,0,.75-18.95,17-25,0,0,24.01-11.12,25-18l1-6,1-3,4-5s8.08-4.44,15,2c0,0,22.37,13.7,31,27,0,0,15.49,12.18,28,12,0,0,12.22,4.28,16-2v-5l1-5,3-6,5-10s12.77-25.06,25-31a18.6,18.6,0,0,0,17-5s-2.03-13.72-11-16l-10-7s-25.12-19.52-26-24l-6-5s-6.88-8.91,3-17c0,0,8.7-13.54,23-18l4-2,16-1s5.84-.08,8-3c0,0,3.03-2.18,4,1l10,9,7,15,5,6,4,6s7.98,1.2,7-13l-3-4s-4-14.89,0-27c0,0,4.61-23.43,29-29,0,0,9.02,1.6,12,9,0,0,29.32,39.89,33,49l6,7h5l11-2,8-2,18-2,10-6,8-6,6-8s6.9-8.13,11-10l5-1,7-1,3-2,3-3-2-6,1-5,3-3a28.453,28.453,0,0,1,13-3,186.6,186.6,0,0,1,27-7s31.82-1.86,46,0a5.38,5.38,0,0,0,4-6l4-4,3-1,4,3,5,7v3l2,6,2,4,5,6,2,9v4l-1,8s-6.55,26.47-13,32c0,0-7.3,12.17-4,19,0,0,8.56,13.84,11,16,0,0,1.81,4.26,13,2,0,0,32.53,1.33,49-2,0,0,43.55-4.42,50-13,0,0-1.73-7.68,0-10l1-4,2-1h3l5,1,4,5,10,11s8.68,21.49,43,8l6-2,5-2,3-3,4-4v-8l2-2s4.32-5.04,11-4c0,0,37.45-2.21,50-2,0,0,21.99-2.99,26-12l7-12s1.3-6.49-4-9l-7-8s-1.59-3.6,2-10c0,0,13.96-24.9,30-27,0,0,6.32.37,5,8,0,0-3.11,13.78,9,15,0,0,20.88,1.04,22-8l-3-10a7.754,7.754,0,0,1,5-7l14-9,11-6,13-3s59.03-12.93,84,3l13,11s5.45,3.65,13,0l18-10,4-3s6.78-3.32,12,1l14,7s4.62,2.35,9-5l4-8s2.83-5.74,10-1l7,3,13,13,7,8,5,8,3,3,2,8-2,5-5,8-4,3s-1.91,5.19,0,10l6,14s2.32,12.56,13,15c0,0,14.96,2.81,21,9,0,0,6.35,2.67,8,9l2,4,2,6,4,4,4,5,13,7,11,3,8,2,26,2h12l4,3,12,4,9,3,4,1a10.224,10.224,0,0,1-2,6l-5,7v3l1,3,4,6,2,4,1,2v13s0.51,1.95-3,2l-10,2,5,9s2.94,33.07-7,46l7,8,5,10-3,12s-3.02,5.73-2,11c0,0-1.66,5.44-9,4l-5-4s-5.17-1.25-8,1l-9,8-6,5-4-1h-8s-2.64,4.84-2,9v13l-2,5-5,5-4,1-3-1-3-1h-5l-3,2-11,8-4,4-1,3-4,3h-3a22.818,22.818,0,0,1-6,0,16.274,16.274,0,0,1-4-1l-4,1v3l1,8,4,4,21,26,2,5v4l-2,5,2,11,1,2s0.76,7.98-5,10l-1,12,1,11,1,2,1,6-1,5-9,11-10,9-4,4-5,1h-3l-4,2,1,3-3,9-1,18-2,4-3,5-6,3-8,2-5,3-2,2-3,2-2,6,1,2,1,9s7.68,7.98,18,11c0,0,9.49,1.66,14,1l6,4,3,4,4,5,8,6,11,3,13,2,5,3v4l-2,4-6,7-4,3-5,3-1,1,4,4,3,2,6,1,9-2,10,3,10,5,7,8v4l3,7s-0.8,2.71,8,6a13.692,13.692,0,0,1,7,9,3.548,3.548,0,0,1-2,5l-8,8s-3.95,3.97,1,5l23,12,20,9,14,12,8,6,7,8,5,9a56.971,56.971,0,0,0,6,1c0.65-.11,4,0,4,0l6,3,5,1,6,3,7,6,4,4v9l-2,2h-4l-5,2-2,3-4,5-1,5,2,3h-12l-10,1-4,5-4,4-2,5s1.02,0.65,0,2-2,3-2,3l-4,2-5,3-6,3-7,4v3l2,7,1,5v5l-3,3-3,1-1,2a20.938,20.938,0,0,0-4,1c-0.79.47,0.12,0.86-1,1s-2.03,1.35-3,2-4,3-4,3l-1,4-1,4-4,9-1,8-1,3-10,6-11-2-5-2-6-1-6,6a11.862,11.862,0,0,0-4,4c-2.14,3.12-2.86,1.54-4,4a39.289,39.289,0,0,1-4,6s-3.13,7.03-9,3l-9-7-7-2-4,3-3,5-1,5-4,2-3,2-5,5-4,2-5,1-3,1h-6l-3,1-1,3-8,7h-29l-4-4-4-4s-0.33-3.2-1-4-3-5-3-5l-2-3h-3l-2,4-8,9-4,3-6,5-2,2h-7l-2-2s1.3,0.09-2,0-7,0-7,0l-3,1-6,3-6,3a55.8,55.8,0,0,1-5,4c-1.55.94-3,2-3,2h-4l-3-3s-3.91-2.43-5-3a27.424,27.424,0,0,1-5-4c-0.94-1.09-6-6-6-6l-8-10-7-2-5,2a7.119,7.119,0,0,0-2,3c-0.36,1.55-1,4-1,4a5.574,5.574,0,0,0-1,3c-0.03,1.73,0,6,0,6l1,2-9,9-4,2-5,5-6,4s-1.24,6.64,0,11l1,20,8,7,7,5s3.56,3,1,10l-4,9-2,3-1,6s-1.26,2.62-1,4-0.59,2.94-1,4a26.389,26.389,0,0,1-3,4l-4,2-6,2-7-1-9-1-1,4s-4.18,10.09-11,9a7.79,7.79,0,0,0-1,8l3,8v5l1,7v4l-1,4s-7.19,5.78-7,9c0,0,.26,6.25,9,9,0,0-2.11,11.16-5,16,0,0-1.48,14.95,5,17,0,0,15.29,9.4,20,15a10.552,10.552,0,0,0,7,5s7.29,2.02,3,8c0,0-5.06,6.49-2,12a16.182,16.182,0,0,1,2,16s0.15,6.62-6,4l-12-9-2-3-3,1-2,5v5l3,6,4,1,1,5-4,3s-9.69,8.56-26,6c0,0-9.74-.99-6,6a30.534,30.534,0,0,0,3,12l2,6v3l-3,2-8,8v4l-2,3-3,2-10,2h-7l-4-2h-27l-8-3-3-2-5,3-1,5,1,5a13.235,13.235,0,0,1,1,4,25.68,25.68,0,0,0,1,5l2,12,1,7h4l4,5v4l2,2-2,2-4,1-5-3a6.752,6.752,0,0,0-3,0c-1.34.4-8,0-8,0l-7-1-4-1-5-3-4-1-4-1-4-2-4-1-5-3-7-4s-6.95-1.97-8-6c0,0-4.1-4.09-8-4l-6-4,1-11,1-23s-5.01-9.95-10-11c0,0-4.89.43-8,1,0,0-14.71,6.32-24,6h-4s-17.01-16.73-23-19c0,0-11.68-5.61-19-6h-6l-4-4,2-6,3-12v-5l3-8s9.61-19.86,11-21c0,0,1.58-8.38-5-10l-23-11s-2.21-3.67-2-6c0,0,.01-11.81-7-11l-10,8-33-24s-2.97-2.59-8-1c0,0-4.11,4.03-9,3h-3l-3-2s-5.74-4.52-4-14l1-9,5-4-2-41,2-5,3-4,3-2h9l3-2,3-3,5-6-1-3-3-7,3-2,3,1,1,2,3-2-1-4-3-4,3-8v-25s-0.31-3.15-5-3h-9l-1-3,1-5,3-2,12-1s5.08-2.08,2-8a7.378,7.378,0,0,0-6-4h-8l-2-1-3-3-9-9v-6l2-4,4-6,2-4-1-5-2-2-14-8-16-10s-6.88-4.14-12-5h-8l-6,3-4,3-3,4-1,6v12l1,6s1.6,14.42-24,12l-3-2-2-1h-4l-5,2-5,1-4,2-3,1-5,2-4,2-2,1-4,2h-5s-14.65-3.31-20-18l-9-8h-3l-3,1-6,5-2,3-3,3-3,2-1,4-1,3-1,3-1,5-3,2a3.805,3.805,0,0,0-1,1,17.266,17.266,0,0,1-2,2l-8,1h-10s-13.24,3.13-18,11v9l-3,4-3-1-4-5-8-7-5-7-3-2h-2l-1,1v6l-5,10-15-9-10-8-2-2-2-2v-6l-3-5-4-4v-14l-7-7-12-14-3-5v-12l11-11-2-7-6-5-2-4v-7l8-22,2-9-1-5-2-4-4-3-3-2h-4l-7,5-15-13,1-4,4-4-1-7-8-5-5-2-5-3-5-5-2-3h-17l-3-9-2-6-6-6-2-8-6-5-14-1-10-7-2-5-17-1-5-4v-3l7-11,1-9,7-16,3-7v-17l-5-19-4-11v-17l7-15,1-14v-5s-5.85-10.96-18-15l-24-4-15-8-28-2s-14.89,3.58-18,13c0,0-22.14,57.93-25,59l-4-2-1-15S2743.32,3492.05,2725,3487Z" transform="translate(-760 -359)"/>
    <path id="瑞安县" class="cls-1" d="M3999,3061s21.01,4.08,32-11c0,0,4.05-9.99,6-12,0,0-.8-7.9,4-8a17.461,17.461,0,0,0,7-18s-3.29-23.7,0-31c0,0-.44-23.41,12-31,0,0,17.61-8.48,23,6,0,0-4.3,22.38,14,23,0,0,30.64,3.29,40-11a23.812,23.812,0,0,1,4-13s1.05-11.6,15-15c0,0,13.74-4.03,17-18a23.991,23.991,0,0,1,26-9h41s10.26-7.66,27-2c0,0,12.41,1.14,12,24,0,0,5.85,9.4,19,5,0,0,21.06-4.82,23-13l-1-17s0.25-4.88,6-7l8-5,7-6-1-4v-4l2-1,3,1,18,9,4,2,6-3s10.78-1.39,13,3l22,4s22.33,0.86,29,5l18,8,18,10,7,10,2,11s8.2,12.36,16,15l4,1,15,21,2,2,4-2,1-4,2-19s-2.17-5.24,4-6l8,2,11-3,9-2s7.07-2.57,10,2l9,7s6.64,2.95,9-5c0,0,1.82.62,9-18,0,0,5.36-4.19,17,2,0,0,10.07,6.75,14-4,0,0,1.67-11.25,11-11,0,0,5.82-.92,10,9,0,0,6.79,6.76,11,7a9.681,9.681,0,0,1,11,4s5.25,11.03,13,14l65-1s13.07-1.76,12,14l-7,9,1,6,4,6,13,1s5.61,1.33,1,6l-7,10s-6.06,5.79,1,9l10,8s6.56,4.22-5,14l-36,14s-15.96,6.18-2,18c0,0,17.36-4.92,35-3,0,0,20.94,1.59,31,18l10,4s-1.27,18.57-2,24c0,0-.38,17.35,16,10,0,0,32.26-5.51,40,6l8,10h5l9,1s11.25,1.4,2,9l-16,10-1,3,6,4,7,3,6,3h17l2,1h5l8,10,13,2,7-6,4-6,7-4,9-8,4-4,4-3,18,8s21.12,14.14,50,7l-3-8,4-7,3-5,4-3,5-3,2,4v4l-3,7s-0.02,8.52,9,16c0,0,20.24,21.93,40,25,0,0,7.31,6.01,0,9l-9,6v13s25.78,11.97,28,24a31.97,31.97,0,0,1-2,30s-25.36,24.58-16,41c0,0,4.15,3.79,10-1,0,0,45.79-34.73,64-20l14,13,5,8s17.93,16.43,32-1c0,0,16.86-15.53,41,2,0,0,22.07.78,24-12l-1-13,4-3,2-3-9-14-2-8,8-3,5,11,18-10,5,1,6,3,8,1,7-4-1-8,3-3s27.04-4.01,35-11c0,0,29.88-5.49,40-3,0,0,4.31,4.42-3,5,0,0-30.59,4.57-29,10,0,0,.89,6.92,29,5,0,0,25.96-1.72,34-3,0,0,21.97-.55,46,24a44.281,44.281,0,0,0,2,19s12.71,18.91,16,24c0,0-19.31,21.72-19,24l-2,9s-23.76,14.4-12,42c0,0,4.49,8.71,25,26l15,20s16.24,2.96,25,17c0,0,19.45,25.16,21,29l-6,1-6,11-3,7-9,17-19,36-16,33-20,39-25,44-2,2s32.52,21.57,34,25l4,3-3,8-4,4-7,10-14,11-12,7-17,11-21,14-4,3-14,8-20-7-23-10-5-7-8-1-48,49,30,30,7,11-2,8-10,39-24-15s-27.85-18.25-37-21c0,0-46.65-21.14-47-23l-10-9s-3.12-1.31-10,0l-16-3s-15.97-13.67-22-16c0,0-15.25,1.34-14,11,0,0,7.69,7.9,5,14l-10,2s-20.03-20.42-29-14l-2,8s-4.5,4.47-7-3a25.62,25.62,0,0,0-16-10s-16.97-5.08-11-20c0,0,.21-18.5,12-23,0,0,1.05-3.51,3-11,0,0-2.2-18.12,11-19l12-18-1-2-15-20-9-10-4-6-7-6-1-3-1-11-2-3-5-3-14-7-4-10-8-11-12-11s-5.13-4.75-10,0l-8,15-5,2-5,4-1,6-16,7-23-27s-20.04-28.79-35-28c0,0-13.06-1.61-28,9,0,0-14.14,10.8-16,17,0,0-8.12,8.39-14,8,0,0-6.8,2.03-15,13l-6,13-11,15-3,5-2,6,1,5,1,3-4,4-6,5s-7.01,9.16-7,17c0,0-.11,14.08-15,17l-8,2-5,1-4,3s-2,15.28-8,14c0,0-13.81-13.16-24-12,0,0-8.89.02-11,17,0,0-1.79,12.24-2,21l4,10-1,9s-8.43,7.28-3,25l-5,13s-9.06,16.83-12,30c0,0-4.04,9.08-12,7a4.886,4.886,0,0,0-7,0l-2,2,2,4,1,2-3,2s-34.08,20.37-51,20c0,0-19.86-11.16-26-45,0,0-7.56-6.28-13-8,0,0-22.3-11.4-28-16,0,0-18.81-3.16-34-16a6.652,6.652,0,0,0-3,7l1,12s-3.25,4.17-7,2c0,0-15.09-14.14-28-7l-4,8s12.69,12.41,12,14l-2,2h-9s-9.73-2.28-10-5c0,0-13.57-28.32-23-33,0,0-12.79-6.02-13-14,0,0,7.47-16.01-1-19,0,0-12.01-6.07-17-8l-4-6v-3l8-3,4-3-1-16-3-4-5-9-9-5-9-2-21-15h-8l-13,4h-16l-17-18s-13.65,3.63-20,4l-1-1-2-5-1-12s-10.74-13.98-25-19c0,0-15.09-28.4-26-32l-7,6,2,21s-6.28,11.83-17,19c0,0-13.49,5.51-16,5v-2h-3l-7-6-6,5,3,9,2,11,4,7s6.56,7.33,4,19c0,0-7.12,9.16-13,12l-19-17-4-5-8-9-10-14s-3.72-6.86-15-11l-10-7a5.871,5.871,0,0,0-6-1l-9,4s-0.52,3.14,1,4l2,11s-14.43,10.2-32,13c0,0-15.43,5.17-19,13l-13,9h-3a122.381,122.381,0,0,0-11-8l-1-21-4-4-1-3v-4l7-8,10-2v-11s-14.18-16.93-37-18c0,0-12.3-20.2-20-22l-3-3-7-5-4-4-10-5-21-11-14-7-1-3,11-11v-3s-3.19-8.11-10-10c0,0-6.85-3.36-7-10l-1-6a36.17,36.17,0,0,0-30-15h-12s-7.36-3.96-7-7c0,0,14.87-6.9,18-17,0,0,1.67-6.05-6-7,0,0-19.9-2.54-24-6l-9-7-9-10-3-1-13-1s-16.42-4.65-18-13l-1-12s3.57-8.06,15-11c0,0,11.15.48,16-14v-18l4-8-1-4,9-1s20.71-16.06,25-24l1-3-3-32,6-8-2-18,1-4v-8l-27-31-1-12,16,1,2-1,4-4s10.88-14.03,21-15c0,0,2.7-.93,8,2l5-1,6-7v-21l2-4,13,1,13-13s9.19-2.85,13,2l2,2,6-2,2-4,5-21s-5.32-14.2-12-18c0,0,16.59-33.29,2-56l13-2v-16s-7.1-12.85-9-14l2-4S3999.91,3063.95,3999,3061Z" transform="translate(-760 -359)"/>
    <path id="瓯海区" class="cls-1" d="M4341,2883s-35.85-5.14-43-16c0,0-4.21-4.49,0-11l9-20s12.56-20.96,16-36a20.529,20.529,0,0,1,6-12s15.23-29.88,8-50c0,0-3.86-17.77-7-24,0,0-2.23-23.19,5-35,0,0,5.86-10.16,17-6,0,0,37.76,13.4,59-14,0,0,2.71-10.05,0-19,0,0-18-34.71-24-39l-10-11s-4-5.6,0-9l6-6,4-3-2-5s-1.22-5.29-15-6c0,0-9.28.58-8-9,0,0-3.16-7.58,1-11l8-9s4.81-4.72,9,5c0,0,4.12,11.84,9,15,0,0,6.68,10.21,17-1,0,0,6.45-1.04,7-10,0,0,9.06-11.47,19-8,0,0,15.6,8.78,28,1l15-13,4,4,4-3,5,7s3.95,2.87,2,15c0,0-1.8,6.07,2,10,0,0,20.73,18.37,23,25,0,0,7.81,9.08,13,10,0,0,14.74,3.36,18-7l4-8s3.23-2.21,9,0c0,0,5.05-1.57,7,6l-6,8s-4.5,8.28,2,15c0,0,9.33,10.27,3,22l-4,31-4,26,14,11,11-4s14.15-1.35,22,4c0,0,20.72,11.82,21,0,0,0,2.02-16.8,12-16,0,0,7.37-1.12,10-4l20-17s10.05-6.54,19,7c0,0,15.56,37.03,36,41l23,1h17l13,4,7,5s1.77,4.68-4,7c0,0-12.6,20.41-9,28,0,0,25.4-1.09,40-9,0,0,9.04-5.47,12-14,0,0,11.2-3.78,9,6,0,0-2.31,20.72,11,19,0,0,12.14-4.56,13,6,0,0,4.66,13.71,14,4l10-5,11-7s13.82,3.45,20-7c0,0,12.21-13.65,24-2,0,0,27.21,36.85,28,45l1,9,21,6,19,7,8,8,10,16,7,9,16,2,9-1,25-5,17,14,12,2,10-2,11-6,8-5,7-5s9.57-9.49,10-21c0,0,9.36-11.52,16-2l2,6,1,31-2,33s-1.52,18.28,12,23l14,14,6,2,5,2,6,1,10-3,18-4,13-3h21l17-1,1,9,17,1,22,1,20-1,8-9,8-16,3,2,10-1v6l7-5,8,3,16,16,4,4v5l1,12,3,2v24l-5,9-9,15-3,7-3,6v11l15,8,5,13,18,8,1,9s27.48-5.69,34-4l12,14-1,6-8,10,7,1,3,9-11,9h-7l-5,3v13l9,8-2,18,9,4s12.47,6.42,9,15l-2,8v14l-1,24s-5.14,5.41-11,5h-2v2l-1,2s12.5,7.12,16,7l2-1,2-2,5,2,2,6,2,5,2,5-1,5-3,2-4,1-8,2s-9.67,2.25-14,2c0,0-20.18-17.27-23-25,0,0,7.11-.83,7-4v-3a77.918,77.918,0,0,0-28-4s-6.65,1.96-10,4l3,1,2,2,3,1s25.16,16.51,28,26c0,0-3.55,11.27-6,12l-1,4s-35.9,3.98-44,3c0,0-15.81.93-18-5l1-2s16.12-8.35,31-8l1-2v-3l-3-1h-7l-29,3a76.77,76.77,0,0,1-37,11,4.708,4.708,0,0,0-3,5l1,7s-8.87,6.66-17,2l-4-2-3-1h-2l-7,4s-8.49,3.04-9,6l-2-1-2-5-3-5-8,2v3l2,7,7,11,2,2-6,6v16s-9.77,12.31-24,8a34.561,34.561,0,0,0-36-4s-16.19,18.36-30,8c0,0-4.64-.74-11-11,0,0-14.75-19.86-26-17h-8s-28.55,9.96-40,20c0,0-10.39,10.57-14,3,0,0-9.79-9.6,11-35,0,0,18.71-12.67,4-42,0,0-15.97-13-25-17v-13l12-8v-3s-1.13-4.51-7-4c0,0-33.5-15.22-45-37v-6l2-3,1-6-2-4-6,4-3,2-4,7-3,6,3,7s-21.56,11.11-67-15l-22,18h-2l-12,13-13-2-8-10-25-2s-15.93-4.54-18-11c0,0,19.08-12.55,21-14l-1-4s-11.6-4.05-20-4c0,0-7.46-18.56-30-16,0,0-19.3-.56-24,3,0,0-7.97,1.43-9-12l1-24-8-4s-13.88-27.92-67-15c0,0-10.18-8.77-3-15,0,0,41.18-16.45,46-22l2-8-16-12s5.52-10.97,12-18l-1-3-4-1-9-1-4-3-2-5v-5l6-7v-8l-6-7h-30l-42,1s-11.07-8.06-13-16a8.243,8.243,0,0,0-5-3l-8,1-14-15-8-1s-5.62,2.38-6,8c0,0-1.8,10.12-10,9a133.714,133.714,0,0,1-13-5h-8s-11.6,26.91-17,24c0,0-6-1.53-14-10,0,0-17.67,2.82-27,6l-4-1-5-2-4,4-2,26-4,2-16-22-6-2-12-11-3-4-1-10s-7.98-14.25-21-18c0,0-22.06-13.3-45-16l-29-4-3-3h-12l-5,3-17-9Z" transform="translate(-760 -359)"/>
    <path id="永嘉县" class="cls-1" d="M5580,2803l-39-17-33-11s-28.02-9.39-39-3l-13-1-10,5-7,1h-10l-13-4-7-4-12-5-17-6-26-2-25,5-11-8-8-3-24,1-58-3-35-9s-26.51.06-30,4c0,0-57.08,15.77-83,0,0,0-29.65-13.08-28-53l-4-43,5-18s17.49-21.65,2-50v-9l-4-16-7-6-5-17-7-13-10-10s-14.08-18.37-45-5c0,0-27.8,12.35-30-12l-4-60s8.77-36.08-35-33l-39,1-22,3-15,7-21,5s-52.65,4.07-64-22l-16-12h-27l-38-3-5-15,2-8s-26.65-11.22-31-20c0,0-34.65-30.5-57-13l-7,12-16,5-11,1,1-10s-1.37-22.07-17-29c0,0-16.65-18.5-2-32l26-15,13-1,6-3,1-10s-6.8-26.36-21-35l-24-3s-12.37-4.07-6-22c0,0,14.2-18.07-15-33,0,0-22.94-5.93-1-16,0,0,29.77-2.64,31,17,0,0,10.49,12.93,14,3,0,0,13.2-43.34,44-61,0,0,1.16-29.02-16-36,0,0-28.06-6.76-33-27,0,0,5.07-20.23,15-29,0,0,3.93-7.47-2-19l-30-95s-7.2-16.38-19-21c0,0-21.52-1.14-29-17,0,0-5.61-13.97-27-18,0,0-33-3.5-47-20,0,0-2.07-2.57,0-13l2-5-1-5-3-4-8-2h-8l-13,2h-14l-13-3-9-3s-12.94-2.3-3-8l26-16,4-7,1-31,3-7,1-10-5-12s-14.18-22.66-42-23c0,0-23.65-6.38-26-19,0,0-10.26-15.94,10-38l18-24s5.5-5.6-5-7c0,0-21.86-2.12-24-17l-4-25s-4.97-5.56,6-7l10-7v-11l-3-14s0.92-25.53,21-33c0,0,17.25,2.27,29,8,0,0,24.8-.07,31,19,0,0,2.89,22.09,17,28,0,0,10.58,10.01,15,2l3-19,4-14,5-30s0.07-10.89-8-14c0,0-25.52-28.72-16-46,0,0,1.15-10.55,28-22,0,0,9.39-4.65,5-16,0,0-.33-37.51,4-41,0,0,4.27-16.47,10-6,0,0,8.41,31.37,19,40,0,0,15.99-.97,17-24l-7-10s-4.3-13.38,11-14c0,0,30.65-4.42,41-33,0,0-13.33-40.81-6-62,0,0,5.1-25.32,20-32l-2-9-3-6s-2.24-22.97,14-28c0,0,25.21-1.98,19-32,0,0-9.65-11.81,4-29,0,0,6.86-7.15-3-18,0,0-17.25-15.9,5-42,0,0,4.71-4.84,16-5,0,0,7.99-2.46,5-9,0,0-3.06-25.319,26-26l37-3s16.18-6.608,24-4a10.983,10.983,0,0,1,9,9l9,8h10a6.37,6.37,0,0,0,4-8s2.13-5.151,7-1c0,0,20.92,6.25,45,53l-3,13s-2.49,16.67,35,19c0,0,23.56-5.47,41,19l9,11,22,9,8,6,7,13,18,17,18-5,19,16,15-9,15-7,11-3,12,10,12,10s47.82-12.05,107-8c0,0,15.39-7.66,14-15,0,0,1.69-33.85-8-40,0,0-13.12-4.21-5-24l17-16s4.67-2.96,14,4l20,12h6l12-10a8.483,8.483,0,0,0,2-9s-2.01-16.61-21-38c0,0-10.33-7.658,3-12,0,0,17.66-.971,25-11,0,0,6.83-10.837,23-5l25,11,46-1s12.53-.852,13-6V957s-1.19-7.747,14,0c0,0,12.99,7.179,17-10a47.448,47.448,0,0,0,2-42l17-19s9.85-5.611,18,3c0,0,28.98,34.046,63,6,0,0,18.52-23.179,48,0l16,15a23.209,23.209,0,0,1-1,16s-1.26,21.611,7,23c0,0,35.05-7.24,43,6h13s15.62-9.568,21,3c0,0,0,21.175,16,15l13-10s15.68-8.4,13,9l-7,22s2.34,20.71,35,23c0,0,39.36,3.24,45,22l14,37,13,8,12,12s6.88,12.92-10,35c0,0-6.37,6.44-11,6,0,0-19.07,33.73,17,48,0,0,9.16,8.44,20,10,0,0,28.16-12.79,38,11,0,0-7.2,40.96,17,56a52.814,52.814,0,0,0,39,14s19.05-4.48,27,8l6,7h8l33-12,12-6,3-9,6-10,6-6,10-4s10.61-5.13,14-15c0,0,7.93-16.68,32-7,0,0,34.1,8.02,48,17,0,0,14.34-.82,9-14l-5-7s-3.04-4.59,5-8c0,0,9.27-7.94,19-4,0,0,5.02,2.15,1,9,0,0-12.88,46.47-5,53,0,0,14.71,17.26,16,19l-2,4,6,8h7l4,1,5,4v3l-8,8v4l8,12v7l-9,14v5l21,1,3,1,4,5,3,26,8,19v10l-22,27h-6l-5-4h-9a19.892,19.892,0,0,0-10,7l-10,12-10,15,1,14,6,6h14l3,3v6l-21,32v7l4,7,6,5h16s11.71,5.11,14,10l2-2,5-4,12-1,2-2h11l5,7v11a154.29,154.29,0,0,1-17,24l-1,2v4l9,8v4s-7.39,6.49-10,7h-10l-8,3-2,2s-6.39,25.02-30,21h-2l-2,3-1,11-4,10,1,9,4,3,8,1s17.68,4.68,10,19l-29,52s-10.82,8.78-27-1h-12s-10.85,1.4-6,13l3,5v4l-3,3-2,1h-13s-32.29,4.48-40,11l-4-2-7-6s2.67-11.92,5-12l-1-15-9-10-8-1-6-2-17-3h-3s-5.16,4.47-10,5h-10l-10,7v4l-9,8-10,9-2,3v7l3,7-4,4-5,1-6,2-6,3,1,2,3,2v3l-2,1-1,1-4,4v8l6,5h4l13-9,3-1,4,7s-0.21,11.74,5,16l4,6,7,6,7,5,4,4s5.16,3.74,2,17l-11,14-2,4,1,4,3,4-1,9v5l3,2s9.79-3.13,16-2l2,1,1,2v4s-9.19,20.01-8,23l2,25,1,7,5,10,1,24s1.6,21.18-21,33l-34,13-9,8v24s1.07,8.2,9,10c0,0,5.39-3.59,15-15l6-1,11,9h7l21-4h4l2,6-15,9-4,7s-2.76,44.42-1,52l1,4-5,3-9,1s-34.94,14-37,17l-13,8,1,34-6,3s-43.98,5.38-50,18v3l6,5,13-2s7.54,1.17,7,12c0,0-18.91,18.06-19,27,0,0-9.48,16.47-18,21l-1,3-2,14s-3.36,7.1-11,5c0,0-19.31-9.01-26,7,0,0-5.16,11.17-6,20,0,0,9.41,7.21,9,12l-1,4a211.594,211.594,0,0,1-21,10v4l8,11-1,5-6,5-7,10,5,24-13,12-6,1s-20.52,18.56-25,31l-2,35v8s-3.41,6.43-14,6c0,0-.57,29.14-11,32,0,0,3.87,28.33,15,31a17.755,17.755,0,0,0,10-9h13l18,17-34,4s-12.4,6.97-12,12c0,0,16.83,32.16-12,56,0,0,.63,8.29-9,15,0,0-2.84,23.99-9,28l-1,3,3,6s-11.81,10.25-12,14l-1,21-4,7s-23.7,6.44-29,20Z" transform="translate(-760 -359)"/>
    <path id="鹿城区" class="cls-1" d="M4542,2339s-42.21-.1-43,6c0,0-22.6,2.17-38,4l-21,25-2,7,2,5,22,13,36,19,6,8-4,13,6,13,7,4,5,8-4,11s-14.08,21.69-39,46l4,4,4-3,6,8s3.5,8.2,1,21c0,0,27.48,27.86,30,34,0,0,11.97,9.79,23,1,0,0,5.45-6.75,7-12h13l3,4-1,3-6,8v9l8,12v6l-2,9-2,14-2,17-4,24,1,3,12,10,6-1,4-3s12.59-1.82,20,1l11,6,8,2,5-2,3-9,1-4,2-3,5-3,6-1,5-2,10-9,9-7,5-3h6l7,5,8,13,10,15s10.13,12.99,19,16l44,1,10,3,6,4,2,5-1,3s-12.53,11.47-13,29c0,0,43.32.39,53-23h7l3,3,1,16,5,6h12l4,2,2,4s1.34,7.07,4,7h5l6-4,7-4,11-7h12l5-3,4-4,8-6,9-1,7,5s25.22,33.73,27,41l3,14s39.33,8.1,44,16l21,29s11.12,6.85,49-4c0,0,19.09,22.69,38,14l19-10,7-5s11.98-10.78,10-21c0,0,11.94-16.75,18,1,0,0,2.8,38.77,0,74,0,0,1.53,8.85,15,18l9,10,8,3,9,2,10-2s18.24-3.12,35-7l35-1,2,9,59,1s15.01-15.29,32-61c0,0,7.99-4.23,22,5l19-2,5-4,1-5,6-8a3.68,3.68,0,0,1,4,3c0.65,3.34,6,16,6,16s3.42,0.47,8,6l5,6s7.09,0.51,9,9l6-5,5-6,7,3,13,9,19,13,23,18,12,2,18,3s16.78,4.68,33-1a69.414,69.414,0,0,0,38-23l-9-8-8-6-6-8-6-11-6-21s-6.26-19.21-25-41c0,0-81.52-42.28-113-33-8.97.34-13-1-13-1l-6,3a31.029,31.029,0,0,1-26,1l-6-1-10-5-25-10s-25.89-6.4-54,2c0,0-8.99-8.3-19-11l-74-1s-36.89-8.38-47-10c0,0-25.37.57-28,5,0,0-80.62,21.78-98-17,0,0-10.22-3.13-12-47l-3-33,5-18s11.43-10.12,8-36l-5-13-1-15-3-2v-9l-9-5s-0.13-24.29-23-43c0,0-16.33-15.51-47-2,0,0-23.14,10.55-26-13l-4-73s-3.8-23.15-32-20l-39,1-13,1-12,3s-62.02,28.87-97-6l-17-16-67-4s-7.44-17.83-3-23l-11-5-10-6s-10.46-6.89-11-10c0,0-23.86-18.93-44-17,0,0-9.07-1.96-19,16C4568,2332,4551.92,2340.13,4542,2339Z" transform="translate(-760 -359)"/>
    <text id="泰顺县-2" data-name="泰顺县" class="cls-4" x="2117.92" y="4032.624">泰顺县</text>
    <text id="文成县-3" data-name="文成县" class="cls-4" x="2535.921" y="3138.622">文成县</text>
    <text id="平阳县-2" data-name="平阳县" class="cls-4" x="3570.919" y="3675.625">平阳县</text>
    <text id="龙港市-2" data-name="龙港市" class="cls-4" x="4108.917" y="3962.623">龙港市</text>
    <text id="苍南县-2" data-name="苍南县" class="cls-4" x="3705.923" y="4368.622">苍南县</text>
    <text id="瑞安县-2" data-name="瑞安县" class="cls-4" x="3774.918" y="3064.618">瑞安市</text>
    <text id="瓯海区-2" data-name="瓯海区" class="cls-4" x="4097.921" y="2626.618">瓯海区</text>
<!--    <text id="经济开发区" class="cls-4" x="4771.925" y="2997.624">经济开发区</text>-->
    <text id="龙湾区" class="cls-4" x="4900.92" y="2900.619">龙湾区</text>
    <text id="洞头区-2" data-name="洞头区" class="cls-4" x="5772.921" y="3032.624">洞头区</text>
    <text id="乐清市-2" data-name="乐清市" class="cls-4" x="5302.916" y="2061.619">乐清市</text>
    <text id="鹿城区-2" data-name="鹿城区" class="cls-4" x="3996.919" y="2241.621">鹿城区</text>
    <text id="永嘉县-2" data-name="永嘉县" class="cls-4" x="4411.923" y="1382.62">永嘉县</text>
  </g>
</svg>
