<svg xmlns="http://www.w3.org/2000/svg" viewBox="550 150 2000 2050">
  <defs>
    <style>

      .cls-1, .cls-10, .cls-11, .cls-2, .cls-3, .cls-4, .cls-5, .cls-6, .cls-7, .cls-8, .cls-9 {
        stroke: #303254;
        stroke-width: 1px;
        stroke: #9d9d9d;
        stroke-width: 1px;
        fill-rule: evenodd;
    fill: #e5e5e5;
    fill-opacity: 0.35;
      }
      .cls-12 {
        font-size: 35px;
    fill: #fff;
    font-weight: 700;
    text-anchor: middle;
    font-family: "Microsoft YaHei UI";
      }
    </style>
  </defs>
  <path id="形状_1" data-name="形状 1" class="cls-1" d="M712,744s8.86-5.706,23-5l10,9,1,2v4l1,8,12,7s7.894,1,10-10v-8l8-9h5l7,6v3l-1,4v7s1.2,6.151,5,6c0,0,2.308-2.954,4-3a3.885,3.885,0,0,1,4,2l2,2,4-1,2-4,5-6,4-4s5.41-3.637,7-2v3l-2,2v5l1,3,2,2,2-2,2-1h9l4,6,2,5,3,4v4l-1,2-3,6,1,5s1.276,5.457,5,7h4l7,6,7,2,7,11,2,6v4l-1,3-3,3-1,14-2,4v2s3.58,7.651,5,9l-9,1a6.062,6.062,0,0,0-4,5l-1,3-1,5,1,1,15,10,19,8,8,4v4l2,3,2-2,1-4,2-2,9,3,10,3,4,1h6l2-1-1-10h5l9,2,3,4,9-4,5-2,1-5-7-6v-3l3-2,3-3v3l1,3,2,2h3l4-3,4-5,3-5h2l3,4,16,1,4,1,1,2-6,7-8,8-2,4-1,14,2,2h3l6-1h11l4,2,3,1h4l7-2,3,6,1,9-2,4-1,3v4l5,8,7,10v4l-1,5-2,4,1,2,2-1,18-6h4l14,5,14,3,15,1,5,3,6,7,2,3v7l1,10-1,7-5,5-10,9-7,7-2,6-1,1-3,1-4,2-4,2-2,4-1,4-1,4-1,2-10,7-2,4-1,5,1,5,1,4,2,4,3,1h16s24.03,1.5,24,22l2,3h5v8l4,3-4,5,1,2,2,2,9,1,4,3v6l-7,5-11,1h-7l-3,1-12,12-13,6-16,6h-6l-8-5-4-2-12,13-8-1-5-1h-3l-13,3-16,7-11,5-8,3-19,1-1,1v2l1,3v2s-9.4,10.39-18,11h-4s-5.317,8.55-8,9l-4-2s-3.891-1.33-5,1c0,0-3.288,6.1-6,7l-3,1h-8l-4,1-4,1-12,4-4,2h-6s-7.575,2.54-9,5l-9,8-4,1-6,6h-4l-4-2-2-1-1-7-1-7,1-5-1-6s-0.087-24.69-20-28a22.166,22.166,0,0,0-13-3s-13.649-2.18-17-13c0,0-3.374-17.12-21-21l-29-3s-15.1,2.95-26-17c0,0-5.4-7.46,1-21,0,0,1.765-10.38-9-9,0,0-23.021.92-34,5,0,0-12.5,2.1-17-5,0,0-14.56-8.83-17-10,0,0-3.925-.14,0-3,0,0,17.763-7.47,23-11,0,0,15.391-8.28,15-25l-3-22s-2.123-4.96,4-7c0,0,8.087-5.37,6-11,0,0-1.347-6.74-11-3,0,0-15.275,3.03-16-4,0,0-1.267-9.32,12-11,0,0,7.444-3.46-6-10,0,0-8.552-5.442-27-4,0,0-13.13,2.73-26-11,0,0-13-2.527-9-11,0,0,5.251-8.739,1-22v-8s-2.039-5.435,11-8c0,0,10.994-8.726,11-14,0,0-1.024-4.04,4-7,0,0,6.845-3.459,2-9,0,0-2.458-4.471-9-2,0,0-3.656,5.751-7,0,0,0-14.423-12.887-16-19l-2-13-2-11s0.3-10.481,11-10l5-1s10-5.379,4-13c0,0-6.425-.476-4-17,0,0,3.287-27.087,9-31,0,0,3.379-7.767,11-5,0,0,7.35,6.017,15,7h16s7.651-.5,13,4c0,0,11.313,7.933,12,9h5s9.13,2.489,4,10c0,0-4.918,10.752,4,15l11,16,5,6s9.368,4.854,10-6c0,0-.206-16.438,4-20,0,0,10.842-15.191,9-26V786l-1-13s-1.531-7.734-6-12Z"/>
  <path id="形状_2" data-name="形状 2" class="cls-2" d="M840,1264s0.274,8.04,5,12c0,0,15.747,18.98,16,33,0,0,8.5,20.41,0,47,0,0-7.559,14.35-9,17,0,0-4.029,20.32,14,26,0,0,25.749.33,28,13l8,24,13-1,3-3,5-1,6-1,5-3s2.53-.7,11,3l2,4-2,5-2,3,1,5s0.058,5.47,4,9c0,0,4.725,6.77,11,8,0,0,12.31-2.75,17-5,0,0,17.531-7.48,24,0l11,16s2.18,2.96,6,0l4-1s4.44-1.17,5,3l3,7s1.31,7.44,6,10a20.075,20.075,0,0,1,3,11v8a7.987,7.987,0,0,0,7,4h3s1.97,4.96,5,6h11a24.666,24.666,0,0,1,7,8,18.776,18.776,0,0,0,18,8s19.77,2.37,27,8c0,0,7.38,4.69,11,10,0,0,2.35,7.31-3,10,0,0,1.57,6.36-1,10,0,0-6.47,7.38,7,12,0,0,8.22,1.17,9,5l39,1,5-3,3-2h5l2,1h19s7.31-.58,10-7c0,0,7.76,1.03,10,8,0,0,5.29,1.55,3-10,0,0-1.26-5.76-4-7a3.58,3.58,0,0,1,2-3s10.87-6.33,14-14c0,0,4.36-9.14,11-6,0,0,5.71-.03,3-6l-12-13-2-8-2-5-6-11-7-10-8-8s-7.71-8.17-14-9l-10-7a5.027,5.027,0,0,1,1-6s7.21-11.28,7-13v-10l5-4s3.17-3.36-1-6l-15-16-17-13s-2.47-.78-1-5l-1-6-3-1-7-3s-8.76-6.47-16-6c0,0-11.29-1.81-9-10l4-9,2-5v-3s-1.11-11.77-10-8l-7,3-1-1-3-4-4-4-6-6s-5.33-5.92-3-12c0,0,2.42-6.77-1-10l-2-8s-2.17-8.45-13-9a6.206,6.206,0,0,1-7-5l-7-5-5-1-7,2h-7l-7-8h-13l-2-2-3-1-13,1-3-4-1-2h-5l-7,8-15-1-8-2-3-2-1-2-3-6-4-7s-5.627-8.78-30-17c0,0-7.072,2.09-9-4,0,0-5.952-13.68-12-14h-2l-8,8s-5.525,2.22-15,1l-20,7-8,2s-6.754,1.68-10,7l-7,6h-4l-5,6h-4l-2-1h-2Z"/>
  <path id="形状_3" data-name="形状 3" class="cls-3" d="M901,1436l13-1,4-3,9-1,7-4s6.79-1.16,11,4c0,0,2.77,3.16,0,6,0,0-1.6,4.08-2,5l1,7a20.524,20.524,0,0,0,15,15,164.535,164.535,0,0,0,24-7l13-1s10.16,9.45,16,21l4-1,8-2,4,8,2,6,5,7,2,4,1,15,4,3,7,1,4,6,12-1s7.74,13.31,16,15l6,1h6s24.88,2.96,32,16c0,0,5.83,6.19-1,12l-1,10-2,3v3l9,7s7.95-1.08,9,4l-2,4-1,6v21l3,2,7,1,3-1h11s6,11.67-8,25c0,0-3.3,6.2,2,10,0,0,10.24,13.07,17,35,0,0,2.68,14.38,23,22,0,0,18.95,10.15,21,16s2,6,2,6l-3,13-2,7s-37.82-4.58-76,16c0,0-30.56,12.68-54-3l-17-9s-10.3-18.08-26-18c0,0-43.231-11.43-51,11l-2,7v8s-7.871,6.44-18-3c0,0-32.652-9.56-37-43l-20-20s-8.937-9.08-19-5c0,0-14.441,1.27-19,3,0,0-17.051,7.27-33-2,0,0,11.363-6.46,6-26l-4-9-11-13-3-13v-8l10-12,9-7,6-2,14-1s13.616-3.24,12-11c0,0-2.205-9.78-5-13v-9s-6.669-11.78-24-13c0,0-28.978-.26-26-17l-1-10s4.754-7.83,9-12l-1-10s-0.4-9.13-14-11c0,0-19.247-7.76-20-14,0,0-.808-3.77,8-2,0,0,15.745,5.01,20-1,0,0,7.014-9.96,11-4,0,0,2.1,3.59-2,9,0,0-3.141,8.24,5,10,0,0,17.843,8.81,16,0,0,0-5.067-10.88,5-17,0,0,5.9-5.34,4-15,0,0,1.2-9.1,9-8,0,0,15.762-1.3,13-14,0,0,.259-5.92,12-5C898,1445,904.089,1445.11,901,1436Z"/>
  <path id="形状_4" data-name="形状 4" class="cls-4" d="M1153,1661s15.58,20.9,20,42c0,0,4.03,6.63,17,14,0,0,19.86,8.8,25,17a19.289,19.289,0,0,1,2,11l-5,16s32.32,1.12,39,6c0,0,12.12,6.24,9,20v35l2,19,2,12s6.42,43.86,114,99a121.81,121.81,0,0,1,6,14l10-1a27.725,27.725,0,0,1,24-10s9.04,2.43,15-3c0,0,10.25-.16,14-8,0,0,7.11-7.25-4-10,0,0-3.09-.99,6-3,0,0,3.74-3.16,2-7,0,0,9.13-7.59,17-7,0,0,2.69-.55,5,6,0,0,7.58-3.17,13-2l5,1s1.09-5.14,4-5c0,0,3.42-1.36,4-1l4-7,4-7,2-4s3.71-5.67,9-4h4l4-4-2-2-1-2,2-1,2,2h4l5-1,5-6s0.98-4.14-4-1l-1,2-4-1v-3l-2-1a50.829,50.829,0,0,1-2-11s-6.52,7.75-7,1c0,0-3.95-6.65,0-11l4-8s0.02-8.86-2-10c0,0-3.6-6.04-6-1,0,0-5.62,7.81-9-3v-12s0.16-3.95-6-3l-5,1a6.847,6.847,0,0,1-4-6v-6s-8.65-12.04-39-14l-5-7s-2.93-.09-3,4v13l-7-4h-4l-5,1-6,1-2-2-1-10s5.82-11.62,23-12c0,0,6.43-.96,7-7v-9s-7.37-16.56-15-19c0,0-3.85-5.16-16-2,0,0-13.1,4.76-16-2,0,0-2.68-4.24,1-11,0,0,5.78-7.87-1-13l-5-8s-2.2-3.65,3-7c0,0,3.89-3.65-1-9a22.926,22.926,0,0,1-5-16s6.17-6.88,14-5a6.162,6.162,0,0,0,5-7s-8.59,2.56-2-5l-1-6-1-1v-20l7-6,10-3v-5s1.25-4.2,4-1l3,2,1-4-2-2a3.314,3.314,0,0,1,3-4s4.04-.03,2-5l-2-1s-3.88-.15,1-4c0,0,5.58,1.35,8,3,0,0,4.99-.91,5-14l-7-7s-5.2-5.37,1-11c0,0,4.08-4.27,5,3,0,0,2.73,6.01,7,1,0,0,3.64-.46,4-5l2-28,1-13,11-7-1-6-3-6-1-6,7-10-23,1h-3l-12-7-4-1h-10l-4-3h-6l3-4,2-4-2-14,16-11-1-21s-0.06-2.11-3-2h-2l-7-4-9-1-5-3-9-11-9-12s-4.37-8.66-10-11v-3l-2-1,1-2,1-3-2-13-1-1-12-1s-1.99-3.93,7-4c0,0,9.1,1.01,9-4l-1-15,1-12v-8s-13.59-16.26-15-19c0,0-1.45-3.36-6-1l-17,10-10,3h-10l-12,6s-2.75-2.3,1-7c0,0-3.2-3.96-11-2,0,0-18.93,7.4-28,1,0,0-9.4-5.26-9,4l-1,18s-5.95,7.1-17,1c0,0-9.54-4.9-13,2l1,24s-3.16,3.07-6,1l-5-2h-11s-5.72-4.72-9-3l-5,5-7-2-5,1-5,4v26s-6.84,4.81-12,5l2,2,8,3,1,10,13,10,14,13,8,9s1.35,3.27-1,4l-4,4-1,12-8,13v3l9,7s10.93,2.54,26,21c0,0,12.23,17.5,13,30l4,4,5,5,4,5s2.97,5.3-3,6h-6l-5,6-2,4s-9.86,9.86-14,11v3l3,1,1,4,1,6-2,4s-0.67,3.27-6-4c0,0-5.27-5.03-8,0a14.162,14.162,0,0,1-14,4l-13,1s-6.98-3.25-12,1l-3,2h-39l-2,4-1,11v14s1.2,4.78,12,3h12s7.31,9.4-7,25C1153,1652,1149.13,1656.78,1153,1661Z"/>
  <path id="形状_5" data-name="形状 5" class="cls-5" d="M1464,1917l2,3,1,4s0.55,10.77,12,10c0,0,12.86-2.89,12,3,0,0-6.46,7.1,0,10,0,0,5,8.94,27,6,0,0,12.44.45,18-6,0,0,16.19-5.84,21-1,0,0,6.8,3.12,3,18l2,7,4,5,2,6-1,8-1,10,3,3h8s4.88,1.14,7,9l1,3v4h2l4-2,2-2,5-2,3,1,5,2,3,2,2,2,5,3-3,2-6,2v7l-10,13-8,12-7,6v2l-1,2v4l3,5s1.65,1.94-1,4l-3,5-4,6v8l-3,4-1,6-5,2-7,11s-6.53,2.57-32-7c0,0-20.26-7.63-38-1l-38,9s-28.32,6.63-41-1c0,0-27.65-9.67-33-31,0,0-10.23-31.2-9-58v-24l14-25v-20l11-1s9.8-12.51,25-10c0,0,7.01,1.92,12-2l9-3,5-3,4-6,1-3-3-3-4-1,1-2,5-1,2-3,1-2,1-3,3-2,4-2Z"/>
  <path id="形状_6" data-name="形状 6" class="cls-1" d="M1626,2030l7,2,9,1,1-2,8,1,8,2,22,2,8-10,3-5,5-10s3.39-26.16-7-31l-17-23-12-22-4-10,4-7v-5l11-24,7-10,1-5,1-32v-4l-5-9-5-11-3-6s-2.15-.89-5,1l-15,6-5-1-5-3-4-1-4,1-9,5v3h2a6.919,6.919,0,0,1-7,5l-2-3s-2.8-1.15-5,2l-9,10s-3.2,1.19-6-3c0,0-2.74-3.06-5,1l-3,6a4.036,4.036,0,0,1-2-4s-3.18-.17-2,2l-1,2s-1.49,2.17-5-1l-1-1s-2.92-1.52-5,2l-8,7-4,4-4,5-1,2-3,1-3,1h-10l-1-2-1-2-2,1-4,4-1,2v8l1,2v2l2,1,1,2,1,2,2-1,3-2h3v2l-6,7h-9l-1-2-2,1,1,3,2,1-3,4h-7s-5.04-.21-7,4l-5,10-3,5-2,4h-4l-4,4-4,1s-4.76-2.32-9,0l-6,1v-2l-1-2-2-2h-5l2,5,1,4s3.73,6.85,7,8h14s5.4,0.13,2,4l-2,4,1,5,7,4,4,2,7,1,14-1,10-2,5-3,3-2,8-2h7l5,3,2,3,1,4v3l-1,5v8l4,4,3,6v8l-2,11s-0.37,3.21,5,4h5s6.57,2.17,8,9l2,7,5-2,3-3a10.96,10.96,0,0,1,10,1l9,7,2,2s4.49-4.52,8-2l4,3Z"/>
  <path id="形状_7" data-name="形状 7" class="cls-3" d="M1560,2124l79,1h7s33.83,42.47,127,26c0,0,28.7-9.31,39-8l39,8,2-11-1-13-3-5,1-8,1-6-4-7-1-10-32-27-3-1-6,1h-7l-5-1-4-3-1-3,3-2,4-4,2-3v-6l3-2,14-8,12-6,4-5,9-9-1-2-1-5,1-6v-5l-2-4v-4l3-1,2-5-3-4-5-3-3-3v-3l2-3,1-1-3-3-4-2-1-2,3-1,9-3,5-3,1-3-5-9s-2.72-3.22,3-9l17-15s3.34-4.84-2-14c0,0-16.15-14.71-19-16,0,0-12.51,9.42-28,4,0,0-20.8-4.61-29-16l-15-10,1-13s-1.22-6.88-20-13l-3-1-8,6s-3.3,2.07-7-3l-10-14-2-2a49.153,49.153,0,0,0-7,2l-12,5-15,11-1,3-1,11v23l-3,6-5,8-8,16-3,9v3l-3,6v4l5,11,11,18,5,8,12,15,3,4s3,4.12,3,12v15s-8.38,17.25-16,25l-26-3-10-2-4,2-9-1-5-2-1-4-2-3-2-1-6,1-4,2-4,2-2,7-3,6-9,11-5,8-6,5-2,5,2,8h2v4l-4,4-3,5-2,11-2,3-2,7S1563.93,2113.26,1560,2124Z"/>
  <path id="形状_8" data-name="形状 8" class="cls-6" d="M1837,1883l12,9,7,7,3,8v5l-11,10s-11.66,9.42-10,14c0,0,9,12.81,2,15l-12,4s-6.43,1.52,1,4c0,0,5.03,1.88,3,5,0,0-4.84,5.72,0,8,0,0,7.59,2.38,10,9,0,0-10.82,6.51-4,12v21l-6,5-3,4-6,4-6,3-5,3-9,5-3,2-3,1-1,9-7,7s0.15,8.5,12,6h10l4,1,6,5,11,10,14,11,1,10,3,6-1,14,3,6v17l-1,8s58.26,17.67,68,29l8-7,12-8s8.12-.38,15-11l5-13s1.75-3.24,11-4c0,0,8.26-4.89,1-11,0,0-11.29-3.99-1-11,0,0,9.45-9.99,9-35,0,0,.25-8.83,15-13,0,0,5.56-5.81,5-19,0,0,.92-32.58-2-39,0,0,1.04-18.03,22-16l22-1s9.12-3.29-3-10c0,0-9.52-11.43-31-9,0,0-1.99.08-2-3v-8h-2l-2,3-1,5,1,5a19.521,19.521,0,0,0,0,4c0.27,0.64-4.99,6.28-8,1l-1-4-1-3-3,1-2-1,2-3,1-1v-5l-1-3-1-3s-1.19-8.41,6-22c0,0,10.17-27.97,13-29,0,0,14.82-24.3,12-33,0,0,.1-14.02,11-29,0,0,8.42-16.14,24-14,0,0,11.14-9.83,10-24a12.12,12.12,0,0,0-3-12v-7s-2.06-2.59,11-11c0,0,3.54-2.07-1-8l-5-6s-4.1-6.39,10-13c0,0,18.94.68,14-8,0,0-.42-5.15-4-5,0,0-3.58-2.04,2-10l-7-7-1-4-13-4-16-6s-4.83-4.07-21,0l-8-7h-20s-18.43,2.48-21,22l-2,11s-4.32,10.43-21,9l-19,2s-5.29,3.44-11,8c0,0-8.17,15.75-47,19,0,0-15.01,28.23,10,48,0,0-16.97,6.51-29,8,0,0-17.48,2.52-6,10l11,5S1874.87,1851.22,1837,1883Z"/>
  <path id="形状_9" data-name="形状 9" class="cls-7" d="M1457,1572s1.5,14.63,22,23c0,0,10.53,3.56,11,15,0,0,8.8,23.62,25,29,0,0,24.29,12.83,29,18,0,0,20.3,19.34,23,24l7,10,3-1,4-4,2,1,5,6s7.07,0.83,11,3l7,6,4,2h4l4-3,4-1,5,4,1,2h4l2-1,2,3,2,2-1,5,3,3,5,7,5,9,6,7v2h4l4,1v8l3,1,3-8,1-4,3-3,5-1,8,2,30,4,19,1,10,4,16,6,19-6,7-1s1.3,9.07,14,7l16,3,23-2,16-2,9-3,8-1s5.17,2.08,1,9l-10,9s-1.62,5.99,4,8l11-5-4,12s-3.84,21.4,13,36l-28,8-7,2s-8.66,3.48,3,9l9,5s7.56,11.27-29,41c0,0-18.35,15.47-52-7,0,0-9.78-10.06-20-15l1-15s-14.94-12.94-24-12l-7,6s-3.13,3.16-9-6l-8-12a7.576,7.576,0,0,0-6,0s-18.19,5.99-21,11l-9,7-5-9-5-12-4-7s-1.69-1.27-6,1l-14,6h-4l-7-4-3-1-13,6v2l1,1-1,3-3,2-2-1-2-3-3,2-4,2-3,5-3,3-3,1-4-3-1-1-3,2-2,1-2,4-1-1-3-3-1,4-1,2-2-1-3-2a9.649,9.649,0,0,1-2,0c-1.58-.09-20.92,17.49-21,20l-16,2v-4s-2.74-1.74-5,2l-3,6-4,3s-6.21-.59-4-11c0,0,7.64-10.55,4-18,0,0-1.58-5.63-6-5l-3,4h-4l-3-5,1-7v-6s-3.94-3.47-8-2h-6l-2-5v-6s-12.17-13.97-39-14l-6-8-2,2v16s-7.36-7.65-20-2c0,0-8.37-3.66-2-17,0,0,5.48-5.98,23-8,0,0,8.64-10.77,1-21,0,0-8.13-16.1-22-16,0,0-10.99.7-12,2,0,0-13.44,3.2-10-11,0,0,8.58-10.89-2-20l-2-3s-4.65-4,3-9v-5l-2-3-3-6-1-3v-7l5-4h2l4-1h3s3.6-1.68,3.97-4.68a1.655,1.655,0,0,0,.03-0.32c0.14-3.2,0-2,0-2h-4v-2l2-3v-6l-2-1v-20l9-7,5-1,2-1,2-5v-2h2l4,3,1-4-2-2,1-3,5-3v-3l-4-1v-3l4-1,5,2,2,1,3-5,1-8-3-4-5-4-1-4,1-4,2-3s2.98-4.21,5,1C1450,1569,1449.36,1577.31,1457,1572Z"/>
  <path id="形状_10" data-name="形状 10" class="cls-8" d="M1640,1718l19-13h5l2-3-3-1-1-3s8.63-8.99,25-8c0,0,6.46.39,8-7l1-7v-4l6-7,2-4-1-2-2-2,1-5,4-4,2-5,1-4,1-3v-4l7-3,3-2h7l5,1h17l12,5s2.49,1.02,8,0l5-3,6,2,12,6,3-2,5-2,1-2,5-1,5,1,7,5,7,5,2,6-1,8,1,5s2.99,1.14,6-2l3-5,4-6,4-9,4-7s3.82-6.22,7-7l11-5,12-9,5-6,5-3,15-2,8-2,8-8h21l10-7,13-10-1-3v-2l1-3,1-3-1-4-9-5-3-2v-2l5-4,4-3,4,1,7,1,5-4,8-8,6-4v-3l-3-3-2-3v-5l-1-6,3-3,5-1,8-2,12,1,4,5,1,2,3,1,9,1,12,1,12-7s3.37-2.71,11-2h15l3-4,2-5-1-6,7-6,2-4,6-1,11-9,6-3,15,1,10-10,8,8,5,1,19-8,9-2,6,3h7l9-8,5,3,8-1,7-7,6-5,3-2,5,2,3,4v4l4,1h6l8-2,12-4,5,3,1,6-2,3-8,5-3,3-2,6-2,8v11l-1,12,1,11,1,6s5.51,5.58-8,12c0,0-39.6,6.67-49,15,0,0-7.86,1.7-9,13v27s-1.09,7.16-11,9c0,0-26.82,4.45-39,13,0,0-11.75,7.49-6,11l23,2s9.31,3.87,0,14l-10,9s-4.35,4.31,1,7c0,0,6.74,1.37,1,7l-15,16-15,17-2,8s-4.71,10.07-12,5l-4-2s-3.67-1.98-6,0c0,0-18.24,10.13-19,14,0,0-4.19,1.42-16-4,0,0-21.12-10.09-29-6,0,0-9.08,1.51-11-4a17.432,17.432,0,0,0-14-3s-18.34.78-23,8c0,0-8.89,11.08-8,20,0,0,.58,13.59-16,15l-19,1s-14.45,4.02-20,12c0,0-5.72,11.95-44,16l-12,5s-5.86-6.95-3-8l3-3,9-8s-1.03-8.36-8-7c0,0-32.86,12.45-76,4l-4-4s-4.84-3.05-9-1l-18,5-23-8-3-1s-37.93-2.13-41-4l-16-3s-8.15-1.94-9,8l-3,8h-3v-9l-7-1-6-8-8-12Z"/>
  <path id="形状_11" data-name="形状 11" class="cls-3" d="M1709,1631h5l2-2,6-3,5,1,5,1h18l9,5h10l5-3,8,3,7,4,3,1,5-2,5-4,4-1,4,1,5,3,5,4,5,4,1,3v15s4.95,2.17,7-2l7-11,3-6,3-7,3-5s3.91-4.63,6-5l9-4,7-5s9.6-6.77,11-10l6-5h9s12.26-.75,14-4c0,0,5.68-3.83,8-7h21l21-15,2-1v-3l-2-1,1-2,1-3v-5s-1.06-3.4-3-4l-6-3-3-1v-3l9-7h3l8,2,5-4,8-8,5-3,1-4-4-5-2-10v-2s2.09-3.67,10-5c0,0,15.43-1.84,19,0l4,6s2.08,2.72,11,3l14,1s10.87-8.39,14-8l23-1s7.53-8.71,4-14v-1l6-5s2.48-1.19,2-5l8-1s12.75-12.77,18-12l13,1,11-10,7,8h7l10-4,9-4,7-1,6,3h7l8-7v-11a30.643,30.643,0,0,0,2-14s-4.6-6.59,5-14c0,0,32.58-8.68,48-24,0,0,13.65-8.85,11-34l-3-18s-5.43-26.56-4-32c0,0,.86-19.94,7-29,0,0,8.56-12.63-3-11,0,0-10.98,1.11-14,4,0,0-10.34,2.48-9-6l7-7s2.27-2.82-2-7h-3l-4,5-4,3-2,1-1-2-8-6-1-2,1-3,1-8v-9s-7.13-9.89-18-12c0,0-10.02.37-18,6,0,0-15.59,6.61-17,9,0,0-4.45,2.28-7,0,0,0-4.81-6.72-11-5,0,0-13.07.17-18,3,0,0-7.24,2.66-7,7,0,0,.39,9.97-7,11l-7,1s-3.04-.55-3,5v4s-2.41,3.46-8,2c0,0-9.02-2.24-10-4,0,0-7.5-3.16-9-9,0,0-1.37-4.13-5,0,0,0-.04,4.01-6,0l-12-4-23-8-10-2s-8.92-3.28-17,5l-10,15s-12.06.46-15,3l-5,1s-3.78-7.67-9-7c0,0-11.27,2.62-13,7,0,0-12.54,5.12-14,9,0,0-8.91,12.58-12,15,0,0-3.31,4.78-8,2a18.919,18.919,0,0,0-13-2s-15.22-1.16-18,1c0,0-14.76,1.9-16,5,0,0-5.06,5.59-16,7,0,0-6.26,1.99-7,6,0,0-7.42,9.91-13,6,0,0-5.6-2.61-6,2,0,0-3.9,12.31-7,15,0,0-3.44,10.87-11,6,0,0-2.49,3-1,10l6,6s3.45,3.15-3,5c0,0-23.9,3.47-31-1,0,0-4.13,1.65-16-16l-7-10-1-2v-3l-1-2-3-2h-2l-4-5s-2.18-11.05-16-12l-11-2-8-8-3-3-6-1-4-1-3-3-6-6-3-4-1-1-11,3-12,2s-13.74,2.62-15,10c0,0-.89,12.29-9,15,0,0-10.3,1.41-13,7,0,0-4.44,5.2,0,15,0,0,4.72,7.65,7,9v3l-2,3v9l10,7,1,2-5,4s-10.39,2.8-12,5c0,0-5.01,1.06-5,10,0,0,.06,4.13-5,8,0,0-8.94,7.25,0,11,0,0,6.63.46,6,7,0,0,3.38,9.7,7,11,0,0,8.9,6.11,1,7h-8s-3.63-.33-3,6c0,0,1.42,8.25-3,12,0,0-2.19,5.88-6,5h-7l-2,2v7l2,2h17s9.31,18.04,16,20c0,0,4.06,1.19,4,4,0,0,.06,4.26,0,5s0.54,4.8,5,3c0,0,2.71-4.84,12-3,0,0,12.57-.71,22,5,0,0,5.3,3.99,0,7,0,0-3.09-1.74-2,8,0,0,1.26,5.92-5,6l-8,1s-5.15,3.03-5,7l-2,17,1,2s15.73,3.5,18,7c0,0,5.95,3.54,8,8,0,0-8.72,13.46-15,15l-7,5s-0.6,2.76,5,5c0,0,5.94,2.68,6,9v5s1.55,6.92,10,7l11-1s4.13,0.58,6,6l1,5-4,4-2,1v3l3,4,2,7v10Z"/>
  <path id="形状_12" data-name="形状 12" class="cls-9" d="M1434,1447l22-11,3-1,6,1,5,2s6.81,0.91,12-1c0,0,6.65-3.72,9,1v8l1,7s1.01,7.26,7,6l1-9s-0.23-3.03,8-2l9-5,7-3-11-10-1-3,2-3,4-5h3l7,3,3,1,3-4v-4l-4-10-1-7,2-3s11.55-11.41,22-10v5s0.62,4.12,6,4h9s3.15,0.96,4,3l7,8h5l6-4,7-4,4-2,3-1,3,8s2.48,3.5,6-2l8-8,3-2h4l2,3,1,3,1,4,1,3,2,3,3,3,2,1,2,3s0.83,1.78-2,2h-9s-3.23.08-3,4v11s-4.68,6.98-8,8h-7s-3.52.74-3,4v5s-0.83,2.58,3,2h16s6.41,14.31,19,23l1,9a7.8,7.8,0,0,0,9-3s14.24-1.15,17,1c0,0,13.83,1.75,16,8,0,0-2.62,3.06-5,4v9s-0.56,3.65-3,4l-8,1s-5.3-1.39-7,6l-2,19s24.28,7.04,26,16c0,0-4.51,11.74-21,20l1,3,7,5s2.52,3.66,2,6l1,8s1.95,4.19,10,4l11-1s5.41,1.91,6,10c0,0,1.81,1.98-4,6l-1,1v3s4.63,4.73,4,10l1,10s2.11,14.87-7,20l-1,5,1,2,1,2-1,5-6,7-1,11s-0.22,6.22-8,6l-11,1s-13.26,4.82-13,9l1,3,2-1v2l-3,2h-4l-19,13-3-3v-5l-2-3-2-2-5,1-1-3-5-3h-3l-6,4h-3l-13-9-3-2h-5l-7-8-8,6s-26.91-38.07-47-45c0,0-34.66-13-37-40,0,0-8.02-12.4-17-14,0,0-14.82-9.9-15-20,0,0,3.5-2.53,3-9l2-36,11-7,1-6s-7.93-11.67-3-15l4-6v-2l-25,1-14-8-12-1-4-3h-6l4-4v-3l-1-13Z"/>
  <path id="形状_13" data-name="形状 13" class="cls-10" d="M1819,1328s-15.27-10.43-7-22c0,0,9.78-16.6,0-40,0,0,1.63-3.8,7-3,0,0,14.15-.46,6-12l-9-12-4-8-4-5s-1.09-4.55-10-3c0,0-12.32-1.95-10-19,0,0-1.23-12.54,16-23,0,0,11.42-7.21,12-18,0,0,3.75-9.92,9-15,0,0,11.04-15.57-3-24l-18-18v-13s4.74-10.14,9-13c0,0,16.13-18.32,21-19,0,0,6.93-6.54,10-6l7-3,25,21s2.71,3.46,10,1c0,0,7.46.07,11,4l14,11,7,8,8,6,6,3s6,0.53,6-5c0,0,1.45-5.92,9-6l15-5s8.2-1.11,12,3c0,0,12.96,8.51,28,10l5-1s10.81-5.69,20,1l16,7s10.49,0.77,11-9c0,0,3.64-7.24,7-7,0,0,4.53,1.61,9-4l16-16,5-2,4-3,5-5,6-4,7-3,5-3,6-5,6-6h7l11-3,5,7v5l12,6,17,9,6,4,21,2,7,2s14.8,4.55,19,19c0,0-19.27,18.04-19,25,0,0-3,.32,0,9,0,0,5.66,3.86,4,9,0,0-10.96,2.32-11,4,0,0-15.23,6.03-12,19,0,0-1.31,9.13,7,9,0,0,13.79-11.99,18-8,0,0,3.08-1.11,3,14,0,0,3.1,10.95,9,14,0,0,14.83,12.67,17,16,0,0,9.93,5.73,4,20l-11,13-3,3,1,3,3,4-10,9-11-7,1-4,1-18s-8.75-14.08-24-11c0,0-26.47,9.93-29,14h-6s-4.83-8.94-21-4c0,0-15.72,1.47-16,10l-1,6s-2.5,4.46-10,5h-3s-4.1-.46-3,7c0,0-2.03,6.9-9,4,0,0-14.23-3.88-18-14,0,0-2.75-2.87-5,1,0,0-.92,3.41-5,1,0,0-32.42-13.78-51-16,0,0-11.77,1.33-18,14l-4,7s-12.34-.44-16,3h-5s-4.71-9.46-13-5l-11,8-5,1-4,4-15,17-2,2h-4s-12.01-4.59-20-2c0,0-20.93.53-27,5,0,0-10.2,8.47-17,8,0,0-5.99,1.77-8,6,0,0-4.86,10.35-12,5,0,0-6.86-.41-7,4,0,0-5.07,19.55-13,21Z"/>
  <path id="形状_14" data-name="形状 14" class="cls-8" d="M1851,1052s16.59-8.93,14-45l-1-26-8-27s-1-5.4,7-6c0,0,12.23-3.549,21,4l12,7s5.97,1.6,7-3c0,0,.31-7.851,10-10l21-7s14.75-12.687,17.8-19.516c0.07-.165.14-0.326,0.2-0.484,2.53-6.693,13-20,13-20l10-9a28.462,28.462,0,0,1,12-8l1-5-3-9s-2.34-14.11-1-18l2-6s1.08-7.893-2.48-9.78A3.354,3.354,0,0,0,1983,834l-7-11-1-1-1-7,1-14-2-7-1-11,7-10,6-6s5.35-13.61,33-24h11s7.91-1.044,9-2c0,0,7.18-.628,9,2,0,0,3.07,4.611,16,8,0,0,21.45-8.151,28-8a12.377,12.377,0,0,0,2-7l10-10,8-10,6-7v-6l3-9,4-5,8,10,12,11,5,3s3.86,2.185,7-2c0,0,3.31,0,5,6l2,4s3.16,4.4,8-1l6-2s6.58-2.673,11,0l8,5,9,6,14,10,5,4s0.99,1.513,6-1l10-2s12.17-1.368,9,7l-6,8s-3.67,6.022,1,8l16,8,5,3,1,8,2,4-1,5v9l-3,3-1,9-4,4v4s7.69,24.8,53,47c0,0,1.93,1.795,1,4l-2,3v3l2,3-1,2-3,3-2,2v5l5,13,2,9s0.4,6.829,9,6l12,1,11,2,6-1,8-2,6,1h4l8-7,3-8s2.85-6.079,12-6l8-2,4-1h15l6-1,4-1,1,5s2.69,7.037,16,5l15-5s7.34,3.529,13-1l15-8s11.22-5.239,14,2l6,10s2.75,6.1-2,10c0,0-8.61,5.605-9,9,0,0-10.79,12.25-10,20a16.966,16.966,0,0,0,11,10s0.69,3.913-5,7c0,0-14.93,5.946-18,7,0,0-11.95,6.525-14,11,0,0-9.03,10.8-19,9,0,0-11.87,1.862-11,7,0,0,.02,9-3,13l-5,8s-3.68,8.38,5,11c0,0,21.94,3.03,23,13,0,0-3.59,18.63-12,28,0,0-9.34,12.38-14,14,0,0-1.83,5.41,3,8,0,0,1.27,2.77-4,3h-5s-4.22-.32-2,3l3,3s0.09,6.71-9,6c0,0-11.94,1.04-13-2,0,0-7-6.64-11-5l-12,5-3,4,1,3,4,3s6.09,1.4,1,7l-8,8s-5.77,1.93-8-2c0,0-5.92-2.56-8-1,0,0-17.23,3.79-26,7l-14,8s-7.7,3.93-7-9l3-15v-12s-2.51-13.86-27-16c0,0-42.58-4.85-49,7,0,0-10.17-18.2-26-20,0,0-18.16-1.88-21-2l-28-15-8-4v-4l-5-8-7,2h-10l-15,13-16,8-8,8-5,2-22,21h-7l-4,6-2,7s-3.06,4.47-12,1l-19-8s-11.71-.45-13,1c0,0-8.47,4.22-17-1l-17-8-8-3s-7.86.29-11,2l-13,5s-4.16,2.19-4,5l-1,4-5,1-5-2-11-10-10-9-7-5-5-4-4-2h-13Z"/>
  <path id="形状_15" data-name="形状 15" class="cls-3" d="M2093,626l6,26,2,2s9.04-.152,10,3c0,0,3.72-.329,4,7l1,16,7,9,17,17,9,7a7.447,7.447,0,0,0,7-2s3.74-.478,5,5l2,5s2.17,3.3,6,0l8-3s8.38-3.78,12,0l35,25,7-1,5-2,11,1s4.46,1.953,2,7l-7,10s-1.41,3.624,3,5l19,10,2,2-1,3,1,4,1,3,2,2-1,3v7l-1,4-2,1-1,5-1,5-4,4s-0.57,23.118,53,51c0,0,3.86,3.666-1,6,0,0,.88,5.915,2,8,0,0-8.18,5.607-5,14a62.178,62.178,0,0,1,6,21s2.8,5.859,18,4l10,2h10l6-2h7l5,1,5-4,3-4,3-6,2-3,3-3,4-1,7-1,5-1,6-1h17l1-1,4-1,1,4,2,3,5,3,4,1,6-1,5-2,6-2,4-2-6-7s-1.47-1.151-17-2c0,0-12.89-2.336-9-23,0,0,15.39-26.61,20-30,0,0,4.26-7.117-6-8l-16-4s-4.64-3.791,0-14c0,0,4.72-5.469,11-18,0,0,3.38-13.131,8-16,0,0,8.85-6.82,16-1,0,0,8.94,6.4,11,0,0,0,1.91-4.853-2-7,0,0,3.27-12.462,13-6,0,0,2.95,5.622,6,0l4-8s4.93-8.432,7-9c0,0,.66-6.447-2-9,0,0-8.47-18.841-10-23,0,0-3.55-17.21-2-25,0,0-1.98-7.119-9-5,0,0-22.13,4.617-21-2,0,0-2.61-5.131,4-5,0,0,8.01-3.032,6-11V654l-1-2-3-3-4-5s-1.49-3.566,4-7c0,0,9.5-1.706,3-8,0,0-5.25-3.7-6-4l-10,1-6-11-8-13-4-9-7-8s-7.04-4.545,0-16c0,0,14.83-29.479,8-42,0,0-4.31-6.331-12-1,0,0-13.56,7.934-11,12,0,0-.93,4.813,5,6,0,0,4.94,3.459,2,10,0,0-7.96,9.709-15,8,0,0-15.98-8.558-20-11,0,0-6.41-6.187-23-6,0,0-20.18-5.055-28,0,0,0-20.45,14.47-22,19l-16,11s-5.35,3.629-2,11c0,0-6.99,12.01-10,12,0,0-9.16,8.643-20,7,0,0-5.66,1.276-11,3,0,0-18.82,11.275-24,6,0,0-7.44-3.987-3-9a11.765,11.765,0,0,0-8-8s-6.98-3.866-14-2c0,0-17.89,3.254-23,1,0,0-14.16-6.644-20-13l-10-8-4-4-9,2-3,2-9,3s-4.33,3.628-4,9l-5,12-3,8s-2.49,9.42-8,13c0,0-5.99.293-6,1Z"/>
  <path id="形状_16" data-name="形状 16" class="cls-2" d="M1261,464l12-9,4-1,4,1,3-1,4-10,6-7,6-1,6,1,6,3,5,6,6,7,5,4,6,1,8-3,6-4,7-1,10,2,11-1,21-1,16,3h14l15-2s16.13-5,15-16l-1-27a35.6,35.6,0,0,0-3-7s-12.04-18.367-12-25c0,0,.71-7.5,4-8l5-7,8-8,6-4h4l2,4,5,2,3,3,6,1,6,2,1,4,1,4,1,1h5l3-2,3-3,1-3,6-2,7-3,3-6-2-6V335l-4-6-8-6-7-7-9-11s-2.18-4.792,3-6l15-3,7-3,12-10s6.54-7.027,21,2l17,9h17l13-2,12-1,9-1,11-2,8-4,1-4s-1.47-3.264-3-4l-5-2s-2.87-2.759,1-5l8-7s3.16-1.547,3,3c0,0-.09,11.731,15,8,0,0,7.28-4.187,10-11,0,0,6.85-9.2,2-17l-2-6v-4l8-10v-4l-6-10v-5l7-4h2l2,2,1,4,3,4,4,3,5-5v-9l-4-5s-3.4-4.262,1-6c0,0,11.79,2.444,15,6l13,10s16.38,11.295,24,11c0,0,18.36.7,27-9,0,0,3.73-10.371,14-12a36.042,36.042,0,0,1,18,0l14,3,4,6,9,7s10.25,1.705,10,11l-3,9,1,16s1.33,9.214,6,10c0,0,9.9-.839,16-4,0,0,17.92-7.43,24,3l10,11s5.51,3.305,10-4c0,0,4.83-6.267,11-1l9,6,1,10s1.8,5.632,10,7c0,0,14.18,1.829,16-6,0,0,2.84-10.219,10-10,0,0,8.33.963,6,13,0,0,1.81,9.881-5,18,0,0-6.35,8.819-1,13,0,0,14.82,10.9,31,15,0,0,34.31,8.124,42,11a22.243,22.243,0,0,1,13,19s3.38,25.895,17,35c0,0,19.41,12.628,22,15,0,0,5.9,10.513-2,25,0,0-2.1,17.463-19,18,0,0-8.93-1.1-6,9l4,24,2,8,7,8,6,2,9,1,9,9,7,4,7-2,8-4h7l20,22v27l4,10-5,2-4,1-3,2-4,1-3,1-3,2-2,4-2,5-5,14-4,10-2,3-2,4-3,1-5,1-6,5-7,4-5-2h-3l-2,1-4,4-4,6-2,5-4,3-4,2h-7l-5,1-5,1-4,2-2,5-2,5s-5.22,8.234-9,2c0,0-8.83-9.824-10-15,0,0-11.49.979-17-4,0,0-6.48-.534-8,3,0,0-3.73,4.868-4,7,0,0-1.16,3.774-11-1,0,0-9.62-3.348-11-3,0,0-12.42,5.284-13,6a22.285,22.285,0,0,1-13,1s-3.82-1.047-3,4l-1,6-4,4a34.724,34.724,0,0,0-4,9s-3.75,9.192-3,12c0,0-15.88,11.418-22,21,0,0-3.98,7.358-14,6l-17-1-4,3h-6l-9-4-8-1s-9.77-3.237-11-7c0,0-6.29-.11-7,17,0,0,1.71,9.11-4,13l-15,18v13l-6,12,1,4a16.251,16.251,0,0,1,12,11,14.192,14.192,0,0,1,1,8l-22-1-6-1s-0.86,12.5-14,15c0,0,20.01,21.8,22,26,0,0,6.89,12.417,6,21l-8-4s-3.88-2.035-5,2c0,0-5.58,10.407-5,14,0,0,.67,2.325,5,6a6.219,6.219,0,0,1-3,4s-16.53,12.161-20,12l-2-1-3-3a7.236,7.236,0,0,0-10,0s-12.89,13.544-29,13c0,0-9.62,2.2-9,9,0,0,.6,10.174-3,14l-11,9a6.132,6.132,0,0,0,1,4l8,11s-3.08,1.421-5,0l-8-6-5-2-6,1-6,1h-4l-9-1-5-1s-7.68-1.075-10,2l-12,4s-3.31,1.922-6-4c0,0-4.12-3.037-1-6,0,0,21.18-9.821,15-19,0,0-.82-4.541-13-8,0,0-17.73-15.852-32-12,0,0-6.24,4.466-10-3,0,0-4.75-7.294-13-7l-11-1s-12.77-.476-9-16c0,0,5.74-15.941,9-17,0,0-.96-2.38-5-4,0,0-6.17-2.976-2-8a6.288,6.288,0,0,0-3-1s-5.68-3.623-6-7c0,0-2.47,1.469-7,8,0,0-4.16,2.256-10-1l-13-3h-4l-3,6-1,6s4.71,2.683-2,6c0,0-12.47,7.1-22,5,0,0-9.46-4.892-4-8l3-2a3.329,3.329,0,0,0-1-3l-9-7-4-3-6-5-3-1-3,4-5,5s-4.32-4.65-7-5l-5-1s-5.67,5.118-12,5l-8-1-5,4-9,5h-4l-2,1-3,4-2,3h-4l-3,1-2,2-6,8-2,5-3,5-2,8v6l-3,9-1,7h-7s-3.93-5.586-3-17l2-22s-1.09-9.557-7-13v-8s-1.93-5.042-6-6l-3-7s-2.3-3.242-6,1l-4,11s-9.9.285-14,5l-10-7-1-7-2-2h-6s-5.39-2.572-5-11l-2-12-5-1-1-2,3-3-1-2-5,2-2-7-2-9,2-2v-4l-2-1,1-8,2-8,3-11h-2l-4,2-2,2-5,5-7,5s-8.93,5.449-12,2c0,0-1.08-9.6,4-13v-2h3s13.28-5.88,14-9c0,0-1.44-21.452-9-27,0,0-1.24-10.7-4-13V697l-1-10,3-10s0.36-6.955-3-8l-25-14-1-3s-4.34,2.69-9,15c0,0-4.7,1.6-7-2l-28-19-1-7s1.13-3.288-4-3h-7s-6.35-2.215-4-10c0,0,2.36-5.974-3-6h-7V610s-8.6-9.906-13-15l1-4,8-17,1-2-6-5,3-15,2-7,4-8,3-2,7-2h7l4,1,4,5,4,1,3-3,6-5h14l5-1,6-3,4-3,4-3,7-3,7-2,9-2,20,2,12,1s7.37-8.348,3-19l-12-12-1-3s-1.76-4.671-4-4h-4l-5-1-4-2-4-1-2-3Z"/>
  <path id="形状_17" data-name="形状 17" class="cls-8" d="M840,529l-8-8v-3l3-3,8-9,7-8,4-6s-0.157-6.912-2-9l-4-6s-1.69-6.912,5-9l7-5a6.762,6.762,0,0,0-4-8s-4.663-2.724,4-6c0,0,3.841-1.733,12,1,0,0,8.365-1.593,7-7,0,0,.533-3.34,4-9,0,0,1.926-9.694-2-17,0,0-5.5-7.385-1-18l6-9s5.243-6.73-1-17c0,0-11.159-15.634-8-33,0,0,12.737-30.382,24-21l4,3s9.755-.418,9-13V293s1.754-6.8,8-8l9-2,6,1,21-7,16-2,25-1,6,4,2,6,5,5,4,4,8,1,4-2,2-2v-3s1.22-5.335,12,0c0,0,10.74,2.786,17,11l22,33,3,11s0.52,4.006-4,7c0,0-4.77,4.277-1,7l22,15s5.25,1.866,9-1c0,0,7.99-7.2,14-3l17,15s6.41,0.211,9-2c0,0,6.09.855,7,5,0,0,4.53,15.911,22,19,0,0,12.26-.828,19,8l17,27s6.05,10.273,11,10l12-6s7.14-2.923,10,0c0,0,14.47,3.974,10,12v7l3,1v7l1,5,4,2,4,1,5,2,7,1,2,1,1,2,1,3,3,3,3,3,4,3,2,3,1,4-1,7v4l-4,4h-7l-8-1-5-2h-11l-8,2-9,2s-6.82,1.9-11,7c0,0-9.57,7.306-17,6h-11l-9,8s-8.16-3.164-8-7h-15s-13.88,4.236-14,35l5,4-2,3-8,19s-2.16,1.892,3,4l9,11,1,12s-5.72,6.632-11,6c0,0-8.76.7-9,4l-10,11s3.66,24.137-13,32c0,0-6.36,8.4-6,13,0,0-3.95,3.679-9-1,0,0-16.42-4.87-16,4,0,0,.74,8.258-5,8,0,0-8.06-.664-20,8l-1-8-1-15-1-18s-2.24-4.21-9-3h-7l-12-12-2-3-10,10s-6.64,1.607-9-8c0,0-1.69-13.521-15-11,0,0-10.309-3.6-13-9l-7-5s-5.255-5.24-10,0a33.955,33.955,0,0,1-23-6l-17-11-18-11s-10.3-4.016-15-3c0,0-10.44-10.59-5-14h5s15.634-9.052,17-13a21,21,0,0,0-1-10l7-8s0.885-4.617-2-6l-2-4-2-6s-42.091.375-47,6c0,0-2.454,1.166-6-4l-13-9-7,4S841.755,531.758,840,529Z"/>
  <path id="形状_18" data-name="形状 18" class="cls-11" d="M842,530s2.56,18.576-12,16c0,0-4,.018-4,4v3l5,3,3,2-1,12s1.162,4.94,5,7c0,0,12.082,7.893,4,19,0,0-4.019,6.977-11,5,0,0-6.42,7.068-10,7h-8l-1,12,1,5,2,3,7,2v4l-6,2h-4l-3-3-2-4-6-5h-8l-5,4-2,13,3,2,6,4,2,2,1,4-3,6-6,10-3,5-4,3-6-6-3-8-2-4s-3.76-3.783-8-3c0,0-6.4-2.777-4-17,0,0,1.749-8.541-7-8,0,0-6.551,1.331-6,11l-3,19,2,9-1,10-2,7v5l1,8s-5.547,4.59-9-1l-3-3-3,3-8,9-10,12s-8.318,12.062,1,24l10-4,11-1h5l1,3,7,6,1,2,1,12,6,3,5,3s8.666,2.421,11-8v-9l8-9s7.468-.6,9,3l4,4-2,6s-0.35,5.149,0,6,2,4,2,4l1,3h2l3-3h3l3,3,4,1s6.891-16.543,19-17v3l-2,3,1,7h3l5-1h8l4,9,4,6-1,6-3,6s-0.29,7.464,5,11l5,1,6,4,5,3,5,2,3,7,3,5,1,5-1,6-2,3-1,4-1,7-2,8a50.383,50.383,0,0,1,2,5c0.452,1.619,4,5,4,5l-10,1-2,1-1,3-1,3-1,5v2l4,3,9,6,20,8,3,2,6,3,2,5v1l2-2,1-3,2-2,3,1,4,1,10,3,4,1,8,1,1-1v-9l2-1,7,1,7,3,1,2,4-2,6-2,3-2,2-1v-4l-2-2-5-4v-2l4-5,3-2,2-2,1-6,5-3,1-7-2-7-4-6-5-3-4-2-3-2,1-4,5-6-1-10,1-3,2-5,10-15,12-1,10-6,5-2,11-9,3-11,9,2s2.06,0.353,3-11l2-3v-3s-2.24-4.447-6-4l-2-3s-1.29-1.948,2-3l9-8-1-3-1-4,5-3,7-1,6-1,5-2s4.54-1.841,5-8c0,0,1.43-7.136,5-8l-1-14-1-8-1-16v-4s-5.95-2.428-10-2c0,0-6.6,2.249-10-3l-9-12-11,10h-3l-2-2-4-4-1-6-2-4s-3.61-3.088-7-3h-6l-7-4-7-6-3-3-4-3s-4.875-2.348-8,1l-1,2-8-1-8-3-14-8-9-6-9-5-9-6-6-2-8-1h-2l-2-4-3-5v-3l1-2h6l12-8,2-3a8.826,8.826,0,0,0,0-11l6-7,2-2v-5l-3-2-1-3-2-5s-34.809-2.036-48,6l-6-5-11-8h-2l-5,3Z"/>
  <path id="形状_19" data-name="形状 19" class="cls-1" d="M1364,915l5,1,3-2v-5l1-4,2-4,1-7v-5l2-6,2-5,3-4,7-10,7,1,3-4-1-2,5-3h6l5-4,4-1,2-3h6l7,1,7-6s10.33,1.134,13,6l8-8a3.234,3.234,0,0,1,4,1l17,13s2.98,3.06,0,5l-2,2s-2.73,2.483,1,5l6,3s6.88,0.457,11-2l11-5s3.29-1.984,1-5c0,0-1.43-4.65,1-7l1-3s1.37-2.028,5-1c0,0,5.55-.73,19,4,0,0,5.13,1.071,6-3l2-3,2-1,1-1,1,2a20.567,20.567,0,0,0,8,6s-4.66,4.476,7,11c0,0-13.48,16.577-9,27,0,0,1.32,8.685,25,7a54.169,54.169,0,0,1,12,11h4s13.02-4.162,19,2l9,5,6,5,5,1,7,5s6.29,5.779-2,11l-12,9s-2.88,2.73,0,5l5,5s2.95,1.251,5-1l10-4s7.59-2.895,14,0c0,0,13.63,3.092,20-1,0,0,7.97-1.413,12,4,0,0,4.17,3.17,8,4h3l-4-6-3-5s-4.14-1.643,0-6c0.27,0.133,5-4,5-4l5-5,2-5v-9s2.99-6.125,8-6l8-1s10.75-3.239,12-5l11-9s6.07-2.787,8,1l5,4s1.69,1.713,5-2l7-4,11-8s2.68-2.372-1-4l-3-4a7.243,7.243,0,0,1,1-5l5-10s0.68-2.533,5-1l6,4s1.75,0.231,2-2l-3-10-3-8-12-14-7-8-4-4s13.65-4,14-15l27,2,2-2-2-8-3-5-8-5-2-3,1-3,5-11V759l19-22,1-17s2.34-10.087,7-9c0,0,2.02,5.456,11,7l7,1,9,4h6l5-3,22,1,6-4,5-5,6-7,6-5,7-6,1-6,2-6,1-4,2-3,3-4,2-2,1-7,1-2,1-1,5,1,8-1,5-3,5-2,5-2,6,2,5,2,6,2h3l2-4,2-3,2-2,2-3h5l5,3,11,1,4,7,5,6,4,5s3.79,0.454,5-3l3-5,2-4,1-4,6-2,11-1,6-1,6-4,3-5,3-6,5-4,4-1,4,2,4-1,5-3,1,10,4,16,2,2,7,1s5.5,0.765,7,6l1,18,7,11-4,4-3,15-21,25-2,2-1,7h-5l-24,8s-10.33-2.682-16-8l-3-2h-6l-5,2h-15l-12,5-11,7-6,6-5,6-5,6-3,3-3,4-1,4,2,13v25l2,3,9,13,1,7-3,5,1,10,1,10,3,7s0.87,5.745-5,7c0,0-17.43,12.221-19,17,0,0-10.91,13.952-11,17,0,0-6.18,10.041-12,15,0,0-7.98,8.2-25,12,0,0-11.66,2.681-12,8,0,0-1.68,10.182-10,5,0,0-20.37-15.886-29-10l-6,1s-5.67,2.711-3,7l5,17,2,7,2,9v24l-1,18s-3.88,14.87-13,21c0,0-20.32,7.88-25,15,0,0-22.42,20.17-21,25l-1,14,13,13,8,8s6.96,4.63,2,18l-6,8-6,11s0.32,8.71-9,15c0,0-16.19,12.48-16,16,0,0-7.22,18.2,4,26,0,0,2.85,2.81,11,2a15.45,15.45,0,0,1,6,7s10.31,16.84,12,19c0,0,8.73,7.49,1,13l-7,1s-6.31.88-4,6c0,0,9.36,23.85-4,41a23.837,23.837,0,0,0,11,19l-2,9,7,6s3.25,3.59-4,5c0,0-25.18,3.56-34-3l-16-19-3-5-1-5-3-4-3-1-3-3-2-4s-2.14-6.41-11-8l-15-3s-9.16-13.93-22-13l-12-14-2-11s-4.33-7.7-16-9c0,0-15.25-2.12-20-22,0,0-3.04-13.69-13-19,0,0-12.27-2.16-17-4l-19-11s-4.95.11-4-7l-1-15a30.756,30.756,0,0,0-10-11l-6-9-1-3,1-5a13.267,13.267,0,0,1,7-5s-6.6-11.76-24-5h-8s-17.72-3.91-21-2l-15,5s-5.1.21-7-6c0,0-3.06-17.59-18-13,0,0-10.89,3.59-11-9l-1-6-6-1a11.655,11.655,0,0,1-10,2l-18-4-3-1s-4.1-4.55-3-8l2-6s-2.13-6.19-7-4l-12,9s-6.82-5.65-13-2c0,0-10.26,1.09-11-1,0,0-5.93-4.45-11-4,0,0-4.86-.04-9-7,0,0-13.36-11.89-42-12l-5-8-12,1v-4a12.57,12.57,0,0,0,4-13l-4-12s-8.21-10.53-9-17c0,0-3.06-.34-1-12V986l-6-8,4-5,1-3-19-8,4-18,2-2h4V929s3.94-11.234,8-11c0,0,6.15,9.338,10,11l9,2,11,1,5-11A52.551,52.551,0,0,1,1364,915Z"/>
  <path id="形状_20" data-name="形状 20" class="cls-3" d="M1169,621l-6,5-4,1h-5l-4,2-4,5-7,8s4.82,20.061-14,34c0,0-4.66,7.476-6,12h-4l-6-2-3-1-4-1-4,1-2,2-2,9-2,2h-3l-5,1s-15.76,6.126-17,9c0,0-1.32,14.2-9,15l-17,4s-4.34.354-3,4l1,5s0.84,1.175-3,3l-7,6s-3.63,2.338,2,4l5,4v5l-2,2-2,11h-4l-3-1-2-1-4,11s-16.13,13.643-26,17l-10,1-3,2s-13.784,16.871-11,24v7l-5,6-1,1v4s15.881,5.081,16,12l2,6v5l-2,3-2,2-2,3v4l-4,3s-0.868,3.7,0,5,5,3,5,3l3-1,3-3,4-5,1-4,3-1,2,4,7,1h8l4,1s3.34,1.932,3,2,0,2,0,2l-2,2-8,8-5,6-2,4,1,12s0.035,3.4,8,1h11l5,1,4,2h4l3-2h4l3,5,1,6,1,3-3,5v7l2,5,4,6,4,5,1,6-1,5-1,5,6-1,12-4,5-2s8.79,8.323,44,10c0,0,10.04,4.906,12,12l2,23-19,20-4,2-1,3v4l-4,3s-10.02,1.18-11,6c0,0,0,11.65-7,14,0,0-9.64,5.28-8,13,0,0-.74,12.09,6,13,0,0,25.34,1.33,28,4,0,0,8.08,4.14,9,8l3,11,3,2,5,1v8l3,3-3,4s-1.12,4.67,4,5l8,1,3,4-1,6,19,3,5,3,5,7,5,1h5l4,3,6,9,9,8,2,2,5-2s4.48-1.41,5,2c0,0,.47,6.16-3,11,0,0,1.42,7.82,4,13,0,0,10.36,7.24,4,26l-4,10-10,11s-7.33,8.49-3,13c0,0,11.03,7.95,6,14,0,0-6.13,11.13-6,13,0,0-3.34,14.19-3,17l13,1,18-9h2l4,4,10,10a5.1,5.1,0,0,1,1,6v5s3.52,2.9,10,2c0,0,5.76-1.53,6-4l1-19s-0.66-5.69,7-3c0,0,12.59,8.7,32-1l-1-5,3-4,1-2,9-9,3-6,3-2,2,1,6,1,3-3-2-5-1-4,1-2h9l4-3h4l4,3,1-2-2-14,1-4,17-18-1-2-7-8v-4l1-12-1-4v-5l6-6v-5l-1-8,2-4,6-6,4-5,2-6,3-11,2-6,11-8,9-7,14-10,9-7,4-5,3-5,1-4s-2.38-3.61-6-4c0,0-4.56-1.98-8,0h-8l-3-1s-5.71-4.58-12-4l-4-3-4-4s-12.91-11.9-42-12l-5-7v-1l-12,1v-2s2.78-6.64,4-8c0,0,0-19.2-10-27l-4-10-1-8V986l-5-8,4-6s1.42-1.824-2-3l-16-7,3-13,1-5s2.83-3.281,6-2l-1-13s3.18-8.4,8-12l9,10,3,2,6,1,8,2,4-1s3.77-2.464,4-6l2-4,10-6-1-4-1-5V896l1-10,1-8s0.48-8.98-6-14l-1-2-1-8s-0.77-3.108-5-6l-2-1,1-3a6.859,6.859,0,0,0-5-3s-6.41,8.731-7,13c0,0-12.25,1.937-13,5,0,0-2.62.391-4-1l-7-6-1-7-2-2h-6s-6.01-3.952-5-11l-2-11-3-1-3-1,1-3,2-2-1-1h-3l-1,1-2-4-2-7-1-3v-4l2-2-2-5v-6l3-9,3-10s-5.51.774-7,3c0,0-12.36,12.511-17,13,0,0-10.41,4.434-8-4l5-11s8.88-2.085,15-8c0,0-.07-23.526-8-28,0,0-.41-11.685-5-13,0,0,1.64-22.57-1-27l1-4s4.19-8.48,3-14l-28-16-1-3a69.576,69.576,0,0,0-8,11l-2,4s-2.5,1.891-6-1l-28-20-1-9s-7.9-.839-11-1l-5-4,1-9a1.984,1.984,0,0,0-2-2h-8Z"/>
  <path id="形状_21" data-name="形状 21" class="cls-2" d="M1303,1305l6,1,2,2-1,2-1,2v2h3l4-2,2-1,4-2h10l5-2,7-3,15-8,4-1,4,4,12,16,1,25v12s-1.05,2.73-5,3h-7s-4.02.01-3,4l10,1s2.72-.07,3,6v14s-0.41,1.47,3,4l21,27,10,9,10,1a17.459,17.459,0,0,0,9,4s2.52-.37,2,4l1,18,21-11a18.039,18.039,0,0,1,13,1l6,1,6-1,5-1h4l2,2v9l1,7s2.04,4.88,7,5v-9a6.677,6.677,0,0,1,4-2l5-1,15-7-10-10v-3l2-4s2.72-5.01,7-4l7,4s5.98-.66,5-9l-4-11s-2.45-6.44,2-9l12-8s8.38-3.65,9,2c0,0.61.87,5.74,7,6h6s5.17,0.26,7,4l5,5a7.469,7.469,0,0,0,8,1l13-9s5.15-2.25,6,2c0,0.61,3,6,3,6a4.1,4.1,0,0,0,5-3l10-10s-0.22-2.01-2-2v-4s2.38-4.97,6-6l2-4,2-4v-5l1-3,9-5,8-3,3-3-4-3-5-4-2-1v-8l2-4v-3l-3-3-4-6-2-7,1-6,4-6,6-2,7-3,3-3,1-3,2-7,1-2,6-6,8-2,11-2,10-2h2l-1-5-1-6s-5.44-9.51-17-10c0,0-13.65-2.94-18-16,0,0-3.44-25.46-21-26,0,0-7.95-.32-29-13,0,0-5.22-1.68-4-10v-10a13.144,13.144,0,0,0-4-7l-13-16s-2.73-6.63,1-9l5-4s-4.2-9.22-18-6a26.4,26.4,0,0,1-19,0s-17.11-3.27-23,2c0,0-11.45,6.6-14-4,0,0-4.18-17.24-19-13,0,0-8.37,3.67-10-8,0,0,.71-10.18-8-7,0,0-5.56,5.25-27-4,0,0-8.3,1.6-5-11l1-4-4-3s-3.38-1.4-7,3l-8,6s2.96,7.24-7,16l-25,19-16,12-2,2s-2.83,22.47-18,34v17l-6,5,1,25,7,9-18,20,2,18-3,1-3-3-3,1-4,1-9,1-1,3,3,7-3,4-5-1-3-1-4,5-5,6-7,7-2,5Z"/>
  <path id="形状_22" data-name="形状 22" class="cls-8" d="M932,1230l7-7,1-1,5-1s15.757-4.65,17-13l-1-4s0.116-2.81,5-3h14l21-8s22.31-12.22,34-9h11l11-11,14,7s28.39-8.98,33-13l14-13,18-1,6-4s22.55,0.62,26,9c0,0,1.39,5.95,14,5l6,6,7,9,8,8,5-2,2-1,3,1v2l-1,3v5l-3,3,3,8,5,8,3,6s-0.77,24.13-12,33l-8,9s-2.98,6.38,5,12c0,0,7.77,4.32,0,13,0,0-9.48,19.99-7,28l13-1,17-7h4l14,14v10s-13.05-4.37-14,2v24s-3,3.27-8-1h-9l-4-1-6-3-3,1-5,5-8-2h-4l-5,5-1,27-11,5-7-4-4-2-7-1-5-2-2-5,1-5,5-11s0.75-9.79-6-13l-9,5s-2.52.06-5-4l-12-13s-4.41-5.92-2-12l1-5-2-4v-4l-3-7s-5.06-4.77-16-6c0,0-9.18-10.58-14-10l-15,2-7-8h-13l-5-3-12,1-7-6s-6.56,1.42-9,7l-10,1-14-3-4-4s-7.105-16.39-12-18c0,0-21.917-13.6-29-11,0,0-4.156-3.04-4.9-5.18a1.585,1.585,0,0,1-.1-0.82C939.387,1238.94,932,1230,932,1230Z"/>

</svg>
