<svg id="组_3" data-name="组 3" xmlns="http://www.w3.org/2000/svg" viewBox="0 0 1577 2142">
  <defs>
    <style>

      .cls-1, .cls-2, .cls-3, .cls-4, .cls-5, .cls-6, .cls-7, .cls-8, .cls-9 {
        stroke: #303254;
        stroke-width: 1px;
        stroke: #9d9d9d;
        stroke-width: 1px;
        fill-rule: evenodd;
    fill: none;
    fill-opacity: 0.35;
      }

      .cls-10, .cls-11 {
        font-size: 54px;
    fill: #fff;
    font-weight: 700;
    text-anchor: middle;
    font-family: "Microsoft YaHei UI";
      }

    </style>
  </defs>
  <g id="组_1" data-name="组 1">
    <path id="形状_1" data-name="形状 1" class="cls-1" d="M2011.28,114.6l-6.33,3.163-4.74,4.744-3.17,7.907-2.37,12.652-3.16,9.489-2.37,3.954-3.17.79-5.53-1.581-3.16.791-1.59,3.953-1.58,8.7-0.79,2.373h-3.95l-2.37-3.954-3.96,1.581-3.95,6.326-10.28,20.559-1.58,5.535,0.79,7.117,1.58,4.744,6.33,6.326v3.954l-7.12,8.7-2.37,2.372,0.79,2.372,5.53-1.581h3.96l1.58,2.372v3.954l-3.16,2.372v2.372l-3.96,3.163-3.16,3.954-5.54,1.581-4.74-.791-6.33,3.163-1.58,3.163,2.37,2.372,6.33,3.163,1.58,0.791-6.32,4.745-8.7,1.581-4.75,2.372-3.95.791-0.79,4.744-5.54,3.163-9.48-.79-4.75-1.582-3.95.791V284.6l-2.38,2.372-2.37,1.582,6.33,1.581,12.65,0.791,6.33-.791,0.79,3.954-3.96,4.744L1906.11,302l-0.79,3.163,1.58,3.954h2.37l-0.79,4.744,2.37,5.535v3.954l-0.79,1.581-3.16,2.373,3.16-.791,3.96,0.791,2.37-1.582,3.95-1.581,3.17-1.582s2.47-1.076,2.37-1.581,1.58-2.372,1.58-2.372l1.58-2.373H1933l2.37,1.582,3.16,0.791,3.95,1.581,2.38-.791,3.16-.79,3.95-.791,3.96,0.791,3.16,0.79,4.74,2.373,3.96,2.372,3.95,0.79,1.58,3.163,1.58,3.954,1.59,4.744,0.79,4.745-3.96,3.163v3.163l2.37,2.372,3.96,3.163,2.37,2.372,0.79,1.582,0.79,3.162V362.1l4.75-2.372,3.16-3.163,2.37-1.582h8.7l2.37-2.372,3.96-.791,3.16,0.791,1.58,1.582h3.95l4.75-.791,4.74-2.372,3.17-2.373,3.95-3.162,1.58,1.581,1.58,3.163,5.54,5.535,3.95,1.582,3.95,1.581,3.96,0.791,2.37,3.163v6.326l0.79,2.372-3.95,2.372-3.17.791V378.7l-0.79,2.373-4.74,3.953v1.582l2.37,0.79,5.54,2.373,0.79,1.581,0.79,3.954,0.79,0.79,5.53-.79,4.75-.791,3.16-3.163,2.37-.791,0.79,1.582,2.38,2.372,3.95,0.791,3.16-1.582,3.17-1.581,3.16-3.163,4.74-1.582,7.12-1.581,1.58,2.372,1.58,2.372,2.37,3.954,3.17,0.791,2.37-.791,3.16-3.954v-7.907l1.58-.791,6.33-1.581,0.79,1.581,0.79-1.581V378.7l-1.58-2.372-3.16-.791-2.38-.79v-2.373l1.59-3.953,2.37-4.745,1.58-2.372,5.54-3.953v-2.373l-3.17-2.372-2.37-2.372-0.79-2.372,1.58-1.582,2.37-3.163-0.79-2.372-1.58-.791-1.58,1.582-0.79,2.372-2.37,3.163-1.59,2.372-0.79-1.581,0.79-4.745-1.58-2.372-3.16-1.581-0.79-.791,0.79-3.954v-3.163l-0.79-1.581-2.37-3.163,0.79-2.372,3.16-2.372v-3.954l1.58-1.582,2.37-1.581,2.38-1.582v-5.535l-0.79-3.163L2120.4,302l4.74-1.581,6.33-.791,5.53-.791,1.59-1.581,2.37-1.582h9.49a22.16,22.16,0,0,1,2.37-4.744,22.16,22.16,0,0,0,2.37-4.744l3.95-2.372h3.96l1.58-2.373,9.49-5.535h4.74l3.96-.791,4.74-.79h3.16l3.96,1.581,5.53,1.582h3.17l4.74-3.954s3.47-1.529,3.95-1.581,7.12,0,7.12,0l5.54-.791s3-.612,3.16-1.582,4.74-9.488,4.74-9.488v-3.954l-2.37-3.163,0.79-9.489v-3.954l-1.58-.79-2.37,1.581-3.96.791-2.37-3.163V234l1.58-4.744-2.37-2.372-4.74-.791-3.17-2.372-0.79-4.745V215.81l-3.95-3.162-9.49-4.745h-3.95l-3.96-.791-4.74-2.372-2.37-7.116-3.17-12.652-0.79-5.535-4.74-3.163h-3.96l-6.32.791-6.33,3.163-6.32,2.372h-3.17l-3.95-1.582-0.79-5.535-1.58-7.907-3.96-1.582h-7.11l-4.75,1.582-0.79,2.372-0.79,2.372-2.37,2.373-6.33-1.582-4.74-.791-3.95,2.373-3.96,2.372-6.32.79-5.54-.79-3.16-2.372-2.37-2.373v-3.163l-0.79-1.581h-2.38l-3.16-.791-0.79-3.163-3.95-3.953-0.79-3.954-3.17-8.7-2.37-3.163-3.16-1.582-2.37-.79-5.54-1.582-2.37.791-3.16-2.372-1.59-3.954v-4.744l-1.58-2.372h-3.16l-1.58.79h-1.58l-1.59-1.581-1.58-2.372-1.58-3.163-3.16-1.582-3.16,1.582-5.54,1.581-3.16.791-3.96.791-2.37-3.163-1.58-3.954Z" transform="translate(-944.844 -113.438)"/>
    <path id="形状_2" data-name="形状 2" class="cls-2" d="M1908.48,326.513h-4.74l-5.54,2.372-4.74,4.745L1889.5,336h-27.67l-12.65.79-6.33,1.582-7.91,6.326-4.74,3.163-2.37,3.953-4.75.791-5.53,1.582-1.58-.791-3.17,2.372-3.95,3.163v8.7l4.74,7.117,1.59,3.163-0.79,4.744-3.96,7.907-6.32,7.117-4.75,3.163-3.16,1.581a3.8,3.8,0,0,0-.79,1.582c-0.04.644,0,2.372,0,2.372l3.16,3.163,6.33,3.163,3.16,4.744,2.37,3.954,0.79,6.326,0.79,3.953,3.96,3.954,3.95,2.372,11.07,4.745,5.54,2.372,3.95,2.372s4.18,1.039,4.74.791,7.91,0,7.91,0l4.75,2.372,5.53,2.372,3.95,4.744,1.59,3.163v1.582l4.74,2.372,5.54,4.744,7.11,4.745,3.96,3.954,1.58,0.79v3.163l2.37,1.582,3.16,1.581,3.17,0.791,3.95,0.791,0.79,4.744-1.58,4.744,1.58,3.954,0.79,2.372,3.16,6.326s2.87,0.97,3.17,1.581,3.95,2.373,3.95,2.373h8.7L1933,515.5h4.74l2.37,3.954,2.37,3.953,3.96,3.163,2.37,3.163,2.37,3.954,1.58,2.372v6.326l2.38,3.163,0.79,3.953-0.79,1.582-3.17.791-1.58,1.581,0.79,3.163,1.58,2.372,3.17,1.582,3.95,1.581,2.37,1.582,3.96,2.372,2.37,0.79,3.95-.79s3.17-2.1,4.75-2.372,5.98-.4,6.32-0.791,4.75-.791,4.75-0.791l4.74,3.954,4.75,2.372a35.268,35.268,0,0,1,4.74.791c0.51,0.3,8.7,1.581,8.7,1.581l5.53-1.581,7.12-1.582s2.92-.636,3.16-0.791,6.33,0.791,6.33.791l3.95,0.791,4.75,3.954,1.58,2.372h3.16l2.37,1.581,0.79,5.535v8.7l-4.74,2.373-3.16,1.581-8.7.791-4.75.791-4.74.79-3.95.791-0.79,1.582V600.9l3.95,2.372,3.16,3.163,7.12,1.582s2.89,0.036,3.95,0,12.91,0.263,13.44,0,7.12,0,7.12,0l2.37,5.535,2.38,2.372s2.58,4.178,2.37,4.744-0.79,4.745-.79,4.745l-1.58,4.744-2.38,3.163-2.37,1.581-2.37,4.745-0.79,3.163,0.79,4.744-2.37,3.163-7.12,5.535-3.95,1.582-2.38,2.372-0.79,1.581v2.372l-0.79,2.373-3.95,1.581-2.37,1.582-0.79,3.163v2.372l0.79,3.163,1.58,2.372s2.31,3.225,2.37,3.163a13.886,13.886,0,0,1,0,1.581l-2.37,2.372-4.75.791h-6.32l-4.75-.791h-2.37l1.58,3.954,1.58,2.372,2.38,2.373,3.16,1.581,1.58,0.791v1.581l-0.79.791-2.37,2.372-0.79.791,2.37,1.581s3.26,3.879,3.95,3.954,6.33,3.954,6.33,3.954l2.37,1.581,3.16,0.791,2.38,0.791,0.79-2.373,1.58-3.953h3.16l3.16,2.372,3.17,2.372,3.16,2.372,4.74,3.954s4.73,1.984,4.75,2.372,2.09,3.264,2.37,3.954,2.53,3.812,2.37,3.953a42.422,42.422,0,0,0,1.58,4.745,9.052,9.052,0,0,1,1.59,2.372,27.482,27.482,0,0,0,2.37,3.954l0.79,0.79s3.14,1.154,3.16.791,3.16-1.581,3.16-1.581l3.96-1.582,3.16-1.581s4.27-.7,4.75-0.791,3.95,0,3.95,0h1.58l0.79,3.954,3.16,1.581,3.96,1.582,7.11-.791,2.38-1.582s2.63-1.811,3.16-1.581,3.5-.728,3.95-0.791a28.565,28.565,0,0,0,3.17-1.581s1.96,0.338,2.37,0,3.16,0.79,3.16.79v1.582a3.729,3.729,0,0,1-.79,2.372,9.465,9.465,0,0,0-1.58,2.372l0.79,2.372,2.37,1.582h2.37a7.274,7.274,0,0,0,3.17-.791c1.36-.791,3.91-2.406,3.95-2.372s3.16-.791,3.16-0.791,6.03,0.336,6.33,0a10.867,10.867,0,0,1,3.95-.79c0.45,0.145,3.96,1.581,3.96,1.581l3.16,1.581,2.37,0.791,2.37-.791a7.641,7.641,0,0,0,.8-1.581c0.1-.508.79-3.163,0.79-3.163l1.58-3.954,3.16-2.372,2.37-1.581,3.96-.791s2.45-.52,3.16,0,3.95,3.163,3.95,3.163l3.17,3.163,6.32,4.744,3.16,2.372s2.08,2.037,2.38,2.373,2.37,2.372,2.37,2.372l3.95,2.372,1.58,1.582,3.96,0.79,2.37-.79,3.16,0.79,2.38,2.372,4.74,3.163,3.16,1.582s2.27,1.9,2.37,1.581,3.96-1.581,3.96-1.581l3.95-.791,3.17-1.581s3.31-1.042,3.95-.791a13.752,13.752,0,0,1,2.37,2.372l0.79,2.372,0.79,3.163s2.61-.314,3.17,0,3.95,0,3.95,0a23.065,23.065,0,0,0,2.37,3.163,37.766,37.766,0,0,1,3.16,2.372l7.12,5.536,2.37,0.79,6.33,1.582,3.95,2.372s4.06,1.914,4.75,1.581a63.96,63.96,0,0,1,9.49-1.581,55.133,55.133,0,0,0,6.32-.791l15.03-3.163,4.74-.79,7.91-1.582s7.64-2.061,7.9-2.372a15.007,15.007,0,0,1,3.17-.791,21.815,21.815,0,0,0,3.16-3.163c0.42-.844.79-1.581,0.79-1.581l-1.58-3.163-3.95-5.535-0.79-4.745,1.58-2.372,3.16-.791,5.53-.79,3.17-.791-7.12-7.907-3.16-10.28s-6.77-.469-7.12-0.791-7.12-3.163-7.12-3.163-3.89,2.81-3.95,1.582,0-6.326,0-6.326l1.58-2.372s-1.52.9-1.58-.791,1.33-5.973,2.37-4.744,4.75,1.581,4.75,1.581,4.32-1.406,5.53-2.372a29.481,29.481,0,0,1,4.75-3.163c1.11-.457,4.72-1.136,4.74-2.372a40.569,40.569,0,0,1,.79-4.744,25.359,25.359,0,0,0-.79-5.536c-0.64-1.737-2.37-5.535-2.37-5.535l-0.79-3.163-1.58-1.581s-1.72-1.089-2.37-1.582-2.38-3.953-2.38-3.953h-3.16l-2.37,3.163-3.17-.791s-1.46-2.771-1.58-3.163-1.58.791-1.58,0.791l-3.16-3.954-4.75-5.535-4.74-7.907-1.58-7.117-2.37-6.326V645.969l-4.75-.791-2.37-1.582-1.58-2.372,2.37-2.372,3.95-3.954v-2.372l-3.95-2.372-6.33-3.954-7.11-2.372-4.75-2.372-1.58-1.582-0.79-4.744-1.58-1.581s-2.67.022-2.37-.791,3.95-4.744,3.95-4.744a37.77,37.77,0,0,1,4.75-.791,17.546,17.546,0,0,0,3.16,0l1.58-2.372,0.79-1.582a21.982,21.982,0,0,0,.79-2.372,29.681,29.681,0,0,0,0-3.163s-1.12-.612-1.58-0.791a10.33,10.33,0,0,0-2.37,0l-1.58.791h-0.79l-2.38-.791s2.06-2.186,2.38-2.372,2.5-.938,2.37-1.581a25.08,25.08,0,0,1,0-3.163s-0.22.43,0.79-.791a41.775,41.775,0,0,1,3.16-3.163l0.79-1.581s-2.92-3.048-3.16-3.954-3.95-4.744-3.95-4.744l-3.17-.791-1.58-.791,0.79-3.163-1.58-3.163-6.32-2.372h-3.17l-3.16-.791s-1.62-.851-1.58-1.581a16.792,16.792,0,0,0-.79-3.163l2.37-2.372,0.79-3.954V549.5l-2.37-4.744-2.37-3.954,1.58-3.163,2.37-2.372s2.09-.545,3.16-0.791a65.95,65.95,0,0,1,9.49,0c0.08,0.209,3.98.472,4.75,0s8.69-3.953,8.69-3.953a2.758,2.758,0,0,1,.79-1.582c0.69-.6,4.75-4.744,4.75-4.744a54.833,54.833,0,0,0,4.74-6.326c1.39-2.445,4.75-3.954,4.75-3.954a3.315,3.315,0,0,1,2.37,0c1.3,0.489,3.95,1.582,3.95,1.582l4.75,0.791h2.37l0.79-1.582v-1.581l-2.37-3.954-2.37-3.163-0.79-1.581,0.79-1.582,3.95-2.372s5.1-3.373,5.53-3.954,6.33-1.581,6.33-1.581l3.95-1.582,3.96-3.953,3.95-2.372s2.56-.122,3.16-0.791,3.17-3.954,3.17-3.954l3.95-3.163s2.64-1.223,3.16-2.372a17.5,17.5,0,0,1,2.38-3.954,5.814,5.814,0,0,0,1.58-2.372,6.5,6.5,0,0,0-.79-2.372c-0.49-.721-3.01-1.309-3.17-1.581a15.492,15.492,0,0,0-3.16-.791l-2.37-1.582s-2.65-4.225-2.37-4.744-0.28-1.724,0-3.954a46.2,46.2,0,0,0,0-5.535c0.04-1.679-.05-3.056,0-3.954s1.64-3.488,1.58-5.535-3.16-4.744-3.16-4.744l-4.75-4.744-2.37-.791-3.16-1.582,0.79-3.953,3.95-3.954,4.74-3.163,3.17-3.163-0.79-3.953-5.54-3.163-7.91-.791-5.53-.791-13.44-8.7-7.91-6.326-2.37-3.163-3.96-4.744s0.09-1.961,0-3.163,0.79-9.489.79-9.489v-7.116l-0.79-2.373-10.28-4.744-9.48-.791s-3.91-1.1-4.75-.79a43.186,43.186,0,0,0-3.95,2.372h-3.17l-3.16-.791s-2.75-.76-2.37-1.581,0-3.954,0-3.954l-3.16-5.535-3.96-2.372-3.16.79s-2.37-3.2-2.37-3.953v-6.326l-1.58-7.908-3.17-7.907-5.53-8.7s-2.56-5.019-2.37-5.535-0.75-7.481-1.59-7.907-3.95-7.117-3.95-7.117a38.513,38.513,0,0,0-2.37-3.953c-0.63-.685-3.96-3.954-3.96-3.954l-3.16-3.954-5.53-2.372-3.96-1.581-6.32.79-3.17-.79-4.74.79s-2.03,1.953-2.37,2.372-4.75,3.163-4.75,3.163l-3.16-.79-3.95-1.582-3.17-1.581h-4.74l-3.95.79h-3.17l-9.49,3.163-4.74,3.163-1.58,1.582-0.79.791h-2.37l-3.17.79-2.37,2.372-2.37,4.745-1.58,3.953-2.38.791-3.95-1.581-3.95.79-2.38,1.582-1.58,1.581h-3.16l-6.33,1.582-2.37.791-3.95,1.581a30.166,30.166,0,0,0-2.37,3.163c0.08,0.168.79,6.326,0.79,6.326l-0.79,1.581-3.17,1.582-2.37,3.163-0.79,3.163-1.58,1.581s-1.64,3.385-1.58,3.954,3.16,4.744,3.16,4.744V336l-0.79,3.163,2.37,1.581,2.37,0.791,0.79,3.954-0.79,1.581,1.59,0.791,3.16-3.163,1.58-3.954,0.79-.791,1.58,1.582,0.79,0.791-0.79,3.163-3.16,1.581v2.372l2.37,2.372,3.96,3.954v3.163l-2.38,1.581-3.16,1.582a18.581,18.581,0,0,0-2.37,3.163c-0.25.791-3.17,6.326-3.17,6.326v3.163s2.85,0.762,3.17.79,3.95,2.373,3.95,2.373l0.79,1.581-0.79.791-3.95.791h-4.75l-1.58,1.581v10.279s-1.75,1.273-2.37,1.582a23.161,23.161,0,0,1-3.16.791l-3.17-1.582-3.16-5.535-2.37-1.581h-2.37l-7.12,1.581s-0.33-.3-1.58.791-3.16,2.372-3.16,2.372l-3.96,3.163-3.16.791s-3.01.821-3.16,0a24.4,24.4,0,0,0-2.38-3.954l-1.58-.791-3.16,2.372a2.934,2.934,0,0,0-2.37.791,7.939,7.939,0,0,1-3.17,1.582l-3.16.79-3.16.791-1.58-1.581v-3.954l-0.79-1.581-2.38-1.582-3.95-.791-1.58-.79,0.79-2.373s3.05-1.063,3.16-1.581,0.79-2.372.79-2.372,0.33-.713.79-1.582a12.125,12.125,0,0,0,.8-2.372s-1.15-1.154,0-1.581,4.74-1.582,4.74-1.582l1.58-.791a4.324,4.324,0,0,1,0-1.581,14.37,14.37,0,0,0,0-3.163c-0.09-1.581.54-2.257,0-2.372a2.25,2.25,0,0,1-1.58-2.372c0.02-1.6-2.37-3.954-2.37-3.954s-3.05-.542-3.96-0.791-7.11-3.163-7.11-3.163-1.11.947-2.38-1.581-1.09-4.124-2.37-5.535a25.68,25.68,0,0,0-3.95-3.163,24.6,24.6,0,0,1-2.37,2.372c-0.73.513,0.51,0.5-1.58,1.581s-2.31,2.528-3.17,2.373-4.55,1.279-4.74,1.581-2.97.487-3.16,0.791-5.78,1.617-6.33.791-0.8-2.332-1.58-2.373-3.17,0-3.17,0l-0.79.791-3.95.791a22.188,22.188,0,0,1-3.16,1.581c-0.14-.144-7.12,0-7.12,0l-3.16,3.163-4.75,3.954-2.37.791v-5.535l-0.79-2.373-3.16-3.163-3.17-1.581-2.37-2.372v-2.372l2.37-1.582,1.59-1.581s-1.04-1.619-.79-2.373-1.59-8.7-1.59-8.7-0.46-.34-0.79-2.372a22.417,22.417,0,0,0-1.58-4.744l-3.95-.791-4.75-1.581s-2.68-3.141-3.16-3.163-6.32,0-6.32,0-2.44-.2-3.17-0.791a5.054,5.054,0,0,0-3.16-.791c-0.51.2-3.95,1.582-3.95,1.582a2.469,2.469,0,0,1-.8.79,5.02,5.02,0,0,1-3.16,0c-0.42-.36-3.29-1.216-3.95-1.581s-2.72-1.439-3.16-1.582a23.349,23.349,0,0,0-3.17,0l-2.37,1.582-1.58,2.372a6.228,6.228,0,0,1-1.58,2.372c-0.81.442-2.38,1.582-2.38,1.582h-2.37l-2.37,1.581-2.37.791s0.84,1.015-.79.791a17.284,17.284,0,0,1-3.17-.791h-2.37Z" transform="translate(-944.844 -113.438)"/>
    <path id="形状_3" data-name="形状 3" class="cls-3" d="M2363.94,477.543l-4.74,3.163-2.37,1.581-0.79,2.372-4.75,2.373-3.95,1.581-2.37,2.372-1.58,2.372-5.54,1.582-3.16.791-3.17.79a39.545,39.545,0,0,1-3.95,3.954c-0.86.494-4.74,3.163-4.74,3.163V506.8s3.56,5.74,3.95,7.116a2.479,2.479,0,0,1-.79,2.373h-3.95l-7.12-2.373-1.58.791-2.37,1.582-3.17,2.372-3.16,4.744s-5.4,4.483-5.54,4.745-3.95,3.162-3.95,3.162l-6.33,3.163-5.53-.79-7.91.79-3.16.791-3.95,4.745v3.953l3.16,0.791,0.79,6.326v5.535l-1.58,3.954,0.79,4.744s3.66,1.089,4.74.791a24.481,24.481,0,0,1,4.75,0l4.74,3.953,1.58,3.954-0.79.791h3.96l3.16,3.953,1.58,3.954,2.37,0.791v2.372l-3.16,2.372s-0.46.5-.79,0.791a30.456,30.456,0,0,0-1.58,3.954,2.5,2.5,0,0,0-1.58.79c-0.49.676-3.17,3.163-3.17,3.163l3.96,0.791,2.37-.791,3.16,0.791,0.79,2.372-0.79,3.163-1.58,1.582-0.79,2.372h-7.91l-3.16,3.163-1.58,3.163,3.95,1.581a5.254,5.254,0,0,0,0,2.372c0.34,0.778.79,2.372,0.79,2.372l6.33,3.954,6.32,3.163,6.33,4.744h2.37l2.37,3.163-2.37,2.373-2.37,2.372a5.593,5.593,0,0,0-.79,2.372c-0.09,1.3,1.58,3.163,1.58,3.163l4.75,1.581s1.58,1.106,1.58,2.373,0,7.116,0,7.116,1.06,7.19,1.58,7.907,3.16,7.117,3.16,7.117l0.79,3.163,4.75,5.535,5.53,7.117,4.75,3.163,2.37,1.581,2.37-2.372,3.16-.791,2.38,3.954s4.75,3.086,4.74,3.954,1.58,8.7,1.58,8.7l1.58,3.163s-1.5,4.2-1.58,4.744-3.95,3.163-3.95,3.163l-3.17,1.581-3.95,2.372s-2.24-.065-3.16,0-3.17,0-3.17,0l-3.16.791s-1.1,3.8-.79,5.535a31.2,31.2,0,0,1,0,5.535l3.16,2.373s4.88-.308,5.54,0,4.98,0.369,5.53.79a32.133,32.133,0,0,0,3.17,1.582l2.37,4.744,4.74,8.7a7.578,7.578,0,0,0,1.59,2.372,7.713,7.713,0,0,0,2.37.791l0.79-3.163s-2.26-4.235-1.58-4.744,2.63-2.8,3.16-3.163,1.04-3.481,2.37-.791a44.784,44.784,0,0,1,2.37,6.326c0.32,0.889,4.75,2.372,4.75,2.372l3.95-.791,7.12-.79s2.83,0.053,3.16,0a30.672,30.672,0,0,0,3.96-1.582c0.75-.431,3.95-1.581,3.95-1.581h5.53l7.12-3.163,0.79-2.372v-5.535l-2.37-4.745-3.95-2.372-1.59-2.372,0.79-4.745,3.17-2.372,3.16-1.581,2.37-3.163s0.21-3.63.79-3.954,5.06-1.331,5.54-1.581,3.16-1.582,3.16-1.582l2.37-2.372,0.79-2.372a5.546,5.546,0,0,1,0-2.372c0.34-.6,0-3.954,0-3.954l1.59-2.372s0.94-1.8,1.58-1.582,2.37,3.954,2.37,3.954l1.58,2.372,8.7,0.791s4.98-.945,5.53,0,3.89,2.218,5.54,1.581,3.09-.191,3.95-0.79a5.42,5.42,0,0,1,3.17-.791,21.231,21.231,0,0,1,3.16,3.163c0.27,0.5,2.59.258,3.16,0a3.486,3.486,0,0,1,1.58-.791c1.41-.372,3.57-1.132,4.75-1.581s5.44-2.637,6.32-2.372,5.54,0.79,5.54.79l3.95-2.372,1.58-6.326,0.79-3.953s-0.03-1.413,0-3.163a28.847,28.847,0,0,1,.8-4.745,20.891,20.891,0,0,1,1.58-4.744c0.37-.706,1.95-2.3,2.37-3.163a6.5,6.5,0,0,1,1.58-2.372,45.826,45.826,0,0,0,3.16-3.954l1.58-1.581s-1.25-8.835-.79-9.489,2.38-7.117,2.38-7.117l3.16-5.535,1.58-3.163h2.37l-0.79-1.581s-0.5-3.014-1.58-3.163a15.454,15.454,0,0,1-4.74-2.372c-1.01-.793-3.59-2.893-3.96-3.954s-1.58-3.954-1.58-3.954v-2.372l3.16-.791s3.6,2.61,4.75,2.372,3.29,0.69,3.95,0a12.333,12.333,0,0,1,2.37-1.581l1.59-1.581s2.08-1.565,3.16-1.582a17.326,17.326,0,0,1,3.95,0,7.413,7.413,0,0,0,3.17,0c0.74-.167,3.16-3.163,3.16-3.163a6.754,6.754,0,0,0,.79-2.372c-0.04-.814-1.58-5.535-1.58-5.535a13.77,13.77,0,0,0-1.58-3.163,35.361,35.361,0,0,0-4.75-4.744c-1.33-1.245-5.74-3.118-6.32-4.745a4.664,4.664,0,0,0-2.38-2.372s-4.87,1.288-5.53.791-3.25-.779-4.75-2.372-6.02-.511-6.32-3.163-0.53-2.089-.79-3.954a12.358,12.358,0,0,0-1.58-3.954l-9.49-2.372-3.96-2.372-10.28-10.28s-4.52-3.983-4.74-4.744-12.65-5.535-12.65-5.535-2.77-2.431-3.16-2.372a10.686,10.686,0,0,1-3.17,0c-1.3-.243-4.79-0.813-5.53,0s0.44,1.9-1.58,1.581-10.28-1.581-10.28-1.581-2.9-2.766-3.96-3.163-3.23-2.387-3.95-2.373a8.177,8.177,0,0,1-2.37-.79l-2.38,4.744s-1.15,2.8-1.58,3.954a38.694,38.694,0,0,0-.79,5.535l-2.37-2.372s-2.35-4.539-2.37-5.535a63.027,63.027,0,0,0-1.58-6.326l-1.59-3.954a19.339,19.339,0,0,1,.8-3.163,21.4,21.4,0,0,1,3.16-3.163l2.37-1.581a6.2,6.2,0,0,1,0-3.163,43.044,43.044,0,0,1,1.58-4.745c0.81-2.5,1.82-5.933,2.37-6.325s2.61-3.068,3.17-3.163a25.512,25.512,0,0,0,3.16-1.582,1.792,1.792,0,0,0,1.58-1.581c0.18-1.456,0-8.7,0-8.7l-0.79-5.535-3.95-2.373-3.96.791-7.9-.791-4.75-1.581s-2-.748-2.37,0-5.54,1.581-5.54,1.581a3.883,3.883,0,0,1-3.16,1.582c-1.93-.153-4.74-2.372-4.74-2.372l-7.12-7.117-4.74-6.326Z" transform="translate(-944.844 -113.438)"/>
    <path id="形状_4" data-name="形状 4" class="cls-1" d="M2015.23,687.087l-3.16-2.372-4.75-3.163h-8.69l-5.54.79h-6.32a21.3,21.3,0,0,1-3.17,0c-0.86-.15-6.38-1.5-7.11-1.581s-3.19-.558-4.75-0.791-6.54,1.7-7.12,1.582a39.446,39.446,0,0,0-4.74,0c-0.65.074-4.74,1.581-4.74,1.581h-3.17l-3.16.791h-3.95l-5.54,2.372-0.79,2.372v4.745l-3.95,4.744-2.38,2.372-3.95,2.372-3.16,1.582s-0.96.908-1.58,1.581-5.54,4.745-5.54,4.745a6.1,6.1,0,0,1-1.58,2.372c-0.87.543-2.37,3.954-2.37,3.954l-0.79,3.162v1.582s-0.29,1.5-.79,1.581a5.063,5.063,0,0,0-2.38,1.582c-0.39.672-3.95,3.163-3.95,3.163l-3.16.79-3.96,1.582h-1.58l-0.79,3.954-1.58,3.162s-0.99,1.549-1.58,1.582-2.37,0-2.37,0l-2.38,1.581-3.16,3.954-1.58,2.372-3.16.791-3.17,2.372-6.32,2.372-2.37.791-0.79,3.954-3.17,3.163-3.16,1.581-3.95,3.163-3.96,2.372h-4.74l-5.54.791-3.95-.791-4.75,1.582s-3.41,1.368-3.95,1.581-3.95,1.582-3.95,1.582-1.11,1.769-1.58,2.372-2.38,2.372-2.38,2.372l-3.16,1.582-2.37.79-3.96.791s-3.78,1.547-3.95,1.582-1.02.98-1.58,0.79a7.132,7.132,0,0,0-3.16,0c-0.43.282-2.51,0.544-3.17,0.791a30.047,30.047,0,0,1-4.74,0,26.659,26.659,0,0,0,0,3.163c0.12,0.86.04,3.531,0.79,4.744s2.84,5.869,3.16,6.326,1.97,6.152,2.38,6.326,3.18,3.485,3.16,3.954,1.58,2.372,1.58,2.372-0.29,2.211,0,2.372-0.79,2.372-.79,2.372a15.683,15.683,0,0,1-2.37,1.582c-0.71.267-3.07,0.276-3.17,0.791s-3.16,2.372-3.16,2.372-1.06,2.235-.79,3.163-0.18,2.566,0,3.163a39.4,39.4,0,0,1,0,4.744c-0.01.95,0,2.372,0,2.372l-0.79,1.582h-3.16l-2.38,2.372s-0.53,1.08-.79,1.581-0.5,3.347,0,3.954a23.079,23.079,0,0,1,1.58,3.163s1.51,2.934,1.59,3.163,2.37,6.326,2.37,6.326a35.315,35.315,0,0,1,1.58,3.953,49.055,49.055,0,0,1-.79,7.117c-0.07.014-2.55,5.317-2.37,5.535a33.743,33.743,0,0,1,0,6.326c-0.2,2.389.2,7.171,0,8.7s-1.01,4.8-.79,6.326a8.115,8.115,0,0,1,0,3.953,4.043,4.043,0,0,1-1.59,2.373c-0.75.487-3.84,1.165-3.95,1.581s-5.3,1.708-5.53,1.582-1.96.315-2.38,0a12.014,12.014,0,0,0-2.37-.791l-0.79.791,2.37,2.372s4.68,1.862,4.75,2.372,3.4,2.228,3.95,3.163,2.18,0.907,3.16,1.581,6.33,0.791,6.33.791h4.74s4.29-.993,4.75-0.791a13.814,13.814,0,0,0,3.95,0c0.28-.175,2.37-2.372,2.37-2.372a7.539,7.539,0,0,0,2.38-2.372c1.2-1.756,5.24-5.066,5.53-5.535s2.54-1.443,3.16-2.372a14.99,14.99,0,0,1,3.96-3.163,22.829,22.829,0,0,0,3.95-1.582c0.84-.527,3.96-2.372,3.96-2.372s7.86,0.043,8.69,0,7.15,1.507,7.91,1.581a86.3,86.3,0,0,1,8.7,3.163c0.18,0.216,4.4,1.248,4.74,1.582s5.54,2.372,5.54,2.372a34.733,34.733,0,0,0,5.53,2.372c1.36,0.216,6.33,3.163,6.33,3.163l3.95,2.372a33,33,0,0,0,2.38,3.163c0.41,0.3,3.95,1.582,3.95,1.582l4.74,0.791s2.91-.262,3.17-0.791a54.55,54.55,0,0,1,3.95-3.954l3.95-3.163s3.03-1.891,3.17-2.372,3.95-2.372,3.95-2.372,10.12-2.1,10.28-2.372,3.38,1.354,4.74,1.581,6.36,0.788,7.12.791,2.61,1.437,3.95,2.372,1.52,2.015,2.38,2.372,3.95,1.582,3.95,1.582l8.7-.791s2.9-.959,3.95-0.791a53.345,53.345,0,0,0,5.54,0c0.15-.021,1.03.564,1.58,0.791s1.58,0.791,1.58.791v6.326s1.74,4.011,1.58,4.744,1.44,2.643,1.58,3.954,0.79,3.953.79,3.953,0.08,7.695,0,7.908,0.79,5.535.79,5.535,2.53,4.844,2.38,5.535,2.96,4.337,3.95,5.535,2.37,3.163,2.37,3.163,4.46,2.532,4.75,3.163,3.93,2.863,3.95,3.163,4.75,4.744,4.75,4.744l4.74,2.372s3.41,0.657,3.95.791a49.41,49.41,0,0,0,5.54-.791h7.91s3.07,3.041,3.16,3.163-0.28,7.031,0,7.117a20.518,20.518,0,0,1,1.58,3.163l2.37,1.581h3.96l5.53-1.581,3.16-1.582,6.33-3.163,3.16-3.163s2.41-1.573,3.17-1.581,7.11,0.791,7.11.791l5.54,0.79s3.82-.393,4.74,0,4.75,1.582,4.75,1.582,1.32,2.7,1.58,3.163,0.79,6.326.79,6.326a33.386,33.386,0,0,0,1.58,4.744c0.53,0.816,3.16,4.744,3.16,4.744l2.37,1.582,3.96-.791s2.75,0.038,3.16,0,4.28-.718,3.96,0a9.878,9.878,0,0,0,0,3.163l1.58,1.585,1.58-2.376,6.32-3.953s4.85-2.55,5.54-1.582,5.33,4.65,6.32,4.745,9.76,0.166,10.28,1.581,8.7,6.325,8.7,6.325,18.03,4.87,18.19,4.75,7.12,3.16,7.12,3.16,5.37,1.81,6.32,2.37,3.22,2.59,3.96,3.16,7.9,5.54,7.9,5.54a67.477,67.477,0,0,1,5.54,4.74,73.616,73.616,0,0,0,9.49,7.12c0.74,0.18,10.28,7.12,10.28,7.12l7.11,7.11s17.36,12.12,18.98,14.24,12.28,10.27,14.23,11.86,17.4,14.23,17.4,14.23,18.18,14.93,18.98,15.81,8.7,8.7,8.7,8.7l3.95,1.58,11.07,0.79h26.09l31.63-178.7,3.17-19.768,2.37-18.187s2.65-11.022,2.37-15.024,2.06-13.6,2.37-15.024,6.33-25.3,6.33-25.3l3.16-9.489,1.58-11.861-4.74-16.605s-3.67-7.538-3.96-8.7-4.74-6.326-4.74-6.326l-7.91-3.163s-4.87-4.686-6.32-6.326-5.54-7.116-5.54-7.116l-1.58-1.582-7.12,4.745-12.65,2.372-10.28,1.581-5.53,2.372-11.07.791s-4.8,1.743-5.54,1.582-4.74.79-4.74,0.79-2.95-.173-3.96-0.79-3.7-1.025-3.95-1.582-3.92-.63-4.74-1.581-2.98-.539-3.96-1.582-5.6-3.063-6.32-3.953-3.53-2.913-3.96-3.954-2.25-2.548-3.16-3.163a6.263,6.263,0,0,0-3.16-1.581c-1.4-.1-3.96,1.581-3.96,1.581a9.634,9.634,0,0,1-1.58-2.372c-0.12-.676-1.22-2.822-1.58-3.954a2.8,2.8,0,0,0-1.58-1.581l-3.95-1.582-3.96,3.163-5.53,1.582h-4.75s-2.72-3.29-3.95-4.745-6.33-3.953-6.33-3.953-5.31.356-5.53,0-1.55.242-2.37,0-12.66-10.28-12.66-10.28l-6.32-5.535-8.7-6.326-3.95-.791-5.54,1.582-3.16,3.953s-1.44,2.766-1.58,3.163-0.52,3.284-.79,3.954-3.96,2.372-3.96,2.372l-2.37-1.581s-1.87-1.557-3.16-1.582-4.3-.872-5.54-0.79-5.81,1.157-6.32.79-2.51.139-3.17,0-2.46.9-3.16,1.582a31.363,31.363,0,0,1-4.74,2.372h-3.17l-1.58-1.582-0.79-2.372,1.58-3.163v-3.953h-3.95l-4.75.79a16.1,16.1,0,0,1-2.37.791c-0.8.142-5.56,0.965-6.32,1.582s-3.17,2.372-3.17,2.372a9.184,9.184,0,0,1-2.37.791c-0.59-.033-4.74-0.791-4.74-0.791s-2.6.06-3.17-.791-0.99-3.63-1.58-3.954-3.95-1.581-3.95-1.581h-7.12l-4.74,2.372-5.54,3.163a1.23,1.23,0,0,1-1.58,0,38.937,38.937,0,0,1-3.95-3.163c-0.09-.2-1.8-3.9-2.38-5.535s-2.78-4.3-3.16-5.535a46.713,46.713,0,0,0-3.16-5.535l-4.75-3.954s-9.25-5.481-9.48-6.326-2.56-4.092-3.17-3.953-3.95.79-3.95,0.79l-1.58,3.163-2.37,2.373a33.165,33.165,0,0,0-3.96-1.582c-0.86-.15-4.96-3.873-5.53-3.954s-4.23-2.932-4.75-3.162a33.51,33.51,0,0,1-3.16-3.163l-2.37-.791,4.74-3.954-2.37-3.163-3.95-.79-1.59-2.373-3.16-5.535v-1.581Z" transform="translate(-944.844 -113.438)"/>
    <path id="形状_5" data-name="形状 5" class="cls-4" d="M1819.13,352.607v-7.116l-3.95-5.536-5.54,1.582-9.49,3.954-3.95,3.162-3.16,1.582-2.38-.791-3.95-2.372-1.58-4.744,2.37-4.745-0.79-2.372-3.95-2.372-7.12-.791-5.54-1.581-3.95,4.744-0.79,7.117-4.74.79-3.17-.79s-0.57.491-2.37,0-4.74.79-4.74,0.79-3.06,6.138-3.96,6.326-1.35,1.737-2.37,2.372-2.37,3.954-2.37,3.954l-0.79,3.163-0.79,1.581-5.54,3.163h-11.86l-3.16-2.372-4.75-7.907-0.79-3.163-0.79-3.954s-1.8-1.626-1.58-2.372-1.58-3.163-1.58-3.163l-3.95-.791-5.54,2.373-3.16.79h-10.28l-5.54-.79-5.53-.791a32.147,32.147,0,0,0-4.75-2.372c-1.58-.48-5.53-1.582-5.53-1.582h-3.17l-0.79,3.954,0.79,4.744,2.38,0.791-0.79,3.163-1.59,1.581-1.58.791-0.79,5.535V362.1l-1.58,2.372-5.53.791-13.45-3.954-3.16-.791-1.58-3.162-0.79-3.954-2.37-2.372-3.17.79s-1.32-.06-1.58-0.79-6.32-8.7-6.32-8.7l-5.54-7.908-3.16-3.163-5.54-1.581-2.37.791-3.16,2.372-2.37,1.581-3.17-.79-3.95-2.373-1.58-.79a23.443,23.443,0,0,1-2.37,0c-0.87-.075-3.17,1.581-3.17,1.581l-1.58,3.163-0.79.791-2.37,1.581h-2.37L1574,334.42l-2.37-2.372v-2.372l-3.95-3.163-3.17-.791h-4.74l-8.7.791h-2.37l-2.37.791-4.75-1.582-3.95-2.372-1.58-.791,0.79,7.117,3.16,1.581,3.16,3.954s2.9,1.845,4.75,1.581,6.32-.79,6.32-0.79l3.96,1.581,3.95,2.372,1.58,2.373v1.581l-2.37,1.582-3.95,1.581-3.96,3.954s-0.88,4.413-.79,4.744,1.67,1.848,2.38,3.163,4.74,3.954,4.74,3.954l3.16,3.163,0.79,2.372v5.535l-0.79,1.581-0.79,3.163v11.071l-2.37,2.372-3.16,1.581-3.96,2.372-1.58,2.373v4.744l0.79,1.581,4.75,0.791,5.53,0.791,5.54-1.582s3.1-.656,3.95-0.79,6.33-1.582,6.33-1.582,3.09-.2,3.95.791,2.56,2.02,2.37,3.163,0,6.326,0,6.326a54,54,0,0,1,.79,5.535c0.02,1.39-.84,9.229,0,11.861s2.41,5.3,2.38,7.116,2.29,5.449,2.37,7.117,1.67,8.1,2.37,8.7,2.48,4.256,3.16,6.326,2.82,5.108,3.17,6.326,2.24,4.29,2.37,4.744,0.79,3.163.79,3.163l-1.58,2.372-4.75,3.954h-2.37l-1.58,5.535s-1.59,4.741-2.37,5.535a49.288,49.288,0,0,0-3.17,4.745l-3.16,2.372-1.58-.791,0.79-5.535-1.58-.791-2.37-.79-4.75,3.953-3.16,2.372-1.58,2.373a33.377,33.377,0,0,0,.79,3.953c0.24,0.378,2.37,3.954,2.37,3.954l-1.58,2.372h-2.37l-6.33-2.372-4.74-2.372-4.75-.791h-3.95l-3.16.791h-2.38l-4.74,3.163s-1.11.729-.79,1.581a55.115,55.115,0,0,1,.79,5.535l-1.58,3.163h-3.17l-3.95.791-2.37,3.163-0.79,3.163s1.14,3.884.79,4.744,0,7.117,0,7.117l-2.37,1.581-6.33,7.117s-2.31,6.718-2.37,7.907a29.667,29.667,0,0,1-.79,3.954l-0.79,3.953,3.16,3.163,3.95,1.582s14.33,1.611,14.24,2.372,5.53,3.954,5.53,3.954l0.79,3.163-0.79,5.535s-3.77,3.8-3.95,4.744-2.5,6.486-3.16,7.117-5.54,7.116-5.54,7.116l-0.79,1.582-3.95.79s-3,1.329-3.17,2.373a14.546,14.546,0,0,0,.79,3.953l3.17,0.791v1.581l-3.96.791-2.37,2.372V617.5l0.79,3.954,1.58,3.954s2.34,7.884,3.17,8.7,4.74,5.535,4.74,5.535l4.74,1.581h8.7l7.91-.791h1.58a11.748,11.748,0,0,1,2.37,4.745c0.47,2.515,1.55,8.91,3.17,8.7a22.288,22.288,0,0,1,3.95,0h3.16a33.343,33.343,0,0,1,3.96-3.163c0.66-.2,3.52-2.056,4.74-2.372s6.96-1.94,7.91-2.372a38.14,38.14,0,0,1,3.95-1.582,45.332,45.332,0,0,0,4.75,0,11.037,11.037,0,0,1,3.16-.791c0.53,0.116,3.16-1.581,3.16-1.581l3.17-.791,3.95,0.791,1.58,5.535,4.75,9.489,3.16,2.372,11.07-.791,4.74,0.791,0.79,3.954a12.577,12.577,0,0,0-1.58,2.372c-0.09.533-.9,2.387,0,2.372s5.54,0.791,5.54.791,5.93,1.149,7.11,1.581a8.188,8.188,0,0,1,3.96,2.373c1.05,1.377,5.04,3.378,5.53,3.953s4.75,3.954,4.75,3.954l2.37,1.581,3.16,0.791,3.96-2.372,4.74-.791,3.95,1.582,4.75-.791,4.74-3.163,1.58-3.163-0.79-3.163-2.37-2.372v-3.954l1.58-6.326s2.18-2.862,2.37-3.163,4.75-4.744,4.75-4.744,1.41-2.056,1.58-2.372,0.79-3.163.79-3.163l0.79-2.372,2.37-4.745a22.435,22.435,0,0,1,.79-2.372c0.41-.934,1.52-3.07,2.38-3.163a48.405,48.405,0,0,1,5.53.791s17.84,1.393,18.19,1.581,7.42,2.4,8.7,2.373,7.9-.791,7.9-0.791l14.24-4.745s7.15-2.29,7.91-2.372,8.69-1.581,8.69-1.581h3.17l3.95-2.372,2.37-1.582v-3.954l-0.79-2.372-2.37-1.581v-1.582l1.58-1.581,3.16,1.581,3.17,0.791,3.95-1.581s2.94-1.4,3.16-2.373,3.17-3.162,3.17-3.162,8.14-3.544,9.48-3.163,6.43-3.555,7.12-3.163,3.95,3.163,3.95,3.163l1.59,8.7,3.16,6.325,3.16,3.163s0.57,0.568,1.58,1.582,2.4,2.913,2.38,3.954a11.982,11.982,0,0,0,.79,3.162l2.37,1.582,5.53-1.582s2.7-.034,3.96,0,5-.365,5.53,0,3.96,3.163,3.96,3.163l4.74,1.582s4.22,0.818,4.74.791,4.75,0.79,4.75.79l4.74,0.791,3.96,1.581s2.49-2.383,3.16-2.372a37.122,37.122,0,0,0,4.74-1.581l5.54-2.372,3.95-.791,2.38,2.372,0.79,4.744a1.761,1.761,0,0,1,.79,1.582,11.058,11.058,0,0,1-1.58,3.163s-1.49-1.022-1.59,0,0,3.954,0,3.954l-0.79,3.162a12.463,12.463,0,0,0-2.37,2.373c-0.41.821-.43,1.766-1.58,2.372s-6.33,5.535-6.33,5.535l-5.53,3.163-1.58,3.163,1.58,3.954a3.949,3.949,0,0,1,.79,2.372c-0.2,1,0,7.116,0,7.116l0.79,2.373V686.3l-7.12,4.744-3.16,2.373,0.79,1.581,3.16,3.163,3.17,3.163s0.31-.268,0,1.581,0.39,2.155-.79,3.163-2.91,2.575-3.96,2.373-3.21-.87-3.95.79-1.85,2.93-2.37,3.954a50.954,50.954,0,0,0-1.58,5.535c-0.11.3-1.15,3.882-.8,4.744a19.405,19.405,0,0,1,1.59,3.954c0.1,1.055,3.4,2.308,3.16,6.326a47.718,47.718,0,0,0,.79,9.489l-0.79,5.535v3.163l3.95,2.372,3.17,1.581,0.79-2.372,4.74-1.581s2.8-.35,3.16-0.791,2.9-2.9,3.96-3.163a16.9,16.9,0,0,0,3.16-1.581l1.58-3.163,3.16-3.163,3.96-.791,1.58-.791,1.58-4.744,1.58-3.163,4.75-.791,3.95-1.581s4.05-1.526,4.75-2.372,2.37-5.536,2.37-5.536-0.81-3.141,0-3.953,3.11-5.117,3.95-5.535,1.51-1.927,3.16-3.163,7.12-5.535,7.12-5.535,5.51-3.249,6.33-3.954,3.16-3.163,3.16-3.163l0.79-7.117,4.74-3.162s9.59-2.223,11.08-2.373a50.064,50.064,0,0,0,6.32-.79c2.29-.52,4.82-1.648,7.12-1.582s6.63,0.188,8.7.791,4.94,2.649,6.32,2.372,9.23-1.3,10.28-.791,9.56-.768,10.28-0.79,5.13-1.56,6.33-.791,3.95,5.535,3.95,5.535l7.91,1.581,7.9,1.582,4.75-2.372s1.6-.591,1.58-1.582-2.37-4.744-2.37-4.744a3.485,3.485,0,0,0-.79-2.372c-0.84-.675-0.79-5.535-0.79-5.535l0.79-3.163a16.785,16.785,0,0,0,3.16-1.582,12.555,12.555,0,0,1,1.58-1.581,9.541,9.541,0,0,0,2.37-4.745,25.482,25.482,0,0,1,1.59-3.953,35.379,35.379,0,0,1,3.95-2.373c0.61-.135,2.98-2.121,3.95-2.372s4.71-1.342,4.75-2.372a17.071,17.071,0,0,1,1.58-3.954v-7.116l3.95-5.535,3.96-5.535,1.58-7.117v-2.372l-2.37-3.954-2.38-2.372a4.5,4.5,0,0,0-.79-2.372,13.793,13.793,0,0,0-2.37-1.582l-3.16-2.372s-4.39.46-4.75,0.791-14.23.791-14.23,0.791l-5.54-1.582s-3.43.372-3.95,0-3.95-3.163-3.95-3.163l-2.37-2.372s-0.08-2.533.79-3.163,5.31-1.537,6.32-1.581,4.59,0.044,5.54,0a27.9,27.9,0,0,0,5.53-.791c0.89-.415,6.33-1.582,6.33-1.582a5.313,5.313,0,0,0,2.37-.79,13.6,13.6,0,0,0,2.37-3.163s2.65-3.165,2.37-4.745,0.45-5.432,0-6.326-2.89-3.365-3.16-3.953-3.95-.791-3.95-0.791-4.31-2.3-5.54-3.954-4.74-3.163-4.74-3.163a27.445,27.445,0,0,0-3.96,0c-0.82.187-7.9,1.582-7.9,1.582l-8.7,3.163-8.7-.791-4.74-1.581s-3.3-.646-3.96-1.582-3.16-3.953-3.16-3.953l-4.74-1.582-7.12,1.582h-3.16l-4.75,3.162s-3.73-.772-4.74-0.79-7.91-3.163-7.91-3.163l-2.37-2.372s-3.9.365-3.96-.791-2.37-5.535-2.37-5.535a1.228,1.228,0,0,1,0-1.582,34.247,34.247,0,0,1,3.96-3.163l0.79-2.372-0.79-1.581-1.59-2.373s-0.53-2.291-.79-3.953a18.831,18.831,0,0,1,0-3.954l-3.16-3.954s-3.85-3.791-3.95-4.744-6.33-7.907-6.33-7.907l-3.95-3.163-11.86-2.372h-3.17l-6.32-.791-3.96-3.163-2.37-4.744s-1.62-4.9-2.37-7.117a66.3,66.3,0,0,1-1.58-7.116v-3.163l-3.96-.791-6.32-2.372-2.37-4.745v-2.372l-6.33-2.372-5.53-4.745-7.12-6.325h-2.37l-0.79-3.163-2.38-4.745-10.28-4.744s-4.02-2.575-4.74-2.372-6.33,0-6.33,0l-3.16-.791-6.32-1.582s-5.03-4.931-6.33-4.744-4.63-.11-5.54-0.791-5.93-2.493-6.32-3.163-2.96-2.5-3.16-3.163a27.582,27.582,0,0,0-1.59-3.162,49.619,49.619,0,0,1-.79-5.536l-2.37-7.907-4.74-3.954-6.33-3.953-1.58-3.163s-1.19-2.658-.79-3.163a52.868,52.868,0,0,1,4.74-3.163,17.444,17.444,0,0,0,3.17-1.581,29.993,29.993,0,0,0,3.95-3.954c0.97-1.427,3.16-4.744,3.16-4.744a39.526,39.526,0,0,0,2.37-3.954c0.42-1.022,1.59-3.159,1.59-4.744s0.83-6.091,0-6.326-3.96-3.163-3.96-3.163-2.55-3.2-2.37-3.954-0.18-4.516,0-5.535,1.58-5.535,1.58-5.535l6.33-3.163Z" transform="translate(-944.844 -113.438)"/>
    <path id="形状_6" data-name="形状 6" class="cls-5" d="M1611.17,657.83l-4.75,4.744-4.74,2.372-3.16,2.372v3.954l1.58,4.744v4.745l-2.38,3.163-3.16,2.372-3.95.791-3.16,3.953-2.38,3.163v5.535l4.75,3.163,3.95,3.954a23.722,23.722,0,0,1,1.58,3.163c0.3,0.957.79,3.954,0.79,3.954l-1.58,3.163-3.95,1.581-4.75,3.163-6.32,1.581-4.75,2.373-7.11,5.535-2.38,2.372h-3.95l-3.16.791-1.58,2.372-3.17,4.744-2.37,3.163-3.95,3.954-3.16,3.163-3.17.79h-7.91l-4.74.791s-6.14,1.736-6.33,1.582-1.46,2.019-1.58,2.372a38.291,38.291,0,0,0,0,3.953c0.02,1.471,0,7.117,0,7.117V771.7l-1.58,4.744-0.79,2.373-2.37,2.372-3.16,3.953-2.38,2.373,1.59,3.163,4.74,1.581a7.164,7.164,0,0,1,2.37,0c0.92,0.241,5.54,2.372,5.54,2.372l1.58,2.372v2.373l7.11,0.79h4.75l3.95,1.582,0.79,5.535s1.3,6.261,1.59,7.117,1.58,5.535,1.58,5.535l1.58,2.372,2.37-.791,3.95-2.372,5.54-1.581s2.56,0.525,3.16,0,3.16-.791,3.16-0.791l3.17-2.372s3.83-3.069,4.74-3.163a66.648,66.648,0,0,0,6.33-2.373c0.89-.326,4.74-1.581,4.74-1.581h4.75a5.243,5.243,0,0,0,2.37,1.581,27.41,27.41,0,0,0,5.53,0l2.38-.79,0.79-2.372,5.53-3.954,5.54-2.372h6.32l4.75,0.79,2.37,1.582,2.37,5.535,3.16,6.326,2.38,6.326,2.37,5.535,3.16,5.535,1.58,3.163,6.33-.791,5.53-1.581,3.17-2.373,2.37-3.162,1.58-.791,6.33-2.372,3.95-.791,3.16-2.372s2.27-.466,3.17-0.791,4.74-2.372,4.74-2.372a12.105,12.105,0,0,0,2.37-2.372c0.22-.653,2.38-1.582,2.38-1.582h3.95s7.74-.866,8.7-0.791,2.62,0.611,3.16,0a31.1,31.1,0,0,1,3.16-2.372l2.38-1.581,3.16-1.582s4.22,0.147,6.32,0,4.1-.886,4.75-0.79a3.516,3.516,0,0,0,2.37,0c0.74-.454,3.16-2.373,3.16-2.373l2.38-3.163,1.58-.79s0.63-2.53,1.58-2.373,7.94-.916,8.7-0.79,3.66-.126,4.74,0,4.75-2.372,4.75-2.372l7.9-4.745,3.17-2.372,3.95-3.163s3.02-1.758,3.95-2.372,6.33-3.163,6.33-3.163,5.43-.566,6.32-0.791,10.28,0,10.28,0l3.17,0.791,2.37,3.954s0.12,1.067.79,0.79,6.33,0.791,6.33.791l5.53-1.581,7.91-3.163,3.95-.791,2.37-3.163,3.96-3.163,7.11-3.163s4.32-.459,4.75-0.791,7.91,0.791,7.91.791,3.32,0.026,3.95,0,5.37-.944,5.53-1.581,6.33-5.536,6.33-5.536l3.16-2.372,2.38-3.163h-1.59l-3.16-1.581-1.58-3.163v-17.4l-0.79-3.163-1.58-3.954-3.17-3.163s0.05-.378.8-3.163,1.58-5.535,1.58-5.535a5.755,5.755,0,0,0,1.58-3.163,15.08,15.08,0,0,1,.79-3.162h4.74l3.17-1.582,1.58-1.581-0.79-3.954-2.37-3.163-3.17-2.372-0.79-2.372a11.289,11.289,0,0,0,2.37-1.582c0.55-.637,3.96-3.163,3.96-3.163l3.16-1.581v-2.372s-1.04-5.635-.79-7.117a19.253,19.253,0,0,0,0-3.954l-1.58-3.163v-2.372s2.92-3.577,3.95-3.954,2.42-1.278,3.16-1.581,3.17-1.581,3.17-1.581l4.74-4.745,2.37-3.954,0.79-2.372,0.8-3.163,1.58-1.581v-3.954l-0.79-6.326-3.96-1.581h-3.16l-3.95,2.372-3.17,1.582-4.74,1.581h-2.37l-6.33-.791-4.74-.79h-6.33l-3.95-2.373-3.17-1.581-5.53-1.582h-2.37l-4.75.791-2.37.791-3.16-.791-0.79-2.372v-3.163l-1.59-2.372-3.95-1.582-1.58-2.372-1.58-3.953-1.58-3.163V609.6l-1.58-3.954-4.75-3.953-3.16,1.581-3.96.791-5.53,2.372-3.16.791-2.38,1.581-1.58,2.372-3.95,3.163h-3.16s-2.28-.027-3.17-0.79a4.289,4.289,0,0,0-2.37-.791h-1.58v2.372l0.79,1.582,2.37,3.162-0.79,3.163-3.95,3.163-2.37,1.582-3.96-.791-4.74.791-5.54,1.581-3.95,1.582-5.54,2.372-7.9,2.372-3.17.791h-8.69l-6.33-1.582s-2.58-.578-3.95-0.79-9.49,0-9.49,0-5.69-2.613-6.33-2.373-3.95.791-3.95,0.791l-3.17,1.582-1.58,3.953-1.58,3.163-1.58,6.326a7.119,7.119,0,0,1-.79,2.372,38.943,38.943,0,0,1-3.95,3.954l-2.38,2.372s-2.24,3.667-2.37,3.954a22.6,22.6,0,0,0-.79,3.953,29.953,29.953,0,0,1-.79,3.954l1.58,3.163,1.58,2.372s-0.77,4-1.58,4.745-4.74,1.581-4.74,1.581l-3.96.791-3.95-.791h-2.37l-3.96,1.582-3.16.79-6.32-1.581a33.815,33.815,0,0,1-3.17-3.954c-0.15-.6-3.95-3.163-3.95-3.163l-6.33-3.953h-3.16s-4.41-1.59-4.74-1.582a18.115,18.115,0,0,1-2.38-.791h-1.58l0.79-3.163,0.79-3.953-1.58-.791h-9.49l-3.16-.791Z" transform="translate(-944.844 -113.438)"/>
    <path id="形状_7" data-name="形状 7" class="cls-2" d="M1547.91,822.3l-3.95,3.163-0.8,2.372-3.16,1.581s-1.94,1.719-1.58,2.373a18.074,18.074,0,0,1,.79,3.163l-2.37,1.581-3.16.791-3.17.79-2.37,2.373-1.58,3.953s-0.63,3.655-.79,3.954a30.589,30.589,0,0,0,0,3.954l-1.58,2.372-2.38,1.581h-6.32l-1.58,1.582-0.79,2.372,2.37,4.744,0.79,1.582v2.372h-2.37l-4.75.791h-2.37v7.116l1.58,1.582,2.37,3.163v0.79l-1.58,1.582H1506l-11.07.791-11.07.79-4.74-1.581-1.59-3.163-4.74-3.163-2.37-.791-2.38.791-1.58,1.582-1.58,2.372-0.79.79-2.37.791a1.848,1.848,0,0,0-1.58,0,10.844,10.844,0,0,0-3.96,5.535c-0.06.451,0.06,2.028,0,2.373a13.529,13.529,0,0,0,0,1.581s3.78-.915,3.96,0,3.2,2.465,3.16,3.163,0,2.372,0,2.372-1.31,1.887-1.58,2.372-2.1,1.881-2.37,2.373-2.09,1.873-2.38,2.372-2.37,3.953-2.37,3.953l-0.79.791-1.58.791a13.173,13.173,0,0,1-2.37-.791c-0.3-.265-3.16-1.581-3.16-1.581l-2.38-.791h-0.79l-1.58,3.163a20.4,20.4,0,0,0-.79,2.372,19.639,19.639,0,0,0,0,3.163c0.14,0.5-.26,3.15,0,3.163s1.1,2.232,1.58,2.372a28.6,28.6,0,0,1,3.96,3.954,43.008,43.008,0,0,0,3.95,2.372l4.74,0.791s3.81,0.709,3.96.79,3.16,1.582,3.16,1.582,0.05,2.233,0,2.372-0.55,1.048-.79,1.582-2.54,1.408-3.16,1.581-3.21,2.42-3.96,2.372-3.21,1.409-3.95,1.582-1.78.013-1.58,0.79a9.881,9.881,0,0,0,1.58,2.373l2.37,1.581a22.556,22.556,0,0,0,3.16.791c0.59-.014,4.55-0.289,4.75-0.791s1.99-.382,2.37-0.791a6.88,6.88,0,0,1,3.16-.79c0.54,0.091,3.17,0,3.17,0s1.49,0.211,1.58.79,0,12.652,0,12.652l1.58,3.163s3.87,0.655,3.95.791a8.625,8.625,0,0,0,3.17.79,5.5,5.5,0,0,1,2.37.791,4.989,4.989,0,0,0,1.58.791,17.187,17.187,0,0,0,2.37-.791l6.33-7.117,0.79-3.162,2.37-3.954,2.37-2.372s1.4-1.784,1.58-1.582a1.425,1.425,0,0,0,1.59,0c0.4-.436,4.74-0.79,4.74-0.79s13.62-.122,14.23,0,5.82,0.878,6.33.79,3.16,0,3.16,0l0.79,2.372s-0.65,1.5-1.58,1.582-2.37,1.275-3.16,1.581-2.16.519-3.16,0.791-3.54,1.961-3.96,1.582-3-.318-3.16,0a15.817,15.817,0,0,1-2.37,1.581s-0.54,1.055-.79,1.581a12.676,12.676,0,0,0,0,3.163l2.37,2.373,1.58,2.372,0.79,0.791a13.963,13.963,0,0,0,0,3.953c0.35,1.362-.06,11.314,0,11.861s0,3.954,0,3.954l2.37,2.372s3.48,0.681,3.96.791,5.53-.84,6.32-0.791,4.1-.56,4.75,0,4.07,0.461,4.74,0,2.42-1.765,3.16-1.581,11.86,0.79,11.86.79l5.54-.79,7.12-.791s6.77,0.217,7.11,0,12.67-.294,13.45,0,8.69,0.791,8.69.791l4.75,0.79,3.16,1.582-0.79,2.372a16,16,0,0,0-3.16,0,20.053,20.053,0,0,0-2.38,2.372,3.546,3.546,0,0,0-1.58,1.582c-0.51,1.1-.21,2.193-0.79,2.372s-0.71.467-1.58,0.791-3.46,1-3.95.79a13.259,13.259,0,0,0-3.17-.79,6.056,6.056,0,0,0-2.37.79,5.129,5.129,0,0,0-.79,3.166c0.22,1.13.79,3.16,0.79,3.16a4.368,4.368,0,0,0,0,1.58c0.2,0.22-.79.79-0.79,0.79s-2.07,2.51-2.37,2.37a17.715,17.715,0,0,0-3.16.8,2.373,2.373,0,0,0-1.58.79,15.566,15.566,0,0,0-1.59,3.16c-0.01.49-.88,3.81-0.79,4.74s0,5.54,0,5.54,1.03,3.1,1.58,3.16,4,2.21,4.75,2.37,7.66-1.31,7.91-.79,1.6,0.07,2.37,0a14.718,14.718,0,0,0,3.16-1.58l2.37-.79,0.79-1.58,2.38,2.37a46.25,46.25,0,0,1,.79,4.75c0.04,1.28,0,12.65,0,12.65v5.53a14.73,14.73,0,0,0-1.58,1.58c0.09,0.07-1.81,1.79-1.59,2.38a20.046,20.046,0,0,0,1.59,2.37l1.58,2.37,1.58,3.16v2.38l-0.79,1.58h-3.17l-3.16.79h-2.37l-2.37,2.37v5.54l-3.17.79-2.37.79-3.95.79-1.58.79s-1.02,1.83-.79,2.37-0.65,2.98,0,3.16a33.792,33.792,0,0,1,3.16,1.58,27.562,27.562,0,0,0,3.95.8c0.69-.06,8.7.79,8.7,0.79l3.16-.79s1.8-.54,2.38,0a5.774,5.774,0,0,1,1.58,3.95c-0.15,1.6.15,4.78,0,5.53s2.37,4.75,2.37,4.75,1.91,0.98,2.37.79a12.891,12.891,0,0,1,3.17,0c0.7,0.07,4.69,1.22,4.74,1.58s3.16,2.37,3.16,2.37l2.37,0.79s13.62,0.17,14.24,0a20.384,20.384,0,0,1,3.16,0l2.37,2.38,1.58,1.58,0.8,4.74s1.64,1.65,2.37,1.58,2.37,0,2.37,0l0.79-1.58,1.58-1.58s0.8-.43,1.58-0.79,4.11-1.95,4.75-1.58a34.31,34.31,0,0,1,3.16,1.58c0.28,0.32,3.95,5.53,3.95,5.53l2.38,3.17s2.49,2.57,3.16,2.37,2.42,0.67,3.16.79a28.352,28.352,0,0,1,3.17,1.58,37.3,37.3,0,0,1,3.95.79c0.43,0.3,3.95,0,3.95,0s9.05,0.52,9.49.79,7.91,0.79,7.91.79,9.78,0.61,11.07,0,4.42-.94,5.53-1.58a40.044,40.044,0,0,1,3.96-2.37c0.48-.05,2.37-2.37,2.37-2.37s0.96-4.1,1.58-3.96,2.37-3.95,2.37-3.95l1.58-.79,2.38,1.58,3.95,0.79a6.1,6.1,0,0,0,2.37,0c0.56-.29,2.14-0.43,2.38-0.79a36.448,36.448,0,0,1,3.16-2.37l2.37-.79,2.37,0.79,1.58,0.79h2.38a16.039,16.039,0,0,0,2.37-1.58c0.47-.51.56-1.72,1.58-1.58a12.932,12.932,0,0,0,2.37,0l1.58,3.16v2.37l2.38,1.58,7.11,2.38s2.63,1.62,3.96,1.58a28.838,28.838,0,0,1,4.74.79,9.619,9.619,0,0,0,2.37,1.58c0.59,0.06,3.17,4.74,3.17,4.74l0.79,1.59h0.79l1.58-1.59a16.957,16.957,0,0,1,1.58-1.58c0.6-.47,1.12-0.26,1.58-0.79s1.98-.62,2.37-0.79,2.71,0.08,3.17,0,2.46-1.89,3.16-1.58,2.08-.45,2.37-0.79,1.94-2.1,1.58-2.37,0-3.17,0-3.17v-2.37l1.58-1.58,2.38-2.37a10.635,10.635,0,0,1,2.37-2.37,10.837,10.837,0,0,0,2.37-2.38s2.78-2.67,3.16-3.16,3.17-3.95,3.17-3.95,0.62-3.79.79-3.96,1.46-1.47,1.58-1.58a10.435,10.435,0,0,1,2.37-.79,3.634,3.634,0,0,0,1.58-.79v-2.37s-1.46-1.39-1.58-1.58a25.676,25.676,0,0,0-2.37-1.58c-0.22-.15-0.99-1.41-1.58-1.59a2.612,2.612,0,0,1-1.58-1.58,3.714,3.714,0,0,1,.79-1.58c0.53-.85,2.16-1.04,2.37-1.58s4.74-.79,4.74-0.79l3.96-1.58s1.61-1.72,1.58-2.37,0-3.17,0-3.17l0.79-3.16,3.95-2.37a14.659,14.659,0,0,0,3.17-.79c0.4-.36,3.95-0.79,3.95-0.79a22.507,22.507,0,0,0,2.37-1.59c0.46-.45,1.99-2.81,2.37-3.16a6.974,6.974,0,0,0,1.59-1.58,23.039,23.039,0,0,0,1.58-3.16,24.441,24.441,0,0,1,2.37-3.17s2.23-3.41,2.37-3.16,2.37-.79,2.37-0.79l11.07,0.79s3.65-1.76,4.75-1.58,3.42,0.56,4.74.79,5.17,1.53,5.54,1.58a19.252,19.252,0,0,1,3.95,2.37c0.54,0.59,4.75,3.96,4.75,3.96s2.02,1.29,2.37,1.58,3.95,2.37,3.95,2.37a21.231,21.231,0,0,0,3.96.79c0.49-.16,3.11.54,3.16,0s1.43-1.68,1.58-2.37-0.16-2.35.79-3.95a39.785,39.785,0,0,0,2.37-5.54c0.73-1.87,1.31-9.22,1.58-11.07s0.79-5.53.79-5.53l1.59-3.17a47.319,47.319,0,0,1,4.74-.79c0.09,0.15,2.21-.33,3.16,0s5.54,2.37,5.54,2.37,2.77,0.07,3.16.8,3.12,1.67,3.16,2.37a15.212,15.212,0,0,0,1.59,3.16l2.37,0.79h1.58a14.438,14.438,0,0,1,0-3.16c0.22-.94,1.18-4.88.79-6.33s0-13.44,0-13.44v-5.54l2.37-3.16a34.746,34.746,0,0,1,3.17-2.37c0.44-.15,4.74-0.79,4.74-0.79h5.54a52.8,52.8,0,0,0,5.53-.79c0.36-.26,3.52.07,3.95,0a9.08,9.08,0,0,0,1.59,0c0.81-.16,2.23-1.68,3.16-2.374a8.247,8.247,0,0,0,2.37-2.372c0.53-.941,1.42-1.557,1.58-2.373s1.87-1.775,2.37-2.372a17.49,17.49,0,0,1,3.17-2.372c0.34-.1,4.47-1.194,4.74-1.581s4.34-.726,5.54-0.791,4.81-.955,5.53-0.791,4.46,0.4,4.75,0,2.48-.705,3.16-1.581,6.32-6.326,6.32-6.326a19.5,19.5,0,0,0,3.96-2.372c0.79-.886,3.84-4.12,3.95-3.954a34.843,34.843,0,0,0,3.96-2.372l0.79-.791-1.58-.791a40.04,40.04,0,0,1-4.75,0,40.084,40.084,0,0,0-4.74,0s-2.85-.374-3.17,0a3.368,3.368,0,0,1-3.16,0c-0.9-.655-1.69-0.457-2.37-0.791s-3.39-2.164-3.96-2.372a23.592,23.592,0,0,1-3.16-2.372c-0.03-.083-5.53-4.744-5.53-4.744a25.093,25.093,0,0,0-2.38-3.163,41.541,41.541,0,0,1-3.16-3.163s-4.61-3.811-4.74-4.745-0.42-3.509-.79-3.953a9.144,9.144,0,0,1-1.59-3.163c-0.19-1.12-.79-3.954-0.79-3.954l0.79-4.744-0.79-4.744s-0.75-3.958-.79-3.954-2.37-2.856-2.37-3.954a42.116,42.116,0,0,0-.79-5.535,20.465,20.465,0,0,1,0-4.744l-2.37-1.582h-3.96l-5.53.791h-11.07a32.044,32.044,0,0,1-3.95-2.372c-0.23-.389-2.38-3.163-2.38-3.163l-6.32-.791a17.622,17.622,0,0,0-3.96-1.581c-1.16-.111-5.03.017-5.53,0a15.611,15.611,0,0,0-3.96.79c-0.85.41-3.95,1.582-3.95,1.582a16.669,16.669,0,0,1-3.16,1.581c-0.67.056-4.14,3.368-4.75,3.163s-1.8.84-2.37,1.582-2.94,2.588-3.16,3.163a14.8,14.8,0,0,1-2.37,2.372l-3.96.791a38.517,38.517,0,0,1-3.95-.791c-0.8-.3-3.74-0.9-3.95-1.582s-1.73-3.113-2.38-3.163-3.23-2.26-3.95-2.372-6.33-3.953-6.33-3.953l-6.32-1.582L1866.57,899l-5.53-1.582-4.75-1.581s-5.15-2.5-5.53-2.372-7.91-.791-7.91-0.791l-6.32.791-7.12,3.163-4.75,3.163-5.53,4.744-3.16,3.163-2.38,3.954-3.95,1.581h-9.49s-4.94.258-5.53,0-4.75-.791-4.75-0.791l-6.32-3.953-2.38-2.373-3.16-1.581a6.566,6.566,0,0,1-.79-1.581c-0.05-.465,3.95-0.791,3.95-0.791s2.29,0.048,3.17,0,4.39-.316,4.74-0.791a13.218,13.218,0,0,1,2.37-1.581,12.937,12.937,0,0,1,1.59-2.373c0.6-.547,1.8-1.762,1.58-2.372s-0.62.2,0-4.744a87.007,87.007,0,0,0,.79-12.652,35.042,35.042,0,0,1,0-6.326,23.171,23.171,0,0,1,1.58-4.744c0.59-1.355,1.83-1.5,1.58-3.954a27.757,27.757,0,0,0-.79-5.535c-0.39-.947-3.31-6.919-3.16-7.117a21.994,21.994,0,0,0-1.58-4.744c-0.24-.134-1.34-2.915-1.59-3.163a3.983,3.983,0,0,1,0-3.163c0.6-1.205.78-2.5,2.38-3.163a30.476,30.476,0,0,0,3.16-1.581l1.58-3.954s0.34-5.081,0-5.535-0.69-4.166,0-4.744,2.26-2.294,3.16-2.372,3.36-1.587,3.96-1.582,2.37-1.581,2.37-1.581a9.91,9.91,0,0,1,0-2.373,4.033,4.033,0,0,0,0-2.372c-0.28-.41-1.66-2.077-2.37-3.163s-3.17-5.535-3.17-5.535l-2.37-5.535s-0.87-1.881-1.58-3.954-1.79-2.548-1.58-4.744a20.562,20.562,0,0,0,0-3.954l-0.79-2.372-3.16-2.372-4.75-.791h-10.28s-3.6,1.488-3.95,1.582-10.28,5.535-10.28,5.535l-5.54,3.953s-3.69,2.52-4.74,3.163a23.372,23.372,0,0,1-3.95,2.373,43.67,43.67,0,0,0-4.75,2.372s-5.32.169-6.32,0-5.48-.58-5.54,0-3.95,2.372-3.95,2.372l-3.17,3.954-2.37,3.163h-5.53l-5.54.79h-5.53l-3.96,3.163s-1.65,2.4-2.37,2.372-6.96-.061-7.12,0-4.83,1.052-5.53.791-6.33,1.582-6.33,1.582l-1.58,1.581-6.32,3.163s-3,2.249-3.96,2.372-4.22,2.749-4.74,2.372-3.45,1.022-3.96.791-3.56,1.709-3.95,1.582-2.37,2.372-2.37,2.372l-3.17,3.163-7.9,2.372-3.17-.791-2.37-1.581-5.53-11.861s-2.28-7.016-2.38-7.117-2.86-4.79-3.16-5.535a34.474,34.474,0,0,1-1.58-3.163,20.02,20.02,0,0,0-1.58-3.163l-3.16-1.581-7.12-.791-4.74.791-6.33,3.953-2.37,2.373-1.58,2.372-4.75,1.581-3.16-.791a24.833,24.833,0,0,1-3.16-1.581,6.921,6.921,0,0,0-3.17-.791,31.451,31.451,0,0,1-3.95.791s-7.11,3.783-7.91,3.954a23.292,23.292,0,0,0-3.95,2.372c-0.77.513-3.96,2.372-3.96,2.372l-3.95,1.582a19.923,19.923,0,0,1-3.95.79c-0.81-.112-3.96,1.582-3.96,1.582l-3.95,1.581Z" transform="translate(-944.844 -113.438)"/>
    <path id="形状_8" data-name="形状 8" class="cls-6" d="M2183.66,1027.1l-11.86,26.1-3.96,14.23-12.65,34.79s-4.76,20.22-5.53,22.14-5.37,18.22-5.54,20.56-0.79,7.12-.79,7.12h-15.81l-7.12.79h-4.75l-3.95,3.95-5.53,1.58-12.66,5.54-5.53.79-6.33.79-14.23,1.58-7.91-1.58-5.53.79-3.17,1.58-1.58,3.16-0.79,3.17-1.58,2.37,2.37,2.37,1.58,4.75-1.58,1.58h-2.37l-2.37-1.58-2.37-1.59-1.59-3.95-1.58-2.37-1.58,2.37-6.32,3.16s-0.66,3.29-.79,3.96a24.982,24.982,0,0,0,0,3.16l-2.38-3.16-2.37-2.37-2.37-.8-1.58,4.75-3.96,2.37-3.95,2.37-2.37-2.37,0.79,6.33-0.79,5.53,0.79,2.37-2.37,3.17-0.79,1.58-1.59,2.37,0.79,2.37,3.96,4.75,2.37,7.11-0.79,3.96-3.95.79-4.75-1.58-6.32-3.17-1.59.8-1.58,1.58-0.79,3.16-2.37.79h-6.33l-4.74,3.95-3.95,3.17-12.66,4.74-6.32,1.58-3.16,1.58a20.446,20.446,0,0,0-.79,3.96c0.06,0.96,1.33,1.22.79,2.37s-1.59,3.16-1.59,3.16l-4.74,3.17-3.16.79-2.38,2.37-3.95,3.95h-4.74l-4.75-3.16-3.95-2.37h-3.16l-0.8-.79v-2.38a21.676,21.676,0,0,0,2.38-3.16,21.908,21.908,0,0,1,2.37-3.16l3.16-3.16-0.79-2.38-3.16-1.58-2.37-2.37-1.59-3.16,1.59-6.33,0.79-2.37,1.58-3.95v-2.38l-2.37-2.37-2.38-1.58v-2.37l1.59-2.38v-2.37l-3.17-.79-2.37,1.58-3.16.79-1.58-3.95v-7.91s3.51-1.58,3.95-2.37a41.5,41.5,0,0,1,3.95-3.95l3.17-2.37,2.37-1.59h3.95l3.17,1.59,2.37-1.59,0.79-2.37-2.37-2.37h-3.96l-2.37-.79-2.37-2.37s-0.13-3.41,0-3.96,0-6.32,0-6.32l-3.17-6.33-3.16-.79-3.95.79h-7.91l-15.81,3.16-3.17,1.59s-3.9.79-4.74,0.79-7.12.79-7.12,0.79l-15.81-1.58-11.86.79-7.12,1.58v-14.24l1.58-2.37h3.16a3.4,3.4,0,0,1,1.59,0,25.737,25.737,0,0,0,3.16.79v-1.58l-0.79-1.58-3.16-1.58v-2.37l3.16-.79,3.16-2.38,0.79-2.37a26.974,26.974,0,0,1-3.16,0c-0.71-.12-3.95,0-3.95,0l-3.17,1.58-3.95,2.37-4.75.8h-3.16l-0.79-3.17-1.58-.79-2.37-.79-3.96.79s-3.06.17-3.16,0.79a14.2,14.2,0,0,0,.79,3.17v2.37l-0.79,1.58h-9.49l0.79-3.16s0.8,0.84.79,0-1.58-3.17-1.58-3.17l-3.16-3.16v-3.16a1.493,1.493,0,0,1,.79-0.79,17.257,17.257,0,0,1,3.16,0h1.58l0.79-3.17,0.8-4.74v-3.95l-2.38-.79h-3.95l-3.95-1.59s-0.54-3.25-.79-3.95-0.8-2.37-.8-2.37h-1.58v-3.96a1.74,1.74,0,0,1,0-2.37c1.1-1.17,2.4-3.44,3.17-3.95s4.42-4.79,4.74-4.75,3.17-2.85,3.95-3.95,2.94-3.3,3.17-3.95,0.79-3.96.79-3.96l3.16-.79,2.37-1.58a5.553,5.553,0,0,0,0-2.37c-0.32-.8-1.58-3.16-1.58-3.16s-2.6-1.68-3.16-1.59a3.014,3.014,0,0,1-1.58-.79s0.21-3.13,1.58-3.95a20.347,20.347,0,0,1,3.95-1.58,36.8,36.8,0,0,1,4.75-.79l1.58-.79s0.3-4.24.79-4.75-0.05-1.29.79-2.37a13.727,13.727,0,0,1,3.16-3.16c1.07-.64,4.12-1.29,4.75-1.58s5.53-1.59,5.53-1.59,3.98-4.65,3.96-4.74a62.97,62.97,0,0,1,3.16-6.33c0.78-1.12,1.35-3.94,3.16-3.95s5.97-.89,7.12-0.79,4.71,0.23,5.53.79a5.687,5.687,0,0,0,3.17.79c1.17,0,1.98-1.34,3.16-1.58s7.15,0,7.91.79,4.65,4.4,5.53,4.74,4.08,1.46,4.75,2.38a55.341,55.341,0,0,0,3.95,3.95l7.91,1.58s2.11-.36,2.37-0.79,2-3.74,2.37-4.74,1.99-3.04,2.37-6.33,0.86-4.27.79-5.53a34.488,34.488,0,0,1,.79-6.33c0.39-1.62.41-5.03,0.8-5.53s2.37-3.17,2.37-3.17l4.74-.79,6.33,2.37s2.04,2.2,3.16,2.38,4.64,2.41,4.75,3.16,2.37,3.16,2.37,3.16l2.37-.79,0.79-7.12,0.79-7.9s0.1-5.43,0-7.12,0-6.33,0-6.33,1-2.13,1.58-2.37a4.029,4.029,0,0,0,2.37-1.58,9.217,9.217,0,0,1,3.17-2.37c0.83-.48,5.14-0.77,5.53-0.79s4.75,0.79,4.75.79l7.9-.79,2.38-.79s1.4-1.519,2.37-2.375a42.479,42.479,0,0,0,3.16-3.163c0.86-.978,1.73-2.855,2.37-3.163a40.789,40.789,0,0,1,3.96-2.372c0.99-.314,1.71-1.376,3.16-1.581s5.99-1.712,6.33-1.582,7.2,0.437,7.9,0,4.15-.125,4.75-0.791a29.508,29.508,0,0,1,3.16-2.372l7.12-7.116a60.436,60.436,0,0,0,5.53-3.163c0.91-.768,3.96-3.163,3.96-3.163l1.58,1.581,0.79,3.954v4.744l3.16,2.372,3.16,0.791h6.33l3.95-2.372s7.37-3.759,7.91-4.744a42.932,42.932,0,0,1,3.16-3.954,40.174,40.174,0,0,1,5.54,0c1.13,0.249,7.31.539,8.7,0.791s4.59,0.763,5.53.79a18.124,18.124,0,0,1,3.96,1.582l2.37,7.907,1.58,4.745s2.52,2.51,3.16,4.744a4.11,4.11,0,0,0,3.17,3.163c0.87,0.091,3.63-.091,4.74,0a41.42,41.42,0,0,0,5.54-.791v3.954l1.58,0.794,0.79-2.376a3.233,3.233,0,0,0,3.16-.79,19.075,19.075,0,0,1,3.95-3.163c0.25-.03,3.96-1.582,3.96-1.582s3.45,0.029,3.95.791a55.782,55.782,0,0,0,3.95,3.954s4.79-.32,5.54,0a31.951,31.951,0,0,0,3.95.79l11.07,7.116s4.63,1.34,5.54,1.58,4.5,1.67,5.53,1.58a22.05,22.05,0,0,1,5.54.79c0.83,0.37,6.27,3.81,7.12,3.96s4.9,1.77,5.53,1.58,5.79,1.98,6.33,2.37a46.18,46.18,0,0,1,3.16,4.75l3.16,1.58,3.96,3.16h0.79v0.79Z" transform="translate(-944.844 -113.438)"/>
    <path id="形状_9" data-name="形状 9" class="cls-2" d="M1938.53,1266.69v4.75l3.16,3.95,2.38,3.16v7.91l-3.17,7.12-2.37,5.53,3.95,0.79,4.75,0.79h8.7l7.11-.79,4.75,2.38,2.37,3.95s6.71,0.46,7.91.79,7.11,1.58,7.11,1.58,4.67,1.58,6.33,2.37,9.88,4.29,11.07,4.75,6.33,3.95,6.33,3.95l6.32,0.79,3.16-1.58s2.42-2.26,3.17-2.37,8.7,1.58,8.7,1.58,5.36,2.75,6.32,3.95,3.16,4.75,3.16,4.75l3.96,7.12,3.95,7.9,5.54,6.33,3.95,2.37,7.12-2.37,7.11-2.37,4.75,1.58,14.23,4.74s3.58-.55,4.75-0.79,8.57-1.12,10.27-.79,5.47,1.29,7.12,1.58,20.56-1.58,20.56-1.58l4.74-.79,3.17-38.75,0.79-11.86,1.58-7.11v-8.7s2.11-12.85,1.58-15.82-0.79-14.23-.79-14.23l-0.79-30.05-2.37-9.49,0.79-8.69c0.21-2.31.79-29.26,0.79-29.26s0.36-8.21,0-10.28,0.79-13.44.79-13.44h-26.09s-3.42,2.42-4.75,3.16-13.44,6.33-13.44,6.33l-7.12,2.37-5.53,1.58-11.86.79h-9.49l-11.07-.79-3.17,1.58-2.37,3.95-0.79,3.17-0.79,2.37,3.16,3.16s1.32,1.9.79,3.17-1.58,3.16-1.58,3.16l-5.53-1.58s-1.88-3.7-2.37-4.75a22.039,22.039,0,0,0-2.38-3.16l-4.74,3.16-3.16,1.58-0.79,3.17v3.16l0.79,1.58-5.54-6.32-2.37-2.38-1.58,4.75-3.17,3.95-3.95,2.37-1.58-1.58-0.79,4.75s-0.82,5.08-.79,5.53,0,5.54,0,5.54l-3.17,2.37,0.8,3.95,2.37,5.54,1.58,4.74,0.79,3.96-1.58,2.37-4.75-.79-6.32-2.37a3.529,3.529,0,0,0-2.37-.8,9.5,9.5,0,0,0-3.17,1.59l-0.79,2.37-0.79,2.37h-8.7l-3.16,2.37-2.37,2.37-6.33,3.96-6.32,2.37-4.75.79-4.74,2.37h-3.16v5.54l-0.8,4.74-5.53,2.38-2.37,2.37-3.17.79-2.37,3.16Z" transform="translate(-944.844 -113.438)"/>
    <path id="形状_10" data-name="形状 10" class="cls-5" d="M2137.79,1348.93v26.09s-0.55,3.8-.79,6.33-3.15,25.82-3.16,28.47-0.77,6.75-.79,7.9-14.23,85.4-14.23,85.4l-3.96,24.51-11.07,23.73-11.86,18.18-12.65,20.56L2069,1603.54l-14.23,26.1-9.49,18.19-5.54,7.9-37.16-34.79-5.54-11.07-12.65-15.02-6.32-12.65-15.03-22.94-7.11-10.28s-2.08-2.54-2.38-3.95-0.79-13.44-.79-13.44l-2.37-11.07-2.37-4.75v-7.9l-2.37-3.96-1.58-.79h-5.54l-1.58-3.16-2.37-5.54-1.58-3.16-2.38,2.37-2.37,1.58-2.37-2.37s-0.76-.7-1.58-1.58a3.4,3.4,0,0,0-2.38-.79l-2.37,2.37s-1.43.82-1.58,0a20.854,20.854,0,0,1,0-4.74c0.22-1,.79-3.16.79-3.16h-3.16l-2.37,2.37s-1.62,1.54-.79-0.79a57.042,57.042,0,0,0,1.58-6.33l-0.79-1.58s-4.05,1.85-4.75.79-1.19-1.13-1.58-2.37,0-4.75,0-4.75l-0.79-3.95-3.95-.79-5.54-2.37s-3.2-1.32-3.95-2.38-1.58-2.37-1.58-2.37l0.79-2.37,3.95-6.33,2.37-3.95,3.17-3.16,1.58-3.96,3.16-2.37,3.16-1.58,3.17-10.28,1.58-.79-1.58-4.74-5.54-3.17-3.95-10.28s-0.46-3.75,0-4.74,1.58-7.12,1.58-7.12l2.37-8.7s3.01-3.02,3.95-3.95,3.17-3.16,3.17-3.16,4.59-2.67,4.74-3.96a31.758,31.758,0,0,1,1.58-4.74s0.46-3.76.79-5.54,1.59-12.65,1.59-12.65v-5.53a36.829,36.829,0,0,0,3.95-.79c0.82-.32,4.59-1.03,5.53-1.58s3.17-1.59,3.17-1.59l1.58-4.74,0.79-5.54-2.37-.79-0.79-1.58,2.37-3.16s1.06-2.25,0-2.37-2.37-2.37-2.37-2.37v-3.17a7.979,7.979,0,0,1,3.16-2.37,34.2,34.2,0,0,0,4.74-2.37l2.38-2.37v-3.96l-1.59-3.95v-4.75l7.91,0.79a79.345,79.345,0,0,0,7.91-.79c1.06-.36,4.74-1.58,4.74-1.58l3.96,3.96,2.37,2.37,2.37,0.79,3.96,1.58,11.07,1.58,7.11,3.16s5.76,1.65,6.33,2.38,4.74,3.16,4.74,3.16l4.75,3.16,4.74-1.58s3.51-.3,3.96-0.79,3.16-2.37,3.16-2.37l8.7,3.16,7.11,4.75,2.37,5.53,3.17,5.54,2.37,3.95,3.16,3.95,3.17,4.75,4.74,2.37s4.86-2.18,5.54-2.37,4.12-.18,5.53-0.79,3.7-.24,4.74,0,5.41,1.65,6.33,1.58,7.12,1.58,7.12,1.58l7.11,2.37,7.12-1.58s5.72,1.1,6.33.79,5.65,0.13,6.32,0,10.28,0,10.28,0l5.54-.79,6.32-.79Z" transform="translate(-944.844 -113.438)"/>
    <path id="形状_11" data-name="形状 11" class="cls-3" d="M1890.3,1459.63l-3.96,5.54-3.16,5.53-5.54,5.54s-3.63,5.41-4.74,5.53-3.95,3.96-3.95,3.96l-0.79,6.32v3.16l-2.38,1.59-3.16-1.59-3.95-2.37-2.38-2.37-4.74-1.58-9.49-1.58-7.12-1.58a4.643,4.643,0,0,0-2.37-.79,44.258,44.258,0,0,0-5.53,1.58l-3.96.79-9.49,1.58-4.74.79v2.37l0.79,6.33-0.79,7.11,0.79,4.75,6.33,5.53,2.37,6.33,3.16,7.12,1.58,3.95,3.17,1.58,0.79,2.37-4.75.79-1.58,3.17,7.12-.79,1.58,0.79s-5.29,6.63-5.54,7.11-5.53,7.12-5.53,7.12l-3.95.79-0.8,7.91-5.53,5.53-8.7,6.33-2.37-5.54-0.79-4.74-3.96-1.58-4.74,2.37s-2.29,2.36-2.37,3.16a11.072,11.072,0,0,1-.79,2.38l-7.91-1.59-5.53,2.38-2.38,7.9s-0.95,3.03-.79,3.96-1.68,2.97.79,3.95a9.59,9.59,0,0,1,3.96,3.16l-3.96,1.59-9.49,1.58-3.16,2.37v3.16s3.43,4.31,3.16,4.75,0,5.53,0,5.53l1.59,7.91s-0.23,2.85.79,3.95,3.95,3.96,3.95,3.96l3.16,2.37,3.96,0.79,2.37-1.58v-3.17l-0.79-4.74-2.37-4.74,1.58-2.38h3.95l2.37-1.58,3.17-5.53,2.37-6.33,1.58-3.16,2.37-1.58,3.16,2.37,1.59,2.37v3.95l-0.79,2.38s-2.66.48-3.96,0.79a53.742,53.742,0,0,0-6.32,3.16s-2.11,4.62-2.38,5.54-1.62,5.04-1.58,5.53,3.17,4.75,3.17,4.75,2.39-.19,2.37.79,1.54,3.76,1.58,4.74,0.81,4.8.79,5.54,0.69,3.95.79,5.53,6.35,10.83,6.33,11.86,5.53,12.65,5.53,12.65l13.44,19.77,3.96,7.91,3.16,2.37,13.44-12.65,8.7-7.91,8.7-7.11,11.86-9.49,15.02-11.86,8.7-7.12,7.12-9.49,11.86-15.02,11.07-12.66,3.16-6.32,5.54-4.75,5.53-1.58s15.6,13.85,16.61,14.24,13.44,10.28,13.44,10.28l10.28,4.74,7.91,2.37,7.11-15.81,0.8-7.91-4.75-7.12-7.91-18.18-7.9-11.86-7.12-7.91-5.54-10.28-0.79-14.23v-6.33l-3.95-3.95-0.79-8.7-0.79-7.12-7.12-.79-4.74-8.7-2.37-3.95-3.17,3.95-2.37.79-3.95-3.16-3.17,1.58-3.16.79,1.58-6.32-0.79-3.96-4.74,1.59v-3.17l-2.38-3.16-3.95-.79v-7.91l-2.37-2.37-7.12-3.16Z" transform="translate(-944.844 -113.438)"/>
    <path id="形状_12" data-name="形状 12" class="cls-2" d="M1820.71,1696.85l-15.02,11.86-0.79-2.37-16.61-18.19-16.6-22.14-7.91-9.49-4.75-6.32-5.53-7.91-2.37-5.53-0.79-7.12,3.16-3.95-0.79-7.12-1.58-15.03v-9.48a4.835,4.835,0,0,1,0-4.75c1.41-2.49,6.32-7.91,6.32-7.91l-0.79-3.95-10.28-9.49-4.74,5.54-2.37.79-3.96-3.16-7.91-4.75,1.59-6.33v-4.74l0.79-2.37,5.53-3.16,1.58-2.38,1.59-3.95,0.79-4.75v-4.74l-9.49-7.12-3.96-3.95-1.58-5.53v-5.54l-0.79-2.37-3.16-2.37-2.37-3.17-0.79-7.9,2.37-5.54v-1.58s-0.16-2.43-.79-3.16-2.38-3.17-2.38-3.17v-4.74l5.54-4.75h3.16s2.85,1.46,3.17,2.38,3.16,2.37,3.16,2.37,4.68,1.03,5.53.79a30.819,30.819,0,0,1,4.75,0l2.37-2.37v-3.17l-0.79-3.16-3.16-2.37v-2.37s2.01-2.67,3.16-3.17a16.587,16.587,0,0,0,3.16-2.37l1.58-3.95s4.44-1.75,5.54-2.37,3.16-1.59,3.16-1.59l0.79,5.54,2.38,2.37h3.95l3.16-3.16s-0.15-1.15,1.58-2.37a53.488,53.488,0,0,0,5.54-5.54l2.37-3.16,0.79-.79,6.33,9.49,3.16,5.53,1.58,3.96v3.95l7.91,0.79,1.58,1.58v2.37l-3.95,2.38-1.59,3.16,3.17,1.58h4.74v1.58l-2.37,1.58-1.58,5.54-1.58,2.37-1.58,2.37,1.58,1.58,5.53,0.79,2.37-3.16,1.59-3.16h3.16l1.58,1.58v14.23l0.79,4.75s3.34,3.47,3.95,3.95a47.647,47.647,0,0,1,3.17,3.96l1.58,3.95,2.37,5.53,2.37,3.96,2.38,3.16,0.79,2.37s-4.3-.66-3.96.79a4.368,4.368,0,0,1,0,2.38l4.75,0.79,2.37,0.79a50.4,50.4,0,0,0-3.16,4.74c-0.4.98-4.75,7.91-4.75,7.91l-3.16,2.37h-3.16l-0.79,4.75-0.8,3.95-9.48,7.91-2.38.79-2.37.79-0.79-3.16-3.16-6.33-4.75-.79-4.74,3.16-0.79,3.16v0.8s-2.54-.09-3.16,0a23.19,23.19,0,0,1-3.96-.8,8.262,8.262,0,0,0-3.16,0,25.78,25.78,0,0,0-3.16,2.38,32.871,32.871,0,0,1-1.59,4.74c-0.55.89-2.54,4.97-2.37,5.54a10.7,10.7,0,0,1,0,2.37s1.83,2.24,2.37,3.16a39.063,39.063,0,0,0,2.38,3.16l-2.38.79-2.37.8-3.95.79s-2.78-.47-3.16,0-3.96,1.58-3.96,1.58l-0.79,2.37,1.58,4.74s1.63,1.74,1.58,2.38,0.05,4.89,0,6.32,1.97,4.02,1.59,5.54,0.87,3.85.79,4.74,1.58,3.96,1.58,3.96l4.74,2.37,3.96,1.58,2.37-.79,0.79-3.96-0.79-3.95-1.58-2.37-0.79-3.16,1.58-2.38h3.16l2.37-.79s2.49-4.37,2.37-4.74,2.53-5.22,2.38-5.54,1.26-3.06,1.58-3.95a10.4,10.4,0,0,1,2.37-3.16,9.235,9.235,0,0,1,2.37,0l3.17,2.37,1.58,3.95a15.65,15.65,0,0,1-1.58,3.17c-0.6.6-2.58,2.98-3.17,3.16s-3.62.3-3.95,0.79-3.6,4.69-3.95,5.53-2.75,1.71-2.38,2.38a28.594,28.594,0,0,1,.79,4.74s-0.46,2.94.79,3.95,3.96,3.96,3.96,3.96a27.9,27.9,0,0,1,.79,3.95c0.08,1.33,1.58,10.28,1.58,10.28s4.9,8.54,5.54,10.28,3.95,7.91,3.95,7.91,5.06,8.55,5.53,9.49,5.54,7.9,5.54,7.9,1.58,4.13,2.37,4.75,3.16,3.16,3.16,3.16l1.59,3.96,2.37,2.37Z" transform="translate(-944.844 -113.438)"/>
    <path id="形状_13" data-name="形状 13" class="cls-1" d="M1805.69,1708.71l-45.86,38.75-8.7,6.32-11.86-3.16-7.12-3.95s-3.46,9.16-4.75,10.28-5.78,16.56-7.9,19.77-7.91,18.18-7.91,18.18l-2.37,3.96-76.7-40.33-28.47-16.61L1574,1726.11l-1.58-5.54,2.37-11.86,0.79-4.74-0.79-3.17-6.32-3.95,1.58-5.53,7.91-14.24,11.07-10.28,8.69-8.69,6.33-6.33,4.75-7.12,9.48-7.11,9.49-3.96,7.91-3.16-4.74-2.37a67.1,67.1,0,0,1-7.12,0c-0.85-.25-7.12-0.79-7.12-0.79l-10.28,2.37-18.97.79-11.07-3.95-5.54-3.96-8.7-10.28-8.7-11.07-11.86-13.44-6.32-5.53-7.12-1.59-2.37-1.58-1.58-1.58,3.16-3.16-1.58-3.16-2.37-.8h-3.17l-4.74,3.96-3.16,1.58-2.38-2.37-2.37-3.17,1.58-3.16v-3.95l-0.79-2.37-4.74.79-3.17-.79v-3.17l3.17-3.16,3.95-3.16,3.16-1.58,2.38-2.38,2.37-3.95v-2.37l-3.16-.79-4.75-1.59v-2.37l-4.74-3.16h-4.75l-3.95-2.37h-4.75l3.17-3.17,2.37-2.37,3.16-2.37,3.96-2.37,3.95-.79,2.37-3.96v-3.95l-1.58-5.54,2.37-3.95,2.38-3.95,3.95-3.17,2.37,0.8,2.37,0.79,0.79-2.38,1.59-3.16,14.23-6.32,3.95-1.59,4.75-.79h2.37l1.58,4.75v11.07l-2.37,4.74-1.58,6.33,3.95,7.11,3.95,1.59,5.54,0.79,4.74,0.79s4.61,0.05,6.33,0a49.638,49.638,0,0,1,6.33.79l6.32-3.16,2.37-3.96,1.58-11.07a7.547,7.547,0,0,1,.8-7.12c2.43-3.79,3.27-6.06,4.74-6.32s5.21-1.71,6.33-1.58,7.9,1.58,7.9,1.58l3.96,3.16,2.37,5.54,3.16,3.16,3.16,0.79,5.54,5.54,3.16,6.32,1.58,7.91,2.38,7.12,3.16,2.37,5.53,2.37,8.7-1.58,12.65,1.58,4.75,1.58,2.37,3.95,2.37,3.96,3.96,3.16,1.58,5.54v7.9l3.95,4.75a7.885,7.885,0,0,1,2.37,3.95c0.9,2.87.88,3.44,1.59,4.75s2.03,2.83,3.16,3.16,3.95-.79,3.95-0.79,2.78-3.07,3.96-3.16,7.11-3.96,7.11-3.96l3.96-3.95s2.08-.85,3.16,0,4.74,1.58,4.74,1.58l1.58-1.58v-2.37h3.17l4.74,3.95,3.96,2.37,7.9,4.75,3.96,1.58,3.16-.79,3.16-3.96,1.58-1.58,6.33,7.12,3.16,1.58v6.33l-3.95,2.37s-1.55,7.06-1.58,7.91,0.79,18.97.79,18.97l0.79,7.91v5.54l-0.79,3.95-2.37,2.37a14.355,14.355,0,0,0,.79,3.95c0.56,0.95,4.74,9.49,4.74,9.49l9.49,13.45,9.49,11.07,7.91,10.28,6.32,8.69,4.75,5.54,6.32,5.53Z" transform="translate(-944.844 -113.438)"/>
    <path id="形状_14" data-name="形状 14" class="cls-1" d="M1645.96,1115.66l3.16,1.58v1.59l-0.79,1.58s-0.57-.03-1.58,0-7.91.79-7.91,0.79l3.17,3.16,3.16,0.79,1.58,3.17-1.58,2.37-5.54,1.58-3.95,4.74-4.74,1.58-0.8.8,1.59,3.95,1.58,6.32-1.58,1.59,1.58,3.16h3.95l1.58,1.58-2.37,1.58,0.79,2.37,1.58,0.8,2.38,2.37,0.79,2.37v5.53l0.79,2.38,1.58,0.79s2.59-.54,3.16-0.79,4.75-2.38,4.75-2.38l4.74-3.95,4.74-3.16s2.32,0.01,3.17,0,3.95,2.37,3.95,2.37l3.95,1.58,4.75,0.79,3.16-.79,3.96,2.37,1.58,1.59,0.79,2.37s4.63,1.84,5.53,2.37a24.328,24.328,0,0,1,3.17,3.16s1.61,0.77,1.58,1.58,0,3.96,0,3.96a5.834,5.834,0,0,1-.79,2.37,1.978,1.978,0,0,0-.79,1.58c-0.22,1.2-.8,7.12-0.8,7.12s-0.16,9.13,0,9.49a43.943,43.943,0,0,1,0,4.74l-3.16.79-1.58-1.58-1.58-1.58h-3.16l-2.38,2.37-0.79,1.58-3.95.79-3.16-.79h-2.38v2.37l3.96,2.38,3.16,3.16s6.3,8.79,6.33,9.49a24.7,24.7,0,0,0,1.58,3.95s2.22,2.6,2.37,3.96,0,8.69,0,8.69l3.16,2.38s2.05,3.02,2.38,4.74,0.79,5.54.79,5.54-2.11,3.24-2.38,4.74-0.79,4.74-.79,4.74l1.58,4.75,2.38,4.74,3.95,4.75,3.16,3.16,3.17,0.79,3.95,1.58,0.79,4.75,1.58,2.37,6.33,4.74,2.37,3.17,0.79,3.16s-1.23,6-1.58,6.33a13.752,13.752,0,0,0-1.58,4.74c0.01,1.15,0,5.54,0,5.54l-2.37,3.95s-1.96,1.12-2.38,2.37-1.58,5.54-1.58,5.54-2.51,4.74-2.37,5.53-1.4,3.4-1.58,4.75-4.75,5.53-4.75,5.53h-7.11l-5.54-.79a18.367,18.367,0,0,1-3.16-1.58c-0.69-.6-4.74-0.79-4.74-0.79h-6.33a20.53,20.53,0,0,0-2.37,3.16c-0.44.98-.29,2.9-1.58,3.16s-7.12.79-7.12,0.79l-3.16,1.59-3.17,3.16-3.16,3.95-1.58.79,3.95,0.79,6.33,1.59,4.74,1.58,3.96,3.16s0.81,2.8.79,3.16a29.829,29.829,0,0,0,.79,3.17l8.7,5.53,3.16,0.79a20.246,20.246,0,0,1,3.95,0c0.91,0.26,4.75-1.58,4.75-1.58l2.37-2.37,1.58-3.17v-12.65l3.95-2.37s3.84-.37,4.75,0,3.46,2.37,3.95,3.95,1.58,10.28,1.58,10.28v7.12l1.59,5.54,3.16,2.37,3.16,3.16s1.92,2.49,2.37,3.16,0.31,5.72.79,6.33a30.473,30.473,0,0,1,1.59,4.74l3.95,1.59a6.6,6.6,0,0,0,2.37,0c0.46-.29,1.57-1.53,2.37-1.59s2.76-1.83,3.96-2.37a43.783,43.783,0,0,0,3.95-2.37l1.58-.79,3.17,1.58,0.79,3.95,0.79,3.96,3.95,3.16,2.37,0.79a8.573,8.573,0,0,0,2.38.79,16.416,16.416,0,0,0,2.37-.79s1.92-.68,2.37-0.79,2.2,0.11,3.16,0,5.3,0.55,6.33,1.58,3.48,4.38,3.95,4.75,0.76,6.25,0,7.11a21.935,21.935,0,0,0-2.37,4.75,24.272,24.272,0,0,0,0,6.32c0.26,0.53,1.58,3.96,1.58,3.96l0.79,2.37,3.16,4.74,3.17,5.54,2.37,3.95,1.58,3.17v3.95l4.75,0.79,3.95,1.58,0.79,3.95-3.16.8-2.38,2.37,3.17,1.58h3.95l1.58,1.58-3.16,3.95-1.58,3.96v1.58l-1.58,1.58a4.63,4.63,0,0,1-.79,1.58c-0.4.3,1.58,1.58,1.58,1.58h3.95l3.96-3.95,0.79-2.37,5.53,1.58,3.16,0.79a49.823,49.823,0,0,0,5.54-1.58c0.85-.47,7.62-2.24,7.91-2.37s4.74-.79,4.74-0.79h5.54l11.86,2.37s4.29,0.31,4.74.79,3.11,2.44,3.95,3.16a62.292,62.292,0,0,0,6.33,3.16l2.37,1.59,2.38-.79-0.8-5.54,0.8-3.16,3.16-3.96s3.07-5.26,3.95-5.53a18.009,18.009,0,0,0,4.75-3.96c0.89-1.21,4.74-5.81,5.53-7.11s3.72-4.6,3.95-5.54,1.66-4.2,2.38-4.74a37.337,37.337,0,0,0,3.16-3.95l6.33-7.12,0.79-3.16,2.37-3.17,3.95-2.37,3.17-3.95v-3.17l1.58-3.95-0.79-4.74-3.96-.79-3.95-4.75-3.16-10.28,1.58-6.32s1.27-5.9,1.58-7.12,4.74-7.91,4.74-7.91l4.75-3.95,3.95-3.17,3.16-9.48s-0.42-8.56,0-9.49,1.59-10.28,1.59-10.28l5.53-.79,5.54-.79,0.79-3.17,3.16-3.16-0.79-3.95-0.79-3.17-1.58-1.58,3.16-4.74-1.58-2.37-1.58-2.38,1.58-3.16s3.84-3.19,4.74-3.16,3.96-1.58,3.96-1.58v-3.17l-1.59-3.16v-7.12l-3.16-.79s-0.97-.11-0.79-1.58,2.37-6.32,2.37-6.32l2.38-3.17,0.79-5.53-0.79-4.75-3.96-2.37s-0.56-2.12-.79-3.16-0.79-4.75-.79-4.75l-1.58-1.58-3.95-.79-1.59-3.16s-3.12.41-3.16,0-1.99-1.8-2.37-1.58-2.37-.79-2.37-0.79-1.49.89-1.59,0a31.913,31.913,0,0,1,.8-4.75s1.55-1.52,2.37-2.37,4.74-3.95,4.74-3.95l-0.79-3.17-4.74-3.95-1.58-4.74a3.811,3.811,0,0,1,0-2.38c0.47-.88,1.33-5.29,1.58-5.53s1.58-3.16,1.58-3.16v-2.38l-1.58-2.37s-2.55-2.08-2.38-2.37a18.438,18.438,0,0,0,0-3.16l0.8-2.38-1.59-2.37-3.95,1.58-1.58.79-2.37-1.58a20.12,20.12,0,0,1-.79-4.74,20.819,20.819,0,0,1,.79-4.75,33.408,33.408,0,0,1,3.16-3.95l3.16-.79,3.17-3.95,2.37-1.59a12.918,12.918,0,0,1,3.95,0c1.76,0.36,5.54.79,5.54,0.79l2.37-1.58-0.79-2.37s-4.9-.34-5.54-0.79-4.74-2.37-4.74-2.37l-0.79-7.12-1.58-7.91-2.38-3.95h-4.74l-19.77,1.58a6.466,6.466,0,0,0-2.37.79c-0.84.59-6.33,3.17-6.33,3.17l-7.11.79h-7.91l-6.33-1.59-5.53.8-10.28,1.58-3.95-.79-3.96,1.58h-0.79s-0.87-8.37-.79-8.7,0.79-4.74.79-4.74l3.16-3.17h5.54l-1.58-3.95-2.37-1.58s2.13-1.06,3.16-1.58,4.74-4.75,4.74-4.75l-5.53-.79-6.33,4.74-7.11,1.59-1.59-.79s-3.32-.6-3.16-1.59-3.16-3.95-3.16-3.95a7.312,7.312,0,0,0-2.37,0c-0.56.25-4.75,1.58-4.75,1.58l-0.79,2.37,0.79,4.75-2.37,1.58-3.16-.79-3.96-.79v-3.96l-3.16-2.37-0.79-3.95,1.58-3.16h3.95l0.79-2.38,0.8-5.53-0.8-4.75a8.316,8.316,0,0,0-3.16,0,13.24,13.24,0,0,1-3.95,0l-2.37-2.37-0.79-3.95-1.59-.79-3.95,2.37-3.16,2.37-3.96-.79-3.16.79-1.58,1.58-1.58,1.59-3.17-3.17s-2.47-3.86-3.16-3.95-4.74-1.58-4.74-1.58l-4.75-.79-7.11-2.38-2.38-1.58-0.79-3.95-1.58-.79h-2.37l-4.74,2.37-3.96-.79-1.58-1.58-3.16,2.37-2.37.79-3.17,1.58a3.732,3.732,0,0,1-1.58,0c-1.13-.15-2.61-1.65-3.16-1.58a5.318,5.318,0,0,1-2.37-.79c-0.63-.36-2.38.79-2.38,0.79a16.943,16.943,0,0,1-1.58,3.16c-0.62.72-2.22,2.36-2.37,3.17s-2.78,3.69-3.16,3.95-7.91,3.95-7.91,3.95h-11.86l-7.91-1.58-7.12.79-5.53-1.58h-3.95l-4.75-2.37-4.74-1.58a37.8,37.8,0,0,1-3.17-3.96c-0.54-1.03-3.16-5.53-3.16-5.53l-3.95-1.58-3.96,1.58-2.37,1.58Z" transform="translate(-944.844 -113.438)"/>
    <path id="形状_15" data-name="形状 15" class="cls-4" d="M1443.53,906.91l-6.32-1.581-5.54,3.163-6.32,2.372-3.17.791h-5.53l-6.33.79-5.53.791-5.54,3.954s-5.67,2.969-6.32,3.163a31.479,31.479,0,0,0-4.75,2.372c-0.89.641-4.74,0.791-4.74,0.791l-2.38-3.163-1.58-4.745v-3.953l-2.37-3.163v-3.954l4.75-2.372,0.79-.791,0.79-5.535v-3.954l-0.79-1.581,0.79-2.372,1.58-1.582v-4.744l-5.54-6.326-9.49-5.535-10.28-3.163-3.16-2.372h-7.91l-3.16.79-3.95-1.581-3.17-.791h-4.74l-3.95,1.582-7.91,4.744-4.74.791-2.38-1.582-3.16-.79h-4.74l-5.54,1.581-2.37,1.581-1.58,4.745-2.38,3.163-2.37,3.953s-6.55,6.82-7.11,7.117-1.79,1.96-3.17,2.372-5.53,2.372-5.53,2.372-2.02,2.4-3.17,3.954a35.488,35.488,0,0,0-2.37,3.954v4.744l0.79,3.163,2.38,4.745s2.45,4.307,3.16,4.744,1.58,3.163,1.58,3.163l-2.37,2.372a42.652,42.652,0,0,0-4.75.791c-0.38.247-4.74,0-4.74,0l-5.54,1.581-4.74,3.163s-4.97,2.861-5.54,3.163-1.58,3.954-1.58,3.954v3.163l3.17,3.163,0.79,4.744-4.75,2.372-0.79,3.163v3.163l4.75,2.372,3.16,0.791,3.95-1.582,4.75-1.581,5.53-4.744,6.33-2.373,3.16,3.163,0.79,10.28,1.58,7.116s3.48,2.563,3.96,4.745a44.058,44.058,0,0,0,2.37,6.326l7.12,3.953,3.16,2.373,2.37,4.744,3.16,4.744,6.33,3.166,6.33,4.74s2.26,5.02,2.37,6.33,0,6.32,0,6.32l-2.37,4.75-3.96,2.37v3.95l-1.58,7.91-2.37,3.95-3.17.8-3.95,2.37s-1.17,2.28-.79,3.16,4.74,4.74,4.74,4.74,1.82,2.98,2.38,3.96a15.035,15.035,0,0,1,.79,3.95l-3.17,4.75s-0.69,2.43-.79,3.16a13.1,13.1,0,0,0,.79,3.16l2.38,1.58a19.639,19.639,0,0,1,3.95-.79c0.92,0.09,7.12-.79,7.12-0.79l8.7-.79s5.98,0.83,6.32,1.58a36.144,36.144,0,0,1,.79,4.75,39.477,39.477,0,0,0-3.16,3.95c-0.28.68-3.49,8.01-3.95,9.49s-5.3,8.63-5.54,10.28a47.062,47.062,0,0,1-.79,6.33,45.317,45.317,0,0,0-.79,7.11l3.16,9.49a15.4,15.4,0,0,1,.79,4.75,53.579,53.579,0,0,1-1.58,7.11l-2.37,6.33,0.79,2.37s1.87,0.56,2.37,1.58,3.93,8.08,3.96,8.7,2.55,6.15,2.37,7.12,0.18,7.38,0,7.9a19.372,19.372,0,0,0,.79,6.33c0.68,1.99,2.37,6.32,2.37,6.32l1.58,0.8s4.39-2.87,5.54-3.17,4.19-.12,4.74-0.79,3.16-3.16,3.16-3.16l3.96-2.37,0.79-2.38,4.74-3.16a5.6,5.6,0,0,0,3.17-.79,15.39,15.39,0,0,1,3.95-1.58s3.58-3.6,3.95-3.95a23.078,23.078,0,0,0,1.58-3.17l2.38-3.16,2.37-2.37s3.24-.38,3.95,0,4.3,1.54,4.75,2.37,3.9,4.62,4.74,7.12,3.16,11.07,3.16,11.07,0.59,7.88.8,8.69-3.81,6.46-3.96,7.12a41.92,41.92,0,0,0-.79,5.54c-0.19,2.59-1.06,8.6-.79,11.07s-0.27,5.96,0,7.11a18.913,18.913,0,0,0,2.37,3.96l3.96,0.79,3.16-1.58,3.16-.79h4.75l2.37,0.79s4.11-.57,4.74-0.79,3.96-1.59,3.96-1.59l3.16-.79,4.74-.79,3.96,1.58h2.37l3.16-2.37,2.37-3.95,3.96-2.37s2.84-1.7,3.16-2.38,2.69-2.57,3.16-2.37a24.726,24.726,0,0,0,3.96,0l3.16,1.58s2.1,0.31,2.37.79,2.15,1.01,2.38,0,4.74-3.95,4.74-3.95a37.051,37.051,0,0,0,4.74,0c0.69-.2,5.42,1.71,7.12,1.58s5.32-.79,6.33-0.79a45.269,45.269,0,0,0,4.74-.79l3.95-.79,0.8,2.37s1.28,2.13,2.37,1.58,1.33-.04,2.37-0.79,3.16-2.37,3.16-2.37,2.57-.55,3.96-0.79,2.04-1.09,3.95,0a39.727,39.727,0,0,1,3.95,2.37c0.95,0.7,3.17,5.54,3.17,5.54a11.048,11.048,0,0,0,.79,3.16c0.47,0.63,1.19,3.63,1.58,3.95s5.53,4.75,5.53,4.75a6.313,6.313,0,0,0,3.17,1.58c1.64,0.14,3.44.95,3.95,0.79s1.51,0.32,3.16,0,0.95-.6,3.96-0.79,5.66-.3,6.32,0,1.6,0.35,2.38-1.58,1.97-4.99,2.37-5.54,1.69-.31,2.37-3.16a36.779,36.779,0,0,1,1.58-5.54,27.044,27.044,0,0,1,2.37-3.95h2.38s1.17,1.76,1.58,2.37,0.51,5.16.79,7.12-0.19,3.95.79,2.37,0.36-2.68,1.58-3.95,5.63-5.41,6.33-6.33a17.946,17.946,0,0,0,1.58-3.16l3.16-3.95,1.58-3.96s3.42-4.8,3.96-5.53,3.97-4.94,4.74-4.75,3.41-1.29,4.74-2.37,3.17-1.84,3.17-2.37,2.26-4.07,2.37-5.54,1.39-4.29,1.58-5.53,1.48-5.11,1.58-6.33a37.549,37.549,0,0,1,1.58-5.53c0.35-.99,1.92-2.36,2.38-3.17a40.326,40.326,0,0,1,3.95-3.95s5.29,0.42,7.12-.79,4.34-3.29,4.74-3.16,2.11-1.47,3.16-1.58,4.29-1.14,4.75-.8,3.95,0,3.95,0l3.95-.79,4.75-.79,2.37-1.58,2.37-3.16s4.21-.63,4.75-0.79,2.37-3.96,2.37-3.96a6.876,6.876,0,0,0-1.58-1.58c-0.92-.6-3.95-2.37-3.95-2.37l-2.38-1.58s-0.27-1.7,0-1.58,4.75,0.79,4.75.79l3.95-.79,2.37-2.37a9.385,9.385,0,0,0-2.37-1.59,31.044,31.044,0,0,0-3.16-.79,8.033,8.033,0,0,1-2.37-.79s-0.19-3.61-.79-3.95-1.59-3.95-1.59-3.95-1.4-2.39-2.37-2.38-3.95,0-3.95,0h-15.82a6.22,6.22,0,0,1-3.16-1.58c-1.09-1.22-3.16-3.16-3.16-3.16h-3.96l-3.16-.79a2.78,2.78,0,0,1-2.37-1.58c-0.55-1.5-.54-5.52-0.79-6.33s-0.79-4.74-.79-4.74h-9.49l-4.75-1.59h-4.74l-3.16-2.37,0.79-4.74,4.74-1.58,4.75-1.58,1.58-1.59,0.79-4.74a10.821,10.821,0,0,0,2.37-.79,20.011,20.011,0,0,1,4.74-1.58c0.92-.06,3.96-0.79,3.96-0.79l0.79-3.17-1.58-3.95-3.17-2.37-0.79-3.17,3.17-1.58v-16.6l-0.79-6.33-2.38-3.16-2.37,3.16-4.74,1.58-3.96-.79s-3.43-.12-3.95,0a23.425,23.425,0,0,1-3.95-.79l-3.17-3.16-0.79-4.75v-4.74s-0.16-1.72.79-2.37a29.643,29.643,0,0,0,3.17-3.16l2.37-1.59,1.58-1.58s1.69-.54,1.58-1.58-0.39-5.225,0-5.534,1.58-1.582,1.58-1.582a1.752,1.752,0,0,0,1.58,0c1.04-.386,1.97.387,3.17,0a8.02,8.02,0,0,1,3.16,0l1.58-1.581,2.37-2.372,1.59-1.582,3.95-1.581,1.58-1.582s-0.57-4.276-1.58-3.953-7.01-.323-7.91,0-15.81-.791-15.81-0.791l-22.14.791-9.49.79a41.492,41.492,0,0,0-5.54-.79c-0.66.156-5.53,0.79-5.53,0.79l-4.75,1.582h-9.49l-3.16-1.582-1.58-2.372v-8.7l0.79-7.117s0.07-2.736-.79-3.953a16.726,16.726,0,0,1-1.58-3.163l-2.37-1.582v-3.163s1.65-2.146,2.37-2.372,5.63-1.776,6.32-1.581,3.96-1.582,3.96-1.582l4.74-2.372-0.79-2.372-5.53-1.581-11.07-.791-7.12-.791-7.12,3.163s-2.75,2.294-3.16,3.163-4.01,6.232-3.95,7.116-3.17,4.745-3.17,4.745l-3.16,3.163-5.53-1.582-3.96-2.372s-2.61-.3-3.16-0.791,0.38-4.534,0-6.325-0.79-8.7-.79-8.7l-6.33-.791-4.74,2.372s-3.3,1.232-3.96.791-4.77-1.815-5.53-2.372-1.82-4.033-.79-3.954,6.32-1.582,6.32-1.582l5.54-3.162-0.79-3.163-3.16-3.163-7.12-.791-4.74-2.372-3.96-5.535-0.79-3.163v-4.745l1.58-3.953V906.91Z" transform="translate(-944.844 -113.438)"/>
    <path id="形状_16" data-name="形状 16" class="cls-3" d="M1334.41,1182.88l0.79,3.16-2.37,2.37-1.58,1.58s0.56,2.76,0,3.17-2.37,3.95-2.37,3.95l-1.59,3.95-2.37,2.37-2.37,3.17-0.79,1.58v1.58l0.79,2.37a2.923,2.923,0,0,1,.79,2.37c-0.28,1.28-.8,2.73-0.79,3.17s-0.02,1.23-1.58,1.58a8.293,8.293,0,0,1-3.16,0l-6.33.79s-3.07,1.28-3.95,1.58-3.96,3.16-3.96,3.16-5.01,3.48-5.53,3.96-2.91,3.03-3.96,3.16-7.11,3.95-7.11,3.95a18.561,18.561,0,0,1-3.17,2.38,28.455,28.455,0,0,1-4.74.79l-7.91-.79-3.16.79s-3.43,2.69-3.95,3.16-3.17,3.95-3.17,3.95l-2.37,3.96a7.638,7.638,0,0,0-1.58,2.37c-0.37,1.14-1.21,2.37-.79,3.16s2.37,3.96,2.37,3.96l1.58,2.37,1.58,4.74s-2.87,2.01-3.16,3.17-1.38,1.85-1.58,3.16a21.5,21.5,0,0,1-.79,3.95,26.126,26.126,0,0,0-.79,4.75l3.95,4.74,4.75,2.37a38.659,38.659,0,0,1,5.53,0,12.258,12.258,0,0,0,3.16,0l3.17-2.37,2.37-5.53,3.95-7.12,1.58-3.16s2.07-3.46,3.17-2.38,4.74,3.96,4.74,3.96,2.35,2.89,3.16,3.16,3.96-.79,3.96-0.79h1.58l-0.79,4.74s-1.31,3.47-.79,3.96a44.3,44.3,0,0,0,3.95,2.37l2.37-.79s2.1-1,2.38-2.37,2.37-3.96,2.37-3.96h3.95l3.17,1.59s1.18,2.84,2.37,3.16a40.818,40.818,0,0,1,3.95,1.58l3.95-1.58,3.17-3.16,1.58-2.38,3.16-.79,3.16,1.58,1.59,3.96v3.95s-1.21,2.53-1.59,3.16-1.05,2.71-2.37,3.17-4.35,1.05-4.74,1.58-4.29,3.39-4.75,3.95-1.04.45-1.58,1.58a11.256,11.256,0,0,0-.79,3.17c-0.24,1.28-.84,6.47-0.79,7.11s-1.55,18.75-1.58,20.56-0.73,9.8-.79,10.28-1.61,8.54-1.58,9.49-0.03,4.81,0,5.54,3.16,4.74,3.16,4.74l0.79,4.74v4.75s-5.15,1.08-5.53,1.58-30.84,10.28-30.84,10.28l-15.03,5.54-3.16,2.37-3.95,2.37h-4.75l-4.74,2.37-7.12,7.12s-2.42,6.17-2.37,7.11,0,9.49,0,9.49l-0.79,4.75,2.37,7.11,3.16,4.75,3.17,0.79s3.88,0.11,4.74,0,5.54,0,5.54,0l3.16,3.95a15.4,15.4,0,0,1,2.37,3.17c0.33,0.98,4.56,5.26,5.54,5.53a50.084,50.084,0,0,1,4.74,2.37l1.58,5.54v4.74l3.17,2.38a9.744,9.744,0,0,1,3.16.79c0.99,0.59,5.53.79,5.53,0.79s4.54,0.12,4.75.79,4.82,4.51,5.53,5.53a46.456,46.456,0,0,0,3.96,3.96l3.16,3.16,2.37,2.37h23.72l2.38,0.79h2.37l3.16-1.58,3.95-.79a9.355,9.355,0,0,1,3.17,0,33.484,33.484,0,0,1,3.16,2.37l3.16,7.12s7.24,4.98,7.91,5.53a37.644,37.644,0,0,0,4.74,3.17c0.75,0.25,2.04.42,3.96,0.79s5.38-.3,5.53.79,1.59,7.91,1.59,7.91a12.323,12.323,0,0,0,.79,3.16,38.118,38.118,0,0,0,3.95,3.95l3.95,3.96,6.33,0.79,12.65-1.58h3.16l6.33-.8,3.95,1.59,3.17-.79,8.69-3.96,6.33-3.16,1.58-2.37v-5.54s2.75-1.61,3.16-2.37,3.96-1.58,3.96-1.58l1.58-.79,0.79-2.38v-6.32s0.78-3.29,1.58-3.95a63.5,63.5,0,0,0,5.54-6.33c0.69-1.12,3.95-4.75,3.95-4.75l0.79-3.16v-5.53l4.75,0.79,0.79,0.79,0.79,3.16,1.58,1.58,3.16-1.58v-3.16l1.58-2.37h2.38l-0.8-2.38h-0.79s-1.95-1.15-1.58-1.58a36.369,36.369,0,0,0,1.58-4.74s2.62-.75,3.17-0.79a16.468,16.468,0,0,0,2.37-.79s1.74-3.15,2.37-3.17,2.37-1.58,2.37-1.58h3.96l4.74,2.37,5.54,0.8,9.49,1.58s5.17,0.31,5.53,0,3.16-1.58,3.16-1.58h7.12l2.37,2.37h2.37l1.59-1.58-1.59-3.17-2.37-3.16s-2.48-1.22-3.16-1.58-3.16-1.58-3.16-1.58,0.53-3.55,0-3.96-0.44-1.85-.79-3.16,0.79-6.33.79-6.33,1.21-1.31,2.37-2.37,4.33-3.6,5.53-4.74,6.32-2.02,7.91-3.16,4.81-2.63,5.54-3.17,5.53-5.53,5.53-5.53l7.12-3.17,4.74-1.58,7.12-2.37,2.37-3.16,3.16-4.75,1.59-5.53s-0.09-3-.8-3.96a19.457,19.457,0,0,1-1.58-3.16v-3.16s1.91-2.43,2.38-2.37,6.32-2.38,6.32-2.38,3.21-2.72,3.95-3.16,6.71-5.2,7.12-5.53a39.831,39.831,0,0,0,2.37-3.96l3.17-4.74,1.58-.79,3.16-.79,0.79,2.37,0.79,1.58h1.58l1.59-1.58s4.2,0.27,4.74,0,4.19-.41,5.53-0.79,4.75,0.79,4.75.79l2.37-.79,0.79-1.58,3.16,3.16v3.16l2.38,3.17h7.9s8.98,1.27,9.49.79,3.03-1.17,3.96-1.59,3.95-2.37,3.95-2.37l2.37-2.37s1.4-2.97,2.37-3.16a15.573,15.573,0,0,0,3.17-1.58s0.9-1.84,2.37-1.59a18.5,18.5,0,0,0,3.95,0l3.17-.79,1.58-1.58,1.58-3.16,1.58-1.58h5.54l4.74,0.79s2.42,2.38,3.16,2.37,3.47-.14,4.75,0,4.81-.81,5.53-0.79,3.96-1.58,3.96-1.58l2.37-2.37,2.37-6.33,1.58-4.74s0.89-6.06,2.37-7.12a44.891,44.891,0,0,1,3.96-2.37l0.79-3.17v-3.95l0.79-3.95a8.132,8.132,0,0,0,1.58-3.96,50.422,50.422,0,0,1,.79-5.53l-0.79-3.16-3.16-1.59-3.96-3.16-3.16-1.58-0.79-3.95v-3.17l-3.16-.79-4.75-1.58s-2.11-2.85-2.37-3.16-3.16-3.96-3.16-3.96l-2.37-5.53s-2.48-2.83-2.38-3.16,0-5.54,0-5.54l2.38-3.95,0.79-3.96-2.38-5.53-2.37-3.96-1.58-2.37v-4.74l-0.79-3.16-0.79-3.17-3.95-7.11-3.96-3.96-3.95-4.74-3.16-2.37-1.59-1.59,1.59-1.58,5.53,0.79a1.53,1.53,0,0,0,1.58,0c0.55-.54,2.37-2.37,2.37-2.37s1.07-1.07,1.59-1.58,3.16,0,3.16,0a6.605,6.605,0,0,0,2.37,1.58c1.16,0.32,3.95.79,3.95,0.79l0.8-2.37v-18.19l1.58-5.53,0.79-4.75-3.96-3.16s-2.06-2.23-3.16-2.37a20.94,20.94,0,0,1-3.95-1.58l-1.58-2.38-1.59-1.58-4.74-1.58h-3.95l-3.96-.79-0.79-.79-4.74-2.37h-3.17l-4.74,3.16a8.461,8.461,0,0,0-2.37,1.58c-1.11,1.06-3.96,3.17-3.96,3.17l-5.53,2.37h-1.58s-1.22,1.61-1.58,0a26.413,26.413,0,0,1,0-5.54v-3.16l-1.58-2.37-3.17-1.58s-2.56-.19-1.58-1.59,2.37-3.16,2.37-3.16v-2.37l-4.74-.79-3.16-2.37,3.16-2.38-0.79-3.16-1.58-3.16-0.79-3.96h-7.12s-3.68-.13-3.95,0-5.22.92-5.54,1.59a21.449,21.449,0,0,1-3.16,3.16,8.428,8.428,0,0,1-2.37.79,22.922,22.922,0,0,1-3.96.79c-1.39.14-4.85,2.04-5.53,2.37s-3.17,3.96-3.17,3.96l-2.37,7.9a25.672,25.672,0,0,1-.79,4.75c-0.54,1.52-1.58,6.32-1.58,6.32s-0.74,3.67-1.58,3.96-3.96,3.16-3.96,3.16l-4.74,3.16-3.16,2.38-3.17,2.37-3.16,6.32s-1.13,4.81-2.37,5.54-3.16,3.95-3.16,3.95l-3.17,3.96-2.37,3.95-2.37,2.37-0.79-3.95v-6.33l-3.17-1.58h-3.16l-0.79,3.95-3.95,8.7-2.37,4.75-1.59,1.58h-7.9l-5.54,1.58-3.95-.79-3.17-2.37-3.16-1.58-3.16-2.38-1.58-4.74-0.79-3.16-1.58-3.96-1.59-3.16s-3.69.06-3.95,0-4.74-.79-4.74-0.79-2.22,2.2-3.17,2.37-4.74,1.58-4.74,1.58l-1.58,1.58-1.58-3.16-1.59-1.58-3.16,1.58s-9.65.29-10.28,0-2.75,2.02-3.95.79-5.54-2.37-5.54-2.37l-3.95.79-2.37,3.16-2.38.79-4.74-1.58a22.239,22.239,0,0,0-3.95-.79c-0.59.13-4.75,0.79-4.75,0.79l-3.16,3.17-6.33,4.74-3.16,3.16-3.16.79h-3.96l-3.95-.79-3.95,2.37-3.96.8-6.32.79s-1.32-.38-2.38-0.79-2.1-1.32-3.16-.8-4.74,3.17-4.74,3.17h-3.96l-2.37-.79-1.58-5.54v-5.53l0.79-6.33,0.79-8.7,3.16-3.95,0.8-4.75,0.79-6.32-3.17-9.49-0.79-5.53-3.95-6.33-5.54-2.37-4.74.79-3.95,3.16a10.5,10.5,0,0,1-.8,3.95c-0.74,1.26-7.22,5.82-7.9,6.33a26.487,26.487,0,0,1-3.17,1.58h-2.37l-2.37,2.37-3.16,3.17-3.96,3.95-3.16,1.58h-3.95l-3.17,2.37Z" transform="translate(-944.844 -113.438)"/>
    <path id="形状_17" data-name="形状 17" class="cls-4" d="M1658.61,1363.95l10.28,2.38,4.75,3.95,1.58,1.58,1.58,3.95,1.58,3.17,5.53,2.37,5.54,2.37s4.44,0.46,5.53,0a45.2,45.2,0,0,0,4.75-3.16l0.79-4.75v-7.11l1.58-4.75s3.5-3.16,3.96-3.16,4.74,1.58,4.74,1.58l2.37,3.16,2.37,5.54s0.98,6.4.79,8.7,1.59,8.7,1.59,8.7,4.81,3.07,5.53,3.95a7.443,7.443,0,0,1,2.37,4.74c0.16,2.56.02,6.23,0.79,7.91s0.37,4.23,2.38,3.95a24.994,24.994,0,0,1,4.74,0s3.22,0.68,3.95,0,2.76-2.04,3.96-3.16,3.95-3.16,3.95-3.16l3.96,0.79,1.58,3.95,2.37,6.33,3.95,3.16a31.779,31.779,0,0,0,5.54-.79,12.6,12.6,0,0,1,4.74-.79c3-.17,9.73,1.44,10.28,4.75s1.68,6.58-.79,11.07-2.7,4.88-1.58,8.69,1.67,4.83.79,6.33a21.941,21.941,0,0,1-3.95,5.53c-1.95,1.79-5.12,3.29-5.54,4.75s-0.68,2.66-3.16,3.16-3.8,3.32-4.75,0,0.82-6.53-2.37-6.32-6.03,3.29-7.11,3.95-4.97,4.41-5.54,4.74a22.793,22.793,0,0,1-3.16,1.59c-0.62.15-1.79,3.13,0,3.95s3.91,3.27,3.95,3.95,0,5.54,0,5.54-5.27.99-6.32,1.58-10.63-3.48-11.87-3.95-6.32-.8-6.32-0.8-3.77,1.35-3.96,4.75,1.73,6.97,2.38,8.7,0.95,4.91,0,6.32-1.43,4.37-.79,7.91,4.74,7.12,4.74,7.12,0.85-.32,1.58,2.37-0.76,7.86.79,9.49,2.32,5,4.75,6.32,7.74,4.11,8.7,6.33,0.79,7.12.79,7.12-2.08,7.24-3.17,8.69-6.32,3.17-6.32,3.17-0.6,4.12-.79,6.32-0.79,7.91-.79,7.91h-3.17l-3.16-3.16s-2.41-1.63-3.16-1.58-3.96,3.95-3.96,3.95a57.646,57.646,0,0,1-6.32-1.58l-5.54,2.37-3.95,3.16-4.75,3.96-3.95,1.58h-3.16l-1.58-.79-1.59-3.96-1.58-3.95-3.16-4.74-3.16-3.96s1.18-5.81.79-6.32,0-3.17,0-3.17l-3.96-3.95-3.95-5.54s-1.42-3.18-2.37-3.95-8.7-1.58-8.7-1.58l-8.7-.79h-7.9s-3.75-1.76-4.75-1.58-3.95-2.37-3.95-2.37l-1.58-6.33s-4.19-8.96-4.75-10.28-3.95-7.12-3.95-7.12l-3.96-2.37s-4.19-1.25-4.74-3.16-1.58-6.33-1.58-6.33l-6.33-5.53s-6.91-.32-7.91,0-7.9,3.16-7.9,3.16-1.45,5.08-1.58,5.54-0.45,4.15-.79,7.11-1.59,10.28-1.59,10.28l-3.95,4.75s-12.61,2.95-13.44,2.37-18.98-3.96-18.98-3.96l-2.37-3.95-1.58-6.33,2.37-5.53,0.79-7.12,0.79-8.69-2.37-3.17-7.12,1.58-15.02,6.33-3.96,4.74-0.79,3.17-3.16-1.58h-3.95l-5.54,7.9v4.75l0.79,7.9-2.37,1.59-7.12,4.74-5.53,4.74-2.37,3.17-2.38-2.37-0.79-3.17-4.74-2.37-3.95-1.58-3.96.79s-4.05.38-3.95-.79-2.37-3.95-2.37-3.95l-4.75-.8h-3.95l-5.54-2.37-7.11-2.37-5.54-2.37v-5.54s1.86-3.86,3.16-3.95,4.75-3.16,4.75-3.16l2.37-4.75v-3.16l1.58-4.75,5.54-6.32,3.16-4.75,1.58-3.95,0.79-3.95h3.16l1.59,3.16,3.16,2.37s0.84,0.56,1.58-.79,0.79-4.74.79-4.74l4.75-1.58-3.17-3.96,1.58-6.32,3.17,0.79,5.53-5.54s7.23,2.21,8.7,2.37,6.52,0.62,7.91.79,11.07,2.38,11.07,2.38l5.53-.79,4.75-1.59,3.16,3.17,5.54-.79-1.59-4.75-5.53-5.53-3.95-.79,0.79-11.07a14.2,14.2,0,0,1,3.16-5.54,35.334,35.334,0,0,1,5.53-3.95l7.12-2.37,7.12-4.75,5.53-5.53,11.86-4.75,7.12-1.58,3.16-6.33,1.58-4.74,0.8-4.74-1.59-3.17-0.79-5.53s4.6-2.79,5.54-3.17,11.07-4.74,11.07-4.74l3.16-4.74,5.54-7.12,3.16-1.58,2.37,0.79,0.79,1.58H1608l6.33-2.37,11.07,0.79,4.74-.79,0.8,7.11,3.95,1.59,13.44,0.79Z" transform="translate(-944.844 -113.438)"/>
    <path id="形状_18" data-name="形状 18" class="cls-5" d="M1250.59,1435.91l-0.79,4.74h-3.95l-5.54-.79-5.53,3.17,2.37,3.95-1.58,3.16-6.33.79h-7.9l-2.38,4.75-6.32,2.37-4.75-1.58-3.95-.79-11.07,4.74-10.28,7.12-1.58,6.32,5.53,4.75,4.75,1.58,6.32-1.58,10.28-.79,3.17,0.79,0.79,1.58-0.79,1.58,0.79,6.33,0.79,4.74s-2.46,4.24-3.16,3.96a17.755,17.755,0,0,0-3.96,0l-5.53,6.32-4.75,5.54v4.74l6.33,3.16v3.96l-5.54,3.16-5.53,2.37-3.96,4.75-1.58,2.37h18.98l3.16,2.37,2.38,2.37-4.75,7.12-0.79,10.28v13.44s1.52,9.17,2.37,11.07,6.33,3.17,6.33,3.17l5.53-2.38,7.91,0.79,3.95,0.8,1.59,5.53-2.38,4.74-5.53,3.96-9.49-.79h-6.33l-0.79,3.95v5.54l-4.74,3.16-5.54,10.28-0.79,4.74,6.33,3.96,5.53,1.58,4.75-3.96,0.79,3.96,0.79,6.32h7.12l4.74-.79,5.54-1.58,6.32-.79,3.96,0.79,3.16,6.33,1.58,4.74,3.16,0.79h5.54l3.16,0.79,3.16,2.38s2.57,0.11,3.96,0a33.068,33.068,0,0,0,3.95-.79l3.95,1.58-4.74,3.95a49.538,49.538,0,0,0-5.53,3.95,28.335,28.335,0,0,0-3.17,3.17l5.54,1.58,7.9,0.79a25.627,25.627,0,0,1,4.75,1.58c1.29,0.76,6.33,4.75,6.33,4.75s2.53,1.12,3.95,1.58a35.751,35.751,0,0,0,6.32.79c1.11,0.03,8.7,0,8.7,0l5.54,0.79,4.74,1.58,5.54-1.58,6.32-3.96h7.12s6.87-.76,7.91-0.79,11.07-2.37,11.07-2.37l4.74,2.37,3.96,1.59,5.53-1.59s0.48,1.31.79,2.38-1.58,3.16-1.58,3.16-3.35.58-4.74,0.79-6.27,2.28-7.12,3.16-7.61,6.12-8.7,6.33-3.66,3.13-4.74,3.95-4.39,5.02-4.75,7.12-1.58,8.7-1.58,8.7l-0.79,2.37-2.37,2.37-3.96,2.37-3.16,5.54v4.74l3.16,6.33,3.17,1.58,5.53,2.37s4.31,2.41,5.54,3.96,4.74,7.11,4.74,7.11,0.06,9.41,0,11.86-0.79,9.49-.79,9.49l-5.53,3.96-1.59,3.95,1.59,3.95,3.16,3.17,6.32,5.53,4.75,1.58,3.16,1.58s3.34-.44,3.96,0a43.15,43.15,0,0,1,3.16,3.96s-2.2,2.17-2.37,3.16a17.509,17.509,0,0,0,0,3.16h4.74l10.28,6.33s3.77,1.75,3.95,2.37,1.59,3.96,1.59,3.96l-2.38,2.37s-1.28,1.32-.79,2.37,3.17,3.16,3.17,3.16l17.39,0.79,7.12-.79h4.74l2.37-1.58,3.17-1.58,3.16,0.79a12.975,12.975,0,0,0,0,3.16c0.24,1.11,2.37,6.33,2.37,6.33l2.37,0.79,3.96-1.58,4.74-3.96,17.4-11.07,6.32-1.58h2.38v-4.74l2.37-7.91s4.27-2.32,4.74-3.16,4.75-3.96,4.75-3.96l7.91-2.37s7.01-3.42,7.9-3.16,8.41-3.3,9.49-3.16a15.42,15.42,0,0,0,3.95-.79l2.38-.79,2.37-2.38,3.16-2.37s6.9,0.47,7.91,0,4.74-1.58,4.74-1.58l-4.74-15.82-0.79-4.74s0.93-3.85,2.37-3.95,6.33-4.75,6.33-4.75l3.95,3.17v8.69a31.644,31.644,0,0,0,4.74-1.58,66.514,66.514,0,0,0,6.33-3.95l30.84-21.35,3.16-2.37,0.79-11.07,1.58-8.7-0.79-4.75-4.74-.79-1.58-1.58,3.16-9.49,3.16-4.74,10.28-11.86s5.57-6.06,7.12-7.12,7.15-5.57,7.91-6.33,5.53-8.69,5.53-8.69,6.55-6.85,7.91-7.12,21.35-11.86,21.35-11.86l-4.75-2.37-17.39,1.58-10.28,1.58h-9.49l-6.33-.79-12.65-3.95s-4.04-5.27-4.74-5.54-4.05-3.75-4.75-4.74-5.53-6.33-5.53-6.33l-4.75-5.54-4.74-7.11-11.07-12.65-6.33-3.17-3.95-.79h-3.16l2.37-5.53a0.942,0.942,0,0,0,0-1.58c-0.94-.99-2.37-2.38-2.37-2.38l-3.17-.79-4.74,3.17-3.16,2.37h-3.17l-2.37-5.54,1.58-5.53-1.58-2.37h-7.91v-3.96l3.17-3.95,7.91-3.95,3.16-3.96,0.79-5.53-3.95-.79-3.96-2.38-1.58-3.16-7.12-2.37-3.95-.79-3.16-.79-2.38-.79-3.16-4.75a16.557,16.557,0,0,0-3.16-1.58c-1.72-.62-5.54-2.37-5.54-2.37l-3.95,1.58-3.16-1.58a29.405,29.405,0,0,0-1.58-3.16,28.072,28.072,0,0,0-3.17-2.38l-3.95.79-4.75-.79-3.95-2.37-7.91-3.16-3.95-.79-13.44,8.7-5.54,1.58-3.95-3.17-6.33,1.59h-9.49l-11.07,1.58-3.95-3.96-3.16-4.74-2.37-6.33-1.59-5.53-10.28-1.58-5.53-3.96-3.95-3.95-4.75-3.95-1.58-4.75-3.95-.79h-5.54l-3.95,2.37-4.75-1.58h-23.72l-7.91-7.91-6.32-7.11h-6.33l-5.53-.79-3.17-2.38-1.58-3.95v-6.33l-3.16-2.37-7.12-1.58-2.37-7.12-5.53-5.53h-5.54Z" transform="translate(-944.844 -113.438)"/>
    <path id="形状_19" data-name="形状 19" class="cls-3" d="M1709.22,1800.44l-14.24,31.63-2.37,3.95-14.23-1.58,2.37,6.32,0.79,1.59-5.53-3.17h-6.33s-5.76,1.09-7.12,3.17-1.32,4.25-3.16,4.74-8.4,2.31-9.49,2.37-10.28-.79-10.28-0.79l-4.74-1.58-4.75,1.58-5.53,1.58-2.37-2.37a11.244,11.244,0,0,0-3.96,0c-1.51.43-5.53,3.16-5.53,3.16l-8.7,4.75s-15.21,3.49-15.81,3.95-7.91,3.17-7.91,3.17a59.816,59.816,0,0,0-4.75,3.95c-1.31,1.36-3.95,4.74-3.95,4.74l-19.77,6.33s-4.89,2.53-6.32,3.16-13.45,7.91-13.45,7.91l-16.6,12.65-11.07,5.54-7.12,3.95-8.7-1.58-20.56,2.37a65.21,65.21,0,0,1-7.9,1.58c-1.76.03-6.33,1.58-6.33,1.58l-4.74.79,3.16-3.95,4.74-1.58v-3.95l1.59-6.33,4.74-6.33,3.16-1.58,0.79-4.74-2.37-2.37-2.37-3.96-1.58-5.53,2.37-3.96,3.95-2.37,3.96-6.32,2.37-10.28,3.95-8.7,2.38-6.33v-4.74l-2.38-1.58-3.95-.8-2.37-3.16-0.79-4.74-1.58-4.75-4.75-5.53-5.53-3.96-0.79-3.16,2.37-.79v-5.53l3.95-6.33,10.28-6.33,11.86-3.95s6.51-3.21,7.91-3.95,8.7-.79,8.7-0.79l4.74-3.96,6.33-1.58h5.53l2.37-3.95-3.16-3.96-1.58-7.11-0.79-4.75v-5.53l7.12-4.75h3.95l1.58,7.12v3.16h4.75l1.58-2.37,21.35-14.23,13.44-9.49,1.58-1.58,2.37,1.58,5.54,2.37s5.45,2.85,6.32,3.16a80.265,80.265,0,0,1,7.12,3.96c0.78,0.57,12.08,8.01,12.65,7.9s6.24,1.45,7.12,2.38,6.32,5.53,6.32,5.53l8.7,5.54,14.24,6.32,6.32,3.96,10.28,5.53,15.82,7.12,12.65,7.11,8.7,4.75,8.69,6.32Z" transform="translate(-944.844 -113.438)"/>
    <path id="形状_20" data-name="形状 20" class="cls-7" d="M1677.59,1839.18l2.37,2.38a17.684,17.684,0,0,1-.79,3.16l-3.95-1.58-0.79,2.37,3.16,1.58,13.44,5.54,25.3,13.44-11.86,37.16,3.17,106.75-30.84-19.77-9.49,3.17-7.12,1.58-9.49-3.17-5.53-3.16-2.37-3.16-3.17-7.91-2.37-4.74-3.16-3.17-3.16-7.11v-8.7l-3.96-15.02v-3.96l-7.11-1.58-3.96,3.95-5.53.79h-6.33l-3.95-2.37-14.24.79-20.56,3.17-7.11.79a18.805,18.805,0,0,0-2.37,4.74,61.1,61.1,0,0,0-.79,7.12l-3.96,3.95-9.49,3.96-9.49,1.58-5.53-1.58-6.33-3.17-14.23.79-4.74,1.58-3.17,1.59-16.6-.79h-16.61l-3.95-.8-3.16-1.58v-3.16l-0.8-3.95-6.32-2.38h-3.16l-2.38,2.38-2.37,1.58-3.95.79-0.79-2.37,0.79-3.17,1.58-4.74,3.16-3.16,3.17-4.75,3.95-3.95,1.58-4.75-0.79-2.37-2.37-3.95v-3.96l4.74-.79,4.75-1.58s9.29-1.74,9.48-1.58,6.33-.79,6.33-0.79,7.77-1.16,8.7-.79,6.17,0.04,7.12,0,6.32,0.79,6.32.79l19.77-10.28s5.59-4.82,6.33-4.74,7.11-3.96,7.11-3.96l6.33-4.74s6.86-5.18,7.91-5.54,7.71-3.98,8.69-3.95,10.28-3.16,10.28-3.16l7.91-2.38s4.7-5.53,5.54-5.53,3.99-2.62,4.74-3.16,8.7-3.96,8.7-3.96l8.7-2.37,7.11-1.58,8.7-5.54,3.16-2.37,5.54,0.79,2.37,2.37,4.74-2.37,5.54-.79s3.53-.47,4.74,0a47.728,47.728,0,0,0,7.12,1.58c1.36,0.12,4.64-.12,5.54,0s7.9-3.16,7.9-3.16l3.17-3.95,1.58-3.17h11.86Z" transform="translate(-944.844 -113.438)"/>
    <path id="形状_21" data-name="形状 21" class="cls-8" d="M1526.56,1960.96l-2.37,4.74,0.79,2.37-1.58,4.75-3.96,2.37-4.74,1.58-8.7,2.37-1.58,7.91,1.58,7.12,5.54,2.37-1.59,11.07-3.95,12.65-3.16,3.95h-5.54l-6.32-.79-6.33,3.96-0.79,3.16,2.37,3.95,3.96,5.54-0.8,4.74-1.58,3.96,0.79,3.16,3.96,2.37v3.17s-3.82,1.64-4.75,3.16-5.82,6.53-7.11,8.7-4.75,8.69-4.75,8.69l-0.79,3.96,3.96,3.95,0.79,2.37s1.57-.1,0,3.17a73.682,73.682,0,0,0-3.17,8.69v4.75l4.75,3.95,6.32,2.37,6.33,2.38,1.58,6.32,4.74,7.12h3.96l5.53,2.37,11.07,9.49h3.96l6.32,4.74,0.79,3.96,3.96,0.79,7.11,0.79,11.07,5.54s1.85,3.49,2.38,4.74,4.74,6.33,4.74,6.33l4.75,1.58,15.81,10.28,36.37,19.76,40.33-31.62,6.33-4.75,11.07-8.7,11.07-14.23,1.58-5.54-5.54-6.32-0.79-4.75,5.54-7.9,5.53-5.54,2.38-1.58-3.17-7.12-1.58-3.16,5.54-13.44-3.96-37.96s7.28-3.35,9.49-3.16,7.91-2.37,7.91-2.37l-0.79-12.65-1.58-18.19-30.05-18.19-9.49,3.17-11.07.79-4.74-2.38-5.54-2.37a16.1,16.1,0,0,1-2.37-2.37c-0.62-.93-3.16-7.91-3.16-7.91s-2-3.88-2.38-4.74-3.95-6.33-3.95-6.33l-2.37-3.16s-1.27-8.63-1.58-9.49-1.59-11.86-1.59-11.86l-2.37-7.91-1.58-1.58-7.12-.79-1.58,2.37-5.53,1.58-4.75.79-7.11-2.37-11.07.79-17.4,3.17-7.91-.79-4.74,3.16-3.16,4.74v3.96l-5.54,5.53-10.28,4.75h-12.65Z" transform="translate(-944.844 -113.438)"/>
    <path id="形状_22" data-name="形状 22" class="cls-1" d="M1361.3,1796.48l-1.59,1.58-3.16.8-3.16-3.17-1.58-.79-3.17,3.96-3.95,2.37-3.16-.79-3.96-2.38h-3.16l-3.16,3.17-3.16,2.37-2.38.79v5.54l-0.79,3.16a25.969,25.969,0,0,1-2.37,2.37c-0.55.35-4.74,2.37-4.74,2.37l-4.75.79-3.16,1.59-1.58,2.37-46.66,1.58-5.53.79-1.58,2.37-2.37.79-21.35-1.58-14.24,12.65-5.53,3.17-0.79,3.95v5.53l-0.79,3.17-3.96,1.58-4.74,1.58-5.54,11.07-3.16,14.23-2.37,12.66,1.58,3.16,4.74,0.79,2.38,3.95-2.38,2.38h-3.95l-3.16-1.59,0.79,18.19s4.17,8.32,4.74,8.7,3.16,7.91,3.16,7.91,3.9,8.64,3.96,10.28,0,6.32,0,6.32l-1.58,1.58s2.02,16.43,1.58,16.61-0.06,4.04,0,5.53,3.95,7.12,3.95,7.12l6.33,0.79,2.37-.79,3.16-3.95,3.17,1.58,14.23,11.07h11.07l3.16,3.16-1.58,1.58-1.58.79-0.79,3.17-3.96,3.16-3.95,2.37,2.37,1.58,1.58,3.96-0.79,11.86,3.17,11.07,3.95,3.16h9.49l1.58-2.37h3.16l12.66,10.28-0.8,2.37v2.37l3.17,1.58v3.17l-1.58,3.16-3.17,5.53v2.38l1.58,2.37,3.96,3.95,0.79,3.17-2.37,2.37-13.45.79-6.32.79-2.37,4.74-7.91.79-4.75,3.96s-1.69.13-1.58,0.79,3.17,3.95,3.17,3.95l4.74,4.75,0.79,5.53v3.16l3.16,3.96,3.96,1.58v3.16l-1.58,2.38-1.58,4.74,2.37,3.95,3.95,3.96-3.16,3.16-3.96,3.95,1.59,3.96s4.16,6.45,3.95,7.11a48.356,48.356,0,0,0,0,5.54h-5.54l-0.79.79v6.33l3.17,7.9,1.58,9.49,3.16,0.79,24.51,2.37,5.54,3.17s48.93,8.06,49.81,7.9,55.36,11.07,55.36,11.07l9.48,4.75,30.05,11.86,34.79,13.44,7.91,7.91s3.8,3.95,5.54,3.95,22.14,3.17,22.14,3.17h7.11l7.91-2.38,12.65,0.8,15.82-6.33,9.49-8.7,61.67-39.54-53.77-30.83-3.95-1.59-3.95-7.9-13.45-8.7-10.28-1.58-4.74-6.33-4.74-3.16-14.24-9.49-7.9-.79-5.54-7.91-1.58-6.32-7.91-1.59-9.49-5.53,3.17-11.86,1.58-4.75-3.17-4.74-2.37-1.58,2.37-8.7,13.45-15.02,1.58-3.96-1.58-3.16-3.17-1.58,1.59-10.28-2.38-4.75-2.37-5.53,3.95-5.54h9.49l5.54-1.58,3.95-7.9,4.75-18.19-6.33-3.16-0.79-7.91,0.79-4.75,3.95-2.37,10.28-3.95,3.17-1.58,0.79-4.75,2.37-7.11-4.74-3.17L1506,1957l-7.12,3.17h-37.16l-3.16-5.54-0.79-3.95-7.12-2.38-3.95,1.59-4.75,2.37h-3.16v-3.96l7.91-13.44,4.74-4.74v-3.96l-0.79-6.32-0.79-4.75,5.53-5.53,3.17-8.7,7.9-9.49v-6.32l-4.74-7.12v-4.75l7.12-5.53,4.74-10.28,4.74-11.86,2.38-10.28-0.79-3.95-5.54-.8-2.37-3.95-3.96-10.28-10.27-9.49-8.7,3.17-9.49,5.53-6.33,3.95-5.53,3.96-3.96,1.58-3.16-4.74-0.79-6.33-3.16-.79-3.96,2.37-6.32.79-25.31-.79-3.16-2.37,4.75-4.75-3.96-4.74-7.91-4.74-5.53-2.38h-3.95Z" transform="translate(-944.844 -113.438)"/>
    <path id="形状_23" data-name="形状 23" class="cls-9" d="M1183.38,1533.96l-2.37,3.95v5.54l-1.58,3.16-3.17.79-3.95,2.38-7.12,7.9-2.37,4.75-0.79,6.32-3.16,4.75h-7.12l-8.7-2.37-4.74-.8-4.74,2.38-7.91,5.53-10.28,9.49v3.95l1.58,2.38,6.33,4.74-3.17,3.95-1.58,7.91,1.58,3.16,5.54,7.12v4.75l-5.54.79-7.9,3.16-7.91,3.95-7.91,6.33,0.79,3.16,6.33,10.28,0.79,7.12-3.16,3.16-4.75.79-3.16,4.75-0.79,7.9,1.58,7.91-0.79,7.12a18.466,18.466,0,0,0-.79,4.74c0.17,1.37,3.16,11.86,3.16,11.86l2.37,3.96a7.372,7.372,0,0,0-.79,1.58c-0.19.67,3.96,2.37,3.96,2.37h2.37l4.74,6.33,1.58,6.32-1.58,3.16-3.95.79-3.96,2.38-1.58,3.16,0.79,4.74-0.79,4.75-1.58,3.16-4.74,2.37-4.75.79-3.16,2.38v3.16l-3.95,2.37-5.54,1.58-2.37,4.75,1.58,1.58,2.37,0.79h15.03v1.58l-2.38,2.37-5.53,3.96,1.58,1.58h10.28a12.562,12.562,0,0,1,.79,2.37c0.08,0.75,0,5.54,0,5.54l-3.16,5.53-3.16,2.37-5.54.79-5.54,3.17,1.59,1.58h5.53l8.7-1.58,4.74-.79,4.75,7.9s1.23,2.22.79,3.17a10.356,10.356,0,0,1-2.37,2.37l-8.7,1.58-3.16,2.37-0.79,3.17s-1.74,2.11-1.59,2.37,0.79,2.37.79,2.37l2.38,1.58-0.79,3.16-2.38,2.38-7.9-.79-6.33-.8-3.16,1.59-3.96,6.32v3.17l7.12-.8,6.33,0.8,4.74,2.37v3.16l-3.16,2.37-1.58,2.37-0.79,4.75-3.96.79h-7.11l-1.59.79,2.38,3.95,5.53,4.75a19.522,19.522,0,0,1,1.58,2.37c-0.08.14,0.79,4.75,0.79,4.75s3.25,2.09,3.96,2.37,5.73,3.28,6.32,3.16,3.17,2.37,3.17,2.37l0.79,3.17-3.96,2.37-0.79,4.74,1.58,2.37h3.96l3.95-3.16,10.28-3.16s2.13,0.07,3.16,0,12.3,0.61,12.66.79,8.82-1.07,9.48-.79,18.41-2.26,18.98-2.37,6.33-3.17,6.33-3.17h5.53l3.96,1.58,1.58,4.75,3.16,3.16,4.74,2.37s3.85-1.55,3.96,0,0.79,7.12.79,7.12l4.74,2.37s4.21,1.08,4.75,1.58a21.985,21.985,0,0,0,3.95,1.59l3.16-.79,0.8-2.38-2.38-3.16s-1.36-2.74-2.37-2.37-3.16-.79-3.16-0.79,0.69-3.85.79-4.75,1.11-9.84,1.58-11.07,3.63-13.64,3.95-14.23,3.96-7.12,3.96-7.12,3.36-3.84,3.95-3.95,4.75-1.58,4.75-1.58l1.58-3.96v-7.9l9.49-6.33,5.53-5.53,3.95-3.96h14.24a56.933,56.933,0,0,1,7.91,1.58c0.25,0.27,3.16-1.58,3.16-1.58l2.37-3.16,50.61-1.58s2.43-2.55,3.16-3.17,7.91-1.58,7.91-1.58a15.2,15.2,0,0,0,2.37-2.37c0.35-.69,3.95-2.37,3.95-2.37v-4.75l0.79-3.16a7.06,7.06,0,0,0,3.17-1.58c1.08-1.15,3.48-4.65,3.95-4.74s3.16,0,3.16,0l5.54,2.37h3.95l5.54-5.54s1.59-.95,2.37,0,2.37,3.17,2.37,3.17l3.16-.8s1.7-2.25,1.59-3.16-0.15-2.85.79-3.95,1.65-2.03,1.58-2.37-1.58-3.17-1.58-3.17l-3.96.79-7.11-.79-14.24-12.65v-3.95l3.96-3.16,3.16-3.17,1.58-21.35-3.95-6.32-3.96-3.96-4.74-1.58-4.74-1.58-5.54-10.28s1.05-4.29,1.58-4.74,4.75-5.54,4.75-5.54,2.47,0.79,3.16,0,1.58-5.53,1.58-5.53l2.37-8.7s3.89-6.83,4.75-7.12,8.7-6.32,8.7-6.32,4.97-3.93,5.53-3.96,5.54-2.37,5.54-2.37l3.16-.79,2.37-3.16-1.58-2.38-4.75,1.59-5.53-2.38-4.74-2.37-3.96,2.37-10.28.79h-8.7l-7.9,4.75-4.75,2.37-7.11-3.16h-11.07l-7.12-.79-3.95-3.17-9.49-3.95-14.24-2.37-0.79-1.58,6.33-3.96,4.74-3.95,0.79-2.37-3.16-2.38-3.95,2.38h-3.17l-3.95-3.96h-8.7l-2.37-1.58-2.37-5.53-2.37-4.75-5.54-1.58-8.7,2.37-9.49,2.37-3.95-.79-0.79-7.11v-2.37l-0.79-1.59-2.37,2.38-4.75,2.37-5.53-1.58-3.17-3.96s0.14-5.97.79-6.32,3.96-5.54,3.96-5.54l3.16-5.53,3.16-2.38-0.79-3.95,0.79-3.16s5.04-.71,5.54-0.79,8.7,0,8.7,0l4.74-.79,4.75-5.54-0.79-5.53-1.59-2.38h-9.48l-3.17-.79-1.58,2.38h-3.95l-4.75-3.17-1.58-13.44v-21.35l4.75-5.53,0.79-2.38-6.33-3.95h-20.56v0.79Z" transform="translate(-944.844 -113.438)"/>
    <path id="形状_24" data-name="形状 24" class="cls-5" d="M1096.4,1713.46l-7.12-.79-3.16,3.95-3.95,4.74-7.12,2.38-7.91,2.37-4.74,5.53v5.54l-3.16,3.95-7.12,7.91-5.54,6.33-3.16,3.16v3.95l1.58,3.96-0.79,7.9-2.37,5.54v4.74l-0.79,4.75-1.58,1.58h-3.16l-2.38.79v3.95l2.38,3.96,0.79,3.95-2.38,6.33-3.16,2.37-5.53,1.58-3.96,4.74-0.79,4.75-1.58,5.53,0.79,4.75v2.37l-2.37.79-3.96,1.58-0.79,3.17v6.32l2.38,0.79s0.65,3.83,0,4.75-3.96,3.95-3.96,3.95l-3.16.79v7.12s1.64,1.96,1.58,3.16a77.909,77.909,0,0,0,1.58,10.28c0.59,2.27,6.33,10.28,6.33,10.28l3.16,3.95h2.37l1.59-5.53v-6.33l0.79-5.53h2.37l1.58,3.16,1.58,4.74h21.35a9.95,9.95,0,0,1,1.58,2.38,22.506,22.506,0,0,0,3.17,3.95l4.74,2.37,7.91,2.37,3.95,2.38,0.79,4.74-1.58,2.37-3.16.79-6.33-1.58-7.12-1.58-5.53,3.16-15.82,2.38-9.48,4.74-3.96,1.58-3.95,1.58-1.58,2.38,3.16,3.16,5.54,5.53,3.16,5.54-3.16,3.95s-4.68,5.34-3.96,6.33a16.962,16.962,0,0,1,2.37,7.11,16.487,16.487,0,0,0,1.59,5.54l-1.59,5.54-1.58,3.95v3.16l2.37,1.58,2.38,3.17-3.17,2.37h-3.95l-3.95,4.74v3.96l5.53-.79,1.58,2.37-2.37,3.95-3.16.79-2.37,7.12v6.32l-6.33-5.53-3.95-.79v3.95l-2.38,4.75-5.531.79-1.582,1.58,0.791,3.16,3.954,5.54v3.95l-3.954,4.74-2.372,2.38v18.97l-5.535,1.59-0.791,3.95-2.372,2.37a7.929,7.929,0,0,1-2.372,0,3.31,3.31,0,0,0-2.373.79l1.582,3.17s8.589,4.99,9.489,4.74,3.953,1.58,3.953,1.58l-0.79,2.37-4.745,1.59-5.535,3.95-6.326,2.37h-2.372l-1.582-6.32-1.581-.8-0.791,3.17v4.74l0.791,4.75,1.581,10.28-0.79,5.53-3.954,2.37-5.535.79-3.954,3.17-0.79,3.95-3.163.79-3.163.79-1.582,1.58h-4.744l2.372,8.7,9.489,14.23,5.535,12.66,4.744,3.95,13.443,6.33,1.581,3.16-7.116.79-1.582.79v2.37l5.535,1.58,5.535-.79,6.326-1.58,2.373-.79,1.581-5.53v-4.75l0.791-3.16,10.281-6.33,7.91,0.79,5.53-4.74,2.37-4.75,14.24-7.11,5.53-3.16,3.16-4.75,0.79,7.12v3.95l3.96-1.58,6.32-1.58,6.33,0.79h8.7l7.11-3.95h4.75v3.16l-3.95,2.37v3.16l4.74,6.33,5.54,1.58,3.16-.79,4.74-5.54,3.96-2.37,7.11,3.96,3.96,2.37h3.16l0.79-3.96v-2.37l3.95,0.79,3.96,0.79,1.58-3.16,0.79-2.37,4.74-.79,7.91-.79h3.16l2.38-2.37,4.74,0.79,4.75,3.95,6.32,3.16,3.95,3.17-0.79,9.48-2.37,7.12-1.58,4.75,1.58,1.58,4.75,0.79-1.59,7.9s-3.22,12.37-3.95,13.45l-3.16,4.74s-2.25-.68-2.37.79a29.963,29.963,0,0,0,.79,5.54l98.84-5.54-0.79-6.32-1.58-3.96-2.38-11.86v-3.16h4.75l2.37-3.16-3.16-7.12-3.17-7.12,7.12-5.53-2.37-3.17-3.95-5.53,2.37-7.12,1.58-3.95-5.54-1.58-1.58-1.58-0.79-5.54-1.58-3.95-5.54-8.7-0.79-1.58,2.38-2.37,3.16-2.38h7.12l3.16-3.16,0.79-1.58,19.77-2.37,2.37-3.17-0.79-2.37-3.95-3.95-2.38-1.58,1.58-4.75,3.17-5.53v-3.17l-0.79-1.58-2.38-3.16,0.8-2.37-11.87-11.07-3.16.79-2.37.79-3.95,2.37-6.33-1.58-3.95-4.74-2.38-8.7,0.79-9.49v-5.54l-3.16-.79,2.37-4.74,3.96-2.37,0.79-3.96,3.95-1.58-1.58-3.16h-7.12l-5.53-.79-14.23-9.49-2.38-3.16-3.16,1.58-1.58,3.16-7.12.79-4.74-6.33v-14.23l-1.58-8.7,0.79-2.37,0.79-6.32-0.79-3.96-7.12-17.39-3.95-4.75V1906.4l-3.17-1.59-6.32-3.95v-5.53l-0.79-.8-5.54-.79-4.74-2.37-1.58-7.91-10.28-1.58-3.96,2.37-2.37.8-21.35,3.16H1113.8l-6.33-.79-7.12,2.37-6.32,3.95-3.16,1.59-2.38-2.38-1.58-3.95,3.96-3.95a8.222,8.222,0,0,0,0-2.38l-0.79-2.37-8.7-3.95-3.17-3.17-1.58-7.11-5.53-3.96-3.17-3.95,11.07-1.58,1.59-4.75,3.95-5.53,0.79-1.58-0.79-2.37-10.28-.79h-4.74l-2.38-.8,0.79-5.53,4.75-3.95h16.6l1.59-1.59,0.79-3.95-3.17-2.37,1.59-3.16,2.37-4.75,3.95-2.37,6.33,0.79,2.37-3.16v-2.38l-2.37-3.95-2.38-4.74-7.11.79-6.33.79-3.95,1.58-3.96-1.58,3.17-3.96s3.97-1.7,4.74-1.58,6.33,0,6.33,0l2.37-6.32,0.79-8.7-5.53-.79-6.33.79,0.79-3.16,7.12-5.54-1.58-1.58-11.07,1.58-6.33-3.16,1.58-3.96,5.54-2.37,3.16-1.58,1.58-3.95,7.91-3.17,4.74-3.95,1.58-7.12v-5.53l5.54-4.75h3.95v-5.53l-0.79-5.54-3.16-3.95-3.16-.79Z" transform="translate(-944.844 -113.438)"/>
    <path id="形状_25" data-name="形状 25" class="cls-2" d="M966.721,2148.36l2.372,7.91,16.605,41.91,26.092,14.23,21.35,7.91,17.4,4.74,8.7-2.37,11.86,1.58,20.56,0.79,3.95-4.74,60.89-30.84,5.53-12.65,3.96-18.98-4.75-1.58,0.79-7.12,3.16-13.44-0.79-3.96-15.02-9.48h-3.95l-3.96,1.58-2.37.79h-7.12l-6.32,2.37,0.79,3.95-8.7-.79v5.54h-4.74l-9.49-5.54-7.12,3.17-3.16,5.53-7.12-.79-5.53-5.54v-4.74l3.16-1.58v-3.95h-5.54l-3.16,2.37-7.91,2.37-11.07-1.58-8.69,3.16-0.8-7.91-0.79-2.37-3.95,2.37-19.77,13.45-4.74,7.11-7.12.79-5.53.79-8.7,4.75-0.791,9.49-1.581,3.95-8.7,2.37-7.117.79-3.163-3.16,5.535-2.37h3.163l-3.163-5.54-7.116-3.16Z" transform="translate(-944.844 -113.438)"/>
  </g>
  <g id="组_2" data-name="组 2">
    <text id="智仁乡" class="cls-10" transform="matrix(0.791, 0, 0, 0.791, 1080.09, 135.91)">智仁乡</text>
    <text id="大荆镇" class="cls-11" transform="matrix(0.791, 0, 0, 0.791, 1171.025, 398.434)">大荆镇</text>
    <text id="湖雾镇" class="cls-11" transform="matrix(0.791, 0, 0, 0.791, 1401.127, 508.344)">湖雾镇</text>
    <text id="雁荡镇" class="cls-11" transform="matrix(0.791, 0, 0, 0.791, 1126.744, 755.052)">雁荡镇</text>
    <text id="仙溪镇" class="cls-11" transform="matrix(0.791, 0, 0, 0.791, 789.892, 400.806)">仙溪镇</text>
    <text id="龙西乡" class="cls-11" transform="matrix(0.791, 0, 0, 0.791, 749.358, 610.907)">龙西乡</text>
    <text id="芙蓉镇" class="cls-11" transform="matrix(0.791, 0, 0, 0.791, 732.958, 836.499)">芙蓉镇</text>
    <text id="清江镇" class="cls-11" transform="matrix(0.791, 0, 0, 0.791, 1028.853, 989.763)">清江镇</text>
    <text id="南塘镇" class="cls-11" transform="matrix(0.791, 0, 0, 0.791, 1091.765, 1152.677)">南塘镇</text>
    <text id="南岳镇" class="cls-11" transform="matrix(0.791, 0, 0, 0.791, 1057.763, 1334.17)">南岳镇</text>
    <text id="虹桥镇" class="cls-11" transform="matrix(0.791, 0, 0, 0.791, 837.336, 1171.768)">虹桥镇</text>
    <text id="淡溪镇" class="cls-11" transform="matrix(0.791, 0, 0, 0.791, 522.625, 1215.259)">淡溪镇</text>
    <text id="岭底乡" class="cls-11" transform="matrix(0.791, 0, 0, 0.791, 477.161, 958.878)">岭底乡</text>
    <text id="石帆" class="cls-11" transform="matrix(0.791, 0, 0, 0.791, 659.509, 1341.689)">石帆</text>
    <text id="天成" class="cls-11" transform="matrix(0.791, 0, 0, 0.791, 803.142, 1412.018)">天成</text>
    <text id="蒲岐镇" class="cls-11" transform="matrix(0.791, 0, 0, 0.791, 891.897, 1472.248)">蒲岐镇</text>
    <text id="城东" class="cls-11" transform="matrix(0.791, 0, 0, 0.791, 712.489, 1520.394)">城东</text>
    <text id="乐成" class="cls-11" transform="matrix(0.791, 0, 0, 0.791, 445.222, 1522.767)">乐成</text>
    <text id="城南" class="cls-11" transform="matrix(0.791, 0, 0, 0.791, 603.947, 1695.006)">城南</text>
    <text id="盐盆" class="cls-11" transform="matrix(0.791, 0, 0, 0.791, 683.575, 1773.42)">盐盆</text>
    <text id="翁垟" class="cls-11" transform="matrix(0.791, 0, 0, 0.791, 622.344, 1948.181)">翁垟</text>
    <text id="柳市镇" class="cls-11" transform="matrix(0.791, 0, 0, 0.791, 397.688, 1899.241)">柳市镇</text>
    <text id="白石" class="cls-11" transform="matrix(0.791, 0, 0, 0.791, 228.559, 1619.235)">白石</text>
    <text id="北白象镇" class="cls-11" transform="matrix(0.791, 0, 0, 0.791, 129.94, 1920.331)">北白象镇</text>
    <text id="磐石镇" class="cls-11" transform="matrix(0.791, 0, 0, 0.791, 84.559, 2064.506)">磐石镇</text>
  </g>
</svg>
