<svg xmlns="http://www.w3.org/2000/svg" xmlns:xlink="http://www.w3.org/1999/xlink" width="770" height="557" viewBox="0 0 770 557">
  <defs>
    <style>
      .cls-1 {
        filter: url(#filter);
      }

      .cls-2 {
        fill: #002762;
        stroke: #b4d1f9;
        stroke-width: 2px;
        fill-rule: evenodd;
      }

      .cls-3 {
        font-size: 25.671px;
        fill: #fff;
        font-family: "Microsoft YaHei";
      }
    </style>
    <filter id="filter" filterUnits="userSpaceOnUse">
      <feGaussianBlur result="blur" stdDeviation="6" in="SourceAlpha"/>
      <feComposite result="composite"/>
      <feComposite result="composite-2"/>
      <feComposite result="composite-3"/>
      <feFlood result="flood" flood-color="#0a52ca" flood-opacity="0.76"/>
      <feComposite result="composite-4" operator="in" in2="composite-3"/>
      <feBlend result="blend" in2="SourceGraphic"/>
      <feBlend result="blend-2" in="SourceGraphic"/>
    </filter>
  </defs>
  <g id="画板_1" data-name="画板 1">
    <g id="玉环市_拷贝" data-name="玉环市 拷贝">
      <g xmlns="http://www.w3.org/2000/svg" id="组_1" data-name="组 1" class="cls-1">
        <path id="形状_13" data-name="形状 13" class="cls-2" d="M79.781,532.906l-0.493-2.468v-1.974a7.284,7.284,0,0,0,1.973,0,32.17,32.17,0,0,0,2.959-1.481L87.179,526s2.833-1.1,3.946-1.481a29.78,29.78,0,0,1,4.932-.494l2.959-.493,2.466-.988,1.973-.493,1.973-1.975s0.36,0.217,1.479-.493a24.715,24.715,0,0,1,2.96-1.481l1.479-1.481,2.96,0.494,2.466,1.974s2.042,1.965,2.466,2.468a6.794,6.794,0,0,1,.493,3.455c-0.208.375-.493,0.988-0.493,0.988s-1.809,1.478,0,.987a15.89,15.89,0,0,0,3.946-1.975l1.479-2.468a5.839,5.839,0,0,1,2.467-.493c0.981,0.148,1.735-.148,2.466,0a6.967,6.967,0,0,0,2.959-.494c0.957-.328.634-0.537,1.973-0.987a16.718,16.718,0,0,0,2.959-1.481,2.626,2.626,0,0,1,1.48-.987,27.173,27.173,0,0,0,3.452-.987l0.494-2.468h1.973l3.452-.494,0.987-1.974s-0.5-.612.986-0.494,1.786,0.3,2.466,0a5.008,5.008,0,0,0,1.48-1.481,13.268,13.268,0,0,1,1.973-1.481l1.479-.493h1.973l2.466,0.987s2.144,0.464,2.96,0,2.959-1.481,2.959-1.481,0.1-1.778.987-1.974a32.8,32.8,0,0,1,4.439,0l2.466-1.975,2.959,0.494,3.453-1.481,2.466-.493,1.973,0.987a18.092,18.092,0,0,1,2.466-.494c0.61-.007.687,0.423,1.479,0a10.2,10.2,0,0,0,1.48-.987s2-.893,1.973-1.481,0-2.468,0-2.468a14.573,14.573,0,0,1,2.959.987,6.02,6.02,0,0,0,2.466.988c0.364-.095.12,0.649,1.973,0s2.96-.988,2.96-0.988l0.986-.987-0.493-1.481s-0.773-.085-0.493-1.481a8.9,8.9,0,0,1,1.479-2.961l2.466-.987h1.973l0.494-.988a1.148,1.148,0,0,0-.494-1.48c-0.93-.8-14.3-14.315-14.3-14.315l-1.48-1.974-2.466.987-1.48.493-2.466-.493s-0.333-2.25.493-2.468a12.486,12.486,0,0,0,1.48-.494v-1.481l-1.973-1.481-0.986-1.48V463.8a2.84,2.84,0,0,1,1.973-1.481l4.439-.493,0.986-.494,0.987-1.481,0.493-1.48s-0.387-1.5-.987-1.481-3.846-.884-4.439-0.987-2.417.363-2.959-.494a5.8,5.8,0,0,0-1.48-1.481l-0.986-1.974a1.111,1.111,0,0,0-.493-0.988c-0.63-.711-1.222-0.725-1.48-1.48s-0.493-1.481-.493-1.481h2.466l0.493-.494a3.325,3.325,0,0,0,.493-1.481c-0.031-.626-1.973-0.987-1.973-0.987h-2.466a3.434,3.434,0,0,1,1.973-.987,3.918,3.918,0,0,0,2.466-.494,3.163,3.163,0,0,0,1.48-.987s-0.809.221,0.986,0a10.541,10.541,0,0,1,2.96,0l1.973-.987a2.76,2.76,0,0,0,1.479-.987c0.232-.6.494-1.481,0.494-1.481l-1.48-1.481a1.291,1.291,0,0,1-.493-1.481c0.188-1.15-.465-2.278,0-2.961a8.7,8.7,0,0,1,1.479-1.481,6.091,6.091,0,0,1,1.973-.987,4.249,4.249,0,0,0,1.48-.494v-1.481s1.211-1.592,1.973-1.481,0.812,0.444,1.48,0,2.959-1.48,2.959-1.48l0.493-.988a9.215,9.215,0,0,0,1.48-1.481c0.445-.652.986-1.48,0.986-1.48s-1.171-.707-1.479-0.494a18.747,18.747,0,0,1-2.96.494H202.1a2.308,2.308,0,0,0-.987-0.988,3.03,3.03,0,0,1-.986-1.974l-1.48-.987a1.123,1.123,0,0,1,.493-0.987,13.192,13.192,0,0,1,1.48-.988,18.606,18.606,0,0,0-1.973-.493c-1.7-.379-2.466-0.494-2.466-0.494a1.924,1.924,0,0,1-.987-0.987,10.8,10.8,0,0,0-.986-1.481l-0.986.987a10.055,10.055,0,0,0-.494-1.48c-0.211-.389,0-0.494,0-0.494s-2.8.5-2.959,1.481,0.282,0.855-.493.987-2.08.128-2.466-.494a8.249,8.249,0,0,0-1.48-1.48l1.973,3.455a12.2,12.2,0,0,1-2.96,0,3.152,3.152,0,0,1-.986-1.481l0.493-1.481a4.559,4.559,0,0,0-1.973-.493c-0.994.027-1.479,0-1.479,0L179.412,410a5.243,5.243,0,0,1,1.48-.987c0.823-.338,1.973-0.987,1.973-0.987l-2.96-.988h-1.479l-2.466.988a13.187,13.187,0,0,0-1.973.987,30.271,30.271,0,0,1-2.96,1.481c-0.969,0-3.17.415-2.959-.494s0.987-3.949.987-3.949l0.493-.493-2.96-.988s-1.62.747-1.972,0-1.222-1.261-1.48-1.974a43.39,43.39,0,0,1-.493-4.936l0.986-.987-0.986-.494a1.492,1.492,0,0,1,.493-1.481c0.711-.439,1.123.284,0.986-0.493s-0.493-2.962-.493-2.962-0.529.432-.986-0.494a10.6,10.6,0,0,0-1.48-2.468c-0.779-.952-3.453-4.442-3.453-4.442s-2.93-2.189-3.452-2.468-3.214-.846-3.946-0.494-1.569.08-2.466,0.494-1.973.987-1.973,0.987l-1.48.987-1.973.494s-2.069-.336-0.986-0.987a13.49,13.49,0,0,0,1.973-1.481,3.442,3.442,0,0,1,0-.987c0.079-.54.458-0.742-0.493-0.988s-1.333-.325-1.973-0.493a3.926,3.926,0,0,0-1.48,0l-0.986.987H137v1.481l-0.493.987a2.587,2.587,0,0,0-1.48-.494,1.171,1.171,0,0,1-.986-0.493l0.493-.987s1.326-.188.986-0.988-0.986-1.974-.986-1.974c-2.216.277-4.932,3.949-4.932,3.949l-0.494-.987,1.48-1.975s-0.991-.515,0-1.481,1.48-1.48,1.48-1.48,0.039-.533-0.987-0.494a14.526,14.526,0,0,1-2.466,0c-0.775-.1-2.466-0.494-2.466-0.494L125.651,371s0.2-1.4.986-1.481,1.5,0.614,1.973-.493,1.658-1.889,1.48-2.468,0.732-.874,0-1.975-0.987-1.481-.987-1.481h-2.466l2.466-1.974s-0.221-1.246.987,0,1.37,2.027,2.466,2.468a8.6,8.6,0,0,0,2.466.494l0.987-.494,0.493-4.442v-1.481a1.612,1.612,0,0,1,1.479,0,6.26,6.26,0,0,0,1.973.493,9.469,9.469,0,0,0,.494-2.468c-0.148-.393-0.857-0.472-0.987-0.987s1.151-1.926,1.48-2.468a4.132,4.132,0,0,0,.493-1.481,14.969,14.969,0,0,1,1.48-2.961l1.973-1.481,1.479-.987,0.987-.494V341.88s-1.188-1.125-1.973-.987a6.677,6.677,0,0,0-1.973.987s0.2,0.417,0-.493a5.83,5.83,0,0,1,0-1.975s-0.562-.2-1.973.988a13.683,13.683,0,0,1-1.973,1.48l-0.986,1.481a9.991,9.991,0,0,0-1.48.494,15.163,15.163,0,0,1-2.466.493,5.522,5.522,0,0,1-.493-3.455,1.017,1.017,0,0,0-.987-0.987,9.995,9.995,0,0,1-2.466-.494,1.411,1.411,0,0,0-.493,1.481,7.8,7.8,0,0,0,.493,1.481l0.493,1.481s0.715,0.917-.986.987a21.23,21.23,0,0,1-2.466,0l-0.987-.494-0.493-.987h-0.986l-0.494.987-0.986-.987s0.674-1.984-.493-0.493-0.407,1.315-1.48.987a4.545,4.545,0,0,1-1.48-.494,14.266,14.266,0,0,1-1.479-.987,1.279,1.279,0,0,1-.987,0A25.089,25.089,0,0,0,114,342a7.209,7.209,0,0,1-2.159-1.6c-0.9-1.032-1.518-2.5-1.973-1.975A1.529,1.529,0,0,1,109,339h-2l-3-1-0.051-1.549a3.285,3.285,0,0,0-1.48-.988,4.815,4.815,0,0,0-2.466,0,7.245,7.245,0,0,1-1.973.494,21.3,21.3,0,0,0-2.466-3.455c-1.249-1.312-2.437-1.545-2.466-2.468s0.151-2.5-.493-2.962a4.053,4.053,0,0,1-.986-0.987L85.7,328.059l-2.959,1.975S80.017,331.6,78.3,332.5s-2.835.808-3.453,1.481a98.028,98.028,0,0,1-8.878,5.429c-0.6.233,0.78,0.217-2.959,0.988s-4.652.528-6.412,1.48-0.852,2.026-3.453,1.975-1.379-.226-2.959,0-6.905,1.974-6.905,1.974A18.708,18.708,0,0,0,39.83,347.8c-1.473,1.128-3.787,1.867-3.946,2.468s0.159,0.836,0,1.48a8.706,8.706,0,0,1-.986,1.975A7.591,7.591,0,0,0,34.4,356.2l-0.493.987v-4.936a3.678,3.678,0,0,1-1.973.987c-0.922,0-.493-2.961-0.493-2.961s-2.132-.74-1.973,0,0.493,2.961.493,2.961l-0.986,1.481-2.466.987a2.252,2.252,0,0,1-.986.494,17.475,17.475,0,0,1-3.453,0l1.973,2.468a1.668,1.668,0,0,1,.986.987,7.062,7.062,0,0,1,.493,2.468,13.448,13.448,0,0,0,0,1.481s-0.642.025,0,1.481,0.621,0.985.493,2.468-0.426,1.652,0,2.468,2.168,1.331,2.959,1.974,1.077,0.793,1.973,1.481,5.834,5.216,6.412,6.417,1,0.547,1.48,2.468,1.229,4.208,1.48,4.936,0.753,2.735.986,3.949,0.986,3.949.986,3.949a13.583,13.583,0,0,1,.493,2.468,25.832,25.832,0,0,1-.493,3.455c-0.2,1.045-1.22,4.98-.986,5.923a7.067,7.067,0,0,1,0,2.962,10.8,10.8,0,0,0,0,2.468l-0.493,2.468,0.986,1.481s0.969-.558.493,0.494-1.791,2.238-1.48,2.961-0.294.7,0.493,0.987,2.793-.134,3.452.494a5.81,5.81,0,0,0,1.48.987l-1.973,1.481a5.992,5.992,0,0,0,0,2.468,19.432,19.432,0,0,1,.493,3.455s5.084,3.913,5.919,4.936,4.32,5.452,4.932,6.911a7.915,7.915,0,0,0,1.973,3.455,19.069,19.069,0,0,1,2.959,5.923c0.251,0.814-.511.519,0.493,2.468s2.466,5.924,2.466,5.924,0.371,6.013.493,6.91,0.155-.552,0,1.975-0.555,3.309-.493,4.442,0.631,2.173,0,3.455-0.649,3.012-.986,3.949-0.822,5.227-1.48,5.924a17.137,17.137,0,0,0-1.48,1.974v1.974l0.986,0.494a4.167,4.167,0,0,1,.493.987,7.584,7.584,0,0,1-.493,2.468,1.779,1.779,0,0,0-.986,1.481c-0.01,1.021,1.973,3.455,1.973,3.455l4.439,4.936s2.387,5.42,2.959,6.417,1.589,2.033,2.466,3.456a40.928,40.928,0,0,1,2.466,3.948,9.173,9.173,0,0,1,.986,3.949c-0.083,1.01,1.48,2.962,1.48,2.962s0.471-.388.493,0.493a8.058,8.058,0,0,1-.493,2.962c-0.454,1.524-1.1.917-.986,2.468s0.072,2.865,1.48,3.455a21.4,21.4,0,0,0,3.453.988V533.4Z"/>
        <path id="形状_14" data-name="形状 14" class="cls-2" d="M211.472,490.95l2.466-1.481,1.973-1.481,2.466-1.481,3.452-.987,2.467,1.974,1.972,2.468v3.456l1.973,0.987,1.973-1.481h3.453a3.9,3.9,0,0,1,2.466.494,10.45,10.45,0,0,0,2.959.987l1.973,0.493-0.986,1.975v1.481l1.973,0.493,0.986-.493-1.973,1.974-0.493,1.481,1.973,0.494h3.946l0.986-1.481v-1.975l0.987-.987,1.972-.987,0.987-1.975-0.493-1.974h-1.973l-3.946.987-0.986-1.481,1.479-1.48,0.987-2.468L248.464,487l1.479-1.481-0.493-1.481-3.453.987v-1.48l2.96-1.975,1.973-.987,1.479-1.975,0.494-.987-1.973-.987a4.7,4.7,0,0,0-1.973-.494c-0.534.164-3.453-.987-3.453-0.987l-1.479-.987-1.48-.494-0.987-1.48-0.493-2.468V467.75l1.48-.987v-0.987l-1.973-.494h-0.986s-0.227-1.1-.494-1.974-0.986-2.962-.986-2.962l-1.48-1.974-0.986-.494a9.507,9.507,0,0,0-1.973,0,2.407,2.407,0,0,1-1.48-.494l0.987-1.48,0.986-.988,0.987-.493h1.972l0.987-.988,2.959-.493h6.412a24.422,24.422,0,0,1,3.453.987,30.03,30.03,0,0,0,4.439.987l2.466,1.481,0.986,0.987,3.946-.493,2.959-1.481,0.494-1.975,1.972-.493,3.453,0.493,0.987,1.481,0.493-1.481,0.986-.987h1.48l0.986,1.481s1.022,2.231,1.973,2.468a5.48,5.48,0,0,1,2.96,1.481,6.928,6.928,0,0,1,.986,1.481l0.493,1.974-1.973,2.962-0.986,1.481v2.961s0.078,1.718-.987,1.975-3.945.987-3.945,0.987l-0.494.987s2.77-.031,3.453-0.493a32.822,32.822,0,0,1,2.959-1.481h2.96l0.986,1.481,1.973-.494,1.973-1.974,2.466-1.481,0.986-1.975,2.96-.987h3.452l2.96-.987,2.466-.494,0.493,1.481-0.986,2.468s-0.021-.409,0,1.481a7.493,7.493,0,0,0,.986,3.455l0.493,0.987s1.444-1.548,1.973-1.974a2.284,2.284,0,0,1,.987-0.494h0.986l2.466-.987,0.493-.493v-3.949l1.973-.988,1.48-.987v2.962s-1.2.971-.493,0.987a15.064,15.064,0,0,1,2.959.987s0.5,1.189-.493,1.481-0.987.494-.987,0.494l1.48,0.987a6.832,6.832,0,0,1,1.973,0,29.851,29.851,0,0,0,2.959.494h0.987l1.973,0.493s1.672-1.091,1.479-1.481-2.959-.493-2.959-0.493-1.388-1.991-.986-2.468a3.314,3.314,0,0,0,.493-1.481H322.94l-2.959-.494,0.493-1.974-0.986-1.481,1.973-.987-0.987-1.975-0.986-.493h-2.96s-0.25,0-.986,0a2.476,2.476,0,0,0-1.48.987h-0.986l-0.987-.987s-1.517-.095-0.493-0.987,2.466-1.975,2.466-1.975v-1.481l-0.493-.987-1.48-.494a3.778,3.778,0,0,1-.986.988c-0.564.349-.73,0.951-1.48,0.493a11.974,11.974,0,0,0-1.479-.987,2.854,2.854,0,0,1-.987-0.494,5.729,5.729,0,0,0-1.973,0l-0.986-.493-0.987-1.481s0.374-2.1,0-2.468-1.545-1.4-1.479-1.974,0.493-2.468.493-2.468l0.493-.988h2.959l2.467-.987,0.493-.987v-1.974l1.973-.988V440.6a3.514,3.514,0,0,0,.986.493,4.975,4.975,0,0,0,1.48,0l1.48-.987s1.976,0.333,2.466,0a19.388,19.388,0,0,1,3.945-.493l2.467,0.987,0.493-1.481-0.987-.987v-1.481l0.987-.987h0.986l1.48-.494,0.493-.494,1.973-.987,0.493-1.481h-2.959s-1.566,1.179-2.466.988a1.2,1.2,0,0,1-.987-0.988l-0.493-1.48,0.987-1.481,0.986-1.481-2.466.494a9.734,9.734,0,0,1-1.973.493,7.841,7.841,0,0,1-1.973-.987l-0.493-1.974L319,425.3a3.979,3.979,0,0,1,.986-1.975c0.652-.42,2.466-1.974,2.466-1.974l0.987-1.481s1.18-1.2,1.479-1.481a11.081,11.081,0,0,0,.987-1.974l-0.494-1.481s-1.1-1.958-.986-2.468,0.493-3.949.493-3.949l0.987-1.974h-1.48a6.32,6.32,0,0,0-1.48.987c-0.591.573-2.466,1.975-2.466,1.975L319,410.985a7.547,7.547,0,0,1-1.48.494,3.767,3.767,0,0,1-1.48,0l-0.986,1.481s0.4,0.791,0,.987-1.672-.817-1.973-0.987a5.725,5.725,0,0,0-.987-0.494c-1.083-.51-1.509-0.84-1.972-0.987s-1.48-.494-1.48-0.494,0.237-.758-0.987-0.987-1.161-.342-1.973-0.493-2.867-1.353-3.452-1.481a10.669,10.669,0,0,1-1.973-.988l-1.973-1.48-2.466-1.481-1.973-.494-1.48-.987-0.986-1.481H289.4l-0.986-1.481a1.116,1.116,0,0,0-.987-0.493c-0.565.112-.937,0.924-1.479,0.987s-1.973,1.974-1.973,1.974a4.467,4.467,0,0,0-1.48,1.481,3.713,3.713,0,0,1-1.48,1.975c-0.5.152-2.466,0.493-2.466,0.493h-1.48s-1.408.337-1.479,0.987a5.35,5.35,0,0,1-.493,1.481l-1.973.494-0.493-1.481-1.973.987s0.5,0.1-.494.988-1.545,1.447-2.466,1.48a15.434,15.434,0,0,1-2.959-.493l-0.986.493a11.854,11.854,0,0,1-1.48,1.481c-0.491.323-3.946,0-3.946,0l-2.466-.987H252.9L252.409,410l-1.479-1.481A11.591,11.591,0,0,1,249.45,410c-0.363.188-1.194-.138-0.986,0.494a5.958,5.958,0,0,1,0,1.974l-1.48.987-0.987.494s0.082,1.516.494,1.481a10.132,10.132,0,0,1,1.973.493l0.986,0.494h1.48l0.986,0.987v1.481l-0.493,1.481-0.987.493-2.466-.987a0.644,0.644,0,0,0,0-.987,1.845,1.845,0,0,0-.986-0.494L246,419.87v1.481s0.241-.032,0,0.494a3.386,3.386,0,0,1-1.479.987s-1.231-.059-1.973,0-2.466,0-2.466,0-1.508-.734-1.973-0.494a2.911,2.911,0,0,1-1.48,0v1.481l0.987,0.494v1.481s0.651,1.7-.494,1.48a8.262,8.262,0,0,0-2.466,0l-1.479.494-1.48.494v-2.468l-1.48.493-0.493-1.974,0.493-1.975a9.1,9.1,0,0,0-.986-0.987,7.353,7.353,0,0,1-.493-1.974s-0.214-.753-0.494-0.494a9.676,9.676,0,0,0-1.479,2.468,4.831,4.831,0,0,1-.987,1.481,0.75,0.75,0,0,1-.986.493c-0.781-.226-0.672,1.268-0.987,0a26.193,26.193,0,0,1-.493-2.961l-0.493-1.975-0.493,1.975v1.481l-0.494.493H220.35l-0.987-.493-0.493-1.481,0.493-1.975-0.493-1.974-0.493-.987-2.959,2.468a3.39,3.39,0,0,0-.987.493,20.19,20.19,0,0,1-3.452.494,8.842,8.842,0,0,0,0,.987c0.021,0.834.965,0.928,0.493,1.975s-0.1,1.186-.493,1.48-1.47.172-1.973,0.494a6.211,6.211,0,0,1-2.466,0l-2.467,2.962-1.972.493h-1.973l-1.48.988v1.48l-0.986.494-2.467.987L194.7,433.2l-0.986,1.48a14.631,14.631,0,0,1,.493,1.481,15.05,15.05,0,0,0,1.48,2.468s-0.168,2.086-.494,1.975-2.959,1.481-2.959,1.481l-1.973.987a6.143,6.143,0,0,0-1.973-.494c-0.5.1-1.973,0.494-1.973,0.494l-0.493.987-2.466.494s-1.834.256,0,.493a5.976,5.976,0,0,0,2.466,0l0.987,0.987-0.494,1.481s-1.675,1.185-1.973.987a3.638,3.638,0,0,0-1.479,0s0.374,1.648.986,1.975a8.754,8.754,0,0,0,1.973.987,3.7,3.7,0,0,0,1.48,0,0.984,0.984,0,0,0-.987.987c0.019,0.956-.177,1.119.494,1.975s1.4,1.585,1.972,1.481a11.91,11.91,0,0,1,1.973,0l1.48,0.493,2.959,0.987,1.973,0.494-0.986.494v1.48s-1.693,2.637-2.959,2.468a9.274,9.274,0,0,0-3.453.494c-1.248.275-2.466,0.494-2.466,0.494v1.48s0.547,0.808.986,1.481,1.973,2.468,1.973,2.468a2.424,2.424,0,0,1-.493,1.481c-0.416.265-1.973,0.987-1.973,0.987l0.493,0.988,0.987,0.987h1.973l1.479-.494h1.48s1.57-.192,1.48,0a14.229,14.229,0,0,0,0,1.975l5.918,4.442,5.919,6.417,2.466,1.974,0.987,0.988-0.494,1.48Z"/>
        
        <path id="形状_16" data-name="形状 16" class="cls-2" d="M396.924,335.463H398.9s0.943,0.965.493,1.481a1.1,1.1,0,0,0,0,1.975,13.7,13.7,0,0,0,2.959.493h1.48a22.787,22.787,0,0,0,1.48,1.975c0.648,0.728,3.945,4.442,3.945,4.442v1.481l1.48,1.974,0.987-1.48L413.2,348.3s-1.113-.605,0-0.987a24.731,24.731,0,0,1,2.96-.494,16.121,16.121,0,0,1,2.466,0l0.493,1.481s2.012-.05,2.466,0a10.112,10.112,0,0,1,1.973.987,5.257,5.257,0,0,1,1.973,0,6.424,6.424,0,0,0,2.466,0c0.586-.068,2.959,0,2.959,0h2.466a3.673,3.673,0,0,1,.987-0.493c0.875-.364,1.613-1.058,2.466-0.987s2.03-.15,2.466,0,1.973,0.987,1.973.987a1.3,1.3,0,0,1,.986.493,5.469,5.469,0,0,0,1.973.988h2.96a11.581,11.581,0,0,1,1.479-.988c0.472-.209.754-1.094,1.48-1.48s1.973-.988,1.973-0.988l1.48-.493-0.987-1.975-1.48-1.974s-0.647.044-.493-0.494,1.15-1,1.48-1.48a19.027,19.027,0,0,0,.986-1.975v-1.481a10.565,10.565,0,0,1,.987-1.481,6.151,6.151,0,0,1,.986-0.493l-0.493-1.481-0.986-1.481,1.973-1.974,2.959-2.962s0.407-1.453.986-1.481,2.185-.448,1.973-0.987-0.421-.252-0.986-0.987-1.881-.45-0.987-0.987,2.067-.727,2.466-0.988a9.055,9.055,0,0,1,1.973-.987c0.87-.3,1.48-0.493,1.48-0.493s1.361-2.37,1.48-2.468,1.224-.851.986-0.988,0.513-.733-0.493-0.987-1.758.214-1.973-.493-0.929-1.15-.493-1.481,0-.341,1.479-0.494,1.877,0.153,2.467,0a4.626,4.626,0,0,0,1.479-1.481s-0.844-.5,0-0.493a4.158,4.158,0,0,1,1.973.987h1.973l0.986-.987,1.48,1.481,0.987,0.987,1.479-.494,0.493-1.481s0.911-1.888.987-1.974,0.493-.987.493-0.987a2.166,2.166,0,0,1,.987-0.988,3.216,3.216,0,0,0,.986-0.493s1.527,0.7,1.973.987a5.433,5.433,0,0,1,.986.987l2.466-1.481a7.814,7.814,0,0,1,1.973-1.48c0.46-.024.923-1.559,1.48-1.975a12.517,12.517,0,0,1,1.973-.987V301.9a3.033,3.033,0,0,0-.986-0.493c-0.666-.216-0.875.1-1.48-0.494s-1.408-.794-1.48-1.481-0.6-.7-0.493-1.481a2.846,2.846,0,0,1,.986-1.48l1.48-.988s0.272,0.17.493-.493a4.491,4.491,0,0,0,0-1.481c0.064-.287-0.1-0.9.494-0.987a6.542,6.542,0,0,1,1.972-.494,6.96,6.96,0,0,0,1.48,0s0.809,0.58.987-.494,0.809-1.139.493-1.974a1.531,1.531,0,0,0-.987-0.987,3.905,3.905,0,0,1-1.973,0c-0.589-.321-2.056-0.234-2.466-0.987s-0.5-.511-0.493-0.988a6.519,6.519,0,0,1,.493-2.468,16.9,16.9,0,0,1,2.96-2.468s0.769-1.188.986-1.48a12.212,12.212,0,0,0,.987-1.481c0.177-.39.73-1.389,0.493-1.481s0-.494,0-0.494l1.973-.493a4.9,4.9,0,0,1,1.479-1.481,14.218,14.218,0,0,0,2.466-1.481l1.48-.987V270.8l0.493-1.481a8.183,8.183,0,0,1,.494-1.974c0.286-.477,1.253-0.908,1.479-1.481s-0.226-.258,0-1.481,1.036-2.056,0-2.468a9.431,9.431,0,0,0-2.466-.494s0.1,0.865-1.48,0,0-1.974,0-1.974a1.367,1.367,0,0,1,0-.987,2.371,2.371,0,0,0,0-1.481,5.645,5.645,0,0,1-.493-0.987,1.925,1.925,0,0,0,0-1.481c-0.3-.187-0.211-1.4-0.493-1.974a1.324,1.324,0,0,0-.986-0.988,16.235,16.235,0,0,1-1.973,0c-0.318.014-.987-1.974-0.987-1.974l2.96-1.481,1.972-1.974a5.483,5.483,0,0,0-1.972-.988,18.84,18.84,0,0,1-3.453-1.48,17.2,17.2,0,0,1-2.466-.988,8.777,8.777,0,0,0-2.466-.987c-1.081-.292-0.737-0.222-1.973-0.493s-1.845-1.151-2.96-.988-1.1-.163-1.972,0-1.973.494-1.973,0.494a9.969,9.969,0,0,0-1.973.494,5.752,5.752,0,0,1-1.973.987,15.5,15.5,0,0,0-1.973,0,4.953,4.953,0,0,1-1.973,0,1.305,1.305,0,0,1-.493-0.987h-2.959l-0.494,2.961-0.986.987-1.48-1.48s0.012-.971-0.493-0.988-1.707-.456-1.973,0a4.492,4.492,0,0,1-.986.988l-1.973.493H464l-0.986-.987a3.857,3.857,0,0,1-.493-0.494,3.3,3.3,0,0,0-1.48-.493,4.174,4.174,0,0,0-.986.493H459.07l-0.493-.493s-1.144,1.657-.987,1.974a1.925,1.925,0,0,1,0,1.481c-0.236.335-.594,1.522-1.479,1.481a15.4,15.4,0,0,0-3.946.493c-0.487.255-1.172,1.011-1.973,0.988s0.01,0.812-.986,0-0.229-.888-1.48-1.481-1.973-.987-1.973-0.987l-1.973.987-1.973.987h-1.479s-1.856-1.5-2.467-1.974a3.863,3.863,0,0,0-2.466-.494,2.919,2.919,0,0,0-1.973.494c-0.507.393,0.589,0.87,0.987,0.987a5.053,5.053,0,0,1,.986.493l-0.986.988-1.973.987a12.164,12.164,0,0,1-2.959,0,8.851,8.851,0,0,0-3.453.493,6.415,6.415,0,0,0-1.48.494c-0.774.369-.173,0.539-0.986,0.494a8.271,8.271,0,0,1-1.973-.494l-0.493,1.975a4.088,4.088,0,0,1-.987,1.48c-0.356.07-1.974,0.365-2.466,0.494s-1.086-.088-0.986.494a2.076,2.076,0,0,0,.493.987s-0.4,1.038-.986.987a1.8,1.8,0,0,0-.987,0c-1.1.106,0.191-.145-1.48,0.494a5.206,5.206,0,0,0-2.466,1.48c-0.15.262,0.545,0.529,0,.988s-3.207.806-3.452,0.987-1.529-.378-0.493.493,1.648,0.315,1.972.988a10.144,10.144,0,0,0,2.467,1.974s-0.224-2.329,0-.987a13.155,13.155,0,0,1,0,3.949c-0.171.786-.026,1.821,0.493,1.974a16.552,16.552,0,0,1,1.973.987s1.654,0.321,1.479-.493-0.258-1.872.494-1.975a8.18,8.18,0,0,1,2.466.494s0.809,0.44.493,0.987,0.354,0.994-.493,1.481-2.429.62-2.466,0.987a3.638,3.638,0,0,0,0,.987c0.041,0.8.589,1.452,0,1.481a4.5,4.5,0,0,1-1.973-.493c-0.193-.188-0.242-0.287-0.494,0a7.831,7.831,0,0,0-.493,1.974s-1.23-.363-1.479,0-1.973,1.974-1.973,1.974l-0.987-1.974s-1.1-.8-1.479-0.494-1.48.988-1.48,0.988l-0.493,1.48h-1.48s-0.351.9-.493,0a13.165,13.165,0,0,1,0-2.468s0.458-.779,0-0.987-0.333-.937-0.987-0.493-1.479.987-1.479,0.987l-0.987.987a0.978,0.978,0,0,1-.986,0c-0.671-.268-1.48-0.494-1.48-0.494l0.987-.987v-0.987l-0.494-.494h-0.986s-0.595.266-.987,0.494a1.346,1.346,0,0,1-.986,0,5.115,5.115,0,0,0-.493-1.481c-0.252-.264.013-0.565-0.987-0.493a7.651,7.651,0,0,1-1.479,0,13.565,13.565,0,0,0-1.973.987c-0.938.583,0.028,1.192-1.48,0.493a12.8,12.8,0,0,1-2.466-1.48l-0.987-.988s-1.356-.15-1.479.494a8.325,8.325,0,0,0,.493,2.468l-2.466.494h-0.987l0.987,1.974a2.536,2.536,0,0,0,1.48.494,2.366,2.366,0,0,1,1.479,0c0.783,0.264.954,0.171,0.987,0.493s-2.96.494-2.96,0.494-1.378-.539-1.479,0-0.494,1.974-.494,1.974a32.52,32.52,0,0,1-2.466,2.468c-0.373.2-.986,2.468-0.986,2.468s-0.417,1.207-.493,1.481a2.892,2.892,0,0,0-.494.987,6.733,6.733,0,0,0,.987,1.481,6.353,6.353,0,0,0,1.48.987,5.75,5.75,0,0,0,1.479.494c0.728,0.112,2.466.494,2.466,0.494a3.325,3.325,0,0,1,.987.493c0.192,0.23.986,1.481,0.986,1.481v0.987l1.48,0.494L388.046,294s-0.366,1.258-.493,1.975-0.308,1.537-.494,2.468-0.681,1.2,0,1.974,1.845,1.679,1.973,1.975a3.2,3.2,0,0,1,.987,1.974,6.206,6.206,0,0,0,.493,2.962,5.74,5.74,0,0,1,.986,1.974,7.38,7.38,0,0,0,.987,2.468c0.538,0.7.725,1.157,0.986,1.481s1.081,1.06.987,1.481a1.9,1.9,0,0,0,0,1.481,11.892,11.892,0,0,1,.986,2.468c-0.135.1-.732,0.491,0,0.493s2.96,0,2.96,0l2.466,0.494h1.973l-0.494.987s-0.53,1.165-.986.987a7.146,7.146,0,0,0-1.973,0,2.555,2.555,0,0,1-.986.988,11.49,11.49,0,0,0-1.48.987s-1.741,2.354-2.466,2.468-1.446.163-1.48,0.494-1.543,1.013,0,.987,3.116-.053,3.946,0a4.63,4.63,0,0,1,2.466.493,3.414,3.414,0,0,1,.986.988c0.137,0.15.06,0.562-.493,0.987a11.789,11.789,0,0,0-1.973,2.468c-0.235.482-.986,1.974-0.986,1.974v0.987Z"/>
        <path id="形状_17" data-name="形状 17" class="cls-2" d="M503.953,246.614a3.525,3.525,0,0,0,1.48-.493,45.03,45.03,0,0,0,3.946-2.468s0.151-1.774.493-1.975,1.973-1.481,1.973-1.481a11.568,11.568,0,0,1,1.48-1.974,18.781,18.781,0,0,1,2.959-2.468,15.425,15.425,0,0,0,1.973-.987,42.5,42.5,0,0,1,4.439-1.481,18.1,18.1,0,0,1,3.452-.494c0.937,0.085,4.157.231,4.44,0s2.956-1.152,2.959-1.481a23.481,23.481,0,0,1,1.973-2.961s-0.475-2.561,0-2.962a24.167,24.167,0,0,0,1.973-2.961l1.973-1.975,1.479-1.481,2.466-1.481h2.466l2.467-.493,1.972-1.481,1.973-1.974-0.493-1.481a1.494,1.494,0,0,0-.986-0.494,4.626,4.626,0,0,1-1.973-.987,7.888,7.888,0,0,1-.493-0.987l-0.494-.987a14.524,14.524,0,0,0,1.973-1.481c0.362-.441,2.285-1.693,2.466-1.975s1.636-1.537,1.973-1.974a16.142,16.142,0,0,1,.987-1.481c0.375-.376.02-0.85,0.986-1.481a13.18,13.18,0,0,1,2.466-1.481c0.471-.1.952,0.055,1.973-1.48s3.006-4.748,2.959-5.43a18.609,18.609,0,0,1,0-2.962c0.112-.481-0.111-2.68,0-2.961a3.088,3.088,0,0,0-.493-1.975,4.046,4.046,0,0,1-1.479-.987,11.341,11.341,0,0,1,.493-1.974l0.986-.988,1.48-1.481,2.959-1.974a7.627,7.627,0,0,0,.987-1.974c-0.012-.447.493-2.962,0.493-2.962a5.566,5.566,0,0,0,.493-1.974c-0.131-.482,1-3.116.987-3.456a14.769,14.769,0,0,1,1.479-2.468,12.405,12.405,0,0,0,3.453-.493,27.953,27.953,0,0,1,3.452-1.481,26.774,26.774,0,0,0,4.933-1.975c0.15-.313,4.932-1.974,4.932-1.974l2.466-1.481,2.959-2.468,2.466-1.974,2.467-.987v-0.494s-4.778-1.417-5.426-1.975a20.1,20.1,0,0,0-4.439-1.974c-0.545-.082-0.682-0.828-2.466-1.481a29.173,29.173,0,0,0-2.959-.987c-0.56-.139-0.943.139-1.973,0a14.438,14.438,0,0,1-2.96-.987,5.026,5.026,0,0,1-1.479-.987,8.76,8.76,0,0,0-4.439-1.481c-1.455,0-1.193.351-3.453-.494a14.91,14.91,0,0,0-2.959-.987,21.513,21.513,0,0,1-2.96-1.481,22.438,22.438,0,0,1-2.959-.987c-0.477-.309-1.973-1.481-1.973-1.481s-2.249.525-2.466,0.494a11.255,11.255,0,0,1-1.48-.987s-1.226.426-1.479,0.493-2.466.987-2.466,0.987h-1.48l-1.48-.493-0.986-.987s0.265-1.51-.493-0.988a7.858,7.858,0,0,0-1.48,1.481s0.383-.106,0,0.494a4.335,4.335,0,0,1-1.973.987l-1.48.494a7.556,7.556,0,0,1-.493.987,4.248,4.248,0,0,1-.986.987l0.493-1.481-1.48-.493-0.493-1.481,0.987-.987-1.48-.988V131.6a4.862,4.862,0,0,1-1.973-1.481c-0.334-.756-0.987-2.468-0.987-2.468h-3.452s-0.244.262-.986,0.987a9.785,9.785,0,0,0-1.48,2.468l-0.493.494-0.987.987s-0.84-.565-1.48-0.987-1.215-.29-1.479-0.987-1-1.753-.987-1.975a2.2,2.2,0,0,1,0-1.481c0.329-.792.343-1.065,0.494-1.48s0-.494,0-0.494l-1.48-1.974-0.493-1.975s1.466,0.036,1.479-.493,0-1.481,0-1.481l-2.466-.988s-0.154-.717-0.493-0.493a3.639,3.639,0,0,1-1.48.493c-0.278-.033.238-0.439-0.493,0a2.579,2.579,0,0,0-.986.988l-1.973.493h-1.48l-1.48,1.975H514.8l-1.973.987-0.493,1.481a1.927,1.927,0,0,1-1.479.493,4.623,4.623,0,0,0-1.48,0,8.376,8.376,0,0,0-1.973.494l1.48,1.974a13.492,13.492,0,0,0,1.479,1.975,3.919,3.919,0,0,1,.494,1.481,2.156,2.156,0,0,0-.494,1.48,13.669,13.669,0,0,1,0,1.975v0.987a3.185,3.185,0,0,1-1.479.987c-0.721.106-.987-1.48-0.987-1.48s-1.1,1.1-1.479.987a2.7,2.7,0,0,0-.987,0s-1.276-.719-1.48-0.494-0.152.487-.493,0.987,0.182,0.764-.986.988a8.544,8.544,0,0,1-2.466,0,0.932,0.932,0,0,0-.987.493c-0.159.124-.631,1.258-0.986,0.494a9.693,9.693,0,0,1-.493-2.468c-0.1-.584.294-0.917-0.494-0.987a3.782,3.782,0,0,0-1.973.987l-1.479,1.481V139.5l-2.466-.494-0.494-2.962a4.122,4.122,0,0,0-.493-1.48,16.981,16.981,0,0,0-1.48-2.962c-0.444-.5-0.03-1.6-0.986-2.468a12.871,12.871,0,0,1-1.48-1.481c-0.58-.655-1.987-2.507-2.466-2.962s-1.479-1.48-1.479-1.48l-0.494-1.481,0.494-4.936a1.228,1.228,0,0,0-.494-1.481c-0.871-.622-0.63-2.065-1.973-1.975a10.68,10.68,0,0,1-1.972,0l-1.973-1.48s-1.464-.388-1.48,0a1.268,1.268,0,0,1-.986.987,4.566,4.566,0,0,1-1.48-.494,13.411,13.411,0,0,1-2.959.494,13.361,13.361,0,0,0-2.96.493l-0.986.988a8.182,8.182,0,0,1-1.48.987,1.489,1.489,0,0,0-.986,0c-1.424.167-1.655,0.306-1.973,0s-0.984-.011-0.493-0.987,0.89-1.553.493-1.975-0.315-1.318-.987-1.974-0.355-.371-0.986-0.987-1.819.142-2.959,0-1.781.023-1.973-.494a1.08,1.08,0,0,0-.987-0.494H449.7l-1.48.988-2.466-.494h-2.466l-0.493,1.481a22.261,22.261,0,0,0-2.96-.987,0.818,0.818,0,0,1-.493,0,1.466,1.466,0,0,0-.493-0.988,6.137,6.137,0,0,0-1.973-.493H435.4s0.549,1.979,0,1.974a17.925,17.925,0,0,0-2.959.987,47.94,47.94,0,0,0-3.453,3.456,5.9,5.9,0,0,1-1.972,1.974,2.7,2.7,0,0,0-.987,1.481s0.632,0.972,0,.987a9.505,9.505,0,0,0-1.973.494v0.987l-0.493.987-0.986,1.481a1.1,1.1,0,0,0-.987,0,16.409,16.409,0,0,1-2.466.494l-0.987.987s-1.11.09,0,.493a10.051,10.051,0,0,1,1.973.988,1.021,1.021,0,0,0,0,.987c0.321,0.323.272,1.417,0.494,1.974s-0.42,1.933-.494,2.468a6.081,6.081,0,0,1-1.479,2.468,4.517,4.517,0,0,0-.987,1.481l0.493,0.987H420.6a3.186,3.186,0,0,0,.493.988,3.173,3.173,0,0,1,.493.987s0.765,0.183,0,.493a12.866,12.866,0,0,1-2.466.494l-0.493.987,1.973,0.987,1.479,1.481,1.48,0.494,1.48,2.961,1.973,1.975,2.466,1.974,0.986,0.494,0.987,1.481s-0.963,1.833-2.467,1.974a22.463,22.463,0,0,0-3.945.987l3.945,1.481,1.48,2.962h1.973l1.48,1.974-1.973,1.481v1.975l-0.987,1.48a12.552,12.552,0,0,1-.493,1.481,2.414,2.414,0,0,1-1.973.987,7.607,7.607,0,0,0-1.973.494s1.035,1.739,0,1.974a5.7,5.7,0,0,0-1.973.988l-0.986,1.48s1.253,0.672,1.973.988S428,173.56,428,173.56l1.48,1.481,0.986,0.987h1.48l0.986,0.494L433.916,178s1.843,0.437,2.466.493a3.036,3.036,0,0,0,1.479-.493h2.467l0.493,1.481s1.463,0.931,1.973,0a8.133,8.133,0,0,1,1.973-1.975l0.493,2.468a16.94,16.94,0,0,1-1.48,1.975c-0.477.444,0.493,3.455,0.493,3.455a19.788,19.788,0,0,1-1.973,2.468c-0.379.208-.776-0.492-2.959-0.987s-1.892-.8-2.959-0.494a9.936,9.936,0,0,0-4.447,2.611c0.5-2.117.994,1.832,0.994,1.832l0.493,1.974h3.946l-1.973,2.468s-1.124,1.153-.986,1.975,1.973,2.468,1.973,2.468l1.973,4.936s-0.647,1.243,0,1.481,2.659,0.159,2.959-.494-0.081-1.848.493-1.481,1.973,1.481,1.973,1.481l0.493-2.468,0.494,2.962s1.5-.853,1.479,0,0.663,2.7-.986,2.468a10.408,10.408,0,0,0-2.96,0l-2.466,2.468s0.04,3.09.987,2.961,2.959-.493,2.959-0.493,0.388-.147.493,0.493,0.987,3.949.987,3.949a5.063,5.063,0,0,0,.986,1.974,5.064,5.064,0,0,1,.987,1.975,16.7,16.7,0,0,1-.987,1.974c-0.331.453-.809,0.293-0.493,0.988a5.392,5.392,0,0,0,1.973,1.48L449.7,224.4a1.626,1.626,0,0,1,.986,1.481c-0.007,1.091,1.48,2.468,1.48,2.468h2.959s1.043-1.609.987-.494a13.029,13.029,0,0,1,0,2.468c-0.21.646,0.775,1.548,1.973,1.481a3.051,3.051,0,0,0,1.973-.987l1.479,0.493h1.48l0.986-1.48,2.96,0.493-0.987,1.975-0.493.987v1.974l2.466,0.494,2.466-.494s1.071,0.292.987,0.988a5.186,5.186,0,0,1-.494,1.48,17.187,17.187,0,0,0,2.467.988,1.259,1.259,0,0,0,.493-0.494s0.293,0.995.493,1.481-1.345,1.33,0,1.481l4.439,0.493s1.7,0.758,1.973.494a15.784,15.784,0,0,1,2.466-.987c1.052-.423,1.176.007,1.973-0.494a3.054,3.054,0,0,1,1.973-.494c1.113-.1,3.025-0.374,3.452,0a17.028,17.028,0,0,0,3.453,1.481c0.79,0.23,5.425,1.975,5.425,1.975a13.894,13.894,0,0,0,1.973,1.48C502.129,245.44,503.953,246.614,503.953,246.614Z"/>
        <path id="形状_18" data-name="形状 18" class="cls-2" d="M311.6,256.486l-1.973-1.48s-1.627-2.7-1.973-3.456a10.822,10.822,0,0,0-1.479-1.974h-2.96l-0.986-1.481v-2.468l-0.986-.987a2.746,2.746,0,0,0,0-1.481,12.337,12.337,0,0,0-.987-2.962c-0.488-.863-0.507-0.7-0.986-1.48s-1.075-1.352-.987-1.975,0-2.962,0-2.962-0.813-1.814-1.48-1.974a2.117,2.117,0,0,1-.986-0.494l-0.493-.987s2.452-.771,2.959-0.493,2.466,0.987,2.466.987l3.946,0.493h0.986l3.453-.493,0.987,1.974a2.929,2.929,0,0,0-.987.987,19.033,19.033,0,0,1-2.959,2.469l0.493,1.48,1.48-.493s0.3-1.566.986-1.481a9.262,9.262,0,0,1,1.973,0c0.531,0.224,1.973-1.481,1.973-1.481l0.986-.494s0.788-1.666,1.973-1.48,3.346-1.164,3.453,0-0.805,2.523,0,2.961a9.578,9.578,0,0,0,2.959.494l0.493-1.975,1.48-3.455a1.373,1.373,0,0,1,1.48-.987c1.1,0.212,3.015.356,3.452,0.494s3.453-1.481,3.453-1.481l2.959-.494,3.453-.493s0.507-1.514.986-1.481-0.164.517,1.973-.494a15.1,15.1,0,0,1,5.425-.987,8.577,8.577,0,0,0,0,1.481c0.064,1.011,0,2.468,0,2.468l2.96-.987,1.48-1.481,1.972-.987v-1.975l4.439,0.494,0.987-2.468s-3.047-1.362-.987-1.481a12.955,12.955,0,0,1,3.946.493c0.629,0.086,5.426.494,5.426,0.494l1.479,0.494s0.281,1.216.494,1.974a10.584,10.584,0,0,0,1.972,2.468l-0.986,3.455-0.986,1.975v1.974s1.786,0.029,2.466,0,3.945,0,3.945,0l1.973,0.987s1.216-1.535,1.48-1.974a3.112,3.112,0,0,1,.986-1.481c0.954-.915,1.038-1.208,1.973-1.481s4.439-1.48,4.439-1.48l1.973-.988,2.466-.987v-2.468s-2.7.343-1.479-.987a25.433,25.433,0,0,1,1.973-1.975l0.986-2.468v-1.48a18.074,18.074,0,0,0,2.466-.494c0.541-.224,1.973-0.987,1.973-0.987v-1.481s-3.806.123-3.946-.494,0.009-2.362.494-2.468a18.248,18.248,0,0,1,3.452.988l1.48-.494,1.479-1.481a1.95,1.95,0,0,1,1.48,0c0.832,0.322,1.48,1.975,1.48,1.975l0.493,3.455,1.48-1.481,1.973-.494,1.972-1.974,1.973-.987,5.426-1.481a1.144,1.144,0,0,0,1.479.987,22.42,22.42,0,0,0,2.467-.987s0.826-2.626,1.479-2.962,2.96,1.481,2.96,1.481,1.593-.473,1.479-0.987a6.051,6.051,0,0,0-.493-1.975c-0.354-.534-1.052-1.418-0.493-1.974A6.733,6.733,0,0,1,428,200.215a21.27,21.27,0,0,0,3.453-.987c1.04-.5,2.213-0.737,2.466-0.987s3.147,0.187,2.959.493-2.687-1.754-.493,1.481,1.973,4.936,1.973,4.936v1.481l1.973-.493,1.479-1.481h0.987l0.986,1.481h1.48l0.986,0.987v0.987s-2.235.4-2.959,0.494a14.891,14.891,0,0,0-2.959,1.48,1.275,1.275,0,0,0-.494.988,7.024,7.024,0,0,0,0,1.48c0,0.871,1.973,1.481,1.973,1.481l1.48-.493,0.493,1.48s1.49,4.645,1.973,4.936,0.231,1.663.986,1.975-0.377,2-.493,2.468-0.829,2.01,0,1.974,1.48,0,1.48,0L449.7,224.4a7.066,7.066,0,0,1,1.479,1.974,2.1,2.1,0,0,0,1.48,1.481,7.032,7.032,0,0,0,2.96,0c0.691-.256.966-0.9,0.986,0a9.646,9.646,0,0,1,0,2.468c-0.19.636,0.274,1.948,0.986,1.975s1.7-.846,2.467-0.988,2.959-.493,2.959-0.493l1.973-.987,1.479,0.493s0.254,1.528-.493,1.975-0.986,2.961-.986,2.961-0.428.563,1.479,0.494,4.933,0,4.933,0a5.666,5.666,0,0,0,0,1.481c0.123,0.445-.816.584,0.493,0.987a12.788,12.788,0,0,0,2.466.494,2.366,2.366,0,0,1,0,1.974,27.293,27.293,0,0,0-1.48,2.962l-0.986.987-0.987-.987-0.986-.988a2.5,2.5,0,0,0-1.973,0,3.975,3.975,0,0,1-1.48.494,4.337,4.337,0,0,1-1.479.987c-0.5.045-1.415,0.018-1.48-.493a7.659,7.659,0,0,0-.493-1.481h-1.973l-1.48.493-1.479-.493v1.481s0.368,1.982-.494,2.468a3.987,3.987,0,0,1-1.479.493c-1.271.412-2.592,0.05-3.453,0.494s-0.629.481-1.48,0.987,0.032,0.586-.986.494-0.787.155-1.48-.494-1.007-1.473-1.479-1.481a5.477,5.477,0,0,1-1.48-.493s0.273-.486-0.986,0a2.577,2.577,0,0,0-1.48.987,1.167,1.167,0,0,1-.987.987c-0.786-.019-0.074.334-1.479,0a4.86,4.86,0,0,1-1.973-.987c-0.8-.4-0.127-0.528-0.987-0.987a1.894,1.894,0,0,0-1.479-.494c-1.374-.176-0.684.176-1.973,0s-1.46-.664-1.48,0a7.3,7.3,0,0,0,.493,1.974s1.481-.21,1.062,0,0.911,0,.911,0-1.607,1.017-2.466,1.481a5.073,5.073,0,0,1-1.973.494,3.75,3.75,0,0,0-1.479,0c-0.555.18-1.23-.391-2.466,0a16.38,16.38,0,0,0-2.96,1.481l-1.973-.494-1.479,1.481-0.494.987v0.987l-3.452.494v1.481s0.363,1.221-.493.987a8.131,8.131,0,0,0-2.467,0,1.841,1.841,0,0,1-.986.987,2.426,2.426,0,0,0-.986.494l-1.48,1.481-3.946.987a2.8,2.8,0,0,0,.987.987c0.749,0.49,1.479.987,1.479,0.987l0.987,0.987,1.973-.493v1.974l0.493,1.975v1.974l1.479,0.987,1.48-.493h0.493l0.494-1.481,1.479-.494,0.987,0.988a0.911,0.911,0,0,1,0,.987,6.017,6.017,0,0,1-1.48,1.481c-0.458.352-.823-0.521-0.986,0.493a6.154,6.154,0,0,0,0,1.481,4.832,4.832,0,0,0,0,.987l-1.973-.987-0.987.494v1.48a1.61,1.61,0,0,0-1.479.494,6.425,6.425,0,0,1-1.48,1.481l-1.48-.987-1.973-1.481a8.715,8.715,0,0,1-.986,1.974,6.607,6.607,0,0,1-1.973.494v-1.481l-0.493-1.481-0.493-.987-0.987.494a1.836,1.836,0,0,1-.493.987,2.292,2.292,0,0,0-.493.493,0.961,0.961,0,0,1-.987.494c-0.678-.112-0.456.206-0.986,0a6.435,6.435,0,0,1-.987-0.494s-0.549.5,0-.493a2.852,2.852,0,0,0,.494-1.481c-1.212-.653-0.966-1.16-1.48-0.987a9.694,9.694,0,0,1-.987.493,1.1,1.1,0,0,1-.493,0s-0.089.881-.493,0a2.884,2.884,0,0,0-.986-1.48,1.773,1.773,0,0,1-.987,0c-0.388-.239.52-0.041-0.493,0a5.825,5.825,0,0,0-1.973.493s0.289,0.135-.493.494a4.417,4.417,0,0,1-1.48.493c-0.421.052-.713,0.6-0.986,0s0.311-.814-0.494-0.987a7.378,7.378,0,0,1-1.973-.987H384.1l-0.986.987,0.493,0.987c-0.186.373-1.973,0.494-1.973,0.494-1.211-.093-1.151-0.584-1.48,0s-1.03.7-.493,1.481a6.729,6.729,0,0,0,2.466,1.481s-0.2-.14.987,0,0.843-.42,1.479,0,0.493,0.493.493,0.493-0.438,1.116-.986.987-0.828.222-1.48,0-0.2.036-.986,0a0.941,0.941,0,0,0-.987.494,2.073,2.073,0,0,1-.493,1.481c-0.515.321-.767-0.174-1.479,0.494s-0.987.987-.987,0.987,0.658,1.378,0,1.974a22.907,22.907,0,0,1-1.973,1.481,4.758,4.758,0,0,0,.493,1.974,9.55,9.55,0,0,1,.987,1.975,2.406,2.406,0,0,0,1.973.987,4.6,4.6,0,0,1,1.973.494s1.44-.252,1.973.493a3.348,3.348,0,0,0,.986.987v0.988L382.62,294l-1.479-1.48s-0.433.017-1.48,0-0.274-.543-0.986,0-0.757.406-1.48,0.987a3.73,3.73,0,0,1-1.48.987c-0.734.247-.213,0.554-0.986,0.494a6.573,6.573,0,0,0-1.973,0c-1.409.126-2.312-.126-2.466,0s-0.181.433-.493,0,0.164-.422-0.494-0.988-1.276-.01-1.479-0.987-0.411-.344-0.494-0.987a14.108,14.108,0,0,0-.986-2.468,6.776,6.776,0,0,1-1.48-.987c-0.411-.451-1.095-1.112-0.986-1.481a5.362,5.362,0,0,0,.493-1.481,2.365,2.365,0,0,0-.493-1.481s-2.432.742-2.466,1.481a1.349,1.349,0,0,1-1.48,1.481c-1.163,0-.36-0.47-1.973,0a4.6,4.6,0,0,0-1.973.987c-0.757.416-.9,0.16-1.479,0.987a1.522,1.522,0,0,0-.494.988,2,2,0,0,1-.493.987,9.83,9.83,0,0,1-.986.987,2.258,2.258,0,0,1-.493.494,9.545,9.545,0,0,1-.987.493c-0.763.329,0.375,0.472-.986,0.494s-1.48,0-1.48,0H347.6v-0.494s-1.9.55-.493-0.493,1.9-.893,2.96-1.481a3.685,3.685,0,0,0,1.479-1.481s0.7-.015,0-0.494-1.253-.618-2.466-1.48-2.321-3.586-2.466-3.949a9.06,9.06,0,0,0-.493-1.481c-0.3-.561-0.031-0.535-0.493-1.481a13.75,13.75,0,0,0-1.973-2.468,13.31,13.31,0,0,0-2.466-1.974,6.87,6.87,0,0,1-1.48-.494c-0.786-.392-1.258.058-2.466-0.494s-2.466-.987-2.466-0.987c0.093-.373,2.09-0.918,2.466-0.987s0.424,0.628.493,0a3.087,3.087,0,0,0-.986-1.974,0.852,0.852,0,0,1-.494-0.988c0.151-.464-0.15-0.912,0-1.48a15.587,15.587,0,0,1,1.48-2.468,1.808,1.808,0,0,1,1.48-.988c1.2-.283,1.63-0.7,1.973-0.493s0.986-.988.986-0.988-0.343-1.416-.493-1.974,0.1-2.233-.493-2.468a3.685,3.685,0,0,1-1.48-.987c-0.134-.273-1.094-0.209-0.987-0.987a7.277,7.277,0,0,0,0-2.468c-0.172-.735-0.348-0.736-0.493-1.481a4.619,4.619,0,0,0-.493-1.481c-0.3-.664.156-0.285-0.493-0.987s-0.408-1.048-1.973-1.481-0.984-1.075-1.973-.987-0.852-.088-1.48,0,0.2-.741-0.493,0a4.48,4.48,0,0,1-1.48,1.48,4.085,4.085,0,0,1-1.972.494c-0.782.165,0.244,0.768-1.48,0s-0.731-1.3-1.973-.987-0.763.636-2.959,0.987-3.569.17-4.933,0.494a3.634,3.634,0,0,0-1.479.493,5.02,5.02,0,0,1-.987.988,4.866,4.866,0,0,0-.986.987c-0.426.466-.988,0.109-0.987,0.987A5.844,5.844,0,0,1,311.6,256.486Z"/>
        <path id="形状_19" data-name="形状 19" class="cls-2" d="M297.786,229.338h1.48v-1.481l-1.48-.493-0.987-1.481v-2.962s0.039-.819,0-1.481a6.238,6.238,0,0,1,0-.987s0.888-.122.494-1.481a5.257,5.257,0,0,0-.987-1.974c-0.508-.9-1.35-1.123-1.479-1.975a9.33,9.33,0,0,0-.494-1.48c-0.186-.747.438-0.563-0.493-1.481s-0.79-.117-1.48-1.481a13.243,13.243,0,0,1-.986-1.974,13.278,13.278,0,0,0-.986-1.975c-0.642-1.269.319,0.235-.987-1.481s-0.852-.88-1.973-2.468-0.6-1.26-1.479-1.974,0.144-.022-0.987-0.987-0.866-.345-1.48-1.481-1.084-1.3-.986-1.975a2.206,2.206,0,0,0,0-1.974c-0.453-1.592-.581-0.615-1.48-2.962s-0.986-2.468-.986-2.468l-0.987-.493a6.5,6.5,0,0,0-1.479,0c-1.3.064-2.122-.316-2.466,0.493a1.686,1.686,0,0,1-.987.987,17.3,17.3,0,0,1-1.973-1.48c-0.273-.349-1.035-0.961-1.479-1.481s-1.48-1.481-1.48-1.481a6.294,6.294,0,0,1-.493-1.481c-0.122-.724-0.7-1.872,0-2.468s1.973-1.481,1.973-1.481a0.849,0.849,0,0,0,.986-0.493,11.468,11.468,0,0,1,.987-1.481v-0.987a2.057,2.057,0,0,0,0-.988c-0.079-.947-0.932-1.487-0.987-1.974s-1.23-2.109-.986-2.468-0.106-.1,0-0.987a5.539,5.539,0,0,0,0-1.481l1.973-.987,1.479-.494a7.684,7.684,0,0,0,.987-0.493,14.959,14.959,0,0,1,2.959-.988l2.959-.493,1.48-.987a7.647,7.647,0,0,1,.986-1.481c0.487-.5.249-0.785,0.987-0.988a27.1,27.1,0,0,0,3.452-1.974h0.494v0.987l1.479,1.481s0.2,0.283.987,0a0.712,0.712,0,0,1,.986.494l0.493,2.468h1.973l2.96-.987a0.649,0.649,0,0,1,.493-0.988c0.9-.169,1.973.988,1.973,0.988l1.973-2.469s-0.1.179,0.493-.493,0.721-1.188,1.48-1.481a2.863,2.863,0,0,1,1.972.494l-0.493,1.48s3.524,0.341,3.946,0-0.123-.647.493-0.493a30.042,30.042,0,0,1,3.453,1.974l0.986,1.481,0.987,2.962,2.959-.494s2.522-2.674,2.466-.987,2.973,3.6,3.453,3.949a15.45,15.45,0,0,0,1.973.987l2.466,0.494a2.753,2.753,0,0,1,.493-1.975c0.637-.53,3.946-3.455,3.946-3.455a0.993,0.993,0,0,0-.987-0.494c-0.809-.022-2.466-2.961-2.466-2.961l-2.466.493,1.973-2.961a2.1,2.1,0,0,0-1.48-.494c-0.771.12-1.912,0.131-1.479-.494s1.886-.983,2.466-1.974a13.815,13.815,0,0,1,1.479-1.974l0.987-.494-2.959-.494,2.959-1.974a7.64,7.64,0,0,0,.986-0.987c0.3-.411,1.683-1.013,1.973-1.481s0.868-.053.493-0.987a2.687,2.687,0,0,0-.493-0.988s-0.8-.574,0-0.987a8.029,8.029,0,0,1,2.466-.493l0.494-.494s1.747-.318,1.972,0,0.3,0.071.987,0.494,1.973,0.525,1.973.987,0-.026,0,0.987a9.8,9.8,0,0,1-.493,2.468,0.651,0.651,0,0,0,.493.494c0.426,0.1.493,1.481,0.493,1.481l0.987-.494,2.466-.987,2.466-.494a24.294,24.294,0,0,1,3.946.987c0.232,0.293-.271,1.084.493,0.988s0.145,0.134,1.479-.494,0.306-.662,1.973-0.987,0.827-.492,1.973-0.494,1.48,0,1.48,0H362.4a5.848,5.848,0,0,1,0-1.974c0.209-.678-1.357-0.955.493-0.988s2.92-.7,3.453-0.493a1.911,1.911,0,0,0,.986,0c0.658,0.034,1.884-.9,2.467-0.987s-0.877.089,0.493,0a4.043,4.043,0,0,1,1.479,0,6.3,6.3,0,0,0,2.96-.494,7.4,7.4,0,0,1,.986,1.974,7.419,7.419,0,0,0,.987,1.975s0.733,1.293.493,1.481a0.84,0.84,0,0,0,0,.987,3.449,3.449,0,0,0,.986.494c0.482,0.245.723-.5,0.987,0a11.047,11.047,0,0,0,.986,1.48,15.5,15.5,0,0,0,2.466,1.975s-0.313,1.385,0,1.481a4.169,4.169,0,0,0,1.48-.988V154.8s-0.059.21,1.48,0a5.743,5.743,0,0,1,2.959.494l2.959,2.468,1.973,1.481a6.575,6.575,0,0,0,1.973-.494c0.813-.4.989-0.3,0.987-0.987s-0.557-.3-0.494-1.481-0.349-1.062,1.48-1.974,1.963-1.972,3.946-2.468,3.479-1.269,4.439-1.481a7.883,7.883,0,0,0,2.466-.987c0.886-.507,1.912-1.43,2.466-1.481s1.38,0.175,1.48-.494,0.677-.839.986-1.481,1.284-2.072,1.48-2.468-0.956-.25.986-0.493a9.143,9.143,0,0,1,2.96,0s1.935,0.073,2.466,0a4.26,4.26,0,0,1,1.48,0,1.4,1.4,0,0,1,.986.987c0.2,0.65.493,1.974,0.493,1.974s0.52,0.308,1.48.988,0.291,1,1.48,1.48a11.573,11.573,0,0,1,2.959,1.481,5.134,5.134,0,0,0,.493.988,1.944,1.944,0,0,1,.493.987,1.137,1.137,0,0,1-.493.987,21.05,21.05,0,0,1-2.466.987c-0.31.18-1.973,0.987-1.973,0.987l1.48,0.988s0.982,1,1.479,1.48a3.611,3.611,0,0,0,.987.988c0.706,0.438,1.228.852,1.48,0.987a5.379,5.379,0,0,0,1.479,0s0.678-.088.493,0.493,0.355,0.671,0,1.481-0.678,1.344-.986,1.975-0.986,1.974-.986,1.974,0.175-.062,0,0.494-0.494,1.481-.494,1.481a1.492,1.492,0,0,0-.986.493c-0.148.376,0.869,0.355-.493,0.494a5.347,5.347,0,0,0-1.973.493l-0.493.988a15.29,15.29,0,0,1-.987,1.48c-0.472.6-1.206,0.268-1.48,0.988a14.071,14.071,0,0,0-.493,1.974,1.126,1.126,0,0,1,.987,0c0.343,0.284.31,0.361,1.479,0.494a7.923,7.923,0,0,0,1.973,0l2.466,1.48a6.45,6.45,0,0,1,1.973.494,10.016,10.016,0,0,1,1.973.987,12.4,12.4,0,0,1,1.48,1.481,9.735,9.735,0,0,0,1.973,0c0.776-.122,1.328.207,1.479,0a1.757,1.757,0,0,1,1.48.494c-0.047.239-1.831,1.175,0,.493s1.6,0.122,1.973-.493,1.48-1.975,1.48-1.975l0.493,1.481-0.493,1.975s0.207-.507-0.494.493-1.015,1.411-.986,1.975a3.7,3.7,0,0,0,0,.987c0.115,0.773-.115.688,0,0.987s0.654,0.564,0,.987-0.209,1.21-.987.987,0.684,0.223-.986,0-3.453-.493-3.453-0.493,0.345,0.241-.986,0-1.979-.357-2.466,0-1.973,1.481-1.973,1.481a5.925,5.925,0,0,0,0,1.48c0.119,0.387.986,2.962,0.986,2.962h2.96a10.36,10.36,0,0,1,0,1.481,3.493,3.493,0,0,1-.987.987,3.476,3.476,0,0,0-.986.987c-0.06.3-.67,0.312-0.493,0.988s1.019,0.786,0,.987-1,.53-1.48.493a13.131,13.131,0,0,0-3.453.988c-0.613.344-1.709-.041-1.972,0.493a6.062,6.062,0,0,1-.494,1.481c-0.367.421-.875,0.271-0.493,0.987a13.691,13.691,0,0,1,.493,2.468c0.145,0.3-.986,1.481-0.986,1.481s1.081,0.319-.987-0.987-1.622-2.938-1.972-1.481a5.413,5.413,0,0,1-1.48,2.468l-1.48,1.481s0.458,0.573-.986.494-1,.164-1.48,0a2.558,2.558,0,0,0-1.48-.494,10.651,10.651,0,0,1-1.973.494,7.751,7.751,0,0,0-1.479.493c-0.157-.06.395-1.6-1.973,0.494s-2.137,2.545-2.466,2.961-0.106.789-.987,0.988-2.466.493-2.466,0.493,0.161,0.342-.493.494-1.148.134-.986-1.481,0.265-3.158,0-3.455,0.474,0.164-.494-0.494a1.586,1.586,0,0,0-1.479-.493,7.08,7.08,0,0,0-1.48,0l-0.986.987s0.95,0.429,0,.493a19.721,19.721,0,0,1-3.453-.493,4.818,4.818,0,0,0-1.48.493,4.96,4.96,0,0,0-.986,1.481s0.118-.587.493,0.494,3.946,1.481,3.946,1.481h0.986l-0.493,1.48a4.183,4.183,0,0,0-1.48,0c-0.363.171-1.532,0.047-1.972,0.494s-1.48,1.481-1.48,1.481v0.987a3.248,3.248,0,0,1-.493,1.481c-0.347.258-.687-0.3-0.987,0.493a7.031,7.031,0,0,1-.493,1.481,2.158,2.158,0,0,0-.493.988,1.951,1.951,0,0,0,.493,1.48,2.516,2.516,0,0,0,.986.494s0.622,0.023,0,.494,0.955-.167-0.986.493-2.959.987-2.959,0.987l-3.946.988s-1.347-.178-1.48.493a3.882,3.882,0,0,1-1.48,1.975c-0.788.662-1.972,1.48-1.972,1.48a0.929,0.929,0,0,0-.494.988,1.745,1.745,0,0,1,0,.987,3.119,3.119,0,0,1-.986-0.494c-0.411-.333-1.48-1.481-1.48-1.481s-1.295,1.169-1.479.988-0.213-.72-1.48-0.494-0.668-.226-1.48,0a0.978,0.978,0,0,1-.986,0s-0.99,1.4-.493,0,0.194-2.645.986-2.962,1.01,1.3.986-.493,0.024-.793,0-1.975,0-1.48,0-1.48,0.234,0-.493-0.494-0.819.357-.986-0.494-0.393-.487-0.493-1.48,0.7-.468,0-0.988-0.25.045-.987-0.493,0.169-.667-1.48-0.988-2.608-.239-3.452-0.493-1.355-.733-2.466-0.494a15.646,15.646,0,0,1-3.453,0l-0.493,1.481,1.973,0.494a0.69,0.69,0,0,0-.493.493,10.7,10.7,0,0,1-.494.988c-0.286.459,0.069,0.442-.493,0.493a15.223,15.223,0,0,1-1.973,0,3.7,3.7,0,0,1-1.479-.493s-0.717,1.049-.494,1.48-0.493,1.481-.493,1.481a1.786,1.786,0,0,0-1.479.494c-0.366.594,0.954,1.342-.987,1.481a10.755,10.755,0,0,0-2.466.493c-1.1.158-.987,0-0.987,0l-0.493-2.468-0.986-1.974s0.37,1.523-1.48,1.481a29.549,29.549,0,0,0-2.959,0,8.175,8.175,0,0,0-1.48.493,4.715,4.715,0,0,1-1.48,1.481,3.2,3.2,0,0,1-1.972.494c-1.389-.033-1.059-0.31-1.48,0a8.543,8.543,0,0,1-1.973.987,2.547,2.547,0,0,1-1.48.493,19.976,19.976,0,0,0-1.973.494c-0.632.045,0.966-.045-0.986,0s-0.845.383-2.466,0-0.911-.861-1.48-0.494-0.853-.141-1.479,1.481a18.887,18.887,0,0,1-1.48,2.962v1.974s0.854,0.455,0,.494-0.824.56-1.48,0-0.719,1.026-.986-0.494-0.89-.805-0.493-1.974,0.493-1.481.493-1.481l-1.48-.494s-1.011.742-1.48,0.988a8.154,8.154,0,0,1-2.466,0,11.99,11.99,0,0,1-.986,1.974c-0.432.579-.346,0.883-0.987,0.987a11.634,11.634,0,0,1-1.972,0s0.243-.959-0.494,0-1.282,1.062-1.479,1.481a0.972,0.972,0,0,1-.987.494c-0.406.01-.493,0-0.493,0s-0.77-1.823,0-1.975a6.164,6.164,0,0,0,2.466-.987,9.425,9.425,0,0,1,.987-0.987s0.29-1.366,0-1.481a5.119,5.119,0,0,1-.987-0.987s0.624,0.239-.493,0-0.181.068-1.973,0-0.873.325-1.973,0-0.578-.406-1.48-0.494-2.959,0-2.959,0h-0.986Z"/>
        <path id="形状_20" data-name="形状 20" class="cls-2" d="M435.889,107.911v-2.468l-1.973-.494h-1.48a4.492,4.492,0,0,0-.493-1.481,2.986,2.986,0,0,0-.987-0.493c-0.99-.343-0.981-0.009-1.479-0.494a6.367,6.367,0,0,1-.987-0.987A1.114,1.114,0,0,0,428,101c-0.289-.2.362-0.639-0.493-0.987a3.486,3.486,0,0,1-.987-0.494s0.151,0,0-.494a1.613,1.613,0,0,1,.494-1.481c0.344-.281.5-1.2,0.986-1.481a12.8,12.8,0,0,0,.986-0.987c0.63-.5,1.061.077,0.987-0.987a5.2,5.2,0,0,1,0-1.481c0.067-1-.067-0.484,0-0.987a1.555,1.555,0,0,0,0-.987c-0.145-.646-0.491-0.339,0-0.987a3.019,3.019,0,0,0,.724-1.058,0.518,0.518,0,0,1,.262-0.423l1.48-1.975,0.493-.494,0.987-.987s-0.639.234,0-.494,0.135-.187.493-0.987,0.629-.185.493-0.987a2.137,2.137,0,0,0-.493-0.987,7.3,7.3,0,0,0-.493-0.987s-1.345.6,0-.494,1.4-.6,1.973-1.481a2.152,2.152,0,0,1,.986-0.987s0.2-.323,0,0.987a18.475,18.475,0,0,0-.493,2.468c0.149,0.043-.714-0.257,0,0.493s0.835,0.518.986,0.987,0.2,1.365.987,0.494a2.939,2.939,0,0,1,1.479-.987c0.579-.308.494-0.494,0.494-0.494a1.337,1.337,0,0,1,.986-0.493c0.652-.028,1.67.029,1.973-0.494a2.206,2.206,0,0,0,.493-1.481c-0.049-.667.685-1.094,0-1.481s0.194-.389-0.986-0.494-0.369.388-.987,0-0.3-.527-0.986-0.987-1.283-.1-0.987-0.494,0.969-.525,1.48-0.987a4.51,4.51,0,0,1,1.48-.987c0.513-.182,1.387-0.1,1.479-0.493a1.126,1.126,0,0,1,.494-0.987c0.517-.4.257-0.872,0.493-0.987s1.033-.166.493-0.494-0.374-.518-0.986-0.494a3.329,3.329,0,0,0-1.48,0,2.627,2.627,0,0,1-1.973-.494,1.728,1.728,0,0,1-1.48-.494c-0.833-.684-0.01-0.655-0.986-0.987a4.079,4.079,0,0,1-1.973-.987,0.529,0.529,0,0,0-.493-0.494,18.352,18.352,0,0,0-1.973,0,4.555,4.555,0,0,0-.987,0c-0.35.018-.422-0.372-0.986,0a19.255,19.255,0,0,1-1.973.987s-0.986-1.428,0-1.481a4.209,4.209,0,0,0,2.466-.493c0.849-.548,1.052-0.367,1.48-0.987a4.313,4.313,0,0,1,1.973-.987,5.5,5.5,0,0,1,0-1.481c0.131-.212-0.413-0.421-0.493-0.987a4.282,4.282,0,0,0-.494-0.987c-0.152-.5.153,0,0-0.494a3.278,3.278,0,0,1,.494-1.974c0.2-.149-0.133.221,0.493-0.494s0.429-.836.986-0.987-0.35.222,1.48,0,2.184,0.363,2.466,0,0.562-.059.986-0.494,0.421,0.3.494-.494-0.5-1.675-.494-2.468,0.282-.546,0-0.987a1.362,1.362,0,0,0-.986-0.987c-0.848-.3-0.137-0.756-0.986-0.494s-0.981-.547-1.48.494a8.529,8.529,0,0,1-.493.987s0.149,0.795-.494,0a1.226,1.226,0,0,1-.493-0.987c-0.149-.514-0.416.093,0-0.987a10.206,10.206,0,0,1,.493-0.987,4.656,4.656,0,0,1,.494-0.987,5.958,5.958,0,0,1-.987-0.494,5.98,5.98,0,0,0-.986-0.494l2.466-.494s-0.7.592,0.493,0a3.463,3.463,0,0,0,.987-0.494,5.853,5.853,0,0,0,1.479-2.468c-0.07-.244.071-0.178,0-0.493s-0.069-.107-0.493-0.494-1.653-1.858-1.48-2.468-0.738-.444,0-1.481a4.4,4.4,0,0,0,.987-1.481,6.389,6.389,0,0,1,.493-0.987c0.388-.829.879-0.72,0.986-1.481s-0.248-.719,0-0.987,0.6-1,.987-1.481,0.946-.574.986-0.987a10.737,10.737,0,0,1,.987-1.975,0.643,0.643,0,0,1-.493-0.987,3.256,3.256,0,0,1,1.479-1.481c0.212-.353.987-2.468,0.987-2.468s1.153-.843.493-0.987-1.312.217-1.48-.494a21.008,21.008,0,0,0-.986-2.468s0.1,0.22-.493,0a6.246,6.246,0,0,0-2.467.494,1.2,1.2,0,0,0-.493.987,3.278,3.278,0,0,1-.493,1.975c-0.177.068,1.028,0.073-.986,0a7.409,7.409,0,0,0-1.973,0,1.105,1.105,0,0,0-.987-0.494c-0.537.138-.518-0.279-0.986,0a7.16,7.16,0,0,1-2.466,0c-0.212.424-.655,0-0.494,0.987a3.434,3.434,0,0,1,0,1.481,8.809,8.809,0,0,1-.986,1.481c-0.193.074-.017-0.781-0.493,0s-1.215.276-.987,0.987,0.265,0.909.494,0.987,0.986,0.494.986,0.494a0.678,0.678,0,0,1,0,.987,6.079,6.079,0,0,1-.986.987c-0.195.153,0.125,0.481-.494,0.494s-0.081.482-1.479,0-2.466-.987-2.466-0.987c-0.706.212-1.206,0.2-.987,0.494a1.527,1.527,0,0,1-.493,1.481,2.887,2.887,0,0,1-1.48.987,11.6,11.6,0,0,0-1.479.494c-0.352.158,0.214-.23-0.987,0.494a8.886,8.886,0,0,1-2.466.987s-0.276-.444-0.493.494a6.554,6.554,0,0,1-.987,1.974,3.81,3.81,0,0,0-.986.987,13.488,13.488,0,0,0-.987,1.481,2.746,2.746,0,0,1-.493.987c-0.082.029,0.226-.312-0.493,0s-0.829-.313-1.48.494a4.111,4.111,0,0,1-.986.987s-0.472,2.361-1.48,2.468a3.651,3.651,0,0,1-1.973,0c-0.588-.247-1.312-1.164-1.479-0.494a5.068,5.068,0,0,0,0,1.481c-0.026.956,1.084,0.8,0,1.481s-1.48.987-1.48,0.987a6.5,6.5,0,0,0-.493-1.481c-0.453-1.091-.32-0.458-0.987-1.481s0.247-.387-0.986-0.987,1.45,0.532-1.48-.494-3.62-1.655-3.946-.987-0.094,1.234-.986,1.481a2.567,2.567,0,0,0-.987.494,8.334,8.334,0,0,0-1.972,1.481c-0.474.392-.512,1.721-0.987,1.974s-1.916,1.155-2.466.987a24.193,24.193,0,0,0-2.959-.987,7.222,7.222,0,0,0-2.467,0,4.96,4.96,0,0,0-1.972.987,5.356,5.356,0,0,0-1.48,1.481,1.556,1.556,0,0,0,0,.987,0.831,0.831,0,0,1,0,.987,12,12,0,0,1-.493,1.481,1.351,1.351,0,0,0-.494.987,1.7,1.7,0,0,1-.493.987,1.148,1.148,0,0,1-.986.494c-0.924.2-1.187-.268-1.973,0a4.561,4.561,0,0,1-1.48.494,3.816,3.816,0,0,0-1.479.494,5.318,5.318,0,0,1-.987,1.481,8.007,8.007,0,0,1-1.48.494c-1.077.344-.469,0.149-1.479,0.494s-0.887,1.206-2.466.987-0.532.5-1.973-.494,0.317-.342-1.48-0.987a5.248,5.248,0,0,0-2.466-.494,7.394,7.394,0,0,0,0,.987c0.034,0.627-.457,1.133,0,1.481s1.09,0.638,1.48.987a3.916,3.916,0,0,1,.493.494,0.782,0.782,0,0,0,0,.987,3.319,3.319,0,0,1,.493.987s-0.1,1.128-.986.494a6.46,6.46,0,0,1-.987-0.987,5.6,5.6,0,0,1-.986-0.987,3.859,3.859,0,0,0-.987-0.987,4.143,4.143,0,0,0-1.479-.987,2.141,2.141,0,0,1-.987-0.494,4.28,4.28,0,0,0-.986-0.987c-0.752-.432-0.587-0.484-0.987-0.494A1.9,1.9,0,0,0,355,62.005c0.021,0.417.686,0.922-.493,0.987s-2.552,0-2.96,0-2.336,1.976-2.466,1.974,0.556,0.7-.493.987a2.563,2.563,0,0,0-1.48.987s-0.923-.569-0.493.494,0.627,1.334.493,1.481,0.7-.007-0.493.494a5.165,5.165,0,0,1-1.48.494s-0.355-.01-0.493.987a13.635,13.635,0,0,0,0,2.468,10.3,10.3,0,0,1,0,1.481c-0.067.3-.635,2.307-0.986,2.468a16.774,16.774,0,0,0-1.48.987s0.289,1.316-1.48,1.481-0.553-.589-1.973,0-0.622.045-1.479,0.494-1.183.961-1.973,0.987-0.548-.238-0.987,0-0.618-.947-0.493.494,0,1.481,0,1.481,1.211,1.66,1.48,1.481a0.422,0.422,0,0,1,.493,0s-0.128-1.09,0-.494,0.646,0.389.493,0.987,0.789,0.458,0,.987,0.016,0.317-.986.494a9.1,9.1,0,0,0-1.48.494,1.289,1.289,0,0,0-.986.493c-0.512.391,0.231,0.243-.493,0.494s-0.188,1.729-1.48-.494-1.6-1.37-1.48-2.962-0.117-1.016,0-1.481,1.085-1.722-.493-0.987a3.229,3.229,0,0,1-1.973.494c-1.017.17,0.244-.382-0.986,0s-1.235.252-1.48,0.494,1.164,0.463-.493.494-1.3.04-2.466,0a5.191,5.191,0,0,1-1.48,0c-1.1-.181-1.48-1.974-1.48-1.974s-1.855-.1-1.973.494,0.191,1.1-.493,1.481a21.829,21.829,0,0,1-2.466.987,5.549,5.549,0,0,1-1.973,1.481c-0.9.247-.221,0.53-1.479,0a8.115,8.115,0,0,1-1.973-.987c-0.557-.39-0.148-0.526-0.494-0.494s0-.527-0.986,0-1.059.176-1.48,0.987-0.493.987-.493,0.987a1.289,1.289,0,0,0-.493.987c0.072,0.532.281,0.595,0,.987a3.9,3.9,0,0,0-.987,1.481c0,0.466-1.972.987-1.972,0.987s0.288-.044-0.494,0-0.98.024-.986,0.987,0,1.481,0,1.481a0.821,0.821,0,0,1-.987.987,14.362,14.362,0,0,1-2.466,0,4.408,4.408,0,0,0-1.479,0c-0.439-.021-0.756-0.616-1.48.494s-1.39,1.075-.987,1.481a9.533,9.533,0,0,1,1.48,1.481c-0.017.2,0.443,0.365-.493,0.987s-0.049-.2-0.987.494-0.61.362-1.479,0.988-0.257.643-.987,0.987-1.988.719-1.973,0.493a2.141,2.141,0,0,1,.494-1.48,1.854,1.854,0,0,1,.493-0.494,2.132,2.132,0,0,0,0-1.481,9.976,9.976,0,0,1-.493-0.987,25.751,25.751,0,0,0-.987-2.468,8.815,8.815,0,0,0-.986-1.481c-0.172-.376.526,0.166-0.493-0.494s-0.987-.494-0.987-0.494a1.564,1.564,0,0,0-.986,0,3.739,3.739,0,0,0-.987,1.481,6.971,6.971,0,0,1-1.973.987c-0.605.05-1.717-.052-1.973,0.494a3.806,3.806,0,0,1-.986,1.481,23.224,23.224,0,0,0-1.48,1.974,3.41,3.41,0,0,1-.986,1.481,12.416,12.416,0,0,0-1.48,1.48,7.259,7.259,0,0,0-.986,1.481c-0.337.7-.579,0.073-0.493,0.987s-0.369.141,0,1.481,0.688,0.915.493,1.481a5.434,5.434,0,0,1-1.48,1.481c0,0.353.129,1.123-.493,0.987s0.063-.286-1.48-0.493a18.3,18.3,0,0,1-1.973-.494c-0.7-.067.283,0.563-1.973-0.494s-0.77-.07-2.466-0.987-0.343-1.126-2.466-1.481a7.3,7.3,0,0,1-1.973-.493c-1.915-.5-1.04.993-2.466-0.494s-1.532-1.472-1.973-2.468,0.515-.976-0.986-1.481,0.306-.412-1.48-0.493a3.723,3.723,0,0,0-2.466.493A25.5,25.5,0,0,1,246,101a12.931,12.931,0,0,0-1.972-.493c-1.942-.364-0.169-0.412-1.973-0.494s-1.645-.552-2.96-0.494-0.511.436-2.466,0a15.979,15.979,0,0,0-1.973-.494,18.491,18.491,0,0,1-2.959-.494,14.041,14.041,0,0,0-2.466-.494,9.039,9.039,0,0,0,0,2.468c0.219,0.526.493,1.48,0.493,1.48-0.207.931-.3,3.268-0.493,3.949a17.26,17.26,0,0,1-.987,1.975,8.164,8.164,0,0,0-.493,1.481c-0.264.741,0.518,0.565-.493,1.48a17.659,17.659,0,0,1-1.973,1.975c-1.312,1.009-1.234,2.638-1.48,2.961s0.79-.416-2.466.988,0,1.974,0,1.974l-1.973.494-0.986,1.974s0.4,0.773,0,.987-2.155-.628-2.466,0,0.921,1.037-.987.988a12.6,12.6,0,0,0-1.973,0s0.546,0.049-.986,0-1.737-.675-1.48,0a14.836,14.836,0,0,1,.494,1.974s1.325,0.275.493,0.987-0.987.494-.987,0.494a10.8,10.8,0,0,0,.987,1.481c0.821,1.116.635,1.121,0.986,1.48s-0.4.168,0.493,0.988a11.177,11.177,0,0,0,1.48.987,5.022,5.022,0,0,0,2.959.987c1-.12-0.576.12,0.987,0s0.889,0.844,2.466,0,1.128-1.13,1.973-.987,0.264-.143,2.466,0,1.9-.143,2.466,0,0.8-.406,1.973-0.494a26.274,26.274,0,0,1,2.959,0c2.244,0.016,3.453,0,3.453,0s-1.149-.119,1.973,0,5.425,0,5.425,0a10.564,10.564,0,0,0,2.466,0c0.294-.19.494,0.987,0.494,0.987a12.386,12.386,0,0,1,0,1.975c-0.1.777,0,3.455,0,3.455l0.986,2.962a2.81,2.81,0,0,0-.493,1.481c0.031,0.739-.961-0.363,0,1.48s0.965,2.059,1.48,2.468,1.364,0.277,1.972,1.481a4.528,4.528,0,0,0,.987,1.481,2.425,2.425,0,0,0,.986,1.481,8.228,8.228,0,0,0,1.48.987s-0.867-.207.986-0.493,1.53,0.023,2.467-.494a9.357,9.357,0,0,0,1.479-.987l1.973-.494s-0.218-.127.493,0.987,0.987,1.481.987,1.481l0.986,0.987s0.914-.884,1.48-1.48a20.225,20.225,0,0,0,1.48-1.481c0.429-.564.406-0.894,0.986-0.988a3.47,3.47,0,0,1,2.466.494c0.594,0.551.083,0.493,0.493,0.987a1.04,1.04,0,0,1,.494.988,1.579,1.579,0,0,1,0,.987,2.046,2.046,0,0,0,0,.987,1.972,1.972,0,0,0,.493.987l1.973,0.494a4.409,4.409,0,0,1,0,.987c-0.069.752,0.322,0.5-.493,0.987a2.348,2.348,0,0,0-.987,1.481l1.48,1.974,1.973,4.443,2.466,1.974s-0.19.18,0.493,0a15.852,15.852,0,0,1,2.959,0,0.993,0.993,0,0,1,.494-0.987,32.571,32.571,0,0,0,2.466-2.962,10.214,10.214,0,0,1,1.973-.987,4.616,4.616,0,0,0,1.479-.493c1.232-.542,1.108-2.1,1.48-0.494s-0.006,1.928.493,1.974-0.386.161,0.987,0,1.479,0,1.479,0a4.417,4.417,0,0,0,.493,1.975s-0.846,1.007,0,.987-1.147.227,0.987,0,1.972,0.64,2.466,0a5.165,5.165,0,0,1,.986-0.987s0.606-1.08.987-.987a3.732,3.732,0,0,1,1.48.987c0.244,0.347-.292,1.467.493,0.494a34.7,34.7,0,0,0,1.973-2.962,3.584,3.584,0,0,1,.986-0.987c0.823-.645-0.09-1.227.987-0.988a4.559,4.559,0,0,0,1.972,0,1.149,1.149,0,0,0,0,.988c0.24,0.6-.906.964,0.494,0.987s1.625-.6,2.959-0.494a4.765,4.765,0,0,1,1.973.494,5.778,5.778,0,0,0,1.973,1.481,4.315,4.315,0,0,1,1.973,1.974l0.493,2.468,1.48-.493,2.959-.494s1.316-.671,1.48,0,0.568,2.874.986,2.962,3.453,0.987,3.453.987-0.113-.342.493,0,0.541,0.956.986,0.493a8.931,8.931,0,0,0,.987-0.987c0.389-.509-0.483.189,0.986-0.987s1.077-.074,1.48-0.987a4.648,4.648,0,0,1,.493-0.987l1.48-.988-1.973-.987-0.493-.987s-1.273-1.184-1.48-.987a16.353,16.353,0,0,0-.986,1.481l-0.987-.988a18.918,18.918,0,0,1,1.48-1.974,1.97,1.97,0,0,0,.493-0.494s0.088-.9-0.493-0.987-0.051-.407-0.987-0.494a1.907,1.907,0,0,0-.986,0s-3.225,1.077-.493-0.493,2.479-.754,3.452-1.975,0.788-.329.987-0.987,0.434-.61.493-0.987,0.79-.611-0.493-0.494a3.138,3.138,0,0,1-1.48,0c-0.651-.094-1.675.168-0.986-0.493s0.366-.819.986-0.987a3.785,3.785,0,0,0,1.973-.988c1.117-.876.713,0.032,1.48-0.987s0.994-.461.986-0.987a1.729,1.729,0,0,1,.986-0.987l-0.493-1.481a0.282,0.282,0,0,1,0-.494c0.346-.249-0.491-0.244.987-0.493s1.831-.455,2.466-0.494,2.46-.245,2.959.494a2.647,2.647,0,0,0,.987.987c0.641,0.529.274,0.034,0.493,0.493s-0.288.455-.493,1.481a4.748,4.748,0,0,1-.494,1.481s-0.715-.254.987,0.494,2.315,0.1,1.973.987-1.973.987-1.973,0.987l4.439-2.468s1.179-.04,1.479,0,4.131,0.663,4.44.987-0.169,1.014.493,0.988-0.593.309,0.493,0a9.878,9.878,0,0,0,1.973-.988,23.953,23.953,0,0,1,2.959-.493c1.59-.242,1.651.241,1.973,0s0.943,0.241,1.48,0a1.193,1.193,0,0,0,.986-0.987c0.045-.6-0.75-1.587,0-1.975s-2.379.036,1.48-.494,3.946-.493,3.946-0.493h0.493l1.973-1.481s3.1,0.532,3.452.494a10.09,10.09,0,0,1,1.48,0c0.067,0.032-.773-1.728,0,0s0.986,1.935,1.48,2.961a4.043,4.043,0,0,1,.493,1.481s0.7-.113.493,0.494a2.03,2.03,0,0,0,0,.987c-0.069.114-1.132,0.589,0.493,0.987a4.567,4.567,0,0,1,2.466,1.481,11.62,11.62,0,0,0,1.973.987s-0.08-.262,0,0.494a7.724,7.724,0,0,1,0,1.481,9.876,9.876,0,0,0,1.973-.988,12.793,12.793,0,0,1,0-1.48l2.466-1.481,1.973,1.481a9.7,9.7,0,0,1,1.973.987,13.172,13.172,0,0,1,1.48.987l0.986,0.987,1.973-.987a0.715,0.715,0,0,1,0-.987c0.457-.515.6-1.385,1.48-1.975s-0.886.1,0.986-.987a13.446,13.446,0,0,1,1.973-.987c0.676-.381,1.221-0.322,2.466-0.987s0.3,0.031,1.48-.494,1.637-.531,2.466-0.987,0.578,0.034,1.48-.494a16.6,16.6,0,0,1,1.973-.987,12.68,12.68,0,0,0,1.973-.987c0.979-.6.986-0.494,0.986-0.494s1.554-1.157,1.48-1.974-0.561.114,0-.987,0.986-1.975.986-1.975a6.006,6.006,0,1,1,.987,0c2.187,0.1,3.937-.1,4.439,0a3.373,3.373,0,0,0,1.479,0,1.523,1.523,0,0,0-.986-1.481c-0.7-.048-0.5.543-0.987,0s-0.073-.655-0.986-0.987-2.26.122-.987-0.493a8.995,8.995,0,0,1,1.48-.494,3.51,3.51,0,0,1,1.48-.494,1.621,1.621,0,0,0,.986-0.493c-0.06-.124.416-0.509-0.493-0.987s-0.782-.085-0.986-0.494,0.7-.508-0.494-0.494a8.83,8.83,0,0,0-1.479,0c-0.42.085-1.412,0.624-.987-0.493s-0.99-1.419,0-1.975,1.473-.285,1.973-1.974,0.134-.706.493-1.975,0.627-1.269.494-1.48-0.077-.28-0.494-0.988,0-.489-0.493-0.987a6.442,6.442,0,0,0-.986-0.987c-0.7-.57-0.989-0.486-0.987-0.987s-0.637-.2,0-0.494a11.926,11.926,0,0,1,2.466-.987c1-.221.13-0.484,1.48-0.494s1.115-.059,1.48-0.493,0.057-.832.493-1.481,1.48-1.975,1.48-1.975h1.973a1.689,1.689,0,0,1-.494-0.987c-0.052-.583-0.512-0.473,0-0.987a9.82,9.82,0,0,1,1.48-1.481,6,6,0,0,0,1.48-.987,2.651,2.651,0,0,1,.986-0.987,3.435,3.435,0,0,0,.987-0.494c0.167-.238.181,0.311,0.986-0.493a3.734,3.734,0,0,0,.986-1.481h1.48s0.952-.11.987-0.494S435.889,107.911,435.889,107.911Z"/>
        <path id="形状_21" data-name="形状 21" class="cls-2" d="M228.241,97.545l-2.959-.494a3.87,3.87,0,0,0-2.466-.987c-1.657-.12-2.11-0.321-3.453-0.493a32.624,32.624,0,0,1-3.945-.987,1.886,1.886,0,0,0-1.973-.987c-1.29.3-2.479-.405-3.453,0.494s-0.789-.258-1.973,1.481a11.507,11.507,0,0,0-1.479,2.468c-0.66,1.319.7-.205-1.48,2.468s-2.959,3.455-2.959,3.455,0.354,0.058-1.48,1.481-1.157.751-1.973,1.974-3.392,3.566-3.946,4.443-1.619,1.466-1.973,2.468,0.428,1.508-.986,2.961-2.96,2.962-2.96,2.962l-0.493,1.974c0.955,0,.407.784,1.973,0.494s1.215-1,2.96-.987,2.264-.592,2.959-0.494-0.936-.371.493,0a4.082,4.082,0,0,1,1.48.494s1.278,0.868,0,.987-0.863.458-1.48,0.494-0.16,0-1.48.493-0.411.081-1.479,0.494-0.014-.791-1.973.493-2.96,1.975-2.96,1.975l-4.932,3.949s-0.979,1.52-1.479,2.468a45.51,45.51,0,0,1-3.946,4.442,6.54,6.54,0,0,0-.987,1.481,7.71,7.71,0,0,0-.986,2.468c-0.311,1.02-5.426,11.847-5.426,11.847s0.143,0.167-.986,1.974-2.471,4.411-2.959,5.43a31.174,31.174,0,0,0-1.973,3.455c-0.426,1.249.121,2.353-.493,2.962s-1.973,6.416-1.973,6.416-1.18,3.468-1.48,3.949-0.782-.523-1.973,1.481a9.089,9.089,0,0,0-.986,1.975c-0.342.575-.4,0.474-0.987,1.48s-0.435-.028-0.986,2.468-0.026,1.789-.494,2.962-0.141,1.747-.986,2.962a37.121,37.121,0,0,0-1.973,3.455s-2.272,7.66-2.959,7.9a3.454,3.454,0,0,0-1.973,1.974c-0.488,1.13.152-.289-0.987,2.468a18.2,18.2,0,0,1-1.972,3.949c-0.393.583,2.481,0.331-1.48,1.481s-0.909,4.795-1.48,5.429a13.775,13.775,0,0,1-1.973,2.468,13.037,13.037,0,0,0-1.479,1.481c-0.393.372-.794,1.7-1.48,2.468s-3.946,5.924-3.946,5.924l-8.385,9.378-3.452,8.885-2.466,10.366-2.466,3.455-0.494,2.962,2.96,3.455,1.973,0.494,2.959,1.48c0.682-.409,3.453-2.468,3.453-2.468s0.5,0.841,1.972,0a35.468,35.468,0,0,0,3.946-2.961,39.192,39.192,0,0,0,3.453-3.949c0.352-.756,2.7-3.32,2.959-3.949s1.973-3.455,1.973-3.455a30.312,30.312,0,0,1-.493-3.949c0.006-1.28,0-4.936,0-4.936s-1.1-2.072,0-2.962a22.953,22.953,0,0,0,2.959-3.455c0.321-.438,2.466-3.455,2.466-3.455s-0.352-.55,1.48-1.975,2.482-2.587,3.452-2.961a17.789,17.789,0,0,0,2.96-1.975l2.466-1.974v-1.975l-0.987-2.468a7.673,7.673,0,0,1-.986-0.987c-0.288-.4.263,1.083-0.986-1.481s-0.948-2.736-1.48-3.455-0.594-.123-0.987-1.481-0.085-1.235-.493-1.974-1,1.392-.493-0.987,0.308-1.37.493-2.468a53.73,53.73,0,0,1,2.466-5.924,27.777,27.777,0,0,0,1.973-3.949c0.32-1.144,2.017-2.405,1.973-2.961s2-3.293,1.973-3.949a9.992,9.992,0,0,1,.493-3.949,24.692,24.692,0,0,0,.987-2.468c0.612-1.614.174,0.492,0.986-2.468s-0.7-.221.987-3.455,1.664-3.083,1.973-3.456,0.617,0.687,1.479-.987,0.6,0.129.987-2.468a10.845,10.845,0,0,1,.986-3.949,15.426,15.426,0,0,1,.987-2.468,35,35,0,0,1,2.466-3.949s-0.126-2.248.493-2.961a14.346,14.346,0,0,0,1.973-3.949,24.116,24.116,0,0,1,.493-2.962,16.77,16.77,0,0,0,1.48-2.468c0.4-1.167,2.16-4.127,2.466-4.936s1.468-2.317,1.479-2.961-0.6.873,0-.988a7.255,7.255,0,0,1,.987-2.468,5.51,5.51,0,0,1,.986-1.48c1-1.3.825-1.46,1.973-1.975s0.88,0.121,1.48-.493a18.565,18.565,0,0,1,2.466-1.481,19.558,19.558,0,0,1,4.439-1.481l0.493,0.987a2.884,2.884,0,0,0,2.466,0,25.485,25.485,0,0,0,2.96-2.962,5.8,5.8,0,0,0,1.479-.987c0.1-.286,1.162-0.586,1.48-0.987s2.243-.332,2.466-0.494,2.307,0.162,2.96,0,2.217,0.077,2.959,0a3.742,3.742,0,0,0,.986,0c0.6-.161,1.455-1.668.987-1.974s-1.475-.312-1.48-0.987-1.943-.452,0-0.987,1.21-.452,2.466-0.494a21.14,21.14,0,0,1,2.466,0c0.145,0.043.274,0.072,1.48-.494a4.454,4.454,0,0,0,1.48-.987c0.828-.6,1.145.032,0.986-0.493s0.3-.656.493-1.481a5.362,5.362,0,0,1,.494-0.988c0.21-.685-0.634-0.78,0-0.987a4.051,4.051,0,0,0,1.479-.493c1.1-.561,1.01,0,1.48-0.494a8,8,0,0,0,1.48-1.481c0.091-.366-0.6-0.391,0-1.481a6.81,6.81,0,0,1,1.972-1.974l1.48-.987a9.984,9.984,0,0,1,.493-1.975c0.3-.646.746-0.535,0.987-1.48s0.661,1.344.493-.988,0.168-.909,0-2.468,0.506-1.427,0-2.468a3.34,3.34,0,0,1-.493-1.481A7.237,7.237,0,0,0,228.241,97.545Z"/>
        <path id="形状_22" data-name="形状 22" class="cls-2" d="M156.724,223.908l1.973,1.481a26.126,26.126,0,0,1,2.959,1.481,11.831,11.831,0,0,1,1.48,1.481c1.331,1.444,1.239,1.009,2.959,2.468a8.15,8.15,0,0,0,1.973,1.481,11.082,11.082,0,0,1,1.973,1.48,3.546,3.546,0,0,0,1.48.988s-0.641,1.368.493,0.493,0.828-.851,1.973-0.987a5.265,5.265,0,0,1,1.973,0c1.28,0.113,1.182-.113,1.479,0a3.177,3.177,0,0,0,1.973,0,6.646,6.646,0,0,0,2.466-1.481h2.466a1.9,1.9,0,0,1,.987-0.987c0.962-.646,1.973-1.481,1.973-1.481a10.753,10.753,0,0,0,1.479-1.481c0.487-.662-0.5-0.071.987-0.987a6.864,6.864,0,0,1,1.973-.987l0.493,0.987,0.987-1.481s-0.281-.187,1.479-0.493,1.312-.557,2.466-0.494a7.643,7.643,0,0,0,1.48,0h1.48s0.175,0.309,1.479,0,0.415,0.439,1.48-.493,0.288-.546.986-0.988,3.453-.493,3.453-0.493l1.48-.494a3.545,3.545,0,0,0,1.973-.493c0.862-.574.349-0.781,2.466-0.988s3.43,0.591,2.959-.987-0.64-.882-0.493-1.974-0.4-1.125.493-1.481,2.959-1.481,2.959-1.481a2.359,2.359,0,0,0,.987-0.987,6.125,6.125,0,0,0,.493-0.987l0.493-.494v-1.481l1.48,0.494,0.986-.494,0.987-1.481s-0.328,1.151.493-.987,0.986-2.468.986-2.468a2.843,2.843,0,0,1,1.48.987c0.959,0.957.242,1.493,3.453,2.962s2.076-.375,3.946,1.974,2.466,2.962,2.466,2.962-1.9,1.092.986,1.481,3.026,0.6,3.946.493a8.786,8.786,0,0,1,3.946.988,13.566,13.566,0,0,0,3.945,2.468,16.541,16.541,0,0,0,3.946.987,23.022,23.022,0,0,0,3.453.494l5.919,5.923s2.644,0.974,4.932,1.974,3-.278,3.946,1.975,0.649,1.933,1.479,2.961a8.231,8.231,0,0,0,1.48,1.481,17.209,17.209,0,0,1,3.946,0c0.985,0.292,1.347,1.057,1.973,1.481s2.617,4.383,3.452,4.442a2.388,2.388,0,0,1,2.466,1.975c0.329,1.657.028,1.6,0.493,2.468s1.514,1.964,1.48,2.468a13.516,13.516,0,0,0,1.48,3.455,5.682,5.682,0,0,0,2.466,2.962c2.25,1.583,1.7,1.6,2.466,1.974a5.727,5.727,0,0,1,1.973.987c0.961,0.793-.249,1.182.986,0.988s1.61,0.411,3.453.493,0.639,0.484,2.466.494,2.208,0.7,3.453.493,1.155,0.2,1.479,0,0.465,0.262,1.48-.987,1.168-.669.986-1.974,1.022-.536,0-1.481-0.607.092-1.479-.987,0.229,0.149-.987-1.481-1.253-1.689-1.479-1.974a2.748,2.748,0,0,0-.494-0.988,7.9,7.9,0,0,1-.986-1.481c-0.146-.409-0.07-0.3-0.493-0.493s-2.339.2-2.466,0-0.586-.517-0.987-0.987-0.516.323-.493-0.494,0.187,0.657,0-1.481,0.537-1.186,0-2.468-0.1-1.12-.493-1.481a10.947,10.947,0,0,1-.987-1.48,3.078,3.078,0,0,1-.493-0.494,1.9,1.9,0,0,0-.493-1.481,22.2,22.2,0,0,1-1.48-1.974,5.226,5.226,0,0,0,0-1.481c-0.232-.386.162-1.175,0-1.481s0.932,0.083,0-.987-2.6-2.822-2.466-2.962-0.2-.357.493-0.493a14.171,14.171,0,0,1,2.466,0l0.494-.988a1.126,1.126,0,0,0,.493-0.987c-0.172-.474-0.192-0.38-0.987-0.987s-0.618.04-.986-0.494-0.764-2.23-.987-2.468a9.14,9.14,0,0,1,0-2.468,6.137,6.137,0,0,0,.494-1.974,7.839,7.839,0,0,1,0-1.481s0.149-.164-0.494-0.987a10.718,10.718,0,0,0-.986-1.481c-0.846-.953-0.994-0.4-1.48-1.481s-0.226-.343-0.986-1.974-0.793-.49-0.987-1.481,0.467,0.341-.493-1.481a21.531,21.531,0,0,0-.986-1.974,17.043,17.043,0,0,0-.987-1.481c-0.807-1.1-.605-0.386-0.986-0.987s-1.4-1.533-1.973-2.468a7.555,7.555,0,0,0-.986-1.481c-0.922-1.206-.352-1.335-0.987-1.481s-2.687-.925-2.466-1.481a2.317,2.317,0,0,0,.493-1.974,10.086,10.086,0,0,0-.493-2.468,12.614,12.614,0,0,0-1.48-2.468c-0.609-.581-0.879-1.9-1.479-2.468s-2.467-.494-2.467-0.494a14.122,14.122,0,0,1-1.479.494,4.9,4.9,0,0,0-1.48.987h-1.479a4.032,4.032,0,0,0-.494-0.987c-0.341-.5-2.959-3.456-2.959-3.456s-1.16-.738-0.987-1.48a3.279,3.279,0,0,1,.494-1.481,5.374,5.374,0,0,1,.986-1.481c0.515-.653.415-0.061,1.48-0.987s0.7-.418.986-0.988a3.579,3.579,0,0,0,.494-1.974c0.145-1.467.134-.864,0-1.481s-0.088-.173-0.987-1.481-0.934-.743-0.986-1.48a4.085,4.085,0,0,1,0-1.975c0.228-1.7.128-1.683,0.493-1.974s-0.836.355,1.48-.494,1.987-.845,2.466-0.987a18.044,18.044,0,0,0,1.972-.987s0.724-.579,0-0.987a2.881,2.881,0,0,1-1.479-.988c-0.784-.893-0.425,1.154-1.48-1.481s-1.345-2.027-1.479-2.961-0.362-.417-0.494-1.481a2.1,2.1,0,0,1,.494-1.974c0.355-.281,1.2-0.79.986-1.481a1.279,1.279,0,0,0-1.48-.987c-0.551.226-.651,0.964-0.986,0a5.09,5.09,0,0,1-.493-1.975c0.088-.321.332,0.1,0-0.493s-0.241.095-.987-0.988a1.982,1.982,0,0,0-1.48-.987c-0.386-.235-0.116.235-0.986,0s-0.986,0-.986,0-0.48-.6-0.987.494a4.246,4.246,0,0,1-1.479,1.974,3.8,3.8,0,0,1-.987.494,17.5,17.5,0,0,1-1.48-2.468,0.99,0.99,0,1,1-.493,0,4.329,4.329,0,0,0-.986,0,4.95,4.95,0,0,0-1.973.493,4.565,4.565,0,0,0-.987.494,8.936,8.936,0,0,1-.986.494c-0.166.032-1.48,0-1.48,0l0.493,0.987s-0.269.4-1.479-.494-1.421-.573-1.973-1.481a8.638,8.638,0,0,0-1.48-1.974,9.649,9.649,0,0,1-1.973-2.468c-1.351-2.035-1.257-1.3-1.479-1.975a3.022,3.022,0,0,1,0-1.974c0.216-.894.463-0.182,0.493-1.481s0.277-.961,0-1.481a10.436,10.436,0,0,0-.493-0.987c-0.31-.5-0.9.432-0.494-0.493s0.322,0.112.494-1.481-0.172-1.786,0-1.975,0.463-2.378-.494-2.468-1.653-1.051-3.452-.987-6.665.989-7.892,0.987-3.684-.042-4.932,0a10.449,10.449,0,0,1-1.48,0s-3.389,1.231-3.945.987-2.1.4-2.467,0.494,0.216,0.628-.493.494-2.317-.283-2.959-0.494-1.222.167-1.48,0,0.85,0.825-.493,0,0-.272-1.48-0.987-1.584-.6-1.973-0.987a5.255,5.255,0,0,1-.493-0.494,1.3,1.3,0,0,1-.493-0.494c-0.322-.538-1.037-1.019-0.986-1.48a0.945,0.945,0,0,0,0-.494c-0.038-.407,1.417-1.261-0.494-0.987s-2.144.713-2.466,0.493a15.423,15.423,0,0,0-4.932-.493c-0.736.273-2-.032-2.466,0.493s-0.635,1.033-.987,1.481-0.679-1.237-1.479.987a6.269,6.269,0,0,1-3.946,3.456,1.148,1.148,0,0,1-.986,0c-0.909-.266-1.021-0.371-0.987-0.494s1.194-.382,0-0.494-1.262-.414-1.973,0-0.583-.26-1.48.494a8.658,8.658,0,0,1-2.466,1.481c-0.1-.069.622-0.041-0.986,0.494s-1.417-.688-1.973.493a3.888,3.888,0,0,1-.986,1.481,11.081,11.081,0,0,0-.987,1.974s-1.615.806-1.48,1.481a8.048,8.048,0,0,1,0,1.481c0.049,1.036.522,1.355,0,1.481s-0.486.577-.986,0.987,0.083,0.862-.493.987-3.946,8.885-3.946,8.885a7.069,7.069,0,0,0-.493,1.481c-0.038.462,0.651-.417,0,0.987s-0.072.943-.493,1.481,0.267,0.077-.494.987-0.861.187-.986,0.987,0.256,0.627,0,1.481a1.773,1.773,0,0,1-.493.987,21.4,21.4,0,0,0-1.48,2.469c-0.431.951-.994,1.527-1.48,2.468a11.8,11.8,0,0,0-.493,1.48,7.07,7.07,0,0,0-.986,2.468,4.111,4.111,0,0,1,0,1.481c-0.146.379-.973,1.618-0.494,1.481s-1.479,2.468-1.479,2.468-1.127.3-.987,0.494-0.886,1.7-.986,1.974-0.645,5.318-.987,5.43-0.272-.7-0.986.493-0.865,1.15-.986,1.481-0.12-.988-0.494.987-0.569,1.492-.493,1.975,0.1-.307,0,0.987a4.07,4.07,0,0,0,0,1.481c0.032,0.252.757-.756,0,0.494s-0.6,1.821-.986,1.974-0.581.967-.987,1.481-0.866.758-.986,0.987a6.466,6.466,0,0,0-.494,1.481c-0.065.458,0.548,0.068,0,.987s-0.131.661-.493,0.987,1.391-.676-0.493.987a9.465,9.465,0,0,0-2.466,3.949,23.754,23.754,0,0,0-.987,2.468c-0.128.427-.244-0.689-0.493,0.988s-0.606,1.175-.493,1.974-0.771.321,0,1.481,0.632-.107.986,0.987a6.417,6.417,0,0,0,.987,1.974,18.66,18.66,0,0,1,1.48,2.962c0.342,0.939,1.479,4.443,1.479,4.443h0.987l0.493,0.987v0.493Z"/>
        <path id="形状_23" data-name="形状 23" class="cls-2" d="M171.027,235.261l-0.986,2.962-0.986.987-0.987.494,1.48,0.987s1.289-.533.493,0.987-0.655,1.386-.986,1.975-0.392-.235-0.987,1.48,0.13,0.517-.493,1.481,0.47-1.235-.493,1.481-0.385,2.373-.987,2.962,0.192-.6-0.986.987-1.468,1.636-1.48,1.974a3.726,3.726,0,0,0-.493,1.481,13.479,13.479,0,0,0,0,1.481,1.912,1.912,0,0,1-.493,1.974,8.344,8.344,0,0,0-.987.988c-0.539.463,0.5-.944-1.479,1.48s-2.467,2.962-2.467,2.962-0.447.28,1.48-.494,3.464-1.193,3.946-1.974-0.433-.046.493-0.987,0.887-1.451,1.48-.987a1.975,1.975,0,0,1,.986,1.48c-0.081.443-2.524,1.219,0,.988s2.96,0,2.96,0l1.972-.494a1.645,1.645,0,0,1,.987.494,4.815,4.815,0,0,0,2.466.987c0.183-.176,1.269-0.554.986,0s-3.045.8-.986,0.987,0.164-.088,2.466,0a11.792,11.792,0,0,0,2.466,0,9.23,9.23,0,0,0,.493,1.481c0.281,0.589-.44.864,0.494,0.987s1.915,0.864,2.466.494a10.836,10.836,0,0,0,1.479-1.481,1.357,1.357,0,0,1,1.973,0c0.954,1.006,1.068,1.539,1.48,1.481s2.38-.825,2.959-0.494,0.352,1.483.987,1.481a28.075,28.075,0,0,1,2.959,0c0.7,0.1,2.466.494,2.466,0.494a2.439,2.439,0,0,0,0,1.974c0.524,0.658-.065,1.469,1.48,1.481a17.559,17.559,0,0,1,3.453.493s-0.031.169,1.479,0,0.512,1.108,1.48,0-0.822-1.019,1.48-1.48,0.754-.422,2.466-0.494,2.442,1.844,1.973,0-1.351-1.527-.494-2.468,0.019-2.167,1.48-2.962,0.5-.762,1.973-0.987,2.325-.039,1.48.494a2.959,2.959,0,0,0-.987.987c-0.588.589-.968,0.391-0.986,1.481s0.018,0.676,0,.987-1.587.412-1.48,0.987a20.141,20.141,0,0,0,.986,2.468s-0.9.016,0.987,0a2.794,2.794,0,0,0,2.466-.987s1.352,0.482,1.48.987a7.089,7.089,0,0,1,0,1.481c0.023,0.38-.843.294-1.973,0.494s-1.517-.255-1.48.493a2.769,2.769,0,0,1-1.48,1.975,9.688,9.688,0,0,1-1.972,0l3.452,1.974,0.493,0.987s0.137,1.316.987,0.494,1.479-1.481,1.479-1.481l1.48,3.455,1.973,1.975,2.959-.494a9.048,9.048,0,0,1,2.466-1.974,12.87,12.87,0,0,0,2.96-2.468s-0.253-.832.986-1.481-2.343-.8,1.48-0.987,2.818,0.183,3.946,0a8.094,8.094,0,0,0,2.466-.988c0.746-.342,1.973-3.455,1.973-3.455s-1.017-.6.493-0.987a21.6,21.6,0,0,1,3.453-.494l1.479-1.48s-1.794-.429.987-1.975a14.521,14.521,0,0,0,3.945-2.962l0.494-.987,2.959-.987s-0.648-.568.493-0.987,1.033-2.807,1.973-.987a15.333,15.333,0,0,0,1.48,2.468s-1.816,1.114,1.479.493,3.453-.493,3.453-0.493-4.49-.04,1.48,1.48,6.069,1.073,6.9,1.975,2.422,0.753,3.452,1.974,0.987,1.481.987,1.481c3.855-.1,3.471.621,3.946,0.494s1.956-.909,2.466-0.987,2.283,0.287,2.959,0,1.48,0.987,1.48.987,1.109,0.329.986,0.987,1.269,0.426,0,1.481-1.69.085-1.479,0.987-2.351.962,0.493,1.974,3.075,0.545,2.959.988,0.581,0.273.493,1.974-0.072,1.149.494,2.468a3.65,3.65,0,0,1,.493,1.481,2.637,2.637,0,0,0,.986,0c0.961-.058,4.932,0,4.932,0s3.062-1.34,3.453-1.481,2.959-.987,2.959-0.987a21.337,21.337,0,0,0,2.466,0,1.117,1.117,0,0,1,.987.494,20.456,20.456,0,0,0,2.959-.494,26.348,26.348,0,0,1,3.453-.494l1.973-1.481,0.493-1.974h-1.48l-0.493-1.481s-1.214.193,0-.493,2.026-1.157,1.973-1.481a1.593,1.593,0,0,0-.493-0.987c-0.266-.161-0.282-0.134-1.48,0s-0.986,0-.986,0a5.293,5.293,0,0,1-.987-0.988c-0.636-.763-0.689.1-0.986-1.48s-0.807-1.076-.493-1.975-0.975-1.461.493-1.974a9.85,9.85,0,0,0,1.479-.494c0.341-.2-0.6.564,0.987-0.494s0.9-.623,1.48-0.987,0.039,0.5.986-.493a6.26,6.26,0,0,0,.986-0.988c0.314-.472.262,0.546,0.494-0.493s-0.232-.465,0-0.987,0.532-.334,0-0.988-0.029-.555-0.987-0.987a4.752,4.752,0,0,0-1.479-.493c-0.3-.056-0.567-0.18-0.494,0s0.809,0.4,0,.493-0.4-.1-0.986,0-0.974.183-.987,0.494a2.706,2.706,0,0,0-.493.987c-0.4,1.266-1.2,2.035-1.479,1.974s0.713,0.12-.987,0-2.336-.573-2.959-0.493,0.708,0.45-.987,0-1.191-.478-1.973-0.494a5.436,5.436,0,0,1-1.479,0c-1.478-.133-0.188.133-1.48,0s-0.491.957-1.48,0a7.736,7.736,0,0,1-.986-0.987c-0.826-.912-4.183-1.9-3.946-2.468s-0.034.368-.986-1.481-0.2-.981-0.987-1.974-0.405.268-1.479-1.481-0.251-1.2-.987-1.975-1.106.7-1.48-1.48-0.436-.946-0.493-1.975,0.822-.565,0-1.974a6.9,6.9,0,0,0-.986-1.481c-0.247-.34-0.478.236-1.48-0.494a4.312,4.312,0,0,1-.986-0.987c-0.369-.272.323,0.653-0.494-0.987s-0.744-.851-0.986-1.481a4.433,4.433,0,0,0-1.48-1.481c-0.35-.267,1.658.281-0.493-0.493a7.567,7.567,0,0,0-3.453-.494c-1.051-.1-2.056-0.1-2.466-0.987s-0.152-1.522-.986-2.468-0.08-.426-0.986-1.481-0.6-.8-0.987-0.987-1.894.3-2.466,0-2.466-.987-2.466-0.987-1.474-1.278-2.466-1.975a18.587,18.587,0,0,1-2.466-1.974c-1.409-1.254-.492-0.766-1.48-1.481s-0.56-.952-1.48-1.481a4.988,4.988,0,0,0-.986-0.493,1.457,1.457,0,1,0-.493,0c-1.323.023-.7-0.024-1.48,0a5.592,5.592,0,0,1-.987,0c-0.856-.036.956,0.519-1.479-0.494s-1.909-.667-2.466-0.987a14.463,14.463,0,0,1-1.48-.494c-0.666-.416.268-0.336-0.493-0.494s0.213,0.7-1.48-.493-1.194-1.414-1.973-1.481-2.329.3-2.466,0-2.768-.907-3.452-0.987a14.607,14.607,0,0,1-1.973-.494l-0.987-.493s1.639-.409.987-0.988-1.869-2.578-2.466-2.961-0.552-.885-0.987-0.987a6.765,6.765,0,0,0-1.48,0s-0.547-.238-0.986-0.494,0.819,0.388-.986-0.494-1.729-.916-1.973-0.987a5.9,5.9,0,0,1-1.48-1.481c-0.059-.238.426-0.337-0.493-0.493s-1.394-.9-1.48,0-0.724.7-.493,1.481,0.932,0.2.493,0.987,0.1,0.36-.493.987-0.145.7-.987,0.987a2.156,2.156,0,0,1-1.479,0s-1.362-.463-1.48,0a4.161,4.161,0,0,0,0,1.481c0.059,0.513-.679,1.095-0.986,1.481a4.079,4.079,0,0,1-.987,1.481c-0.615.377-.122,0.832-0.986,0.987s0.185,0.3-.987.493-0.742.208-.986,0.494a1.189,1.189,0,0,0,0,1.481c0.4,0.807,1.276,1.213.986,1.481a3.918,3.918,0,0,1-1.973.493c-0.257-.107-1.792.624-2.466,0.494s-0.7-.988-1.479,0-0.191.81-.987,0.987-0.34-.589-1.48,0-0.421-.014-0.986.494-2.959.493-2.959,0.493,0.09-1.132-.494,0a2.253,2.253,0,0,1-2.466,1.481c-1.293-.054-0.742.348-2.959,0S195.2,224.9,195.2,224.9a5.645,5.645,0,0,1-.986.987c-0.483.335,0.393,0.448-.986,1.481a1.188,1.188,0,0,1-1.973-.494s0.641-1.219,0-.494a2.887,2.887,0,0,1-.987.988c-1.184.974-3.946,3.948-3.946,3.948a6.048,6.048,0,0,1-1.479.988,7.369,7.369,0,0,1-1.973.493c-0.433.019,1.107-.489-0.987,0s-2.367.263-2.466,0.494,0.641,0.8-.493.987a12.3,12.3,0,0,1-2.959,0c-0.764-.05.025,0.05-0.987,0s-1.973,0-1.973,0,0.053,0.213-.493.494A7.993,7.993,0,0,1,171.027,235.261Z"/>
        <path id="形状_24" data-name="形状 24" class="cls-2" d="M91.618,325.591a36.87,36.87,0,0,1,3.453-1.481c0.413-.038,4.344-1.953,5.425-2.468s4.439-1.48,4.439-1.48l0.494-1.975,1.479-1.481a24.282,24.282,0,0,0,3.946-1.974,15.725,15.725,0,0,1,2.466-1.974,11.326,11.326,0,0,1,2.466-1.481c2.288-1.294,1.384-.827,2.466-1.481s1.055-1.192,2.96-1.975,2.186-.665,2.466-0.987,1.973-1.974,1.973-1.974a1.669,1.669,0,0,0,.986-0.987c0.368-.83-0.221-0.029.494-1.481s-0.949-.92.986-1.975,2.7-2.24,3.946-2.961-1.334,1.691,1.479-.987,2.055-1.522,2.96-2.469,0.665-.2,2.466-2.468,1.094-1.241,1.973-2.961,0.464,0.02.986-1.481-1.03-.7,1.48-2.468,2.466-1.974,2.466-1.974a10.711,10.711,0,0,0,1.973-1.481c-0.066-.189.083-0.761,1.48-3.456s0.252-1.487,1.972-3.455a10.511,10.511,0,0,0,1.48-1.974c0.6-.712.135,0.354,1.48-1.975s1.255-1.746,1.479-2.468-0.457-.013.494-1.48a8.683,8.683,0,0,0,.986-1.481c0.108-.346-0.073-0.552.987-0.988s1.666-.264,1.973-0.493a9.481,9.481,0,0,0,1.479-.494,2.644,2.644,0,0,1,1.48-.493,1.8,1.8,0,0,1,.493-1.481,3.4,3.4,0,0,0,.987-0.987h0.493l0.986,0.493a0.794,0.794,0,0,1,0,.987,4.67,4.67,0,0,0-.493.988,2.508,2.508,0,0,1,.986,0,11.293,11.293,0,0,0,1.973,0s1.761,0.032,1.973,0a1.19,1.19,0,0,1,.987-0.494c0.8,0.031,2.261-.264,2.466.494s0.638,0.857.493,0.987a0.974,0.974,0,0,0,0,.987A3.058,3.058,0,0,1,175,265a12.546,12.546,0,0,1,2.933-.616C179,264.388,179,265,179,265l0.905,0.865a2.479,2.479,0,0,0,.494.987,1.531,1.531,0,0,0,.493.494,1.192,1.192,0,0,0,1.48.493,1.627,1.627,0,0,0,.986-0.493,2.328,2.328,0,0,0,1.48-.494c0.262-.453-0.64-0.534.493-0.493s0.481-.328.986,0-0.4.784,0.987,0.987a10.032,10.032,0,0,0,2.959,0c0.794-.085.534-0.993,0.987,0a4.838,4.838,0,0,0,.493.987s-0.661-.005,1.48,0,2.959,0,2.959,0v1.481a6.94,6.94,0,0,0,1.48,1.481c0.614,0.332,1.322,1.623,1.972,1.48a7.69,7.69,0,0,1,1.973,0c1.692,0,.909,0,1.48,0s0.719,1.149,1.973,0,1.48-.987,1.48-0.987-0.906-.323,1.479-0.493,2.466,0,2.466,0,0.422,0.475.494-.494a2.138,2.138,0,0,0,0-.987,1.746,1.746,0,0,1-.494-0.987c-0.009-.5.009,0.09,0-0.494s0.135,0.046.494-.987a11.834,11.834,0,0,0,.493-1.975s-0.836.154,0.986-.493,1.973-.494,1.973-0.494,0.976-.492.987,0,0.85,0.548,0,.987-1.033.028-1.48,0.988-0.539.152-.493,0.987a1.707,1.707,0,0,1-.494,1.481,3.07,3.07,0,0,0-.493.987s-0.027,1.363,0,1.481a2.807,2.807,0,0,1,0,.493,3.086,3.086,0,0,0,1.48,0,5.031,5.031,0,0,1,1.48-.493,1.484,1.484,0,0,1,.986,0l1.973,0.493s0.221,0.143,0,.494a1.607,1.607,0,0,0-.493.493,1.229,1.229,0,0,1-.987.988,10.976,10.976,0,0,0-1.973.493c-0.285.244-.252-0.621-0.986,0.494s-0.664,1.9-.987,1.974a4.961,4.961,0,0,0-.986.494l1.973,0.493a9.345,9.345,0,0,0,.493.988,9.265,9.265,0,0,1,.493.987s-0.253,1.451.987,0a5.33,5.33,0,0,1,1.479-1.481,2.282,2.282,0,0,1,.494,1.481c-0.015.918-.165,1.719,0.986,2.468a8.686,8.686,0,0,1,1.48.987,1,1,0,0,0,.986.494c0.767,0.058,3.946-1.975,3.946-1.975a31.294,31.294,0,0,0,2.959-1.974c0.321-.374,1.48-1.481,1.48-1.481s-0.42-.28,0-0.987-0.044-.549,1.48-0.987a13.266,13.266,0,0,1,2.959-.494,27.627,27.627,0,0,0,3.453,0c0.207-.16,1.973-0.987,1.973-0.987a4.177,4.177,0,0,1,0-1.481c0.172-.277-0.694.457,0.493-0.987s1.479-1.481,1.479-1.481-0.245.323,0.987,0a3.953,3.953,0,0,0,1.48-.494,1.257,1.257,0,0,0,.986-0.987c0.2-.781-0.417-0.691,0-0.987s-0.453-.17.986-0.987,1.161-.87,1.48-0.987,1.062-1.193,1.48-1.481a12.026,12.026,0,0,0,.986-0.988c0.724-.665-0.616-0.662.987-0.987s1.479-.493,1.479-0.493a1.745,1.745,0,0,0,.987-0.494c0.357-.415,1.31-0.267,1.479-0.987a1.567,1.567,0,0,1,.987-0.987s1.964-.788,1.973.493a13.463,13.463,0,0,0,.493,2.962s0.124,0.459,1.973,0,1.973-.494,1.973-0.494-0.182-1.308.493-.493,0.365,1.625.987,1.974a3.183,3.183,0,0,0,2.466.494,4.2,4.2,0,0,1,1.479,0,3.231,3.231,0,0,1,1.973.493,4.7,4.7,0,0,1,.987.494c0.39,0.232,2.442.377,2.959,0.987s1.15,1.131,1.48,1.481,0.764,1.606,1.479,1.481,1.561-.718,2.466-0.494,0.691,0.691,1.48.494,2.888-.234,1.48,0,3.452-1.481,3.452-1.481a7.442,7.442,0,0,1,1.48,1.481c0.406,0.664.15,0.52,0.493,0.987a3.535,3.535,0,0,1,.493.987s1.3-.36,0,0.494-1.158.546-1.479,0.987-0.953.1-.493,0.987-0.478.869,0.493,0.987,0.894-.208,1.973.494,0.986,0.494.986,0.494,0.176-.173.493,0.987,0.6,0.24.494,0.987-0.542.275,0,1.481,0.986,2.468.986,2.468c-1.22.934-1.2,1.961-1.973,2.468a10.566,10.566,0,0,0-2.466,2.962c-0.743,1.208-1.23,1.879-.986,1.974s1.048,1.017,0,.987-0.961.03-1.973,0-0.421.318-1.973,0-0.834-.6-1.48-0.493a5.139,5.139,0,0,1-1.973-.494l-0.986-.494s1.7,2.068,1.973,1.975,0.054,0.649.986,0.493,0.987,0,.987,0,0.269,0.048,0,.988-0.646.531-.494,0.987,1.714,0.783,0,1.481-1.973.493-1.973,0.493-0.025,2.7-.493,2.962-0.644.189-.986,1.481-0.07,1.167-.494,1.481-1.262.152-.986,0.987a2.138,2.138,0,0,0,.493.987s-1.844-.4-2.466-0.494-0.687.683-1.479-.493-0.987-1.481-.987-1.481l-0.986,2.962s0.47-.9,0,0.987a15.633,15.633,0,0,1-.987,3.455,15.744,15.744,0,0,0-.986,2.962,42.177,42.177,0,0,1-1.973,3.949l-1.48,3.948s-0.415.04-.493,0.988a9.425,9.425,0,0,1,0,1.48c-0.15,1.478.15,1.126,0,1.481s-0.406,2.911-.493,2.962,0.177-.734-0.493.987-0.029.738-.494,1.481-0.5-1.085-.986,1.481a12.834,12.834,0,0,0-.493,3.455c0.01,1.122,1.406,1.3.493,2.468s0.986,4.443.986,4.443,0.034,0.9,0,1.974a8.038,8.038,0,0,0,0,1.481c0.038,0.164-.325-0.129,0,0.987a8.31,8.31,0,0,1,.494,1.481c0.047,0.568-.622,1.1,0,1.481a19.236,19.236,0,0,0,2.959.987l0.493,2.468s0.123,0.094-.493.987-0.493.987-.493,0.987,0.948,0.723-.987.494-1.973,0-1.973,0-0.343.264,0.494,0.987,0.7,0.964.986,0.987-0.676.156,0.986,0.988,0.938,0.927,1.48.987-0.722-.725.986,0.493,1.48,0.988,1.48.988l1.48,0.493s0.892-.042,0,0.494-0.722.164-.987,0.493a4.266,4.266,0,0,0-.986.988c-0.283.563-.493,0.493-0.493,0.493a8,8,0,0,1,0,1.481,8.537,8.537,0,0,0,.493,2.468,11.53,11.53,0,0,0,.986.987c0.31,0.233-1.189.755,0.494,0.494s1.061-.3,1.479-0.494-0.436-1.561.494-.987,1.479,0.987,1.479.987H274.6l0.494,0.988,0.986,0.987s0.011,1.184,0,1.481-1.494.259-1.973,0.493-1.045-1.024-1.479,0a6.666,6.666,0,0,0-.494,1.481,0.537,0.537,0,0,0,.494.494c0.427-.017.056-0.917,0.493,0s0.55,0.7.493,0.987,0.487,0.249,0,.987a0.871,0.871,0,0,1-.493.494c-0.282.316-.615-0.119-0.987,0.493s-0.493.494-.493,0.494l-0.986-.987-0.494.987-0.493.987,1.973,0.494s-0.679-.7,1.48-0.494a14.256,14.256,0,0,1,2.959.494h1.973a15.376,15.376,0,0,1,1.973,2.468,4.355,4.355,0,0,0,.986,2.468,3.728,3.728,0,0,1,1.48,1.974,3.2,3.2,0,0,1,.493,1.481,5.724,5.724,0,0,0,0,1.481c0.117,1.764-.691,1.394,0,1.974a10.655,10.655,0,0,1,1.973,2.468c0.441,0.77.043,0.128,0.493,0.987s2.617,3.376,2.466,3.949,0.366,1.024,0,1.481a2.854,2.854,0,0,1-1.479.987,0.985,0.985,0,0,0-.987.494c-0.411.556-1.812,2.3-1.973,2.468s-0.305.565-.986,1.481-0.493.987-.493,0.987,1.014,0.484-.987.494-1.586-.226-1.973,0a12.262,12.262,0,0,1-1.973.987,2.567,2.567,0,0,0-.986.493l-0.986,1.481h-1.48s-1.2.026-.986-0.493,0.493-1.481.493-1.481a3.3,3.3,0,0,1-1.48,1.481c-0.739.127-.659,0-0.986,0.493a12.882,12.882,0,0,0-.987.988,19.325,19.325,0,0,1-1.48,1.974s-1.079.527-1.479,0,0.509-1.519-.987-0.987a10.942,10.942,0,0,1-1.479.493,2.759,2.759,0,0,1-.987.988,3.012,3.012,0,0,1-1.973.493,4.474,4.474,0,0,1-.986,0c-0.591-.078-0.5.294-1.48,0s-0.277-.55-0.986-0.493a10.035,10.035,0,0,1-2.466-.494c-0.755-.168-0.788.24-0.987,0s-0.267.258-.986-0.494,0.379-.361-0.493-0.987a5.972,5.972,0,0,1-.987-0.987c-0.46-.357.335-0.63-0.493-0.494a5.2,5.2,0,0,0-1.48.494s0.856-.236,0,0.494a6.265,6.265,0,0,1-1.479.987l-0.494.493a7.154,7.154,0,0,0,0,.988,1.768,1.768,0,0,1-.493.987l-0.986.987v0.987a4.279,4.279,0,0,0,1.479.987,13.678,13.678,0,0,0,1.973.494c2.087,0.426,1.572-.085,1.973.494a1.845,1.845,0,0,1,.493.987c-0.02.166,0,1.974,0,1.974s-0.14.354-1.479,0.494-1.046.219-1.48,0-0.247.184-.986-0.987,0.183-.588-0.494-0.988-1.062-2.383-1.479-.493-0.5,2.4-.494,2.468,1.144-.1,0,0.987-0.986,1.481-.986,1.481,0.409,0.389-.986,0-0.846-.6-1.48-0.494,0.043,0.255-1.48,0,0.071-.732-1.479-0.493-1.176-.239-1.973,0-1.875-.042-1.48.493,0.5,0.775.986,1.481a10.787,10.787,0,0,0,.494.987,6.34,6.34,0,0,1,.493,1.975s1.04-.186-0.987,0a6.838,6.838,0,0,1-2.466,0,0.441,0.441,0,0,1-.493.493c-0.574.052,0.4,0.433-.986,0.494a6.132,6.132,0,0,1-1.48,0s1.3-1.227.986-1.481a19.529,19.529,0,0,0-2.466-.987c-0.359-1.365-.213-0.23,0-1.975s0.074-1.773,0-1.974,0.379-.139-0.493-0.494a1.206,1.206,0,0,1-.986-1.48c0.114-.741.531-0.947,0-0.988s-1.621,1.117-1.973,1.975a4.318,4.318,0,0,1-.987,1.481c-0.8,1.1-.238,1.574-0.986,1.48s-1.01-1.7-.987-1.974,0.48-2.49,0-2.962,0.57-1.305-.493-0.493-1.538,1.269-1.48,1.974,1.216,0.677.494,1.481a7.544,7.544,0,0,1-.987.987s0.185,0.471-.493,0-0.793-.014-0.986-0.493-0.578.569-.494-0.494-0.227.166,0-.987a21.074,21.074,0,0,1,.494-2.468c0.236-.7-0.416-1.458-0.987-1.975s1.038-.47-0.986-0.493-1.007,1.6-1.48,1.974a2.4,2.4,0,0,1-1.973.987,6.074,6.074,0,0,0-1.973,0c-1.049.1-1.336-1.324-1.479,0s-0.431,1.189,0,1.975a7.649,7.649,0,0,1,.493.987l-0.493,1.481s0.395,0.443-.987.493-1.147-.05-1.48,0a3.767,3.767,0,0,0-.986.494l-0.493-.987,0.986-1.481a1.535,1.535,0,0,1-.986,0c-0.36-.2-0.231.058-1.48,0a8.949,8.949,0,0,0-2.466,0c-0.5.158,0.488,0.722-1.48-.494s-0.986-1.48-.986-1.48-0.7-1.647-.987-1.481a1.9,1.9,0,0,1-.986,0l1.48-1.481s2.049-.964.493-0.987,0.624,0.885-1.973,0-2.466-.987-2.466-0.987,1.6,0.078-.987-0.988-2.466-.987-2.466-0.987l0.494-.987s-0.549-1.466-1.48-.494a12.214,12.214,0,0,0-.987.988,2.606,2.606,0,0,1-.986.987c-0.824.577-.825,2.905-1.973,0.987s-0.986-1.974-.986-1.974a6.836,6.836,0,0,0-.494,2.468c0.189,0.6,1.535.938,0,.987s-0.707.167-1.479,0a5.121,5.121,0,0,1-1.48-.494c-0.728-.32-0.205-1.815,0-2.468s1.374-1.25,0-.987-2.466.494-2.466,0.494-0.213.392-.493-0.494-1.137-.567-0.494-1.481,0.11-.558.987-0.987,1.973-.987,1.973-0.987,2.262,0.106-.493-0.494-2.446-.172-2.96-0.494,0.139-1.311-1.479-.493-0.534.582-1.973,0.987-1.483.061-2.466,0.987-0.129.618-.987,0.988a7.063,7.063,0,0,1-1.48.493,7.529,7.529,0,0,1-1.972,0s-0.567.591-.494-0.987-0.217-.719,0-1.975,1.344-.485.494-1.48-0.406-.836-0.987-0.988-1.211-.978-1.973-0.493a2.5,2.5,0,0,1-.986.493c-0.206.064-.117,0.692-0.987-0.987a16.153,16.153,0,0,1-.986-1.974c-0.529-1.212-2.09-2.36-.987-2.468s1.48-2.962,1.48-2.962a1.957,1.957,0,0,1,0-.987c0.068-1.02-.068-1.115,0-2.468s-0.068-.747,0-1.481,0.668-.5-0.493-1.481,0.05-.279-0.987-0.987,0.374,1.05-1.479-1.481a21.581,21.581,0,0,0-2.96-3.455c-0.544-.584,1.012.045-0.986-0.987s-0.925-.924-2.466-1.481-2.368-1.2-2.96-.987,0.163-.646-1.972,0a8.094,8.094,0,0,0-3.453,2.468,4.652,4.652,0,0,1-1.973.987,16.911,16.911,0,0,1-2.466-.494,1.2,1.2,0,0,1,.493-1.481,15.113,15.113,0,0,1,1.973-.987l-0.986-1.481a4.782,4.782,0,0,1-1.48-.493c-0.2-.244-0.193-0.887-0.986-0.494a8.1,8.1,0,0,0-1.48.987l-1.973.988-0.493,1.48v0.988l-1.973-.988a6.148,6.148,0,0,1,0-2.468c0.317-.737,1.172.415,0.493-0.987s-0.986-1.974-.986-1.974c-0.79,1.364-.038,2.137-1.48,2.468s-1.48.493-1.48,0.493a1.249,1.249,0,0,1-.986.988,1.413,1.413,0,0,1-.987,0,8.313,8.313,0,0,0,.987-1.975,3,3,0,0,1,.493-1.481c0.459-1,.312-0.545.493-0.987s0.806,0.245.494-.493-0.369-.249-0.987-0.494-1.229.388-2.466,0-1.48-.494-1.48-0.494-0.367.919-.493-0.493-0.43-2.429-.493-2.962-1.229-.22,0-0.987,0.026-.992.986-0.987,1.479,0.5,1.973,0,2.16-1.512,1.973-1.975,0.331,0.284,0-.987,0.062-.829-0.493-1.481-0.126-.892-0.987-0.987,0.969,0.167-.986,0-1.973,0-1.973,0a7.172,7.172,0,0,1,.987-1.481c0.394-.338,1.972-1.481,1.972-1.481s-0.091-.424.494,0-0.711-.335,1.479,1.481,2.15,2.33,2.96,2.468,2.466-.987,2.466-0.987a8.3,8.3,0,0,0,0-2.468c-0.221-1.074.633-2.551,0.493-2.962s1.358-.935,1.973-0.493,1.627,0.779,1.48,0a13.479,13.479,0,0,0-.494-2.468c-0.228-.394-1.476,1.2-0.493-0.494s0.775-.835.987-1.481,0.9-1.148.986-1.974-0.158-.79,0-0.987a4.224,4.224,0,0,0,.493-0.988c0.67-1.293-.06-0.519.987-1.48a11.422,11.422,0,0,1,2.466-1.481c0.59-.414.521-0.142,0.986-0.494s0.934-.258.987-0.987,0-2.962,0-2.962a0.485,0.485,0,0,0-.494-0.493c-0.53-.074-0.993-0.7-1.479-0.494s-1.48.494-1.48,0.494h-0.493v-1.975s0.757-.535-0.493,0-0.759.5-1.973,0.988-2.982,1.527-2.96,1.974,0.284,0.307-.493.987-0.048-.9-0.986,0-0.586,2.012-1.48.987-0.935-.3-0.986-0.987a18.024,18.024,0,0,0,0-1.974c-0.123-.577.984-0.751,0-0.987s-0.271.307-.987,0a3.553,3.553,0,0,0-1.479-.494,1.485,1.485,0,0,0-1.48.987,2.059,2.059,0,0,0,0,.987,5.878,5.878,0,0,0,.493,1.975,1.542,1.542,0,0,1-.493.987,1.9,1.9,0,0,1-1.48,0,2.684,2.684,0,0,1-1.479-1.481,0.956,0.956,0,0,0-.987-0.493c-0.7.1-.483-0.384-0.986,0s-0.878,1.159-1.48.987-1.209.172-1.48,0a13.824,13.824,0,0,0-3.452-1.481c-0.694.016-.166-0.357-1.973-0.494s-0.919.209-1.973,0-1.294.8-2.466-.493-1.429-.877-1.48-1.481,0.5-1.5-.493-1.481-0.406-.374-0.987,0,0.091,0.036-.374-0.425,0.2,1.213-2.092,1.412C105.672,339.52,104,338,104,338s0.753,0.484,0-1-1.342,1.052-1.037-.549,1.255-1.073.493-1.481-0.887-.723-1.973-0.494-0.384.256-.987,0.494-0.706,1.377-1.479.987,0.236,0.785-.987-0.987-0.248-1.745-.986-1.975,1.008-.021-1.48-0.987-2.959-1.974-2.959-1.974v-1.481s-0.381-1.142-.493-1.481a7.5,7.5,0,0,0-.493-0.987v-0.494Z"/>
        <path id="形状_2" data-name="形状 2" class="cls-2" d="M411.721,428.262a16.135,16.135,0,0,1,0-2.468c0.12-.658.493-2.469,0.493-2.469v-1.48h-0.987l-0.986.493h-2.466l-0.493-.493,1.479-1.975,0.987-.493a11.856,11.856,0,0,0-1.48-.988,8.58,8.58,0,0,0-.986-0.493,19.791,19.791,0,0,1,1.479-1.481c0.258-.155-0.322-1.113,1.48-0.987a13.5,13.5,0,0,0,3.946-.494,5.793,5.793,0,0,0,1.973-.493,5.14,5.14,0,0,1,1.972-.494,5.949,5.949,0,0,1,1.973,0c0.909,0.194,1.684-.375,2.96-0.494a2.849,2.849,0,0,0,1.973-1.48s1.4-1.319,2.466-.988a8.216,8.216,0,0,0,2.959,0l1.973-1.48H435.4l2.466-.988,0.987-.493,2.466-.988a12.5,12.5,0,0,1,2.959-.493,9.156,9.156,0,0,0,1.973,0h2.466l1.973-.494h2.466v-2.961l2.467-.988a1.124,1.124,0,0,0,.986-0.987c0.092-.892-0.618-1.061.493-1.481a18.118,18.118,0,0,1,3.946-.493s0.193-2.69.493-2.468,3.48,0.441,3.453.987a3.878,3.878,0,0,0,.493,1.481s0.7,1.273.493,1.481-1.542,1.522-1.479,1.974,0.621,1,.493,1.481-3.453,1.481-3.453,1.481-0.3.147,0,.987,1.169,1.112.987,1.481,0.3,1.282-.494,1.481a11.039,11.039,0,0,0-2.466,1.48l0.987,2.468,0.493,3.456-2.466.987-0.987,1.481s0.715,0.372-.493.493a14.406,14.406,0,0,1-2.466,0l-0.493.494a11.729,11.729,0,0,0-.493-1.975,8.315,8.315,0,0,0-1.48-.493c-0.509-.224.372-0.785-1.48,0s-2.073.282-2.466,0.987a8.5,8.5,0,0,0-.493.987,3.936,3.936,0,0,1-.987.987s1.773,0.218,1.48.988-0.773,2.048-.986,2.468a11.968,11.968,0,0,1-.987,1.974,4.591,4.591,0,0,0-.986.987c-0.256.485-.493,0.988-0.493,0.988s-0.454-.406-1.973,0a16.786,16.786,0,0,0-3.453.987c-0.688.426-.075,0.236-0.986,0.987s-2.387,1.584-2.96,1.974-0.392,1.643-.986,1.975a12.645,12.645,0,0,0-1.48.493c-0.424.343,0.309,0.039-1.973,0.494s-2.959,0-2.959,0,0.172-.693-0.986-1.481-0.873-1.568-1.973-1.481a6.346,6.346,0,0,1-2.466-.493,2.891,2.891,0,0,1-.987,1.481c-0.571.21-3.453,1.974-3.453,1.974a4.794,4.794,0,0,0-1.479.987c-0.679.678-.668,0.814-1.48,0.494a3.929,3.929,0,0,1-1.48-1.481V432.7a1.229,1.229,0,0,1-.986-0.494,5.268,5.268,0,0,0-1.973-.987,9.06,9.06,0,0,0-.493-1.481,1.542,1.542,0,0,1,0-1.48A2.432,2.432,0,0,1,411.721,428.262Z"/>
        <path id="形状_3" data-name="形状 3" class="cls-2" d="M250.93,503.29l3.945,0.987a7.76,7.76,0,0,0,1.973.494,31.2,31.2,0,0,0,3.453-.988h3.453s2.117,1.2.986,1.975-2.466,1.481-2.466,1.481l-1.48.987a1.166,1.166,0,0,1-.493,1.481,5.071,5.071,0,0,0-1.48,1.48l2.96,0.988v1.481l1.479,0.493h1.48l-2.466,2.962-0.493.987s-0.068-.276-0.987.494a4.212,4.212,0,0,1-3.452.987,16.682,16.682,0,0,0-3.453,0L252.9,521.06l-1.48,1.48H249.45a2.682,2.682,0,0,1-.986-2.468,5.689,5.689,0,0,1,.493-1.48,3.907,3.907,0,0,1-1.973.493,3.2,3.2,0,0,0-1.48,0l-0.986-1.974a3.552,3.552,0,0,1,.493-2.468c0.739-.8,1.48-1.481,1.48-1.481l0.986-1.481,0.987-.987a2.624,2.624,0,0,1,.493-1.975,5.151,5.151,0,0,0,.986-1.48l0.987-1.481V503.29Z"/>
        <path id="形状_4" data-name="形状 4" class="cls-2" d="M299.266,483.052l-0.987-.494h-0.986a0.649,0.649,0,0,1,0-.987c0.514-.557.249-0.711,0.986-0.987a19.181,19.181,0,0,1,2.96-.494l0.986-.493,0.493,1.48-0.493.988a4.578,4.578,0,0,0,1.48,0,10.182,10.182,0,0,0,1.479-.494l0.987-.494v-0.493a14.506,14.506,0,0,1,2.466,0,14.62,14.62,0,0,0,2.466,0h0.986l3.453-.494,1.973-.493s-0.192.2,0.986,0,4.374-.712,4.439,0a4.474,4.474,0,0,0,.494,1.48l0.986,1.975s-1.423,1.469-1.973,1.481a12.053,12.053,0,0,0-2.959.493,4.537,4.537,0,0,1-.987.988c-0.535.245-1.092,1.3-1.973,1.48a13.213,13.213,0,0,1-2.466.494,15.754,15.754,0,0,0-3.452.987,4.813,4.813,0,0,1-1.48.987,12.82,12.82,0,0,0-1.48.494,8.355,8.355,0,0,1-2.959,0l-0.986.494s0.274,1.5-.494,1.48a3.583,3.583,0,0,1-1.972-.493,2.921,2.921,0,0,1-1.48-.987,5.886,5.886,0,0,1,0-2.468,1.945,1.945,0,0,0-.493-0.988c-0.25-.024-0.987,0-0.987,0l-0.493-1.48a0.7,0.7,0,0,1,.493-0.988,6.12,6.12,0,0,0,1.48-.987Z"/>
        <path id="形状_5" data-name="形状 5" class="cls-2" d="M490.636,382.356l-0.986-1.481h-1.48l-1.479-1.481v-2.468l0.986-2.468a1.27,1.27,0,0,1,0-1.48,15.162,15.162,0,0,1,1.973-1.481s1.322-2.04,2.466-2.468,2.466-.987,2.466-0.987,1.863-.825,2.466-0.988,0.294-.081,1.973,0,3.453,0,3.453,0-0.035.64,0.986-.493a7.608,7.608,0,0,1,1.48-1.481,2.96,2.96,0,0,1,.986-0.494l1.48-.987v-0.987s-1.244.347-.986-0.494a3.356,3.356,0,0,1,1.479-1.481h0.493l0.987-.493,0.493-.987-0.493-.988-1.48-.493V356.2h1.48l0.493,0.494a3.314,3.314,0,0,1,1.48,0c0.692,0.195,2.466.493,2.466,0.493l0.493,1.481a7.415,7.415,0,0,0,0,1.974,9.422,9.422,0,0,0,1.973,1.481l1.48-.493h0.986a0.764,0.764,0,0,1,.493.987,1.323,1.323,0,0,1-.986,1.481c-0.968.48-2.466,1.48-2.466,1.48s-1.8,1.644-2.466,1.481a1.534,1.534,0,0,0-.987,0v2.468l1.48,1.481a4.162,4.162,0,0,0,.493.987,8.611,8.611,0,0,0,.987.988v0.987s1.037,1.115-.987.987-4.932-.494-4.932-0.494l-0.493,1.481v1.481s-0.252,2.007-.987.987-1.479-1.974-1.479-1.974,0.331-.589-0.987,0-1.043.9-1.973,0.987-3.452.494-3.452,0.494a3.8,3.8,0,0,0-1.973,0,7.755,7.755,0,0,1-1.48.987,2.907,2.907,0,0,0-1.48.987c-0.717.673-1.764,1.069-1.972,1.481s-0.494.987-.494,0.987h-1.973Z"/>
        <path id="形状_6" data-name="形状 6" class="cls-2" d="M514.8,429.742l1.973-.493,0.493,0.987,1.973,1.974V433.2l-0.986,1.48v2.468h1.973l0.493,0.988,1.48-.494a6.8,6.8,0,0,0-1.973,1.975s-1.36.249-1.48,0.987a6.929,6.929,0,0,1-.986,1.974v0.987a13.029,13.029,0,0,0-1.973,1.481s1.461,1.185,1.479,1.975-0.394.6-.493,1.974a2.221,2.221,0,0,0,1.48,1.974v1.481l0.493,0.987v1.481c2.44,0,2.959.494,2.959,0.494l1.48-.987s0.566-.364,1.48-0.988,1.955-.873,2.959-1.48a4.67,4.67,0,0,1,1.48-.494,9.837,9.837,0,0,1,1.973-.494l1.479-.493,1.973-1.975s1.166-2.169.987-2.468a3.55,3.55,0,0,1,0-1.974,6.606,6.606,0,0,0,0-1.974,12.237,12.237,0,0,0,.493-1.481,2.993,2.993,0,0,1,.986-1.975c0.9-.949.228-0.792,1.48-1.481s1.829-.309,1.48-0.987-0.038-1.185-.987-1.481-1.167-.2-1.973-0.493a5.174,5.174,0,0,1-1.479-.494,6.1,6.1,0,0,1-1.48-.987l-0.493-.494-2.466.988s-1.741,1.277-1.973.987-1.375-1.584-.987-1.975a9.025,9.025,0,0,1,1.973-.987l0.987-.987a12.7,12.7,0,0,0,.493-1.974c0.107-.836-0.118-0.54-0.493-1.481s-1.232-2.164-.987-2.468a11.542,11.542,0,0,0,.494-2.468l-0.987-.988s-0.627.255-.493-0.493,0.364-1.126.493-1.975,0.126-.271.493-0.987,0.63-1.9.987-2.468a4.971,4.971,0,0,0,.493-0.987l-0.493-1.974s-0.012-.565-0.987,0a13.487,13.487,0,0,0-1.973,1.48s-0.044,1.438-.986,1.481a2.645,2.645,0,0,0-1.973.494,6.786,6.786,0,0,0-1.48.987s-0.325.86-.493,1.481-1.48.987-1.48,0.987l-1.972,1.481-0.987.987a17.508,17.508,0,0,0-1.48,1.974,5.6,5.6,0,0,1-1.479,1.975,5.329,5.329,0,0,0-1.48,1.974c-0.072.274-.493,2.468-0.493,2.468H514.8Z"/>
        <path id="形状_7" data-name="形状 7" class="cls-2" d="M693.845,464.788l3.452-1.974h2.959l2.467-2.468,1.479-1.974,1.973-1.481,3.453-.494c0.237-.951.493-4.442,0.493-4.442l0.493-1.481,2.466-1.975-1.973-2.468v-1.48a10.3,10.3,0,0,0,1.48-.494c1.115-.428,2.466-0.987,2.466-0.987l1.48-.987,0.986-1.975v-1.481l1.973-3.455,3.453-.987,2.959,0.493a5.661,5.661,0,0,0,2.466,0c1.02-.327,1.809.054,2.96-0.493A20.117,20.117,0,0,0,733.8,432.7l1.479,1.481,0.494,2.961-1.973,1.975,0.493,1.481-0.987,1.481-0.493,1.48s-0.348,1.47.493,1.481a17.242,17.242,0,0,0,3.453-.987,19.884,19.884,0,0,0,.986-2.468c0.206-.815-0.443-1.5,0-2.468a7.721,7.721,0,0,1,.987-1.975c0.645-.892,1.4-1.664,1.973-2.468s1.973-2.468,1.973-2.468l0.493-.987,0.986-1.481,0.494-1.974,2.466-.987,1.479-.987v-1.975l-3.945-.494-2.96.494v-1.481l1.48-.987,0.493-1.974-1.48-.494a1.7,1.7,0,0,1,0-1.974,14.828,14.828,0,0,1,2.467-1.975l-0.987-1.481a5.3,5.3,0,0,0-1.973,0,8.908,8.908,0,0,1-2.466,0l0.987-1.974a4.172,4.172,0,0,0-1.973-.494c-1,.054-3.946,0-3.946,0s-0.675,2.3-1.48,2.962-2.959,2.468-2.959,2.468l0.986,1.974s1.209,1.785,0,1.975-3.452,4.936-3.452,4.936l-1.973,1.974h-6.9l-0.987,2.962-1.973.987-2.466.987-0.493-1.48-4.439,1.974-0.493,1.481-1.48.493v1.975a3.158,3.158,0,0,1-1.48,2.962,7.418,7.418,0,0,1-2.466.987l-2.959,3.455-1.973,3.949,0.493,1.481-2.466,3.455s0.876,1.606,0,1.974a39.65,39.65,0,0,1-4.439.988l5.426,0.987a3.371,3.371,0,0,1-.987,2.468c-1.113,1.159-2.466,2.961-2.466,2.961Z"/>
        <path id="形状_8" data-name="形状 8" class="cls-2" d="M59.066,307.821a28.159,28.159,0,0,1,4.439-.987,28.826,28.826,0,0,0,3.946,0c0.915-.092,4.619-0.088,5.919,0a46.74,46.74,0,0,0,5.426-.493,15.029,15.029,0,0,1,2.466-.988c0.971-.232,3.946-1.48,3.946-1.48l1.48-2.468,1.48-4.936L87.673,294v-6.91l1.973-3.455,0.986-2.468-0.493-3.456-3.453-.493a5.283,5.283,0,0,0-2.959,0c-1.135.518-1.628,1.809-3.453,1.974s-1.119.462-3.453,0.494-2.043-.573-4.439,0a28.652,28.652,0,0,0-4.439,1.481l-1.973.493L63.5,285.609a8.21,8.21,0,0,1-.986,2.962c-0.635.695-.884,1.718-1.48,2.468a17.919,17.919,0,0,0-1.48,2.468c-0.557.984-.876,0.356-0.986,1.481s0,4.936,0,4.936a4.218,4.218,0,0,1,0,1.974,19,19,0,0,0-.986,2.962,26.384,26.384,0,0,1-.986,2.961l1.48,0.988Z"/>
        <path id="形状_9" data-name="形状 9" class="cls-2" d="M75.835,239.7l2.466-1.975,2.466-2.961s-0.125-.8,1.48-1.975,1.527-1.329,2.466-1.974a11.367,11.367,0,0,0,1.973-1.975s0.391-2.208,1.48-2.961,6.059-2.021,6.905-2.468,2.278-.893,3.453-1.481,5.707-2.719,6.411-3.455,1.08-2.838,1.973-3.949a19.49,19.49,0,0,1,2.466-2.962c1.308-1.212,1.284-4.516,2.467-4.936s1.408-.647,2.466-1.974,1.087-2.881,1.973-3.456a5.708,5.708,0,0,0,1.972-1.48c0.714-.9,1.48-1.975,1.48-1.975l1.48-2.961-0.493-.988s-2.827.025-1.48-.987a14.9,14.9,0,0,0,2.466-2.468v-2.962l-0.493-3.455-0.493-1.974s-1.035-1.186-.494-1.975,2.467-4.936,2.467-4.936l1.972-6.91,0.494-1.481s-0.823-3.948-.987-4.443-0.493-1.974-.493-1.974-1.574-.132-1.973.494-1.386,2.234-1.973,2.961-0.212.794-1.48,1.481-3.452,1.975-3.452,1.975-0.627,1.186-3.453,1.48-2.537.693-4.932,0.494a21.2,21.2,0,0,0-3.452,0,13.836,13.836,0,0,0-3.946.987s-3.8,2.605-4.439,2.962a38.384,38.384,0,0,0-3.453,1.974,45.434,45.434,0,0,1-4.932,2.468l-2.959,2.962s-2.3,1.268-3.453,1.974-0.986.274-2.959,1.481a17.536,17.536,0,0,0-3.946,3.949L70.9,186.394H68.93l0.986,2.468H71.4a7.114,7.114,0,0,1,0,1.975,5.3,5.3,0,0,1-.493,1.974c-0.376.97-.97,4.124-0.493,5.43a40.091,40.091,0,0,1,1.48,3.949c0.258,1.14.368,3.42,0.493,4.442s-0.219,2.372.493,3.949a20.417,20.417,0,0,1,.986,4.936v6.911s-0.618,1.866-.986,3.455a10.412,10.412,0,0,1-1.973,3.455l-1.48,1.974-1.48,2.468-0.493,1.975,2.466,2.962L70.9,240.2h2.466Z"/>
        <path id="形状_10" data-name="形状 10" class="cls-2" d="M90.632,164.676l3.946-1.481a9.026,9.026,0,0,1,2.959-.494c0.708,0.212,3.946-.987,3.946-0.987s-0.178-.065,2.466-1.481a23.748,23.748,0,0,1,2.959-1.481,20.974,20.974,0,0,1,2.466-.987,24.313,24.313,0,0,0,2.96-1.481,5.52,5.52,0,0,1,.986-0.493c0.8-.25,2.96-3.456,2.96-3.456l1.479,1.975s0.853,0.416,0,.987-1.479.987-1.479,0.987l2.466,0.494,0.986-.987V154.31l0.987-2.468v-0.987l1.973-1.975s0.719,1.527.986-.494-0.1-1.773.493-2.961a10.847,10.847,0,0,1,1.973-2.468s-0.416-.314.493-1.975a8.3,8.3,0,0,1,1.973-2.468,17.17,17.17,0,0,0,1.48-1.48c0.894-.989,2.959-2.962,2.959-2.962s-0.222-.348.493-1.481a7.779,7.779,0,0,0,.987-2.468c0.384-1.123.493-1.481,0.493-1.481l-2.959-1.481s-2.553.627-3.453,0.988-1.9.143-2.466,1.48-0.433,2.293-1.48,2.962a13.958,13.958,0,0,1-2.466,1.481,7.454,7.454,0,0,1-2.466.987c-1.68.331,0.349,0.165-2.466,0.494a14.653,14.653,0,0,0-2.959.493c-1.657.327-1.648,0.006-3.453,0.494a14.08,14.08,0,0,0-3.946,1.481c-1.46.809-1.507,1.5-2.466,1.481s-0.7.348-2.466,0.493-0.051-.637-1.973,0a17.04,17.04,0,0,1-3.946.987c-1.25.142-.567,0.519-1.973,0.494s-1.067-.631-1.973,0a5.778,5.778,0,0,0-1.48,2.468s-0.415,4.337-.493,4.936a34.244,34.244,0,0,0,.493,3.949s1.554-.237,0,1.974-2.237,3.4-2.959,4.443-0.927.6-1.48,1.481a5.561,5.561,0,0,0-.986,1.974c-0.385,1.195-.493,1.481-0.493,1.481a2.783,2.783,0,0,0,.986,1.481,5.455,5.455,0,0,0,2.466.493l1.973-.493Z"/>
        <path id="形状_11" data-name="形状 11" class="cls-2" d="M102.963,127.655s0.638-4.333,1.479-4.442a12.757,12.757,0,0,0,1.973-.494s2.143-2.7,3.453-2.468a22.01,22.01,0,0,0,4.932-.494,14.636,14.636,0,0,1,2.959-1.974c1.112-.414,5.16-0.418,5.919-1.481s5.517-2.567,6.412-2.962,2.573-1.915,3.452-1.974,5.426-3.455,5.426-3.455l0.986-2.962L85.7,69.409s0.546,6.327-.493,6.91-1.429-.575-1.48.987a25.924,25.924,0,0,1-.493,3.949,27.374,27.374,0,0,1-.986,3.455c-0.372,1.2-2.932,4.742-3.453,5.43s-0.142,7.74-.987,8.391-1.8,3.155-2.466,4.443-2.957,4.492-2.959,5.429a14.434,14.434,0,0,1-2.466,5.43c-0.974,1.077-2.485,2.557-2.466,3.455s-0.019,2.24,0,2.962-0.51-1.369,0,.987a14.034,14.034,0,0,0,1.48,3.949s-0.013,2.937,0,3.949,0.969,2.467,0,4.442a8.9,8.9,0,0,0-.986,3.456l3.453,6.91,3.453,2.962h1.973l1.973-2.962a4.734,4.734,0,0,1,1.48-1.974c0.782-.355,4.439-1.481,4.439-1.481A13.277,13.277,0,0,0,87.673,140a31.865,31.865,0,0,0,2.959-1.974h3.946a8.309,8.309,0,0,0,2.959,0,16.677,16.677,0,0,0,1.973-.987l1.973-2.468a7.276,7.276,0,0,1,.493-1.975A40.344,40.344,0,0,0,102.963,127.655Z"/>
        <path id="形状_12" data-name="形状 12" class="cls-2" d="M168.068,136.54l0.493-4.936-1.479-7.9,2.466-5.43-0.493-1.48a44.968,44.968,0,0,0-4.933,4.442,18.353,18.353,0,0,1-1.973,2.468,21.565,21.565,0,0,1-3.452,2.468,60.452,60.452,0,0,0-4.932,3.949l-0.987,1.481,1.48,0.493a1.7,1.7,0,0,1-.493,1.975c-1.009.99-2.119,1.98-1.973,2.468s0.986,3.949.986,3.949-0.8,3.994-.493,4.936,0.986,3.455.986,3.455l0.987,2.468a1.159,1.159,0,0,0,1.479-.987c0.457-1.374-.943-2.42.494-2.962a19.957,19.957,0,0,0,3.452-1.974l3.453-3.455,0.986-2.962s0.08-.314.987,0a4.853,4.853,0,0,0,1.479.494C167,139.485,168.068,136.54,168.068,136.54Z"/>
      </g>
    </g>
  </g>
</svg>
