<?xml version="1.0" encoding="utf-8"?>
<!-- Generator: Adobe Illustrator 17.0.0, SVG Export Plug-In . SVG Version: 6.00 Build 0)  -->
<!DOCTYPE svg PUBLIC "-//W3C//DTD SVG 1.1//EN" "http://www.w3.org/Graphics/SVG/1.1/DTD/svg11.dtd">
<svg version="1.1" id="图层_1" xmlns="http://www.w3.org/2000/svg" xmlns:xlink="http://www.w3.org/1999/xlink" x="0px" y="0px"
	 viewBox="0 0 24 24" style="enable-background:new 0 0 24 24;" xml:space="preserve">
<g>
	<g>
		<path style="fill-rule:evenodd;clip-rule:evenodd;fill:#F87493;" d="M12.8,12.5L16.3,9c0.2-0.2,0.2-0.7,0-0.9l-0.4-0.4
			c-0.2-0.2-0.7-0.2-0.9,0l-3.5,3.5L8,7.7c-0.3-0.3-0.7-0.2-0.9,0L6.7,8.1C6.4,8.3,6.4,8.7,6.7,9l3.5,3.5L6.7,16
			c-0.3,0.2-0.3,0.7,0,0.9l0.4,0.4c0.2,0.2,0.7,0.2,0.9,0l3.5-3.5l3.5,3.5c0.2,0.2,0.7,0.2,0.9,0l0.4-0.4c0.2-0.2,0.2-0.7,0-0.9
			L12.8,12.5z"/>
	</g>
</g>
</svg>
