<?xml version="1.0" encoding="utf-8"?>
<!-- Generator: Adobe Illustrator 19.0.0, SVG Export Plug-In . SVG Version: 6.00 Build 0)  -->
<svg version="1.1" id="图层_1" xmlns="http://www.w3.org/2000/svg" xmlns:xlink="http://www.w3.org/1999/xlink" x="0px" y="0px"
	 viewBox="2982 1752.3 331.5 132" style="enable-background:new 2982 1752.3 331.5 132;" xml:space="preserve">
<style type="text/css">
	.st0{fill:url(#SVGID_1_);}
	.st1{fill:#04233E;}
	
		.st2{opacity:0.3;fill:none;stroke:url(#SVGID_2_);stroke-width:1.5;stroke-linecap:round;stroke-miterlimit:10;enable-background:new    ;}
	.st3{opacity:0.3;fill:none;stroke:url(#SVGID_3_);stroke-linecap:round;stroke-miterlimit:10;enable-background:new    ;}
	.st4{opacity:0.3;fill:none;stroke:url(#SVGID_4_);stroke-linecap:round;stroke-miterlimit:10;enable-background:new    ;}
	.st5{opacity:0.3;fill:none;stroke:url(#SVGID_5_);stroke-linecap:round;stroke-miterlimit:10;enable-background:new    ;}
	.st6{fill:url(#SVGID_6_);}
	.st7{fill:url(#SVGID_7_);}
	.st8{fill:url(#SVGID_8_);}
	.st9{fill:url(#SVGID_9_);}
	.st10{fill:url(#SVGID_10_);}
</style>
<title>资源 16</title>
<g id="主体">
	
		<linearGradient id="SVGID_1_" gradientUnits="userSpaceOnUse" x1="3066.24" y1="163.2" x2="3313.5" y2="163.2" gradientTransform="matrix(1 0 0 -1 0 1982.0001)">
		<stop  offset="0" style="stop-color:#22A4C7"/>
		<stop  offset="0.5" style="stop-color:#7AC9D5"/>
		<stop  offset="0.59" style="stop-color:#71C5D4"/>
		<stop  offset="0.74" style="stop-color:#59BBD0"/>
		<stop  offset="0.93" style="stop-color:#31AAC9"/>
		<stop  offset="1" style="stop-color:#22A4C7"/>
	</linearGradient>
	<path class="st0" d="M3067.1,1796.3c12.2,10.5,13.7,28.9,3.2,41.1c-1.2,1.4-2.6,2.7-4.1,3.9H3291c12.4,0,22.5-10.1,22.5-22.5l0,0
		l0,0c0-12.4-10.1-22.5-22.5-22.5l0,0H3067.1z"/>

	<circle class="st1" cx="3048.1" cy="1818.4" r="29.2"/>
	
		<linearGradient id="SVGID_2_" gradientUnits="userSpaceOnUse" x1="3067.1667" y1="148.5809" x2="3044.6714" y2="187.5327" gradientTransform="matrix(1 0 0 -1 0 1982.0001)">
		<stop  offset="0" style="stop-color:#09F9F8;stop-opacity:0.9"/>
		<stop  offset="9.000000e-02" style="stop-color:#09F1F6;stop-opacity:0.86"/>
		<stop  offset="0.25" style="stop-color:#09DAF2;stop-opacity:0.77"/>
		<stop  offset="0.44" style="stop-color:#0AB6EA;stop-opacity:0.61"/>
		<stop  offset="0.66" style="stop-color:#0B83DF;stop-opacity:0.38"/>
		<stop  offset="0.91" style="stop-color:#0C43D2;stop-opacity:0.11"/>
		<stop  offset="1" style="stop-color:#0C2BCD;stop-opacity:0"/>
	</linearGradient>
	<path class="st2" d="M3036,1800.4c10-6.7,23.5-4,30.2,5.9s4,23.5-5.9,30.2c-1.4,1-3,1.8-4.6,2.4"/>
	
		<linearGradient id="SVGID_3_" gradientUnits="userSpaceOnUse" x1="3055.072" y1="177.5115" x2="3040.022" y2="151.4416" gradientTransform="matrix(1 0 0 -1 0 1982.0001)">
		<stop  offset="0" style="stop-color:#09F9F8;stop-opacity:0.9"/>
		<stop  offset="9.000000e-02" style="stop-color:#09F1F6;stop-opacity:0.86"/>
		<stop  offset="0.25" style="stop-color:#09DAF2;stop-opacity:0.77"/>
		<stop  offset="0.44" style="stop-color:#0AB6EA;stop-opacity:0.61"/>
		<stop  offset="0.66" style="stop-color:#0B83DF;stop-opacity:0.38"/>
		<stop  offset="0.91" style="stop-color:#0C43D2;stop-opacity:0.11"/>
		<stop  offset="1" style="stop-color:#0C2BCD;stop-opacity:0"/>
	</linearGradient>
	<path class="st3" d="M3036.6,1828c-5.2-6.4-4.3-15.9,2.1-21.1c6.4-5.2,15.9-4.3,21.1,2.1c2.2,2.7,3.4,6,3.4,9.4"/>
	
		<linearGradient id="SVGID_4_" gradientUnits="userSpaceOnUse" x1="3057.7202" y1="156.331" x2="3040.8767" y2="173.1743" gradientTransform="matrix(1 0 0 -1 0 1982.0001)">
		<stop  offset="0" style="stop-color:#09F9F8;stop-opacity:0.9"/>
		<stop  offset="9.000000e-02" style="stop-color:#09F1F6;stop-opacity:0.86"/>
		<stop  offset="0.25" style="stop-color:#09DAF2;stop-opacity:0.77"/>
		<stop  offset="0.44" style="stop-color:#0AB6EA;stop-opacity:0.61"/>
		<stop  offset="0.66" style="stop-color:#0B83DF;stop-opacity:0.38"/>
		<stop  offset="0.91" style="stop-color:#0C43D2;stop-opacity:0.11"/>
		<stop  offset="1" style="stop-color:#0C2BCD;stop-opacity:0"/>
	</linearGradient>
	<path class="st4" d="M3040,1810.4c4.4-4.5,11.7-4.5,16.1-0.1c4.5,4.4,4.5,11.7,0.1,16.1c-2.1,2.2-5.1,3.4-8.1,3.4"/>
	
		<linearGradient id="SVGID_5_" gradientUnits="userSpaceOnUse" x1="3045.5823" y1="183.0101" x2="3045.5823" y2="144.13" gradientTransform="matrix(1 0 0 -1 0 1982.0001)">
		<stop  offset="0" style="stop-color:#09F9F8;stop-opacity:0.9"/>
		<stop  offset="9.000000e-02" style="stop-color:#09F1F6;stop-opacity:0.86"/>
		<stop  offset="0.25" style="stop-color:#09DAF2;stop-opacity:0.77"/>
		<stop  offset="0.44" style="stop-color:#0AB6EA;stop-opacity:0.61"/>
		<stop  offset="0.66" style="stop-color:#0B83DF;stop-opacity:0.38"/>
		<stop  offset="0.91" style="stop-color:#0C43D2;stop-opacity:0.11"/>
		<stop  offset="1" style="stop-color:#0C2BCD;stop-opacity:0"/>
	</linearGradient>
	<path class="st5" d="M3062,1831.3c-7.1,7.7-19.1,8.1-26.8,1c-7.7-7.1-8.1-19.1-1-26.8c3.6-3.9,8.6-6.1,13.9-6.1"/>
	
		<linearGradient id="SVGID_6_" gradientUnits="userSpaceOnUse" x1="3018.99" y1="160.9149" x2="3077.3101" y2="160.9149" gradientTransform="matrix(1 0 0 -1 0 1982.0001)">
		<stop  offset="0" style="stop-color:#22A4C7"/>
		<stop  offset="0.5" style="stop-color:#09F9F8;stop-opacity:0.9"/>
		<stop  offset="0.62" style="stop-color:#0DECF1;stop-opacity:0.91"/>
		<stop  offset="0.82" style="stop-color:#17CADD;stop-opacity:0.96"/>
		<stop  offset="1" style="stop-color:#22A4C7"/>
	</linearGradient>
	<path class="st6" d="M3077.3,1818.4c0-16.1-13.1-29.2-29.2-29.2c-16.1,0-29.2,13.1-29.2,29.2c0,13.3,9,25,22,28.3l7.1,6.2l7-6.2
		C3068.1,1843.6,3077.3,1831.9,3077.3,1818.4z M3048.2,1844.1c-14.2,0-25.7-11.5-25.7-25.7c0-14.2,11.5-25.7,25.7-25.7
		c14.2,0,25.7,11.5,25.7,25.7v0C3073.8,1832.6,3062.3,1844.1,3048.2,1844.1L3048.2,1844.1z"/>
	
		<linearGradient id="SVGID_7_" gradientUnits="userSpaceOnUse" x1="3085.3401" y1="162.8701" x2="3125.3401" y2="162.8701" gradientTransform="matrix(1 0 0 -1 0 1982.0001)">
		<stop  offset="0" style="stop-color:#09F9F8;stop-opacity:0"/>
		<stop  offset="6.000000e-02" style="stop-color:#3BFAF9;stop-opacity:0.2"/>
		<stop  offset="0.12" style="stop-color:#6EFBFB;stop-opacity:0.41"/>
		<stop  offset="0.18" style="stop-color:#9BFDFC;stop-opacity:0.59"/>
		<stop  offset="0.25" style="stop-color:#BFFDFD;stop-opacity:0.74"/>
		<stop  offset="0.31" style="stop-color:#DBFEFE;stop-opacity:0.85"/>
		<stop  offset="0.38" style="stop-color:#EFFFFF;stop-opacity:0.93"/>
		<stop  offset="0.44" style="stop-color:#FBFFFF;stop-opacity:0.98"/>
		<stop  offset="0.5" style="stop-color:#FFFFFF"/>
		<stop  offset="0.56" style="stop-color:#FBFFFF;stop-opacity:0.98"/>
		<stop  offset="0.62" style="stop-color:#EFFFFF;stop-opacity:0.93"/>
		<stop  offset="0.69" style="stop-color:#DBFEFE;stop-opacity:0.85"/>
		<stop  offset="0.75" style="stop-color:#BFFDFD;stop-opacity:0.74"/>
		<stop  offset="0.82" style="stop-color:#9BFDFC;stop-opacity:0.59"/>
		<stop  offset="0.88" style="stop-color:#6EFBFB;stop-opacity:0.41"/>
		<stop  offset="0.94" style="stop-color:#3BFAF9;stop-opacity:0.2"/>
		<stop  offset="1" style="stop-color:#09F9F8;stop-opacity:0"/>
	</linearGradient>
	<path class="st7" d="M3085.3,1819.1l1.7-0.1c1.1,0,2.7-0.1,4.5-0.2s4.1-0.1,6.4-0.2s4.8,0,7.3-0.1s5,0,7.3,0.1s4.5,0.1,6.4,0.2
		s3.4,0.1,4.5,0.2l1.7,0.1l-1.7,0.1c-1.1,0-2.7,0.1-4.5,0.2s-4.1,0.1-6.4,0.2s-4.8,0-7.3,0.1s-5,0-7.3-0.1s-4.5-0.1-6.4-0.2
		s-3.4-0.1-4.5-0.2L3085.3,1819.1z"/>
	
		<linearGradient id="SVGID_8_" gradientUnits="userSpaceOnUse" x1="3140.5701" y1="162.8701" x2="3180.5701" y2="162.8701" gradientTransform="matrix(1 0 0 -1 0 1982.0001)">
		<stop  offset="0" style="stop-color:#09F9F8;stop-opacity:0"/>
		<stop  offset="6.000000e-02" style="stop-color:#3BFAF9;stop-opacity:0.2"/>
		<stop  offset="0.12" style="stop-color:#6EFBFB;stop-opacity:0.41"/>
		<stop  offset="0.18" style="stop-color:#9BFDFC;stop-opacity:0.59"/>
		<stop  offset="0.25" style="stop-color:#BFFDFD;stop-opacity:0.74"/>
		<stop  offset="0.31" style="stop-color:#DBFEFE;stop-opacity:0.85"/>
		<stop  offset="0.38" style="stop-color:#EFFFFF;stop-opacity:0.93"/>
		<stop  offset="0.44" style="stop-color:#FBFFFF;stop-opacity:0.98"/>
		<stop  offset="0.5" style="stop-color:#FFFFFF"/>
		<stop  offset="0.56" style="stop-color:#FBFFFF;stop-opacity:0.98"/>
		<stop  offset="0.62" style="stop-color:#EFFFFF;stop-opacity:0.93"/>
		<stop  offset="0.69" style="stop-color:#DBFEFE;stop-opacity:0.85"/>
		<stop  offset="0.75" style="stop-color:#BFFDFD;stop-opacity:0.74"/>
		<stop  offset="0.82" style="stop-color:#9BFDFC;stop-opacity:0.59"/>
		<stop  offset="0.88" style="stop-color:#6EFBFB;stop-opacity:0.41"/>
		<stop  offset="0.94" style="stop-color:#3BFAF9;stop-opacity:0.2"/>
		<stop  offset="1" style="stop-color:#09F9F8;stop-opacity:0"/>
	</linearGradient>
	<path class="st8" d="M3140.6,1819.1l1.7-0.1c1.1,0,2.7-0.1,4.5-0.2s4.1-0.1,6.4-0.2s4.8,0,7.3-0.1s5,0,7.3,0.1s4.5,0.1,6.4,0.2
		s3.4,0.1,4.5,0.2l1.7,0.1l-1.7,0.1c-1.1,0-2.7,0.1-4.5,0.2s-4.1,0.1-6.4,0.2s-4.8,0-7.3,0.1s-5,0-7.3-0.1s-4.5-0.1-6.4-0.2
		s-3.4-0.1-4.5-0.2L3140.6,1819.1z"/>
	
		<linearGradient id="SVGID_9_" gradientUnits="userSpaceOnUse" x1="3195.8" y1="162.8701" x2="3235.8" y2="162.8701" gradientTransform="matrix(1 0 0 -1 0 1982.0001)">
		<stop  offset="0" style="stop-color:#09F9F8;stop-opacity:0"/>
		<stop  offset="6.000000e-02" style="stop-color:#3BFAF9;stop-opacity:0.2"/>
		<stop  offset="0.12" style="stop-color:#6EFBFB;stop-opacity:0.41"/>
		<stop  offset="0.18" style="stop-color:#9BFDFC;stop-opacity:0.59"/>
		<stop  offset="0.25" style="stop-color:#BFFDFD;stop-opacity:0.74"/>
		<stop  offset="0.31" style="stop-color:#DBFEFE;stop-opacity:0.85"/>
		<stop  offset="0.38" style="stop-color:#EFFFFF;stop-opacity:0.93"/>
		<stop  offset="0.44" style="stop-color:#FBFFFF;stop-opacity:0.98"/>
		<stop  offset="0.5" style="stop-color:#FFFFFF"/>
		<stop  offset="0.56" style="stop-color:#FBFFFF;stop-opacity:0.98"/>
		<stop  offset="0.62" style="stop-color:#EFFFFF;stop-opacity:0.93"/>
		<stop  offset="0.69" style="stop-color:#DBFEFE;stop-opacity:0.85"/>
		<stop  offset="0.75" style="stop-color:#BFFDFD;stop-opacity:0.74"/>
		<stop  offset="0.82" style="stop-color:#9BFDFC;stop-opacity:0.59"/>
		<stop  offset="0.88" style="stop-color:#6EFBFB;stop-opacity:0.41"/>
		<stop  offset="0.94" style="stop-color:#3BFAF9;stop-opacity:0.2"/>
		<stop  offset="1" style="stop-color:#09F9F8;stop-opacity:0"/>
	</linearGradient>
	<path class="st9" d="M3195.8,1819.1l1.7-0.1c1.1,0,2.7-0.1,4.5-0.2s4.1-0.1,6.4-0.2s4.8,0,7.3-0.1s5,0,7.3,0.1s4.5,0.1,6.4,0.2
		s3.4,0.1,4.5,0.2l1.7,0.1l-1.7,0.1c-1.1,0-2.7,0.1-4.5,0.2s-4.1,0.1-6.4,0.2s-4.8,0-7.3,0.1s-5,0-7.3-0.1s-4.5-0.1-6.4-0.2
		s-3.4-0.1-4.5-0.2L3195.8,1819.1z"/>
	
		<linearGradient id="SVGID_10_" gradientUnits="userSpaceOnUse" x1="3251" y1="162.8701" x2="3291" y2="162.8701" gradientTransform="matrix(1 0 0 -1 0 1982.0001)">
		<stop  offset="0" style="stop-color:#09F9F8;stop-opacity:0"/>
		<stop  offset="6.000000e-02" style="stop-color:#3BFAF9;stop-opacity:0.2"/>
		<stop  offset="0.12" style="stop-color:#6EFBFB;stop-opacity:0.41"/>
		<stop  offset="0.18" style="stop-color:#9BFDFC;stop-opacity:0.59"/>
		<stop  offset="0.25" style="stop-color:#BFFDFD;stop-opacity:0.74"/>
		<stop  offset="0.31" style="stop-color:#DBFEFE;stop-opacity:0.85"/>
		<stop  offset="0.38" style="stop-color:#EFFFFF;stop-opacity:0.93"/>
		<stop  offset="0.44" style="stop-color:#FBFFFF;stop-opacity:0.98"/>
		<stop  offset="0.5" style="stop-color:#FFFFFF"/>
		<stop  offset="0.56" style="stop-color:#FBFFFF;stop-opacity:0.98"/>
		<stop  offset="0.62" style="stop-color:#EFFFFF;stop-opacity:0.93"/>
		<stop  offset="0.69" style="stop-color:#DBFEFE;stop-opacity:0.85"/>
		<stop  offset="0.75" style="stop-color:#BFFDFD;stop-opacity:0.74"/>
		<stop  offset="0.82" style="stop-color:#9BFDFC;stop-opacity:0.59"/>
		<stop  offset="0.88" style="stop-color:#6EFBFB;stop-opacity:0.41"/>
		<stop  offset="0.94" style="stop-color:#3BFAF9;stop-opacity:0.2"/>
		<stop  offset="1" style="stop-color:#09F9F8;stop-opacity:0"/>
	</linearGradient>
	<path class="st10" d="M3251,1819.1l1.7-0.1c1.1,0,2.7-0.1,4.5-0.2s4.1-0.1,6.4-0.2s4.8,0,7.3-0.1s5,0,7.3,0.1s4.5,0.1,6.4,0.2
		s3.4,0.1,4.5,0.2l1.7,0.1l-1.7,0.1c-1.1,0-2.7,0.1-4.5,0.2s-4.1,0.1-6.4,0.2s-4.8,0-7.3,0.1s-5,0-7.3-0.1s-4.5-0.1-6.4-0.2
		s-3.4-0.1-4.5-0.2L3251,1819.1z"/>
</g>
</svg>
