<?xml version="1.0" encoding="utf-8"?>
<!-- Generator: Adobe Illustrator 17.0.0, SVG Export Plug-In . SVG Version: 6.00 Build 0)  -->
<!DOCTYPE svg PUBLIC "-//W3C//DTD SVG 1.1//EN" "http://www.w3.org/Graphics/SVG/1.1/DTD/svg11.dtd">
<svg version="1.1" id="图层_1" xmlns="http://www.w3.org/2000/svg" xmlns:xlink="http://www.w3.org/1999/xlink" x="0px" y="0px"
	 preserveAspectRatio="none" viewBox="0 0 800 600" style="enable-background:new 0 0 800 600;" xml:space="preserve">
<g>
	<g>
		<polygon style="fill:#A1F7F2;" points="384.1,324.3 312.6,324.3 316.6,306.8 388.1,306.8 		"/>
		<g style="enable-background:new    ;">
			<path d="M322.2,318.3c-0.4,0.6-0.6,0.9-0.9,1.5c-0.3-0.2-0.6-0.3-1-0.4c0.7-0.7,1.2-1.4,1.5-2.3c0.3,0.2,0.7,0.3,0.8,0.3
				c0.3,0.1,0.3,0.1,0,0.2C322.6,317.8,322.4,318.1,322.2,318.3z M326.3,314v1c-0.6-0.1-1.2-0.1-2.2-0.1v1.2c0.9,0,1.4,0,2-0.1v1
				c-0.6-0.1-1.1-0.1-2-0.1v2.7c0,0.9-0.1,1-1.7,1.3c0-0.3-0.1-0.7-0.4-1.1c1.1,0.2,1.2,0.1,1.2-0.9v-1.9c-1.1,0-1.7,0-2.3,0.1v-1
				c0.6,0.1,1.2,0.1,2.3,0.1v-1.2c-1.1,0-1.9,0-2.5,0.1v-1c0.7,0.1,1.8,0.1,3.2,0.1c0.3-0.5,0.5-1.1,0.7-1.7
				c0.4,0.2,0.6,0.4,0.9,0.4c0.1,0,0.2,0.1,0,0.2c-0.1,0.1-0.3,0.3-0.9,1C325.3,314.1,325.8,314,326.3,314z M323,310.3l1.1-0.2
				c0.1,0.4,0.2,0.7,0.3,1.3c0.7,0,1.3-0.1,1.8-0.1v1c-0.6-0.1-1.4-0.1-2.5-0.1s-2,0-2.6,0.1v-1c0.6,0.1,1.3,0.1,2.3,0.1
				C323.3,311,323.2,310.6,323,310.3z M322.2,313.9c-0.1-0.6-0.3-0.9-0.5-1.2l0.9-0.3c0.1,0.4,0.3,0.7,0.6,1.2L322.2,313.9z
				 M325.3,319.3c-0.3-0.7-0.6-1.1-1-1.5l0.7-0.5c0.4,0.5,0.7,0.9,1.1,1.4L325.3,319.3z M329.4,314c0.9,0,1.3,0,1.8-0.1v1.1
				c-0.4-0.1-0.7-0.1-1.3-0.2v4.2c0,0.7,0,1.3,0.1,1.9h-1.2c0.1-0.7,0.1-1.2,0.1-1.9v-4.2h-1.1c0,2.9-0.4,4.5-1.4,6
				c-0.3-0.2-0.5-0.3-1.1-0.5c1.1-1.1,1.5-2.5,1.6-6.1c0-1.4,0-2.7-0.1-3.3c1,0.1,2.6-0.3,3.6-0.7c0.1,0.3,0.4,0.8,0.6,0.9
				c0.2,0.2,0.2,0.3-0.1,0.2c-0.3,0-0.5,0-1.5,0.1c-0.9,0.1-1,0.1-1.5,0.1v2.3H329.4z"/>
			<path d="M332.7,316v-1c0.6,0.1,1.5,0.1,3.2,0.1c0.4-0.7,0.7-1.5,0.8-2.2c0.2,0.1,0.8,0.4,1.1,0.5c0.2,0.1,0.2,0.2,0.1,0.3
				c-0.2,0.2-0.5,0.7-0.9,1.4h2.7c1.8,0,2.7,0,3.4-0.1v1c-0.5-0.1-1.2-0.1-2.4-0.1c-0.3,1-0.8,1.9-1.3,2.4c1.3,0.5,2.2,1,3.4,1.6
				c-0.3,0.2-0.6,0.5-0.8,1c-1.1-0.8-1.8-1.2-3.3-1.9c-1.3,0.9-2.7,1.5-5.1,1.9c-0.1-0.3-0.3-0.7-0.6-1.1c1.9-0.1,3.4-0.5,4.7-1.2
				c-1.5-0.6-2.1-0.8-3.1-1c0.4-0.4,0.7-1,1.1-1.7C334.2,315.9,333.3,316,332.7,316z M337,310.2c0.5-0.1,0.7-0.2,1.1-0.3
				c0.2,0.5,0.4,1.2,0.5,1.8c2.1,0,2.8,0,4-0.1v2.2h-1v-1.3h-7.3v1.3h-1v-2.2c1,0.1,1.9,0.1,4.3,0.1
				C337.5,311.2,337.2,310.6,337,310.2z M336.5,315.9c-0.2,0.4-0.5,0.9-0.6,1.2c0.8,0.2,1.4,0.5,2.5,0.9c0.6-0.6,0.9-1.3,1.2-2.1
				H336.5z"/>
			<path d="M346.6,315.6c-0.5-0.4-1.4-0.8-2.1-1.1l0.6-1c0.6,0.3,1.5,0.7,2.1,1.1L346.6,315.6z M346.7,318.9
				c-0.3,0.6-0.6,1.4-0.9,2.1c-0.4-0.4-0.8-0.7-1.2-1.1c0.4-0.5,0.7-1,1.2-1.8c0.4-0.6,0.7-1.2,1-1.8c0.2,0.3,0.5,0.6,0.9,0.8
				C347.4,317.6,347.1,318.1,346.7,318.9z M347.3,312.8c-0.3-0.4-1.3-1.1-1.9-1.5l0.8-0.8c0.6,0.4,1.5,1,2,1.3L347.3,312.8z
				 M352,319.2c1.4,0,2.4,0,3.2-0.1v1.1c-0.9-0.1-2.1-0.1-3.8-0.1c-1.7,0-2.9,0-3.8,0.1v-1.1c0.8,0.1,1.9,0.1,3.3,0.1V312
				c-1,0-1.8,0-2.4,0.1V311c0.8,0.1,1.7,0.1,3.1,0.1c1.4,0,2.4,0,3.1-0.1v1.1c-0.7-0.1-1.5-0.1-2.7-0.1V319.2z"/>
			<path d="M358.8,321h-1c0.1-0.7,0.1-1.2,0.1-1.9v-3.4c-0.3,0.5-0.6,0.8-0.9,1.1c-0.2-0.3-0.4-0.5-0.7-0.7c0.5-0.4,1.3-1.2,1.7-1.9
				c0.3-0.5,0.5-1,0.6-1.5c0.3,0.2,0.8,0.5,0.9,0.6c0.2,0,0.2,0.1,0,0.2c-0.1,0-0.2,0.2-0.6,0.8V321z M358.7,311.7
				c-0.5,0.6-0.9,1.2-1.5,1.7c-0.2-0.3-0.4-0.5-0.7-0.7c0.5-0.4,0.8-0.7,1.4-1.4c0.2-0.2,0.5-0.8,0.7-1.2c0.3,0.3,0.9,0.6,1,0.6
				c0.2,0.1,0.2,0.1,0,0.2C359.4,311,359.2,311.1,358.7,311.7z M364.2,317.9c-0.1,0.3-0.1,0.6,0,0.9c-1.3,0.1-3.8,0.7-4.8,0.9
				c0-0.4-0.1-0.8-0.2-1.2c0.5,0,1.3-0.1,2.1-0.2v-1.5c-0.7,0-1.1,0-1.6,0.1V316c0.5,0.1,0.8,0.1,1.6,0.1c0-0.5,0-0.9-0.1-1.2
				c0.3,0,0.8,0.1,1.1,0.1c0.2,0,0.2,0.1,0,0.2c-0.1,0.1-0.1,0.1-0.1,0.3v0.7c0.7,0,1,0,1.6-0.1v0.9c-0.5-0.1-0.9-0.1-1.6-0.1v1.4
				C363,318.1,363.9,318,364.2,317.9z M362.2,313.8c0.7,0,0.9,0,1.4-0.1v1c-0.6-0.1-0.8-0.1-1.8-0.1c-1.2,0-1.4,0-2,0.1v-1
				c0.5,0.1,0.8,0.1,1.6,0.1v-1.4c-0.7,0-1,0-1.5,0.1v-0.9c0.5,0.1,0.8,0.1,1.5,0.1c0-0.5,0-1.2-0.1-1.5c0.3,0,0.8,0.1,1.1,0.1
				c0.1,0,0.2,0.1,0,0.2c-0.1,0.1-0.1,0.1-0.1,0.3v1c0.8,0,1,0,1.5-0.1v0.9c-0.5-0.1-0.8-0.1-1.5-0.1V313.8z M366.1,319.7
				c0,1,0,1.1-1.8,1.3c0-0.3-0.1-0.6-0.4-1.2c1.2,0,1.3,0,1.3-0.6v-4.8c-0.5,0-0.8,0-1.1,0.1v-1c0.5,0.1,0.7,0.1,1.6,0.1
				s1.1,0,1.6-0.1v1c-0.4-0.1-0.6-0.1-1.2-0.1V319.7z M365.5,311.8c-0.6,0-0.9,0-1.4,0.1v-1c0.4,0.1,0.6,0.1,1.4,0.1
				c0.8,0,1,0,1.4-0.1v1C366.4,311.8,366.2,311.8,365.5,311.8z"/>
			<path d="M371.8,319.3c1.3,0.6,4.6,0.7,7.5,0.2c-0.2,0.5-0.3,0.9-0.3,1.3c-4.7,0.1-5.7,0-8.1-0.9c-0.6-0.3-1,0-1.6,1
				c-0.3-0.3-0.6-0.5-0.9-0.7c0.6-0.6,1.1-0.9,1.4-1.1v-3.7c-0.7,0-1.1,0-1.3,0.1v-1c0.8,0.1,1.8,0.1,2.5,0
				c-0.1,0.4-0.1,0.8-0.1,1.4v3.2C371.1,319,371.3,319.1,371.8,319.3z M369.9,313.3c-0.1-0.8-0.4-1.7-0.7-2.3l1-0.3
				c0.2,0.8,0.4,1.5,0.7,2.3L369.9,313.3z M378.1,313.4c0,0.4-0.1,0.8-0.1,1.3v2.9c0,0.6,0,1.1,0.1,1.7h-1v-0.5h-3.6v0.6h-1
				c0.1-0.6,0.1-1,0.1-1.7v-3c0-0.4,0-0.9-0.1-1.3c0.4,0,1.1,0.1,2,0.1c0.1-0.2,0.2-0.6,0.2-0.9c-1.4,0-2.3,0-3.2,0.1v-1
				c1,0.1,2.3,0.1,4.1,0.1c0.2-0.5,0.4-1,0.6-1.7c0.3,0.2,0.8,0.3,1.2,0.4c0.1,0,0.1,0.1,0,0.1c-0.2,0.1-0.4,0.3-0.9,1.2
				c1,0,1.8,0,2.5-0.1v1c-0.9-0.1-1.8-0.1-3.3-0.1c-0.1,0.3-0.2,0.7-0.3,0.9C376.6,313.5,377.6,313.5,378.1,313.4z M374,311.8
				c-0.2-0.3-0.5-0.7-0.8-1l0.8-0.5c0.3,0.3,0.6,0.7,0.8,1L374,311.8z M377.1,314.2h-3.6v0.8h3.6V314.2z M373.5,316.5h3.6v-0.8h-3.6
				V316.5z M377.1,317.2h-3.6v0.9h3.6V317.2z"/>
		</g>
	</g>
	<g>
		<polygon style="fill:#A1F7F2;" points="130.8,465.5 80.3,465.5 84.3,448 134.8,448 		"/>
		<g style="enable-background:new    ;">
			<path d="M90.7,453.6v-1c1.1,0.1,2.5,0.1,4.5,0.1v-0.6c0-0.3,0-0.8-0.1-1c0.5,0.1,0.9,0.1,1.2,0.1c0.2,0,0.2,0,0.1,0.2
				c-0.1,0.1-0.2,0.5-0.2,0.9v0.5c1.9,0,3.3,0,4.3-0.1v1c-0.4,0-1.9-0.1-3.4-0.1c1,1.1,1.9,1.6,4,1.9c-0.2,0.4-0.3,0.7-0.3,1.1
				c-2.4-0.7-3.8-1.5-4.4-3h-0.1v0.9c0,0.5,0,1.1,0.1,1.5H95c0-0.4,0.1-0.9,0.1-1.5v-0.9c-0.7,1.3-1.6,2-4.3,3.2
				c-0.1-0.3-0.4-0.6-0.7-0.8c2-0.5,3.5-1.5,4.1-2.4C93,453.6,91.1,453.6,90.7,453.6z M90.4,459.9v-1c1.2,0.1,2.7,0.1,4.8,0.1v-0.8
				c0.7-0.3,1.2-0.6,1.6-0.9h-3.3c-0.5,0-0.9,0-1.4,0v-0.9c1,0.1,1.7,0.1,3.4,0.1c2.1,0,2.9,0,3.4-0.1v0.9c-0.4,0-0.8,0.1-2.6,1.3
				v0.4c1.9,0,3.4,0,4.5-0.1v1c-1.1-0.1-2.5-0.1-4.5-0.1v1.3c0,0.6-0.1,0.9-2.1,1.2c0-0.3-0.1-0.7-0.4-1.2c1.2,0.1,1.4,0,1.4-0.4
				v-0.9C93.1,459.8,91.6,459.8,90.4,459.9z"/>
			<path d="M113,460.5c-0.3,0.2-0.6,0.7-0.8,1.2c-1.4-0.8-2.4-2.4-2.7-3.9c-0.3,0.2-0.5,0.3-0.8,0.5c0.3,0.9,0.3,1.6,0.2,2.2
				c-0.2,1-0.6,1.3-2.1,1.7c0-0.4-0.2-0.9-0.5-1.2c1,0.1,1.5-0.2,1.7-0.8c0.1-0.5,0.1-1,0-1.5c-1.3,1.3-3.3,2.5-4.9,3.1
				c-0.2-0.4-0.4-0.7-0.7-0.9c1.6-0.1,4.1-1.6,5.3-2.9c-0.1-0.2-0.2-0.3-0.3-0.5c-1.1,1-2.4,1.8-4.1,2.4c-0.1-0.3-0.4-0.6-0.7-0.8
				c1.7-0.4,3.3-1.1,4.3-2.1c-0.1-0.1-0.3-0.3-0.5-0.5c-0.9,0.6-2.1,1-3.2,1.4c-0.2-0.3-0.3-0.5-0.6-0.8c1.7-0.3,3.4-1.1,4.4-1.9
				c-0.9,0-1.7,0-2.2,0.1v-0.9c0.7,0.1,1.7,0.1,3,0.1c1.3,0,2.3,0,3-0.1v0.9c-0.6,0-1.4-0.1-2.5-0.1c-0.3,0.3-0.7,0.6-1,0.9
				c0.5,0.4,1,0.9,1.3,1.6c1.1-0.7,1.9-1.3,2.4-1.9c0.2,0.3,0.6,0.6,0.9,0.7c0.1,0.1,0.1,0.2-0.1,0.2c-0.1,0-0.6,0.3-1.4,0.8
				C110.5,458.7,111.2,459.7,113,460.5z M106.8,451.4l1.2-0.2c0.1,0.5,0.2,0.8,0.4,1.3c2.3,0,3.2,0,4-0.1v2.5h-1v-1.6h-7.6v1.7h-1
				v-2.6c0.8,0,1.8,0.1,4.4,0.1C107.1,452.1,106.9,451.7,106.8,451.4z"/>
			<path d="M118.2,452.9v0.9c-0.4,0-0.9-0.1-2.3-0.1c-0.3,0.5-0.8,1.2-1.2,1.9c-0.1-0.4-0.3-0.7-0.5-0.9c0.7-0.7,1.5-2.3,1.8-3.5
				c0.3,0.2,0.6,0.3,0.9,0.4c0.3,0.1,0.3,0.2,0,0.4c-0.1,0.1-0.2,0.3-0.6,1C117.3,452.9,117.8,452.9,118.2,452.9z M114.4,458.1v-1
				c0.3,0,0.8,0.1,1.3,0.1v-1.4c-0.2,0-0.3,0-0.5,0.1v-1c0.3,0.1,0.7,0.1,1.3,0.1c0.6,0,1.3,0,1.6-0.1v1c-0.3,0-0.9-0.1-1.5-0.1v1.4
				c0.8,0,1.3,0,1.7-0.1v1c-0.4-0.1-1-0.1-1.7-0.1v2.3c0.5-0.3,0.7-0.5,1.2-0.9c0,0.4,0,0.7,0.2,0.9l-1.4,1.2
				c-0.2,0.2-0.4,0.4-0.6,0.6c-0.2-0.3-0.4-0.6-0.7-0.9c0.3-0.3,0.5-0.6,0.5-1.2V458C115.1,458,114.7,458.1,114.4,458.1z
				 M118.5,462.2c-0.1-0.3-0.3-0.5-0.6-0.7c0.9-0.3,1.6-0.7,2.4-1.4c0.2,0.2,0.5,0.5,0.7,0.6c0.2,0.1,0.1,0.2-0.1,0.2
				C120.6,461,119.6,461.5,118.5,462.2z M119.1,455c0-0.4,0-1-0.1-1.3c0.4,0,1,0.1,1.9,0.1c0-0.2,0-0.5,0-0.8c-1.1,0-1.8,0-2.5,0.1
				v-0.9c0.6,0.1,1.4,0.1,2.5,0.1c0-0.5,0-0.9-0.1-1.1c0.3,0.1,0.9,0.1,1.1,0.1c0.2,0,0.2,0.1,0.1,0.3c0,0-0.1,0.3-0.2,0.8
				c1.3,0,2.2,0,2.9-0.1v0.9c-0.7-0.1-1.7-0.1-3-0.1c0,0.3,0,0.5-0.1,0.8c1.1,0,1.8,0,2.3-0.1c0,0.3-0.1,0.9-0.1,1.3v4.2
				c0.4,0,0.7,0,1,0v0.8c-0.6-0.1-0.9-0.1-3.3-0.1c-2.3,0-2.8,0-3.3,0.1v-0.8c0.2,0,0.4,0,0.8,0V455z M123.1,454.4H120v0.7h3.1
				V454.4z M120,456.5h3.1v-0.7H120V456.5z M120,457.9h3.1v-0.7H120V457.9z M123.1,458.5H120v0.8h3.1V458.5z M124.2,462.1
				c-0.7-0.5-1.5-1-2.3-1.4l0.5-0.6c0.7,0.3,1.6,0.8,2.3,1.2L124.2,462.1z"/>
		</g>
	</g>
	<g>
		<polygon style="fill:#A1F7F2;" points="212.4,506.4 161.9,506.4 165.9,488.9 216.4,488.9 		"/>
		<g style="enable-background:new    ;">
			<path d="M176.5,499.8c-0.6,1.1-1.8,2.1-3.6,3c-0.3-0.4-0.6-0.7-1-0.9c1.5-0.5,2.4-1,3.4-2c0.7-0.7,1.1-1.9,1.2-3.6
				c-1.8,0-3.1,0-4.1,0.1v-1.2c1,0.1,2.4,0.1,4.2,0.1c0.1-1.5,0.1-2.4,0-3.1c0.5,0.1,1,0.1,1.4,0.1c0.2,0,0.2,0.1,0,0.2
				c-0.1,0.1-0.2,0.3-0.2,0.7c0,0.8-0.1,1.5-0.1,2.1c1.9,0,3.4,0,4.4-0.1v1.2c-1.1-0.1-2.5-0.1-4.5-0.1c0.3,1.4,1,2.8,2.1,3.8
				c0.7,0.7,1.8,1.3,2.8,1.4c-0.5,0.3-0.8,0.7-1,1.3c-1.1-0.5-2.2-1.5-2.8-2.4c-0.6-0.8-0.9-1.6-1.3-2.8
				C177.1,498.5,176.9,499.1,176.5,499.8z"/>
			<path d="M193.7,495.2v6.2c0,1.3-0.1,1.3-1.8,1.6c-0.1-0.5-0.2-0.9-0.6-1.3c1.3,0.1,1.5,0,1.5-0.5v-7.4H186v8.9h-1.1
				c0.1-1.1,0.2-2.5,0.2-3.9v-3.6c0-0.9,0-2.1,0-2.5c0.7,0.1,1.7,0.1,4.4,0.1c2.7,0,3.7,0,4.4-0.1
				C193.7,493.1,193.7,494.2,193.7,495.2z M189.3,495.9c-1.2,0-2,0-2.6,0.1v-1.1c0.7,0.1,1.4,0.1,2.6,0.1s2,0,2.6-0.1v1.1
				C191.3,496,190.6,495.9,189.3,495.9z M189.3,500.5c-0.8,0-1.6,0-2,0c0-0.3,0-1,0-1.7s0-1.4,0-1.7c0.4,0,1.3,0,2,0
				c0.8,0,1.6,0,2,0c0,0.3,0,1,0,1.7c0,0.7,0,1.4,0,1.7C191,500.5,190.1,500.5,189.3,500.5z M190.4,498h-2.1v1.7h2.1V498z"/>
			<path d="M199.9,493.8v0.9c-0.4,0-0.9-0.1-2.3-0.1c-0.3,0.5-0.8,1.2-1.2,1.9c-0.1-0.4-0.3-0.7-0.5-0.9c0.7-0.7,1.5-2.3,1.8-3.5
				c0.3,0.2,0.6,0.3,0.9,0.4c0.3,0.1,0.3,0.2,0,0.4c-0.1,0.1-0.2,0.3-0.6,1C199,493.9,199.5,493.8,199.9,493.8z M196,499v-1
				c0.3,0,0.8,0.1,1.3,0.1v-1.4c-0.2,0-0.3,0-0.5,0.1v-1c0.3,0.1,0.7,0.1,1.3,0.1c0.6,0,1.3,0,1.6-0.1v1c-0.3,0-0.9-0.1-1.5-0.1v1.4
				c0.8,0,1.3,0,1.7-0.1v1c-0.4-0.1-1-0.1-1.7-0.1v2.3c0.5-0.3,0.7-0.5,1.2-0.9c0,0.4,0,0.7,0.2,0.9l-1.4,1.2
				c-0.2,0.2-0.4,0.4-0.6,0.6c-0.2-0.3-0.4-0.6-0.7-0.9c0.3-0.3,0.5-0.6,0.5-1.2v-1.9C196.8,498.9,196.4,499,196,499z M200.2,503.1
				c-0.1-0.3-0.3-0.5-0.6-0.7c0.9-0.3,1.6-0.7,2.4-1.4c0.2,0.2,0.5,0.5,0.7,0.6c0.2,0.1,0.1,0.2-0.1,0.2
				C202.3,501.9,201.3,502.4,200.2,503.1z M200.8,495.9c0-0.4,0-1-0.1-1.3c0.4,0,1,0.1,1.9,0.1c0-0.2,0-0.5,0-0.8
				c-1.1,0-1.8,0-2.5,0.1v-0.9c0.6,0.1,1.4,0.1,2.5,0.1c0-0.5,0-0.9-0.1-1.1c0.3,0.1,0.9,0.1,1.1,0.1c0.2,0,0.2,0.1,0.1,0.3
				c0,0-0.1,0.3-0.2,0.8c1.3,0,2.2,0,2.9-0.1v0.9c-0.7-0.1-1.7-0.1-3-0.1c0,0.3,0,0.5-0.1,0.8c1.1,0,1.8,0,2.3-0.1
				c0,0.3-0.1,0.9-0.1,1.3v4.2c0.4,0,0.7,0,1,0v0.8c-0.6-0.1-0.9-0.1-3.3-0.1c-2.3,0-2.8,0-3.3,0.1v-0.8c0.2,0,0.4,0,0.8,0V495.9z
				 M204.8,495.3h-3.1v0.7h3.1V495.3z M201.6,497.4h3.1v-0.7h-3.1V497.4z M201.6,498.8h3.1V498h-3.1V498.8z M204.8,499.4h-3.1v0.8
				h3.1V499.4z M205.9,503c-0.7-0.5-1.5-1-2.3-1.4l0.5-0.6c0.7,0.3,1.6,0.8,2.3,1.2L205.9,503z"/>
		</g>
	</g>
	<g>
		<polygon style="fill:#A1F7F2;" points="299.4,470 248.9,470 252.9,452.5 303.4,452.5 		"/>
		<g style="enable-background:new    ;">
			<path d="M259.6,458.5c0-0.6,0-1.2-0.1-1.5c0.3,0,0.6,0.1,1.1,0.1c0.1-0.4,0.1-0.8,0.1-1.3c0.4,0.1,0.9,0.2,1.2,0.2
				c0.2,0,0.2,0.1,0.1,0.2c-0.1,0.1-0.3,0.3-0.5,1c0.7,0,1.4,0,1.8-0.1c-0.1,0.3-0.1,0.8-0.1,1.5v6.5c0,0.6-0.2,0.8-1.5,1.1
				c0-0.3-0.2-0.7-0.3-1c0.7,0.1,1,0,1-0.4v-3.2h-1.8c0,2.4-0.2,3.8-0.8,5.3c-0.1-0.3-0.5-0.6-0.8-0.8c0.6-1.1,0.7-2.2,0.7-4.5
				c-0.3,0-0.5,0-0.8,0.1v-0.9c0.2,0,0.5,0.1,0.8,0.1V458.5z M262.3,457.8h-1.8v2.9h1.8V457.8z M260.9,460.1c0-0.6,0-1,0-1.5h0.7
				c0,0.5,0,0.9,0.1,1.5L260.9,460.1z M260.9,464c0.1-0.7,0.1-1.2,0.1-1.8h0.7c0,0.6,0,1.2,0.1,1.8H260.9z M268.1,466.2
				c-1.1,0-1.2-0.1-1.2-1.4v-4.2h-1.6c0,1.8,0,2.3-0.1,3.2c-0.2,1.2-0.7,2.3-1.5,3c-0.2-0.2-0.6-0.4-1-0.5c1-0.6,1.5-1.8,1.7-3
				c0.1-1,0.1-1.9,0.1-3.6c0.6,0,1.2,0.1,1.8,0.1c0.6,0,1.2,0,1.8-0.1c-0.1,0.5-0.1,1-0.1,1.4v3.6c0,0.6,0.1,0.7,0.4,0.7
				c0.3,0,0.5-0.2,0.7-1.5c0.2,0.4,0.7,0.7,0.9,0.7C269.4,466.2,269.3,466.2,268.1,466.2z M266.5,458.5c-1.3,0-2.3,0-3,0.1v-1
				c0.7,0.1,1.7,0.1,3,0.1s2.3,0,3-0.1v1C268.8,458.5,267.8,458.5,266.5,458.5z M265.9,457.4c-0.2-0.5-0.4-1-0.6-1.4l1.1-0.4
				c0.3,0.5,0.5,0.9,0.7,1.5L265.9,457.4z"/>
			<path d="M272.6,466.6c-0.2-0.3-0.6-0.8-1-1.1c2.9-0.7,4.2-1.6,4.7-3.1c-2.2,0-4,0-5.1,0.1v-1.2c1.2,0.1,3,0.1,5.4,0.1
				c0.2-1.4,0.4-4.7,0.3-5.8c0.5,0.1,1,0.2,1.4,0.2c0.2,0,0.2,0.2,0,0.3c-0.1,0-0.2,0.5-0.3,1c-0.1,0.9-0.3,3.3-0.5,4.3
				c1.7,0,2.9,0,3.9-0.1v1.2c-1-0.1-2.3-0.1-4.1-0.1C276.8,464.5,275.7,465.5,272.6,466.6z M274.2,461c-0.5-0.5-1.5-1.2-2.2-1.5
				l0.7-0.8c0.7,0.4,1.6,1,2.2,1.4L274.2,461z M275.4,458.8c-0.5-0.5-1.5-1.1-2.2-1.5l0.7-0.8c0.7,0.4,1.7,1,2.2,1.4L275.4,458.8z
				 M280.3,466.5c-0.6-0.8-1.8-1.9-2.7-2.5l0.7-0.7c0.9,0.6,2.1,1.6,2.9,2.3L280.3,466.5z"/>
			<path d="M286.9,457.4v0.9c-0.4,0-0.9-0.1-2.3-0.1c-0.3,0.5-0.8,1.2-1.2,1.9c-0.1-0.4-0.3-0.7-0.5-0.9c0.7-0.7,1.5-2.3,1.8-3.5
				c0.3,0.2,0.6,0.3,0.9,0.4c0.3,0.1,0.3,0.2,0,0.4c-0.1,0.1-0.2,0.3-0.6,1C286,457.4,286.5,457.4,286.9,457.4z M283,462.6v-1
				c0.3,0,0.8,0.1,1.3,0.1v-1.4c-0.2,0-0.3,0-0.5,0.1v-1c0.3,0.1,0.7,0.1,1.3,0.1c0.6,0,1.3,0,1.6-0.1v1c-0.3,0-0.9-0.1-1.5-0.1v1.4
				c0.8,0,1.3,0,1.7-0.1v1c-0.4-0.1-1-0.1-1.7-0.1v2.3c0.5-0.3,0.7-0.5,1.2-0.9c0,0.4,0,0.7,0.2,0.9l-1.4,1.2
				c-0.2,0.2-0.4,0.4-0.6,0.6c-0.2-0.3-0.4-0.6-0.7-0.9c0.3-0.3,0.5-0.6,0.5-1.2v-1.9C283.8,462.5,283.4,462.6,283,462.6z
				 M287.2,466.7c-0.1-0.3-0.3-0.5-0.6-0.7c0.9-0.3,1.6-0.7,2.4-1.4c0.2,0.2,0.5,0.5,0.7,0.6c0.2,0.1,0.1,0.2-0.1,0.2
				C289.3,465.4,288.3,466,287.2,466.7z M287.8,459.5c0-0.4,0-1-0.1-1.3c0.4,0,1,0.1,1.9,0.1c0-0.2,0-0.5,0-0.8
				c-1.1,0-1.8,0-2.5,0.1v-0.9c0.6,0.1,1.4,0.1,2.5,0.1c0-0.5,0-0.9-0.1-1.1c0.3,0.1,0.9,0.1,1.1,0.1c0.2,0,0.2,0.1,0.1,0.3
				c0,0-0.1,0.3-0.2,0.8c1.3,0,2.2,0,2.9-0.1v0.9c-0.7-0.1-1.7-0.1-3-0.1c0,0.3,0,0.5-0.1,0.8c1.1,0,1.8,0,2.3-0.1
				c0,0.3-0.1,0.9-0.1,1.3v4.2c0.4,0,0.7,0,1,0v0.8c-0.6-0.1-0.9-0.1-3.3-0.1c-2.3,0-2.8,0-3.3,0.1v-0.8c0.2,0,0.4,0,0.8,0V459.5z
				 M291.8,458.9h-3.1v0.7h3.1V458.9z M288.6,461h3.1v-0.7h-3.1V461z M288.6,462.3h3.1v-0.7h-3.1V462.3z M291.8,463h-3.1v0.8h3.1
				V463z M292.9,466.6c-0.7-0.5-1.5-1-2.3-1.4l0.5-0.6c0.7,0.3,1.6,0.8,2.3,1.2L292.9,466.6z"/>
		</g>
	</g>
	<g>
		<polygon style="fill:#A1F7F2;" points="347.8,424.5 297.3,424.5 301.3,407 351.8,407 		"/>
		<g style="enable-background:new    ;">
			<path d="M308.1,412.5v-1c1,0.1,2,0.1,3.6,0.1c0-0.4,0.1-0.9,0.1-1.3c0.4,0.1,0.7,0.2,1.2,0.2c0.2,0,0.3,0.1,0.1,0.3
				c-0.1,0.1-0.2,0.3-0.3,0.9c2.3,0,3.5,0,4.5-0.1v1.1c-1.1-0.1-2.3-0.2-4.7-0.2c0,0.3-0.1,0.6-0.2,0.9c2.2,0,3.1,0,4.1-0.1v1
				c-1-0.1-1.9-0.1-4.2-0.1c-0.1,0.4-0.2,0.7-0.3,1h2.1c1.6,0,3.2,0,3.8-0.1v1c-0.4,0-1.2-0.1-2.1-0.1v1.3c0.8,0,1.4-0.1,1.8-0.1v1
				c-0.4-0.1-1.1-0.1-1.8-0.1v2c0,0.8-0.2,0.9-2.1,1.2c0-0.4-0.2-0.9-0.4-1.2c1.3,0.2,1.6,0,1.6-0.4v-1.7h-1.4c-1,0-1.8,0-2.4,0.1
				v-1c-0.7,1.1-1.5,2.1-2.7,3c-0.3-0.3-0.7-0.6-1.1-0.7c1.6-0.9,2.7-2.1,3.4-3.6c-1.3,0-2.6,0-3.1,0.1v-1c0.6,0.1,1.9,0.1,3.4,0.1
				c0.1-0.3,0.2-0.7,0.3-1c-1.3,0-2,0.1-2.9,0.2v-1.1c0.9,0.1,1.6,0.1,3,0.1c0.1-0.3,0.1-0.6,0.2-0.9
				C310,412.3,309.1,412.4,308.1,412.5z M311.1,417c0.6,0.1,1.3,0.1,2.3,0.1h1.4v-1.3h-3.1C311.5,416.2,311.3,416.6,311.1,417z
				 M312.3,418.3c0.2,0.3,0.4,0.8,0.6,1.2l-1,0.5c-0.1-0.5-0.2-0.9-0.5-1.3L312.3,418.3z"/>
			<path d="M321.4,421.2h-1.1c0.1-0.4,0.1-0.8,0.1-1.3v-2.6c0-0.5,0-1-0.1-1.4c0.5,0,2.5,0.1,4.4,0.1s3.9,0,4.4-0.1
				c0,0.4-0.1,0.8-0.1,1.4v2.4c0,0.5,0,1,0.1,1.3H328v-0.6h-6.6V421.2z M328.2,411.8v2.5c0,0.3,0,0.7,0.1,0.9
				c-0.6,0-2.1-0.1-3.7-0.1s-3,0-3.6,0.1c0-0.1,0.1-0.6,0.1-0.9v-2.5c0-0.3,0-0.7-0.1-0.9c0.6,0,1.9,0.1,3.6,0.1s3.2,0,3.7-0.1
				C328.2,411.1,328.2,411.5,328.2,411.8z M328,416.7h-6.6v1h6.6V416.7z M328,418.5h-6.6v1.2h6.6V418.5z M327.2,411.8h-5.3v1h5.3
				V411.8z M321.9,414.4h5.3v-0.9h-5.3V414.4z"/>
			<path d="M335.3,411.9v0.9c-0.4,0-0.9-0.1-2.3-0.1c-0.3,0.5-0.8,1.2-1.2,1.9c-0.1-0.4-0.3-0.7-0.5-0.9c0.7-0.7,1.5-2.3,1.8-3.5
				c0.3,0.2,0.6,0.3,0.9,0.4c0.3,0.1,0.3,0.2,0,0.4c-0.1,0.1-0.2,0.3-0.6,1C334.4,412,334.9,412,335.3,411.9z M331.4,417.1v-1
				c0.3,0,0.8,0.1,1.3,0.1v-1.4c-0.2,0-0.3,0-0.5,0.1v-1c0.3,0.1,0.7,0.1,1.3,0.1c0.6,0,1.3,0,1.6-0.1v1c-0.3,0-0.9-0.1-1.5-0.1v1.4
				c0.8,0,1.3,0,1.7-0.1v1c-0.4-0.1-1-0.1-1.7-0.1v2.3c0.5-0.3,0.7-0.5,1.2-0.9c0,0.4,0,0.7,0.2,0.9l-1.4,1.2
				c-0.2,0.2-0.4,0.4-0.6,0.6c-0.2-0.3-0.4-0.6-0.7-0.9c0.3-0.3,0.5-0.6,0.5-1.2v-1.9C332.2,417.1,331.8,417.1,331.4,417.1z
				 M335.6,421.2c-0.1-0.3-0.3-0.5-0.6-0.7c0.9-0.3,1.6-0.7,2.4-1.4c0.2,0.2,0.5,0.5,0.7,0.6c0.2,0.1,0.1,0.2-0.1,0.2
				C337.7,420,336.7,420.5,335.6,421.2z M336.2,414c0-0.4,0-1-0.1-1.3c0.4,0,1,0.1,1.9,0.1c0-0.2,0-0.5,0-0.8c-1.1,0-1.8,0-2.5,0.1
				v-0.9c0.6,0.1,1.4,0.1,2.5,0.1c0-0.5,0-0.9-0.1-1.1c0.3,0.1,0.9,0.1,1.1,0.1c0.2,0,0.2,0.1,0.1,0.3c0,0-0.1,0.3-0.2,0.8
				c1.3,0,2.2,0,2.9-0.1v0.9c-0.7-0.1-1.7-0.1-3-0.1c0,0.3,0,0.5-0.1,0.8c1.1,0,1.8,0,2.3-0.1c0,0.3-0.1,0.9-0.1,1.3v4.2
				c0.4,0,0.7,0,1,0v0.8c-0.6-0.1-0.9-0.1-3.3-0.1c-2.3,0-2.8,0-3.3,0.1v-0.8c0.2,0,0.4,0,0.8,0V414z M340.2,413.5H337v0.7h3.1
				V413.5z M337,415.5h3.1v-0.7H337V415.5z M337,416.9h3.1v-0.7H337V416.9z M340.2,417.5H337v0.8h3.1V417.5z M341.3,421.1
				c-0.7-0.5-1.5-1-2.3-1.4l0.5-0.6c0.7,0.3,1.6,0.8,2.3,1.2L341.3,421.1z"/>
		</g>
	</g>
	<g>
		<polygon style="fill:#A1F7F2;" points="399.2,205.8 348.7,205.8 352.7,188.3 403.2,188.3 		"/>
		<g style="enable-background:new    ;">
			<path d="M360.3,197.4c-0.2,0-1.2,0-1.5,0v-1c0.3,0,0.8,0.1,1.3,0.1s1,0,1.3-0.1c-0.1,0.4-0.1,0.7-0.1,1.3v2.2
				c0.1,0.1,0.3,0.2,0.6,0.4c1,0.7,3.9,0.8,7.5,0.3c-0.2,0.5-0.3,0.7-0.3,1.2c-4.1,0.1-6.6,0-7.6-0.8c-0.6-0.4-0.7-0.4-1.8,0.9
				c-0.2-0.3-0.5-0.6-0.8-0.9c0.6-0.5,1.2-0.9,1.5-1.1V197.4z M365.3,191.5c0.3,0,0.8,0.1,1.1,0.1c0.2,0,0.2,0.1,0.1,0.2
				c-0.1,0.1-0.1,0.1-0.1,0.3v0.7c1.1,0,2.1,0,2.8-0.1v1c-0.7-0.1-1.7-0.1-2.8-0.1v0.9h-0.9v-0.9h-2.6v1h-0.9v-1
				c-1.2,0-2.3,0.1-3,0.1v-1c0.8,0.1,1.8,0.1,3,0.1c0-0.4,0-0.8-0.1-1.1c0.3,0,0.8,0.1,1.1,0.1c0.1,0,0.2,0.1,0,0.2
				c-0.1,0.1-0.1,0.1-0.1,0.2v0.6h2.6C365.4,192.2,365.3,191.8,365.3,191.5z M360.3,195.9c-0.1-0.6-0.3-1-0.5-1.5l1-0.3
				c0.2,0.4,0.4,0.9,0.6,1.5L360.3,195.9z M362,195.7v-0.9c0.5,0,1.3,0.1,2,0.1c0.1-0.3,0.2-0.6,0.2-0.9c0.4,0.2,0.9,0.3,1,0.4
				c0.2,0,0.2,0.1,0,0.2c0,0-0.2,0.2-0.3,0.4c1.4,0,2.8,0,3.6-0.1v0.9c-0.8-0.1-2.5-0.1-4-0.1l-0.7,1.4h1.5c0-0.5,0-0.7-0.1-1
				c0.4,0.1,0.7,0.1,1.1,0.1c0.3,0,0.3,0.1,0.1,0.2c-0.2,0.1-0.2,0.3-0.2,0.6c1.2,0,2,0,2.5-0.1v0.9c-0.5,0-1.3,0-2.5,0v1.1
				c1.3,0,2.2,0,2.9-0.1v0.9c-0.7,0-1.7-0.1-2.9-0.1c0,0.4,0,0.8,0.1,1.2h-1.1c0.1-0.5,0.1-0.9,0.1-1.2c-1.4,0-2.5,0-3.3,0.1v-0.9
				c0.8,0.1,1.9,0.1,3.3,0.1v-1.1c-1.4,0-2.1,0-2.7,0.2c0-0.3-0.1-0.6-0.2-0.9c0.3-0.1,0.6-0.4,1.1-1.4
				C363.1,195.7,362.5,195.7,362,195.7z"/>
			<path d="M371.3,199c-0.2-0.3-0.5-0.6-0.8-0.9c1.5-0.7,2.8-2.2,3.2-3.1c0.3,0.2,0.6,0.4,0.8,0.5c0.3,0.2,0.3,0.3,0.1,0.4
				c-0.1,0-0.5,0.4-0.8,0.7v5.8h-1.2c0.1-0.7,0.1-1.7,0.1-2.6v-2.1C372.3,198.2,371.8,198.7,371.3,199z M377,192.9
				c0-0.7,0-1.2-0.1-1.5c0.3,0,0.8,0.1,1.1,0.1c0.1,0,0.2,0.1,0,0.2c-0.1,0.1-0.1,0.1-0.1,0.3v1c1.4,0,2.5,0,3.3-0.1v1.1
				c-0.8-0.1-2-0.1-3.3-0.1v0.9H377v-0.9h-2.3v1.1h-0.9v-1.1c-1.1,0-2.1,0-2.8,0.1v-1.1c0.7,0.1,1.7,0.1,2.8,0.1c0-0.6,0-1-0.1-1.4
				c0.3,0,0.8,0.1,1.1,0.1c0.1,0,0.2,0.1,0,0.2c-0.1,0.1-0.1,0.1-0.1,0.3v0.9H377z M374.9,200.3c-0.1-0.3-0.4-0.6-0.7-0.8
				c0.8-0.3,1.5-0.6,2.1-1v-1.9c0-0.6,0-1.1-0.1-1.5c0.4,0,0.9,0.1,1.3,0.1c0.2,0,0.3,0.1,0.1,0.3c-0.1,0.1-0.2,0.3-0.2,0.5v1.8
				c0.8-0.6,1.5-1.3,2.2-2.2c0.3,0.3,0.6,0.5,0.9,0.7c0.2,0.1,0.2,0.2,0,0.2c-0.1,0-0.4,0.2-0.7,0.4c-0.9,0.8-1.7,1.5-2.4,2v1.7
				c0,0.5,0.2,0.6,1.3,0.6c1.2,0,1.5-0.2,1.7-1.5c0.3,0.4,0.7,0.7,1.1,0.7c-0.5,1.5-0.7,1.6-2.7,1.6c-2.1,0-2.3-0.1-2.3-1v-1.5
				C375.9,199.8,375.4,200,374.9,200.3z"/>
			<path d="M386.7,193.1v0.9c-0.4,0-0.9-0.1-2.3-0.1c-0.3,0.5-0.8,1.2-1.2,1.9c-0.1-0.4-0.3-0.7-0.5-0.9c0.7-0.7,1.5-2.3,1.8-3.5
				c0.3,0.2,0.6,0.3,0.9,0.4c0.3,0.1,0.3,0.2,0,0.4c-0.1,0.1-0.2,0.3-0.6,1C385.8,193.2,386.3,193.2,386.7,193.1z M382.8,198.4v-1
				c0.3,0,0.8,0.1,1.3,0.1v-1.4c-0.2,0-0.3,0-0.5,0.1v-1c0.3,0.1,0.7,0.1,1.3,0.1c0.6,0,1.3,0,1.6-0.1v1c-0.3,0-0.9-0.1-1.5-0.1v1.4
				c0.8,0,1.3,0,1.7-0.1v1c-0.4-0.1-1-0.1-1.7-0.1v2.3c0.5-0.3,0.7-0.5,1.2-0.9c0,0.4,0,0.7,0.2,0.9l-1.4,1.2
				c-0.2,0.2-0.4,0.4-0.6,0.6c-0.2-0.3-0.4-0.6-0.7-0.9c0.3-0.3,0.5-0.6,0.5-1.2v-1.9C383.6,198.3,383.2,198.3,382.8,198.4z
				 M387,202.5c-0.1-0.3-0.3-0.5-0.6-0.7c0.9-0.3,1.6-0.7,2.4-1.4c0.2,0.2,0.5,0.5,0.7,0.6c0.2,0.1,0.1,0.2-0.1,0.2
				C389.1,201.2,388.1,201.8,387,202.5z M387.6,195.3c0-0.4,0-1-0.1-1.3c0.4,0,1,0.1,1.9,0.1c0-0.2,0-0.5,0-0.8
				c-1.1,0-1.8,0-2.5,0.1v-0.9c0.6,0.1,1.4,0.1,2.5,0.1c0-0.5,0-0.9-0.1-1.1c0.3,0.1,0.9,0.1,1.1,0.1c0.2,0,0.2,0.1,0.1,0.3
				c0,0-0.1,0.3-0.2,0.8c1.3,0,2.2,0,2.9-0.1v0.9c-0.7-0.1-1.7-0.1-3-0.1c0,0.3,0,0.5-0.1,0.8c1.1,0,1.8,0,2.3-0.1
				c0,0.3-0.1,0.9-0.1,1.3v4.2c0.4,0,0.7,0,1,0v0.8c-0.6-0.1-0.9-0.1-3.3-0.1c-2.3,0-2.8,0-3.3,0.1v-0.8c0.2,0,0.4,0,0.8,0V195.3z
				 M391.6,194.7h-3.1v0.7h3.1V194.7z M388.4,196.7h3.1V196h-3.1V196.7z M388.4,198.1h3.1v-0.7h-3.1V198.1z M391.6,198.7h-3.1v0.8
				h3.1V198.7z M392.7,202.3c-0.7-0.5-1.5-1-2.3-1.4l0.5-0.6c0.7,0.3,1.6,0.8,2.3,1.2L392.7,202.3z"/>
		</g>
	</g>
	<g>
		<polygon style="fill:#A1F7F2;" points="484.9,291.7 434.4,291.7 438.4,274.2 488.9,274.2 		"/>
		<g style="enable-background:new    ;">
			<path d="M450,286.3c0,0.7,0,1.1,0.1,1.9h-1.3c0.1-0.8,0.1-1.2,0.1-1.9v-6.9c-1.9,0-3.1,0-4.2,0.1v-1.2c1.3,0.1,2.8,0.1,5.1,0.1
				c2.4,0,3.9,0,5.1-0.1v1.2c-1.2-0.1-2.7-0.1-5-0.1V286.3z M453.4,284.8c-0.9-1.2-1.7-2-2.9-2.9l0.8-0.7c1.6,1.2,2.3,1.9,3.1,2.8
				L453.4,284.8z"/>
			<path d="M458,282.5c-0.4-0.4-1.1-0.9-1.6-1.1l0.6-0.9c0.6,0.3,1.1,0.6,1.7,1L458,282.5z M458.2,286c-0.3,1.1-0.4,1.4-0.6,2
				c-0.4-0.3-0.8-0.5-1.2-0.7c0.3-0.6,0.6-1.2,0.9-1.9c0.2-0.5,0.5-1.2,0.6-2c0.2,0.2,0.6,0.4,0.9,0.6
				C458.6,284.5,458.5,285.1,458.2,286z M458.6,279.8c-0.5-0.5-1-0.9-1.5-1.2l0.7-0.8c0.5,0.3,1.1,0.7,1.6,1.1L458.6,279.8z
				 M464.4,278.9h-3.6c0,5.5-0.2,6.4-1.4,9c-0.3-0.2-0.6-0.4-1-0.4c1.3-2.3,1.6-4,1.3-9.5c0.3,0,1.3,0.1,3.5,0.1s3.2,0,3.5-0.1v1
				C466.4,278.9,465.4,278.9,464.4,278.9z M463.2,283.6c0.3,0.1,0.7,0.1,1.1,0.1c0.2,0,0.2,0.1,0.1,0.2c-0.1,0.1-0.2,0.3-0.2,0.7
				c0.8,0,1.5,0,1.9-0.1v1c-0.5,0-1.2-0.1-1.9-0.1v1.4c1.2,0,2,0,2.8-0.1v1c-0.8-0.1-1.7-0.1-3.1-0.1c-1.5,0-2.4,0-3.1,0.1v-1
				c0.6,0.1,1.5,0.1,2.6,0.1v-1.4c-0.7,0-1.3,0-1.7,0.1v-1c0.3,0.1,1,0.1,1.7,0.1C463.2,284.2,463.2,283.8,463.2,283.6z
				 M463.2,279.3c0.3,0,0.7,0.1,1.1,0.1c0.2,0,0.2,0.1,0.1,0.2c-0.2,0.1-0.2,0.3-0.2,0.8c0.7,0,1.2,0,1.9-0.1v1
				c-0.7-0.1-1.2-0.1-1.9-0.1v1.2c1.2,0,2,0,2.6-0.1v1c-0.6-0.1-1.5-0.1-2.8-0.1s-2.1,0-2.8,0.1v-1c0.6,0.1,1.2,0.1,2.1,0.1v-1.2
				c-0.6,0-1.1,0.1-1.7,0.1v-1c0.6,0.1,1.1,0.1,1.7,0.1C463.2,280,463.2,279.6,463.2,279.3z"/>
			<path d="M472.3,279v0.9c-0.4,0-0.9-0.1-2.3-0.1c-0.3,0.5-0.8,1.2-1.2,1.9c-0.1-0.4-0.3-0.7-0.5-0.9c0.7-0.7,1.5-2.3,1.8-3.5
				c0.3,0.2,0.6,0.3,0.9,0.4c0.3,0.1,0.3,0.2,0,0.4c-0.1,0.1-0.2,0.3-0.6,1C471.5,279.1,471.9,279.1,472.3,279z M468.5,284.3v-1
				c0.3,0,0.8,0.1,1.3,0.1v-1.4c-0.2,0-0.3,0-0.5,0.1v-1c0.3,0.1,0.7,0.1,1.3,0.1c0.6,0,1.3,0,1.6-0.1v1c-0.3,0-0.9-0.1-1.5-0.1v1.4
				c0.8,0,1.3,0,1.7-0.1v1c-0.4-0.1-1-0.1-1.7-0.1v2.3c0.5-0.3,0.7-0.5,1.2-0.9c0,0.4,0,0.7,0.2,0.9l-1.4,1.2
				c-0.2,0.2-0.4,0.4-0.6,0.6c-0.2-0.3-0.4-0.6-0.7-0.9c0.3-0.3,0.5-0.6,0.5-1.2v-1.9C469.3,284.2,468.9,284.2,468.5,284.3z
				 M472.7,288.4c-0.1-0.3-0.3-0.5-0.6-0.7c0.9-0.3,1.6-0.7,2.4-1.4c0.2,0.2,0.5,0.5,0.7,0.6c0.2,0.1,0.1,0.2-0.1,0.2
				C474.8,287.1,473.8,287.7,472.7,288.4z M473.2,281.2c0-0.4,0-1-0.1-1.3c0.4,0,1,0.1,1.9,0.1c0-0.2,0-0.5,0-0.8
				c-1.1,0-1.8,0-2.5,0.1v-0.9c0.6,0.1,1.4,0.1,2.5,0.1c0-0.5,0-0.9-0.1-1.1c0.3,0.1,0.9,0.1,1.1,0.1c0.2,0,0.2,0.1,0.1,0.3
				c0,0-0.1,0.3-0.2,0.8c1.3,0,2.2,0,2.9-0.1v0.9c-0.7-0.1-1.7-0.1-3-0.1c0,0.3,0,0.5-0.1,0.8c1.1,0,1.8,0,2.3-0.1
				c0,0.3-0.1,0.9-0.1,1.3v4.2c0.4,0,0.7,0,1,0v0.8c-0.6-0.1-0.9-0.1-3.3-0.1c-2.3,0-2.8,0-3.3,0.1v-0.8c0.2,0,0.4,0,0.8,0V281.2z
				 M477.2,280.6h-3.1v0.7h3.1V280.6z M474.1,282.6h3.1v-0.7h-3.1V282.6z M474.1,284h3.1v-0.7h-3.1V284z M477.2,284.6h-3.1v0.8h3.1
				V284.6z M478.4,288.2c-0.7-0.5-1.5-1-2.3-1.4l0.5-0.6c0.7,0.3,1.6,0.8,2.3,1.2L478.4,288.2z"/>
		</g>
	</g>
	<g>
		<polygon style="fill:#A1F7F2;" points="557.2,282.9 506.7,282.9 510.7,265.4 561.2,265.4 		"/>
		<g style="enable-background:new    ;">
			<path d="M517.3,276.6c-0.2-0.4-0.5-0.8-0.8-1c0.6-0.7,1.2-1.8,1.8-3.7v-0.2c-0.6,0-1,0-1.4,0.1v-0.9c0.4,0,0.8,0.1,1.4,0.1
				c0-1.4,0-1.8-0.1-2.3c0.4,0.1,0.7,0.1,1,0c0.2,0,0.3,0.1,0.1,0.3c-0.1,0.1-0.1,0.2-0.1,0.3v1.7c0.5,0,0.9,0,1.2-0.1v0.9
				c-0.3,0-0.7-0.1-1.2-0.1v5.5c0,0.6,0,1.5,0.1,2.3h-1.1c0.1-0.8,0.1-1.6,0.1-2.3V274C518,275,517.7,275.6,517.3,276.6z
				 M520.4,274.2l-0.6,0.5c-0.2-0.4-0.3-0.7-0.6-1.1l0.6-0.4C520.1,273.6,520.2,273.9,520.4,274.2z M520.8,272.9
				c-0.2-0.2-0.5-0.3-0.8-0.4c0.8-0.8,1.8-2.6,2.1-3.9c0.3,0.1,0.9,0.3,1.2,0.3c0.2,0,0.2,0.2,0,0.2c-0.1,0-0.2,0.1-0.6,0.9h2.7
				c0.7,0,1.4-0.1,1.8-0.1v1c-0.4,0-1.1-0.1-1.8-0.1h-3.2c-0.2,0.3-0.4,0.6-0.6,0.9c0.6,0,1,0.1,2.5,0.1c1.5,0,2,0,2.4-0.1l-0.1,2.7
				c0.4,0,0.8,0,1.1-0.1v0.9c-0.3,0-0.7-0.1-1.1-0.1l-0.1,2c0.4,0,0.8,0,1-0.1v1c-0.3,0-0.6-0.1-1-0.1c0,0.9-0.3,1.5-1.8,1.7
				c0-0.3-0.2-0.7-0.4-1c1.1,0.1,1.3-0.1,1.3-0.6h-2.7c-0.6,0-1,0-1.5,0.1l0.2-2.9c-0.3,0-0.5,0-0.8,0.1v-0.9c0.3,0,0.6,0.1,0.8,0.1
				l0.2-2.6C521.3,272.2,521,272.6,520.8,272.9z M522.2,275.2l-0.1,2h3.2l0-2H522.2z M525.4,274.4l0-1.8h-3.1l-0.1,1.8H525.4z
				 M523.9,275.6c0.3,0.4,0.4,0.7,0.5,1.1l-0.9,0.3c-0.1-0.3-0.2-0.8-0.4-1L523.9,275.6z M524,273c0.2,0.3,0.3,0.6,0.4,0.9l-0.9,0.3
				c0-0.3-0.2-0.7-0.4-0.9L524,273z"/>
			<path d="M531.6,276c-0.1,0.4-0.1,0.8-0.1,1c-2,0.7-2.5,0.9-2.8,1.1c-0.1-0.4-0.2-0.8-0.4-1.2c0.3,0,0.7-0.1,1.3-0.2v-3.6
				c-0.6,0-0.9,0-1.2,0.1v-1c0.2,0,0.6,0.1,1.2,0.1c0-2.1,0-2.4-0.1-3.1c0.5,0.1,0.8,0.1,1.2,0.1c0.2,0,0.2,0.1,0,0.2
				c-0.2,0.1-0.2,0.5-0.2,1v1.7c0.5,0,0.8,0,1-0.1v1c-0.2,0-0.5-0.1-1-0.1v3.4C530.9,276.2,531.3,276.1,531.6,276z M533,271.6v1.5
				c0.8,0,1.6,0,2.1,0c-0.1,0.4-0.1,0.8-0.1,1.1v1.5c0,1.7-0.1,1.8-1.5,2.2c-0.1-0.4-0.2-0.7-0.5-1.1c1,0,1.1,0,1.1-1.3V274H533
				c0,2.8-0.3,4.1-1.6,5.6c-0.3-0.3-0.4-0.3-1-0.6c1.3-1.1,1.6-1.8,1.7-3.9c0-1,0-2.7-0.1-4.5c0.6,0.1,1.9,0.1,3.3,0.1
				c-0.1-0.8-0.1-1.6-0.2-2.1c0.4,0.1,0.8,0.1,1.1,0.1c0.3,0,0.3,0,0.1,0.3c-0.1,0.1-0.1,0.9-0.1,1.8c1.3,0,2-0.1,2.6-0.1v1.1
				c-0.6-0.1-1.3-0.1-2.6-0.1c0.1,1.9,0.3,3.5,0.6,4.5c0.4-0.9,0.6-2.3,0.6-3.5c0.4,0.1,0.8,0.2,1.1,0.2c0.2,0,0.2,0.1,0.1,0.2
				c-0.1,0.1-0.2,0.4-0.5,1.5c-0.2,1.1-0.5,1.8-0.9,2.6c0.9,1.5,1.2,1.3,1.2,0c0.3,0.3,0.7,0.5,0.9,0.6c-0.4,1.5-0.7,1.8-1,1.8
				c-0.3,0-1.1-0.6-1.7-1.6c-0.5,0.6-1.1,1.1-1.9,1.8c-0.2-0.2-0.6-0.5-0.9-0.7c0.8-0.4,1.7-1.1,2.4-2c-0.4-1.1-0.7-2.4-1-5.3H533z
				 M537.5,270.5c-0.1-0.3-0.2-0.6-0.6-1.2l0.9-0.4c0.2,0.4,0.4,0.7,0.6,1.1L537.5,270.5z"/>
			<path d="M544.6,270.3v0.9c-0.4,0-0.9-0.1-2.3-0.1c-0.3,0.5-0.8,1.2-1.2,1.9c-0.1-0.4-0.3-0.7-0.5-0.9c0.7-0.7,1.5-2.3,1.8-3.5
				c0.3,0.2,0.6,0.3,0.9,0.4c0.3,0.1,0.3,0.2,0,0.4c-0.1,0.1-0.2,0.3-0.6,1C543.8,270.3,544.2,270.3,544.6,270.3z M540.8,275.5v-1
				c0.3,0,0.8,0.1,1.3,0.1v-1.4c-0.2,0-0.3,0-0.5,0.1v-1c0.3,0.1,0.7,0.1,1.3,0.1c0.6,0,1.3,0,1.6-0.1v1c-0.3,0-0.9-0.1-1.5-0.1v1.4
				c0.8,0,1.3,0,1.7-0.1v1c-0.4-0.1-1-0.1-1.7-0.1v2.3c0.5-0.3,0.7-0.5,1.2-0.9c0,0.4,0,0.7,0.2,0.9l-1.4,1.2
				c-0.2,0.2-0.4,0.4-0.6,0.6c-0.2-0.3-0.4-0.6-0.7-0.9c0.3-0.3,0.5-0.6,0.5-1.2v-1.9C541.6,275.4,541.1,275.5,540.8,275.5z
				 M544.9,279.6c-0.1-0.3-0.3-0.5-0.6-0.7c0.9-0.3,1.6-0.7,2.4-1.4c0.2,0.2,0.5,0.5,0.7,0.6c0.2,0.1,0.1,0.2-0.1,0.2
				C547.1,278.3,546.1,278.9,544.9,279.6z M545.5,272.4c0-0.4,0-1-0.1-1.3c0.4,0,1,0.1,1.9,0.1c0-0.2,0-0.5,0-0.8
				c-1.1,0-1.8,0-2.5,0.1v-0.9c0.6,0.1,1.4,0.1,2.5,0.1c0-0.5,0-0.9-0.1-1.1c0.3,0.1,0.9,0.1,1.1,0.1c0.2,0,0.2,0.1,0.1,0.3
				c0,0-0.1,0.3-0.2,0.8c1.3,0,2.2,0,2.9-0.1v0.9c-0.7-0.1-1.7-0.1-3-0.1c0,0.3,0,0.5-0.1,0.8c1.1,0,1.8,0,2.3-0.1
				c0,0.3-0.1,0.9-0.1,1.3v4.2c0.4,0,0.7,0,1,0v0.8c-0.6-0.1-0.9-0.1-3.3-0.1c-2.3,0-2.8,0-3.3,0.1v-0.8c0.2,0,0.4,0,0.8,0V272.4z
				 M549.5,271.8h-3.1v0.7h3.1V271.8z M546.4,273.9h3.1v-0.7h-3.1V273.9z M546.4,275.2h3.1v-0.7h-3.1V275.2z M549.5,275.9h-3.1v0.8
				h3.1V275.9z M550.7,279.5c-0.7-0.5-1.5-1-2.3-1.4l0.5-0.6c0.7,0.3,1.6,0.8,2.3,1.2L550.7,279.5z"/>
		</g>
	</g>
	<g>
		<polygon style="fill:#A1F7F2;" points="580.1,388.3 529.6,388.3 533.6,370.8 584.1,370.8 		"/>
		<g style="enable-background:new    ;">
			<path d="M544.2,381.7c-0.6,1.1-1.8,2.1-3.6,3c-0.3-0.4-0.6-0.7-1-0.9c1.5-0.5,2.4-1,3.4-2c0.7-0.7,1.1-1.9,1.2-3.6
				c-1.8,0-3.1,0-4.1,0.1v-1.2c1,0.1,2.4,0.1,4.2,0.1c0.1-1.5,0.1-2.4,0-3.1c0.5,0.1,1,0.1,1.4,0.1c0.2,0,0.2,0.1,0,0.2
				c-0.1,0.1-0.2,0.3-0.2,0.7c0,0.8-0.1,1.5-0.1,2.1c1.9,0,3.4,0,4.4-0.1v1.2c-1.1-0.1-2.5-0.1-4.5-0.1c0.3,1.4,1,2.8,2.1,3.8
				c0.7,0.7,1.8,1.3,2.8,1.4c-0.5,0.3-0.8,0.7-1,1.3c-1.1-0.5-2.2-1.5-2.8-2.4c-0.6-0.8-0.9-1.6-1.3-2.8
				C544.8,380.4,544.5,381,544.2,381.7z"/>
			<path d="M553.3,382.8c-0.2,0.6-0.4,1.4-0.5,2c-0.4-0.3-0.8-0.5-1.2-0.6c0.3-0.6,0.6-1.4,0.8-1.9c0.3-1,0.4-1.4,0.5-2.1
				c0.2,0.3,0.6,0.5,1,0.7C553.7,381.3,553.5,381.9,553.3,382.8z M553.4,379.5c-0.4-0.4-1.3-0.9-1.8-1.1l0.6-0.9
				c0.6,0.3,1.4,0.7,1.9,1L553.4,379.5z M553.7,376.5c-0.3-0.4-1.1-1-1.7-1.4l0.7-0.9c0.5,0.4,1.1,0.8,1.7,1.3L553.7,376.5z
				 M554.7,377.1V376c0.8,0.1,2.3,0.1,3.8,0.1c0.4-0.7,0.7-1.4,0.8-2.2c0.4,0.2,0.9,0.3,1.3,0.3c0.2,0,0.2,0.1,0,0.2
				c-0.1,0.1-0.5,0.6-1.2,1.6c1.1,0,1.7,0,2.4-0.1v1.1c-0.8-0.1-1.6-0.1-3.2-0.1v1.8c1.3,0,2.1,0,2.8-0.1v1.1
				c-0.7-0.1-1.6-0.1-2.8-0.1v1.8c1.5,0,2.6,0,3.4-0.1v1.1c-0.9-0.1-1.9-0.1-3.4-0.1c0,0.8,0.1,1.9,0.1,2.6h-1.3
				c0.1-0.7,0.1-1.9,0.1-2.6c-1.4,0-2.4,0-3.2,0.1v-1.1c0.8,0.1,1.9,0.1,3.2,0.1v-1.8c-1.1,0-2,0.1-2.6,0.1v-1.1
				c0.7,0.1,1.5,0.1,2.6,0.1V377C556.5,377,555.4,377.1,554.7,377.1z M556.7,376c-0.2-0.6-0.5-1.1-0.8-1.5l1-0.4
				c0.2,0.4,0.5,0.9,0.8,1.5L556.7,376z"/>
			<path d="M567.5,375.7v0.9c-0.4,0-0.9-0.1-2.3-0.1c-0.3,0.5-0.8,1.2-1.2,1.9c-0.1-0.4-0.3-0.7-0.5-0.9c0.7-0.7,1.5-2.3,1.8-3.5
				c0.3,0.2,0.6,0.3,0.9,0.4c0.3,0.1,0.3,0.2,0,0.4c-0.1,0.1-0.2,0.3-0.6,1C566.7,375.7,567.1,375.7,567.5,375.7z M563.7,380.9v-1
				c0.3,0,0.8,0.1,1.3,0.1v-1.4c-0.2,0-0.3,0-0.5,0.1v-1c0.3,0.1,0.7,0.1,1.3,0.1c0.6,0,1.3,0,1.6-0.1v1c-0.3,0-0.9-0.1-1.5-0.1v1.4
				c0.8,0,1.3,0,1.7-0.1v1c-0.4-0.1-1-0.1-1.7-0.1v2.3c0.5-0.3,0.7-0.5,1.2-0.9c0,0.4,0,0.7,0.2,0.9l-1.4,1.2
				c-0.2,0.2-0.4,0.4-0.6,0.6c-0.2-0.3-0.4-0.6-0.7-0.9c0.3-0.3,0.5-0.6,0.5-1.2v-1.9C564.5,380.8,564.1,380.8,563.7,380.9z
				 M567.9,385c-0.1-0.3-0.3-0.5-0.6-0.7c0.9-0.3,1.6-0.7,2.4-1.4c0.2,0.2,0.5,0.5,0.7,0.6c0.2,0.1,0.1,0.2-0.1,0.2
				C570,383.7,569,384.3,567.9,385z M568.4,377.8c0-0.4,0-1-0.1-1.3c0.4,0,1,0.1,1.9,0.1c0-0.2,0-0.5,0-0.8c-1.1,0-1.8,0-2.5,0.1
				V375c0.6,0.1,1.4,0.1,2.5,0.1c0-0.5,0-0.9-0.1-1.1c0.3,0.1,0.9,0.1,1.1,0.1c0.2,0,0.2,0.1,0.1,0.3c0,0-0.1,0.3-0.2,0.8
				c1.3,0,2.2,0,2.9-0.1v0.9c-0.7-0.1-1.7-0.1-3-0.1c0,0.3,0,0.5-0.1,0.8c1.1,0,1.8,0,2.3-0.1c0,0.3-0.1,0.9-0.1,1.3v4.2
				c0.4,0,0.7,0,1,0v0.8c-0.6-0.1-0.9-0.1-3.3-0.1c-2.3,0-2.8,0-3.3,0.1V382c0.2,0,0.4,0,0.8,0V377.8z M572.4,377.2h-3.1v0.7h3.1
				V377.2z M569.3,379.3h3.1v-0.7h-3.1V379.3z M569.3,380.6h3.1v-0.7h-3.1V380.6z M572.4,381.2h-3.1v0.8h3.1V381.2z M573.6,384.9
				c-0.7-0.5-1.5-1-2.3-1.4l0.5-0.6c0.7,0.3,1.6,0.8,2.3,1.2L573.6,384.9z"/>
		</g>
	</g>
	<g>
		<polygon style="fill:#A1F7F2;" points="707.7,303.1 657.2,303.1 661.2,285.6 711.7,285.6 		"/>
		<g style="enable-background:new    ;">
			<path d="M672.5,298.5c-2.3,0-3.8,0-5,0.1v-1.2c1.2,0.1,2.7,0.1,5,0.1s3.8,0,5-0.1v1.2C676.3,298.6,674.8,298.5,672.5,298.5z
				 M672.5,291.1c-1.9,0-3.1,0-4.2,0.1V290c1,0.1,2.2,0.1,4.2,0.1c1.9,0,3.1,0,4.1-0.1v1.2C675.6,291.2,674.4,291.1,672.5,291.1z
				 M672.4,294.6c-1.6,0-2.6,0-3.4,0.1v-1.2c0.9,0.1,1.8,0.1,3.4,0.1c1.6,0,2.6,0,3.4-0.1v1.2C675,294.7,674,294.6,672.4,294.6z"/>
			<path d="M683.6,290.1v1c-0.3,0-0.7-0.1-1.2-0.1v1.5h0.2c0.9-1,1.7-2.2,2.1-3.2c0.3,0.2,0.6,0.5,1,0.6c0.2,0.1,0.1,0.1,0,0.2
				c-0.1,0-0.4,0.3-0.7,0.7c-0.4,0.6-0.9,1.2-1.3,1.8c0.6,0,1.4-0.1,1.9-0.1v0.9c-0.6-0.1-1.4-0.1-2.5-0.1c-0.3,0.4-0.7,0.7-1.1,1.1
				h1.6c0.6,0,1,0,1.3-0.1c-0.1,0.2-0.1,0.6-0.1,1.1v2.3c0,0.5,0,0.9,0.1,1.5h-1v-0.6h-2.3v0.8h-1c0.1-0.6,0.1-1,0.1-1.5v-2.3
				c-0.3,0.3-0.7,0.5-1,0.8c-0.2-0.3-0.3-0.5-0.7-0.7c0.5-0.2,1.1-0.6,1.6-1c0-0.1,0-0.2,0-0.3c0.1,0,0.2,0,0.3,0
				c0.4-0.3,0.8-0.6,1.1-1c-1,0-1.9,0-2.7,0.1v-0.9c0.6,0.1,1.6,0.1,2.3,0.1V291c-0.7,0-1.2,0-1.6,0.1v-1c0.4,0.1,0.9,0.1,1.6,0.1
				c0-0.8,0-1.1-0.1-1.5c0.3,0,0.9,0.1,1.2,0.1c0.2,0,0.2,0.1,0,0.2c-0.2,0.1-0.3,0.3-0.3,0.5v0.7
				C682.9,290.2,683.3,290.2,683.6,290.1z M683.9,295.1h-2.3v1h2.3V295.1z M681.5,297.8h2.3v-1h-2.3V297.8z M687.7,298.3
				c0-0.4-0.1-0.7-0.4-1.1c1,0.1,1.4-0.1,1.5-0.8c0-0.7-0.3-1.5-1.2-2.5l0.8-3.4h-1.4v9.4h-1.1c0.1-0.7,0.1-1.2,0.1-1.9v-7.2
				c0-0.4,0-0.8-0.1-1.2c0.5,0.1,1,0.1,1.9,0.1c0.8,0,1.4,0,1.8-0.1l-1.1,4.1c1.1,1.2,1.3,2,1.3,2.9
				C689.7,297.7,688.9,298.2,687.7,298.3z"/>
			<path d="M695.1,290.5v0.9c-0.4,0-0.9-0.1-2.3-0.1c-0.3,0.5-0.8,1.2-1.2,1.9c-0.1-0.4-0.3-0.7-0.5-0.9c0.7-0.7,1.5-2.3,1.8-3.5
				c0.3,0.2,0.6,0.3,0.9,0.4c0.3,0.1,0.3,0.2,0,0.4c-0.1,0.1-0.2,0.3-0.6,1C694.2,290.5,694.7,290.5,695.1,290.5z M691.3,295.7v-1
				c0.3,0,0.8,0.1,1.3,0.1v-1.4c-0.2,0-0.3,0-0.5,0.1v-1c0.3,0.1,0.7,0.1,1.3,0.1c0.6,0,1.3,0,1.6-0.1v1c-0.3,0-0.9-0.1-1.5-0.1v1.4
				c0.8,0,1.3,0,1.7-0.1v1c-0.4-0.1-1-0.1-1.7-0.1v2.3c0.5-0.3,0.7-0.5,1.2-0.9c0,0.4,0,0.7,0.2,0.9l-1.4,1.2
				c-0.2,0.2-0.4,0.4-0.6,0.6c-0.2-0.3-0.4-0.6-0.7-0.9c0.3-0.3,0.5-0.6,0.5-1.2v-1.9C692,295.6,691.6,295.7,691.3,295.7z
				 M695.4,299.8c-0.1-0.3-0.3-0.5-0.6-0.7c0.9-0.3,1.6-0.7,2.4-1.4c0.2,0.2,0.5,0.5,0.7,0.6c0.2,0.1,0.1,0.2-0.1,0.2
				C697.5,298.6,696.5,299.1,695.4,299.8z M696,292.6c0-0.4,0-1-0.1-1.3c0.4,0,1,0.1,1.9,0.1c0-0.2,0-0.5,0-0.8
				c-1.1,0-1.8,0-2.5,0.1v-0.9c0.6,0.1,1.4,0.1,2.5,0.1c0-0.5,0-0.9-0.1-1.1c0.3,0.1,0.9,0.1,1.1,0.1c0.2,0,0.2,0.1,0.1,0.3
				c0,0-0.1,0.3-0.2,0.8c1.3,0,2.2,0,2.9-0.1v0.9c-0.7-0.1-1.7-0.1-3-0.1c0,0.3,0,0.5-0.1,0.8c1.1,0,1.8,0,2.3-0.1
				c0,0.3-0.1,0.9-0.1,1.3v4.2c0.4,0,0.7,0,1,0v0.8c-0.6-0.1-0.9-0.1-3.3-0.1c-2.3,0-2.8,0-3.3,0.1v-0.8c0.2,0,0.4,0,0.8,0V292.6z
				 M700,292h-3.1v0.7h3.1V292z M696.8,294.1h3.1v-0.7h-3.1V294.1z M696.8,295.5h3.1v-0.7h-3.1V295.5z M700,296.1h-3.1v0.8h3.1
				V296.1z M701.1,299.7c-0.7-0.5-1.5-1-2.3-1.4l0.5-0.6c0.7,0.3,1.6,0.8,2.3,1.2L701.1,299.7z"/>
		</g>
	</g>
	<g>
		<polygon style="fill:#A1F7F2;" points="646.6,183.4 596.1,183.4 600.1,165.9 650.6,165.9 		"/>
		<g style="enable-background:new    ;">
			<path d="M606.1,171.4v-0.9c0.6,0.1,1.3,0.1,2.3,0.1c0-0.6,0-1-0.1-1.3c0.3,0,0.7,0.1,1,0.1c0.2,0,0.2,0.1,0,0.2
				c-0.1,0.1-0.2,0.3-0.2,0.5v0.5c1,0,1.7,0,2.3-0.1v0.9c-0.6-0.1-1.3-0.1-2.3-0.1v1.2c1,0,1.4,0,1.9-0.1c0,0.3-0.1,0.7-0.1,1.1v1.8
				c0,0.4,0,0.8,0.1,1.1c-0.4,0-0.8-0.1-1.8-0.1v1.1c0.9,0,1.6,0,2.1-0.1v0.9c-0.6-0.1-1.2-0.1-2.1-0.1c0,0.7,0,1.2,0.1,1.9h-1
				c0-0.7,0.1-1.2,0.1-1.9c-1.1,0-1.8,0-2.4,0.1v-0.9c0.6,0.1,1.3,0.1,2.4,0.1v-1.1c-1.1,0-1.5,0-1.9,0.1c0-0.4,0.1-0.8,0.1-1.1
				v-1.8c0-0.4,0-0.8-0.1-1.1c0.4,0.1,0.9,0.1,1.9,0.1v-1.2C607.4,171.3,606.7,171.3,606.1,171.4z M610.3,173.1h-2.7v0.9h2.7V173.1z
				 M607.5,175.7h2.7v-0.9h-2.7V175.7z M611.8,174.2c-0.2-0.2-0.4-0.5-0.6-0.6c0.9-1.1,1.5-2.6,1.9-4.2c0.4,0.1,0.7,0.2,1.2,0.3
				c0.1,0,0.2,0.1,0,0.2c-0.2,0.1-0.4,0.5-0.7,1.1h1.4c0.7,0,1.2,0,1.5-0.1v1c-0.4-0.1-0.9-0.1-1.5-0.1h-1.8
				C612.8,172.6,612.2,173.6,611.8,174.2z M615.4,179.6c-0.6,0.1-1.7,0.1-2.3,0c-0.8-0.1-1.1-0.2-1.2-0.6c-0.2-0.8,0.6-2.7,2.4-4.7
				c-1.1,0-1.7,0-1.9,0.1v-1c0.3,0,0.8,0.1,1.7,0.1c0.8,0,1.3,0,1.6-0.1v0.9c-0.7,0.2-2,1.9-2.7,3.7c-0.3,0.7-0.2,0.8,0.5,0.9
				c0.8,0.1,1.5,0,1.7-0.1c0.2-0.1,0.4-0.5,0.6-1.4c0.3,0.4,0.6,0.6,1,0.7C616.3,179.4,616.2,179.6,615.4,179.6z"/>
			<path d="M620,174.4c-0.4-0.4-1.3-0.8-1.8-1l0.5-0.8c0.6,0.3,1.4,0.6,1.9,0.9L620,174.4z M619.3,179.8c-0.4-0.3-0.8-0.5-1.1-0.7
				c0.4-0.8,1.2-2.8,1.4-3.9c0.2,0.3,0.6,0.5,1,0.6C620.1,176.9,619.6,178.4,619.3,179.8z M620.1,171.8c-0.3-0.4-1-1-1.5-1.4
				l0.7-0.7c0.6,0.4,1.1,0.8,1.6,1.3L620.1,171.8z M628.8,178v1c-0.9-0.1-2.2-0.1-3.8-0.1c0,0.6,0,1.2,0,1.3h-1c0-0.2,0-0.7,0.1-1.3
				c-1.6,0-3.1,0-4,0.1v-1c0.9,0.1,2.4,0.1,4,0.1v-0.6c-1.6,0-2.1,0-2.7,0c0-0.1,0-0.5,0-0.7V175c0-0.3,0-0.6,0-0.7
				c0.7,0,1.2,0.1,3.2,0.1s2.5,0,3.2-0.1c0,0.2,0,0.5,0,0.7v1.8c0,0.3,0,0.6,0,0.7c-0.6,0-1.2,0-2.7,0v0.6
				C626.6,178.1,627.9,178.1,628.8,178z M620.7,170.7v-1c0.5,0.1,1.9,0.1,3.9,0.1c2.8,0,3.6,0,4-0.1v1c-0.4-0.1-1.8-0.1-2.7-0.1v0.8
				c1,0,1.6,0,2.3,0c0,0.3,0,0.8,0,1.2c0,0.5,0,0.9,0,1.2c-0.9,0-1.8,0-3.5,0c-1.7,0-2.7,0-3.5,0c0-0.3,0.1-0.8,0.1-1.2
				c0-0.5,0-0.9-0.1-1.2c0.6,0,1.2,0,2,0v-0.8C622.2,170.6,621.1,170.7,620.7,170.7z M623.2,172.1H622v1.1h1.2V172.1z M626.8,175
				h-4.5v0.7h4.5V175z M626.8,176.2h-4.5v0.7h4.5V176.2z M623.9,170.6v0.8h1.3v-0.8H623.9z M625.2,172.1h-1.3v1.1h1.3V172.1z
				 M625.9,173.1h1.4v-1.1h-1.4V173.1z"/>
			<path d="M634,170.8v0.9c-0.4,0-0.9-0.1-2.3-0.1c-0.3,0.5-0.8,1.2-1.2,1.9c-0.1-0.4-0.3-0.7-0.5-0.9c0.7-0.7,1.5-2.3,1.8-3.5
				c0.3,0.2,0.6,0.3,0.9,0.4c0.3,0.1,0.3,0.2,0,0.4c-0.1,0.1-0.2,0.3-0.6,1C633.2,170.9,633.6,170.8,634,170.8z M630.2,176v-1
				c0.3,0,0.8,0.1,1.3,0.1v-1.4c-0.2,0-0.3,0-0.5,0.1v-1c0.3,0.1,0.7,0.1,1.3,0.1c0.6,0,1.3,0,1.6-0.1v1c-0.3,0-0.9-0.1-1.5-0.1v1.4
				c0.8,0,1.3,0,1.7-0.1v1c-0.4-0.1-1-0.1-1.7-0.1v2.3c0.5-0.3,0.7-0.5,1.2-0.9c0,0.4,0,0.7,0.2,0.9l-1.4,1.2
				c-0.2,0.2-0.4,0.4-0.6,0.6c-0.2-0.3-0.4-0.6-0.7-0.9c0.3-0.3,0.5-0.6,0.5-1.2v-1.9C630.9,176,630.5,176,630.2,176z M634.3,180.1
				c-0.1-0.3-0.3-0.5-0.6-0.7c0.9-0.3,1.6-0.7,2.4-1.4c0.2,0.2,0.5,0.5,0.7,0.6c0.2,0.1,0.1,0.2-0.1,0.2
				C636.4,178.9,635.4,179.4,634.3,180.1z M634.9,172.9c0-0.4,0-1-0.1-1.3c0.4,0,1,0.1,1.9,0.1c0-0.2,0-0.5,0-0.8
				c-1.1,0-1.8,0-2.5,0.1v-0.9c0.6,0.1,1.4,0.1,2.5,0.1c0-0.5,0-0.9-0.1-1.1c0.3,0.1,0.9,0.1,1.1,0.1c0.2,0,0.2,0.1,0.1,0.3
				c0,0-0.1,0.3-0.2,0.8c1.3,0,2.2,0,2.9-0.1v0.9c-0.7-0.1-1.7-0.1-3-0.1c0,0.3,0,0.5-0.1,0.8c1.1,0,1.8,0,2.3-0.1
				c0,0.3-0.1,0.9-0.1,1.3v4.2c0.4,0,0.7,0,1,0v0.8c-0.6-0.1-0.9-0.1-3.3-0.1c-2.3,0-2.8,0-3.3,0.1v-0.8c0.2,0,0.4,0,0.8,0V172.9z
				 M638.9,172.3h-3.1v0.7h3.1V172.3z M635.8,174.4h3.1v-0.7h-3.1V174.4z M635.8,175.8h3.1V175h-3.1V175.8z M638.9,176.4h-3.1v0.8
				h3.1V176.4z M640.1,180c-0.7-0.5-1.5-1-2.3-1.4l0.5-0.6c0.7,0.3,1.6,0.8,2.3,1.2L640.1,180z"/>
		</g>
	</g>
	<g>
		<polygon style="fill:#A1F7F2;" points="607.4,99.2 556.9,99.2 560.9,81.7 611.4,81.7 		"/>
		<g style="enable-background:new    ;">
			<path d="M567.2,89.4c-0.1-0.4-0.2-0.7-0.5-1c0.9-0.6,1.5-1.8,1.9-3.5c0.3,0.2,0.7,0.3,1,0.4c0.3,0.1,0.3,0.1,0,0.3
				c-0.1,0.1-0.4,0.5-0.8,1.2h1.5c0.5,0,0.9,0,1.3-0.1v0.9c-0.4,0-0.8-0.1-1.3-0.1h-1.9C568,88.5,567.6,89,567.2,89.4z M569.5,91
				c0.9,0,1.6,0,2-0.1v1c-0.4,0-1.2-0.1-2-0.1v2.2c0.7-0.5,1.2-0.9,1.7-1.3c0,0.4,0.1,0.7,0.2,1l-1.7,1.3c-0.6,0.5-0.8,0.6-1,0.9
				c-0.2-0.5-0.3-0.6-0.6-1c0.3-0.3,0.5-0.7,0.5-1.3v-1.8c-0.6,0-1.2,0-1.5,0.1v-1c0.3,0,0.9,0.1,1.5,0.1v-1.3
				c-0.3,0-0.6,0.1-0.8,0.1v-1c0.5,0.1,0.9,0.1,1.7,0.1c0.8,0,1.3,0,1.7-0.1v1c-0.4-0.1-0.8-0.1-1.7-0.1V91z M571.6,95.8
				c-0.2-0.3-0.5-0.5-0.9-0.7c1.8-1.2,2.4-2.2,2.7-4c0.1-0.6,0.1-1.6,0.1-2.3c0.5,0.1,1,0.2,1.2,0.2c0.2,0,0.2,0.1,0.1,0.3
				c0,0-0.2,0.4-0.3,0.9c0.2,2.7,1.2,3.9,3.2,4.4c-0.4,0.5-0.5,0.8-0.6,1.2c-1.8-1-2.6-1.8-2.8-4.1C573.7,93.7,573,94.6,571.6,95.8z
				 M572.4,90c-0.3-0.2-0.6-0.3-1-0.3c1.1-1.7,1.3-3.1,1.5-4.8c0.4,0.1,1,0.3,1.3,0.3c0.2,0,0.2,0.1,0,0.3c-0.2,0.1-0.3,0.4-0.7,1.5
				h2.2c0.6,0,1.2,0,1.6-0.1l-0.9,2.8l-0.9-0.2l0.5-1.6h-2.8C573,88.5,572.6,89.4,572.4,90z"/>
			<path d="M583.6,84.8c0.3,0,0.8,0.1,1.1,0.1c0.2,0,0.3,0.1,0.1,0.2c-0.1,0.1-0.2,0.2-0.2,0.4v1.7h1.1c0.5-0.7,0.9-1.5,1.1-2.1
				c0.4,0.2,0.7,0.4,1.1,0.5c0.2,0.1,0.2,0.2,0,0.2c-0.1,0-0.3,0.1-1.2,1.4c1.3,0,1.9,0,2.5-0.1v2.2h-1V88h-7.9v1.8h-1v-2.6
				c0.8,0,1.8,0.1,4.3,0.1C583.6,85.7,583.6,85.1,583.6,84.8z M580.3,93.4v-1c0.8,0.1,1.9,0.1,3.4,0.1v-1c-1.2,0-2,0-2.6,0
				c0-0.4,0.1-0.9,0.1-1.4c0-0.5,0-1.1-0.1-1.4c0.8,0,1.7,0.1,3.1,0.1c1.5,0,2.3,0,3.1-0.1c0,0.3,0,0.9,0,1.4c0,0.7,0,1.1,0,1.4
				c-0.7,0-1.5,0-2.7,0v1c1.5,0,2.6,0,3.4-0.1v1c-0.8-0.1-1.9-0.1-3.4-0.1v1.1c2,0,3.4,0,4.4-0.1v1c-1.1-0.1-2.7-0.1-4.8-0.1
				c-2.1,0-3.7,0-4.8,0.1v-1c1,0.1,2.4,0.1,4.2,0.1v-1.1C582.2,93.3,581.1,93.4,580.3,93.4z M581.4,87c-0.3-0.5-0.6-0.8-1-1.1
				l0.9-0.5c0.4,0.3,0.6,0.6,0.9,1L581.4,87z M586.4,89.6H582v1.1h4.4V89.6z"/>
			<path d="M593.9,89.6c-0.4,0-1.2,0.2-1.4,0.3c0-0.4-0.2-0.7-0.4-1.1c0.3,0,0.6-0.2,0.7-0.4c1.3-1.5,2.1-2.6,2.6-3.7
				c0.4,0.3,0.8,0.5,1.1,0.6c0.2,0.1,0.2,0.2,0,0.2c-0.3,0.1-0.7,0.4-3,3.2l2.9-0.3c0.8-0.8,1.7-1.8,1.9-2.3
				c0.4,0.3,0.8,0.7,1.1,0.8c0.2,0.1,0.2,0.2,0,0.3c-0.3,0.1-0.9,0.4-5,4.2l4.2-0.4c0.2-0.5,0.4-1.3,0.5-1.9
				c0.4,0.1,0.9,0.2,1.3,0.2c0.2,0,0.3,0.2,0,0.3c-0.1,0-0.3,0.3-0.4,0.6c-0.4,1.3-1,2.3-1.9,3.3c-1.2,1.2-3.6,2.1-6,2.4
				c-0.1-0.4-0.5-0.9-0.9-1.1c2.7,0,5.9-1.3,7-2.9l-3.8,0.4c-0.5,0.1-1.2,0.2-1.7,0.4c-0.1-0.4-0.3-0.9-0.4-1.1
				c0.4-0.1,1.8-0.8,3.3-2.1L593.9,89.6z"/>
		</g>
	</g>
	<g>
		<polygon style="fill:#A1F7F2;" points="394.1,484.6 333.5,484.6 337.5,467.1 398.1,467.1 		"/>
		<g style="enable-background:new    ;">
			<path d="M347.1,478c-0.6,1.1-1.8,2.1-3.6,3c-0.3-0.4-0.6-0.7-1-0.9c1.5-0.5,2.4-1,3.4-2c0.7-0.7,1.1-1.9,1.2-3.6
				c-1.8,0-3.1,0-4.1,0.1v-1.2c1,0.1,2.4,0.1,4.2,0.1c0.1-1.5,0.1-2.4,0-3.1c0.5,0.1,1,0.1,1.4,0.1c0.2,0,0.2,0.1,0,0.2
				c-0.1,0.1-0.2,0.3-0.2,0.7c0,0.8-0.1,1.5-0.1,2.1c1.9,0,3.4,0,4.4-0.1v1.2c-1.1-0.1-2.5-0.1-4.5-0.1c0.3,1.4,1,2.8,2.1,3.8
				c0.7,0.7,1.8,1.3,2.8,1.4c-0.5,0.3-0.8,0.7-1,1.3c-1.1-0.5-2.2-1.5-2.8-2.4c-0.6-0.8-0.9-1.6-1.3-2.8
				C347.7,476.7,347.5,477.3,347.1,478z"/>
			<path d="M355.6,480.7l-1.1-0.3c0.3-0.5,0.7-1.2,1-2.3l1,0.3C356.1,479.2,355.8,480,355.6,480.7z M358.2,473.1
				c0.2,0.1,0.1,0.1,0,0.1c-0.1,0-0.4,0.3-0.6,0.4c-0.2,0.2-1,0.8-1.3,1l1.8-0.1c0.3-0.3,0.6-0.7,0.8-0.8c0.3,0.3,0.6,0.5,0.8,0.6
				c0.1,0,0.1,0.1,0,0.2c-0.1,0-0.3,0.2-0.4,0.3c-0.4,0.4-1.8,1.5-2.6,2l2-0.1c-0.1-0.3-0.2-0.5-0.3-0.6l0.8-0.3
				c0.3,0.5,0.6,1.4,0.7,1.8l-0.9,0.3c0-0.1-0.1-0.3-0.1-0.5l-2.1,0.2c-0.5,0.1-1,0.1-1.3,0.2c0-0.3-0.1-0.7-0.3-1
				c0.5-0.1,1.5-0.7,2.4-1.5c-1.2,0.2-1.8,0.3-2.1,0.4c0-0.2-0.1-0.6-0.3-0.8c0.5-0.2,1.3-1.1,1.9-1.9c-1.7,0-1.9,0-2.4,0.1v-1
				c0.6,0,1.7,0.1,3.3,0.1c-0.3-0.3-0.7-0.8-0.9-1l0.9-0.6c0.3,0.3,0.9,0.9,1.1,1.1l-0.7,0.5h2.1c0.4-0.6,0.8-1.2,1-1.6
				c0.4,0.2,1,0.4,1.1,0.4c0.2,0,0.2,0.1,0,0.2c-0.2,0.1-0.6,0.4-1,1c1.1,0,2.8,0,3.3-0.1v1c-0.4,0-0.9-0.1-2.9-0.1
				c0.3,0.2,0.5,0.3,0.6,0.4c0.1,0,0.1,0.1,0,0.1c-0.1,0-0.4,0.3-0.5,0.4c-0.1,0.2-0.7,0.7-1,1l1.5-0.1c0.3-0.4,0.5-0.6,0.7-0.9
				c0.2,0.2,0.6,0.5,0.9,0.6c0.1,0.1,0.1,0.1,0,0.1c-0.1,0-0.3,0.1-0.6,0.4c-0.3,0.3-1.6,1.5-2.2,1.9l1.9-0.1
				c-0.1-0.3-0.2-0.5-0.3-0.6l0.7-0.4c0.4,0.5,0.8,1.2,1,1.7l-0.9,0.4c0-0.1-0.1-0.3-0.2-0.5l-1.9,0.2c-0.6,0-1,0.1-1.2,0.2
				c-0.1-0.3-0.3-0.8-0.4-1c0.4,0,1.4-0.7,2-1.4c-1.1,0.1-1.5,0.2-1.8,0.3c0-0.2-0.1-0.6-0.3-0.8c0.3-0.1,1.1-1.1,1.6-2h-4
				C357.8,472.9,358,473,358.2,473.1z M361.5,480.9c-0.4,0-2.7,0.1-3.4,0c-0.7,0-1-0.3-1-0.7v-1.1c0-0.4,0-0.7-0.1-1
				c0.4,0.1,0.8,0.1,1.1,0.1c0.2,0,0.3,0,0.1,0.2c-0.1,0.1-0.2,0.2-0.2,0.3v1c0,0.2,0.1,0.3,0.7,0.3c0.5,0,1.7,0,2.4-0.1
				c0.4,0,0.5-0.1,0.8-1.1c0.3,0.3,0.6,0.5,1,0.6C362.6,480.7,362.4,480.9,361.5,480.9z M359.9,479.8c-0.1-0.5-0.5-1.3-0.8-1.7
				l0.9-0.3c0.3,0.5,0.6,1.2,0.8,1.6L359.9,479.8z M364.1,480.6c-0.5-0.8-0.8-1.3-1.5-2.1l0.9-0.4c0.6,0.7,1.1,1.2,1.7,1.9
				L364.1,480.6z"/>
			<path d="M367.1,479.9c-0.2-0.3-0.5-0.7-0.8-0.9c1.8-0.9,3.2-2,4-3.4c-1.3,0-2.6,0-3.7,0.1v-1c1.3,0.1,2.9,0.1,5.2,0.1
				c2.5,0,4,0,5.3-0.1v1c-1.2-0.1-2.7-0.1-5.7-0.1c-0.2,0.4-0.5,0.8-0.9,1.3h3.5c0.8,0,1.3,0,1.7-0.1c-0.1,0.3-0.1,0.6-0.1,1.1v1.9
				c0,0.5,0,0.9,0.1,1.5h-1.1v-0.8h-4.6v0.9h-1.1c0.1-0.6,0.1-0.9,0.1-1.3v-1.7C368.5,479,367.9,479.5,367.1,479.9z M375.1,472.8
				c0-1.1,0-1.4-0.1-1.8c0.4,0.1,0.8,0.1,1.2,0.1c0.2,0,0.3,0.1,0.1,0.2c-0.1,0.1-0.2,0.4-0.2,2.6c-0.8-0.1-1.6-0.1-4.1-0.1
				s-3.3,0-4.1,0.1c0.1-1.5,0.1-2.3,0-2.6c0.4,0,0.8,0,1.2,0c0.2,0,0.2,0.1,0.1,0.2c-0.2,0.1-0.2,0.4-0.2,1.4h2.5
				c0-1.6,0-2.1-0.1-2.6c0.4,0.1,0.9,0.1,1.2,0.1c0.3,0,0.3,0.1,0.1,0.2c-0.1,0.1-0.2,0.4-0.2,2.2H375.1z M374.7,477.7h-4.6v2.1h4.6
				V477.7z"/>
			<path d="M382.5,472v0.9c-0.4,0-0.9-0.1-2.3-0.1c-0.3,0.5-0.8,1.2-1.2,1.9c-0.1-0.4-0.3-0.7-0.5-0.9c0.7-0.7,1.5-2.3,1.8-3.5
				c0.3,0.2,0.6,0.3,0.9,0.4c0.3,0.1,0.3,0.2,0,0.4c-0.1,0.1-0.2,0.3-0.6,1C381.6,472,382.1,472,382.5,472z M378.6,477.2v-1
				c0.3,0,0.8,0.1,1.3,0.1v-1.4c-0.2,0-0.3,0-0.5,0.1v-1c0.3,0.1,0.7,0.1,1.3,0.1c0.6,0,1.3,0,1.6-0.1v1c-0.3,0-0.9-0.1-1.5-0.1v1.4
				c0.8,0,1.3,0,1.7-0.1v1c-0.4-0.1-1-0.1-1.7-0.1v2.3c0.5-0.3,0.7-0.5,1.2-0.9c0,0.4,0,0.7,0.2,0.9l-1.4,1.2
				c-0.2,0.2-0.4,0.4-0.6,0.6c-0.2-0.3-0.4-0.6-0.7-0.9c0.3-0.3,0.5-0.6,0.5-1.2v-1.9C379.4,477.1,379,477.2,378.6,477.2z
				 M382.8,481.3c-0.1-0.3-0.3-0.5-0.6-0.7c0.9-0.3,1.6-0.7,2.4-1.4c0.2,0.2,0.5,0.5,0.7,0.6c0.2,0.1,0.1,0.2-0.1,0.2
				C384.9,480,383.9,480.6,382.8,481.3z M383.4,474.1c0-0.4,0-1-0.1-1.3c0.4,0,1,0.1,1.9,0.1c0-0.2,0-0.5,0-0.8
				c-1.1,0-1.8,0-2.5,0.1v-0.9c0.6,0.1,1.4,0.1,2.5,0.1c0-0.5,0-0.9-0.1-1.1c0.3,0.1,0.9,0.1,1.1,0.1c0.2,0,0.2,0.1,0.1,0.3
				c0,0-0.1,0.3-0.2,0.8c1.3,0,2.2,0,2.9-0.1v0.9c-0.7-0.1-1.7-0.1-3-0.1c0,0.3,0,0.5-0.1,0.8c1.1,0,1.8,0,2.3-0.1
				c0,0.3-0.1,0.9-0.1,1.3v4.2c0.4,0,0.7,0,1,0v0.8c-0.6-0.1-0.9-0.1-3.3-0.1c-2.3,0-2.8,0-3.3,0.1v-0.8c0.2,0,0.4,0,0.8,0V474.1z
				 M387.4,473.5h-3.1v0.7h3.1V473.5z M384.2,475.6h3.1v-0.7h-3.1V475.6z M384.2,476.9h3.1v-0.7h-3.1V476.9z M387.4,477.6h-3.1v0.8
				h3.1V477.6z M388.5,481.2c-0.7-0.5-1.5-1-2.3-1.4l0.5-0.6c0.7,0.3,1.6,0.8,2.3,1.2L388.5,481.2z"/>
		</g>
	</g>
	<g>
		<polygon style="fill:#A1F7F2;" points="397.7,378.1 337.1,378.1 341.1,360.5 401.7,360.5 		"/>
		<g style="enable-background:new    ;">
			<path d="M346.3,365.4v-1c1.2,0.1,2.9,0.1,5.2,0.1s4,0,5.2-0.1v1c-1.1-0.1-2.7-0.1-4.7-0.1v1.1c2,0,3.1-0.1,3.7-0.1
				c-0.1,0.3-0.1,0.7-0.1,1.1v2.3c0,0.4,0,0.8,0.1,1.1c-0.8-0.1-1.7-0.1-3.7-0.1c-0.1,1-0.3,1.6-0.6,2.1c1.8,0.7,3.5,0.9,5.5,0.7
				c-0.2,0.3-0.4,0.9-0.4,1.2c-1.9,0-4.3-0.5-5.7-1.2c-0.9,0.7-2.1,1.1-3.9,1.4c-0.1-0.4-0.4-0.8-0.7-1.1c1.6,0,2.9-0.3,3.8-0.8
				c-0.7-0.5-1.3-0.9-1.7-1.4l0.8-0.5c0.2,0.4,0.9,1,1.5,1.4c0.3-0.4,0.5-0.8,0.6-1.6c-2,0-3,0-3.7,0.1c0.1-0.4,0.1-0.6,0.1-1v-2.5
				c0-0.4,0-0.7-0.1-1c0.8,0.1,1.7,0.1,3.8,0.1v-1.1C349,365.2,347.4,365.3,346.3,365.4z M351.1,367.1h-2.7v1h2.7V367.1z
				 M351.1,368.8h-2.7v1h2.7C351,369.5,351,369.2,351.1,368.8z M351.9,369.8h2.6v-1H352C352,369.2,351.9,369.5,351.9,369.8z
				 M352,368.1h2.6v-1H352V368.1z"/>
			<path d="M358.4,371.6c-0.2-0.4-0.4-0.7-0.6-1c0.5-0.6,1.1-1.7,1.5-3.4V367c-0.6,0-1.1,0-1.4,0.1v-1c0.4,0.1,0.8,0.1,1.4,0.1v-1.1
				c0-0.6,0-1.1-0.1-1.5c0.4,0,0.7,0.1,1,0c0.2,0,0.3,0.1,0.1,0.3c-0.1,0.1-0.1,0.2-0.1,0.3v1.9c0.5,0,0.9-0.1,1.2-0.1v1
				c-0.3,0-0.7-0.1-1.2-0.1v5.4c0,0.6,0,1.5,0.1,2.3h-1c0.1-0.8,0.1-1.6,0.1-2.3V369C359.1,370.1,358.7,371,358.4,371.6z
				 M361.1,370.4c-0.2-0.3-0.5-0.9-0.8-1.3l0.6-0.4c0.2,0.3,0.6,0.8,0.9,1.2L361.1,370.4z M368.7,373.7c-0.3,0.3-0.6,0.6-0.7,0.9
				c-0.7-0.5-1.6-0.9-2.5-1.3c-1,0.8-2.2,1.1-4,1.3c-0.1-0.4-0.2-0.7-0.5-1c1.7,0,3-0.3,3.6-0.7c-0.8-0.3-1.5-0.5-2.3-0.8
				c0.3-0.2,0.6-0.7,0.9-1.1c-0.6,0-1.3,0.1-1.6,0.1v-0.9c0.5,0.1,1.4,0.1,2.1,0.1c0.4-0.8,0.5-1,0.6-1.3c0.3,0.1,0.7,0.3,1,0.3
				c0.1,0,0.2,0.1,0,0.2c-0.1,0.1-0.2,0.2-0.6,0.8h1.7c1,0,1.8,0,2.3-0.1v0.9c-0.4,0-1-0.1-1.6-0.1c-0.3,0.8-0.5,1.2-0.8,1.6
				C366.9,373,367.8,373.4,368.7,373.7z M364.6,366.8c-0.5,0.9-1.5,2-2.2,2.5c-0.3-0.3-0.5-0.4-0.8-0.6c0.7-0.3,1.3-0.7,2.2-1.9
				c-0.6,0-1.1,0.1-1.6,0.1V366c0.7,0,1.5,0.1,2.5,0.1V365c0-0.4,0-0.9-0.1-1.2c0.4,0.1,0.6,0.1,1,0.1c0.3,0,0.3,0.1,0.1,0.3
				c-0.1,0.1-0.2,0.3-0.2,0.5v1.5c1.2,0,2.3,0,3-0.1v0.9c-0.6-0.1-1.3-0.1-2.2-0.1c0.9,1.2,1.4,1.5,2.5,1.6
				c-0.3,0.3-0.5,0.6-0.6,1.1c-1.3-0.6-2.1-1.5-2.5-2.7h-0.1v1c0,0.3,0,0.7,0.1,1.1h-1c0-0.3,0.1-0.8,0.1-1.1L364.6,366.8
				L364.6,366.8z M362.9,365.7c-0.1-0.5-0.3-1-0.4-1.2l0.9-0.2c0.1,0.3,0.2,0.7,0.4,1.2L362.9,365.7z M363.7,371.9
				c0.5,0.1,1.1,0.3,1.6,0.5c0.3-0.3,0.5-0.8,0.7-1.3h-1.9L363.7,371.9z M366.9,365.8c-0.2-0.1-0.6-0.3-0.9-0.3
				c0.4-0.5,0.6-0.9,0.8-1.4c0.3,0.1,0.7,0.3,1,0.3c0.2,0,0.2,0.1,0,0.2C367.6,364.7,367.4,364.9,366.9,365.8z"/>
			<path d="M372.4,374.7h-1c0.1-0.7,0.1-1.2,0.1-1.9v-3.4c-0.3,0.5-0.6,0.8-0.9,1.1c-0.2-0.3-0.4-0.5-0.7-0.7
				c0.5-0.4,1.3-1.2,1.7-1.9c0.3-0.5,0.5-1,0.6-1.5c0.3,0.2,0.8,0.5,0.9,0.6c0.2,0,0.2,0.1,0,0.2c-0.1,0-0.2,0.2-0.6,0.8V374.7z
				 M372.3,365.4c-0.5,0.6-0.9,1.2-1.5,1.7c-0.2-0.3-0.4-0.5-0.7-0.7c0.5-0.4,0.8-0.7,1.4-1.4c0.2-0.2,0.5-0.8,0.7-1.2
				c0.3,0.3,0.9,0.6,1,0.6c0.2,0.1,0.2,0.1,0,0.2C372.9,364.7,372.7,364.9,372.3,365.4z M377.8,371.6c-0.1,0.3-0.1,0.6,0,0.9
				c-1.3,0.1-3.8,0.7-4.8,0.9c0-0.4-0.1-0.8-0.2-1.2c0.5,0,1.3-0.1,2.1-0.2v-1.5c-0.7,0-1.1,0-1.6,0.1v-0.9c0.5,0.1,0.8,0.1,1.6,0.1
				c0-0.5,0-0.9-0.1-1.2c0.3,0,0.8,0.1,1.1,0.1c0.2,0,0.2,0.1,0,0.2c-0.1,0.1-0.1,0.1-0.1,0.3v0.7c0.7,0,1,0,1.6-0.1v0.9
				c-0.5-0.1-0.9-0.1-1.6-0.1v1.4C376.6,371.9,377.5,371.7,377.8,371.6z M375.8,367.5c0.7,0,0.9,0,1.4-0.1v1
				c-0.6-0.1-0.8-0.1-1.8-0.1c-1.2,0-1.4,0-2,0.1v-1c0.5,0.1,0.8,0.1,1.6,0.1v-1.4c-0.7,0-1,0-1.5,0.1v-0.9c0.5,0.1,0.8,0.1,1.5,0.1
				c0-0.5,0-1.2-0.1-1.5c0.3,0,0.8,0.1,1.1,0.1c0.1,0,0.2,0.1,0,0.2c-0.1,0.1-0.1,0.1-0.1,0.3v1c0.8,0,1,0,1.5-0.1v0.9
				c-0.5-0.1-0.8-0.1-1.5-0.1V367.5z M379.7,373.4c0,1,0,1.1-1.8,1.3c0-0.3-0.1-0.6-0.4-1.2c1.2,0,1.3,0,1.3-0.6v-4.8
				c-0.5,0-0.8,0-1.1,0.1v-1c0.5,0.1,0.7,0.1,1.6,0.1c0.9,0,1.1,0,1.6-0.1v1c-0.4-0.1-0.6-0.1-1.2-0.1V373.4z M379,365.5
				c-0.6,0-0.9,0-1.4,0.1v-1c0.4,0.1,0.6,0.1,1.4,0.1c0.8,0,1,0,1.4-0.1v1C380,365.5,379.7,365.5,379,365.5z"/>
			<path d="M385.3,373.1c1.3,0.6,4.6,0.7,7.5,0.2c-0.2,0.5-0.3,0.9-0.3,1.3c-4.7,0.1-5.7,0-8.1-0.9c-0.6-0.3-1,0-1.6,1
				c-0.3-0.3-0.6-0.5-0.9-0.7c0.6-0.6,1.1-0.9,1.4-1.1V369c-0.7,0-1.1,0-1.3,0.1v-1c0.8,0.1,1.8,0.1,2.5,0c-0.1,0.4-0.1,0.8-0.1,1.4
				v3.2C384.6,372.8,384.9,372.9,385.3,373.1z M383.4,367c-0.1-0.8-0.4-1.7-0.7-2.3l1-0.3c0.2,0.8,0.4,1.5,0.7,2.3L383.4,367z
				 M391.6,367.1c0,0.4-0.1,0.8-0.1,1.3v2.9c0,0.6,0,1.1,0.1,1.7h-1v-0.5h-3.6v0.6h-1c0.1-0.6,0.1-1,0.1-1.7v-3c0-0.4,0-0.9-0.1-1.3
				c0.4,0,1.1,0.1,2,0.1c0.1-0.2,0.2-0.6,0.2-0.9c-1.4,0-2.3,0-3.2,0.1v-1c1,0.1,2.3,0.1,4.1,0.1c0.2-0.5,0.4-1,0.6-1.7
				c0.3,0.2,0.8,0.3,1.2,0.4c0.1,0,0.1,0.1,0,0.1c-0.2,0.1-0.4,0.3-0.9,1.2c1,0,1.8,0,2.5-0.1v1c-0.9-0.1-1.8-0.1-3.3-0.1
				c-0.1,0.3-0.2,0.7-0.3,0.9C390.1,367.2,391.2,367.2,391.6,367.1z M387.6,365.5c-0.2-0.3-0.5-0.7-0.8-1l0.8-0.5
				c0.3,0.3,0.6,0.7,0.8,1L387.6,365.5z M390.6,368h-3.6v0.8h3.6V368z M387.1,370.3h3.6v-0.8h-3.6V370.3z M390.6,371h-3.6v0.9h3.6
				V371z"/>
		</g>
	</g>
	<g>
		<polygon style="fill:#A1F7F2;" points="415.2,274.2 354.6,274.2 358.6,256.6 419.2,256.6 		"/>
		<g style="enable-background:new    ;">
			<path d="M365.2,268.7c-0.2,0.6-0.4,1.4-0.5,2c-0.4-0.3-0.8-0.5-1.2-0.6c0.3-0.6,0.6-1.4,0.8-1.9c0.3-1,0.4-1.4,0.5-2.1
				c0.2,0.3,0.6,0.5,1,0.7C365.7,267.2,365.5,267.8,365.2,268.7z M365.3,265.3c-0.4-0.4-1.3-0.9-1.8-1.1l0.6-0.9
				c0.6,0.3,1.4,0.7,1.9,1L365.3,265.3z M365.7,262.4c-0.3-0.4-1.1-1-1.7-1.4l0.7-0.9c0.5,0.4,1.1,0.8,1.7,1.3L365.7,262.4z
				 M366.7,263v-1.1c0.8,0.1,2.3,0.1,3.8,0.1c0.4-0.7,0.7-1.4,0.8-2.2c0.4,0.2,0.9,0.3,1.3,0.3c0.2,0,0.2,0.1,0,0.2
				c-0.1,0.1-0.5,0.6-1.2,1.6c1.1,0,1.7,0,2.4-0.1v1.1c-0.8-0.1-1.6-0.1-3.2-0.1v1.8c1.3,0,2.1,0,2.8-0.1v1.1
				c-0.7-0.1-1.6-0.1-2.8-0.1v1.8c1.5,0,2.6,0,3.4-0.1v1.1c-0.9-0.1-1.9-0.1-3.4-0.1c0,0.8,0.1,1.9,0.1,2.6h-1.3
				c0.1-0.7,0.1-1.9,0.1-2.6c-1.4,0-2.4,0-3.2,0.1v-1.1c0.8,0.1,1.9,0.1,3.2,0.1v-1.8c-1.1,0-2,0.1-2.6,0.1v-1.1
				c0.7,0.1,1.5,0.1,2.6,0.1v-1.8C368.4,262.9,367.3,262.9,366.7,263z M368.6,261.9c-0.2-0.6-0.5-1.1-0.8-1.5l1-0.4
				c0.2,0.4,0.5,0.9,0.8,1.5L368.6,261.9z"/>
			<path d="M377,268.5c-0.2,0.7-0.3,1.2-0.4,2c-0.5-0.4-0.7-0.5-1.1-0.7c0.3-0.5,0.6-1.1,0.8-1.8c0.2-0.6,0.3-1.2,0.5-1.9
				c0.2,0.2,0.5,0.4,0.9,0.5C377.5,267,377.3,267.6,377,268.5z M377.3,265.1c-0.5-0.5-1.1-1-1.6-1.2l0.6-0.7
				c0.5,0.3,1.1,0.7,1.7,1.1L377.3,265.1z M377.8,262.5c-0.4-0.4-1.1-1-1.7-1.3l0.6-0.8c0.6,0.4,1.2,0.8,1.7,1.2L377.8,262.5z
				 M380.6,264.9c-0.4,0-1.1,0.1-1.3,0.2c-0.1-0.3-0.2-0.5-0.3-0.8c0.5-0.1,1.2-0.4,2.5-1.4c0.2,0.1,0.6,0.3,0.8,0.4
				c0.2,0.1,0.2,0.2,0,0.2c-0.4,0.1-0.6,0.2-2.1,0.9l2.6-0.1c0.6-0.3,1-0.7,1.2-0.9c0.2,0.2,0.5,0.5,0.6,0.6
				c0.3,0.2,0.2,0.2-0.1,0.3c-0.2,0-0.7,0.3-1.8,0.8c-0.3,0.1-1.5,0.7-2.8,1.1l3.9-0.2c-0.2-0.2-0.4-0.3-0.7-0.6l0.7-0.4
				c0.7,0.6,0.9,0.8,1.6,1.5l-0.8,0.5c-0.1-0.2-0.2-0.4-0.3-0.5l-2,0.1c0,0.4-0.1,0.7-0.2,1c1.4,0,2.8,0,3.6-0.1v0.9
				c-0.7,0-1.8-0.1-3.1-0.1c0.7,0.9,1.5,1.2,3.2,1.3c-0.3,0.4-0.4,0.8-0.5,1.1c-2-0.5-2.9-1.2-3.3-2.4h-0.1
				c-0.6,1.5-1.7,2.1-3.7,2.6c-0.1-0.3-0.4-0.6-0.6-0.9c1.8-0.1,3.1-0.8,3.5-1.7c-1.4,0-2.5,0-3.3,0.1v-0.9c0.8,0.1,2,0.1,3.5,0.1
				c0.1-0.4,0.1-0.6,0.2-1c-1.6,0.1-2.3,0.1-2.7,0.2c0-0.3-0.1-0.6-0.2-0.8c0.7,0,2-0.5,3.3-1.2L380.6,264.9z M385.5,261
				c-0.7-0.1-1.4-0.1-2.8,0.2c-0.6,0.1-1.8,0.2-3.8,0.5c-0.1-0.3-0.2-0.6-0.4-0.9c1.4,0,1.9-0.1,3.8-0.3c1.3-0.2,1.7-0.3,2.6-0.6
				c0.2,0.3,0.5,0.8,0.7,0.9C385.8,261,385.7,261,385.5,261z M379.9,263.3c-0.3-0.5-0.5-0.7-0.8-1.1l0.9-0.3c0.3,0.4,0.4,0.6,0.7,1
				L379.9,263.3z M381.9,262.8c-0.1-0.4-0.3-0.6-0.5-1l0.9-0.2c0.2,0.3,0.3,0.7,0.5,1L381.9,262.8z M384.2,263.1
				c-0.2-0.1-0.5-0.2-0.9-0.3c0.5-0.5,0.8-0.9,1-1.5c0.3,0.2,0.7,0.3,0.9,0.4c0.2,0,0.2,0.1,0,0.2
				C385.1,262,384.8,262.3,384.2,263.1z"/>
			<path d="M389.8,270.8h-1c0.1-0.7,0.1-1.2,0.1-1.9v-3.4c-0.3,0.5-0.6,0.8-0.9,1.1c-0.2-0.3-0.4-0.5-0.7-0.7
				c0.5-0.4,1.3-1.2,1.7-1.9c0.3-0.5,0.5-1,0.6-1.5c0.3,0.2,0.8,0.5,0.9,0.6c0.2,0,0.2,0.1,0,0.2c-0.1,0-0.2,0.2-0.6,0.8V270.8z
				 M389.7,261.5c-0.5,0.6-0.9,1.2-1.5,1.7c-0.2-0.3-0.4-0.5-0.7-0.7c0.5-0.4,0.8-0.7,1.4-1.4c0.2-0.2,0.5-0.8,0.7-1.2
				c0.3,0.3,0.9,0.6,1,0.6c0.2,0.1,0.2,0.1,0,0.2C390.4,260.8,390.2,261,389.7,261.5z M395.2,267.7c-0.1,0.3-0.1,0.6,0,0.9
				c-1.3,0.1-3.8,0.7-4.8,0.9c0-0.4-0.1-0.8-0.2-1.2c0.5,0,1.3-0.1,2.1-0.2v-1.5c-0.7,0-1.1,0-1.6,0.1v-0.9c0.5,0.1,0.8,0.1,1.6,0.1
				c0-0.5,0-0.9-0.1-1.2c0.3,0,0.8,0.1,1.1,0.1c0.2,0,0.2,0.1,0,0.2c-0.1,0.1-0.1,0.1-0.1,0.3v0.7c0.7,0,1,0,1.6-0.1v0.9
				c-0.5-0.1-0.9-0.1-1.6-0.1v1.4C394,268,394.9,267.8,395.2,267.7z M393.2,263.7c0.7,0,0.9,0,1.4-0.1v1c-0.6-0.1-0.8-0.1-1.8-0.1
				c-1.2,0-1.4,0-2,0.1v-1c0.5,0.1,0.8,0.1,1.6,0.1v-1.4c-0.7,0-1,0-1.5,0.1v-0.9c0.5,0.1,0.8,0.1,1.5,0.1c0-0.5,0-1.2-0.1-1.5
				c0.3,0,0.8,0.1,1.1,0.1c0.1,0,0.2,0.1,0,0.2c-0.1,0.1-0.1,0.1-0.1,0.3v1c0.8,0,1,0,1.5-0.1v0.9c-0.5-0.1-0.8-0.1-1.5-0.1V263.7z
				 M397.1,269.5c0,1,0,1.1-1.8,1.3c0-0.3-0.1-0.6-0.4-1.2c1.2,0,1.3,0,1.3-0.6v-4.8c-0.5,0-0.8,0-1.1,0.1v-1
				c0.5,0.1,0.7,0.1,1.6,0.1s1.1,0,1.6-0.1v1c-0.4-0.1-0.6-0.1-1.2-0.1V269.5z M396.5,261.6c-0.6,0-0.9,0-1.4,0.1v-1
				c0.4,0.1,0.6,0.1,1.4,0.1c0.8,0,1,0,1.4-0.1v1C397.4,261.6,397.2,261.6,396.5,261.6z"/>
			<path d="M402.8,269.2c1.3,0.6,4.6,0.7,7.5,0.2c-0.2,0.5-0.3,0.9-0.3,1.3c-4.7,0.1-5.7,0-8.1-0.9c-0.6-0.3-1,0-1.6,1
				c-0.3-0.3-0.6-0.5-0.9-0.7c0.6-0.6,1.1-0.9,1.4-1.1v-3.7c-0.7,0-1.1,0-1.3,0.1v-1c0.8,0.1,1.8,0.1,2.5,0
				c-0.1,0.4-0.1,0.8-0.1,1.4v3.2C402.1,268.9,402.3,269,402.8,269.2z M400.9,263.1c-0.1-0.8-0.4-1.7-0.7-2.3l1-0.3
				c0.2,0.8,0.4,1.5,0.7,2.3L400.9,263.1z M409.1,263.2c0,0.4-0.1,0.8-0.1,1.3v2.9c0,0.6,0,1.1,0.1,1.7h-1v-0.5h-3.6v0.6h-1
				c0.1-0.6,0.1-1,0.1-1.7v-3c0-0.4,0-0.9-0.1-1.3c0.4,0,1.1,0.1,2,0.1c0.1-0.2,0.2-0.6,0.2-0.9c-1.4,0-2.3,0-3.2,0.1v-1
				c1,0.1,2.3,0.1,4.1,0.1c0.2-0.5,0.4-1,0.6-1.7c0.3,0.2,0.8,0.3,1.2,0.4c0.1,0,0.1,0.1,0,0.1c-0.2,0.1-0.4,0.3-0.9,1.2
				c1,0,1.8,0,2.5-0.1v1c-0.9-0.1-1.8-0.1-3.3-0.1c-0.1,0.3-0.2,0.7-0.3,0.9C407.6,263.4,408.6,263.3,409.1,263.2z M405,261.6
				c-0.2-0.3-0.5-0.7-0.8-1l0.8-0.5c0.3,0.3,0.6,0.7,0.8,1L405,261.6z M408.1,264.1h-3.6v0.8h3.6V264.1z M404.5,266.4h3.6v-0.8h-3.6
				V266.4z M408.1,267.1h-3.6v0.9h3.6V267.1z"/>
		</g>
	</g>
	<g>
		<polygon style="fill:#A1F7F2;" points="520.5,207.8 459.9,207.8 463.9,190.2 524.5,190.2 		"/>
		<g style="enable-background:new    ;">
			<path d="M471.5,202c0,0.7,0,1.5,0.1,2.3h-1.2c0.1-0.8,0.1-1.7,0.1-2.3v-3c-0.3,0.9-0.8,1.9-1.3,2.8c-0.2-0.5-0.3-0.7-0.6-1.1
				c0.7-0.8,1.2-2.1,1.7-3.8c-0.6,0-1.1,0.1-1.4,0.1v-1c0.3,0,0.9,0.1,1.5,0.1c0-1,0-1.9-0.1-2.5c0.4,0,0.7,0.1,1.1,0
				c0.3,0,0.3,0.1,0.1,0.3c-0.1,0.1-0.1,0.2-0.1,0.3v1.8c0.6,0,1.3,0,1.6-0.1v1c-0.4,0-1-0.1-1.6-0.1V202z M472.5,199.9
				c-0.2-0.5-0.5-1-0.9-1.5l0.7-0.5c0.4,0.5,0.7,0.9,1,1.4L472.5,199.9z M473.6,204.2c-0.2-0.3-0.5-0.5-0.9-0.7
				c2.4-1,3.5-2.6,3.9-5.2h-0.8c-0.6,1.8-1.5,3.1-2.7,4c-0.2-0.2-0.5-0.4-0.8-0.6c1.4-0.8,2.2-1.9,2.6-3.4c-0.7,0-1.1,0-1.3,0.2
				c0-0.3-0.1-0.6-0.2-0.8c0.7-0.1,1-0.3,3.2-2.7h-1.6c-0.4,0-1.1,0-1.7,0.1v-1c0.8,0,1.5,0.1,2.7,0.1c1.7,0,2.1,0,2.7-0.1v0.9
				c-0.8,0-1.2,0.2-3.3,2.5h2c0.4,0,1.1,0,1.8-0.1c-0.1,1.8-0.3,4.1-0.4,5.1c-0.2,1.3-0.5,1.5-2.1,1.7c-0.1-0.4-0.2-0.7-0.6-1.2
				c1.2,0.2,1.5,0,1.7-0.8c0.2-1.2,0.4-3.1,0.4-3.9h-0.8C476.9,201.5,476.1,202.6,473.6,204.2z"/>
			<path d="M481.2,202c-0.2-0.4-0.3-0.6-0.6-0.9c0.8-0.9,1.6-2.2,2.2-4.3c-0.8,0-1.4,0-1.8,0.1v-1.1c0.5,0.1,1,0.1,1.8,0.1
				c0-1.5,0-2-0.1-2.4c0.3,0.1,0.7,0.1,1.1,0.1c0.2,0,0.3,0.1,0.1,0.2c-0.1,0.1-0.1,0.2-0.1,0.4v1.7c0.5,0,1,0,1.3-0.1v1.1
				c-0.3,0-0.8-0.1-1.3-0.1v5.3c0,0.8,0,1.5,0.1,2.3h-1.2c0.1-0.8,0.1-1.4,0.1-2.3v-3.3C482.3,200.2,481.7,201.4,481.2,202z
				 M484.7,200.3c-0.2-0.7-0.5-1.2-0.8-1.8l0.7-0.4c0.4,0.6,0.7,1.1,0.9,1.7L484.7,200.3z M491.7,196v1.1c-0.4,0-0.8-0.1-1.5-0.1
				v6.2c0,0.7-0.1,0.8-1.8,1.2c-0.1-0.3-0.3-0.8-0.5-1.2c1.2,0,1.4-0.1,1.4-0.4V197h-1.7c-0.8,0-1.2,0-1.6,0.1V196
				c0.4,0.1,0.8,0.1,1.6,0.1h1.7c0-1.5,0-2.2,0-2.6c0.4,0.1,0.7,0.1,1.1,0.1c0.3,0,0.3,0.1,0.1,0.2c-0.1,0-0.2,0.2-0.2,0.3v1.9
				C490.9,196.1,491.2,196.1,491.7,196z M487.3,200.8c-0.2-0.6-0.5-1.4-0.9-2.1l0.9-0.3c0.3,0.6,0.7,1.4,0.9,2.1L487.3,200.8z"/>
			<path d="M493.3,201.7c-0.2-0.4-0.4-0.7-0.6-0.9c0.7-0.9,1.2-2,1.7-3.8c-0.7,0-1,0-1.4,0.1v-1c0.5,0.1,0.8,0.1,1.6,0.1
				c0-1.4,0-1.9-0.1-2.5c0.4,0,0.6,0.1,1,0c0.2,0,0.3,0.1,0.1,0.3c-0.1,0.1-0.1,0.2-0.1,0.3v1.8c0.4,0,0.6,0,1-0.1v1
				c-0.3,0-0.6-0.1-1-0.1v1.2l0.6-0.3c0.2,0.5,0.5,0.9,0.7,1.2l-0.9,0.4c-0.1-0.4-0.3-0.7-0.5-1.1v3.7c0,0.6,0,1.5,0.1,2.3h-1.1
				c0.1-0.8,0.1-1.6,0.1-2.3v-3.4C494.2,200.1,493.9,200.7,493.3,201.7z M501.7,200.1v2.5c0,0.5,0,1.1,0.1,1.7h-1.1
				c0-0.6,0-1.2,0-1.7v-1.7c0-0.7,0-1.4,0-1.6c0.3,0.1,0.6,0.1,0.9,0.1c-0.6-0.6-0.9-1.3-1.1-2.3h-0.6c-0.3,0.9-0.7,1.6-1.3,2.2
				c0.3,0.1,0.7,0.1,0.9,0.1c0.2,0,0.3,0.1,0.1,0.2c-0.1,0.1-0.1,0.3-0.1,0.7c0,1.9-0.4,2.8-1.8,4c-0.2-0.3-0.5-0.5-0.9-0.7
				c1.2-0.7,1.6-1.4,1.7-2.5c0.1-0.6,0.1-1.2,0.1-1.7c-0.5,0.5-1,0.9-1.8,1.5c-0.1-0.2-0.3-0.4-0.7-0.8c1.7-1.1,2.5-1.8,3-3
				c-0.8,0-1.3,0-2.1,0.1v-0.9c0.7,0,1.3,0.1,2.3,0.1c0.1-0.4,0.1-0.8,0.2-1.3c-0.8,0.1-1.5,0.1-2,0.1c0-0.3-0.2-0.6-0.4-0.9
				c0.9,0.1,2.2,0.1,3.7-0.2c0.9-0.1,1.2-0.2,1.6-0.4c0.1,0.3,0.4,0.9,0.6,1c0.1,0.1,0.1,0.2-0.1,0.2c-0.5-0.1-0.8-0.1-1.6,0
				c-0.3,0-0.6,0.1-0.9,0.1c0,0.5-0.1,1-0.2,1.4c1.6,0,2.5,0,3.4-0.1v0.9c-0.8-0.1-1.4-0.1-2.3-0.1c0.5,1.3,1.1,1.9,2.5,2.2
				c-0.3,0.4-0.5,0.7-0.6,1.1c-0.5-0.2-0.9-0.5-1.3-0.8C501.8,199.8,501.7,199.9,501.7,200.1z"/>
			<path d="M508.8,195.1v0.9c-0.4,0-0.9-0.1-2.3-0.1c-0.3,0.5-0.8,1.2-1.2,1.9c-0.1-0.4-0.3-0.7-0.5-0.9c0.7-0.7,1.5-2.3,1.8-3.5
				c0.3,0.2,0.6,0.3,0.9,0.4c0.3,0.1,0.3,0.2,0,0.4c-0.1,0.1-0.2,0.3-0.6,1C508,195.2,508.5,195.2,508.8,195.1z M505,200.3v-1
				c0.3,0,0.8,0.1,1.3,0.1V198c-0.2,0-0.3,0-0.5,0.1v-1c0.3,0.1,0.7,0.1,1.3,0.1c0.6,0,1.3,0,1.6-0.1v1c-0.3,0-0.9-0.1-1.5-0.1v1.4
				c0.8,0,1.3,0,1.7-0.1v1c-0.4-0.1-1-0.1-1.7-0.1v2.3c0.5-0.3,0.7-0.5,1.2-0.9c0,0.4,0,0.7,0.2,0.9l-1.4,1.2
				c-0.2,0.2-0.4,0.4-0.6,0.6c-0.2-0.3-0.4-0.6-0.7-0.9c0.3-0.3,0.5-0.6,0.5-1.2v-1.9C505.8,200.3,505.4,200.3,505,200.3z
				 M509.2,204.4c-0.1-0.3-0.3-0.5-0.6-0.7c0.9-0.3,1.6-0.7,2.4-1.4c0.2,0.2,0.5,0.5,0.7,0.6c0.2,0.1,0.1,0.2-0.1,0.2
				C511.3,203.2,510.3,203.7,509.2,204.4z M509.7,197.2c0-0.4,0-1-0.1-1.3c0.4,0,1,0.1,1.9,0.1c0-0.2,0-0.5,0-0.8
				c-1.1,0-1.8,0-2.5,0.1v-0.9c0.6,0.1,1.4,0.1,2.5,0.1c0-0.5,0-0.9-0.1-1.1c0.3,0.1,0.9,0.1,1.1,0.1c0.2,0,0.2,0.1,0.1,0.3
				c0,0-0.1,0.3-0.2,0.8c1.3,0,2.2,0,2.9-0.1v0.9c-0.7-0.1-1.7-0.1-3-0.1c0,0.3,0,0.5-0.1,0.8c1.1,0,1.8,0,2.3-0.1
				c0,0.3-0.1,0.9-0.1,1.3v4.2c0.4,0,0.7,0,1,0v0.8c-0.6-0.1-0.9-0.1-3.3-0.1c-2.3,0-2.8,0-3.3,0.1v-0.8c0.2,0,0.4,0,0.8,0V197.2z
				 M513.8,196.7h-3.1v0.7h3.1V196.7z M510.6,198.7h3.1V198h-3.1V198.7z M510.6,200.1h3.1v-0.7h-3.1V200.1z M513.8,200.7h-3.1v0.8
				h3.1V200.7z M514.9,204.3c-0.7-0.5-1.5-1-2.3-1.4l0.5-0.6c0.7,0.3,1.6,0.8,2.3,1.2L514.9,204.3z"/>
		</g>
	</g>
</g>
</svg>
