<?xml version="1.0" encoding="utf-8"?>
<!-- Generator: Adobe Illustrator 17.0.0, SVG Export Plug-In . SVG Version: 6.00 Build 0)  -->
<!DOCTYPE svg PUBLIC "-//W3C//DTD SVG 1.1//EN" "http://www.w3.org/Graphics/SVG/1.1/DTD/svg11.dtd">
<svg version="1.1" id="图层_1" xmlns="http://www.w3.org/2000/svg" xmlns:xlink="http://www.w3.org/1999/xlink" x="0px" y="0px"
	 preserveAspectRatio="none" viewBox="0 0 800 600" style="enable-background:new 0 0 800 600;" xml:space="preserve">
<g>
	<polygon style="fill:#00FFFF;" points="309.6,451.3 229.6,451.3 245.5,431.3 325.5,431.3 	"/>
	<g>
		<path d="M255.8,435.9h1.7v0.8h5.6v0.9h-5.6v1h5.1v6c0,1-0.4,1.6-1.2,2c-0.3,0.1-0.6,0.1-0.8,0.1h-0.8v-0.8h0.3
			c0.4,0,0.6-0.1,0.7-0.4c0.1-0.2,0.2-0.6,0.2-1.2v-4.7h-8.6v7.2h-1.7v-8.1h5.2v-1h-5.6v-0.9h5.6V435.9z M253.7,440.1h2.1
			c0.2,0.9,0.3,1.4,0.3,1.4h1.3c0,0,0.1-0.5,0.3-1.4h2.1v0l-0.7,1.3h1v0.9h-2.6v1.4h2.6v0.9h-2.6v2.2h-1.7v-2.2h-2.6v-0.9h2.6v-1.4
			h-2.6v-0.9h1.2L253.7,440.1z"/>
		<path d="M270.4,440.7h1.7v0.9h5.1v0.9h-5.1v1.2h4.6v0.9h-4.6v1.3h5.4v0.8h-12.9v-0.8h5.8v-1.3h-5v-0.9h5v-1.2h-3.8
			c-0.1,0.1-0.3,0.4-0.7,1.1h-1.3l0.8-2.6h2v0l-0.4,0.6h3.3V440.7z M265.1,435.9H277v4.6h-11.9V435.9z M266.8,436.8v1h8.5v-1H266.8z
			 M266.8,438.6v1h8.5v-1H266.8z"/>
		<path d="M280.4,435.9h2.2l-2.3,3.6v0h-1.4v0L280.4,435.9z M281.3,438.3h2.1l-1,1.3v7.1h-1.7v-4.9h0l-0.2,0.3v0h-1.4v-0.1
			L281.3,438.3z M284.6,435.9h1.7v1.4h1.2v0.9h-1.2v1.9h1.3v0.9h-4.4v-0.9h1.3v-1.9h-1.2v-0.9h1.2V435.9z M284.6,441.5h1.7v1.5h1.2
			v0.9h-1.2v2h1.3v0.9h-4.4v-0.9h1.3v-2h-1.2V443h1.2V441.5z M287.9,439.6h3.9v0.9h-0.5v3.6c0,1.2-0.3,2-0.9,2.3
			c-0.3,0.2-0.8,0.3-1.2,0.3h-0.7v-0.8h0.2c0.4,0,0.7-0.2,0.8-0.5c0.1-0.3,0.1-0.6,0.1-0.8v-4h-1.7V439.6z M288.1,435.9h3.5v0.9
			h-3.5V435.9z"/>
		<path d="M293.3,438.2h2.7v6c0,0.1,0.2,0.6,0.6,1.7h9.6v0.8h-10.5c-0.1,0-0.3-0.4-0.5-0.9l-0.6,0.9h-1.3l1-2.5v-5.2h-1V438.2z
			 M293.6,435.9h1.9l0.1,2h-1.5L293.6,435.9z M298,435.9h1.9c0,0.5,0.1,0.8,0.1,0.8h3l0.1-0.8h1.9l-0.3,0.8h1.4v0.9h-3.5
			c-0.1,0.2-0.3,0.5-0.5,1h3.6v7h-8.4v-7h3.2l0.2-1h-3.8v-0.9h1.4L298,435.9z M299.1,439.4v1.2h4.9v-1.2H299.1z M299.1,441.5v1.2
			h4.9v-1.2H299.1z M299.1,443.5v1.2h4.9v-1.2H299.1z"/>
	</g>
</g>
<g>
	<polygon style="fill:#00FFFF;" points="480,332.6 400,332.6 415.9,312.6 495.9,312.6 	"/>
	<g>
		<path d="M423.9,317.2h1.7v0.7h1.1v0.9h-1.1v1.4h1.1v0.9h-6.1v-0.9h0.6v-2.6h1.7v2.6h0.9V317.2z M421.4,325.8h1.9v0l-1.4,2.2h-1.3
			v0L421.4,325.8z M424.2,321.6h2.8c0,0-1.1,0.5-3.4,1.3v0h1.9l1.2-0.5h3.4c0,0-0.8,0.3-2.2,0.9l-3.2,1.2v0h6.3v0l-0.5-0.7h1.9
			l0.6,1.9h-1.2l-0.2-0.3h-3.5v0.4c0,1.1-0.4,1.8-1.1,2.1c-0.4,0.1-0.7,0.2-1,0.2h-0.7v-0.8h0.2c0.6,0,0.9-0.4,0.9-1.1v-0.7h-4.4
			v-0.8c0,0,0.5-0.3,1.6-0.7v0H421V323c0,0,0.8-0.4,2.3-1C423.8,321.7,424,321.6,424.2,321.6z M427.4,317.2h1.7v0.8l4.3-0.7v1.3
			l-4.3,0.3v1.3h4.3v0.9h-6.1V317.2z M430.7,325.8h1.9l0.8,2.3h-1.3l-1.4-2.1L430.7,325.8z"/>
		<path d="M435,317.2h5.6v2.8c0,1.2-0.2,1.9-0.7,2.2v0h0.7v2.3c0,1.2-0.3,2-0.8,2.3c-0.3,0.2-0.8,0.4-1.4,0.4h-0.5v-0.9h0.4
			c0.4,0,0.6-0.4,0.6-1.1v-2.5l-0.5,0h-0.5v-0.9h0.3c0.4,0,0.6-0.4,0.6-1.1v-2.6h-2.2v10H435V317.2z M441.2,317.2h6.6v10.8h-6.6
			V317.2z M442.9,318.1v4.1h3.2v-4.1H442.9z M442.9,323.1v4.1h3.2v-4.1H442.9z"/>
		<path d="M450.8,317.2h2.2l-2.3,3.6v0h-1.4v0L450.8,317.2z M451.7,319.6h2.1l-1,1.3v7.1H451v-4.9h0l-0.2,0.3v0h-1.4v-0.1
			L451.7,319.6z M454.9,317.2h1.7v1.4h1.2v0.9h-1.2v1.9h1.3v0.9h-4.4v-0.9h1.3v-1.9h-1.2v-0.9h1.2V317.2z M454.9,322.8h1.7v1.5h1.2
			v0.9h-1.2v2h1.3v0.9h-4.4v-0.9h1.3v-2h-1.2v-0.9h1.2V322.8z M458.3,321h3.9v0.9h-0.5v3.6c0,1.2-0.3,2-0.9,2.3
			c-0.3,0.2-0.8,0.3-1.2,0.3h-0.7v-0.8h0.2c0.4,0,0.7-0.2,0.8-0.5c0.1-0.3,0.1-0.6,0.1-0.8v-4h-1.7V321z M458.5,317.2h3.5v0.9h-3.5
			V317.2z"/>
		<path d="M463.7,319.5h2.7v6c0,0.1,0.2,0.6,0.6,1.7h9.6v0.8H466c-0.1,0-0.3-0.4-0.5-0.9l-0.6,0.9h-1.3l1-2.5v-5.2h-1V319.5z
			 M464,317.2h1.9l0.1,2h-1.5L464,317.2z M468.4,317.2h1.9c0,0.5,0.1,0.8,0.1,0.8h3l0.1-0.8h1.9l-0.3,0.8h1.4v0.9H473
			c-0.1,0.2-0.3,0.5-0.5,1h3.6v7h-8.4v-7h3.2l0.2-1h-3.8v-0.9h1.4L468.4,317.2z M469.5,320.8v1.2h4.9v-1.2H469.5z M469.5,322.8v1.2
			h4.9v-1.2H469.5z M469.5,324.9v1.2h4.9v-1.2H469.5z"/>
	</g>
</g>
<g>
	<polygon style="fill:#00FFFF;" points="593.3,254.1 513.3,254.1 529.2,234.1 609.2,234.1 	"/>
	<g>
		<path d="M535.5,238.7h1.9l0,0.3v0.3l0,0.2h2.1v0.9h-4v3h3.8v0.8h-5.5v-3.9h-0.4v-0.9h2.2L535.5,238.7z M533.7,244.6h12.4v0.9h-5.4
			v1.1h5.1v0.9h-5.1v1.1h5.6v0.8h-12.9v-0.8h5.6v-1.1H534v-0.9h5.1v-1.1h-5.4V244.6z M540.1,238.7h6.2v3.4c0,1-0.4,1.7-1.1,2
			c-0.3,0.1-0.6,0.2-0.9,0.2h-0.4v-0.8c0.3,0,0.5-0.1,0.7-0.4l0.1-0.2h-2.8v1.5h-1.7V238.7z M541.8,239.5v0.6h2.8v-0.6H541.8z
			 M541.8,241v0.8h2.8V241H541.8z"/>
		<path d="M549.1,244.6h1.4l-0.8,4.9h-1.9v0L549.1,244.6z M547.9,238.7h1.9c0,0,0.2,0.4,0.4,1.3l0.3,1h-1.4L547.9,238.7z
			 M547.9,241.6h1.9c0,0,0.2,0.4,0.4,1.3l0.3,1h-1.4L547.9,241.6z M551.4,238.7h9v0.8h-3.7v9.1h3.9v0.8h-9.5v-0.8h3.9v-9.1h-3.7
			V238.7z"/>
		<path d="M563.6,238.7h2.2l-2.3,3.6v0h-1.4v0L563.6,238.7z M564.5,241.1h2.1l-1,1.3v7.1h-1.7v-4.9h0l-0.2,0.3v0h-1.4v-0.1
			L564.5,241.1z M567.8,238.7h1.7v1.4h1.2v0.9h-1.2v1.9h1.3v0.9h-4.4v-0.9h1.3V241h-1.2v-0.9h1.2V238.7z M567.8,244.3h1.7v1.5h1.2
			v0.9h-1.2v2h1.3v0.9h-4.4v-0.9h1.3v-2h-1.2v-0.9h1.2V244.3z M571.2,242.4h3.9v0.9h-0.5v3.6c0,1.2-0.3,2-0.9,2.3
			c-0.3,0.2-0.8,0.3-1.2,0.3h-0.7v-0.8h0.2c0.4,0,0.7-0.2,0.8-0.5c0.1-0.3,0.1-0.6,0.1-0.8v-4h-1.7V242.4z M571.4,238.7h3.5v0.9
			h-3.5V238.7z"/>
		<path d="M576.5,240.9h2.7v6c0,0.1,0.2,0.6,0.6,1.7h9.6v0.8h-10.5c-0.1,0-0.3-0.4-0.5-0.9l-0.6,0.9h-1.3l1-2.5v-5.2h-1V240.9z
			 M576.9,238.7h1.9l0.1,2h-1.5L576.9,238.7z M581.3,238.7h1.9c0,0.5,0.1,0.8,0.1,0.8h3l0.1-0.8h1.9l-0.3,0.8h1.4v0.9h-3.5
			c-0.1,0.2-0.3,0.5-0.5,1h3.6v7h-8.4v-7h3.2l0.2-1h-3.8v-0.9h1.4L581.3,238.7z M582.3,242.2v1.2h4.9v-1.2H582.3z M582.3,244.2v1.2
			h4.9v-1.2H582.3z M582.3,246.3v1.2h4.9v-1.2H582.3z"/>
	</g>
</g>
<g>
	<polygon style="fill:#00FFFF;" points="327.9,201.4 247.9,201.4 263.8,181.4 343.8,181.4 	"/>
	<g>
		<path d="M269.8,192h1.4l-0.8,4.9h-1.9v0L269.8,192z M268.6,186h1.9c0,0,0.2,0.4,0.4,1.3l0.3,1h-1.4L268.6,186z M268.6,189h1.9
			c0,0,0.2,0.4,0.4,1.3l0.3,1h-1.4L268.6,189z M276,186h1.7v0.8h3.4v0.9h-3.4v0.6h3.3v0.9h-3.3v0.5h3.7v0.9h-9.1v-0.9h3.7v-0.5h-3.2
			v-0.9h3.2v-0.6h-3.4v-0.9h3.4V186z M272.5,191.1h8.6v3.1c0,1.3-0.3,2-0.9,2.3c-0.3,0.2-0.7,0.3-1.2,0.3h-0.7V196h0.2
			c0.4,0,0.6-0.1,0.8-0.4v-0.1h-5v1.3h-1.7V191.1z M274.3,191.9v0.9h5.1v-0.9H274.3z M274.3,193.7v0.9h5.1v-0.9H274.3z"/>
		<path d="M284.2,192h1.4l-0.8,4.9h-1.9v0L284.2,192z M283,186h1.9c0,0,0.2,0.4,0.4,1.3l0.3,1h-1.4L283,186z M283,189h1.9
			c0,0,0.2,0.4,0.4,1.3l0.3,1h-1.4L283,189z M290.7,186h1.7v0.8h3.3v2.9H294v-2h-1.6v2.6h2.8v2.7l-1.6,1.1l-0.6,0.4l2.7,2.4h-1.8
			l-2.1-1.5l-2.1,1.5h-1.8l2.7-2.4l-2.1-1.5h0v-2.7h2.2v-2.6h-2.2l-1,9.2h-1.3l0.4-10.1h4.1V186z M290.2,191.1v0.9
			c0.9,0.8,1.5,1.3,1.6,1.4l1.6-1.4v-0.9H290.2z"/>
		<path d="M298.7,186h2.2l-2.3,3.6v0h-1.4v0L298.7,186z M299.6,188.4h2.1l-1,1.3v7.1h-1.7V192h0l-0.2,0.3v0h-1.4v-0.1L299.6,188.4z
			 M302.8,186h1.7v1.4h1.2v0.9h-1.2v1.9h1.3v0.9h-4.4v-0.9h1.3v-1.9h-1.2v-0.9h1.2V186z M302.8,191.6h1.7v1.5h1.2v0.9h-1.2v2h1.3
			v0.9h-4.4v-0.9h1.3v-2h-1.2v-0.9h1.2V191.6z M306.2,189.7h3.9v0.9h-0.5v3.6c0,1.2-0.3,2-0.9,2.3c-0.3,0.2-0.8,0.3-1.2,0.3h-0.7
			V196h0.2c0.4,0,0.7-0.2,0.8-0.5c0.1-0.3,0.1-0.6,0.1-0.8v-4h-1.7V189.7z M306.4,186h3.5v0.9h-3.5V186z"/>
		<path d="M311.6,188.3h2.7v6c0,0.1,0.2,0.6,0.6,1.7h9.6v0.8h-10.5c-0.1,0-0.3-0.4-0.5-0.9l-0.6,0.9h-1.3l1-2.5v-5.2h-1V188.3z
			 M311.9,186h1.9l0.1,2h-1.5L311.9,186z M316.3,186h1.9c0,0.5,0.1,0.8,0.1,0.8h3l0.1-0.8h1.9l-0.3,0.8h1.4v0.9h-3.5
			c-0.1,0.2-0.3,0.5-0.5,1h3.6v7h-8.4v-7h3.2l0.2-1h-3.8v-0.9h1.4L316.3,186z M317.4,189.5v1.2h4.9v-1.2H317.4z M317.4,191.6v1.2
			h4.9v-1.2H317.4z M317.4,193.6v1.2h4.9v-1.2H317.4z"/>
	</g>
</g>
<g>
	<polygon style="fill:#00FFFF;" points="450.4,133.6 370.4,133.6 386.3,113.6 466.3,113.6 	"/>
	<g>
		<path d="M391.3,119.4h1.9v0l-1.5,7.8h-1.2v0L391.3,119.4z M396.1,118.2h1.7v8.4c0,1.1-0.3,1.8-1,2.1c-0.4,0.2-0.7,0.3-1.1,0.3
			h-1.1v-0.8h0.6c0.6,0,0.9-0.4,0.9-1.2V118.2z M400.7,119.4h1.9l0.8,7.9h-1.2L400.7,119.4z"/>
		<path d="M406.7,118.2h1.7v0.7h5.8v-0.7h1.7v0.7h1.8v0.9h-1.8v0.7h-1.7v-0.7h-5.8v0.7h-1.7v-0.7h-1.8v-0.9h1.8V118.2z M404.9,120.7
			h12.9v1.7H416v-0.8h-9.5v0.8h-1.7V120.7z M405.4,125.8h11.8v3.2h-11.8V125.8z M406.1,122.7h10.5v2.8h-10.5V122.7z M407.1,126.7
			v1.5h8.4v-1.5H407.1z M407.8,123.6v1.1h7v-1.1H407.8z"/>
		<path d="M420.7,118.2h2.2l-2.3,3.6v0h-1.4v0L420.7,118.2z M421.6,120.6h2.1l-1,1.3v7.1h-1.7v-4.9h0l-0.2,0.3v0h-1.4v-0.1
			L421.6,120.6z M424.9,118.2h1.7v1.4h1.2v0.9h-1.2v1.9h1.3v0.9h-4.4v-0.9h1.3v-1.9h-1.2v-0.9h1.2V118.2z M424.9,123.8h1.7v1.5h1.2
			v0.9h-1.2v2h1.3v0.9h-4.4v-0.9h1.3v-2h-1.2v-0.9h1.2V123.8z M428.2,121.9h3.9v0.9h-0.5v3.6c0,1.2-0.3,2-0.9,2.3
			c-0.3,0.2-0.8,0.3-1.2,0.3h-0.7v-0.8h0.2c0.4,0,0.7-0.2,0.8-0.5c0.1-0.3,0.1-0.6,0.1-0.8v-4h-1.7V121.9z M428.4,118.2h3.5v0.9
			h-3.5V118.2z"/>
		<path d="M433.6,120.5h2.7v6c0,0.1,0.2,0.6,0.6,1.7h9.6v0.8H436c-0.1,0-0.3-0.4-0.5-0.9l-0.6,0.9h-1.3l1-2.5v-5.2h-1V120.5z
			 M433.9,118.2h1.9l0.1,2h-1.5L433.9,118.2z M438.3,118.2h1.9c0,0.5,0.1,0.8,0.1,0.8h3l0.1-0.8h1.9l-0.3,0.8h1.4v0.9H443
			c-0.1,0.2-0.3,0.5-0.5,1h3.6v7h-8.4v-7h3.2l0.2-1h-3.8V119h1.4L438.3,118.2z M439.4,121.7v1.2h4.9v-1.2H439.4z M439.4,123.8v1.2
			h4.9v-1.2H439.4z M439.4,125.8v1.2h4.9v-1.2H439.4z"/>
	</g>
</g>
<g>
	<polygon style="fill:#00FFFF;" points="349.8,116.9 269.8,116.9 285.7,96.9 365.7,96.9 	"/>
	<g>
		<path d="M291.3,107.5h1.4l-0.8,4.9h-1.9v0L291.3,107.5z M290.1,101.5h1.9c0,0,0.2,0.4,0.4,1.3l0.3,1h-1.4L290.1,101.5z
			 M290.1,104.5h1.9c0,0,0.2,0.4,0.4,1.3l0.3,1h-1.4L290.1,104.5z M294.6,101.5h1.7v1.8h1.4v0.8h-1.4v2.1h1.4v6.1h-4.5v-6.1h1.4
			v-2.1h-1.4v-0.8h1.4V101.5z M294.9,107.2v4.3h1.1v-4.3H294.9z M298,101.5h4.8v8.8c0,1-0.4,1.6-1.1,1.9c-0.3,0.1-0.6,0.2-0.8,0.2
			h-0.5v-0.8c0.3,0,0.5-0.2,0.7-0.5c0.1-0.2,0.1-0.6,0.1-1.2v-1.1h-1.4v3.6H298V101.5z M299.7,102.4v2.3h1.4v-2.3H299.7z
			 M299.7,105.5v2.3h1.4v-2.3H299.7z"/>
		<path d="M305.6,107.5h1.4l-0.8,4.9h-1.9v0L305.6,107.5z M304.4,101.5h1.9c0,0,0.2,0.4,0.4,1.3l0.3,1h-1.4L304.4,101.5z
			 M304.4,104.5h1.9c0,0,0.2,0.4,0.4,1.3l0.3,1h-1.4L304.4,104.5z M311.7,101.5h1.9l0,0.2v0.3l0,0.3h3.5v1.8h-1.7v-0.9h-5.6v0.9
			h-1.7v-1.8h3.7v0L311.7,101.5z M317,104.4c0,0.1-0.2,0.5-0.6,1.2h-6.2v0.7h6.9v0.9h-0.5v1.5h0.5v0.8h-9v-0.8h0.3v-4h6.6
			c0,0,0.1-0.1,0.2-0.3H317z M311,109.8L311,109.8l-1.4,2.5h-1.4l0.7-2.5H311z M310.2,107.2v1.5h4.7v-1.5H310.2z M314.4,109.8h2.1
			l0.6,2.5h-1.3C315.8,112.3,315.3,111.4,314.4,109.8z"/>
		<path d="M320.2,101.5h2.2l-2.3,3.6v0h-1.4v0L320.2,101.5z M321,103.9h2.1l-1,1.3v7.1h-1.7v-4.9h0l-0.2,0.3v0h-1.4v-0.1L321,103.9z
			 M324.3,101.5h1.7v1.4h1.2v0.9H326v1.9h1.3v0.9H323v-0.9h1.3v-1.9h-1.2v-0.9h1.2V101.5z M324.3,107.1h1.7v1.5h1.2v0.9H326v2h1.3
			v0.9H323v-0.9h1.3v-2h-1.2v-0.9h1.2V107.1z M327.7,105.2h3.9v0.9h-0.5v3.6c0,1.2-0.3,2-0.9,2.3c-0.3,0.2-0.8,0.3-1.2,0.3h-0.7
			v-0.8h0.2c0.4,0,0.7-0.2,0.8-0.5c0.1-0.3,0.1-0.6,0.1-0.8v-4h-1.7V105.2z M327.9,101.5h3.5v0.9h-3.5V101.5z"/>
		<path d="M333,103.8h2.7v6c0,0.1,0.2,0.6,0.6,1.7h9.6v0.8h-10.5c-0.1,0-0.3-0.4-0.5-0.9l-0.6,0.9H333l1-2.5v-5.2h-1V103.8z
			 M333.4,101.5h1.9l0.1,2h-1.5L333.4,101.5z M337.8,101.5h1.9c0,0.5,0.1,0.8,0.1,0.8h3l0.1-0.8h1.9l-0.3,0.8h1.4v0.9h-3.5
			c-0.1,0.2-0.3,0.5-0.5,1h3.6v7h-8.4v-7h3.2l0.2-1h-3.8v-0.9h1.4L337.8,101.5z M338.8,105v1.2h4.9V105H338.8z M338.8,107.1v1.2h4.9
			v-1.2H338.8z M338.8,109.1v1.2h4.9v-1.2H338.8z"/>
	</g>
</g>
</svg>
