<?xml version="1.0" encoding="utf-8"?>
<!-- Generator: Adobe Illustrator 17.0.0, SVG Export Plug-In . SVG Version: 6.00 Build 0)  -->
<!DOCTYPE svg PUBLIC "-//W3C//DTD SVG 1.1//EN" "http://www.w3.org/Graphics/SVG/1.1/DTD/svg11.dtd">
<svg version="1.1" id="图层_1" xmlns="http://www.w3.org/2000/svg" xmlns:xlink="http://www.w3.org/1999/xlink" x="0px" y="0px"
	 preserveAspectRatio="none" viewBox="0 0 800 600" style="enable-background:new 0 0 800 600;" xml:space="preserve">
	<g>
		<g>
			<polygon style="fill:#00FFFF;" points="289.7,145.3 209.7,145.3 225.6,125.3 305.6,125.3 			"/>
		</g>
		<g>
			<polygon style="fill:#00FFFF;" points="195.4,235 115.4,235 131.3,215 211.3,215 			"/>
		</g>
		<g>
			<polygon style="fill:#00FFFF;" points="378,180.5 298,180.5 313.8,160.5 393.8,160.5 			"/>
		</g>
		<g>
			<polygon style="fill:#00FFFF;" points="227.4,322.9 147.4,322.9 163.3,302.9 243.3,302.9 			"/>
		</g>
		<g>
			<polygon style="fill:#00FFFF;" points="348.5,287.1 268.5,287.1 284.4,267.1 364.4,267.1 			"/>
		</g>
		<g>
			<polygon style="fill:#00FFFF;" points="457.4,280.3 377.4,280.3 393.3,260.3 473.3,260.3 			"/>
		</g>
		<g>
			<polygon style="fill:#00FFFF;" points="155.9,405.4 75.9,405.4 91.8,385.4 171.8,385.4 			"/>
		</g>
		<g>
			<polygon style="fill:#00FFFF;" points="505.3,401.1 425.3,401.1 441.2,381.1 521.2,381.1 			"/>
		</g>
		<g>
			<polygon style="fill:#00FFFF;" points="595,493.6 515,493.6 530.9,473.6 610.9,473.6 			"/>
		</g>
		<g>
			<path d="M136.8,222.7c0.8,0.6,1.6,1.3,2.3,2l-0.9,0.9c-0.5-0.6-1.3-1.3-2.3-2.1L136.8,222.7z M139.1,226.9
				c-0.6,1.8-1.2,3.4-1.9,5l-1.2-0.5c0.7-1.6,1.4-3.3,1.9-4.9L139.1,226.9z M137,219.4c0.8,0.6,1.6,1.2,2.3,1.9l-0.9,0.9
				c-0.5-0.6-1.3-1.3-2.2-2L137,219.4z M145.3,227.6c-0.1,1.8-0.6,3.3-1.4,4.5l-1-0.8c0.2-0.3,0.3-0.5,0.4-0.7h-2.8v0.8h-1.2v-5.7
				h1.4v-2.4h-1.7v-1.2h1.7v-2.3h1.3v2.3h1.7v1.2h-1.7v2.4h1.4v4.8c0.5-1.1,0.8-2.3,0.8-3.8v-6.9h4.2v11.2c0,0.9-0.4,1.3-1.3,1.3h-1
				l-0.3-1.2c0.4,0,0.7,0.1,1,0.1c0.3,0,0.5-0.2,0.5-0.6v-2.7H145.3z M140.6,229.4h1.7v-2.7h-1.7V229.4z M147.2,223v-2.2h-1.8v2.2
				H147.2z M145.4,224.2v2.2h1.8v-2.2H145.4z"/>
			<path d="M160,219.6c-0.3,0.5-0.5,0.9-0.9,1.3h3.5v1.3h-12.6v-1.3h3.6c-0.2-0.5-0.5-0.9-0.8-1.4l1.4-0.2c0.3,0.5,0.6,1,0.9,1.6
				h2.5c0.4-0.5,0.7-1.1,1-1.7L160,219.6z M153.9,232l-0.4-1.3l1,0c0.3,0,0.5-0.2,0.5-0.7v-0.9h-2.7v3h-1.3V223h5.3v7.4
				c0,1.1-0.4,1.6-1.3,1.6H153.9z M152.3,225.5h2.7v-1.3h-2.7V225.5z M152.3,228h2.7v-1.3h-2.7V228z M157.6,223.8h1.3v6h-1.3V223.8z
				 M158.5,232l-0.3-1.3c0.6,0.1,1.2,0.1,1.7,0.1c0.3,0,0.5-0.2,0.5-0.6v-7.5h1.3v7.9c0,1-0.5,1.4-1.4,1.4H158.5z"/>
			<path d="M167.2,227.2c-0.3,2-1,3.6-2,4.7l-1-0.9c1.2-1.3,1.8-3.5,1.8-6.4v-5.3h1.3v3.1h4.1v-3.3h1.3v3.3h3.8v1.3h-9.1v0.8
				c0,0.3,0,0.7-0.1,1.3h6.4v6.2h-1.3v-5H167.2z"/>
			<path d="M178.9,219.7h11.2v1.3h-10v9.3h10.4v1.3h-11.7V219.7z M182.2,222c1.3,1,2.5,1.9,3.5,2.8c0.7-1,1.4-2.1,1.9-3.3l1.2,0.6
				c-0.6,1.4-1.3,2.5-2.1,3.6c1,0.9,1.9,1.9,2.8,2.8l-1,1c-0.8-0.9-1.7-1.9-2.6-2.8c-1.2,1.2-2.5,2.2-4.1,2.9l-0.8-1.2
				c1.5-0.6,2.8-1.5,3.8-2.6c-1-0.9-2.2-1.9-3.5-2.9L182.2,222z"/>
		</g>
		<g>
			<path d="M96.5,394h12.6v1.3h-6.6c-1.2,2.4-2.3,4.1-3.2,5.2c2.3-0.1,4.5-0.4,6.9-0.7c-0.5-0.8-1-1.7-1.5-2.5l1.1-0.7
				c1.3,1.8,2.2,3.5,3,4.9l-1.2,0.8c-0.3-0.6-0.5-1.1-0.7-1.4c-2.8,0.4-5.9,0.7-9.2,0.9l-0.4-1.4c0.1,0,0.3-0.1,0.3-0.1
				c0.9-0.6,2-2.4,3.4-5.1h-4.5V394z M97.9,390.1h10.1v1.3H97.9V390.1z"/>
			<path d="M114.5,401.6v0.7h-1.3v-3.7c-0.7,0.5-1.4,0.9-2.1,1.3l-0.7-1.1c1.9-0.9,3.3-2,4.2-3.3h-4.1v-1.2h12.7v1.2H116
				c-0.3,0.5-0.6,1-1,1.5h6.8v5.3h-1.3v-0.7H114.5z M116.2,389.4h1.3v2.5h3v-2h1.3v3.2h-9.9v-3.2h1.3v2h2.9V389.4z M120.5,400.4
				v-2.2h-6v2.2H120.5z"/>
			<path d="M127.7,397.4c-0.3,2-1,3.6-2,4.7l-1-0.9c1.2-1.3,1.8-3.5,1.8-6.4v-5.3h1.3v3.2h4.1v-3.3h1.3v3.3h3.8v1.3h-9.1v0.8
				c0,0.3,0,0.7-0.1,1.3h6.4v6.2h-1.3v-5H127.7z"/>
			<path d="M139.3,389.9h11.2v1.3h-10v9.3H151v1.3h-11.7V389.9z M142.6,392.1c1.3,1,2.5,1.9,3.5,2.8c0.7-1,1.4-2.1,1.9-3.3l1.2,0.6
				c-0.6,1.4-1.3,2.5-2.1,3.6c1,0.9,1.9,1.9,2.8,2.8l-1,1c-0.8-0.9-1.7-1.9-2.6-2.8c-1.2,1.2-2.5,2.2-4.1,2.9l-0.8-1.2
				c1.5-0.6,2.8-1.5,3.9-2.6c-1-0.9-2.2-1.9-3.5-2.9L142.6,392.1z"/>
		</g>
		<g>
			<path d="M168.9,310.3c1,0.7,1.9,1.4,2.5,2.1l-0.9,0.9c-0.6-0.7-1.4-1.4-2.5-2.1L168.9,310.3z M171.6,314.6
				c-0.7,1.8-1.4,3.5-2.2,5l-1.2-0.5c0.9-1.5,1.6-3.2,2.3-4.9L171.6,314.6z M169.2,307c1,0.7,1.8,1.3,2.5,2l-0.9,0.9
				c-0.6-0.6-1.4-1.3-2.5-2L169.2,307z M175.7,308.9h-3.4v-1.3h8v1.3H177v9.1h3.8v1.3h-9.2V318h4.1V308.9z"/>
			<path d="M192.7,309.2h1.3v10.2h-1.3v-0.8H184v0.8h-1.3v-10.3h1.3v8.2h3.7v-10.4h1.3v10.4h3.6V309.2z"/>
			<path d="M199.2,314.8c-0.3,2-1,3.6-2,4.7l-1-0.9c1.2-1.3,1.8-3.5,1.8-6.4V307h1.3v3.1h4.1v-3.3h1.3v3.3h3.8v1.3h-9.1v0.8
				c0,0.3,0,0.7-0.1,1.3h6.4v6.2h-1.3v-5H199.2z"/>
			<path d="M210.9,307.4h11.2v1.3h-10v9.3h10.4v1.3h-11.7V307.4z M214.2,309.6c1.3,1,2.5,1.9,3.5,2.8c0.7-1,1.4-2.1,1.9-3.3l1.2,0.6
				c-0.6,1.4-1.3,2.5-2.1,3.6c1,0.9,1.9,1.9,2.8,2.8l-1,1c-0.8-0.9-1.7-1.9-2.6-2.8c-1.2,1.2-2.5,2.2-4.1,2.9l-0.8-1.2
				c1.5-0.6,2.8-1.5,3.9-2.6c-1-0.9-2.2-1.9-3.5-2.9L214.2,309.6z"/>
		</g>
		<g>
			<path d="M230.5,132.9c1,0.7,1.9,1.4,2.5,2.1l-0.9,1c-0.6-0.7-1.5-1.4-2.5-2.2L230.5,132.9z M233.3,137.2c-0.7,1.8-1.4,3.4-2.2,5
				l-1.3-0.6c0.9-1.6,1.7-3.2,2.4-4.9L233.3,137.2z M231.1,129.5c1,0.7,1.9,1.5,2.6,2.2l-1,1c-0.6-0.7-1.5-1.4-2.6-2.2L231.1,129.5z
				 M240.4,129.9v3.5c0,0.4,0.2,0.6,0.6,0.6h1.4v1.3h-1.8c-1,0-1.6-0.5-1.6-1.5v-2.6h-2.7c0,0.9-0.1,1.8-0.4,2.5
				c-0.3,0.7-0.9,1.5-1.7,2.1l-1-0.9c0.8-0.7,1.3-1.4,1.5-2c0.2-0.6,0.3-1.6,0.3-3H240.4z M241.2,136v6.1h-1.3v-0.6h-4.2v0.6h-1.3
				V136H241.2z M235.7,140.3h4.2v-3h-4.2V140.3z"/>
			<path d="M244.5,132.8c1,0.7,1.9,1.4,2.5,2.1l-0.9,0.9c-0.6-0.7-1.4-1.4-2.5-2.1L244.5,132.8z M247.2,137c-0.7,1.8-1.4,3.5-2.2,5
				l-1.2-0.5c0.9-1.5,1.6-3.2,2.3-4.9L247.2,137z M244.9,129.5c1,0.7,1.8,1.3,2.5,2l-0.9,0.9c-0.6-0.6-1.4-1.3-2.5-2L244.9,129.5z
				 M251.4,131.3H248v-1.3h8v1.3h-3.3v9.1h3.8v1.3h-9.2v-1.3h4.1V131.3z"/>
			<path d="M260.9,137.3c-0.3,2-1,3.6-2,4.7l-1-0.9c1.2-1.3,1.8-3.5,1.8-6.4v-5.3h1.3v3.2h4.1v-3.3h1.3v3.3h3.8v1.3h-9.1v0.8
				c0,0.3,0,0.7-0.1,1.3h6.4v6.2h-1.3v-5H260.9z"/>
			<path d="M272.5,129.8h11.2v1.3h-10v9.3h10.4v1.3h-11.7V129.8z M275.8,132c1.3,1,2.5,1.9,3.5,2.8c0.7-1,1.4-2.1,1.9-3.3l1.2,0.6
				c-0.6,1.4-1.3,2.5-2.1,3.6c1,0.9,1.9,1.9,2.8,2.8l-1,1c-0.8-0.9-1.7-1.9-2.6-2.8c-1.2,1.2-2.5,2.2-4.1,2.9l-0.8-1.2
				c1.5-0.6,2.8-1.5,3.9-2.6c-1-0.9-2.2-1.9-3.5-2.9L275.8,132z"/>
		</g>
		<g>
			<path d="M318.7,167.8h3.9c0.1-1,0.1-2,0.1-3h1.3c0,0.9,0,1.9-0.1,3h7.2v1.3h-4.5v4.1c0.9-0.9,1.7-2,2.3-3.2l1.2,0.6
				c-0.9,1.8-2.1,3.2-3.5,4.3v0.7c0,0.4,0.2,0.6,0.5,0.6h2c0.2,0,0.4-0.1,0.5-0.3c0.1-0.2,0.2-0.9,0.3-2l1.3,0.4
				c-0.1,1.5-0.3,2.4-0.6,2.7c-0.3,0.3-0.6,0.4-1.2,0.4h-2.7c-1,0-1.5-0.5-1.5-1.6v-0.1c-0.6,0.4-1.3,0.7-2.1,1l-0.8-1.1
				c1.1-0.4,2-0.8,2.8-1.4v-5.2h-1.5c-0.1,1-0.3,1.8-0.5,2.7c-0.6,2.4-1.9,4.4-4,6l-0.9-1.1c1.8-1.4,3-3.1,3.6-5.2
				c0.2-0.8,0.3-1.6,0.4-2.4h-3.7V167.8z M327.1,164.8c1,0.6,1.8,1.2,2.5,1.9l-1,1c-0.6-0.6-1.4-1.2-2.5-2L327.1,164.8z"/>
			<path d="M333.4,168.4c1,0.7,1.9,1.4,2.5,2.1l-0.9,0.9c-0.6-0.7-1.4-1.4-2.5-2.1L333.4,168.4z M336.1,172.6
				c-0.7,1.8-1.4,3.5-2.2,5l-1.2-0.5c0.9-1.5,1.6-3.2,2.3-4.9L336.1,172.6z M333.8,165c1,0.7,1.8,1.3,2.5,2l-0.9,0.9
				c-0.6-0.6-1.4-1.3-2.5-2L333.8,165z M340.2,166.9h-3.4v-1.3h8v1.3h-3.3v9.1h3.8v1.3h-9.2V176h4.1V166.9z"/>
			<path d="M349.8,172.9c-0.3,2-1,3.6-2,4.7l-1-0.9c1.2-1.3,1.8-3.5,1.8-6.4V165h1.3v3.1h4.1v-3.3h1.3v3.3h3.8v1.3H350v0.8
				c0,0.3,0,0.7-0.1,1.3h6.4v6.2H355v-5H349.8z"/>
			<path d="M361.4,165.4h11.2v1.3h-10v9.3h10.4v1.3h-11.7V165.4z M364.7,167.6c1.3,1,2.5,1.9,3.5,2.8c0.7-1,1.4-2.1,1.9-3.3l1.2,0.6
				c-0.6,1.4-1.3,2.5-2.1,3.6c1,0.9,1.9,1.9,2.8,2.8l-1,1c-0.8-0.9-1.7-1.9-2.6-2.8c-1.2,1.2-2.5,2.2-4.1,2.9l-0.8-1.2
				c1.5-0.6,2.8-1.5,3.9-2.6c-1-0.9-2.2-1.9-3.5-2.9L364.7,167.6z"/>
		</g>
		<g>
			<path d="M289.8,271.5h11.4v1.3h-5.1v5h5.6v1.3h-5.6v4.8h-1.3v-4.8h-5.5v-1.3h5.5v-5h-5V271.5z M291.7,273.5c0.5,1,1,2,1.5,3.1
				l-1.2,0.6c-0.5-1.2-0.9-2.2-1.5-3.2L291.7,273.5z M300.5,274c-0.4,1-0.9,2.1-1.6,3.2l-1.2-0.6c0.7-1.1,1.2-2.1,1.6-3.1L300.5,274
				z"/>
			<path d="M305.4,273.1c-0.3,0.6-0.7,1.2-1.1,1.7l-1.1-0.7c0.8-1,1.4-2.1,1.8-3.2l1.3,0.3c0,0.1-0.1,0.2-0.1,0.4
				c-0.1,0.2-0.1,0.3-0.1,0.4h3.3v1.1H307c0.3,0.4,0.5,0.8,0.8,1.2l-1.2,0.4c-0.3-0.6-0.6-1.1-1-1.6H305.4z M304.7,275.1h4v-0.7h1.3
				v0.7h4v1.1h-4v1.1h5.6v1.1h-2.6v1.1h2v1.2h-2v1.9c0,0.9-0.5,1.3-1.4,1.3h-2l-0.3-1.3c0.8,0.1,1.4,0.1,1.8,0.1
				c0.4,0,0.6-0.2,0.6-0.5v-1.6H304v-1.2h7.8v-1.1h-8.6v-1.1h5.6v-1.1h-4V275.1z M306.5,280.9c0.7,0.7,1.3,1.4,1.7,1.9l-1,0.7
				c-0.4-0.6-1-1.3-1.7-1.9L306.5,280.9z M311.1,273c-0.3,0.6-0.6,1-0.8,1.4l-1.1-0.7c0.6-0.8,1.1-1.8,1.4-2.8l1.3,0.3l-0.2,0.8h3.8
				v1.1h-2.2c0.3,0.4,0.5,0.8,0.8,1.2l-1.2,0.4c-0.3-0.6-0.6-1.1-1-1.6H311.1z"/>
			<path d="M320.3,279c-0.3,2-1,3.6-2,4.7l-1-0.9c1.2-1.3,1.8-3.5,1.8-6.4v-5.3h1.3v3.1h4.1V271h1.3v3.3h3.8v1.3h-9.1v0.8
				c0,0.3,0,0.7-0.1,1.3h6.4v6.2h-1.3v-5H320.3z"/>
			<path d="M331.9,271.5h11.2v1.3h-10v9.3h10.4v1.3h-11.7V271.5z M335.2,273.8c1.3,1,2.5,1.9,3.5,2.8c0.7-1,1.4-2.1,1.9-3.3l1.2,0.6
				c-0.6,1.4-1.3,2.5-2.1,3.6c1,0.9,1.9,1.9,2.8,2.8l-1,1c-0.8-0.9-1.7-1.9-2.6-2.8c-1.2,1.2-2.5,2.2-4.1,2.9l-0.8-1.2
				c1.5-0.6,2.8-1.5,3.9-2.6c-1-0.9-2.2-1.9-3.5-2.9L335.2,273.8z"/>
		</g>
		<g>
			<path d="M409.4,265.9v10.8H408v-1h-7.4v1h-1.3v-10.8h3.4c0.3-0.7,0.5-1.5,0.6-2.2l1.5,0.2c-0.1,0.7-0.3,1.4-0.6,2H409.4z
				 M400.6,270h7.4v-2.8h-7.4V270z M400.6,274.4h7.4v-3.1h-7.4V274.4z"/>
			<path d="M412.8,267.4c0.9,0.7,1.6,1.3,2.3,2l-1,1c-0.6-0.7-1.3-1.4-2.3-2.1L412.8,267.4z M415.3,271.7c-0.6,1.8-1.2,3.4-1.9,4.9
				l-1.3-0.6c0.8-1.5,1.5-3.1,2.1-4.8L415.3,271.7z M413.1,263.9c0.9,0.7,1.8,1.4,2.5,2.1l-1,1c-0.6-0.7-1.4-1.4-2.5-2.1
				L413.1,263.9z M418.7,265.8c-0.5,2.6-1.3,4.5-2.3,5.8l-1-0.9c0.9-1.5,1.6-3.2,2-5.2L418.7,265.8z M424.2,270.8
				c-1.3,3.1-3.9,5-7.7,5.9l-0.7-1.2c3.7-0.8,6.1-2.6,7.3-5.4L424.2,270.8z M419.5,263.8h1.3v8.4h-1.3V263.8z M422.7,265.1
				c0.7,1.2,1.5,2.5,2.2,4l-1.2,0.6c-0.6-1.5-1.3-2.8-2.1-4.1L422.7,265.1z"/>
			<path d="M429.2,271.7c-0.3,2-1,3.6-2,4.7l-1-0.9c1.2-1.3,1.8-3.5,1.8-6.4v-5.3h1.3v3.1h4.1v-3.3h1.3v3.3h3.8v1.3h-9.1v0.8
				c0,0.3,0,0.7-0.1,1.3h6.4v6.2h-1.3v-5H429.2z"/>
			<path d="M440.8,264.3H452v1.3h-10v9.3h10.4v1.3h-11.7V264.3z M444.1,266.5c1.3,1,2.5,1.9,3.5,2.8c0.7-1,1.4-2.1,1.9-3.3l1.2,0.6
				c-0.6,1.4-1.3,2.5-2.1,3.6c1,0.9,1.9,1.9,2.8,2.8l-1,1c-0.8-0.9-1.7-1.9-2.6-2.8c-1.2,1.2-2.5,2.2-4.1,2.9l-0.8-1.2
				c1.5-0.6,2.8-1.5,3.9-2.6c-1-0.9-2.2-1.9-3.5-2.9L444.1,266.5z"/>
		</g>
		<g>
			<polygon style="fill:#00FFFF;" points="623.7,316.2 489.7,316.2 505.6,296.2 639.6,296.2 			"/>
		</g>
		<g>
			<path d="M511.6,308.5c-0.3,1.4-0.8,2.7-1.4,3.7l-1.1-0.7c0.6-1,1-2.1,1.3-3.2L511.6,308.5z M509.3,304h1.5
				c-0.2-0.5-0.4-1-0.6-1.4l1.2-0.4c0.3,0.6,0.5,1.2,0.6,1.8h1.3c0.2-0.6,0.4-1.2,0.6-1.8l1.2,0.4c-0.2,0.5-0.4,0.9-0.6,1.4h1.4v1.2
				h-2.6v1.3h2.4v1.2h-2.4v3.7c0,0.8-0.5,1.3-1.4,1.3h-0.7l-0.3-1.2c0.2,0.1,0.4,0.1,0.6,0.1c0.3,0,0.5-0.1,0.5-0.4v-3.4h-2.5v-1.2
				h2.5v-1.3h-2.7V304z M509.5,300.8h2.5c-0.2-0.4-0.4-0.7-0.6-1l1.4-0.2c0.2,0.4,0.4,0.8,0.5,1.3h2.6v1.2h-6.4V300.8z M514.8,308.2
				c0.4,0.9,0.7,1.7,0.9,2.4l-1.1,0.4c-0.2-0.9-0.5-1.7-0.8-2.6L514.8,308.2z M521.8,301c-1.2,0.4-2.5,0.7-4,0.8v2.3h4.3v1.3h-1.4
				v7.3h-1.3v-7.3h-1.7v1.4c-0.1,2.5-0.6,4.4-1.6,5.9l-0.9-1c0.8-1.2,1.2-2.8,1.3-4.9v-6c1.7,0,3.2-0.3,4.6-0.9L521.8,301z"/>
			<path d="M523.2,303.2h1.1v-3.4h1.3v3.4h1.1v1.3h-1.1v3.9l1-0.6v1.3c-1.1,0.6-2.2,1.1-3.3,1.6l-0.3-1.3c0.4-0.1,0.8-0.2,1.3-0.4
				v-4.4h-1.1V303.2z M528.7,305.8c-0.1,2.8-0.7,5-1.9,6.7l-1-0.9c1-1.4,1.6-3.4,1.6-5.9v-4h4c0-0.4,0-1.1,0-2h1.2c0,0.7,0,1.4,0,2
				h3v1.2h-3c0.1,1.7,0.2,3,0.4,3.9l0.1,0.4c0.4-1,0.8-2,1-3.2l1.1,0.5c-0.4,1.7-1,3.2-1.7,4.4c0.1,0.4,0.2,0.7,0.4,1
				c0.3,0.6,0.6,0.9,0.7,0.9c0.1,0,0.3-0.6,0.4-1.9l1.1,0.6c-0.3,1.9-0.7,2.9-1.3,2.9c-0.5,0-1-0.4-1.6-1.3c-0.2-0.3-0.4-0.6-0.6-1
				c-0.8,1-1.6,1.7-2.6,2.3l-0.8-1c1.2-0.6,2.2-1.5,3-2.6c-0.1-0.3-0.2-0.8-0.4-1.4c-0.3-1.2-0.4-2.6-0.5-4.4h-2.8v1.7h2.4
				c0,2.6-0.1,4.2-0.3,4.8c-0.2,0.6-0.6,0.8-1.2,0.9h-0.9l-0.3-1.1h1c0.3,0,0.4-0.2,0.5-0.6c0.1-0.4,0.1-1.3,0.1-2.8H528.7z
				 M534.3,299.6c0.4,0.5,0.7,1.1,0.9,1.7l-1,0.4c-0.3-0.7-0.6-1.2-0.9-1.7L534.3,299.6z"/>
			<path d="M538.2,300.4h11v1.3h-2.2v3.4h3v1.3h-3v6.1h-1.3v-6.1h-3.8c-0.1,1.4-0.4,2.6-0.8,3.5c-0.5,1.2-1.4,2.1-2.7,2.7l-0.7-1.1
				c1.1-0.7,1.9-1.5,2.3-2.5c0.3-0.7,0.4-1.6,0.6-2.6h-3.1v-1.3h3.2l0-0.3v-3.1h-2.5V300.4z M542,301.7v3.2l0,0.2h3.7v-3.4H542z"/>
			<path d="M552.1,304.2l1.1-4.1l1.3,0.2l-0.7,2.6h2.1c0.3-1,0.5-2.1,0.6-3.3l1.4,0.2c-0.2,1.1-0.4,2.1-0.6,3.1h6.4v1.3h-6.7
				c0,0.1-0.2,0.5-0.4,1.3h5.6v1.1c-0.4,1.2-1.1,2.2-2.1,3.1c1.1,0.6,2.3,1.1,3.8,1.6l-0.7,1.3c-1.7-0.6-3.1-1.3-4.3-2
				c-1.1,0.8-2.5,1.5-4.1,2.1l-0.7-1.3c1.4-0.5,2.6-1.1,3.6-1.7c-0.9-0.7-1.6-1.5-2-2.3c-1,2.1-2.3,3.7-3.8,5l-0.7-1.2
				c1.9-1.7,3.4-4,4.3-7H552.1z M556.6,306.7c0.5,0.8,1.2,1.6,2.2,2.3c0.9-0.7,1.5-1.5,1.9-2.3H556.6z M560.2,299.6
				c1,0.7,1.8,1.5,2.4,2.2l-1,1c-0.6-0.7-1.4-1.5-2.4-2.3L560.2,299.6z"/>
			<path d="M578,311l-0.2,1.3h-4.1c-2.6,0-4.4-0.4-5.5-1.1c-0.1-0.1-0.2-0.2-0.3-0.3c-0.4,0.6-1,1.1-1.6,1.6l-0.9-1.1
				c0.6-0.4,1.1-0.9,1.5-1.5c-0.5-0.8-0.9-1.7-1.3-2.9l1.1-0.4c0.2,0.9,0.5,1.6,0.8,2.1c0.4-0.9,0.6-1.9,0.7-3h-2.5v-1
				c0.7-0.9,1.4-2,2.1-3.1h-2.1v-1.3h3.6v1.1c-0.6,1.2-1.3,2.2-1.9,3.1h2v0.8c-0.1,1.8-0.4,3.3-1.1,4.6c0.2,0.2,0.4,0.3,0.5,0.4
				c0.9,0.5,2.3,0.8,4.1,0.8C574.4,311.1,576.1,311.1,578,311z M577,305.6h-3v0.9h3.2v1.1H574v0.9h3.6v1.1H574v1.1h-1.3v-1.1h-3.1
				v-1.1h3.1v-0.9h-2.6v-1.1h2.6v-0.9h-2.3v-1.1h2.3v-0.9h-3v-1.1h3v-0.8h-2.3v-1.1h2.3v-0.9h1.3v0.9h3v1.9h0.8v1.1H577V305.6z
				 M574,301.7v0.8h1.7v-0.8H574z M574,303.6v0.9h1.7v-0.9H574z"/>
			<path d="M579.2,303.9h3.1v5.9c0.4-0.3,0.9-0.7,1.4-1.3l0.4,1.4c-0.9,0.9-1.9,1.6-2.9,2.3l-0.5-1.2c0.2-0.2,0.3-0.5,0.3-0.7v-5.1
				h-1.8V303.9z M581,299.9c0.9,0.7,1.7,1.4,2.3,2.1l-0.9,0.9c-0.5-0.6-1.3-1.3-2.3-2.1L581,299.9z M584.2,305.5h6.8v1.2
				c-0.4,1.2-1.1,2.3-2,3.2c0.9,0.6,2,1.1,3.2,1.6l-0.7,1.1c-1.4-0.5-2.5-1.2-3.5-1.9c-1.1,0.8-2.4,1.4-4,1.9l-0.7-1.1
				c1.5-0.4,2.7-1,3.7-1.7c-1-0.9-1.6-2-1.9-3.1h-0.8V305.5z M585.2,300.1h5v2.9c0,0.3,0.2,0.5,0.5,0.5h1.2v1.2h-1.6
				c-1,0-1.5-0.5-1.5-1.4v-2h-2.3v0.4c0,1.5-0.7,2.6-2.2,3.4l-0.9-1c1.2-0.5,1.8-1.3,1.8-2.2V300.1z M586.3,306.8
				c0.3,0.8,0.9,1.6,1.7,2.3c0.8-0.7,1.3-1.5,1.8-2.3H586.3z"/>
			<path d="M599,299.6h1.4v2.4h5v6.8H604V308h-3.7v4.7H599V308h-3.6v0.8H594V302h5V299.6z M595.3,306.7h3.6v-3.4h-3.6V306.7z
				 M600.3,306.7h3.7v-3.4h-3.7V306.7z"/>
			<path d="M609.9,304.3c-0.4,2.5-0.9,4.6-1.6,6.5l-1.1-0.7c0.7-1.8,1.2-3.8,1.5-6L609.9,304.3z M612.4,312.1
				c-1.1,0-1.6-0.5-1.6-1.6v-7.9h1.3v7.6c0,0.4,0.2,0.6,0.7,0.6h2.4c0.3,0,0.5-0.1,0.6-0.4c0.1-0.3,0.3-1.3,0.3-2.8l1.3,0.4
				c-0.1,2-0.3,3.2-0.6,3.6c-0.3,0.4-0.7,0.5-1.3,0.5H612.4z M613.1,299.7c1.2,1.4,2.2,2.7,2.9,3.7l-1.1,0.8
				c-0.7-1.2-1.7-2.4-2.8-3.8L613.1,299.7z M618.1,303.6c0.8,2,1.6,4,2.2,6l-1.2,0.5c-0.7-2.3-1.4-4.4-2.2-6.1L618.1,303.6z"/>
		</g>
		<g>
			<path d="M448.8,393.1c-0.1,1.8-0.7,3.4-1.8,4.8l-1-0.9c1-1.1,1.5-2.4,1.5-4.1v-3.8h4.6c-0.2-0.4-0.4-0.8-0.6-1.1l1.3-0.2
				c0.2,0.4,0.4,0.9,0.5,1.4h4.2v4H448.8z M446.1,385.9h3.2v-1h1.3v1h3.4v-1h1.3v1h3.2v1.2h-3.2v1H454v-1h-3.4v1h-1.3v-1h-3.2V385.9
				z M456.2,390.3h-7.4v1.6h7.4V390.3z"/>
			<path d="M460.8,388.3c0.8,0.7,1.5,1.4,2.1,2.1l-1,0.9c-0.5-0.7-1.2-1.4-2.1-2.1L460.8,388.3z M463.4,392.7c-0.6,1.7-1.3,3.4-2,5
				l-1.3-0.6c0.8-1.6,1.5-3.2,2.2-4.9L463.4,392.7z M461.2,385c0.9,0.7,1.7,1.4,2.3,2.1l-1,1c-0.5-0.7-1.3-1.4-2.3-2.1L461.2,385z
				 M463.6,386.4h3.8v-1.5h1.3v1.5h2c-0.3-0.4-0.6-0.8-1-1.2l0.9-0.5c0.5,0.5,0.9,0.9,1.2,1.4l-0.4,0.3h1.3v1.2h-3.9v1.1h3.3v7.6
				c0,0.9-0.5,1.4-1.4,1.4h-1.1l-0.3-1.2l1,0c0.3,0,0.5-0.2,0.5-0.5v-1.2h-2v2.9h-1.3v-2.9h-2v3h-1.3v-9h3.3v-1.1h-3.8V386.4z
				 M467.4,389.9h-2v1.3h2V389.9z M465.4,392.4v1.3h2v-1.3H465.4z M470.7,391.2v-1.3h-2v1.3H470.7z M470.7,393.6v-1.3h-2v1.3H470.7z
				"/>
			<path d="M477.1,392.8c-0.3,2-1,3.6-2,4.7l-1-0.9c1.2-1.3,1.8-3.5,1.8-6.4V385h1.3v3.2h4.1v-3.3h1.3v3.3h3.8v1.3h-9.1v0.8
				c0,0.3,0,0.7-0.1,1.3h6.4v6.2h-1.3v-5H477.1z"/>
			<path d="M488.8,385.4H500v1.3h-10v9.3h10.4v1.3h-11.7V385.4z M492,387.6c1.3,1,2.5,1.9,3.5,2.8c0.7-1,1.4-2.1,1.9-3.3l1.2,0.6
				c-0.6,1.4-1.3,2.5-2.1,3.6c1,0.9,1.9,1.9,2.8,2.8l-1,1c-0.8-0.9-1.7-1.9-2.6-2.8c-1.2,1.2-2.5,2.2-4.1,2.9l-0.8-1.2
				c1.5-0.6,2.8-1.5,3.9-2.6c-1-0.9-2.2-1.9-3.5-2.9L492,387.6z"/>
		</g>
		<g>
			<path d="M539.7,477.1c-0.1,0.5-0.3,0.9-0.5,1.3h1.8v10.2c0,0.8-0.4,1.3-1.3,1.3h-1.1l-0.3-1.2c0.5,0,0.8,0.1,1,0.1
				c0.3,0,0.4-0.2,0.4-0.6v-3.9h-2.2c-0.1,2.4-0.4,4.3-1.1,5.8l-1-0.9c0.5-1.3,0.8-2.9,0.8-4.9h-0.8V483h0.8v-4.6h1.5
				c0.2-0.4,0.3-0.9,0.4-1.5L539.7,477.1z M537.6,483h2.2v-3.4h-2.2V483z M538.8,484.8c0.2,0.7,0.5,1.6,0.7,2.5l-1,0.3
				c-0.2-0.9-0.4-1.8-0.6-2.5L538.8,484.8z M538.8,480.1c0.2,0.6,0.4,1.3,0.6,2.1l-1,0.3c-0.2-0.8-0.4-1.4-0.6-2L538.8,480.1z
				 M547.7,477.6v6.5h-4.8v3.7c0,0.4,0.2,0.7,0.6,0.7h2.5c0.4,0,0.6-0.2,0.7-0.5c0.1-0.2,0.2-0.9,0.3-2.1l1.2,0.4
				c-0.1,1.1-0.2,1.8-0.3,2.2c-0.2,0.7-0.7,1.1-1.5,1.1h-3.4c-0.9,0-1.4-0.5-1.4-1.4v-10.7H547.7z M544.1,478.8h-1.2v4.1h1.2V478.8z
				 M545.3,483h1.2v-4.1h-1.2V483z"/>
			<path d="M549.7,483.1h0.7v-4.6h1.2c0.1-0.4,0.2-0.9,0.3-1.5l1.3,0.2c-0.1,0.4-0.2,0.9-0.4,1.3h1.6v10.1c0,0.9-0.4,1.4-1.3,1.4
				h-0.9l-0.3-1.1c0.4,0,0.7,0.1,0.9,0.1c0.3,0,0.5-0.2,0.5-0.7v-3.8h-1.7c0,0.2,0,0.5,0,0.9l0.9-0.3c0.3,0.8,0.5,1.6,0.7,2.6
				l-0.9,0.2c-0.2-0.8-0.4-1.7-0.7-2.5c-0.1,2-0.5,3.6-1,4.8l-1-0.9c0.6-1.3,0.9-2.9,0.9-4.9h-0.7V483.1z M553.3,483.1v-3.5h-1.7
				v3.5H553.3z M552.4,480.2c0.2,0.6,0.4,1.3,0.6,2.1l-0.8,0.2c-0.2-0.7-0.4-1.4-0.6-2L552.4,480.2z M555.1,479.8h1.9v-0.8h-2V478h2
				V477h1.2v0.9h0.8V477h1.2v0.9h2.2v1.1h-2.2v0.8h1.9v4.5h-6.9V479.8z M561.5,484.9v5.1h-1.2v-0.5h-3.7v0.5h-1.2v-5.1H561.5z
				 M556.1,481.6h0.9v-0.9h-0.9V481.6z M557,483.4v-0.9h-0.9v0.9H557z M556.7,486.7h3.7v-0.8h-3.7V486.7z M556.7,488.5h3.7v-0.8
				h-3.7V488.5z M558.9,479.1h-0.8v0.8h0.8V479.1z M558.1,480.7v0.9h0.8v-0.9H558.1z M558.9,483.4v-0.9h-0.8v0.9H558.9z M560,480.7
				v0.9h1v-0.9H560z M560.9,483.4v-0.9h-1v0.9H560.9z"/>
			<path d="M566.8,485c-0.3,2-1,3.6-2,4.7l-1-0.9c1.2-1.3,1.8-3.5,1.8-6.4v-5.3h1.3v3.1h4.1V477h1.3v3.3h3.8v1.3H567v0.8
				c0,0.3,0,0.7-0.1,1.3h6.4v6.2H572v-5H566.8z"/>
			<path d="M578.5,477.6h11.2v1.3h-10v9.3h10.4v1.3h-11.7V477.6z M581.8,479.8c1.3,1,2.5,1.9,3.5,2.8c0.7-1,1.4-2.1,1.9-3.3l1.2,0.6
				c-0.6,1.4-1.3,2.5-2.1,3.6c1,0.9,1.9,1.9,2.8,2.8l-1,1c-0.8-0.9-1.7-1.9-2.6-2.8c-1.2,1.2-2.5,2.2-4.1,2.9l-0.8-1.2
				c1.5-0.6,2.8-1.5,3.9-2.6c-1-0.9-2.2-1.9-3.5-2.9L581.8,479.8z"/>
		</g>
	</g>
</svg>
