<?xml version="1.0" encoding="utf-8"?>
<!-- Generator: Adobe Illustrator 17.0.0, SVG Export Plug-In . SVG Version: 6.00 Build 0)  -->
<!DOCTYPE svg PUBLIC "-//W3C//DTD SVG 1.1//EN" "http://www.w3.org/Graphics/SVG/1.1/DTD/svg11.dtd">
<svg version="1.1" id="图层_1" xmlns="http://www.w3.org/2000/svg" xmlns:xlink="http://www.w3.org/1999/xlink" x="0px" y="0px"
	 preserveAspectRatio="none" viewBox="0 0 890 540" style="enable-background:new 0 0 890 540;" xml:space="preserve">

<polygon style="fill:#09F9F8;" points="485.8,255.9 445.3,255.9 449.9,239.9 490.4,239.9 "/>
<polygon style="fill:#09F9F8;" points="702.4,162.4 661.9,162.4 666.5,146.4 707,146.4 "/>
<polygon style="fill:#09F9F8;" points="785.6,332.6 745.2,332.6 749.8,316.6 790.2,316.6 "/>
<polygon style="fill:#09F9F8;" points="798.5,172.4 732.4,172.4 737,156.4 803.1,156.4 "/>
<polygon style="fill:#09F9F8;" points="485.8,388.2 445.3,388.2 449.9,372.2 490.4,372.2 "/>
<polygon style="fill:#09F9F8;" points="356.1,349.6 315.6,349.6 320.2,333.6 360.7,333.6 "/>
<polygon style="fill:#09F9F8;" points="352.6,258.9 312.1,258.9 316.7,242.9 357.2,242.9 "/>
<polygon style="fill:#09F9F8;" points="421.2,191.4 380.7,191.4 385.3,175.4 425.8,175.4 "/>
<polygon style="fill:#09F9F8;" points="345.7,410.3 305.2,410.3 309.8,394.3 350.3,394.3 "/>
<polygon style="fill:#09F9F8;" points="169.4,349.6 116.9,349.6 121.5,333.6 174.1,333.6 "/>
<polygon style="fill:#09F9F8;" points="552.5,175.4 493.6,175.4 498.2,159.4 557.1,159.4 "/>
<polygon style="fill:#09F9F8;" points="627.7,186.4 568.8,186.4 573.4,170.4 632.3,170.4 "/>
<polygon style="fill:#09F9F8;" points="672.5,313.6 613.6,313.6 618.2,297.6 677.1,297.6 "/>
<polygon style="fill:#09F9F8;" points="729.3,248 670.4,248 675,232 733.9,232 "/>
<polygon style="fill:#09F9F8;" points="765.2,220 706.3,220 710.9,204 769.8,204 "/>
<polygon style="fill:#09F9F8;" points="744.8,308.8 685.9,308.8 690.5,292.8 749.4,292.8 "/>
<polygon style="fill:#09F9F8;" points="159.2,223.2 118.7,223.2 123.3,207.2 163.8,207.2 "/>
<polygon style="fill:#09F9F8;" points="250.3,256 209.8,256 214.4,240 254.9,240 "/>
<g>
	<path style="fill:#030C1F;" d="M128.3,216.6c0-0.4,0-0.6-0.1-0.8c0.2,0.1,0.7,0.1,1,0.1c0.2,0,0.2,0.1,0.1,0.2
		c-0.1,0.1-0.1,0.8-0.1,2l1.7,0v-1.2c0-0.3,0-0.4-0.1-0.6c0.4,0.1,0.8,0.1,1,0.1c0.1,0,0.2,0.1,0,0.2c-0.1,0.1-0.1,0.1-0.1,0.3v1.6
		c0,0.2,0,0.4,0.1,0.6h-0.9v-0.3l-3,0.2c-1,0.1-1.7,0.1-2.1,0.1c0.1-0.2,0.1-0.4,0.1-0.6V217c0-0.3,0-0.5-0.1-0.6
		c0.4,0.1,0.8,0.1,1.1,0.1c0.2,0,0.2,0.1,0,0.2c-0.1,0-0.1,0.2-0.1,0.4v1.1l1.6,0V216.6z M128.7,209.8c0.4,0.1,0.8,0.2,1.3,0.2
		c0.2,0,0.2,0.1,0,0.2c-0.1,0.1-0.4,0.5-0.5,0.9h1.6c1,0,1.7,0,2.1-0.1c-0.1,0.4-0.2,1.5-0.3,2.4c-0.1,0.8-0.3,1-1.8,1.2
		c0-0.4-0.2-0.8-0.4-1.1c0.8,0.2,1.3,0.1,1.3-0.3l0.1-1.3h-4.7v3l4.8-0.1c0.7,0,1.3,0,1.8-0.1c-0.1,0.6-0.1,3.4-0.2,4
		c-0.1,1-0.5,1.1-1.6,1.3c0-0.3-0.2-0.8-0.5-1.1c0.9,0,1.1,0,1.1-0.6l0.1-2.7l-4.8,0.1c-0.7,0-1.3,0-1.8,0.1
		c0.1-0.4,0.1-0.7,0.1-1.1v-2.6c0-0.3,0-0.7-0.1-1c0.4,0,1.3,0.1,2,0.1C128.6,210.6,128.7,210,128.7,209.8z M129.1,214.1
		c-0.1-0.6-0.3-1.2-0.4-1.6l1-0.2c0.1,0.4,0.3,1.1,0.5,1.6L129.1,214.1z"/>
	<path style="fill:#030C1F;" d="M136.6,217.3c-0.2-0.3-0.5-0.6-0.8-0.8c1.7-1.1,3.1-2.5,3.9-5c-1.4,0-2.5,0-3.4,0.1v-1
		c1.1,0.1,2.6,0.1,4.6,0.1c2.1,0,3.6,0,4.6-0.1v1c-1.1-0.1-2.7-0.1-4.9-0.1c-0.3,0.8-0.7,1.7-1.2,2.5h3.2c0.7,0,1.2,0,1.6-0.1
		c-0.1,0.3-0.1,0.7-0.1,1.1v2.9c0,0.4,0,1,0.1,1.6h-1.1v-0.9h-3.9v1.1h-1c0.1-0.6,0.1-1.2,0.1-1.9v-2.3
		C138,216,137.4,216.7,136.6,217.3z M143.2,214.8h-3.9v2.9h3.9V214.8z"/>
	<path style="fill:#030C1F;" d="M150.6,211.3v0.8c-0.3,0-0.8-0.1-2.1-0.1c-0.3,0.5-0.7,1.1-1.1,1.7c-0.1-0.4-0.2-0.6-0.4-0.8
		c0.6-0.6,1.3-2.1,1.6-3.2c0.3,0.2,0.5,0.3,0.8,0.3c0.3,0.1,0.3,0.2,0,0.4c-0.1,0.1-0.2,0.3-0.5,0.9
		C149.8,211.3,150.2,211.3,150.6,211.3z M147.1,216.1v-0.9c0.3,0,0.7,0.1,1.2,0.1v-1.3c-0.2,0-0.3,0-0.5,0.1v-0.9
		c0.3,0.1,0.6,0.1,1.2,0.1c0.6,0,1.2,0,1.5-0.1v0.9c-0.3,0-0.8-0.1-1.4-0.1v1.3c0.7,0,1.2,0,1.6-0.1v0.9c-0.4-0.1-0.9-0.1-1.6-0.1
		v2.1c0.4-0.3,0.7-0.5,1.1-0.9c0,0.4,0,0.7,0.1,0.8l-1.3,1.1c-0.2,0.2-0.4,0.3-0.5,0.5c-0.2-0.3-0.4-0.6-0.6-0.8
		c0.3-0.2,0.4-0.5,0.4-1.1V216C147.8,216,147.4,216,147.1,216.1z M150.9,219.8c-0.1-0.3-0.3-0.5-0.6-0.6c0.8-0.2,1.5-0.6,2.2-1.3
		c0.2,0.2,0.5,0.5,0.6,0.5c0.2,0.1,0.1,0.2-0.1,0.2C152.8,218.7,151.9,219.2,150.9,219.8z M151.4,213.2c0-0.3,0-0.9-0.1-1.2
		c0.4,0,0.9,0.1,1.7,0.1c0-0.2,0-0.5,0-0.7c-1,0-1.7,0-2.3,0.1v-0.8c0.6,0.1,1.3,0.1,2.3,0.1c0-0.4,0-0.8-0.1-1
		c0.3,0.1,0.8,0.1,1,0.1c0.2,0,0.2,0.1,0.1,0.2c0,0-0.1,0.3-0.2,0.7c1.2,0,2,0,2.7-0.1v0.8c-0.7-0.1-1.5-0.1-2.8-0.1
		c0,0.2,0,0.5-0.1,0.7c1,0,1.7,0,2.1-0.1c0,0.2-0.1,0.8-0.1,1.2v3.9c0.4,0,0.7,0,0.9,0v0.7c-0.5-0.1-0.9-0.1-3-0.1
		c-2.1,0-2.5,0-3,0.1v-0.7c0.2,0,0.4,0,0.7,0V213.2z M155.1,212.7h-2.9v0.7h2.9V212.7z M152.2,214.6h2.9v-0.6h-2.9V214.6z
		 M152.2,215.8h2.9v-0.7h-2.9V215.8z M155.1,216.4h-2.9v0.7h2.9V216.4z M156.1,219.7c-0.7-0.5-1.3-0.9-2.1-1.3l0.5-0.6
		c0.7,0.3,1.5,0.7,2.1,1.1L156.1,219.7z"/>
</g>
<g>
	<path style="fill:#030C1F;" d="M320.3,255.5h-1c0.1-0.3,0.1-0.7,0.1-1.2v-2.4c0-0.5,0-0.9-0.1-1.2c0.5,0,2.3,0.1,4,0.1
		c1.7,0,3.6,0,4-0.1c0,0.3-0.1,0.8-0.1,1.3v2.2c0,0.5,0,0.9,0.1,1.2h-1v-0.5h-6.1V255.5z M326.5,246.8v2.3c0,0.3,0,0.7,0.1,0.8
		c-0.5,0-1.9-0.1-3.4-0.1c-1.5,0-2.8,0-3.3,0.1c0-0.1,0.1-0.5,0.1-0.8v-2.3c0-0.3,0-0.6-0.1-0.8c0.5,0,1.8,0.1,3.3,0.1
		c1.5,0,2.9,0,3.4-0.1C326.6,246.2,326.5,246.5,326.5,246.8z M326.4,251.4h-6.1v0.9h6.1V251.4z M326.4,252.9h-6.1v1.1h6.1V252.9z
		 M325.6,246.8h-4.8v0.9h4.8V246.8z M320.8,249.2h4.8v-0.8h-4.8V249.2z"/>
	<path style="fill:#030C1F;" d="M330,250.8c-0.1-0.3-0.4-0.5-0.7-0.8c0.6-0.5,1.2-1.4,1.6-2.2c0.5-0.9,0.7-1.9,0.8-2.6
		c0.4,0.2,0.7,0.3,1.1,0.4c0.3,0.1,0.4,0.2,0.1,0.4c-0.1,0.1-0.2,0.3-0.9,1.7v7.5h-1c0.1-0.5,0.1-1.2,0.1-1.8v-4.1
		C330.6,249.9,330.3,250.4,330,250.8z M333.1,252.9c-0.1-0.2-0.5-0.6-0.8-0.8c0.5-0.1,1.3-0.6,2.1-1.2v-4.1c0-0.5,0-1.1-0.1-1.4
		c0.3,0.1,0.9,0.1,1.2,0.1c0.2,0,0.2,0.1,0.1,0.2c-0.1,0.1-0.2,0.3-0.2,0.5v3.8c0.8-0.8,1.5-1.7,2.3-3.1c0.3,0.3,0.7,0.5,1,0.7
		c0.2,0.1,0.2,0.2,0,0.2c-0.1,0-0.6,0.4-0.8,0.7c-0.9,1.1-1.7,1.9-2.5,2.6v2.4c0,0.6,0.1,0.6,1.2,0.6c1.2,0,1.4-0.1,1.6-1.6
		c0.4,0.4,0.6,0.6,1,0.7c-0.5,1.7-0.6,1.7-2.7,1.7c-2,0-2.1-0.2-2.1-1.1V252C334,252.3,333.6,252.6,333.1,252.9z"/>
	<path style="fill:#030C1F;" d="M344,246.9v0.8c-0.3,0-0.8-0.1-2.1-0.1c-0.3,0.5-0.7,1.1-1.1,1.7c-0.1-0.4-0.2-0.6-0.4-0.8
		c0.6-0.6,1.3-2.1,1.6-3.2c0.3,0.2,0.5,0.3,0.8,0.3c0.3,0.1,0.3,0.2,0,0.4c-0.1,0.1-0.2,0.3-0.5,0.9C343.2,247,343.7,247,344,246.9z
		 M340.5,251.7v-0.9c0.3,0,0.7,0.1,1.2,0.1v-1.3c-0.2,0-0.3,0-0.5,0.1v-0.9c0.3,0.1,0.6,0.1,1.2,0.1c0.6,0,1.2,0,1.5-0.1v0.9
		c-0.3,0-0.8-0.1-1.4-0.1v1.3c0.7,0,1.2,0,1.6-0.1v0.9c-0.4-0.1-0.9-0.1-1.6-0.1v2.1c0.4-0.3,0.7-0.5,1.1-0.9c0,0.4,0,0.7,0.1,0.8
		l-1.3,1.1c-0.2,0.2-0.4,0.3-0.5,0.5c-0.2-0.3-0.4-0.6-0.6-0.8c0.3-0.2,0.4-0.5,0.4-1.1v-1.7C341.2,251.7,340.8,251.7,340.5,251.7z
		 M344.3,255.5c-0.1-0.3-0.3-0.5-0.6-0.6c0.8-0.2,1.5-0.6,2.2-1.3c0.2,0.2,0.5,0.5,0.6,0.5c0.2,0.1,0.1,0.2-0.1,0.2
		C346.3,254.3,345.3,254.8,344.3,255.5z M344.8,248.9c0-0.3,0-0.9-0.1-1.2c0.4,0,0.9,0.1,1.7,0.1c0-0.2,0-0.5,0-0.7
		c-1,0-1.7,0-2.3,0.1v-0.8c0.6,0.1,1.3,0.1,2.3,0.1c0-0.4,0-0.8-0.1-1c0.3,0.1,0.8,0.1,1,0.1c0.2,0,0.2,0.1,0.1,0.2
		c0,0-0.1,0.3-0.2,0.7c1.2,0,2,0,2.7-0.1v0.8c-0.7-0.1-1.5-0.1-2.8-0.1c0,0.2,0,0.5-0.1,0.7c1,0,1.7,0,2.1-0.1
		c0,0.2-0.1,0.8-0.1,1.2v3.9c0.4,0,0.7,0,0.9,0v0.7c-0.5-0.1-0.9-0.1-3-0.1c-2.1,0-2.5,0-3,0.1v-0.7c0.2,0,0.4,0,0.7,0V248.9z
		 M348.5,248.3h-2.9v0.7h2.9V248.3z M345.6,250.2h2.9v-0.6h-2.9V250.2z M345.6,251.5h2.9v-0.7h-2.9V251.5z M348.5,252h-2.9v0.7h2.9
		V252z M349.6,255.4c-0.7-0.5-1.3-0.9-2.1-1.3l0.5-0.6c0.7,0.3,1.5,0.7,2.1,1.1L349.6,255.4z"/>
</g>
<g>
	<path style="fill:#030C1F;" d="M391,184.8c-0.4,0.8-1.8,2.1-3.3,2.9c-0.2-0.4-0.4-0.6-0.8-0.8c1.1-0.5,2.1-1.2,2.8-2
		c0.7-0.8,1.2-2.3,1.3-3.5c-1.6,0-2.8,0.1-3.7,0.1v-1.1c0.9,0.1,2.1,0.1,3.8,0.1c0.1-1.8,0.1-2.3,0-2.8c0.4,0.1,1,0.1,1.4,0.1
		c0.1,0,0.2,0,0,0.1c-0.1,0.1-0.2,0.4-0.2,0.7c0,0.9-0.1,1.4-0.1,1.9c1.7,0,3-0.1,4-0.1v1.1c-1-0.1-2.3-0.1-4-0.1
		c0.4,1.3,1.2,2.6,2.3,3.7c0.8,0.8,1.3,1.1,2.3,1.5c-0.3,0.2-0.7,0.6-0.9,1.1c-0.9-0.4-2-1.4-2.5-2.1c-0.7-0.9-1.2-1.8-1.5-3.2
		C391.7,183.5,391.5,183.9,391,184.8z M391.7,187.1c-0.2-0.6-0.4-1.2-0.7-1.6l0.9-0.4c0.4,0.6,0.6,1,0.8,1.6L391.7,187.1z"/>
	<path style="fill:#030C1F;" d="M400.9,182c0.7,1,1.1,1.9,1.1,2.4c0,1.1-0.7,1.6-2,1.7c0-0.4-0.2-0.8-0.4-1.2c1.1,0.3,1.5,0,1.5-0.7
		c0-0.5-0.3-1.2-1.1-2.1c0.3-0.6,0.8-1.9,1-2.8h-1.6v6.1c0,1.1,0,1.7,0.1,2.6h-1.1c0.1-0.9,0.1-1.5,0.1-2.6v-5.4
		c0-0.5,0-1.3-0.1-1.6c0.5,0,1.2,0.1,1.8,0.1c0.7,0,1.4,0,1.9-0.1C401.8,179.7,401.3,181.2,400.9,182z M403.4,187.5h-1
		c0.1-0.7,0.1-1.3,0.1-2v-5.6c0-0.5,0-1.1-0.1-1.4c0.4,0.1,0.9,0.1,2.4,0.1s2,0,2.4-0.1c-0.1,0.3-0.1,0.7-0.1,1.4v5.9
		c0,0.6,0,1.1,0.1,1.7h-1v-1h-2.9V187.5z M406.3,179.4h-2.9v2.6h2.9V179.4z M403.4,185.7h2.9v-2.8h-2.9V185.7z"/>
	<path style="fill:#030C1F;" d="M412.6,179.4v0.8c-0.3,0-0.8-0.1-2.1-0.1c-0.3,0.5-0.7,1.1-1.1,1.7c-0.1-0.4-0.2-0.6-0.4-0.8
		c0.6-0.6,1.3-2.1,1.6-3.2c0.3,0.2,0.5,0.3,0.8,0.3c0.3,0.1,0.3,0.2,0,0.4c-0.1,0.1-0.2,0.3-0.5,0.9
		C411.8,179.5,412.2,179.5,412.6,179.4z M409.1,184.2v-0.9c0.3,0,0.7,0.1,1.2,0.1v-1.3c-0.2,0-0.3,0-0.5,0.1v-0.9
		c0.3,0.1,0.6,0.1,1.2,0.1c0.6,0,1.2,0,1.5-0.1v0.9c-0.3,0-0.8-0.1-1.4-0.1v1.3c0.7,0,1.2,0,1.6-0.1v0.9c-0.4-0.1-0.9-0.1-1.6-0.1
		v2.1c0.4-0.3,0.7-0.5,1.1-0.9c0,0.4,0,0.7,0.1,0.8l-1.3,1.1c-0.2,0.2-0.4,0.3-0.5,0.5c-0.2-0.3-0.4-0.6-0.6-0.8
		c0.3-0.2,0.4-0.5,0.4-1.1v-1.7C409.8,184.2,409.4,184.2,409.1,184.2z M412.9,188c-0.1-0.3-0.3-0.5-0.6-0.6c0.8-0.2,1.5-0.6,2.2-1.3
		c0.2,0.2,0.5,0.5,0.6,0.5c0.2,0.1,0.1,0.2-0.1,0.2C414.8,186.8,413.9,187.3,412.9,188z M413.4,181.4c0-0.3,0-0.9-0.1-1.2
		c0.4,0,0.9,0.1,1.7,0.1c0-0.2,0-0.5,0-0.7c-1,0-1.7,0-2.3,0.1v-0.8c0.6,0.1,1.3,0.1,2.3,0.1c0-0.4,0-0.8-0.1-1
		c0.3,0.1,0.8,0.1,1,0.1c0.2,0,0.2,0.1,0.1,0.2c0,0-0.1,0.3-0.2,0.7c1.2,0,2,0,2.7-0.1v0.8c-0.7-0.1-1.5-0.1-2.8-0.1
		c0,0.2,0,0.5-0.1,0.7c1,0,1.7,0,2.1-0.1c0,0.2-0.1,0.8-0.1,1.2v3.9c0.4,0,0.7,0,0.9,0v0.7c-0.5-0.1-0.9-0.1-3-0.1
		c-2.1,0-2.5,0-3,0.1v-0.7c0.2,0,0.4,0,0.7,0V181.4z M417.1,180.8h-2.9v0.7h2.9V180.8z M414.2,182.7h2.9v-0.6h-2.9V182.7z
		 M414.2,184h2.9v-0.7h-2.9V184z M417.1,184.5h-2.9v0.7h2.9V184.5z M418.1,187.9c-0.7-0.5-1.3-0.9-2.1-1.3l0.5-0.6
		c0.7,0.3,1.5,0.7,2.1,1.1L418.1,187.9z"/>
</g>
<g>
	<path style="fill:#030C1F;" d="M504.5,163.7v-1c0.9,0.1,2,0.1,3.7,0.1c1.7,0,2.8,0,3.7-0.1v1c-0.8-0.1-1.8-0.1-3.2-0.1
		c0,0.8-0.1,1.6-0.1,2.3c1.8,0,3.1,0,4.1-0.1v1.1c-0.9-0.1-2.1-0.1-3.8-0.1c0.7,2.1,2.2,3.6,4.2,3.7c-0.4,0.3-0.8,0.8-0.9,1.2
		c-2.3-0.8-3.5-2.3-3.9-4.5c-0.6,2.5-1.9,3.8-4.3,4.7c-0.2-0.3-0.4-0.6-0.8-0.9c2.5-0.8,3.7-1.9,4.1-4.2c-1.6,0-2.8,0-3.7,0.1v-1.1
		c1,0,2.2,0.1,3.8,0.1c0.1-0.7,0.1-1.4,0.1-2.3C506.3,163.6,505.3,163.7,504.5,163.7z"/>
	<path style="fill:#030C1F;" d="M517.1,171.6h-1c0.1-0.6,0.1-1,0.1-1.7v-6.1c0-0.4,0-1-0.1-1.3c0.5,0.1,1.8,0.1,3.3,0.1
		c1.4,0,3.1-0.1,3.5-0.1c0,0.3-0.1,0.9-0.1,1.3v6c0,0.6,0,1.1,0.1,1.7h-1v-0.8h-4.7V171.6z M521.9,163.5h-4.7v1.6h4.7V163.5z
		 M517.1,167.6h4.7v-1.7h-4.7V167.6z M517.1,170h4.7v-1.7h-4.7V170z"/>
	<path style="fill:#030C1F;" d="M529.5,171c-1.5,0-2.4,0-3.3,0.1c0.1-0.4,0.1-0.8,0.1-1.2v-4.3c0-0.7,0-1.1-0.1-1.3
		c0.4,0.1,0.7,0.1,1.2,0.1c0.2,0,0.2,0.1,0,0.2c-0.1,0.1-0.2,0.2-0.2,0.4v5.2h2.7v-6.4c0-0.7,0-1.2-0.1-1.6c0.5,0.1,0.9,0.1,1.2,0.1
		c0.2,0,0.2,0.1,0.1,0.2c-0.2,0.1-0.2,0.2-0.2,0.5v7.3h2.7v-4.4c0-0.7,0-1.1-0.1-1.3c0.5,0.1,0.9,0.1,1.2,0.1c0.2,0,0.2,0.1,0,0.2
		c-0.2,0.1-0.2,0.2-0.2,0.4v5.1c0,0.5,0,0.9,0.1,1.4h-1V171H529.5z"/>
	<path style="fill:#030C1F;" d="M540,163.4v0.8c-0.3,0-0.8-0.1-2.1-0.1c-0.3,0.5-0.7,1.1-1.1,1.7c-0.1-0.4-0.2-0.6-0.4-0.8
		c0.6-0.6,1.3-2.1,1.6-3.2c0.3,0.2,0.5,0.3,0.8,0.3c0.3,0.1,0.3,0.2,0,0.4c-0.1,0.1-0.2,0.3-0.5,0.9
		C539.3,163.5,539.7,163.5,540,163.4z M536.5,168.2v-0.9c0.3,0,0.7,0.1,1.2,0.1v-1.3c-0.2,0-0.3,0-0.5,0.1v-0.9
		c0.3,0.1,0.6,0.1,1.2,0.1c0.6,0,1.2,0,1.5-0.1v0.9c-0.3,0-0.8-0.1-1.4-0.1v1.3c0.7,0,1.2,0,1.6-0.1v0.9c-0.4-0.1-0.9-0.1-1.6-0.1
		v2.1c0.4-0.3,0.7-0.5,1.1-0.9c0,0.4,0,0.7,0.1,0.8l-1.3,1.1c-0.2,0.2-0.4,0.3-0.5,0.5c-0.2-0.3-0.4-0.6-0.6-0.8
		c0.3-0.2,0.4-0.5,0.4-1.1v-1.7C537.2,168.1,536.8,168.2,536.5,168.2z M540.3,172c-0.1-0.3-0.3-0.5-0.6-0.6c0.8-0.2,1.5-0.6,2.2-1.3
		c0.2,0.2,0.5,0.5,0.6,0.5c0.2,0.1,0.1,0.2-0.1,0.2C542.3,170.8,541.4,171.3,540.3,172z M540.9,165.4c0-0.3,0-0.9-0.1-1.2
		c0.4,0,0.9,0.1,1.7,0.1c0-0.2,0-0.5,0-0.7c-1,0-1.7,0-2.3,0.1v-0.8c0.6,0.1,1.3,0.1,2.3,0.1c0-0.4,0-0.8-0.1-1
		c0.3,0.1,0.8,0.1,1,0.1c0.2,0,0.2,0.1,0.1,0.2c0,0-0.1,0.3-0.2,0.7c1.2,0,2,0,2.7-0.1v0.8c-0.7-0.1-1.5-0.1-2.8-0.1
		c0,0.2,0,0.5-0.1,0.7c1,0,1.7,0,2.1-0.1c0,0.2-0.1,0.8-0.1,1.2v3.9c0.4,0,0.7,0,0.9,0v0.7c-0.5-0.1-0.9-0.1-3-0.1
		c-2.1,0-2.5,0-3,0.1v-0.7c0.2,0,0.4,0,0.7,0V165.4z M544.5,164.8h-2.9v0.7h2.9V164.8z M541.7,166.7h2.9v-0.6h-2.9V166.7z
		 M541.7,168h2.9v-0.7h-2.9V168z M544.5,168.5h-2.9v0.7h2.9V168.5z M545.6,171.9c-0.7-0.5-1.3-0.9-2.1-1.3l0.5-0.6
		c0.7,0.3,1.5,0.7,2.1,1.1L545.6,171.9z"/>
</g>
<g>
	<path style="fill:#030C1F;" d="M312.9,401.6c-0.4-0.4-1-0.8-1.5-1.1l0.6-0.8c0.5,0.4,1.1,0.7,1.5,1L312.9,401.6z M313.1,404.6
		c-0.2,0.6-0.3,1.3-0.4,1.9c-0.4-0.3-0.7-0.4-1.1-0.5c0.2-0.5,0.3-0.9,0.6-1.8c0.2-0.7,0.3-1.2,0.4-1.8c0.2,0.2,0.5,0.4,0.8,0.5
		C313.4,403.2,313.3,403.6,313.1,404.6z M313.4,399.2c-0.3-0.5-0.8-1-1.3-1.4l0.7-0.6c0.5,0.4,1,0.9,1.3,1.2L313.4,399.2z
		 M314.2,401.4v-0.8c0.8,0.1,1.9,0.1,3.4,0.1c1.6,0,2.6,0,3.4-0.1v0.8c-0.8-0.1-1.8-0.1-3.2-0.1c-0.1,0.4-0.2,0.7-0.3,1.1
		c1,0,1.8,0,2.9-0.1c0,0.3-0.1,0.9-0.1,1.3v2.2c0,0.6-0.2,0.8-1.4,1.1c0-0.3-0.1-0.7-0.3-1c0.6,0,0.8,0,0.8-0.3v-2.5h-1.1v2.1
		c0,0.4,0,0.7,0,0.9h-0.8c0-0.3,0.1-0.6,0.1-0.9v-2.1h-1v2.2c0,0.4,0,0.7,0.1,0.9h-0.8c0-0.3,0.1-0.6,0.1-0.9v-2.2h-1v3.5h-0.9
		c0-0.4,0.1-0.9,0.1-1.3v-1.7c0-0.4,0-1-0.1-1.3c0.8,0.1,1.6,0.1,2.5,0.1c0.1-0.4,0.1-0.8,0.2-1.1
		C315.8,401.3,314.9,401.4,314.2,401.4z M317.1,397.9c0-0.4,0-0.9-0.1-1.1c0.3,0,0.6,0.1,0.9,0.1c0.2,0,0.2,0.1,0.1,0.2
		c-0.1,0.1-0.1,0.3-0.1,0.6v1.5h1.8V398c0-0.3,0-0.5-0.1-0.6c0.3,0,0.6,0.1,0.9,0.1c0.2,0,0.2,0.1,0.1,0.2c-0.1,0.1-0.1,0.4-0.1,2.2
		c-0.6,0-1.6-0.1-2.9-0.1c-1.3,0-2.2,0-2.7,0.1c0-0.2,0.1-0.5,0.1-0.8v-1.1c0-0.3,0-0.5-0.1-0.7c0.3,0,0.6,0.1,0.8,0.1
		c0.2,0,0.2,0.1,0.1,0.2c-0.1,0.1-0.1,0.4-0.1,1.6h1.6V397.9z"/>
	<path style="fill:#030C1F;" d="M324.6,405.2v0.9h-1.1c0.1-0.6,0.1-1.1,0.1-1.7v-5.7c0-0.4,0-0.6-0.1-0.9c0.4,0,1,0.1,3.8,0.1
		c2.8,0,3.4,0,3.8-0.1c-0.1,0.3-0.1,0.5-0.1,0.9v5.6c0,0.6,0,1.1,0.1,1.7H330v-0.8H324.6z M330,404.3v-5.5h-5.4v5.5H330z"/>
	<path style="fill:#030C1F;" d="M337.1,398.3v0.8c-0.3,0-0.8-0.1-2.1-0.1c-0.3,0.5-0.7,1.1-1.1,1.7c-0.1-0.4-0.2-0.6-0.4-0.8
		c0.6-0.6,1.3-2.1,1.6-3.2c0.3,0.2,0.5,0.3,0.8,0.3c0.3,0.1,0.3,0.2,0,0.4c-0.1,0.1-0.2,0.3-0.5,0.9
		C336.3,398.4,336.7,398.4,337.1,398.3z M333.6,403.1v-0.9c0.3,0,0.7,0.1,1.2,0.1V401c-0.2,0-0.3,0-0.5,0.1v-0.9
		c0.3,0.1,0.6,0.1,1.2,0.1c0.6,0,1.2,0,1.5-0.1v0.9c-0.3,0-0.8-0.1-1.4-0.1v1.3c0.7,0,1.2,0,1.6-0.1v0.9c-0.4-0.1-0.9-0.1-1.6-0.1
		v2.1c0.4-0.3,0.7-0.5,1.1-0.9c0,0.4,0,0.7,0.1,0.8l-1.3,1.1c-0.2,0.2-0.4,0.3-0.5,0.5c-0.2-0.3-0.4-0.6-0.6-0.8
		c0.3-0.2,0.4-0.5,0.4-1.1v-1.8C334.3,403.1,333.9,403.1,333.6,403.1z M337.4,406.9c-0.1-0.3-0.3-0.5-0.6-0.6
		c0.8-0.2,1.5-0.6,2.2-1.3c0.2,0.2,0.5,0.5,0.6,0.5c0.2,0.1,0.1,0.2-0.1,0.2C339.3,405.7,338.4,406.3,337.4,406.9z M337.9,400.3
		c0-0.3,0-0.9-0.1-1.2c0.4,0,0.9,0.1,1.7,0.1c0-0.2,0-0.5,0-0.7c-1,0-1.7,0-2.3,0.1v-0.8c0.6,0.1,1.3,0.1,2.3,0.1c0-0.4,0-0.8-0.1-1
		c0.3,0.1,0.8,0.1,1,0.1c0.2,0,0.2,0.1,0.1,0.2c0,0-0.1,0.3-0.2,0.7c1.2,0,2,0,2.7-0.1v0.8c-0.7-0.1-1.5-0.1-2.8-0.1
		c0,0.2,0,0.5-0.1,0.7c1,0,1.7,0,2.1-0.1c0,0.2-0.1,0.8-0.1,1.2v3.9c0.4,0,0.7,0,0.9,0v0.7c-0.5-0.1-0.9-0.1-3-0.1
		c-2.1,0-2.5,0-3,0.1v-0.7c0.2,0,0.4,0,0.7,0V400.3z M341.6,399.8h-2.9v0.7h2.9V399.8z M338.7,401.6h2.9V401h-2.9V401.6z
		 M338.7,402.9h2.9v-0.7h-2.9V402.9z M341.6,403.5h-2.9v0.7h2.9V403.5z M342.7,406.8c-0.7-0.5-1.3-0.9-2.1-1.3l0.5-0.6
		c0.7,0.3,1.5,0.7,2.1,1.1L342.7,406.8z"/>
</g>
<g>
	<path style="fill:#030C1F;" d="M323.7,341.2c-0.5-0.5-1.2-1-1.9-1.3l0.6-0.8c0.6,0.3,1.2,0.7,1.8,1.2L323.7,341.2z M323.7,344.2
		c-0.2,0.6-0.4,1.2-0.7,1.9c-0.4-0.4-0.7-0.6-1-0.8c0.4-0.5,0.6-1,0.9-1.7c0.3-0.6,0.5-1.2,0.7-1.8c0.2,0.3,0.5,0.6,0.8,0.8
		C324.2,343,324,343.3,323.7,344.2z M323.9,338.6c-0.5-0.6-1-1.2-1.5-1.5l0.7-0.7c0.5,0.4,1.1,1,1.6,1.5L323.9,338.6z M326.8,337.7
		c-1,0-1.4,0-1.9,0.1v-1c0.6,0.1,1,0.1,1.9,0.1h2.9c1.1,0,1.5,0,2-0.1v1c-0.4-0.1-0.7-0.1-1.2-0.1v7.3c0,0.9,0,1-1.7,1.2
		c-0.1-0.5-0.3-0.7-0.6-1.2c1.2,0.2,1.5,0.1,1.5-0.3v-6.9H326.8z M326.2,342.9v1.3h-0.9c0.1-0.7,0.1-1.4,0.1-1.9v-2
		c0-0.5,0-1-0.1-1.4c0.4,0.1,0.9,0.1,1.7,0.1c0.9,0,1.3,0,1.7-0.1c-0.1,0.5-0.1,0.9-0.1,1.4v1.5c0,0.4,0,1.1,0.1,1.9h-0.9v-0.8
		H326.2z M327.7,342.2v-2.4h-1.6v2.4H327.7z"/>
	<path style="fill:#030C1F;" d="M333.3,343.6c-0.2-0.3-0.4-0.6-0.6-0.8c0.6-0.8,1.1-1.8,1.5-3.4c-0.6,0-0.9,0-1.3,0.1v-0.9
		c0.4,0.1,0.7,0.1,1.5,0.1c0-1.3,0-1.8-0.1-2.3c0.4,0,0.6,0.1,0.9,0c0.2,0,0.3,0.1,0.1,0.3c-0.1,0.1-0.1,0.2-0.1,0.3v1.7
		c0.4,0,0.6,0,0.9-0.1v0.9c-0.3,0-0.5-0.1-0.9-0.1v1.1l0.6-0.3c0.2,0.5,0.4,0.8,0.7,1.1l-0.8,0.4c-0.1-0.4-0.2-0.6-0.5-1v3.4
		c0,0.6,0,1.4,0.1,2.1h-1c0.1-0.7,0.1-1.5,0.1-2.1V341C334.1,342.1,333.8,342.7,333.3,343.6z M341,342.2v2.3c0,0.4,0,1,0.1,1.6h-1
		c0-0.5,0-1.1,0-1.6v-1.6c0-0.6,0-1.2,0-1.5c0.3,0.1,0.6,0.1,0.8,0.1c-0.5-0.5-0.8-1.2-1-2.1h-0.6c-0.2,0.8-0.6,1.4-1.2,2.1
		c0.3,0.1,0.6,0.1,0.8,0.1c0.2,0,0.2,0.1,0.1,0.2c-0.1,0.1-0.1,0.2-0.1,0.6c0,1.7-0.4,2.6-1.7,3.7c-0.2-0.2-0.5-0.5-0.8-0.7
		c1.1-0.6,1.5-1.3,1.6-2.3c0.1-0.5,0.1-1.1,0.1-1.5c-0.4,0.4-0.9,0.8-1.6,1.3c-0.1-0.2-0.3-0.4-0.7-0.7c1.6-1,2.3-1.7,2.7-2.8
		c-0.7,0-1.2,0-1.9,0.1v-0.9c0.7,0,1.2,0.1,2.1,0.1c0.1-0.4,0.1-0.8,0.1-1.2c-0.7,0.1-1.4,0.1-1.8,0.1c0-0.2-0.2-0.6-0.4-0.9
		c0.9,0.1,2,0.1,3.4-0.2c0.8-0.1,1.1-0.2,1.5-0.3c0.1,0.3,0.4,0.8,0.5,0.9c0.1,0.1,0.1,0.2-0.1,0.2c-0.4-0.1-0.7-0.1-1.5,0
		c-0.2,0-0.5,0.1-0.8,0.1c0,0.5-0.1,0.9-0.2,1.3c1.5,0,2.3,0,3.2-0.1v0.9c-0.7-0.1-1.3-0.1-2.1-0.1c0.5,1.2,1,1.7,2.3,2
		c-0.3,0.4-0.4,0.6-0.5,1c-0.5-0.2-0.8-0.5-1.2-0.7C341,341.9,341,342,341,342.2z"/>
	<path style="fill:#030C1F;" d="M347.5,337.6v0.8c-0.3,0-0.8-0.1-2.1-0.1c-0.3,0.5-0.7,1.1-1.1,1.7c-0.1-0.4-0.2-0.6-0.4-0.8
		c0.6-0.6,1.3-2.1,1.6-3.2c0.3,0.2,0.5,0.3,0.8,0.3c0.3,0.1,0.3,0.2,0,0.4c-0.1,0.1-0.2,0.3-0.5,0.9
		C346.7,337.7,347.2,337.6,347.5,337.6z M344,342.4v-0.9c0.3,0,0.7,0.1,1.2,0.1v-1.3c-0.2,0-0.3,0-0.5,0.1v-0.9
		c0.3,0.1,0.6,0.1,1.2,0.1c0.6,0,1.2,0,1.5-0.1v0.9c-0.3,0-0.8-0.1-1.4-0.1v1.3c0.7,0,1.2,0,1.6-0.1v0.9c-0.4-0.1-0.9-0.1-1.6-0.1
		v2.1c0.4-0.3,0.7-0.5,1.1-0.9c0,0.4,0,0.7,0.1,0.8l-1.3,1.1c-0.2,0.2-0.4,0.3-0.5,0.5c-0.2-0.3-0.4-0.6-0.6-0.8
		c0.3-0.2,0.4-0.5,0.4-1.1v-1.8C344.7,342.3,344.3,342.3,344,342.4z M347.8,346.1c-0.1-0.3-0.3-0.5-0.6-0.6c0.8-0.2,1.5-0.6,2.2-1.3
		c0.2,0.2,0.5,0.5,0.6,0.5c0.2,0.1,0.1,0.2-0.1,0.2C349.8,345,348.8,345.5,347.8,346.1z M348.4,339.6c0-0.3,0-0.9-0.1-1.2
		c0.4,0,0.9,0.1,1.7,0.1c0-0.2,0-0.5,0-0.7c-1,0-1.7,0-2.3,0.1V337c0.6,0.1,1.3,0.1,2.3,0.1c0-0.4,0-0.8-0.1-1
		c0.3,0.1,0.8,0.1,1,0.1c0.2,0,0.2,0.1,0.1,0.2c0,0-0.1,0.3-0.2,0.7c1.2,0,2,0,2.7-0.1v0.8c-0.7-0.1-1.5-0.1-2.8-0.1
		c0,0.2,0,0.5-0.1,0.7c1,0,1.7,0,2.1-0.1c0,0.2-0.1,0.8-0.1,1.2v3.9c0.4,0,0.7,0,0.9,0v0.7c-0.5-0.1-0.9-0.1-3-0.1
		c-2.1,0-2.5,0-3,0.1v-0.7c0.2,0,0.4,0,0.7,0V339.6z M352,339h-2.9v0.7h2.9V339z M349.1,340.9h2.9v-0.7h-2.9V340.9z M349.1,342.2
		h2.9v-0.7h-2.9V342.2z M352,342.7h-2.9v0.7h2.9V342.7z M353.1,346c-0.7-0.5-1.3-0.9-2.1-1.3l0.5-0.6c0.7,0.3,1.5,0.7,2.1,1.1
		L353.1,346z"/>
</g>
<g>
	<path style="fill:#030C1F;" d="M752,326.6c-0.2-0.4-0.4-0.7-0.7-0.9c0.7-0.8,1.2-1.7,1.7-3.4v-0.1c-0.6,0-1,0-1.4,0.1v-0.9
		c0.4,0.1,0.8,0.1,1.4,0.1c0-1.1,0-1.8-0.1-2.2c0.4,0.1,0.7,0.1,1,0c0.2,0,0.3,0.1,0.1,0.3c-0.1,0.1-0.1,0.2-0.1,0.3v1.6
		c0.6,0,1.1,0,1.5-0.1v0.9c-0.4,0-0.8-0.1-1.5-0.1v4.8c0,0.6,0,1.4,0.1,2.1H753c0.1-0.7,0.1-1.5,0.1-2.1v-2.8
		C752.8,325.1,752.4,325.9,752,326.6z M754.7,325.4c-0.2-0.5-0.5-1-0.7-1.4l0.6-0.4c0.4,0.5,0.6,0.8,0.9,1.3L754.7,325.4z
		 M756.7,322.9c0,3.5-0.5,4.5-1.7,6.1c-0.2-0.2-0.5-0.4-0.9-0.5c1.2-1.1,1.7-2.1,1.7-4.6c0.1-2.1,0.1-3.4,0-3.8
		c1.9,0.1,3.5-0.1,4.5-0.6c0.1,0.3,0.4,0.8,0.5,0.9c0.2,0.2,0.1,0.2-0.1,0.2s-0.4,0-1.3,0.1c-0.7,0.1-2,0.2-2.8,0.2v1.4h2
		c0.8,0,1.4,0,1.8-0.1c-0.3,2.3-0.7,3.7-1.3,4.7c0.6,0.6,1.2,0.8,2.3,1.1c-0.3,0.3-0.5,0.7-0.6,1.1c-0.8-0.4-1.5-0.8-2.1-1.5
		c-0.5,0.6-1.1,1.1-2,1.7c-0.2-0.3-0.4-0.4-0.8-0.6c0.9-0.4,1.6-0.9,2.3-1.7c-0.5-0.7-1-2.4-1.2-3.9H756.7z M758.7,326
		c0.4-0.8,0.7-2.1,0.7-3.2h-1.6C757.9,324.1,758.3,325.4,758.7,326z"/>
	<path style="fill:#030C1F;" d="M762.8,326.6c-0.2-0.3-0.4-0.6-0.6-0.8c0.6-0.8,1.1-1.8,1.5-3.4c-0.6,0-0.9,0-1.3,0.1v-0.9
		c0.4,0.1,0.7,0.1,1.5,0.1c0-1.3,0-1.8-0.1-2.3c0.4,0,0.6,0.1,0.9,0c0.2,0,0.3,0.1,0.1,0.3c-0.1,0.1-0.1,0.2-0.1,0.3v1.7
		c0.4,0,0.6,0,0.9-0.1v0.9c-0.3,0-0.5-0.1-0.9-0.1v1.1l0.6-0.3c0.2,0.5,0.4,0.8,0.7,1.1l-0.8,0.4c-0.1-0.4-0.2-0.6-0.5-1v3.4
		c0,0.6,0,1.4,0.1,2.1h-1c0.1-0.7,0.1-1.5,0.1-2.1V324C763.6,325.1,763.3,325.8,762.8,326.6z M770.5,325.2v2.3c0,0.4,0,1,0.1,1.6h-1
		c0-0.5,0-1.1,0-1.6v-1.6c0-0.6,0-1.2,0-1.5c0.3,0.1,0.6,0.1,0.8,0.1c-0.5-0.5-0.8-1.2-1-2.1h-0.6c-0.2,0.8-0.6,1.4-1.2,2.1
		c0.3,0.1,0.6,0.1,0.8,0.1c0.2,0,0.2,0.1,0.1,0.2c-0.1,0.1-0.1,0.2-0.1,0.6c0,1.7-0.4,2.6-1.7,3.7c-0.2-0.2-0.5-0.5-0.8-0.7
		c1.1-0.6,1.5-1.3,1.6-2.3c0.1-0.5,0.1-1.1,0.1-1.5c-0.4,0.4-0.9,0.8-1.6,1.3c-0.1-0.2-0.3-0.4-0.7-0.7c1.6-1,2.3-1.7,2.7-2.8
		c-0.7,0-1.2,0-1.9,0.1v-0.9c0.7,0,1.2,0.1,2.1,0.1c0.1-0.4,0.1-0.8,0.1-1.2c-0.7,0.1-1.4,0.1-1.8,0.1c0-0.2-0.2-0.6-0.4-0.9
		c0.9,0.1,2,0.1,3.4-0.2c0.8-0.1,1.1-0.2,1.5-0.3c0.1,0.3,0.4,0.8,0.5,0.9c0.1,0.1,0.1,0.2-0.1,0.2c-0.4-0.1-0.7-0.1-1.5,0
		c-0.2,0-0.5,0.1-0.8,0.1c0,0.5-0.1,0.9-0.2,1.3c1.5,0,2.3,0,3.2-0.1v0.9c-0.7-0.1-1.3-0.1-2.1-0.1c0.5,1.2,1,1.7,2.3,2
		c-0.3,0.4-0.4,0.6-0.5,1c-0.5-0.2-0.8-0.5-1.2-0.7C770.6,324.9,770.5,325,770.5,325.2z"/>
	<path style="fill:#030C1F;" d="M777.1,320.6v0.8c-0.3,0-0.8-0.1-2.1-0.1c-0.3,0.5-0.7,1.1-1.1,1.7c-0.1-0.4-0.2-0.7-0.4-0.8
		c0.6-0.6,1.3-2.1,1.6-3.2c0.3,0.2,0.5,0.3,0.8,0.3s0.3,0.2,0,0.4c-0.1,0.1-0.2,0.3-0.5,0.9C776.3,320.7,776.7,320.7,777.1,320.6z
		 M773.6,325.4v-0.9c0.3,0,0.7,0.1,1.2,0.1v-1.3c-0.2,0-0.3,0-0.5,0.1v-0.9c0.3,0.1,0.6,0.1,1.2,0.1c0.6,0,1.2,0,1.5-0.1v0.9
		c-0.3,0-0.8-0.1-1.4-0.1v1.3c0.7,0,1.2,0,1.6-0.1v0.9c-0.4-0.1-0.9-0.1-1.6-0.1v2.1c0.4-0.3,0.7-0.5,1.1-0.9c0,0.4,0,0.7,0.1,0.8
		l-1.3,1.1c-0.2,0.2-0.4,0.3-0.5,0.5c-0.2-0.3-0.4-0.6-0.6-0.8c0.3-0.2,0.4-0.5,0.4-1.1v-1.7C774.3,325.3,773.9,325.4,773.6,325.4z
		 M777.4,329.2c-0.1-0.3-0.3-0.5-0.6-0.6c0.8-0.2,1.5-0.6,2.2-1.3c0.2,0.2,0.5,0.5,0.6,0.5c0.2,0.1,0.1,0.2-0.1,0.2
		C779.3,328,778.4,328.5,777.4,329.2z M777.9,322.6c0-0.3,0-0.9-0.1-1.2c0.4,0,0.9,0.1,1.7,0.1c0-0.2,0-0.5,0-0.7
		c-1,0-1.7,0-2.3,0.1V320c0.6,0.1,1.3,0.1,2.3,0.1c0-0.4,0-0.8-0.1-1c0.3,0.1,0.8,0.1,1,0.1c0.2,0,0.2,0.1,0.1,0.2
		c0,0-0.1,0.3-0.2,0.7c1.2,0,2,0,2.7-0.1v0.8c-0.7-0.1-1.5-0.1-2.8-0.1c0,0.2,0,0.5-0.1,0.7c1,0,1.7,0,2.1-0.1
		c0,0.2-0.1,0.8-0.1,1.2v3.9c0.4,0,0.7,0,0.9,0v0.7c-0.5-0.1-0.9-0.1-3-0.1c-2.1,0-2.5,0-3,0.1v-0.7c0.2,0,0.4,0,0.7,0V322.6z
		 M781.6,322h-2.9v0.7h2.9V322z M778.7,323.9h2.9v-0.6h-2.9V323.9z M778.7,325.2h2.9v-0.7h-2.9V325.2z M781.6,325.7h-2.9v0.7h2.9
		V325.7z M782.6,329.1c-0.7-0.5-1.3-0.9-2.1-1.3l0.5-0.6c0.7,0.3,1.5,0.7,2.1,1.1L782.6,329.1z"/>
</g>
<g>
	<path style="fill:#030C1F;" d="M677.6,149.8v0.9c-0.7-0.1-2.2-0.1-4.6-0.1c-2.2,0-3.7,0-4.6,0.1v-0.9c0.8,0.1,2.2,0.1,4.2,0.1
		c-0.1-0.4-0.3-0.7-0.4-0.9l1.4-0.2c0,0.2,0,0.7,0.1,1.1C675.7,149.9,677,149.9,677.6,149.8z M674.9,158c1.2,0.1,1.3,0,1.3-0.4v-2.8
		h-6.3v4.1h-1c0.1-0.6,0.1-1,0.1-1.5V155c0-0.3,0-0.8-0.1-1.1c0.9,0.1,2.2,0.1,4.2,0.1c2.1,0,3.3,0,4.1-0.1
		c-0.1,0.3-0.1,0.7-0.1,1.1v2.6c0,1-0.1,1.2-1.9,1.3C675.2,158.7,675.2,158.4,674.9,158z M676,153.5c-0.9-0.1-1.9-0.1-3-0.1
		c-1,0-2.1,0-3,0.1c0.1-0.6,0.1-1.5,0-2.2c0.9,0.1,1.7,0.1,3,0.1c1.1,0,2.1,0,3-0.1C675.9,151.9,675.9,152.7,676,153.5z
		 M675.1,157.7c-0.7,0-1.1,0-2.1,0c-0.9,0-1.6,0-2.2,0.1c0.1-0.7,0.1-1.5,0-2.3c0.5,0.1,1,0.1,2.1,0.1c0.9,0,1.5,0,2.1-0.1
		C675.1,156.1,675,156.9,675.1,157.7z M671,152.7h4.1V152H671V152.7z M671.7,157h2.5v-0.8h-2.5V157z"/>
	<path style="fill:#030C1F;" d="M680.3,156.1h-0.9c0-0.4,0.1-1,0.1-1.7v-2.6c0-0.4,0-0.8-0.1-1c0.4,0,0.9,0.1,1.8,0.1v-0.6
		c0-0.3,0-1,0-1.2c0.3,0.1,0.7,0.1,1.1,0.1c0.2,0,0.2,0.1,0,0.2c-0.2,0.1-0.3,0.2-0.3,0.4v1.1c0.9,0,1.4,0,1.8-0.1
		c0,0.2-0.1,0.6-0.1,1v2.2c0,0.9,0,1.1,0,1.5H683v-0.5h-0.9v2.1l0.9-0.1c-0.1-0.3-0.2-0.5-0.3-0.8l0.7-0.2c0.2,0.5,0.5,1.4,0.6,1.8
		l-0.8,0.3c0-0.2-0.1-0.3-0.1-0.5l-2.2,0.4c-0.8,0.1-1.4,0.3-1.8,0.5c0-0.4-0.1-0.8-0.2-1.1c0.4,0,1.2,0,2.2-0.1v-2.2h-1V156.1z
		 M680.3,151.6v2.6h1v-2.6H680.3z M683,151.6h-0.9v2.6h0.9V151.6z M686.8,157.5c0.9,0,1.6,0,2.1-0.1v1c-0.5-0.1-1.3-0.1-2.3-0.1
		c-1,0-1.8,0-2.3,0.1v-1c0.4,0.1,1,0.1,1.6,0.1v-6.8c-0.7,0-1.3,0-1.7,0.1v-1c0.5,0.1,1.3,0.1,2.3,0.1c1,0,1.8,0,2.3-0.1v1
		c-0.5-0.1-1.1-0.1-2-0.1V157.5z"/>
	<path style="fill:#030C1F;" d="M693.8,150.4v0.8c-0.3,0-0.8-0.1-2.1-0.1c-0.3,0.5-0.7,1.1-1.1,1.7c-0.1-0.4-0.2-0.6-0.4-0.8
		c0.6-0.6,1.3-2.1,1.6-3.2c0.3,0.2,0.5,0.3,0.8,0.3c0.3,0.1,0.3,0.2,0,0.4c-0.1,0.1-0.2,0.3-0.5,0.9
		C693,150.5,693.4,150.5,693.8,150.4z M690.3,155.2v-0.9c0.3,0,0.7,0.1,1.2,0.1v-1.3c-0.2,0-0.3,0-0.5,0.1v-0.9
		c0.3,0.1,0.6,0.1,1.2,0.1c0.6,0,1.2,0,1.5-0.1v0.9c-0.3,0-0.8-0.1-1.4-0.1v1.3c0.7,0,1.2,0,1.6-0.1v0.9c-0.4-0.1-0.9-0.1-1.6-0.1
		v2.1c0.4-0.3,0.7-0.5,1.1-0.9c0,0.4,0,0.7,0.1,0.8l-1.3,1.1c-0.2,0.2-0.4,0.3-0.5,0.5c-0.2-0.3-0.4-0.6-0.6-0.8
		c0.3-0.2,0.4-0.5,0.4-1.1v-1.7C691,155.2,690.6,155.2,690.3,155.2z M694.1,159c-0.1-0.3-0.3-0.5-0.6-0.6c0.8-0.2,1.5-0.6,2.2-1.3
		c0.2,0.2,0.5,0.5,0.6,0.5c0.2,0.1,0.1,0.2-0.1,0.2C696,157.8,695.1,158.3,694.1,159z M694.6,152.4c0-0.3,0-0.9-0.1-1.2
		c0.4,0,0.9,0.1,1.7,0.1c0-0.2,0-0.5,0-0.7c-1,0-1.7,0-2.3,0.1v-0.8c0.6,0.1,1.3,0.1,2.3,0.1c0-0.4,0-0.8-0.1-1
		c0.3,0.1,0.8,0.1,1,0.1c0.2,0,0.2,0.1,0.1,0.2c0,0-0.1,0.3-0.2,0.7c1.2,0,2,0,2.7-0.1v0.8c-0.7-0.1-1.5-0.1-2.8-0.1
		c0,0.2,0,0.5-0.1,0.7c1,0,1.7,0,2.1-0.1c0,0.2-0.1,0.8-0.1,1.2v3.9c0.4,0,0.7,0,0.9,0v0.7c-0.5-0.1-0.9-0.1-3-0.1
		c-2.1,0-2.5,0-3,0.1v-0.7c0.2,0,0.4,0,0.7,0V152.4z M698.3,151.8h-2.9v0.7h2.9V151.8z M695.4,153.7h2.9v-0.6h-2.9V153.7z
		 M695.4,155h2.9v-0.7h-2.9V155z M698.3,155.5h-2.9v0.7h2.9V155.5z M699.3,158.9c-0.7-0.5-1.3-0.9-2.1-1.3l0.5-0.6
		c0.7,0.3,1.5,0.7,2.1,1.1L699.3,158.9z"/>
</g>
<g>
	<path style="fill:#030C1F;" d="M627,307.1c0,0.4,0,0.6,0,0.9c-0.8,0.2-2.5,0.8-3.5,1.3c0-0.3,0-0.8-0.1-1.3c0.2,0,0.5,0,1.4-0.3
		l0-3c-0.6,0-0.9,0-1.3,0.1l0-0.9c0.3,0.1,0.7,0.1,1.3,0.1l0-2.4c-0.5,0-1,0-1.3,0.1l0-1c0.4,0.1,1,0.1,1.8,0.1c0.8,0,1.4,0,1.8-0.1
		l0,1c-0.3-0.1-0.8-0.1-1.4-0.1l0,2.4c0.4,0,0.7,0,1-0.1v0c1.3-1.2,2.2-2.6,2.7-4.2c0.3,0.1,0.8,0.2,1.1,0.3c0.3,0,0.2,0.1,0.1,0.2
		c-0.1,0-0.2,0.1-0.3,0.2c0.3,0.7,0.9,1.5,1.3,1.9c0.5,0.5,1.2,1,2,1.2c-0.3,0.3-0.5,0.6-0.6,1.1c-0.7-0.3-1.5-0.9-2-1.6
		c-0.4-0.5-0.8-1.2-1.1-2c-0.7,1.4-1.5,2.4-2.5,3.7c-0.2-0.2-0.4-0.5-0.7-0.7l0,0.8c-0.2,0-0.6-0.1-1-0.1l0,2.7
		C626.3,307.4,626.6,307.3,627,307.1z M631.6,309.5l-0.8,0.7c-0.7-0.8-1.5-1.6-2.6-2.4l0.6-0.6c0.4,0.3,0.7,0.5,1.1,0.8l1.3-1.9
		l-1.4,0c-0.9,0-1.8,0-2.6,0.1l0-0.9c0.6,0.1,1.3,0.1,2.8,0.1c1.5,0,2.2,0,2.8-0.1l0,0.8c-0.5,0.1-0.7,0.2-2.2,2.5
		C630.9,308.8,631.3,309.1,631.6,309.5z M629.7,304.9c-0.1-0.4-0.3-1.2-0.5-1.6l0.9-0.2c0.1,0.4,0.3,1,0.6,1.6L629.7,304.9z"/>
	<path style="fill:#030C1F;" d="M637.9,307c-0.1,0.4-0.1,0.5,0,0.9c-0.9,0.1-2.7,0.6-3.5,1c0-0.5-0.1-0.9-0.3-1.2
		c0.4,0,0.8,0,1.5-0.2l0-2.6c-0.6,0-0.9,0-1.2,0.1l0-0.9c0.3,0,0.7,0.1,1.2,0.1l0-2.2c-0.5,0-1,0-1.3,0.1l0-1c0.4,0.1,1,0.1,1.7,0.1
		c0.8,0,1.3,0,1.8-0.1l0,1c-0.4-0.1-0.8-0.1-1.4-0.1l0,2.2c0.5,0,0.8,0,1.2-0.1l0,0.9c-0.3-0.1-0.7-0.1-1.2-0.1l0,2.4
		C637.3,307.2,637.6,307.1,637.9,307z M639.6,300.1c0.4,0.1,0.6,0.1,1.2,0.1c0.2,0,0.2,0.1,0,0.2c-0.1,0.1-0.2,0.3-0.3,2l2,0
		c0.6,0,0.9,0,1.6-0.1l0,1c-0.5-0.1-1-0.1-1.6-0.1l-2,0c-0.2,3.1-0.9,4.8-2.8,6.8c-0.2-0.2-0.5-0.3-0.9-0.5c1.7-1.3,2.7-3.1,2.9-6.2
		c-0.5,0-1.1,0-1.6,0.1l0-1c0.5,0.1,1.1,0.1,1.6,0.1C639.7,301.7,639.7,300.8,639.6,300.1z M639.7,309.4c-0.1-0.3-0.3-0.4-0.7-0.6
		c0.7-0.3,1.3-0.8,1.8-1.2l0-2.4c0-0.8,0-1-0.1-1.2c0.4,0.1,0.7,0.1,1,0.1c0.2,0,0.3,0.1,0.1,0.2c-0.2,0.1-0.2,0.3-0.2,0.5l0,1.9
		c0.7-0.9,1-1.6,1.2-2.4c0.3,0.2,0.7,0.4,1,0.4c0.1,0,0.1,0.1,0,0.2c-0.2,0.1-0.3,0.3-0.9,1.2c-0.3,0.5-0.8,1.1-1.4,1.7l0,0.8
		c0,0.4,0.1,0.5,0.8,0.5c0.9,0,1-0.1,1.1-1.1c0.3,0.3,0.5,0.4,0.9,0.5c-0.4,1.5-0.6,1.6-2.2,1.5c-1.2,0-1.4-0.2-1.4-0.9l0-0.5
		C640.4,308.8,640.3,308.9,639.7,309.4z M642.7,302.1c-0.4-0.4-0.8-0.8-1.2-1.1l0.6-0.7c0.4,0.4,0.8,0.7,1.3,1L642.7,302.1z"/>
	<path style="fill:#030C1F;" d="M647.6,310.1l-1,0c0.1-0.6,0.1-1.1,0.1-1.8l0-3.1c-0.3,0.4-0.6,0.7-0.8,1c-0.2-0.3-0.4-0.5-0.6-0.7
		c0.5-0.4,1.2-1.1,1.5-1.8c0.3-0.4,0.4-0.9,0.6-1.3c0.3,0.2,0.7,0.5,0.9,0.5c0.2,0,0.2,0.1,0,0.2c-0.1,0-0.2,0.2-0.6,0.8
		L647.6,310.1z M647.5,301.6c-0.4,0.6-0.9,1.1-1.4,1.6c-0.2-0.2-0.4-0.4-0.7-0.6c0.5-0.3,0.8-0.6,1.3-1.3c0.2-0.2,0.5-0.7,0.6-1.1
		c0.3,0.2,0.8,0.5,0.9,0.6c0.2,0.1,0.2,0.1,0,0.2C648.1,301,647.9,301.1,647.5,301.6z M652.6,307.3c-0.1,0.3-0.1,0.6,0,0.9
		c-1.2,0.1-3.5,0.6-4.4,0.8c0-0.4-0.1-0.7-0.2-1.1c0.4,0,1.2-0.1,1.9-0.2l0-1.4c-0.7,0-1,0-1.4,0.1l0-0.8c0.5,0.1,0.8,0.1,1.4,0.1
		c0-0.4,0-0.8-0.1-1.1c0.3,0,0.7,0.1,1,0.1c0.1,0,0.2,0.1,0,0.2c-0.1,0.1-0.1,0.1-0.1,0.2l0,0.7c0.6,0,1,0,1.4-0.1l0,0.8
		c-0.5-0.1-0.8-0.1-1.4-0.1l0,1.3C651.4,307.6,652.3,307.4,652.6,307.3z M650.7,303.6c0.6,0,0.8,0,1.3-0.1l0,0.9
		c-0.5-0.1-0.7-0.1-1.7-0.1c-1.1,0-1.3,0-1.9,0.1l0-0.9c0.5,0.1,0.7,0.1,1.5,0.1l0-1.3c-0.6,0-0.9,0-1.3,0.1l0-0.9
		c0.5,0.1,0.7,0.1,1.3,0.1c0-0.5,0-1.1-0.1-1.4c0.3,0,0.7,0.1,1,0.1c0.1,0,0.2,0.1,0,0.2c-0.1,0.1-0.1,0.1-0.1,0.2l0,0.9
		c0.7,0,1,0,1.4-0.1l0,0.9c-0.5-0.1-0.7-0.1-1.4-0.1L650.7,303.6z M654.3,309c0,0.9,0,1-1.7,1.2c0-0.3-0.1-0.5-0.4-1.1
		c1.1,0,1.2,0,1.2-0.5l0-4.4c-0.5,0-0.7,0-1,0.1l0-0.9c0.4,0.1,0.7,0.1,1.5,0.1c0.8,0,1,0,1.5-0.1l0,0.9c-0.4-0.1-0.6-0.1-1.1-0.1
		L654.3,309z M653.7,301.7c-0.5,0-0.9,0-1.3,0.1l0-0.9c0.4,0.1,0.6,0.1,1.3,0.1c0.7,0,0.9,0,1.3-0.1l0,0.9
		C654.6,301.7,654.4,301.7,653.7,301.7z"/>
	<path style="fill:#030C1F;" d="M659.5,308.7c1.2,0.5,4.2,0.7,6.9,0.2c-0.2,0.5-0.3,0.8-0.3,1.2c-4.3,0.1-5.2,0-7.4-0.9
		c-0.6-0.2-0.9,0-1.4,0.9c-0.2-0.2-0.5-0.5-0.9-0.7c0.6-0.5,1-0.9,1.3-1l0-3.4c-0.6,0-1,0-1.2,0.1l0-0.9c0.7,0.1,1.6,0.1,2.3,0
		c-0.1,0.4-0.1,0.7-0.1,1.3l0,2.9C658.8,308.4,659,308.5,659.5,308.7z M657.7,303.1c-0.1-0.8-0.4-1.5-0.6-2.1l0.9-0.3
		c0.2,0.7,0.4,1.4,0.7,2.1L657.7,303.1z M665.3,303.3c0,0.4-0.1,0.8-0.1,1.2l0,2.7c0,0.5,0,1,0.1,1.6l-0.9,0l0-0.4l-3.3,0l0,0.5
		l-0.9,0c0.1-0.5,0.1-0.9,0.1-1.6l0-2.7c0-0.4,0-0.8-0.1-1.2c0.4,0,1,0.1,1.8,0.1c0.1-0.2,0.2-0.5,0.2-0.8c-1.3,0-2.1,0-2.9,0.1
		l0-0.9c0.9,0.1,2.1,0.1,3.8,0.1c0.2-0.5,0.4-0.9,0.6-1.5c0.3,0.2,0.7,0.3,1.1,0.4c0.1,0,0.1,0.1,0,0.1c-0.2,0.1-0.4,0.3-0.9,1.1
		c1,0,1.7,0,2.3-0.1l0,0.9c-0.8-0.1-1.7-0.1-3-0.1c-0.1,0.3-0.2,0.6-0.3,0.9C663.9,303.4,664.8,303.3,665.3,303.3z M661.5,301.7
		c-0.2-0.3-0.5-0.6-0.8-0.9l0.8-0.4c0.3,0.3,0.6,0.7,0.7,1L661.5,301.7z M664.3,306.8l-3.3,0l0,0.8l3.3,0L664.3,306.8z M661.1,306.1
		l3.3,0l0-0.8l-3.3,0L661.1,306.1z M664.4,304l-3.3,0l0,0.7l3.3,0L664.4,304z"/>
</g>
<g>
	<path style="fill:#030C1F;" d="M125.1,344c-0.2,0.6-0.4,1.3-0.6,1.9c-0.3-0.3-0.7-0.5-1.1-0.7c0.3-0.5,0.5-0.9,0.9-1.7
		c0.2-0.6,0.4-1.2,0.6-1.8c0.3,0.3,0.6,0.5,0.9,0.6C125.6,342.6,125.5,343,125.1,344z M125.1,341c-0.4-0.4-1.2-0.9-1.7-1.2l0.5-0.8
		c0.5,0.3,1.2,0.8,1.7,1.1L125.1,341z M125.6,338.5c-0.5-0.6-1-1.1-1.6-1.4l0.6-0.7c0.5,0.4,1.2,0.9,1.7,1.3L125.6,338.5z
		 M132.9,336.9v0.9c-0.5-0.1-1.8-0.1-2.8-0.1v0.8c0.9,0,2-0.1,2.5-0.1v0.8c-0.5-0.1-1.5-0.1-2.5-0.1v0.8c1.1,0,2.7-0.1,3.1-0.1v0.9
		c-0.6-0.1-2.4-0.1-3.5-0.1c-1.1,0-2.9,0-3.5,0.1v-0.9c0.5,0.1,2,0.1,3.1,0.1v-0.8c-0.9,0-1.8,0.1-2.3,0.1v-0.8
		c0.4,0.1,1.4,0.1,2.3,0.1v-0.8c-1,0-2.2,0.1-2.6,0.1v-0.9c0.4,0.1,1.6,0.1,2.6,0.1c0-0.5,0-0.8,0-1c0.2,0,0.6,0.1,0.9,0
		c0.1,0,0.2,0.1,0,0.2c-0.1,0.1-0.1,0.3-0.1,0.4v0.4C131.1,337,132.4,337,132.9,336.9z M128,344.3v1.6H127c0-0.6,0.1-1.2,0.1-1.6
		V342c0-0.4,0-0.8,0-1c0.4,0,1.3,0.1,2.6,0.1c1.2,0,2.2,0,2.5-0.1c0,0.2,0,0.6,0,1v2.9c0,0.9-0.1,1-1.6,1.3c0-0.3-0.1-0.6-0.4-1
		c1,0.1,1.1,0,1.1-0.4v-0.3H128z M131.3,342.4v-0.7H128v0.7H131.3z M131.3,343.7V343H128v0.7H131.3z"/>
	<path style="fill:#030C1F;" d="M136.1,343.3c-0.3,0.8-0.5,1.4-0.7,2.1c-0.3-0.2-0.6-0.4-1-0.6c0.3-0.5,0.7-1.3,1-2
		c0.3-0.7,0.4-1.1,0.7-1.8c0.2,0.3,0.4,0.4,0.8,0.6C136.7,341.9,136.6,342.2,136.1,343.3z M136,339.6c-0.2-0.5-0.8-1.5-1.2-2.1
		l0.8-0.5c0.5,0.8,0.9,1.4,1.3,2.1L136,339.6z M139.1,343.4c-0.1,0.1-0.3,0.2-0.6,0.6c-0.2,0.3-0.7,1-1.2,1.6
		c-0.3-0.2-0.5-0.4-0.9-0.5c0.8-0.6,1.4-1.4,1.8-2.3c0.2,0.1,0.7,0.3,0.9,0.4C139.3,343.2,139.3,343.3,139.1,343.4z M140.6,338.5
		c-1.6,0-2.6,0-3.5,0.1v-0.9c0.9,0.1,1.9,0.1,3.5,0.1c1.6,0,2.6,0,3.5-0.1v0.9C143.3,338.5,142.3,338.5,140.6,338.5z M141,345
		c0,1-0.2,1.1-1.7,1.2c0-0.4-0.1-0.7-0.4-1.1c1,0.2,1.2,0.1,1.2-0.3v-2.4c-0.9,0-1.7,0-2.2,0.1c0-0.4,0.1-1,0.1-1.5
		c0-0.5,0-1.2-0.1-1.6c0.6,0.1,1.5,0.1,2.7,0.1c1.2,0,2,0,2.7-0.1c0,0.4-0.1,1-0.1,1.6c0,0.6,0,1.1,0.1,1.5
		c-0.6-0.1-1.3-0.1-2.2-0.1V345z M138.8,341.7h3.5v-1.5h-3.5V341.7z M140.2,337.6c-0.1-0.4-0.3-0.9-0.5-1.3l1-0.3
		c0.2,0.4,0.4,0.9,0.5,1.3L140.2,337.6z M143.4,345.4c-0.4-0.7-1-1.4-1.6-2.1l0.7-0.5c0.6,0.7,1.2,1.2,1.7,1.9L143.4,345.4z"/>
	<path style="fill:#030C1F;" d="M147,344.4c-0.6,0.1-0.9,0.1-1.2,0.2c0.1-0.4,0.1-0.8,0.1-1.1v-3.6c0-0.7,0-1-0.1-1.3
		c0.3,0.1,0.6,0.1,0.9,0c0.2,0,0.2,0.1,0,0.2c-0.1,0.1-0.2,0.2-0.2,0.4v4.5l0.7-0.1v-5.8c0-0.6,0-1-0.1-1.4c0.3,0,0.5,0,0.9,0
		c0.2,0,0.2,0.1,0.1,0.2c-0.2,0.1-0.2,0.2-0.2,0.4v6.5l0.6-0.1v-3.9c0-0.6,0-0.9-0.1-1.2c0.3,0,0.8,0.1,0.9,0c0.2,0,0.2,0.1,0,0.2
		c-0.2,0.1-0.2,0.2-0.2,0.4v4.5c0,0.5,0,0.9,0.1,1.3h-0.7v-0.7L147,344.4z M149.7,340.9c-0.1-0.3-0.2-0.5-0.4-0.8
		c0.8-0.1,1.7-0.5,2.5-1c-0.3-0.3-0.6-0.7-0.8-1.1c-0.2,0.3-0.5,0.7-0.8,1c-0.2-0.2-0.4-0.3-0.7-0.4c0.9-0.8,1.4-1.8,1.7-2.8
		c0.3,0.2,0.6,0.3,1,0.4c0.1,0,0.1,0.1,0,0.1c-0.1,0.1-0.3,0.3-0.6,0.6h1.4c0.7,0,1.2,0,1.6-0.1c-0.2,0.6-0.9,1.5-1.7,2.2
		c0.7,0.4,1.5,0.5,2.5,0.5c-0.3,0.4-0.4,0.6-0.3,1c-1.2-0.2-2.1-0.6-2.8-1.1C151.4,340.2,150.8,340.5,149.7,340.9z M150.1,341.9
		v-0.8c0.5,0,1.1,0.1,1.9,0.1c0-0.5,0-0.7-0.1-0.8c0.3,0.1,0.6,0.1,1,0.1c0.1,0,0.2,0.1,0,0.1c0,0-0.1,0.2-0.1,0.6
		c0.8,0,1.4,0,1.9-0.1v0.8c-0.5,0-1.1-0.1-1.9-0.1v0.7c0.8,0,1.3,0,1.8-0.1v0.8c-0.5,0-1-0.1-1.8-0.1v0.8c1.1,0,1.8,0,2.4-0.1v0.8
		c-0.6-0.1-1.3-0.1-2.4-0.1c0,0.7,0,1.1,0.1,1.6h-1c0-0.5,0.1-0.9,0.1-1.6c-1.1,0-1.8,0-2.4,0.1v-0.8c0.6,0,1.3,0.1,2.4,0.1v-0.8
		c-0.8,0-1.4,0-1.8,0.1v-0.8c0.5,0,1,0.1,1.8,0.1v-0.7C151.1,341.8,150.6,341.8,150.1,341.9z M153.4,337.7h-2c0.3,0.4,0.6,0.8,1,1.1
		C152.8,338.4,153.2,338,153.4,337.7z"/>
	<path style="fill:#030C1F;" d="M160.2,337.6v0.8c-0.3,0-0.8-0.1-2.1-0.1c-0.3,0.5-0.7,1.1-1.1,1.7c-0.1-0.4-0.2-0.6-0.4-0.8
		c0.6-0.6,1.3-2.1,1.6-3.2c0.3,0.2,0.5,0.3,0.8,0.3c0.3,0.1,0.3,0.2,0,0.4c-0.1,0.1-0.2,0.3-0.5,0.9
		C159.4,337.6,159.8,337.6,160.2,337.6z M156.7,342.4v-0.9c0.3,0,0.7,0.1,1.2,0.1v-1.3c-0.2,0-0.3,0-0.5,0.1v-0.9
		c0.3,0.1,0.6,0.1,1.2,0.1c0.6,0,1.2,0,1.5-0.1v0.9c-0.3,0-0.8-0.1-1.4-0.1v1.3c0.7,0,1.2,0,1.6-0.1v0.9c-0.4-0.1-0.9-0.1-1.6-0.1
		v2.1c0.4-0.3,0.7-0.5,1.1-0.9c0,0.4,0,0.7,0.1,0.8l-1.3,1.1c-0.2,0.2-0.4,0.3-0.5,0.5c-0.2-0.3-0.4-0.6-0.6-0.8
		c0.3-0.2,0.4-0.5,0.4-1.1v-1.8C157.4,342.3,157,342.3,156.7,342.4z M160.5,346.1c-0.1-0.3-0.3-0.5-0.6-0.6c0.8-0.2,1.5-0.6,2.2-1.3
		c0.2,0.2,0.5,0.5,0.6,0.5c0.2,0.1,0.1,0.2-0.1,0.2C162.4,345,161.5,345.5,160.5,346.1z M161,339.5c0-0.3,0-0.9-0.1-1.2
		c0.4,0,0.9,0.1,1.7,0.1c0-0.2,0-0.5,0-0.7c-1,0-1.7,0-2.3,0.1V337c0.6,0.1,1.3,0.1,2.3,0.1c0-0.4,0-0.8-0.1-1
		c0.3,0.1,0.8,0.1,1,0.1c0.2,0,0.2,0.1,0.1,0.2c0,0-0.1,0.3-0.2,0.7c1.2,0,2,0,2.7-0.1v0.8c-0.7-0.1-1.5-0.1-2.8-0.1
		c0,0.2,0,0.5-0.1,0.7c1,0,1.7,0,2.1-0.1c0,0.2-0.1,0.8-0.1,1.2v3.9c0.4,0,0.7,0,0.9,0v0.7c-0.5-0.1-0.9-0.1-3-0.1
		c-2.1,0-2.5,0-3,0.1v-0.7c0.2,0,0.4,0,0.7,0V339.5z M164.7,339h-2.9v0.7h2.9V339z M161.8,340.9h2.9v-0.7h-2.9V340.9z M161.8,342.1
		h2.9v-0.7h-2.9V342.1z M164.7,342.7h-2.9v0.7h2.9V342.7z M165.7,346c-0.7-0.5-1.3-0.9-2.1-1.3l0.5-0.6c0.7,0.3,1.5,0.7,2.1,1.1
		L165.7,346z"/>
</g>
<g>
	<path style="fill:#030C1F;" d="M451.4,245.6v-0.9c0.6,0.1,1.4,0.1,2.4,0.1c1.1,0,1.7,0,2.3-0.1v0.9c-0.6-0.1-1.1-0.1-2.5-0.1
		c0,0.4,0,1,0,1.7c1.1,0,2,0,2.4,0l-0.3,3.8c-0.1,0.8-0.3,1.1-1.7,1.3c0-0.4-0.1-0.6-0.5-1.1c1.1,0.2,1.3,0,1.4-0.8l0.2-2.4h-1.5
		c-0.1,2-0.5,3.2-1.2,4.4c-0.3-0.2-0.6-0.4-1-0.5c0.5-0.4,1-1.5,1.2-2.7c0.2-0.9,0.3-2.1,0.3-3.7
		C452.2,245.6,451.8,245.6,451.4,245.6z M454,244.6c-0.2-0.5-0.5-1.1-0.8-1.5l0.9-0.5c0.3,0.5,0.6,1.1,0.8,1.5L454,244.6z
		 M456.3,247.1c-0.2-0.2-0.5-0.4-0.9-0.5c1.2-1,2-2,2.5-4.1c0.4,0.1,0.9,0.3,1.1,0.3c0.1,0,0.2,0.1,0,0.2c-0.1,0-0.1,0.1-0.2,0.2
		c0.5,1.6,1.4,2.5,2.9,2.9c-0.3,0.3-0.6,0.7-0.7,1c-1.3-0.6-2.4-2.1-2.6-3.2C458,244.9,457.2,246.2,456.3,247.1z M459.8,252.3
		c-0.7-0.8-1.9-1.6-3-2.1l0.6-0.7c1,0.5,2.1,1.3,3.1,2L459.8,252.3z M459.4,249.3c-0.6-0.6-1.6-1.3-2.3-1.6l0.5-0.7
		c0.8,0.4,1.6,0.9,2.4,1.5L459.4,249.3z"/>
	<path style="fill:#030C1F;" d="M464.1,247.4c-0.4-0.3-1.1-0.8-1.7-1.1l0.5-0.7c0.7,0.3,1.2,0.6,1.6,0.9L464.1,247.4z M464.2,250.3
		c-0.3,1-0.4,1.4-0.5,2.1c-0.4-0.3-0.7-0.4-1.1-0.6c0.3-0.6,0.5-1.1,0.8-1.9c0.2-0.6,0.3-1,0.5-1.7c0.2,0.2,0.5,0.3,0.8,0.4
		C464.6,249.1,464.4,249.5,464.2,250.3z M464.3,244.5c-0.4-0.3-0.9-0.7-1.5-1l0.5-0.7c0.6,0.3,0.9,0.5,1.5,0.8L464.3,244.5z
		 M466.9,245.3c0.4,0,0.7,0,1-0.1v0.8c-0.3-0.1-0.6-0.1-1.1-0.1c0,0.1,0,0.1,0,0.2c0.5,0.4,0.9,0.7,1.3,1.1l-0.5,0.6
		c-0.3-0.4-0.6-0.7-1-1.1c-0.2,0.6-0.6,1.2-1.1,1.7c-0.2-0.2-0.5-0.3-0.8-0.4c0.7-0.6,1.2-1.1,1.4-2.1c-0.5,0-0.9,0-1.2,0.1v-0.8
		c0.3,0.1,0.7,0.1,1.3,0.1c0-0.3,0.1-0.7,0.1-1.1c-0.5,0-0.8,0-1.1,0.1v-0.8c0.3,0.1,0.6,0.1,1.1,0.1c0-0.3,0-0.6,0-1
		c0.3,0,0.6,0.1,0.8,0c0.1,0,0.1,0,0,0.1c0,0-0.1,0.3-0.1,0.8c0.3,0,0.6,0,0.8-0.1v0.8c-0.2,0-0.5-0.1-0.9-0.1
		C467,244.6,467,244.9,466.9,245.3z M466.7,252.4h-0.8c0.1-0.5,0.1-1,0.1-1.5v-1.5c0-0.4,0-0.9-0.1-1.2c0.5,0.1,0.9,0.1,2.6,0.1
		c1.6,0,2.2,0,2.6-0.1c0,0.3-0.1,0.8-0.1,1.2v1.7c0,0.5,0,0.9,0.1,1.4h-0.9v-0.6h-3.5V252.4z M470.2,248.9h-3.5v0.8h3.5V248.9z
		 M466.7,251.2h3.5v-0.8h-3.5V251.2z M472.4,247.4c-0.3,0.3-0.5,0.6-0.6,0.9c-0.9-0.5-1.3-0.9-1.6-2c-0.3,0.7-0.7,1.2-1.3,1.8
		c-0.2-0.2-0.5-0.4-0.7-0.5c0.8-0.5,1.2-1,1.5-1.7c-0.4,0-0.8,0-1.1,0.1v-0.8c0.3,0,0.7,0.1,1.2,0.1c0.1-0.3,0.1-0.7,0.1-1.1
		c-0.4,0-0.8,0-1.1,0.1v-0.8c0.3,0.1,0.6,0.1,1.1,0.1c0-0.3,0-0.7,0-1c0.3,0,0.7,0,0.9,0c0.1,0,0.1,0.1,0,0.2
		c-0.1,0.1-0.1,0.2-0.1,0.8c0.5,0,0.9,0,1.3-0.1v0.8c-0.3-0.1-0.8-0.1-1.3-0.1c0,0.4-0.1,0.8-0.1,1.1c0.7,0,1.2,0,1.6-0.1v0.8
		c-0.4-0.1-0.9-0.1-1.5-0.1C471,246.9,471.4,247.1,472.4,247.4z"/>
	<path style="fill:#030C1F;" d="M477.2,243.9v0.8c-0.3,0-0.8-0.1-2.1-0.1c-0.3,0.5-0.7,1.1-1.1,1.7c-0.1-0.4-0.2-0.6-0.4-0.8
		c0.6-0.6,1.3-2.1,1.6-3.2c0.3,0.2,0.5,0.3,0.8,0.3c0.3,0.1,0.3,0.2,0,0.4c-0.1,0.1-0.2,0.3-0.5,0.9
		C476.4,244,476.8,244,477.2,243.9z M473.7,248.7v-0.9c0.3,0,0.7,0.1,1.2,0.1v-1.3c-0.2,0-0.3,0-0.5,0.1v-0.9
		c0.3,0.1,0.6,0.1,1.2,0.1c0.6,0,1.2,0,1.5-0.1v0.9c-0.3,0-0.8-0.1-1.4-0.1v1.3c0.7,0,1.2,0,1.6-0.1v0.9c-0.4-0.1-0.9-0.1-1.6-0.1
		v2.1c0.4-0.3,0.7-0.5,1.1-0.9c0,0.4,0,0.7,0.1,0.8l-1.3,1.1c-0.2,0.2-0.4,0.3-0.5,0.5c-0.2-0.3-0.4-0.6-0.6-0.8
		c0.3-0.2,0.4-0.5,0.4-1.1v-1.7C474.4,248.7,474,248.7,473.7,248.7z M477.5,252.5c-0.1-0.3-0.3-0.5-0.6-0.6c0.8-0.2,1.5-0.6,2.2-1.3
		c0.2,0.2,0.5,0.5,0.6,0.5c0.2,0.1,0.1,0.2-0.1,0.2C479.4,251.3,478.5,251.8,477.5,252.5z M478,245.9c0-0.3,0-0.9-0.1-1.2
		c0.4,0,0.9,0.1,1.7,0.1c0-0.2,0-0.5,0-0.7c-1,0-1.7,0-2.3,0.1v-0.8c0.6,0.1,1.3,0.1,2.3,0.1c0-0.4,0-0.8-0.1-1
		c0.3,0.1,0.8,0.1,1,0.1c0.2,0,0.2,0.1,0.1,0.2c0,0-0.1,0.3-0.2,0.7c1.2,0,2,0,2.7-0.1v0.8c-0.7-0.1-1.5-0.1-2.8-0.1
		c0,0.2,0,0.5-0.1,0.7c1,0,1.7,0,2.1-0.1c0,0.2-0.1,0.8-0.1,1.2v3.9c0.4,0,0.7,0,0.9,0v0.7c-0.5-0.1-0.9-0.1-3-0.1
		c-2.1,0-2.5,0-3,0.1v-0.7c0.2,0,0.4,0,0.7,0V245.9z M481.7,245.3h-2.9v0.7h2.9V245.3z M478.8,247.2h2.9v-0.6h-2.9V247.2z
		 M478.8,248.5h2.9v-0.7h-2.9V248.5z M481.7,249h-2.9v0.7h2.9V249z M482.7,252.4c-0.7-0.5-1.3-0.9-2.1-1.3l0.5-0.6
		c0.7,0.3,1.5,0.7,2.1,1.1L482.7,252.4z"/>
</g>
<g>
	<path style="fill:#030C1F;" d="M748.7,161.1v0.9c-0.7-0.1-2-0.1-3.3-0.1v0.7c1.5,0,3.7,0,4.3-0.1v0.9c-0.7-0.1-3.3-0.1-4.7-0.1
		c-1.4,0-4,0-4.7,0.1v-0.9c0.7,0.1,2.8,0.1,4.2,0.1v-0.7c-1.3,0-2.5,0-3.2,0.1v-0.9c0.7,0.1,1.9,0.1,3.2,0.1v-0.7
		c-1.3,0-3,0-3.7,0.1v-0.9c0.7,0.1,2.3,0.1,3.7,0.1c0-0.3,0-0.7,0-0.9c0.3,0,0.7,0.1,1,0c0.2,0,0.2,0.1,0,0.2
		c-0.1,0.1-0.1,0.3-0.1,0.4v0.3c1.4,0,3.1-0.1,3.7-0.1v0.9c-0.7-0.1-2.4-0.1-3.7-0.1v0.7C746.7,161.2,748,161.1,748.7,161.1z
		 M742.7,168.7h-1c0.1-0.6,0.1-1.1,0.1-1.6v-2.4c0-0.4,0-0.8,0-1c0.5,0,1.5,0.1,3.2,0.1c1.8,0,2.9,0,3.4-0.1c0,0.2,0,0.6,0,1v2.9
		c0,1-0.1,1.1-1.8,1.2c-0.1-0.3-0.2-0.7-0.4-1c1.2,0.1,1.3,0,1.3-0.5v-0.3h-4.8V168.7z M747.4,164.6h-4.8v0.7h4.8V164.6z
		 M742.7,166.6h4.8v-0.8h-4.8V166.6z"/>
	<path style="fill:#030C1F;" d="M755.2,168c-1.5,0-2.4,0-3.3,0.1c0.1-0.4,0.1-0.8,0.1-1.2v-4.3c0-0.7,0-1.1-0.1-1.3
		c0.4,0.1,0.7,0.1,1.2,0.1c0.2,0,0.2,0.1,0,0.2c-0.1,0.1-0.2,0.2-0.2,0.4v5.2h2.7v-6.4c0-0.7,0-1.2-0.1-1.6c0.5,0.1,0.9,0.1,1.2,0.1
		c0.2,0,0.2,0.1,0.1,0.2c-0.2,0.1-0.2,0.2-0.2,0.5v7.3h2.7v-4.4c0-0.7,0-1.1-0.1-1.3c0.5,0.1,0.9,0.1,1.2,0.1c0.2,0,0.2,0.1,0,0.2
		c-0.2,0.1-0.2,0.2-0.2,0.4v5.1c0,0.5,0,0.9,0.1,1.4h-1V168H755.2z"/>
	<path style="fill:#030C1F;" d="M763.8,163.8c-0.4-0.3-1.2-0.9-1.7-1.2l0.4-0.7c0.5,0.3,1.3,0.8,1.7,1.1L763.8,163.8z M763.6,166.7
		c-0.2,0.8-0.3,1.3-0.4,2c-0.4-0.3-0.7-0.4-1.1-0.6c0.3-0.5,0.5-1.2,0.8-1.9c0.2-0.5,0.3-1.2,0.4-1.8c0.3,0.2,0.5,0.4,0.8,0.5
		C764,165.3,763.8,165.8,763.6,166.7z M764.3,161.2c-0.5-0.4-1.1-0.9-1.7-1.3l0.5-0.7c0.5,0.3,1.3,0.8,1.7,1.2L764.3,161.2z
		 M764.6,162.1v-0.8c0.3,0,0.8,0,1.3,0.1c0-1.5,0-2.2,0-2.5c0.3,0.1,0.8,0.1,1,0.1c0.1,0,0.2,0.1,0.1,0.2c-0.2,0.2-0.2,0.4-0.2,0.6
		v1.6c0.5,0,1.1,0,1.4-0.1v0.8c-0.3,0-0.8,0-1.4-0.1v1.6c0.5,0,0.8,0,1,0c0,0.2,0,0.4,0,0.8v1.8c0,0.5,0,0.7,0,1h-0.7v-0.6h-1.4v1.1
		h-0.8c0-0.5,0.1-0.9,0.1-1.4v-1.9c0-0.5,0-0.6,0-0.8c0.2,0,0.5,0,1.2,0V162C765.3,162,764.9,162.1,764.6,162.1z M766.8,164.3h-1.4
		v1.6h1.4V164.3z M769.2,165.2c-0.1,1.4-0.8,2.8-1.7,3.8c-0.3-0.2-0.7-0.4-1-0.4c1.1-0.9,1.9-2.4,1.9-4.3v-3.5c0-0.7,0-1.1,0-1.4
		c0.4,0,1,0,1.5,0c0.5,0,1.1,0,1.5,0c0,0.3,0,0.7,0,1.4v6.6c0,1-0.1,1.2-1.6,1.4c-0.1-0.3-0.2-0.7-0.4-1.1c1,0.1,1.2,0,1.2-0.7v-1.8
		H769.2z M770.6,162.1v-1.9h-1.4v1.9H770.6z M769.2,162.8v1.7h1.4v-1.7H769.2z"/>
	<path style="fill:#030C1F;" d="M775.2,168.9h-1c0.1-0.6,0.1-1.1,0.1-1.8v-3.1c-0.3,0.4-0.5,0.7-0.8,1c-0.2-0.3-0.4-0.5-0.6-0.6
		c0.5-0.4,1.2-1.1,1.5-1.8c0.3-0.4,0.4-0.9,0.6-1.3c0.3,0.2,0.7,0.5,0.9,0.5c0.2,0,0.2,0.1,0,0.2c-0.1,0-0.2,0.2-0.6,0.8V168.9z
		 M775.2,160.4c-0.4,0.6-0.9,1.1-1.4,1.6c-0.2-0.2-0.4-0.4-0.7-0.6c0.5-0.4,0.7-0.6,1.2-1.3c0.2-0.2,0.5-0.7,0.6-1.1
		c0.3,0.2,0.8,0.5,0.9,0.6c0.2,0.1,0.2,0.1,0,0.2C775.7,159.8,775.6,159.9,775.2,160.4z M780.2,166.1c-0.1,0.3-0.1,0.6,0,0.9
		c-1.2,0.1-3.5,0.6-4.4,0.8c0-0.4-0.1-0.7-0.2-1.1c0.4,0,1.2-0.1,1.9-0.2v-1.4c-0.7,0-1,0-1.4,0.1v-0.8c0.5,0.1,0.8,0.1,1.4,0.1
		c0-0.4,0-0.8-0.1-1.1c0.3,0,0.7,0.1,1,0.1c0.1,0,0.2,0.1,0,0.2c-0.1,0.1-0.1,0.1-0.1,0.2v0.7c0.6,0,1,0,1.4-0.1v0.8
		c-0.5-0.1-0.8-0.1-1.4-0.1v1.3C779.1,166.4,779.9,166.2,780.2,166.1z M778.4,162.4c0.6,0,0.8,0,1.3-0.1v0.9
		c-0.5-0.1-0.7-0.1-1.7-0.1c-1.1,0-1.3,0-1.9,0.1v-0.9c0.5,0.1,0.7,0.1,1.5,0.1v-1.3c-0.6,0-0.9,0-1.3,0.1v-0.9
		c0.5,0.1,0.7,0.1,1.3,0.1c0-0.5,0-1.1-0.1-1.4c0.3,0,0.7,0.1,1,0.1c0.1,0,0.2,0.1,0,0.2c-0.1,0.1-0.1,0.1-0.1,0.2v0.9
		c0.7,0,1,0,1.4-0.1v0.9c-0.5-0.1-0.7-0.1-1.4-0.1V162.4z M782,167.8c0,0.9,0,1-1.7,1.2c0-0.3-0.1-0.5-0.4-1.1c1.1,0,1.2,0,1.2-0.5
		v-4.4c-0.5,0-0.7,0-1,0.1v-0.9c0.4,0.1,0.7,0.1,1.5,0.1c0.8,0,1,0,1.5-0.1v0.9c-0.4-0.1-0.6-0.1-1.1-0.1V167.8z M781.3,160.5
		c-0.5,0-0.9,0-1.3,0.1v-0.9c0.4,0.1,0.6,0.1,1.3,0.1c0.7,0,0.9,0,1.3-0.1v0.9C782.2,160.5,782,160.5,781.3,160.5z"/>
	<path style="fill:#030C1F;" d="M787.1,167.4c1.2,0.5,4.2,0.6,6.9,0.2c-0.2,0.5-0.3,0.8-0.3,1.2c-4.3,0.1-5.2,0-7.4-0.9
		c-0.6-0.2-0.9,0-1.4,0.9c-0.2-0.2-0.5-0.5-0.9-0.7c0.6-0.5,1-0.9,1.3-1v-3.4c-0.6,0-1,0-1.2,0.1v-0.9c0.7,0.1,1.6,0.1,2.3,0
		c-0.1,0.4-0.1,0.7-0.1,1.3v2.9C786.5,167.1,786.7,167.2,787.1,167.4z M785.4,161.9c-0.1-0.8-0.4-1.5-0.6-2.1l0.9-0.3
		c0.2,0.7,0.4,1.4,0.7,2.1L785.4,161.9z M792.9,162c0,0.4-0.1,0.8-0.1,1.2v2.7c0,0.5,0,1,0.1,1.6H792V167h-3.3v0.5h-0.9
		c0.1-0.5,0.1-0.9,0.1-1.6v-2.7c0-0.4,0-0.8-0.1-1.2c0.4,0,1,0.1,1.8,0.1c0.1-0.2,0.2-0.5,0.2-0.8c-1.3,0-2.1,0-2.9,0.1v-0.9
		c0.9,0.1,2.1,0.1,3.8,0.1c0.2-0.5,0.4-0.9,0.5-1.5c0.3,0.2,0.7,0.3,1.1,0.4c0.1,0,0.1,0.1,0,0.1c-0.2,0.1-0.4,0.3-0.9,1.1
		c1,0,1.7,0,2.3-0.1v0.9c-0.8-0.1-1.7-0.1-3-0.1c-0.1,0.3-0.2,0.6-0.3,0.9C791.5,162.1,792.5,162.1,792.9,162z M789.2,160.5
		c-0.2-0.3-0.5-0.6-0.8-0.9l0.8-0.5c0.3,0.3,0.6,0.7,0.7,0.9L789.2,160.5z M792,162.7h-3.3v0.7h3.3V162.7z M788.7,164.9h3.3v-0.8
		h-3.3V164.9z M792,165.5h-3.3v0.8h3.3V165.5z"/>
</g>
<g>
	<path style="fill:#030C1F;" d="M221.8,249.4c1.1-1,1.7-2,2-2.9c0.3,0.2,0.7,0.4,0.9,0.5c0.2,0.1,0.2,0.1,0,0.2
		c-0.1,0.1-0.4,0.4-1.3,1.6c-0.5,0.6-1,1.2-1.7,1.7c0,0.6,0.1,0.7,0.7,0.8c0.4,0,1.2,0,1.6-0.1c0.4-0.1,0.5-0.2,0.8-1.4
		c0.3,0.4,0.6,0.5,1,0.6c-0.5,1.4-0.7,1.6-1.6,1.6c-0.6,0-2,0-2.5,0c-0.6-0.1-0.8-0.2-0.9-0.9c-0.4,0.4-0.9,0.7-1.4,1
		c-0.2-0.3-0.4-0.6-0.7-0.8c0.7-0.3,1.4-0.7,2.1-1.2v-4.3h-0.8c-0.2,2.7-1.2,4.8-3.4,6.4c-0.2-0.3-0.5-0.5-0.9-0.7
		c2.2-1.7,3-3.2,3.3-5.8c-1.2,0-2.2,0-2.9,0.1v-1c0.7,0.1,1.7,0.1,3,0.1c0.1-1,0.1-1.9,0-2.5c0.5,0.1,1.1,0.1,1.4,0.1
		c0.1,0,0.2,0.1,0,0.2c-0.1,0.1-0.1,0.3-0.2,0.5c-0.1,0.4-0.2,1.1-0.3,1.7h3.1c0.8,0,1.6,0,2.3-0.1v1c-0.7-0.1-1.5-0.1-2.3-0.1h-1.5
		V249.4z M223.6,244.6c-0.5-0.5-1-0.9-1.5-1.1l0.6-0.7c0.5,0.4,1,0.8,1.5,1.1L223.6,244.6z"/>
	<path style="fill:#030C1F;" d="M235.9,247.4v3.8c0,1-0.1,1.1-1.8,1.3c-0.1-0.4-0.3-0.8-0.6-1.1c1.3,0.1,1.5,0,1.5-0.4v-4.3h-6.1
		v5.5h-1.1c0.1-0.6,0.2-1.2,0.2-2v-2.8c0-0.7,0-1.1-0.1-1.6c0.6,0.1,1.4,0.1,4.1,0.1c2.6,0,3.4,0,4.1-0.1
		C235.9,246.3,235.9,246.7,235.9,247.4z M234.9,244.5c0-0.9,0-1.3-0.1-1.6c0.2,0.1,0.7,0.1,1,0.1c0.1,0,0.2,0,0.1,0.1
		c-0.1,0.1-0.2,0.9-0.1,2.2c-0.9-0.1-2.3-0.1-3.8-0.1c-2,0-3.1,0-3.9,0.1c0.1-0.9,0.1-2-0.1-2.3c0.3,0.1,0.7,0.1,1.1,0.1
		c0.1,0,0.2,0.1,0.1,0.2c-0.1,0.1-0.1,0.4-0.1,1.3h2.5c0-1.4,0-1.7-0.1-2c0.2,0.1,0.7,0.1,1,0.1c0.2,0,0.2,0.1,0.1,0.2
		c-0.1,0.1-0.1,0.5-0.1,1.7H234.9z M233.2,247.1c0.3,0.3,0.7,0.5,0.9,0.6c0.1,0.1,0.1,0.1,0,0.1c-0.3,0.1-0.6,0.3-0.8,0.5
		c-0.2,0.2-0.4,0.4-0.6,0.6c0.7,0.5,1.4,0.9,1.8,1.2l-0.7,0.6c-0.4-0.4-1-0.8-1.6-1.3c-0.8,0.6-1.6,1.2-2.3,1.6
		c-0.2-0.3-0.4-0.5-0.7-0.7c0.8-0.3,1.7-0.8,2.3-1.3c-0.7-0.4-1.3-0.8-1.8-1.1l0.6-0.5c0.4,0.2,1.1,0.7,1.8,1.1
		C232.6,247.9,233,247.5,233.2,247.1z"/>
	<path style="fill:#030C1F;" d="M241.7,244v0.8c-0.3,0-0.8-0.1-2.1-0.1c-0.3,0.5-0.7,1.1-1.1,1.7c-0.1-0.4-0.2-0.6-0.4-0.8
		c0.6-0.6,1.3-2.1,1.6-3.2c0.3,0.2,0.5,0.3,0.8,0.3c0.3,0.1,0.3,0.2,0,0.4c-0.1,0.1-0.2,0.3-0.5,0.9C240.9,244,241.3,244,241.7,244z
		 M238.2,248.8v-0.9c0.3,0,0.7,0.1,1.2,0.1v-1.3c-0.2,0-0.3,0-0.5,0.1v-0.9c0.3,0.1,0.6,0.1,1.2,0.1c0.6,0,1.2,0,1.5-0.1v0.9
		c-0.3,0-0.8-0.1-1.4-0.1v1.3c0.7,0,1.2,0,1.6-0.1v0.9c-0.4-0.1-0.9-0.1-1.6-0.1v2.1c0.4-0.3,0.7-0.5,1.1-0.9c0,0.4,0,0.7,0.1,0.8
		l-1.3,1.1c-0.2,0.2-0.4,0.3-0.5,0.5c-0.2-0.3-0.4-0.6-0.6-0.8c0.3-0.2,0.4-0.5,0.4-1.1v-1.7C238.9,248.7,238.5,248.7,238.2,248.8z
		 M242,252.5c-0.1-0.3-0.3-0.5-0.6-0.6c0.8-0.2,1.5-0.6,2.2-1.3c0.2,0.2,0.5,0.5,0.6,0.5c0.2,0.1,0.1,0.2-0.1,0.2
		C243.9,251.4,243,251.9,242,252.5z M242.5,245.9c0-0.3,0-0.9-0.1-1.2c0.4,0,0.9,0.1,1.7,0.1c0-0.2,0-0.5,0-0.7c-1,0-1.7,0-2.3,0.1
		v-0.8c0.6,0.1,1.3,0.1,2.3,0.1c0-0.4,0-0.8-0.1-1c0.3,0.1,0.8,0.1,1,0.1c0.2,0,0.2,0.1,0.1,0.2c0,0-0.1,0.3-0.2,0.7
		c1.2,0,2,0,2.7-0.1v0.8c-0.7-0.1-1.5-0.1-2.8-0.1c0,0.2,0,0.5-0.1,0.7c1,0,1.7,0,2.1-0.1c0,0.2-0.1,0.8-0.1,1.2v3.9
		c0.4,0,0.7,0,0.9,0v0.7c-0.5-0.1-0.9-0.1-3-0.1c-2.1,0-2.5,0-3,0.1v-0.7c0.2,0,0.4,0,0.7,0V245.9z M246.2,245.4h-2.9v0.7h2.9V245.4
		z M243.3,247.3h2.9v-0.6h-2.9V247.3z M243.3,248.5h2.9v-0.7h-2.9V248.5z M246.2,249.1h-2.9v0.7h2.9V249.1z M247.2,252.4
		c-0.7-0.5-1.3-0.9-2.1-1.3l0.5-0.6c0.7,0.3,1.5,0.7,2.1,1.1L247.2,252.4z"/>
</g>
<g>
	<path style="fill:#030C1F;" d="M453.1,379.6c-0.4-0.3-1.1-0.8-1.7-1.1l0.5-0.7c0.7,0.3,1.2,0.6,1.6,0.9L453.1,379.6z M453.2,382.6
		c-0.3,1-0.4,1.4-0.5,2.1c-0.4-0.3-0.7-0.4-1.1-0.6c0.3-0.6,0.5-1.1,0.8-1.9c0.2-0.6,0.3-1,0.5-1.7c0.2,0.2,0.5,0.3,0.8,0.4
		C453.6,381.3,453.4,381.8,453.2,382.6z M453.3,376.8c-0.4-0.3-0.9-0.7-1.5-1l0.5-0.7c0.6,0.3,0.9,0.5,1.5,0.8L453.3,376.8z
		 M455.9,377.5c0.4,0,0.7,0,1-0.1v0.8c-0.3-0.1-0.6-0.1-1.1-0.1c0,0.1,0,0.1,0,0.2c0.5,0.4,0.9,0.7,1.3,1.1l-0.5,0.6
		c-0.3-0.4-0.6-0.7-1-1.1c-0.2,0.6-0.6,1.2-1.1,1.7c-0.2-0.2-0.5-0.3-0.8-0.4c0.7-0.6,1.2-1.1,1.4-2.1c-0.5,0-0.9,0-1.2,0.1v-0.8
		c0.3,0.1,0.7,0.1,1.3,0.1c0-0.3,0.1-0.7,0.1-1.1c-0.5,0-0.8,0-1.1,0.1v-0.8c0.3,0.1,0.6,0.1,1.1,0.1c0-0.3,0-0.6,0-1
		c0.3,0,0.6,0.1,0.8,0c0.1,0,0.1,0,0,0.1c0,0-0.1,0.3-0.1,0.8c0.3,0,0.6,0,0.8-0.1v0.8c-0.2,0-0.5-0.1-0.9-0.1
		C456,376.8,456,377.2,455.9,377.5z M455.7,384.6h-0.8c0.1-0.5,0.1-1,0.1-1.5v-1.5c0-0.4,0-0.9-0.1-1.2c0.5,0.1,0.9,0.1,2.6,0.1
		c1.7,0,2.2,0,2.6-0.1c0,0.3-0.1,0.8-0.1,1.2v1.7c0,0.5,0,0.9,0.1,1.4h-0.9V384h-3.5V384.6z M459.2,381.1h-3.5v0.8h3.5V381.1z
		 M455.7,383.4h3.5v-0.8h-3.5V383.4z M461.4,379.6c-0.3,0.3-0.5,0.6-0.6,0.9c-0.9-0.5-1.3-0.9-1.6-2c-0.3,0.7-0.7,1.2-1.3,1.8
		c-0.2-0.2-0.5-0.4-0.7-0.5c0.8-0.5,1.2-1,1.5-1.8c-0.4,0-0.8,0-1.1,0.1v-0.8c0.3,0,0.7,0.1,1.2,0.1c0.1-0.3,0.1-0.7,0.1-1.1
		c-0.4,0-0.8,0-1.1,0.1v-0.8c0.3,0.1,0.6,0.1,1.1,0.1c0-0.3,0-0.7,0-1c0.3,0,0.7,0,0.9,0c0.1,0,0.1,0.1,0,0.2
		c-0.1,0.1-0.1,0.2-0.1,0.8c0.5,0,0.9,0,1.3-0.1v0.8c-0.3-0.1-0.8-0.1-1.3-0.1c0,0.4-0.1,0.8-0.1,1.1c0.7,0,1.2,0,1.6-0.1v0.8
		c-0.4-0.1-0.9-0.1-1.5-0.1C460,379.1,460.4,379.3,461.4,379.6z"/>
	<path style="fill:#030C1F;" d="M465,377.3c-0.1,4.6-0.2,5.3-1.5,7.3c-0.2-0.2-0.7-0.4-1-0.5c1.5-1.9,1.6-2.3,1.6-7.5
		c0-0.8,0-1-0.1-1.6c0.4,0.1,0.9,0.2,1.2,0.1c0.1,0,0.1,0,0.1,0.1C465.1,375.6,465.1,376,465,377.3z M468,376.1v5.7
		c0,1.1,0,1.6,0.1,2H467c0.1-0.4,0.1-0.8,0.1-2V377c0-0.7,0-1.2-0.1-1.5c0.3,0.1,0.6,0.1,1,0.1c0.2,0,0.3,0.1,0.1,0.2
		C468.1,375.8,468,376,468,376.1z M471.2,375.6v6.8c0,0.9,0,1.8,0.1,2.1h-1.2c0.1-0.4,0.1-1.3,0.1-2.1v-6c0-0.8,0-1.2-0.1-1.6
		c0.4,0.1,0.7,0.1,1.2,0.1c0.2,0,0.2,0.1,0.1,0.2C471.2,375.3,471.2,375.4,471.2,375.6z"/>
	<path style="fill:#030C1F;" d="M477.2,376.2v0.8c-0.3,0-0.8-0.1-2.1-0.1c-0.3,0.5-0.7,1.1-1.1,1.7c-0.1-0.4-0.2-0.6-0.4-0.8
		c0.6-0.6,1.3-2.1,1.6-3.2c0.3,0.2,0.5,0.3,0.8,0.3c0.3,0.1,0.3,0.2,0,0.4c-0.1,0.1-0.2,0.3-0.5,0.9
		C476.4,376.2,476.8,376.2,477.2,376.2z M473.7,381V380c0.3,0,0.7,0.1,1.2,0.1v-1.3c-0.2,0-0.3,0-0.5,0.1V378
		c0.3,0.1,0.6,0.1,1.2,0.1c0.6,0,1.2,0,1.5-0.1v0.9c-0.3,0-0.8-0.1-1.4-0.1v1.3c0.7,0,1.2,0,1.6-0.1v0.9c-0.4-0.1-0.9-0.1-1.6-0.1
		v2.1c0.4-0.3,0.7-0.5,1.1-0.9c0,0.4,0,0.7,0.1,0.8l-1.3,1.1c-0.2,0.2-0.4,0.3-0.5,0.5c-0.2-0.3-0.4-0.6-0.6-0.8
		c0.3-0.2,0.4-0.5,0.4-1.1v-1.7C474.4,380.9,474,380.9,473.7,381z M477.5,384.7c-0.1-0.3-0.3-0.5-0.6-0.6c0.8-0.2,1.5-0.6,2.2-1.3
		c0.2,0.2,0.5,0.5,0.6,0.5c0.2,0.1,0.1,0.2-0.1,0.2C479.4,383.6,478.5,384.1,477.5,384.7z M478,378.1c0-0.3,0-0.9-0.1-1.2
		c0.4,0,0.9,0.1,1.7,0.1c0-0.2,0-0.5,0-0.7c-1,0-1.7,0-2.3,0.1v-0.8c0.6,0.1,1.3,0.1,2.3,0.1c0-0.4,0-0.8-0.1-1
		c0.3,0.1,0.8,0.1,1,0.1c0.2,0,0.2,0.1,0.1,0.2c0,0-0.1,0.3-0.2,0.7c1.2,0,2,0,2.7-0.1v0.8c-0.7-0.1-1.5-0.1-2.8-0.1
		c0,0.2,0,0.5-0.1,0.7c1,0,1.7,0,2.1-0.1c0,0.2-0.1,0.8-0.1,1.2v3.9c0.4,0,0.7,0,0.9,0v0.7c-0.5-0.1-0.9-0.1-3-0.1
		c-2.1,0-2.5,0-3,0.1V382c0.2,0,0.4,0,0.7,0V378.1z M481.7,377.6h-2.9v0.7h2.9V377.6z M478.8,379.5h2.9v-0.6h-2.9V379.5z
		 M478.8,380.7h2.9V380h-2.9V380.7z M481.7,381.3h-2.9v0.7h2.9V381.3z M482.7,384.6c-0.7-0.5-1.3-0.9-2.1-1.3l0.5-0.6
		c0.7,0.3,1.5,0.7,2.1,1.1L482.7,384.6z"/>
</g>
<g>
	<path style="fill:#030C1F;" d="M582.7,179.8c-0.4,0.8-1.8,2.1-3.3,2.9c-0.2-0.4-0.4-0.6-0.8-0.8c1.1-0.5,2.1-1.2,2.8-2
		c0.7-0.8,1.2-2.3,1.3-3.5c-1.6,0-2.8,0.1-3.7,0.1v-1.1c0.9,0.1,2.1,0.1,3.8,0.1c0.1-1.8,0.1-2.3,0-2.8c0.4,0.1,1,0.1,1.4,0.1
		c0.1,0,0.2,0,0,0.1c-0.1,0.1-0.2,0.4-0.2,0.7c0,0.9-0.1,1.4-0.1,1.9c1.7,0,3-0.1,4-0.1v1.1c-1-0.1-2.3-0.1-4-0.1
		c0.4,1.3,1.2,2.6,2.3,3.7c0.8,0.8,1.3,1.1,2.3,1.5c-0.3,0.2-0.7,0.6-0.9,1.1c-0.9-0.4-2-1.4-2.5-2.1c-0.7-0.9-1.2-1.8-1.5-3.2
		C583.3,178.5,583.1,178.9,582.7,179.8z M583.3,182.1c-0.2-0.6-0.4-1.2-0.7-1.6l0.9-0.4c0.4,0.6,0.6,1,0.8,1.6L583.3,182.1z"/>
	<path style="fill:#030C1F;" d="M591.3,177.8c-0.4-0.3-1.2-0.9-1.7-1.2l0.4-0.7c0.5,0.3,1.3,0.8,1.7,1.1L591.3,177.8z M591.1,180.7
		c-0.2,0.8-0.3,1.3-0.4,2c-0.4-0.3-0.7-0.4-1.1-0.6c0.3-0.5,0.5-1.2,0.8-1.9c0.2-0.5,0.3-1.2,0.4-1.8c0.3,0.2,0.5,0.4,0.8,0.5
		C591.5,179.3,591.3,179.8,591.1,180.7z M591.7,175.2c-0.5-0.4-1.1-0.9-1.7-1.3l0.5-0.7c0.5,0.3,1.3,0.8,1.7,1.2L591.7,175.2z
		 M592,176.1v-0.8c0.3,0,0.8,0,1.3,0.1c0-1.5,0-2.2,0-2.5c0.3,0.1,0.8,0.1,1,0.1c0.1,0,0.2,0.1,0.1,0.2c-0.2,0.2-0.2,0.4-0.2,0.6
		v1.6c0.5,0,1.1,0,1.4-0.1v0.8c-0.3,0-0.8,0-1.4-0.1v1.6c0.5,0,0.8,0,1,0c0,0.2,0,0.4,0,0.8v1.8c0,0.5,0,0.7,0,1h-0.7v-0.6h-1.4v1.1
		h-0.8c0-0.5,0.1-0.9,0.1-1.4v-1.9c0-0.5,0-0.6,0-0.8c0.2,0,0.5,0,1.2,0V176C592.8,176,592.3,176.1,592,176.1z M594.3,178.3h-1.4
		v1.6h1.4V178.3z M596.7,179.2c-0.1,1.4-0.8,2.8-1.7,3.8c-0.3-0.2-0.7-0.4-1-0.4c1.1-0.9,1.9-2.4,1.9-4.3v-3.5c0-0.7,0-1.1,0-1.4
		c0.4,0,1,0,1.5,0c0.5,0,1.1,0,1.5,0c0,0.3,0,0.7,0,1.4v6.6c0,1-0.1,1.2-1.6,1.4c-0.1-0.3-0.2-0.7-0.4-1.1c1,0.1,1.2,0,1.2-0.7v-1.8
		H596.7z M598.1,176.1v-1.9h-1.4v1.9H598.1z M596.7,176.8v1.7h1.4v-1.7H596.7z"/>
	<path style="fill:#030C1F;" d="M602.1,180.6c-0.2,0.6-0.4,1.4-0.5,2c-0.4-0.3-0.7-0.4-1-0.6c0.3-0.5,0.5-1,0.7-1.7
		c0.2-0.6,0.4-1.2,0.5-1.9c0.3,0.3,0.5,0.4,0.9,0.5C602.5,179.4,602.3,179.8,602.1,180.6z M602.3,177.6c-0.4-0.4-1-0.7-1.7-1.1
		l0.5-0.8c0.5,0.3,1.2,0.7,1.7,1L602.3,177.6z M602.6,175.1c-0.4-0.4-1-0.8-1.5-1.2l0.6-0.8c0.6,0.4,1.1,0.8,1.5,1.1L602.6,175.1z
		 M606.9,174.3h-2.4c0.1,5.1-0.2,6.2-1.6,8.2c-0.2-0.3-0.4-0.5-0.6-0.6c1.3-1.6,1.4-3.5,1.3-8.4c0.4,0,0.8,0.1,3.3,0.1
		c2.5,0,3,0,3.3-0.1v0.9C609.8,174.3,609.3,174.3,606.9,174.3z M605.6,180.9c-0.3,0.4-0.5,0.9-0.9,1.4c-0.3-0.2-0.5-0.4-0.7-0.5
		c0.5-0.5,0.9-1.2,1.3-1.9c0.3,0.1,0.5,0.3,0.8,0.3c0.2,0.1,0.3,0.1,0,0.2C605.9,180.5,605.8,180.6,605.6,180.9z M606.8,174.3
		c0.4,0.2,0.7,0.3,1,0.4c0.2,0,0.2,0.1,0,0.2c-0.1,0.1-0.2,0.2-0.4,0.6c1.4,0,1.7,0,2.1,0c0,0.2,0,0.7,0,1.3v1.3c0,0.6,0,1,0,1.3
		c-0.3,0-0.6,0-1.9,0v2.6c0,0.7-0.1,0.8-1.6,1c0-0.4-0.1-0.6-0.3-1c0.9,0.1,1.1,0,1.1-0.6v-2.1c-1,0-1.4,0-1.7,0c0-0.3,0-0.8,0-1.3
		v-1.3c0-0.6,0-1.1,0-1.3c0.2,0,0.6,0,1.4,0C606.7,175,606.8,174.6,606.8,174.3z M608.7,176.1H606v0.9h2.6V176.1z M608.7,177.7H606
		v1h2.6V177.7z M609.4,182.1c-0.3-0.6-0.7-1.2-1.2-1.7l0.7-0.5c0.4,0.6,0.9,1.1,1.4,1.6L609.4,182.1z"/>
	<path style="fill:#030C1F;" d="M615.3,174.4v0.8c-0.3,0-0.8-0.1-2.1-0.1c-0.3,0.5-0.7,1.1-1.1,1.7c-0.1-0.4-0.2-0.6-0.4-0.8
		c0.6-0.6,1.3-2.1,1.6-3.2c0.3,0.2,0.5,0.3,0.8,0.3c0.3,0.1,0.3,0.2,0,0.4c-0.1,0.1-0.2,0.3-0.5,0.9
		C614.5,174.5,614.9,174.5,615.3,174.4z M611.7,179.2v-0.9c0.3,0,0.7,0.1,1.2,0.1v-1.3c-0.2,0-0.3,0-0.5,0.1v-0.9
		c0.3,0.1,0.6,0.1,1.2,0.1c0.6,0,1.2,0,1.5-0.1v0.9c-0.3,0-0.8-0.1-1.4-0.1v1.3c0.7,0,1.2,0,1.6-0.1v0.9c-0.4-0.1-0.9-0.1-1.6-0.1
		v2.1c0.4-0.3,0.7-0.5,1.1-0.9c0,0.4,0,0.7,0.1,0.8l-1.3,1.1c-0.2,0.2-0.4,0.3-0.5,0.5c-0.2-0.3-0.4-0.6-0.6-0.8
		c0.3-0.2,0.4-0.5,0.4-1.1v-1.7C612.5,179.1,612.1,179.2,611.7,179.2z M615.5,183c-0.1-0.3-0.3-0.5-0.6-0.6c0.8-0.2,1.5-0.6,2.2-1.3
		c0.2,0.2,0.5,0.5,0.6,0.5c0.2,0.1,0.1,0.2-0.1,0.2C617.5,181.8,616.6,182.3,615.5,183z M616.1,176.4c0-0.3,0-0.9-0.1-1.2
		c0.4,0,0.9,0.1,1.7,0.1c0-0.2,0-0.5,0-0.7c-1,0-1.7,0-2.3,0.1v-0.8c0.6,0.1,1.3,0.1,2.3,0.1c0-0.4,0-0.8-0.1-1
		c0.3,0.1,0.8,0.1,1,0.1c0.2,0,0.2,0.1,0.1,0.2c0,0-0.1,0.3-0.2,0.7c1.2,0,2,0,2.7-0.1v0.8c-0.7-0.1-1.5-0.1-2.8-0.1
		c0,0.2,0,0.5-0.1,0.7c1,0,1.7,0,2.1-0.1c0,0.2-0.1,0.8-0.1,1.2v3.9c0.4,0,0.7,0,0.9,0v0.7c-0.5-0.1-0.9-0.1-3-0.1
		c-2.1,0-2.5,0-3,0.1v-0.7c0.2,0,0.4,0,0.7,0V176.4z M619.8,175.8h-2.9v0.7h2.9V175.8z M616.9,177.7h2.9v-0.6h-2.9V177.7z
		 M616.9,179h2.9v-0.7h-2.9V179z M619.8,179.5h-2.9v0.7h2.9V179.5z M620.8,182.9c-0.7-0.5-1.3-0.9-2.1-1.3l0.5-0.6
		c0.7,0.3,1.5,0.7,2.1,1.1L620.8,182.9z"/>
</g>
<g>
	<path style="fill:#030C1F;" d="M716.5,210.7c-0.1-0.4-0.2-0.5-0.5-0.8c1.1-1.2,1.7-2.3,1.9-3.4c0.3,0.2,0.7,0.3,0.9,0.4
		c0.3,0.1,0.4,0.1,0.1,0.3c-0.1,0.1-0.4,0.5-0.7,1h0.7c0.5,0,0.9,0,1.2-0.1v0.8c-0.3,0-0.7-0.1-1.2-0.1h-1.1
		C717.3,209.6,716.9,210.2,716.5,210.7z M717.1,210.8V210c0.4,0,0.9,0,1.4,0c0.5,0,1,0,1.4-0.1v0.8c-0.3,0-0.8,0-1.3,0v1.4
		c0.4,0,0.9,0,1.2-0.1v0.8c-0.3,0-0.8-0.1-1.2-0.1v1.7l0.9-0.8c0,0.4,0.1,0.6,0.3,0.8c-1.2,0.9-1.8,1.4-2,1.8
		c-0.1-0.4-0.3-0.6-0.6-0.8c0.5-0.3,0.5-0.5,0.5-1.2v-1.4c-0.5,0-1,0-1.3,0.1v-0.8c0.3,0,0.8,0.1,1.3,0.1v-1.4
		C717.5,210.8,717.3,210.8,717.1,210.8z M722.2,206.4c0.4,0.1,0.8,0.2,1.1,0.2c0.1,0,0.2,0.1,0.1,0.2c-0.1,0.1-0.2,0.3-0.5,0.9
		c1.5,0,2,0,2.6-0.1c0,0.1-0.1,0.5-0.1,0.8v2.1c0,0.3,0,0.6,0.1,0.7c-0.5,0-0.9,0-2.1,0v0.9c0.8,0,1.7,0,2.3-0.1c0,0.2,0,0.4,0,0.7
		v2c0,0.7-0.3,0.8-1.4,1c0-0.4-0.1-0.6-0.4-1c0.9,0.1,1,0,1-0.4v-1.5h-1.4v1.7c0,0.6,0,1.3,0.1,2h-1c0.1-0.7,0.1-1.4,0.1-2v-1.7
		h-1.3v2.8h-0.9c0.1-0.6,0.1-1,0.1-1.4v-1.4c0-0.3,0-0.5,0-0.7c0.6,0,1.4,0.1,2.2,0.1v-0.9c-1,0-1.5,0-1.9,0c0-0.1,0-0.5,0-0.8v-2.1
		c0-0.3,0-0.6,0-0.8c0.3,0,0.7,0.1,1.5,0.1C722.1,207.2,722.2,206.8,722.2,206.4z M724.5,208.4h-3.1v0.8h3.1V208.4z M724.5,209.8
		h-3.1v0.8h3.1V209.8z"/>
	<path style="fill:#030C1F;" d="M728.1,210.5c-0.3,0-0.5,0-0.7,0.1v-1c0.3,0,0.4,0.1,0.7,0.1h1.8v-1.2c0-0.7,0-1.4-0.1-1.5
		c0.4,0,0.8,0.1,1.1,0c0.3,0,0.3,0.1,0.1,0.2c-0.1,0.1-0.2,0.2-0.2,0.4v7c0,0.6,0,1.2,0.1,1.8h-1.1c0.1-0.6,0.1-1.1,0.1-1.9
		c-0.9,0.4-1.7,0.8-2.2,1.1c-0.1-0.3-0.4-0.8-0.6-1.2c0.9-0.1,1.5-0.3,2.8-0.7v-3H728.1z M735.7,208.7c0.2,0.3,0.5,0.7,0.7,0.9
		c0.1,0.1,0.1,0.2-0.1,0.2c-0.2,0-1.5,0.7-3,1.6v3.1c0,0.5,0.2,0.6,1.1,0.6c1,0,1.2-0.1,1.3-1.6c0.5,0.4,0.8,0.6,1.1,0.6
		c-0.5,1.7-0.8,1.9-2.5,1.9c-1.8,0-2-0.2-2-1.3v-6.7c0-0.6,0-1.1-0.1-1.3c0.4,0,0.8,0,1.1,0c0.2,0,0.3,0.1,0.1,0.2
		c-0.1,0.1-0.2,0.2-0.2,0.3v3.2C734.5,209.8,735.2,209.3,735.7,208.7z"/>
	<path style="fill:#030C1F;" d="M740.2,216.5h-1c0.1-0.6,0.1-1.1,0.1-1.8v-3.1c-0.3,0.4-0.5,0.7-0.8,1c-0.2-0.3-0.4-0.5-0.6-0.6
		c0.5-0.4,1.2-1.1,1.5-1.8c0.3-0.4,0.4-0.9,0.6-1.3c0.3,0.2,0.7,0.5,0.9,0.5c0.2,0,0.2,0.1,0,0.2c-0.1,0-0.2,0.2-0.6,0.8V216.5z
		 M740.1,208c-0.4,0.6-0.9,1.1-1.4,1.6c-0.2-0.2-0.4-0.4-0.7-0.6c0.5-0.4,0.7-0.6,1.2-1.3c0.2-0.2,0.5-0.7,0.6-1.1
		c0.3,0.2,0.8,0.5,0.9,0.6c0.2,0.1,0.2,0.1,0,0.2C740.7,207.3,740.5,207.5,740.1,208z M745.2,213.7c-0.1,0.3-0.1,0.6,0,0.9
		c-1.2,0.1-3.5,0.6-4.4,0.8c0-0.4-0.1-0.7-0.2-1.1c0.4,0,1.2-0.1,1.9-0.2v-1.4c-0.7,0-1,0-1.4,0.1V212c0.5,0.1,0.8,0.1,1.4,0.1
		c0-0.4,0-0.8-0.1-1.1c0.3,0,0.7,0.1,1,0.1c0.1,0,0.2,0.1,0,0.2c-0.1,0.1-0.1,0.1-0.1,0.2v0.7c0.6,0,1,0,1.4-0.1v0.8
		c-0.5-0.1-0.8-0.1-1.4-0.1v1.3C744.1,213.9,744.9,213.8,745.2,213.7z M743.4,209.9c0.6,0,0.8,0,1.3-0.1v0.9
		c-0.5-0.1-0.7-0.1-1.7-0.1c-1.1,0-1.3,0-1.9,0.1v-0.9c0.5,0.1,0.7,0.1,1.5,0.1v-1.3c-0.6,0-0.9,0-1.3,0.1v-0.9
		c0.5,0.1,0.7,0.1,1.3,0.1c0-0.5,0-1.1-0.1-1.4c0.3,0,0.7,0.1,1,0.1c0.1,0,0.2,0.1,0,0.2c-0.1,0.1-0.1,0.1-0.1,0.2v0.9
		c0.7,0,1,0,1.4-0.1v0.9c-0.5-0.1-0.7-0.1-1.4-0.1V209.9z M746.9,215.3c0,0.9,0,1-1.7,1.2c0-0.3-0.1-0.5-0.4-1.1
		c1.1,0,1.2,0,1.2-0.5v-4.4c-0.5,0-0.7,0-1,0.1v-0.9c0.4,0.1,0.7,0.1,1.5,0.1c0.8,0,1,0,1.5-0.1v0.9c-0.4-0.1-0.6-0.1-1.1-0.1V215.3
		z M746.3,208.1c-0.5,0-0.9,0-1.3,0.1v-0.9c0.4,0.1,0.6,0.1,1.3,0.1c0.7,0,0.9,0,1.3-0.1v0.9C747.2,208.1,747,208.1,746.3,208.1z"/>
	<path style="fill:#030C1F;" d="M752.1,215c1.2,0.5,4.2,0.6,6.9,0.2c-0.2,0.5-0.3,0.8-0.3,1.2c-4.3,0.1-5.2,0-7.4-0.9
		c-0.6-0.2-0.9,0-1.4,0.9c-0.2-0.2-0.5-0.5-0.9-0.7c0.6-0.5,1-0.9,1.3-1v-3.4c-0.6,0-1,0-1.2,0.1v-0.9c0.7,0.1,1.6,0.1,2.3,0
		c-0.1,0.4-0.1,0.7-0.1,1.3v2.9C751.5,214.7,751.7,214.8,752.1,215z M750.4,209.5c-0.1-0.8-0.4-1.5-0.6-2.1l0.9-0.3
		c0.2,0.7,0.4,1.4,0.7,2.1L750.4,209.5z M757.9,209.6c0,0.4-0.1,0.8-0.1,1.2v2.7c0,0.5,0,1,0.1,1.6H757v-0.4h-3.3v0.5h-0.9
		c0.1-0.5,0.1-0.9,0.1-1.6v-2.7c0-0.4,0-0.8-0.1-1.2c0.4,0,1,0.1,1.8,0.1c0.1-0.2,0.2-0.5,0.2-0.8c-1.3,0-2.1,0-2.9,0.1V208
		c0.9,0.1,2.1,0.1,3.8,0.1c0.2-0.5,0.4-0.9,0.5-1.5c0.3,0.2,0.7,0.3,1.1,0.4c0.1,0,0.1,0.1,0,0.1c-0.2,0.1-0.4,0.3-0.9,1.1
		c1,0,1.7,0,2.3-0.1v0.9c-0.8-0.1-1.7-0.1-3-0.1c-0.1,0.3-0.2,0.6-0.3,0.9C756.5,209.7,757.5,209.6,757.9,209.6z M754.2,208.1
		c-0.2-0.3-0.5-0.6-0.8-0.9l0.8-0.5c0.3,0.3,0.6,0.7,0.7,0.9L754.2,208.1z M757,210.3h-3.3v0.7h3.3V210.3z M753.7,212.5h3.3v-0.8
		h-3.3V212.5z M757,213.1h-3.3v0.8h3.3V213.1z"/>
</g>
<g>
	<path style="fill:#030C1F;" d="M680.6,238.7c-0.1-0.4-0.2-0.5-0.5-0.8c1.1-1.2,1.7-2.3,1.9-3.4c0.3,0.2,0.7,0.3,0.9,0.4
		c0.3,0.1,0.4,0.1,0.1,0.3c-0.1,0.1-0.4,0.5-0.7,1h0.7c0.5,0,0.9,0,1.2-0.1v0.8c-0.3,0-0.7-0.1-1.2-0.1h-1.1
		C681.5,237.6,681,238.2,680.6,238.7z M681.2,238.8V238c0.4,0,0.9,0,1.4,0c0.5,0,1,0,1.4-0.1v0.8c-0.3,0-0.8,0-1.3,0v1.4
		c0.4,0,0.9,0,1.2-0.1v0.8c-0.3,0-0.8-0.1-1.2-0.1v1.7l0.9-0.8c0,0.4,0.1,0.6,0.3,0.8c-1.2,0.9-1.8,1.4-2,1.8
		c-0.1-0.4-0.3-0.6-0.6-0.8c0.5-0.3,0.5-0.5,0.5-1.2v-1.4c-0.5,0-1,0-1.3,0.1v-0.8c0.3,0,0.8,0.1,1.3,0.1v-1.4
		C681.6,238.8,681.4,238.8,681.2,238.8z M686.3,234.4c0.4,0.1,0.8,0.2,1.1,0.2c0.1,0,0.2,0.1,0.1,0.2c-0.1,0.1-0.2,0.3-0.5,0.9
		c1.5,0,2,0,2.6-0.1c0,0.1-0.1,0.5-0.1,0.8v2.1c0,0.3,0,0.6,0.1,0.7c-0.5,0-0.9,0-2.1,0v0.9c0.8,0,1.7,0,2.3-0.1c0,0.2,0,0.4,0,0.7
		v2c0,0.7-0.3,0.8-1.4,1c0-0.4-0.1-0.6-0.4-1c0.9,0.1,1,0,1-0.4v-1.5h-1.4v1.7c0,0.6,0,1.3,0.1,2h-1c0.1-0.7,0.1-1.4,0.1-2v-1.7
		h-1.3v2.8h-0.9c0.1-0.6,0.1-1,0.1-1.4v-1.4c0-0.3,0-0.5,0-0.7c0.6,0,1.4,0.1,2.2,0.1v-0.9c-1,0-1.5,0-1.9,0c0-0.1,0-0.5,0-0.8v-2.1
		c0-0.3,0-0.6,0-0.8c0.3,0,0.7,0.1,1.5,0.1C686.2,235.2,686.3,234.8,686.3,234.4z M688.6,236.4h-3.1v0.8h3.1V236.4z M688.6,237.8
		h-3.1v0.8h3.1V237.8z"/>
	<path style="fill:#030C1F;" d="M694,241.2c-0.1,0.4-0.1,0.7-0.1,0.9c-1.8,0.6-2.3,0.8-2.6,1c-0.1-0.4-0.2-0.8-0.4-1.1
		c0.3,0,0.7-0.1,1.2-0.2v-3.3c-0.5,0-0.8,0-1.1,0.1v-0.9c0.2,0,0.5,0.1,1.1,0.1c0-1.9,0-2.2-0.1-2.8c0.5,0.1,0.7,0.1,1.1,0.1
		c0.2,0,0.2,0.1,0,0.2c-0.2,0.1-0.2,0.5-0.2,0.9v1.6c0.5,0,0.7,0,0.9-0.1v0.9c-0.2,0-0.5-0.1-0.9-0.1v3.1
		C693.3,241.4,693.6,241.3,694,241.2z M695.2,237.2v1.4c0.7,0,1.5,0,1.9,0c-0.1,0.3-0.1,0.8-0.1,1v1.4c0,1.6-0.1,1.7-1.4,2
		c-0.1-0.4-0.2-0.6-0.4-1c0.9,0,1,0,1-1.2v-1.5h-1c0,2.6-0.3,3.8-1.5,5.1c-0.3-0.2-0.4-0.3-0.9-0.5c1.2-1,1.5-1.6,1.6-3.5
		c0-1,0-2.5-0.1-4.1c0.6,0.1,1.7,0.1,3,0.1c-0.1-0.8-0.1-1.5-0.2-2c0.3,0.1,0.7,0.1,1,0.1s0.3,0,0.1,0.3c-0.1,0.1-0.1,0.8-0.1,1.6
		c1.2,0,1.8-0.1,2.4-0.1v1c-0.6-0.1-1.2-0.1-2.4-0.1c0.1,1.7,0.3,3.2,0.6,4.1c0.4-0.8,0.6-2.1,0.6-3.2c0.3,0.1,0.7,0.2,1,0.2
		c0.2,0,0.2,0.1,0.1,0.2c-0.1,0.1-0.2,0.3-0.4,1.3c-0.2,1-0.4,1.7-0.8,2.3c0.8,1.3,1.1,1.2,1.1,0c0.3,0.3,0.6,0.5,0.9,0.6
		c-0.4,1.4-0.7,1.6-0.9,1.6c-0.3,0-1-0.6-1.5-1.5c-0.4,0.5-1,1-1.7,1.6c-0.1-0.2-0.5-0.5-0.9-0.6c0.8-0.4,1.5-1,2.2-1.8
		c-0.4-1-0.7-2.2-0.9-4.9H695.2z M699.3,236.2c-0.1-0.3-0.2-0.6-0.5-1.1l0.8-0.4c0.2,0.3,0.4,0.7,0.6,1L699.3,236.2z"/>
	<path style="fill:#030C1F;" d="M704.3,244.5h-1c0.1-0.6,0.1-1.1,0.1-1.8v-3.1c-0.3,0.4-0.5,0.7-0.8,1c-0.2-0.3-0.4-0.5-0.6-0.6
		c0.5-0.4,1.2-1.1,1.5-1.8c0.3-0.4,0.4-0.9,0.6-1.3c0.3,0.2,0.7,0.5,0.9,0.5c0.2,0,0.2,0.1,0,0.2c-0.1,0-0.2,0.2-0.6,0.8V244.5z
		 M704.3,236c-0.4,0.6-0.9,1.1-1.4,1.6c-0.2-0.2-0.4-0.4-0.7-0.6c0.5-0.4,0.7-0.6,1.2-1.3c0.2-0.2,0.5-0.7,0.6-1.1
		c0.3,0.2,0.8,0.5,0.9,0.6c0.2,0.1,0.2,0.1,0,0.2C704.8,235.3,704.7,235.5,704.3,236z M709.3,241.7c-0.1,0.3-0.1,0.6,0,0.9
		c-1.2,0.1-3.5,0.6-4.4,0.8c0-0.4-0.1-0.7-0.2-1.1c0.4,0,1.2-0.1,1.9-0.2v-1.4c-0.7,0-1,0-1.4,0.1V240c0.5,0.1,0.8,0.1,1.4,0.1
		c0-0.4,0-0.8-0.1-1.1c0.3,0,0.7,0.1,1,0.1c0.1,0,0.2,0.1,0,0.2c-0.1,0.1-0.1,0.1-0.1,0.2v0.7c0.6,0,1,0,1.4-0.1v0.8
		c-0.5-0.1-0.8-0.1-1.4-0.1v1.3C708.2,241.9,709,241.8,709.3,241.7z M707.5,238c0.6,0,0.8,0,1.3-0.1v0.9c-0.5-0.1-0.7-0.1-1.7-0.1
		c-1.1,0-1.3,0-1.9,0.1v-0.9c0.5,0.1,0.7,0.1,1.5,0.1v-1.3c-0.6,0-0.9,0-1.3,0.1v-0.9c0.5,0.1,0.7,0.1,1.3,0.1c0-0.5,0-1.1-0.1-1.4
		c0.3,0,0.7,0.1,1,0.1c0.1,0,0.2,0.1,0,0.2c-0.1,0.1-0.1,0.1-0.1,0.2v0.9c0.7,0,1,0,1.4-0.1v0.9c-0.5-0.1-0.7-0.1-1.4-0.1V238z
		 M711.1,243.3c0,0.9,0,1-1.7,1.2c0-0.3-0.1-0.5-0.4-1.1c1.1,0,1.2,0,1.2-0.5v-4.4c-0.5,0-0.7,0-1,0.1v-0.9c0.4,0.1,0.7,0.1,1.5,0.1
		c0.8,0,1,0,1.5-0.1v0.9c-0.4-0.1-0.6-0.1-1.1-0.1V243.3z M710.5,236.1c-0.5,0-0.9,0-1.3,0.1v-0.9c0.4,0.1,0.6,0.1,1.3,0.1
		c0.7,0,0.9,0,1.3-0.1v0.9C711.3,236.1,711.1,236.1,710.5,236.1z"/>
	<path style="fill:#030C1F;" d="M716.2,243c1.2,0.5,4.2,0.6,6.9,0.2c-0.2,0.5-0.3,0.8-0.3,1.2c-4.3,0.1-5.2,0-7.4-0.9
		c-0.6-0.2-0.9,0-1.4,0.9c-0.2-0.2-0.5-0.5-0.9-0.7c0.6-0.5,1-0.9,1.3-1v-3.4c-0.6,0-1,0-1.2,0.1v-0.9c0.7,0.1,1.6,0.1,2.3,0
		c-0.1,0.4-0.1,0.7-0.1,1.3v2.9C715.6,242.7,715.8,242.8,716.2,243z M714.5,237.5c-0.1-0.8-0.4-1.5-0.6-2.1l0.9-0.3
		c0.2,0.7,0.4,1.4,0.7,2.1L714.5,237.5z M722,237.6c0,0.4-0.1,0.8-0.1,1.2v2.7c0,0.5,0,1,0.1,1.6h-0.9v-0.4h-3.3v0.5h-0.9
		c0.1-0.5,0.1-0.9,0.1-1.6v-2.7c0-0.4,0-0.8-0.1-1.2c0.4,0,1,0.1,1.8,0.1c0.1-0.2,0.2-0.5,0.2-0.8c-1.3,0-2.1,0-2.9,0.1V236
		c0.9,0.1,2.1,0.1,3.8,0.1c0.2-0.5,0.4-0.9,0.5-1.5c0.3,0.2,0.7,0.3,1.1,0.4c0.1,0,0.1,0.1,0,0.1c-0.2,0.1-0.4,0.3-0.9,1.1
		c1,0,1.7,0,2.3-0.1v0.9c-0.8-0.1-1.7-0.1-3-0.1c-0.1,0.3-0.2,0.6-0.3,0.9C720.6,237.7,721.6,237.6,722,237.6z M718.3,236.1
		c-0.2-0.3-0.5-0.6-0.8-0.9l0.8-0.5c0.3,0.3,0.6,0.7,0.7,0.9L718.3,236.1z M721.1,238.3h-3.3v0.7h3.3V238.3z M717.8,240.5h3.3v-0.8
		h-3.3V240.5z M721.1,241.1h-3.3v0.8h3.3V241.1z"/>
</g>
<g>
	<path style="fill:#030C1F;" d="M696.1,299.5c-0.1-0.4-0.2-0.5-0.5-0.8c1.1-1.2,1.7-2.3,1.9-3.4c0.3,0.2,0.7,0.3,0.9,0.4
		c0.3,0.1,0.4,0.1,0.1,0.3c-0.1,0.1-0.4,0.5-0.7,1h0.7c0.5,0,0.9,0,1.2-0.1v0.8c-0.3,0-0.7-0.1-1.2-0.1h-1.1
		C696.9,298.4,696.5,299,696.1,299.5z M696.6,299.6v-0.8c0.4,0,0.9,0,1.4,0c0.5,0,1,0,1.4-0.1v0.8c-0.3,0-0.8,0-1.3,0v1.4
		c0.4,0,0.9,0,1.2-0.1v0.8c-0.3,0-0.8-0.1-1.2-0.1v1.7l0.9-0.8c0,0.4,0.1,0.6,0.3,0.8c-1.2,0.9-1.8,1.4-2,1.8
		c-0.1-0.4-0.3-0.6-0.6-0.8c0.5-0.3,0.5-0.5,0.5-1.2v-1.4c-0.5,0-1,0-1.3,0.1v-0.8c0.3,0,0.8,0.1,1.3,0.1v-1.4
		C697.1,299.6,696.9,299.6,696.6,299.6z M701.8,295.3c0.4,0.1,0.8,0.2,1.1,0.2c0.1,0,0.2,0.1,0.1,0.2c-0.1,0.1-0.2,0.3-0.5,0.9
		c1.5,0,2,0,2.6-0.1c0,0.1-0.1,0.5-0.1,0.8v2.1c0,0.3,0,0.6,0.1,0.7c-0.5,0-0.9,0-2.1,0v0.9c0.8,0,1.7,0,2.3-0.1c0,0.2,0,0.4,0,0.7
		v2c0,0.7-0.3,0.8-1.4,1c0-0.4-0.1-0.6-0.4-1c0.9,0.1,1,0,1-0.4v-1.5h-1.4v1.7c0,0.6,0,1.3,0.1,2h-1c0.1-0.7,0.1-1.4,0.1-2v-1.7
		h-1.3v2.8h-0.9c0.1-0.6,0.1-1,0.1-1.4v-1.4c0-0.3,0-0.5,0-0.7c0.6,0,1.4,0.1,2.2,0.1v-0.9c-1,0-1.5,0-1.9,0c0-0.1,0-0.5,0-0.8v-2.1
		c0-0.3,0-0.6,0-0.8c0.3,0,0.7,0.1,1.5,0.1C701.7,296.1,701.7,295.6,701.8,295.3z M704.1,297.2H701v0.8h3.1V297.2z M704.1,298.7H701
		v0.8h3.1V298.7z"/>
	<path style="fill:#030C1F;" d="M716.3,296.4v1c-1.1-0.1-2.5-0.1-4.4-0.1c0,0.3-0.1,0.7-0.1,1.1c2.8,0,3.5-0.1,3.9-0.1
		c-0.1,0.5-0.1,0.9-0.1,1.6v4.2c0,0.9-0.1,1.1-1.9,1.3c0-0.3-0.1-0.9-0.3-1.2c1,0.1,1.3,0,1.3-0.4v-4.7h-6.3v6.1h-1
		c0.1-0.7,0.1-1.2,0.1-1.5v-3.8c0-0.7,0-1.3-0.1-1.6c0.5,0.1,1.2,0.1,3.5,0.1c0-0.4,0.1-0.8,0.1-1.1c-1.8,0-3.1,0-4.1,0.1v-1
		c1,0.1,2.3,0.1,4.2,0.1c0-0.4,0-0.8-0.1-1.1c0.5,0.1,1,0.1,1.3,0.1c0.2,0,0.2,0.1,0,0.2c-0.1,0-0.1,0.2-0.2,0.8
		C713.9,296.5,715.3,296.4,716.3,296.4z M714.1,302.3v0.9c-0.6,0-1.2-0.1-2.2-0.1c0,0.6,0,1.2,0.1,1.9h-1c0.1-0.7,0.1-1.3,0.1-1.9
		c-0.9,0-1.5,0-2,0.1v-0.9c0.5,0,1.1,0.1,2,0.1v-0.9c-0.8,0-1.3,0-1.8,0.1v-0.8c0.6,0,1.5,0.1,2.7,0.1c0.3-0.6,0.4-1.1,0.4-1.7
		c0.4,0.2,0.8,0.4,1,0.4c0.2,0,0.2,0.1,0,0.2c-0.1,0.1-0.2,0.2-0.6,1.1c0.5,0,0.9,0,1.2-0.1v0.8c-0.5-0.1-1.2-0.1-2.1-0.1v0.9
		C712.9,302.4,713.5,302.3,714.1,302.3z M710.3,300.6c-0.1-0.4-0.3-0.7-0.5-1l0.9-0.3c0.1,0.3,0.3,0.6,0.5,1L710.3,300.6z"/>
	<path style="fill:#030C1F;" d="M719.8,305.4h-1c0.1-0.6,0.1-1.1,0.1-1.8v-3.1c-0.3,0.4-0.5,0.7-0.8,1c-0.2-0.3-0.4-0.5-0.6-0.6
		c0.5-0.4,1.2-1.1,1.5-1.8c0.3-0.4,0.4-0.9,0.6-1.3c0.3,0.2,0.7,0.5,0.9,0.5c0.2,0,0.2,0.1,0,0.2c-0.1,0-0.2,0.2-0.6,0.8V305.4z
		 M719.7,296.8c-0.4,0.6-0.9,1.1-1.4,1.6c-0.2-0.2-0.4-0.4-0.7-0.6c0.5-0.4,0.7-0.6,1.2-1.3c0.2-0.2,0.5-0.7,0.6-1.1
		c0.3,0.2,0.8,0.5,0.9,0.6c0.2,0.1,0.2,0.1,0,0.2C720.3,296.2,720.1,296.3,719.7,296.8z M724.8,302.5c-0.1,0.3-0.1,0.6,0,0.9
		c-1.2,0.1-3.5,0.6-4.4,0.8c0-0.4-0.1-0.7-0.2-1.1c0.4,0,1.2-0.1,1.9-0.2v-1.4c-0.7,0-1,0-1.4,0.1v-0.8c0.5,0.1,0.8,0.1,1.4,0.1
		c0-0.4,0-0.8-0.1-1.1c0.3,0,0.7,0.1,1,0.1c0.1,0,0.2,0.1,0,0.2c-0.1,0.1-0.1,0.1-0.1,0.2v0.7c0.6,0,1,0,1.4-0.1v0.8
		c-0.5-0.1-0.8-0.1-1.4-0.1v1.3C723.7,302.8,724.5,302.6,724.8,302.5z M722.9,298.8c0.6,0,0.8,0,1.3-0.1v0.9
		c-0.5-0.1-0.7-0.1-1.7-0.1c-1.1,0-1.3,0-1.9,0.1v-0.9c0.5,0.1,0.7,0.1,1.5,0.1v-1.3c-0.6,0-0.9,0-1.3,0.1v-0.9
		c0.5,0.1,0.7,0.1,1.3,0.1c0-0.5,0-1.1-0.1-1.4c0.3,0,0.7,0.1,1,0.1c0.1,0,0.2,0.1,0,0.2c-0.1,0.1-0.1,0.1-0.1,0.2v0.9
		c0.7,0,1,0,1.4-0.1v0.9c-0.5-0.1-0.7-0.1-1.4-0.1V298.8z M726.5,304.2c0,0.9,0,1-1.7,1.2c0-0.3-0.1-0.5-0.4-1.1
		c1.1,0,1.2,0,1.2-0.5v-4.4c-0.5,0-0.7,0-1,0.1v-0.9c0.4,0.1,0.7,0.1,1.5,0.1c0.8,0,1,0,1.5-0.1v0.9c-0.4-0.1-0.6-0.1-1.1-0.1V304.2
		z M725.9,296.9c-0.5,0-0.9,0-1.3,0.1v-0.9c0.4,0.1,0.6,0.1,1.3,0.1c0.7,0,0.9,0,1.3-0.1v0.9C726.8,296.9,726.5,296.9,725.9,296.9z"
		/>
	<path style="fill:#030C1F;" d="M731.7,303.8c1.2,0.5,4.2,0.6,6.9,0.2c-0.2,0.5-0.3,0.8-0.3,1.2c-4.3,0.1-5.2,0-7.4-0.9
		c-0.6-0.2-0.9,0-1.4,0.9c-0.2-0.2-0.5-0.5-0.9-0.7c0.6-0.5,1-0.9,1.3-1v-3.4c-0.6,0-1,0-1.2,0.1v-0.9c0.7,0.1,1.6,0.1,2.3,0
		c-0.1,0.4-0.1,0.7-0.1,1.3v2.9C731,303.6,731.3,303.7,731.7,303.8z M729.9,298.3c-0.1-0.8-0.4-1.5-0.6-2.1l0.9-0.3
		c0.2,0.7,0.4,1.4,0.7,2.1L729.9,298.3z M737.5,298.4c0,0.4-0.1,0.8-0.1,1.2v2.7c0,0.5,0,1,0.1,1.6h-0.9v-0.4h-3.3v0.5h-0.9
		c0.1-0.5,0.1-0.9,0.1-1.6v-2.7c0-0.4,0-0.8-0.1-1.2c0.4,0,1,0.1,1.8,0.1c0.1-0.2,0.2-0.5,0.2-0.8c-1.3,0-2.1,0-2.9,0.1v-0.9
		c0.9,0.1,2.1,0.1,3.8,0.1c0.2-0.5,0.4-0.9,0.5-1.5c0.3,0.2,0.7,0.3,1.1,0.4c0.1,0,0.1,0.1,0,0.1c-0.2,0.1-0.4,0.3-0.9,1.1
		c1,0,1.7,0,2.3-0.1v0.9c-0.8-0.1-1.7-0.1-3-0.1c-0.1,0.3-0.2,0.6-0.3,0.9C736.1,298.5,737,298.5,737.5,298.4z M733.7,296.9
		c-0.2-0.3-0.5-0.6-0.8-0.9l0.8-0.5c0.3,0.3,0.6,0.7,0.7,0.9L733.7,296.9z M736.5,299.2h-3.3v0.7h3.3V299.2z M733.3,301.3h3.3v-0.8
		h-3.3V301.3z M736.5,301.9h-3.3v0.8h3.3V301.9z"/>
</g>
</svg>
