<?xml version="1.0" encoding="utf-8"?>
<!-- Generator: Adobe Illustrator 17.0.0, SVG Export Plug-In . SVG Version: 6.00 Build 0)  -->
<!DOCTYPE svg PUBLIC "-//W3C//DTD SVG 1.1//EN" "http://www.w3.org/Graphics/SVG/1.1/DTD/svg11.dtd">
<svg version="1.1" id="图层_1" xmlns="http://www.w3.org/2000/svg" xmlns:xlink="http://www.w3.org/1999/xlink" x="0px" y="0px"
	 width="24px" height="24px" viewBox="0 0 24 24" style="enable-background:new 0 0 24 24;" xml:space="preserve">
<g>
	<path style="fill:#FF3000;" d="M22.3,22.6H1.7c-0.6,0-1.1-0.3-1.4-0.8c-0.3-0.5-0.3-1.1,0-1.7L10.6,2.2c0.3-0.5,0.8-0.8,1.4-0.8
		s1.1,0.3,1.4,0.8l10.3,17.9c0.3,0.5,0.3,1.1,0,1.7C23.5,22.3,22.9,22.6,22.3,22.6z M12,2.4c-0.1,0-0.4,0-0.6,0.3L1.1,20.6
		c-0.2,0.3-0.1,0.6,0,0.7c0.1,0.2,0.3,0.3,0.6,0.3h20.7c0.2,0,0.5-0.1,0.6-0.3c0.1-0.1,0.2-0.4,0-0.7L12.6,2.7
		C12.4,2.4,12.1,2.4,12,2.4z"/>
</g>
<g>
	<path style="fill:#FF3000;" d="M9.7,18.6c0-0.7,0.5-1.2,1.2-1.2c0.7,0,1.2,0.5,1.2,1.2c0,0.7-0.5,1.2-1.2,1.2
		C10.1,19.8,9.7,19.3,9.7,18.6z M11.6,16h-1.4L9.9,7.4h2L11.6,16z"/>
</g>
</svg>
