<?xml version="1.0" encoding="utf-8"?>
<!-- Generator: Adobe Illustrator 17.0.0, SVG Export Plug-In . SVG Version: 6.00 Build 0)  -->
<!DOCTYPE svg PUBLIC "-//W3C//DTD SVG 1.1//EN" "http://www.w3.org/Graphics/SVG/1.1/DTD/svg11.dtd">
<svg version="1.1" id="图层_1" xmlns="http://www.w3.org/2000/svg" xmlns:xlink="http://www.w3.org/1999/xlink" x="0px" y="0px"
	 width="26px" height="26px" viewBox="0 0 26 26" style="enable-background:new 0 0 26 26;" xml:space="preserve">
<path style="fill:#c2c3cc;" d="M13,0C5.8,0,0,5.8,0,13c0,7.2,5.8,13,13,13c7.2,0,13-5.8,13-13C26,5.8,20.2,0,13,0z M15,18.6H8.1V17
	h6.8c2.4,0,3.6-1,3.6-3c0-1.9-1.2-2.9-3.5-2.9h-2.9v2.2l-5.9-3l5.9-3v2.2h2.7c3.4,0,5.1,1.5,5.1,4.6C19.8,17.1,18.2,18.6,15,18.6z"
	/>
<path d="M14.8,9.6"/>
</svg>
