<svg id="组_1" data-name="组 1" xmlns="http://www.w3.org/2000/svg" xmlns:xlink="http://www.w3.org/1999/xlink" width="830" height="767" viewBox="0 0 830 767" preserveAspectRatio="none">
  <defs>
    <style>
      .cls-1 {
        fill: none;
        fill-opacity: 0.64;
        stroke: #92fee6;
        stroke-linejoin: round;
        stroke-width: 3px;
        fill-rule: evenodd;
      }

      .cls-2 {
        font-size: 28px;
        fill: #fff;
        font-family: SourceHanSansCN;
        font-weight: 700;
      }
    </style>
  </defs>
  <path id="形状_3" data-name="形状 3" class="cls-1" d="M939,377l119,23s-16.11,74.517-8,105c0,0,11.88,108.738,9,117,0,0-24.26,23.119-98,36,0,0-29.73,10.278-30,19l-16-14-53-54,24-24s25.976-65.9,26-81c0,0,3.649-11.723,4-34,0,0,4.484-28.792,5-27,0,0,1.621-15.084,4-19l3-24S927.274,384.538,939,377Z" transform="translate(-434 -227)"/>
  <path id="形状_4" data-name="形状 4" class="cls-1" d="M1060,399s-3.99,5.309,89,10l46,1a333.756,333.756,0,0,1,18,58s5.85,19.158,11,24c0,0,9.42,11.843,6,26,0,0,2.83,22.055,5,47,0,0-166.84,46.677-174,57,0,0-3.47-55.078-4-59s-4-43-4-43l-3-25s-1.32-59.083,4-60C1054,435,1057.59,397.246,1060,399Z" transform="translate(-434 -227)"/>
  <path id="形状_5" data-name="形状 5" class="cls-1" d="M867,261s27.334,102.8,30,113c0,0,21.1,2.147,43,2,0,0,17.761,2.572,30,5,0,0,35.28,6.8,42,8,0,0,25.37,4.821,30,7,0,0,15.41,2.419,17,2s4.42,4.645,35,6c0,0,94.28,6.446,102,4l-1-25s-2.71-21.119-26-24c0,0-43.37-28.228-43-32,0,0-19.72-11.324-69-7,0,0-52.59,4.327-55,6,0,0-22.013,4.015-28-20,0,0-35.509-44.955-54-48S900.73,256.934,867,261Z" transform="translate(-434 -227)"/>
  <path id="形状_6" data-name="形状 6" class="cls-1" d="M545,375l17,11s16.971,7.794,31-1c0,0,24.921,27.7,30,38,0,0-5.232,5.7,19-2l35,58,1,1,82-40,87-45s47.763-21.324,49-21l-1-2s-28.4-109.222-30-111-32.518,2.044-36,6c0,0-20.432,6.5-34,6,0,0-23.87,6.047-58,25l-18,7-48,21s-38.584,12.821-40,12-41.223,16.642-41,14-35.382,15.551-39,12S549.349,373.26,545,375Z" transform="translate(-434 -227)"/>
  <path id="形状_7" data-name="形状 7" class="cls-1" d="M495,389s15.676,19.631-4,42c0,0-.645,22.168-25,42,0,0-19.844,10.606,12,43,0,0,21,38.241,22,41s16.866-2.173,79-30l98-46s-31.484-51.008-35-58c0,0,2.647-2.835-12,3,0,0-10,1.923-8-3l-10-13-19-23s-7.777,5.724-24,3c0,0-8.108-1.624-9-4l-16-10s-18.388,6.606-31,7S497.971,384.841,495,389Z" transform="translate(-434 -227)"/>
  <path id="形状_2" data-name="形状 2" class="cls-1" d="M502,558s-4.3,32.083,86,69l2-2s32.011-3.929,47-9,62.36-20.72,104-47l8,4h2l46-28,64,63,24-24s31.483-74.922,29-110c0,0,8-50.933,10-51s-0.66-46.19,15-45l-43-2-45,19-95,49S512.258,565.542,502,558Z" transform="translate(-434 -227)"/>
  <path id="形状_1" data-name="形状 1" class="cls-1" d="M589,627s70.578-6.465,152-56l9,4,47-28L931,680l30,56s3.566,13.01-30,24c0,0-8.137,6.921-2,28,0,0,2.6,13.651-16,27,0,0-24.708,22.621,2,62,0,0,11.492,10.943-35,21l-41,17s-63.543,28.738-70-41c0,0-3.092-24.072-35-18,0,0-11.56-8.846-34,10,0,0-10.233,8.381-47-35,0,0-17.772-25.627-61-31,0,0-23.458-8.218-34-23,0,0-9.949-3.583,11-44,0,0,.466-16.984,44-16,0,0,29.582-9.831-9-18,0,0-23.755-11.1,3-30C607,669,653.832,641.015,589,627Z" transform="translate(-434 -227)"/>
  <text id="十里亭社区" class="cls-2" x="275.404" y="518.187">十里亭社区</text>
  <text id="丽庆社区" class="cls-2" x="275.404" y="285.187">丽庆社区</text>
  <text id="西屿社区" class="cls-2" x="75.403" y="245.187">西屿社区</text>
  <text id="吴桥社区" class="cls-2" x="265.404" y="145.186">吴桥社区</text>
  <text id="滨河社区" class="cls-2" x="545.404" y="137.187">滨河社区</text>
  <text id="东龙社区" class="cls-2" x="634.403" y="267.186">东龙社区</text>
  <text id="三板桥社区" class="cls-2" x="471.403" y="329.187">三板桥社区</text>
</svg>
