<svg id="地图" xmlns="http://www.w3.org/2000/svg" width="748" height="536" viewBox="0 0 748 536" preserveAspectRatio="none">
  <defs>
    <style>
      .cls-1 {
        fill: #0146ae;
        fill-opacity: 0.3;
        stroke: #0146ae;
        stroke-linejoin: round;
        stroke-width: 2px;
        fill-rule: evenodd;
      }

      .cls-2 {
        font-size: 18.947px;
        opacity: 0.6;
        fill: #fff;
        font-family: "Source Han Sans CN";
      }
    </style>
  </defs>
  <g id="组_9" data-name="组 9">
    <g id="组_48" data-name="组 48">
      <path id="形状_6" data-name="形状 6" class="cls-1" d="M732.626,614.231l16.045,5.911,5.911,3.378,3.378,1.689v-2.534l-0.845-5.066s-2.1-4.412-1.688-5.067,0.844-5.067.844-5.067,0.275-5.408,0-5.911-1.377-4.61-1.689-5.067,0.312-3.124,0-4.222,1.1-5.824,0-6.756-2.534-5.066-2.534-5.066l0.845-5.911-3.378-10.134s-1.543-3.679-1.689-4.222a16.9,16.9,0,0,0-1.688-2.534s0.032-2.919,0-6.755a69.215,69.215,0,0,1,.844-9.289,19.807,19.807,0,0,1,0-5.912c0.535-2.442,2.492-8.291,2.533-9.289s1.925-7.419,1.689-8.444-1.689-9.289-1.689-9.289a54.331,54.331,0,0,0,0-6.756c-0.272-1.454,0-38,0-38l4.222-5.911,4.223-6.756s2.764-1.25,3.377-2.534,2.534-5.911,2.534-5.911l0.845-5.911s-0.808-4.67-.845-5.067a30.422,30.422,0,0,1,.845-3.377l-4.223-3.378H757.96a14.533,14.533,0,0,0-.845-2.534c-0.341-.521-1.227-1.721,0-2.533a17.569,17.569,0,0,1,2.534-1.689,16.329,16.329,0,0,0,2.533-1.689l1.689-1.689s-0.083-2.538-.844-3.378-2.534-2.533-2.534-2.533l-3.378-.844h-1.688l-1.69-3.378-1.689-2.533,1.689-4.223s0.379-5.2.845-5.911a40.5,40.5,0,0,0,1.689-4.222l0.844-.845-1.688-3.378-0.845-1.688,2.533-.845-0.844-3.378-3.378-.844-3.378,1.689s1.925-2.922,1.689-3.378a8.942,8.942,0,0,1,0-2.533l1.689-1.689,2.534-.845a13.93,13.93,0,0,1-.845-2.533c0-.544-1.49-2.723-1.689-4.223s-1.8-2.866-.845-4.222a13.537,13.537,0,0,1,2.534-2.533,26.206,26.206,0,0,1,0-5.067c0.309-1.6,1.689-5.911,1.689-5.911l3.378-2.533,5.911,1.688,2.533,2.534h1.689l-2.533-5.911-2.533-3.378s-0.254-1.8.844-1.689a47.742,47.742,0,0,0,7.6.844,41.112,41.112,0,0,1,4.222,0,9.316,9.316,0,0,1-.844,1.689c-0.623,1.025-2.533,4.223-2.533,4.223l2.533,0.844,5.067-1.689,4.222,0.845a5.243,5.243,0,0,0,1.689.844,2.684,2.684,0,0,0,2.533-.844c-0.014-.217,0-2.534,0-2.534l-2.533-1.689-1.689-2.533a1.239,1.239,0,0,0-1.689-.845,17.146,17.146,0,0,1-4.222,0,12.44,12.44,0,0,1-.845-3.377c-0.019-1.319-1.394-2.456,0-3.378a4.48,4.48,0,0,1,2.534-.845s1.416,0.272.844-.844-2.533-4.222-2.533-4.222l-1.689-4.223-1.689-2.533,4.222,2.533,3.378,0.845v-4.222l0.844-1.689s0.789,1.134-.844-0.845-1.948-2.894-4.222-3.378-5.118-.107-6.756-0.844-1.98-1.386-3.378-1.689a19.168,19.168,0,0,1-5.066-2.533c-1.039-.751-2.737-1.963-3.379-2.534s-2.533-2.533-2.533-2.533h-2.533l-2.534,2.533s-1.356,1.319-2.533.845a11.028,11.028,0,0,0-4.222-.845,16.8,16.8,0,0,1-4.223-.844l-2.533.844a34.058,34.058,0,0,0-2.533,4.223c-0.531,1.325-1.555,1.821-2.533,3.377s-3.387,3.317-4.223,3.378a14.6,14.6,0,0,0-3.378,1.689s-0.114.373-1.689,0-3.575-.966-4.222-1.689a21.287,21.287,0,0,1-1.689-2.533l-3.378,2.533-2.533,3.378H710.67l-2.533-1.689a16.683,16.683,0,0,1-3.378-1.689c-1.173-.88-2.6-1.713-3.378-1.689s-5.067,0-5.067,0l-1.688.845s-0.959,2.592,0,2.533a39.993,39.993,0,0,1,5.066.845,6.278,6.278,0,0,1,.845,1.688c0.068,0.546.844,3.378,0.844,3.378l0.845,1.689,1.689,3.378s-0.576,2.02-.845,1.689-4.688-.139-5.067,0-5.324-1.044-5.911-.845a10.41,10.41,0,0,1-2.533,0l0.844,2.534,1.689,3.378v5.066l2.534,3.378v1.689s0.407,1.494-2.534,1.689-6.755,3.378-6.755,3.378l-2.534,2.533v4.222l-2.533,1.689-5.911,2.534-5.067,1.689-6.756.844-7.6.845-5.911,3.377-1.689,3.378a3.8,3.8,0,0,1,2.533,2.534c0.373,1.883-.529,3.811,0,2.533s0-5.067,0-5.067,1.871-1.085,2.534-.844,2.533-.845,2.533-0.845l1.689-1.689H660l1.689,1.689,1.689-.844,3.378-.845h2.533l0.844-1.689,1.689,0.845,1.689-1.689h2.534l2.533,1.689,2.533-.845a16.244,16.244,0,0,0,2.534-2.533,16.248,16.248,0,0,1,2.533-2.533h5.066l0.845,3.378,2.534,1.688,0.844,1.689a7.431,7.431,0,0,1,2.533,0c1.033,0.264,1.8-.42,3.378,0a13.063,13.063,0,0,1,3.378,1.689l-0.844,2.534-0.845,2.533-0.844,2.533,1.689,3.378,0.844,6.756-0.844,3.378-2.534,1.689-1.689-1.689,0.845,5.911,1.689,4.222-0.845,2.534v1.689l2.534,0.844,1.688,1.689,0.845,5.067-0.845,5.911s1.15,1.776-1.688,3.378-4.194.678-4.223,1.688-0.248,2.765-.844,3.378-2.534,0-2.534,0-0.331-.927-0.844,0-1.176,3.595-.844,4.223a23.392,23.392,0,0,1,.844,3.377l-0.844,2.534H690.4v5.067a24.56,24.56,0,0,0-.844,3.377c-0.093,1.02-1.559,2.756-1.689,3.378s-0.845,2.533-.845,2.533l2.534,1.689,3.378,4.223v2.533l-3.378,2.533-0.845,3.378,1.689,6.756,2.534,3.378,2.533,3.378,1.689,4.222s0.006,3.692,0,4.222,0,2.534,0,2.534L698,491.785l0.845,2.533v5.911s-2.274,5.432-2.534,6.756,1.164,6.974.845,7.6a7.719,7.719,0,0,0,0,4.222,37.734,37.734,0,0,0,2.533,3.378c0.6,0.714,4.223,6.756,4.223,6.756s2.691,6.374,3.377,6.755a39.9,39.9,0,0,1,4.223,3.378c0.387,0.456,1.689,9.289,1.689,9.289l2.533,4.223,1.689,5.066,0.844,1.689,2.534,2.534s3.42,4.828,3.377,5.911,2.719,9.023,3.378,9.289,3.586,6.462,3.378,7.6a14.9,14.9,0,0,0,0,5.911c0.576,1.816,2.294,7.542,2.533,8.445s-0.986,3.9-.844,5.067,0,6.755,0,6.755v3.378Z" transform="translate(-199 -162)"/>
      <path id="形状_7" data-name="形状 7" class="cls-1" d="M758.8,626.053l5.067,2.534,5.067,2.533s4.9,1.913,6.755,2.533,8.445,2.534,8.445,2.534,4.791,3.659,6.756,4.222,13.155,4.211,14.355,5.067,8.445,4.222,8.445,4.222l6.755,2.533s2.538,1.814,4.223,1.689a25.276,25.276,0,0,0,5.911-1.689c1.325-.54,4.529-0.731,6.756-1.688s7.579-2.354,8.444-3.378,8.491-4.358,10.134-4.223,6.755-2.533,6.755-2.533,1.183-3.075,2.534-4.222,8.962-12.984,10.133-15.2,16.889-36.311,16.889-36.311,1.137-4.925.845-6.756,1.024-5.747.844-6.755,0.18-4.881,0-5.912,2.534-8.444,2.534-8.444-1.15-1.8.844-1.689,4.222,0,4.222,0l6.756-23.645s1.416-7.5,2.533-9.289,2.576-7.788,3.378-9.289,4.222-5.911,4.222-5.911,5.829-2.9,6.756-4.222,15.117-11.956,15.2-12.667,2.534-7.6,2.534-7.6l0.844-4.223-1.689-1.688-5.066-.845h-4.223l-2.533-3.378-3.378-1.689L920.1,474.9l-0.844-2.534,2.533-5.066,0.845-3.378-5.911-.845-2.534,1.689-5.067,4.223-2.533,2.533-2.534-.845-1.688,2.534-5.067-.845s-0.17.586-2.533,0a15.237,15.237,0,0,1-4.223-1.689c-0.821-.428-3.22-2.15-4.222-2.533s-2.308-.349-3.378-0.844a17.14,17.14,0,0,0-3.378-.845h-3.377l-2.534,1.689-0.844,2.533v3.378l-1.689,2.534-1.689.844-3.378-.844-2.533-1.689,1.689-1.689-1.689-1.689h-2.534l1.689-2.533,0.845-2.534,1.689-.844L866.9,467.3h2.533v-3.378l0.844-.845-1.688-2.533-1.689-1.689,1.689-2.533,1.688-.845h5.067v-1.689l-3.378-1.689-3.377-2.533a13.435,13.435,0,0,0-2.534-.845c-0.834-.1-1.935-0.057-2.533-0.844s-2.555-1.566-2.534-3.378a39.973,39.973,0,0,0-.844-5.911c-0.283-1.833-1.023-5.744-.845-6.756s-0.844-5.911-.844-5.911l-2.533-.844h-3.378s-5.549.887-5.911,1.689-3.646,2.317-5.067,3.378-2.812.786-4.222,1.688-2.7,2.059-2.534,2.534a35.57,35.57,0,0,1,0,4.222l-2.533,2.534-1.689,2.533-5.067.844-1.689.845,0.845,4.222-3.378,1.689v3.378l2.533,3.378,0.845,1.688-1.689,3.378-2.534,1.689s-2.9.766-3.377,1.689a3.71,3.71,0,0,1-3.378,2.534c-2.459.3-5.85-.3-7.6,0s-6.75,1.035-7.6,0-4.223-1.689-4.223-1.689-2.313-.2-2.533-1.689-2.533-3.378-2.533-3.378l-1.689-1.689,0.844-5.067,1.689-3.378-0.844-2.533s-1.638-2.4-2.534-2.533-2.222,1.057-3.378.844-1.614-1.06-2.533-1.689a29.887,29.887,0,0,0-3.378-1.689l-0.844,1.689H773.16l-4.222-.844-1.689,3.377L766.4,452.1l-3.377,1.689-3.378-2.533-3.378,1.689s-1.613,5.776-3.378,6.755-4.222,5.912-4.222,5.912l0.844,43.911,2.533,6.756V520.5s-3.537,5.228-3.377,5.911-1.689,11.823-1.689,11.823l-0.844,6.756-0.845,6.755,0.845,5.067s2.947,2.021,2.533,3.378,2.61,7.111,2.533,8.444,2.114,6.4,1.689,7.6a38.318,38.318,0,0,0-.845,5.067l2.534,3.378s0.391,3.442,0,4.222a22.56,22.56,0,0,0-.845,6.756c0.262,1.106,1.69,5.067,1.69,5.067l0.844,3.378v8.444l-0.844.844,0.844,3.378,1.689,3.378v3.378Z" transform="translate(-199 -162)"/>
      <path id="形状_8" data-name="形状 8" class="cls-1" d="M759.649,451.251l2.533,1.689,1.689,0.844,1.689-1.689,0.844-3.378,1.689-2.533,2.534-.844,3.378,0.844,3.377-.844v-1.689l4.223,3.378,2.533,0.844,2.533-.844,1.689,0.844,0.845,3.378-1.689,3.378v7.6l4.222,2.533s1.559,2.623,2.533,2.534a21.6,21.6,0,0,1,4.223.844s3.91,2.206,5.911,1.689,6.882-1.808,7.6-1.689,3.094-.755,4.222-0.844,2.533-2.534,2.533-2.534l3.378-.844s2.691-2.674,2.534-3.378a4.2,4.2,0,0,1,0-1.689c0.053-1.332-3.378-5.067-3.378-5.067v-2.533l1.689-.845,1.689-.844v-3.378l-0.845-1.689,5.911-.844s2.29-.611,2.534-1.689a7.4,7.4,0,0,1,1.689-2.533l0.844-1.689v-4.223l0.845-1.689,5.911-1.688,3.378-2.534a11.013,11.013,0,0,1,3.377-1.689c1.677-.4,2.979-0.651,4.223-0.844a9.965,9.965,0,0,0,2.533-.845v-5.911s-2.51.593-1.689-.844,1.689-3.378,1.689-3.378l1.689-2.534v-1.688l1.689-2.534,2.533-2.533,1.689-1.689-0.844-4.222s-0.808-.725-1.689-1.689a23.213,23.213,0,0,0-3.378-2.534l-0.844-2.533,2.533-1.689-1.689-2.533s-1.238-2.656-.844-3.378,0-3.378,0-3.378l-3.378-1.689s0.167-1.164-2.534-1.689-4.175.4-4.222-.844a3.175,3.175,0,0,0-.844-2.534,43.439,43.439,0,0,1-2.533-4.222s1.125-1.433-.845-1.689-2.694,1.171-3.378,0-1.768-2.316-2.533-3.378-1.689-2.533-1.689-2.533-0.662-2.867,0-3.378,2.705-3.75,2.533-4.222,0.695-1.076,0-1.689a6.909,6.909,0,0,1-1.689-1.689c-0.444-.755-0.853-1.054-0.844-1.689s1.689-2.533,1.689-2.533l0.844-.845a8.249,8.249,0,0,0,0-3.377c-0.433-1.2-1.245-1.514-1.689-2.534a10.589,10.589,0,0,1-.844-4.222c0.139-1.112,1.027-2.768.844-3.378a5.789,5.789,0,0,1,.845-4.222c1.065-1.356,3.086-.573,2.533-2.534a8.757,8.757,0,0,0-1.689-3.377c-0.564-.805-1.5-3.064-2.533-4.223s-2.2-1.675-2.533-3.377,0.844-6.756.844-6.756v-2.533s0.013-2.075-.844-1.689a23.535,23.535,0,0,1-2.534.844s-3.2.7-3.378,1.689-3.378,3.378-3.378,3.378l-3.378-.845-1.688-.844s0.12-.6-1.689-0.845-4.222-.844-4.222-0.844l-2.534-1.689-3.378-.844-3.377.844s-0.447,3.674-.845,4.222-1.673.989-1.689,2.534a18.116,18.116,0,0,0,.845,4.222,11.758,11.758,0,0,0-1.689.844,8.219,8.219,0,0,1-2.534.845,7.4,7.4,0,0,1-4.222-.845,18.441,18.441,0,0,0-1.689-1.688c-1.317-1.049-.491-1.414-1.689-1.689s-1.908-.64-2.533,0a6.868,6.868,0,0,1-1.689,1.689c-0.636.258,1.279,1.67,0.844,2.533s-0.72,1.731-1.689,1.689,0.206,0.826-1.688,0a36.725,36.725,0,0,1-3.378-1.689,6.841,6.841,0,0,0,0,2.533c0.307,0.552,1.763.865,1.689,1.689s-0.841,2.151,0,2.534a19.856,19.856,0,0,1,2.533,1.688,9.989,9.989,0,0,1-2.533,1.689c-1.121.4-2-.545-1.689,0.845s0.859,3.274.844,3.378,0,2.533,0,2.533a33.541,33.541,0,0,1,4.222.844,3.68,3.68,0,0,0,1.689,0,6.775,6.775,0,0,0,1.689,2.534c1.145,0.99,3.378,3.378,3.378,3.378a1.422,1.422,0,0,1,0,1.689,1.515,1.515,0,0,1-1.689.844c-1.2.047-1.385-.167-2.533-0.844a6.2,6.2,0,0,0-2.534-.845,17.3,17.3,0,0,0-3.377.845l-2.534,1.688-2.533-1.688s-1.974-.228-0.844-0.845,2.5-1.573,2.533-2.533,0-2.534,0-2.534a1.606,1.606,0,0,0-1.689-.844,37.806,37.806,0,0,1-5.911.844c-1,0-4.222,0-4.222,0s0.683,2.186.844,2.534,2.291,2.616,2.533,3.378a37.687,37.687,0,0,0,1.689,3.377s1.447,0.646,0,.845-0.493,1.108-1.689,0-2.945-2.128-3.377-2.534-2.019-.5-2.534-0.844a14.268,14.268,0,0,0-1.689-.844s-1.153-.762-1.689,0a14.31,14.31,0,0,0-1.689,4.222c-0.154,1.114-1.9.934-2.533,3.378a38.678,38.678,0,0,0-.845,6.755c-0.045.917-2.537,1.666-2.533,2.534s1.02,2.227,1.689,3.377,2.056,2.86,1.689,3.378,0.845,3.378.845,3.378-3.965.878-4.223,1.689a14.372,14.372,0,0,0,0,3.378s-2.085,1.369-.844,1.689,5.911,0.844,5.911.844l0.844,1.689s0.678,1.277,0,1.689a12.862,12.862,0,0,1-2.533.845l2.533,3.377a3.739,3.739,0,0,1-.844,2.534c-1.01,1.37-3.785,5.615-3.378,5.911s0.116,3.05,0,4.222-0.845,4.223-.845,4.223a9.214,9.214,0,0,1,1.689,2.533c0.347,1.084.845,3.378,0.845,3.378a10.668,10.668,0,0,1,2.533,0c0.761,0.19,5.912,2.533,5.912,2.533l0.844,3.378a2.411,2.411,0,0,1-.844,1.689c-0.836.7-4.223,3.378-4.223,3.378s-2.7,1.091-2.533,1.688,0.844,2.534.844,2.534-0.118,1.523.845,1.689,2.655-1.082,3.377,0,2.534,3.378,2.534,3.378l0.845,0.844v3.378l-0.845,1.689a20.755,20.755,0,0,1,.845,2.533c-0.041.241,0,2.534,0,2.534a36.162,36.162,0,0,1-1.689,3.377c-0.575.867-2.534,5.911-2.534,5.911Z" transform="translate(-199 -162)"/>
      <path id="形状_9" data-name="形状 9" class="cls-1" d="M606.8,441.118l-0.844-4.223s0.105-.566-0.845-0.844-4.222-.845-4.222-0.845l-1.689-.844v-2.534l1.689-1.688,3.378-.845,0.844-.844,0.845-2.534,0.844-2.533,2.534-.845,0.844-.844-1.689-2.533-2.533-1.689-2.534-.845s-2.173-.553-3.378-0.844-3.931-1.254-4.222-.845-2.533-.844-2.533-0.844l-0.844-1.689-1.69-1.689-0.844-3.378,1.689-1.689s2.429-.025,2.533-0.844,2.534-2.533,2.534-2.533,2.03-.1,2.533-0.845a23.683,23.683,0,0,1,2.533-2.533s1.669-.7,1.689-1.689a10.45,10.45,0,0,1,.845-2.534c0.182-.753,3.228-2.837,4.222-3.377a23.3,23.3,0,0,1,4.222-1.689,40.053,40.053,0,0,0,4.223-1.689l1.689-1.689,1.688-3.378-0.844-2.533a1.491,1.491,0,0,1-.844-1.689,25.269,25.269,0,0,1,1.688-3.378s0.58-1.192.845-1.689a14.229,14.229,0,0,0,0-3.378h4.222l1.689-1.689a5.8,5.8,0,0,0,.844-1.689,13.538,13.538,0,0,0,0-3.378l-1.688-2.533v-1.689l0.844-.844s3.3,0.793,4.222.844a13.222,13.222,0,0,1,3.378,0c1.28,0.339,4.223.845,4.223,0.845a7.742,7.742,0,0,1,2.533.844,39.723,39.723,0,0,0,5.066,1.689l0.845,2.533v2.534l-0.845.844,4.223,2.534v3.377l0.844-5.911,3.378-1.689,4.222-1.689,3.378,2.534,1.689-.845s3.784-.755,4.222-0.844,4.223-1.689,4.223-1.689,2.917-1.958,3.378-1.689,3.378,1.689,3.378,1.689,1.4,0.557,1.688,0,1.689-2.533,1.689-2.533l4.222-2.534,2.534-.844,1.688,1.689a4.373,4.373,0,0,1,1.69,1.689c0.4,0.969,1.4,1.8,1.689,2.533s4.222,0.844,4.222.844l5.067,0.845,0.844,0.844s-0.19,2.8-.844,3.378a13.254,13.254,0,0,0-1.689,2.534l0.844,4.222s1.75,1.463,1.689,2.533a29.7,29.7,0,0,0,0,5.067c0.227,0.75-1.689,3.378-1.689,3.378l-0.844.844-2.534-2.533,0.845,5.067s-0.71,2.4,0,3.377,1.689,2.534,1.689,2.534V398.9l-0.845,2.533v0.845h3.378l1.689,4.222s0.311,4.3,0,5.066a48.106,48.106,0,0,0-.845,5.067l-0.844,2.534-4.222,1.688-0.845,2.534s-0.9,2.208-1.689,1.689a9.341,9.341,0,0,1-1.689-1.689l-2.533,2.533,2.533,4.223-0.844,3.377-2.533.845H690.4V436.9l0.844,3.378-0.844,2.533-1.689,2.534-1.689,2.533,1.689,1.689a6.405,6.405,0,0,1,2.533,1.689c0.8,1.062,1.69,2.533,1.69,2.533s0.032,2.368,0,2.534a15.278,15.278,0,0,0-1.69,1.689c-0.931,1.209-1.151.585-1.688,1.688s-1.727,1.77-.845,3.378,1.058,4.21,1.689,5.067,1.021,4.674,1.689,5.067,2.779,0.684,3.378,1.689a13.651,13.651,0,0,1,1.689,4.222c0.2,1.385-.348,1.487,0,3.378a15.231,15.231,0,0,1,0,4.222v1.689l-2.533-.844-4.223-.845a8.236,8.236,0,0,0-2.533,0c-0.431.257-1.328,1.933-2.533,2.533s-4.223,2.534-4.223,2.534l-2.533.844h-2.533L675.2,490.94l-1.689-.844s-3.816-.294-4.222-0.845-2.072-1.964-2.533-1.688a25.812,25.812,0,0,1-3.378.844s-0.792-.257-2.534-0.844-1.167-.921-2.533-1.689a10.954,10.954,0,0,1-3.378-2.534c-1.3-1.4-2.439-2.48-3.378-3.378s-1.683-1.724-2.533-2.533,1.356-.986-1.689-1.689-5.911-1.689-5.911-1.689l-1.689-1.689s0.191,0.383,0-.844,2.488-2.546,3.378-2.533,2.019-1.665,2.533-1.689a5.568,5.568,0,0,0,1.689-.845s1.319-.5,0-0.844a23.591,23.591,0,0,0-5.067,0l-3.377-.845s0.353-2.792,0-3.378-0.042-1.892-.845-2.533a7.132,7.132,0,0,0-2.533-1.689,4.448,4.448,0,0,1-1.689-.844h-2.534s0.126-.129-0.844-0.845a1.922,1.922,0,0,1-.845-1.689V452.1l-2.533-1.689h-2.533l3.377-3.377-2.533-.845s-1-1.559-1.689-2.533a19.709,19.709,0,0,0-2.533-2.533l-2.533,1.688s-1.825.418-2.534,0-1.374-.12-1.689-0.844a6.286,6.286,0,0,0-1.689-1.689s-1.012-1.216-1.689-.844-2.533,1.689-2.533,1.689H606.8Z" transform="translate(-199 -162)"/>
      <path id="形状_10" data-name="形状 10" class="cls-1" d="M480.978,536.541l1.689,2.533a24.913,24.913,0,0,1,3.378,0,6.84,6.84,0,0,1,.845.845c0.375,0.29.134,0.907,0.844,0.844s2,0.652,2.533,0a2.352,2.352,0,0,1,1.689-.844c0.81-.2.6-2,1.689-1.689a15.311,15.311,0,0,0,2.534.844,9.118,9.118,0,0,1,3.377,1.689c0.676,0.527,1.935,2.379,2.534,2.534s1.011,1.141,1.688.844S508,542.452,508,542.452l2.533-1.689a13.3,13.3,0,0,0,1.689,0c0.78-.062,1.733.652,2.534,0s1.712-1.86,2.533-2.533a27.6,27.6,0,0,1,2.533-1.689,3.419,3.419,0,0,0,1.689,0c0.626-.261,1.69.378,2.534,0.844s3.671,1.831,4.222,1.689a24.62,24.62,0,0,0,3.378-2.533c1.1-.85,3-1.859,3.377-2.533a5.313,5.313,0,0,1,3.378-1.689c1.027,0.032,5.2-.032,5.911,0s4.223,0,4.223,0a6.954,6.954,0,0,0,.844-2.534,19.267,19.267,0,0,1,0-3.378c0.069-.245,1.689-2.533,1.689-2.533l4.222-.844,4.222,1.689h3.378s-0.408-2.7,0-3.378a13.215,13.215,0,0,0,.845-2.534l-0.845-4.222s-1.979-.79,0-0.844,5.067,0,5.067,0,1.062-1.064,1.689-1.689,1.689-1.689,1.689-1.689-0.706-3.731,0-5.067a18.809,18.809,0,0,1,2.533-3.378c0.629-.708-0.2-1.313,1.689-2.533s2.534-1.689,2.534-1.689,1.254-2.706.844-3.378-1.26-1.938,0-2.533a12.22,12.22,0,0,1,2.533-.845l-0.844-3.377s-1.868-6.334-1.689-6.756-0.572-2.7,0-3.378,5.067-.844,5.067-0.844l7.6,0.844s5.056,0.876,5.911,0,0.657-1.912,1.689-1.689,2.776,0.385,3.378.845,6.756,1.688,6.756,1.688l4.222,0.845s0.454-1.6,0-1.689a2.312,2.312,0,0,1-1.689-.844c-0.534-.719-0.781-1.578-1.689-1.689s-4.1-.3-4.222-0.845-1.271-1.262-.845-1.689,1.38-2.283,1.689-2.533,0-2.533,0-2.533-2.158-1.847-2.533-3.378-0.233-2.18-.845-3.378-1.784-3.317-1.689-4.222,0-4.223,0-4.223,0.415-1.722.845-3.378,1.671-3.037,1.689-3.377a17.607,17.607,0,0,1,1.689-2.534,20.572,20.572,0,0,0,.844-2.533c-0.06-.186-1.039-2.033-0.844-2.533s-3.021-2.209-3.378-2.534a24.763,24.763,0,0,0-4.222-.844,3.7,3.7,0,0,0-1.689-.845,29.089,29.089,0,0,0-3.378,1.689V436.9s-2.211,1.561-2.534,1.689-2.533.845-2.533,0.845a2.73,2.73,0,0,1-1.689.844c-1.208.208-4.222-.844-4.222-0.844a6.334,6.334,0,0,0-1.689.844c-0.4.4-1.7,0.6-1.689,0.845s-0.222-1.661-.844-1.689a2.12,2.12,0,0,1-1.689-.845,49.364,49.364,0,0,1-3.378-5.067h-2.533l-1.689.845-0.845-1.689-0.844-1.689H561.2l-4.222-.844s-1.586-1.421-2.533-.845a34.35,34.35,0,0,1-5.067,2.533c-0.3-.09-1.445,1.093-3.378.845s-1.365,1.033-2.533,0a35.908,35.908,0,0,1-3.378-3.378c-0.442-.6-1.776-0.4-2.533-0.844s-2.953-1.243-3.378-.845-1.689-.844-1.689-0.844l-2.533.844a7.15,7.15,0,0,0-1.689.845,1.1,1.1,0,0,1-1.689,0,8.764,8.764,0,0,1-1.689-2.534,20.339,20.339,0,0,1-.844-2.533s-1.631,0-3.378,0-3.256,1-8.445.844-12.667,0-12.667,0a18.775,18.775,0,0,1-1.689,1.689c-0.361.221-2.533,1.689-2.533,1.689s-1.817-.731-1.689-1.689-0.736-2.85-.844-3.378-1.689-.844-1.689-0.844a4.2,4.2,0,0,1-1.689,1.689,46.377,46.377,0,0,1-5.067,1.689s-4.834,3.234-5.911,3.378a4.771,4.771,0,0,0-2.533.844,10.521,10.521,0,0,1-1.689.845l-0.845-3.378a1.249,1.249,0,0,0-1.689,0c-0.9.751-1,1.643-1.689,1.689s-1.314-.851-1.689-0.845-0.43-2.125-.844-2.533,0.119-2.1,0-2.534a3.592,3.592,0,0,1,.844-2.533c0.608-.45.688-0.571,0.845-1.689a4.465,4.465,0,0,0-.845-2.533l-2.533-3.378s1.019-2.08.844-2.533a4.547,4.547,0,0,1,.845-2.534c0.455-.671-0.043-1.43.844-1.689s1.8,0.633,1.689-.844-1.182-3.174-.844-5.911-0.141-2.054,0-3.378,0.645-2.368,0-2.533a1.307,1.307,0,0,1-.845-0.845s-2.731-1.7-3.377-1.689a23.858,23.858,0,0,1-3.378-.844,19.822,19.822,0,0,1,0-3.378c0.177-1.269-.845-4.222-0.845-4.222a3.743,3.743,0,0,0-.844-3.378c-1.376-1.332-2.335-2.87-3.378-3.378s-2.373-1.593-3.378-1.689-2.508-.9-3.378-0.844-4.039-.473-4.222-0.845-4.222-.844-4.222-0.844-2.641,1.609-3.378.844a9.117,9.117,0,0,1-1.689-1.689,3.415,3.415,0,0,0-1.689-1.689,7.141,7.141,0,0,1-2.533,0,17.278,17.278,0,0,0-4.222,0,5.984,5.984,0,0,0-2.534.845c-0.545.59-1.162,0.528-1.689,1.689a21.535,21.535,0,0,1-1.689,3.377c-0.606.828-2.084,2.785-1.688,3.378s0.114,3.824.844,4.223a3.536,3.536,0,0,1,1.689,2.533,5.651,5.651,0,0,1,0,2.533l-0.845.845,1.689,0.844h1.689s-1.359,2.6-1.689,3.378-1.045,3.228,0,3.378,1.664,1.657,2.534,1.689a7.44,7.44,0,0,0,2.533-.845s2,1.028,1.689,1.689a44.691,44.691,0,0,0-.845,5.067,8.071,8.071,0,0,0,.845,2.533,5.772,5.772,0,0,1,.844,1.689l-1.689,3.378s-1.458,2.847-1.688,3.378a16.939,16.939,0,0,0-.845,3.378c0.025,0.493.845,4.222,0.845,4.222l2.533,3.378h4.222l1.689,0.844s1.05,1.684,1.689.845a4.617,4.617,0,0,1,2.533-1.689c0.66-.035,3.378,0,3.378,0l1.689,1.689-1.689,1.689s-0.855,1.878-1.689,1.689-6.315-3.17-3.378-.845,5.067,4.222,5.067,4.222l2.534,1.689a1.364,1.364,0,0,0,.844-1.689c-0.4-1.209-1.585-4.8-.844-5.066s1.688,1.689,1.688,1.689l1.689,5.911s0.594,4.446.845,5.067,0.844,4.222.844,4.222l0.845,1.689-2.534,2.533-1.689,2.533s1.419,1.36,1.689,1.689,3.441,2.988,3.378,3.378a5.131,5.131,0,0,0,.845,1.689l1.689,2.533a6.987,6.987,0,0,0-.845,2.534,1.728,1.728,0,0,1-.844,1.689c-0.613.491-.845,2.533-0.845,2.533a30.915,30.915,0,0,1,1.689,3.378,17.759,17.759,0,0,0,.845,2.533l-1.689,1.689s0.257,1.821,1.689,1.689a21.226,21.226,0,0,1,2.533,0c0.863-.034,1.689,0,1.689,0s0.04,2.154,0,2.533,0.138,2.84,0,3.378a21.5,21.5,0,0,0,0,2.534c-0.04.264,0.55-.049,0.844,0.844a11.73,11.73,0,0,0,1.689,2.533s-0.709,1.678,2.534,1.689a55.7,55.7,0,0,1,8.444.845c1.38,0.247,3.744.735,5.067,0s2.976-1.936,3.378-.845a15.143,15.143,0,0,0,1.689,2.534,10.991,10.991,0,0,1,0,2.533c-0.207.249-1.689,2.534-1.689,2.534a9.373,9.373,0,0,1-3.378.844c-1.329-.083-3.266.2-3.378,0.844s-0.844,3.378-.844,3.378l1.689,2.534,0.844,3.377,1.689,2.534a3.424,3.424,0,0,1,0,1.689c-0.249.787-2.657,3.728-2.533,4.222s-1.42,2.233-.845,3.378,1.643,3.567,2.534,4.222,3.329,3.547,4.222,3.378,3.377,0.844,3.377.844a3.16,3.16,0,0,1,.845,0,52.262,52.262,0,0,0-4.222,3.378l-0.845,2.533v0.845Z" transform="translate(-199 -162)"/>
      <path id="形状_11" data-name="形状 11" class="cls-1" d="M461.556,387.917a14.46,14.46,0,0,1,3.378,0c1.142,0.247,4.355-.629,5.066-0.845a14.005,14.005,0,0,0,2.534-1.689s0.089,1.048,1.689.845a13.67,13.67,0,0,0,4.222-1.689c0.23-.179.652-4.131,1.689-5.067s3.378-2.533,3.378-2.533a6.251,6.251,0,0,1,2.533-.845c0.95,0.065,7.6,0,7.6,0s0.137,1.694.844-.844a19.631,19.631,0,0,1,1.69-4.222s-0.8-.808,0-2.534,1.031-2.678,1.688-4.222-0.275-2.24.845-3.378,0.5-2.383,2.533-2.533a43.21,43.21,0,0,0,6.756-.845c0.983-.375,1.825-0.694,2.533,0a41.5,41.5,0,0,1,2.534,3.378,7.4,7.4,0,0,0,1.689.845,23.461,23.461,0,0,0,4.222.844,34.191,34.191,0,0,1,3.378,2.533c0.652,0.7,6.755,3.378,6.755,3.378l0.845,3.378s-0.041,1.087.844,0.845,5.911-.845,5.911-0.845a4.708,4.708,0,0,0,1.689-.844c1.249-.812,4.131-0.521,5.067-0.845s3.467-1.865,4.222-1.689,7.6-3.378,7.6-3.378,2.81-1.727,4.222-2.533,5.912-2.533,5.912-2.533-0.018-4.373,0-5.067-1.088-1.282,0-2.534a15.628,15.628,0,0,0,2.533-3.377,12.452,12.452,0,0,0,.845-2.534s-0.038-2.094,1.689-1.689a13.351,13.351,0,0,0,4.222,0l1.689-.844,1.689-2.533,3.377-1.689L584,341.472s4.064-.718,4.222-0.845-0.014-1.206.845-.844a2.7,2.7,0,0,1,1.688,2.533,11.083,11.083,0,0,1-1.688,3.378l2.533,0.844,0.845,2.534-1.69,1.689-2.533-1.689s-1.515.394-1.689,0.844,0.318,1.408.845,2.533,0.068,2.9,0,3.378a20.876,20.876,0,0,0-.845,2.534c-0.055.8-.589,2.72-1.688,2.533a15.885,15.885,0,0,0-3.379,0c-0.574.051-2.114-.526-2.533,0a10.04,10.04,0,0,0-.844,2.533,16.763,16.763,0,0,1-1.689,1.689c-0.5.345-1.045,1.488,0,1.689s0.193,0.037,1.689,0a12.371,12.371,0,0,0,3.377-.844c0.614-.143,6.756,1.689,6.756,1.689l3.378,3.378-1.689,1.689s-1.465.648-.844,1.688a13.579,13.579,0,0,0,2.533,2.534v4.222a35.63,35.63,0,0,0,.845,5.067c0.333,0.509,3.377,3.378,3.377,3.378l1.689-.845L599.2,391.3l2.533,2.533,1.689,0.844-2.533,5.912a25.261,25.261,0,0,0-4.222.844,17.873,17.873,0,0,0-3.378,2.534c-0.511.6-2.178,2.8-2.534,2.533s-0.5.17-.844,0.844,2.534,5.911,2.534,5.911l1.688,1.689s2.432,0.533,4.223.845,0.472-.406,4.222.844,4.6,0.939,5.067,1.689a8.794,8.794,0,0,0,1.689,1.689V421.7l-2.534,2.533-1.689,3.378a23.482,23.482,0,0,1-1.689,2.534c-0.066-.138-2.148-0.576-2.533,0s0.123,0.424-.845,1.688a12.845,12.845,0,0,1-3.377,2.534s0.3-.514-0.845,0-3.592,1.938-3.377,2.533-0.74,2.451-1.69,2.534,0.519,1.012-2.533.844-0.732,1.356-3.377,0-1.115-3.805-2.534-1.689a6.472,6.472,0,0,1-2.533,2.534,6.792,6.792,0,0,0-1.689-2.534c-1-.737-3.26-2.691-3.378-3.378s-1.689-1.689-1.689-1.689-2.477-.288-2.533,0a2.865,2.865,0,0,1-.845.845l-1.689-3.378a13.808,13.808,0,0,0-4.222-.844c-1.621.1-2.807,2.42-5.067,0.844s-3.378-2.533-3.378-2.533a16.024,16.024,0,0,0-2.533.844c-0.984.47-3.538,2.339-4.222,2.533s-4.458,1.138-5.067.845a8.328,8.328,0,0,1-3.378-2.533c-0.8-1.326-.56-2.2-1.689-2.534s-5.911-.844-5.911-0.844l-2.533.844-2.534,1.689s-1.1-1.614-1.689-2.533a9.427,9.427,0,0,0-1.688-2.534c-0.8-.644-4.223-0.844-4.223-0.844a5.7,5.7,0,0,1-4.222,1.689c-2.7-.063-9.252.657-10.134,0s-3.641-.676-4.222-0.845-2.533,1.689-2.533,1.689l-2.533,1.689-2.534-1.689L492.8,421.7l-2.534.844a2.038,2.038,0,0,1-1.689,1.689c-1.464.188-10.133,3.378-10.133,3.378a1.547,1.547,0,0,1-1.689,1.689c-1.766-.125-3.445-0.638-3.378-1.689a11.121,11.121,0,0,0,0-1.689l-2.533,1.689s-0.867,1.764-1.689,0-2.081-2.758-1.689-4.222,0.227-2.558.844-3.378S470,417.473,470,417.473s0.954-1.05,0-1.689-1.5.232-2.533-1.689-2.343-2.576-1.689-3.378,1.8-2.388,2.533-3.378,2.192-1.08,2.534-1.689,1.347-.748.844-1.688-1.924-3.226-1.689-4.223-0.235-3.882,0-4.222a6.045,6.045,0,0,0,0-2.533c-0.121-.185.215,0.159-0.844-0.845s-2.844-1.3-3.378-1.689a16.382,16.382,0,0,0-3.378-.844Z" transform="translate(-199 -162)"/>
      <path id="形状_12" data-name="形状 12" class="cls-1" d="M604.269,394.672a35.02,35.02,0,0,1,3.378-3.377c1.316-1.03,3.377-2.534,3.377-2.534a35.583,35.583,0,0,0,4.223-.844,23.518,23.518,0,0,0,3.378-2.534,12.425,12.425,0,0,0,1.688-2.533s-0.62-1.725-.844-2.533-1.94-2.309-.844-3.378S622,371.028,622,371.028a0.849,0.849,0,0,1,0-.845c0.249-.483,2.534-0.844,2.534-0.844l4.222-.845-0.845-5.067-0.844-3.377v-0.845s5.409-1.109,5.911-.844,11.823,3.378,11.823,3.378l1.688,3.377,0.845,0.845s0.3-2.478,1.689-2.534a26.832,26.832,0,0,0,4.222-.844s2.633-1.952,3.378-1.689,10.825,0.845,12.667,0,10.978-4.222,10.978-4.222l1.689-2.534s2.18-.429,1.689-1.689-0.845-2.533-.845-2.533l4.222-2.533,3.378-2.534,4.223-.844v-3.378l-0.845-1.689s-1.612-1.182-1.689-2.533a24.244,24.244,0,0,1,0-3.378c0.082-1.453-1.561-2.455-1.689-3.378a7.375,7.375,0,0,0-1.689-2.533s-3.784,1.716-5.066,2.533a29.192,29.192,0,0,1-4.222,1.689c-0.857.394-4.223,1.689-4.223,1.689l-3.378.845-2.533,2.533a1.024,1.024,0,0,1-1.689,0,19.475,19.475,0,0,0-3.378-2.533s-1.427-.657-1.689-0.845-5.067-1.689-5.067-1.689-1.8-2.455-2.533-2.533-2.533-3.378-2.533-3.378a6.207,6.207,0,0,0-2.534-.844c-1.041.03-3.378,0-3.378,0s-3.345,2.03-4.222,2.533-4.222,1.689-4.222,1.689-1.717.344-3.378,0.844-2.354.765-4.222,0-2.249.025-2.534-.844-0.614-1.825-.844-2.534-1.249-1.877-1.689-1.688,0.175,0.6-.844,0-1.991.178-2.534-.845-2.309-2.145-2.533-2.533-1.1-1.724-1.689-1.689-0.148-.565-0.844-1.689-0.784-2.2-1.689-2.533-2.686-.251-3.378-0.845a32.338,32.338,0,0,0-3.378-3.378,8.436,8.436,0,0,1-2.533-4.222h-2.534s-4.6.852-5.066,0.844-5.067.845-5.067,0.845l-3.378,1.689a18.171,18.171,0,0,0-2.533,1.689c-0.723.674-.492,2.177-0.845,2.533s-0.968,2.022-1.688,2.533a9.443,9.443,0,0,0-1.689,2.534l2.533,2.533v1.689a10.029,10.029,0,0,0-2.533.845c-0.3.346-3.378,0-3.378,0l-0.845,2.533s-2.715-.824-1.689-2.533,0.454-2.515,1.689-3.378a11.9,11.9,0,0,0,2.533-3.378s1.2-2.626,1.69-3.378a16.831,16.831,0,0,0,1.689-3.378c0.386-1.17,1.688-5.066,1.688-5.066l-0.844-2.534h-5.067s-5.516-.26-5.911,0-1.689-2.533-1.689-2.533-2.829-.369-3.378-0.845a8.326,8.326,0,0,0-2.533-.844s-2.585-1.627-1.689-2.533,2.063-1.42,3.378-3.378a32.37,32.37,0,0,0,2.533-5.067s-0.838-1.107,0-1.689,1.274,0.158,1.689-.844,1.065-3.8,1.689-4.223,0.432-1.8.844-2.533a3.115,3.115,0,0,0-.844-3.378,21.021,21.021,0,0,1-2.534-4.222s-4.59,2.629-5.066,2.533-4.223-1.689-4.223-1.689-0.53-4.556-.844-5.911,0.049-3.134-.845-4.222a11.163,11.163,0,0,0-1.689-1.689l-3.377-.845-1.689-.844,2.533-2.533,0.845-5.067s-0.219-.189-0.845-0.845-3.179-1.3-5.066-1.689-4.715-.507-5.912-0.844-4.222-.845-4.222-0.845a3.084,3.084,0,0,0-1.689,1.689c-0.189,1.034-1.689,5.912-1.689,5.912a21.161,21.161,0,0,0-1.689,4.222c-0.133,1.182.716,4.786,0.845,5.911s0.926,5.161.844,5.911-1.689,8.445-1.689,8.445-0.978,3.431-2.533,5.067a7.169,7.169,0,0,0-1.689,4.222c-0.183.735,0.555,2.433,1.689,2.533s5.626,3.017,5.911,3.378,2.534,2.534,2.534,2.534l-0.845,2.533,1.689,2.533s0.827-.4.844,0.845-1.762,5.984-2.533,5.911-5.911,1.689-5.911,1.689a29.946,29.946,0,0,0,1.689,4.222c0.445,0.5.844,4.222,0.844,4.222l0.845,3.378s2.038,2.46,2.533.845,0.036-6.411,1.689-5.912A3.767,3.767,0,0,1,546,319.516c-0.088.339-2.533,5.911-2.533,5.911l-2.533,1.689s-1.023,2.678,0,2.533a4.917,4.917,0,0,1,2.533.845l-2.533,1.689,2.533,0.844L546,335.56v2.534l2.534,1.689a0.932,0.932,0,0,0,1.688,0c0.91-1.261,4.223,0,4.223,0l-0.845,1.689h2.534l0.844,4.222-2.533,2.533s-3.422,2.925-1.689,3.378a28.341,28.341,0,0,1,4.222,1.689s-0.623,4.409-.844,5.067-0.845,4.222-.845,4.222-0.939,2.354,0,1.689,3.974-.656,5.067-1.689,3.378-3.378,3.378-3.378l2.533-2.533s-0.085-3.2,0-4.223-0.3-4.1.845-4.222,2.533-1.689,2.533-1.689-0.4-1.778.845-1.689,4.222,0,4.222,0l4.222-2.533s-0.07-2.52,2.533-1.689a21.16,21.16,0,0,0,5.912.845,17.824,17.824,0,0,0,2.533-1.689,39.691,39.691,0,0,0-.844,4.222,7.888,7.888,0,0,0,.844,1.689l2.534,3.378a16.571,16.571,0,0,0-2.534.844c-0.778.4-2.813-1.193-3.378,0s0,5.067,0,5.067a4.7,4.7,0,0,1,0,2.533c-0.406,1.186-.915,3.513-1.688,3.378s-5.067-.844-5.067-0.844a20.4,20.4,0,0,1-1.689,3.377c-0.5.5-1.689,1.689-1.689,1.689l2.533,1.689s3.308,0.351,4.223,0,1.569-1.072,3.377,0a15.442,15.442,0,0,1,3.378,2.534c0.962,0.912-.844,5.066-0.844,5.066s-1.174-.168,0,0.845a6.539,6.539,0,0,1,1.688,2.533s0.781,3.48.845,4.223a31.485,31.485,0,0,0,1.689,4.222,27.541,27.541,0,0,0,1.688,3.378,13.137,13.137,0,0,0,1.69.844l1.689-1.689,1.688,4.223Z" transform="translate(-199 -162)"/>
      <path id="形状_13" data-name="形状 13" class="cls-1" d="M605.958,306.849l0.844,3.378,1.689,2.533,3.378,1.689,2.533,0.845h2.534v1.688a18.03,18.03,0,0,0,1.689,2.534,18.032,18.032,0,0,1,1.688,2.533l2.534,0.845v1.689h2.533l2.533,0.844v3.378s2.012,2.153,2.534,1.689,4.222-.845,4.222-0.845a26.23,26.23,0,0,0,3.378-.844c0.752-.342,5.067-2.534,5.067-2.534l3.377-1.688h5.067l2.534,3.377s0.429,2.188,1.688,2.534a17.6,17.6,0,0,1,3.378,1.689c0.436,0.228,4.688,2.677,5.067,2.533s1.839,0.555,2.534.844a6.375,6.375,0,0,1,1.688,1.689s0.032-1.585.845-1.689,4-.013,4.222-0.844,3.209-1.976,4.222-2.533,3.62-1.857,5.067-2.534,3.775-.933,5.067-1.689,2.418-1.836,3.377-1.689,4.361-.147,5.067,0,5.912,0.845,5.912.845l1.689-1.689s-0.788-2.522-.845-2.533a18.933,18.933,0,0,0-.844-2.534c-0.293-.326.489-0.988,0-1.689s-1.023-1.713-1.689-2.533-0.55-1.772-1.689-1.689-4.222,0-4.222,0-1.531-2.3-.845-2.533,2.533-.845,2.533-0.845,3.435-.121,5.067,0a15.15,15.15,0,0,1,5.067,1.689,22.465,22.465,0,0,0,2.533,1.689,22.751,22.751,0,0,0,4.223,1.689,11.162,11.162,0,0,1,1.688-.844l3.378-4.223,1.689-.844a2.131,2.131,0,0,1,1.689.844c0.718,0.907,1.089,3.687,1.689,3.378s2.718-1.183,3.378-.844a20.333,20.333,0,0,0,2.533.844s3.46-1.47,4.222-2.533,1.848-1.155,2.534-2.534,1.415-1.428,1.689-2.533a18.146,18.146,0,0,1,1.689-3.378l1.689-1.689,2.533-.844,5.067,0.844,2.533,0.845a29.1,29.1,0,0,0,4.223-1.689,21.71,21.71,0,0,0,1.688-1.689,33.4,33.4,0,0,0,2.534-2.533c0.42-.6,1.385-0.717,1.688-1.689s0.7-1.835.845-2.534,0.345-3.306,0-3.378-1.578-1.145-2.533-1.689a24.392,24.392,0,0,1-4.222-4.222c-0.957-1.233-3.971-3.085-5.067-4.222s-1.436-1.867-3.378-2.533a5.561,5.561,0,0,1-3.378-2.534c-0.333-.785-1.689-5.067-1.689-5.067l-1.689-1.688-2.533-.845s-2.8.356-3.378,0-1.449-.35-2.533-0.844-1.7-.213-1.689-0.845-0.231-4.374-.845-4.222a6.475,6.475,0,0,1-3.378,0c-1.165-.438-0.64-0.564-1.689-0.845s-1.052-.936-1.689-1.689a19.729,19.729,0,0,1-1.688-3.377,8.169,8.169,0,0,1-1.689-.845c-0.206-.263-2.719.264-3.378,0s-3.378.845-3.378,0.845-0.184,2.343-.844,2.533a11.766,11.766,0,0,1-2.534.844c-1.664.328-2.949,0.183-4.222,0.845s-1.965,1.439-4.222,1.689-1.748-.25-3.378,0a5.365,5.365,0,0,1-2.533,0c-1.061-.143-1.04-0.662-1.689-0.845a24.123,24.123,0,0,1-3.378-2.533s-3.2.419-3.378,0.844-2.449,1.184-3.378,1.689-4.391-.229-5.067-0.844-2.426-2.623-2.533-4.222a19.337,19.337,0,0,1,0-3.378c0.09-1.267,2.521-1.934,2.533-2.534a9.623,9.623,0,0,0,0-1.689c-0.085-.58-1.248-0.734-2.533-1.688s-1.817-.655-2.533-1.689a27.135,27.135,0,0,1-2.534-5.067,17.81,17.81,0,0,0-1.689-3.378,26.947,26.947,0,0,0-2.533-2.533l-0.844-1.689-2.534-2.533s-1.2-.021-1.689,0-3.95,2.3-5.067,2.533a58.117,58.117,0,0,0-5.911,1.689c-0.608.317-3,.6-3.378,1.689s-5.066,4.222-5.066,4.222-4.119,4.824-5.067,5.067-1.564,1.072-2.533,1.689-1.839,3.5-2.534,4.222-0.915,2.7-1.689,3.378a15.189,15.189,0,0,0-2.533,3.378c-0.4.837-1.208,2.577-1.689,3.377a25.17,25.17,0,0,0-1.689,4.223c-0.069.507-.844,5.911-0.844,5.911s0.7,2.631,0,3.378-2.4,9.088-2.534,9.289-2.533,5.911-2.533,5.911l-0.844,3.378s-0.634,2.268-1.689,2.533-4.56,4.251-5.067,4.222-5.067,3.378-5.067,3.378v1.689Z" transform="translate(-199 -162)"/>
      <path id="形状_14" data-name="形状 14" class="cls-1" d="M541.779,246.048v-1.689l2.533-.844v-1.689l-1.688-1.689s0.073-2.406,0-3.378,0.761-2.727,1.688-4.222,6.573-9.6,6.756-10.134,1.245-1.472,2.533-3.378,3.727-3.375,3.378-4.222-0.6-.739,0-2.533a9.093,9.093,0,0,1,3.378-4.222c1.019-.578,4.527-1.484,5.067-2.534s2.312-2.541,2.533-3.378,0.845-3.377.845-3.377v-0.845h6.755s8.663-.222,10.134,0,9.288,0,9.288,0-1.776.518,1.69,0.845,10.529-.327,11.822,0,8.743-.327,9.289,0,7.6,0,7.6,0a13.089,13.089,0,0,0,5.067.844c2.433-.2,10.3.043,11.822,0s10.134,0,10.134,0l7.6-.844s0.712-.6,5.067-3.378,15.028-7.147,16.889-8.445,2.9-2.875,7.6-4.222,9.028-3.776,10.978-4.222,3.121-1.982,5.066-1.689,5.029-.293,7.6,0,5.667-.028,7.6.844,1.133,1.715,4.222,1.689,6.156,0.342,9.289,0a13.161,13.161,0,0,1,5.911.845s0.563,2.405,0,3.377-3.377,5.912-3.377,5.912-3.773,3.467-5.067,3.377-3.378,0-3.378,0-0.874,2.151-1.689,2.534-1.986,5.163-3.378,5.067-3.256,1.417-4.222,1.688-11.823,4.223-11.823,4.223-4.062.842-5.066,1.689-6.6,1.847-7.6,2.533-5.553,1.534-6.756,2.533-4.027,2.485-5.067,2.534a40.786,40.786,0,0,0-5.067.844c-2.3.47-4.51,0.587-5.066,0.845s-5.911,3.378-5.911,3.378l-4.223,2.533v3.378l-3.378,1.689s-1.834,2.181-3.378,2.533-5.911,1.689-5.911,1.689l-4.222,2.533s-4.169,4.671-5.067,5.067-5.229,3.777-5.911,4.222-2.435,4.151-3.378,5.067-3.231,4.9-4.222,5.911a26.378,26.378,0,0,0-3.378,5.911c-0.46,1.275-.753,10.822-0.844,11.823s-2.287,6.448-2.534,7.6-3.377,10.133-3.377,10.133-0.549,1.127-.845,1.689a22.863,22.863,0,0,1-4.222,3.378c-1.294.823-3.354,3.667-4.222,4.222a7.137,7.137,0,0,0-1.689,2.534l0.844,3.378-5.067.844h-6.756l-6.755,4.222-1.689,3.378-1.688,1.689s-0.65,1.261-.845,1.689,1.689,4.222,1.689,4.222l0.844,1.689s0.039,1.377-1.688.845a6.223,6.223,0,0,0-3.379,0s-0.607,1.65-1.688,1.688-2.217.552-2.534,0-1.864-1.47-.844-2.533a30.621,30.621,0,0,0,2.533-2.533c1.237-1.477,1.964-3.53,2.533-4.223s1.747-3.036,2.534-4.222a8.417,8.417,0,0,0,1.689-3.378c0.375-1.639,1.608-2.974.844-4.222s1.433-1.344-.844-1.689-4.849.541-6.756,0-1.626.031-4.222-.844a16.96,16.96,0,0,1-5.067-2.534c-0.182-.307.144,0.288-1.689-0.844s-2.153-.575-2.533-1.689-1-2.087,0-2.533a5.945,5.945,0,0,0,2.533-1.689,6.776,6.776,0,0,0,1.689-2.534,25.107,25.107,0,0,1,1.689-3.378c1.076-1.785,2.222-2.022,2.533-3.377s1.888-2.454,1.689-3.378,0.1-2.393,0-3.378-1.312-2.234-1.689-3.378-0.231-2.941-.844-2.533a27.1,27.1,0,0,1-4.222,1.689c-1.008.29-.916,1-2.534,0.844s-1.681-.663-2.533-1.689a6.771,6.771,0,0,1-1.689-3.378c-0.539-1.97.735-1.39,0-3.377s0.913-2.215-.845-3.378a26.14,26.14,0,0,0-2.533-1.689c-0.894-.457-2.011-0.348-2.533-0.845a7.581,7.581,0,0,0-2.534-.844s1.68-1.682,2.534-2.533a4.489,4.489,0,0,0,1.689-2.534,4.711,4.711,0,0,0-.845-2.533s1.465-1.5,0-1.689,1.6,0.972-2.533,0-1.262-.029-4.223-0.845a22.362,22.362,0,0,0-4.222-.844c-2.078-.364-1.515-1.03-2.533-0.845A1.848,1.848,0,0,1,541.779,246.048Z" transform="translate(-199 -162)"/>
      <path id="形状_15" data-name="形状 15" class="cls-1" d="M568.8,197.914l-1.689-1.689H556.979V192s-0.314-3.672-.844-4.222,0.215-.722-1.689-1.689-4.4-1.071-5.067-1.689-0.73-.272-3.378-1.689-4.355-1.353-6.755-2.533-1.641-1.4-4.223-2.534-0.954-1.285-2.533-1.689a16.134,16.134,0,0,1-2.533-.844l-2.534.844s1.524,0.4-.844,0-5.067-.844-5.067-0.844-0.717-1.173-1.689-.845a18.077,18.077,0,0,0-3.378,2.534s2.38-.126,0,0.844-2.461,1.451-3.377,1.689a0.877,0.877,0,0,0-.845.845,11.222,11.222,0,0,0-2.533,0,5.648,5.648,0,0,1-2.534,0c-1.13-.224-1.1.223-1.689,0s-0.456-.925-2.533,0-1.65-.576-2.533.844a11.105,11.105,0,0,1-2.534,3.378,7.474,7.474,0,0,0-1.688,1.689s-1.549-.148-1.69-0.845-0.782-1.307-.844-2.533-0.861-1.161-.844-2.533,0.748-1.016,0-2.534a13.4,13.4,0,0,1-.845-1.689c-0.478-1.169.321-2.017-.844-1.689s-2.911-.677-3.378-0.844a7.531,7.531,0,0,0-1.689-.845c-2.033-.853-1.66.122-3.378-0.844a6.858,6.858,0,0,0-1.689-.844,11.633,11.633,0,0,1-2.533-1.689c-1.133-.73.051,0.189-1.689-0.845a4.116,4.116,0,0,0-2.533-.844c-0.931-.189-3.878.189-4.223,0s-4.222-.845-4.222-0.845l-1.689-.844-1.689.844a2.054,2.054,0,0,0-.844,1.689c0.06,1.072-.443,1.316,0,2.534a5.95,5.95,0,0,0,.844,1.688s0.976,0.4,0,1.689-0.87,1.868-1.689,2.534-1.028-.317-1.689.844a12.062,12.062,0,0,0-.844,1.689l-2.533,2.533h-1.689s-1.084-1.217-1.689,1.689a32.77,32.77,0,0,1-.845,4.223c-0.717,2.511,1.518.449-.844,2.533s-1.14,1.227-3.378,3.378-7.6,4.222-7.6,4.222a46.685,46.685,0,0,0-3.378,3.378c-0.448.676-1.015,2.826-1.689,3.378s-2.321-.237-1.689,1.689-0.215,3.839-.844,4.222-1.533-.765-3.378,0a56.283,56.283,0,0,1-7.6,1.689V214.8s5.144,3.289,5.067,4.222,0.775,3.076,1.689,5.067a38.044,38.044,0,0,1,1.688,6.756s2.938,2.749,3.378,2.533a39.676,39.676,0,0,1,5.067,0l4.222,1.689a2.243,2.243,0,0,1,1.689,0,5.267,5.267,0,0,0,2.534,0h1.688s-1.2,1.455,1.689,1.689a23.733,23.733,0,0,0,6.756-.844,9.749,9.749,0,0,0,1.689,1.689c1.14,0.921.514-1.214,1.689,2.533s0.9,3.9.844,5.067a33.35,33.35,0,0,1-.844,4.222l-3.378,1.689-4.222,1.689-1.689,2.533,0.844,5.911v2.534s2.441,2.188,0,2.533a12.533,12.533,0,0,0-5.066,2.533,10.867,10.867,0,0,0,0,3.378c0.329,1.133.844,4.223,0.844,4.223l1.689,5.066,1.689,0.845h3.378l0.844,2.533v3.378l3.378-.845v5.912l1.689,3.378,1.689,2.533h1.689v2.533l-0.845,2.534h2.534s-0.511.265,0,1.689a40.709,40.709,0,0,1,.844,4.222c0.241,0.838.649,2.7,1.689,2.533s1.689-2.533,1.689-2.533-0.534-3.417.844-2.534,2.534,4.223,2.534,4.223-2.325,1.932.844,1.689,1.673,0.434,3.378,0,5.067-.845,5.067-0.845-0.377-1.941,2.533,0a24.788,24.788,0,0,1,4.222,3.378s0.861-.353,1.689,1.689,1.559,2.574,2.534,4.222,0.106,3.993,1.688,2.534-0.276-3.382.845-3.378,2.572-2.684,3.378,0-1.414,3.148.844,2.533,1.086-.116,2.534-0.844a13.922,13.922,0,0,1,1.688-.845c1.482-.649,3.378-3.378,3.378-3.378v-3.377l-0.844-2.534a20.157,20.157,0,0,1,.844-3.378,5.584,5.584,0,0,1,1.689-2.533c1.392-1.335.77-2.775,3.378-2.533a12.691,12.691,0,0,0,5.911-.845,31.15,31.15,0,0,0,6.756-3.378c0.47-.512-0.278-3.879,0-5.066s-0.38-2.855,2.533-4.223,2.851-.862,4.223-1.689,2.93-1.909,2.533-3.377,1.689-6.756,1.689-6.756,1.443-5.592,1.689-6.756A16.419,16.419,0,0,0,538.4,268c-0.025-1.726.982-2.125,0-4.222s-0.133-.673-0.844-2.534-2.284-2.947-1.689-4.222a27.743,27.743,0,0,0,1.689-3.378c0.628-1.725,1.758-6.044,2.533-6.756s-0.234-1.675.845-2.533,4.222-.844,4.222-0.844v-1.689l-1.689-2.534-1.689-4.222,2.533-1.689,11.823-17.733,1.689-3.378s-1.959-2.038-.845-2.533,4.222-1.689,4.222-1.689l5.067-3.378,2.534-3.378v-3.378Z" transform="translate(-199 -162)"/>
      <path id="形状_16" data-name="形状 16" class="cls-1" d="M533.334,289.115l4.223,2.534,2.533,2.533,1.689,3.378,0.845,1.689s-1.67,1.053-.845,1.689a22.844,22.844,0,0,0,3.378,1.689l-0.845,3.378a2.381,2.381,0,0,1-2.533,2.533,35.718,35.718,0,0,0-6.756.844,1.653,1.653,0,0,0,0,1.689c0.5,1.03,2.534,5.067,2.534,5.067l0.844,5.067,0.845,1.689h3.378v-3.378l0.844-2.534L546,317.827a5.761,5.761,0,0,1,0,2.533c-0.335,1.119-2.592,5.536-3.377,5.911a34.017,34.017,0,0,0-3.378,2.534l4.222,0.844v1.689l-3.378.845,3.378,0.844L546,336.405v2.533l2.534,0.845s1.618,2,2.533.844,0.548-2.03,1.689-1.689a3.133,3.133,0,0,1,1.689,1.689l0.844,0.845,1.689,2.533v3.378l-4.222,2.533s-3.021,1.383-.844,1.689,5.066,2.533,5.066,2.533l-1.689,7.6-0.844,3.377-4.223,1.689a8.315,8.315,0,0,1-5.066,2.534,24.428,24.428,0,0,0-5.911,1.689s0.031-1.173-3.378,0-2.164,1.091-4.222.844-1.477,2.386-2.534-.844-0.844-3.378-.844-3.378-3.6-1.961-5.067-2.534a18.335,18.335,0,0,1-3.378-1.689c-0.956-.606-4.222-0.844-4.222-0.844a11.2,11.2,0,0,1-2.533-2.533A13.776,13.776,0,0,0,508,356.672s-6.193.324-6.756,0.844a21.854,21.854,0,0,1-3.378,1.689v3.378s-1.215,6.191-1.688,6.756-1.756,2.746-1.69,3.378-1.688,2.533-1.688,2.533l-7.6.844-5.066,4.223-1.689,3.377a15.474,15.474,0,0,1-1.689,1.689,27.548,27.548,0,0,1-4.222,0,8.5,8.5,0,0,0-2.534.845,35.262,35.262,0,0,1-5.066,1.689h-3.378l-0.845-2.534a14.934,14.934,0,0,1,0-4.222c0.346-2.071,1.951-.125,0-2.533s1.1-.553-2.533-2.534-3.25-1.363-5.067-2.533-4.072-1.06-5.911-1.689-1.628-2.174-4.222-1.689-3.171,1.553-4.223,1.689-3.947-1.949-4.222-2.533,1.492-1.454-1.689-1.689a20.456,20.456,0,0,0-5.066,0,22.247,22.247,0,0,0-4.223,1.689s-2.178,1.507-2.533.844-3.879-1.566-4.222-1.689-0.354-.643-1.689,0a19.409,19.409,0,0,0-3.378,2.534s-0.984,2.273-2.534,0-1.794-3.717-2.533-3.378a26.215,26.215,0,0,1-3.378.844s-1.614-.576-1.689-1.689,0-7.6,0-7.6l-5.911-1.689A2.928,2.928,0,0,1,394,354.983c0.06-1.732-1.4-.081,0-2.534s0.064-.892,1.689-2.533,2.867-1.129,2.533-2.533,1.69-4.222,1.69-4.222l3.377-4.223,1.689-2.533a2.337,2.337,0,0,0,.844-1.689c0.106-1.179-1.288-1.749.845-3.378a38.438,38.438,0,0,1,3.378-2.533c1.818-1.2,1.65-1.761,4.222-2.534s2.3,0.041,2.534-.844a21.7,21.7,0,0,0,.844-3.378,4.482,4.482,0,0,1,1.689-3.378c1.142-.828,2.533-1.689,2.533-1.689l2.534,1.689h3.378l1.688-3.377,3.378,0.844h2.534l0.844-1.689-1.689-2.533a3.143,3.143,0,0,1-.844-1.689c0-.806-1.335-1.232,0-1.689a30.721,30.721,0,0,1,3.378-.845l3.377-.844,1.689-.844a3.317,3.317,0,0,0-.844-1.689,5.4,5.4,0,0,0-2.534,0,21.327,21.327,0,0,0-3.377.844,10.262,10.262,0,0,1-.845-1.689c-0.466-1.132.883-.715-0.844-1.689s-0.851-1.064-2.534-1.689-1.689-.844-1.689-0.844l3.378-3.378,1.689-1.689,3.378,1.689,1.689-.844,0.844-2.534h2.534s0.612,0.332,1.689-.844,2.267-1.786,2.533-2.534a11.14,11.14,0,0,1,.844-1.689l0.845-4.222,3.378-.844s2.593,0.275,2.533.844,0,4.222,0,4.222l-0.844,1.689,3.377-.844s2.143,0.41,1.689,1.689a29.3,29.3,0,0,0-.844,5.911c0.008,0.918,5.067,2.533,5.067,2.533a7.8,7.8,0,0,0,0,1.689,24.711,24.711,0,0,1-.845,4.223l3.378-.845a0.655,0.655,0,0,1,.844.845c-0.205,1.086-.844,6.755-0.844,6.755l1.689,1.689,1.689-4.222,0.844-.845,2.534,2.534v3.378s-0.494.355,2.533,0,2.895-1.142,5.067-.845a4.227,4.227,0,0,0,3.378-.844s-0.934.322,0.844,1.689,0.924,1.943,4.222,3.377,4,2.1,4.223,2.534a3.773,3.773,0,0,1,.844,2.533c-0.046,1.535,0,3.378,0,3.378s0.935-1.5,1.689-2.533a4.258,4.258,0,0,0,.845-1.689l2.533-.845,0.844,3.378s-1.193,2.067,1.689,0a15.162,15.162,0,0,1,5.067-2.533A2.863,2.863,0,0,0,508,318.671c-0.045-1.785-.5-1.874-0.845-4.222s-1.182-2.426,0-5.067-1.058-1.626,1.689-3.377-3.041-1.627,2.534-1.689,6.023,0.827,6.755,0,2.927-3.249,4.223-3.378a2.262,2.262,0,0,0,1.689-1.689s0.741-3.5.844-4.222,0.844-3.378.844-3.378a14.17,14.17,0,0,1,3.378-1.689C529.97,289.9,533.334,289.115,533.334,289.115Z" transform="translate(-199 -162)"/>
      <path id="形状_17" data-name="形状 17" class="cls-1" d="M399.911,359.205s-0.2-.134-0.526-0.35l-4.541-3.028L394,353.294l0.845-4.222,2.533-1.689s1.051-1.937,1.689-3.378a44.415,44.415,0,0,1,3.378-5.067s2.2-2.229,2.533-3.378,1.689-5.066,1.689-5.066,0.149-2.107,1.689-2.534,3.5-1.167,5.067-1.689,1.2-.148,2.533-0.844,2.534-3.378,2.534-3.378l1.689-4.222,4.222-.845,1.689,1.689,3.377-1.689L432,313.605l4.222,1.689v-1.689l-1.689-3.378,1.689-2.534,4.222-.844a2.2,2.2,0,0,0,1.689-1.689,4.1,4.1,0,0,0-.844-2.533,37.677,37.677,0,0,0-5.067,1.689c-0.85.544-2.533-2.534-2.533-2.534l-0.845-2.533s0.046-.272-0.844,0-2.534-.845-2.534-0.845-0.084-1.749.845-1.688,0.869,0.342,2.533-.845,0.014-2.452,1.689-1.689a5.584,5.584,0,0,1,1.689.845c0.64,0.441-.269,2.293,1.689.844s1.671-.1,2.533-1.689a9.572,9.572,0,0,0,.845-1.689s0.091,0.947,1.689,0,1.638-1.636,2.533-2.533,3.137,0.788,1.689-1.689,1.689-6.756,1.689-6.756l-0.845-1.689s-0.481-2.17-.844-3.377-0.844-4.223-.844-4.223a3.7,3.7,0,0,1,0-2.533,4.707,4.707,0,0,1,3.377-3.378c1.994-.566,1.635.459,2.534-0.844s1.941,0.371.844-1.689-0.449-1.856-.844-2.534-1.437-1.332-.845-3.378,0.521-.181.845-1.688-1.4-.683,1.689-2.534,1.036-1.2,4.222-2.533,3.426,0.11,3.378-1.689,0.048,0.291,0-1.689,1.055-1.143,0-4.222,0.516-2.238-.845-3.378,0.753-1.087-2.533-1.689S454.8,237.6,454.8,237.6s4.943-.782,0-0.845-8.207-.08-8.444,0,4.589,0.82-.845-0.844-1.642-1.139-5.911-1.689-5.4-1.139-5.911-.845-2.394.569-2.534,0-2.481-5.44-2.533-5.911a6,6,0,0,0,0-3.378c-0.627-1.983-1.457-4.555-1.689-5.067s-2.389-1.966-2.533-2.533-1.147-.76-3.378-2.533-4.2.59-4.222-2.534-0.7-2.625,0-3.377,1.962-2.157,1.689-2.534,2-.556,0-1.689-2.743-2.389-3.378-1.689-2.534,3.378-2.534,3.378-0.423,1.1-.844,0,0.6-3.359-.845-3.378-0.706.307-3.378,0a21.689,21.689,0,0,1-4.222-.844,0.858,0.858,0,0,0-.844-0.844c-0.913-.2-3.378.844-3.378,0.844s0.161,0.9-.845,0-0.215-.9-1.689-1.689-0.609,1.262-1.688-.844a23.757,23.757,0,0,1-1.689-5.067h-4.223a19.211,19.211,0,0,0-.844,3.378c0.067,0.589.8,1.026,0,2.533a7.216,7.216,0,0,0-.845,3.378c-0.095,1.006.384,2.047,0,2.533s-1.269.052-1.688,0.845-3.279,1.973-4.222,2.533a16.18,16.18,0,0,0-1.689.845c-1.7,1.01-3.187.929-3.378,1.688s-1.173,1.18-1.689,1.689a19.957,19.957,0,0,0-1.689,3.378,22.092,22.092,0,0,1-1.689,1.689c-0.591.477-.054,0.062-1.689,0.844s-1.706.907-2.533,0.845,0.757,0.781-1.689,0-2.153-1.771-3.378-.845-0.714,2.665-1.689,3.378-2.51.939-2.533,1.689-4.223,1.689-4.223,1.689-1.067-1.72-2.533-1.689-2.807-1.5-4.222-2.533-3.378-2.534-3.378-2.534a4.393,4.393,0,0,0-1.689,0,19.219,19.219,0,0,0-2.533,1.69c-0.719.531,0.217,0.293-1.689,0.844s-1.579,1.138-2.534.844-5.008-.244-5.066-0.844a5.309,5.309,0,0,0-2.534-2.534,24.711,24.711,0,0,0-3.377-1.688c-1.052-.262-2.9,2.558-1.689,3.378s5.037,4.135,5.066,5.066,0.078,0.434.845,1.689a17.906,17.906,0,0,1,.844,1.689c0.5,0.861,1.66-.035,0,0.844s-3.908.522-4.222,0.845-0.044-1.223-1.689.845-0.007,1.992-1.689,2.533-2.879.285-4.222,0.844-4.657,2.063-4.222,2.534,1.468,1.431,2.533,2.533,1.413,2.2,2.533,3.378,0.819,1.914,1.689,1.689,0.845,0,.845,0,0.944-.531.844,0.844a7.961,7.961,0,0,0,.845,4.222c0.637,1.037-.281,1.586,1.689,2.534s3.2,0.992,3.377,1.689a11.871,11.871,0,0,1,0,2.533s-2.326,1.869-3.377,2.533-2.972,1.814-3.378,2.534-0.276,2.44-.845,3.378S318,268.848,318,268.848H314.62a16.93,16.93,0,0,0-2.533,3.378c-0.735,1.518-1.78.924-1.689,3.378s0.2,1.03,0,2.533-0.629,1.55-.845,2.534,1.547-.519-0.844,2.533-2.244,1.3-2.533,2.534-0.537-.775-0.845,2.533,1.747,2.3,0,3.378a19.519,19.519,0,0,0-4.222,4.222c-0.976,1.173-6.755,6.756-6.755,6.756s0.371-.245-2.534,1.689-0.937,1.7-4.222,2.533-1.169.707-3.378,0.844-7.6,0-7.6,0v5.912s0.468,3,.844,4.222a7.773,7.773,0,0,0,1.689,2.533,2.8,2.8,0,0,1,.845,1.689c0,0.884-.539,1.163-0.845,2.534s0,0.844,0,.844l-5.066,2.533s-2.242-3.063-1.689.845,0.844,4.222.844,4.222l1.689,1.689v4.222a3.435,3.435,0,0,1,1.689.845c0.357,0.553-.845,3.378-0.845,3.378s-1.74,1.168-.844,1.688,1.438,1.67,2.533,2.534a4.6,4.6,0,0,1,1.689,1.689c0.413,0.757,1.025.463,0,1.689s-1.165.751-2.533,0.844-2.26-2.144-2.533.844,2.533,5.067,2.533,5.067l-1.689,2.534s-2.079-.172-2.533.844,0,5.911,0,5.911,0.2,2.339-.845,2.534-1.574.775-2.533,0.844a4.869,4.869,0,0,1-2.534,0c-1.59-.362-1.569-0.25-3.377.845a16.692,16.692,0,0,1-1.689.844c-1.127.681-.1-1.581-1.689,0.845s-1.208,3.179-1.689,3.377a3.641,3.641,0,0,1-1.689.845c-1.669.5-1.421-.254-1.689,0.844a2.784,2.784,0,0,0,0,1.689l3.378,2.534s1.808-1.261,2.533-1.689,1.034-2.412,2.534-.845a55.877,55.877,0,0,0,5.066,4.222s0.079,2.544.845,2.534,4.477,0.837,5.067.844a4.982,4.982,0,0,0,2.533,0c0.933-.424-1.87,2.187,1.689-0.844s2.979-2,5.067-3.378,0.821-4.012,2.533-1.689,2.924,1.987,2.533,3.378,0.284,1.663-.844,2.533-2.608,3.835-3.378,4.223-2.533,5.066-2.533,5.066c2.013-1.15,5.066-2.533,5.066-2.533s-1.048-.661.845,1.689,2.993,1.816,3.378,3.378,0.4,3.287,1.689,4.222,1.086-2.266,1.689.845,0.367,3.9.844,4.222-0.588.462,2.533,1.689,0-.582,4.222,1.688,3.074,2.8,4.223,2.534,4.222-3.378,4.222-3.378,0.665-2.141-.845-2.533-1.292.322-1.688-1.689,0.828-2.336,0-2.533-3.2-.054-3.378-0.845a17.087,17.087,0,0,1-.844-2.533c-0.2-1.279-.95-0.3,0-3.378s-0.268-3.5.844-4.222-0.5-1.358,2.533-1.689,3.394-.964,4.223,0a18.692,18.692,0,0,1,1.689,1.689c0.721,1,2.261,1.045.844,2.533a21.426,21.426,0,0,0-2.533,3.378l-0.845.844s0.555,0.754,1.689,2.534,1.056,3.932,2.533,4.222,0.031,0.717,1.689,0,0.425,0.54,1.689-2.533-1.157-3.07.845-4.223,1.626-1.218,2.533-1.689,2.578-.174,2.534-1.689-1.9-3.478-1.689-4.222-2.22-3.423,0-3.378,2.629,0.062,4.222.845-0.015.762,3.378,0.844,2.356,0.206,3.377,0,3-.945,3.378,0-1.276,2.47.845,0.845,1.219-1.177,2.533-1.689,2.027-.639,2.533,0,0.464-.709.845-1.689-2.432-1.966.844-1.689a10.039,10.039,0,0,1,5.067,1.689,4.787,4.787,0,0,1,1.689,1.689c1.123,1.5.817,1.227,1.689,3.378s-0.765,5.792.844,2.533,1.156-3.423,2.534-5.067,9.289-17.733,9.289-17.733l0.844-1.689a1.845,1.845,0,0,1,1.689-.845c1.02,0.186.164,0.965,2.533,0a12.018,12.018,0,0,0,4.223-3.378l1.689,0.845s-0.7.983,1.688,0.844,2.494-.831,3.379-0.844,2.132,0.482,3.377-.845,1.126-1.62,1.689-1.689-0.925.5,1.689,0,5.067-.844,5.067-0.844l2.533-2.533,4.223-2.534" transform="translate(-199 -162)"/>
      <path id="形状_18" data-name="形状 18" class="cls-1" d="M211.6,505.3h-3.378l-3.378-.844s-3.859-1.343-1.689-2.534,3.054-1.2,3.378-2.533a15.51,15.51,0,0,0,0-4.222,14.926,14.926,0,0,1,.844-4.223,2.759,2.759,0,0,1,1.689-1.689s0.1-3.077,0-4.222-2.419-2.391.845-2.533,2.467-1.2,5.067,0,2.241,1.955,3.377,2.533-1.935,1.685.845,0.845,3.21-1.2,3.378-1.689a35.356,35.356,0,0,0,0-4.223s1.4,0.356-.845-1.689-2.6.424-3.378-2.533-0.144-.736-0.844-3.378-2.329-.86-0.845-3.377a15.254,15.254,0,0,0,1.689-5.912l4.223-4.222s0.024-.276,0-1.689,0.6-1.706,0-3.378,0.058-1.863-.845-2.533-3.275,1.469-.844-0.845,1.07-2.145,3.378-3.377,2.691-.772,4.222-2.534,2.962-1.2,2.533-2.533-2.409-2.011-.844-2.533a32.138,32.138,0,0,1,5.066-.845s2.985-.637,3.379-1.689,1.992-1.909,2.533-2.533,4.222-.845,4.222-0.845-1.644-1.808-.845-3.377a13.927,13.927,0,0,0,1.689-4.223c0.26-1.557,1.464-2.135,0-3.378s0.034-2.1-2.533-2.533-2.657-2.023-3.378-.844-2.747,3.82-4.222,4.222-3.378.844-3.378,0.844l-0.844-2.533a30.674,30.674,0,0,1-1.689-3.378,2.91,2.91,0,0,1,0-2.533c0.607-.994,1.588-2.925,2.533-2.534s3.513,0.566,3.378,0-0.664-2.012.844-2.533a25.569,25.569,0,0,1,3.378-.844s1.8-.831,1.689-1.689-1-.572-0.844-2.534,1.756-2.114,0-3.377-1.621.565-1.69-1.689-2.037-.516,0-2.534,1.69-3.378,1.69-3.378a15.459,15.459,0,0,1-1.69-3.377c-0.067-.813-0.843-4.223-0.843-4.223H242s3.2,0.261,4.222-.844a32.3,32.3,0,0,0,3.378-4.222c0.328-.711-0.935-2.251.845-2.534a6.134,6.134,0,0,0,2.533-.844h2.534l0.844,2.533s-0.53.249,1.689,0a10.3,10.3,0,0,0,4.222-1.689l3.378,1.689,2.533,2.533v1.689l4.223,1.689a8.6,8.6,0,0,0,2.533,0c1.027-.226,1.551.993,2.533,0s1.788-.28,2.534-1.689a15.408,15.408,0,0,1,3.378-3.377l2.533-.845,2.533,1.689v2.533l-3.377,3.378a25.813,25.813,0,0,0-2.534,3.378c-0.639,1.214-1.689,4.222-1.689,4.222l2.534-.844a7.892,7.892,0,0,1,2.533-1.689c1.343-.475,2-1.98,2.533-0.844a9.716,9.716,0,0,1,.845,3.377c0.071,1.012,3.378,2.534,3.378,2.534s-1.063,2.186-.845,2.533-0.634,1.309.845,1.689,2.63-.572,2.533,0,0,5.067,0,5.067l5.066,1.689s2.541,0.566,3.379,1.688a15.294,15.294,0,0,0,2.533,2.534c0.41,0.312,4.222-2.534,4.222-2.534s1.29-.864.845-1.688a15.462,15.462,0,0,0-2.534-2.534l-0.844-2.533s2.236-2.069,0-1.689-2.414,3.481-3.378-.844-2.606-3.478-1.689-5.912,0.547-2.216,1.689-3.377,0.479-1.643,2.533-1.689,4.06-.719,5.067,0,3.378,2.533,3.378,2.533-0.816,2.828-1.689,3.378-1.165.88-1.689,2.533-2.122,1.883-.844,2.534,3.377,3.377,3.377,3.377l2.534,0.845L318,404.806l0.845-3.378a11.972,11.972,0,0,1,1.689-2.533,15.161,15.161,0,0,1,2.533-1.689l0.845-.845s0.669-2.058,0-2.533a5.38,5.38,0,0,1-1.689-2.533,6.151,6.151,0,0,1,0-2.534s3.6-.381,4.222,0,1,1.274,2.533,1.689,4.193-.032,5.067,0a11.212,11.212,0,0,0,2.533,0c1.021-.159.061,0.508,1.689,0.845s1.873-.111,3.378-0.845,0.533,1.724,1.689-.844,0.844-2.534.844-2.534l3.378-.844a23.872,23.872,0,0,1,2.534,2.533c0.717,0.956,1.689,2.534,1.689,2.534l1.688,4.222s2.176-4.716,2.534-5.067,5.182-6.428,5.066-7.6,1.129-2.037,3.378-5.911,2.592-5.461,3.378-5.911,2.533-1.689,2.533-1.689a18.634,18.634,0,0,1,3.378-1.689c1.192-.327,2.534-0.845,2.534-0.845a1.32,1.32,0,0,0,1.688,1.689c2.138-.405,3.751-0.135,5.912-0.844a2.146,2.146,0,0,0,1.689-2.534,14.288,14.288,0,0,1,5.067-.844c2.3,0.18.979,3.648,4.222,0s3.828-4.189,5.067-5.067,3.062-2.725,2.533-.844-1.892,5.506-1.689,6.755,4.222,2.534,4.222,2.534l1.689,0.844,1.689,2.534h2.533a7.6,7.6,0,0,1,2.534-1.689,19.622,19.622,0,0,1,2.533-.845c1.274-.214,5.067.845,5.067,0.845l2.533,0.844s-0.879,3.457-1.689,4.222-0.844,4.223-.844,4.223l2.533,5.911v4.222l-1.689.845c3.063,0.574,4.223-.845,4.223-0.845s-0.835,3.278-1.689,4.223a14.947,14.947,0,0,0-1.689,2.533,8.562,8.562,0,0,0,3.378.844c1.285-.137,1.675-0.437,2.533,0a13.931,13.931,0,0,1,2.533,2.534s-1.7,2.5-1.689,4.222a6.761,6.761,0,0,0,.845,3.378c0.508,1.213-.845,4.222-0.845,4.222l-2.533,3.378s-3.5-3.318,0,3.378,3.184,7.93,5.067,7.6a23.922,23.922,0,0,1,5.067,0h7.6s2.1-.086,1.689.844-4.223,3.378-4.223,3.378l1.689,3.378,1.689,1.689,2.533-2.534s-0.577-6.4,0-2.533a38.914,38.914,0,0,0,2.534,9.289c0.724,1.47.041,7.031,0,7.6s1.224-.479-0.845,2.533-1.689,4.223-1.689,4.223l6.756,5.067v4.222s-4.057,1.56-2.533,3.378,2.012-1.536,2.533,2.533,1.55,3.576.845,5.067a11.062,11.062,0,0,0-.845,3.378h3.378l1.689,2.533s0.716,3.836,0,5.067-1.67,3.959-2.534,4.222-2.6,1.393-4.222,1.689-2.424,1.584-4.222.844-5.911-2.533-5.911-2.533-1.872,4.354-3.378,4.222-5.148,1.945-5.911,2.534-0.858,2.913-2.534,3.378,0.089-.532-3.377,1.688-2.141,2.463-3.378,2.534-3.378-3.378-3.378-3.378,1.564-.892-1.689-1.689-3.378-.844-3.378-0.844l-1.689-1.689-1.689,1.689-3.378-1.689s-1.959-3.292-3.378-4.223-1.733.807-2.533-1.689-2.421-1.771-.844-3.377,1.418-.623,1.689-1.689a7.2,7.2,0,0,0,0-2.534s0.078,0.131.844-1.689,1.306-1.715.844-2.533-0.878-1.952,0-2.533,0.845-.845.845-0.845-3.119.187-4.222-1.689,3.085-4.722-1.689-2.533-5.911,2.533-5.911,2.533a2.067,2.067,0,0,0-1.689,0c-0.812.421,1.3,1.876-2.533,0s-4.223-1.689-4.223-1.689-2.847-.32-0.844-1.688,5.067-3.378,5.067-3.378l-1.69-.845-2.533-.844-1.689,1.689s0.824,2.168-.844.844-1.1-2.82-2.533-1.689-1.564-.05-1.689,1.689a4.407,4.407,0,0,1-.845,2.534s0.5,0.344-1.689,1.688a13.149,13.149,0,0,1-4.222,1.689s-2.317,1.392-2.534,2.534,0.059,1.662-.844,1.689a9.944,9.944,0,0,0-2.533,0c-2.007.218-.695-0.027-4.223,0s-4.883,4.949-5.066,0,0.183-4.036,0-5.067,0.757-1.007,0-1.689-0.481-1.007-2.534-.844-0.751-.163-1.689,0-0.683-2.077-2.533,0,0.8,2.033-2.533,2.533-3.577,1.189-4.223.844-1.639-.579-5.066-0.844-3.3.265-4.223,0-7.6.844-7.6,0.844l-2.533-5.066v6.755a7.04,7.04,0,0,0,.845,3.378c0.9,1.479,1.524.334,1.688,2.533s0.985,2.834,0,3.378-3.057,2.26-4.222,1.689-3.378-5.067-3.378-5.067-2.651-1.749-3.378-1.689-6.756.845-6.756,0.845l-0.844,2.533s-2.752-1.084-2.533,0,1.121,2.8,0,3.378-1.689,3.378-1.689,3.378-0.466,3.206-2.534,4.222-1.974-.543-4.222,2.534-0.746,1.607-1.689,2.533-2.053,1.27-1.688,2.533-2.534,3.378-2.534,3.378a10.967,10.967,0,0,1,.845,1.689c0.713,1.556.435,1.788,0,2.534s-0.646,1.608-1.689,3.377-0.845,2.534-.845,2.534l-0.844,5.066s-1.569,1.71-.845,2.534a13.562,13.562,0,0,0,2.534,2.533,20.17,20.17,0,0,0,3.378,2.533s2.631,1.97,1.688,4.223-0.844,2.533-.844,2.533-0.533.63-3.378,0.845a24.854,24.854,0,0,1-6.755-.845l-2.534.845-4.222,2.533-2.534.844-0.844-5.066s1.146,2.566-1.689-1.689-1.274-2.884-2.533-3.378-0.61-.2-5.911-1.689-3.841,1.935-5.912-1.689,0.033-2.141-1.689-4.222,0.259-5.091-1.688-2.534,2.589,4.807-1.689,2.534-2.636-1.454-4.223-2.534,4.786,0.956-3.378-1.689-5.629-3.728-9.289-3.377-2.679-.351-4.222,0-2.69,1.72-4.222.844,1.285,0.561-3.378-1.689-3.906-2.243-5.911-2.533-3.725-.633-5.067-0.844S211.6,505.3,211.6,505.3Z" transform="translate(-199 -162)"/>
      <path id="形状_3" data-name="形状 3" class="cls-1" d="M420.178,577.075l4.222-.845s1.91-1.679,3.378-.844,4.487,0.831,4.222,1.689a3.122,3.122,0,0,0,0,1.689s1.753-2.369,2.533-2.534,3.331-1.034,3.378-1.688,0.844-4.223.844-4.223,0.619-1.188.845-1.689,2.533-.844,2.533-0.844l2.534-4.222,3.377-2.534h2.534l1.689-1.689,0.844-2.533-2.533-2.533,0.844-2.534a6.163,6.163,0,0,1,1.689-1.689c0.581-.151,2.455-1.526,3.378-1.689s1.286-1.514,1.689-1.689a4.181,4.181,0,0,0,.844-1.688h2.534l2.533-.845,0.845-.844,2.533,3.377,1.689-.844,1.689-2.533,3.378-3.378,1.689-2.534s1.885-2.078,2.533-1.689,2.533,0,2.533,0l1.689-1.688,1.689-2.534,0.844-1.689a20.365,20.365,0,0,1-4.222-1.689,33.822,33.822,0,0,1-3.377-3.377c-0.634-.748-2.733-3.139-2.534-3.378a4.727,4.727,0,0,0,.845-2.534c-0.114-.894,1.684-2.886,1.689-3.378s0.94-2.024.844-2.533-1.262-1.582-1.689-2.533a25.814,25.814,0,0,1-.844-4.222l-1.689-3.378,0.844-2.534,1.689-.844s2.506,0.069,3.378,0,2.533,0,2.533,0l-0.844-1.689,1.689-1.689,0.844-1.689-2.533-1.689s-0.955-1.881-2.534-1.689a36.567,36.567,0,0,1-5.911,0c-1.513-.126-5.067-0.844-5.067-0.844l-2.533.844s0.726-.606-0.844-0.844a7.377,7.377,0,0,1-3.378-1.689,6.338,6.338,0,0,0-1.689-1.689,3.759,3.759,0,0,0-2.534.845,6,6,0,0,1-1.688,1.688,10.527,10.527,0,0,1-2.534,1.689c-0.907.3-4.222,0.845-4.222,0.845s0.875-.293-3.378-0.845-4.18-1.775-5.067-.844-2.533,2.533-2.533,2.533l-1.689,1.689a15.08,15.08,0,0,0-2.533,1.689,35.785,35.785,0,0,1-4.223,2.534,20.226,20.226,0,0,0-1.688,1.688,5.108,5.108,0,0,1-1.689,1.689,17.638,17.638,0,0,1-2.534.845,3.269,3.269,0,0,1-1.689-1.689,17.539,17.539,0,0,0-.844-2.533l-3.378-.845-3.378-.844s-0.3-3.068-.844-2.534-2.534,2.534-2.534,2.534l-1.689-1.689-5.911-4.223s-1.919-1.752-1.689-2.533a32.309,32.309,0,0,1,1.689-3.378s1.034-1.3,0-1.689-1.516-.969,0-1.689a2.87,2.87,0,0,0,1.689-1.689c0.253-.306-0.879-1.158-0.844-1.689s0.273-2.092.844-2.533,2.5-1.342.844-1.689-4.44-3.646-5.066-3.378-4.223,1.689-4.223,1.689-2.274,1.41-3.377.845a12.933,12.933,0,0,0-4.223-1.689c-1.769-.257-1.7-0.157-2.533-0.845s-0.844-2.533-.844-2.533a4.208,4.208,0,0,1,1.688-.844,7.944,7.944,0,0,0,2.534-1.689l-0.845-.845-3.377-.844-0.845,2.533-2.533-1.689s-1.881-.972-1.689,0a10.266,10.266,0,0,1,0,2.534,21.43,21.43,0,0,0-1.689,1.689c-0.457.575-2.9,1.834-3.378,2.533s-4.222,2.533-4.222,2.533l-0.845,2.534a1.025,1.025,0,0,1-.844.844,14.02,14.02,0,0,1-4.222,0,17.975,17.975,0,0,0-4.223,0,5.343,5.343,0,0,1-1.688-.844c-0.165-.33-1.206-2.506-0.845-2.534s1.423-1.437,1.689-1.689-0.844-1.689-.844-1.689l-5.912-1.688a2.661,2.661,0,0,0-2.533.844c-1.072,1.219.457,1.734-1.689,1.689s-6.264-1.219-6.756-.845-5.066.845-5.066,0.845a48.275,48.275,0,0,1-5.067.844,23.369,23.369,0,0,0-4.222.845l-3.378-5.067v3.378l0.845,2.533s-1.4,2.639-.845,3.378a8.15,8.15,0,0,1,1.689,2.533,14.62,14.62,0,0,1,0,3.378l-2.533.845s-2.11.49-2.534,0a9.887,9.887,0,0,1-.844-3.378,5.131,5.131,0,0,0-.845-1.689l-2.533-.845h-3.378l-2.533,1.689-0.845,1.689-0.845.845,4.223,4.222,3.378,4.222a8.912,8.912,0,0,0,2.533.845c1.053,0.092,4.223,0,4.223,0s3.335,1.915,3.377.844,1.689-2.533,1.689-2.533l1.689-1.689s3.183,2.341,3.378,2.533a30.786,30.786,0,0,0,4.222,0l1.689,0.845-5.067,3.378-0.844,2.533s2.215,3.955,2.533,4.222,3.378,5.912,3.378,5.912l0.844,3.377,0.845,1.689,2.533-.844,0.845-.845V507.83s0.664-2.5,1.689-2.534,2.533-1.689,2.533-1.689l-0.844-1.689-5.067-.844s-1.935-1.408-1.689-1.689,0-3.378,0-3.378h2.533a17.86,17.86,0,0,1,2.534.845,16.375,16.375,0,0,0,3.378,0h2.533l0.844,4.222,1.689,2.533L356,506.141a2.173,2.173,0,0,1,.844,0c0.563,0.082,3.378,0,3.378,0s-0.384-.6.844-0.845,4.223,0.845,4.223.845,2.947,0.956,3.378,1.689,4.222,3.377,4.222,3.377h3.378L378.8,512.9l5.067,4.222s3.564,3.388,3.377,5.067a4.8,4.8,0,0,0,.845,3.378,11.369,11.369,0,0,1,.844,2.533h5.912l2.533,1.689,0.844,3.378-3.377,2.533s-0.822,2.754,0,3.378,1.493,4,1.688,4.223,2.534,4.222,2.534,4.222,0.732,1.941.845,2.533,0,6.756,0,6.756l-2.534,2.533-0.845,3.378,1.689,1.689v0.844s2.841,1.62,2.534,1.689a4.873,4.873,0,0,0-.844,1.689l-3.379,1.689,0.845,2.534,3.378,0.844,3.378-1.689,1.688,0.845s0.782,1.568,1.689,1.689a30.433,30.433,0,0,0,3.378,0h1.689l4.223,1.688Z" transform="translate(-199 -162)"/>
      <path id="形状_4" data-name="形状 4" class="cls-1" d="M450.578,561.875l0.844,4.222,2.534,2.533,1.689,1.689h3.377s0.72-1.51.845,0a27.038,27.038,0,0,1,0,3.378,3.557,3.557,0,0,0,.844,1.689,10.594,10.594,0,0,0,2.534.844,6.216,6.216,0,0,1,.844,1.689c0.345,1.042-.844,2.534-0.844,2.534l0.844,2.533s2.267,0.687,2.533.844,1.644,0.48,2.534.845a2.291,2.291,0,0,0,1.689,0l2.533,2.533,0.845,1.689a4.749,4.749,0,0,1-.845,1.689c-0.527.533-.175,1.9,0,3.378a31.641,31.641,0,0,1,0,4.222l0.845,1.689,0.844,1.689-0.844,1.689-2.534.845L470,605.786l0.845,2.534,0.844,3.378,1.689,1.688a14.661,14.661,0,0,0,2.534,1.689,6.1,6.1,0,0,0,2.533,0c0.836-.223,1.658-1.114,2.533-0.844s4.222,0.844,4.222.844a8.242,8.242,0,0,1,1.69-.844c0.691-.2,2.854-0.842,2.533-1.689s2.533-.844,2.533-0.844l2.533,2.533a15.921,15.921,0,0,0,2.534-.845c1.548-.638,2.052-1.569,3.378-1.688a39.847,39.847,0,0,0,5.911-.845c0.676-.327,7.6-0.844,7.6-0.844s6.979,0.469,8.445.844,7.539,0.379,7.6.845,5.968,3.133,6.755,3.377,5.067,5.067,5.067,5.067l5.067,3.378,5.067,5.067s3.45,0.342,4.222.844,7.6,2.533,7.6,2.533,2.478-.54,3.378,0,8.444,1.689,8.444,1.689H584l14.356,0.845,10.978,0.844,2.533,1.689,5.911-.844a11.684,11.684,0,0,0,2.533,0,33.553,33.553,0,0,1,4.223,0,3.437,3.437,0,0,0,1.689.844c0.59-.083,3.377-0.844,3.377-0.844l0.845-.845,3.378-1.689,0.844-5.911s-0.329-8.663,0-10.133,0.658-3.584.845-4.223-0.07-2.778,0-4.222-0.421-3.26,0-4.222a33.639,33.639,0,0,0,.844-5.067l0.845-1.689,0.844-1.689s6.272,0.637,6.756.845a23.679,23.679,0,0,0,5.066,0,11.089,11.089,0,0,1,2.534,0,42.21,42.21,0,0,1-5.067-2.534c-1.465-1-7.539-2.949-7.6-3.377s-1.615-3.925-2.533-4.223-3.318-3.119-4.223-4.222-3.916-3.835-4.222-4.222a66.445,66.445,0,0,0-5.911-3.378c-0.591-.283-3.762-1.107-4.222-1.689a17.585,17.585,0,0,0-4.223-2.533c-0.446-.036-4.222,0-4.222,0l-0.844-.845h-1.689l-0.845,1.689s-3.154,2.037-3.378,1.689-2.622-.406-2.533-0.844-1.689-1.689-1.689-1.689l-0.844,2.533-0.845,1.689s-1.986.751-2.534,0-1.193-.99-1.688-1.689-2.416-2.5-1.689-2.533,2.533-1.689,2.533-1.689l-1.688-.845s-2.663-3.576-3.378-4.222a13.166,13.166,0,0,1-1.689-3.378l-4.222-3.378s-5.446-.784-5.912-0.844-1.392,1.112-1.689,0-0.844-3.378-.844-3.378-3.328.593-3.378,0.845-1.977,1.319-2.533.844a2.17,2.17,0,0,1-.845-2.533c0.523-1.1,1.689-3.378,1.689-3.378a8.887,8.887,0,0,0-2.533-.845,23.575,23.575,0,0,0-3.378,0V545.83L562.89,543.3s-1.251-1.8-1.689-2.534a19.561,19.561,0,0,0-2.533-3.378,25.875,25.875,0,0,0-3.378-.844l-1.689-2.533a13.4,13.4,0,0,0-2.533-1.689,27.364,27.364,0,0,0-3.378-.845c-1.539-.212-5.139.967-5.911,0.845s-6.946-.346-7.6,0-1.958,2.148-2.533,2.533a4.657,4.657,0,0,0-1.689,1.689c-0.173.566-3.378,1.689-3.378,1.689s-3.583-1.32-4.222-1.689a6.606,6.606,0,0,0-3.378,0,2.359,2.359,0,0,0-1.689.844c-0.716.774-2.533,2.534-2.533,2.534a8.657,8.657,0,0,1-1.689.844c-0.469.085-1.793-.838-2.534-0.844s-0.416.928-1.689,1.689-4.222,2.533-4.222,2.533l-3.378-.844s-1.17-.527-1.689-0.845,1.285-.254-0.844-1.689-0.951-1.358-2.533-1.689a5.512,5.512,0,0,0-2.534,0c-0.452.021-1.689,1.689-1.689,1.689s-2.147.032-3.378,0-3.472-1.826-4.222-1.689a6.319,6.319,0,0,1-2.533-.844l-2.534-2.534-1.688.845-2.534,3.378-5.911,5.067s-0.41,2.838-1.689,1.688-3.378-3.377-3.378-3.377a5.652,5.652,0,0,1-2.533,1.689,9.963,9.963,0,0,1-2.534,0s-1.424,2.189-1.689,2.533-3.377,2.533-3.377,2.533l-1.689,2.534v2.533l1.689,1.689-1.689,2.533Z" transform="translate(-199 -162)"/>
      <path id="形状_5" data-name="形状 5" class="cls-1" d="M548.535,530.63l0.844-4.223,0.844-2.533,1.69-1.689,4.222,0.845,4.222,1.689,0.844,0.844,1.689-2.533,0.845-5.067-0.845-4.222,5.067-.845,2.534-1.689v-4.222l0.844-4.222,3.378-2.534,2.533-2.533,0.845-5.067,0.844-1.689,1.689-.844-0.844-5.067-0.845-5.067v-3.377l5.912-.845,6.755,1.689,6.756-.844s0.962-1.811,2.533-.845a21.261,21.261,0,0,0,5.067,1.689l4.222,0.844,1.689,0.845,0.844-.845-0.844-2.533-5.067-1.689-2.533-.844,1.689-3.378L606.8,467.3a32.516,32.516,0,0,1-2.533-2.534c-0.489-.67-0.259-1.761-0.845-2.533s-0.844-3.378-.844-3.378l-1.689-4.222v-5.067l1.689-3.378,1.689-3.378s-0.275-.758,1.689-0.844a8.651,8.651,0,0,0,3.378-.844l0.844-1.689,3.378,0.844,2.533,2.533,4.222-.844s2.4,0.269,2.534.844,1.171,1.479,1.689,2.534,3.377,2.533,3.377,2.533l-2.533,2.533,1.689,0.845s2.375-.98,2.533,0a12.431,12.431,0,0,1,0,2.533s-0.916.978,0.845,1.689a15.757,15.757,0,0,0,4.222.845l0.845,1.689,2.533,0.844a3.613,3.613,0,0,1,.845,1.689c-0.1.54,0.282,2.262,0,3.378a1.566,1.566,0,0,0,.844,1.689h7.6l-0.845,2.533-4.222,1.689-2.533.844v2.534s0.734,0.26,2.533.844,4.222,1.689,4.222,1.689,3.714,1.47,4.223,1.689a57.748,57.748,0,0,1,4.222,4.222l3.378,4.223s2.922,1.813,4.222,1.689a37.828,37.828,0,0,1,5.911.844l4.223,1.689h3.378v1.689a1.767,1.767,0,0,0,2.533.844A36.6,36.6,0,0,0,682.8,490.1l5.911-3.378h3.378a46.334,46.334,0,0,1,5.067,2.533c0.378,0.447,1.306,2.173,1.689,2.534s0.37,6.367,0,7.6-1.689,10.133-1.689,10.133v8.445l5.067,5.911s4.285,7.574,4.222,8.445,6.756,9.289,6.756,9.289l0.844,6.755a60.2,60.2,0,0,1,2.533,5.912,9.465,9.465,0,0,0,1.689,5.066c1.671,2.467,3.762,2.772,4.222,5.067s4.223,9.289,4.223,9.289,1.675,6.2,2.533,6.756,1.689,5.066,1.689,5.066l1.689,7.6s1.755,12.771,1.689,13.511-0.869,4.5-.845,5.067a11.417,11.417,0,0,1-.844,2.533L728.4,611.7l-8.445-4.223-6.755-4.222s0.627-.153-3.378-1.689-4.988-.9-6.756-1.689-5.536-2.024-5.911-1.689-6.724-.335-8.445,0-4.448-.335-6.755,0-9.294.606-10.978,0a21.942,21.942,0,0,0-3.378-.844c-1.319-.327-3.92-1.175-5.067-0.845s-4.086.047-5.911,0a31.467,31.467,0,0,1-4.222,0c-1.745-.235-4.624-1.072-5.067-1.689s-5.067-2.533-5.067-2.533l-3.377-2.533-1.689-3.378s-9.625-8.337-10.134-8.445-7.6-4.222-7.6-4.222l-3.378-1.689-4.222-.844-3.378-.845-1.689,2.534-3.378.844-2.533-3.378-1.689,4.223-1.689,1.688-4.222-3.377s-2.571-2.118-1.689-2.534a19.175,19.175,0,0,1,2.533-.844L591.6,566.1a6.563,6.563,0,0,0-1.689-1.689c-1.383-1.094-1.8-1.149-2.533-2.533s-0.575-3.3-1.689-3.378a25.783,25.783,0,0,1-5.067-.845,23.145,23.145,0,0,0-3.378-.844l-1.689-1.689-0.844-2.533-3.378,1.689-1.689,1.688-1.689-2.533L568.8,550.9l0.844-2.534h-5.911s-1.256-1.566-.845-2.533-0.223-1.652,0-2.533-0.844-2.534-.844-2.534l-2.534-3.378-2.533-.844-0.844.844-2.534-3.377-3.378-2.534-1.688.845V530.63Z" transform="translate(-199 -162)"/>
      <path id="形状_2" data-name="形状 2" class="cls-1" d="M312.932,615.92l-3.379-1.689-4.222-.845-2.533-4.222-0.845-5.066-0.844-2.534a37.452,37.452,0,0,1-5.067-3.378,19.02,19.02,0,0,1-2.533-3.378l-1.689-1.688-5.067-3.378a24.647,24.647,0,0,1-3.377-2.534c-0.415-.607-0.2-1.314-0.845-1.689s-1.689-4.222-1.689-4.222l0.845-3.378,0.844-2.533,0.845-4.222V568.63l-0.845-2.533-3.378-1.689s-2.265-.05-2.533-0.844a13.629,13.629,0,0,0-1.689-2.534l-1.689-4.222-2.533-.845-3.378-.844,2.533-3.378v-3.378h-6.755l-2.534,2.534a8.179,8.179,0,0,1-2.533,0l-1.689.844-1.689,1.689h-5.911l-1.689,2.533-2.534-.844-1.688-.844h-3.379l-1.688.844-1.689.844-5.911-1.688s-3.569-1.053-4.223-.845a28.222,28.222,0,0,1-4.222,0s-2.72-.594-2.533,0-0.333,2.012-.845,1.689-1.854-.079-2.533-0.844a20.527,20.527,0,0,0-1.689-1.689c-0.533-.491-3.378-0.845-3.378-0.845l-1.689-.844-1.689-2.534s1.125-2.239.845-2.533,0.844-3.378.844-3.378,1.674-.8,1.689-1.689a8.523,8.523,0,0,1,.845-2.533l1.689-2.534-0.845-2.533-2.533-3.378a26.786,26.786,0,0,1,0-4.222c0.216-.859-0.845-3.378-0.845-3.378V520.5l3.378,0.845h0.845l0.844-2.534-1.689-1.689s0.774-2.235,0-2.533-0.529-2.068-.844-2.533,0-2.534,0-2.534l0.844-1.688,3.378,0.844,4.222,1.689,5.067,0.844,4.223,2.534a5.276,5.276,0,0,0,2.533,0c1.28-.354,1.729-0.821,2.533-0.845s4.04-.234,4.223,0,4.222,1.689,4.222,1.689,3.611,2.278,4.222,2.533,5.067,2.534,5.067,2.534l1.689,0.844,0.844-2.533,1.689,0.844s1.125,2.257,1.689,2.534,1.689,3.378,1.689,3.378,1.948,0.675,2.533.844,2.973-.169,4.222,0,4.223,0.844,4.223.844L272.4,528.1l0.844,3.378,1.689,0.845-0.844,2.533,1.688,2.533,2.534-1.689,5.067-2.533h1.689l1.688,1.689,2.534-1.689s1.669,0.5,2.533.845a10.844,10.844,0,0,0,3.378,0,11.436,11.436,0,0,1,0-2.534,11.488,11.488,0,0,0,0-2.533l-0.844-3.378s-1.855,1.245-2.534,0-3.5-3.727-3.378-4.222a16.517,16.517,0,0,0,0-2.534l2.534-1.689V512.9a2.313,2.313,0,0,1,.844-2.533,13.673,13.673,0,0,0,2.534-4.222l-0.845-4.223,2.533-1.689v-1.688a9.959,9.959,0,0,0,2.534-1.689c0.924-.954,2.488-3.376,3.377-4.223s4.223-7.6,4.223-7.6l1.689-4.222h1.688l0.845,2.533s1.159,3.2,1.689,3.378a34.689,34.689,0,0,1,5.067,3.378,35.023,35.023,0,0,0,4.222,2.533h3.378s2.029-.714,2.533-0.844a17.9,17.9,0,0,0,2.534-1.689l0.844-.845,2.533,1.689a16.664,16.664,0,0,0,3.378.845,16.043,16.043,0,0,1,2.534,0,39.885,39.885,0,0,1-3.378,3.378c-1,.735-1.207,3.319-0.845,3.378s1.087,1.133,1.689,1.688,0.315,2.2.845,2.534,1.048,2.689,1.689,3.378a17.357,17.357,0,0,1,1.688,3.377l0.845,3.378,3.378-.844a2.3,2.3,0,0,1,0-1.689,25.1,25.1,0,0,0,.844-4.222,8.755,8.755,0,0,0,2.534-1.689c0.868-.967,1.335-1.511.844-1.689a12.931,12.931,0,0,0-3.378-.845,15.056,15.056,0,0,1-3.378-.844l-0.844-3.378,0.844-2.533a20.208,20.208,0,0,0,2.534,1.689c0.388,0.075,1.335-.076,2.533,0s3.378,0,3.378,0,1.828-.187,1.689.844a17.791,17.791,0,0,0,.844,4.222l1.689,0.845L356,506.141a3.593,3.593,0,0,0,2.533,0c1.666-.47,1.344-0.449,2.533-0.845s1.983,0.156,4.223.845,3.375,2.192,4.222,2.533,5.067,2.533,5.067,2.533h3.377s5.79,5.931,5.912,6.756,3.377,4.222,3.377,4.222a24,24,0,0,0,.845,3.378c0.4,0.941.791,2.583,1.689,2.533s5.78,0.435,5.911,0,1.689,1.689,1.689,1.689,1.832,4.139.844,4.223-2.533,1.688-2.533,1.688-0.9,1.048,0,4.223a28.133,28.133,0,0,0,2.533,5.911s0.62,2.017.845,2.533,1.689,2.534,1.689,2.534,0.564,1.811,0,2.533-0.844,4.222-.844,4.222l-2.534,1.689-1.689,3.378a19.386,19.386,0,0,1-3.378,1.689,4.827,4.827,0,0,0-2.533,1.689c-0.774.915-2.534,3.378-2.534,3.378a3.944,3.944,0,0,1-.844,0c0.933-.019,3.378,2.533,3.378,2.533l-0.845,1.689-3.377.845v2.533s1.309-.062,0,1.689-1.811.855-1.689,1.689,0.409,3.221.844,3.377,1.689,3.378,1.689,3.378l0.844,1.689-2.533,1.689-2.533.845-2.533,2.533v3.378l-1.69,3.378-2.533,1.689-5.067.844-1.688.845-3.378-1.689-3.378-2.534a17.171,17.171,0,0,1,0-3.378c0.217-.679,3.272-1.026.844-1.689s-5.133-1.669-5.066-.844S356,598.186,356,598.186l-2.534,2.534s-3.585,1.883-3.377,3.378a22.617,22.617,0,0,0,.844,3.377l-2.533,1.689-4.223,3.378-6.755,2.533h-7.6s-0.431-4.1-.845-4.222-2.533-.844-2.533-0.844H323.91l-1.689,1.689-0.845.844L318,610.853l-1.689,1.689-2.533,1.689Z" transform="translate(-199 -162)"/>
      <path id="形状_1" data-name="形状 1" class="cls-1" d="M313.776,615.92l0.844-3.378s2.861-1.868,3.378-1.689,3.378,1.689,3.378,1.689l2.534-1.689s3.478-2.068,5.066.845,0.845,4.222.845,4.222l6.755-.845,4.222-1.689,6.756-2.533,3.378-2.533-0.844-4.222,4.222-2.534L356,598.186l2.533-3.378h4.222l-1.689,3.378s-0.385.7,1.689,1.689,5.067,4.223,5.067,4.223h2.533l1.689-1.689h5.067l1.689-3.378,0.845-5.067,2.533-2.533,3.378-.845,1.688-1.689a24.354,24.354,0,0,1-2.533-4.222c-0.3-1.131-.844-4.222-0.844-4.222l1.689-1.689-0.845-3.378v-0.844l4.222-.845v-3.378l-2.533-.844,2.533-1.689,3.378-3.378,3.378-1.689,1.689-2.533v4.222l2.534,1.689v2.533l-2.534,1.689,0.844,2.534,5.912-.845,4.222,2.534,2.533-.845,3.378,0.845,1.689,1.688,3.378,0.845v3.378l-1.689,3.377,3.378,2.534h5.067l4.222,0.844,0.844,3.378-2.533,3.378v3.378l-4.222,2.533-3.378.845h-1.689l0.845,6.755-1.689,5.067-5.912.844a3.677,3.677,0,0,0-.844,1.689,53.516,53.516,0,0,0,0,5.911l-3.378,4.223-1.689,2.533v4.222l5.067,4.223V642.1l-1.689,1.689-2.534,1.689-0.844,5.067-4.222,1.688-0.845,3.378s0.44,1.827-.844,1.689a51.189,51.189,0,0,0-6.756.845l-2.533.844-2.534-.844-2.533,1.689s-5.873,9.193-6.755,10.133-2.534,2.533-2.534,2.533l-0.844,5.067-5.912-.844-2.533-.845,1.689-3.378a6.16,6.16,0,0,0-.844-2.533,25.973,25.973,0,0,0-3.378-2.533s0.652-1.579-.845-1.689a14.505,14.505,0,0,0-4.222.844s-2.709-2.429-2.533-.844a12.016,12.016,0,0,1-.845,4.222,14.255,14.255,0,0,1-1.689-3.378,17.139,17.139,0,0,1,0-2.533l-2.533,3.378,1.689,5.066L356,674.187s1.524,1.007,0,2.534a5.934,5.934,0,0,0-1.689,3.378,17.658,17.658,0,0,0,0,3.377v2.534l-1.689.844-2.533.844,1.689,2.534-0.845,3.378-3.378.844-2.533-.844h-3.378v-3.378l-1.689-.845h-3.378l-3.378-2.533-1.689-3.378-2.533-1.689-5.066.845-1.689-.845,0.844-2.533-0.844-2.533-1.689-.845,0.844-1.689,0.845-.844a2.468,2.468,0,0,0,1.689,0,2.884,2.884,0,0,0,.844-1.689l-1.689-.844-1.689-.845L318,668.276l-1.689-1.689a29.108,29.108,0,0,1-4.222,0,32.134,32.134,0,0,1-3.378-1.689l-1.689-1.689v-4.222l2.533-1.689v-2.533l-0.844-1.689,1.689-4.222,1.689-2.534-0.844-8.444,0.844-2.534,1.689-3.378s-2.835-3.333-3.378-3.377-2.533-3.378-2.533-3.378l1.688-.845,2.534-1.689,2.533-.844,1.689-3.378v-1.689Z" transform="translate(-199 -162)"/>
      <text id="长街镇" class="cls-2" transform="translate(599.864 391.92) scale(0.844)">长街镇</text>
      <text id="胡陈乡" class="cls-2" transform="translate(577.064 238.227) scale(0.844)">胡陈乡</text>
      <text id="力洋镇" class="cls-2" transform="translate(505.285 285.517) scale(0.844)">力洋镇</text>
      <text id="越溪乡" class="cls-2" transform="translate(419.994 382.63) scale(0.844)">越溪乡</text>
      <text id="一市镇" class="cls-2" transform="translate(324.57 428.228) scale(0.844)">一市镇</text>
      <text id="跃龙街道" class="cls-2" transform="translate(289.105 318.45) scale(0.844)">跃龙街道</text>
      <text id="茶院乡" class="cls-2" transform="translate(427.595 263.561) scale(0.844)">茶院乡</text>
      <text id="桃源街道" class="cls-2" transform="translate(303.461 241.605) scale(0.844)">桃源街道</text>
      <text id="桥头胡街道" class="cls-2" transform="translate(366.794 180.804) scale(0.844)">桥头胡街道</text>
      <text id="大佳何街道" class="cls-2" transform="translate(441.952 136.892) scale(0.844)">大佳何街道</text>
      <text id="强蛟镇" class="cls-2" transform="translate(372.705 82.003) scale(0.844)">强蛟镇</text>
      <text id="西店镇" class="cls-2" transform="translate(273.902 95.514) scale(0.844)">西店镇</text>
      <text id="梅林街道" class="cls-2" transform="translate(242.661 190.093) scale(0.844)">梅林街道</text>
      <text id="深甽镇" class="cls-2" transform="translate(132.035 150.404) scale(0.844)">深甽镇</text>
      <text id="黄坛镇" class="cls-2" transform="translate(110.08 290.583) scale(0.844)">黄坛镇</text>
      <text id="前童镇" class="cls-2" transform="translate(215.637 370.805) scale(0.844)">前童镇</text>
      <text id="岔路镇" class="cls-2" transform="translate(109.235 397.828) scale(0.844)">岔路镇</text>
      <text id="桑洲镇" class="cls-2" transform="translate(132.88 486.496) scale(0.844)">桑洲镇</text>
    </g>
  </g>
</svg>
