<svg id="七都街道" xmlns="http://www.w3.org/2000/svg" xmlns:xlink="http://www.w3.org/1999/xlink" width="965" height="800.656" viewBox="0 0 965 800.656" preserveAspectRatio="none">
  <defs>
    <style>
      .cls-1 {
        fill: none;
        fill-opacity: 0.64;
        stroke: #92fee6;
        stroke-width: 3px;
        fill-rule: evenodd;
      }

      .cls-2 {
        font-size: 23.465px;
        font-weight: 500;
      }

      .cls-2, .cls-3 {
        fill: #fff;
        font-family: "Source Han Sans SC";
      }

      .cls-3 {
        font-size: 20.113px;
        font-weight: 300;
      }
    </style>
  </defs>
  <path id="形状_1" data-name="形状 1" class="cls-1" d="M493.642,280.586s37.689-13.267,42.958-14.32,68.7-20.973,83.529-23.865,84.848-9.969,93.076-9.546,21.975,2.452,23.865,3.58,35.139,6.67,38.185,9.546-65.744,120.6-70.4,128.873-9.339,24.1-13.126,31.025-20.467,34.663-27.446,41.765-12.264,20.96-15.512,28.639-8.3,18.347-9.546,22.672-5.967,8.353-5.967,8.353-25.8-54.074-32.218-60.857-9.9-16.476-11.933-25.059-14-29.087-19.092-35.8-23.027-27.085-31.025-50.118c-9.412-17.849-18.082-23.878-25.059-28.638S494.114,285.769,493.642,280.586Z" transform="translate(-481 -231.344)"/>
  <path id="形状_2" data-name="形状 2" class="cls-1" d="M703.659,376.048s27.836,25.87,51.31,31.025,62.875,24.529,69.21,28.638,15.513,9.547,15.513,9.547,9.081,1.935,13.126,3.579,16.706,20.286,16.706,20.286,2.649-6.6,11.932-10.739,23.527-21.4,28.639-26.252,6.453-14.275,9.546-21.479,0.684-27.27,5.966-36.992,7.032-14.3,8.353-22.672,7.857-22.688,8.353-27.445,1.017-11.723,3.58-16.706,5.967-15.513,5.967-15.513a176.626,176.626,0,0,0-29.832-9.546c-16.385-3.606-43.667-11.055-47.731-11.933s-18.525-3.711-23.866-4.773-22.022-4.144-26.252-5.966-12.616-2.414-20.285-4.773-22.264-6.649-25.059-7.16-3.58,1.193-3.58,1.193l-16.706,31.025L740.65,312.8l-15.513,26.252-17.9,31.025Z" transform="translate(-481 -231.344)"/>
  <path id="形状_3" data-name="形状 3" class="cls-1" d="M703.659,376.048S736.16,401.3,740.65,402.3s28.785,9.859,32.218,10.739,35.663,12.8,39.378,15.513,19.936,12.115,23.866,14.319,1.238,3.636,0,3.58-13.984,4.088-15.513,5.966a7.414,7.414,0,0,1-3.579,2.387l2.386,4.773L802.7,466.736l-3.58-4.773-33.411,14.32,4.773,3.579v21.479l-9.546,9.547-14.32-17.9-28.638,28.638-8.353,1.193-3.58,5.967-4.773,5.966-5.966-1.193L694.112,544.3l-13.126,15.513-14.319,15.512s-12.729-26.67-13.126-28.638-10.885-22.105-11.933-25.059-8.049-9.792-8.353-11.933,5.168-5.155,4.773-7.159,5.6-14.1,5.967-15.513,6.724-16.714,9.546-22.672a103.8,103.8,0,0,1,10.739-16.706,223.112,223.112,0,0,0,15.513-21.479c6.442-10.2,14.67-24.053,18.207-33.165C701.61,383.7,703.659,376.048,703.659,376.048Z" transform="translate(-481 -231.344)"/>
  <path id="形状_4" data-name="形状 4" class="cls-1" d="M666.667,577.711s43.275,83.6,44.151,85.916,14.5,6.3,19.093,7.159,48.565,29.88,52.5,32.219,54.1,40.032,57.277,42.958,17.9,14.319,17.9,14.319l23.865-29.832,3.58-11.933,9.546-16.706,20.286-1.193,1.193-15.512-10.739-22.673s54.867-23.562,62.05-25.058,22.672-7.16,22.672-7.16V611.123l-4.773-2.387-7.159-2.386L969.759,598l5.966-4.773-11.933-7.16v-4.773l10.74-8.353,2.386-1.193-21.479-21.479-13.126,1.193-16.706,15.512-26.252-21.478,7.16-8.353-5.966-4.773s-1.644-5.974-10.74-15.513-28.638-32.218-28.638-32.218v-8.353l-9.547-8.353L838.5,446.451s-12.534,1.224-20.285,8.353c0.033,0.04,1.193,4.773,1.193,4.773L802.7,466.736l-3.58-4.773-33.411,13.126L770,478v24l-9.064,10.081-14.32-19.092L717.978,522.82h-8.353l-7.16,11.933-7.159-1.193v11.933Z" transform="translate(-481 -231.344)"/>
  <path id="形状_5" data-name="形状 5" class="cls-1" d="M975.725,570.551l19.092-11.932s25.593,18.914,27.443,20.285c5.13,3.8,39.74,7.1,39.74,7.1l10.38-34.541s-8.43-16.166-8.35-19.092-4.78-16.706-4.78-16.706l2.39-29.832-4.77-9.546,4.77-11.933,2.39-19.092,38.18,4.773,5.97-3.58,8.35,4.773,19.09-33.412,4.78,11.933,32.22-16.706,14.31-20.286s-13.25-13.76-27.44-21.478-37.99-17.63-44.15-20.286-23.5-11.2-28.64-13.126-62.05-22.672-62.05-22.672-47.629-16.541-51.312-17.9S952,292,952,292s-4.728,13.351-6.107,14.838-2.332,9.278-2.386,11.932-3.72,14.707-5.967,17.9-3.84,16.1-4.773,19.092-6.2,15.516-8.353,17.9S921,404.73,919.641,408.266c-1.615,4.215-5.315,17.12-5.641,18.734s-16.382,18.492-18.224,19.451-16.147,13.827-17.9,14.319-8.353,7.16-8.353,7.16l-3.58-4.773L855.2,450.031l-7.159-3.58h-8.353l14.319,25.059,8.353,3.579-1.193,10.74s30.243,33.064,32.218,34.6,6.628,7.656,7.16,9.546,5.966,5.966,5.966,5.966l-1.193,3.58-5.967,5.967,25.059,20.285,2.387,1.193,13.126-14.319,16.706-2.386Z" transform="translate(-481 -231.344)"/>
  <path id="形状_6" data-name="形状 6" class="cls-1" d="M990,630s32.74-2.77,43-.978,46.64,11.737,51.31,13.126,3.58,14.319,3.58,14.319l9.55,11.933s44.18,18.284,52.5,19.092,47.73,8.542,54.89,15.513,15.52,16.706,15.52,16.706,16.37,11.925,19.09,11.932,22.41,6.3,25.06,7.16,24.06,13.173,31.02,14.319,36.47-.295,40.57-3.58,14.29-10.746,19.1-14.319,13.12-11.933,13.12-11.933-16.31-12.178-23.86-20.285a131.016,131.016,0,0,1-14.32-17.9c-4.58-6.5-12.34-17.463-13.13-21.479s-7.04-8.907-9.54-11.933-8.3-14.528-13.13-27.445-19.91-54.4-22.67-60.857-4.78-19.093-4.78-19.093l-13.12-27.445s-31.23-76.921-34.61-84.722-22.59-27.534-25.06-31.026a91.516,91.516,0,0,0-7.16-8.353l-14.31,19.093-32.22,17.9-4.78-13.126-19.09,33.412-8.35-4.773-5.97,4.773-38.18-4.773s-1.04,13.329-2.39,15.512-5.97,15.513-5.97,15.513l4.78,8.353s-2.55,32.18-1.2,33.411,5.75,15.255,5.97,17.9,5.97,13.126,5.97,13.126l1.19,3.58L1062,586s-20.53-1.331-23.03-2.323-13.15-1.285-19.09-5.966-25.063-19.092-25.063-19.092l-19.092,10.739,1.193,3.58-13.126,8.353,1.194,5.966,11.932,7.16L970.952,598l8.353,9.546L989,610Z" transform="translate(-481 -231.344)"/>
  <path id="形状_7" data-name="形状 7" class="cls-1" d="M857.591,760.282S887.138,785.7,891,787.727s21.19,18.4,40.571,25.059,46.418,19.777,48.924,20.286,44.5,15.5,51.312,17.9,51.18,13.547,57.28,15.512,43.15,4.252,65.63,3.58,104.39-2.308,115.74-5.966c13.25-.831,49.25-10.757,105.01-47.731s60.21-40.461,57.28-42.958S1369,723,1369,723s-25.68,22.548-29.33,24.156-19.55,7.5-41.76,5.966c-17.26-6.488-39.38-16.706-39.38-16.706l-17.9-4.773s-16.1-9.326-19.09-11.932-16.71-17.9-16.71-17.9-14.46-6.6-17.9-7.159-36.45-6.678-38.18-7.16-46.54-17.9-46.54-17.9l-4.77-1.193-9.55-11.933V645.728l-1.19-4.774-50.12-11.932H992.431L947,644l-41.678,19.627,9.546,21.479v15.512l-19.092,1.193-11.933,16.706-1.193,9.546-4.773,8.353Z" transform="translate(-481 -231.344)"/>
  <text id="上沙村" class="cls-2" transform="translate(110.667 92.847) scale(1.193)">上沙村</text>
  <text id="江都社区" class="cls-2" transform="translate(298.011 111.939) scale(1.193)">江都社区</text>
  <text id="樟里村" class="cls-2" transform="translate(197.778 222.915) scale(1.193)">樟里村</text>
  <text id="板桥村" class="cls-2" transform="translate(287.273 361.334) scale(1.193)">板桥村</text>
  <text id="老涂村" class="cls-2" transform="translate(469.844 206.208) scale(1.193)">老涂村</text>
  <text id="前沙村" class="cls-2" transform="translate(545.019 523.619) scale(1.193)">前沙村</text>
  <text id="吟州村" class="cls-2" transform="translate(648.834 344.629) scale(1.193)">吟州村</text>
</svg>
