<?xml version="1.0" encoding="utf-8"?>
<!-- Generator: Adobe Illustrator 17.0.0, SVG Export Plug-In . SVG Version: 6.00 Build 0)  -->
<!DOCTYPE svg PUBLIC "-//W3C//DTD SVG 1.1//EN" "http://www.w3.org/Graphics/SVG/1.1/DTD/svg11.dtd">
<svg version="1.1" id="图层_1" xmlns="http://www.w3.org/2000/svg" xmlns:xlink="http://www.w3.org/1999/xlink" x="0px" y="0px"
	 preserveAspectRatio="none" viewBox="0 0 1100 950" style="enable-background:new 0 0 1100 950;" xml:space="preserve">
<g>
	<path style="fill:#FFFFFF;" d="M86.9,712H70v-10.6h19.1l1.3-12.2h13.8l-1.3,12.2h26.3l-7.5-8.8h14.7l7.5,9.7c1.5,5-0.5,8.2-5.9,9.7
		h-17.2v20.3l21.9-8.8v12.8l-21.9,8.8v6.9c0,1.3,0.6,1.9,1.9,1.9h23.1v3.8c0,4.2-2.9,6.3-8.8,6.3h-21.6c-5.2,0-7.8-2.6-7.8-7.8v-6.9
		L96,753.8v-13.1l11.6-4.1v-18.4c0-4.2-1.6-6.3-4.7-6.3H101c-5.4,22.1-15.5,39.5-30.3,52.2v-17.5C78.6,736,84,724.5,86.9,712z"/>
	<path style="fill:#FFFFFF;" d="M162.2,763.8H150l4.4-18.1c2.9-12.5,1.6-19.8-4.1-21.9v-15.9c15,6.5,20.3,19.6,15.9,39.4
		L162.2,763.8z M151.3,697c0.2-2.1,0.9-3.8,2.2-5c1.7-1.5,3.4-2.2,5.3-2.2c2.1,0,3.9,0.7,5.3,2.2c1.5,1.3,2.2,2.9,2.2,5
		c0,2.1-0.7,3.9-2.2,5.3c-1.5,1.3-3.2,2-5.3,2.2c-1.9-0.2-3.6-0.9-5.3-2.2C152.2,700.8,151.5,699.1,151.3,697z M185,764.2
		c-6.7,0-10-3-10-9.1v-20.3l-3.1,1.9v-11.9c3.1-1.9,5.3-4,6.6-6.3h-6.6v-10h7.8v-2.8c0-1.9-1.1-2.8-3.4-2.8h-4.7v-9.4h8.1v-4.4h13.4
		v4.4h10.6v-4.4h13.4v4.4h8.4v9.4h-8.4v5.6h8.1v10h-6.3c1.3,3.1,3.3,5.1,6.3,5.9L225,737l-4.7-2.2v15h-31.6v2.5c0,1,0.6,1.6,1.9,1.6
		h34.7v3.4c0,4.6-2.2,6.9-6.6,6.9H185z M188.8,725.1h19.4c0-0.2,0.2-0.3,0.6-0.3l-3.4-6.3h-13.1L188.8,725.1z M202.8,734.8h-14.1v5
		h18.1v-1.9C206.9,735.8,205.6,734.8,202.8,734.8z M193.2,708.5h10.6v-2.8c0-1.9-1.1-2.8-3.4-2.8h-7.2V708.5z"/>
</g>
<g style="opacity:0.5;">
	<path style="fill:#FFFFFF;" d="M72,840.1v-57.3h7v57.3H72z"/>
	<path style="fill:#FFFFFF;" d="M87.3,819.4c0-7.7,2.1-13.4,6.4-17.1c3.6-3.1,7.9-4.6,13-4.6c5.7,0,10.4,1.9,14,5.6
		c3.6,3.7,5.4,8.9,5.4,15.5c0,5.3-0.8,9.5-2.4,12.6c-1.6,3.1-3.9,5.4-7,7.1c-3.1,1.7-6.4,2.5-10,2.5c-5.8,0-10.5-1.9-14.1-5.6
		C89.1,831.8,87.3,826.4,87.3,819.4z M94.6,819.4c0,5.3,1.2,9.3,3.5,11.9c2.3,2.6,5.2,4,8.8,4c3.5,0,6.4-1.3,8.7-4
		c2.3-2.7,3.5-6.7,3.5-12.1c0-5.1-1.2-9-3.5-11.7c-2.3-2.6-5.2-4-8.7-4c-3.5,0-6.4,1.3-8.8,3.9C95.7,810.1,94.6,814.1,94.6,819.4z"
		/>
	<path style="fill:#FFFFFF;" d="M134.5,840.1v-41.5h6.3v5.9c3-4.6,7.4-6.8,13.2-6.8c2.5,0,4.8,0.4,6.9,1.3c2.1,0.9,3.7,2.1,4.7,3.5
		c1,1.5,1.8,3.2,2.2,5.2c0.3,1.3,0.4,3.6,0.4,6.8v25.5h-7v-25.2c0-2.9-0.3-5-0.8-6.4c-0.5-1.4-1.5-2.6-2.9-3.4
		c-1.4-0.8-3-1.3-4.9-1.3c-3,0-5.6,1-7.8,2.9c-2.2,1.9-3.3,5.5-3.3,10.8v22.7H134.5z"/>
	<path style="fill:#FFFFFF;" d="M177.7,843.6l6.8,1c0.3,2.1,1.1,3.6,2.4,4.6c1.7,1.3,4.1,2,7.1,2c3.3,0,5.8-0.7,7.5-2
		c1.8-1.3,3-3.1,3.6-5.5c0.4-1.4,0.5-4.4,0.5-9c-3.1,3.6-6.9,5.4-11.5,5.4c-5.7,0-10.1-2.1-13.2-6.2c-3.1-4.1-4.7-9-4.7-14.8
		c0-4,0.7-7.6,2.1-11c1.4-3.3,3.5-5.9,6.2-7.8c2.7-1.8,5.9-2.7,9.6-2.7c4.9,0,8.9,2,12.1,5.9v-5h6.5v35.9c0,6.5-0.7,11-2,13.7
		c-1.3,2.7-3.4,4.8-6.3,6.4s-6.4,2.3-10.5,2.3c-4.9,0-8.9-1.1-12-3.3S177.5,848.1,177.7,843.6z M183.5,818.7c0,5.4,1.1,9.4,3.2,11.9
		c2.2,2.5,4.9,3.8,8.1,3.8c3.2,0,5.9-1.2,8.1-3.7c2.2-2.5,3.3-6.4,3.3-11.7c0-5.1-1.1-8.9-3.4-11.5c-2.3-2.6-5-3.9-8.1-3.9
		c-3.1,0-5.8,1.3-8,3.8S183.5,813.7,183.5,818.7z"/>
	<path style="fill:#FFFFFF;" d="M222.1,843.6l6.8,1c0.3,2.1,1.1,3.6,2.4,4.6c1.7,1.3,4.1,2,7.1,2c3.3,0,5.8-0.7,7.5-2
		c1.8-1.3,3-3.1,3.6-5.5c0.4-1.4,0.5-4.4,0.5-9c-3.1,3.6-6.9,5.4-11.5,5.4c-5.7,0-10.1-2.1-13.2-6.2c-3.1-4.1-4.7-9-4.7-14.8
		c0-4,0.7-7.6,2.1-11c1.4-3.3,3.5-5.9,6.2-7.8c2.7-1.8,5.9-2.7,9.6-2.7c4.9,0,8.9,2,12.1,5.9v-5h6.5v35.9c0,6.5-0.7,11-2,13.7
		c-1.3,2.7-3.4,4.8-6.3,6.4s-6.4,2.3-10.5,2.3c-4.9,0-8.9-1.1-12-3.3S222,848.1,222.1,843.6z M228,818.7c0,5.4,1.1,9.4,3.2,11.9
		c2.2,2.5,4.9,3.8,8.1,3.8c3.2,0,5.9-1.2,8.1-3.7c2.2-2.5,3.3-6.4,3.3-11.7c0-5.1-1.1-8.9-3.4-11.5c-2.3-2.6-5-3.9-8.1-3.9
		c-3.1,0-5.8,1.3-8,3.8S228,813.7,228,818.7z"/>
	<path style="fill:#FFFFFF;" d="M295,835c-2.6,2.2-5.1,3.8-7.5,4.7c-2.4,0.9-5,1.4-7.8,1.4c-4.6,0-8.1-1.1-10.5-3.3
		c-2.4-2.2-3.7-5.1-3.7-8.5c0-2,0.5-3.9,1.4-5.6c0.9-1.7,2.1-3,3.6-4c1.5-1,3.2-1.8,5.1-2.3c1.4-0.4,3.5-0.7,6.3-1.1
		c5.7-0.7,9.9-1.5,12.5-2.4c0-1,0-1.6,0-1.8c0-2.9-0.7-4.9-2-6.1c-1.8-1.6-4.5-2.4-8-2.4c-3.3,0-5.7,0.6-7.3,1.7
		c-1.6,1.2-2.7,3.2-3.5,6.2l-6.9-0.9c0.6-2.9,1.7-5.3,3.1-7.1c1.4-1.8,3.5-3.2,6.2-4.2c2.7-1,5.8-1.5,9.4-1.5c3.5,0,6.4,0.4,8.6,1.3
		c2.2,0.8,3.8,1.9,4.9,3.1c1,1.3,1.8,2.9,2.2,4.8c0.2,1.2,0.4,3.4,0.4,6.5v9.4c0,6.5,0.1,10.7,0.4,12.4c0.3,1.7,0.9,3.4,1.8,5h-7.3
		C295.7,838.7,295.2,837,295,835z M294.4,819.3c-2.6,1-6.4,1.9-11.5,2.7c-2.9,0.4-4.9,0.9-6.1,1.4c-1.2,0.5-2.1,1.3-2.8,2.3
		c-0.7,1-1,2.1-1,3.3c0,1.9,0.7,3.4,2.1,4.7c1.4,1.3,3.5,1.9,6.2,1.9c2.7,0,5.1-0.6,7.2-1.8c2.1-1.2,3.7-2.8,4.6-4.9
		c0.8-1.6,1.1-3.9,1.1-7V819.3z"/>
	<path style="fill:#FFFFFF;" d="M312.4,840.1v-41.5h6.3v5.9c3-4.6,7.4-6.8,13.2-6.8c2.5,0,4.8,0.4,6.9,1.3c2.1,0.9,3.7,2.1,4.7,3.5
		c1,1.5,1.8,3.2,2.2,5.2c0.3,1.3,0.4,3.6,0.4,6.8v25.5h-7v-25.2c0-2.9-0.3-5-0.8-6.4c-0.5-1.4-1.5-2.6-2.9-3.4
		c-1.4-0.8-3-1.3-4.9-1.3c-3,0-5.6,1-7.8,2.9c-2.2,1.9-3.3,5.5-3.3,10.8v22.7H312.4z"/>
	<path style="fill:#FFFFFF;" d="M355.6,843.6l6.8,1c0.3,2.1,1.1,3.6,2.4,4.6c1.7,1.3,4.1,2,7.1,2c3.3,0,5.8-0.7,7.5-2
		c1.8-1.3,3-3.1,3.6-5.5c0.4-1.4,0.5-4.4,0.5-9c-3.1,3.6-6.9,5.4-11.5,5.4c-5.7,0-10.1-2.1-13.2-6.2c-3.1-4.1-4.7-9-4.7-14.8
		c0-4,0.7-7.6,2.1-11c1.4-3.3,3.5-5.9,6.2-7.8c2.7-1.8,5.9-2.7,9.6-2.7c4.9,0,8.9,2,12.1,5.9v-5h6.5v35.9c0,6.5-0.7,11-2,13.7
		c-1.3,2.7-3.4,4.8-6.3,6.4s-6.4,2.3-10.5,2.3c-4.9,0-8.9-1.1-12-3.3S355.5,848.1,355.6,843.6z M361.4,818.7c0,5.4,1.1,9.4,3.2,11.9
		c2.2,2.5,4.9,3.8,8.1,3.8c3.2,0,5.9-1.2,8.1-3.7c2.2-2.5,3.3-6.4,3.3-11.7c0-5.1-1.1-8.9-3.4-11.5c-2.3-2.6-5-3.9-8.1-3.9
		c-3.1,0-5.8,1.3-8,3.8S361.4,813.7,361.4,818.7z"/>
</g>
<path style="fill:#0A469E;" d="M244.6,519.6c-2.3-0.8-6.9-2.3-10.7,2.3c-3.8,4.6,1.5,7.6,1.5,11.4c0,3.8-8.4,2.3-6.9,3.8
	c1.5,1.5,3,6.1,3,6.9c3,0,5.3,1.5,6.1,3.8c0.8,2.3,0,6.1,0,8.4s1.5,2.3,2.3,3.8c0.8,1.5,3,5.3,2.3,6.9c1.5,1.5,6.9,2.3,6.1,3.8
	c-0.8,1.5-4.6,3.8-3.8,11.4c-1.5,2.3-2.3,0.8-3.8-9.1c0-2.3-5.3-2.3-6.1-3s-3.8,1.5-3,3.8s2.3,3.8,3.8,4.6c1.5,0.8,2.3,6.9,0,6.9
	c-2.3,0-6.1,3-5.3,7.6c-1.5,2.3-5.3,3-6.9,3c-1.5,0-1.5,2.3-3,2.3c-1.5,0-3-6.1-4.6-6.1s-8.4,2.3-10.7-1.5c-3,1.5-10.7,11.4-28.9,3
	c-3.8,0.8-9.9,4.6-12.9,4.6c-3,0-8.4,0.8-10.7-1.5c-2.3,3-9.9,5.3-12.9,10.7c-3,5.3,0.8,4.6-3,5.3c-3.8,0.8-9.9,3-9.1,4.6
	c-0.8,2.3-3.8,0-6.9,0s-6.9,2.3-9.1,0.8c-3,1.5-19,4.6-18.3-9.1c-3-6.1-6.1-14.5-3.8-18.3c-3.8-3-10.7-3.8-15.2,2.3
	c-0.8,2.3-9.1,3-9.9,0.8c-0.8-2.3-3-2.3-3-4.6c0-2.3-8.4,3-8.4,0c0-3,4.6-9.9,3-12.2c-1.5-2.3-11.4,3.8-19,1.5
	c-3,2.3-22.8-6.1-22.8-10.7c0-4.6,3.8-2.3,3-6.1c-0.8-3.8-6.1-12.2-9.1-12.2s-4.6-3.8-3-3.8s3-3.8,1.5-3.8s-5.3-1.5-0.8-3
	s23.6-8.4,28.9-14.5s20.6-18.3,28.2-22.8c7.6-4.6,10.7-19,9.1-21.3c-1.5-2.3-1.5-10.7-12.2-14.5c-10.7-3.8-3-8.4-0.8-10.7
	c2.3-2.3,6.1-0.8,8.4-2.3s5.3-1.5,10.7-3.8c0.8-3.8,2.3-6.1,11.4-6.9c7.6-4.6,10.7-11.4,12.9-14.5c2.3-3,6.9-11.4,6.1-32.7
	c-0.8-21.3,6.9-18.3,8.4-22.1c1.5-3.8-1.5-8.4-8.4-8.4c-2.3-2.3-9.1-2.3-13.7-2.3c-4.6,0-5.3-6.1-2.3-8.4c3-2.3,14.5-4.6,12.2-21.3
	c-3-5.3-9.1-6.1-6.1-9.9s9.1-6.1,17.5-10.7c4.6-1.5,2.3-6.9,2.3-9.9s5.3-0.8,3.8-5.3c-1.5-4.6,2.3-3.8-16.7-9.1
	c-14.5-4.6-3.8-19,0.8-16.7c3-0.8,6.1-2.3,11.4,0c5.3,2.3,12.2-1.5,16.7,3c3.8-0.8,5.3-3.8,8.4-4.6c-2.3-7.6-2.3-20.6-6.1-20.6
	c-3.8,0-6.1-9.9-6.1-14.5s-4.6-12.9-19-19.8c-14.5-6.9-3,11.4-31.2-21.3c-3-2.3-7.6,5.3-9.1-12.9c-9.9-9.9-9.1-9.1-9.9-11.4
	c-0.8-2.3,7.6-0.8,12.9,0c5.3,0.8,12.9,2.3,19,5.3c6.1,3,24.4-5.3,26.6-7.6c2.3-2.3,13.7-7.6,28.9,5.3
	c15.2,12.9,22.1,25.1,26.6,45.7s9.1,32,22.8,26.6c13.7-5.3,34.3-20.6,35-28.2c0.8-7.6,3-19.8-14.5-37.3s-3-40.3,4.6-45.7
	c7.6-5.3,14.5-13.7,27.4-14.5c12.9-0.8,44.9,12.2,48.7,17.5s38.8,5.3,56.3-20.6s27.4-30.5,36.5-29.7c9.1,0.8,32,12.9,38.1,44.2
	c6.1,31.2,15.2,39.6,38.1,46.4s48.7-10.7,55.6-21.3s45.7-38.8,72.3-39.6c26.6-0.8,54.8-0.8,80.7,25.1s40.3,27.4,45.7,31.2
	s30.5,12.2,41.9,41.9s22.1,48.7,32.7,51.8c10.7,3,24.4,12.9,33.5,39.6c9.1,26.6,61.7,146.2,67,154.5c5.3,8.4,62.4,35,72.3,38.8
	c9.9,3.8,43.4,19,49.5,24.4c6.1,5.3,76.1,58.6,76.9,63.9c0.8,5.3-0.8,90.6-2.3,94.4s-56.3,38.8-60.1,39.6s-12.9,0-21.3,16.7
	c-12.2,0-41.1,4.6-42.6,2.3c-1.5-2.3-15.2-13.7-25.1-16.7c-9.9-3-60.9-15.2-65.5-13.7c-4.6,1.5-0.8,25.9-9.1,25.9
	s-15.2-13.7-16-15.2c-0.8-1.5-1.5,0.8-3.8-1.5c-2.3-2.3-7.6-9.1-11.4-4.6s-6.9,4.6-6.1,6.9c0.8,2.3,0,0.8-3,1.5
	c-3,0.8-8.4,7.6-10.7,8.4c-2.3,0.8-9.9-3.8-16.7-1.5c-4.6-1.5-5.3-3-4.6-3.8c0.8-0.8,1.5-7.6-0.8-6.1c-2.3,1.5-7.6,5.3-10.7,4.6
	s-4.6-5.3-7.6-0.8c-3,0-16.7-3.8-14.5-0.8s6.1,3.8,3.8,5.3c-2.3,1.5-9.1,3.8-11.4,3.8c-2.3,0-6.1,6.1-7.6,3.8
	c-1.5-2.3-4.6-6.9-4.6-9.1c0-2.3-3.8-6.9-7.6-7.6s-0.8-3.8-0.8-4.6s-3-4.6-6.1-2.3c-3,2.3-4.6,3.8-3.8,6.1c-3,0-8.4-1.5-9.1,0.8
	c-0.8,2.3-4.6,0-5.3,0.8c-0.8,0.8-1.5,8.4-0.8,9.9c0.8,1.5-10.7,0-11.4-2.3c-0.8-2.3,1.5-27.4,1.5-27.4s-13.7,0.8-12.9-1.5
	c0.8-2.3,3.8-4.6,0-4.6s-6.1-1.5-7.6-3c-1.5-1.5-0.8,6.1-1.5,8.4c-0.8,2.3-9.9,0.8-9.9-0.8c0-1.5,1.5-5.3,1.5-5.3s-3-2.3-5.3,0
	c-2.3,2.3-2.3-3.8-2.3-5.3c0-1.5-6.1,6.9-7.6,2.3c-1.5-4.6-2.3-12.9-6.1-9.9s-3.8,6.9-6.9,6.1s-9.9,2.3-10.7,4.6
	c-0.8,2.3-2.3,9.9-5.3,8.4c2.3,3,4.6,4.6,3.8,6.9c-0.8,2.3-2.3,5.3-4.6,1.5c-2.3-3.8-5.3,4.6-4.6,6.9s-5.3,6.1-5.3,7.6
	c0,1.5,6.1,5.3,6.9,6.9c0.8,1.5-2.3,2.3-1.5,5.3c-4.6,1.5-4.6-0.8-6.1,0c-1.5,0.8-3.8,4.6-7.6,2.3c-3.8-2.3-13.7-14.5-15.2-15.2
	c-1.5-0.8-8.4,4.6-8.4,3.8s-2.3-4.6-5.3-3c-3,1.5-6.9,2.3-8.4,5.3c-1.5,3-12.2-3-12.2-6.1s2.3-5.3,3.8-5.3c1.5,0,4.6-2.3,4.6-2.3
	s0.8-4.6,2.3-6.1c-1.5-1.5-22.1-17.5-22.8-20.6c-0.8-3-0.8-3.8,1.5-3.8s3,0.8,3.8,0.8s5.3-5.3,5.3-6.1c0-0.8-7.6-6.9-8.4-8.4
	c-0.8-1.5,0-6.1,1.5-5.3c1.5,0.8,3.8,2.3,4.6,3c2.3-0.8,1.5-3.8,6.9-3c2.3-1.5-0.8-2.3-1.5-3.8c-0.8-1.5,0.8-3,2.3-3
	c1.5,0,2.3,2.3,3.8,2.3c1.5,0,6.9-9.1,9.1-8.4s3.8,3,5.3,2.3c1.5-0.8,6.1-3.8,3.8-5.3c-2.3-1.5-16-9.1-16-9.1s9.1-9.1-5.3-8.4
	c-2.3-1.5,9.9-7.6-1.5-14.5c0.8-3.8,0.8-6.9,2.3-8.4c1.5-1.5-4.6-3.8,0.8-7.6c-2.3-3.8-3-4.6,0-9.9c3-5.3,3-6.9,3-9.9s0-6.1-3-6.1
	s-4.6-0.8-3-2.3c-0.8-3.8-0.8-8.4,1.5-8.4c2.3,0,4.6-0.8,4.6-2.3c0-1.5,1.5-6.9,0-7.6c-1.5-0.8,3-4.6,2.3-7.6
	c-0.8-3-6.1-5.3-1.5-15.2c-2.3-3-7.6,0-9.1,0c-1.5,0,2.3-10.7,0-13.7c-2.3-3-0.8-4.6,0.8-4.6c1.5,0,6.1,2.3,5.3-0.8
	c-0.8-3,0-5.3,0.8-6.9c0.8-1.5,1.5,0.8,0.8-1.5c-0.8-2.3,5.3-0.8,4.6-2.3c-0.8-1.5,0-3,2.3-3c2.3,0,3,0,2.3-1.5s-4.6-5.3-7.6-4.6
	c-3,0.8-3.8,5.3-5.3,4.6c-1.5-0.8-6.1,0.8-7.6,0c-1.5-0.8,4.6-5.3,6.1-12.2s-22.1,5.3-30.5,0c-2.3-1.5,0-6.1-3.8-7.6
	c-3.8-1.5-19.8-2.3-18.3-6.9c1.5-4.6,5.3-5.3,6.1-8.4s-6.9-2.3-3-9.1c-4.6,0-4.6,0-6.1,0.8c-1.5,0.8,0.8-7.6-3-4.6
	c-3.8,3-8.4,1.5-9.1,6.1c-0.8,4.6,4.6,6.9,0,6.9c-4.6,0-4.6-3.8-7.6-3.8s-1.5,3-1.5,5.3c-2.3,2.3-4.6-3-7.6-1.5s-5.3,0-4.6,3
	c0.8,3-2.3,7.6-22.8,7.6c-6.9-1.5-8.4-10.7-8.4-12.9c0-2.3-0.8-8.4-4.6-8.4s-3.8-1.5-5.3-0.8c-1.5,0.8,1.5-7.6-8.4-1.5
	c-9.9,6.1-12.2,2.3-12.2,0c0-2.3-0.8-7.6-3-7.6c-2.3,0-19,7.6-19.8,1.5c-0.8-6.1,4.6-8.4,3.8-12.2c-0.8-3.8-4.6-4.6-9.1-0.8
	c-4.6,3.8-8.4,1.5-9.9-0.8c-1.5-2.3-6.9,3-10.7,6.1c-3.8,3-3-4.6-5.3-5.3c-2.3-0.8-5.3,1.5-6.1,1.5c-0.8,0-2.3-4.6-3-5.3
	c-0.8-0.8-8.4-2.3-10.7-1.5c-2.3,0.8-1.5-9.9-3-10.7c-1.5-0.8-1.5-0.8-3.8,0c-2.3,0.8-3-8.4-6.9-4.6s-5.3,6.9-6.1,4.6
	c-0.8-2.3-4.6,0.8-6.1,1.5c-1.5,0.8-6.9-7.6-6.1-9.9c0.8-2.3-1.5-3.8-3-2.3c-1.5,1.5-4.6,4.6-3,6.1s-2.3,8.4,0,10.7
	c2.3,2.3-10.7,3.8-16,3c-0.8,5.3-2.3,9.1,3,12.2c5.3,3,3.8,6.1,6.9,10.7c3,4.6,9.1,9.1,9.9,12.2c0.8,3,3.8,19.8-9.9,21.3
	s-8.4-2.3-10.7-3.8c-2.3-1.5,3,9.9-0.8,9.1c-3.8-0.8-7.6-8.4-6.9-6.1c0.8,2.3,5.3,8.4-0.8,5.3c-6.1-3-3.8,0-4.6,2.3
	c-0.8,2.3-12.2-3-12.2-0.8c0,2.3-2.3,9.1-0.8,10.7c1.5,1.5,6.1-0.8,6.1,3s-6.1,9.9-4.6,12.2c1.5,2.3-4.6,4.6-6.9,4.6
	S244.6,519.6,244.6,519.6z"/>
<path style="fill:#05245B;" d="M244.6,512c-2.3-0.8-6.9-2.3-10.7,2.3s1.5,7.6,1.5,11.4s-8.4,2.3-6.9,3.8c1.5,1.5,3,6.1,3,6.9
	c3,0,5.3,1.5,6.1,3.8c0.8,2.3,0,6.1,0,8.4s1.5,2.3,2.3,3.8s3,5.3,2.3,6.9c1.5,1.5,6.9,2.3,6.1,3.8c-0.8,1.5-4.6,3.8-3.8,11.4
	c-1.5,2.3-2.3,0.8-3.8-9.1c0-2.3-5.3-2.3-6.1-3s-3.8,1.5-3,3.8s2.3,3.8,3.8,4.6c1.5,0.8,2.3,6.9,0,6.9c-2.3,0-6.1,3-5.3,7.6
	c-1.5,2.3-5.3,3-6.9,3c-1.5,0-1.5,2.3-3,2.3c-1.5,0-3-6.1-4.6-6.1s-8.4,2.3-10.7-1.5c-3,1.5-10.7,11.4-28.9,3
	c-3.8,0.8-9.9,4.6-12.9,4.6c-3,0-8.4,0.8-10.7-1.5c-2.3,3-9.9,5.3-12.9,10.7c-3,5.3,0.8,4.6-3,5.3c-3.8,0.8-9.9,3-9.1,4.6
	c-0.8,2.3-3.8,0-6.9,0s-6.9,2.3-9.1,0.8c-3,1.5-19,4.6-18.3-9.1c-3-6.1-6.1-14.5-3.8-18.3c-3.8-3-10.7-3.8-15.2,2.3
	c-0.8,2.3-9.1,3-9.9,0.8c-0.8-2.3-3-2.3-3-4.6c0-2.3-8.4,3-8.4,0s4.6-9.9,3-12.2c-1.5-2.3-11.4,3.8-19,1.5
	c-3,2.3-22.8-6.1-22.8-10.7s3.8-2.3,3-6.1s-6.1-12.2-9.1-12.2s-4.6-3.8-3-3.8s3-3.8,1.5-3.8s-5.3-1.5-0.8-3
	c4.6-1.5,23.6-8.4,28.9-14.5s20.6-18.3,28.2-22.8c7.6-4.6,10.7-19,9.1-21.3c-1.5-2.3-1.5-10.7-12.2-14.5s-3-8.4-0.8-10.7
	c2.3-2.3,6.1-0.8,8.4-2.3s5.3-1.5,10.7-3.8c0.8-3.8,2.3-6.1,11.4-6.9c7.6-4.6,10.7-11.4,12.9-14.5c2.3-3,6.9-11.4,6.1-32.7
	c-0.8-21.3,6.9-18.3,8.4-22.1c1.5-3.8-1.5-8.4-8.4-8.4c-2.3-2.3-9.1-2.3-13.7-2.3c-4.6,0-5.3-6.1-2.3-8.4c3-2.3,14.5-4.6,12.2-21.3
	c-3-5.3-9.1-6.1-6.1-9.9c3-3.8,9.1-6.1,17.5-10.7c4.6-1.5,2.3-6.9,2.3-9.9s5.3-0.8,3.8-5.3c-1.5-4.6,2.3-3.8-16.7-9.1
	c-14.5-4.6-3.8-19,0.8-16.7c3-0.8,6.1-2.3,11.4,0s12.2-1.5,16.7,3c3.8-0.8,5.3-3.8,8.4-4.6c-2.3-7.6-2.3-20.6-6.1-20.6
	c-3.8,0-6.1-9.9-6.1-14.5c0-4.6-4.6-12.9-19-19.8s-3,11.4-31.2-21.3c-3-2.3-7.6,5.3-9.1-12.9c-9.9-9.9-9.1-9.1-9.9-11.4
	c-0.8-2.3,7.6-0.8,12.9,0c5.3,0.8,12.9,2.3,19,5.3c6.1,3,24.4-5.3,26.6-7.6c2.3-2.3,13.7-7.6,28.9,5.3
	c15.2,12.9,22.1,25.1,26.6,45.7s9.1,32,22.8,26.6c13.7-5.3,34.3-20.6,35-28.2c0.8-7.6,3-19.8-14.5-37.3s-3-40.3,4.6-45.7
	c7.6-5.3,14.5-13.7,27.4-14.5c12.9-0.8,44.9,12.2,48.7,17.5c3.8,5.3,38.8,5.3,56.3-20.6s27.4-30.5,36.5-29.7
	c9.1,0.8,32,12.9,38.1,44.2c6.1,31.2,15.2,39.6,38.1,46.4c22.8,6.9,48.7-10.7,55.6-21.3s45.7-38.8,72.3-39.6
	c26.6-0.8,54.8-0.8,80.7,25.1s40.3,27.4,45.7,31.2c5.3,3.8,30.5,12.2,41.9,41.9s22.1,48.7,32.7,51.8c10.7,3,24.4,12.9,33.5,39.6
	c9.1,26.6,61.7,146.2,67,154.5c5.3,8.4,62.4,35,72.3,38.8c9.9,3.8,43.4,19,49.5,24.4c6.1,5.3,76.1,58.6,76.9,63.9
	c0.8,5.3-0.8,90.6-2.3,94.4c-1.5,3.8-56.3,38.8-60.1,39.6s-12.9,0-21.3,16.7c-12.2,0-41.1,4.6-42.6,2.3
	c-1.5-2.3-15.2-13.7-25.1-16.7c-9.9-3-60.9-15.2-65.5-13.7c-4.6,1.5-0.8,25.9-9.1,25.9s-15.2-13.7-16-15.2c-0.8-1.5-1.5,0.8-3.8-1.5
	c-2.3-2.3-7.6-9.1-11.4-4.6c-3.8,4.6-6.9,4.6-6.1,6.9c0.8,2.3,0,0.8-3,1.5c-3,0.8-8.4,7.6-10.7,8.4c-2.3,0.8-9.9-3.8-16.7-1.5
	c-4.6-1.5-5.3-3-4.6-3.8c0.8-0.8,1.5-7.6-0.8-6.1c-2.3,1.5-7.6,5.3-10.7,4.6c-3-0.8-4.6-5.3-7.6-0.8c-3,0-16.7-3.8-14.5-0.8
	s6.1,3.8,3.8,5.3c-2.3,1.5-9.1,3.8-11.4,3.8c-2.3,0-6.1,6.1-7.6,3.8c-1.5-2.3-4.6-6.9-4.6-9.1c0-2.3-3.8-6.9-7.6-7.6
	s-0.8-3.8-0.8-4.6s-3-4.6-6.1-2.3s-4.6,3.8-3.8,6.1c-3,0-8.4-1.5-9.1,0.8c-0.8,2.3-4.6,0-5.3,0.8c-0.8,0.8-1.5,8.4-0.8,9.9
	c0.8,1.5-10.7,0-11.4-2.3c-0.8-2.3,1.5-27.4,1.5-27.4s-13.7,0.8-12.9-1.5c0.8-2.3,3.8-4.6,0-4.6s-6.1-1.5-7.6-3s-0.8,6.1-1.5,8.4
	c-0.8,2.3-9.9,0.8-9.9-0.8c0-1.5,1.5-5.3,1.5-5.3s-3-2.3-5.3,0c-2.3,2.3-2.3-3.8-2.3-5.3c0-1.5-6.1,6.9-7.6,2.3
	c-1.5-4.6-2.3-12.9-6.1-9.9s-3.8,6.9-6.9,6.1s-9.9,2.3-10.7,4.6s-2.3,9.9-5.3,8.4c2.3,3,4.6,4.6,3.8,6.9c-0.8,2.3-2.3,5.3-4.6,1.5
	c-2.3-3.8-5.3,4.6-4.6,6.9c0.8,2.3-5.3,6.1-5.3,7.6s6.1,5.3,6.9,6.9c0.8,1.5-2.3,2.3-1.5,5.3c-4.6,1.5-4.6-0.8-6.1,0
	c-1.5,0.8-3.8,4.6-7.6,2.3S594,713.7,592.5,713c-1.5-0.8-8.4,4.6-8.4,3.8s-2.3-4.6-5.3-3s-6.9,2.3-8.4,5.3c-1.5,3-12.2-3-12.2-6.1
	s2.3-5.3,3.8-5.3c1.5,0,4.6-2.3,4.6-2.3s0.8-4.6,2.3-6.1c-1.5-1.5-22.1-17.5-22.8-20.6c-0.8-3-0.8-3.8,1.5-3.8s3,0.8,3.8,0.8
	s5.3-5.3,5.3-6.1c0-0.8-7.6-6.9-8.4-8.4c-0.8-1.5,0-6.1,1.5-5.3c1.5,0.8,3.8,2.3,4.6,3c2.3-0.8,1.5-3.8,6.9-3
	c2.3-1.5-0.8-2.3-1.5-3.8c-0.8-1.5,0.8-3,2.3-3c1.5,0,2.3,2.3,3.8,2.3c1.5,0,6.9-9.1,9.1-8.4s3.8,3,5.3,2.3c1.5-0.8,6.1-3.8,3.8-5.3
	c-2.3-1.5-16-9.1-16-9.1s9.1-9.1-5.3-8.4c-2.3-1.5,9.9-7.6-1.5-14.5c0.8-3.8,0.8-6.9,2.3-8.4c1.5-1.5-4.6-3.8,0.8-7.6
	c-2.3-3.8-3-4.6,0-9.9c3-5.3,3-6.9,3-9.9c0-3,0-6.1-3-6.1s-4.6-0.8-3-2.3c-0.8-3.8-0.8-8.4,1.5-8.4c2.3,0,4.6-0.8,4.6-2.3
	c0-1.5,1.5-6.9,0-7.6c-1.5-0.8,3-4.6,2.3-7.6c-0.8-3-6.1-5.3-1.5-15.2c-2.3-3-7.6,0-9.1,0c-1.5,0,2.3-10.7,0-13.7
	c-2.3-3-0.8-4.6,0.8-4.6c1.5,0,6.1,2.3,5.3-0.8s0-5.3,0.8-6.9c0.8-1.5,1.5,0.8,0.8-1.5c-0.8-2.3,5.3-0.8,4.6-2.3s0-3,2.3-3
	c2.3,0,3,0,2.3-1.5c-0.8-1.5-4.6-5.3-7.6-4.6c-3,0.8-3.8,5.3-5.3,4.6c-1.5-0.8-6.1,0.8-7.6,0c-1.5-0.8,4.6-5.3,6.1-12.2
	c1.5-6.9-22.1,5.3-30.5,0c-2.3-1.5,0-6.1-3.8-7.6s-19.8-2.3-18.3-6.9c1.5-4.6,5.3-5.3,6.1-8.4c0.8-3-6.9-2.3-3-9.1
	c-4.6,0-4.6,0-6.1,0.8c-1.5,0.8,0.8-7.6-3-4.6c-3.8,3-8.4,1.5-9.1,6.1c-0.8,4.6,4.6,6.9,0,6.9c-4.6,0-4.6-3.8-7.6-3.8
	s-1.5,3-1.5,5.3c-2.3,2.3-4.6-3-7.6-1.5c-3,1.5-5.3,0-4.6,3c0.8,3-2.3,7.6-22.8,7.6c-6.9-1.5-8.4-10.7-8.4-12.9
	c0-2.3-0.8-8.4-4.6-8.4s-3.8-1.5-5.3-0.8s1.5-7.6-8.4-1.5c-9.9,6.1-12.2,2.3-12.2,0s-0.8-7.6-3-7.6c-2.3,0-19,7.6-19.8,1.5
	c-0.8-6.1,4.6-8.4,3.8-12.2c-0.8-3.8-4.6-4.6-9.1-0.8s-8.4,1.5-9.9-0.8c-1.5-2.3-6.9,3-10.7,6.1c-3.8,3-3-4.6-5.3-5.3
	c-2.3-0.8-5.3,1.5-6.1,1.5c-0.8,0-2.3-4.6-3-5.3c-0.8-0.8-8.4-2.3-10.7-1.5c-2.3,0.8-1.5-9.9-3-10.7c-1.5-0.8-1.5-0.8-3.8,0
	c-2.3,0.8-3-8.4-6.9-4.6c-3.8,3.8-5.3,6.9-6.1,4.6c-0.8-2.3-4.6,0.8-6.1,1.5c-1.5,0.8-6.9-7.6-6.1-9.9c0.8-2.3-1.5-3.8-3-2.3
	s-4.6,4.6-3,6.1c1.5,1.5-2.3,8.4,0,10.7c2.3,2.3-10.7,3.8-16,3c-0.8,5.3-2.3,9.1,3,12.2c5.3,3,3.8,6.1,6.9,10.7
	c3,4.6,9.1,9.1,9.9,12.2c0.8,3,3.8,19.8-9.9,21.3c-13.7,1.5-8.4-2.3-10.7-3.8c-2.3-1.5,3,9.9-0.8,9.1c-3.8-0.8-7.6-8.4-6.9-6.1
	c0.8,2.3,5.3,8.4-0.8,5.3s-3.8,0-4.6,2.3c-0.8,2.3-12.2-3-12.2-0.8s-2.3,9.1-0.8,10.7s6.1-0.8,6.1,3s-6.1,9.9-4.6,12.2
	c1.5,2.3-4.6,4.6-6.9,4.6S244.6,512,244.6,512z"/>
<path style="fill:none;stroke:#0F8BD1;stroke-width:2;stroke-miterlimit:10;stroke-dasharray:2;" d="M106.4,401.2l6.1,3l2.3,3
	c0,0,1.5-6.1,3-4.6c1.5,1.5,1.5-1.5,3.8-0.8c2.3,0.8,2.3,7.6,3.8,7.6c1.5,0,6.1-4.6,6.9-2.3c0.8,2.3,5.3,7.6,6.1,7.6s3-2.3,4.6-2.3
	s1.5,0,3.8,2.3c2.3,2.3,7.6-2.3,10.7-1.5c3,0.8,3,3,2.3,6.1s2.3,1.5,3,6.1c0.8,4.6-3,12.9,3.8,13.7c0,3-3.8,8.4-2.3,11.4
	c1.5,3,6.1,5.3,9.9,8.4c3.8,3,6.1,0.8,8.4,2.3c2.3,1.5,2.3,0,4.6,0.8c2.3,0.8,0,2.3,2.3,3.8c2.3,1.5,2.3-3,5.3,0
	c3,3,1.5-0.8,5.3,2.3c3.8,3,5.3-3.8,6.9-2.3s11.4,9.9,6.1,10.7c-5.3,0.8-10.7,1.5-6.9,9.1c0,2.3,5.3-2.3,6.9,0s-6.9,5.3-3.8,8.4
	c3,3,5.3,5.3,6.9,9.1c1.5,3.8-5.3,10.7,2.3,12.2c3.8,0,6.9,0,4.6,2.3c-2.3,2.3-3.8,3.8-1.5,6.1c-3,2.3-4.6,3.8-1.5,6.1
	c3,2.3,12.2,0.8,13.7,0.8"/>
<path style="fill:none;stroke:#0F8BD1;stroke-width:2;stroke-miterlimit:10;stroke-dasharray:2;" d="M159.2,414.3
	c1.7-2,0.9-7.3,3.2-7.3c2.3,0,4.6,0.8,5.3,0c0.8-0.8-4.6-1.5-1.5-5.3c3-3.8,6.1-1.5,5.3-3.8s-5.3-8.4-3.8-8.4c1.5,0,4.6-1.5,5.3,0
	c0.8,1.5,1.5-0.8,3-0.8s4.6,3.8,6.1,3c1.5-0.8-2.3-6.9,0-6.9s6.1,6.1,7.6,6.1c1.5,0,3.8,0,5.3,0c1.5,0-2.3-4.6,0-4.6
	c2.3,0,6.9,3,5.3,0c-1.5-3,1.5-9.9-1.5-9.1c-3,0.8-5.3-3.8-6.1-9.9c-0.8-6.1-0.8-15.2,0-16c0.8-0.8,19-3,19-3.8c0-0.8-3-3.8-3-6.1
	c0-2.3,8.4,0,11.4-4.6c3-4.6,3-9.9,1.5-10.7c-1.5-0.8-4.6-9.9-5.3-12.9c-0.8-3-3.8-2.3-1.5-5.3c2.3-3,4.6,1.5,5.3,0
	s-6.9-11.4-6.9-12.2c0-0.8-3.8-6.1-3.8-6.1s11.4-5.3,16.7-6.1c5.3-0.8,7.6-3,7.6-2.3c0,0.8-2.3,3,0,3.8c2.3,0.8,9.9-3,11.4-1.5
	s-2.3,4.6,0,6.1s5.3-1.5,6.9,0.8c1.5,2.3-2.3,4.6,7.6,3c3-0.8,0,2.3,3,3c3,0.8,2.3,3,6.1,5.3c3.8,2.3,5.3-5.3,7.6-4.6
	c2.3,0.8,3,5.3,7.6,3.8s0-5.3,0-6.1c0-0.8,9.9,2.3,9.9-0.8s-0.8-3-1.5-4.6c-0.8-1.5-2.3-6.9-2.3-6.9s14.5-12.9,16-12.2
	c1.5,0.8,7.6,13.7,8.4,15.2c0.8,1.5,3,3,5.3,5.3c2.3,2.3,2.3,3.8,7.6,2.3c5.3-1.5,1.5-9.9,6.1-8.4c4.6,1.5,0.8-1.5,8.4,0
	s2.3-16,0-19s-7.6,3-7.6,2.3c0-0.8-3-6.1-3-6.1s12.9-0.8,12.9-2.3s-1.5-13.7-3-14.5c-1.5-0.8-9.1-0.8-7.6-4.6s-1.5-11.4-0.8-14.5
	c0.8-3,5.3-9.1,3-9.9c-2.3-0.8-8.4,3-6.9-2.3s-1.5-7.6-1.5-7.6h-6.9c0,0,0-8.4-6.9-5.3c0.8,0-3-8.4-2.3-8.4c0.8,0,9.1-3,9.1-3.8
	s0.8-10.7-2.3-8.4c-3,2.3-25.9,20.6-28.2,21.3c-2.3,0.8-4.6,6.9-16.7,5.3c-1.5,1.5-2.3,6.9-3.8,5.3s-6.1,2.3-3.8,4.6
	c2.3,2.3,5.3,0-3.8-0.8c-9.1-0.8-1.5-5.3-12.9-3c-11.4,2.3-11.4,0.8-15.2,0s-6.9-1.5-6.9-1.5"/>
<path style="fill:none;stroke:#0F8BD1;stroke-width:2;stroke-miterlimit:10;stroke-dasharray:2;" d="M332.8,216.9
	c2.4-2.5,0.1-10.2,3.1-10.2c3,0,7.6,0.8,9.9,1.5c2.3,0.8-3-6.9,0-6.9s12.2,0.8,14.5,0.8c2.3,0-1.5-10.7,0-10.7c1.5,0,3,0,4.6,0
	s0.8,3,3,3.8s4.6-1.5,6.1-3.8c1.5-2.3,6.1-6.9,7.6-6.1c1.5,0.8,3,2.3,6.1,0c3-2.3,3,1.5,4.6,1.5s2.3-2.3,3.8-2.3s2.3-3,4.6-1.5
	c2.3,1.5,2.3-4.6,3-4.6c0.8,0,5.3,6.9,6.1,6.1c0.8-0.8,3-6.9,3-9.1c0-2.3-1.5-0.8-2.3-3c-0.8-2.3,7.6-13.7,9.1-13.7
	s21.3-11.4,21.3-11.4"/>
<path style="fill:none;stroke:#0F8BD1;stroke-width:2;stroke-miterlimit:10;stroke-dasharray:2;" d="M345.7,276.9
	c0,0,4.7-1.7,6.3-1.7s0,9.1,3,10.7c3,1.5,6.1-3,8.4-0.8c2.3,2.3,3.8,1.5,5.3,3.8s-10.7,6.9-8.4,8.4c2.3,1.5,5.3,2.3,6.1,3
	c0.8,0.8-0.8,3.8-0.8,4.6c0,0.8-8.4-2.3-8.4,0s-0.8,14.5-6.1,13.7c-5.3-0.8-8.4-4.6-9.9-4.6c-1.5,0-4.6,1.5-4.6,1.5s-0.8-3-3-2.3
	c-2.3,0.8-8.4,0-6.9,1.5c1.5,1.5,0.8,3,3,4.6s-21.3,6.1-18.3,9.9c3,3.8,5.3,6.1,2.3,7.6s-6.9,5.3-8.4,5.3s0,3,1.5,3.8
	c1.5,0.8,6.9-2.3,7.6-1.5c0.8,0.8-6.1,3-4.6,4.6s3,6.9,4.6,7.6c1.5,0.8,6.9-3.8,7.6-3.8c0.8,0,5.3-6.1,6.9-3c1.5,3,4.6-0.8,5.3,2.3
	c0.8,3,0.8,8.4,4.6,10.7s0.8,6.1,2.3,6.9c1.5,0.8,9.9-3.8,9.1-2.3c-0.8,1.5,5.3,4.6,6.1,6.1c0.8,1.5-0.8,22.1,5.3,32
	c1.5,1.5-7.6,1.5-10.7,1.5c-3,0,2.3,7.6-2.3,7.6s-4.6,3-4.6,3"/>
<path style="fill:none;stroke:#0F8BD1;stroke-width:2;stroke-miterlimit:10;stroke-dasharray:2;" d="M368.7,288.9
	c4.6,0,9.9-5.3,12.9-7.6c3-2.3,12.9-6.1,14.5-10.7c1.5-4.6,3.8,5.3,6.1,5.3c2.3,0,0.8-3.8,3-3.8s3.8,6.1,5.3,6.1s6.9-6.1,8.4-6.1
	s3,3,6.1,1.5c3-1.5,3.8,3,6.9,2.3c3-0.8,1.5-6.1,3-6.9c1.5-0.8,3.8-2.3,7.6-2.3s8.4-2.3,10.7-4.6c2.3-2.3,9.1-3,8.4-5.3
	c-0.8-2.3-9.1-7.6-8.4-10.7c0.8-3,2.3-4.6,4.6-3c2.3,1.5,4.6,5.3,6.1,6.1c1.5,0.8,6.1-4.6,8.4-3.8c2.3,0.8,3,4.6,5.3,3
	c2.3-1.5,6.9-9.9,9.9-7.6s12.9,11.4,16,11.4s13.7-6.9,16.7-6.9s6.1-0.8,7.6-1.5c1.5-0.8-0.8-7.6,0-9.1c0.8-1.5,18.3-4.6,20.6-3.8
	c2.3,0.8,0.8,3.8,2.3,4.6s68.5-22.1,88.3-19"/>
<path style="fill:none;stroke:#0F8BD1;stroke-width:2;stroke-miterlimit:10;stroke-dasharray:2;" d="M444.9,266.6c0,0,5.3,2.5,6,7.9
	c0.8,5.3,1.5,6.9,3,9.1c1.5,2.3,0.8,9.1,2.3,9.9c1.5,0.8,9.9-2.3,11.4,0c1.5,2.3-5.3,7.6-4.6,8.4c0.8,0.8,3,0,3.8,3
	c0.8,3,5.3,9.1,6.9,12.9s-3,3-0.8,6.1c2.3,3,6.9,6.1,3,7.6c-3.8,1.5-3.8,3-3,5.3c0.8,2.3-5.3,4.6-7.6,4.6c-2.3,0,2.3,1.5,1.5,4.6
	c-0.8,3-5.3,0-4.6,2.3c0.8,2.3,3.8,3.8,3,6.1c-0.8,2.3-12.2,3.8-12.2,6.1c0,2.3,3.8,12.2,6.1,12.9s14.5-3,15.2-1.5
	c0.8,1.5,2.3,2.3,0.8,3.8s-5.3,0.8-3,5.3c2.3,4.6,2.3,3,3.8,6.1c1.5,3,4.6,0.8,6.1,3c1.5,2.3,21.3-8.4,22.8-7.6
	c1.5,0.8,6.1,2.3,2.3,5.3s-12.9,4.6-12.9,6.9s-3,6.9-3,6.9s3,8.4,4.6,9.1c1.5,0.8,7.6-4.6,8.4-3c0.8,1.5,6.1,7.6,4.6,9.1
	s-8.4,3-8.4,3.8c0,0.8,1.5,3.8,1.5,3.8s-2.3,5.3-0.8,6.9s8.4-5.3,10.7-4.6c2.3,0.8,8.4,0.8,9.9-0.8c1.5-1.5,3,6.9,1.5,7.6
	c-1.5,0.8-6.1,0-5.3,1.5c0.8,1.5,3,9.9,3,9.9s-8.4,3-11.4,4.6"/>
<path style="fill:none;stroke:#0F8BD1;stroke-width:2;stroke-miterlimit:10;stroke-dasharray:2;" d="M673.3,129.3
	c-2.3,4.6-41.2,71.3-38.1,126.9s1.5,38.8,3.8,48c2.3,9.1,40.3,119.5,44.2,124.8c-12.9,2.3-31.2,9.9-33.5,10.7
	c-2.3,0.8-2.3-1.5-4.6-2.3c-2.3-0.8-45.7,16-44.9,18.3s3.8,10.7,1.5,11.4c-2.3,0.8-8.4-5.3-10.7-4.6c-2.3,0.8-9.9,4.6-8.4,7.6
	c1.5,3-5.3,5.3-3,6.9c2.3,1.5-3,4.6-4.6,5.3c-1.5,0.8-3.8,6.1-3.8,6.1"/>
<path style="fill:none;stroke:#0F8BD1;stroke-width:2;stroke-miterlimit:10;stroke-dasharray:2;" d="M561.3,615.5
	c0,0,6.9-9.1,9.9-9.9s11.4,2.3,13.7,2.3c2.3,0,8.4,6.1,11.4,5.3c3-0.8,1.5-3.8-3-6.9c-4.6-3,3.8-5.3,5.3-6.9
	c1.5-1.5-0.8-8.4,4.6-5.3c12.2,9.1,12.2-0.8,12.9,0.8c0.8,1.5,4.6,2.3,6.1,1.5c1.5-0.8,5.3-1.5,6.9-2.3c1.5-0.8,6.1,4.6,7.6,7.6
	c1.5,3-3.8,2.3-1.5,6.9s8.4,0,9.9-1.5c-6.9-1.5,2.3-4.6,0-6.1c-2.3-1.5-2.3-6.9-2.3-8.4c0-1.5,0.8-14.5,0-16
	c-0.8-1.5,9.1,3.8,10.7,3c1.5-0.8,11.4-16,11.4-16s2.3,3,5.3,2.3s5.3-6.9,7.6-7.6c2.3-0.8-0.8-4.6,0-7.6c0.8-3,12.9-16,16.7-16.7
	s17.5-14.5,20.6-15.2c3-0.8,0-7.6-2.3-10.7c-2.3-3-35-78-35-78"/>
<path style="fill:none;stroke:#0F8BD1;stroke-width:2;stroke-miterlimit:10;stroke-dasharray:2;" d="M715,518.8
	c2.3,2.3,51,76.1,68.5,79.9c0,0,8.9-15.9,12.2-19.5s9.1-11.4,10.7-13.7c1.5-2.3,8.6-10.8,10.5-12.7s7.2-6.5,10-7.2
	c2.8-0.8,10.5-1.9,14.8-2c4.3-0.1,8.5-3.6,16.2-2.7c7.7,0.9,8.5,1.6,11.5,1.1c3-0.5,39.2-16.4,42.6-19.2
	c3.4-2.9,20.2-15.8,23.2-20.7s12.6-21.4,12.6-21.4"/>
<path style="fill:none;stroke:#0F8BD1;stroke-width:2;stroke-miterlimit:10;stroke-dasharray:2;" d="M244.6,512
	c-2.3-0.8-6.9-2.3-10.7,2.3s1.5,7.6,1.5,11.4s-8.4,2.3-6.9,3.8c1.5,1.5,3,6.1,3,6.9c3,0,5.3,1.5,6.1,3.8c0.8,2.3,0,6.1,0,8.4
	s1.5,2.3,2.3,3.8s3,5.3,2.3,6.9c1.5,1.5,6.9,2.3,6.1,3.8c-0.8,1.5-4.6,3.8-3.8,11.4c-1.5,2.3-2.3,0.8-3.8-9.1c0-2.3-5.3-2.3-6.1-3
	s-3.8,1.5-3,3.8s2.3,3.8,3.8,4.6c1.5,0.8,2.3,6.9,0,6.9c-2.3,0-6.1,3-5.3,7.6c-1.5,2.3-5.3,3-6.9,3c-1.5,0-1.5,2.3-3,2.3
	c-1.5,0-3-6.1-4.6-6.1s-8.4,2.3-10.7-1.5c-3,1.5-10.7,11.4-28.9,3c-3.8,0.8-9.9,4.6-12.9,4.6c-3,0-8.4,0.8-10.7-1.5
	c-2.3,3-9.9,5.3-12.9,10.7c-3,5.3,0.8,4.6-3,5.3c-3.8,0.8-9.9,3-9.1,4.6c-0.8,2.3-3.8,0-6.9,0s-6.9,2.3-9.1,0.8
	c-3,1.5-19,4.6-18.3-9.1c-3-6.1-6.1-14.5-3.8-18.3c-3.8-3-10.7-3.8-15.2,2.3c-0.8,2.3-9.1,3-9.9,0.8c-0.8-2.3-3-2.3-3-4.6
	c0-2.3-8.4,3-8.4,0s4.6-9.9,3-12.2c-1.5-2.3-11.4,3.8-19,1.5c-3,2.3-22.8-6.1-22.8-10.7s3.8-2.3,3-6.1s-6.1-12.2-9.1-12.2
	s-4.6-3.8-3-3.8s3-3.8,1.5-3.8s-5.3-1.5-0.8-3c4.6-1.5,23.6-8.4,28.9-14.5s20.6-18.3,28.2-22.8c7.6-4.6,10.7-19,9.1-21.3
	c-1.5-2.3-1.5-10.7-12.2-14.5s-3-8.4-0.8-10.7c2.3-2.3,6.1-0.8,8.4-2.3s5.3-1.5,10.7-3.8c0.8-3.8,2.3-6.1,11.4-6.9
	c7.6-4.6,10.7-11.4,12.9-14.5c2.3-3,6.9-11.4,6.1-32.7c-0.8-21.3,6.9-18.3,8.4-22.1c1.5-3.8-1.5-8.4-8.4-8.4
	c-2.3-2.3-9.1-2.3-13.7-2.3c-4.6,0-5.3-6.1-2.3-8.4c3-2.3,14.5-4.6,12.2-21.3c-3-5.3-9.1-6.1-6.1-9.9c3-3.8,9.1-6.1,17.5-10.7
	c4.6-1.5,2.3-6.9,2.3-9.9s5.3-0.8,3.8-5.3c-1.5-4.6,2.3-3.8-16.7-9.1c-14.5-4.6-3.8-19,0.8-16.7c3-0.8,6.1-2.3,11.4,0
	s12.2-1.5,16.7,3c3.8-0.8,5.3-3.8,8.4-4.6c-2.3-7.6-2.3-20.6-6.1-20.6c-3.8,0-6.1-9.9-6.1-14.5c0-4.6-4.6-12.9-19-19.8
	s-3,11.4-31.2-21.3c-3-2.3-7.6,5.3-9.1-12.9c-9.9-9.9-9.1-9.1-9.9-11.4c-0.8-2.3,7.6-0.8,12.9,0c5.3,0.8,12.9,2.3,19,5.3
	c6.1,3,24.4-5.3,26.6-7.6c2.3-2.3,13.7-7.6,28.9,5.3c15.2,12.9,22.1,25.1,26.6,45.7s9.1,32,22.8,26.6c13.7-5.3,34.3-20.6,35-28.2
	c0.8-7.6,3-19.8-14.5-37.3s-3-40.3,4.6-45.7c7.6-5.3,14.5-13.7,27.4-14.5c12.9-0.8,44.9,12.2,48.7,17.5c3.8,5.3,38.8,5.3,56.3-20.6
	s27.4-30.5,36.5-29.7c9.1,0.8,32,12.9,38.1,44.2c6.1,31.2,15.2,39.6,38.1,46.4c22.8,6.9,48.7-10.7,55.6-21.3s45.7-38.8,72.3-39.6
	c26.6-0.8,54.8-0.8,80.7,25.1s40.3,27.4,45.7,31.2c5.3,3.8,30.5,12.2,41.9,41.9s22.1,48.7,32.7,51.8c10.7,3,24.4,12.9,33.5,39.6
	c9.1,26.6,61.7,146.2,67,154.5c5.3,8.4,62.4,35,72.3,38.8c9.9,3.8,43.4,19,49.5,24.4c6.1,5.3,76.1,58.6,76.9,63.9
	c0.8,5.3-0.8,90.6-2.3,94.4c-1.5,3.8-56.3,38.8-60.1,39.6s-12.9,0-21.3,16.7c-12.2,0-41.1,4.6-42.6,2.3
	c-1.5-2.3-15.2-13.7-25.1-16.7c-9.9-3-60.9-15.2-65.5-13.7c-4.6,1.5-0.8,25.9-9.1,25.9s-15.2-13.7-16-15.2c-0.8-1.5-1.5,0.8-3.8-1.5
	c-2.3-2.3-7.6-9.1-11.4-4.6c-3.8,4.6-6.9,4.6-6.1,6.9c0.8,2.3,0,0.8-3,1.5c-3,0.8-8.4,7.6-10.7,8.4c-2.3,0.8-9.9-3.8-16.7-1.5
	c-4.6-1.5-5.3-3-4.6-3.8c0.8-0.8,1.5-7.6-0.8-6.1c-2.3,1.5-7.6,5.3-10.7,4.6c-3-0.8-4.6-5.3-7.6-0.8c-3,0-16.7-3.8-14.5-0.8
	s6.1,3.8,3.8,5.3c-2.3,1.5-9.1,3.8-11.4,3.8c-2.3,0-6.1,6.1-7.6,3.8c-1.5-2.3-4.6-6.9-4.6-9.1c0-2.3-3.8-6.9-7.6-7.6
	s-0.8-3.8-0.8-4.6s-3-4.6-6.1-2.3s-4.6,3.8-3.8,6.1c-3,0-8.4-1.5-9.1,0.8c-0.8,2.3-4.6,0-5.3,0.8c-0.8,0.8-1.5,8.4-0.8,9.9
	c0.8,1.5-10.7,0-11.4-2.3c-0.8-2.3,1.5-27.4,1.5-27.4s-13.7,0.8-12.9-1.5c0.8-2.3,3.8-4.6,0-4.6s-6.1-1.5-7.6-3s-0.8,6.1-1.5,8.4
	c-0.8,2.3-9.9,0.8-9.9-0.8c0-1.5,1.5-5.3,1.5-5.3s-3-2.3-5.3,0c-2.3,2.3-2.3-3.8-2.3-5.3c0-1.5-6.1,6.9-7.6,2.3
	c-1.5-4.6-2.3-12.9-6.1-9.9s-3.8,6.9-6.9,6.1s-9.9,2.3-10.7,4.6s-2.3,9.9-5.3,8.4c2.3,3,4.6,4.6,3.8,6.9c-0.8,2.3-2.3,5.3-4.6,1.5
	c-2.3-3.8-5.3,4.6-4.6,6.9c0.8,2.3-5.3,6.1-5.3,7.6s6.1,5.3,6.9,6.9c0.8,1.5-2.3,2.3-1.5,5.3c-4.6,1.5-4.6-0.8-6.1,0
	c-1.5,0.8-3.8,4.6-7.6,2.3S594,713.7,592.5,713c-1.5-0.8-8.4,4.6-8.4,3.8s-2.3-4.6-5.3-3s-6.9,2.3-8.4,5.3c-1.5,3-12.2-3-12.2-6.1
	s2.3-5.3,3.8-5.3c1.5,0,4.6-2.3,4.6-2.3s0.8-4.6,2.3-6.1c-1.5-1.5-22.1-17.5-22.8-20.6c-0.8-3-0.8-3.8,1.5-3.8s3,0.8,3.8,0.8
	s5.3-5.3,5.3-6.1c0-0.8-7.6-6.9-8.4-8.4c-0.8-1.5,0-6.1,1.5-5.3c1.5,0.8,3.8,2.3,4.6,3c2.3-0.8,1.5-3.8,6.9-3
	c2.3-1.5-0.8-2.3-1.5-3.8c-0.8-1.5,0.8-3,2.3-3c1.5,0,2.3,2.3,3.8,2.3c1.5,0,6.9-9.1,9.1-8.4s3.8,3,5.3,2.3c1.5-0.8,6.1-3.8,3.8-5.3
	c-2.3-1.5-16-9.1-16-9.1s9.1-9.1-5.3-8.4c-2.3-1.5,9.9-7.6-1.5-14.5c0.8-3.8,0.8-6.9,2.3-8.4c1.5-1.5-4.6-3.8,0.8-7.6
	c-2.3-3.8-3-4.6,0-9.9c3-5.3,3-6.9,3-9.9c0-3,0-6.1-3-6.1s-4.6-0.8-3-2.3c-0.8-3.8-0.8-8.4,1.5-8.4c2.3,0,4.6-0.8,4.6-2.3
	c0-1.5,1.5-6.9,0-7.6c-1.5-0.8,3-4.6,2.3-7.6c-0.8-3-6.1-5.3-1.5-15.2c-2.3-3-7.6,0-9.1,0c-1.5,0,2.3-10.7,0-13.7
	c-2.3-3-0.8-4.6,0.8-4.6c1.5,0,6.1,2.3,5.3-0.8s0-5.3,0.8-6.9c0.8-1.5,1.5,0.8,0.8-1.5c-0.8-2.3,5.3-0.8,4.6-2.3s0-3,2.3-3
	c2.3,0,3,0,2.3-1.5c-0.8-1.5-4.6-5.3-7.6-4.6c-3,0.8-3.8,5.3-5.3,4.6c-1.5-0.8-6.1,0.8-7.6,0c-1.5-0.8,4.6-5.3,6.1-12.2
	c1.5-6.9-22.1,5.3-30.5,0c-2.3-1.5,0-6.1-3.8-7.6s-19.8-2.3-18.3-6.9c1.5-4.6,5.3-5.3,6.1-8.4c0.8-3-6.9-2.3-3-9.1
	c-4.6,0-4.6,0-6.1,0.8c-1.5,0.8,0.8-7.6-3-4.6c-3.8,3-8.4,1.5-9.1,6.1c-0.8,4.6,4.6,6.9,0,6.9c-4.6,0-4.6-3.8-7.6-3.8
	s-1.5,3-1.5,5.3c-2.3,2.3-4.6-3-7.6-1.5c-3,1.5-5.3,0-4.6,3c0.8,3-2.3,7.6-22.8,7.6c-6.9-1.5-8.4-10.7-8.4-12.9
	c0-2.3-0.8-8.4-4.6-8.4s-3.8-1.5-5.3-0.8s1.5-7.6-8.4-1.5c-9.9,6.1-12.2,2.3-12.2,0s-0.8-7.6-3-7.6c-2.3,0-19,7.6-19.8,1.5
	c-0.8-6.1,4.6-8.4,3.8-12.2c-0.8-3.8-4.6-4.6-9.1-0.8s-8.4,1.5-9.9-0.8c-1.5-2.3-6.9,3-10.7,6.1c-3.8,3-3-4.6-5.3-5.3
	c-2.3-0.8-5.3,1.5-6.1,1.5c-0.8,0-2.3-4.6-3-5.3c-0.8-0.8-8.4-2.3-10.7-1.5c-2.3,0.8-1.5-9.9-3-10.7c-1.5-0.8-1.5-0.8-3.8,0
	c-2.3,0.8-3-8.4-6.9-4.6c-3.8,3.8-5.3,6.9-6.1,4.6c-0.8-2.3-4.6,0.8-6.1,1.5c-1.5,0.8-6.9-7.6-6.1-9.9c0.8-2.3-1.5-3.8-3-2.3
	s-4.6,4.6-3,6.1c1.5,1.5-2.3,8.4,0,10.7c2.3,2.3-10.7,3.8-16,3c-0.8,5.3-2.3,9.1,3,12.2c5.3,3,3.8,6.1,6.9,10.7
	c3,4.6,9.1,9.1,9.9,12.2c0.8,3,3.8,19.8-9.9,21.3c-13.7,1.5-8.4-2.3-10.7-3.8c-2.3-1.5,3,9.9-0.8,9.1c-3.8-0.8-7.6-8.4-6.9-6.1
	c0.8,2.3,5.3,8.4-0.8,5.3s-3.8,0-4.6,2.3c-0.8,2.3-12.2-3-12.2-0.8s-2.3,9.1-0.8,10.7s6.1-0.8,6.1,3s-6.1,9.9-4.6,12.2
	c1.5,2.3-4.6,4.6-6.9,4.6S244.6,512,244.6,512z"/>
<g style="opacity:0.8;enable-background:new    ;">
	<path style="fill:#FFFFFF;" d="M105.1,532.1c-1.2,2.2-2.6,4.4-4.1,6.2l9-0.7c-0.7-1.1-1.5-2.3-2.3-3.3l1.2-0.6
		c1.5,2,3.3,4.6,4.2,6.3l-1.2,0.8c-0.3-0.5-0.6-1.2-1.1-1.9c-9.8,0.9-10.9,0.9-11.6,1.2c-0.1-0.3-0.3-1.1-0.5-1.5
		c0.4-0.1,0.8-0.6,1.4-1.3c0.5-0.6,2-2.8,3.2-5.1h-5.6v-1.4h15.9v1.4H105.1z M111.7,527.1H99.6v-1.4h12.1V527.1z"/>
	<path style="fill:#FFFFFF;" d="M122.1,532c-0.5,0.8-1,1.6-1.6,2.4h9.9v6.3H129V540h-8.5v0.8h-1.3V536c-0.9,0.9-2,1.7-3.2,2.4
		c-0.2-0.3-0.6-0.8-0.8-1.1c2.3-1.2,4.2-3.2,5.3-5.3h-4.8v-1.3h15.9v1.3H122.1z M130.4,528.9h-13.5v-3.8h1.3v2.6h4.7v-3.4h1.4v3.4
		h4.8v-2.6h1.4V528.9z M129,535.7h-8.5v3.1h8.5V535.7z"/>
	<path style="fill:#FFFFFF;" d="M137.3,530.7c0,0.8,0,1.6-0.1,2.4h8.8v7.6h-1.4v-6.2h-7.6c-0.3,2.3-1,4.4-2.6,6.2
		c-0.2-0.3-0.7-0.8-1-1c2.3-2.5,2.5-5.9,2.5-9v-6h1.4v4.2h5.1v-4.6h1.4v4.6h5v1.4h-11.5V530.7z"/>
	<path style="fill:#FFFFFF;" d="M167.7,538.9v1.3h-15.3v-14.9h14.8v1.3h-13.5v12.4H167.7z M164.5,537.6c-0.9-1.1-2.3-2.6-3.9-4.1
		c-1.5,1.6-3.2,3-4.8,4.1c-0.2-0.3-0.7-0.8-1.1-1c1.7-1,3.5-2.4,5-4c-1.5-1.4-3-2.7-4.4-3.9l0.9-0.8c1.4,1.1,2.9,2.4,4.3,3.7
		c1.2-1.4,2.3-2.8,3.2-4.4l1.2,0.5c-1,1.7-2.2,3.3-3.5,4.7c1.6,1.5,3.1,2.9,4,4.1L164.5,537.6z"/>
</g>
<g style="opacity:0.8;enable-background:new    ;">
	<path style="fill:#FFFFFF;" d="M224.8,383.1c-0.7-0.5-2.2-1.4-3.3-1.9l0.7-1c1.1,0.5,2.6,1.3,3.3,1.8L224.8,383.1z M222.1,390.4
		c1-1.4,2.4-3.7,3.4-5.7l1,0.9c-1,1.9-2.2,4.1-3.3,5.8L222.1,390.4z M223.3,375.4c1.1,0.6,2.5,1.4,3.2,2l-0.8,1
		c-0.7-0.6-2.1-1.5-3.2-2.1L223.3,375.4z M237.9,389v1.3h-11.3V389h4.8v-10.9h-3.9v-1.3h9.5v1.3h-4.2V389H237.9z"/>
	<path style="fill:#FFFFFF;" d="M254.7,378.8v12.7h-1.4v-1.3h-12.7v-11.3h1.4v10h4.9v-13.5h1.4v13.5h5v-10H254.7z"/>
	<path style="fill:#FFFFFF;" d="M261.4,381.5c0,0.8,0,1.6-0.1,2.4h8.8v7.6h-1.4v-6.2h-7.6c-0.3,2.3-1,4.4-2.6,6.2
		c-0.2-0.3-0.7-0.8-1-1c2.3-2.5,2.5-5.9,2.5-9v-6h1.4v4.2h5.1v-4.6h1.4v4.6h5v1.4h-11.5V381.5z"/>
	<path style="fill:#FFFFFF;" d="M291.8,389.7v1.3h-15.3v-14.9h14.8v1.3h-13.5v12.4H291.8z M288.6,388.5c-0.9-1.1-2.3-2.6-3.9-4.1
		c-1.5,1.6-3.2,3-4.8,4.1c-0.2-0.3-0.7-0.8-1.1-1c1.7-1,3.5-2.4,5-4c-1.5-1.4-3-2.7-4.4-3.9l0.9-0.8c1.4,1.1,2.9,2.4,4.3,3.7
		c1.2-1.4,2.3-2.8,3.2-4.4l1.2,0.5c-1,1.7-2.2,3.3-3.5,4.7c1.6,1.5,3.1,2.9,4,4.1L288.6,388.5z"/>
</g>
<g style="opacity:0.8;enable-background:new    ;">
	<path style="fill:#FFFFFF;" d="M140.3,311.4c-0.6-0.6-1.9-1.3-2.9-1.8l0.7-1c1,0.4,2.3,1.1,3,1.7L140.3,311.4z M137.7,319.2
		c0.7-1.4,1.7-3.7,2.5-5.7l1.1,0.7c-0.7,1.9-1.6,4.1-2.4,5.7L137.7,319.2z M140.9,306.7c-0.6-0.6-1.8-1.4-2.8-1.9l0.7-0.9
		c1,0.5,2.3,1.2,2.9,1.8L140.9,306.7z M143,317.7v1.4h-1.2v-7.2h2.1v-3.2h-2.7v-1.2h2.7v-3.3h1.2v3.3h2.4v1.2h-2.4v3.2h1.9v5.8H143z
		 M143,313v3.5h2.8V313H143z M153.3,318.5c0,0.7-0.2,1-0.6,1.2c-0.5,0.2-1.2,0.2-2.4,0.2c-0.1-0.3-0.2-0.8-0.4-1.1
		c0.8,0,1.6,0,1.8,0c0.3,0,0.3-0.1,0.3-0.4v-4.3h-2.7c-0.2,2.1-0.8,4.4-2.3,6c-0.2-0.2-0.7-0.6-1-0.7c2-2.1,2.2-5.3,2.2-7.8v-7.3h5
		V318.5z M152,312.9v-3.1h-2.6v1.8c0,0.4,0,0.9,0,1.3H152z M149.5,305.5v3.1h2.6v-3.1H149.5z"/>
	<path style="fill:#FFFFFF;" d="M171.6,306.5v1.2h-16v-1.2h4.4c-0.3-0.7-1-1.7-1.6-2.4l1.2-0.5c0.7,0.8,1.5,1.8,1.8,2.5l-0.9,0.3
		h5.4c0.6-0.9,1.3-2.1,1.7-2.9l1.4,0.5c-0.5,0.8-1.1,1.7-1.6,2.4H171.6z M163.3,318.5c0,0.7-0.2,1-0.6,1.2c-0.5,0.2-1.3,0.2-2.5,0.2
		c-0.1-0.3-0.3-0.8-0.4-1.2c0.9,0,1.7,0,1.9,0c0.3,0,0.3-0.1,0.3-0.3v-2.4h-4v3.9h-1.3v-10.7h6.6V318.5z M158,310.5v1.8h4v-1.8H158z
		 M162,315.1v-1.8h-4v1.8H162z M166.7,316.8h-1.2v-7.3h1.2V316.8z M169.1,309h1.3v9.5c0,0.8-0.2,1.2-0.7,1.4
		c-0.6,0.2-1.5,0.3-2.8,0.2c-0.1-0.4-0.3-0.9-0.5-1.3c1.1,0,2.1,0,2.3,0c0.3,0,0.4-0.1,0.4-0.4V309z"/>
	<path style="fill:#FFFFFF;" d="M177.3,310.1c0,0.8,0,1.6-0.1,2.4h8.8v7.6h-1.4v-6.2H177c-0.3,2.3-1,4.4-2.6,6.2
		c-0.2-0.3-0.7-0.8-1-1c2.3-2.5,2.5-5.9,2.5-9v-6h1.4v4.2h5.1v-4.6h1.4v4.6h5v1.4h-11.5V310.1z"/>
	<path style="fill:#FFFFFF;" d="M207.7,318.3v1.3h-15.3v-14.9h14.8v1.3h-13.5v12.4H207.7z M204.5,317c-0.9-1.1-2.3-2.6-3.9-4.1
		c-1.5,1.6-3.2,3-4.8,4.1c-0.2-0.3-0.7-0.8-1.1-1c1.7-1,3.5-2.4,5-4c-1.5-1.4-3-2.7-4.4-3.9l0.9-0.8c1.4,1.1,2.9,2.4,4.3,3.7
		c1.2-1.4,2.3-2.8,3.2-4.4l1.2,0.5c-1,1.7-2.2,3.3-3.5,4.7c1.6,1.5,3.1,2.9,4,4.1L204.5,317z"/>
</g>
<g style="opacity:0.8;enable-background:new    ;">
	<path style="fill:#FFFFFF;" d="M317.1,169c-0.7-0.6-2.2-1.5-3.3-2.1l0.8-0.8c1.1,0.5,2.6,1.4,3.3,2L317.1,169z M314.3,176.1
		c1-1.4,2.5-3.7,3.6-5.7l0.9,0.9c-1,1.9-2.3,4.1-3.4,5.7L314.3,176.1z M317.9,164.3c-0.7-0.6-2.1-1.6-3.2-2.2l0.8-0.8
		c1.1,0.6,2.5,1.5,3.3,2.1L317.9,164.3z M329.2,167.4c0.3,0,0.6,0,0.8-0.1c0,0.3,0.1,0.8,0.1,1.1c-0.2,0.1-0.6,0.1-0.9,0.1h-1.4
		c-1.2,0-1.5-0.5-1.5-1.8v-3.7h-3.8v0.7c0,1.9-0.6,4.2-3.2,5.7c-0.2-0.3-0.6-0.8-0.9-1c2.3-1.4,2.7-3.2,2.7-4.7v-1.9h6.4v5
		c0,0.5,0,0.7,0.3,0.7H329.2z M320.2,169.6h8.6v7.7h-1.3v-1h-6v1.1h-1.3V169.6z M321.5,170.8v4.2h6v-4.2H321.5z"/>
	<path style="fill:#FFFFFF;" d="M335.2,168.9c-0.7-0.5-2.2-1.4-3.3-1.9l0.7-1c1.1,0.5,2.6,1.3,3.3,1.8L335.2,168.9z M332.5,176.2
		c1-1.4,2.4-3.7,3.4-5.7l1,0.9c-1,1.9-2.2,4.1-3.3,5.8L332.5,176.2z M333.6,161.1c1.1,0.6,2.5,1.4,3.2,2l-0.8,1
		c-0.7-0.6-2.1-1.5-3.2-2.1L333.6,161.1z M348.3,174.8v1.3H337v-1.3h4.8v-10.9h-3.9v-1.3h9.5v1.3h-4.2v10.9H348.3z"/>
	<path style="fill:#FFFFFF;" d="M353.7,167.3c0,0.8,0,1.6-0.1,2.4h8.8v7.6h-1.4v-6.2h-7.6c-0.3,2.3-1,4.4-2.6,6.2
		c-0.2-0.3-0.7-0.8-1-1c2.3-2.5,2.5-5.9,2.5-9v-6h1.4v4.2h5.1v-4.6h1.4v4.6h5v1.4h-11.5V167.3z"/>
	<path style="fill:#FFFFFF;" d="M384.1,175.5v1.3h-15.3v-14.9h14.8v1.3h-13.5v12.4H384.1z M380.9,174.2c-0.9-1.1-2.3-2.6-3.9-4.1
		c-1.5,1.6-3.2,3-4.8,4.1c-0.2-0.3-0.7-0.8-1.1-1c1.7-1,3.5-2.4,5-4c-1.5-1.4-3-2.7-4.4-3.9l0.9-0.8c1.4,1.1,2.9,2.4,4.3,3.7
		c1.2-1.4,2.3-2.8,3.2-4.4l1.2,0.5c-1,1.7-2.2,3.3-3.5,4.7c1.6,1.5,3.1,2.9,4,4.1L380.9,174.2z"/>
</g>
<g style="opacity:0.8;enable-background:new    ;">
	<path style="fill:#FFFFFF;" d="M558.1,207.7c0.7,0,0.9-0.4,0.9-2.1c0.3,0.2,0.9,0.5,1.2,0.5c-0.2,2.1-0.6,2.8-2.1,2.8h-3.4
		c-1.8,0-2.3-0.5-2.3-2.1c-1,0.7-1.9,1.2-3,1.7c-0.2-0.3-0.6-0.8-0.9-1c1.4-0.6,2.7-1.4,3.9-2.3v-6.7h-2c-0.6,5-2.1,8.4-5.8,10.6
		c-0.2-0.3-0.7-0.9-1-1.1c3.4-1.9,4.8-5,5.4-9.5H544v-1.3h5.2c0.1-1.3,0.2-2.8,0.3-4.3l1.4,0.1c-0.1,1.5-0.1,2.9-0.3,4.2h9.3v1.3
		h-6.1v5.6c1.5-1.4,2.8-3,3.7-4.7l1.2,0.5c-1.2,2.2-2.9,4.2-4.9,5.8v1c0,0.7,0.1,0.8,1,0.8H558.1z M557,196.8
		c-0.7-0.7-2.1-1.9-3.2-2.7l0.9-0.7c1.1,0.8,2.6,1.9,3.3,2.6L557,196.8z"/>
	<path style="fill:#FFFFFF;" d="M565.1,201.1c-0.7-0.5-2.2-1.4-3.3-1.9l0.7-1c1.1,0.5,2.6,1.3,3.3,1.8L565.1,201.1z M562.4,208.3
		c1-1.4,2.4-3.7,3.4-5.7l1,0.9c-1,1.9-2.2,4.1-3.3,5.8L562.4,208.3z M563.6,193.3c1.1,0.6,2.5,1.4,3.2,2l-0.8,1
		c-0.7-0.6-2.1-1.5-3.2-2.1L563.6,193.3z M578.2,207v1.3h-11.3V207h4.8v-10.9h-3.9v-1.3h9.5v1.3H573V207H578.2z"/>
	<path style="fill:#FFFFFF;" d="M583.7,199.5c0,0.8,0,1.6-0.1,2.4h8.8v7.6H591v-6.2h-7.6c-0.3,2.3-1,4.4-2.6,6.2
		c-0.2-0.3-0.7-0.8-1-1c2.3-2.5,2.5-5.9,2.5-9v-6h1.4v4.2h5.1v-4.6h1.4v4.6h5v1.4h-11.5V199.5z"/>
	<path style="fill:#FFFFFF;" d="M614.1,207.7v1.3h-15.3V194h14.8v1.3h-13.5v12.4H614.1z M610.9,206.4c-0.9-1.1-2.3-2.6-3.9-4.1
		c-1.5,1.6-3.2,3-4.8,4.1c-0.2-0.3-0.7-0.8-1.1-1c1.7-1,3.5-2.4,5-4c-1.5-1.4-3-2.7-4.4-3.9l0.9-0.8c1.4,1.1,2.9,2.4,4.3,3.7
		c1.2-1.4,2.3-2.8,3.2-4.4l1.2,0.5c-1,1.7-2.2,3.3-3.5,4.7c1.6,1.5,3.1,2.9,4,4.1L610.9,206.4z"/>
</g>
<g style="opacity:0.8;enable-background:new    ;">
	<path style="fill:#FFFFFF;" d="M390.9,385.2h-7.4v6.3h-1.4v-6.3h-7.3v-1.3h7.3v-6.3h-6.3v-1.3h14.1v1.3h-6.4v6.3h7.4V385.2z
		 M378.2,378.5c0.7,1.3,1.5,3,1.7,4.1l-1.3,0.4c-0.3-1.1-0.9-2.8-1.6-4.1L378.2,378.5z M385.5,382.7c0.7-1.1,1.5-3,1.9-4.2l1.4,0.4
		c-0.6,1.4-1.5,3.2-2.2,4.2L385.5,382.7z"/>
	<path style="fill:#FFFFFF;" d="M395.3,377.7c-0.5,0.8-1.1,1.6-1.7,2.2c-0.2-0.2-0.8-0.6-1.1-0.8c1.1-1,2.1-2.6,2.7-4.2l1.3,0.3
		c-0.2,0.4-0.3,0.8-0.6,1.3h4.7v1.1h-3.3c0.3,0.6,0.5,1.2,0.6,1.6l-1.2,0.4c-0.1-0.5-0.5-1.4-0.8-2H395.3z M405.2,384.3v1.6h3.4v1.2
		h-3.4v2.9c0,0.8-0.2,1.1-0.8,1.4c-0.6,0.2-1.6,0.2-3.1,0.2c-0.1-0.4-0.3-0.9-0.5-1.3c1.2,0,2.3,0,2.6,0c0.3,0,0.4-0.1,0.4-0.3v-2.9
		h-10.5v-1.2h10.5v-1.6h-11v-1.2h7.4v-1.6h-5.6v-1.1h5.6v-1.2c-0.2-0.1-0.4-0.2-0.5-0.3c1.1-0.9,2.1-2.4,2.6-3.9l1.3,0.3
		c-0.2,0.5-0.3,0.9-0.5,1.3h5.8v1.1H405c0.4,0.6,0.8,1.2,1,1.6l-1.2,0.5c-0.2-0.6-0.7-1.5-1.3-2.1h-1.2c-0.3,0.5-0.7,1-1.1,1.4h0.3
		v1.2h5.8v1.1h-5.8v1.6h7.5v1.2H405.2z M396.9,387.1c1.1,0.7,2.5,1.8,3.1,2.7l-1,0.8c-0.6-0.8-1.9-2-3-2.8L396.9,387.1z"/>
	<path style="fill:#FFFFFF;" d="M414.5,381.5c0,0.8,0,1.6-0.1,2.4h8.8v7.6h-1.4v-6.2h-7.6c-0.3,2.3-1,4.4-2.6,6.2
		c-0.2-0.3-0.7-0.8-1-1c2.3-2.5,2.5-5.9,2.5-9v-6h1.4v4.2h5.1v-4.6h1.4v4.6h5v1.4h-11.5V381.5z"/>
	<path style="fill:#FFFFFF;" d="M444.9,389.7v1.3h-15.3v-14.9h14.8v1.3H431v12.4H444.9z M441.7,388.5c-0.9-1.1-2.3-2.6-3.9-4.1
		c-1.5,1.6-3.2,3-4.8,4.1c-0.2-0.3-0.7-0.8-1.1-1c1.7-1,3.5-2.4,5-4c-1.5-1.4-3-2.7-4.4-3.9l0.9-0.8c1.4,1.1,2.9,2.4,4.3,3.7
		c1.2-1.4,2.3-2.8,3.2-4.4l1.2,0.5c-1,1.7-2.2,3.3-3.5,4.7c1.6,1.5,3.1,2.9,4,4.1L441.7,388.5z"/>
</g>
<g style="opacity:0.8;enable-background:new    ;">
	<path style="fill:#FFFFFF;" d="M542,378v13.5h-1.4v-1.2h-10v1.3h-1.3V378h4.4c0.4-0.9,0.8-2.1,1-2.9l1.7,0.3
		c-0.3,0.9-0.8,1.8-1.2,2.6H542z M530.6,379.3v4.1h10v-4.1H530.6z M540.6,388.9v-4.2h-10v4.2H540.6z"/>
	<path style="fill:#FFFFFF;" d="M546.1,380.2c1.1,0.5,2.6,1.3,3.3,1.8l-0.8,1.1c-0.7-0.6-2.1-1.4-3.3-1.9L546.1,380.2z M549.3,384.6
		l1,0.9c-0.9,1.9-2.1,4.1-3.2,5.8l-1.1-0.9C546.9,389,548.3,386.7,549.3,384.6z M547.1,375.3c1.2,0.5,2.7,1.3,3.4,1.9l-0.8,1.1
		c-0.7-0.6-2.2-1.5-3.4-2L547.1,375.3z M553.5,378.4c-0.5,2.4-1.4,4.8-2.4,6.4c-0.3-0.2-0.8-0.5-1.2-0.7c1-1.5,1.7-3.8,2.2-6
		L553.5,378.4z M560.6,383.7c-1.5,4.3-4.6,6.8-9.9,8c-0.1-0.4-0.5-0.9-0.8-1.2c5-1,8-3.2,9.4-7.2L560.6,383.7z M556.5,375.2V386
		h-1.4v-10.8H556.5z M559.3,377.8c1.1,1.5,2.1,3.6,2.6,5l-1.2,0.6c-0.4-1.4-1.4-3.5-2.4-5L559.3,377.8z"/>
	<path style="fill:#FFFFFF;" d="M567.3,381.5c0,0.8,0,1.6-0.1,2.4h8.8v7.6h-1.4v-6.2h-7.6c-0.3,2.3-1,4.4-2.6,6.2
		c-0.2-0.3-0.7-0.8-1-1c2.3-2.5,2.5-5.9,2.5-9v-6h1.4v4.2h5.1v-4.6h1.4v4.6h5v1.4h-11.5V381.5z"/>
	<path style="fill:#FFFFFF;" d="M597.7,389.7v1.3h-15.3v-14.9h14.8v1.3h-13.5v12.4H597.7z M594.5,388.5c-0.9-1.1-2.3-2.6-3.9-4.1
		c-1.5,1.6-3.2,3-4.8,4.1c-0.2-0.3-0.7-0.8-1.1-1c1.7-1,3.5-2.4,5-4c-1.5-1.4-3-2.7-4.4-3.9l0.9-0.8c1.4,1.1,2.9,2.4,4.3,3.7
		c1.2-1.4,2.3-2.8,3.2-4.4l1.2,0.5c-1,1.7-2.2,3.3-3.5,4.7c1.6,1.5,3.1,2.9,4,4.1L594.5,388.5z"/>
</g>
<g style="opacity:0.8;enable-background:new    ;">
	<path style="fill:#FFFFFF;" d="M597.4,541.9c0.4,0.6,0.9,1.2,1.1,1.8h5.2v6.2h-1.4v-1.1h-9.8c-0.2,2.2-0.8,4.6-2.5,6.4
		c-0.2-0.3-0.8-0.8-1-0.9c2-2.1,2.2-5,2.2-7.1v-3.5h5.7c-0.2-0.5-0.5-1-0.8-1.3L597.4,541.9z M605.1,540.2v1.2H601v1.4h-1.3v-1.4
		h-4.9v1.5h-1.3v-1.5h-4.1v-1.2h4.1v-1.4h1.3v1.4h4.9v-1.4h1.3v1.4H605.1z M602.4,544.9h-9.7v2.3v0.4h9.7V544.9z"/>
	<path style="fill:#FFFFFF;" d="M610.3,546.7c-0.7-0.5-2.2-1.4-3.3-1.9l0.8-1c1.1,0.5,2.5,1.3,3.3,1.8L610.3,546.7z M607.5,554.1
		c0.9-1.4,2.2-3.8,3.1-5.8l1,0.8c-0.9,1.9-2,4.2-3,5.8L607.5,554.1z M611,541.9c-0.7-0.5-2.1-1.4-3.2-2l0.8-1c1,0.5,2.5,1.4,3.2,1.9
		L611,541.9z M618.2,542.5v1.7h4.3v9.5c0,0.7-0.1,1-0.6,1.3c-0.4,0.2-1.2,0.2-2.5,0.2c0-0.3-0.2-0.9-0.3-1.2c0.9,0,1.6,0,1.8,0
		c0.3,0,0.3-0.1,0.3-0.3v-2.4h-3v3.9H617v-3.9h-3v3.9h-1.3v-11h4.3v-1.7h-5.2v-1.2h5.2v-2.5h1.3v2.5h5.2v1.2H618.2z M613.9,545.4
		v1.8h3v-1.8H613.9z M617,550.2v-1.8h-3v1.8H617z M618.2,545.4v1.8h3v-1.8H618.2z M621.3,550.2v-1.8h-3v1.8H621.3z M621.9,541.2
		c-0.6-0.4-1.8-1.2-2.6-1.7l0.8-0.8c0.9,0.5,2,1.1,2.7,1.5L621.9,541.2z"/>
	<path style="fill:#FFFFFF;" d="M628.9,545.2c0,0.8,0,1.6-0.1,2.4h8.8v7.6h-1.4V549h-7.6c-0.3,2.3-1,4.4-2.6,6.2
		c-0.2-0.3-0.7-0.8-1-1c2.3-2.5,2.5-5.9,2.5-9v-6h1.4v4.2h5.1v-4.6h1.4v4.6h5v1.4h-11.5V545.2z"/>
	<path style="fill:#FFFFFF;" d="M659.3,553.4v1.3h-15.3v-14.9h14.8v1.3h-13.5v12.4H659.3z M656.1,552.1c-0.9-1.1-2.3-2.6-3.9-4.1
		c-1.5,1.6-3.2,3-4.8,4.1c-0.2-0.3-0.7-0.8-1.1-1c1.7-1,3.5-2.4,5-4c-1.5-1.4-3-2.7-4.4-3.9l0.9-0.8c1.4,1.1,2.9,2.4,4.3,3.7
		c1.2-1.4,2.3-2.8,3.2-4.4l1.2,0.5c-1,1.7-2.2,3.3-3.5,4.7c1.6,1.5,3.1,2.9,4,4.1L656.1,552.1z"/>
</g>
<g style="opacity:0.8;enable-background:new    ;">
	<path style="fill:#FFFFFF;" d="M919.6,660.4c1.8,0,2.1-0.6,2.4-3c0.3,0.2,1,0.5,1.4,0.6c-0.3,2.8-0.9,3.8-3.7,3.8h-7.1
		c-2.9,0-3.8-0.6-3.8-3v-12h13v8.5h-1.4v-0.9h-10.3v4.4c0,1.4,0.4,1.7,2.4,1.7H919.6z M910.1,648v5h4.5v-5H910.1z M920.4,648h-4.5v5
		h4.5V648z"/>
	<path style="fill:#FFFFFF;" d="M935.9,648.1v1h3.9v5.5h-13.2v-5.5h3.9v-1h-5V647h5v-1.3h1.3v1.3h2.7v-1.3h1.3v1.3h5.1v1.1H935.9z
		 M927.9,655.7h11v6.3h-1.4v-0.6h-8.2v0.6h-1.4V655.7z M928,651.5h2.6v-1.3H928V651.5z M928,653.7h2.6v-1.3H928V653.7z M929.2,656.7
		v1.3h8.2v-1.3H929.2z M937.4,660.4v-1.5h-8.2v1.5H937.4z M934.7,648.1h-2.7v1h2.7V648.1z M934.7,651.5v-1.3h-2.7v1.3H934.7z
		 M931.9,652.4v1.3h2.7v-1.3H931.9z M935.9,650.1v1.3h2.6v-1.3H935.9z M938.6,652.4h-2.6v1.3h2.6V652.4z"/>
	<path style="fill:#FFFFFF;" d="M947,652c0,0.8,0,1.6-0.1,2.4h8.8v7.6h-1.4v-6.2h-7.6c-0.3,2.3-1,4.4-2.6,6.2c-0.2-0.3-0.7-0.8-1-1
		c2.3-2.5,2.5-5.9,2.5-9v-6h1.4v4.2h5.1v-4.6h1.4v4.6h5v1.4H947V652z"/>
	<path style="fill:#FFFFFF;" d="M977.4,660.2v1.3h-15.3v-14.9H977v1.3h-13.5v12.4H977.4z M974.2,659c-0.9-1.1-2.3-2.6-3.9-4.1
		c-1.5,1.6-3.2,3-4.8,4.1c-0.2-0.3-0.7-0.8-1.1-1c1.7-1,3.5-2.4,5-4c-1.5-1.4-3-2.7-4.4-3.9l0.9-0.8c1.4,1.1,2.9,2.4,4.3,3.7
		c1.2-1.4,2.3-2.8,3.2-4.4l1.2,0.5c-1,1.7-2.2,3.3-3.5,4.7c1.6,1.5,3.1,2.9,4,4.1L974.2,659z"/>
</g>
<g style="opacity:0.8;enable-background:new    ;">
	<path style="fill:#FFFFFF;" d="M731.7,434.7c-0.6-0.6-1.9-1.4-2.9-1.9l0.7-0.9c1,0.4,2.3,1.2,3,1.7L731.7,434.7z M729.3,441.9
		c0.7-1.4,1.7-3.8,2.5-5.8l1,0.8c-0.7,1.9-1.6,4.1-2.3,5.8L729.3,441.9z M730.5,426.7c1.1,0.5,2.4,1.2,3.1,1.8l-0.8,1
		c-0.6-0.6-2-1.4-3.1-1.9L730.5,426.7z M736,429.7c-0.6,1.2-1.3,2.2-1.9,3c-0.3-0.2-0.8-0.6-1.2-0.7c1.3-1.4,2.4-3.5,3-5.5l1.3,0.3
		c-0.2,0.6-0.4,1.2-0.7,1.7h8.2v1.2H736z M743.8,436.4c-0.1,1.1-0.2,2-0.2,2.8h1.2v1.2h-1.4c-0.2,1-0.4,1.5-0.6,1.8
		c-0.3,0.4-0.7,0.6-1.2,0.6c-0.5,0.1-1.4,0-2.3,0c0-0.3-0.2-0.8-0.3-1.1c0.9,0.1,1.8,0.1,2.1,0.1c0.3,0,0.5,0,0.7-0.3
		c0.2-0.2,0.3-0.5,0.4-1.1h-8c0.2-1.1,0.5-2.5,0.6-4h-1.7v-1.2h1.8c0.2-1.3,0.3-2.6,0.4-3.7h8.6c0,0,0,0.5,0,0.6
		c-0.1,1.1-0.1,2.1-0.1,3h1.4v1.2H743.8z M742.3,439.1c0.1-0.7,0.2-1.6,0.3-2.8H736c-0.1,1-0.3,1.9-0.4,2.8H742.3z M736.5,432.6
		c-0.1,0.8-0.2,1.7-0.3,2.5h3.8c-0.4-0.6-1.2-1.4-2-2l0.7-0.5c0.8,0.6,1.6,1.4,2,2l-0.8,0.5h2.6c0.1-0.8,0.1-1.6,0.1-2.5H736.5z
		 M738.3,436.4c0.8,0.6,1.7,1.5,2.2,2.2l-0.8,0.6c-0.4-0.6-1.3-1.6-2.1-2.2L738.3,436.4z"/>
	<path style="fill:#FFFFFF;" d="M750,434.4c-0.7-0.6-2.1-1.4-3.3-1.9l0.8-1c1.1,0.5,2.6,1.2,3.3,1.8L750,434.4z M751.4,437
		c-0.9,1.8-2.1,4-3.1,5.6l-1.1-0.9c0.9-1.3,2.2-3.6,3.2-5.5L751.4,437z M751,429.7c-0.7-0.6-2.1-1.5-3.3-2l0.9-0.9
		c1.1,0.5,2.6,1.3,3.3,1.9L751,429.7z M758.1,426.8c-0.1,0.2-0.3,0.4-0.4,0.6c1.8,2,3.7,3.2,5.6,4.1c-0.3,0.3-0.7,0.7-0.9,1.1
		c-1.8-1-3.6-2.2-5.4-4.2c-1.5,1.8-3.5,3.4-5.6,4.4c-0.2-0.3-0.6-0.7-0.9-1c2.5-1.2,5-3.2,6.4-5.4L758.1,426.8z M754.7,437.9
		c-0.7,1.4-1.8,2.9-2.6,3.9c-0.2-0.2-0.8-0.6-1.1-0.7c0.9-1,1.8-2.3,2.4-3.5L754.7,437.9z M757.8,436.6v4.8c0,0.8-0.2,1.1-0.7,1.3
		c-0.5,0.2-1.4,0.2-2.7,0.2c-0.1-0.4-0.3-0.9-0.5-1.3c1,0,1.9,0,2.1,0c0.3,0,0.3-0.1,0.3-0.3v-4.8h-4.8v-1.2h4.8v-2.2h-3.2V432h7.6
		v1.2h-3v2.2h5.1v1.2H757.8z M760.4,437.5c1,1.2,2.1,2.7,2.6,3.7l-1.1,0.6c-0.5-1-1.6-2.6-2.6-3.8L760.4,437.5z"/>
	<path style="fill:#FFFFFF;" d="M780.5,427.2v15.7h-1.3V442h-12.4v0.9h-1.3v-15.7H780.5z M779.2,440.9v-12.5h-12.4v12.5H779.2z
		 M778.1,435.5c0,0,0,0.3-0.1,0.5c-0.2,1.9-0.4,2.7-0.7,3c-0.3,0.3-0.5,0.3-0.9,0.4c-0.3,0-1,0-1.7,0c0-0.3-0.1-0.8-0.3-1.1
		c0.6,0.1,1.2,0.1,1.4,0.1c0.2,0,0.4,0,0.5-0.1c0.1-0.2,0.3-0.6,0.4-1.6h-3.3v3.7h-1.3v-3.7h-4.5v-1.1h4.5V434h-3.5v-1.1h3.5v-1.5
		H768v-1.1h4.2v-1.5h1.3v1.5h4.4v1.1h-4.4v1.5h3.7v1.1h-3.7v1.5H778.1z"/>
	<path style="fill:#FFFFFF;" d="M791.5,441.1h7.3v1.1h-15.7v-1.1h7.1v-2h-5.4V438h5.4v-1.9h1.3v1.9h5.6v1.1h-5.6V441.1z M798,432.7
		c-0.9,0.7-2.1,1.5-3.1,2.1c1.2,0.5,2.6,0.8,4,1c-0.3,0.3-0.6,0.8-0.8,1.1c-3.6-0.6-6.5-2-8.1-4.4h-3.5v2.6l4.2-0.8
		c0,0.3,0.1,0.8,0.1,1c-4.7,1-5.3,1.2-5.7,1.4c-0.1-0.3-0.4-0.8-0.6-1c0.3-0.2,0.6-0.5,0.6-1.3V427h11.2v5.4h-5
		c0.6,0.7,1.5,1.4,2.5,1.9c1.1-0.7,2.4-1.7,3.2-2.4L798,432.7z M786.6,428.1v1.2h8.5v-1.2H786.6z M786.6,431.4h8.5v-1.2h-8.5V431.4z
		"/>
	<path style="fill:#FFFFFF;" d="M817,441.1v1.3h-15.3v-14.9h14.8v1.3h-13.5v12.4H817z M813.8,439.8c-0.9-1.1-2.3-2.6-3.9-4.1
		c-1.5,1.6-3.2,3-4.8,4.1c-0.2-0.3-0.7-0.8-1.1-1c1.7-1,3.5-2.4,5-4c-1.5-1.4-3-2.7-4.4-3.9l0.9-0.8c1.4,1.1,2.9,2.4,4.3,3.7
		c1.2-1.4,2.3-2.8,3.2-4.4l1.2,0.5c-1,1.7-2.2,3.3-3.5,4.7c1.6,1.5,3.1,2.9,4,4.1L813.8,439.8z"/>
</g>
</svg>
