<?xml version="1.0" encoding="utf-8"?>
<!-- Generator: Adobe Illustrator 17.0.0, SVG Export Plug-In . SVG Version: 6.00 Build 0)  -->
<!DOCTYPE svg PUBLIC "-//W3C//DTD SVG 1.1//EN" "http://www.w3.org/Graphics/SVG/1.1/DTD/svg11.dtd">
<svg version="1.1" id="图层_1" xmlns="http://www.w3.org/2000/svg" xmlns:xlink="http://www.w3.org/1999/xlink" x="0px" y="0px"
	 preserveAspectRatio="none" viewBox="0 0 1100 950" style="enable-background:new 0 0 1100 950;" xml:space="preserve">
<g>
	<path style="fill:#FFFFFF;" d="M42.9,528.4H26v-10.6H45l1.3-12.2H60l-1.3,12.2H85l-7.5-8.8h14.7l7.5,9.7c1.5,5-0.5,8.2-5.9,9.7
		H76.6v20.3l21.9-8.8v12.8l-21.9,8.8v6.9c0,1.3,0.6,1.9,1.9,1.9h23.1v3.8c0,4.2-2.9,6.3-8.8,6.3H71.3c-5.2,0-7.8-2.6-7.8-7.8v-6.9
		l-11.6,4.7v-13.1l11.6-4.1v-18.4c0-4.2-1.6-6.3-4.7-6.3h-1.9c-5.4,22.1-15.5,39.5-30.3,52.2v-17.5
		C34.5,552.5,39.9,540.9,42.9,528.4z"/>
	<path style="fill:#FFFFFF;" d="M118.8,580.6H106l5.3-25c1.5-9-0.2-14.6-5-16.9v-13.4c14.4,2.9,19.9,14.7,16.6,35.3L118.8,580.6z
		 M106.6,513.4c0.2-2.1,0.9-3.8,2.2-5c1.5-1.5,3.2-2.2,5.3-2.2c2.1,0,3.8,0.7,5,2.2c1.7,1.3,2.5,2.9,2.5,5c0,2.3-0.8,4.1-2.5,5.3
		c-1.3,1.5-2.9,2.2-5,2.2c-2.1,0-3.9-0.7-5.3-2.2C107.5,517.5,106.8,515.7,106.6,513.4z M148.8,508.4v-2.8h9.7v2.8h22.8v10.6h-13.8
		v19.1h-11.3v-14.4c0-3.1-0.8-4.7-2.5-4.7h-2.2v19.1h-12.2v-14.4c0-3.1-1.6-4.7-4.7-4.7h-9.1v-10.6H148.8z M171.9,540.3
		c6,0,9.1,2.6,9.1,7.8v10.9h-41.3v3.4h32.2c6,0,9.1,2.6,9.1,7.8v10.3h-52.5v-7.5h39.1v-1.3c0-1.3-1.4-1.9-4.1-1.9h-36.9v-10.3
		c0-5.4,2.8-8.1,8.4-8.1h33.1v-0.6c0-1.9-1.4-2.7-4.1-2.5H126v-8.1H171.9z M128.8,521.6h8.4l-1.9,16.3h-8.8L128.8,521.6z
		 M178.8,521.6l2.8,15.9h-9.1l-2.5-15.9H178.8z"/>
</g>
<g style="opacity:0.5;">
	<path style="fill:#FFFFFF;" d="M28,656.6v-57.3h7v57.3H28z"/>
	<path style="fill:#FFFFFF;" d="M43.3,635.9c0-7.7,2.1-13.4,6.4-17.1c3.6-3.1,7.9-4.6,13-4.6c5.7,0,10.4,1.9,14,5.6
		c3.6,3.7,5.4,8.9,5.4,15.5c0,5.3-0.8,9.5-2.4,12.6c-1.6,3.1-3.9,5.4-7,7.1c-3.1,1.7-6.4,2.5-10,2.5c-5.8,0-10.5-1.9-14.1-5.6
		C45.1,648.2,43.3,642.9,43.3,635.9z M50.5,635.9c0,5.3,1.2,9.3,3.5,11.9c2.3,2.6,5.2,4,8.8,4c3.5,0,6.4-1.3,8.7-4
		c2.3-2.7,3.5-6.7,3.5-12.1c0-5.1-1.2-9-3.5-11.7c-2.3-2.6-5.2-4-8.7-4c-3.5,0-6.4,1.3-8.8,3.9C51.7,626.6,50.5,630.6,50.5,635.9z"
		/>
	<path style="fill:#FFFFFF;" d="M90.4,656.6v-41.5h6.3v5.9c3-4.6,7.4-6.8,13.2-6.8c2.5,0,4.8,0.4,6.9,1.3c2.1,0.9,3.7,2.1,4.7,3.5
		c1,1.5,1.8,3.2,2.2,5.2c0.3,1.3,0.4,3.6,0.4,6.8v25.5h-7v-25.2c0-2.9-0.3-5-0.8-6.4c-0.5-1.4-1.5-2.6-2.9-3.4
		c-1.4-0.8-3-1.3-4.9-1.3c-3,0-5.6,1-7.8,2.9c-2.2,1.9-3.3,5.5-3.3,10.8v22.7H90.4z"/>
	<path style="fill:#FFFFFF;" d="M133.6,660.1l6.8,1c0.3,2.1,1.1,3.6,2.4,4.6c1.7,1.3,4.1,2,7.1,2c3.3,0,5.8-0.7,7.5-2
		c1.8-1.3,3-3.1,3.6-5.5c0.4-1.4,0.5-4.4,0.5-9c-3.1,3.6-6.9,5.4-11.5,5.4c-5.7,0-10.1-2.1-13.2-6.2c-3.1-4.1-4.7-9-4.7-14.8
		c0-4,0.7-7.6,2.1-11c1.4-3.3,3.5-5.9,6.2-7.8c2.7-1.8,5.9-2.7,9.6-2.7c4.9,0,8.9,2,12.1,5.9v-5h6.5V651c0,6.5-0.7,11-2,13.7
		c-1.3,2.7-3.4,4.8-6.3,6.4s-6.4,2.3-10.5,2.3c-4.9,0-8.9-1.1-12-3.3S133.5,664.5,133.6,660.1z M139.4,635.1c0,5.4,1.1,9.4,3.2,11.9
		c2.2,2.5,4.9,3.8,8.1,3.8c3.2,0,5.9-1.2,8.1-3.7c2.2-2.5,3.3-6.4,3.3-11.7c0-5.1-1.1-8.9-3.4-11.5c-2.3-2.6-5-3.9-8.1-3.9
		c-3.1,0-5.8,1.3-8,3.8S139.4,630.1,139.4,635.1z"/>
	<path style="fill:#FFFFFF;" d="M187,656.6l-12.7-41.5h7.3l6.6,23.9l2.5,8.9c0.1-0.4,0.8-3.3,2.1-8.6l6.6-24.3h7.2l6.2,24.1l2.1,7.9
		l2.4-8l7.1-24h6.8l-13,41.5H211l-6.6-24.8l-1.6-7.1l-8.4,31.9H187z"/>
	<path style="fill:#FFFFFF;" d="M264.2,651.5c-2.6,2.2-5.1,3.8-7.5,4.7c-2.4,0.9-5,1.4-7.8,1.4c-4.6,0-8.1-1.1-10.5-3.3
		c-2.4-2.2-3.7-5.1-3.7-8.5c0-2,0.5-3.9,1.4-5.6c0.9-1.7,2.1-3,3.6-4c1.5-1,3.2-1.8,5.1-2.3c1.4-0.4,3.5-0.7,6.3-1.1
		c5.7-0.7,9.9-1.5,12.5-2.4c0-1,0-1.6,0-1.8c0-2.9-0.7-4.9-2-6.1c-1.8-1.6-4.5-2.4-8-2.4c-3.3,0-5.7,0.6-7.3,1.7
		c-1.6,1.2-2.7,3.2-3.5,6.2L236,627c0.6-2.9,1.7-5.3,3.1-7.1c1.4-1.8,3.5-3.2,6.2-4.2c2.7-1,5.8-1.5,9.4-1.5c3.5,0,6.4,0.4,8.6,1.3
		c2.2,0.8,3.8,1.9,4.9,3.1c1,1.3,1.8,2.9,2.2,4.8c0.2,1.2,0.4,3.4,0.4,6.5v9.4c0,6.5,0.1,10.7,0.4,12.4c0.3,1.7,0.9,3.4,1.8,5h-7.3
		C264.9,655.2,264.4,653.4,264.2,651.5z M263.6,635.8c-2.6,1-6.4,1.9-11.5,2.7c-2.9,0.4-4.9,0.9-6.1,1.4c-1.2,0.5-2.1,1.3-2.8,2.3
		c-0.7,1-1,2.1-1,3.3c0,1.9,0.7,3.4,2.1,4.7c1.4,1.3,3.5,1.9,6.2,1.9c2.7,0,5.1-0.6,7.2-1.8c2.1-1.2,3.7-2.8,4.6-4.9
		c0.8-1.6,1.1-3.9,1.1-7V635.8z"/>
	<path style="fill:#FFFFFF;" d="M281.6,656.6v-41.5h6.3v5.9c3-4.6,7.4-6.8,13.2-6.8c2.5,0,4.8,0.4,6.9,1.3c2.1,0.9,3.7,2.1,4.7,3.5
		c1,1.5,1.8,3.2,2.2,5.2c0.3,1.3,0.4,3.6,0.4,6.8v25.5h-7v-25.2c0-2.9-0.3-5-0.8-6.4c-0.5-1.4-1.5-2.6-2.9-3.4
		c-1.4-0.8-3-1.3-4.9-1.3c-3,0-5.6,1-7.8,2.9c-2.2,1.9-3.3,5.5-3.3,10.8v22.7H281.6z"/>
</g>
<path style="fill:#0A469E;" d="M388.5,59.2c2.7,0.5,20.4,9.5,24,12.7c3.6,3.2,25,19.5,30.9,24.5c5.9,5,12.3,12.7,20,15.9
	c7.7,3.2,26.4,9.1,42.7,11.3c16.3,2.3,27.8,1.4,47,0c19.2-1.4,30.1-2.7,39.6-8.2s24.5-17.2,29-16.8c4.5,0.5,35.3,14.1,51.5,18.1
	c16.1,4.1,31.1,8.2,36.1,8.2c5,0,6.8-2.2,11.8,0c5,2.2,11.3,4.1,16.3,7.7c5,3.6,7.3,6.5,24.3,15s53.8,31.6,63,37.1
	c9.2,5.4,24.2,13.3,35.7,21.4c11.6,8.2,48.3,32,59.2,40.8c10.9,8.8,31.3,23.1,42.2,31.3c10.9,8.2,42.2,29.3,50.4,36.8
	s52.6,36.8,56,40.2c3.4,3.4,9.8,11.6,8.8,11.6s-12.7,1.6-22.2,2.3c-9.5,0.7-48.6,2-58.8,3.2c-10.2,1.1-39.7,1.1-40.2,3.6
	c-0.5,2.5-3.2,17.2-4.3,22.5c-1.1,5.2-6.8,27.5-8.8,36.1c-2,8.6-3.4,29-5.4,32.2c-2,3.2-5.9,7.5-8.8,7.7c-2.9,0.2-5.4-1.1-6.1,7.3
	s-3.9,33.3-5,40.6s-3.6,24.7-3.9,28.8c-0.2,4.1-0.2,9.3-2.5,11.8c-2.3,2.5-9.5,10.4-12.5,12.9c-2.9,2.5-13.8,10.7-12.5,11.6
	c1.4,0.9,27.7,18.6,27.7,18.6s22.2-20.4,21.2-17.5s-14.6,17.7-18.5,22.2c-3.9,4.5-9.5,10.7-12.9,14.7c-3.4,4.1-17,16.3-17.5,20
	c-0.5,3.6-2.7,12.5-4.1,14.1c-1.4,1.6-3.4,5.9-7.7,8.6c-4.3,2.7-5.7,5.4-9.3,6.8s-5.2,1.4-9.3,5.9c-4.1,4.5-17.2,20.2-19.7,22.9
	c-2.5,2.7-49,53.8-54.4,61s-36.3,42.7-42.2,50.4s-25.9,27.2-33.1,37.2S673,889.5,668,895.4c-5,5.9-32.7,38.6-35.4,38.6
	c-2.7,0-33.1-17.2-39.5-20.9c-6.4-3.6-38.1-22.7-43.1-26.3c-5-3.6-17.2-14.5-24-18.1c-6.8-3.6-21.8-11.8-27.2-17.2
	c-5.4-5.4-7.5-12.6-10.1-13.6c-2.6-1-4.7-1.6-8.5-5.1c-3.9-3.5-11.1-15.4-14.2-15.8c-3.1-0.3-6.6-0.1-8.8-1.6
	c-2.3-1.5-6.1-3.6-8.2-4c-2-0.3-4.5,0.7-6.6-1.1c-2-1.8-11.6-10-14.2-12.7c-2.6-2.7-14.1-12.1-15.9-13.8c-1.8-1.7-7.8-6.9-8.1-9.2
	c-0.2-2.3,0.7-6.1-1.2-7.1c-1.9-1-3.7-0.8-4.3-3.1s-0.8-5.4-2.5-6.4c-1.7-0.9-4-0.3-4.1-2.5s0.1-3.9-1.8-5.2s-8.4-1-9.3-2.7
	s-3.4-10.5-3.3-13.2s0.8-9.3,0.8-12.5c0-3.2-0.7-5.9-1.4-7.4c-0.7-1.5-0.6-3.2,0-4.8s3.9-2.3,4-4.8c0.1-2.5,0.5-10.8,2.5-10.8
	c2,0,7.9,2.4,8.3,0c0.3-2.4,0.1-10.9,1-13.5c0.9-2.6,2.2-7.4,4.2-8.5c2-1.1,7.9-5.9,9.5-9.8c1.6-3.9,5-4.3,8.6-4.3s7.9-4.3,8.2-7.5
	c0.2-3.2-0.7-9.3-2.5-12c-1.3-2-2.7-4.4-4.9-6.7c-0.8-0.8-1.7-1.7-2.8-2.4c-3.9-2.7-9.8-10.4-10.4-12.5c-0.7-2,3.6-7,2.5-9.8
	c-1.1-2.7-5.9-6.4-6.1-7.7s1.4-5.2-0.7-8.6c-2-3.4-3.9-5.7-7-8.4c-3.2-2.7-5.4-5-8.2-5c-2.7,0-6.6,1.6-7.9,0.5
	c-1.4-1.1-7.4-8.8-12.5-11.1c-5.2-2.3-11.1-3.4-15.8-5.4c-4.8-2-16.1-2.5-15.1-5.2s6.5-14.1,9.4-13.8c2.9,0.2,13.8,7,14.3,3.9
	s-2.6-8.5-5-11.3c-2.4-2.9-8.8-7.5-12.1-8.3c-3.2-0.9-7.8-2.7-9.5-4.9s-7.1-6-8.8-6.3s-2.6-1.5-3.2-3.9c-0.7-2.4-1.2-3.4-4.4-5.1
	c-3.2-1.7-8.3-1.2-13.8-1.7c-5.4-0.5-15.3-3.1-12.1-3.1c3.2,0,20.2-3.1,22.6-3.1c2.4,0,2-0.7,6.7-0.9c4.7-0.2,7.9-2.8,12.4-1.1
	s16.5,4.5,18.5,5.2c2,0.7,0.6,3.7-1.3,3.7c-1.9,0-7.7-1.5-9.9-2s-4.1,1-4.6,1.7c-0.5,0.7-2.2-1.9-5.1-2c-2.9-0.2-9.9,0-7.7,1.7
	c2.2,1.7,11.1,8.1,13.6,10.5c2.6,2.4,16,12.6,17.2,13.6c1.2,1,8.2,6.1,10.5,8c2.4,1.9,5.6,6.5,7.7,6c2-0.5,10.4-1.7,12.9-4.4
	c2.6-2.7,3.7-5.4,1.4-6.3c-2.4-0.9-2.2-1.9-0.7-2s8.5-0.5,10.7,1.4c2.2,1.9,2.4,4.3,5.6,4.3s10.6,0.5,12.4-0.9
	c1.9-1.4-0.3-2.9-1.5-5.3c-1.2-2.4-0.2-2.6-0.7-6.3c-0.5-3.7-8-4.6-6.1-6.3c1.9-1.7,7.3-0.5,7.7-3.9c0.3-3.4,1.2-8.8-2.6-9.4
	c-3.7-0.5-7.7,2.2-10.9,2.2c-3.2,0-10.9,0.5-16.7-0.7c-5.8-1.2-11.9-4.3-12.4-7s-2.2-5.3,0.7-6s10.4-0.9,14.1-1
	c3.7-0.2,4.4-2,4.8-4.1c0.3-2,1.2-9,2.2-13.3c1-4.3,4.4-6.6,6-8c1.5-1.4,4.9-4.3,3.6-4.8c-1.4-0.5-5.7-0.7-7.4-2.9
	s-3.7-7.1-3.8-11.2c-0.2-4.1-1.4-6.5-0.5-9.2s3.3-4.9,4.4-8.7c1.1-3.7-0.1-8.3,0-10.5s-10-11.7-12.2-11.7s-11.4,0-12.4-1
	c-1-1-2-6.3-2.9-7.8c-1-1.5-3.9-4.3-3.2-5.6c0.7-1.4,1.9-1.4,1.5-2.4s-1.9-1.7-0.7-2.2s5.6,0.7,6.5-1.2c0.9-1.9,0.7-5.8,1.7-8
	s3.4-6.1,1.7-6.5c-1.7-0.3-12.9,2.2-13.4-1c-0.5-3.2-0.7-9-0.7-13.6c0-4.6-2.4-12.8-1.5-12.8c0.9,0,5.5-2,8.1-1
	c2.6,1,3.5,7.8,4.8,7.1c1.4-0.7,3.1-1.7,5.1-4.8c2-3.1,1.9-3.6,6.1-6c4.3-2.4,6.8-3.6,7.5-7.3c0.7-3.7,2-10.7-0.7-9.9
	s-6.6,4.8-7.7,4.1c-1-0.7-2.4-2-3.4-1.2c-1,0.9-2.2,4.4-3.6,2.6c-1.4-1.9-1-3.4,0-6.3c1-2.9,1-5.4,3.1-5.1c2,0.3,5.1,0.9,6.3-1
	c1.2-1.9-1-4.3,1.9-4.3s6.5,0.2,5.6-2s-2.7-6-2.9-7.7c-0.2-1.7-0.9-6.8-3.6-7.8c-2.7-1-11.2,0.2-11.7-3.4c-0.5-3.6-2-4.9-0.9-7
	c1.2-2,6.8-7.3,4.4-7.5c-2.4-0.2-7.5,1.9-8.3,4.3c-0.9,2.4-2.9,4.1-6.6,4.9c-3.7,0.9-7.7,3.2-11.1,2.2c-3.4-1-8.2-3.2-10.5-4.9
	c-2.4-1.7-5.1-3.6-8.3-5.3c-3.2-1.7-6.1-0.7-9.2-1.9c-3.1-1.2-4.4-5.6-7.1-4.1s-9.4,1.5-11.6,2.9c-2.2,1.4-2-3.6-3.7-3.6
	c-1.7,0-6.8-0.9-4.8-2.9c2-2,4.3-4.4,2.2-5.4c-2-1-6.6-0.2-6.5-2.6c0.2-2.4,2-3.6,0.2-5.6s-3.5-1.1-4-2.7c-0.6-1.6,1.9-5,0-5.4
	c-1.9-0.5-10.1-0.1-11.2-0.6c-1.1-0.5-2.2-3.9-3.4-3.9s-3.5,0.7-4.3-0.6c-0.8-1.2-5.2-3.3-8.1-2c-2.8,1.2-2.3-0.3,0-1.8
	c2.3-1.5,3.9-2.5,3.5-4.8s0.9-2.3,2.5-4.2c1.6-1.9,0-2.8-0.9-5c-0.9-2.2-3.3-5.3-1.1-6.8c2.2-1.5,3.5-3.3,4.8-2.9
	c1.2,0.3,1.8,3.1,2.5,1.2s0.6-4.9,2.7-6.8c2.2-1.9,2.5-6.7,5.1-7c2.5-0.3,5-0.3,6.3-2.3c1.2-1.9,4.3-11,5-14.6
	c0.7-3.6,1.8-6.2,3.4-6.2c1.6,0,6.4,0.8,7.3-0.7s2.8-7.4,2.2-8.5c-0.7-1.1-3.1-3.1-7.6-4.7s-11-4.8-10.8-6.1s3.1-8.1,4.3-12.8
	s4.9-10.7,5.1-12.8s1.5-13.2,0.2-14.3c-1.4-1.1-5.3-2.9-7.6-3.6c-2.3-0.7-9.1-2.3-7.6-3.9c1.5-1.6,5.1-8.4,3.9-8.8
	c-1.2-0.5-21.1-1.8-26.1-1.9c-5-0.1-32.5-3.3-35.4-3.3c-2.9,0-6.3-0.2-5.1-2.2s2.7-7.1,5.1-11.7c2.4-4.6,8.3-14.1,10-17.9
	c1.7-3.7,4.3-8.8,5.3-11.6c1-2.7,3.2-8,5.1-8.2c1.9-0.2,8.7,0.9,12.6,1.4s12.1,2.4,16.5,3.1c4.4,0.7,14.3,5.4,15.8,4.8
	s5.1-7.7,7.5-7.8c2.4-0.2,12.9,3.7,14,2.6s3.6-8.2,5.5-12.1s4.7-9.2,6.4-10.5c1.7-1.4,5.1-1.5,6.9-0.7c1.8,0.9,3.5,6,4.9,9.2
	s4.4,8,6.5,11.2c2,3.2,8.5,8.8,10.4,11.1c2,2.2,6.1,4.8,7.3,4.8s3.6,2,6,3.7c2.4,1.7,9.5,4.4,10.9,5.8c1.4,1.4,4.9,6.5,6.5,4.4
	c1.5-2,2.7-6,5.4-9.4C384.3,63.1,387.5,59,388.5,59.2z"/>
<path style="fill:#05245B;" d="M388.5,47.4c2.7,0.5,20.4,9.5,24,12.7c3.6,3.2,25,19.5,30.9,24.5c5.9,5,12.3,12.7,20,15.9
	c7.7,3.2,26.4,9.1,42.7,11.3c16.3,2.3,27.8,1.4,47,0c19.2-1.4,30.1-2.7,39.6-8.2s24.5-17.2,29-16.8c4.5,0.5,35.3,14.1,51.5,18.1
	s31.1,8.2,36.1,8.2c5,0,6.8-2.2,11.8,0c5,2.2,11.3,4.1,16.3,7.7c5,3.6,7.3,6.5,24.3,15s53.8,31.6,63,37.1
	c9.2,5.4,24.2,13.3,35.7,21.4c11.6,8.2,48.3,32,59.2,40.8c10.9,8.8,31.3,23.1,42.2,31.3c10.9,8.2,42.2,29.3,50.4,36.8
	s52.6,36.8,56,40.2s9.8,11.6,8.8,11.6s-12.7,1.6-22.2,2.3c-9.5,0.7-48.6,2-58.8,3.2c-10.2,1.1-39.7,1.1-40.2,3.6
	c-0.5,2.5-3.2,17.2-4.3,22.5s-6.8,27.5-8.8,36.1c-2,8.6-3.4,29-5.4,32.2c-2,3.2-5.9,7.5-8.8,7.7c-2.9,0.2-5.4-1.1-6.1,7.3
	s-3.9,33.3-5,40.6s-3.6,24.7-3.9,28.8c-0.2,4.1-0.2,9.3-2.5,11.8c-2.3,2.5-9.5,10.4-12.5,12.9s-13.8,10.7-12.5,11.6
	c1.4,0.9,27.7,18.6,27.7,18.6s22.2-20.4,21.2-17.5c-1,2.9-14.6,17.7-18.5,22.2c-3.9,4.5-9.5,10.7-12.9,14.7
	c-3.4,4.1-17,16.3-17.5,20c-0.5,3.6-2.7,12.5-4.1,14.1s-3.4,5.9-7.7,8.6c-4.3,2.7-5.7,5.4-9.3,6.8s-5.2,1.4-9.3,5.9
	c-4.1,4.5-17.2,20.2-19.7,22.9c-2.5,2.7-49,53.8-54.4,61c-5.4,7.3-36.3,42.7-42.2,50.4s-25.9,27.2-33.1,37.2S673,877.8,668,883.7
	c-5,5.9-32.7,38.6-35.4,38.6c-2.7,0-33.1-17.2-39.5-20.9c-6.4-3.6-38.1-22.7-43.1-26.3c-5-3.6-17.2-14.5-24-18.1
	s-21.8-11.8-27.2-17.2s-7.5-12.6-10.1-13.6c-2.6-1-4.7-1.6-8.5-5.1c-3.9-3.5-11.1-15.4-14.2-15.8c-3.1-0.3-6.6-0.1-8.8-1.6
	c-2.3-1.5-6.1-3.6-8.2-4c-2-0.3-4.5,0.7-6.6-1.1c-2-1.8-11.6-10-14.2-12.7c-2.6-2.7-14.1-12.1-15.9-13.8c-1.8-1.7-7.8-6.9-8.1-9.2
	c-0.2-2.3,0.7-6.1-1.2-7.1c-1.9-1-3.7-0.8-4.3-3.1c-0.6-2.3-0.8-5.4-2.5-6.4c-1.7-0.9-4-0.3-4.1-2.5c-0.1-2.2,0.1-3.9-1.8-5.2
	s-8.4-1-9.3-2.7c-0.9-1.7-3.4-10.5-3.3-13.2s0.8-9.3,0.8-12.5c0-3.2-0.7-5.9-1.4-7.4s-0.6-3.2,0-4.8c0.6-1.6,3.9-2.3,4-4.8
	s0.5-10.8,2.5-10.8c2,0,7.9,2.4,8.3,0c0.3-2.4,0.1-10.9,1-13.5s2.2-7.4,4.2-8.5c2-1.1,7.9-5.9,9.5-9.8c1.6-3.9,5-4.3,8.6-4.3
	s7.9-4.3,8.2-7.5s-0.7-9.3-2.5-12c-1.3-2-2.7-4.4-4.9-6.7c-0.8-0.8-1.7-1.7-2.8-2.4c-3.9-2.7-9.8-10.4-10.4-12.5s3.6-7,2.5-9.8
	c-1.1-2.7-5.9-6.4-6.1-7.7s1.4-5.2-0.7-8.6c-2-3.4-3.9-5.7-7-8.4c-3.2-2.7-5.4-5-8.2-5c-2.7,0-6.6,1.6-7.9,0.5
	c-1.4-1.1-7.4-8.8-12.5-11.1s-11.1-3.4-15.8-5.4c-4.8-2-16.1-2.5-15.1-5.2c1-2.7,6.5-14.1,9.4-13.8c2.9,0.2,13.8,7,14.3,3.9
	c0.5-3.2-2.6-8.5-5-11.3c-2.4-2.9-8.8-7.5-12.1-8.3c-3.2-0.9-7.8-2.7-9.5-4.9s-7.1-6-8.8-6.3c-1.7-0.3-2.6-1.5-3.2-3.9
	s-1.2-3.4-4.4-5.1c-3.2-1.7-8.3-1.2-13.8-1.7c-5.4-0.5-15.3-3.1-12.1-3.1c3.2,0,20.2-3.1,22.6-3.1c2.4,0,2-0.7,6.7-0.9
	c4.7-0.2,7.9-2.8,12.4-1.1s16.5,4.5,18.5,5.2c2,0.7,0.6,3.7-1.3,3.7c-1.9,0-7.7-1.5-9.9-2c-2.2-0.5-4.1,1-4.6,1.7
	c-0.5,0.7-2.2-1.9-5.1-2c-2.9-0.2-9.9,0-7.7,1.7c2.2,1.7,11.1,8.1,13.6,10.5c2.6,2.4,16,12.6,17.2,13.6c1.2,1,8.2,6.1,10.5,8
	c2.4,1.9,5.6,6.5,7.7,6c2-0.5,10.4-1.7,12.9-4.4c2.6-2.7,3.7-5.4,1.4-6.3c-2.4-0.9-2.2-1.9-0.7-2c1.5-0.2,8.5-0.5,10.7,1.4
	c2.2,1.9,2.4,4.3,5.6,4.3s10.6,0.5,12.4-0.9s-0.3-2.9-1.5-5.3c-1.2-2.4-0.2-2.6-0.7-6.3c-0.5-3.7-8-4.6-6.1-6.3
	c1.9-1.7,7.3-0.5,7.7-3.9c0.3-3.4,1.2-8.8-2.6-9.4c-3.7-0.5-7.7,2.2-10.9,2.2c-3.2,0-10.9,0.5-16.7-0.7c-5.8-1.2-11.9-4.3-12.4-7
	c-0.5-2.7-2.2-5.3,0.7-6c2.9-0.7,10.4-0.9,14.1-1c3.7-0.2,4.4-2,4.8-4.1c0.3-2,1.2-9,2.2-13.3c1-4.3,4.4-6.6,6-8
	c1.5-1.4,4.9-4.3,3.6-4.8c-1.4-0.5-5.7-0.7-7.4-2.9s-3.7-7.1-3.8-11.2c-0.2-4.1-1.4-6.5-0.5-9.2c0.9-2.7,3.3-4.9,4.4-8.7
	s-0.1-8.3,0-10.5s-10-11.7-12.2-11.7s-11.4,0-12.4-1s-2-6.3-2.9-7.8s-3.9-4.3-3.2-5.6c0.7-1.4,1.9-1.4,1.5-2.4
	c-0.3-1-1.9-1.7-0.7-2.2c1.2-0.5,5.6,0.7,6.5-1.2c0.9-1.9,0.7-5.8,1.7-8s3.4-6.1,1.7-6.5c-1.7-0.3-12.9,2.2-13.4-1
	c-0.5-3.2-0.7-9-0.7-13.6c0-4.6-2.4-12.8-1.5-12.8c0.9,0,5.5-2,8.1-1c2.6,1,3.5,7.8,4.8,7.1c1.4-0.7,3.1-1.7,5.1-4.8
	c2-3.1,1.9-3.6,6.1-6c4.3-2.4,6.8-3.6,7.5-7.3s2-10.7-0.7-9.9c-2.7,0.9-6.6,4.8-7.7,4.1c-1-0.7-2.4-2-3.4-1.2s-2.2,4.4-3.6,2.6
	c-1.4-1.9-1-3.4,0-6.3c1-2.9,1-5.4,3.1-5.1c2,0.3,5.1,0.9,6.3-1c1.2-1.9-1-4.3,1.9-4.3s6.5,0.2,5.6-2c-0.9-2.2-2.7-6-2.9-7.7
	c-0.2-1.7-0.9-6.8-3.6-7.8c-2.7-1-11.2,0.2-11.7-3.4c-0.5-3.6-2-4.9-0.9-7c1.2-2,6.8-7.3,4.4-7.5c-2.4-0.2-7.5,1.9-8.3,4.3
	s-2.9,4.1-6.6,4.9c-3.7,0.9-7.7,3.2-11.1,2.2s-8.2-3.2-10.5-4.9c-2.4-1.7-5.1-3.6-8.3-5.3c-3.2-1.7-6.1-0.7-9.2-1.9
	c-3.1-1.2-4.4-5.6-7.1-4.1c-2.7,1.5-9.4,1.5-11.6,2.9c-2.2,1.4-2-3.6-3.7-3.6c-1.7,0-6.8-0.9-4.8-2.9c2-2,4.3-4.4,2.2-5.4
	c-2-1-6.6-0.2-6.5-2.6c0.2-2.4,2-3.6,0.2-5.6s-3.5-1.1-4-2.7c-0.6-1.6,1.9-5,0-5.4c-1.9-0.5-10.1-0.1-11.2-0.6
	c-1.1-0.5-2.2-3.9-3.4-3.9s-3.5,0.7-4.3-0.6c-0.8-1.2-5.2-3.3-8.1-2c-2.8,1.2-2.3-0.3,0-1.8c2.3-1.5,3.9-2.5,3.5-4.8
	s0.9-2.3,2.5-4.2c1.6-1.9,0-2.8-0.9-5c-0.9-2.2-3.3-5.3-1.1-6.8c2.2-1.5,3.5-3.3,4.8-2.9c1.2,0.3,1.8,3.1,2.5,1.2s0.6-4.9,2.7-6.8
	c2.2-1.9,2.5-6.7,5.1-7s5-0.3,6.3-2.3c1.2-1.9,4.3-11,5-14.6c0.7-3.6,1.8-6.2,3.4-6.2c1.6,0,6.4,0.8,7.3-0.7s2.8-7.4,2.2-8.5
	c-0.7-1.1-3.1-3.1-7.6-4.7c-4.5-1.6-11-4.8-10.8-6.1c0.2-1.4,3.1-8.1,4.3-12.8c1.2-4.8,4.9-10.7,5.1-12.8s1.5-13.2,0.2-14.3
	c-1.4-1.1-5.3-2.9-7.6-3.6c-2.3-0.7-9.1-2.3-7.6-3.9c1.5-1.6,5.1-8.4,3.9-8.8s-21.1-1.8-26.1-1.9c-5-0.1-32.5-3.3-35.4-3.3
	c-2.9,0-6.3-0.2-5.1-2.2s2.7-7.1,5.1-11.7c2.4-4.6,8.3-14.1,10-17.9c1.7-3.7,4.3-8.8,5.3-11.6c1-2.7,3.2-8,5.1-8.2s8.7,0.9,12.6,1.4
	s12.1,2.4,16.5,3.1c4.4,0.7,14.3,5.4,15.8,4.8c1.5-0.7,5.1-7.7,7.5-7.8c2.4-0.2,12.9,3.7,14,2.6c1-1.2,3.6-8.2,5.5-12.1
	s4.7-9.2,6.4-10.5c1.7-1.4,5.1-1.5,6.9-0.7c1.8,0.9,3.5,6,4.9,9.2s4.4,8,6.5,11.2c2,3.2,8.5,8.8,10.4,11.1s6.1,4.8,7.3,4.8
	s3.6,2,6,3.7c2.4,1.7,9.5,4.4,10.9,5.8c1.4,1.4,4.9,6.5,6.5,4.4c1.5-2,2.7-6,5.4-9.4C384.3,51.3,387.5,47.2,388.5,47.4z"/>
<path style="fill:none;stroke:#0078FF;stroke-width:2;stroke-miterlimit:10;stroke-dasharray:2;" d="M388.5,47.4
	c2.7,0.5,20.4,9.5,24,12.7c3.6,3.2,25,19.5,30.9,24.5c5.9,5,12.3,12.7,20,15.9c7.7,3.2,26.4,9.1,42.7,11.3c16.3,2.3,27.8,1.4,47,0
	c19.2-1.4,30.1-2.7,39.6-8.2s24.5-17.2,29-16.8c4.5,0.5,35.3,14.1,51.5,18.1s31.1,8.2,36.1,8.2c5,0,6.8-2.2,11.8,0
	c5,2.2,11.3,4.1,16.3,7.7c5,3.6,7.3,6.5,24.3,15s53.8,31.6,63,37.1c9.2,5.4,24.2,13.3,35.7,21.4c11.6,8.2,48.3,32,59.2,40.8
	c10.9,8.8,31.3,23.1,42.2,31.3c10.9,8.2,42.2,29.3,50.4,36.8s52.6,36.8,56,40.2s9.8,11.6,8.8,11.6s-12.7,1.6-22.2,2.3
	c-9.5,0.7-48.6,2-58.8,3.2c-10.2,1.1-39.7,1.1-40.2,3.6c-0.5,2.5-3.2,17.2-4.3,22.5s-6.8,27.5-8.8,36.1c-2,8.6-3.4,29-5.4,32.2
	c-2,3.2-5.9,7.5-8.8,7.7c-2.9,0.2-5.4-1.1-6.1,7.3s-3.9,33.3-5,40.6s-3.6,24.7-3.9,28.8c-0.2,4.1-0.2,9.3-2.5,11.8
	c-2.3,2.5-9.5,10.4-12.5,12.9s-13.8,10.7-12.5,11.6c1.4,0.9,27.7,18.6,27.7,18.6s22.2-20.4,21.2-17.5c-1,2.9-14.6,17.7-18.5,22.2
	c-3.9,4.5-9.5,10.7-12.9,14.7c-3.4,4.1-17,16.3-17.5,20c-0.5,3.6-2.7,12.5-4.1,14.1s-3.4,5.9-7.7,8.6c-4.3,2.7-5.7,5.4-9.3,6.8
	s-5.2,1.4-9.3,5.9c-4.1,4.5-17.2,20.2-19.7,22.9c-2.5,2.7-49,53.8-54.4,61c-5.4,7.3-36.3,42.7-42.2,50.4s-25.9,27.2-33.1,37.2
	S673,877.8,668,883.7c-5,5.9-32.7,38.6-35.4,38.6c-2.7,0-33.1-17.2-39.5-20.9c-6.4-3.6-38.1-22.7-43.1-26.3
	c-5-3.6-17.2-14.5-24-18.1s-21.8-11.8-27.2-17.2s-7.5-12.6-10.1-13.6c-2.6-1-4.7-1.6-8.5-5.1c-3.9-3.5-11.1-15.4-14.2-15.8
	c-3.1-0.3-6.6-0.1-8.8-1.6c-2.3-1.5-6.1-3.6-8.2-4c-2-0.3-4.5,0.7-6.6-1.1c-2-1.8-11.6-10-14.2-12.7c-2.6-2.7-14.1-12.1-15.9-13.8
	c-1.8-1.7-7.8-6.9-8.1-9.2c-0.2-2.3,0.7-6.1-1.2-7.1c-1.9-1-3.7-0.8-4.3-3.1c-0.6-2.3-0.8-5.4-2.5-6.4c-1.7-0.9-4-0.3-4.1-2.5
	c-0.1-2.2,0.1-3.9-1.8-5.2s-8.4-1-9.3-2.7c-0.9-1.7-3.4-10.5-3.3-13.2s0.8-9.3,0.8-12.5c0-3.2-0.7-5.9-1.4-7.4s-0.6-3.2,0-4.8
	c0.6-1.6,3.9-2.3,4-4.8s0.5-10.8,2.5-10.8c2,0,7.9,2.4,8.3,0c0.3-2.4,0.1-10.9,1-13.5s2.2-7.4,4.2-8.5c2-1.1,7.9-5.9,9.5-9.8
	c1.6-3.9,5-4.3,8.6-4.3s7.9-4.3,8.2-7.5s-0.7-9.3-2.5-12c-1.3-2-2.7-4.4-4.9-6.7c-0.8-0.8-1.7-1.7-2.8-2.4
	c-3.9-2.7-9.8-10.4-10.4-12.5s3.6-7,2.5-9.8c-1.1-2.7-5.9-6.4-6.1-7.7s1.4-5.2-0.7-8.6c-2-3.4-3.9-5.7-7-8.4c-3.2-2.7-5.4-5-8.2-5
	c-2.7,0-6.6,1.6-7.9,0.5c-1.4-1.1-7.4-8.8-12.5-11.1s-11.1-3.4-15.8-5.4c-4.8-2-16.1-2.5-15.1-5.2c1-2.7,6.5-14.1,9.4-13.8
	c2.9,0.2,13.8,7,14.3,3.9c0.5-3.2-2.6-8.5-5-11.3c-2.4-2.9-8.8-7.5-12.1-8.3c-3.2-0.9-7.8-2.7-9.5-4.9s-7.1-6-8.8-6.3
	c-1.7-0.3-2.6-1.5-3.2-3.9s-1.2-3.4-4.4-5.1c-3.2-1.7-8.3-1.2-13.8-1.7c-5.4-0.5-15.3-3.1-12.1-3.1c3.2,0,20.2-3.1,22.6-3.1
	c2.4,0,2-0.7,6.7-0.9c4.7-0.2,7.9-2.8,12.4-1.1s16.5,4.5,18.5,5.2c2,0.7,0.6,3.7-1.3,3.7c-1.9,0-7.7-1.5-9.9-2
	c-2.2-0.5-4.1,1-4.6,1.7c-0.5,0.7-2.2-1.9-5.1-2c-2.9-0.2-9.9,0-7.7,1.7c2.2,1.7,11.1,8.1,13.6,10.5c2.6,2.4,16,12.6,17.2,13.6
	c1.2,1,8.2,6.1,10.5,8c2.4,1.9,5.6,6.5,7.7,6c2-0.5,10.4-1.7,12.9-4.4c2.6-2.7,3.7-5.4,1.4-6.3c-2.4-0.9-2.2-1.9-0.7-2
	c1.5-0.2,8.5-0.5,10.7,1.4c2.2,1.9,2.4,4.3,5.6,4.3s10.6,0.5,12.4-0.9s-0.3-2.9-1.5-5.3c-1.2-2.4-0.2-2.6-0.7-6.3
	c-0.5-3.7-8-4.6-6.1-6.3c1.9-1.7,7.3-0.5,7.7-3.9c0.3-3.4,1.2-8.8-2.6-9.4c-3.7-0.5-7.7,2.2-10.9,2.2c-3.2,0-10.9,0.5-16.7-0.7
	c-5.8-1.2-11.9-4.3-12.4-7c-0.5-2.7-2.2-5.3,0.7-6c2.9-0.7,10.4-0.9,14.1-1c3.7-0.2,4.4-2,4.8-4.1c0.3-2,1.2-9,2.2-13.3
	c1-4.3,4.4-6.6,6-8c1.5-1.4,4.9-4.3,3.6-4.8c-1.4-0.5-5.7-0.7-7.4-2.9s-3.7-7.1-3.8-11.2c-0.2-4.1-1.4-6.5-0.5-9.2
	c0.9-2.7,3.3-4.9,4.4-8.7s-0.1-8.3,0-10.5s-10-11.7-12.2-11.7s-11.4,0-12.4-1s-2-6.3-2.9-7.8s-3.9-4.3-3.2-5.6
	c0.7-1.4,1.9-1.4,1.5-2.4c-0.3-1-1.9-1.7-0.7-2.2c1.2-0.5,5.6,0.7,6.5-1.2c0.9-1.9,0.7-5.8,1.7-8s3.4-6.1,1.7-6.5
	c-1.7-0.3-12.9,2.2-13.4-1c-0.5-3.2-0.7-9-0.7-13.6c0-4.6-2.4-12.8-1.5-12.8c0.9,0,5.5-2,8.1-1c2.6,1,3.5,7.8,4.8,7.1
	c1.4-0.7,3.1-1.7,5.1-4.8c2-3.1,1.9-3.6,6.1-6c4.3-2.4,6.8-3.6,7.5-7.3s2-10.7-0.7-9.9c-2.7,0.9-6.6,4.8-7.7,4.1
	c-1-0.7-2.4-2-3.4-1.2s-2.2,4.4-3.6,2.6c-1.4-1.9-1-3.4,0-6.3c1-2.9,1-5.4,3.1-5.1c2,0.3,5.1,0.9,6.3-1c1.2-1.9-1-4.3,1.9-4.3
	s6.5,0.2,5.6-2c-0.9-2.2-2.7-6-2.9-7.7c-0.2-1.7-0.9-6.8-3.6-7.8c-2.7-1-11.2,0.2-11.7-3.4c-0.5-3.6-2-4.9-0.9-7
	c1.2-2,6.8-7.3,4.4-7.5c-2.4-0.2-7.5,1.9-8.3,4.3s-2.9,4.1-6.6,4.9c-3.7,0.9-7.7,3.2-11.1,2.2s-8.2-3.2-10.5-4.9
	c-2.4-1.7-5.1-3.6-8.3-5.3c-3.2-1.7-6.1-0.7-9.2-1.9c-3.1-1.2-4.4-5.6-7.1-4.1c-2.7,1.5-9.4,1.5-11.6,2.9c-2.2,1.4-2-3.6-3.7-3.6
	c-1.7,0-6.8-0.9-4.8-2.9c2-2,4.3-4.4,2.2-5.4c-2-1-6.6-0.2-6.5-2.6c0.2-2.4,2-3.6,0.2-5.6s-3.5-1.1-4-2.7c-0.6-1.6,1.9-5,0-5.4
	c-1.9-0.5-10.1-0.1-11.2-0.6c-1.1-0.5-2.2-3.9-3.4-3.9s-3.5,0.7-4.3-0.6c-0.8-1.2-5.2-3.3-8.1-2c-2.8,1.2-2.3-0.3,0-1.8
	c2.3-1.5,3.9-2.5,3.5-4.8s0.9-2.3,2.5-4.2c1.6-1.9,0-2.8-0.9-5c-0.9-2.2-3.3-5.3-1.1-6.8c2.2-1.5,3.5-3.3,4.8-2.9
	c1.2,0.3,1.8,3.1,2.5,1.2s0.6-4.9,2.7-6.8c2.2-1.9,2.5-6.7,5.1-7s5-0.3,6.3-2.3c1.2-1.9,4.3-11,5-14.6c0.7-3.6,1.8-6.2,3.4-6.2
	c1.6,0,6.4,0.8,7.3-0.7s2.8-7.4,2.2-8.5c-0.7-1.1-3.1-3.1-7.6-4.7c-4.5-1.6-11-4.8-10.8-6.1c0.2-1.4,3.1-8.1,4.3-12.8
	c1.2-4.8,4.9-10.7,5.1-12.8s1.5-13.2,0.2-14.3c-1.4-1.1-5.3-2.9-7.6-3.6c-2.3-0.7-9.1-2.3-7.6-3.9c1.5-1.6,5.1-8.4,3.9-8.8
	s-21.1-1.8-26.1-1.9c-5-0.1-32.5-3.3-35.4-3.3c-2.9,0-6.3-0.2-5.1-2.2s2.7-7.1,5.1-11.7c2.4-4.6,8.3-14.1,10-17.9
	c1.7-3.7,4.3-8.8,5.3-11.6c1-2.7,3.2-8,5.1-8.2s8.7,0.9,12.6,1.4s12.1,2.4,16.5,3.1c4.4,0.7,14.3,5.4,15.8,4.8
	c1.5-0.7,5.1-7.7,7.5-7.8c2.4-0.2,12.9,3.7,14,2.6c1-1.2,3.6-8.2,5.5-12.1s4.7-9.2,6.4-10.5c1.7-1.4,5.1-1.5,6.9-0.7
	c1.8,0.9,3.5,6,4.9,9.2s4.4,8,6.5,11.2c2,3.2,8.5,8.8,10.4,11.1s6.1,4.8,7.3,4.8s3.6,2,6,3.7c2.4,1.7,9.5,4.4,10.9,5.8
	c1.4,1.4,4.9,6.5,6.5,4.4c1.5-2,2.7-6,5.4-9.4C384.3,51.3,387.5,47.2,388.5,47.4z"/>
<path style="fill:none;stroke:#0078FF;stroke-width:2;stroke-miterlimit:10;stroke-dasharray:2;" d="M374.2,64.3
	c-1.8,5.6-3.2,8.4-4.9,11.1c-1.7,2.7-4.2,4.4-3.4,6c0.8,1.6,3.4,2.1,2.7,3.6c-0.7,1.4-1,1.4-0.8,3.1c0.3,1.7-2.7,3-2.1,4.7
	c0.6,1.7,1.2,3.4,3.1,6c2,2.6-0.7,1.1-1.3,2.5c-0.6,1.4,0.5,3.3,0.5,5c0,1.7-1.4,2.6,0.1,4.8s1.4,3.7,2.4,5.3
	c0.9,1.5,2.7,2.7,3.6,4.7c1,2,3.2,4,2.6,6c-0.6,2-3.2,4.3-4.6,5.8c0,0-1.3,2-2.3,2.6c-1,0.6-0.9,1.3-3.2,1.2c-2.3-0.1-3,1-5.2,1.7
	c-2.2,0.7-6.5,3.6-5.8,4.8c0.7,1.2,5.4,4.5,4.3,6s-2.6,2.7-4.8,3.8c-2.3,1.1-5.1,3.6-7,4.3c-1.9,0.7-6.7-1.4-7.6-0.9s-1.9,6-1.9,7.3
	c0,1.4-1.3,5.1-2.8,5c-1.5-0.1-6-0.8-8.9-1.2c-2.9-0.4-9.2-2.1-10.4-3.1c-1.2-1-8.6-4.6-10-5.3c-1.4-0.7-6.6-1.8-6.6-1.8"/>
<path style="fill:none;stroke:#0078FF;stroke-width:2;stroke-miterlimit:10;stroke-dasharray:2;" d="M515.5,112.9
	c-0.2,3.3,0.2,5.7,0,7.7s0.7,6.5,0,8c-0.7,1.5-1.4,3.7-1.4,4.8c0,1-0.4,4.1,0.8,5.3c1.2,1.2,3.6,3.7,1.9,4.9
	c-1.7,1.2-3.7,0.3-5.1,1.7c-1.4,1.4-2.7,2.4-3.9,2.6c-1.2,0.2-3.2,1.6-2.8,2.4c0.3,0.9,1.5,1.9,2.8,1.2c1.3-0.7,7-3.3,5.7-0.9
	s-3.1,4.5-3.7,5c-0.6,0.5-1,0.7-2.3,0.5c-1.3-0.2-1.9-1.5-3.1-1.4s-3.6,0.8-3.4,1.4c0.2,0.7,1.5,3.2,0.9,4.3
	c-0.6,1.2-1.2,4.8-2.3,4.2c-1-0.6-2.2-3.7-3.5-3.9s-3.5,0.8-4.8,0.9c-1.2,0.1-4.7,1.2-4.3,2.1c0.5,0.9,1.5,2.9,0.7,4
	c-0.9,1-2.8,3.6-2.1,4.5c0.7,1,3.9,2.1,5.5,2.1s1.2,2-0.7,2.2s-3.6-0.6-4.6,0.8c-1,1.4-3.3,2.6-2.8,3.7c0.5,1.2,2.7,2,3.4,3.3
	c0.7,1.2,1.6,3.5,1.9,4.8c0.3,1.2,1.5,2.6,1.3,3.9s0.2,5.3-0.9,3.9s-3-2.5-4.1-2.2c-1.1,0.3-1.7,1.2-2.7,1.1s-3.1-1-4.3-1
	s-1.9,0.5-1.9,1.8c0,1.4,2.2,2.9,2.8,5c0.6,2,1.4,4,0.5,4.4s-0.5,2.6-2.7,3.3c-2.2,0.7-3.7,3.4-4.6,4c-0.9,0.6-2.4,0.2-4.3,0.3
	c-1.9,0.1-6.6-1-8.3-1s-1.5-0.2-4.3,1.1c-2.7,1.3-3.9,2.4-4.7,2.4s-2.7,1.2-2.6,2c0.1,0.8,1.2,2.5-0.3,3.3c-1.5,0.9-2,0.8-4.7,1.6
	c-2.6,0.8-0.9,0.7-5.5,1.2c-4.6,0.5-4.2,1.9-7.3,1.6s-5.9-1.4-8.3-1.2s-3,1.2-4.7,1.3c-1.7,0.1-3-2.7-6.2-3.5s-5,0.5-9.8,1.1
	c-4.8,0.7-7.6,1.8-11.2,3.3s-4.6,4.3-4.9,6.3s1.4,4.8,0,6.1c-1.4,1.4-2.7,1.5-2.4,2.5c0.3,1,2.4,2.7,0.9,2.7c-1.5,0-5.8-0.1-5.8,1.4
	s-0.6,3.6-0.3,4.4c0.3,0.8,3.2,2.2,2.2,3.2c-1,1.1-2.4,1.2-2.9,2.6c-0.6,1.4-2.7,8.7-2.7,8.7"/>
<path style="fill:none;stroke:#0078FF;stroke-width:2;stroke-miterlimit:10;stroke-dasharray:2;" d="M368.5,367.5
	c2.8-0.3,4.4,0.2,7.8,0c3.4-0.2,4.1,0.6,7.7,0.7s2.7-1.1,6.4-0.8c3.7,0.3,7,1.4,8.2,1.4s0.3,0.8,3.4,0s5.9-1.2,8.8-3.5s6-6,7.4-5
	c1.4,1,1.7,3.2,3.2,2.8c1.5-0.3,4.8-3.9,5.3-3s-1.1,4,1,3.9c2.2-0.1,5.2-0.6,8.3-1c3.1-0.5,2.9-2.4,2.9-3.6c0-1.2,2,0.5,2.5-3.1
	s3.1-2.9,3.4-3.9s-0.7-3.6,0-6.1c0.7-2.5-2-2.7,0.6-4.8c2.6-2,9.1-1.1,10.5-2.3c1.5-1.1,6.7-1.5,10.8-3.4s7.4-2.5,10.9-3.4
	s11.8-8.8,14.6-7.6c2.8,1.2,8.5,3.4,11.3,2.5s2.8-3.7,7-2.6c4.2,1,5.7,4.7,8.3,4.6s7.4,1,8.2-3.5c0.8-4.5-1.9-4.5,3.1-7.9
	s9.1-3.6,11.5-3.1s0.6,0.6,5.2-0.8c4.7-1.4,4.3-4.2,6.7-4.2s4.5-0.6,5.1-3.6s2.2-3.5,1.1-5.3c-1.1-1.8-4.3-0.6-4.3-2.8
	s-0.8-3.7,0.3-5.2c1-1.4,1.2-3.7,1.9-6c0.7-2.3,3.1-3.7,2.5-5.3c-0.5-1.5-3-1.5-4.3-1.1c-1.3,0.4-1.8,1-3.3,0.3s-3.7,0.2-5.5-0.9
	c-1.9-1-2.2-1.6-1.9-2.7s2.6-5.4,3.7-6.3c1-0.9,1.4,0.4,3.2,0.6c1.8,0.2,1.8,2.1,3.8,1.3c2-0.9,3.9-2.5,3.6-3.7
	c-0.3-1.3-1.9-3.9-0.9-4.4c1-0.5,6.6,1,7-0.7c0.3-1.7,0.8-2,1.8-4.4c1-2.4,1.5-4.3,3.1-8s2.6-5.8,1.8-7.5s-0.5-2.8-1.1-5.8
	c-0.6-3-3.8-2.6-4.7-2.7s-2,0.3-1.1-2.7s-0.9-3,0.5-5.9c1.4-2.9,1.2-4,2.6-4.9c1.4-0.9,6.5-1,7.2-1.5c0.8-0.5,1.7-3.4,2.9-6.2
	c1.2-2.8,3.9-8.5,5.3-8.2s4.3,1.5,7,2.8c2.6,1.3,10,5.9,10.9,5.2c0.9-0.7,2.8-5.8,4.8-6c2-0.2,2.5-0.6,3.7-0.2
	c1.2,0.4,1,2.5,2.9,0.8c1.9-1.7,2.9-2.6,4.9-4.1c2-1.4,3.5-4.7,5-7c1.5-2.3,2-3.2,3.7-5.3s3.6-4.7,5-4.4c1.4,0.3,2.6,2.5,4.9,2.4
	c2.4-0.1,5.3-0.1,6.1-0.5s1-4.4,3.6-4.4c2.6,0,3.8,1.4,5.4,3.4s3.7,4.8,4.9,6.5c1.3,1.7,4.3,1.7,5.9,3.3c1.6,1.6,4,3.3,4.9,5.7
	s2.8,2.6,4.5,6.2c1.7,3.6,0,7.8,1.2,8.8c1.2,1,7.7,3.7,9,6.1c1.3,2.4,2.6,3.9,4,6.1s5.6,3.1,6,4.3c0.3,1.3,0.6,4.5,1.5,5.4
	c0.9,0.9,4.5,3.1,5.2,4s0.3,1.7,0,3.1c-0.3,1.4-1,3.1-0.1,3.7c0.9,0.5,4.2-0.3,5.3,1.9c1.1,2.2,2.8,5.4,2.8,6.1s-1.4,3.5-0.9,4.8
	c0.5,1.3,1.8,2.9,3.3,3.7c1.5,0.9,1,2.6,4.3,3.1c3.2,0.5,9.1-0.4,11.2,0c2.1,0.4,4.3,2.8,5.7,4.1c1.4,1.3,1.3,3.8,2.6,3.6
	c1.3-0.3,2.6-1.9,4.1-0.4s-0.9,3.6,2.2,2.8s5.8-0.6,6.6-1.8c0.8-1.2,0.3-1.7,0-3.6c-0.3-1.9-1.5-4.4,1-4.5s4.4,5.3,6,4.1
	c1.6-1.2,4.3-1,6-1.5c1.7-0.5,0.3-2.4,0-3.2c-0.3-0.8-4.8-3.4-2.7-4s2.9,0,5.9-1.7c2.9-1.7,3.3-6.5,3.9-6.8c0.6-0.3,7.1-0.3,7.7,0.3
	c0.6,0.7,0.6,2.7,0,4c-0.6,1.2-1.8,2.7,0.4,2.7c2.2,0,5.4,0.7,5.9-0.9s0.8-5,1.2-7.7c0.5-2.7-0.3-3.5,0.9-3.9
	c1.2-0.3,5.4-0.1,6.4,0.1c0.9,0.2,1.6,0.9,2.6-1.6c1-2.5,1.2-5.9,0-6.2c-1.2-0.3-4.1-0.3-6.4-0.9c-2.3-0.6-5.7-0.8-5.4-3.1
	s1.8-5.4,3.2-6.5c1.4-1,7.6-1.1,8.4-1.1c0.8,0,2.5-5.2,3.7-5.1c1.2,0.1,5,2.2,5.7,2.6c0.7,0.5,1.1,1.8,2.6,1.6
	c1.5-0.2,5.6-5.9,8.1-10.2s7.5-10,9.6-14.5c2.2-4.5,5.4-4.8,7.7-9.5c2.3-4.8,3.9-8.3,5.1-9.9c1.2-1.6,4.5-8.5,4.5-8.5"/>
<path style="fill:none;stroke:#0078FF;stroke-width:2;stroke-miterlimit:10;stroke-dasharray:2;" d="M744.1,281
	c1.4,2.4,0.7,2.9,1.7,4.4c1,1.5-0.2,3.7,1.4,4.8c1.5,1,4.4,0,4.4,2.2s-0.2,6.3,0,7.3c0.2,1-2.9,3.4,0,3.6c2.9,0.2,5.1-2.2,5.1,1.2
	s0.9,7.5,0,9.4c-0.9,1.9-2,2.9-2.2,5.8c-0.2,2.9-3.7,5.6-3.9,6.8c-0.2,1.2-0.3,4.9-0.9,5.1c-0.6,0.2-3.8-0.2-4.7,0.6
	c-0.9,0.8-2.2,1.5-3.3,1.9c-1.1,0.3-2-0.3-4-0.6c-2-0.3-2.2-2.1-5.5-1.2s-3.8,2.6-3.9,4c-0.1,1.4-1.1,3.5,0,5.3s4.3,1.2,5.1,2.2
	c0.9,1,2.3,1.7,1.9,3.6s-3.6,2.8-3,4.4c0.6,1.6,5,2.3,4.4,3.9c-0.6,1.6-1.8,4.4-2.2,5c-0.3,0.6-1.6,2.2-0.5,2.4
	c1.1,0.3,6.2,1.1,5.5,2.5s-2.2,4.1-2.6,5.6c-0.4,1.5-0.6,3.7-1.7,3.4c-1.1-0.3-1.9-1.3-3.2-1.6c-1.3-0.3-2.3-2.3-3-0.7
	s-3.3,5.6-3.7,6.6c-0.4,1-4.3,6-4.5,7.7c-0.3,1.7-2,3.4-2.6,4.8c-0.6,1.4-2.5,4.3-3.3,6.2c-0.9,2-2.6,5.4-3.3,6.6s-2.2,2.3-3.5,2.5
	c-1.3,0.2-4.8-1.1-6.3-2c-1.5-0.9-5.2-3.7-7.4-4.3s-3.2-3.2-5.2-2.6c-2,0.6-3.7,2.6-4.9,4.7c-1.3,2-7.6,9.1-8.5,10.8
	c-0.9,1.7-3.4,4.7-4.7,6.4c-1.3,1.7-5.9,4.6-7.1,5.8c-1.2,1.2-8.3,11.2-9.7,12.3c-1.4,1.1-5,5-5,5s-3-4.2-4.5-3.7
	c-1.5,0.5-3.6,0.6-3.9,0.8c-0.3,0.2,0.8,3.3,0,4.3c-0.8,1-3.1,3.2-3.6,4.1c-0.6,0.9-0.3,3.1-1.9,2.8s-2.8-2-3.6-0.8
	c-0.8,1.2-3.9,3.1-4.5,4.4c-0.7,1.4-2.6,3.4-2,4.2c0.6,0.8,0.5,2.6,0.5,3.4s5,4.5,3.3,5.6c-1.7,1-4.2-0.4-5.2-0.9
	c-1-0.5-2.5-3.3-4-2.5c-1.5,0.8-2,1.4-4.2,1.4s-1.5-2.2-3.3-1c-1.8,1.1-4.3,4.1-6.2,6c-1.9,1.9-5.2,3.3-5.9,4.7s-4.5,4.2-3.2,5.3
	c1.4,1.1,2.9,4.8,2,5.7s-2.6,1.4-3.7,3.2c-1.1,1.8-1.9,2.9-0.7,3.7c1.2,0.8,3.3,2.7,2.3,3.7c-1,1-3.6,2.3-4.8,3.5
	c-1.1,1.2-2.4,2.9-4.1,3.6s-3.5,0.8-5.7,1.6c-2.2,0.8-2.6,1-4.8,2.4s-2.5,3.4-3.9,3.5c-1.4,0.1-5.8,1-6.1,2c-0.3,1-3.2,1.9-2,2.9
	c1.1,1,6,4.3,5.7,5.2c-0.3,0.9,0.5,2.2-0.2,2.3c-0.7,0.1-3.1-1.7-3.7-1.9s-0.5-1.7-2-1c-1.4,0.7-0.3,1.1-2.7,1.2
	c-2.4,0.1-5.1-0.6-7.3-1s-1.1-1.7-4.7-0.9c-3.5,0.8-6.1,1.8-8.2,2.8c-2,1-3.6,0.7-6.8,1.6c-3.2,0.9-5,0.6-7,0
	c-2-0.6-1.4-0.5-4.5-1.5c-3.2-1-1.9-3.3-4.8-3.9c-2.8-0.6-2.7-3.1-6.4-3.1c-3.7,0-3.8-0.8-7.1-1.4c-3.3-0.6-5.6-0.6-7.4-0.9
	c-1.8-0.3-1.7-3.5-3.7-3.9c-2-0.3-5.9-0.5-6.8-0.1c-0.9,0.3-4.2,3.5-4.8,4.1c-0.6,0.6-3.2,3.3-5.8,3.6c-2.6,0.3-3.4,1.8-6.5,0
	c-3.1-1.8-6.5-4.1-9.4-4.8s-7-4.1-11.7-4.5s-7.9-1.5-11.1-1.5c-3.2,0-7.4-1.8-10.3-1.8c-2.9,0-9.8-0.7-11.7-1.1
	c-1.9-0.5-8.4-1.7-8.4-1.7"/>
<path style="fill:none;stroke:#0078FF;stroke-width:2;stroke-miterlimit:10;stroke-dasharray:2;" d="M722.3,383.8
	c3.3,0.3,2.2,0.1,6.1,1.5c3.9,1.4,4.1,3.4,3.4,5.9c-0.7,2.5,0.2,4.5,2,5.4c1.8,0.9,6.6,4.3,7.7,5.2c1.1,0.9,5.7,5,6.8,5.2
	s3,0.5,3.9,1.6c0.9,1.2,3.2,4,5,6.3c1.7,2.3,5.2,5.8,6.6,8.1s9.1,10.8,10.5,13s3.9,6,6.5,8.6c2.6,2.6,7.4,5.4,8.2,6
	c0.8,0.5,5.4,1.4,5.3,3.1c-0.1,1.7-0.3,4.8,1.4,5.5s3.1,1.1,6.4,2.5c3.2,1.4,2.4,3.7,4.2,5.5c1.8,1.9,4.6,3.6,6.2,4.4
	c1.6,0.9,4.8,1.3,6.5,1.3c1.6,0,2.8-1.3,3.2-0.5c0.4,0.8,3,3.7,4.5,3.7s5.1-3.2,8.2-4.5s4.4-4.8,8.3-5.9s5.5-4.3,9.6-4
	c4.1,0.3,14.7,3.5,18.5,4.3s13.7,2.6,15.7,3.7s10.1,2.6,12.7,3.1c2.6,0.6,5.9,2,9.3,2.6c3.4,0.7,12.9,1.1,12.9,1.1"/>
<path style="fill:none;stroke:#0078FF;stroke-width:2;stroke-miterlimit:10;stroke-dasharray:2;" d="M649.5,442.7
	c1.4,1.9,1.7,1.2,3.6,3.1c1.9,1.8,4.9,3.4,4.2,4.8c-0.7,1.4-2.3,0.2,0.1,3.1s4.2,3.7,5.9,6.1c1.7,2.4,4.4,4,3.6,4.9
	c-0.8,0.9-1.8,1.2-1,2.2c0.8,0.9,2.8,2.3,4.3,3.7s2.5,3.2,4.4,5.6c1.9,2.4,5,5,6.7,7.4c1.7,2.4,5.2,7,7,9.1c1.8,2,2.8,3.5,5.2,7.7
	c2.4,4.2,5.2,7.5,6.1,9.9c0.9,2.4,4.1,9.6,5,12c0.9,2.4,4.8,6.1,4.8,8.6c0,2.5,0.6,3.7,1.7,5.2c1.1,1.5,2.9,2.6,5.2,5.7s4,5,4.4,6.9
	c0.5,1.9,1.4,2.8,3.3,5.1c1.9,2.3,5.8,6.1,7.7,8.4c1.9,2.3,4,4.4,5.1,7.7s2.5,13.5,2.4,17.1c-0.1,3.6,0.8,12.1,1.9,14.9
	s5.3,15,7.1,17.6c1.8,2.6,4.1,8.1,6.7,12.8c2.6,4.8,7.3,13,9.4,16.7c2.2,3.6,8.5,15.3,10.1,18.1c1.6,2.8,5.8,6.1,7.8,7.7
	c2,1.6,9.5,6,13.3,9.2s7.1,6.8,11,9.5c3.9,2.7,17.7,11.2,17.7,11.2"/>
<path style="fill:none;stroke:#0078FF;stroke-width:2;stroke-miterlimit:10;stroke-dasharray:2;" d="M472.9,518.9
	c-0.1,1.1-0.3,3.5,0,4.8c0.3,1.2,0.7,2.7,1.2,4.4c0.6,1.7,1.5,2.5,2.9,2.5c1.5,0,1.9-3.2,3.5-3.3c1.6-0.1,3.4,1.8,4.4,2.4
	c1,0.6,2.7,1.5,5,0.9c2.3-0.6,4.8-1.1,7.6,0.2c2.8,1.3,5,1.5,6.2,2.9c1.2,1.4,2.8,3.7,5.7,5.1c2.8,1.4,3.5,0.8,5.2,2.3
	s3.2,4.2,5.7,4.8c2.5,0.6,4.7,1.8,7.3,1.8s4.7-1.1,5.6,0s4.5,4.2,7.5,4.4s4.6-4.2,6.9-3.9c2.3,0.3,4.9,1.2,7.3,2.9
	c2.4,1.7,4.2,1.9,5.7,4.3s1.9,3.5,3.7,6.6s2.9,5.1,5,7.3c2,2.2,4.1,6,6,7c1.9,1,6.3,1.7,9,4.6s2.9,3.6,5.1,4.1s4.6,0,4.6,0"/>
<path style="fill:none;stroke:#0078FF;stroke-width:2;stroke-miterlimit:10;stroke-dasharray:2;" d="M416.4,620.5
	c1.4-2,2.1-2,3.5-3.4c1.4-1.5,0.6-2.6,2.9-2.5c2.4,0.1,6.1-0.4,10.2,0s4.9-1.7,6.4-0.1c1.5,1.6,1.1,3.1,3.3,3.5
	c2.2,0.5,11.1,0.6,11.8,0.9c0.7,0.3,2.7,3.2,4,3.5c1.2,0.3,3.7,0.1,4.9,2.3c1.1,2.2,2.8,5.4,2.8,7c0,1.6,2.4,2.5,4.3,3.1
	c1.9,0.6,2.6,2.4,4.3,4.8c1.7,2.4,2.9,5.6,4.7,5.9c1.7,0.3,4.1,1.6,0.7,2.5c-3.4,0.9-4.4,1-4.4,2.4s2.6,4.2,2.7,5.1s1.2,2.2,3.4,2.6
	s9,3.2,10.2,3.2c1.1,0,5-0.8,5,1.4c0,2.2-1,6-1.7,7.1s0,3.1,0.3,3.6c0.3,0.6,3.3,4.3,4,6.2c0.7,1.9,1.4,4.1,2.6,4.7
	c1.2,0.6,2.5,1.7,1.6,3.4s-0.7,4.3,0.3,5.6c1.1,1.2,5.5,2.6,6.9,1.9c1.5-0.7,3.7-1.7,6.4-0.8c2.6,0.9,6.2,1.4,9.3,1.8s4.3,1.5,8.1,0
	c3.7-1.5,5.6-3.3,8.7-3.2c3.2,0.1,2.2-0.3,5.8,0.5s4.4,1.8,7.1,1.9c2.7,0.1,2.2-1.7,5.1-0.8c2.9,0.9,4.9,2,6.6,2.4
	c1.7,0.4,1.8,2.1,0.8,2.9c-1,0.8-3.1,3.4-2.2,4.8s3.5,1.7,6.6,3.4c3.1,1.7,2.7,2.8,6.1,4.2c3.4,1.4,2.5,2.8,5.2,1.8
	c2.7-1,2.6-3.4,4.9-4.7c2.3-1.2,3.6,1.5,5.6,1.5c1.9,0,4.9-2,4.9-2"/>
<path style="fill:none;stroke:#0078FF;stroke-width:2;stroke-miterlimit:10;stroke-dasharray:2;" d="M684,487
	c-2.3,2.3-4,2.5-5.5,5.2c-1.5,2.7-7.1,5.6-9,8.7c-1.9,3.1-7.7,7.7-8.7,9.9s-3.7,3.9-6,7.1c-2.2,3.2-9.4,8.7-12.6,12.6
	c-3.2,3.9-5.3,4.3-7.5,7.5c-2.2,3.2-7.3,7.3-9,9.4c-1.7,2-12.3,13.3-14.5,15.3s-7.3,6.8-8.3,8.3s-5.3,7.8-6.5,9.5
	c-1.2,1.7-0.7,3.1-2.4,7c-1.7,3.9-6.6,10.7-8,15s-4.6,9.9-6.5,14.5c-1.9,4.6-8.7,12.6-10.5,16.3c-1.9,3.7-4.6,8-6.5,10.7
	c-1.9,2.7-4.4,8.2-5.4,9.7s-3.4,3.8-2,4.7s5.1,2.5,6.6,3.8c1.4,1.4,5.4,3.9,7.9,5.6c2.6,1.7,5.5,3.6,8.5,5.2s3.9,2.5,4.9,3.2
	s6,2.6,5.6,4.3c-0.4,1.8-1.4,3.1-2.8,4.5s-1.5,2.8-2.8,4.3s-4.8,4.6-5.3,5.6c-0.5,1-3.8,4.3-2,5.1s5.4,0.7,8.3,1.8
	c2.9,1.1,6.2,2.6,9.2,3.8c3,1.3,5.9,2,7.9,3.3c2,1.3,3.2,3.3,5.2,5.2s8,7.9,9.5,9.1c1.4,1.2,6,6.6,8.9,8.9s6.6,6,10.1,8.8
	s13.6,11.9,16.1,13.7c2.5,1.8,9.3,6.8,12.8,9.5c3.5,2.7,10.5,8.9,13.1,11.4c0,0,6.7,5.1,8.3,6.7s8,5.9,10.1,8.2s5.2,6.2,7.8,8.2
	c2.6,2,5.3,3.2,7,5.2c1.7,2,3,3.7,4.3,4.6s11.5,9.8,11.5,9.8"/>
<g style="opacity:0.8;">
	<path style="fill:#FFFFFF;" d="M302.7,96.6c0-0.7-0.1-1.3-0.1-1.8c0.5,0.1,1,0.1,1.5,0.1c0.2,0,0.3,0.2,0.1,0.3
		c-0.2,0.1-0.2,0.2-0.2,0.5v1c1.9,0,3.6,0,4.7-0.1v1.5c-1.2-0.1-2.8-0.2-4.7-0.2v0.9h-1.2v-0.9h-3.6v1.4h-1.2v-1.4
		c-1.9,0-3.6,0.1-4.8,0.2v-1.5c1.2,0.1,2.9,0.1,4.8,0.1c0-0.7-0.1-1.2-0.1-1.7c0.5,0.1,1,0.1,1.5,0.1c0.2,0,0.3,0.2,0.1,0.3
		c-0.2,0.1-0.2,0.2-0.2,0.5v0.8H302.7z M295.7,108.3c-0.4,1-0.8,1.8-1.1,2.8c-0.6-0.4-1-0.7-1.5-1c0.5-0.7,1.2-1.8,1.5-2.4
		c0.4-0.9,0.6-1.4,0.8-2.1c0.3,0.4,0.7,0.7,1.3,0.9C296.3,106.9,296.2,107.2,295.7,108.3z M295.5,104.8c-0.6-0.6-1.5-1.1-2.3-1.4
		l0.7-1.2c0.8,0.4,1.6,0.8,2.3,1.2L295.5,104.8z M295.8,101.7c-0.5-0.6-1.1-1.2-1.9-1.7l0.9-1c0.6,0.5,1.4,1,1.9,1.5L295.8,101.7z
		 M297.3,101.2v-1.3c0.9,0.1,2.4,0.1,4.6,0.1c0-0.5-0.1-0.9-0.1-1.2c0.5,0,1.1,0.1,1.5,0c0.4,0,0.4,0.1,0.1,0.3
		c-0.1,0.1-0.3,0.5-0.3,0.9c2.4,0,4.2,0,5.5-0.1v1.3c-1.5-0.1-3-0.1-5.5-0.1v1.3c2.2,0,3.3-0.1,4.1-0.2c-0.1,0.5-0.1,1.4-0.1,2.5
		v4.6c0,1.6-0.2,1.7-2.4,2c0-0.4-0.1-0.9-0.6-1.5c1.3,0.2,1.9-0.1,1.9-0.7v-0.9h-2.9c0,1,0.1,1.7,0.1,2.5h-1.4
		c0.1-0.8,0.1-1.5,0.1-2.5h-2.7v2.9h-1.3c0.1-1,0.1-1.8,0.1-2.9v-3.5c0-1,0-2-0.1-2.5c0.9,0.1,1.9,0.2,4,0.2V101
		C299.7,101,298.3,101.1,297.3,101.2z M299.2,103.4v1.4h2.7v-1.4H299.2z M299.2,107.2h2.7v-1.5h-2.7V107.2z M306,103.4h-2.9v1.4h2.9
		V103.4z M306,105.8h-2.9v1.5h2.9V105.8z M305.9,99.9c-0.3-0.4-0.6-0.7-1-1.1l1.3-0.6c0.3,0.4,0.6,0.7,0.8,1L305.9,99.9z"/>
	<path style="fill:#FFFFFF;" d="M316.1,97.6c0.1,8.2-0.6,10.5-3.2,13.7c-0.4-0.4-1-0.8-1.7-1c2.1-1.6,3.1-3.5,3.4-7
		c0.2-2.1,0.1-5.2-0.1-8.1c0.7,0.1,1.2,0.1,1.7,0.1c0.4,0,0.5,0.2,0.2,0.4C316.2,95.9,316.1,96.5,316.1,97.6z M313.1,105.3l-1.7-0.3
		c0.7-1.8,1-3.6,1.1-5.8l1.4,0.1C313.8,101.6,313.5,103.3,313.1,105.3z M317.3,104.7c-0.1-1.9-0.4-3.5-0.8-5l1.3-0.3
		c0.3,1.5,0.6,3.3,0.9,4.9L317.3,104.7z M320.6,97.8v9.3c0,1,0,2,0.1,3.3h-1.7c0.1-1.2,0.1-2.3,0.1-3.3v-8.4c0-1.3-0.1-2.4-0.2-2.8
		c0.7,0.1,1.1,0.2,1.7,0.2c0.4,0,0.5,0.2,0.1,0.4C320.7,96.6,320.6,97,320.6,97.8z M322,104.8c-0.2-1.8-0.5-3.6-0.9-5l1.3-0.3
		c0.4,1.6,0.8,3.3,1.1,5L322,104.8z M325.6,96.9v10.9c0,1,0.1,2.1,0.1,3.3h-1.7c0.1-1.2,0.1-2.3,0.1-3.3v-10c0-1.3-0.1-2.4-0.2-2.8
		c0.7,0.1,1.1,0.2,1.7,0.2c0.4,0,0.5,0.2,0.1,0.4C325.7,95.7,325.6,96.1,325.6,96.9z"/>
	<path style="fill:#FFFFFF;" d="M332.4,111.2h-1.6c0.1-1,0.2-1.9,0.2-2.9v-5.1c-0.5,0.7-0.9,1.2-1.4,1.6c-0.3-0.4-0.6-0.7-1.1-1.1
		c0.8-0.6,1.9-1.9,2.5-2.9c0.4-0.7,0.7-1.4,0.9-2.2c0.5,0.3,1.2,0.8,1.4,0.9c0.3,0.1,0.3,0.2-0.1,0.3c-0.1,0.1-0.3,0.3-1,1.3V111.2z
		 M332.3,97.3c-0.7,0.9-1.4,1.7-2.2,2.6c-0.3-0.4-0.6-0.7-1.1-1c0.8-0.6,1.2-1,2-2.2c0.3-0.4,0.8-1.2,1-1.9c0.5,0.4,1.3,0.9,1.5,1
		c0.3,0.1,0.3,0.2,0,0.3C333.2,96.2,332.9,96.5,332.3,97.3z M340.5,106.6c-0.1,0.5-0.1,1-0.1,1.4c-2,0.2-5.7,1-7.1,1.4
		c0-0.6-0.1-1.2-0.3-1.7c0.7,0,2-0.1,3.2-0.3v-2.3c-1.1,0-1.6,0.1-2.4,0.1v-1.4c0.7,0.1,1.2,0.1,2.4,0.1c0-0.7,0-1.4-0.1-1.8
		c0.5,0.1,1.2,0.1,1.6,0.1c0.2,0,0.3,0.1,0.1,0.3c-0.2,0.1-0.2,0.2-0.2,0.4v1.1c1,0,1.6,0,2.3-0.1v1.4c-0.8-0.1-1.4-0.1-2.3-0.1v2.1
		C338.7,107,340,106.7,340.5,106.6z M337.5,100.5c1,0,1.4,0,2.1-0.1v1.4c-0.9-0.1-1.2-0.2-2.8-0.2c-1.8,0-2.2,0-3.1,0.2v-1.4
		c0.8,0.1,1.2,0.1,2.4,0.1v-2.1c-1.1,0-1.5,0.1-2.2,0.2v-1.4c0.7,0.1,1.1,0.1,2.2,0.1c0-0.8,0-1.8-0.1-2.3c0.5,0.1,1.2,0.1,1.6,0.1
		c0.2,0,0.3,0.2,0.1,0.3c-0.2,0.1-0.2,0.2-0.2,0.4v1.5c1.2,0,1.6-0.1,2.3-0.1v1.4c-0.8-0.1-1.2-0.2-2.3-0.2V100.5z M343.4,109.3
		c0,1.5-0.1,1.7-2.7,1.9c0-0.5-0.1-0.9-0.6-1.7c1.8,0.1,1.9-0.1,1.9-0.9v-7.3c-0.8,0-1.2,0.1-1.7,0.1V100c0.7,0.1,1.1,0.1,2.5,0.1
		c1.4,0,1.7,0,2.4-0.1v1.5c-0.6-0.1-0.9-0.1-1.7-0.2V109.3z M342.4,97.4c-0.9,0-1.4,0-2.1,0.1V96c0.7,0.1,1,0.1,2.1,0.1
		c1.2,0,1.4,0,2.1-0.1v1.5C343.8,97.4,343.4,97.4,342.4,97.4z"/>
	<path style="fill:#FFFFFF;" d="M351.8,108.8c2,0.9,6.9,1.1,11.3,0.3c-0.3,0.8-0.4,1.4-0.4,1.9c-7,0.2-8.6,0.1-12.1-1.4
		c-0.9-0.4-1.5-0.1-2.4,1.4c-0.4-0.4-0.8-0.8-1.4-1.1c0.9-0.9,1.6-1.4,2.2-1.7v-5.6c-1,0-1.6,0-2,0.1v-1.5c1.1,0.2,2.7,0.2,3.7,0
		c-0.1,0.6-0.2,1.2-0.2,2.1v4.8C350.8,108.3,351.1,108.4,351.8,108.8z M349,99.7c-0.2-1.2-0.6-2.5-1-3.4l1.5-0.4
		c0.3,1.2,0.6,2.3,1.1,3.5L349,99.7z M361.3,99.9c-0.1,0.6-0.1,1.2-0.1,1.9v4.3c0,0.8,0,1.7,0.1,2.6h-1.5V108h-5.3v0.8h-1.5
		c0.1-0.9,0.1-1.5,0.1-2.6v-4.5c0-0.6,0-1.3-0.1-1.9c0.6,0.1,1.7,0.1,3,0.1c0.1-0.4,0.3-0.9,0.3-1.4c-2.1,0-3.5,0.1-4.7,0.2v-1.5
		c1.5,0.1,3.4,0.2,6.2,0.2c0.4-0.8,0.6-1.5,0.9-2.5c0.5,0.3,1.1,0.5,1.7,0.6c0.2,0,0.2,0.1,0,0.2c-0.4,0.2-0.7,0.5-1.4,1.7
		c1.6,0,2.7-0.1,3.8-0.1v1.5c-1.3-0.1-2.8-0.2-5-0.2c-0.2,0.4-0.3,1-0.5,1.4C359,100,360.6,100,361.3,99.9z M355.2,97.4
		c-0.3-0.5-0.8-1-1.3-1.5l1.2-0.7c0.4,0.5,1,1.1,1.2,1.5L355.2,97.4z M359.8,101.1h-5.3v1.2h5.3V101.1z M354.4,104.6h5.3v-1.3h-5.3
		V104.6z M359.8,105.6h-5.3v1.3h5.3V105.6z"/>
</g>
<g style="opacity:0.8;">
	<path style="fill:#FFFFFF;" d="M365.7,196.2c-0.5,0.9-1,1.8-1.3,2.6c-0.5-0.6-0.8-1-1.3-1.4c0.6-0.7,1.2-1.5,1.8-2.6
		c0.4-0.6,0.8-1.4,1.1-2c0.3,0.5,0.6,0.8,1,1.3C366.8,194.4,366.4,195,365.7,196.2z M365.1,191.8c-0.5-1.1-1.1-2.2-1.7-3l1.3-0.8
		c0.7,0.9,1.4,2,1.9,3L365.1,191.8z M368.8,186.6v12c0,1.1,0.1,1.9,0.2,3h-1.8c0.1-1,0.1-1.9,0.1-3v-10.4c0-1.3-0.1-2.4-0.2-2.8
		c0.6,0.1,1.2,0.1,1.7,0.1c0.4,0,0.5,0.1,0.2,0.4C368.8,186.1,368.8,186.3,368.8,186.6z M373.3,197c-0.6,1.8-1.5,3.3-2.8,4.4
		c-0.4-0.4-0.8-0.8-1.4-1c1.4-1.2,2.3-2.5,2.9-3.9c0.6-1.4,0.9-2.6,1-5c-1.4,0-2.5,0.1-3.4,0.2v-1.6c0.9,0.1,2,0.2,3.5,0.2
		c0-1.8,0-4.1-0.1-5.1c0.7,0.1,1.3,0.2,1.9,0.2c0.3,0,0.3,0.1,0.1,0.3c-0.1,0.1-0.4,0.9-0.4,1.4c0,1.1-0.1,2.3-0.1,3.2
		c2.1,0,3.6-0.1,4.7-0.2v1.6c-1.1-0.1-2.6-0.2-4.6-0.2c0.4,3,1,4.4,1.9,5.7c0.8,1.1,1.8,1.8,3,2.2c-0.6,0.7-0.8,1-1.2,1.8
		c-1.5-1-2.5-2.1-3.2-3.3c-0.4-0.7-0.7-1.7-1.1-3.9C373.8,195.6,373.5,196.5,373.3,197z M376.9,189.4c-0.3-0.9-0.7-1.8-1.2-2.6
		l1.4-0.6c0.5,0.7,0.8,1.4,1.3,2.4L376.9,189.4z"/>
	<path style="fill:#FFFFFF;" d="M383.1,201.6c-0.3-0.6-0.8-1.1-1.4-1.5c3.7-1.5,4.8-3.3,4.7-7.8c-1.7,0-3.4,0-4.3,0.1v-1.6
		c1,0.1,3,0.1,7.1,0.1c4.1,0,6.1-0.1,7.1-0.1v1.6c-0.9-0.1-2.8-0.1-4.5-0.1v6.1c0,0.8,0.2,0.8,1.8,0.8c1.6,0,1.9-0.4,2.4-2.5
		c0.5,0.6,1,0.9,1.6,1c-0.8,2.7-1.3,3-4.1,3c-2.9,0-3.3-0.4-3.3-1.8v-6.6h-2.2C388.2,197.5,386.7,199.3,383.1,201.6z M389.3,187.9
		c-2.2,0-4.3,0.1-5.5,0.1v-1.7c1.2,0.1,3.2,0.2,5.4,0.2c2.2,0,4.3,0,5.5-0.2v1.7C393.6,187.9,391.5,187.9,389.3,187.9z"/>
	<path style="fill:#FFFFFF;" d="M402.8,201.8h-1.6c0.1-1,0.2-1.9,0.2-2.9v-5.1c-0.5,0.7-0.9,1.2-1.4,1.6c-0.3-0.4-0.6-0.7-1.1-1.1
		c0.8-0.6,1.9-1.9,2.5-2.9c0.4-0.7,0.7-1.4,0.9-2.2c0.5,0.3,1.2,0.8,1.4,0.9c0.3,0.1,0.3,0.2-0.1,0.3c-0.1,0.1-0.3,0.3-1,1.3V201.8z
		 M402.6,187.8c-0.7,0.9-1.4,1.7-2.2,2.6c-0.3-0.4-0.6-0.7-1.1-1c0.8-0.6,1.2-1,2-2.2c0.3-0.4,0.8-1.2,1-1.9c0.5,0.4,1.3,0.9,1.5,1
		c0.3,0.1,0.3,0.2,0,0.3C403.6,186.7,403.3,187,402.6,187.8z M410.9,197.1c-0.1,0.5-0.1,1-0.1,1.4c-2,0.2-5.7,1-7.1,1.4
		c0-0.6-0.1-1.2-0.3-1.7c0.7,0,2-0.1,3.2-0.3v-2.3c-1.1,0-1.6,0.1-2.4,0.1v-1.4c0.7,0.1,1.2,0.1,2.4,0.1c0-0.7,0-1.4-0.1-1.8
		c0.5,0.1,1.2,0.1,1.6,0.1c0.2,0,0.3,0.1,0.1,0.3c-0.2,0.1-0.2,0.2-0.2,0.4v1.1c1,0,1.6,0,2.3-0.1v1.4c-0.8-0.1-1.4-0.1-2.3-0.1v2.1
		C409.1,197.5,410.4,197.3,410.9,197.1z M407.9,191c1,0,1.4,0,2.1-0.1v1.4c-0.9-0.1-1.2-0.2-2.8-0.2c-1.8,0-2.2,0-3.1,0.2v-1.4
		c0.8,0.1,1.2,0.1,2.4,0.1v-2.1c-1.1,0-1.5,0.1-2.2,0.2v-1.4c0.7,0.1,1.1,0.1,2.2,0.1c0-0.8,0-1.8-0.1-2.3c0.5,0.1,1.2,0.1,1.6,0.1
		c0.2,0,0.3,0.2,0.1,0.3c-0.2,0.1-0.2,0.2-0.2,0.4v1.5c1.2,0,1.6-0.1,2.3-0.1v1.4c-0.8-0.1-1.2-0.2-2.3-0.2V191z M413.7,199.8
		c0,1.5-0.1,1.7-2.7,1.9c0-0.5-0.1-0.9-0.6-1.7c1.8,0.1,1.9-0.1,1.9-0.9v-7.3c-0.8,0-1.2,0.1-1.7,0.1v-1.5c0.7,0.1,1.1,0.1,2.5,0.1
		s1.7,0,2.4-0.1v1.5c-0.6-0.1-0.9-0.1-1.7-0.2V199.8z M412.8,187.9c-0.9,0-1.4,0-2.1,0.1v-1.5c0.7,0.1,1,0.1,2.1,0.1
		c1.2,0,1.4,0,2.1-0.1v1.5C414.2,188,413.8,187.9,412.8,187.9z"/>
	<path style="fill:#FFFFFF;" d="M422.2,199.3c2,0.9,6.9,1.1,11.3,0.3c-0.3,0.8-0.4,1.4-0.4,1.9c-7,0.2-8.6,0.1-12.1-1.4
		c-0.9-0.4-1.5-0.1-2.4,1.4c-0.4-0.4-0.8-0.8-1.4-1.1c0.9-0.9,1.6-1.4,2.2-1.7v-5.6c-1,0-1.6,0-2,0.1v-1.5c1.1,0.2,2.7,0.2,3.7,0
		c-0.1,0.6-0.2,1.2-0.2,2.1v4.8C421.1,198.8,421.5,199,422.2,199.3z M419.3,190.2c-0.2-1.2-0.6-2.5-1-3.4l1.5-0.4
		c0.3,1.2,0.6,2.3,1.1,3.5L419.3,190.2z M431.7,190.4c-0.1,0.6-0.1,1.2-0.1,1.9v4.3c0,0.8,0,1.7,0.1,2.6h-1.5v-0.7h-5.3v0.8h-1.5
		c0.1-0.9,0.1-1.5,0.1-2.6v-4.5c0-0.6,0-1.3-0.1-1.9c0.6,0.1,1.7,0.1,3,0.1c0.1-0.4,0.3-0.9,0.3-1.4c-2.1,0-3.5,0.1-4.7,0.2v-1.5
		c1.5,0.1,3.4,0.2,6.2,0.2c0.4-0.8,0.6-1.5,0.9-2.5c0.5,0.3,1.1,0.5,1.7,0.6c0.2,0,0.2,0.1,0,0.2c-0.4,0.2-0.7,0.5-1.4,1.7
		c1.6,0,2.7-0.1,3.8-0.1v1.5c-1.3-0.1-2.8-0.2-5-0.2c-0.2,0.4-0.3,1-0.5,1.4C429.4,190.6,430.9,190.5,431.7,190.4z M425.5,187.9
		c-0.3-0.5-0.8-1-1.3-1.5l1.2-0.7c0.4,0.5,1,1.1,1.2,1.5L425.5,187.9z M430.2,191.6h-5.3v1.2h5.3V191.6z M424.8,195.1h5.3v-1.3h-5.3
		V195.1z M430.2,196.2h-5.3v1.3h5.3V196.2z"/>
</g>
<g style="opacity:0.8;">
	<path style="fill:#FFFFFF;" d="M486.4,232.5V231c0.7,0.1,1.5,0.1,2.8,0.1s2-0.1,2.7-0.1v1.5c-0.5-0.1-1.2-0.1-2.1-0.2v3.9
		c0.8,0,1.4-0.1,1.9-0.2v1.5c-0.5-0.1-1.1-0.1-1.9-0.2v3.9c0.8-0.2,1.3-0.4,1.9-0.6v-1.4c1,0.1,2.8,0.2,4.6,0.2v-2h-1.9
		c-0.3,0.4-0.5,0.8-0.9,1.5c-0.3-0.3-0.9-0.6-1.3-0.6c0.8-0.8,1.5-1.8,1.9-3.2c0.5,0.2,0.9,0.3,1.3,0.4c0.3,0.1,0.3,0.1,0,0.3
		c-0.1,0-0.2,0.2-0.3,0.4h2.3c1.7,0,2.8,0,3.9-0.1v1.4c-1-0.1-2.1-0.1-3.6-0.1v2c1.9,0,3.7-0.1,4.8-0.2v1.5c-1-0.1-2.9-0.2-4.8-0.2
		v3l2.2-0.1v-0.5c0-0.8-0.1-1.1-0.1-1.4c0.8,0.1,1.1,0.1,1.7,0.1c0.3,0,0.4,0.1,0.2,0.2c-0.2,0.2-0.3,0.3-0.3,0.6v2.1
		c0,0.4,0,0.8,0.1,1.1h-1.5v-0.9L496,245c-1.9,0.1-2.9,0.1-3.6,0.2c0.1-0.3,0.1-0.6,0.1-1v-1.7c0-0.4,0-0.6-0.1-0.9
		c0.6,0.1,1.1,0.1,1.7,0.1c0.3,0,0.3,0.1,0.1,0.2c-0.2,0.1-0.3,0.3-0.3,0.6v1.3l2.3-0.1v-3.1c-1.7,0-3.4,0.1-4.5,0.2
		c0,0.5,0.1,0.9,0.2,1.3c-1.5,0.4-4,1.3-5.5,1.9c0-0.6-0.2-1.3-0.5-1.9c0.6-0.1,1.4-0.2,2.4-0.5v-4.2c-0.8,0-1.5,0.1-1.9,0.2v-1.5
		c0.5,0.1,1.1,0.1,1.9,0.1v-3.9C487.5,232.3,486.9,232.4,486.4,232.5z M501.7,231.1c-0.3-0.1-1.3,0-3.1,0.2
		c-2.1,0.3-4.4,0.5-5.8,0.6c-0.1-0.5-0.4-1-0.8-1.4c1.4,0.1,2.7,0,5-0.3c1.5-0.2,2.8-0.5,3.9-0.9c0.3,0.6,0.7,1.1,1,1.4
		C502.2,231,502.1,231.2,501.7,231.1z M493.5,235.3c-0.3-0.8-0.7-1.4-1.1-2l1.4-0.8c0.3,0.6,0.8,1.4,1.2,2.1L493.5,235.3z
		 M496.4,234.9c-0.1-1-0.3-1.7-0.7-2.4l1.6-0.4c0.2,0.7,0.4,1.7,0.7,2.4L496.4,234.9z M499.8,235.5c-0.4-0.2-0.8-0.3-1.4-0.3
		c0.8-1.2,1.1-2.2,1.4-3.3c0.6,0.3,1.2,0.6,1.5,0.6c0.4,0.1,0.4,0.2,0.1,0.4C501.2,233,500.9,233.5,499.8,235.5z"/>
	<path style="fill:#FFFFFF;" d="M506.6,242.3c-0.3,1-0.5,1.8-0.7,3.1c-0.7-0.6-1-0.8-1.7-1.1c0.5-0.8,0.8-1.6,1.2-2.7
		c0.3-0.8,0.5-1.8,0.7-2.9c0.3,0.3,0.8,0.6,1.4,0.8C507.2,240.1,507,240.9,506.6,242.3z M507,237.2c-0.7-0.7-1.7-1.5-2.5-1.9
		l0.8-1.1c0.8,0.5,1.7,1.1,2.5,1.7L507,237.2z M507.8,233.2c-0.6-0.6-1.6-1.5-2.5-2l0.9-1.2c0.9,0.6,1.8,1.2,2.6,1.9L507.8,233.2z
		 M512,236.8c-0.6,0-1.6,0.2-2,0.3c-0.1-0.4-0.2-0.8-0.5-1.2c0.7-0.1,1.8-0.6,3.8-2.1c0.3,0.2,1,0.5,1.2,0.5c0.3,0.1,0.3,0.2,0,0.3
		c-0.6,0.2-1,0.3-3.2,1.3l3.9-0.1c0.8-0.5,1.5-1,1.9-1.4c0.3,0.3,0.7,0.7,1,0.9c0.4,0.2,0.4,0.3-0.1,0.4c-0.2,0-1.1,0.4-2.6,1.2
		c-0.4,0.2-2.3,1-4.2,1.7l5.9-0.3c-0.3-0.3-0.6-0.5-1-0.8l1-0.6c1.1,0.9,1.4,1.2,2.4,2.3l-1.2,0.7c-0.2-0.3-0.4-0.5-0.5-0.8l-3,0.1
		c-0.1,0.6-0.2,1-0.3,1.5c2.1,0,4.2-0.1,5.4-0.1v1.3c-1-0.1-2.7-0.1-4.6-0.1c1,1.4,2.2,1.8,4.8,2c-0.4,0.6-0.6,1.2-0.8,1.6
		c-3-0.8-4.4-1.9-5-3.6h-0.2c-0.9,2.2-2.5,3.2-5.5,3.9c-0.2-0.5-0.5-0.9-1-1.3c2.7-0.1,4.6-1.2,5.2-2.5c-2.1,0-3.7,0.1-4.9,0.1v-1.3
		c1.3,0.1,3,0.1,5.3,0.1c0.1-0.5,0.2-0.8,0.2-1.5c-2.4,0.1-3.5,0.2-4.1,0.4c-0.1-0.5-0.1-0.8-0.3-1.3c1-0.1,3-0.8,4.9-1.8L512,236.8
		z M519.3,231c-1-0.1-2-0.1-4.2,0.3c-0.9,0.1-2.8,0.4-5.7,0.7c-0.1-0.5-0.3-0.9-0.5-1.3c2.1,0,2.9-0.1,5.7-0.5
		c1.9-0.3,2.5-0.4,3.9-0.9c0.3,0.5,0.8,1.1,1.1,1.4C519.7,231,519.7,231.1,519.3,231z M510.8,234.5c-0.4-0.7-0.7-1.1-1.2-1.7
		l1.3-0.5c0.4,0.6,0.6,0.9,1,1.5L510.8,234.5z M514,233.7c-0.2-0.5-0.4-1-0.8-1.5l1.4-0.3c0.3,0.5,0.5,1,0.8,1.5L514,233.7z
		 M517.4,234.1c-0.3-0.2-0.7-0.3-1.3-0.4c0.8-0.7,1.2-1.4,1.5-2.3c0.5,0.3,1.1,0.5,1.4,0.6c0.3,0.1,0.3,0.2,0,0.3
		C518.7,232.6,518.3,232.9,517.4,234.1z"/>
	<path style="fill:#FFFFFF;" d="M525.8,245.8h-1.6c0.1-1,0.2-1.9,0.2-2.9v-5.1c-0.5,0.7-0.9,1.2-1.4,1.6c-0.3-0.4-0.6-0.7-1.1-1.1
		c0.8-0.6,1.9-1.9,2.5-2.9c0.4-0.7,0.7-1.4,0.9-2.2c0.5,0.3,1.2,0.8,1.4,0.9c0.3,0.1,0.3,0.2-0.1,0.3c-0.1,0.1-0.3,0.3-1,1.3V245.8z
		 M525.6,231.8c-0.7,0.9-1.4,1.7-2.2,2.6c-0.3-0.4-0.6-0.7-1.1-1c0.8-0.6,1.2-1,2-2.2c0.3-0.4,0.8-1.2,1-1.9c0.5,0.4,1.3,0.9,1.5,1
		c0.3,0.1,0.3,0.2,0,0.3C526.6,230.7,526.3,231,525.6,231.8z M533.9,241.1c-0.1,0.5-0.1,1-0.1,1.4c-2,0.2-5.7,1-7.1,1.4
		c0-0.6-0.1-1.2-0.3-1.7c0.7,0,2-0.1,3.2-0.3v-2.3c-1.1,0-1.6,0.1-2.4,0.1v-1.4c0.7,0.1,1.2,0.1,2.4,0.1c0-0.7,0-1.4-0.1-1.8
		c0.5,0.1,1.2,0.1,1.6,0.1c0.2,0,0.3,0.1,0.1,0.3c-0.2,0.1-0.2,0.2-0.2,0.4v1.1c1,0,1.6,0,2.3-0.1v1.4c-0.8-0.1-1.4-0.1-2.3-0.1v2.1
		C532.1,241.5,533.4,241.3,533.9,241.1z M530.9,235c1,0,1.4,0,2.1-0.1v1.4c-0.9-0.1-1.2-0.2-2.8-0.2c-1.8,0-2.2,0-3.1,0.2v-1.4
		c0.8,0.1,1.2,0.1,2.4,0.1v-2.1c-1.1,0-1.5,0.1-2.2,0.2v-1.4c0.7,0.1,1.1,0.1,2.2,0.1c0-0.8,0-1.8-0.1-2.3c0.5,0.1,1.2,0.1,1.6,0.1
		c0.2,0,0.3,0.2,0.1,0.3c-0.2,0.1-0.2,0.2-0.2,0.4v1.5c1.2,0,1.6-0.1,2.3-0.1v1.4c-0.8-0.1-1.2-0.2-2.3-0.2V235z M536.7,243.8
		c0,1.5-0.1,1.7-2.7,1.9c0-0.5-0.1-0.9-0.6-1.7c1.8,0.1,1.9-0.1,1.9-0.9v-7.3c-0.8,0-1.2,0.1-1.7,0.1v-1.5c0.7,0.1,1.1,0.1,2.5,0.1
		c1.4,0,1.7,0,2.4-0.1v1.5c-0.6-0.1-0.9-0.1-1.7-0.2V243.8z M535.8,231.9c-0.9,0-1.4,0-2.1,0.1v-1.5c0.7,0.1,1,0.1,2.1,0.1
		c1.2,0,1.4,0,2.1-0.1v1.5C537.2,232,536.8,231.9,535.8,231.9z"/>
	<path style="fill:#FFFFFF;" d="M545.2,243.3c2,0.9,6.9,1.1,11.3,0.3c-0.3,0.8-0.4,1.4-0.4,1.9c-7,0.2-8.6,0.1-12.1-1.4
		c-0.9-0.4-1.5-0.1-2.4,1.4c-0.4-0.4-0.8-0.8-1.4-1.1c0.9-0.9,1.6-1.4,2.2-1.7v-5.6c-1,0-1.6,0-2,0.1v-1.5c1.1,0.2,2.7,0.2,3.7,0
		c-0.1,0.6-0.2,1.2-0.2,2.1v4.8C544.1,242.8,544.5,243,545.2,243.3z M542.3,234.2c-0.2-1.2-0.6-2.5-1-3.4l1.5-0.4
		c0.3,1.2,0.6,2.3,1.1,3.5L542.3,234.2z M554.7,234.4c-0.1,0.6-0.1,1.2-0.1,1.9v4.3c0,0.8,0,1.7,0.1,2.6h-1.5v-0.7h-5.3v0.8h-1.5
		c0.1-0.9,0.1-1.5,0.1-2.6v-4.5c0-0.6,0-1.3-0.1-1.9c0.6,0.1,1.7,0.1,3,0.1c0.1-0.4,0.3-0.9,0.3-1.4c-2.1,0-3.5,0.1-4.7,0.2v-1.5
		c1.5,0.1,3.4,0.2,6.2,0.2c0.4-0.8,0.6-1.5,0.9-2.5c0.5,0.3,1.1,0.5,1.7,0.6c0.2,0,0.2,0.1,0,0.2c-0.4,0.2-0.7,0.5-1.4,1.7
		c1.6,0,2.7-0.1,3.8-0.1v1.5c-1.3-0.1-2.8-0.2-5-0.2c-0.2,0.4-0.3,1-0.5,1.4C552.4,234.6,553.9,234.5,554.7,234.4z M548.5,231.9
		c-0.3-0.5-0.8-1-1.3-1.5l1.2-0.7c0.4,0.5,1,1.1,1.2,1.5L548.5,231.9z M553.2,235.6h-5.3v1.2h5.3V235.6z M547.8,239.1h5.3v-1.3h-5.3
		V239.1z M553.2,240.2h-5.3v1.3h5.3V240.2z"/>
</g>
<g style="opacity:0.8;">
	<path style="fill:#FFFFFF;" d="M529.2,443.1c-0.5-0.5-0.9-0.8-1.5-1.2c2.6-1.5,4.2-3.3,4.7-5.8c-2.6,0-3.6,0.1-4.4,0.2v-1.7
		c0.7,0.1,1.5,0.1,3,0.1c1.5,0,2.3,0,3.1-0.1C533.6,438.3,532.5,440.4,529.2,443.1z M536.5,442.2c0,1.2-0.2,1.4-2.9,1.9
		c-0.1-0.6-0.3-1.1-0.7-1.8c1.8,0,2.1-0.3,2.1-0.8v-9c-2.9,0-3.9,0-4.6,0.2v-1.6c1,0.1,1.8,0.2,3.1,0.1c1.9,0,2.4-0.1,3.1-0.1
		c-0.1,0.4-0.1,0.7-0.1,2.2c0.3,1,0.7,1.9,1.2,2.7c1.4-1,2.5-2.3,3.3-3.3c0.5,0.5,1.2,1,1.5,1.2c0.3,0.1,0.3,0.3-0.2,0.3
		c-0.3,0-0.8,0.3-3.9,2.9c1.3,1.7,3,2.9,5.1,3.8c-0.6,0.6-0.9,1.1-1.1,1.8c-2.6-1.6-4.4-3.3-5.8-6.7V442.2z M537,430.6
		c-1.3-0.7-2.6-1.2-4.1-1.8l0.8-1.4c1.5,0.5,2.7,1,4.2,1.6L537,430.6z"/>
	<path style="fill:#FFFFFF;" d="M554.3,438.1v2.6c0,0.8,0.1,2.3,0.2,3.2h-1.9c0.1-0.9,0.2-2.4,0.2-3.2v-2.6h-4.2v1.3h-1.7
		c0.1-0.8,0.1-1.9,0.1-2.7v-3.9c0-0.6-0.1-1.4-0.1-1.9c0.9,0.1,2.8,0.2,5.8,0.2v-0.8c0-1.7-0.1-2.3-0.2-2.7c0.7,0.1,1.3,0.1,1.9,0.1
		c0.3,0,0.3,0.1,0.1,0.3c-0.1,0.1-0.2,0.5-0.2,1v2.1c3.2,0,5.1-0.1,6-0.2c0,0.5-0.1,1.6-0.1,2.2v3.5c0,0.7,0.1,1.8,0.1,2.6h-1.7
		v-1.1H554.3z M552.7,436.8v-4.2h-4.2v4.2H552.7z M558.6,436.8v-4.2h-4.3v4.2H558.6z"/>
	<path style="fill:#FFFFFF;" d="M566.9,444.1h-1.6c0.1-1,0.2-1.9,0.2-2.9v-5.1c-0.5,0.7-0.9,1.2-1.4,1.6c-0.3-0.4-0.6-0.7-1.1-1.1
		c0.8-0.6,1.9-1.9,2.5-2.9c0.4-0.7,0.7-1.4,0.9-2.2c0.5,0.3,1.2,0.8,1.4,0.9c0.3,0.1,0.3,0.2-0.1,0.3c-0.1,0.1-0.3,0.3-1,1.3V444.1z
		 M566.8,430.2c-0.7,0.9-1.4,1.7-2.2,2.6c-0.3-0.4-0.6-0.7-1.1-1c0.8-0.6,1.2-1,2-2.2c0.3-0.4,0.8-1.2,1-1.9c0.5,0.4,1.3,0.9,1.5,1
		c0.3,0.1,0.3,0.2,0,0.3C567.7,429.1,567.4,429.4,566.8,430.2z M575,439.5c-0.1,0.5-0.1,1-0.1,1.4c-2,0.2-5.7,1-7.1,1.4
		c0-0.6-0.1-1.2-0.3-1.7c0.7,0,2-0.1,3.2-0.3V438c-1.1,0-1.6,0.1-2.4,0.1v-1.4c0.7,0.1,1.2,0.1,2.4,0.1c0-0.7,0-1.4-0.1-1.8
		c0.5,0.1,1.2,0.1,1.6,0.1c0.2,0,0.3,0.1,0.1,0.3c-0.2,0.1-0.2,0.2-0.2,0.4v1.1c1,0,1.6,0,2.3-0.1v1.4c-0.8-0.1-1.3-0.1-2.3-0.1v2.1
		C573.2,439.9,574.6,439.7,575,439.5z M572.1,433.4c1,0,1.4,0,2.1-0.1v1.4c-0.9-0.1-1.2-0.2-2.8-0.2c-1.8,0-2.2,0-3.1,0.2v-1.4
		c0.8,0.1,1.2,0.1,2.4,0.1v-2.1c-1.1,0-1.5,0.1-2.2,0.2V430c0.7,0.1,1.1,0.1,2.2,0.1c0-0.8,0-1.8-0.1-2.3c0.5,0.1,1.2,0.1,1.6,0.1
		c0.2,0,0.3,0.2,0.1,0.3c-0.2,0.1-0.2,0.2-0.2,0.4v1.5c1.2,0,1.6-0.1,2.3-0.1v1.4c-0.8-0.1-1.2-0.2-2.3-0.2V433.4z M577.9,442.2
		c0,1.5-0.1,1.7-2.7,1.9c0-0.5-0.1-0.9-0.6-1.7c1.8,0.1,1.9-0.1,1.9-0.9v-7.3c-0.8,0-1.2,0.1-1.7,0.1v-1.5c0.7,0.1,1.1,0.1,2.5,0.1
		c1.3,0,1.7,0,2.4-0.1v1.5c-0.6-0.1-0.9-0.1-1.7-0.2V442.2z M576.9,430.3c-0.9,0-1.4,0-2.1,0.1v-1.5c0.7,0.1,1,0.1,2.1,0.1
		c1.2,0,1.4,0,2.1-0.1v1.5C578.4,430.3,577.9,430.3,576.9,430.3z"/>
	<path style="fill:#FFFFFF;" d="M586.4,441.7c2,0.9,6.9,1.1,11.3,0.3c-0.3,0.8-0.4,1.4-0.4,1.9c-7,0.2-8.6,0.1-12.1-1.4
		c-0.9-0.4-1.5-0.1-2.4,1.4c-0.4-0.4-0.8-0.8-1.4-1.1c0.9-0.9,1.6-1.4,2.2-1.7v-5.6c-1,0-1.6,0-2,0.1v-1.5c1.1,0.2,2.7,0.2,3.7,0
		c-0.1,0.6-0.2,1.2-0.2,2.1v4.8C585.3,441.2,585.7,441.4,586.4,441.7z M583.5,432.6c-0.2-1.2-0.6-2.5-1-3.4l1.5-0.4
		c0.3,1.2,0.6,2.3,1.1,3.5L583.5,432.6z M595.8,432.8c-0.1,0.6-0.1,1.2-0.1,1.9v4.3c0,0.8,0,1.7,0.1,2.6h-1.5v-0.7H589v0.8h-1.5
		c0.1-0.9,0.1-1.5,0.1-2.6v-4.5c0-0.6,0-1.3-0.1-1.9c0.6,0.1,1.7,0.1,3,0.1c0.1-0.4,0.3-0.9,0.3-1.4c-2.1,0-3.5,0.1-4.7,0.2v-1.5
		c1.5,0.1,3.4,0.2,6.2,0.2c0.4-0.8,0.6-1.5,0.9-2.5c0.5,0.3,1.1,0.5,1.7,0.6c0.2,0,0.2,0.1,0,0.2c-0.4,0.2-0.7,0.5-1.4,1.7
		c1.6,0,2.7-0.1,3.8-0.1v1.5c-1.3-0.1-2.8-0.2-5-0.2c-0.2,0.4-0.3,1-0.5,1.4C593.6,432.9,595.1,432.9,595.8,432.8z M589.7,430.3
		c-0.3-0.5-0.8-1-1.3-1.5l1.2-0.7c0.4,0.5,1,1.1,1.2,1.5L589.7,430.3z M594.3,434H589v1.2h5.3V434z M589,437.5h5.3v-1.3H589V437.5z
		 M594.3,438.6H589v1.3h5.3V438.6z"/>
</g>
<g style="opacity:0.8;">
	<path style="fill:#FFFFFF;" d="M767.2,585.5c-0.5-0.5-0.9-0.8-1.5-1.2c2.6-1.5,4.2-3.3,4.7-5.8c-2.6,0-3.6,0.1-4.4,0.2v-1.7
		c0.7,0.1,1.5,0.1,3,0.1c1.5,0,2.3,0,3.1-0.1C771.6,580.7,770.5,582.8,767.2,585.5z M774.5,584.6c0,1.2-0.2,1.4-2.9,1.9
		c-0.1-0.6-0.3-1.1-0.7-1.8c1.8,0,2.1-0.3,2.1-0.8v-9c-2.9,0-3.9,0-4.6,0.2v-1.6c1,0.1,1.8,0.2,3.1,0.1c1.9,0,2.4-0.1,3.1-0.1
		c-0.1,0.4-0.1,0.7-0.1,2.2c0.3,1,0.7,1.9,1.2,2.7c1.4-1,2.5-2.3,3.3-3.3c0.5,0.5,1.2,1,1.5,1.2c0.3,0.1,0.3,0.3-0.2,0.3
		c-0.3,0-0.8,0.3-3.9,2.9c1.3,1.7,3,2.9,5.1,3.8c-0.6,0.6-0.9,1.1-1.1,1.8c-2.6-1.6-4.4-3.3-5.8-6.7V584.6z M775,573
		c-1.3-0.7-2.6-1.2-4.1-1.8l0.8-1.3c1.5,0.5,2.7,1,4.2,1.6L775,573z"/>
	<path style="fill:#FFFFFF;" d="M787.5,583.8c-0.6,0.8-1.5,1.6-2.4,2.3c-0.4-0.4-0.8-0.6-1.3-0.9c2-1.4,3.7-3.7,4.3-5.2
		c0.6,0.3,1.4,0.7,1.7,0.8c0.4,0.1,0.4,0.2,0.1,0.3C789.6,581.1,789.3,581.5,787.5,583.8z M799.2,577.5v1.7
		c-1.8-0.1-4.2-0.2-7.6-0.2c-3.3,0-5.7,0.1-7.5,0.2v-1.7c2.1,0.1,5.7,0.2,9.1,0.2c1-1.9,2.4-4.7,3-6.7c0.5,0.3,1.6,0.6,1.9,0.7
		c0.3,0.1,0.3,0.1,0,0.3c-0.4,0.3-0.8,0.9-3.3,5.7C796.6,577.7,798,577.6,799.2,577.5z M787.4,577c-0.5-1.1-1.7-3-2.9-4.1l1.4-0.9
		c1,1.2,2,2.5,3.1,4.1L787.4,577z M790.9,576.2c-0.1-1.2-0.7-4-1.1-5.2l1.6-0.4c0.3,1.3,0.9,3.9,1.2,5.3L790.9,576.2z M797.5,585.9
		c-1.2-1.7-2.7-3.3-4.8-4.9l1.1-1c1.5,1.1,4.3,3.5,5.2,4.5L797.5,585.9z"/>
	<path style="fill:#FFFFFF;" d="M804.9,586.5h-1.6c0.1-1,0.2-1.9,0.2-2.9v-5.1c-0.5,0.7-0.9,1.2-1.4,1.6c-0.3-0.4-0.6-0.7-1.1-1.1
		c0.8-0.6,1.9-1.9,2.5-2.9c0.4-0.7,0.7-1.4,0.9-2.2c0.5,0.3,1.2,0.8,1.4,0.9c0.3,0.1,0.3,0.2-0.1,0.3c-0.1,0.1-0.3,0.3-1,1.3V586.5z
		 M804.8,572.6c-0.7,0.9-1.4,1.7-2.2,2.6c-0.3-0.4-0.6-0.7-1.1-1c0.8-0.6,1.2-1,2-2.2c0.3-0.4,0.8-1.2,1-1.9c0.5,0.4,1.3,0.9,1.5,1
		c0.3,0.1,0.3,0.2,0,0.3C805.7,571.5,805.4,571.8,804.8,572.6z M813,581.9c-0.1,0.5-0.1,1-0.1,1.4c-2,0.2-5.7,1-7.1,1.4
		c0-0.6-0.1-1.2-0.3-1.7c0.7,0,2-0.1,3.2-0.3v-2.3c-1.1,0-1.6,0.1-2.4,0.1v-1.4c0.7,0.1,1.2,0.1,2.4,0.1c0-0.7,0-1.4-0.1-1.8
		c0.5,0.1,1.2,0.1,1.6,0.1c0.2,0,0.3,0.1,0.1,0.3c-0.2,0.1-0.2,0.2-0.2,0.4v1.1c1,0,1.6,0,2.3-0.1v1.4c-0.8-0.1-1.3-0.1-2.3-0.1v2.1
		C811.2,582.3,812.6,582.1,813,581.9z M810.1,575.8c1,0,1.4,0,2.1-0.1v1.4c-0.9-0.1-1.2-0.2-2.8-0.2c-1.8,0-2.2,0-3.1,0.2v-1.4
		c0.8,0.1,1.2,0.1,2.4,0.1v-2.1c-1.1,0-1.5,0.1-2.2,0.2v-1.4c0.7,0.1,1.1,0.1,2.2,0.1c0-0.8,0-1.8-0.1-2.3c0.5,0.1,1.2,0.1,1.6,0.1
		c0.2,0,0.3,0.2,0.1,0.3c-0.2,0.1-0.2,0.2-0.2,0.4v1.5c1.2,0,1.6-0.1,2.3-0.1v1.4c-0.8-0.1-1.2-0.2-2.3-0.2V575.8z M815.9,584.6
		c0,1.5-0.1,1.7-2.7,1.9c0-0.5-0.1-0.9-0.6-1.7c1.8,0.1,1.9-0.1,1.9-0.9v-7.3c-0.8,0-1.2,0.1-1.7,0.1v-1.5c0.7,0.1,1.1,0.1,2.5,0.1
		c1.3,0,1.7,0,2.4-0.1v1.5c-0.6-0.1-0.9-0.1-1.7-0.2V584.6z M814.9,572.7c-0.9,0-1.4,0-2.1,0.1v-1.5c0.7,0.1,1,0.1,2.1,0.1
		c1.2,0,1.4,0,2.1-0.1v1.5C816.4,572.8,815.9,572.7,814.9,572.7z"/>
	<path style="fill:#FFFFFF;" d="M824.4,584.1c2,0.9,6.9,1.1,11.3,0.3c-0.3,0.8-0.4,1.4-0.4,1.9c-7,0.2-8.6,0.1-12.1-1.4
		c-0.9-0.4-1.5-0.1-2.4,1.4c-0.4-0.4-0.8-0.8-1.4-1.1c0.9-0.9,1.6-1.4,2.2-1.7v-5.6c-1,0-1.6,0-2,0.1v-1.5c1.1,0.2,2.7,0.2,3.7,0
		c-0.1,0.6-0.2,1.2-0.2,2.1v4.8C823.3,583.6,823.7,583.8,824.4,584.1z M821.5,575c-0.2-1.2-0.6-2.5-1-3.4l1.5-0.4
		c0.3,1.2,0.6,2.3,1.1,3.5L821.5,575z M833.8,575.2c-0.1,0.6-0.1,1.2-0.1,1.9v4.3c0,0.8,0,1.7,0.1,2.6h-1.5v-0.7H827v0.8h-1.5
		c0.1-0.9,0.1-1.5,0.1-2.6v-4.5c0-0.6,0-1.3-0.1-1.9c0.6,0.1,1.7,0.1,3,0.1c0.1-0.4,0.3-0.9,0.3-1.4c-2.1,0-3.5,0.1-4.7,0.2v-1.5
		c1.5,0.1,3.4,0.2,6.2,0.2c0.4-0.8,0.6-1.5,0.9-2.5c0.5,0.3,1.1,0.5,1.7,0.6c0.2,0,0.2,0.1,0,0.2c-0.4,0.2-0.7,0.5-1.4,1.7
		c1.6,0,2.7-0.1,3.8-0.1v1.5c-1.3-0.1-2.8-0.2-5-0.2c-0.2,0.4-0.3,1-0.5,1.4C831.6,575.4,833.1,575.3,833.8,575.2z M827.7,572.7
		c-0.3-0.5-0.8-1-1.3-1.5l1.2-0.7c0.4,0.5,1,1.1,1.2,1.5L827.7,572.7z M832.3,576.4H827v1.2h5.3V576.4z M827,579.9h5.3v-1.3H827
		V579.9z M832.3,581H827v1.3h5.3V581z"/>
</g>
<g style="opacity:0.8;">
	<path style="fill:#FFFFFF;" d="M452.3,597.7V596c1.5,0.1,3.3,0.1,6.1,0.1s4.6-0.1,6.1-0.2v1.7c-1.3-0.1-2.9-0.1-5.2-0.2
		c0,1.4-0.1,2.6-0.2,3.7c3,0,5-0.1,6.7-0.2v1.8c-1.5-0.1-3.5-0.1-6.2-0.2c1.1,3.5,3.6,5.9,6.9,6.1c-0.6,0.5-1.3,1.4-1.4,1.9
		c-3.7-1.4-5.8-3.7-6.3-7.3c-0.9,4-3,6.2-7,7.6c-0.3-0.5-0.7-1-1.2-1.4c4.1-1.2,6-3.1,6.7-6.9c-2.6,0-4.5,0.1-6,0.2v-1.7
		c1.6,0.1,3.5,0.1,6.2,0.1c0.1-1.1,0.2-2.3,0.2-3.7C455.3,597.5,453.6,597.6,452.3,597.7z"/>
	<path style="fill:#FFFFFF;" d="M471.5,603.1c-0.8-0.8-2-1.6-3-2.1l1-1.4c0.9,0.5,2,1.2,3,1.9L471.5,603.1z M471.4,607.9
		c-0.4,1-0.7,1.9-1.1,3.1c-0.6-0.6-1.1-1-1.7-1.3c0.6-0.8,0.9-1.6,1.4-2.8c0.4-1,0.8-2,1.1-2.9c0.4,0.6,0.9,1,1.4,1.3
		C472.2,606,471.9,606.6,471.4,607.9z M471.8,598.7c-0.8-0.9-1.6-1.9-2.5-2.5l1.1-1.2c0.9,0.7,1.8,1.7,2.6,2.4L471.8,598.7z
		 M476.6,597.4c-1.6,0-2.2,0-3.2,0.1v-1.6c1,0.1,1.6,0.2,3.2,0.2h4.8c1.7,0,2.5,0,3.3-0.2v1.7c-0.6-0.1-1.1-0.1-2-0.1v11.9
		c0,1.5,0,1.6-2.8,1.9c-0.2-0.7-0.4-1.2-1-2c2,0.3,2.4,0.1,2.4-0.6v-11.3H476.6z M475.5,605.9v2.1H474c0.1-1.1,0.1-2.2,0.1-3.2v-3.3
		c0-0.8-0.1-1.6-0.1-2.3c0.6,0.1,1.5,0.2,2.7,0.2c1.5,0,2.2-0.1,2.8-0.2c-0.1,0.7-0.1,1.5-0.1,2.3v2.5c0,0.6,0,1.9,0.1,3.1H478v-1.3
		H475.5z M478,604.7v-3.9h-2.6v3.9H478z"/>
	<path style="fill:#FFFFFF;" d="M489.9,611.1h-1.6c0.1-1,0.2-1.9,0.2-2.9v-5.1c-0.5,0.7-0.9,1.2-1.4,1.6c-0.3-0.4-0.6-0.7-1.1-1.1
		c0.8-0.6,1.9-1.9,2.5-2.9c0.4-0.7,0.7-1.4,0.9-2.2c0.5,0.3,1.2,0.8,1.4,0.9c0.3,0.1,0.3,0.2-0.1,0.3c-0.1,0.1-0.3,0.3-1,1.3V611.1z
		 M489.8,597.2c-0.7,0.9-1.4,1.7-2.2,2.6c-0.3-0.4-0.6-0.7-1.1-1c0.8-0.6,1.2-1,2-2.2c0.3-0.4,0.8-1.2,1-1.9c0.5,0.4,1.3,0.9,1.5,1
		c0.3,0.1,0.3,0.2,0,0.3C490.7,596.1,490.4,596.4,489.8,597.2z M498,606.5c-0.1,0.5-0.1,1-0.1,1.4c-2,0.2-5.7,1-7.1,1.4
		c0-0.6-0.1-1.2-0.3-1.7c0.7,0,2-0.1,3.2-0.3V605c-1.1,0-1.6,0.1-2.4,0.1v-1.4c0.7,0.1,1.2,0.1,2.4,0.1c0-0.7,0-1.4-0.1-1.8
		c0.5,0.1,1.2,0.1,1.6,0.1c0.2,0,0.3,0.1,0.1,0.3c-0.2,0.1-0.2,0.2-0.2,0.4v1.1c1,0,1.6,0,2.3-0.1v1.4c-0.8-0.1-1.4-0.1-2.3-0.1v2.1
		C496.2,606.9,497.6,606.7,498,606.5z M495.1,600.4c1,0,1.4,0,2.1-0.1v1.4c-0.9-0.1-1.2-0.2-2.8-0.2c-1.8,0-2.2,0-3.1,0.2v-1.4
		c0.8,0.1,1.2,0.1,2.4,0.1v-2.1c-1.1,0-1.5,0.1-2.2,0.2V597c0.7,0.1,1.1,0.1,2.2,0.1c0-0.8,0-1.8-0.1-2.3c0.5,0.1,1.2,0.1,1.6,0.1
		c0.2,0,0.3,0.2,0.1,0.3c-0.2,0.1-0.2,0.2-0.2,0.4v1.5c1.2,0,1.6-0.1,2.3-0.1v1.4c-0.8-0.1-1.2-0.2-2.3-0.2V600.4z M500.9,609.2
		c0,1.5-0.1,1.7-2.7,1.9c0-0.5-0.1-0.9-0.6-1.7c1.8,0.1,1.9-0.1,1.9-0.9v-7.3c-0.8,0-1.2,0.1-1.7,0.1v-1.5c0.7,0.1,1.1,0.1,2.5,0.1
		c1.4,0,1.7,0,2.4-0.1v1.5c-0.6-0.1-0.9-0.1-1.7-0.2V609.2z M499.9,597.3c-0.9,0-1.4,0-2.1,0.1v-1.5c0.7,0.1,1,0.1,2.1,0.1
		c1.2,0,1.4,0,2.1-0.1v1.5C501.4,597.3,500.9,597.3,499.9,597.3z"/>
	<path style="fill:#FFFFFF;" d="M509.4,608.7c2,0.9,6.9,1.1,11.3,0.3c-0.3,0.8-0.4,1.4-0.4,1.9c-7,0.2-8.6,0.1-12.1-1.4
		c-0.9-0.4-1.5-0.1-2.4,1.4c-0.4-0.4-0.8-0.8-1.4-1.1c0.9-0.9,1.6-1.4,2.2-1.7v-5.6c-1,0-1.6,0-2,0.1v-1.5c1.1,0.2,2.7,0.2,3.7,0
		c-0.1,0.6-0.2,1.2-0.2,2.1v4.8C508.3,608.2,508.7,608.4,509.4,608.7z M506.5,599.6c-0.2-1.2-0.6-2.5-1-3.4l1.5-0.4
		c0.3,1.2,0.6,2.3,1.1,3.5L506.5,599.6z M518.8,599.8c-0.1,0.6-0.1,1.2-0.1,1.9v4.3c0,0.8,0,1.7,0.1,2.6h-1.5v-0.7H512v0.8h-1.5
		c0.1-0.9,0.1-1.5,0.1-2.6v-4.5c0-0.6,0-1.3-0.1-1.9c0.6,0.1,1.7,0.1,3,0.1c0.1-0.4,0.3-0.9,0.3-1.4c-2.1,0-3.5,0.1-4.7,0.2v-1.5
		c1.5,0.1,3.4,0.2,6.2,0.2c0.4-0.8,0.6-1.5,0.9-2.5c0.5,0.3,1.1,0.5,1.7,0.6c0.2,0,0.2,0.1,0,0.2c-0.4,0.2-0.7,0.5-1.4,1.7
		c1.6,0,2.7-0.1,3.8-0.1v1.5c-1.3-0.1-2.8-0.2-5-0.2c-0.2,0.4-0.3,1-0.5,1.4C516.6,599.9,518.1,599.9,518.8,599.8z M512.7,597.3
		c-0.3-0.5-0.8-1-1.3-1.5l1.2-0.7c0.4,0.5,1,1.1,1.2,1.5L512.7,597.3z M517.3,601H512v1.2h5.3V601z M512,604.5h5.3v-1.3H512V604.5z
		 M517.3,605.6H512v1.3h5.3V605.6z"/>
</g>
<g style="opacity:0.8;">
	<path style="fill:#FFFFFF;" d="M666.1,703.6v1.6c-1.7-0.1-4.3-0.2-7.5-0.2c-3.5,0-5.8,0.1-7.5,0.2v-1.6c1.6,0.1,4,0.2,6.9,0.2v-1.6
		c-1.8,0-3.3,0.1-4.4,0.2v-1.5c1.1,0.1,2.5,0.1,4.4,0.1v-1.5H654c-0.6,0.8-1.2,1.5-1.8,2.1c-0.3-0.4-0.7-0.7-1.1-1
		c1.3-1,2.1-2.1,3-3.9c0.5,0.3,1.1,0.6,1.4,0.7c0.3,0.1,0.4,0.2,0.1,0.3c-0.2,0.1-0.4,0.2-0.6,0.5h3.2v-1.7c-2.8,0-4.5,0-5.3,0.1
		c0.1-0.2,0.1-0.8,0.1-1.3v-3.7c0-0.5,0-1-0.1-1.3c0.9,0.1,3.3,0.1,5.8,0.1c2.6,0,4.9,0,5.8-0.1c0,0.2-0.1,0.8-0.1,1.3v3.7
		c0,0.5,0,1,0.1,1.3c-0.7-0.1-2.1-0.1-4.8-0.1v1.7c3.4,0,4.9,0,5.4-0.1v1.4c-0.5,0-2-0.1-5.4-0.1v1.5c2.1,0,3.7,0,4.8-0.1v1.5
		c-1.2-0.1-2.7-0.2-4.8-0.2v1.6C662.3,703.8,664.6,703.7,666.1,703.6z M662.9,691.7h-8.5v1.2h8.5V691.7z M662.9,694h-8.5v1.3h8.5
		V694z"/>
	<path style="fill:#FFFFFF;" d="M671.3,702.4c-0.4,1.2-0.7,2.2-1,3.3c-0.6-0.5-1.2-1-1.7-1.2c0.5-0.8,0.7-1.2,1.3-2.9
		c0.5-1.5,0.7-1.9,0.9-2.9c0.3,0.5,0.8,0.9,1.4,1.1C671.9,700.4,671.7,701.1,671.3,702.4z M671.5,697.3c-0.6-0.6-1.9-1.4-2.8-1.7
		l0.9-1.3c0.8,0.5,2.1,1.2,2.9,1.7L671.5,697.3z M672.2,693.1c-0.5-0.6-1.7-1.7-2.6-2.2l1.1-1.1c0.9,0.7,1.9,1.5,2.7,2.2
		L672.2,693.1z M673.8,695.5c-0.3-0.3-0.9-0.5-1.3-0.6c1.3-1.3,2.9-3.9,3.5-5.7c0.4,0.2,1.4,0.5,1.8,0.6c0.2,0,0.3,0.3-0.1,0.3
		c-0.3,0.1-0.4,0.2-1,1.1h4.9c1.2,0,2-0.1,2.6-0.2v1.5c-0.6-0.1-1.6-0.1-2.6-0.1H676c-0.3,0.5-0.7,1.1-1.1,1.6h4.3
		c1.5,0,3-0.1,3.9-0.1l-0.3,4.2c0.7,0,1.4,0,1.8-0.1v1.4c-0.5-0.1-1.2-0.1-1.9-0.1l-0.2,3.1c0.6,0,1.1-0.1,1.5-0.1v1.5
		c-0.4-0.1-0.8-0.1-1.5-0.1c-0.1,1.8-0.3,2.2-2.8,2.6c-0.1-0.6-0.4-1.1-0.8-1.5c1.7,0,2.1-0.3,2.2-1.1h-4.3c-1.4,0-1.9,0-2.9,0.1
		l0.4-4.4c-0.6,0-1.2,0.1-1.7,0.1V698c0.5,0.1,1.2,0.1,1.8,0.1l0.4-3.9C674.4,694.7,674.1,695.1,673.8,695.5z M675.6,699.3l-0.4,3.1
		h5.8l0.2-3.1H675.6z M681.4,698.2l0.2-3h-5.5l-0.3,3H681.4z M678,702c0-0.5-0.4-1.6-0.7-2l1.3-0.3c0.2,0.6,0.6,1.5,0.7,2L678,702z
		 M678.3,697.8c-0.1-0.5-0.4-1.3-0.6-1.7l1.4-0.3c0.3,0.5,0.6,1.2,0.8,1.8L678.3,697.8z"/>
	<path style="fill:#FFFFFF;" d="M690,706h-1.6c0.1-1,0.2-1.9,0.2-2.9V698c-0.5,0.7-0.9,1.2-1.4,1.6c-0.3-0.4-0.6-0.7-1.1-1.1
		c0.8-0.6,1.9-1.9,2.5-2.9c0.4-0.7,0.7-1.4,0.9-2.2c0.5,0.3,1.2,0.8,1.4,0.9c0.3,0.1,0.3,0.2-0.1,0.3c-0.1,0.1-0.3,0.3-1,1.3V706z
		 M689.9,692.1c-0.7,0.9-1.4,1.7-2.2,2.6c-0.3-0.4-0.6-0.7-1.1-1c0.8-0.6,1.2-1,2-2.2c0.3-0.4,0.8-1.2,1-1.9c0.5,0.4,1.3,0.9,1.5,1
		c0.3,0.1,0.3,0.2,0,0.3C690.8,691,690.5,691.2,689.9,692.1z M698.1,701.4c-0.1,0.5-0.1,1-0.1,1.4c-2,0.2-5.7,1-7.1,1.4
		c0-0.6-0.1-1.2-0.3-1.7c0.7,0,2-0.1,3.2-0.3v-2.3c-1.1,0-1.6,0.1-2.4,0.1v-1.4c0.7,0.1,1.2,0.1,2.4,0.1c0-0.7,0-1.4-0.1-1.8
		c0.5,0.1,1.2,0.1,1.6,0.1c0.2,0,0.3,0.1,0.1,0.3c-0.2,0.1-0.2,0.2-0.2,0.4v1.1c1,0,1.6,0,2.3-0.1v1.4c-0.8-0.1-1.4-0.1-2.3-0.1v2.1
		C696.3,701.8,697.6,701.5,698.1,701.4z M695.1,695.2c1,0,1.4,0,2.1-0.1v1.4c-0.9-0.1-1.2-0.2-2.8-0.2c-1.8,0-2.2,0-3.1,0.2v-1.4
		c0.8,0.1,1.2,0.1,2.4,0.1v-2.1c-1.1,0-1.5,0.1-2.2,0.2v-1.4c0.7,0.1,1.1,0.1,2.2,0.1c0-0.8,0-1.8-0.1-2.3c0.5,0.1,1.2,0.1,1.6,0.1
		c0.2,0,0.3,0.2,0.1,0.3c-0.2,0.1-0.2,0.2-0.2,0.4v1.5c1.2,0,1.6-0.1,2.3-0.1v1.4c-0.8-0.1-1.2-0.2-2.3-0.2V695.2z M701,704.1
		c0,1.5-0.1,1.7-2.7,1.9c0-0.5-0.1-0.9-0.6-1.7c1.8,0.1,1.9-0.1,1.9-0.9v-7.3c-0.8,0-1.2,0.1-1.7,0.1v-1.5c0.7,0.1,1.1,0.1,2.5,0.1
		c1.3,0,1.7,0,2.4-0.1v1.5c-0.6-0.1-0.9-0.1-1.7-0.2V704.1z M700,692.2c-0.9,0-1.4,0-2.1,0.1v-1.5c0.7,0.1,1,0.1,2.1,0.1
		c1.2,0,1.4,0,2.1-0.1v1.5C701.4,692.2,701,692.2,700,692.2z"/>
	<path style="fill:#FFFFFF;" d="M709.4,703.5c2,0.9,6.9,1.1,11.3,0.3c-0.3,0.8-0.4,1.4-0.4,1.9c-7,0.2-8.6,0.1-12.1-1.4
		c-0.9-0.4-1.5-0.1-2.4,1.4c-0.4-0.4-0.8-0.8-1.4-1.1c0.9-0.9,1.6-1.4,2.2-1.7v-5.6c-1,0-1.6,0-2,0.1V696c1.1,0.2,2.7,0.2,3.7,0
		c-0.1,0.6-0.2,1.2-0.2,2.1v4.8C708.4,703.1,708.7,703.2,709.4,703.5z M706.6,694.5c-0.2-1.2-0.6-2.5-1-3.4l1.5-0.4
		c0.3,1.2,0.6,2.3,1.1,3.5L706.6,694.5z M718.9,694.6c-0.1,0.6-0.1,1.2-0.1,1.9v4.3c0,0.8,0,1.7,0.1,2.6h-1.5v-0.7H712v0.8h-1.5
		c0.1-0.9,0.1-1.5,0.1-2.6v-4.5c0-0.6,0-1.3-0.1-1.9c0.6,0.1,1.7,0.1,3,0.1c0.1-0.4,0.3-0.9,0.3-1.4c-2.1,0-3.5,0.1-4.7,0.2v-1.5
		c1.5,0.1,3.4,0.2,6.2,0.2c0.4-0.8,0.6-1.5,0.9-2.5c0.5,0.3,1.1,0.5,1.7,0.6c0.2,0,0.2,0.1,0,0.2c-0.4,0.2-0.7,0.5-1.4,1.7
		c1.6,0,2.7-0.1,3.8-0.1v1.5c-1.3-0.1-2.8-0.2-5-0.2c-0.2,0.4-0.3,1-0.5,1.4C716.7,694.8,718.2,694.7,718.9,694.6z M712.8,692.2
		c-0.3-0.5-0.8-1-1.3-1.5l1.2-0.7c0.4,0.5,1,1.1,1.2,1.5L712.8,692.2z M717.4,695.9H712v1.2h5.3V695.9z M712,699.3h5.3v-1.3H712
		V699.3z M717.4,700.4H712v1.3h5.3V700.4z"/>
</g>
<g style="opacity:0.8;">
	<path style="fill:#FFFFFF;" d="M575.3,541.5c-0.2,0.8-0.4,1.5-0.6,2.3c-0.5-0.4-0.9-0.6-1.4-0.8c0.4-0.7,0.7-1.3,1-2.2
		c0.3-0.7,0.5-1.6,0.6-2.4c0.3,0.3,0.6,0.6,1.1,0.8C575.8,539.8,575.6,540.5,575.3,541.5z M575.6,537.6c-0.7-0.6-1.2-0.9-2.3-1.3
		l0.6-1c1,0.4,1.7,0.7,2.4,1.1L575.6,537.6z M576.1,534.5c-0.6-0.6-1.2-1.1-2.2-1.6l0.8-0.9c0.8,0.4,1.5,1,2.2,1.4L576.1,534.5z
		 M583.9,539.6c-1.2,2.5-3.6,4-7,4.7c-0.2-0.5-0.5-0.9-0.9-1.2c2.6-0.3,4.1-0.9,5.5-2.2c0.7-0.7,1.4-1.8,1.8-3.2
		c0.3,0.2,1,0.5,1.3,0.5c0.3,0,0.3,0.1,0.1,0.3C584.4,538.7,584.2,539,583.9,539.6z M578.9,535.8c-0.2,0.7-0.6,2.1-1.1,3.4
		c-0.4-0.3-0.8-0.3-1.2-0.4c0.8-1.3,1.3-3,1.5-4.6c0.4,0.1,1,0.3,1.3,0.3c0.3,0,0.3,0.1,0,0.3C579.2,534.9,579.1,535.2,578.9,535.8z
		 M581.4,532.5v5.9c0,0.6,0,1.2,0.1,1.8h-1.3c0.1-0.6,0.1-1.1,0.1-1.8v-5.2c0-0.6,0-1.2-0.1-1.7c0.5,0.1,1,0.1,1.4,0.1
		c0.2,0,0.2,0.1,0,0.3C581.5,532,581.4,532.2,581.4,532.5z M584.8,537.4c-0.7-1.1-1.6-2-2.6-2.9l0.9-0.7c0.9,0.8,1.8,1.7,2.7,2.7
		L584.8,537.4z"/>
	<path style="fill:#FFFFFF;" d="M590.7,540.1c-0.1,0.5-0.1,0.9-0.1,1.1c-2.3,0.8-2.9,1.1-3.3,1.3c-0.1-0.5-0.3-1-0.4-1.5
		c0.3,0,0.8-0.1,1.5-0.3v-4.2c-0.7,0-1,0.1-1.4,0.1v-1.2c0.3,0,0.7,0.1,1.4,0.1c0-2.5,0-2.8-0.1-3.6c0.6,0.1,1,0.1,1.4,0.1
		c0.2,0,0.3,0.1,0.1,0.3c-0.2,0.2-0.3,0.6-0.3,1.2v2c0.6,0,1,0,1.2-0.1v1.2c-0.2-0.1-0.6-0.1-1.2-0.1v3.9
		C589.9,540.4,590.3,540.3,590.7,540.1z M592.3,535v1.8c0.9,0,1.9,0,2.4,0c-0.1,0.4-0.1,1-0.1,1.2v1.8c0,2-0.1,2.1-1.7,2.6
		c-0.1-0.5-0.2-0.8-0.5-1.2c1.2,0.1,1.2,0,1.2-1.5v-1.9h-1.3c0,3.3-0.4,4.8-1.9,6.5c-0.4-0.3-0.5-0.4-1.1-0.7c1.5-1.2,1.9-2.1,2-4.5
		c0.1-1.2,0.1-3.2-0.1-5.2c0.7,0.1,2.2,0.2,3.9,0.1c-0.1-1-0.2-1.8-0.2-2.5c0.4,0.1,1,0.1,1.3,0.1s0.4,0.1,0.1,0.4
		c-0.1,0.1-0.1,1-0.1,2.1c1.5,0,2.3-0.1,3-0.1v1.3c-0.7-0.1-1.6-0.1-3-0.1c0.1,2.2,0.3,4.1,0.7,5.2c0.5-1,0.7-2.6,0.7-4.1
		c0.4,0.1,1,0.2,1.3,0.3c0.3,0,0.3,0.1,0.1,0.2c-0.2,0.1-0.3,0.4-0.5,1.7c-0.3,1.2-0.6,2.2-1,3c1,1.7,1.4,1.5,1.4,0
		c0.3,0.3,0.8,0.6,1.1,0.8c-0.5,1.8-0.9,2-1.2,2c-0.3,0-1.3-0.8-1.9-1.9c-0.5,0.7-1.2,1.3-2.2,2.1c-0.2-0.3-0.7-0.6-1.1-0.8
		c1-0.5,2-1.2,2.8-2.3c-0.5-1.3-0.8-2.9-1.1-6.2H592.3z M597.5,533.7c-0.1-0.4-0.3-0.7-0.6-1.3l1.1-0.5c0.2,0.4,0.5,0.8,0.8,1.2
		L597.5,533.7z"/>
	<path style="fill:#FFFFFF;" d="M603.9,544.3h-1.2c0.1-0.8,0.1-1.4,0.1-2.3v-4c-0.4,0.5-0.7,0.9-1.1,1.3c-0.2-0.3-0.4-0.6-0.8-0.8
		c0.6-0.5,1.5-1.4,1.9-2.3c0.3-0.6,0.5-1.1,0.7-1.7c0.4,0.3,0.9,0.6,1.1,0.7c0.2,0.1,0.2,0.1,0,0.3c-0.1,0-0.3,0.2-0.7,1V544.3z
		 M603.8,533.5c-0.5,0.7-1.1,1.4-1.7,2c-0.3-0.3-0.5-0.5-0.9-0.8c0.6-0.4,1-0.8,1.6-1.7c0.2-0.3,0.6-0.9,0.8-1.5
		c0.4,0.3,1,0.7,1.2,0.7c0.2,0.1,0.2,0.2,0,0.3C604.6,532.6,604.3,532.9,603.8,533.5z M610.2,540.7c-0.1,0.3-0.1,0.7-0.1,1.1
		c-1.5,0.2-4.4,0.8-5.6,1.1c0-0.4-0.1-0.9-0.3-1.4c0.5,0,1.5-0.1,2.5-0.2v-1.8c-0.9,0-1.2,0-1.8,0.1v-1.1c0.6,0.1,1,0.1,1.8,0.1
		c0-0.5,0-1.1-0.1-1.4c0.4,0.1,0.9,0.1,1.2,0.1c0.2,0,0.2,0.1,0.1,0.2c-0.1,0.1-0.2,0.1-0.2,0.3v0.8c0.8,0,1.2,0,1.8-0.1v1.1
		c-0.6-0.1-1.1-0.1-1.8-0.1v1.6C608.8,541,609.9,540.8,610.2,540.7z M607.9,536c0.8,0,1.1,0,1.6-0.1v1.1c-0.7-0.1-0.9-0.1-2.1-0.1
		c-1.4,0-1.7,0-2.4,0.1v-1.1c0.6,0.1,0.9,0.1,1.8,0.1v-1.6c-0.8,0-1.1,0-1.7,0.1v-1.1c0.6,0.1,0.9,0.1,1.7,0.1c0-0.6,0-1.4-0.1-1.8
		c0.4,0.1,0.9,0.1,1.2,0.1c0.2,0,0.2,0.1,0.1,0.2c-0.1,0.1-0.2,0.1-0.2,0.3v1.2c0.9,0,1.2,0,1.8-0.1v1.1c-0.6-0.1-0.9-0.1-1.8-0.1
		V536z M612.5,542.8c0,1.2-0.1,1.3-2.1,1.5c0-0.4-0.1-0.7-0.5-1.4c1.4,0.1,1.5,0,1.5-0.7v-5.7c-0.6,0-0.9,0-1.3,0.1v-1.2
		c0.6,0.1,0.9,0.1,1.9,0.1s1.3,0,1.9-0.1v1.2c-0.5-0.1-0.7-0.1-1.3-0.1V542.8z M611.7,533.6c-0.7,0-1.1,0-1.6,0.1v-1.2
		c0.5,0.1,0.7,0.1,1.6,0.1c0.9,0,1.1,0,1.6-0.1v1.2C612.8,533.6,612.5,533.6,611.7,533.6z"/>
	<path style="fill:#FFFFFF;" d="M619,542.4c1.5,0.7,5.4,0.8,8.8,0.3c-0.3,0.6-0.3,1.1-0.3,1.5c-5.5,0.2-6.7,0-9.4-1.1
		c-0.7-0.3-1.1,0-1.8,1.1c-0.3-0.3-0.7-0.6-1.1-0.8c0.7-0.7,1.2-1.1,1.7-1.3v-4.3c-0.8,0-1.2,0-1.6,0.1v-1.2c0.9,0.1,2.1,0.2,2.9,0
		c-0.1,0.5-0.1,0.9-0.1,1.7v3.7C618.2,542,618.5,542.2,619,542.4z M616.8,535.4c-0.2-1-0.5-2-0.8-2.7l1.2-0.3
		c0.2,0.9,0.5,1.8,0.9,2.7L616.8,535.4z M626.4,535.5c-0.1,0.5-0.1,1-0.1,1.5v3.4c0,0.7,0,1.3,0.1,2h-1.2v-0.5h-4.2v0.7h-1.2
		c0.1-0.7,0.1-1.2,0.1-2V537c0-0.5,0-1-0.1-1.5c0.5,0.1,1.3,0.1,2.3,0.1c0.1-0.3,0.2-0.7,0.3-1.1c-1.6,0-2.7,0.1-3.7,0.1v-1.2
		c1.2,0.1,2.6,0.1,4.8,0.1c0.3-0.6,0.5-1.1,0.7-2c0.4,0.2,0.9,0.4,1.3,0.4c0.1,0,0.2,0.1,0,0.2c-0.3,0.2-0.5,0.4-1.1,1.3
		c1.2,0,2.1,0,2.9-0.1v1.2c-1-0.1-2.1-0.1-3.9-0.1c-0.1,0.3-0.3,0.8-0.3,1.1C624.7,535.6,625.9,535.6,626.4,535.5z M621.7,533.6
		c-0.3-0.4-0.6-0.8-1-1.2l1-0.6c0.3,0.4,0.7,0.9,1,1.2L621.7,533.6z M625.2,536.4h-4.2v0.9h4.2V536.4z M621.1,539.2h4.2v-1h-4.2
		V539.2z M625.2,540h-4.2v1h4.2V540z"/>
</g>
<g style="opacity:0.8;">
	<path style="fill:#FFFFFF;" d="M530.2,816.2c-0.4,1.2-0.7,2.2-1,3.3c-0.6-0.5-1.2-1-1.7-1.2c0.5-0.8,0.7-1.2,1.3-2.9
		c0.5-1.5,0.7-1.9,0.9-2.9c0.3,0.5,0.8,0.9,1.4,1.1C530.8,814.3,530.6,814.9,530.2,816.2z M530.4,811.2c-0.6-0.6-1.9-1.4-2.8-1.7
		l0.9-1.3c0.8,0.5,2.1,1.2,2.9,1.7L530.4,811.2z M531.1,806.9c-0.5-0.6-1.7-1.7-2.6-2.2l1.1-1.1c0.9,0.7,1.9,1.5,2.7,2.2
		L531.1,806.9z M532.7,809.4c-0.3-0.3-0.9-0.5-1.3-0.6c1.3-1.3,2.9-3.9,3.5-5.7c0.4,0.2,1.4,0.5,1.8,0.6c0.2,0,0.3,0.3-0.1,0.3
		c-0.3,0.1-0.4,0.2-1,1.1h4.9c1.2,0,2-0.1,2.6-0.2v1.5c-0.6-0.1-1.6-0.1-2.6-0.1h-5.7c-0.3,0.5-0.7,1.1-1.1,1.6h4.3
		c1.5,0,3-0.1,3.9-0.1l-0.3,4.2c0.7,0,1.4,0,1.8-0.1v1.3c-0.5-0.1-1.2-0.1-1.9-0.1l-0.2,3.1c0.6,0,1.1-0.1,1.5-0.1v1.5
		c-0.4-0.1-0.8-0.1-1.5-0.1c-0.1,1.8-0.3,2.2-2.8,2.6c-0.1-0.6-0.4-1.1-0.8-1.5c1.7,0,2.1-0.3,2.2-1.1h-4.3c-1.4,0-1.9,0-2.9,0.1
		l0.4-4.4c-0.6,0-1.2,0.1-1.7,0.1v-1.3c0.5,0.1,1.2,0.1,1.8,0.1l0.4-3.9C533.4,808.5,533,809,532.7,809.4z M534.6,813.1l-0.4,3.1
		h5.8l0.2-3.1H534.6z M540.3,812l0.2-3H535l-0.3,3H540.3z M536.9,815.9c0-0.5-0.4-1.6-0.7-2l1.4-0.3c0.2,0.6,0.6,1.5,0.7,2
		L536.9,815.9z M537.3,811.6c-0.1-0.5-0.4-1.3-0.6-1.7l1.4-0.3c0.3,0.5,0.6,1.2,0.8,1.8L537.3,811.6z"/>
	<path style="fill:#FFFFFF;" d="M549.9,814.4c-0.2,0.6-0.1,1.1-0.1,1.4c-3,1.1-3.8,1.4-4.2,1.7c-0.1-0.6-0.3-1.2-0.6-1.9
		c0.4,0,1.1-0.1,2-0.3v-5.5c-0.9,0-1.4,0.1-1.7,0.1v-1.5c0.4,0.1,0.9,0.1,1.7,0.1c0-3.2,0-3.6-0.2-4.6c0.8,0.1,1.2,0.1,1.8,0.1
		c0.3,0,0.3,0.1,0.1,0.3c-0.3,0.2-0.3,0.8-0.3,1.5v2.6c0.7,0,1.2-0.1,1.5-0.1v1.5c-0.3-0.1-0.8-0.1-1.5-0.1v5.1
		C548.9,814.8,549.4,814.6,549.9,814.4z M552,807.9v2.3c1.2,0.1,2.4,0,3.1,0c-0.1,0.5-0.1,1.2-0.1,1.6v2.3c0,2.6-0.1,2.7-2.2,3.3
		c-0.1-0.6-0.3-1-0.7-1.6c1.5,0.1,1.6,0,1.6-1.9v-2.5H552c0,4.2-0.5,6.1-2.4,8.4c-0.5-0.4-0.6-0.5-1.5-0.9c1.9-1.6,2.4-2.7,2.6-5.8
		c0.1-1.6,0.1-4.1-0.1-6.7c0.9,0.1,2.8,0.2,5,0.2c-0.1-1.2-0.2-2.4-0.3-3.2c0.6,0.1,1.2,0.1,1.6,0.1s0.5,0.1,0.1,0.5
		c-0.1,0.1-0.1,1.3-0.1,2.7c1.9,0,3-0.1,3.9-0.2v1.6c-1-0.1-2-0.1-3.9-0.2c0.1,2.8,0.4,5.2,0.9,6.7c0.6-1.3,0.9-3.4,0.9-5.2
		c0.5,0.2,1.2,0.3,1.7,0.3c0.3,0,0.3,0.1,0.1,0.3c-0.2,0.1-0.3,0.5-0.7,2.2c-0.3,1.6-0.7,2.8-1.3,3.8c1.3,2.2,1.8,1.9,1.8,0
		c0.4,0.4,1,0.8,1.4,1c-0.6,2.3-1.1,2.6-1.5,2.6c-0.4,0-1.6-1-2.5-2.4c-0.7,0.9-1.6,1.7-2.9,2.7c-0.2-0.3-0.9-0.8-1.4-1
		c1.3-0.6,2.5-1.6,3.6-2.9c-0.7-1.6-1.1-3.7-1.4-8H552z M558.7,806.1c-0.1-0.5-0.3-0.9-0.8-1.7l1.4-0.6c0.3,0.5,0.6,1.1,1,1.6
		L558.7,806.1z"/>
	<path style="fill:#FFFFFF;" d="M566.9,819.8h-1.6c0.1-1,0.2-1.9,0.2-2.9v-5.1c-0.5,0.7-0.9,1.2-1.4,1.6c-0.3-0.4-0.6-0.7-1.1-1.1
		c0.8-0.6,1.9-1.9,2.5-2.9c0.4-0.7,0.7-1.4,0.9-2.2c0.5,0.3,1.2,0.8,1.4,0.9c0.3,0.1,0.3,0.2-0.1,0.3c-0.1,0.1-0.3,0.3-1,1.3V819.8z
		 M566.8,805.9c-0.7,0.9-1.4,1.7-2.2,2.6c-0.3-0.4-0.6-0.7-1.1-1c0.8-0.6,1.2-1,2-2.2c0.3-0.4,0.8-1.2,1-1.9c0.5,0.4,1.3,0.9,1.5,1
		c0.3,0.1,0.3,0.2,0,0.3C567.7,804.8,567.4,805.1,566.8,805.9z M575,815.2c-0.1,0.5-0.1,1-0.1,1.4c-2,0.2-5.7,1-7.1,1.4
		c0-0.6-0.1-1.2-0.3-1.7c0.7,0,2-0.1,3.2-0.3v-2.3c-1.1,0-1.6,0.1-2.4,0.1v-1.4c0.7,0.1,1.2,0.1,2.4,0.1c0-0.7,0-1.4-0.1-1.8
		c0.5,0.1,1.2,0.1,1.6,0.1c0.2,0,0.3,0.1,0.1,0.3c-0.2,0.1-0.2,0.2-0.2,0.4v1.1c1,0,1.6,0,2.3-0.1v1.4c-0.8-0.1-1.3-0.1-2.3-0.1v2.1
		C573.2,815.6,574.6,815.3,575,815.2z M572.1,809.1c1,0,1.4,0,2.1-0.1v1.4c-0.9-0.1-1.2-0.2-2.8-0.2c-1.8,0-2.2,0-3.1,0.2v-1.4
		c0.8,0.1,1.2,0.1,2.4,0.1V807c-1.1,0-1.5,0.1-2.2,0.2v-1.4c0.7,0.1,1.1,0.1,2.2,0.1c0-0.8,0-1.8-0.1-2.3c0.5,0.1,1.2,0.1,1.6,0.1
		c0.2,0,0.3,0.2,0.1,0.3c-0.2,0.1-0.2,0.2-0.2,0.4v1.5c1.2,0,1.6-0.1,2.3-0.1v1.4c-0.8-0.1-1.2-0.2-2.3-0.2V809.1z M577.9,817.9
		c0,1.5-0.1,1.7-2.7,1.9c0-0.5-0.1-0.9-0.6-1.7c1.8,0.1,1.9-0.1,1.9-0.9V810c-0.8,0-1.2,0.1-1.7,0.1v-1.5c0.7,0.1,1.1,0.1,2.5,0.1
		c1.3,0,1.7,0,2.4-0.1v1.5c-0.6-0.1-0.9-0.1-1.7-0.2V817.9z M576.9,806c-0.9,0-1.4,0-2.1,0.1v-1.5c0.7,0.1,1,0.1,2.1,0.1
		c1.2,0,1.4,0,2.1-0.1v1.5C578.4,806,577.9,806,576.9,806z"/>
	<path style="fill:#FFFFFF;" d="M586.4,817.4c2,0.9,6.9,1.1,11.3,0.3c-0.3,0.8-0.4,1.4-0.4,1.9c-7,0.2-8.6,0.1-12.1-1.4
		c-0.9-0.4-1.5-0.1-2.4,1.4c-0.4-0.4-0.8-0.8-1.4-1.1c0.9-0.9,1.6-1.4,2.2-1.7v-5.6c-1,0-1.6,0-2,0.1v-1.5c1.1,0.2,2.7,0.2,3.7,0
		c-0.1,0.6-0.2,1.2-0.2,2.1v4.8C585.3,816.9,585.7,817.1,586.4,817.4z M583.5,808.3c-0.2-1.2-0.6-2.5-1-3.4l1.5-0.4
		c0.3,1.2,0.6,2.3,1.1,3.5L583.5,808.3z M595.8,808.5c-0.1,0.6-0.1,1.2-0.1,1.9v4.3c0,0.8,0,1.7,0.1,2.6h-1.5v-0.7H589v0.8h-1.5
		c0.1-0.9,0.1-1.5,0.1-2.6v-4.5c0-0.6,0-1.3-0.1-1.9c0.6,0.1,1.7,0.1,3,0.1c0.1-0.4,0.3-0.9,0.3-1.4c-2.1,0-3.5,0.1-4.7,0.2v-1.5
		c1.5,0.1,3.4,0.2,6.2,0.2c0.4-0.8,0.6-1.5,0.9-2.5c0.5,0.3,1.1,0.5,1.7,0.6c0.2,0,0.2,0.1,0,0.2c-0.4,0.2-0.7,0.5-1.4,1.7
		c1.6,0,2.7-0.1,3.8-0.1v1.5c-1.3-0.1-2.8-0.2-5-0.2c-0.2,0.4-0.3,1-0.5,1.4C593.6,808.6,595.1,808.6,595.8,808.5z M589.7,806
		c-0.3-0.5-0.8-1-1.3-1.5l1.2-0.7c0.4,0.5,1,1.1,1.2,1.5L589.7,806z M594.3,809.7H589v1.2h5.3V809.7z M589,813.2h5.3v-1.3H589V813.2
		z M594.3,814.2H589v1.3h5.3V814.2z"/>
</g>
<g style="opacity:0.8;">
	<path style="fill:#FFFFFF;" d="M828.1,381.6c-0.4,1.2-0.7,2.2-1,3.3c-0.6-0.5-1.2-1-1.7-1.2c0.5-0.8,0.7-1.2,1.3-2.9
		c0.5-1.5,0.7-1.9,0.9-2.9c0.3,0.5,0.8,0.9,1.4,1.1C828.8,379.6,828.5,380.3,828.1,381.6z M828.3,376.5c-0.6-0.6-1.9-1.4-2.8-1.7
		l0.9-1.3c0.8,0.5,2.1,1.2,2.9,1.7L828.3,376.5z M829,372.2c-0.5-0.6-1.7-1.7-2.6-2.2l1.1-1.1c0.9,0.7,1.9,1.5,2.7,2.2L829,372.2z
		 M830.6,374.7c-0.3-0.3-0.9-0.5-1.3-0.6c1.3-1.3,2.9-3.9,3.5-5.7c0.4,0.2,1.4,0.5,1.8,0.6c0.2,0,0.3,0.3-0.1,0.3
		c-0.3,0.1-0.4,0.2-1,1.1h4.9c1.2,0,2-0.1,2.6-0.2v1.5c-0.6-0.1-1.6-0.1-2.6-0.1h-5.7c-0.3,0.5-0.7,1.1-1.1,1.6h4.3
		c1.5,0,3-0.1,3.9-0.1l-0.3,4.2c0.7,0,1.4,0,1.8-0.1v1.4c-0.5-0.1-1.2-0.1-1.9-0.1l-0.2,3.1c0.6,0,1.1-0.1,1.5-0.1v1.5
		c-0.4-0.1-0.8-0.1-1.5-0.1c-0.1,1.8-0.3,2.2-2.8,2.6c-0.1-0.6-0.4-1.1-0.8-1.5c1.7,0,2.1-0.3,2.2-1.1h-4.3c-1.4,0-1.9,0-2.9,0.1
		l0.5-4.4c-0.6,0-1.2,0.1-1.7,0.1v-1.4c0.5,0.1,1.2,0.1,1.8,0.1l0.4-3.9C831.3,373.9,830.9,374.3,830.6,374.7z M832.5,378.4
		l-0.4,3.1h5.8l0.2-3.1H832.5z M838.2,377.3l0.2-3h-5.5l-0.3,3H838.2z M834.8,381.2c0-0.5-0.4-1.6-0.7-2l1.4-0.3
		c0.2,0.6,0.6,1.5,0.7,2L834.8,381.2z M835.2,376.9c-0.1-0.5-0.4-1.3-0.6-1.7l1.4-0.3c0.3,0.5,0.6,1.2,0.8,1.8L835.2,376.9z"/>
	<path style="fill:#FFFFFF;" d="M846.2,376.9c-0.8-0.6-1.8-1.2-2.9-1.6l0.8-1.4c0.9,0.5,2,1.1,2.7,1.6L846.2,376.9z M846,381.9
		c-0.3,1-0.7,2.1-1,3.1c-0.5-0.5-1.1-0.8-1.6-1.2c0.5-0.8,0.9-1.7,1.4-2.8c0.4-0.9,0.8-2,1-3c0.4,0.4,0.9,0.8,1.4,1
		C846.9,379.7,846.5,380.7,846,381.9z M846.8,372.6c-0.5-0.6-1.5-1.4-2.4-1.9l1-1.2c0.9,0.6,1.7,1.2,2.4,1.8L846.8,372.6z
		 M852.3,382.7c-0.1,0-0.5,0.2-0.8,0.4c-1.1,0.8-2,1.4-3.3,2.1c-0.3-0.4-0.6-0.8-0.9-1.2c1.6-0.6,2.7-1.3,3.8-2.6
		c0.4,0.4,0.9,0.7,1.2,0.9C852.7,382.5,852.7,382.7,852.3,382.7z M854.6,376.3c1.7,0,2.4,0,3.4-0.2v1.5c-0.8-0.1-1.4-0.2-2.5-0.2
		v2.3c1.5,0,2.7-0.1,3.7-0.2v1.5c-1.3-0.1-2.2-0.1-5.8-0.1c-3,0-4.4,0-5.8,0.1v-1.5c0.6,0.1,1.2,0.1,2,0.1v-4.1c0-0.6,0-1.3-0.1-1.6
		c2.4-0.1,4-0.4,5.8-1c0.2,0.5,0.6,1.1,0.8,1.3c0.2,0.3,0.2,0.5,0,0.5c-0.5-0.1-1.4-0.1-2-0.1c-0.7,0.1-1.9,0.2-3.1,0.3v1.3H854.6z
		 M852.3,369.1l1.7-0.3c0.1,0.6,0.2,1.3,0.4,2c2.5,0,3.6,0,4.4-0.1l-0.1,2.9h-1.4v-1.7h-7.6v1.8h-1.4v-3c0.9,0.1,1.9,0.1,4.4,0.1
		C852.6,370.2,852.5,369.6,852.3,369.1z M851.1,377.4v2.3h3.1v-2.3H851.1z M857.6,385c-1.1-1-2-1.6-3.3-2.4l0.9-1.1
		c1.2,0.7,2.4,1.5,3.5,2.3L857.6,385z"/>
	<path style="fill:#FFFFFF;" d="M864.8,385.2h-1.6c0.1-1,0.2-1.9,0.2-2.9v-5.1c-0.5,0.7-0.9,1.2-1.4,1.6c-0.3-0.4-0.6-0.7-1.1-1.1
		c0.8-0.6,1.9-1.9,2.5-2.9c0.4-0.7,0.7-1.4,0.9-2.2c0.5,0.3,1.2,0.8,1.4,0.9c0.3,0.1,0.3,0.2-0.1,0.3c-0.1,0.1-0.3,0.3-1,1.3V385.2z
		 M864.7,371.2c-0.7,0.9-1.4,1.7-2.2,2.6c-0.3-0.4-0.6-0.7-1.1-1c0.8-0.6,1.2-1,2-2.2c0.3-0.4,0.8-1.2,1-1.9c0.5,0.4,1.3,0.9,1.5,1
		c0.3,0.1,0.3,0.2,0,0.3C865.6,370.1,865.4,370.4,864.7,371.2z M873,380.5c-0.1,0.5-0.1,1-0.1,1.4c-2,0.2-5.7,1-7.1,1.4
		c0-0.6-0.1-1.2-0.3-1.7c0.7,0,2-0.1,3.2-0.3V379c-1.1,0-1.6,0.1-2.4,0.1v-1.4c0.7,0.1,1.2,0.1,2.4,0.1c0-0.7,0-1.4-0.1-1.8
		c0.5,0.1,1.2,0.1,1.6,0.1c0.2,0,0.3,0.1,0.1,0.3c-0.2,0.1-0.2,0.2-0.2,0.4v1.1c1,0,1.6,0,2.3-0.1v1.4c-0.8-0.1-1.3-0.1-2.3-0.1v2.1
		C871.1,380.9,872.5,380.7,873,380.5z M870,374.4c1,0,1.4,0,2.1-0.1v1.4c-0.9-0.1-1.2-0.2-2.8-0.2c-1.8,0-2.2,0-3.1,0.2v-1.4
		c0.8,0.1,1.2,0.1,2.4,0.1v-2.1c-1.1,0-1.5,0.1-2.2,0.2V371c0.7,0.1,1.1,0.1,2.2,0.1c0-0.8,0-1.8-0.1-2.3c0.5,0.1,1.2,0.1,1.6,0.1
		c0.2,0,0.3,0.2,0.1,0.3c-0.2,0.1-0.2,0.2-0.2,0.4v1.5c1.2,0,1.6-0.1,2.3-0.1v1.4c-0.8-0.1-1.2-0.2-2.3-0.2V374.4z M875.8,383.2
		c0,1.5-0.1,1.7-2.7,1.9c0-0.5-0.1-0.9-0.6-1.7c1.8,0.1,1.9-0.1,1.9-0.9v-7.3c-0.8,0-1.2,0.1-1.7,0.1v-1.5c0.7,0.1,1.1,0.1,2.5,0.1
		c1.3,0,1.7,0,2.4-0.1v1.5c-0.6-0.1-0.9-0.1-1.7-0.2V383.2z M874.8,371.3c-0.9,0-1.4,0-2.1,0.1V370c0.7,0.1,1,0.1,2.1,0.1
		c1.2,0,1.4,0,2.1-0.1v1.5C876.3,371.4,875.9,371.3,874.8,371.3z"/>
	<path style="fill:#FFFFFF;" d="M884.3,382.7c2,0.9,6.9,1.1,11.3,0.3c-0.3,0.8-0.4,1.4-0.4,1.9c-7,0.2-8.6,0.1-12.1-1.4
		c-0.9-0.4-1.5-0.1-2.4,1.4c-0.4-0.4-0.8-0.8-1.4-1.1c0.9-0.9,1.6-1.4,2.2-1.7v-5.6c-1,0-1.6,0-2,0.1v-1.5c1.1,0.2,2.7,0.2,3.7,0
		c-0.1,0.6-0.2,1.2-0.2,2.1v4.8C883.2,382.2,883.6,382.4,884.3,382.7z M881.4,373.6c-0.2-1.2-0.6-2.5-1-3.4l1.5-0.4
		c0.3,1.2,0.6,2.3,1.1,3.5L881.4,373.6z M893.7,373.8c-0.1,0.6-0.1,1.2-0.1,1.9v4.3c0,0.8,0,1.7,0.1,2.6h-1.5v-0.7h-5.3v0.8h-1.5
		c0.1-0.9,0.1-1.5,0.1-2.6v-4.5c0-0.6,0-1.3-0.1-1.9c0.6,0.1,1.7,0.1,3,0.1c0.1-0.4,0.3-0.9,0.3-1.4c-2.1,0-3.5,0.1-4.7,0.2v-1.5
		c1.5,0.1,3.4,0.2,6.2,0.2c0.4-0.8,0.6-1.5,0.9-2.5c0.5,0.3,1.1,0.5,1.7,0.6c0.2,0,0.2,0.1,0,0.2c-0.4,0.2-0.7,0.5-1.4,1.7
		c1.6,0,2.7-0.1,3.8-0.1v1.5c-1.3-0.1-2.8-0.2-5-0.2c-0.2,0.4-0.3,1-0.5,1.4C891.5,374,893,373.9,893.7,373.8z M887.6,371.3
		c-0.3-0.5-0.8-1-1.3-1.5l1.2-0.7c0.4,0.5,1,1.1,1.2,1.5L887.6,371.3z M892.2,375h-5.3v1.2h5.3V375z M886.9,378.5h5.3v-1.3h-5.3
		V378.5z M892.2,379.6h-5.3v1.3h5.3V379.6z"/>
</g>
</svg>
