<?xml version="1.0" encoding="utf-8"?>
<!-- Generator: Adobe Illustrator 17.0.0, SVG Export Plug-In . SVG Version: 6.00 Build 0)  -->
<!DOCTYPE svg PUBLIC "-//W3C//DTD SVG 1.1//EN" "http://www.w3.org/Graphics/SVG/1.1/DTD/svg11.dtd">
<svg version="1.1" id="图层_1" xmlns="http://www.w3.org/2000/svg" xmlns:xlink="http://www.w3.org/1999/xlink" x="0px" y="0px"
	 preserveAspectRatio="none" viewBox="0 0 2090 950" style="enable-background:new 0 0 2090 950;" xml:space="preserve">
<g>
	<path style="fill:#FFFFFF;" d="M45.4,717.9c0-6.9,3.5-10.3,10.6-10.3h19.4v-2.8h13.4v2.8H121v11.3h-19.4v5h8.1c6.7,0,10,2.7,10,8.1
		v17.2h-14.4v5.3h13.8v10h-13.8v2.2c0.2,1.9,0.9,2.8,2.2,2.8H120v10.3H99.4c-4.4,0-6.6-3.4-6.6-10.3v-14.7c0-3.8-1.6-5.6-4.7-5.6
		H76.3v5.3h12.2v10H76.3v2.2c0,1.9,0.6,2.8,1.9,2.8h10.3v10.3H71.9c-5.6,0-8.4-3.4-8.4-10.3v-15.3c0-3.3-1.1-5-3.4-5h-2.2v22.2
		c0,5.6-2.3,8.4-6.9,8.4h-5.6C45.4,779.8,45.4,717.9,45.4,717.9z M57.9,723.8h9.7v-1.9c0-2.1-1.4-3.1-4.1-3.1h-5.6V723.8z
		 M67.5,739.1v-1.9c0-2.5-1.4-3.6-4.1-3.4h-5.6v5.3L67.5,739.1L67.5,739.1z M80,723.8h9.1v-1.9c0-2.1-1.4-3.1-4.1-3.1h-5V723.8z
		 M89.1,739.1v-1.9c0-2.5-1.4-3.6-4.1-3.4h-5v5.3L89.1,739.1L89.1,739.1z M101.6,733.8v5.3h7.5v-1.9c0-2.5-1.4-3.6-4.1-3.4
		L101.6,733.8L101.6,733.8z"/>
	<path style="fill:#FFFFFF;" d="M141.9,769.4h5v4.1c0,4-2,5.9-5.9,5.9h-16v-10h5.9v-36.9c0-3.3-1.8-5-5.3-5v-10.3h5.3v-12.5h10.9
		v12.5h4.1v10.3h-4.1v41.9H141.9z M148.5,720.7c0-6.5,3.5-9.7,10.6-9.7h14.4l-0.9-6.3H185l0.6,6.3h2.5l-0.9-5h10.6l2.2,9.4
		c-0.2,4-2.4,5.9-6.6,5.9h-5.9l4.4,23.4l9.1-8.8v15.6l-5.3,5l4.7,22.8h-12.2l-3.1-13.8l-7.5,5.9V758l4.4-4.7l-6.9-32.2h-15.3v5.9
		h8.1c5,0,7.6,3,7.8,9.1v43.4h-10.9V737H160v35c-0.2,5-2.5,7.5-6.9,7.5h-4.7L148.5,720.7L148.5,720.7z"/>
</g>
<g style="opacity:0.5;">
	<path style="fill:#FFFFFF;" d="M47.4,855.7v-57.3h7v57.3H47.4z"/>
	<path style="fill:#FFFFFF;" d="M92.5,855.7v-6.1c-3.2,4.7-7.6,7-13.2,7c-2.4,0-4.7-0.5-6.9-1.4c-2.1-0.9-3.7-2.1-4.7-3.5
		s-1.8-3.2-2.2-5.2c-0.3-1.4-0.4-3.6-0.4-6.6v-25.7h7v23c0,3.7,0.1,6.1,0.4,7.4c0.4,1.8,1.4,3.3,2.8,4.4c1.4,1.1,3.2,1.6,5.3,1.6
		s4.1-0.5,5.9-1.6s3.2-2.6,3.9-4.4c0.8-1.9,1.2-4.6,1.2-8.1v-22.2h7v41.5h-6.1V855.7z"/>
	<path style="fill:#FFFFFF;" d="M136.8,840.5l6.9,0.9c-0.8,4.8-2.7,8.5-5.8,11.2s-6.9,4-11.5,4c-5.7,0-10.2-1.9-13.7-5.6
		c-3.5-3.7-5.2-9-5.2-16c0-4.5,0.7-8.4,2.2-11.8s3.7-5.9,6.8-7.6c3-1.7,6.3-2.5,9.9-2.5c4.5,0,8.2,1.1,11.1,3.4
		c2.9,2.3,4.7,5.5,5.5,9.7l-6.8,1.1c-0.7-2.8-1.8-4.9-3.5-6.3c-1.7-1.4-3.7-2.1-6-2.1c-3.5,0-6.4,1.3-8.6,3.8s-3.3,6.6-3.3,12.1
		c0,5.6,1.1,9.6,3.2,12.1s4.9,3.8,8.4,3.8c2.8,0,5.1-0.8,6.9-2.5C135.2,846.6,136.4,844,136.8,840.5z"/>
	<path style="fill:#FFFFFF;" d="M149.8,855.7v-57.3h7V819c3.3-3.8,7.4-5.7,12.4-5.7c3.1,0,5.7,0.6,8,1.8s3.9,2.9,4.9,5
		s1.5,5.2,1.5,9.3v26.3h-7v-26.3c0-3.5-0.8-6.1-2.3-7.7s-3.7-2.4-6.5-2.4c-2.1,0-4,0.5-5.9,1.6c-1.8,1.1-3.1,2.5-3.9,4.4
		c-0.8,1.8-1.2,4.4-1.2,7.7v22.7L149.8,855.7L149.8,855.7z"/>
	<path style="fill:#FFFFFF;" d="M222.7,842.4l7.3,0.9c-1.1,4.2-3.3,7.5-6.4,9.9c-3.1,2.3-7.1,3.5-11.9,3.5c-6.1,0-10.9-1.9-14.4-5.6
		c-3.6-3.7-5.3-9-5.3-15.7c0-7,1.8-12.4,5.4-16.3c3.6-3.9,8.3-5.8,14-5.8c5.5,0,10.1,1.9,13.6,5.7s5.3,9.1,5.3,15.9c0,0.4,0,1,0,1.9
		h-30.9c0.3,4.6,1.5,8,3.9,10.5c2.3,2.4,5.2,3.6,8.7,3.6c2.6,0,4.8-0.7,6.6-2C220.2,847.5,221.6,845.3,222.7,842.4z M199.6,831h23.2
		c-0.3-3.5-1.2-6.1-2.7-7.9c-2.2-2.7-5.1-4.1-8.7-4.1c-3.2,0-5.9,1.1-8.1,3.2C201,824.5,199.8,827.4,199.6,831z"/>
	<path style="fill:#FFFFFF;" d="M238.8,855.7v-41.5h6.3v5.9c3-4.6,7.4-6.8,13.2-6.8c2.5,0,4.8,0.4,6.9,1.3c2.1,0.9,3.7,2.1,4.7,3.5
		c1,1.5,1.8,3.2,2.2,5.2c0.3,1.3,0.4,3.6,0.4,6.8v25.5h-7v-25.2c0-2.9-0.3-5-0.8-6.4s-1.5-2.6-2.9-3.4c-1.4-0.8-3-1.3-4.9-1.3
		c-3,0-5.6,1-7.8,2.9s-3.3,5.5-3.3,10.8v22.7H238.8z"/>
	<path style="fill:#FFFFFF;" d="M282,859.2l6.8,1c0.3,2.1,1.1,3.6,2.4,4.6c1.7,1.3,4.1,2,7.1,2c3.3,0,5.8-0.7,7.5-2
		c1.8-1.3,3-3.1,3.6-5.5c0.4-1.4,0.5-4.4,0.5-9c-3.1,3.6-6.9,5.4-11.5,5.4c-5.7,0-10.1-2.1-13.2-6.2c-3.1-4.1-4.7-9-4.7-14.8
		c0-4,0.7-7.6,2.1-11c1.4-3.3,3.5-5.9,6.2-7.8c2.7-1.8,5.9-2.7,9.6-2.7c4.9,0,8.9,2,12.1,5.9v-5h6.5V850c0,6.5-0.7,11-2,13.7
		s-3.4,4.8-6.3,6.4s-6.4,2.3-10.5,2.3c-4.9,0-8.9-1.1-12-3.3S281.9,863.6,282,859.2z M287.8,834.2c0,5.4,1.1,9.4,3.2,11.9
		c2.2,2.5,4.9,3.8,8.1,3.8s5.9-1.2,8.1-3.7s3.3-6.4,3.3-11.7c0-5.1-1.1-8.9-3.4-11.5s-5-3.9-8.1-3.9s-5.8,1.3-8,3.8
		S287.8,829.2,287.8,834.2z"/>
</g>
<path style="fill:#0A469E;" d="M262.4,41.8c11.8-0.1,20.2-1.6,27.8,0c7.6,1.6,17.8,7.6,23.1,13.2c5.3,5.6,10.5,10.8,15.4,16.4
	c4.8,5.6,11.6,12.4,16,17.2s11.2,15.6,14.8,20.4s18,19.6,20.8,20.8s11.2,9.2,14.8,10.4c3.6,1.2,22.8,6.8,25.2,3.6
	c2.4-3.2,2-12,3.6-16s5.2-12.4,8.8-16c3.6-3.6,14.4-13.2,19.2-12.8s13.2-0.4,18.8,0.4c5.6,0.8,16.8,4,23.4,4s17.9,0.8,24.5,3.2
	c6.6,2.4,13,5.2,15,9.6s7.2,11.6,10.8,13.2c3.6,1.6,19.8,8.8,25.1,10.4c5.3,1.6,21.9,10.8,24,10.8s33.4,2,47.4,0s22.8-4.8,33.7-8
	s26-8,32.5-10c6.4-2,14.8-4.4,25.6-6s19.6-4.8,34.5-2.8c14.8,2,22,1.2,37.3,2s22,2.8,27.2,3.6s14.4,3.6,18.8,10.8s8.4,10.8,8.4,30.9
	s4.8,45.7,5.2,60.1s-1.2,25.6,4,35.7c5.2,10,16.8,18.4,23.2,20.4s31.3-4.4,38.9-6.8c7.6-2.4,13.2-6,33.3-2.8
	c20,3.2,25.6,3.2,32.9,12.8c7.2,9.6,16.4,20.8,22,33.3c5.6,12.4,13.2,17.6,17.8,34.1s9.6,28.9,12.1,42.5s11.3,27.7,5.7,40.9
	c-5.6,13.2-19.2,24.8-19.6,40.5s-0.8,31.7-0.4,40.9s6.4,38.9,8.8,50.1c2.4,11.2,10,34.1,18.4,42.9s32.9,18.8,39.7,20
	s24.4,9.6,34,9.6s25.2-5.2,46.9-8.4s44.9-9.2,63.3-11.2s24.4-1.2,34.1,1.6c9.6,2.8,11.6,6,30.5,6.8c18.8,0.8,21.6,4,49.3,4
	s60.9,0.4,66.9,0.4s29.3-1.2,42.5-0.4s38.1,1.2,48.5,2.8s34.5,5.6,45.7,7.6s29.3,4.8,40.1,9.6c10.8,4.8,41.7,15.2,46.5,17.2
	s3.2,4,14.4,3.6c11.2-0.4,22.4-3.2,32.5-6.4c10-3.2,18-5.2,32.9-6.8c14.8-1.6,21.6-2,34.9,2.4s41.3,12,58.9,16.4
	s47.3,14.4,58.9,18.8s28.1,10.4,33.7,16s15.6,15.2,18,23.2s15.6,40.1,18.8,48.1c3.2,8,7.2,22.4,12,27.7c4.8,5.2,5.6,11.6,13.2,18.8
	s32.1,23.2,31.3,25.2c-0.8,2-7.6,6.8-14.8,11.6c-7.2,4.8-31.7,20.8-42.9,21.6c-11.2,0.8-15.6,1.6-27.2,1.6s-27.3,1.2-35.3,0
	s-24.4-6-34.5-9.6c-10-3.6-19.6-8-27.7-13.6c-8-5.6-48.9-34.9-60.5-41.3s-20.4-12.8-21.6-9.6s-11.6,18-13.6,16.4
	s-20.1-17.2-23.5-17.2s-6.6-0.4-12.6-8s-10.4-13.6-12.4-19.6s-4.4-11.2-8-11.2s-8,4-10.4,8.8s-5.2,12.4-7.6,14.4s-4.4,2.4-8.8,2.4
	s-9.2-4-10.8,0c-1.6,4-2,7.6-5.6,7.2c-3.6-0.4-12.4-6.8-22.4-7.6s-31.7-6.4-32.9-2c-1.2,4.4-5.6,16.4-9.2,23.6
	c-3.6,7.2-15.7,27.2-21.9,36.9c-6.2,9.6-6.2,18-10.2,18s-16.4-8-19.6-5.2s-8,14.8-14,15.2s-4.4,0.4-10-0.4c-5.6-0.8-6-6-6-7.2
	s2-12-2-9.2s-14,6.8-16,6.4c-2-0.4-0.8-12.4-6.4-11.6c-5.6,0.8-19.6,0-24.4,0.4s-20.4-2.8-18.4-6s6-8,4.4-12s-2-12-5.2-11.6
	s-8.8,4.4-16.8,6s-41.3,12-50.1,16.4s-24.4,5.6-24.4,9.6s8.8,12.8,6,14.8s-6.4,1.2-6.4,4.4s1.2,4.8-0.8,7.2s-4.4,4.4-4,8.4
	s4.4,8,1.2,9.2c-3.2,1.2-13.2,4.8-15.2,6s-6.8,2-9.6,0c-2.8-2-4.4-3.2-4.4-7.6c0-4.4-3.2-4.8-8-5.2s-5.2,3.6-8.4,2.4
	c-3.2-1.2-9.6-11.6-16.8-12.8c-7.2-1.2-12.4-5.6-10.8-8.8s2-8.8,6.8-9.2s9.2-2,6-2.8s-6.9-3.2-4.1-6c2.9-2.8,8.5-6.8,2.5-8.4
	c-6-1.6-17.2-8-20-11.2s-1.3-4.4-5.1-10.8s-7.8-8.8-5-12s4.3-4.4,5-6.8c0.7-2.4,2.7-5.6,2.7-7.6s-3.2-3.6,0.8-4.4
	c4-0.8,10-0.4,9.2-5.6s-8.8-24.4-10.4-31.7c-1.6-7.2-4-15.2-4-21.6s0-6.4,0-15.6s0-13.2-4.4-12.8s-13.6-4.8-15.6-2s-0.4,6.8-4,13.2
	s-7.7,8.4-9.3,12.4s2,7.2,0,10.8s-7.6-0.4-7.6-0.4s-4,2.8-6.8,5.2s-12.8,2.8-14,6.4c-1.2,3.6-1.6,9.6-4.8,10.4
	c-3.2,0.8-8.4-1.2-16.4,1.6s-10.8,2.8-16,5.6s-13.2,6.4-16.4,6.4c-3.2,0-8.8-0.8-8.8-5.6s1.2-8.4-1.6-10
	c-2.8-1.6-8.8-11.2-14.4-12.4s-5.6-2-12,0.4s-9.2,4.8-12.8,4c-3.6-0.8-10.8-8.4-14.4-5.6c-3.6,2.8-6.8,7.6-10.4,7.6
	s-1.7-5.6-5.8-2.8c-4.2,2.8-3.4,5.2-9.8,5.2s-8.4,0.6-12.8,1.4s-7.8,2.6-7.4-0.4c0.4-3,3.6-8.2-0.4-8.2s-9.8-0.6-12.8,0.6
	c-3,1.2-10.4,4.6-10.6,1.6s-3.2-8.8-5.4-9s-5-6-6.4-2.8s-1.2,5.2-4.4,6.2s-6.8,7-8,6.2s1.8-8.8,0-9.8s-5-1.8-4.2-6.2s0.2-7-1.2-8
	s-5.3-3-3.2-7s4.8-7.2,2.6-8.8s-8-5.6-12.8-8.8s-9.4-7-12-7.4s-4,1-7.4,0.2s0.4-4-5-4.2s-7.8,0.6-12.6,2s-7.4,0.8-7.6-3
	c-0.2-3.8-1.2-6.8-3-10.4c-1.8-3.6-0.2-4.6-2.8-8.6s-6-5-7.6-9.4s-3.6-9-7.8-10.8s-8-3.8-8-8.2s1.6-12.6-2.2-16.4
	c-3.8-3.8-5.8-7.6-8.6-9.8s-12-1-12.6-4.6s1.4-13.6-2.4-13.2c-3.8,0.4-5.2,1.8-8.4-0.2s-6.4,0.8-8-0.6c-1.6-1.4-0.6-6.4-2.8-3.4
	s-4.8,8.6-12.4,12.8c-7.6,4.2-14.2,12-16.8,12s-6-6.4-8-5.8c-2,0.6-10.4,6.8-13.4,7.2s-6.6-1.8-9,0.8s-4,5.2-8.4,7.2
	s-12.2,3.4-16.2,4.8c-4,1.4-7.6,6.2-11,7.8s-3.2-2.6-6.4-3.2c-3.2-0.6-10,3-9.6,0s9-12.6,6.2-15.2c-2.8-2.6-2.6-6.8-7-3.4
	s-7.8,8.8-10,7.4c-2.2-1.4,2-6.6-3.2-5.8s-8,3.2-8,0.6c0-2.6-2.2-5.4,0-7s5.6-6.8,3.2-7s-3.2,4.2-7.4,4.2s-6-5.4-8.8-5.2
	s-3-1.8-2-3.6s2.2-8.2,0.2-8.8s-2.4-2.4-1.8-6.4c0.6-4-0.4-7.6-2.8-5.8c-2.4,1.8-3.8,0-7.4,4.6c-3.6,4.6-7.6,8-13.2,12
	c-5.6,4-8.6,6.8-11.6,6.8s-9.4-1.8-7.6-0.2c1.8,1.6,5.4,8.8,2.2,8.8s-8.8-8.8-10.6-7s-2.2,7-4,5.4s-2-6-5.9-2.6
	s-13.4,10.8-15.7,11.4c-2.3,0.6-4.7-3-7.9-2.6s-15.8,3.6-17.2,1.8s-4.4-3.4-2.8-6.6c1.6-3.2,8.2-9.2,9.2-13.8s-0.8-9.2,1.6-11.8
	c2.4-2.6,10-10.6,12.6-13.6s9-8.4,6.4-8.6c-2.6-0.2-5.4-1.2-9-2.8s-5.8-2-12-4s-12.8-1-21-3.8s-12.4-11.4-15-9.8
	c-2.6,1.6-3.4,4.1-1.6,6.7c1.8,2.6-1,5.8-2.8,7s-2.6-6.7-4.2-7c-1.6-0.3-4.6-2-6.8,0s-5.2-0.1-9.4-1.1s-9.6,0.3-15.6,1.1
	s-12.6-3.3-16.8-6.5c-4.2-3.2-16.4-7.2-16.4-10s-0.2-7.8-2-8.6s-9.2,0.8-11.6-5.4s-1.2-8.6-3.6-12.6s-8.2-7.6-13-8.4
	c-4.8-0.8-10.8-3.2-8.6-4.4s12.8,0.4,8.6-3.8c-4.2-4.2-6.8-8.8-11-11.8s-6.8-3.4-7.4,0.2s-1.4,12.4-3,10c-1.6-2.4-2-12.2-4.6-9.4
	s-2.2,4.2-7.2,5.6s-10.4,0.4-12.6,3.4c-2.2,3-10.4,7.2-13.8,10.8s-5.2,6.6-7.5,9.2c-2.3,2.6-8.7,2.8-11.1,6.4
	c-2.4,3.6-3.6,5.6-6.4,5.4c-2.8-0.2-5.2-5.8-7.6-2s-4.8,2-6.2,6.8c-1.4,4.8-1.6,5.2-5,10.4s-2.4,10.6-6.4,9.6s-4.2-4.8-6.4-5.2
	c-2.2-0.4-6.4,0.8-8.4-1.2s0.8-6-5.2-5.8s-11-0.8-15.6-1.2s-7.4-2.4-10.6-1s-10.4,3.6-10.4,3.6s2.6-8.4-0.4-7.6
	c-3,0.8-6.6,5.2-11.8,6.2s-7-0.8-11.8,1.6c-4.8,2.4-10.2,1.6-14.6,3.2c-4.4,1.6-6.4,0-5.2-5s4.2-8.6,3.2-11.6s-11.4-13.8-9-13
	s9.4,5.4,10.8,3s-6.8-7.8-3.8-8.6s11.6-2.6,8-4.8s-8.6-0.8-6.6-7.2c2-6.4,2.2-5.8,3.8-13.8s2.2-11.6,2.8-18.2s5-7.4,5.6-14
	s-1.8-10.4,0-13s10.2-12.4,6.4-13.4s-11.4,3.4-11.6,0.6c-0.2-2.8,0.6-10-1.6-16s-4.8-6-6.8-9.4s-6-7.2-4.2-8.4c1.8-1.2,6-5.6,10-8.4
	s15.8-2.2,13.2-7.6s-7.2-0.8-9.6-0.6c-2.4,0.2-5.4-3.2-9.4-4s-12.4-5-10.6-2.2c1.8,2.8,8.8,12.8,6.8,14s-9.8,8-10.4,6.2
	c-0.6-1.8-2.8-22.2-3.2-17s-0.8,11.8-3,12.8s-6.7,6.4-8.6,5.8c-1.8-0.6-6.9-0.6-8.1,0.6c-1.2,1.2-5.2,4.4-7.2,3.8
	s-1.6-11.4-5.8-11.8s-4.8,3.2-6.6,2.2s-2-4-4.4-4s-6.6,3.8-8.2,0.2c-1.6-3.6-4.2-8-5.6-10.6c-1.4-2.6-6.8-8.6-11.4-9.6
	s-10.4-3.2-9.8-6.4s1.9-4.6,0-5c-2-0.4-11.4,5.6-9.6,2.4s5.6-10.4,4-12s-14.8-7.6-12-8.6s2.8-2.8,3.4-6.4s-2-5-2-8.6
	s2.4-5.4-0.4-5.8s-7,0.8-6.6-3.8c0.4-4.6,4.8-12.2,1.4-11.4c-3.4,0.8-7.6,7.6-10,6.2s-6.4-4.6-5.6-7.2s3.6-11.6,5.2-14
	s7.6-1.8,10-6.6s-1.8-7.4,2.8-10c4.6-2.6,7-1.2,10.8-5.4c3.8-4.2,7.2-17.6,10-18s6.4,2,7-0.2s0.8-9.4,6.6-12.8
	c5.8-3.4,10.4-5.2,11.4-9s1.8-8.2,1.8-10s-3.8-3.4-1.8-6.2s3.2-8.4,0.4-9.2s-4.6-2-10.4-3.2c-5.8-1.2-10.6-3.2-13.6-8.2
	s-6-2.6-1.8-10.4c4.2-7.8,10.8-11.8,11.8-18.8s3.4-9.6-2.8-11.6s-7.4-0.6-12.8-4c-5.4-3.4-14.6-0.6-16.8-5
	c-2.2-4.4-5.8-20.8-8.4-21.6s-7.6-1.2-13.8-1.2s-12.2,4.2-17.4,3c-5.2-1.2-7.6-7.4-9.2-8.8c-1.6-1.4-4-6.8-6.8-5.8s-10.6,3.6-8.6,0
	s3.6-11.8,0.8-9.6c-2.8,2.2-11.2,8.8-10.4,4.8c0.8-4,1.8-8.6,0.8-9.4s-8.2-3.2-5.2-7s8.2-3.8,12.6-7.4s17.4-10,19.4-14.2
	s11-11.2,12.8-15.2s2.4-8,4.8-9.2s9.4,1.8,12,6.4s6.6,6.8,9.4,4.4c2.8-2.4,3-3.6,17.4-6.2s23-5.6,31.9-6.4
	c8.8-0.8,21.2-1.2,31.1-0.6s15.4,2.6,25.4,3.4c10,0.8,9.8,3.6,21.4,0.8C241.1,46.2,260.4,41.8,262.4,41.8z"/>
<path style="fill:#05245B;" d="M262.4,29.7c11.8-0.1,20.2-1.6,27.8,0S308,37.4,313.3,43s10.5,10.8,15.4,16.4s11.6,12.4,16,17.2
	s11.2,15.6,14.8,20.4c3.6,4.8,18,19.6,20.8,20.8s11.2,9.2,14.8,10.4c3.6,1.2,22.8,6.8,25.2,3.6c2.4-3.2,2-12,3.6-16s5.2-12.4,8.8-16
	c3.6-3.6,14.4-13.2,19.2-12.8s13.2-0.4,18.8,0.4c5.6,0.8,16.8,4,23.4,4s17.9,0.8,24.5,3.2s13,5.2,15,9.6s7.2,11.6,10.8,13.2
	s19.8,8.8,25.1,10.4s21.9,10.8,24,10.8s33.4,2,47.4,0s22.8-4.8,33.7-8s26-8,32.5-10s14.8-4.4,25.6-6s19.6-4.8,34.5-2.8
	c14.8,2,22,1.2,37.3,2s22,2.8,27.2,3.6c5.2,0.8,14.4,3.6,18.8,10.8c4.4,7.2,8.4,10.8,8.4,30.9s4.8,45.7,5.2,60.1
	c0.4,14.4-1.2,25.6,4,35.7c5.2,10,16.8,18.4,23.2,20.4s31.3-4.4,38.9-6.8c7.6-2.4,13.2-6,33.3-2.8c20,3.2,25.6,3.2,32.9,12.8
	c7.2,9.6,16.4,20.8,22,33.3c5.6,12.4,13.2,17.6,17.8,34.1s9.6,28.9,12.1,42.5s11.3,27.7,5.7,40.9c-5.6,13.2-19.2,24.8-19.6,40.5
	c-0.4,15.6-0.8,31.7-0.4,40.9s6.4,38.9,8.8,50.1s10,34.1,18.4,42.9s32.9,18.8,39.7,20s24.4,9.6,34,9.6s25.2-5.2,46.9-8.4
	s44.9-9.2,63.3-11.2s24.4-1.2,34.1,1.6c9.6,2.8,11.6,6,30.5,6.8c18.8,0.8,21.6,4,49.3,4s60.9,0.4,66.9,0.4s29.3-1.2,42.5-0.4
	s38.1,1.2,48.5,2.8s34.5,5.6,45.7,7.6s29.3,4.8,40.1,9.6c10.8,4.8,41.7,15.2,46.5,17.2s3.2,4,14.4,3.6c11.2-0.4,22.4-3.2,32.5-6.4
	c10-3.2,18-5.2,32.9-6.8c14.8-1.6,21.6-2,34.9,2.4s41.3,12,58.9,16.4s47.3,14.4,58.9,18.8c11.6,4.4,28.1,10.4,33.7,16
	s15.6,15.2,18,23.2s15.6,40.1,18.8,48.1c3.2,8,7.2,22.4,12,27.7c4.8,5.2,5.6,11.6,13.2,18.8s32.1,23.2,31.3,25.2s-7.6,6.8-14.8,11.6
	c-7.2,4.8-31.7,20.8-42.9,21.6c-11.2,0.8-15.6,1.6-27.2,1.6s-27.3,1.2-35.3,0s-24.4-6-34.5-9.6c-10-3.6-19.6-8-27.7-13.6
	c-8-5.6-48.9-34.9-60.5-41.3c-11.6-6.4-20.4-12.8-21.6-9.6s-11.6,18-13.6,16.4s-20.1-17.2-23.5-17.2s-6.6-0.4-12.6-8
	s-10.4-13.6-12.4-19.6s-4.4-11.2-8-11.2s-8,4-10.4,8.8s-5.2,12.4-7.6,14.4s-4.4,2.4-8.8,2.4s-9.2-4-10.8,0c-1.6,4-2,7.6-5.6,7.2
	c-3.6-0.4-12.4-6.8-22.4-7.6s-31.7-6.4-32.9-2c-1.2,4.4-5.6,16.4-9.2,23.6c-3.6,7.2-15.7,27.2-21.9,36.9c-6.2,9.6-6.2,18-10.2,18
	s-16.4-8-19.6-5.2s-8,14.8-14,15.2s-4.4,0.4-10-0.4c-5.6-0.8-6-6-6-7.2s2-12-2-9.2s-14,6.8-16,6.4c-2-0.4-0.8-12.4-6.4-11.6
	c-5.6,0.8-19.6,0-24.4,0.4s-20.4-2.8-18.4-6s6-8,4.4-12s-2-12-5.2-11.6s-8.8,4.4-16.8,6s-41.3,12-50.1,16.4s-24.4,5.6-24.4,9.6
	s8.8,12.8,6,14.8s-6.4,1.2-6.4,4.4s1.2,4.8-0.8,7.2s-4.4,4.4-4,8.4s4.4,8,1.2,9.2c-3.2,1.2-13.2,4.8-15.2,6s-6.8,2-9.6,0
	c-2.8-2-4.4-3.2-4.4-7.6c0-4.4-3.2-4.8-8-5.2s-5.2,3.6-8.4,2.4c-3.2-1.2-9.6-11.6-16.8-12.8s-12.4-5.6-10.8-8.8s2-8.8,6.8-9.2
	s9.2-2,6-2.8s-6.9-3.2-4.1-6c2.9-2.8,8.5-6.8,2.5-8.4c-6-1.6-17.2-8-20-11.2s-1.3-4.4-5.1-10.8c-3.8-6.4-7.8-8.8-5-12s4.3-4.4,5-6.8
	c0.7-2.4,2.7-5.6,2.7-7.6s-3.2-3.6,0.8-4.4c4-0.8,10-0.4,9.2-5.6c-0.8-5.2-8.8-24.4-10.4-31.7c-1.6-7.2-4-15.2-4-21.6s0-6.4,0-15.6
	s0-13.2-4.4-12.8s-13.6-4.8-15.6-2s-0.4,6.8-4,13.2s-7.7,8.4-9.3,12.4s2,7.2,0,10.8s-7.6-0.4-7.6-0.4s-4,2.8-6.8,5.2
	s-12.8,2.8-14,6.4c-1.2,3.6-1.6,9.6-4.8,10.4c-3.2,0.8-8.4-1.2-16.4,1.6s-10.8,2.8-16,5.6s-13.2,6.4-16.4,6.4
	c-3.2,0-8.8-0.8-8.8-5.6s1.2-8.4-1.6-10c-2.8-1.6-8.8-11.2-14.4-12.4s-5.6-2-12,0.4s-9.2,4.8-12.8,4c-3.6-0.8-10.8-8.4-14.4-5.6
	c-3.6,2.8-6.8,7.6-10.4,7.6s-1.7-5.6-5.8-2.8c-4.2,2.8-3.4,5.2-9.8,5.2s-8.4,0.6-12.8,1.4c-4.4,0.8-7.8,2.6-7.4-0.4
	c0.4-3,3.6-8.2-0.4-8.2s-9.8-0.6-12.8,0.6c-3,1.2-10.4,4.6-10.6,1.6s-3.2-8.8-5.4-9s-5-6-6.4-2.8s-1.2,5.2-4.4,6.2s-6.8,7-8,6.2
	s1.8-8.8,0-9.8s-5-1.8-4.2-6.2s0.2-7-1.2-8s-5.3-3-3.2-7c2.2-4,4.8-7.2,2.6-8.8s-8-5.6-12.8-8.8s-9.4-7-12-7.4s-4,1-7.4,0.2
	s0.4-4-5-4.2s-7.8,0.6-12.6,2s-7.4,0.8-7.6-3c-0.2-3.8-1.2-6.8-3-10.4s-0.2-4.6-2.8-8.6s-6-5-7.6-9.4s-3.6-9-7.8-10.8s-8-3.8-8-8.2
	s1.6-12.6-2.2-16.4c-3.8-3.8-5.8-7.6-8.6-9.8s-12-1-12.6-4.6s1.4-13.6-2.4-13.2c-3.8,0.4-5.2,1.8-8.4-0.2s-6.4,0.8-8-0.6
	c-1.6-1.4-0.6-6.4-2.8-3.4s-4.8,8.6-12.4,12.8c-7.6,4.2-14.2,12-16.8,12s-6-6.4-8-5.8c-2,0.6-10.4,6.8-13.4,7.2s-6.6-1.8-9,0.8
	s-4,5.2-8.4,7.2s-12.2,3.4-16.2,4.8c-4,1.4-7.6,6.2-11,7.8s-3.2-2.6-6.4-3.2c-3.2-0.6-10,3-9.6,0s9-12.6,6.2-15.2
	c-2.8-2.6-2.6-6.8-7-3.4c-4.4,3.4-7.8,8.8-10,7.4c-2.2-1.4,2-6.6-3.2-5.8s-8,3.2-8,0.6c0-2.6-2.2-5.4,0-7s5.6-6.8,3.2-7
	s-3.2,4.2-7.4,4.2s-6-5.4-8.8-5.2s-3-1.8-2-3.6s2.2-8.2,0.2-8.8s-2.4-2.4-1.8-6.4c0.6-4-0.4-7.6-2.8-5.8c-2.4,1.8-3.8,0-7.4,4.6
	c-3.6,4.6-7.6,8-13.2,12c-5.6,4-8.6,6.8-11.6,6.8s-9.4-1.8-7.6-0.2c1.8,1.6,5.4,8.8,2.2,8.8s-8.8-8.8-10.6-7s-2.2,7-4,5.4
	s-2-6-5.9-2.6s-13.4,10.8-15.7,11.4c-2.3,0.6-4.7-3-7.9-2.6s-15.8,3.6-17.2,1.8s-4.4-3.4-2.8-6.6c1.6-3.2,8.2-9.2,9.2-13.8
	s-0.8-9.2,1.6-11.8s10-10.6,12.6-13.6s9-8.4,6.4-8.6c-2.6-0.2-5.4-1.2-9-2.8s-5.8-2-12-4s-12.8-1-21-3.8s-12.4-11.4-15-9.8
	c-2.6,1.6-3.4,4.1-1.6,6.7c1.8,2.6-1,5.8-2.8,7s-2.6-6.7-4.2-7c-1.6-0.3-4.6-2-6.8,0s-5.2-0.1-9.4-1.1s-9.6,0.3-15.6,1.1
	s-12.6-3.3-16.8-6.5s-16.4-7.2-16.4-10s-0.2-7.8-2-8.6s-9.2,0.8-11.6-5.4s-1.2-8.6-3.6-12.6s-8.2-7.6-13-8.4
	c-4.8-0.8-10.8-3.2-8.6-4.4c2.2-1.2,12.8,0.4,8.6-3.8c-4.2-4.2-6.8-8.8-11-11.8s-6.8-3.4-7.4,0.2s-1.4,12.4-3,10s-2-12.2-4.6-9.4
	c-2.6,2.8-2.2,4.2-7.2,5.6s-10.4,0.4-12.6,3.4s-10.4,7.2-13.8,10.8c-3.4,3.6-5.2,6.6-7.5,9.2s-8.7,2.8-11.1,6.4
	c-2.4,3.6-3.6,5.6-6.4,5.4c-2.8-0.2-5.2-5.8-7.6-2s-4.8,2-6.2,6.8c-1.4,4.8-1.6,5.2-5,10.4s-2.4,10.6-6.4,9.6s-4.2-4.8-6.4-5.2
	c-2.2-0.4-6.4,0.8-8.4-1.2s0.8-6-5.2-5.8s-11-0.8-15.6-1.2s-7.4-2.4-10.6-1s-10.4,3.6-10.4,3.6s2.6-8.4-0.4-7.6
	c-3,0.8-6.6,5.2-11.8,6.2c-5.2,1-7-0.8-11.8,1.6c-4.8,2.4-10.2,1.6-14.6,3.2c-4.4,1.6-6.4,0-5.2-5s4.2-8.6,3.2-11.6s-11.4-13.8-9-13
	s9.4,5.4,10.8,3s-6.8-7.8-3.8-8.6s11.6-2.6,8-4.8s-8.6-0.8-6.6-7.2c2-6.4,2.2-5.8,3.8-13.8s2.2-11.6,2.8-18.2s5-7.4,5.6-14
	s-1.8-10.4,0-13s10.2-12.4,6.4-13.4s-11.4,3.4-11.6,0.6c-0.2-2.8,0.6-10-1.6-16s-4.8-6-6.8-9.4s-6-7.2-4.2-8.4c1.8-1.2,6-5.6,10-8.4
	s15.8-2.2,13.2-7.6s-7.2-0.8-9.6-0.6c-2.4,0.2-5.4-3.2-9.4-4s-12.4-5-10.6-2.2c1.8,2.8,8.8,12.8,6.8,14s-9.8,8-10.4,6.2
	c-0.6-1.8-2.8-22.2-3.2-17s-0.8,11.8-3,12.8s-6.7,6.4-8.6,5.8c-1.8-0.6-6.9-0.6-8.1,0.6c-1.2,1.2-5.2,4.4-7.2,3.8
	s-1.6-11.4-5.8-11.8s-4.8,3.2-6.6,2.2s-2-4-4.4-4s-6.6,3.8-8.2,0.2c-1.6-3.6-4.2-8-5.6-10.6c-1.4-2.6-6.8-8.6-11.4-9.6
	s-10.4-3.2-9.8-6.4s1.9-4.6,0-5c-2-0.4-11.4,5.6-9.6,2.4s5.6-10.4,4-12s-14.8-7.6-12-8.6s2.8-2.8,3.4-6.4s-2-5-2-8.6
	s2.4-5.4-0.4-5.8s-7,0.8-6.6-3.8c0.4-4.6,4.8-12.2,1.4-11.4c-3.4,0.8-7.6,7.6-10,6.2s-6.4-4.6-5.6-7.2s3.6-11.6,5.2-14
	s7.6-1.8,10-6.6c2.4-4.8-1.8-7.4,2.8-10c4.6-2.6,7-1.2,10.8-5.4c3.8-4.2,7.2-17.6,10-18s6.4,2,7-0.2s0.8-9.4,6.6-12.8
	c5.8-3.4,10.4-5.2,11.4-9s1.8-8.2,1.8-10s-3.8-3.4-1.8-6.2s3.2-8.4,0.4-9.2s-4.6-2-10.4-3.2c-5.8-1.2-10.6-3.2-13.6-8.2
	s-6-2.6-1.8-10.4c4.2-7.8,10.8-11.8,11.8-18.8s3.4-9.6-2.8-11.6s-7.4-0.6-12.8-4c-5.4-3.4-14.6-0.6-16.8-5
	c-2.2-4.4-5.8-20.8-8.4-21.6c-2.6-0.8-7.6-1.2-13.8-1.2c-6.2,0-12.2,4.2-17.4,3c-5.2-1.2-7.6-7.4-9.2-8.8c-1.6-1.4-4-6.8-6.8-5.8
	s-10.6,3.6-8.6,0s3.6-11.8,0.8-9.6s-11.2,8.8-10.4,4.8s1.8-8.6,0.8-9.4s-8.2-3.2-5.2-7s8.2-3.8,12.6-7.4s17.4-10,19.4-14.2
	s11-11.2,12.8-15.2s2.4-8,4.8-9.2s9.4,1.8,12,6.4s6.6,6.8,9.4,4.4s3-3.6,17.4-6.2c14.4-2.6,23-5.6,31.9-6.4
	c8.8-0.8,21.2-1.2,31.1-0.6s15.4,2.6,25.4,3.4c10,0.8,9.8,3.6,21.4,0.8C241.1,34.2,260.4,29.8,262.4,29.7z"/>
<path style="fill:none;stroke:#0078FF;stroke-width:2;stroke-miterlimit:10;stroke-dasharray:2;" d="M262.4,29.7
	c11.8-0.1,20.2-1.6,27.8,0S308,37.4,313.3,43s10.5,10.8,15.4,16.4s11.6,12.4,16,17.2s11.2,15.6,14.8,20.4c3.6,4.8,18,19.6,20.8,20.8
	s11.2,9.2,14.8,10.4c3.6,1.2,22.8,6.8,25.2,3.6c2.4-3.2,2-12,3.6-16s5.2-12.4,8.8-16c3.6-3.6,14.4-13.2,19.2-12.8s13.2-0.4,18.8,0.4
	c5.6,0.8,16.8,4,23.4,4s17.9,0.8,24.5,3.2s13,5.2,15,9.6s7.2,11.6,10.8,13.2s19.8,8.8,25.1,10.4s21.9,10.8,24,10.8s33.4,2,47.4,0
	s22.8-4.8,33.7-8s26-8,32.5-10s14.8-4.4,25.6-6s19.6-4.8,34.5-2.8c14.8,2,22,1.2,37.3,2s22,2.8,27.2,3.6c5.2,0.8,14.4,3.6,18.8,10.8
	c4.4,7.2,8.4,10.8,8.4,30.9s4.8,45.7,5.2,60.1c0.4,14.4-1.2,25.6,4,35.7c5.2,10,16.8,18.4,23.2,20.4s31.3-4.4,38.9-6.8
	c7.6-2.4,13.2-6,33.3-2.8c20,3.2,25.6,3.2,32.9,12.8c7.2,9.6,16.4,20.8,22,33.3c5.6,12.4,13.2,17.6,17.8,34.1s9.6,28.9,12.1,42.5
	s11.3,27.7,5.7,40.9c-5.6,13.2-19.2,24.8-19.6,40.5c-0.4,15.6-0.8,31.7-0.4,40.9s6.4,38.9,8.8,50.1s10,34.1,18.4,42.9
	s32.9,18.8,39.7,20s24.4,9.6,34,9.6s25.2-5.2,46.9-8.4s44.9-9.2,63.3-11.2s24.4-1.2,34.1,1.6c9.6,2.8,11.6,6,30.5,6.8
	c18.8,0.8,21.6,4,49.3,4s60.9,0.4,66.9,0.4s29.3-1.2,42.5-0.4s38.1,1.2,48.5,2.8s34.5,5.6,45.7,7.6s29.3,4.8,40.1,9.6
	c10.8,4.8,41.7,15.2,46.5,17.2s3.2,4,14.4,3.6c11.2-0.4,22.4-3.2,32.5-6.4c10-3.2,18-5.2,32.9-6.8c14.8-1.6,21.6-2,34.9,2.4
	s41.3,12,58.9,16.4s47.3,14.4,58.9,18.8c11.6,4.4,28.1,10.4,33.7,16s15.6,15.2,18,23.2s15.6,40.1,18.8,48.1c3.2,8,7.2,22.4,12,27.7
	c4.8,5.2,5.6,11.6,13.2,18.8s32.1,23.2,31.3,25.2s-7.6,6.8-14.8,11.6c-7.2,4.8-31.7,20.8-42.9,21.6c-11.2,0.8-15.6,1.6-27.2,1.6
	s-27.3,1.2-35.3,0s-24.4-6-34.5-9.6c-10-3.6-19.6-8-27.7-13.6c-8-5.6-48.9-34.9-60.5-41.3c-11.6-6.4-20.4-12.8-21.6-9.6
	s-11.6,18-13.6,16.4s-20.1-17.2-23.5-17.2s-6.6-0.4-12.6-8s-10.4-13.6-12.4-19.6s-4.4-11.2-8-11.2s-8,4-10.4,8.8s-5.2,12.4-7.6,14.4
	s-4.4,2.4-8.8,2.4s-9.2-4-10.8,0c-1.6,4-2,7.6-5.6,7.2c-3.6-0.4-12.4-6.8-22.4-7.6s-31.7-6.4-32.9-2c-1.2,4.4-5.6,16.4-9.2,23.6
	c-3.6,7.2-15.7,27.2-21.9,36.9c-6.2,9.6-6.2,18-10.2,18s-16.4-8-19.6-5.2s-8,14.8-14,15.2s-4.4,0.4-10-0.4c-5.6-0.8-6-6-6-7.2
	s2-12-2-9.2s-14,6.8-16,6.4c-2-0.4-0.8-12.4-6.4-11.6c-5.6,0.8-19.6,0-24.4,0.4s-20.4-2.8-18.4-6s6-8,4.4-12s-2-12-5.2-11.6
	s-8.8,4.4-16.8,6s-41.3,12-50.1,16.4s-24.4,5.6-24.4,9.6s8.8,12.8,6,14.8s-6.4,1.2-6.4,4.4s1.2,4.8-0.8,7.2s-4.4,4.4-4,8.4
	s4.4,8,1.2,9.2c-3.2,1.2-13.2,4.8-15.2,6s-6.8,2-9.6,0c-2.8-2-4.4-3.2-4.4-7.6c0-4.4-3.2-4.8-8-5.2s-5.2,3.6-8.4,2.4
	c-3.2-1.2-9.6-11.6-16.8-12.8s-12.4-5.6-10.8-8.8s2-8.8,6.8-9.2s9.2-2,6-2.8s-6.9-3.2-4.1-6c2.9-2.8,8.5-6.8,2.5-8.4
	c-6-1.6-17.2-8-20-11.2s-1.3-4.4-5.1-10.8c-3.8-6.4-7.8-8.8-5-12s4.3-4.4,5-6.8c0.7-2.4,2.7-5.6,2.7-7.6s-3.2-3.6,0.8-4.4
	c4-0.8,10-0.4,9.2-5.6c-0.8-5.2-8.8-24.4-10.4-31.7c-1.6-7.2-4-15.2-4-21.6s0-6.4,0-15.6s0-13.2-4.4-12.8s-13.6-4.8-15.6-2
	s-0.4,6.8-4,13.2s-7.7,8.4-9.3,12.4s2,7.2,0,10.8s-7.6-0.4-7.6-0.4s-4,2.8-6.8,5.2s-12.8,2.8-14,6.4c-1.2,3.6-1.6,9.6-4.8,10.4
	c-3.2,0.8-8.4-1.2-16.4,1.6s-10.8,2.8-16,5.6s-13.2,6.4-16.4,6.4c-3.2,0-8.8-0.8-8.8-5.6s1.2-8.4-1.6-10
	c-2.8-1.6-8.8-11.2-14.4-12.4s-5.6-2-12,0.4s-9.2,4.8-12.8,4c-3.6-0.8-10.8-8.4-14.4-5.6c-3.6,2.8-6.8,7.6-10.4,7.6
	s-1.7-5.6-5.8-2.8c-4.2,2.8-3.4,5.2-9.8,5.2s-8.4,0.6-12.8,1.4c-4.4,0.8-7.8,2.6-7.4-0.4c0.4-3,3.6-8.2-0.4-8.2s-9.8-0.6-12.8,0.6
	c-3,1.2-10.4,4.6-10.6,1.6s-3.2-8.8-5.4-9s-5-6-6.4-2.8s-1.2,5.2-4.4,6.2s-6.8,7-8,6.2s1.8-8.8,0-9.8s-5-1.8-4.2-6.2s0.2-7-1.2-8
	s-5.3-3-3.2-7c2.2-4,4.8-7.2,2.6-8.8s-8-5.6-12.8-8.8s-9.4-7-12-7.4s-4,1-7.4,0.2s0.4-4-5-4.2s-7.8,0.6-12.6,2s-7.4,0.8-7.6-3
	c-0.2-3.8-1.2-6.8-3-10.4s-0.2-4.6-2.8-8.6s-6-5-7.6-9.4s-3.6-9-7.8-10.8s-8-3.8-8-8.2s1.6-12.6-2.2-16.4c-3.8-3.8-5.8-7.6-8.6-9.8
	s-12-1-12.6-4.6s1.4-13.6-2.4-13.2c-3.8,0.4-5.2,1.8-8.4-0.2s-6.4,0.8-8-0.6c-1.6-1.4-0.6-6.4-2.8-3.4s-4.8,8.6-12.4,12.8
	c-7.6,4.2-14.2,12-16.8,12s-6-6.4-8-5.8c-2,0.6-10.4,6.8-13.4,7.2s-6.6-1.8-9,0.8s-4,5.2-8.4,7.2s-12.2,3.4-16.2,4.8
	c-4,1.4-7.6,6.2-11,7.8s-3.2-2.6-6.4-3.2c-3.2-0.6-10,3-9.6,0s9-12.6,6.2-15.2c-2.8-2.6-2.6-6.8-7-3.4c-4.4,3.4-7.8,8.8-10,7.4
	c-2.2-1.4,2-6.6-3.2-5.8s-8,3.2-8,0.6c0-2.6-2.2-5.4,0-7s5.6-6.8,3.2-7s-3.2,4.2-7.4,4.2s-6-5.4-8.8-5.2s-3-1.8-2-3.6
	s2.2-8.2,0.2-8.8s-2.4-2.4-1.8-6.4c0.6-4-0.4-7.6-2.8-5.8c-2.4,1.8-3.8,0-7.4,4.6c-3.6,4.6-7.6,8-13.2,12c-5.6,4-8.6,6.8-11.6,6.8
	s-9.4-1.8-7.6-0.2c1.8,1.6,5.4,8.8,2.2,8.8s-8.8-8.8-10.6-7s-2.2,7-4,5.4s-2-6-5.9-2.6s-13.4,10.8-15.7,11.4c-2.3,0.6-4.7-3-7.9-2.6
	s-15.8,3.6-17.2,1.8s-4.4-3.4-2.8-6.6c1.6-3.2,8.2-9.2,9.2-13.8s-0.8-9.2,1.6-11.8s10-10.6,12.6-13.6s9-8.4,6.4-8.6
	c-2.6-0.2-5.4-1.2-9-2.8s-5.8-2-12-4s-12.8-1-21-3.8s-12.4-11.4-15-9.8c-2.6,1.6-3.4,4.1-1.6,6.7c1.8,2.6-1,5.8-2.8,7
	s-2.6-6.7-4.2-7c-1.6-0.3-4.6-2-6.8,0s-5.2-0.1-9.4-1.1s-9.6,0.3-15.6,1.1s-12.6-3.3-16.8-6.5s-16.4-7.2-16.4-10s-0.2-7.8-2-8.6
	s-9.2,0.8-11.6-5.4s-1.2-8.6-3.6-12.6s-8.2-7.6-13-8.4c-4.8-0.8-10.8-3.2-8.6-4.4c2.2-1.2,12.8,0.4,8.6-3.8
	c-4.2-4.2-6.8-8.8-11-11.8s-6.8-3.4-7.4,0.2s-1.4,12.4-3,10s-2-12.2-4.6-9.4c-2.6,2.8-2.2,4.2-7.2,5.6s-10.4,0.4-12.6,3.4
	s-10.4,7.2-13.8,10.8c-3.4,3.6-5.2,6.6-7.5,9.2s-8.7,2.8-11.1,6.4c-2.4,3.6-3.6,5.6-6.4,5.4c-2.8-0.2-5.2-5.8-7.6-2s-4.8,2-6.2,6.8
	c-1.4,4.8-1.6,5.2-5,10.4s-2.4,10.6-6.4,9.6s-4.2-4.8-6.4-5.2c-2.2-0.4-6.4,0.8-8.4-1.2s0.8-6-5.2-5.8s-11-0.8-15.6-1.2
	s-7.4-2.4-10.6-1s-10.4,3.6-10.4,3.6s2.6-8.4-0.4-7.6c-3,0.8-6.6,5.2-11.8,6.2c-5.2,1-7-0.8-11.8,1.6c-4.8,2.4-10.2,1.6-14.6,3.2
	c-4.4,1.6-6.4,0-5.2-5s4.2-8.6,3.2-11.6s-11.4-13.8-9-13s9.4,5.4,10.8,3s-6.8-7.8-3.8-8.6s11.6-2.6,8-4.8s-8.6-0.8-6.6-7.2
	c2-6.4,2.2-5.8,3.8-13.8s2.2-11.6,2.8-18.2s5-7.4,5.6-14s-1.8-10.4,0-13s10.2-12.4,6.4-13.4s-11.4,3.4-11.6,0.6
	c-0.2-2.8,0.6-10-1.6-16s-4.8-6-6.8-9.4s-6-7.2-4.2-8.4c1.8-1.2,6-5.6,10-8.4s15.8-2.2,13.2-7.6s-7.2-0.8-9.6-0.6
	c-2.4,0.2-5.4-3.2-9.4-4s-12.4-5-10.6-2.2c1.8,2.8,8.8,12.8,6.8,14s-9.8,8-10.4,6.2c-0.6-1.8-2.8-22.2-3.2-17s-0.8,11.8-3,12.8
	s-6.7,6.4-8.6,5.8c-1.8-0.6-6.9-0.6-8.1,0.6c-1.2,1.2-5.2,4.4-7.2,3.8s-1.6-11.4-5.8-11.8s-4.8,3.2-6.6,2.2s-2-4-4.4-4
	s-6.6,3.8-8.2,0.2c-1.6-3.6-4.2-8-5.6-10.6c-1.4-2.6-6.8-8.6-11.4-9.6s-10.4-3.2-9.8-6.4s1.9-4.6,0-5c-2-0.4-11.4,5.6-9.6,2.4
	s5.6-10.4,4-12s-14.8-7.6-12-8.6s2.8-2.8,3.4-6.4s-2-5-2-8.6s2.4-5.4-0.4-5.8s-7,0.8-6.6-3.8c0.4-4.6,4.8-12.2,1.4-11.4
	c-3.4,0.8-7.6,7.6-10,6.2s-6.4-4.6-5.6-7.2s3.6-11.6,5.2-14s7.6-1.8,10-6.6c2.4-4.8-1.8-7.4,2.8-10c4.6-2.6,7-1.2,10.8-5.4
	c3.8-4.2,7.2-17.6,10-18s6.4,2,7-0.2s0.8-9.4,6.6-12.8c5.8-3.4,10.4-5.2,11.4-9s1.8-8.2,1.8-10s-3.8-3.4-1.8-6.2s3.2-8.4,0.4-9.2
	s-4.6-2-10.4-3.2c-5.8-1.2-10.6-3.2-13.6-8.2s-6-2.6-1.8-10.4c4.2-7.8,10.8-11.8,11.8-18.8s3.4-9.6-2.8-11.6s-7.4-0.6-12.8-4
	c-5.4-3.4-14.6-0.6-16.8-5c-2.2-4.4-5.8-20.8-8.4-21.6c-2.6-0.8-7.6-1.2-13.8-1.2c-6.2,0-12.2,4.2-17.4,3c-5.2-1.2-7.6-7.4-9.2-8.8
	c-1.6-1.4-4-6.8-6.8-5.8s-10.6,3.6-8.6,0s3.6-11.8,0.8-9.6s-11.2,8.8-10.4,4.8s1.8-8.6,0.8-9.4s-8.2-3.2-5.2-7s8.2-3.8,12.6-7.4
	s17.4-10,19.4-14.2s11-11.2,12.8-15.2s2.4-8,4.8-9.2s9.4,1.8,12,6.4s6.6,6.8,9.4,4.4s3-3.6,17.4-6.2c14.4-2.6,23-5.6,31.9-6.4
	c8.8-0.8,21.2-1.2,31.1-0.6s15.4,2.6,25.4,3.4c10,0.8,9.8,3.6,21.4,0.8C241.1,34.2,260.4,29.8,262.4,29.7z"/>
<path style="fill:none;stroke:#0078FF;stroke-width:2;stroke-miterlimit:10;stroke-dasharray:2;" d="M113.1,316.2
	c3.8-0.2,3.4,0.1,6.9,0s7.2-0.9,9.3,0s3.6,1.8,5.5,1.4s1.2-3.4,4-1.9c2.8,1.6,3.2,1.2,5.2,3.9c2,2.7,4.4,6.5,5.8,7s3.2-4.1,3.4-5.7
	c0.2-1.5,1.2-0.5,3.2-2.3s2.4-4.4,4-2.9s1.9,4.6,5.6,4.8c3.7,0.2,9.5-0.5,11.2-1.3s4.6-1.2,6.8-1.5s7-2,4.6-3.7s-3-2.1-3.6-5.2
	s-1.5-3.5-1-5.6s5.7-5.1,7.4-5.7s4.9-1.4,4.1-2.3s-3.4-3.8-1.1-3.7c2.3,0.1,9.6,0,12.4,0.5c2.8,0.5,4.7,0.8,6.3,2.4s0.8,3.4,3.2,3.4
	s4.3-1.2,7.6-2c3.4-0.8,4.5-0.6,10.4-0.8c5.9-0.2,10.6-0.4,13.7-1.7c3.1-1.3,6-0.2,11-1.3c5-1.1,3.1-1,7-4.5s3.1-5.2,8.3-5.3
	c5.2-0.1,8,0.8,13.4-2.8s2-5.4,5.4-8.1s5.9-0.8,9-3.5s8.9-4.4,8.2-6.1c-0.7-1.7-4-5.8-2.6-6.2s4.4,3.4,6.1,0s-1.6-0.1,3.7-5.8
	s5.9-2.2,8.3-6.4s4.9-8.5,7.1-7.6c2.3,0.9,3.5,4.5,8.2,5.3s6.1-2.4,9-1.4s4.2,5.9,8.3,7.5c4.1,1.6,5.4,1.4,10.4,3.6
	c5,2.2,8.2,2.5,9.2,4.8c1,2.3-2.6,5.8,1.6,5.5s4.8-0.6,8.3-2.1s4.3-4.4,7.1-2.7c2.8,1.7,4.4,4.8,10.4,5.9s6.7-1.7,9.5,0.3
	s5.7,5.8,8.9,7c3.2,1.2,11.3,0.7,13,1.1s1.7,3.8,4.1,4.2c2.4,0.4,7.7-0.4,11.2-0.7c3.5-0.3,7.5,2.1,10.5,1.4s7.2-0.9,10-2.4
	s6.4-5,8.4-7.3s2.6-4.3,6.5-4.3s12.4,3.3,16.8,3.1c4.4-0.2,4.2-5.2,6.6-3.6s2.2,4,6.6,3s2.8-4.7,8.8-5.3c6-0.6,6-2.7,12.2-3
	s7.6-2.9,9.5-6s3.6-5.5,8.5-6.7s8.5-2.7,15.7-5.5s10.1-3.2,12.8-4.6s5.1-4.1,6.7-2.2c1.6,1.9-0.7,4.2,4.3,3.8s12.4-2.8,15.3-2.8
	c2.9,0,5.9,1.3,12.2-1s6.6-4.1,8.9-6c2.3-1.9,5.1-1.2,6.9-3.3c1.8-2.1,2.4-5,0-7s-8.6-2.4-6-4.7s3.3-5,5.9-5.7
	c2.6-0.7,4.9-1.9,6.9,2s2.9,7.7,6.4,9.5s5-1.1,5.9,2s2.2,3.9,4.5,2.6c2.3-1.3,2-4.3,5.2-4.2s6.6,1.9,8.7,2.1
	c2.1,0.2,1.3,4.7,3.3,4.1s1.7-1.2,6-3.2s6.5-1.6,7.9-4.8s2.3-8.3,4.5-6.5s-0.6,4.4,5.3,2.1c5.9-2.3,2.5-4.4,8-4.5s5,2.3,8.8,1.3
	s5.8-4,9.1-4.9s3.3-2.2,7.2-1.4s5.9,2.8,7.7,2.2s3.6-3.2,7.2-1.5c3.6,1.7,4.6,2.6,7.4,3.7c2.8,1.1,5.1,0.3,7.5,0.3s9,1.7,15.1,4.3
	s4.2,3.8,9.1,4.7s5.6-0.4,8.7,2.2c3.1,2.6,4.6,3.5,7.3,4.9s3.3,3.9,9,3s4.9-2.7,8.6-1.2c3.7,1.5,2,5.1,6.4,3.4
	c4.4-1.7,2.4-4.1,7-4.5s9.5-0.5,12.6-0.5s12.7-0.5,12.7-0.5"/>
<path style="fill:none;stroke:#0078FF;stroke-width:2;stroke-miterlimit:10;stroke-dasharray:2;" d="M933.4,267.6
	c-0.1,2.6-0.8,4.8,0,6.3s3.3,3.2,3.4,5.6c0.2,2.4-1.6,4.1-1.9,5.6s-2,2.9-1.1,3.9s2.8,0.9,3,3.6s-4.5,0.2-4.5,3.3
	c0,3.2-2,3.3,1.2,6.6s1.3,1.5,3.3,5.4s2.1,3.6,0.9,5.9s-6.6-0.8-7.1,2.7s-0.5,3.6,2,6.6c2.4,3,4.5,3.6,5.9,6.6
	c1.3,3,0.9,2.7,4.6,5.1c3.8,2.4,4.4,1.8,5.6,4.2c1.2,2.4,0.2,4.5,2.6,6c2.4,1.5,5.4,1.2,3.2,2.6c-2.3,1.4-0.9,1.2-6.9,2.3
	c-6,1.1-5.1-0.2-8.3,2.1c-3.2,2.3-9.2,5.3-8.8,7.5c0.4,2.3,1.4,6.5,0,5.6s-4.9-2.1-7.1-1.8c-2.3,0.3-6.2,1.1-6.2,2.6
	s0.9,8.4,1.1,9.9c0.2,1.5,4.5,7.2,2.4,6.2c-2.1-1.1-5.6-7.7-8.3-7.1s-8.6,3.3-8.6,4.8s0,2.7,1.8,4.5s6.3,2.7,2.6,3.6
	s-5.6-2.7-7.3-0.8c-1.7,2-3.3,3.2-2.7,5.4c0.6,2.3,2.4,3.5,0.8,4.8s-3.5-0.5-3.5,3.2c0,3.6-1.1,6-1.8,8.7c-0.8,2.7-4.4,5.1-5.7,3.5
	c-1.4-1.7-4.9-6.3-3.1-6.9s8.8-3.5,6.9-4.1c-2-0.6-4.5,0-7.3-1.1c-2.9-1.1-3.2-2.9-5.9-3.2c-2.7-0.3-4.2,2-3.6,3.2
	c0.6,1.2,6.3,7.5,4.2,6.5c-2.1-1.1-6.8-4.7-6.9-2.9s-0.5,3.8,0,5.9s2.4,4.4,0.9,5.6s-3.5,1.8-5,3.2s-2.3-2.3-5-2s-4.1-1.7-5.6-0.3
	s-2.7,3.5-4.5,2.6s-3.9-2.7-4.7-3.6s0.8-2.9-3.8-2.9c-4.5,0-7.1,0.8-10.2,1.1s-4.2-0.2-4.8-3.3c-0.6-3.2-0.5-7.5-3.5-5
	c-3,2.6-6.1,5-8.5,6.2s-6.5-0.8-8,1.4c-1.5,2.1-2.4,3.6-3.9,3.9s-4.8-2.1-5.7,0s3.2,6.2,1.8,6.6c-1.4,0.5-4.8-1.4-8.3-2.3
	s-4.8,1.8-3.2,3s6.6,2,5,3.3s-3.1,2.7-5.7,2.4c-2.6-0.3-3.4-3.6-4.7-1.7c-1.3,2,1.2,2.6-1.4,6s-4.3,4.1-8.5,6.8
	c-4.2,2.7-5.4,4.2-7.5,5.6s-10.7,2.6-11.4,1.5c-0.8-1.1,3.8-9.2,2.6-8.4c-1.2,0.8-4.4-1.2-6.3,0.8c-2,2-6.5,0.2-7.1,1.8
	c-0.6,1.7-6.9-0.6-5.6,1.5s1.2,1.6,3.9,4.8s1.4,7.3,4.8,8.2c3.5,0.9,5.1,2.7,5.4,4.2c0.3,1.5,3.8,4.2,4.8,5.7
	c1.1,1.5-0.8,0.8-4.8,0.9c-4.1,0.2-6.5-1.4-8.9-1.8c-2.4-0.5-4.6-0.8-7.7,0c-3.2,0.8-6.5,0.9-8.3,1.9c-1.9,1-4.1,2.6-6.7,2.8
	c-2.6,0.2-6.1-2.7-8-1.5c-2,1.2-2.6,2.9-0.6,3.5s4.6,1.2,6.2,0.8c1.7-0.5,7-2.6,9.8-2.8c2.9-0.2,4.6-2.2,8.6-0.8s6.8,2.9,6.2,5
	s-2.1,3.8-3.8,3s-5.4-4.7-5.4-2.8s3.9,3.7,1.3,4.3s-3.6,2.1-5.6,2.5s-5.4,0.5-6.5,1.4c-1.1,1-5.7,0.8-4.1,2.1s5.3,2.2,4.4,3.9
	c-1,1.7-5.9,2-5,3.4c0.8,1.4,4.1,2.3,6.8,2.5s5,0,4,2.2c-1.1,2.2-4.4,3.3-3.3,5.5c1.1,2.2,2.3,5.3,5.4,7.1c3.2,1.8,7.1,2.3,7.1,5.1
	c0.1,2.8-2,4.1-0.8,6.4s4.2,6.3,3.5,9.2s-3.1,7.1-4.4,9.8c-1.3,2.8-3.2,5.3-5.4,6.8c-2.3,1.4-4.9,0.1-6.2,1.7s-3,5.3-4.7,7
	s-5.3,3.2-6.2,7.3c-0.8,4.1-3.1,4.4-6.5,6.6c-3.4,2.3-6.6,2.9-8.3,4.2c-1.7,1.4-3.8,1.7-6,1.7s-7.4-2-8.3-0.5
	c-0.9,1.4-4.5,1.7-4.7,3s-1.8,5.2-2.3,6.9s-1.9,5-2.6,5.3c-0.8,0.3-3.2-2.1-4.1-1.3c-0.9,0.8-3.5,3.4-3.5,3.4"/>
<path style="fill:none;stroke:#0078FF;stroke-width:2;stroke-miterlimit:10;stroke-dasharray:2;" d="M831.7,608.8
	c1.6-2.3,1.5-3.2,3.9-4.3s4.1-3.2,5-2.1c0.9,1.1,1.5,4.5,5.6,6.4s7.2,3.4,9.8,1.8s5.3-3.8,7.1-6.2s4.4-9.5,5.6-11.3s6.2-5.6,7.2-6.8
	s2.3-3.8,0.9-7.7s-5.7-4.2-6.5-6.2s1.1-3,1.4-5.1c0.3-2.1-0.5-6.2,0.6-7.5s1.7-3.5,5.1-6.2s2.3-2.6,7.1-3.3
	c4.8-0.8,6.6-0.5,10.4-1.2c3.8-0.8,6.9-0.2,9.6-2.6c2.7-2.4,7.8-5.3,8.9-6.9c1.1-1.7,1.2-4.7,5.4-3.8s5.7,0.5,10.2,1.7
	s7.8,1.2,9.2,2.9s0.9,4.1,3,2.3s4.7-7.1,6.8-9c2.1-2,5-2.1,5.1-6s-1.7-7.5,0-8.6s4.4-3.5,4.5-5.6c0.2-2.1-2.4-4.7-0.9-6.2s0-2,5-6.2
	s8.4-6.8,9.9-6.9s1.8-4.8,5.7-3.5s3.8,3,6.6,2.3s1.4-4.8,4.4-3.2c3,1.7,2.1,2,6.8,2s2.4-1.2,8.7-1.4s9.3-1.4,12.8-1s5.3-0.5,8.1-0.1
	c2.9,0.5,9.3-0.1,9.3-0.1h0.7"/>
<path style="fill:none;stroke:#0078FF;stroke-width:2;stroke-miterlimit:10;stroke-dasharray:2;" d="M1063.1,605.1c-2.7,0.2-3-2-8,0
	s-4.7,1.1-8.4,2.5c-3.8,1.4-7.2,1.7-11,2.3s-3.9-1.3-7.8,1.5c-3.9,2.7-6.5,3.6-7.7,5.8s-3,3.8-3.6,3.3s-6.2,0.8-7.2,2.3
	c-1.1,1.5-5.1,3.8-6.2,5.1s-9,0.5-9.5,2.9s0.9,3.8,1.4,9s1.8,4.7-0.5,7.8c-2.3,3.2-7.5,3.6-8.3,8s-0.6,5.7-3,8.1
	c-2.4,2.4-5.1,2.3-6,7.5c-0.9,5.3,0.8,4.5-1.7,6c-2.4,1.5-4.1,1.8-4.1,3.3s-2.4,4.2-6,4.2s-3.5,1.1-5.3,2.6s-7.4,1.4-9.5,5.6
	c-2.1,4.2-2.6,5.9-4.5,6.2c-2,0.3-6.2-2-7.8,0s-3.9,4.2-6.3,4.8c-2.4,0.6-7.1,1.8-7.1,1.8"/>
<path style="fill:none;stroke:#0078FF;stroke-width:2;stroke-miterlimit:10;stroke-dasharray:2;" d="M1130.2,632.7
	c0.2,3-0.7,3.9,2.6,6.9s7.8,4.8,15.3,8.1s10.5,4.2,14.1,4.5s5.4,2.5,12.6,2.6s15,1.1,19.2,0s11.4-1.7,14.1-1.7s4.2-1.2,8.1-2.1
	c3.9-0.9,7.5-2.1,8.7-1.2c1.2,0.9-2.1,4.2,0,7.5s3.9,8.4,4.2,13.2c0.3,4.8-2.1,6.6,0,11.4c2.1,4.8,3.3,3.9,3,9s0.4,5.7,0,10.8
	c-0.3,5.1-1.7,14.4-1.7,14.4"/>
<path style="fill:none;stroke:#0078FF;stroke-width:2;stroke-miterlimit:10;stroke-dasharray:2;" d="M1162.3,652.2
	c-0.6,7.2,1.2,8.4,0,13.5s-2.1,6.9-3,10.5s-9,3.9-9.9,6.3s0.3,4.2,0,7.5s-4.8,4.8-7.8,6.6s-7.5,3.9-9.3,6.6
	c-1.8,2.7-10.5,9.5-7.2,12.9s10.8,3.4,15,4.9s10.2-2.4,9.9,2.1c-0.3,4.5-2.8,10.5-4.1,14.1c-1.3,3.6-1,8.1-4,12.6s-7.8,9.6-9,12.3
	s-5.7,8.1-6.9,10.2c-1.2,2.1-4.2,11.6-4.2,11.6"/>
<path style="fill:none;stroke:#0078FF;stroke-width:2;stroke-miterlimit:10;stroke-dasharray:2;" d="M1307.5,621.9
	c-3.7,3.8-2.9,4.1-8.5,7.4c-5.7,3.3-13.2,7.2-16.5,11.1c-3.3,3.9-11.7,9.6-10.8,14.7c0.9,5.1,4.5,14.1,6.6,19.2
	c2.1,5.1,7.2,16.5,9.9,25.6s9.8,22.8,10.8,26.4c0.9,3.6,3.4,0.9,4.3,10.5s2.4,13.2-0.3,20.1c-2.7,6.9-4.6,13.5-4,16.5s0,7.2,0,7.2"
	/>
<path style="fill:none;stroke:#0078FF;stroke-width:2;stroke-miterlimit:10;stroke-dasharray:2;" d="M1424.1,626.4
	c-2.7,10.4-4.3,10-4.3,18.8s0.8,14.4-2.4,21.2c-3.2,6.8-7.2,8.4-7.2,17.2s2.8,12.4,0,16s-6.4,0.5-7.6,5.7s2,0.8-1.2,5.2
	s-2.3,5.6-4,5.6s-3.5-2.6-4.7-1.8s-0.6,3.3-2.7,1.8s-6.3-6.6-6.5-3.3s0,4.8-2.3,5.6s-3.8-0.2-4.4,2.6s-1.2,3.6-3,7.4
	s-2.6,9.2-2.7,11.3c-0.2,2.1-2,11.2-2.2,17.6c-0.2,6.4-2.2,6.6,0,10.8s3,7.2,4.6,12.7s3.6,12.5,3.4,14.3s-1.2,3.6-1.2,3.6"/>
<path style="fill:none;stroke:#0078FF;stroke-width:2;stroke-miterlimit:10;stroke-dasharray:2;" d="M1246.4,799.7
	c7.9-2.5,4.5-1.7,11.1-3.7s2.2-1,10.8-3.6c8.6-2.6,12.6-5.4,17.8-7.2c5.2-1.8,8.1-4.7,12.9-5.1c4.8-0.3,8.4-2.7,11.6-2.3
	s8.8-2,12.4-1s6.8,4.4,10,7.4s2.5,6.4,6,6.8c3.6,0.4,9.8-1,15-1s10.8-0.6,14,2.2s4.4,4.6,9.8,6.6s3.2,6.6,4,9.8s3.4,8.4,4,12.2
	s3.6,6.4,3.8,9.4c0.2,3,0.9,10.2,0.9,10.2"/>
<path style="fill:none;stroke:#0078FF;stroke-width:2;stroke-miterlimit:10;stroke-dasharray:2;" d="M1301.7,730.3
	c3.3-0.8,3.4-1.2,7.4-2.6c3.9-1.4,4.2-1.8,8.9-3.3s5-2.1,9.3-4.1c4.4-2,10.1-2.6,12.5-3s0-2.1,2-3.8s5.7-2.3,9.5-3.3
	c3.8-1.1,4.2-1.5,9.2-2.9s7.8-1.4,7.8-1.4s-0.5,9.5,0,11.4s0.3,8.1,0.8,9s4.7,2.6,4.7,2.6"/>
<path style="fill:none;stroke:#0078FF;stroke-width:2;stroke-miterlimit:10;stroke-dasharray:2;" d="M1668.7,666.6
	c1.2,6.3-3,6,5.4,13.2s11.1,12,13.5,17.1s12,15,14.4,22.8s12.3,21.9,15.3,28.9s10.2,20.4,12.6,27s7.8,14.7,10.2,20.7
	c2.4,6,4.2,14.7,4.2,14.7"/>
<path style="fill:none;stroke:#0078FF;stroke-width:2;stroke-miterlimit:10;stroke-dasharray:2;" d="M1368.1,765.1
	c5.2,0,13.5-0.4,22.6,0s123.2-0.2,124.3,0c1.1,0.2,3.5,2.3,5.7,2.3s5.1,0,9.6,0.9s7.5,1.1,13.4,1.8c5.9,0.8,12.5,1.2,16.7,3.6
	c4.2,2.4,6.8,4.4,8.7,6.8c2,2.4,8.3,12.9,8.3,12.9"/>
<path style="fill:none;stroke:#0078FF;stroke-width:2;stroke-miterlimit:10;stroke-dasharray:2;" d="M1401.4,710.6
	c2.2,1.8,4.8,3.6,8,3.6s11,1.2,14.7,1.6c3.7,0.4,7.9-1,13.2,0c5.2,1,4.6,1.6,8.4,1.6s14.8,0.4,17.6,0c2.8-0.4-0.4,0.5,5,0.8
	s7.8,2,13.2,2s8.6-1.5,11.4-2s4.6-1.8,8-0.8s6.8-0.4,10,3.6s4.6,7.6,4,10.4s-0.5,7.6,0.1,10.2c0.7,2.6,2.7,4.2,3.7,8.2s3,5.6,3,8.6
	s1.4,9,1.4,9"/>
<g style="opacity:0.8;">
	<path style="fill:#FFFFFF;" d="M291.4,212.7c-2.8,0-4.5,0.1-6.1,0.2c0.1-0.7,0.1-1.4,0.1-2.1v-7.9c0-1.2,0-2-0.2-2.4
		c0.8,0.2,1.4,0.2,2.2,0.1c0.3,0,0.3,0.1,0.1,0.4c-0.2,0.2-0.3,0.3-0.3,0.6v9.6h4.9v-11.8c0-1.2-0.1-2.1-0.2-2.9
		c0.9,0.2,1.6,0.3,2.3,0.2c0.4,0,0.4,0.2,0.2,0.3c-0.3,0.2-0.4,0.4-0.4,0.8v13.3h4.9V203c0-1.3-0.1-1.9-0.2-2.4
		c0.8,0.1,1.6,0.2,2.3,0.1c0.3,0,0.4,0.2,0.1,0.4c-0.3,0.3-0.4,0.4-0.4,0.7v9.4c0,1,0,1.7,0.1,2.6H299v-1.3h-7.6V212.7z"/>
	<path style="fill:#FFFFFF;" d="M308.5,210.9c0,1.2,0,2.4,0.1,3.6h-1.7c0.1-1.2,0.1-2.4,0.1-3.6v-4.4c-0.6,0.8-1.3,1.8-2,2.8
		c-0.2-0.6-0.5-1.4-0.9-2c1.1-0.7,2.5-2.2,4.3-5.7h-2.1c-0.7,0-1.4,0.1-1.8,0.2v-1.7c0.8,0.1,1.5,0.1,3,0.1c1.7,0,2.4,0,3.1-0.1
		c-0.1,0.6-0.3,1-0.9,2.1c-0.3,0.6-0.7,1.3-1.2,2V210.9z M307.5,199.7c-0.3-0.9-0.7-1.6-1.3-2.4l1.8-0.8c0.6,0.9,0.8,1.3,1.3,2.2
		L307.5,199.7z M309.9,208.1c-0.4-1-0.7-1.6-1.3-2.4l1-0.9c0.7,0.9,1.1,1.6,1.5,2.5L309.9,208.1z M316.5,198.8
		c-2.1,0-4.1,0.1-5.3,0.2v-1.7c1.2,0.1,3.2,0.2,5.3,0.2c2.1,0,4.1-0.1,5.2-0.2v1.7C320.6,198.9,318.6,198.8,316.5,198.8z
		 M312.9,213.3v1.2h-1.5c0.1-0.6,0.1-1.2,0.1-2.3v-4.7c0-0.5,0-1.4-0.1-1.9c1,0.1,3,0.1,5.1,0.1s4.2,0,5.1-0.1
		c-0.1,0.6-0.1,1.4-0.1,1.9v4.5c0,1.1,0,1.6,0.1,2.3h-1.5v-1H312.9z M316.3,204.3c-1.7,0-3.3,0-4.1,0.1c0-0.8,0.1-1.5,0.1-2.2
		s0-1.4-0.1-2.2c0.9,0.1,2.4,0.1,4.1,0.1s3.3,0,4.2-0.1c0,0.8-0.1,1.5-0.1,2.2s0,1.4,0.1,2.2C319.6,204.3,318,204.3,316.3,204.3z
		 M315.7,208.7v-2h-2.8v2H315.7z M312.9,209.8v2.4h2.8v-2.4H312.9z M319.2,201.4h-5.6v1.8h5.6V201.4z M320.1,208.7v-2h-3v2H320.1z
		 M317.1,209.8v2.4h3v-2.4H317.1z"/>
	<path style="fill:#FFFFFF;" d="M331.4,198.9v1.5c-0.6-0.1-1.5-0.1-4-0.1c-0.5,0.9-1.3,2-2.1,3.1c-0.2-0.7-0.4-1.2-0.8-1.5
		c1.2-1.1,2.5-3.8,3-5.9c0.5,0.3,1,0.5,1.5,0.6s0.5,0.3,0.1,0.7c-0.1,0.1-0.4,0.5-1,1.6C329.9,199,330.7,199,331.4,198.9z
		 M324.9,207.7V206c0.6,0.1,1.3,0.1,2.3,0.1v-2.3c-0.3,0-0.6,0.1-0.9,0.1v-1.6c0.6,0.1,1.2,0.1,2.1,0.1c1.1,0,2.1-0.1,2.7-0.1v1.6
		c-0.5-0.1-1.5-0.1-2.5-0.1v2.4c1.3,0,2.2-0.1,2.9-0.2v1.7c-0.7-0.1-1.6-0.1-2.9-0.2v3.8c0.8-0.5,1.3-0.9,2.1-1.6
		c-0.1,0.7,0.1,1.2,0.3,1.5l-2.4,1.9c-0.4,0.3-0.7,0.6-1,1c-0.3-0.6-0.8-1-1.2-1.4c0.5-0.4,0.8-0.9,0.8-2v-3.2
		C326.2,207.5,325.5,207.6,324.9,207.7z M331.9,214.5c-0.2-0.6-0.5-0.9-1.1-1.2c1.5-0.4,2.8-1.1,4.1-2.3c0.3,0.3,0.9,0.9,1.1,1
		c0.3,0.2,0.2,0.3-0.1,0.4C335.5,212.4,333.8,213.4,331.9,214.5z M332.9,202.5c0-0.6-0.1-1.7-0.1-2.2c0.7,0.1,1.7,0.1,3.2,0.1
		c0-0.4,0.1-0.8,0.1-1.3c-1.8,0-3.1,0-4.2,0.1v-1.5c1.1,0.1,2.4,0.1,4.2,0.2c0-0.8,0-1.4-0.1-1.9c0.6,0.1,1.5,0.1,1.8,0.1
		s0.4,0.1,0.1,0.4c-0.1,0.1-0.2,0.6-0.3,1.3c2.2,0,3.7,0,4.9-0.2v1.5c-1.2-0.1-2.8-0.1-5.1-0.1c0,0.4-0.1,0.9-0.1,1.3
		c1.9,0,3.1,0,3.9-0.1c-0.1,0.4-0.1,1.5-0.1,2.2v7.1c0.7,0,1.2,0,1.6-0.1v1.3c-0.9-0.1-1.6-0.1-5.6-0.1c-3.9,0-4.7,0-5.6,0.1v-1.3
		c0.3,0,0.8,0.1,1.3,0.1v-7H332.9z M339.7,201.5h-5.3v1.2h5.3V201.5z M334.4,204.9h5.3v-1.2h-5.3V204.9z M334.4,207.2h5.3V206h-5.3
		V207.2z M339.7,208.2h-5.3v1.3h5.3V208.2z M341.6,214.3c-1.2-0.9-2.5-1.7-3.8-2.4l0.8-1c1.2,0.6,2.8,1.3,4,2L341.6,214.3z"/>
</g>
<g style="opacity:0.8;">
	<path style="fill:#FFFFFF;" d="M521,455.7c-0.4-0.5-0.7-0.8-1.1-1c0.9-1.6,1.3-3.5,1.3-6.1V445c0-1,0-1.7-0.1-2.2
		c0.7,0.1,1.4,0.1,2.4,0.1s1.7,0,2.4-0.1c0,0.4-0.1,1.2-0.1,2.2v9.2c0,0.9-0.2,1.2-2.3,1.5c0-0.5-0.2-1.1-0.7-1.7
		c1.4,0.4,1.6,0.1,1.6-0.4v-3h-2C522.5,452,521.8,454.3,521,455.7z M530.5,439.6c0-0.9-0.1-1.3-0.1-1.9c0.5,0.1,1.2,0.1,1.7,0.1
		c0.2,0,0.3,0.2,0.1,0.3c-0.2,0.1-0.2,0.2-0.2,0.4v1.1c2.2,0,4.1,0,5.4-0.2v1.6c-1.3-0.1-3.2-0.2-5.4-0.2v1.1h-1.4v-1.1h-3.4v1.4
		h-1.4v-1.4c-2.2,0-4.1,0-5.4,0.2v-1.6c1.4,0.1,3.2,0.2,5.4,0.2c0-0.8,0-1.2-0.1-1.7c0.5,0,1.1,0,1.6,0c0.2,0,0.3,0.2,0.1,0.3
		c-0.2,0.1-0.2,0.2-0.2,0.4v1L530.5,439.6L530.5,439.6z M524.6,444.1h-2v2.2h2V444.1z M522.6,449.5h2v-2.2h-2V449.5z M527.1,451.2
		c-0.2-0.4-0.5-0.8-0.8-1.1c1.4-0.8,2.3-1.6,2.8-2.1c-0.9,0-1.6,0.1-2.3,0.1v-1.3c0.9,0.1,1.9,0.1,3.1,0.1c0.3-0.4,0.4-0.8,0.6-1.2
		c-1.4,0-2.4,0.1-3.3,0.1v-1.4c1,0.1,2,0.1,3.6,0.1c0.2-1.1,0.3-1.7,0.3-2.4c0.6,0.1,1.2,0.1,1.7,0.1c0.2,0,0.3,0.1,0.1,0.2
		c-0.1,0.1-0.3,0.5-0.3,0.7c-0.1,0.6-0.1,0.8-0.2,1.3c2,0,3.2,0,4.3-0.1v1.4c-0.9-0.1-2.1-0.1-3.6-0.1h-1c-0.1,0.4-0.3,0.8-0.4,1.2
		h2.2c1.7,0,2.5,0,3.5-0.1v1.3c-0.8-0.1-1.4-0.1-2.5-0.1c0.8,0.8,1.8,1.2,3.4,1.6c-0.4,0.3-1,1-1,1.5c-1.8-0.8-3-1.8-3.8-3.1H531
		C530.3,448.6,529,449.9,527.1,451.2z M527.9,454.5c-0.2-0.5-0.5-0.9-0.8-1.3c1-0.2,2.3-0.7,3.6-1.3c0,0.4,0,0.7,0.2,1
		C529.9,453.3,528.7,453.9,527.9,454.5z M528.8,444.2c-0.3-0.5-0.6-0.9-1.1-1.3l1.4-0.7c0.4,0.5,0.7,0.8,1,1.4L528.8,444.2z
		 M529.3,451.9c-0.2-0.4-0.5-0.7-0.9-1l1.1-0.8c0.4,0.3,0.8,0.7,1,1L529.3,451.9z M537,453.3l-1,1.3c-1-0.8-2.4-1.7-3.4-2.5v2.1
		c0,1-0.2,1.2-2.2,1.6c-0.1-0.5-0.3-1.1-0.8-1.6c1.4,0.1,1.7,0,1.7-0.4v-3.3c0-0.8,0-1.2-0.1-1.6c0.5,0.1,0.8,0.1,1.4,0.1
		c0.4,0,0.4,0.2,0.2,0.3c-0.2,0.1-0.2,0.2-0.2,0.4v1.3c0.2,0.1,0.4,0.2,0.6,0.4c0.6-0.6,1-1.1,1.2-1.5c0.5,0.4,0.9,0.7,1.3,0.9
		c0.2,0.1,0.2,0.3-0.1,0.3c-0.2,0-0.4,0.1-1.4,0.8C534.9,452.4,535.6,452.7,537,453.3z M536,442.9c-0.2,0-0.6,0.3-1.5,1.2
		c-0.4-0.2-0.7-0.4-1.2-0.5c0.5-0.5,1.1-1.2,1.5-1.8c0.6,0.3,1.1,0.6,1.4,0.8C536.3,442.7,536.3,442.9,536,442.9z"/>
	<path style="fill:#FFFFFF;" d="M541,451.5c-0.3-0.6-0.7-1.1-1.1-1.5c1.2-1.5,2.1-3.3,2.8-6.3c-1.2,0-1.7,0.1-2.4,0.2v-1.7
		c0.8,0.1,1.3,0.2,2.7,0.2c0-2.3,0-3.3-0.2-4.2c0.7,0.1,1.1,0.1,1.7,0c0.4,0,0.5,0.2,0.1,0.5c-0.2,0.2-0.2,0.3-0.2,0.5v3
		c0.7,0,1.1-0.1,1.6-0.1v1.7c-0.5-0.1-1-0.1-1.6-0.1v2.1l1.1-0.5c0.4,0.8,0.8,1.4,1.3,2l-1.4,0.7c-0.2-0.7-0.4-1.2-0.9-1.8v6.2
		c0,1.1,0.1,2.5,0.2,3.8h-1.9c0.1-1.3,0.2-2.7,0.2-3.8v-5.7C542.5,448.8,542,449.9,541,451.5z M555.3,448.9v4.2c0,0.8,0,1.9,0.1,2.8
		h-1.9c0.1-1,0.1-2,0.1-2.8v-2.8c0-1.1,0-2.3-0.1-2.7c0.5,0.1,1,0.2,1.5,0.1c-1-1-1.5-2.2-1.9-3.8H552c-0.4,1.5-1.1,2.6-2.2,3.8
		c0.5,0.1,1.1,0.1,1.6,0.1c0.4,0,0.4,0.1,0.1,0.3c-0.1,0.1-0.2,0.4-0.2,1.1c-0.1,3.2-0.7,4.7-3.1,6.8c-0.4-0.4-0.9-0.8-1.5-1.2
		c2-1.2,2.7-2.3,2.9-4.2c0.1-1,0.2-2,0.1-2.8c-0.8,0.8-1.6,1.5-3,2.4c-0.2-0.3-0.5-0.7-1.2-1.3c2.9-1.8,4.3-3,5-5.1
		c-1.3,0-2.2,0.1-3.5,0.1v-1.6c1.2,0.1,2.2,0.1,3.8,0.1c0.1-0.7,0.2-1.4,0.3-2.2c-1.3,0.1-2.5,0.2-3.3,0.2c-0.1-0.4-0.3-1.1-0.7-1.6
		c1.6,0.2,3.7,0.1,6.3-0.3c1.5-0.2,2.1-0.4,2.8-0.6c0.2,0.6,0.7,1.5,0.9,1.7s0.1,0.4-0.1,0.3c-0.8-0.2-1.4-0.2-2.7,0
		c-0.4,0.1-1,0.1-1.6,0.2c-0.1,0.9-0.2,1.7-0.3,2.4c2.7,0,4.3,0,5.8-0.1v1.6c-1.4-0.1-2.3-0.1-3.8-0.1c0.9,2.1,1.9,3.1,4.3,3.7
		c-0.5,0.6-0.8,1.1-1,1.9c-0.8-0.4-1.5-0.8-2.1-1.3C555.4,448.4,555.3,448.6,555.3,448.9z"/>
	<path style="fill:#FFFFFF;" d="M567.4,440.5v1.5c-0.6-0.1-1.5-0.1-4-0.1c-0.5,0.9-1.3,2-2.1,3.1c-0.2-0.7-0.4-1.2-0.8-1.5
		c1.2-1.1,2.5-3.8,3-5.9c0.5,0.3,1,0.5,1.5,0.6s0.5,0.3,0.1,0.7c-0.1,0.1-0.4,0.5-1,1.6C565.9,440.6,566.7,440.6,567.4,440.5z
		 M560.9,449.3v-1.7c0.6,0.1,1.3,0.1,2.3,0.1v-2.3c-0.3,0-0.6,0.1-0.9,0.1v-1.6c0.6,0.1,1.2,0.1,2.1,0.1c1.1,0,2.1-0.1,2.7-0.1v1.6
		c-0.5-0.1-1.5-0.1-2.5-0.1v2.4c1.3,0,2.2-0.1,2.9-0.2v1.7c-0.7-0.1-1.6-0.1-2.9-0.2v3.8c0.8-0.5,1.3-0.9,2.1-1.6
		c-0.1,0.7,0.1,1.2,0.3,1.5l-2.4,1.9c-0.4,0.3-0.7,0.6-1,1c-0.3-0.6-0.8-1-1.2-1.4c0.5-0.4,0.8-0.9,0.8-2v-3.2
		C562.2,449.2,561.5,449.2,560.9,449.3z M567.9,456.2c-0.2-0.6-0.5-0.9-1.1-1.2c1.5-0.4,2.8-1.1,4.1-2.3c0.3,0.3,0.9,0.9,1.1,1
		c0.3,0.2,0.2,0.3-0.1,0.4C571.5,454.1,569.8,455,567.9,456.2z M568.9,444.1c0-0.6-0.1-1.7-0.1-2.2c0.7,0.1,1.7,0.1,3.2,0.1
		c0-0.4,0.1-0.8,0.1-1.3c-1.8,0-3.1,0-4.2,0.1v-1.5c1.1,0.1,2.4,0.1,4.2,0.2c0-0.8,0-1.4-0.1-1.9c0.6,0.1,1.5,0.1,1.8,0.1
		s0.4,0.1,0.1,0.4c-0.1,0.1-0.2,0.6-0.3,1.3c2.2,0,3.7,0,4.9-0.2v1.5c-1.2-0.1-2.8-0.1-5.1-0.1c0,0.4-0.1,0.9-0.1,1.3
		c1.9,0,3.1,0,3.9-0.1c-0.1,0.4-0.1,1.5-0.1,2.2v7.1c0.7,0,1.2,0,1.6-0.1v1.3c-0.9-0.1-1.6-0.1-5.6-0.1c-3.9,0-4.7,0-5.6,0.1V451
		c0.3,0,0.8,0.1,1.3,0.1L568.9,444.1L568.9,444.1z M575.7,443.1h-5.3v1.2h5.3V443.1z M570.4,446.6h5.3v-1.2h-5.3V446.6z
		 M570.4,448.9h5.3v-1.2h-5.3V448.9z M575.7,449.9h-5.3v1.3h5.3V449.9z M577.6,456c-1.2-0.9-2.5-1.7-3.8-2.4l0.8-1
		c1.2,0.6,2.8,1.3,4,2L577.6,456z"/>
</g>
<g style="opacity:0.8;">
	<path style="fill:#FFFFFF;" d="M796.9,551.2h-1.8c0.1-1.2,0.2-3,0.2-4.5v-5.6c-0.4,0.7-0.9,1.4-1.5,2.3c-0.3-0.5-0.8-1.1-1.2-1.3
		c1-1,1.9-2.6,2.7-4.4c0.5-1.3,0.9-2.8,1.1-4c0.7,0.3,1.4,0.5,2.1,0.6c0.4,0.1,0.4,0.2,0,0.5c-0.1,0.1-0.7,1.3-0.9,1.7
		c-0.2,0.6-0.5,1.1-0.7,1.6L796.9,551.2L796.9,551.2z M801.7,548.1c-1,0.9-1.7,1.8-2,2.4c-0.3-0.6-0.8-1.4-1.2-1.8
		c0.5-0.4,0.6-0.6,0.6-1.8v-9.3c0-0.8-0.1-1.4-0.2-2c1.6-0.3,2.7-0.8,3.8-1.6c0.3,0.6,0.8,1.2,1.1,1.5s0.2,0.4-0.1,0.3
		c-0.2,0-0.9,0.1-2.9,0.8v10.5c0.8-0.7,1.7-1.8,2.4-2.7c0.1,0.7,0.3,1.3,0.6,1.7L801.7,548.1z M810.2,537.4v10.1
		c0,1.1-0.4,1.6-2.8,1.9c-0.1-0.7-0.3-1.4-0.7-2.2c1.7,0.3,2,0.2,2-1v-9.1h-2.8v15H804c0.1-1.8,0.2-3.1,0.2-4.7v-9.9
		c0-0.8,0-1.6-0.1-2c0.8,0,1.7,0.1,3.2,0.1c1.4,0,2.3,0,3.1-0.1C810.3,535.7,810.2,536.5,810.2,537.4z"/>
	<path style="fill:#FFFFFF;" d="M827.2,534.9c0.8,0.6,1.4,0.9,2.2,1.1c0.3,0.1,0.4,0.2,0,0.4c-0.2,0.1-0.7,1-1.3,2.4
		c-1,2.4-2.2,4.8-4.8,7.2c2.5,2,5.1,2.8,8.3,2.9c-0.8,0.8-1.1,1.2-1.4,2.4c-3.6-0.9-6.2-2.3-8.2-4.1c-3.1,2.3-5.3,3.6-7.4,4.6
		c-0.3-0.6-1-1.4-1.8-1.9c3.1-0.6,6.2-2.3,8-3.8c-1.8-2-3.8-5.2-5.4-10c0.6-0.1,1.2-0.3,1.7-0.5c1.2,4,2.7,7.2,4.9,9.4
		C824.3,542.8,826.1,539.4,827.2,534.9z M822.1,539.5c-0.6-2.2-1.2-3.9-1.9-5.3l1.7-0.6c0.8,1.8,1.4,3.3,2.1,5.1L822.1,539.5z"/>
	<path style="fill:#FFFFFF;" d="M837.4,551.9h-1.8c0.1-1.1,0.2-2.1,0.2-3.2V543c-0.5,0.8-1,1.3-1.5,1.8c-0.3-0.5-0.7-0.8-1.2-1.2
		c0.9-0.7,2.1-2.1,2.8-3.2c0.5-0.8,0.8-1.6,1.1-2.5c0.5,0.4,1.3,0.9,1.6,1s0.3,0.2-0.1,0.4c-0.1,0.1-0.4,0.3-1.1,1.4V551.9z
		 M837.3,536.3c-0.8,1-1.6,2-2.5,2.9c-0.4-0.4-0.7-0.8-1.3-1.1c0.9-0.6,1.4-1.1,2.3-2.4c0.3-0.4,0.9-1.3,1.2-2.1
		c0.6,0.4,1.4,1,1.7,1.1s0.3,0.2,0,0.4C838.4,535.1,838,535.4,837.3,536.3z M846.6,546.8c-0.1,0.5-0.1,1.1-0.1,1.6
		c-2.2,0.2-6.4,1.1-8.1,1.5c0-0.6-0.1-1.3-0.4-2c0.8,0,2.2-0.1,3.6-0.3V545c-1.3,0-1.8,0.1-2.7,0.2v-1.5c0.8,0.1,1.4,0.1,2.7,0.1
		c0-0.8,0-1.5-0.1-2.1c0.5,0.1,1.3,0.1,1.8,0.1c0.3,0,0.3,0.2,0.1,0.3s-0.2,0.2-0.2,0.4v1.2c1.2,0,1.8,0,2.6-0.1v1.5
		c-0.9-0.1-1.5-0.1-2.6-0.2v2.4C844.6,547.2,846.1,546.9,846.6,546.8z M843.2,539.9c1.1,0,1.5,0,2.3-0.2v1.6c-1-0.1-1.3-0.2-3.1-0.2
		c-2,0-2.4,0-3.5,0.2v-1.6c0.9,0.1,1.3,0.1,2.7,0.2v-2.4c-1.2,0-1.7,0.1-2.5,0.2v-1.6c0.8,0.1,1.3,0.1,2.5,0.2c0-0.9,0-2-0.1-2.6
		c0.5,0.1,1.3,0.1,1.8,0.1c0.2,0,0.3,0.2,0.1,0.3s-0.2,0.2-0.2,0.4v1.7c1.3,0,1.8-0.1,2.6-0.2v1.6c-0.9-0.1-1.3-0.2-2.6-0.2V539.9z
		 M849.9,549.8c0,1.7-0.1,1.9-3.1,2.2c0-0.5-0.2-1-0.7-2c2,0.1,2.1-0.1,2.1-1v-8.1c-0.9,0-1.3,0.1-1.9,0.2v-1.7
		c0.8,0.1,1.3,0.2,2.8,0.2s1.9,0,2.7-0.2v1.7c-0.7-0.1-1-0.2-2-0.2v8.9H849.9z M848.7,536.5c-1,0-1.6,0-2.3,0.2V535
		c0.8,0.1,1.1,0.1,2.3,0.1c1.3,0,1.6,0,2.4-0.1v1.7C850.4,536.5,849.9,536.5,848.7,536.5z"/>
	<path style="fill:#FFFFFF;" d="M859.4,549.1c2.2,1,7.8,1.2,12.7,0.4c-0.4,0.9-0.5,1.5-0.5,2.2c-7.9,0.2-9.7,0.1-13.7-1.6
		c-1-0.4-1.7-0.1-2.7,1.6c-0.4-0.4-1-0.8-1.6-1.2c1-1,1.8-1.6,2.4-1.9v-6.2c-1.1,0-1.8,0-2.3,0.1v-1.7c1.3,0.2,3,0.2,4.2,0
		c-0.1,0.7-0.2,1.3-0.2,2.4v5.3C858.2,548.6,858.6,548.8,859.4,549.1z M856.2,539c-0.2-1.4-0.7-2.8-1.1-3.8l1.7-0.5
		c0.3,1.3,0.7,2.6,1.2,3.9L856.2,539z M870.1,539.2c-0.1,0.7-0.1,1.4-0.1,2.1v4.8c0,0.9,0,1.9,0.1,2.9h-1.7v-0.8h-6v0.9h-1.7
		c0.1-1,0.2-1.7,0.2-2.9v-5c0-0.7,0-1.5-0.1-2.1c0.7,0.1,1.9,0.1,3.4,0.2c0.1-0.4,0.3-1,0.4-1.5c-2.3,0-4,0.1-5.3,0.2v-1.7
		c1.7,0.1,3.8,0.2,7,0.2c0.4-0.9,0.7-1.6,1-2.8c0.6,0.3,1.3,0.5,2,0.6c0.2,0,0.2,0.1,0,0.2c-0.4,0.2-0.8,0.5-1.6,1.9
		c1.8,0,3.1-0.1,4.3-0.2v1.7c-1.4-0.1-3.1-0.2-5.6-0.2c-0.2,0.5-0.4,1.1-0.5,1.6C867.6,539.4,869.3,539.3,870.1,539.2z M863.2,536.5
		c-0.4-0.5-0.9-1.1-1.4-1.7l1.4-0.8c0.5,0.5,1.1,1.2,1.4,1.7L863.2,536.5z M868.4,540.6h-6v1.3h6V540.6z M862.4,544.5h6v-1.4h-6
		V544.5z M868.4,545.7h-6v1.4h6V545.7z"/>
</g>
<g style="opacity:0.8;">
	<path style="fill:#FFFFFF;" d="M912.5,638.9v1.9c-1.9-0.1-4.2-0.2-7.6-0.2c0,2.1,0.1,3.8,0.2,4.8h-2.2c0.1-1,0.2-2.7,0.2-4.8
		c-3.4,0-5.7,0.1-7.6,0.2v-1.9c2,0.1,4.2,0.2,7.6,0.2v-2.8c-2.5,0-4.3,0.1-5.7,0.2v-1.9c1.5,0.1,3.2,0.2,5.7,0.2V632
		c-3,0-5.1,0.1-6.8,0.2v-1.9c1.7,0.1,3.8,0.2,6.8,0.2c0-1.5-0.1-2.8-0.2-3.2c0.8,0.1,1.4,0.2,2.1,0.2c0.5,0,0.5,0.2,0.1,0.4
		c-0.1,0.1-0.3,0.8-0.3,1.5v1.1c3,0,5.1-0.1,6.8-0.2v1.9c-1.7-0.1-3.8-0.2-6.8-0.2v2.8c2.6,0,4.4-0.1,5.9-0.2v1.9
		c-1.5-0.1-3.3-0.2-5.9-0.2v2.8C908.3,639.1,910.6,639.1,912.5,638.9z"/>
	<path style="fill:#FFFFFF;" d="M918.6,634.5v8c0,1,0,1.8,0.1,2.9h-2c0.1-1.1,0.2-2.1,0.2-2.9v-8c0-0.9,0-1.6-0.1-2.4
		c0.7,0.1,1.3,0.1,1.7,0.1c0.7,0,0.7,0.1,0.3,0.6C918.6,633,918.6,633.3,918.6,634.5z M919.9,631.4c-0.5-1.2-1-2-1.7-2.9l1.7-0.8
		c0.6,1.2,1.1,2,1.7,2.9L919.9,631.4z M931.9,631.3v11.3c0,2.4-0.1,2.5-3.6,3.1c-0.1-0.8-0.3-1.3-0.8-2.1c2.4,0.1,2.6,0.1,2.6-1.6
		v-11.5h-3.4c-0.9,0-2.1,0-3.8,0.1V629c1.6,0.1,2.9,0.1,4.5,0.1s3.2,0,4.6-0.1C931.9,629.4,931.9,630.4,931.9,631.3z"/>
	<path style="fill:#FFFFFF;" d="M939.5,645.7h-1.8c0.1-1.1,0.2-2.1,0.2-3.2v-5.7c-0.5,0.8-1,1.3-1.5,1.8c-0.3-0.5-0.7-0.8-1.2-1.2
		c0.9-0.7,2.1-2.1,2.8-3.2c0.5-0.8,0.8-1.6,1.1-2.5c0.5,0.4,1.3,0.9,1.6,1s0.3,0.2-0.1,0.4c-0.1,0.1-0.4,0.3-1.1,1.4V645.7z
		 M939.4,630.1c-0.8,1-1.6,2-2.5,2.9c-0.4-0.4-0.7-0.8-1.3-1.1c0.9-0.6,1.4-1.1,2.3-2.4c0.3-0.4,0.9-1.3,1.2-2.1
		c0.6,0.4,1.4,1,1.7,1.1s0.3,0.2,0,0.4C940.4,628.9,940.1,629.2,939.4,630.1z M948.7,640.5c-0.1,0.5-0.1,1.1-0.1,1.6
		c-2.2,0.2-6.4,1.1-8.1,1.5c0-0.6-0.1-1.3-0.4-2c0.8,0,2.2-0.1,3.6-0.3v-2.6c-1.3,0-1.8,0.1-2.7,0.2v-1.5c0.8,0.1,1.4,0.1,2.7,0.1
		c0-0.8,0-1.5-0.1-2.1c0.5,0.1,1.3,0.1,1.8,0.1c0.3,0,0.3,0.2,0.1,0.3s-0.2,0.2-0.2,0.4v1.2c1.2,0,1.8,0,2.6-0.1v1.5
		c-0.9-0.1-1.5-0.1-2.6-0.2v2.4C946.6,641,948.1,640.7,948.7,640.5z M945.3,633.7c1.1,0,1.5,0,2.3-0.2v1.6c-1-0.1-1.3-0.2-3.1-0.2
		c-2,0-2.4,0-3.5,0.2v-1.6c0.9,0.1,1.3,0.1,2.7,0.2v-2.4c-1.2,0-1.7,0.1-2.5,0.2v-1.6c0.8,0.1,1.3,0.1,2.5,0.2c0-0.9,0-2-0.1-2.6
		c0.5,0.1,1.3,0.1,1.8,0.1c0.2,0,0.3,0.2,0.1,0.3s-0.2,0.2-0.2,0.4v1.7c1.3,0,1.8-0.1,2.6-0.2v1.6c-0.9-0.1-1.3-0.2-2.6-0.2V633.7z
		 M951.9,643.5c0,1.7-0.1,1.9-3.1,2.2c0-0.5-0.2-1-0.7-2c2,0.1,2.1-0.1,2.1-1v-8.1c-0.9,0-1.3,0.1-1.9,0.2v-1.7
		c0.8,0.1,1.3,0.2,2.8,0.2s1.9,0,2.7-0.2v1.7c-0.7-0.1-1-0.2-2-0.2v8.9H951.9z M950.8,630.2c-1,0-1.6,0-2.3,0.2v-1.7
		c0.8,0.1,1.1,0.1,2.3,0.1c1.3,0,1.6,0,2.4-0.1v1.7C952.4,630.3,952,630.2,950.8,630.2z"/>
	<path style="fill:#FFFFFF;" d="M961.5,642.9c2.2,1,7.8,1.2,12.7,0.4c-0.4,0.9-0.5,1.5-0.5,2.2c-7.9,0.2-9.7,0.1-13.7-1.6
		c-1-0.4-1.7-0.1-2.7,1.6c-0.4-0.4-1-0.8-1.6-1.2c1-1,1.8-1.6,2.4-1.9v-6.2c-1.1,0-1.8,0-2.3,0.1v-1.7c1.3,0.2,3,0.2,4.2,0
		c-0.1,0.7-0.2,1.3-0.2,2.4v5.3C960.3,642.4,960.7,642.6,961.5,642.9z M958.2,632.8c-0.2-1.4-0.7-2.8-1.1-3.8l1.7-0.5
		c0.3,1.3,0.7,2.6,1.2,3.9L958.2,632.8z M972.2,633c-0.1,0.7-0.1,1.4-0.1,2.1v4.8c0,0.9,0,1.9,0.1,2.9h-1.7V642h-6v0.9h-1.7
		c0.1-1,0.2-1.7,0.2-2.9v-5c0-0.7,0-1.5-0.1-2.1c0.7,0.1,1.9,0.1,3.4,0.2c0.1-0.4,0.3-1,0.4-1.5c-2.3,0-4,0.1-5.3,0.2v-1.7
		c1.7,0.1,3.8,0.2,7,0.2c0.4-0.9,0.7-1.6,1-2.8c0.6,0.3,1.3,0.5,2,0.6c0.2,0,0.2,0.1,0,0.2c-0.4,0.2-0.8,0.5-1.6,1.9
		c1.8,0,3.1-0.1,4.3-0.2v1.7c-1.4-0.1-3.1-0.2-5.6-0.2c-0.2,0.5-0.4,1.1-0.5,1.6C969.6,633.2,971.4,633.1,972.2,633z M965.3,630.2
		c-0.4-0.5-0.9-1.1-1.4-1.7l1.4-0.8c0.5,0.5,1.1,1.2,1.4,1.7L965.3,630.2z M970.5,634.4h-6v1.3h6V634.4z M964.4,638.3h6v-1.4h-6
		V638.3z M970.5,639.4h-6v1.4h6V639.4z"/>
</g>
<g style="opacity:0.8;">
	<path style="fill:#FFFFFF;" d="M1026.9,709.7h-1.9c-1.5,0-2.5,0-3.5,0.1V708c1,0.1,2,0.1,3.7,0.1s2.7,0,3.8-0.1
		c-0.2,2.8-0.9,5.7-1.9,8.3c1,1.4,1.9,2.8,2.7,4l-1.8,0.9c-0.4-0.9-0.9-1.9-1.7-3.1c-1,2.2-2.3,4-3.8,5.3c-0.6-0.5-1.1-0.8-1.7-1
		c1.4-0.7,3.2-3,4.5-6c-1.1-1.6-2.4-3.4-3.5-4.5l1.6-1c0.8,1.1,1.7,2.3,2.6,3.6C1026.4,713.2,1026.8,711.5,1026.9,709.7z
		 M1035.7,709.9h-1.7c-2.2,0-3.1,0-4.2,0.1v-1.8c1.2,0.1,2.3,0.1,4.1,0.1c1.8,0,2.8,0,3.9-0.1c-0.7,4.6-1.6,7.9-3.5,10.9
		c1.1,1.4,2.7,2.4,4.9,3.2c-0.5,0.4-1,1.2-1.3,2.1c-2.1-1.2-3.6-2.5-4.7-3.8c-1.3,1.6-2.9,2.9-5,4c-0.4-0.6-1-1-1.5-1.3
		c2.4-1,4.2-2.4,5.6-4.2c-0.9-1.6-1.7-3.9-2.1-7.3l1.8-0.3c0,2.5,0.4,4.4,1.3,6.1C1034.7,715.4,1035.3,713.1,1035.7,709.9z"/>
	<path style="fill:#FFFFFF;" d="M1044.7,709.7c0-1.2-0.1-2-0.2-2.7c0.6,0.1,1.2,0.1,1.9,0c0.4,0,0.5,0.2,0.2,0.3
		c-0.3,0.3-0.4,0.4-0.4,0.8v12.1l1.5-0.2v-7c0-1.1,0-1.8-0.1-2.2c0.6,0.1,1.6,0.1,1.9,0.1s0.4,0.2,0.1,0.4s-0.4,0.4-0.4,0.7v8.5
		c0,0.9,0,1.7,0.1,2.5h-1.6v-1.6l-3.4,0.5c-1.1,0.2-2.1,0.4-2.6,0.6c0.1-0.7,0.1-1.5,0.1-2.2v-7.1c0-1,0-1.9-0.1-2.4
		c0.6,0.1,1.2,0.1,1.8,0.1c0.3,0,0.4,0.2,0.1,0.4c-0.2,0.2-0.3,0.4-0.3,0.7v8.7l1.5-0.2L1044.7,709.7L1044.7,709.7z M1052.7,720.4
		c-1.3,0-2.3,0.1-3,0.2v-1.9c0.7,0.1,1.7,0.2,3,0.2s2.2-0.1,2.9-0.2v1.9C1054.9,720.5,1054,720.4,1052.7,720.4z M1052.8,714.5h1.9
		c2,0,3.4-0.1,4.1-0.2c0,1.1-0.2,4.7-0.3,6.4c-0.3,3.6-0.3,3.8-3.8,4.3c-0.1-0.6-0.3-1.3-0.8-2c2.8,0.2,3,0.1,3.1-7.2h-2.2
		c-1.6,0-2.9,0.1-3.8,0.2c0.3-4.3,0.4-8,0.3-9.5c0.4,0.1,1.6,0.2,2,0.1c0.3,0,0.3,0.1,0.1,0.5c-0.1,0.2-0.2,0.9-0.4,2.4
		c3.9,0,5.3,0,5.9-0.2v1.8c-0.4-0.1-1.8-0.1-6-0.1C1052.9,712.1,1052.9,713.2,1052.8,714.5z"/>
	<path style="fill:#FFFFFF;" d="M1065.4,725h-1.8c0.1-1.1,0.2-2.1,0.2-3.2v-5.7c-0.5,0.8-1,1.3-1.5,1.8c-0.3-0.5-0.7-0.8-1.2-1.2
		c0.9-0.7,2.1-2.1,2.8-3.2c0.5-0.8,0.8-1.6,1.1-2.5c0.5,0.4,1.3,0.9,1.6,1c0.3,0.1,0.3,0.2-0.1,0.4c-0.1,0.1-0.4,0.3-1.1,1.4V725z
		 M1065.2,709.5c-0.8,1-1.6,2-2.5,2.9c-0.4-0.4-0.7-0.8-1.3-1.1c0.9-0.6,1.4-1.1,2.3-2.4c0.3-0.4,0.9-1.3,1.2-2.1
		c0.6,0.4,1.4,1,1.7,1.1c0.3,0.1,0.3,0.2,0,0.4C1066.3,708.2,1066,708.5,1065.2,709.5z M1074.6,719.9c-0.1,0.5-0.1,1.1-0.1,1.6
		c-2.2,0.2-6.4,1.1-8.1,1.5c0-0.6-0.1-1.3-0.4-2c0.8,0,2.2-0.1,3.6-0.3v-2.6c-1.3,0-1.8,0.1-2.7,0.2v-1.5c0.8,0.1,1.4,0.1,2.7,0.1
		c0-0.8,0-1.5-0.1-2.1c0.5,0.1,1.3,0.1,1.8,0.1c0.3,0,0.3,0.2,0.1,0.3c-0.2,0.1-0.2,0.2-0.2,0.4v1.2c1.2,0,1.8,0,2.6-0.1v1.5
		c-0.9-0.1-1.5-0.1-2.6-0.2v2.4C1072.5,720.3,1074,720,1074.6,719.9z M1071.2,713c1.1,0,1.5,0,2.3-0.2v1.6c-1-0.1-1.3-0.2-3.1-0.2
		c-2,0-2.4,0-3.5,0.2v-1.6c0.9,0.1,1.3,0.1,2.7,0.2v-2.4c-1.2,0-1.7,0.1-2.5,0.2v-1.6c0.8,0.1,1.3,0.1,2.5,0.2c0-0.9,0-2-0.1-2.6
		c0.5,0.1,1.3,0.1,1.8,0.1c0.2,0,0.3,0.2,0.1,0.3c-0.2,0.1-0.2,0.2-0.2,0.4v1.7c1.3,0,1.8-0.1,2.6-0.2v1.6c-0.9-0.1-1.3-0.2-2.6-0.2
		L1071.2,713L1071.2,713z M1077.8,722.9c0,1.7-0.1,1.9-3.1,2.2c0-0.5-0.2-1-0.7-2c2,0.1,2.1-0.1,2.1-1V714c-0.9,0-1.3,0.1-1.9,0.2
		v-1.7c0.8,0.1,1.3,0.2,2.8,0.2s1.9,0,2.7-0.2v1.7c-0.7-0.1-1-0.2-2-0.2L1077.8,722.9L1077.8,722.9z M1076.7,709.6
		c-1,0-1.6,0-2.3,0.2V708c0.8,0.1,1.1,0.1,2.3,0.1c1.3,0,1.6,0,2.4-0.1v1.7C1078.3,709.6,1077.8,709.6,1076.7,709.6z"/>
	<path style="fill:#FFFFFF;" d="M1087.3,722.3c2.2,1,7.8,1.2,12.7,0.4c-0.4,0.9-0.5,1.5-0.5,2.2c-7.9,0.2-9.7,0.1-13.7-1.6
		c-1-0.4-1.7-0.1-2.7,1.6c-0.4-0.4-1-0.8-1.6-1.2c1-1,1.8-1.6,2.4-1.9v-6.2c-1.1,0-1.8,0-2.3,0.1V714c1.3,0.2,3,0.2,4.2,0
		c-0.1,0.7-0.2,1.3-0.2,2.4v5.3C1086.1,721.7,1086.6,721.9,1087.3,722.3z M1084.1,712.2c-0.2-1.4-0.7-2.8-1.1-3.8l1.7-0.5
		c0.3,1.3,0.7,2.6,1.2,3.9L1084.1,712.2z M1098,712.3c-0.1,0.7-0.1,1.4-0.1,2.1v4.8c0,0.9,0,1.9,0.1,2.9h-1.7v-0.8h-6v0.9h-1.7
		c0.1-1,0.2-1.7,0.2-2.9v-5c0-0.7,0-1.5-0.1-2.1c0.7,0.1,1.9,0.1,3.4,0.2c0.1-0.4,0.3-1,0.4-1.5c-2.3,0-4,0.1-5.3,0.2v-1.7
		c1.7,0.1,3.8,0.2,7,0.2c0.4-0.9,0.7-1.6,1-2.8c0.6,0.3,1.3,0.5,2,0.6c0.2,0,0.2,0.1,0,0.2c-0.4,0.2-0.8,0.5-1.6,1.9
		c1.8,0,3.1-0.1,4.3-0.2v1.7c-1.4-0.1-3.1-0.2-5.6-0.2c-0.2,0.5-0.4,1.1-0.5,1.6C1095.5,712.5,1097.2,712.4,1098,712.3z
		 M1091.1,709.6c-0.4-0.5-0.9-1.1-1.4-1.7l1.4-0.8c0.5,0.5,1.1,1.2,1.4,1.7L1091.1,709.6z M1096.3,713.7h-6v1.3h6V713.7z
		 M1090.3,717.6h6v-1.4h-6V717.6z M1096.3,718.8h-6v1.4h6V718.8z"/>
</g>
<g style="opacity:0.8;">
	<path style="fill:#FFFFFF;" d="M1310.3,677.9v-2c1.9,0.1,4.3,0.2,7.7,0.2c3.4,0,5.8,0,7.7-0.2v2c-1.8-0.1-4.2-0.2-7.5-0.2l-0.6,3.8
		c3.2,0,4.6,0,5.9-0.1l-0.4,8.1c1.5,0,3-0.1,3.7-0.2v2c-1-0.1-2.3-0.2-9.1-0.2c-4.7,0-7.6,0.1-8.7,0.2v-2c1.1,0.1,2.9,0.2,5.4,0.2
		l1-6.4c-1.5,0-2.8,0.1-4.2,0.2v-1.9c1.2,0.1,2.2,0.1,4.5,0.1l0.6-3.8C1313.7,677.7,1311.8,677.8,1310.3,677.9z M1321.6,683h-4.3
		l-1.1,6.4h5L1321.6,683z"/>
	<path style="fill:#FFFFFF;" d="M1329.9,688.9v-1.8c1.4,0.1,3.4,0.2,6.1,0.2s4.8-0.1,6.3-0.2v1.8c-1.4-0.1-3.6-0.2-6.3-0.2
		C1333.3,688.7,1331.4,688.8,1329.9,688.9z M1345.9,683.4c-0.1,2.2-0.3,4.3-0.4,6c-0.2,2.4-0.9,2.9-3.9,3.2
		c-0.1-0.5-0.4-1.5-0.9-2.1c2.6,0.3,2.8,0.1,3-2.1c0.1-0.8,0.2-1.9,0.3-3.5c-6.3,0-10.5,0.1-11.3,0.2c0.3-0.9,0.5-5.1,0.3-6.7
		c0.5,0.1,1.5,0.2,2,0.2c0.3,0,0.3,0.1,0.1,0.4c-0.2,0.2-0.3,0.8-0.5,4.5h6.2l0.6-6.2h-5.3c-1.6,0-3.3,0.1-5,0.2v-1.9
		c1.7,0.1,4.2,0.2,6.2,0.2s4.4-0.1,6.2-0.2l-1,7.9C1343.8,683.5,1345.2,683.4,1345.9,683.4z"/>
	<path style="fill:#FFFFFF;" d="M1353.2,692.6h-1.8c0.1-1.1,0.2-2.1,0.2-3.2v-5.7c-0.5,0.8-1,1.3-1.5,1.8c-0.3-0.5-0.7-0.8-1.2-1.2
		c0.9-0.7,2.1-2.1,2.8-3.2c0.5-0.8,0.8-1.6,1.1-2.5c0.5,0.4,1.3,0.9,1.6,1c0.3,0.1,0.3,0.2-0.1,0.4c-0.1,0.1-0.4,0.3-1.1,1.4V692.6z
		 M1353.1,677c-0.8,1-1.6,2-2.5,2.9c-0.4-0.4-0.7-0.8-1.3-1.1c0.9-0.6,1.4-1.1,2.3-2.4c0.3-0.4,0.9-1.3,1.2-2.1
		c0.6,0.4,1.4,1,1.7,1.1c0.3,0.1,0.3,0.2,0,0.4C1354.2,675.8,1353.8,676.1,1353.1,677z M1362.4,687.4c-0.1,0.5-0.1,1.1-0.1,1.6
		c-2.2,0.2-6.4,1.1-8.1,1.5c0-0.6-0.1-1.3-0.4-2c0.8,0,2.2-0.1,3.6-0.3v-2.6c-1.3,0-1.8,0.1-2.7,0.2v-1.5c0.8,0.1,1.4,0.1,2.7,0.1
		c0-0.8,0-1.5-0.1-2.1c0.5,0.1,1.3,0.1,1.8,0.1c0.3,0,0.3,0.2,0.1,0.3c-0.2,0.1-0.2,0.2-0.2,0.4v1.2c1.2,0,1.8,0,2.6-0.1v1.5
		c-0.9-0.1-1.5-0.1-2.6-0.2v2.4C1360.4,687.8,1361.9,687.6,1362.4,687.4z M1359,680.6c1.1,0,1.5,0,2.3-0.2v1.6
		c-1-0.1-1.3-0.2-3.1-0.2c-2,0-2.4,0-3.5,0.2v-1.6c0.9,0.1,1.3,0.1,2.7,0.2v-2.4c-1.2,0-1.7,0.1-2.5,0.2v-1.6
		c0.8,0.1,1.3,0.1,2.5,0.2c0-0.9,0-2-0.1-2.6c0.5,0.1,1.3,0.1,1.8,0.1c0.2,0,0.3,0.2,0.1,0.3c-0.2,0.1-0.2,0.2-0.2,0.4v1.7
		c1.3,0,1.8-0.1,2.6-0.2v1.6c-0.9-0.1-1.3-0.2-2.6-0.2L1359,680.6L1359,680.6z M1365.6,690.4c0,1.7-0.1,1.9-3.1,2.2
		c0-0.5-0.2-1-0.7-2c2,0.1,2.1-0.1,2.1-1v-8.1c-0.9,0-1.3,0.1-1.9,0.2V680c0.8,0.1,1.3,0.2,2.8,0.2s1.9,0,2.7-0.2v1.7
		c-0.7-0.1-1-0.2-2-0.2L1365.6,690.4L1365.6,690.4z M1364.5,677.1c-1,0-1.6,0-2.3,0.2v-1.7c0.8,0.1,1.1,0.1,2.3,0.1
		c1.3,0,1.6,0,2.4-0.1v1.7C1366.2,677.2,1365.7,677.1,1364.5,677.1z"/>
	<path style="fill:#FFFFFF;" d="M1375.2,689.8c2.2,1,7.8,1.2,12.7,0.4c-0.4,0.9-0.5,1.5-0.5,2.2c-7.9,0.2-9.7,0.1-13.7-1.6
		c-1-0.4-1.7-0.1-2.7,1.6c-0.4-0.4-1-0.8-1.6-1.2c1-1,1.8-1.6,2.4-1.9v-6.2c-1.1,0-1.8,0-2.3,0.1v-1.7c1.3,0.2,3,0.2,4.2,0
		c-0.1,0.7-0.2,1.3-0.2,2.4v5.3C1374,689.3,1374.4,689.5,1375.2,689.8z M1372,679.7c-0.2-1.4-0.7-2.8-1.1-3.8l1.7-0.5
		c0.3,1.3,0.7,2.6,1.2,3.9L1372,679.7z M1385.9,679.9c-0.1,0.7-0.1,1.4-0.1,2.1v4.8c0,0.9,0,1.9,0.1,2.9h-1.7v-0.8h-6v0.9h-1.7
		c0.1-1,0.2-1.7,0.2-2.9v-5c0-0.7,0-1.5-0.1-2.1c0.7,0.1,1.9,0.1,3.4,0.2c0.1-0.4,0.3-1,0.4-1.5c-2.3,0-4,0.1-5.3,0.2V677
		c1.7,0.1,3.8,0.2,7,0.2c0.4-0.9,0.7-1.6,1-2.8c0.6,0.3,1.3,0.5,2,0.6c0.2,0,0.2,0.1,0,0.2c-0.4,0.2-0.8,0.5-1.6,1.9
		c1.8,0,3.1-0.1,4.3-0.2v1.7c-1.4-0.1-3.1-0.2-5.6-0.2c-0.2,0.5-0.4,1.1-0.5,1.6C1383.4,680.1,1385.1,680,1385.9,679.9z M1379,677.1
		c-0.4-0.5-0.9-1.1-1.4-1.7l1.4-0.8c0.5,0.5,1.1,1.2,1.4,1.7L1379,677.1z M1384.2,681.2h-6v1.3h6V681.2z M1378.2,685.1h6v-1.4h-6
		V685.1z M1384.2,686.3h-6v1.4h6V686.3z"/>
</g>
<g style="opacity:0.8;">
	<path style="fill:#FFFFFF;" d="M1542.7,729c-0.9-0.7-2-1.3-3.2-1.8l0.9-1.5c1,0.5,2.3,1.3,3.1,1.8L1542.7,729z M1542.5,734.6
		c-0.4,1.1-0.8,2.3-1.1,3.4c-0.6-0.5-1.3-0.9-1.9-1.3c0.5-0.9,1-1.9,1.6-3.1c0.4-1,0.9-2.2,1.2-3.3c0.5,0.5,1,0.9,1.5,1.1
		C1543.5,732.1,1543,733.3,1542.5,734.6z M1543.4,724.2c-0.5-0.7-1.7-1.6-2.7-2.2l1.1-1.3c1,0.7,1.9,1.4,2.7,2.1L1543.4,724.2z
		 M1549.6,735.5c-0.1,0-0.6,0.2-0.9,0.4c-1.2,0.9-2.3,1.5-3.7,2.3c-0.3-0.4-0.6-0.8-1.1-1.3c1.8-0.6,3-1.5,4.3-2.9
		c0.5,0.4,1,0.8,1.4,1C1550,735.3,1550,735.5,1549.6,735.5z M1552.2,728.3c1.9,0,2.7,0,3.9-0.2v1.7c-0.9-0.2-1.6-0.2-2.8-0.2v2.5
		c1.7,0,3.1-0.1,4.2-0.2v1.7c-1.5-0.1-2.5-0.1-6.5-0.1c-3.4,0-4.9,0-6.5,0.1v-1.7c0.7,0.1,1.4,0.1,2.3,0.1v-4.5c0-0.6,0-1.4-0.1-1.8
		c2.8-0.2,4.5-0.5,6.6-1.1c0.2,0.5,0.7,1.2,0.9,1.5c0.2,0.3,0.2,0.6,0,0.5c-0.6-0.1-1.6-0.2-2.3-0.1c-0.8,0.1-2.2,0.2-3.5,0.4v1.4
		L1552.2,728.3L1552.2,728.3z M1549.6,720.3l1.9-0.4c0.1,0.7,0.3,1.4,0.4,2.2c2.9,0,4,0,5-0.1l-0.1,3.3h-1.5v-1.9h-8.5v2h-1.6V722
		c1,0.1,2.1,0.1,4.9,0.1C1550,721.5,1549.8,720.9,1549.6,720.3z M1548.2,729.5v2.6h3.5v-2.6H1548.2z M1555.6,738.1
		c-1.2-1.1-2.2-1.8-3.7-2.7l1.1-1.2c1.3,0.8,2.7,1.7,3.9,2.6L1555.6,738.1z"/>
	<path style="fill:#FFFFFF;" d="M1563.4,729.3c-0.8-0.6-2.3-1.4-3.5-1.9l1.1-1.7c1.1,0.5,2.6,1.2,3.6,1.8L1563.4,729.3z
		 M1563.5,734.8c-0.5,1.1-1.1,2.3-1.5,3.5c-0.7-0.6-1.4-1.2-2-1.8c0.7-0.8,1.2-1.6,2-2.9c0.6-1,1.2-2,1.7-3.1c0.3,0.6,0.9,1,1.5,1.3
		C1564.7,732.5,1564.2,733.4,1563.5,734.8z M1564.5,724.6c-0.6-0.7-2.3-1.9-3.3-2.5l1.4-1.4c1,0.6,2.5,1.6,3.4,2.2L1564.5,724.6z
		 M1572.6,735.3c2.4,0,4-0.1,5.4-0.2v1.9c-1.5-0.1-3.5-0.2-6.4-0.2s-4.9,0.1-6.4,0.2v-1.9c1.4,0.1,3.2,0.2,5.6,0.2v-12.1
		c-1.7,0-3,0.1-4.1,0.2v-1.9c1.3,0.1,2.9,0.2,5.3,0.2s4-0.1,5.3-0.2v1.9c-1.2-0.1-2.6-0.2-4.6-0.2v12.1H1572.6z"/>
	<path style="fill:#FFFFFF;" d="M1584.1,738.2h-1.8c0.1-1.1,0.2-2.1,0.2-3.2v-5.7c-0.5,0.8-1,1.3-1.5,1.8c-0.3-0.5-0.7-0.8-1.2-1.2
		c0.9-0.7,2.1-2.1,2.8-3.2c0.5-0.8,0.8-1.6,1.1-2.5c0.5,0.4,1.3,0.9,1.6,1c0.3,0.1,0.3,0.2-0.1,0.4c-0.1,0.1-0.4,0.3-1.1,1.4V738.2z
		 M1583.9,722.7c-0.8,1-1.6,2-2.5,2.9c-0.4-0.4-0.7-0.8-1.3-1.1c0.9-0.6,1.4-1.1,2.3-2.4c0.3-0.4,0.9-1.3,1.2-2.1
		c0.6,0.4,1.4,1,1.7,1.1c0.3,0.1,0.3,0.2,0,0.4C1585,721.4,1584.7,721.8,1583.9,722.7z M1593.2,733.1c-0.1,0.5-0.1,1.1-0.1,1.6
		c-2.2,0.2-6.4,1.1-8.1,1.5c0-0.6-0.1-1.3-0.4-2c0.8,0,2.2-0.1,3.6-0.3v-2.6c-1.3,0-1.8,0.1-2.7,0.2V730c0.8,0.1,1.4,0.1,2.7,0.1
		c0-0.8,0-1.5-0.1-2.1c0.5,0.1,1.3,0.1,1.8,0.1c0.3,0,0.3,0.2,0.1,0.3c-0.2,0.1-0.2,0.2-0.2,0.4v1.2c1.2,0,1.8,0,2.6-0.1v1.5
		c-0.9-0.1-1.5-0.1-2.6-0.2v2.4C1591.2,733.5,1592.7,733.2,1593.2,733.1z M1589.9,726.2c1.1,0,1.5,0,2.3-0.2v1.6
		c-1-0.1-1.3-0.2-3.1-0.2c-2,0-2.4,0-3.5,0.2V726c0.9,0.1,1.3,0.1,2.7,0.2v-2.4c-1.2,0-1.7,0.1-2.5,0.2v-1.6
		c0.8,0.1,1.3,0.1,2.5,0.2c0-0.9,0-2-0.1-2.6c0.5,0.1,1.3,0.1,1.8,0.1c0.2,0,0.3,0.2,0.1,0.3c-0.2,0.1-0.2,0.2-0.2,0.4v1.7
		c1.3,0,1.8-0.1,2.6-0.2v1.6c-0.9-0.1-1.3-0.2-2.6-0.2L1589.9,726.2L1589.9,726.2z M1596.5,736.1c0,1.7-0.1,1.9-3.1,2.2
		c0-0.5-0.2-1-0.7-2c2,0.1,2.1-0.1,2.1-1v-8.1c-0.9,0-1.3,0.1-1.9,0.2v-1.7c0.8,0.1,1.3,0.2,2.8,0.2s1.9,0,2.7-0.2v1.7
		c-0.7-0.1-1-0.2-2-0.2L1596.5,736.1L1596.5,736.1z M1595.3,722.8c-1,0-1.6,0-2.3,0.2v-1.7c0.8,0.1,1.1,0.1,2.3,0.1
		c1.3,0,1.6,0,2.4-0.1v1.7C1597,722.8,1596.5,722.8,1595.3,722.8z"/>
	<path style="fill:#FFFFFF;" d="M1606,735.5c2.2,1,7.8,1.2,12.7,0.4c-0.4,0.9-0.5,1.5-0.5,2.2c-7.9,0.2-9.7,0.1-13.7-1.6
		c-1-0.4-1.7-0.1-2.7,1.6c-0.4-0.4-1-0.8-1.6-1.2c1-1,1.8-1.6,2.4-1.9v-6.2c-1.1,0-1.8,0-2.3,0.1v-1.7c1.3,0.2,3,0.2,4.2,0
		c-0.1,0.7-0.2,1.3-0.2,2.4v5.3C1604.8,734.9,1605.2,735.1,1606,735.5z M1602.8,725.4c-0.2-1.4-0.7-2.8-1.1-3.8l1.7-0.5
		c0.3,1.3,0.7,2.6,1.2,3.9L1602.8,725.4z M1616.7,725.5c-0.1,0.7-0.1,1.4-0.1,2.1v4.8c0,0.9,0,1.9,0.1,2.9h-1.7v-0.8h-6v0.9h-1.7
		c0.1-1,0.2-1.7,0.2-2.9v-5c0-0.7,0-1.5-0.1-2.1c0.7,0.1,1.9,0.1,3.4,0.2c0.1-0.4,0.3-1,0.4-1.5c-2.3,0-4,0.1-5.3,0.2v-1.7
		c1.7,0.1,3.8,0.2,7,0.2c0.4-0.9,0.7-1.6,1-2.8c0.6,0.3,1.3,0.5,2,0.6c0.2,0,0.2,0.1,0,0.2c-0.4,0.2-0.8,0.5-1.6,1.9
		c1.8,0,3.1-0.1,4.3-0.2v1.7c-1.4-0.1-3.1-0.2-5.6-0.2c-0.2,0.5-0.4,1.1-0.5,1.6C1614.2,725.7,1615.9,725.6,1616.7,725.5z
		 M1609.8,722.8c-0.4-0.5-0.9-1.1-1.4-1.7l1.4-0.8c0.5,0.5,1.1,1.2,1.4,1.7L1609.8,722.8z M1615,726.9h-6v1.3h6V726.9z M1609,730.8
		h6v-1.4h-6V730.8z M1615,732h-6v1.4h6V732z"/>
</g>
<g style="opacity:0.8;">
	<path style="fill:#FFFFFF;" d="M1818.3,816c0,1,0.2,1.3,1.9,1.3c0.8,0,1.8-0.1,2.8-0.1c2.1-0.2,2.2-0.3,2.9-2.9
		c0.5,0.5,1.2,0.9,1.9,1.1c-1.1,3.1-1.2,3.3-4.8,3.5c-1,0.1-2.1,0.1-2.8,0.1c-3.5,0-3.7-0.2-3.7-2.9v-5.7c-2.5,0.6-4.6,1.1-6,1.5
		l-0.4-1.9c1.6-0.2,4-0.7,6.5-1.3v-3.3c0-1.7,0-2.7-0.1-3.4c0.7,0.1,1.8,0.2,2.2,0.2c0.2,0,0.3,0.1,0.1,0.4c-0.2,0.3-0.4,1-0.4,1.8
		v3.9l4.2-1c1.8-0.4,2.9-0.7,5.1-1.4l0.5,1.9c-2.3,0.4-3.4,0.6-5.2,1l-4.6,1.1L1818.3,816L1818.3,816z"/>
	<path style="fill:#FFFFFF;" d="M1837.9,803.8v1.6c-0.5-0.1-1.2-0.1-2-0.1v2.6h0.4c1.6-1.7,2.9-3.7,3.5-5.4c0.5,0.4,1.1,0.8,1.6,1
		c0.3,0.1,0.2,0.2-0.1,0.4c-0.2,0.1-0.7,0.5-1.1,1.1c-0.7,1.1-1.5,2-2.2,2.9c1,0,2.3-0.1,3.2-0.2v1.6c-1.1-0.1-2.3-0.2-4.3-0.2
		c-0.6,0.6-1.2,1.2-1.8,1.8h2.7c1.1,0,1.7,0,2.2-0.1c-0.1,0.3-0.2,1-0.2,1.8v3.8c0,0.9,0,1.5,0.1,2.5h-1.6v-1h-4v1.3h-1.7
		c0.1-1,0.2-1.7,0.2-2.5v-3.9c-0.5,0.4-1.1,0.9-1.7,1.3c-0.3-0.5-0.6-0.8-1.1-1.2c0.9-0.4,1.8-1,2.8-1.8c0-0.2,0-0.3-0.1-0.4
		c0.1,0,0.3,0.1,0.5,0.1c0.6-0.5,1.3-1.1,1.9-1.7c-1.8,0-3.3,0.1-4.5,0.2v-1.6c1,0.1,2.7,0.2,3.8,0.2v-2.6c-1.2,0-2.1,0.1-2.7,0.2
		v-1.6c0.7,0.1,1.5,0.1,2.7,0.2c0-1.4,0-1.9-0.2-2.5c0.5,0.1,1.4,0.1,2,0.1c0.3,0,0.3,0.1,0.1,0.3c-0.3,0.2-0.5,0.6-0.5,0.9v1.1
		C1836.8,803.9,1837.4,803.9,1837.9,803.8z M1838.4,812.2h-4v1.6h4V812.2z M1834.4,816.7h4V815h-4V816.7z M1844.8,817.5
		c0-0.6-0.2-1.2-0.7-1.8c1.7,0.1,2.4-0.2,2.5-1.4s-0.5-2.6-2.1-4.3l1.4-5.6h-2.4v15.8h-1.8c0.1-1.2,0.2-2.1,0.2-3.2v-12.1
		c0-0.7,0-1.3-0.1-2c0.9,0.1,1.8,0.2,3.2,0.2c1.4,0,2.3,0,3.1-0.2l-1.9,6.8c1.9,2,2.2,3.3,2.2,4.9
		C1848.2,816.4,1846.9,817.4,1844.8,817.5z"/>
	<path style="fill:#FFFFFF;" d="M1854.6,820h-1.8c0.1-1.1,0.2-2.1,0.2-3.2V811c-0.5,0.8-1,1.3-1.5,1.8c-0.3-0.5-0.7-0.8-1.2-1.2
		c0.9-0.7,2.1-2.1,2.8-3.2c0.5-0.8,0.8-1.6,1.1-2.5c0.5,0.4,1.3,0.9,1.6,1c0.3,0.1,0.3,0.2-0.1,0.4c-0.1,0.1-0.4,0.3-1.1,1.4V820z
		 M1854.4,804.4c-0.8,1-1.6,2-2.5,2.9c-0.4-0.4-0.7-0.8-1.3-1.1c0.9-0.6,1.4-1.1,2.3-2.4c0.3-0.4,0.9-1.3,1.2-2.1
		c0.6,0.4,1.4,1,1.7,1.1c0.3,0.1,0.3,0.2,0,0.4C1855.5,803.2,1855.1,803.5,1854.4,804.4z M1863.7,814.8c-0.1,0.5-0.1,1.1-0.1,1.6
		c-2.2,0.2-6.4,1.1-8.1,1.5c0-0.6-0.1-1.3-0.4-2c0.8,0,2.2-0.1,3.6-0.3V813c-1.3,0-1.8,0.1-2.7,0.2v-1.5c0.8,0.1,1.4,0.1,2.7,0.1
		c0-0.8,0-1.5-0.1-2.1c0.5,0.1,1.3,0.1,1.8,0.1c0.3,0,0.3,0.2,0.1,0.3c-0.2,0.1-0.2,0.2-0.2,0.4v1.2c1.2,0,1.8,0,2.6-0.1v1.5
		c-0.9-0.1-1.5-0.1-2.6-0.2v2.4C1861.7,815.2,1863.2,815,1863.7,814.8z M1860.4,808c1.1,0,1.5,0,2.3-0.2v1.6c-1-0.1-1.3-0.2-3.1-0.2
		c-2,0-2.4,0-3.5,0.2v-1.6c0.9,0.1,1.3,0.1,2.7,0.2v-2.4c-1.2,0-1.7,0.1-2.5,0.2v-1.6c0.8,0.1,1.3,0.1,2.5,0.2c0-0.9,0-2-0.1-2.6
		c0.5,0.1,1.3,0.1,1.8,0.1c0.2,0,0.3,0.2,0.1,0.3c-0.2,0.1-0.2,0.2-0.2,0.4v1.7c1.3,0,1.8-0.1,2.6-0.2v1.6c-0.9-0.1-1.3-0.2-2.6-0.2
		L1860.4,808L1860.4,808z M1867,817.8c0,1.7-0.1,1.9-3.1,2.2c0-0.5-0.2-1-0.7-2c2,0.1,2.1-0.1,2.1-1v-8.1c-0.9,0-1.3,0.1-1.9,0.2
		v-1.7c0.8,0.1,1.3,0.2,2.8,0.2s1.9,0,2.7-0.2v1.7c-0.7-0.1-1-0.2-2-0.2L1867,817.8L1867,817.8z M1865.8,804.5c-1,0-1.6,0-2.3,0.2
		V803c0.8,0.1,1.1,0.1,2.3,0.1c1.3,0,1.6,0,2.4-0.1v1.7C1867.5,804.6,1867,804.5,1865.8,804.5z"/>
	<path style="fill:#FFFFFF;" d="M1876.5,817.2c2.2,1,7.8,1.2,12.7,0.4c-0.4,0.9-0.5,1.5-0.5,2.2c-7.9,0.2-9.7,0.1-13.7-1.6
		c-1-0.4-1.7-0.1-2.7,1.6c-0.4-0.4-1-0.8-1.6-1.2c1-1,1.8-1.6,2.4-1.9v-6.2c-1.1,0-1.8,0-2.3,0.1v-1.7c1.3,0.2,3,0.2,4.2,0
		c-0.1,0.7-0.2,1.3-0.2,2.4v5.3C1875.3,816.7,1875.7,816.9,1876.5,817.2z M1873.3,807.1c-0.2-1.4-0.7-2.8-1.1-3.8l1.7-0.5
		c0.3,1.3,0.7,2.6,1.2,3.9L1873.3,807.1z M1887.2,807.3c-0.1,0.7-0.1,1.4-0.1,2.1v4.8c0,0.9,0,1.9,0.1,2.9h-1.7v-0.8h-6v0.9h-1.7
		c0.1-1,0.2-1.7,0.2-2.9v-5c0-0.7,0-1.5-0.1-2.1c0.7,0.1,1.9,0.1,3.4,0.2c0.1-0.4,0.3-1,0.4-1.5c-2.3,0-4,0.1-5.3,0.2v-1.7
		c1.7,0.1,3.8,0.2,7,0.2c0.4-0.9,0.7-1.6,1-2.8c0.6,0.3,1.3,0.5,2,0.6c0.2,0,0.2,0.1,0,0.2c-0.4,0.2-0.8,0.5-1.6,1.9
		c1.8,0,3.1-0.1,4.3-0.2v1.7c-1.4-0.1-3.1-0.2-5.6-0.2c-0.2,0.5-0.4,1.1-0.5,1.6C1884.7,807.5,1886.4,807.4,1887.2,807.3z
		 M1880.3,804.5c-0.4-0.5-0.9-1.1-1.4-1.7l1.4-0.8c0.5,0.5,1.1,1.2,1.4,1.7L1880.3,804.5z M1885.5,808.6h-6v1.3h6V808.6z
		 M1879.5,812.5h6v-1.4h-6V812.5z M1885.5,813.7h-6v1.4h6V813.7z"/>
</g>
<g style="opacity:0.8;">
	<path style="fill:#FFFFFF;" d="M1468.4,833.6v1.9c-2-0.1-4.5-0.2-8.1-0.2c-0.1,0.6-0.1,1.2-0.2,2c5.1,0,6.4-0.1,7.3-0.2
		c-0.1,0.9-0.2,1.6-0.2,3v7.7c0,1.7-0.2,2-3.5,2.4c0-0.6-0.3-1.6-0.6-2.1c1.8,0.3,2.4,0,2.4-0.7v-8.5h-11.6v11.2h-1.9
		c0.2-1.3,0.2-2.1,0.2-2.8v-7c0-1.2-0.1-2.3-0.2-3c0.9,0.1,2.2,0.2,6.4,0.2c0.1-0.7,0.1-1.4,0.1-2c-3.4,0-5.8,0.1-7.7,0.2v-1.9
		c1.9,0.1,4.3,0.2,7.7,0.2c0-0.8,0-1.4-0.1-2.1c0.8,0.1,1.8,0.3,2.3,0.2c0.4,0,0.4,0.1,0.1,0.4c-0.1,0.1-0.2,0.3-0.4,1.5
		C1463.9,833.8,1466.4,833.7,1468.4,833.6z M1464.2,844.4v1.6c-1-0.1-2.2-0.1-4-0.1c0,1,0,2.2,0.1,3.5h-1.9c0.1-1.3,0.1-2.4,0.1-3.5
		c-1.6,0-2.7,0.1-3.7,0.1v-1.6c1,0.1,2.1,0.1,3.7,0.2V843c-1.4,0-2.5,0.1-3.3,0.2v-1.5c1.1,0.1,2.8,0.2,5,0.2
		c0.5-1.2,0.7-2.1,0.8-3.1c0.8,0.4,1.5,0.7,1.8,0.7s0.4,0.1,0,0.3c-0.2,0.1-0.4,0.4-1.2,2c0.9,0,1.6-0.1,2.3-0.1v1.5
		c-0.9-0.1-2.1-0.1-3.8-0.2v1.6C1462,844.6,1463.1,844.5,1464.2,844.4z M1457.2,841.4c-0.2-0.7-0.6-1.4-0.9-1.9l1.6-0.5
		c0.2,0.5,0.5,1.2,0.9,1.9L1457.2,841.4z"/>
	<path style="fill:#FFFFFF;" d="M1474.7,840.8c-0.9-0.7-2.5-1.7-3.4-2l0.8-1.6c1.1,0.5,2.6,1.3,3.6,1.9L1474.7,840.8z M1474.7,846.5
		c-0.4,1.3-0.6,2.1-0.8,3.3c-0.8-0.5-1.4-0.9-2.1-1.2c0.5-0.9,0.9-1.7,1.4-3c0.6-1.3,0.8-2.2,1.1-3.3c0.5,0.5,1,0.8,1.6,1
		C1475.6,844,1475.1,845.2,1474.7,846.5z M1475.4,836.2c-0.8-0.9-2-1.9-3.1-2.3l1.1-1.5c1,0.6,2.4,1.6,3.3,2.3L1475.4,836.2z
		 M1482.9,849c-3.7,0-4.8,0.1-5.6,0.2c0.1-0.7,0.1-2.2,0.1-3.4v-9.2c0-1.2-0.1-2.7-0.1-3.4c0.8,0.1,1.9,0.2,5.3,0.2
		c3.2,0,4.5-0.1,5.3-0.2v1.9c-0.8-0.1-2.2-0.2-4.3-0.2h-4.4v12.6h4.7c2.6,0,3.8-0.1,4.6-0.2v1.9C1487.8,849,1486.5,849,1482.9,849z"
		/>
	<path style="fill:#FFFFFF;" d="M1495.1,850h-1.8c0.1-1.1,0.2-2.1,0.2-3.2v-5.7c-0.5,0.8-1,1.3-1.5,1.8c-0.3-0.5-0.7-0.8-1.2-1.2
		c0.9-0.7,2.1-2.1,2.8-3.2c0.5-0.8,0.8-1.6,1.1-2.5c0.5,0.4,1.3,0.9,1.6,1c0.3,0.1,0.3,0.2-0.1,0.4c-0.1,0.1-0.4,0.3-1.1,1.4V850z
		 M1495,834.5c-0.8,1-1.6,2-2.5,2.9c-0.4-0.4-0.7-0.8-1.3-1.1c0.9-0.6,1.4-1.1,2.3-2.4c0.3-0.4,0.9-1.3,1.2-2.1
		c0.6,0.4,1.4,1,1.7,1.1c0.3,0.1,0.3,0.2,0,0.4C1496,833.3,1495.7,833.6,1495,834.5z M1504.3,844.9c-0.1,0.5-0.1,1.1-0.1,1.6
		c-2.2,0.2-6.4,1.1-8.1,1.5c0-0.6-0.1-1.3-0.4-2c0.8,0,2.2-0.1,3.6-0.3v-2.6c-1.3,0-1.8,0.1-2.7,0.2v-1.5c0.8,0.1,1.4,0.1,2.7,0.1
		c0-0.8,0-1.5-0.1-2.1c0.5,0.1,1.3,0.1,1.8,0.1c0.3,0,0.3,0.2,0.1,0.3c-0.2,0.1-0.2,0.2-0.2,0.4v1.2c1.2,0,1.8,0,2.6-0.1v1.5
		c-0.9-0.1-1.5-0.1-2.6-0.2v2.4C1502.2,845.3,1503.7,845,1504.3,844.9z M1500.9,838c1.1,0,1.5,0,2.3-0.2v1.6c-1-0.1-1.3-0.2-3.1-0.2
		c-2,0-2.4,0-3.5,0.2v-1.6c0.9,0.1,1.3,0.1,2.7,0.2v-2.4c-1.2,0-1.7,0.1-2.5,0.2v-1.6c0.8,0.1,1.3,0.1,2.5,0.2c0-0.9,0-2-0.1-2.6
		c0.5,0.1,1.3,0.1,1.8,0.1c0.2,0,0.3,0.2,0.1,0.3c-0.2,0.1-0.2,0.2-0.2,0.4v1.7c1.3,0,1.8-0.1,2.6-0.2v1.6c-0.9-0.1-1.3-0.2-2.6-0.2
		L1500.9,838L1500.9,838z M1507.5,847.9c0,1.7-0.1,1.9-3.1,2.2c0-0.5-0.2-1-0.7-2c2,0.1,2.1-0.1,2.1-1V839c-0.9,0-1.3,0.1-1.9,0.2
		v-1.7c0.8,0.1,1.3,0.2,2.8,0.2s1.9,0,2.7-0.2v1.7c-0.7-0.1-1-0.2-2-0.2L1507.5,847.9L1507.5,847.9z M1506.4,834.6
		c-1,0-1.6,0-2.3,0.2v-1.7c0.8,0.1,1.1,0.1,2.3,0.1c1.3,0,1.6,0,2.4-0.1v1.7C1508,834.6,1507.5,834.6,1506.4,834.6z"/>
	<path style="fill:#FFFFFF;" d="M1517.1,847.3c2.2,1,7.8,1.2,12.7,0.4c-0.4,0.9-0.5,1.5-0.5,2.2c-7.9,0.2-9.7,0.1-13.7-1.6
		c-1-0.4-1.7-0.1-2.7,1.6c-0.4-0.4-1-0.8-1.6-1.2c1-1,1.8-1.6,2.4-1.9v-6.2c-1.1,0-1.8,0-2.3,0.1V839c1.3,0.2,3,0.2,4.2,0
		c-0.1,0.7-0.2,1.3-0.2,2.4v5.3C1515.9,846.7,1516.3,846.9,1517.1,847.3z M1513.8,837.2c-0.2-1.4-0.7-2.8-1.1-3.8l1.7-0.5
		c0.3,1.3,0.7,2.6,1.2,3.9L1513.8,837.2z M1527.7,837.3c-0.1,0.7-0.1,1.4-0.1,2.1v4.8c0,0.9,0,1.9,0.1,2.9h-1.7v-0.8h-6v0.9h-1.7
		c0.1-1,0.2-1.7,0.2-2.9v-5c0-0.7,0-1.5-0.1-2.1c0.7,0.1,1.9,0.1,3.4,0.2c0.1-0.4,0.3-1,0.4-1.5c-2.3,0-4,0.1-5.3,0.2v-1.7
		c1.7,0.1,3.8,0.2,7,0.2c0.4-0.9,0.7-1.6,1-2.8c0.6,0.3,1.3,0.5,2,0.6c0.2,0,0.2,0.1,0,0.2c-0.4,0.2-0.8,0.5-1.6,1.9
		c1.8,0,3.1-0.1,4.3-0.2v1.7c-1.4-0.1-3.1-0.2-5.6-0.2c-0.2,0.5-0.4,1.1-0.5,1.6C1525.2,837.5,1526.9,837.4,1527.7,837.3z
		 M1520.8,834.6c-0.4-0.5-0.9-1.1-1.4-1.7l1.4-0.8c0.5,0.5,1.1,1.2,1.4,1.7L1520.8,834.6z M1526.1,838.7h-6v1.3h6V838.7z
		 M1520,842.6h6v-1.4h-6V842.6z M1526.1,843.8h-6v1.4h6V843.8z"/>
</g>
<g style="opacity:0.8;">
	<path style="fill:#FFFFFF;" d="M1311.3,769.8c-0.8,1.5-2.6,3-5.1,4.2c-0.4-0.6-0.8-0.9-1.4-1.3c2.2-0.6,3.4-1.4,4.8-2.9
		c0.9-1,1.6-2.7,1.8-5.1c-2.5,0-4.4,0.1-5.9,0.2v-1.6c1.5,0.1,3.4,0.2,5.9,0.2c0.1-2.1,0.1-3.3,0-4.3c0.6,0.1,1.4,0.1,1.9,0.1
		c0.3,0,0.3,0.1,0.1,0.3c-0.2,0.2-0.3,0.5-0.3,1c-0.1,1.1-0.1,2.2-0.2,3c2.7,0,4.8,0,6.3-0.2v1.6c-1.5-0.1-3.6-0.2-6.4-0.2
		c0.5,2,1.5,3.9,3,5.3c1,1,2.6,1.8,4,2c-0.7,0.5-1.1,1-1.4,1.8c-1.5-0.7-3.2-2.1-4-3.3c-0.8-1.1-1.3-2.3-1.8-3.9
		C1312.2,768,1311.8,768.8,1311.3,769.8z"/>
	<path style="fill:#FFFFFF;" d="M1336.7,760.6v1.5c-1.7-0.1-3.8-0.2-6.8-0.2c-0.1,0.5-0.1,1-0.2,1.7c4.3,0,5.4-0.1,6.1-0.2
		c-0.1,0.8-0.1,1.4-0.1,2.5v6.4c0,1.4-0.2,1.7-2.9,2c0-0.5-0.2-1.3-0.5-1.8c1.5,0.2,2,0,2-0.6v-7.2h-9.7v9.3h-1.6
		c0.1-1.1,0.2-1.8,0.2-2.3V766c0-1-0.1-1.9-0.1-2.5c0.8,0.1,1.9,0.2,5.4,0.2c0.1-0.6,0.1-1.2,0.1-1.7c-2.8,0-4.8,0.1-6.4,0.2v-1.5
		c1.6,0.1,3.6,0.2,6.4,0.2c0-0.6,0-1.2-0.1-1.7c0.7,0.1,1.5,0.2,2,0.2c0.3,0,0.3,0.1,0.1,0.3c-0.1,0.1-0.2,0.3-0.3,1.2
		C1333,760.8,1335.1,760.7,1336.7,760.6z M1333.2,769.7v1.3c-0.9-0.1-1.8-0.1-3.4-0.1c0,0.9,0,1.8,0.1,2.9h-1.6
		c0.1-1.1,0.1-2,0.1-2.9c-1.4,0-2.3,0.1-3.1,0.1v-1.3c0.8,0.1,1.7,0.1,3.1,0.1v-1.3c-1.2,0-2.1,0.1-2.8,0.1v-1.3
		c1,0.1,2.4,0.1,4.2,0.1c0.4-1,0.6-1.8,0.6-2.6c0.6,0.4,1.2,0.6,1.5,0.6c0.2,0,0.3,0.1,0,0.3c-0.2,0.1-0.4,0.3-1,1.7
		c0.8,0,1.4,0,1.9-0.1v1.3c-0.8-0.1-1.8-0.1-3.2-0.1v1.3C1331.3,769.8,1332.3,769.8,1333.2,769.7z M1327.3,767.2
		c-0.2-0.6-0.5-1.1-0.8-1.6l1.4-0.4c0.2,0.4,0.5,1,0.7,1.5L1327.3,767.2z"/>
	<path style="fill:#FFFFFF;" d="M1342,774.4h-1.5c0.1-0.9,0.2-1.7,0.2-2.7v-4.8c-0.5,0.6-0.9,1.1-1.3,1.5c-0.3-0.4-0.5-0.7-1-1
		c0.7-0.6,1.8-1.7,2.4-2.7c0.4-0.7,0.6-1.3,0.9-2.1c0.4,0.3,1.1,0.8,1.3,0.8c0.3,0.1,0.3,0.2-0.1,0.3c-0.1,0-0.3,0.3-0.9,1.2V774.4z
		 M1341.9,761.4c-0.7,0.9-1.3,1.6-2.1,2.4c-0.3-0.4-0.6-0.7-1.1-1c0.7-0.5,1.2-1,1.9-2c0.3-0.3,0.7-1.1,1-1.8
		c0.5,0.4,1.2,0.8,1.4,0.9c0.3,0.1,0.3,0.2,0,0.3C1342.8,760.4,1342.5,760.6,1341.9,761.4z M1349.7,770.1c-0.1,0.4-0.1,0.9-0.1,1.3
		c-1.9,0.2-5.4,0.9-6.8,1.3c0-0.5-0.1-1.1-0.3-1.6c0.6,0,1.9-0.1,3-0.3v-2.2c-1.1,0-1.5,0.1-2.2,0.1v-1.3c0.7,0.1,1.2,0.1,2.2,0.1
		c0-0.7,0-1.3-0.1-1.7c0.5,0.1,1.1,0.1,1.5,0.1c0.2,0,0.3,0.1,0.1,0.3c-0.2,0.1-0.2,0.2-0.2,0.4v1c1,0,1.5,0,2.2-0.1v1.3
		c-0.8-0.1-1.3-0.1-2.2-0.1v2C1348,770.4,1349.3,770.2,1349.7,770.1z M1346.9,764.3c0.9,0,1.3,0,2-0.1v1.3c-0.9-0.1-1.1-0.2-2.6-0.2
		c-1.7,0-2,0-2.9,0.2v-1.3c0.7,0.1,1.1,0.1,2.2,0.1v-2c-1,0-1.4,0-2.1,0.2v-1.3c0.7,0.1,1.1,0.1,2.1,0.1c0-0.7,0-1.7-0.1-2.2
		c0.5,0.1,1.1,0.1,1.5,0.1c0.2,0,0.2,0.2,0.1,0.3c-0.2,0.1-0.2,0.2-0.2,0.4v1.4c1.1,0,1.5-0.1,2.2-0.1v1.3c-0.8-0.1-1.1-0.2-2.2-0.2
		V764.3z M1352.4,772.6c0,1.4-0.1,1.6-2.6,1.8c0-0.4-0.1-0.8-0.6-1.6c1.7,0.1,1.8-0.1,1.8-0.8v-6.8c-0.7,0-1.1,0-1.6,0.1v-1.4
		c0.7,0.1,1.1,0.1,2.3,0.1c1.3,0,1.6,0,2.3-0.1v1.4c-0.6-0.1-0.9-0.1-1.6-0.2L1352.4,772.6L1352.4,772.6z M1351.5,761.5
		c-0.8,0-1.3,0-2,0.1v-1.4c0.6,0.1,0.9,0.1,2,0.1s1.4,0,2-0.1v1.4C1352.8,761.5,1352.4,761.5,1351.5,761.5z"/>
	<path style="fill:#FFFFFF;" d="M1360.4,772.1c1.9,0.8,6.5,1,10.6,0.3c-0.3,0.8-0.4,1.3-0.4,1.8c-6.6,0.2-8.1,0.1-11.5-1.3
		c-0.9-0.4-1.4-0.1-2.2,1.3c-0.4-0.4-0.8-0.7-1.3-1c0.9-0.8,1.5-1.3,2-1.5v-5.2c-1,0-1.5,0-1.9,0.1v-1.4c1.1,0.2,2.5,0.2,3.5,0
		c-0.1,0.6-0.2,1.1-0.2,2v4.5C1359.4,771.7,1359.7,771.8,1360.4,772.1z M1357.7,763.6c-0.2-1.2-0.6-2.4-1-3.2l1.4-0.4
		c0.3,1.1,0.6,2.1,1,3.2L1357.7,763.6z M1369.3,763.8c-0.1,0.6-0.1,1.2-0.1,1.8v4.1c0,0.8,0,1.6,0.1,2.4h-1.4v-0.7h-5.1v0.8h-1.4
		c0.1-0.8,0.1-1.4,0.1-2.4v-4.2c0-0.6,0-1.2-0.1-1.8c0.6,0.1,1.6,0.1,2.8,0.1c0.1-0.3,0.2-0.8,0.3-1.3c-2,0-3.3,0.1-4.5,0.2v-1.4
		c1.4,0.1,3.2,0.2,5.9,0.2c0.3-0.7,0.6-1.4,0.9-2.4c0.5,0.3,1.1,0.4,1.6,0.5c0.2,0,0.2,0.1,0,0.2c-0.3,0.2-0.6,0.5-1.3,1.6
		c1.5,0,2.6-0.1,3.6-0.1v1.4c-1.2-0.1-2.6-0.2-4.7-0.2c-0.2,0.4-0.3,0.9-0.4,1.3C1367.2,763.9,1368.7,763.9,1369.3,763.8z
		 M1363.6,761.5c-0.3-0.4-0.7-0.9-1.2-1.4l1.2-0.7c0.4,0.4,0.9,1,1.2,1.4L1363.6,761.5z M1367.9,764.9h-5.1v1.1h5.1V764.9z
		 M1362.9,768.2h5.1V767h-5.1V768.2z M1367.9,769.2h-5.1v1.2h5.1V769.2z"/>
</g>
<g style="opacity:0.8;">
	<path style="fill:#FFFFFF;" d="M1427,745.1c0-0.7-0.1-1.2-0.1-1.7c0.4,0.1,1,0.1,1.4,0.1c0.2,0,0.2,0.2,0.1,0.3
		c-0.2,0.1-0.2,0.2-0.2,0.4v0.9c1.8,0,3.4,0,4.5-0.1v1.4c-1.1-0.1-2.7-0.2-4.5-0.2v0.8h-1.1v-0.8h-3.4v1.3h-1.2v-1.3
		c-1.8,0-3.4,0-4.5,0.2V745c1.1,0.1,2.7,0.1,4.5,0.1c0-0.6-0.1-1.1-0.1-1.5c0.4,0.1,1,0.1,1.4,0.1c0.2,0,0.2,0.2,0.1,0.3
		c-0.2,0.1-0.2,0.2-0.2,0.4v0.8L1427,745.1L1427,745.1z M1420.4,756.1c-0.4,0.9-0.7,1.7-1.1,2.6c-0.6-0.4-1-0.7-1.4-1
		c0.5-0.7,1.1-1.7,1.4-2.3c0.4-0.8,0.6-1.3,0.7-2c0.3,0.4,0.6,0.7,1.2,0.9C1421,754.7,1420.8,755,1420.4,756.1z M1420.2,752.8
		c-0.6-0.5-1.5-1-2.2-1.3l0.7-1.1c0.7,0.3,1.5,0.8,2.2,1.2L1420.2,752.8z M1420.4,749.8c-0.5-0.6-1-1.1-1.8-1.5l0.9-0.9
		c0.6,0.4,1.3,0.9,1.8,1.4L1420.4,749.8z M1421.8,749.4v-1.2c0.9,0.1,2.3,0.1,4.4,0.1c0-0.5-0.1-0.8-0.1-1.1c0.4,0,1.1,0.1,1.4,0
		c0.3,0,0.4,0.1,0.1,0.3c-0.1,0.1-0.3,0.5-0.3,0.8c2.3,0,3.9,0,5.2-0.1v1.2c-1.4-0.1-2.8-0.1-5.2-0.1v1.2c2.1,0,3.1-0.1,3.9-0.2
		c-0.1,0.4-0.1,1.3-0.1,2.3v4.3c0,1.5-0.2,1.6-2.3,1.9c0-0.4-0.1-0.8-0.5-1.4c1.2,0.2,1.8-0.1,1.8-0.7v-0.8h-2.8
		c0,1,0.1,1.6,0.1,2.4h-1.4c0.1-0.7,0.1-1.4,0.1-2.4h-2.5v2.7h-1.2c0.1-0.9,0.1-1.7,0.1-2.7v-3.3c0-1,0-1.9-0.1-2.3
		c0.9,0.1,1.8,0.2,3.8,0.2v-1.2C1424.1,749.3,1422.8,749.3,1421.8,749.4z M1423.7,751.5v1.3h2.5v-1.3H1423.7z M1423.7,755h2.5v-1.4
		h-2.5V755z M1430.1,751.5h-2.8v1.3h2.8V751.5z M1430.1,753.7h-2.8v1.4h2.8V753.7z M1430,748.2c-0.3-0.4-0.5-0.7-0.9-1l1.2-0.6
		c0.3,0.4,0.5,0.7,0.8,1L1430,748.2z"/>
	<path style="fill:#FFFFFF;" d="M1435.2,753.5c0.1-0.7,0.1-1.3,0.1-1.9c0-0.6,0-1.2-0.1-1.9c0.8,0.1,1.5,0.1,2.7,0.1v-1.2
		c-0.6,0-1.1,0.1-1.5,0.1v-2.4c-0.6,0-1.1,0.1-1.5,0.1v-1.1c0.5,0.1,1,0.1,1.5,0.1c0-0.8-0.1-1.3-0.2-1.6c0.5,0.1,1.1,0.1,1.4,0
		c0.2,0,0.3,0.1,0,0.3c-0.2,0.1-0.2,0.2-0.2,0.4v0.9h2.2c0-0.8-0.1-1.3-0.1-1.6c0.5,0.1,1,0.1,1.4,0c0.2,0,0.2,0.1,0,0.3
		s-0.2,0.3-0.2,0.5v0.8c0.5,0,1-0.1,1.3-0.1v1.2c-0.3,0-0.8-0.1-1.3-0.1v2.3c-0.5,0-1-0.1-1.7-0.1v1.2c1.1,0,1.9-0.1,2.7-0.1
		c-0.1,0.6-0.1,1.2-0.1,1.9s0,1.3,0.1,1.9c-0.8-0.1-1.5-0.1-2.7-0.1v1.5c1.4,0,2.3,0,3.1-0.1v1.2c-0.8-0.1-1.7-0.1-3.1-0.1
		c0,1,0.1,1.7,0.1,2.6h-1.4c0.1-0.9,0.1-1.7,0.1-2.6c-1.4,0-2.3,0.1-3.1,0.1v-1.2c0.9,0.1,1.8,0.1,3.1,0.1v-1.5
		C1436.8,753.4,1436,753.4,1435.2,753.5z M1437.9,750.8h-1.5v1.7h1.5V750.8z M1437.5,747.8h2.2v-1.4h-2.2V747.8z M1439.1,752.5h1.5
		v-1.7h-1.5V752.5z M1448.6,752.9v1.4c-0.6-0.1-1.4-0.2-2.6-0.2v2.6c1.4,0,2.5-0.1,3.3-0.2v1.4c-1-0.1-2.1-0.2-3.8-0.2
		c-1.7,0-3,0.1-3.9,0.2v-1.4c0.8,0.1,1.8,0.2,3.1,0.2v-2.6c-1.1,0-1.8,0-2.4,0.2V753c0.6,0.1,1.4,0.2,2.4,0.2c0-1.1-0.1-1.8-0.1-2.2
		c0.5,0.1,1.1,0.1,1.7,0.1c0.3,0,0.3,0.1,0.1,0.3c-0.2,0.1-0.3,0.4-0.3,0.7v1.2C1447.2,753,1448.1,753,1448.6,752.9z M1448.9,745.7
		v1.3c-0.6-0.1-1.5-0.1-2.8-0.2v2.4c1.6,0,2.5-0.1,3.4-0.2v1.4c-1-0.1-2-0.2-3.7-0.2s-2.8,0.1-3.8,0.2V749c0.8,0.1,1.6,0.2,2.8,0.2
		v-2.4c-1,0-1.7,0.1-2.3,0.2v-1.3c0.6,0.1,1.3,0.1,2.3,0.2c0-1.2,0-1.9-0.1-2.4c0.5,0.1,1.1,0.1,1.7,0.1c0.3,0,0.3,0.1,0.1,0.3
		c-0.2,0.1-0.3,0.4-0.3,0.7v1.3C1447.4,745.9,1448.3,745.8,1448.9,745.7z"/>
	<path style="fill:#FFFFFF;" d="M1452,747.3v-1.6c1.8,0.1,3.9,0.2,7.3,0.2s5.6-0.1,7.4-0.2v1.6c-1.7-0.1-3.7-0.2-6.7-0.2v2.2
		c1.9,0,3.7-0.1,4.8-0.1v6.2c0,1.4-0.3,1.7-2.8,2.1c-0.1-0.7-0.3-1.3-0.9-1.8c1.9,0.4,2.1,0.2,2.1-0.7v-4.4h-3.4v5.4
		c0,0.8,0.1,1.9,0.2,2.9h-1.8c0.1-1,0.2-2.1,0.2-2.9v-5.4h-3.2v6.7h-1.6c0.1-0.9,0.1-1.5,0.1-2.4v-5.7c1.3,0.1,2.8,0.1,4.7,0.1v-2.2
		C1455.6,747.1,1453.7,747.2,1452,747.3z M1458.7,745.7c-0.2-0.7-0.5-1.4-0.9-2l1.7-0.5c0.4,0.7,0.6,1.3,0.9,2L1458.7,745.7z"/>
</g>
<g style="opacity:0.8;">
	<path style="fill:#FFFFFF;" d="M1151.9,707.9h-5c0.2,6.8-0.4,9-1.9,11.9c-0.7-0.5-1.1-0.7-1.8-0.8c1.8-2.3,2.4-4.3,2.1-12.6
		c1.1,0.1,2.3,0.2,6.6,0.2c4.4,0,5.8,0,6.6-0.2v1.6C1157.7,707.9,1156.4,707.9,1151.9,707.9z M1151.2,706.4c-0.2-0.7-0.5-1.4-0.9-2
		l1.7-0.6c0.2,0.6,0.6,1.3,1,2.1L1151.2,706.4z"/>
	<path style="fill:#FFFFFF;" d="M1161.2,712.4c-0.2-0.4-0.6-0.8-1.1-1.2c0.9-0.7,1.9-2.1,2.4-3.3c0.7-1.4,1.1-3,1.2-3.9
		c0.6,0.3,1.1,0.5,1.7,0.6c0.5,0.1,0.6,0.3,0.1,0.5c-0.2,0.1-0.4,0.4-1.4,2.6v11.5h-1.6c0.1-0.7,0.2-1.8,0.2-2.7v-6.3
		C1162.1,711.1,1161.6,711.8,1161.2,712.4z M1166,715.6c-0.2-0.4-0.8-0.9-1.3-1.2c0.7-0.2,2-0.9,3.3-1.9v-6.3c0-0.8,0-1.7-0.1-2.1
		c0.5,0.1,1.4,0.2,1.8,0.2c0.3,0,0.4,0.2,0.1,0.4c-0.2,0.1-0.3,0.5-0.3,0.7v5.8c1.2-1.2,2.3-2.6,3.5-4.7c0.5,0.4,1.1,0.8,1.6,1.1
		c0.3,0.1,0.3,0.3,0,0.3c-0.2,0-0.9,0.6-1.3,1.1c-1.4,1.7-2.6,2.9-3.9,4v3.7c0,0.9,0.2,1,1.8,1c1.8,0,2.2-0.1,2.5-2.4
		c0.5,0.7,0.9,0.9,1.6,1.1c-0.8,2.6-0.9,2.6-4.2,2.6c-3.1,0-3.3-0.3-3.3-1.6v-3.1C1167.3,714.7,1166.7,715.1,1166,715.6z"/>
	<path style="fill:#FFFFFF;" d="M1180.5,719.5h-1.5c0.1-0.9,0.2-1.7,0.2-2.7V712c-0.5,0.6-0.9,1.1-1.3,1.5c-0.3-0.4-0.5-0.7-1-1
		c0.7-0.6,1.8-1.7,2.4-2.7c0.4-0.7,0.6-1.3,0.9-2.1c0.4,0.3,1.1,0.8,1.3,0.8c0.3,0.1,0.3,0.2-0.1,0.3c-0.1,0-0.3,0.3-0.9,1.2V719.5z
		 M1180.3,706.5c-0.7,0.9-1.3,1.6-2.1,2.4c-0.3-0.4-0.6-0.7-1.1-1c0.7-0.5,1.2-1,1.9-2c0.3-0.3,0.7-1.1,1-1.8
		c0.5,0.4,1.2,0.8,1.4,0.9c0.3,0.1,0.3,0.2,0,0.3C1181.2,705.5,1180.9,705.8,1180.3,706.5z M1188.1,715.2c-0.1,0.4-0.1,0.9-0.1,1.3
		c-1.9,0.2-5.4,0.9-6.8,1.3c0-0.5-0.1-1.1-0.3-1.6c0.6,0,1.9-0.1,3-0.3v-2.2c-1.1,0-1.5,0.1-2.2,0.1v-1.3c0.7,0.1,1.2,0.1,2.2,0.1
		c0-0.7,0-1.3-0.1-1.7c0.5,0.1,1.1,0.1,1.5,0.1c0.2,0,0.3,0.1,0.1,0.3c-0.2,0.1-0.2,0.2-0.2,0.4v1c1,0,1.5,0,2.2-0.1v1.3
		c-0.8-0.1-1.3-0.1-2.2-0.1v2C1186.4,715.6,1187.7,715.3,1188.1,715.2z M1185.3,709.5c0.9,0,1.3,0,2-0.1v1.3
		c-0.9-0.1-1.1-0.2-2.6-0.2c-1.7,0-2,0-2.9,0.2v-1.3c0.7,0.1,1.1,0.1,2.2,0.1v-2c-1,0-1.4,0-2.1,0.2v-1.3c0.7,0.1,1.1,0.1,2.1,0.1
		c0-0.7,0-1.7-0.1-2.2c0.5,0.1,1.1,0.1,1.5,0.1c0.2,0,0.2,0.2,0.1,0.3c-0.2,0.1-0.2,0.2-0.2,0.4v1.4c1.1,0,1.5-0.1,2.2-0.1v1.3
		c-0.8-0.1-1.1-0.2-2.2-0.2V709.5z M1190.8,717.7c0,1.4-0.1,1.6-2.6,1.8c0-0.4-0.1-0.8-0.6-1.6c1.7,0.1,1.8-0.1,1.8-0.8v-6.8
		c-0.7,0-1.1,0-1.6,0.1V709c0.7,0.1,1.1,0.1,2.3,0.1c1.3,0,1.6,0,2.3-0.1v1.4c-0.6-0.1-0.9-0.1-1.6-0.2L1190.8,717.7L1190.8,717.7z
		 M1189.9,706.6c-0.8,0-1.3,0-2,0.1v-1.4c0.6,0.1,0.9,0.1,2,0.1s1.4,0,2-0.1v1.4C1191.3,706.6,1190.9,706.6,1189.9,706.6z"/>
	<path style="fill:#FFFFFF;" d="M1198.8,717.2c1.9,0.8,6.6,1,10.6,0.3c-0.3,0.8-0.4,1.3-0.4,1.8c-6.6,0.2-8.1,0.1-11.5-1.3
		c-0.9-0.4-1.4-0.1-2.2,1.3c-0.4-0.4-0.8-0.7-1.3-1c0.9-0.8,1.5-1.3,2-1.5v-5.2c-1,0-1.5,0-1.9,0.1v-1.4c1.1,0.2,2.5,0.2,3.5,0
		c-0.1,0.6-0.2,1.1-0.2,2v4.5C1197.8,716.8,1198.2,716.9,1198.8,717.2z M1196.1,708.8c-0.2-1.2-0.6-2.4-1-3.2l1.4-0.4
		c0.3,1.1,0.6,2.1,1,3.2L1196.1,708.8z M1207.8,708.9c-0.1,0.6-0.1,1.2-0.1,1.8v4.1c0,0.8,0,1.6,0.1,2.4h-1.4v-0.7h-5.1v0.8h-1.4
		c0.1-0.8,0.1-1.4,0.1-2.4v-4.2c0-0.6,0-1.2-0.1-1.8c0.6,0.1,1.6,0.1,2.8,0.1c0.1-0.3,0.2-0.8,0.3-1.3c-2,0-3.3,0.1-4.5,0.2v-1.4
		c1.4,0.1,3.2,0.2,5.9,0.2c0.3-0.7,0.6-1.4,0.9-2.4c0.5,0.3,1.1,0.4,1.6,0.5c0.2,0,0.2,0.1,0,0.2c-0.3,0.2-0.6,0.5-1.3,1.6
		c1.5,0,2.6-0.1,3.6-0.1v1.4c-1.2-0.1-2.6-0.2-4.7-0.2c-0.2,0.4-0.3,0.9-0.4,1.3C1205.7,709.1,1207.1,709,1207.8,708.9z M1202,706.6
		c-0.3-0.4-0.7-0.9-1.2-1.4l1.2-0.7c0.4,0.4,0.9,1,1.2,1.4L1202,706.6z M1206.4,710.1h-5.1v1.1h5.1V710.1z M1201.3,713.3h5.1v-1.2
		h-5.1V713.3z M1206.4,714.3h-5.1v1.2h5.1V714.3z"/>
</g>
<g style="opacity:0.8;">
	<path style="fill:#FFFFFF;" d="M1283.1,846.8v1.5c-1.7-0.1-3.8-0.2-6.8-0.2c-0.1,0.5-0.1,1-0.2,1.7c4.3,0,5.4-0.1,6.1-0.2
		c-0.1,0.8-0.1,1.4-0.1,2.5v6.4c0,1.4-0.2,1.7-2.9,2c0-0.5-0.2-1.3-0.5-1.8c1.5,0.2,2,0,2-0.6V851h-9.7v9.3h-1.6
		c0.1-1.1,0.2-1.8,0.2-2.3v-5.9c0-1-0.1-1.9-0.1-2.5c0.8,0.1,1.9,0.2,5.4,0.2c0.1-0.6,0.1-1.2,0.1-1.7c-2.8,0-4.8,0.1-6.4,0.2v-1.5
		c1.6,0.1,3.6,0.2,6.4,0.2c0-0.6,0-1.2-0.1-1.7c0.7,0.1,1.5,0.2,2,0.2c0.3,0,0.3,0.1,0.1,0.3c-0.1,0.1-0.2,0.3-0.3,1.2
		C1279.4,847,1281.5,846.9,1283.1,846.8z M1279.6,855.9v1.3c-0.9-0.1-1.8-0.1-3.4-0.1c0,0.9,0,1.8,0.1,2.9h-1.6
		c0.1-1.1,0.1-2,0.1-2.9c-1.4,0-2.3,0.1-3.1,0.1v-1.3c0.8,0.1,1.7,0.1,3.1,0.1v-1.3c-1.2,0-2.1,0.1-2.8,0.1v-1.3
		c1,0.1,2.4,0.1,4.2,0.1c0.4-1,0.6-1.8,0.6-2.6c0.6,0.4,1.2,0.6,1.5,0.6c0.2,0,0.3,0.1,0,0.3c-0.2,0.1-0.4,0.3-1,1.7
		c0.8,0,1.4,0,1.9-0.1v1.3c-0.8-0.1-1.8-0.1-3.2-0.1v1.3C1277.8,856,1278.7,856,1279.6,855.9z M1273.8,853.4
		c-0.2-0.6-0.5-1.1-0.8-1.6l1.4-0.4c0.2,0.4,0.5,1,0.7,1.5L1273.8,853.4z"/>
	<path style="fill:#FFFFFF;" d="M1289.2,850.7c-0.2,0.1-0.9,0.7-3.1,2.8c-0.4-0.4-0.6-0.6-1.1-0.8c1.3-0.9,2.4-2,3.1-3.1
		c0.4,0.4,0.9,0.7,1.2,0.8C1289.5,850.4,1289.5,850.5,1289.2,850.7z M1290.7,852.6c0.5,0.2,1.1,0.4,1.4,0.5c0.2,0.1,0.2,0.2,0,0.3
		c-0.1,0.1-0.3,0.5-1.3,2.6c0.9,1,1.7,1.9,2.2,2.5l-1.3,1c-0.5-0.7-1.1-1.5-1.8-2.3c-1.2,1.6-2.2,2.4-3.6,3.3
		c-0.2-0.4-0.6-0.9-1.1-1.1c1.5-0.8,3-2,3.9-3.2c-0.8-1-1.6-1.8-2.3-2.5l1-0.7c0.6,0.6,1.3,1.3,2,2
		C1290.3,854.2,1290.6,853.2,1290.7,852.6z M1289.5,849.1c-1.9,0-3.2,0.1-4.1,0.2v-1.6c0.9,0.1,2,0.2,4.1,0.2c1.6,0,2.9-0.1,4-0.2
		v1.6C1292.3,849.1,1291,849.1,1289.5,849.1z M1289.2,847.4c-0.1-0.6-0.4-1.3-0.7-2.1l1.7-0.4c0.2,0.6,0.5,1.4,0.8,2L1289.2,847.4z
		 M1292.9,853.1c-0.7-0.9-2-2.2-2.7-2.6l1.1-0.8c0.8,0.8,1.8,1.6,2.7,2.3L1292.9,853.1z M1297.2,858.6c-0.1-0.5-0.3-1.1-0.7-1.7
		c1.5,0.1,2-0.3,2.1-0.8c0.3-1.3-0.1-2-1.9-3.9l1.4-4.8h-2.4v13.3h-1.5c0.1-1.1,0.2-2,0.2-3.5v-9.4c0-0.6,0-1.4-0.1-1.8
		c0.7,0.1,1.6,0.1,2.9,0.1s2.2,0,2.9-0.1l-1.9,5.8c2,1.8,2.3,2.9,2.2,4.1C1300.3,857.4,1299.2,858.4,1297.2,858.6z"/>
	<path style="fill:#FFFFFF;" d="M1305.5,860.6h-1.5c0.1-0.9,0.2-1.7,0.2-2.7v-4.8c-0.5,0.6-0.9,1.1-1.3,1.5c-0.3-0.4-0.5-0.7-1-1
		c0.7-0.6,1.8-1.7,2.4-2.7c0.4-0.7,0.6-1.3,0.9-2.1c0.4,0.3,1.1,0.8,1.3,0.8c0.3,0.1,0.3,0.2-0.1,0.3c-0.1,0-0.3,0.3-0.9,1.2V860.6z
		 M1305.4,847.6c-0.7,0.9-1.3,1.6-2.1,2.4c-0.3-0.4-0.6-0.7-1.1-1c0.7-0.5,1.2-1,1.9-2c0.3-0.3,0.7-1.1,1-1.8
		c0.5,0.4,1.2,0.8,1.4,0.9c0.3,0.1,0.3,0.2,0,0.3C1306.2,846.6,1306,846.8,1305.4,847.6z M1313.2,856.3c-0.1,0.4-0.1,0.9-0.1,1.3
		c-1.9,0.2-5.4,0.9-6.8,1.3c0-0.5-0.1-1.1-0.3-1.6c0.6,0,1.9-0.1,3-0.3v-2.2c-1.1,0-1.5,0.1-2.2,0.1v-1.3c0.7,0.1,1.2,0.1,2.2,0.1
		c0-0.7,0-1.3-0.1-1.7c0.5,0.1,1.1,0.1,1.5,0.1c0.2,0,0.3,0.1,0.1,0.3c-0.2,0.1-0.2,0.2-0.2,0.4v1c1,0,1.5,0,2.2-0.1v1.3
		c-0.8-0.1-1.3-0.1-2.2-0.1v2C1311.4,856.6,1312.7,856.4,1313.2,856.3z M1310.3,850.5c0.9,0,1.3,0,2-0.1v1.3
		c-0.9-0.1-1.1-0.2-2.6-0.2c-1.7,0-2,0-2.9,0.2v-1.3c0.7,0.1,1.1,0.1,2.2,0.1v-2c-1,0-1.4,0-2.1,0.2v-1.3c0.7,0.1,1.1,0.1,2.1,0.1
		c0-0.7,0-1.7-0.1-2.2c0.5,0.1,1.1,0.1,1.5,0.1c0.2,0,0.2,0.2,0.1,0.3c-0.2,0.1-0.2,0.2-0.2,0.4v1.4c1.1,0,1.5-0.1,2.2-0.1v1.3
		c-0.8-0.1-1.1-0.2-2.2-0.2V850.5z M1315.9,858.8c0,1.4-0.1,1.6-2.6,1.8c0-0.4-0.1-0.8-0.6-1.6c1.7,0.1,1.8-0.1,1.8-0.8v-6.8
		c-0.7,0-1.1,0-1.6,0.1v-1.4c0.7,0.1,1.1,0.1,2.3,0.1c1.3,0,1.6,0,2.3-0.1v1.4c-0.6-0.1-0.9-0.1-1.6-0.2L1315.9,858.8L1315.9,858.8z
		 M1314.9,847.7c-0.8,0-1.3,0-2,0.1v-1.4c0.6,0.1,0.9,0.1,2,0.1s1.4,0,2-0.1v1.4C1316.3,847.7,1315.9,847.7,1314.9,847.7z"/>
	<path style="fill:#FFFFFF;" d="M1323.9,858.3c1.9,0.8,6.6,1,10.6,0.3c-0.3,0.8-0.4,1.3-0.4,1.8c-6.6,0.2-8.1,0.1-11.5-1.3
		c-0.9-0.4-1.4-0.1-2.2,1.3c-0.4-0.4-0.8-0.7-1.3-1c0.9-0.8,1.5-1.3,2-1.5v-5.2c-1,0-1.5,0-1.9,0.1v-1.4c1.1,0.2,2.5,0.2,3.5,0
		c-0.1,0.6-0.2,1.1-0.2,2v4.5C1322.9,857.9,1323.2,858,1323.9,858.3z M1321.2,849.8c-0.2-1.2-0.6-2.4-1-3.2l1.4-0.4
		c0.3,1.1,0.6,2.1,1,3.2L1321.2,849.8z M1332.8,850c-0.1,0.6-0.1,1.2-0.1,1.8v4.1c0,0.8,0,1.6,0.1,2.4h-1.4v-0.7h-5.1v0.8h-1.4
		c0.1-0.8,0.1-1.4,0.1-2.4v-4.2c0-0.6,0-1.2-0.1-1.8c0.6,0.1,1.6,0.1,2.8,0.1c0.1-0.3,0.2-0.8,0.3-1.3c-2,0-3.3,0.1-4.5,0.2v-1.4
		c1.4,0.1,3.2,0.2,5.9,0.2c0.3-0.7,0.6-1.4,0.9-2.4c0.5,0.3,1.1,0.4,1.6,0.5c0.2,0,0.2,0.1,0,0.2c-0.3,0.2-0.6,0.5-1.3,1.6
		c1.5,0,2.6-0.1,3.6-0.1v1.4c-1.2-0.1-2.6-0.2-4.7-0.2c-0.2,0.4-0.3,0.9-0.4,1.3C1330.7,850.1,1332.1,850.1,1332.8,850z M1327,847.7
		c-0.3-0.4-0.7-0.9-1.2-1.4l1.2-0.7c0.4,0.4,0.9,1,1.2,1.4L1327,847.7z M1331.4,851.1h-5.1v1.1h5.1V851.1z M1326.3,854.4h5.1v-1.2
		h-5.1V854.4z M1331.4,855.4h-5.1v1.2h5.1V855.4z"/>
</g>
<g style="opacity:0.8;">
	<path style="fill:#FFFFFF;" d="M1234,734.6c-0.3-0.6-0.5-1.1-0.9-1.6c1-1.2,1.7-2.8,2.7-5.8c-1,0-1.7,0.1-2.3,0.1v-1.4
		c0.6,0.1,1.3,0.1,2.3,0.1c0-1.8-0.1-2.6-0.2-3.4c0.6,0.1,1,0.1,1.6,0c0.4,0,0.4,0.1,0.1,0.4c-0.2,0.1-0.2,0.3-0.2,0.5v2.5
		c0.9,0,1.6,0,2.2-0.1v1.4c-0.6-0.1-1.2-0.1-2.2-0.1v7.6c0,0.9,0.1,2.1,0.2,3.2h-1.7c0.1-1.1,0.2-2.3,0.2-3.2v-4.5
		C1235.3,731.9,1234.8,733.2,1234,734.6z M1238.4,732.2c-0.3-0.7-0.6-1.3-1.1-2.2l1.1-0.6c0.5,0.9,0.9,1.4,1.3,2.1L1238.4,732.2z
		 M1242.8,725c-0.6,1.8-1.4,3.5-2.5,5.2c-0.4-0.3-0.9-0.5-1.4-0.7c1.3-1.4,2.3-3.8,2.7-6.3c0.6,0.2,1.3,0.4,1.8,0.4
		c0.2,0,0.3,0.1,0,0.3C1243.2,724,1242.9,724.7,1242.8,725z M1240,736.9c-0.1-0.5-0.2-0.9-0.5-1.5c0.5-0.2,0.8-0.4,1-0.8
		c0.9-1.7,1.8-4,2.1-6c0.6,0.2,1.3,0.4,1.6,0.4c0.4,0,0.5,0.2,0,0.5c-0.1,0.1-0.3,0.5-0.6,1.2c-0.4,1-1.4,3.1-2.2,4.6l4.2-0.3
		c-0.5-1-0.8-1.8-1.2-2.4l1.3-0.6c0.7,1.3,1.5,2.9,2.3,4.5l-1.5,0.7c-0.2-0.5-0.4-1-0.5-1.4C1241.6,736.5,1240.7,736.7,1240,736.9z
		 M1247.5,730.5c-2.4-2.1-2.8-3.9-3.2-7.4l1.4-0.1c0.1,3.3,0.9,5.1,3.2,6.1C1248.3,729.6,1247.9,729.9,1247.5,730.5z"/>
	<path style="fill:#FFFFFF;" d="M1251.2,729.6c-0.1-0.5-0.2-0.9-0.4-1.4c0.7-0.1,1.6-0.5,2-0.9c2.1-2,3.6-3.6,4.4-4.9
		c0.7,0.4,1.2,0.7,1.7,0.9c0.4,0.2,0.4,0.4-0.1,0.4c-0.3,0-0.6,0.2-1.1,0.8c-1.7,1.7-2.5,2.4-3.9,3.5l7.9-0.3
		c-0.6-0.6-1.3-1.2-2.2-2.1l1.2-0.8c1.5,1.3,2.7,2.4,4.4,4.1l-1.4,0.9c-0.3-0.4-0.6-0.8-0.9-1.1
		C1253.6,729.2,1252.4,729.3,1251.2,729.6z M1254,737.7h-1.6c0.2-0.9,0.2-1.7,0.2-2.6v-2.6c0-0.7,0-1.2-0.1-1.5
		c1,0.1,1.7,0.1,5.4,0.1s4.5,0,5.4-0.1c-0.1,0.3-0.1,0.8-0.1,1.5v2.4c0,0.9,0,1.7,0.1,2.6h-1.5v-1h-7.7v1.2H1254z M1261.7,732.2
		h-7.7v3.1h7.7V732.2z"/>
	<path style="fill:#FFFFFF;" d="M1270.7,738h-1.5c0.1-0.9,0.2-1.7,0.2-2.7v-4.8c-0.5,0.6-0.9,1.1-1.3,1.5c-0.3-0.4-0.5-0.7-1-1
		c0.7-0.6,1.8-1.7,2.4-2.7c0.4-0.7,0.6-1.3,0.9-2.1c0.4,0.3,1.1,0.8,1.3,0.8c0.3,0.1,0.3,0.2-0.1,0.3c-0.1,0-0.3,0.3-0.9,1.2V738z
		 M1270.6,724.9c-0.7,0.9-1.3,1.6-2.1,2.4c-0.3-0.4-0.6-0.7-1.1-1c0.7-0.5,1.2-1,1.9-2c0.3-0.3,0.7-1.1,1-1.8
		c0.5,0.4,1.2,0.8,1.4,0.9c0.3,0.1,0.3,0.2,0,0.3C1271.5,723.9,1271.2,724.2,1270.6,724.9z M1278.4,733.7c-0.1,0.4-0.1,0.9-0.1,1.3
		c-1.9,0.2-5.4,0.9-6.8,1.3c0-0.5-0.1-1.1-0.3-1.6c0.6,0,1.9-0.1,3-0.3v-2.2c-1.1,0-1.5,0.1-2.2,0.1V731c0.7,0.1,1.2,0.1,2.2,0.1
		c0-0.7,0-1.3-0.1-1.7c0.5,0.1,1.1,0.1,1.5,0.1c0.2,0,0.3,0.1,0.1,0.3c-0.2,0.1-0.2,0.2-0.2,0.4v1c1,0,1.5,0,2.2-0.1v1.3
		c-0.8-0.1-1.3-0.1-2.2-0.1v2C1276.7,734,1277.9,733.8,1278.4,733.7z M1275.5,727.9c0.9,0,1.3,0,2-0.1v1.3c-0.9-0.1-1.1-0.2-2.6-0.2
		c-1.7,0-2,0-2.9,0.2v-1.3c0.7,0.1,1.1,0.1,2.2,0.1v-2c-1,0-1.4,0-2.1,0.2v-1.3c0.7,0.1,1.1,0.1,2.1,0.1c0-0.7,0-1.7-0.1-2.2
		c0.5,0.1,1.1,0.1,1.5,0.1c0.2,0,0.2,0.2,0.1,0.3c-0.2,0.1-0.2,0.2-0.2,0.4v1.4c1.1,0,1.5-0.1,2.2-0.1v1.3c-0.8-0.1-1.1-0.2-2.2-0.2
		V727.9z M1281.1,736.2c0,1.4-0.1,1.6-2.6,1.8c0-0.4-0.1-0.8-0.6-1.6c1.7,0.1,1.8-0.1,1.8-0.8v-6.8c-0.7,0-1.1,0-1.6,0.1v-1.4
		c0.7,0.1,1.1,0.1,2.3,0.1c1.3,0,1.6,0,2.3-0.1v1.4c-0.6-0.1-0.9-0.1-1.6-0.2L1281.1,736.2L1281.1,736.2z M1280.1,725
		c-0.8,0-1.3,0-2,0.1v-1.4c0.6,0.1,0.9,0.1,2,0.1s1.4,0,2-0.1v1.4C1281.5,725.1,1281.1,725,1280.1,725z"/>
	<path style="fill:#FFFFFF;" d="M1289.1,735.7c1.9,0.8,6.5,1,10.6,0.3c-0.3,0.8-0.4,1.3-0.4,1.8c-6.6,0.2-8.1,0.1-11.5-1.3
		c-0.9-0.4-1.4-0.1-2.2,1.3c-0.4-0.4-0.8-0.7-1.3-1c0.9-0.8,1.5-1.3,2-1.5V730c-1,0-1.5,0-1.9,0.1v-1.4c1.1,0.2,2.5,0.2,3.5,0
		c-0.1,0.6-0.2,1.1-0.2,2v4.5C1288.1,735.2,1288.4,735.4,1289.1,735.7z M1286.4,727.2c-0.2-1.2-0.6-2.4-1-3.2l1.4-0.4
		c0.3,1.1,0.6,2.1,1,3.2L1286.4,727.2z M1298,727.3c-0.1,0.6-0.1,1.2-0.1,1.8v4.1c0,0.8,0,1.6,0.1,2.4h-1.4v-0.7h-5.1v0.8h-1.4
		c0.1-0.8,0.1-1.4,0.1-2.4v-4.2c0-0.6,0-1.2-0.1-1.8c0.6,0.1,1.6,0.1,2.8,0.1c0.1-0.3,0.2-0.8,0.3-1.3c-2,0-3.3,0.1-4.5,0.2V725
		c1.4,0.1,3.2,0.2,5.9,0.2c0.3-0.7,0.6-1.4,0.9-2.4c0.5,0.3,1.1,0.4,1.6,0.5c0.2,0,0.2,0.1,0,0.2c-0.3,0.2-0.6,0.5-1.3,1.6
		c1.5,0,2.6-0.1,3.6-0.1v1.4c-1.2-0.1-2.6-0.2-4.7-0.2c-0.2,0.4-0.3,0.9-0.4,1.3C1295.9,727.5,1297.3,727.4,1298,727.3z M1292.2,725
		c-0.3-0.4-0.7-0.9-1.2-1.4l1.2-0.7c0.4,0.4,0.9,1,1.2,1.4L1292.2,725z M1296.6,728.5h-5.1v1.1h5.1V728.5z M1291.5,731.8h5.1v-1.2
		h-5.1V731.8z M1296.6,732.8h-5.1v1.2h5.1V732.8z"/>
</g>
</svg>
