<?xml version="1.0" encoding="utf-8"?>
<!-- Generator: Adobe Illustrator 17.0.0, SVG Export Plug-In . SVG Version: 6.00 Build 0)  -->
<!DOCTYPE svg PUBLIC "-//W3C//DTD SVG 1.1//EN" "http://www.w3.org/Graphics/SVG/1.1/DTD/svg11.dtd">
<svg version="1.1" id="图层_1" xmlns="http://www.w3.org/2000/svg" xmlns:xlink="http://www.w3.org/1999/xlink" x="0px" y="0px"
	 preserveAspectRatio="none" viewBox="0 0 1100 950" enable-background="new 0 0 1100 950" xml:space="preserve">
<path fill="#0A469E" d="M310.9,45.9c-0.1-2.3-2.1-5,0-6.1c2.1-1.1,6.4-2.3,7.5-3c1.1-0.7,3.2-2,5.9-2s8.4-0.9,8.9,0s3.7-1.4,6.4,0.4
	c2.7,1.8,7.3,5.7,7.3,5.7s2.1-0.2,3.4-0.7c1.2-0.5,5.9,0.4,6.8,1.3c0.9,0.9,4.3,1.6,5.9,1.4c1.6-0.2,7,0.5,7.7,3s4.1,5.9,4.1,9.1
	s0.2,8.4-1.4,10.7c-1.6,2.3-2.9,2.1-3,4.8c-0.2,2.7-4.1,1.1-2,4.3c2.1,3.2,3,3.4,4.1,8c1.1,4.6,0.9,6.1,2.3,9.6
	c1.4,3.6-0.5,5.3,0,10c0.5,4.6-1.8,8-2.7,9.8c-0.9,1.8-2.9,4.5-3.6,7.1c-0.7,2.7-4.6,8.7-3.6,9.4c1.1,0.7,4.6,2.5,6.4,2.5
	s7.5-1.8,8.7,0s2,6.1,4.5,7s6.4-1.1,9,0.7c2.6,1.8,3.8,5.3,5.1,7.7c1.2,2.3,4.1,0.7,5.2,3.2c1.1,2.5,0,8.2,2.5,8.2s5.9-0.5,7.3,0
	c1.4,0.5,5.7,1.8,7.5,3.6s4.1,3.2,5.7,3c1.6-0.2,3.6,1.2,3.6,3.6s-1.2,5.5-0.9,7.5c0.3,2,6.1,6.2,8.2,6.2c2.1,0,4.3-3.2,7.3-1.8
	s4.6,2.7,4.1,5.5c-0.5,2.9-1.4,7.8-2.5,11.1c-1.1,3.2-1.1,6.4-1.8,8.2c-0.7,1.8-1.4,4.3,0,5.2c1.4,0.9,6.4,1.8,5.7,3.4
	c-0.7,1.6-4.3,4.1-4.3,6.8s-2.1,6.6-0.9,8.9c1.2,2.3,7.1,6.2,8,9.4c0.9,3.2,0.7,10.2,2.1,11.6c1.4,1.4,3.4,1.2,4.6,3.7
	c1.2,2.5,2.1,6.2,3.9,7.1c1.8,0.9,4.8-1.4,5.7,0c0.9,1.4-0.4,2.9,1.2,3.9c1.6,1.1,10,4.8,12.1,5.3c2.1,0.5,6.2-3.4,8-2.3
	c1.8,1.1,4.8,5,6.4,4.6c1.6-0.4,2.5-5.3,4.3-7.5s12.7-7.5,10.9-7.5s-9.1,0.4-9.1-2c0-2.3,2.1-3,0.2-5.2c-1.9-2.2-5.9-4.8-3-5.2
	c2.9-0.4,4.3,3.4,6.6,0.5c2.3-2.9,1.1-5.3,4.3-5.5s5.3,0.9,7.5,2c2.1,1.1,3.6,2.3,3.4,4.8c-0.2,2.5-2.1,10.2,0,9.4
	c2.1-0.8,5.2-2.7,5.7-5.7s0.4-4.8,1.8-6.1s5.9-3.9,7.5-3.9s6.8,1.1,8.6,2.3s3.2,9.3,5.3,9.8s8.2,1.4,11.4,0.2s8.2-2,10.7-2.9
	s6.8-3.4,9.6-2.9s5,2,8,1.6s5.9,0.9,8.2-0.9c2.3-1.8,3.6-4.8,3.7-6.2c0.2-1.4-2.7-4.6-1.4-7.3c1.2-2.7,1.8-1.1,2.3-4.6
	c0.5-3.6,0-3.9,2-5.3c2-1.4,3.9-2.1,6.1-2s6.4,0.7,7.5,1.8s2.9,2.9,5.3,4.3c2.5,1.4,6.6,3.2,8.6,3.6c2,0.4,9.1,3.7,8.7,5.9
	c-0.4,2.1-4.5,8.2-4.3,10.3s1.8,4.8,3.2,5.2s2.5,1.4,2.5,3c0,1.6-0.9,5.2,0,4.6c0.9-0.5,3.2-6.6,4.6-5.7c1.4,0.9,1.8,1.8,3.7,2.9
	c1.9,1.1,2.7,2.1,1.2,4.1c-1.4,2-6.2,0.4-7.3,2.7c-1.1,2.3-2.9,3.9-1.2,5c1.7,1.1,5-1.8,7.3-0.4c2.3,1.4-0.2,3.2,0.5,5.2
	s4.1,3,2.3,5.2s-1.2,5-1.8,6.4c-0.5,1.4-2.3,3.4-1.6,4.5c0.7,1.1,3.4,5,1.2,6.6c-2.1,1.6-4.8,3.2-7.1,5.9s-3.4,0.9-6.8,3
	c-3.4,2.1-1.8,3.6-3.9,3.9s-3.7,1.1-3.7,2.1s-1.4,5,0.5,5.3s1.6,3.4,1.6,5.5c0,2.1,2.7,8.7,0,11.2s-5,5.2-4.5,6.1
	c0.5,0.9,3.2,11.1,6.2,11.4s4.8-4.3,7-3.6c2.2,0.7,7.1,0.6,9.6,3.6s12.7,7.5,14.8,8.7s8.7-2.3,9.1-1.2c0.4,1.1,4.1,4.5,2.5,5.2
	s-2.5,3.6-1.2,4.1c1.2,0.5,5.2-1.2,5.5,0c0.4,1.2,1.2,3.6,3,3.7c1.8,0.2,7.1,0.2,8.9,2.9c1.8,2.7,2.9,3.9,0.9,7.1s-6.4,5.5-6.2,8.7
	s-1.5,7.1-2.1,9.1s-2,3.6-1.1,6.1s5.5,3.4,8.6,3.6c3,0.2,3.3,3.4,5.9,4.1c2.5,0.7,5.9-0.4,6.6,1.1s1.1,4.3,2.7,4.8
	c1.6,0.5,5.3,0.5,6.8,1.2s0.2,2.3,2,2.3s1.6-1.2,5.7-1.2c4.1,0,6.2-0.9,10.7-1.4s6.8-1.1,8.4,0.5c1.6,1.6,1.4,7.5,1.6,9.3
	s1.4,3.4,0,5.3c-1.4,2-3.6,5.5-1.2,7s5.9,1.1,7.5,2.3c1.6,1.2,4.1,5.2,5.9,5.9c1.8,0.7,4.6,1.2,5.9,1.8c1.2,0.5,5,2.7,9.1,4.1
	c4.1,1.4,6.4,1.1,6.4,2.7c0,1.6-0.9,5,0.7,6.6c1.6,1.6,2.9,3.6,2.7,6.1s-2.5,3.6-1.8,6.4c0.7,2.9,2.7,3.9,0.7,5.9s-6.6,4.1-6.1,5.5
	c0.5,1.4,1.1,10,2.3,8.7c1.2-1.2,3.6-5.7,4.8-4.3s2.3,3.6,5,4.4s5.9-0.9,7.7,0c1.8,0.9,3,2.2,5.3,2.2s13.9-4.3,15.7-1.6
	c1.8,2.7,1.4,6.8,3,7.1c1.6,0.4,3.7,0.2,6.2,3c2.5,2.9,5.2,3.6,5.7,6.4s2.5,9.4,2.7,10.9c0.2,1.4,3.7-0.2,4.8,0s1.2,3,4.3,3.7
	s14.1,0.2,13.4,1.8c-0.7,1.6-4.8,7.8-2.3,9.1c2.5,1.2,12.8,1.8,15,1.8s3.4,1.8,6.6,0c3.2-1.8,3.4-4.1,7.7-4.1s8.4,0,10.3,1.6
	s5,2.7,3.2,4.5s-3.6,1.8-3.4,4.1s1.6,2.1,0,4.3s-4.6,3.6-2.7,5.7c2,2.1,4.6,0.9,6.6,0s5-1.1,7.1-1.1s5.7-1.8,8.4-0.5
	c2.7,1.2,3.2,2,3.2,4.8s0.4,5,0,8.4s-0.5,7.1,3.9,5.9c4.5-1.2,6.6-2,8.7-1.2s1.8,1.4,5.3,0.2c3.6-1.2,6.2-4.5,7-2
	c0.7,2.5-1.6,4.3,0.9,8.6s2.9,6.4,4.6,7.7c1.8,1.2,5.3,2.7,7.7,4.3s3.2,4.5,4.6,6.6s0.4,2.3-1.8,4.8c-2.1,2.5-3.9,1.2-2.7,5.2
	s1.2,5,2.9,6.8c1.6,1.8,2.1,2.9,4.8,3c2.7,0.2,8.6-3,5.7-3.6c-2.9-0.5-6.6-0.7-4.6-3.7s0.4-7,1.8-7.3c1.4-0.4,4.1,1.8,5.5,0.5
	s2.7-3.7,3.2-1.6c0.5,2.1-1.1,4.5,1.4,5.7s3.2,3.7,5,2c1.8-1.8,2.5-5.9,4.6-4.3c2.1,1.6,4.5,4.5,7.7,6.8s6.6,0.7,9.1,2.3
	s4.5,2.5,7.8,2c3.4-0.5,6.1-2.1,4.3,0.5c-1.8,2.7-9.3,5.2-7.3,8c2,2.9,2.9,2.5,2.7,5.9s-3.4,6.2-0.2,9.1c3.2,2.9,9.1,5.5,7.7,2.9
	c-1.4-2.7-5.7-8.6-3.2-10.2c2.5-1.6,5.2-1.8,7-2s3.6-1.6,6.2-1.6c2.7,0,1.4,2.7,3.7,3c2.3,0.4,3-1.4,3.6,1.6c0.5,3,0.5,7.3,3.2,7.7
	s6.6-3,8.6-2.3s4.3,5,7.1,6.6s7.7,1.4,8.9,1.2c1.2-0.2,6.4,0,5.3-2.1s-2.2-4.5,0.1-3.2c2.4,1.2,2.7,1.6,5.2,3.9s3,4.1,5.9,5.9
	s3,3.9,6.2,4.5s5.3-5.3,6.1-2.5c0.7,2.9,0.2,8.4,2.3,9.4c2.1,1.1,1.2,2.1,2.3,4.8c1.1,2.7-1.2,2,0,6.2c1.2,4.3,1.8,8.7-1.8,10.2
	c-3.6,1.4-6.8,2.9-7.8,4.5s-1.4,3.6-4.5,3.7c-3,0.2-2-1.1-5,0.7s-4.6,2.3-7.3,2.3c-2.7,0-5.7,0.5-8.4,2.5c-2.7,2-4.6,4.3-7.3,5.7
	c-2.7,1.4-6.2,3.6-8.7,5.7s-1.8,3.9-4.6,2.7c-2.9-1.2-2.5-2.1-8-2.1s-4.1-3.6-5-5.7c-0.9-2.1-2.3-1.8-3.4-4.8
	c-1.1-3-0.7-4.8-3.9-4.8s-6.6-0.4-8,0s0,2.7-3.6,2.3s-9.4-2.9-10.3-2.5c-0.9,0.4-3,3.2-4.1,3.2s-3.4,0.5-5.9,2.3s-3.7,3.9-6.6,4.8
	c-2.9,0.9-7.7,2.5-10.5,1.6c-2.9-0.9-7.1-5-8.2-4.5c-1.1,0.5-3.2,1.4-5,1.4s-4.8,1.2-6.4-0.2s-0.4-3.7-4.5-3.9s-7.7,0.4-10.2,1.2
	c-2.5,0.9-5,0.9-8.7,2.3s-5.5,2-7.8,0.9s-4.5-2.1-5-0.9c-0.5,1.2-0.7,3.2-2.5,3.2s-1.4-0.9-5.5-0.9s-4.1-1.4-8.2-0.4
	c-4.1,1.1-5.5,5.3-7.1,7.7s-7.8,5.6-6.2,7.4c1.6,1.8,6.1,2.7,6.1,4.3s-0.4,2,1.6,3.4s5.9,0.7,6.1,2.7c0.2,2,0.9,5.2,1.6,7.5
	s1.4,6.1,0.2,7.8c-1.2,1.8-4.8,5.5-6.1,7.3c-1.2,1.8-2.1,2-6.4,3.2c-4.3,1.2-5.7,3.2-7.3,0s-1.4-6.6-3.4-7.7c-2-1.1-3.4-0.5-5.9,0.9
	s-3.6,2.9-6.6,2.5s-2.9-2.9-7.1-3c-4.3-0.2-5.2,2.7-8.2,3.2s-2.9-6.2-4.1-5c-1.2,1.2-2,6.4-5.2,7.7c-3.2,1.2-10.5,1.9-11.2,3.2
	s0.9,8.1,0.9,10.2s1.8,6.6,2.7,8s1.4,4.5,0.2,5.7s-3.6-0.4-5.5,1.6c-2,2-3.4,3.7-4.6,3.7s-3.6-3.7-6.2-3c-2.7,0.7-4.8,4.1-7.3,5.7
	c-2.5,1.6-7.1,3.4-11.1,5.7c-3.9,2.3-7.1,5.5-7,7.3c0.2,1.8,2,3.2,0,4.8s-0.7,5.2-2.7,4.8s-2.7-2-6.4,1.1c-3.7,3-4.5,4.3-6.2,4.8
	c-1.8,0.5-5.2-1.1-5.3,2.1c-0.2,3.2,2.9,3.9,2.5,6.8c-0.4,2.9-3,6.1-3.2,7.1c-0.2,1.1,1.8,2.9-0.7,2.7s-2.5-3.6-5.3-3.6
	c-2.9,0-6.4-3-8.4-0.7s-4.1,5.5-3.4,8.2c0.7,2.7,3,5.2,1.4,7.5s-1.4,3.7-3.4,4.1c-2,0.4-3.2-4.1-5.9-2.9c-2.7,1.2-6.4,1.8-8.2,1.8
	s-2.7-2-5.2-4.3s-2.1-2.7-5.9-2.7s-2.9-3.9-7.7-2.5s-9.4,2.9-10.2,1.1c-0.7-1.8,0.5-2.7,2-5.5s3.2-7.8,1.2-10c-2-2.1-5.5-0.7-8-2.9
	c-2.5-2.1-0.7-3.9-3.6-6.6s-5-0.5-6.4-3.7s-2.5-3.2-2-6.6c0.5-3.4-1.1-3.6-4.3-3.9c-3.2-0.4-6.8,1.8-8-0.4s-3.6-5.9-3.6-7
	s4.5-4.8,1.4-5.5c-3-0.7-3.4-6.6-6.2-6.6c-2.9,0-6.2-4.1-8.2-4.3s-2.3,1.1-4.3,0.9c-2-0.2-3.9-2.5-6.2-1.8s-6.6,2.3-8,4.3
	s-1.6,7.8-2.9,9.4c-1.2,1.6-6.2,0.7-8.4,0.7s-8.4-1.1-11.2,0c-2.9,1.1-5.5,2.9-8.7,3.6c-3.2,0.7-5.9,0.7-8.6,1.2
	c-2.7,0.5-6.2,0.7-7.7,2.7c-1.4,2,0,4.1-2.1,4.5s-7.8-2.5-8.6,0.2s-4.3,8.2-2,8.2s9.3,0.5,11.1,0.2c1.8-0.4,7.3-2.9,6.2,0
	s-3.4,4.8-6.1,7.3c-2.7,2.5-5.7,5.2-7.1,7c-1.4,1.8-0.5,2.1-3.4,3.2c-2.9,1.1-6.2,0.4-8.4,2.7c-2.1,2.3-3,6.8-3.4,8.6
	s-0.2,3.9-3.2,5.7s-4.3,1.4-6.8,2.5s-10.9,3.2-8.6,3.7c2.3,0.5,9.6-0.5,8.6,1.4c-1.1,2-8,6.4-7,8.9c1.1,2.5,3.2,5.5,2.9,7.5
	c-0.4,2-3,3.4,0.2,4.6c3.2,1.2,4.5-0.2,6.8,2.9c2.3,3,2.1,7.7,1.8,9.3c-0.4,1.6-0.4,3.4-3.4,2.7s-7.1-2.9-13.5-3.2
	c-6.4-0.4-4.6-1.4-9.3-0.4c-4.6,1.1-15.3-1.8-16,0.7s-2.7,6.1-5,5.3s-7-8.6-8.9-8.7c-2-0.2-11.1-0.4-12.3-0.2s-4.5,1.6-6.8,2.5
	s-5.5,2-6.1,3.6c-0.5,1.6,0.9,4.8-1.8,5.5c-2.7,0.7-5.3,1.1-8.2,1.1s-8.9-5.9-10.3-4.8c-1.4,1.1-2.9,8.2-3.7,8.7
	c-0.9,0.5-10.3-4.1-10.7-2.3s0.4,15-2.1,15.7s-5.3,0-6.8-2.3c-1.4-2.3,0.4-7.8-2.1-7.8s-10.3,2.7-12.3,0.9s-2.7-1.4-1.2-4.8
	c1.4-3.4,6.6-3,8.4-5s4.5-6.1,2.7-6.2c-1.8-0.2-9.8-0.4-12.5-0.5c-2.7-0.2-5.7-1.4-7.7-1.4s-4.6,2.9-6.4,3s-6.2-5.5-8.4-7.7
	c-2.1-2.1-4.5-8.2-8.2-7.7s-6.1,3.9-9.3,6.2s-6.4,7.5-8,9.8c-1.6,2.3-3.2,3-2.5,4.6s5.9,7.7,7.7,7.7c1.8,0,8.6-1.1,7.7,1.6
	c-0.9,2.7-1.2,9.4-2.3,10.9s-3.2,1.8-5.5,1.6s-3.4-2.7-7.1-2.9s-7.8,1.1-10.9,1.1c-3.1,0-4.3-2.1-6.6-2.1c-2.3,0-6.6-0.2-6.6,1.6
	s1.4,5-1.1,5.7s-7.7,2.3-10.3,0c-2.7-2.3-5.5-3.7-7.5-7c-2-3.2-1.8-7-6.6-7.8c-4.8-0.9-7.3-4.6-11.2-5.5s-5.9-2.5-10.3-1.2
	c-4.5,1.2-7,7.8-7.5,9.1c-0.5,1.2-0.2,4.8-3.6,4.8c-3.4,0-7.5-2.3-12.8-3s-10-2.9-12.5-3.4s-9.1-2-9.6-3.4c-0.5-1.4-1.2-2.9,0-4.8
	c1.2-2,3.6-3,3.9-6.8s0-6.8,0-10.5s-0.5-9.3-0.4-10.5c0.2-1.2,2.7-2.9,4.5-1.1c1.8,1.8,5.5,7.7,7.8,9.1c2.3,1.4,4.3,2.3,6.1,0.9
	c1.8-1.4,7.3-1.8,7.5-4.8s1.2-7.1-1.1-7.8c-2.3-0.7-8.6-3.9-10.9-4.3c-2.3-0.4-7,0-9.4-2.1c-2.4-2.1-8.9-5-8.7-7.8s2.1-5.5,1.8-8.6
	c-0.4-3,0.7-8.7-1.8-9.8c-2.5-1.1-5.2-1.8-8.4-1.8s-10,0.2-10.7-0.9c-0.7-1.1-1.4-2-5-2.9s-7.3,0.4-8.7-2.5s-2-1.6-2.9-8.2
	c-0.9-6.6,3.2-7-2.1-8.2s-13.2-2.1-11.8-4.5s5.7-6.1,8.6-8.2s4.5-4.1,6.8-6.1s3.6-4.1,2.3-7.1c-1.2-3-4.5-3.6-7.8-2.5
	c-3.4,1.1-7.3,1.4-7.7,0s0.7-6.6-0.2-9.4c-0.9-2.9-0.5-6.2-3-7.8s-3.9-2.3-8.2-3.6c-4.3-1.2-5.3-3-5.3-5.9s1.2-2.9-2.7-5
	s-5.2-1.2-6.8-5.5s-0.2-6.8-4.8-7.3s-8.2-0.5-12.7-0.5s-7.7-0.2-9.8-2.3s0.7-6.8,0-9.4c-0.7-2.7-0.4-2.3-2.5-4.8s-7.5-3.7-7-7.7
	c0.5-3.9,0.8-6.1,0-8.9s0.6-5.9-3.3-5.9c-3.9,0-7.3-1.1-9.4-3.4s0-4.8-3.9-4.8s-5.7,0.9-8.7-0.9c-3-1.8-7.5-12.8-6.8-14.4
	c0.7-1.6,3-3.7,5-3.6c2,0.2,7.1,4.3,8.7,2.5s0.5-4.1,3-5.3c2.5-1.2,7.1-4.3,8-4.3s4.8-1.4,5.3-3.9s-0.9-7.8,0.5-9.8s2.7-1.8,2.7-4.3
	s-2.3-3.4-0.5-5.7s8.6-7.7,8.4-9.6c-0.2-2-6.2-11.2-5.7-13.5s4.5-4.5,4.5-6.1s-3-3.6-1.1-6.1c2-2.5,5.5-4.8,2.7-6.2s-5.9-1.4-5.7-5
	s6.2-2,6.4-6.2s-0.9-10-1.6-11.2c-0.7-1.2-10.9-5.2-11.6-8.9s-1.6-7,0.7-10.7s7.5-2.1,8-7.7c0.5-5.5,1.4-7.1-3.4-8.9
	c-4.8-1.8-7.1-2.9-8-5.5c-0.9-2.7,0.2-8.6-3.4-11.8c-3.6-3.2-3.6-4.5-8.2-7.8c-4.6-3.4-6.8-2.3-7.7-6.6c-0.9-4.3,1.8-5-1.8-6.1
	c-3.6-1.1-8-9.3-8.2-5.9c-0.2,3.4,2.3,5.2-2.1,5.9c-4.5,0.7-11.1,0.2-14.4,0.4c-3.4,0.2-8,0.5-10,2.1c-2,1.6-7.5,7.7-8.6,5.2
	s1.1-4.5-1.8-6.6c-2.9-2.1-5.7-4.8-8.2-5.3s-3.4-2-1.6-3.4c1.8-1.4,9.3-4.8,9.6-9.1c0.3-4.3-1.4-6.9,0-8.7c1.4-1.8,2.9-5.6,5.7-6.8
	c2.9-1.2,5.5-0.7,6.6,0.2s1.4-2.7,1.6-6.2c0.2-3.6-1.1-6.8,0.5-8.9c1.6-2.1,1.6-6.4,3.9-7.5c2.3-1.1,7.8-3,6.6-4.8
	s-6.2-7.3-10.3-7.5c-4.1-0.2-8.6,1.4-11.4,0.2c-2.9-1.2-2.9-3.7-5.2-2.9c-2.3,0.9-2.5,3.2-5.9,2.3c-3.4-0.9-10.3-3-14.3-3.9
	c-3.9-0.9-4.1-1.2-8.2-2.1c-4.1-0.9-7-4.5-10.5-3.7s-6.4,2.7-9.3,2.9s-6.2-4.8-6.6-6.8c-0.4-2,0.4-8,0-11.2s-4.1-10-5.5-11.2
	s2.7-7.8,2.9-10.7s2-4.8,0.7-8.4c-1.3-3.6-3.7-5.3-5-6.6c-1.2-1.2-4.5-5.5-3.2-8.6c1.2-3,2.3-9.6,4.6-10.5c2.3-0.9,4.3,0.4,7.1-2
	c2.9-2.3,4.3-4.8,6.1-4.8s10.5,3,11.2,0c0.7-3,1.7-9.8,4.4-11.6s4.9,0.2,5.2-3.4c0.3-3.6-0.2-4.8,0.4-6.4c0.6-1.6,2.5-2.3-0.2-4.6
	c-2.7-2.3-4.5-5-6.2-7.7c-1.8-2.7-8-3.4-7.3-8.2c0.7-4.8,1.4-8,3.4-10.9c2-2.9,6.1-6.1,4.8-9.1c-1.4-3,1.1-5.9-4-5.9
	s-10.3-0.7-9.4-3.2s5.5-5.2,7.7-9.3c2.1-4.1,5.9-8.4,7.5-12.7c1.6-4.3,4.6-10.7,6.4-12.3c1.8-1.6,4.1-3.7,7.1-4.1s7-2.3,6.6-5
	s-1.6-5-4.8-6.1s-7.3-3-7.8-5.5s1.1-6.8,1.6-10.2s1.1-5.5-0.5-7.5s-6.1-3.9-3.7-6.2s3.9-2.7,4.3-4.6c0.4-2-1.2-4.6,2.3-4.6
	c3.6,0,5,2,9.1,0s2.1-4.5,6.8-3.7s5.3,1.6,7.5-0.9c2.1-2.5,0-7.1,2.7-8s4.3-0.2,7.1-2.3c2.9-2.1,1.2-5.2,5.7-7s7.7-3.6,7.8-7
	c0.2-3.4-0.9-6.4,0.7-10.5s3.6-5.7,4.8-8.2s3.7-7,7.7-7.8c3.9-0.9,6.4-0.5,10.9-2.7c4.5-2.1,3.7-4.3,8.6-5.9
	c4.8-1.6,8.9-3.6,11.6-2.5s3.4,4.5,6.1,2.9c2.7-1.6,8.9-8.7,13.4-8.7s4.3,2.3,8.4-0.9c4.1-3.2,5-12.5,8-13.5s3.7-0.9,7-1.1
	c3.2-0.2,5,0,8.7,1.4s4.3-3.2,6.2-6.4c2-3.2,0.5-4.8,5-8.4s6.4-5.2,9.4-6.6s3.4-3.9,5.9-6.6s5.3-5.2,7.8-9.1s2.5-10.5,1.2-9.4
	c-1.2,1.1-8.2,7.5-6.6,3.9c1.6-3.6,0.2-4.6,1.6-6.6c1.4-2,3.4-6.1,3.9-7.7c0.5-1.6,2,7.1,3.6,7.5s2.3-3.9,4.6-3.9s4.6,1.2,7.1-0.5
	c2.5-1.8,6.8-9.4,8.7-11.4c2-2,4.8-4.3,6.1-1.2c1.2,3,1.1,10,1.2,13.4c0.2,3.4,0,8.9,2.1,8.2c2.1-0.7,4.8,0,4.6-2.9
	s-2.1-10.3-0.2-8.6c2,1.8,5.7,8.9,8.2,10s2.7-1.1,6.2-1.6s3.6-3.4,6.2-1.1c2.7,2.3,4.3,5,4.3,8s-1.2,7.1,0.7,8.9
	c2,1.8,4.5,5.5,4.8,2.5c0.4-3,2.1-10.9,3.7-13.2C302.9,60.1,310.9,46.9,310.9,45.9z"/>
<path fill="#05245B" d="M310.9,35.2c-0.1-2.3-2.1-5,0-6.1c2.1-1.1,6.4-2.3,7.5-3c1.1-0.7,3.2-2,5.9-2s8.4-0.9,8.9,0s3.7-1.4,6.4,0.4
	s7.3,5.7,7.3,5.7s2.1-0.2,3.4-0.7c1.2-0.5,5.9,0.4,6.8,1.3c0.9,0.9,4.3,1.6,5.9,1.4c1.6-0.2,7,0.5,7.7,3s4.1,5.9,4.1,9.1
	s0.2,8.4-1.4,10.7c-1.6,2.3-2.9,2.1-3,4.8c-0.2,2.7-4.1,1.1-2,4.3c2.1,3.2,3,3.4,4.1,8c1.1,4.6,0.9,6.1,2.3,9.6
	c1.4,3.6-0.5,5.3,0,10c0.5,4.6-1.8,8-2.7,9.8c-0.9,1.8-2.9,4.5-3.6,7.1c-0.7,2.7-4.6,8.7-3.6,9.4c1.1,0.7,4.6,2.5,6.4,2.5
	s7.5-1.8,8.7,0s2,6.1,4.5,7s6.4-1.1,9,0.7c2.6,1.8,3.8,5.3,5.1,7.7c1.2,2.3,4.1,0.7,5.2,3.2c1.1,2.5,0,8.2,2.5,8.2s5.9-0.5,7.3,0
	c1.4,0.5,5.7,1.8,7.5,3.6s4.1,3.2,5.7,3c1.6-0.2,3.6,1.2,3.6,3.6s-1.2,5.5-0.9,7.5c0.3,2,6.1,6.2,8.2,6.2c2.1,0,4.3-3.2,7.3-1.8
	s4.6,2.7,4.1,5.5c-0.5,2.9-1.4,7.8-2.5,11.1c-1.1,3.2-1.1,6.4-1.8,8.2c-0.7,1.8-1.4,4.3,0,5.2c1.4,0.9,6.4,1.8,5.7,3.4
	c-0.7,1.6-4.3,4.1-4.3,6.8s-2.1,6.6-0.9,8.9c1.2,2.3,7.1,6.2,8,9.4c0.9,3.2,0.7,10.2,2.1,11.6c1.4,1.4,3.4,1.2,4.6,3.7
	s2.1,6.2,3.9,7.1s4.8-1.4,5.7,0s-0.4,2.9,1.2,3.9c1.6,1.1,10,4.8,12.1,5.3c2.1,0.5,6.2-3.4,8-2.3c1.8,1.1,4.8,5,6.4,4.6
	c1.6-0.4,2.5-5.3,4.3-7.5c1.8-2.1,12.7-7.5,10.9-7.5s-9.1,0.4-9.1-2c0-2.3,2.1-3,0.2-5.2c-1.9-2.2-5.9-4.8-3-5.2
	c2.9-0.4,4.3,3.4,6.6,0.5c2.3-2.9,1.1-5.3,4.3-5.5s5.3,0.9,7.5,2c2.1,1.1,3.6,2.3,3.4,4.8c-0.2,2.5-2.1,10.2,0,9.4s5.2-2.7,5.7-5.7
	s0.4-4.8,1.8-6.1s5.9-3.9,7.5-3.9s6.8,1.1,8.6,2.3s3.2,9.3,5.3,9.8s8.2,1.4,11.4,0.2s8.2-2,10.7-2.9s6.8-3.4,9.6-2.9s5,2,8,1.6
	s5.9,0.9,8.2-0.9c2.3-1.8,3.6-4.8,3.7-6.2c0.2-1.4-2.7-4.6-1.4-7.3c1.2-2.7,1.8-1.1,2.3-4.6c0.5-3.6,0-3.9,2-5.3
	c2-1.4,3.9-2.1,6.1-2s6.4,0.7,7.5,1.8s2.9,2.9,5.3,4.3c2.5,1.4,6.6,3.2,8.6,3.6c2,0.4,9.1,3.7,8.7,5.9c-0.4,2.1-4.5,8.2-4.3,10.3
	s1.8,4.8,3.2,5.2s2.5,1.4,2.5,3s-0.9,5.2,0,4.6c0.9-0.5,3.2-6.6,4.6-5.7s1.8,1.8,3.7,2.9s2.7,2.1,1.2,4.1s-6.2,0.4-7.3,2.7
	c-1.1,2.3-2.9,3.9-1.2,5c1.6,1.1,5-1.8,7.3-0.4c2.3,1.4-0.2,3.2,0.5,5.2s4.1,3,2.3,5.2s-1.2,5-1.8,6.4c-0.5,1.4-2.3,3.4-1.6,4.5
	c0.7,1.1,3.4,5,1.2,6.6c-2.1,1.6-4.8,3.2-7.1,5.9c-2.3,2.7-3.4,0.9-6.8,3c-3.4,2.1-1.8,3.6-3.9,3.9S631,301,631,302s-1.4,5,0.5,5.3
	s1.6,3.4,1.6,5.5c0,2.1,2.7,8.7,0,11.2s-5,5.2-4.5,6.1c0.5,0.9,3.2,11.1,6.2,11.4s4.8-4.3,7-3.6c2.2,0.7,7.1,0.6,9.6,3.6
	s12.7,7.5,14.8,8.7s8.7-2.3,9.1-1.2c0.4,1.1,4.1,4.5,2.5,5.2s-2.5,3.6-1.2,4.1c1.2,0.5,5.2-1.2,5.5,0c0.4,1.2,1.2,3.6,3,3.7
	c1.8,0.2,7.1,0.2,8.9,2.9c1.8,2.7,2.9,3.9,0.9,7.1s-6.4,5.5-6.2,8.7s-1.5,7.1-2.1,9.1s-2,3.6-1.1,6.1s5.5,3.4,8.6,3.6
	c3,0.2,3.3,3.4,5.9,4.1c2.5,0.7,5.9-0.4,6.6,1.1s1.1,4.3,2.7,4.8c1.6,0.5,5.3,0.5,6.8,1.2s0.2,2.3,2,2.3s1.6-1.2,5.7-1.2
	c4.1,0,6.2-0.9,10.7-1.4s6.8-1.1,8.4,0.5c1.6,1.6,1.4,7.5,1.6,9.3s1.4,3.4,0,5.3c-1.4,2-3.6,5.5-1.2,7s5.9,1.1,7.5,2.3
	c1.6,1.2,4.1,5.2,5.9,5.9c1.8,0.7,4.6,1.2,5.9,1.8c1.2,0.5,5,2.7,9.1,4.1c4.1,1.4,6.4,1.1,6.4,2.7c0,1.6-0.9,5,0.7,6.6
	c1.6,1.6,2.9,3.6,2.7,6.1s-2.5,3.6-1.8,6.4s2.7,3.9,0.7,5.9s-6.6,4.1-6.1,5.5c0.5,1.4,1.1,10,2.3,8.7c1.2-1.2,3.6-5.7,4.8-4.3
	s2.3,3.6,5,4.4s5.9-0.9,7.7,0c1.8,0.9,3,2.2,5.3,2.2s13.9-4.3,15.7-1.6c1.8,2.7,1.4,6.8,3,7.1c1.6,0.4,3.7,0.2,6.2,3
	c2.5,2.9,5.2,3.6,5.7,6.4c0.5,2.9,2.5,9.4,2.7,10.9c0.2,1.4,3.7-0.2,4.8,0s1.2,3,4.3,3.7s14.1,0.2,13.4,1.8s-4.8,7.8-2.3,9.1
	c2.5,1.2,12.8,1.8,15,1.8s3.4,1.8,6.6,0c3.2-1.8,3.4-4.1,7.7-4.1s8.4,0,10.3,1.6c2,1.6,5,2.7,3.2,4.5s-3.6,1.8-3.4,4.1
	s1.6,2.1,0,4.3s-4.6,3.6-2.7,5.7c2,2.1,4.6,0.9,6.6,0s5-1.1,7.1-1.1s5.7-1.8,8.4-0.5c2.7,1.2,3.2,2,3.2,4.8c0,2.9,0.4,5,0,8.4
	s-0.5,7.1,3.9,5.9c4.5-1.2,6.6-2,8.7-1.2s1.8,1.4,5.3,0.2c3.6-1.2,6.2-4.5,7-2s-1.6,4.3,0.9,8.6s2.9,6.4,4.6,7.7
	c1.8,1.2,5.3,2.7,7.7,4.3s3.2,4.5,4.6,6.6s0.4,2.3-1.8,4.8s-3.9,1.2-2.7,5.2c1.2,3.9,1.2,5,2.9,6.8c1.6,1.8,2.1,2.9,4.8,3
	c2.7,0.2,8.6-3,5.7-3.6c-2.9-0.5-6.6-0.7-4.6-3.7s0.4-7,1.8-7.3c1.4-0.4,4.1,1.8,5.5,0.5c1.4-1.2,2.7-3.7,3.2-1.6
	c0.5,2.1-1.1,4.5,1.4,5.7s3.2,3.7,5,2c1.8-1.8,2.5-5.9,4.6-4.3s4.5,4.5,7.7,6.8s6.6,0.7,9.1,2.3s4.5,2.5,7.8,2s6.1-2.1,4.3,0.5
	c-1.8,2.7-9.3,5.2-7.3,8c2,2.9,2.9,2.5,2.7,5.9s-3.4,6.2-0.2,9.1c3.2,2.9,9.1,5.5,7.7,2.9c-1.4-2.7-5.7-8.6-3.2-10.2
	c2.5-1.6,5.2-1.8,7-2s3.6-1.6,6.2-1.6c2.7,0,1.4,2.7,3.7,3c2.3,0.4,3-1.4,3.6,1.6s0.5,7.3,3.2,7.7s6.6-3,8.6-2.3s4.3,5,7.1,6.6
	c2.9,1.6,7.7,1.4,8.9,1.2c1.2-0.2,6.4,0,5.3-2.1s-2.2-4.5,0.1-3.2c2.4,1.2,2.7,1.6,5.2,3.9s3,4.1,5.9,5.9c2.9,1.8,3,3.9,6.2,4.5
	c3.2,0.5,5.3-5.3,6.1-2.5c0.7,2.9,0.2,8.4,2.3,9.4c2.1,1.1,1.2,2.1,2.3,4.8c1.1,2.7-1.2,2,0,6.2c1.2,4.3,1.8,8.7-1.8,10.2
	c-3.6,1.4-6.8,2.9-7.8,4.5c-1.1,1.6-1.4,3.6-4.5,3.7c-3,0.2-2-1.1-5,0.7s-4.6,2.3-7.3,2.3c-2.7,0-5.7,0.5-8.4,2.5
	c-2.7,2-4.6,4.3-7.3,5.7c-2.7,1.4-6.2,3.6-8.7,5.7s-1.8,3.9-4.6,2.7c-2.9-1.2-2.5-2.1-8-2.1s-4.1-3.6-5-5.7
	c-0.9-2.1-2.3-1.8-3.4-4.8c-1.1-3-0.7-4.8-3.9-4.8s-6.6-0.4-8,0s0,2.7-3.6,2.3s-9.4-2.9-10.3-2.5c-0.9,0.4-3,3.2-4.1,3.2
	s-3.4,0.5-5.9,2.3s-3.7,3.9-6.6,4.8c-2.9,0.9-7.7,2.5-10.5,1.6s-7.1-5-8.2-4.5c-1.1,0.5-3.2,1.4-5,1.4s-4.8,1.2-6.4-0.2
	s-0.4-3.7-4.5-3.9s-7.7,0.4-10.2,1.2c-2.5,0.9-5,0.9-8.7,2.3s-5.5,2-7.8,0.9s-4.5-2.1-5-0.9s-0.7,3.2-2.5,3.2s-1.4-0.9-5.5-0.9
	s-4.1-1.4-8.2-0.4c-4.1,1.1-5.5,5.3-7.1,7.7s-7.8,5.6-6.2,7.4c1.6,1.8,6.1,2.7,6.1,4.3s-0.4,2,1.6,3.4s5.9,0.7,6.1,2.7
	s0.9,5.2,1.6,7.5s1.4,6.1,0.2,7.8c-1.2,1.8-4.8,5.5-6.1,7.3c-1.2,1.8-2.1,2-6.4,3.2c-4.3,1.2-5.7,3.2-7.3,0s-1.4-6.6-3.4-7.7
	c-2-1.1-3.4-0.5-5.9,0.9s-3.6,2.9-6.6,2.5s-2.9-2.9-7.1-3c-4.3-0.2-5.2,2.7-8.2,3.2s-2.9-6.2-4.1-5c-1.2,1.2-2,6.4-5.2,7.7
	c-3.2,1.2-10.5,1.9-11.2,3.2s0.9,8.1,0.9,10.2s1.8,6.6,2.7,8s1.4,4.5,0.2,5.7s-3.6-0.4-5.5,1.6c-2,2-3.4,3.7-4.6,3.7s-3.6-3.7-6.2-3
	c-2.7,0.7-4.8,4.1-7.3,5.7c-2.5,1.6-7.1,3.4-11.1,5.7s-7.1,5.5-7,7.3c0.2,1.8,2,3.2,0,4.8s-0.7,5.2-2.7,4.8s-2.7-2-6.4,1.1
	s-4.5,4.3-6.2,4.8c-1.8,0.5-5.2-1.1-5.3,2.1c-0.2,3.2,2.9,3.9,2.5,6.8c-0.4,2.9-3,6.1-3.2,7.1c-0.2,1.1,1.8,2.9-0.7,2.7
	s-2.5-3.6-5.3-3.6c-2.9,0-6.4-3-8.4-0.7s-4.1,5.5-3.4,8.2c0.7,2.7,3,5.2,1.4,7.5s-1.4,3.7-3.4,4.1c-2,0.4-3.2-4.1-5.9-2.9
	c-2.7,1.2-6.4,1.8-8.2,1.8s-2.7-2-5.2-4.3s-2.1-2.7-5.9-2.7s-2.9-3.9-7.7-2.5s-9.4,2.9-10.2,1.1c-0.7-1.8,0.5-2.7,2-5.5
	s3.2-7.8,1.2-10c-2-2.1-5.5-0.7-8-2.9c-2.5-2.1-0.7-3.9-3.6-6.6s-5-0.5-6.4-3.7s-2.5-3.2-2-6.6s-1.1-3.6-4.3-3.9
	c-3.2-0.4-6.8,1.8-8-0.4s-3.6-5.9-3.6-7s4.5-4.8,1.4-5.5s-3.4-6.6-6.2-6.6c-2.9,0-6.2-4.1-8.2-4.3s-2.3,1.1-4.3,0.9
	c-2-0.2-3.9-2.5-6.2-1.8s-6.6,2.3-8,4.3s-1.6,7.8-2.9,9.4c-1.2,1.6-6.2,0.7-8.4,0.7s-8.4-1.1-11.2,0c-2.9,1.1-5.5,2.9-8.7,3.6
	c-3.2,0.7-5.9,0.7-8.6,1.2c-2.7,0.5-6.2,0.7-7.7,2.7c-1.4,2,0,4.1-2.1,4.5s-7.8-2.5-8.6,0.2s-4.3,8.2-2,8.2s9.3,0.5,11.1,0.2
	c1.8-0.4,7.3-2.9,6.2,0s-3.4,4.8-6.1,7.3c-2.7,2.5-5.7,5.2-7.1,7c-1.4,1.8-0.5,2.1-3.4,3.2c-2.9,1.1-6.2,0.4-8.4,2.7
	c-2.1,2.3-3,6.8-3.4,8.6s-0.2,3.9-3.2,5.7s-4.3,1.4-6.8,2.5s-10.9,3.2-8.6,3.7s9.6-0.5,8.6,1.4c-1.1,2-8,6.4-7,8.9
	c1.1,2.5,3.2,5.5,2.9,7.5c-0.4,2-3,3.4,0.2,4.6c3.2,1.2,4.5-0.2,6.8,2.9c2.3,3,2.1,7.7,1.8,9.3c-0.4,1.6-0.4,3.4-3.4,2.7
	s-7.1-2.9-13.5-3.2c-6.4-0.4-4.6-1.4-9.3-0.4c-4.6,1.1-15.3-1.8-16,0.7s-2.7,6.1-5,5.3s-7-8.6-8.9-8.7c-2-0.2-11.1-0.4-12.3-0.2
	s-4.5,1.6-6.8,2.5s-5.5,2-6.1,3.6c-0.5,1.6,0.9,4.8-1.8,5.5c-2.7,0.7-5.3,1.1-8.2,1.1s-8.9-5.9-10.3-4.8c-1.4,1.1-2.9,8.2-3.7,8.7
	c-0.9,0.5-10.3-4.1-10.7-2.3s0.4,15-2.1,15.7s-5.3,0-6.8-2.3c-1.4-2.3,0.4-7.8-2.1-7.8s-10.3,2.7-12.3,0.9s-2.7-1.4-1.2-4.8
	c1.4-3.4,6.6-3,8.4-5s4.5-6.1,2.7-6.2s-9.8-0.4-12.5-0.5c-2.7-0.2-5.7-1.4-7.7-1.4s-4.6,2.9-6.4,3c-1.8,0.2-6.2-5.5-8.4-7.7
	c-2.1-2.1-4.5-8.2-8.2-7.7s-6.1,3.9-9.3,6.2c-3.2,2.3-6.4,7.5-8,9.8c-1.6,2.3-3.2,3-2.5,4.6s5.9,7.7,7.7,7.7c1.8,0,8.6-1.1,7.7,1.6
	c-0.9,2.7-1.2,9.4-2.3,10.9s-3.2,1.8-5.5,1.6s-3.4-2.7-7.1-2.9s-7.8,1.1-10.9,1.1c-3.1,0-4.3-2.1-6.6-2.1c-2.3,0-6.6-0.2-6.6,1.6
	s1.4,5-1.1,5.7s-7.7,2.3-10.3,0c-2.7-2.3-5.5-3.7-7.5-7c-2-3.2-1.8-7-6.6-7.8c-4.8-0.9-7.3-4.6-11.2-5.5c-3.9-0.9-5.9-2.5-10.3-1.2
	c-4.5,1.2-7,7.8-7.5,9.1c-0.5,1.2-0.2,4.8-3.6,4.8c-3.4,0-7.5-2.3-12.8-3s-10-2.9-12.5-3.4s-9.1-2-9.6-3.4c-0.5-1.4-1.2-2.9,0-4.8
	c1.2-2,3.6-3,3.9-6.8s0-6.8,0-10.5s-0.5-9.3-0.4-10.5c0.2-1.2,2.7-2.9,4.5-1.1c1.8,1.8,5.5,7.7,7.8,9.1c2.3,1.4,4.3,2.3,6.1,0.9
	c1.8-1.4,7.3-1.8,7.5-4.8s1.2-7.1-1.1-7.8c-2.3-0.7-8.6-3.9-10.9-4.3c-2.3-0.4-7,0-9.4-2.1c-2.4-2.1-8.9-5-8.7-7.8s2.1-5.5,1.8-8.6
	c-0.4-3,0.7-8.7-1.8-9.8c-2.5-1.1-5.2-1.8-8.4-1.8s-10,0.2-10.7-0.9c-0.7-1.1-1.4-2-5-2.9s-7.3,0.4-8.7-2.5s-2-1.6-2.9-8.2
	c-0.9-6.6,3.2-7-2.1-8.2s-13.2-2.1-11.8-4.5s5.7-6.1,8.6-8.2s4.5-4.1,6.8-6.1s3.6-4.1,2.3-7.1c-1.2-3-4.5-3.6-7.8-2.5
	c-3.4,1.1-7.3,1.4-7.7,0s0.7-6.6-0.2-9.4c-0.9-2.9-0.5-6.2-3-7.8s-3.9-2.3-8.2-3.6c-4.3-1.2-5.3-3-5.3-5.9s1.2-2.9-2.7-5
	s-5.2-1.2-6.8-5.5s-0.2-6.8-4.8-7.3s-8.2-0.5-12.7-0.5s-7.7-0.2-9.8-2.3s0.7-6.8,0-9.4c-0.7-2.7-0.4-2.3-2.5-4.8s-7.5-3.7-7-7.7
	c0.5-3.9,0.8-6.1,0-8.9s0.6-5.9-3.3-5.9c-3.9,0-7.3-1.1-9.4-3.4c-2.1-2.3,0-4.8-3.9-4.8c-3.9,0-5.7,0.9-8.7-0.9
	c-3-1.8-7.5-12.8-6.8-14.4c0.7-1.6,3-3.7,5-3.6c2,0.2,7.1,4.3,8.7,2.5s0.5-4.1,3-5.3s7.1-4.3,8-4.3s4.8-1.4,5.3-3.9
	s-0.9-7.8,0.5-9.8s2.7-1.8,2.7-4.3s-2.3-3.4-0.5-5.7s8.6-7.7,8.4-9.6c-0.2-2-6.2-11.2-5.7-13.5s4.5-4.5,4.5-6.1s-3-3.6-1.1-6.1
	c2-2.5,5.5-4.8,2.7-6.2s-5.9-1.4-5.7-5s6.2-2,6.4-6.2s-0.9-10-1.6-11.2c-0.7-1.2-10.9-5.2-11.6-8.9s-1.6-7,0.7-10.7s7.5-2.1,8-7.7
	c0.5-5.5,1.4-7.1-3.4-8.9c-4.8-1.8-7.1-2.9-8-5.5c-0.9-2.7,0.2-8.6-3.4-11.8c-3.6-3.2-3.6-4.5-8.2-7.8c-4.6-3.4-6.8-2.3-7.7-6.6
	c-0.9-4.3,1.8-5-1.8-6.1c-3.6-1.1-8-9.3-8.2-5.9c-0.2,3.4,2.3,5.2-2.1,5.9c-4.5,0.7-11.1,0.2-14.4,0.4c-3.4,0.2-8,0.5-10,2.1
	c-2,1.6-7.5,7.7-8.6,5.2s1.1-4.5-1.8-6.6c-2.9-2.1-5.7-4.8-8.2-5.3s-3.4-2-1.6-3.4c1.8-1.4,9.3-4.8,9.6-9.1c0.4-4.3-1.4-6.9,0-8.7
	c1.4-1.8,2.9-5.6,5.7-6.8c2.9-1.2,5.5-0.7,6.6,0.2s1.4-2.7,1.6-6.2s-1.1-6.8,0.5-8.9c1.6-2.1,1.6-6.4,3.9-7.5c2.3-1.1,7.8-3,6.6-4.8
	c-1.2-1.8-6.2-7.3-10.3-7.5c-4.1-0.2-8.6,1.4-11.4,0.2c-2.9-1.2-2.9-3.7-5.2-2.9c-2.3,0.9-2.5,3.2-5.9,2.3c-3.4-0.9-10.3-3-14.3-3.9
	c-3.9-0.9-4.1-1.2-8.2-2.1c-4.1-0.9-7-4.5-10.5-3.7s-6.4,2.7-9.3,2.9s-6.2-4.8-6.6-6.8s0.4-8,0-11.2s-4.1-10-5.5-11.2
	s2.7-7.8,2.9-10.7s2-4.8,0.7-8.4c-1.3-3.6-3.7-5.3-5-6.6c-1.3-1.3-4.5-5.5-3.2-8.6c1.2-3,2.3-9.6,4.6-10.5c2.3-0.9,4.3,0.4,7.1-2
	c2.9-2.3,4.3-4.8,6.1-4.8s10.5,3,11.2,0c0.7-3,1.7-9.8,4.4-11.6s4.9,0.2,5.2-3.4c0.3-3.6-0.2-4.8,0.4-6.4c0.5-1.6,2.5-2.3-0.2-4.6
	c-2.7-2.3-4.5-5-6.2-7.7c-1.8-2.7-8-3.4-7.3-8.2c0.7-4.8,1.4-8,3.4-10.9c2-2.9,6.1-6.1,4.8-9.1c-1.4-3,1.1-5.9-4-5.9
	s-10.3-0.7-9.4-3.2s5.5-5.2,7.7-9.3c2.1-4.1,5.9-8.4,7.5-12.7s4.6-10.7,6.4-12.3c1.8-1.6,4.1-3.7,7.1-4.1s7-2.3,6.6-5
	s-1.6-5-4.8-6.1s-7.3-3-7.8-5.5s1.1-6.8,1.6-10.2s1.1-5.5-0.5-7.5s-6.1-3.9-3.7-6.2s3.9-2.7,4.3-4.6c0.4-2-1.2-4.6,2.3-4.6
	c3.6,0,5,2,9.1,0s2.1-4.5,6.8-3.7s5.3,1.6,7.5-0.9c2.1-2.5,0-7.1,2.7-8s4.3-0.2,7.1-2.3c2.9-2.1,1.2-5.2,5.7-7s7.7-3.6,7.8-7
	c0.2-3.4-0.9-6.4,0.7-10.5s3.6-5.7,4.8-8.2s3.7-7,7.7-7.8c3.9-0.9,6.4-0.5,10.9-2.7c4.5-2.1,3.7-4.3,8.6-5.9
	c4.8-1.6,8.9-3.6,11.6-2.5s3.4,4.5,6.1,2.9c2.7-1.6,8.9-8.7,13.4-8.7s4.3,2.3,8.4-0.9c4.1-3.2,5-12.5,8-13.5c3-1.1,3.7-0.9,7-1.1
	c3.2-0.2,5,0,8.7,1.4s4.3-3.2,6.2-6.4c2-3.2,0.5-4.8,5-8.4s6.4-5.2,9.4-6.6s3.4-3.9,5.9-6.6s5.3-5.2,7.8-9.1s2.5-10.5,1.2-9.4
	c-1.2,1.1-8.2,7.5-6.6,3.9c1.6-3.6,0.2-4.6,1.6-6.6s3.4-6.1,3.9-7.7c0.5-1.6,2,7.1,3.6,7.5s2.3-3.9,4.6-3.9s4.6,1.2,7.1-0.5
	c2.5-1.8,6.8-9.4,8.7-11.4c2-2,4.8-4.3,6.1-1.2c1.2,3,1.1,10,1.2,13.4c0.2,3.4,0,8.9,2.1,8.2c2.1-0.7,4.8,0,4.6-2.9
	s-2.1-10.3-0.2-8.6c2,1.8,5.7,8.9,8.2,10s2.7-1.1,6.2-1.6c3.6-0.5,3.6-3.4,6.2-1.1c2.7,2.3,4.3,5,4.3,8s-1.2,7.1,0.7,8.9
	c2,1.8,4.5,5.5,4.8,2.5c0.4-3,2.1-10.9,3.7-13.2C302.9,49.4,310.9,36.2,310.9,35.2z"/>
<path fill="none" stroke="#0078FF" stroke-width="2" stroke-miterlimit="10" stroke-dasharray="2" d="M310.9,35.2
	c-0.1-2.3-2.1-5,0-6.1c2.1-1.1,6.4-2.3,7.5-3c1.1-0.7,3.2-2,5.9-2s8.4-0.9,8.9,0s3.7-1.4,6.4,0.4s7.3,5.7,7.3,5.7s2.1-0.2,3.4-0.7
	c1.2-0.5,5.9,0.4,6.8,1.3c0.9,0.9,4.3,1.6,5.9,1.4c1.6-0.2,7,0.5,7.7,3s4.1,5.9,4.1,9.1s0.2,8.4-1.4,10.7c-1.6,2.3-2.9,2.1-3,4.8
	c-0.2,2.7-4.1,1.1-2,4.3c2.1,3.2,3,3.4,4.1,8c1.1,4.6,0.9,6.1,2.3,9.6c1.4,3.6-0.5,5.3,0,10c0.5,4.6-1.8,8-2.7,9.8
	c-0.9,1.8-2.9,4.5-3.6,7.1c-0.7,2.7-4.6,8.7-3.6,9.4c1.1,0.7,4.6,2.5,6.4,2.5s7.5-1.8,8.7,0s2,6.1,4.5,7s6.4-1.1,9,0.7
	c2.6,1.8,3.8,5.3,5.1,7.7c1.2,2.3,4.1,0.7,5.2,3.2c1.1,2.5,0,8.2,2.5,8.2s5.9-0.5,7.3,0c1.4,0.5,5.7,1.8,7.5,3.6s4.1,3.2,5.7,3
	c1.6-0.2,3.6,1.2,3.6,3.6s-1.2,5.5-0.9,7.5c0.3,2,6.1,6.2,8.2,6.2c2.1,0,4.3-3.2,7.3-1.8s4.6,2.7,4.1,5.5c-0.5,2.9-1.4,7.8-2.5,11.1
	c-1.1,3.2-1.1,6.4-1.8,8.2c-0.7,1.8-1.4,4.3,0,5.2c1.4,0.9,6.4,1.8,5.7,3.4c-0.7,1.6-4.3,4.1-4.3,6.8s-2.1,6.6-0.9,8.9
	c1.2,2.3,7.1,6.2,8,9.4c0.9,3.2,0.7,10.2,2.1,11.6c1.4,1.4,3.4,1.2,4.6,3.7s2.1,6.2,3.9,7.1s4.8-1.4,5.7,0s-0.4,2.9,1.2,3.9
	c1.6,1.1,10,4.8,12.1,5.3c2.1,0.5,6.2-3.4,8-2.3c1.8,1.1,4.8,5,6.4,4.6c1.6-0.4,2.5-5.3,4.3-7.5c1.8-2.1,12.7-7.5,10.9-7.5
	s-9.1,0.4-9.1-2c0-2.3,2.1-3,0.2-5.2c-1.9-2.2-5.9-4.8-3-5.2c2.9-0.4,4.3,3.4,6.6,0.5c2.3-2.9,1.1-5.3,4.3-5.5s5.3,0.9,7.5,2
	c2.1,1.1,3.6,2.3,3.4,4.8c-0.2,2.5-2.1,10.2,0,9.4s5.2-2.7,5.7-5.7s0.4-4.8,1.8-6.1s5.9-3.9,7.5-3.9s6.8,1.1,8.6,2.3
	s3.2,9.3,5.3,9.8s8.2,1.4,11.4,0.2s8.2-2,10.7-2.9s6.8-3.4,9.6-2.9s5,2,8,1.6s5.9,0.9,8.2-0.9c2.3-1.8,3.6-4.8,3.7-6.2
	c0.2-1.4-2.7-4.6-1.4-7.3c1.2-2.7,1.8-1.1,2.3-4.6c0.5-3.6,0-3.9,2-5.3c2-1.4,3.9-2.1,6.1-2s6.4,0.7,7.5,1.8s2.9,2.9,5.3,4.3
	c2.5,1.4,6.6,3.2,8.6,3.6c2,0.4,9.1,3.7,8.7,5.9c-0.4,2.1-4.5,8.2-4.3,10.3s1.8,4.8,3.2,5.2s2.5,1.4,2.5,3s-0.9,5.2,0,4.6
	c0.9-0.5,3.2-6.6,4.6-5.7s1.8,1.8,3.7,2.9s2.7,2.1,1.2,4.1s-6.2,0.4-7.3,2.7c-1.1,2.3-2.9,3.9-1.2,5c1.6,1.1,5-1.8,7.3-0.4
	c2.3,1.4-0.2,3.2,0.5,5.2s4.1,3,2.3,5.2s-1.2,5-1.8,6.4c-0.5,1.4-2.3,3.4-1.6,4.5c0.7,1.1,3.4,5,1.2,6.6c-2.1,1.6-4.8,3.2-7.1,5.9
	c-2.3,2.7-3.4,0.9-6.8,3c-3.4,2.1-1.8,3.6-3.9,3.9S631,301,631,302s-1.4,5,0.5,5.3s1.6,3.4,1.6,5.5c0,2.1,2.7,8.7,0,11.2
	s-5,5.2-4.5,6.1c0.5,0.9,3.2,11.1,6.2,11.4s4.8-4.3,7-3.6c2.2,0.7,7.1,0.6,9.6,3.6s12.7,7.5,14.8,8.7s8.7-2.3,9.1-1.2
	c0.4,1.1,4.1,4.5,2.5,5.2s-2.5,3.6-1.2,4.1c1.2,0.5,5.2-1.2,5.5,0c0.4,1.2,1.2,3.6,3,3.7c1.8,0.2,7.1,0.2,8.9,2.9
	c1.8,2.7,2.9,3.9,0.9,7.1s-6.4,5.5-6.2,8.7s-1.5,7.1-2.1,9.1s-2,3.6-1.1,6.1s5.5,3.4,8.6,3.6c3,0.2,3.3,3.4,5.9,4.1
	c2.5,0.7,5.9-0.4,6.6,1.1s1.1,4.3,2.7,4.8c1.6,0.5,5.3,0.5,6.8,1.2s0.2,2.3,2,2.3s1.6-1.2,5.7-1.2c4.1,0,6.2-0.9,10.7-1.4
	s6.8-1.1,8.4,0.5c1.6,1.6,1.4,7.5,1.6,9.3s1.4,3.4,0,5.3c-1.4,2-3.6,5.5-1.2,7s5.9,1.1,7.5,2.3c1.6,1.2,4.1,5.2,5.9,5.9
	c1.8,0.7,4.6,1.2,5.9,1.8c1.2,0.5,5,2.7,9.1,4.1c4.1,1.4,6.4,1.1,6.4,2.7c0,1.6-0.9,5,0.7,6.6c1.6,1.6,2.9,3.6,2.7,6.1
	s-2.5,3.6-1.8,6.4s2.7,3.9,0.7,5.9s-6.6,4.1-6.1,5.5c0.5,1.4,1.1,10,2.3,8.7c1.2-1.2,3.6-5.7,4.8-4.3s2.3,3.6,5,4.4s5.9-0.9,7.7,0
	c1.8,0.9,3,2.2,5.3,2.2s13.9-4.3,15.7-1.6c1.8,2.7,1.4,6.8,3,7.1c1.6,0.4,3.7,0.2,6.2,3c2.5,2.9,5.2,3.6,5.7,6.4
	c0.5,2.9,2.5,9.4,2.7,10.9c0.2,1.4,3.7-0.2,4.8,0s1.2,3,4.3,3.7s14.1,0.2,13.4,1.8s-4.8,7.8-2.3,9.1c2.5,1.2,12.8,1.8,15,1.8
	s3.4,1.8,6.6,0c3.2-1.8,3.4-4.1,7.7-4.1s8.4,0,10.3,1.6c2,1.6,5,2.7,3.2,4.5s-3.6,1.8-3.4,4.1s1.6,2.1,0,4.3s-4.6,3.6-2.7,5.7
	c2,2.1,4.6,0.9,6.6,0s5-1.1,7.1-1.1s5.7-1.8,8.4-0.5c2.7,1.2,3.2,2,3.2,4.8c0,2.9,0.4,5,0,8.4s-0.5,7.1,3.9,5.9
	c4.5-1.2,6.6-2,8.7-1.2s1.8,1.4,5.3,0.2c3.6-1.2,6.2-4.5,7-2s-1.6,4.3,0.9,8.6s2.9,6.4,4.6,7.7c1.8,1.2,5.3,2.7,7.7,4.3
	s3.2,4.5,4.6,6.6s0.4,2.3-1.8,4.8s-3.9,1.2-2.7,5.2c1.2,3.9,1.2,5,2.9,6.8c1.6,1.8,2.1,2.9,4.8,3c2.7,0.2,8.6-3,5.7-3.6
	c-2.9-0.5-6.6-0.7-4.6-3.7s0.4-7,1.8-7.3c1.4-0.4,4.1,1.8,5.5,0.5c1.4-1.2,2.7-3.7,3.2-1.6c0.5,2.1-1.1,4.5,1.4,5.7s3.2,3.7,5,2
	c1.8-1.8,2.5-5.9,4.6-4.3s4.5,4.5,7.7,6.8s6.6,0.7,9.1,2.3s4.5,2.5,7.8,2s6.1-2.1,4.3,0.5c-1.8,2.7-9.3,5.2-7.3,8
	c2,2.9,2.9,2.5,2.7,5.9s-3.4,6.2-0.2,9.1c3.2,2.9,9.1,5.5,7.7,2.9c-1.4-2.7-5.7-8.6-3.2-10.2c2.5-1.6,5.2-1.8,7-2s3.6-1.6,6.2-1.6
	c2.7,0,1.4,2.7,3.7,3c2.3,0.4,3-1.4,3.6,1.6s0.5,7.3,3.2,7.7s6.6-3,8.6-2.3s4.3,5,7.1,6.6c2.9,1.6,7.7,1.4,8.9,1.2
	c1.2-0.2,6.4,0,5.3-2.1s-2.2-4.5,0.1-3.2c2.4,1.2,2.7,1.6,5.2,3.9s3,4.1,5.9,5.9c2.9,1.8,3,3.9,6.2,4.5c3.2,0.5,5.3-5.3,6.1-2.5
	c0.7,2.9,0.2,8.4,2.3,9.4c2.1,1.1,1.2,2.1,2.3,4.8c1.1,2.7-1.2,2,0,6.2c1.2,4.3,1.8,8.7-1.8,10.2c-3.6,1.4-6.8,2.9-7.8,4.5
	c-1.1,1.6-1.4,3.6-4.5,3.7c-3,0.2-2-1.1-5,0.7s-4.6,2.3-7.3,2.3c-2.7,0-5.7,0.5-8.4,2.5c-2.7,2-4.6,4.3-7.3,5.7
	c-2.7,1.4-6.2,3.6-8.7,5.7s-1.8,3.9-4.6,2.7c-2.9-1.2-2.5-2.1-8-2.1s-4.1-3.6-5-5.7c-0.9-2.1-2.3-1.8-3.4-4.8
	c-1.1-3-0.7-4.8-3.9-4.8s-6.6-0.4-8,0s0,2.7-3.6,2.3s-9.4-2.9-10.3-2.5c-0.9,0.4-3,3.2-4.1,3.2s-3.4,0.5-5.9,2.3s-3.7,3.9-6.6,4.8
	c-2.9,0.9-7.7,2.5-10.5,1.6s-7.1-5-8.2-4.5c-1.1,0.5-3.2,1.4-5,1.4s-4.8,1.2-6.4-0.2s-0.4-3.7-4.5-3.9s-7.7,0.4-10.2,1.2
	c-2.5,0.9-5,0.9-8.7,2.3s-5.5,2-7.8,0.9s-4.5-2.1-5-0.9s-0.7,3.2-2.5,3.2s-1.4-0.9-5.5-0.9s-4.1-1.4-8.2-0.4
	c-4.1,1.1-5.5,5.3-7.1,7.7s-7.8,5.6-6.2,7.4c1.6,1.8,6.1,2.7,6.1,4.3s-0.4,2,1.6,3.4s5.9,0.7,6.1,2.7s0.9,5.2,1.6,7.5
	s1.4,6.1,0.2,7.8c-1.2,1.8-4.8,5.5-6.1,7.3c-1.2,1.8-2.1,2-6.4,3.2c-4.3,1.2-5.7,3.2-7.3,0s-1.4-6.6-3.4-7.7c-2-1.1-3.4-0.5-5.9,0.9
	s-3.6,2.9-6.6,2.5s-2.9-2.9-7.1-3c-4.3-0.2-5.2,2.7-8.2,3.2s-2.9-6.2-4.1-5c-1.2,1.2-2,6.4-5.2,7.7c-3.2,1.2-10.5,1.9-11.2,3.2
	s0.9,8.1,0.9,10.2s1.8,6.6,2.7,8s1.4,4.5,0.2,5.7s-3.6-0.4-5.5,1.6c-2,2-3.4,3.7-4.6,3.7s-3.6-3.7-6.2-3c-2.7,0.7-4.8,4.1-7.3,5.7
	c-2.5,1.6-7.1,3.4-11.1,5.7s-7.1,5.5-7,7.3c0.2,1.8,2,3.2,0,4.8s-0.7,5.2-2.7,4.8s-2.7-2-6.4,1.1s-4.5,4.3-6.2,4.8
	c-1.8,0.5-5.2-1.1-5.3,2.1c-0.2,3.2,2.9,3.9,2.5,6.8c-0.4,2.9-3,6.1-3.2,7.1c-0.2,1.1,1.8,2.9-0.7,2.7s-2.5-3.6-5.3-3.6
	c-2.9,0-6.4-3-8.4-0.7s-4.1,5.5-3.4,8.2c0.7,2.7,3,5.2,1.4,7.5s-1.4,3.7-3.4,4.1c-2,0.4-3.2-4.1-5.9-2.9c-2.7,1.2-6.4,1.8-8.2,1.8
	s-2.7-2-5.2-4.3s-2.1-2.7-5.9-2.7s-2.9-3.9-7.7-2.5s-9.4,2.9-10.2,1.1c-0.7-1.8,0.5-2.7,2-5.5s3.2-7.8,1.2-10c-2-2.1-5.5-0.7-8-2.9
	c-2.5-2.1-0.7-3.9-3.6-6.6s-5-0.5-6.4-3.7s-2.5-3.2-2-6.6s-1.1-3.6-4.3-3.9c-3.2-0.4-6.8,1.8-8-0.4s-3.6-5.9-3.6-7s4.5-4.8,1.4-5.5
	s-3.4-6.6-6.2-6.6c-2.9,0-6.2-4.1-8.2-4.3s-2.3,1.1-4.3,0.9c-2-0.2-3.9-2.5-6.2-1.8s-6.6,2.3-8,4.3s-1.6,7.8-2.9,9.4
	c-1.2,1.6-6.2,0.7-8.4,0.7s-8.4-1.1-11.2,0c-2.9,1.1-5.5,2.9-8.7,3.6c-3.2,0.7-5.9,0.7-8.6,1.2c-2.7,0.5-6.2,0.7-7.7,2.7
	c-1.4,2,0,4.1-2.1,4.5s-7.8-2.5-8.6,0.2s-4.3,8.2-2,8.2s9.3,0.5,11.1,0.2c1.8-0.4,7.3-2.9,6.2,0s-3.4,4.8-6.1,7.3
	c-2.7,2.5-5.7,5.2-7.1,7c-1.4,1.8-0.5,2.1-3.4,3.2c-2.9,1.1-6.2,0.4-8.4,2.7c-2.1,2.3-3,6.8-3.4,8.6s-0.2,3.9-3.2,5.7
	s-4.3,1.4-6.8,2.5s-10.9,3.2-8.6,3.7s9.6-0.5,8.6,1.4c-1.1,2-8,6.4-7,8.9c1.1,2.5,3.2,5.5,2.9,7.5c-0.4,2-3,3.4,0.2,4.6
	c3.2,1.2,4.5-0.2,6.8,2.9c2.3,3,2.1,7.7,1.8,9.3c-0.4,1.6-0.4,3.4-3.4,2.7s-7.1-2.9-13.5-3.2c-6.4-0.4-4.6-1.4-9.3-0.4
	c-4.6,1.1-15.3-1.8-16,0.7s-2.7,6.1-5,5.3s-7-8.6-8.9-8.7c-2-0.2-11.1-0.4-12.3-0.2s-4.5,1.6-6.8,2.5s-5.5,2-6.1,3.6
	c-0.5,1.6,0.9,4.8-1.8,5.5c-2.7,0.7-5.3,1.1-8.2,1.1s-8.9-5.9-10.3-4.8c-1.4,1.1-2.9,8.2-3.7,8.7c-0.9,0.5-10.3-4.1-10.7-2.3
	s0.4,15-2.1,15.7s-5.3,0-6.8-2.3c-1.4-2.3,0.4-7.8-2.1-7.8s-10.3,2.7-12.3,0.9s-2.7-1.4-1.2-4.8c1.4-3.4,6.6-3,8.4-5
	s4.5-6.1,2.7-6.2s-9.8-0.4-12.5-0.5c-2.7-0.2-5.7-1.4-7.7-1.4s-4.6,2.9-6.4,3c-1.8,0.2-6.2-5.5-8.4-7.7c-2.1-2.1-4.5-8.2-8.2-7.7
	s-6.1,3.9-9.3,6.2c-3.2,2.3-6.4,7.5-8,9.8c-1.6,2.3-3.2,3-2.5,4.6s5.9,7.7,7.7,7.7c1.8,0,8.6-1.1,7.7,1.6c-0.9,2.7-1.2,9.4-2.3,10.9
	s-3.2,1.8-5.5,1.6s-3.4-2.7-7.1-2.9s-7.8,1.1-10.9,1.1c-3.1,0-4.3-2.1-6.6-2.1c-2.3,0-6.6-0.2-6.6,1.6s1.4,5-1.1,5.7
	s-7.7,2.3-10.3,0c-2.7-2.3-5.5-3.7-7.5-7c-2-3.2-1.8-7-6.6-7.8c-4.8-0.9-7.3-4.6-11.2-5.5c-3.9-0.9-5.9-2.5-10.3-1.2
	c-4.5,1.2-7,7.8-7.5,9.1c-0.5,1.2-0.2,4.8-3.6,4.8c-3.4,0-7.5-2.3-12.8-3s-10-2.9-12.5-3.4s-9.1-2-9.6-3.4c-0.5-1.4-1.2-2.9,0-4.8
	c1.2-2,3.6-3,3.9-6.8s0-6.8,0-10.5s-0.5-9.3-0.4-10.5c0.2-1.2,2.7-2.9,4.5-1.1c1.8,1.8,5.5,7.7,7.8,9.1c2.3,1.4,4.3,2.3,6.1,0.9
	c1.8-1.4,7.3-1.8,7.5-4.8s1.2-7.1-1.1-7.8c-2.3-0.7-8.6-3.9-10.9-4.3c-2.3-0.4-7,0-9.4-2.1c-2.4-2.1-8.9-5-8.7-7.8s2.1-5.5,1.8-8.6
	c-0.4-3,0.7-8.7-1.8-9.8c-2.5-1.1-5.2-1.8-8.4-1.8s-10,0.2-10.7-0.9c-0.7-1.1-1.4-2-5-2.9s-7.3,0.4-8.7-2.5s-2-1.6-2.9-8.2
	c-0.9-6.6,3.2-7-2.1-8.2s-13.2-2.1-11.8-4.5s5.7-6.1,8.6-8.2s4.5-4.1,6.8-6.1s3.6-4.1,2.3-7.1c-1.2-3-4.5-3.6-7.8-2.5
	c-3.4,1.1-7.3,1.4-7.7,0s0.7-6.6-0.2-9.4c-0.9-2.9-0.5-6.2-3-7.8s-3.9-2.3-8.2-3.6c-4.3-1.2-5.3-3-5.3-5.9s1.2-2.9-2.7-5
	s-5.2-1.2-6.8-5.5s-0.2-6.8-4.8-7.3s-8.2-0.5-12.7-0.5s-7.7-0.2-9.8-2.3s0.7-6.8,0-9.4c-0.7-2.7-0.4-2.3-2.5-4.8s-7.5-3.7-7-7.7
	c0.5-3.9,0.8-6.1,0-8.9s0.6-5.9-3.3-5.9c-3.9,0-7.3-1.1-9.4-3.4c-2.1-2.3,0-4.8-3.9-4.8c-3.9,0-5.7,0.9-8.7-0.9
	c-3-1.8-7.5-12.8-6.8-14.4c0.7-1.6,3-3.7,5-3.6c2,0.2,7.1,4.3,8.7,2.5s0.5-4.1,3-5.3s7.1-4.3,8-4.3s4.8-1.4,5.3-3.9
	s-0.9-7.8,0.5-9.8s2.7-1.8,2.7-4.3s-2.3-3.4-0.5-5.7s8.6-7.7,8.4-9.6c-0.2-2-6.2-11.2-5.7-13.5s4.5-4.5,4.5-6.1s-3-3.6-1.1-6.1
	c2-2.5,5.5-4.8,2.7-6.2s-5.9-1.4-5.7-5s6.2-2,6.4-6.2s-0.9-10-1.6-11.2c-0.7-1.2-10.9-5.2-11.6-8.9s-1.6-7,0.7-10.7s7.5-2.1,8-7.7
	c0.5-5.5,1.4-7.1-3.4-8.9c-4.8-1.8-7.1-2.9-8-5.5c-0.9-2.7,0.2-8.6-3.4-11.8c-3.6-3.2-3.6-4.5-8.2-7.8c-4.6-3.4-6.8-2.3-7.7-6.6
	c-0.9-4.3,1.8-5-1.8-6.1c-3.6-1.1-8-9.3-8.2-5.9c-0.2,3.4,2.3,5.2-2.1,5.9c-4.5,0.7-11.1,0.2-14.4,0.4c-3.4,0.2-8,0.5-10,2.1
	c-2,1.6-7.5,7.7-8.6,5.2s1.1-4.5-1.8-6.6c-2.9-2.1-5.7-4.8-8.2-5.3s-3.4-2-1.6-3.4c1.8-1.4,9.3-4.8,9.6-9.1c0.4-4.3-1.4-6.9,0-8.7
	c1.4-1.8,2.9-5.6,5.7-6.8c2.9-1.2,5.5-0.7,6.6,0.2s1.4-2.7,1.6-6.2s-1.1-6.8,0.5-8.9c1.6-2.1,1.6-6.4,3.9-7.5c2.3-1.1,7.8-3,6.6-4.8
	c-1.2-1.8-6.2-7.3-10.3-7.5c-4.1-0.2-8.6,1.4-11.4,0.2c-2.9-1.2-2.9-3.7-5.2-2.9c-2.3,0.9-2.5,3.2-5.9,2.3c-3.4-0.9-10.3-3-14.3-3.9
	c-3.9-0.9-4.1-1.2-8.2-2.1c-4.1-0.9-7-4.5-10.5-3.7s-6.4,2.7-9.3,2.9s-6.2-4.8-6.6-6.8s0.4-8,0-11.2s-4.1-10-5.5-11.2
	s2.7-7.8,2.9-10.7s2-4.8,0.7-8.4c-1.3-3.6-3.7-5.3-5-6.6c-1.3-1.3-4.5-5.5-3.2-8.6c1.2-3,2.3-9.6,4.6-10.5c2.3-0.9,4.3,0.4,7.1-2
	c2.9-2.3,4.3-4.8,6.1-4.8s10.5,3,11.2,0c0.7-3,1.7-9.8,4.4-11.6s4.9,0.2,5.2-3.4c0.3-3.6-0.2-4.8,0.4-6.4c0.5-1.6,2.5-2.3-0.2-4.6
	c-2.7-2.3-4.5-5-6.2-7.7c-1.8-2.7-8-3.4-7.3-8.2c0.7-4.8,1.4-8,3.4-10.9c2-2.9,6.1-6.1,4.8-9.1c-1.4-3,1.1-5.9-4-5.9
	s-10.3-0.7-9.4-3.2s5.5-5.2,7.7-9.3c2.1-4.1,5.9-8.4,7.5-12.7s4.6-10.7,6.4-12.3c1.8-1.6,4.1-3.7,7.1-4.1s7-2.3,6.6-5
	s-1.6-5-4.8-6.1s-7.3-3-7.8-5.5s1.1-6.8,1.6-10.2s1.1-5.5-0.5-7.5s-6.1-3.9-3.7-6.2s3.9-2.7,4.3-4.6c0.4-2-1.2-4.6,2.3-4.6
	c3.6,0,5,2,9.1,0s2.1-4.5,6.8-3.7s5.3,1.6,7.5-0.9c2.1-2.5,0-7.1,2.7-8s4.3-0.2,7.1-2.3c2.9-2.1,1.2-5.2,5.7-7s7.7-3.6,7.8-7
	c0.2-3.4-0.9-6.4,0.7-10.5s3.6-5.7,4.8-8.2s3.7-7,7.7-7.8c3.9-0.9,6.4-0.5,10.9-2.7c4.5-2.1,3.7-4.3,8.6-5.9
	c4.8-1.6,8.9-3.6,11.6-2.5s3.4,4.5,6.1,2.9c2.7-1.6,8.9-8.7,13.4-8.7s4.3,2.3,8.4-0.9c4.1-3.2,5-12.5,8-13.5c3-1.1,3.7-0.9,7-1.1
	c3.2-0.2,5,0,8.7,1.4s4.3-3.2,6.2-6.4c2-3.2,0.5-4.8,5-8.4s6.4-5.2,9.4-6.6s3.4-3.9,5.9-6.6s5.3-5.2,7.8-9.1s2.5-10.5,1.2-9.4
	c-1.2,1.1-8.2,7.5-6.6,3.9c1.6-3.6,0.2-4.6,1.6-6.6s3.4-6.1,3.9-7.7c0.5-1.6,2,7.1,3.6,7.5s2.3-3.9,4.6-3.9s4.6,1.2,7.1-0.5
	c2.5-1.8,6.8-9.4,8.7-11.4c2-2,4.8-4.3,6.1-1.2c1.2,3,1.1,10,1.2,13.4c0.2,3.4,0,8.9,2.1,8.2c2.1-0.7,4.8,0,4.6-2.9
	s-2.1-10.3-0.2-8.6c2,1.8,5.7,8.9,8.2,10s2.7-1.1,6.2-1.6c3.6-0.5,3.6-3.4,6.2-1.1c2.7,2.3,4.3,5,4.3,8s-1.2,7.1,0.7,8.9
	c2,1.8,4.5,5.5,4.8,2.5c0.4-3,2.1-10.9,3.7-13.2C302.9,49.4,310.9,36.2,310.9,35.2z"/>
<path fill="none" stroke="#0078FF" stroke-width="2" stroke-miterlimit="10" stroke-dasharray="2" d="M229.1,97.4
	c-0.6,0.6-1.2,1.3-2.2,1.7s-2.6,0.5-4.1,0.8s-2.1,0.4-3.2,0c-1.1-0.4-1.9-1.5-2.9-1.1c-1,0.3-4.6-0.1-3.7,0.5c1,0.6,3.5,1,4,2.3
	s-0.6,1.7-0.7,4.1c-0.1,2.4-2.5,3.3,0.1,4.5s4.6,2.1,4.6,3.8s-1.3,2.4-1.5,4.4s1.5,3.8-0.3,3.8s-5.2-1.1-5.7,0s-2.3,2.2,0.1,3.9
	c2.4,1.7,4.9,2.3,5.3,3.5c0.4,1.2-2.9,5.7-0.7,5.3c2.3-0.4,4.9-1.6,4.1,0c-0.8,1.6-2.8,2.9-3.3,3.5s-3.2-0.3-3.7,0s-4.5-1.1-2.9,0.9
	s3.7,4.1,2.3,4.5c-1.3,0.4-1.9,0.3-4.4,0s-3.3,0.1-3.2,2.5s0.7,2.8,2.4,3.1s1.9,1.3,1.2,3.1c-0.7,1.7-3.6,2.1-3.6,5.1
	c0,2.9-1.1,5.5-0.7,8s2.4,3.7,3.3,7.8c0.9,4,2,4,1.7,6.8s-2.5,3.3-0.5,6.4s3.6,2.9,5.2,6s3.3,4.7,5.7,6.8s3.2,3.3,5.3,5.6
	s0.4,4.5,4.7,6.4s5.9-0.7,7.2,0s2-2.7,4.5,0s0.4,2.5,3.2,5.2s1.5,5.1,4.3,3.7c2.8-1.3,2.4-5.3,4.3-2.7c1.9,2.7-1.1,5.6,2.3,5.1
	c3.3-0.5,4.5-1.3,9.2,0.1c4.7,1.4,5.1,2.9,7.6,5.3c2.5,2.4,3.2,1.3,7.1,1.6c3.9,0.3,3.2-0.7,5.7-0.9c2.5-0.3,3.2-0.4,5.9-0.9
	c2.7-0.5,7.2-5.3,5.2-5.7s-5.5,1.9-5.7,0.9s-0.1-4.7,1.7-4.1c1.8,0.6,3.6,0.9,3.6-1.1s-0.4-2.1,2.4-4.8s4.1-5.9,4.5-7.9
	c0.4-2-1.9-1.6,1.6-3.5s4.7-2.3,4.5-4.3s-0.8-4.1,0-5.9c0.8-1.7,2.1-2.1,3.3-4.3c1.2-2.1-0.5-2.9,1.5-4.1c2-1.2,6-1.9,4-2.9
	s-4.5-3.9-2.9-4.5c1.6-0.7,3.5,1.3,6.7-0.1c3.2-1.5,2.7-0.1,6.4-2.4c3.7-2.3,2.5-7.4,5.7-6.8s4.1,1.5,6.2,2.8c2,1.3,3.9,2.1,3.1-0.7
	s-4.4-4.9-2.1-6.3c2.3-1.3,2.7-0.7,5.7-1.3s3.1-2.7,4.9-4.3c1.9-1.6,4-2.1,1.3-3.9s-3.9-1.1-5.5-3.6c-1.6-2.5-3.1-4.1-2.9-6.4
	c0.1-2.3,1.7-4.5,2-5.7s1.9-3.3,0.1-4c-1.7-0.7-2.8-2.5-4.3-2.4s-3.7,0.8-3.2,1.3s1.1,1.7,0.8,4.5c-0.3,2.8-0.7,7-1.6,7.8
	c-0.9,0.8-3.2,1.7-3.1,0c0.1-1.7-0.7-4.3-1.6-6c-0.9-1.7-0.4-3.6-1.3-5.7c-0.9-2.1-2.9-4.4-4.5-4.7c-1.6-0.3-4.4-3.3-7.2-3.3
	s-4.4-1.2-8-1.7c-3.6-0.5-6-2.3-7.5-3.1c-1.5-0.8-1.6-4-1.9-5.1s-1.3-2.1-2.1-3.7c-0.8-1.6,0-3.7-2.5-5.1c-2.5-1.3-4.1-4.1-6-4.1
	c-1.9,0-4.7,0.4-5.9-1.2c-1.2-1.6-0.9-2.9-3.1-4.4c-2.1-1.5-5.1-2.8-6.3-2.5c-1.2,0.3-1.5-0.7-4.9,0c-3.5,0.7-4.1,1.5-6.7,1.8
	c-2.5,0.3-3.3-0.4-6-0.4s-6.3-0.1-9-0.7c-2.7-0.5-5.2-4.5-6.7-3.2s-1.7,3.6-4.3,4.1s-6.6-0.1-8.3,0.1
	C231.9,95.4,229.1,97.4,229.1,97.4z"/>
<path fill="none" stroke="#0078FF" stroke-width="2" stroke-miterlimit="10" stroke-dasharray="2" d="M60.8,225.7
	c7.1,0.7,8.6,4.2,11.4,4.2c2.9,0,9.3-1.4,9.3,3.6s-2.1,16.4,5.7,16.4s17.1,4.3,20.7,5s6.4-5,8.6-5c2.1,0,9.3-2.9,9.3-2.9
	s0.8-0.4,2.5-1.4c1.6-1.1,2.7-3.7,4.3-2.9s1.5,4.3,2.9,3.3c1.5-0.9,1.1-5.5,2.9-4.5c1.9,0.9,1.9,2.1,4.8,1.9
	c2.9-0.3,3.9-0.3,5.9-0.9c2-0.7,4.1-3.1,4.1-1.2s-0.4,4.3,1.6,6.8s0.9,5.3,3.6,4c2.7-1.3,4.7-1.7,6-4.1c1.3-2.4,2.7-6.2,4.7-7.6
	c2-1.4,4.5-2.2,3.9-4c-0.7-1.9-1.2-4.1,0.7-4.8s1.6-3,4.4-1.6c2.8,1.4,3.5,2.8,6,3c2.5,0.3,8.6,0.3,6.6,1.9c-2,1.6-7.4,4.5-5.6,4.3
	c1.7-0.3,5.1-0.6,5.5,1.2s2,4.8,4.1,4.8s7.6-2.5,8.7-4s0.8-5.1,2.4-4c1.6,1.1,3.1,5.3,3.9,7.6c0.8,2.3,2.8,4.4,0.8,6
	s-4.7,2.2-5.7,4.3c-1.1,2-1.3,3.1-0.3,3.9s-0.4,2.8-0.3,5.5c0.1,2.7,0.9,5.3,1.7,6.2c0.8,0.8,0.4,1.2-3.7,1.3c-4.1,0.1-5.2,0-11.4,0
	s-8.4-0.7-11.2,0.1c-2.8,0.7-3.9,1.5-8,2.3s-7.1,0.3-8.2,3.2s-5.9,6-2.5,6c3.3,0,4.5-0.1,8.8,0c4.3,0.1,5.1-0.9,7.4,0
	c2.3,0.9,5.1-0.7,6.3-1.1c1.2-0.4,2.7,1.1,4,2.1c1.3,1.1,3.9-0.1,6.2,0c2.3,0.1,4.5-0.8,7.4-0.8c2.8,0,6.4-1.3,8.8,0s0.8,3.1,4,4.1
	s7.9,0,10.7,0s4.3,0.5,6.8,1.5s3.4-0.4,4.8,0c1.4,0.4,0.6,2.4,2.3,3.1s2.8,1.9,3.1,2.8c0.3,0.9,0,3.1,2,4c2,0.9,8.4,3.9,6.7,5.2
	s-2.7,2.3-5.1,2.5s-5.1-2.7-7.1,0s-6,4.4-6.8,7c-0.8,2.5,0.1,5.1,2.5,4.3c2.4-0.8,4.9-2.5,7.5-2.1c2.5,0.4,2.8,2.3,4.8,2.3
	s2.3-1.4,4.4-1.4c2.1,0,3.8,0.1,3.8,2.5c0,2.4-0.3,5.9,1.5,5.9c1.8,0,8.7,0.9,8.7,0.9s1.6-0.7,1.7,0.9c0.1,1.6-0.3,4,0,5.1
	c0.3,1.1,0.1,2.7-1.2,3.6c-1.3,0.9-1.7,1.6-1.7,2.4s0.7,1.9,0,4c-0.7,2.1-2.9,2.9-1.7,3.9c1.2,1,8,2,7,3.6c-1.1,1.6-5.6,0.8-7,2.5
	c-1.3,1.7-2.4,4.3-3.2,5.7c-0.8,1.4,0,2.7,2.1,1.7c2.1-1,3.6-1.9,6-0.8c2.4,1.1,6.2,1.7,8.3,2.8s1.5,1.7,3.6,2
	c2.1,0.3,2.3,1.1,4.4,2.7c2.1,1.6,4,2.3,5.6,4c1.6,1.7,9.9,6,12,7.1c2.1,1.1,4.6,2.9,6.4,3c1.8,0.2,5,1.7,6.4,2.3
	c1.3,0.6,3.7,0.7,4.3,2.4c0.7,1.7-1.5,3.9,0.3,4.6s3.5-0.3,5.7,1.6c2.3,1.9,2.6,3,2.9,4.5s1.1,7.4,2.5,8.5c1.4,1.1,2.3,2,3.7,2
	c1.3,0,9.3,2.8,8,3.3s-7.5,1.4-6.4,2.3c1.1,0.9,5.4,0.1,6.5,1.8c1.1,1.7,2.2,3.9,1.3,5.5c-0.9,1.7-2.8,2.3-3.9,4.1
	c-1.1,1.8-1.2,2-3.8,2.6c-2.6,0.6-7.4,1-6.8,2c0.5,1,2.8,4.5,3.3,5.1c0.5,0.6,4.1,1.3,4.6,1s-0.6-2.2,0.8-3c1.4-0.8,1.8-2,3.7-1.9
	c1.9,0.1,2.9-0.4,4.2,1.5c1.2,2,1.2,4,2.9,3.4c1.7-0.6,3.8-4.2,5.7-3.8s5.6,2.7,7.4,2.1c1.8-0.6,3.6-4.6,5-4.5
	c1.4,0.1,7.3,2.3,8.6,2.3c1.3,0,3.6-0.4,5.5-1.5c2-1.1,5.5-5.2,6.9-4.1c1.4,1.1,1.2,4.5,3,5.3s4,3.2,6,3.1c2-0.1,4.6-2.4,5.6-1.9
	s1.8,4.4,2.9,4.4c1.2,0,4.6-4.5,5.9-4.6c1.2-0.1,5.5,2.2,7.6,2.8c2.1,0.5,5.6-1.1,6.7-0.2c1.1,0.9,0,5.2,1.7,5.2s2.1,1.2,3.4,4.1
	c1.3,2.9-0.4,5.4,2.9,6.2c3.3,0.8,2.2,2.4,4.5,3.9s4.1,2.4,7,2.1c2.9-0.3,7.6,0.2,9-1.8c1.4-2,1.9-4.8,1.2-7.7
	c-0.7-2.9-2-4.8-2.1-8.2c-0.2-3.4,0-6-0.4-9c-0.4-3-0.1-5.5-2.1-6.2c-2-0.6-7.8-1.7-7.9-3.7c-0.2-2.1,4.3-4.9,5.2-6.8
	c0.9-1.9-2.9-3.7-3.5-5.5c-0.6-1.8,1.6-4.3,1.6-6.2c0-2-2.7-4.7-3.6-6.2c-0.9-1.5-4.7-5.1-3.1-5.1c1.6,0,2.9-1.7,4.7-0.6
	c1.8,1.1,2.1,2.4,4.3,1.2c2.2-1.2,4.9-3.7,7.2-4.9c2.3-1.2,5-1,7.4-0.4c2.4,0.6,2.8,2.5,5.7,1.9c2.9-0.6,1.4-1.4,5.1-1.2
	c3.7,0.3,6.1,1.6,6.5,0c0.4-1.6-2.3-4.5-1.5-5.2s7.6-6.9,8.7-7c1.1-0.1,1.6,1.9,3.8,1.4c2.2-0.4,5.4-1,8.1-1.8s3.8-2.1,5.6-3.4
	s3.2-2.7,4.4-2.9s1.8,2.5,3.3,0.6c1.5-1.9,0.6-4.5,2.3-5.8c1.7-1.2,3.9-3.1,3-3.8c-0.9-0.7-1.4-2.1-3.5-2.1c-2.1-0.1-6.4,2-5.9-1.5
	s1.5-5,3.3-7.4c1.8-2.4,5-2.1,5.5-4.4s-0.8-4.2,0.7-5.4c1.6-1.2,6.8-1.6,7.2-3.8c0.4-2.2-0.5-2.7,3.2-3.8c3.7-1.2,6.5-1.6,8.5-2
	c2-0.4,3.7-1.2,3.5-3.7c-0.3-2.5,0.4-4.8-0.5-6.8s-2-5.4-3.7-7.1c-1.8-1.7-5.4-4-7-4.9c-1.5-0.9-3.6-5.1-4.9-4
	c-1.3,1.1-2.4,1.5-5.3,1.5s-6,0.2-6-1.6c0-1.8,0.4-7.1-0.4-7.6c-0.8-0.4-3.7,0.1-3.7-1c-0.1-1.1,2.1-2.4,1.6-3.8
	c-0.5-1.4-2.2-3.3-2.9-4c-0.7-0.7-3.7-3.6-3.7-4.8c0-1.2,2.2-2.1,1-3.8c-1.2-1.8-3-4.3-2.9-5.6c0.2-1.3,2.8-3.1,1.6-3.9
	c-1.2-0.8-4.5-3.7-4.5-3.7"/>
<path fill="none" stroke="#0078FF" stroke-width="2" stroke-miterlimit="10" stroke-dasharray="2" d="M280.9,365.3
	c-0.2-1-0.6-1.6-1-3.3c-0.5-1.7,0.4-2.9,0.5-3.9c0.1-1-0.9-2.7,0.9-3.9c1.7-1.2,1-1.7,3.5-2.1c2.5-0.4,4.5,0.8,5.3-0.6
	c0.9-1.4-0.1-3.7,0-4.5c0.1-0.7,1.5-0.9,2.5-0.9s2.3-2,4.5-3c2.1-1,4.3,1.5,5.2,0c0.9-1.5,0.7-4.5,1.6-5.4c0.9-0.9-0.3-3.3-1.9-5.1
	c-1.6-1.8-3.7-3.5-3.5-4.6c0.1-1.1,2.9-5.6,4.2-6.8c1.3-1.2,0.7-4.1,2.9-2.6c2.3,1.5,2.8,2.6,4.5,3.2c1.7,0.6,4.1,0.9,3.2-0.3
	c-0.9-1.2-2.7-1.7-2.2-3.7c0.5-1.9,1.7-2.9,0.9-4.6c-0.9-1.7-3.5-2.3-4.4-3.9c-0.9-1.6-1.3-2.4-2.7-3.5c-1.4-1.1-5.8-3.8-4.7-4.5
	c1.1-0.7,2.7-0.4,5.3-0.9s4.2-0.5,5.6-0.9c1.4-0.5,1.5-1.6,3.3-0.9s4.7,0,5.9-0.2c1.1-0.2,2.1-3.1,2.7-4.9c0.6-1.7,1.2-0.7,3.1-3.5
	c1.9-2.8,6.2-6.6,8.3-8.4s0.3-2.9,3.7-3.6c3.5-0.7,3-2.7,5.5-2.6c2.5,0.1,4.7,1.3,6.9,1.2c2.2-0.1,4.3-4,7.6-2.9
	c3.3,1.1,5.6,3.1,6.3,4.8c0.7,1.7,0.7,5.2,2.6,4.9c1.9-0.3,3.4-1,5.2-2.9c1.8-1.9,7-6.3,7.7-7s0.1-3.5,2-2.6
	c1.9,0.9,4.3,1.2,6.2,1.1c1.9-0.1,4.2-1.1,5.3-0.3c1.1,0.8,2.9,2.3,5,3.5c2.1,1.1,6.8,4.3,7.4,4.7c0.5,0.4,3,2.1,3.7,0
	c0.7-2.1,1.9-6.9,2.9-5.2c1,1.7,1.3,4.2,2.5,3.9c1.2-0.3,2.1-1.9,3.2-3.5c1.1-1.6,1.4-0.2,3.1-2.2s2.9-3.5,2.5-4.6
	c-0.5-1.1-1-2.7,0.1-3.6c1.1-0.9,3.8-2.9,4-4.2s1.9-1.2,2.7-3c0.8-1.8,3.3-3.5,4.4-3.5c1.1,0,5.1-0.6,8-0.3c2.9,0.3,2.7,0.6,3.2,2.9
	c0.5,2.3,0.3,2.9,1.4,5.3c1.1,2.4,0.9,2.8,3.2,4.3s3.1,2.1,6.2,2.1c3.1,0,7,0.5,7.5-1s0.2-3.3-0.9-3.8c-1.1-0.5-3,0.3-3.4-2.1
	c-0.4-2.4-1.3-3.5-0.2-4.3c1.1-0.8-0.5-3.2-0.1-4.5c0.4-1.3,2.7-3.5,2.7-3.5"/>
<path fill="none" stroke="#0078FF" stroke-width="2" stroke-miterlimit="10" stroke-dasharray="2" d="M538.3,316.3
	c3.4-1.3,2.9-1.1,6.1-1.3c3.2-0.3,2.2-4,5.7-2.7s5,1,5.8,1.9c0.8,0.8,1.3,0,2.4-2.1c1.1-2.1,1.9-2.9,4.3-3.5
	c2.4-0.5,2.9-3.6,4.8-1.4c1.9,2.2,2.9,4.6,5.6,4.2c2.7-0.4,5.1-2.1,5.3-4.2c0.3-2.1-1.3-3.9,0-4.7c1.3-0.8,4.5-1.9,4.8-3.7
	c0.3-1.9,2.1-3.2,4.3-4.3c2.1-1.1,7.2,0.5,8.8,0s2.9-1.1,7.8-1.6c4.8-0.5,7.8,0.3,9.6,1.6c1.9,1.3,5.6,2.1,7.8,3.5
	c2.2,1.4,9.5,5.5,9.5,5.5"/>
<path fill="none" stroke="#0078FF" stroke-width="2" stroke-miterlimit="10" stroke-dasharray="2" d="M514.9,359.7
	c1.4,4.2,0.6,5.8,2.4,7.4c1.9,1.6,2.1,2.9,5.3,4.5c3.2,1.6,5.3,2.4,6.7,3.2c1.3,0.8,5.1-2.9,4.5,0c-0.6,2.9-2.7,4.3-1.1,6.4
	c1.6,2.1,5.3,1.6,5.4,5.3c0.2,3.7,0.4,5.1,0.6,7.5c0.2,2.4,1.4,4-0.6,6.2c-2,2.1-4.9,3.2-5.7,4.8s0.5,2.4-1.1,4.8
	c-1.6,2.4-2.1,4.5,0,4.8s7.1-0.8,6.8,1.3c-0.4,2.1-0.6-1.9,2.6-1.3c3.2,0.5,3.5,3.7,3.5,4.8s4.9-5.9,5.7-2.9s-0.3,2.9-1.1,7
	c-0.8,4-2.9,7-3.2,9.4c-0.3,2.4-0.8,5.9,1.3,6.4s4,2.4,6.2,2.9c2.1,0.5,5.1-2.1,7.5,0c2.4,2.1,6.2-1.6,6.2,2.4s-4,5.9,0,5.9
	s7.3-0.4,7.7,2.3c0.4,2.8-1.2,2.9,0.5,5.1c1.7,2.1,0.9,4.8,4,3.6c3.1-1.2,2.3-4.7,4.5-6.2c2.1-1.5,2.3-2.5,6.1-2.8s3.1-2.1,6.1-2.6
	c2.9-0.4,4.1-2.9,4.7-2c0.6,0.9,1.9,3.1,3,2c1.2-1.2,1.5-1.4,1.6-5.1s0.6-4.6-1.3-5c-2-0.4-6.4,1.2-6.4-1.5s-1.6-3.2-2.8-3.8
	c-1.2-0.6-3.4-2.4-1.2-2.6s4.2-0.7,6.5-1.1c2.3-0.4,4.7-2.1,3.7-3.1c-1.1-1.1-6.3-2.8-7.3-3.3s-2.3-2.5-0.4-3.1
	c1.9-0.6,1.9-2.1,5.2-2.1s3.7,0.7,7.8,0.9c4.2,0.2,6.5,1.3,7.3-0.1c0.8-1.4,1.6-1.2,3.7-2.9c2.1-1.7,3.2-2.1,4.2-2.9s5.6-4.5,6-5.7
	s2.8,1.4,4.1,3.1s3,1.8,4.9,0.9c1.9-0.9,2.6-2.5,5.9-2.9c3.3-0.4,5.7-2.9,8.3-2.8c2.6,0.1,5,2.1,4.8,2.8c-0.2,0.7,3.4,1.6,4.1,1.3
	c0.7-0.3,1.5,1,2.1,1.4c0.6,0.4,2.5,0.6,4,1.2c1.5,0.6,2.5,2.3,3.2,1.7s-0.3-3.9,0.8-4.4c1.1-0.4,2-1.9,3.5-1.5
	c1.5,0.4,1.1,4.4,2.8,2.5c1.7-1.9,1.2-2.2,1.3-3.7c0.1-1.4-0.3-2.1,1.2-3.4s1.6-2.3,3-2.7s6.5-3,6.5-3"/>
<path fill="none" stroke="#0078FF" stroke-width="2" stroke-miterlimit="10" stroke-dasharray="2" d="M887.4,545.5
	c-1.6,0-2.7-0.2-3.7,2.1c-1.1,2.3-2.1,0.2-2,3.7c0.2,3.6,0.5,4.6,0,7c-0.5,2.3,1.3,1.6-2.1,4.1c-3.4,2.5-5.3,2.3-6.8,3.9
	s-2.1,3.2-3.2,5.3c-1.1,2.1-1.1,3-3.7,3.2c-2.7,0.2-1-2.5-3-1.5c-2.1,1-2.9,1.8-3.2,3.3c-0.4,1.5-2.7,1.7-2.9,3.8s-0.6,3.6-1.2,5.3
	c-0.6,1.8-0.6,3.3-1.6,4s-2.3,1.9-2.3,3.1s1.4,3.2,1.8,5c0.4,1.8,0.9,2.9,1.5,4.4c0.6,1.4,2,1.8,3.2,3.3s2.1,1,4.1,2.4
	s3.7,2.1,4.7,2.9c1.1,0.7,7.7,0,7,1.3s-2.2,2-3.9,2.9s-3.5,1.2-4.9,2.4s-4.9,1.2-4.9,2.7s2.2,2.6,2.5,3.7c0.3,1.1,2.1,3.6,0.9,4.5
	s-3.9,1-4.5,3.8c-0.5,2.9-0.7,4.7-0.4,6.3s0.6,2-0.4,3.5c-1.1,1.5-2.2,2-1.7,3.9c0.5,2,4,3.7,5,5.7c1,2.1,0.6,7.9,0.5,8.6
	c-0.1,0.7-1.6-0.6-3.6,0.6c-2,1.2-3.6,2.4-3.7,3.9c-0.1,1.5-0.3,2.8,0.9,3.1c1.2,0.4,2.2,0.4,1.8,1.5s-2.3,2.7-2.9,4.3
	s-1.4,3.4-2.4,4s-1.4-1.6-3.2,1s-1.3,3.9-2,5.6s1.3,3.6,0.9,4.3s-2.8-1.6-3.6,0s1.1,3.9-1.2,5.6c-2.3,1.7-5,1.8-6.2,3.2
	s-2.5,2.1-3.9,4.1c-1.4,2.1-2.5,2.5-3.6,4.4s-1.8,1.8-3.4,3.2s-4.2,0.8-5.3,2.3s-0.6,3.5-0.9,4.4s-2.8,2.9-2.8,4.2
	c0,1.2,1.2,3.1,0.8,3.6c-0.4,0.4-3.7,1.2-2.9,2.7c0.9,1.4,3.1,2.9,4.1,2.2c1-0.6,0.4-2.9,2.9-1.8c2.4,1.1,3.4,2.4,4.5,3.4
	s2.9,0.7,4.5,1.9s1.7,2.9,3.4,4.3c1.7,1.3,2.1,1.6,1.9,2.9c-0.3,1.3-1.4,3-1.4,4.5s2.1,4.1,2.1,4.1"/>
<path fill="none" stroke="#0078FF" stroke-width="2" stroke-miterlimit="10" stroke-dasharray="2" d="M855,587.3
	c-1.7,0.1-1.6-0.3-3.9,0c-2.2,0.3-5,0.5-5.9-1.7c-0.8-2.3-0.4-4.5-2.1-4.5c-1.7,0-4.9-0.3-6-1.2s-2.8-0.8-4-3.3s0.1-3.5-1.9-3.5
	s-8.6-0.7-9.9-0.7c-1.3,0-3.6-2.3-6.5-2.4c-2.9-0.1-6.5-0.1-7.7,1.1c-1.2,1.2,0.4,2.3-3.1,3.5s-3.6,1.7-6.8,1.6
	c-3.2-0.1-3.9-2.3-6.3-2.4c-2.4-0.1-4.9-0.7-5.3,1.2c-0.4,1.9-0.1,3.9-2,4.5s-7,1.3-7.4,3.1s1.2,4.8,2.9,6.7s5.6,4.9,3.3,5.2
	s-2.4-1.7-4.4-2.4s-6.2-3.6-6.4-1.9c-0.3,1.7,2.8,6.4,3.1,8.4s-1.9,3.5-0.9,5.9s2,6.2,2.4,7.6s1.2,3.3-0.3,3.6s-3.6,0.3-6.8,0
	s-7.6-2.3-10.8,0.2s-6.4,2.5-6.3,5.8c0.1,3.3-0.5,6.3-1.2,7.9c-0.7,1.6-0.5,2.8-3.5,3.6c-2.9,0.8-5.7,0.3-6.3,2.8
	c-0.5,2.5,0,3.3-2.1,4.7s-5.2,0.8-5.3,2.7s-0.8,5.2-2.9,6.6s-2.1,2.4-4.1,3.9s-3.3,0.9-3.1,3.3c0.3,2.4-2.5,4-1.6,6.2
	s-0.1,4,1.5,5.1s3.6,1.5,3.5,3.5s1.1,3.2-1.2,5.5s-4.5,7.4-3.9,8s2.1,0.5,4.6,0s3.6-3.1,4.8-0.1c1.2,2.9,2.5,3.7,1.5,6.4
	c-1.1,2.7-1.5,1.9-2.9,6.2c-1.5,4.3-2.5,6.4-1.3,9.5s1.9,4.3,0.7,6.3s-3.2,3.5-4.3,4.4s-2.9-0.7-5.6,2c-2.7,2.7-5.3,5.9-6,6.4
	s-2.8,3.7-3.7,4.8s-1.7,4-2.5,4.5s-4.8,0.4-6.8,1.1c-1.9,0.7-4.6,3.3-6.3,4.9c-1.7,1.6-6.6,5.9-6.4,8c0.1,2.1,2,2.9,2,4.8
	s-0.1,6.7-0.7,9.2s-1.2,2.3-1.3,5.2s-1.6,5.1-2.3,8.3s-1.1,4.9-2.1,6.6c-1.1,1.6-1.7,3.7-3.1,4.3c-1.3,0.5-1.7,2.1-2.1,3.2
	c-0.4,1.1-1.7,3.7-1.7,3.7"/>
<path fill="none" stroke="#0078FF" stroke-width="2" stroke-miterlimit="10" stroke-dasharray="2" d="M335.4,434.5
	c1.4,0.9,3.2,3.1,4.1,4.4c0.9,1.3,0.4,3.9,2.4,4.4s6.2,1.7,7.9,1.6c1.7-0.1,5.5-1.3,5.1,0.8c-0.4,2.1-5.5,4.8-4.9,6
	c0.5,1.2,3.3,5.1,2.9,6.2c-0.4,1.1-1.5,1-2.3,3.9c-0.8,2.9-1.6,5.4-2,7c-0.4,1.6-0.4,3.6,0.1,3.7c0.5,0.1,3.7,1.5,2.5,2.4
	c-1.2,0.9-1.2,2.7-2.5,4.9c-1.3,2.3-4.5,2.8-4.9,4.3c-0.4,1.5-1.1,4-0.3,5.2s0.7,4.3,1.6,5.3c0.9,1.1,3.8,0.5,5.2,2.3
	c1.3,1.7,4.4,7.4,6.6,8c2.1,0.7,4.7,0.8,7,0s3.6,0,6.8-1.6c3.2-1.6,0.7-2.7,5.2-3.1c4.5-0.4,5.2-2.3,7.9-2.7s4.7,0,7-0.9
	c2.3-0.9,1.3-2.9,4.4-1.5c3.1,1.4,4.1,2.8,6.8,2.7c2.7-0.1,3.2-1.2,5.2-0.8s4.7,1.6,7.4,2.9s8,2.7,8,2.7s3.6,2.1,4.9,2.1
	s3.1-3.3,6.7-2.5c3.6,0.8,6.8,1.7,8.2,2c1.3,0.3,6.2,2.1,9.8,4c3.6,1.9,4.7,4.1,7,5.3s7.6,2.5,8.7,2.5c1.1,0,2.1,1.5,4.9,1.5
	s1.1-1.3,5.3-0.7c4.3,0.7,8.4,0.3,10.4,0.7s4.5,1.1,6.6,0.8c2.1-0.3,3.2-0.9,3.6,0.1c0.4,1,1.1,1.4,2.4,4.4c1.3,2.9,0.9,4,2.8,5.3
	c1.9,1.3,2.7,0.7,3.6,2.5c0.9,1.8,0.1,3.7,1.9,4.8c1.7,1.1,3.1,2.4,5.5,2.1s4-1.3,5.3,0s4.7,4.1,7.1,4.8c2.4,0.7,6,1.2,6.3,0
	s-0.3-2.4-1.7-4.1s-5.9-3.9-4.7-6s2-2.8,3.7-3.2s3.1-1.9,4.9-0.8c1.9,1.1,3.5,3.1,5.1,3.1s2.4-2.3,4.3-2.7c1.9-0.4,4.8,0.8,4.9-2
	s-2.3-4.7,0-5.7c2.3-1.1,3.5-1.7,4.6-3.3s2.3-4.5,0.9-5.2c-1.3-0.7-6.3-2.3-7.2-4.5c-0.9-2.3-1.1-4-1.2-5.5
	c-0.1-1.5-0.1-2.5,0.4-4.3c0.5-1.7,0.5-3.3,1.6-3.1c1.1,0.3,2.5,0.5,5.1,0.8c2.5,0.3,5.9,0.9,7.5,0.4s5.2-1.9,7.4-3.1s4.1-3.2,6-3.1
	c1.9,0.1,4.1,0.8,6.3,0.1c2.1-0.7,3.6-0.8,4.5-0.8s6.2,3.1,8.8,3.6c2.7,0.5,6.8,3.2,9.4,3.2c2.5,0,4,0.7,7-0.1
	c2.9-0.8,5.7-2.8,7.5-3.6c1.7-0.8,4.4-1.6,7.8-2c3.3-0.4,4-0.9,6.8-0.4s7.9-0.7,9.6-0.7s2.5,2,5.5,2.4c2.9,0.4,3.1,0.5,5.1-0.1
	c2-0.7,3.2-1.5,3.7-4.4c0.5-2.9,0.9-5.1,0-5.9s-2.9-2.5-1.9-4.8c1.1-2.3,1.9-2.8,3.5-3.2c1.6-0.4,2.7-4.4,4.4-5.5
	c1.7-1.1,1.3,0.5,5.2,0.5s6.3,1.2,7.9-0.4c1.6-1.6-0.3-3.6,4.1-3.7c4.4-0.1,8.8-2,11.2-3.3s5.9-0.8,7.4-3.3s1.2-4.5,5.3-4.7
	c4.1-0.1,3.6-1.7,8.4-1.7c4.8,0,6.2-1.2,9.5-2.3s6.4-0.3,8.8-2.7s3.7-2.7,3.7-5.5s-2.9-3.6-2.4-5.6s2.5-2.5,4-3.6
	c1.5-1.1,6-1.9,6-1.9"/>
<path fill="none" stroke="#0078FF" stroke-width="2" stroke-miterlimit="10" stroke-dasharray="2" d="M254.3,827.7
	c1.7-3.3,0.3-2.2,2.4-5.3c2.1-3,2.7-2.1,2.1-4.8c-0.5-2.7-4.7-4.3-2.2-4.8c2.5-0.5,4.7-0.7,7.2-2.7s3.9-2.7,7-3
	c3-0.4,2.9,0.4,6.8-1.1c3.9-1.5,2.3-3.4,6.8-4.3s5-0.2,7.8-1.2c2.9-1.1,2.5-3.2,5.9-4.3c3.4-1.1,2.9,1.2,7.1-1.8c4.3-3,5-3.4,5-5.5
	s-0.7-2.9,0-4.8c0.7-2,3.4-1.8,4.8-3.2c1.4-1.4,3-4.3,5.3-4.3s6.4-0.9,8.7-0.9s3.9,1.8,5,0c1.1-1.8,0.5-4.1,1.7-4.8s3.3,3.7,4.8,3.2
	s2.9,0.4,4.1-1.3s-0.1-3.2,2.7-3.2c2.8,0,4,2.8,5.7,2.9c1.7,0.1,2.4-0.7,4.9,0.1s6.6,2.9,8.8,2c2.3-0.9,4.3-0.9,3.7-2.4
	c-0.5-1.5-2.1-5.2-0.8-5.6c1.3-0.4,5.1,1.2,5.5,0c0.4-1.2-0.1-3.2,0-4.4c0.1-1.2-0.1-3.5,0.2-5.6c0.2-2.1,0.1-4.8,1.2-4.3
	c1.1,0.5,2.5,6.4,4.3,6.2s0.8-0.3,4.3-3.3c3.5-3.1,7-5.2,8.3-5.7s4.7-0.4,4.7,1.5s0.5,6.8,2.3,6c1.7-0.8,4.5-2.3,6.8-3.3
	c2.3-1.1,5.3-2.9,5.2-5.1s-4.4-3.3-3.9-4.4c0.5-1.1,4.4-3.5,7.2-3.5c2.8,0,5.2-1.2,6.2-2.4s2.7,0.3,4.1,0c1.5-0.3,3.2-2.3,5.9-2.7
	s3.9-0.9,5.1,0s2.1,3.1,3.3,2.9c1.2-0.1,1.7-3.3,4.1-3.5c2.4-0.1,4-1.5,6.6-0.5c2.5,0.9,6.6,2.9,7.4,4.5s-0.3,3.1,2,4.5
	s4.4,3.5,7.4,2.3c2.9-1.2,6.8-0.4,9.4-2c2.5-1.6,3.7-2.5,6.8-2.3s4.3,0.5,7-0.1c2.7-0.7,3.9-2.7,5.1-2.7s4.8,3.1,5.5,3.3
	c0.7,0.3,3.1,0.9,5.2,1.1c2.1,0.1,3.3,0.8,2.9,2.1c-0.4,1.3,2.5,4.4,0.9,5.2c-1.6,0.8-3.5,0.8-4.9,2c-1.5,1.2-5.6-0.1-5.3,1.6
	c0.3,1.7,1.7,3.3,1.3,5.6s-1.5,3.5-0.3,5.5s4.3,4.1,3.3,6s-3.7,3.3-2.3,6.3c1.5,2.9,3.4,2.5,3.6,4.3s0.2,4.1,1.8,4.3
	c1.6,0.2,4.3-2.1,6.4-0.9s4.1,2,6.8,2s7-1.2,8-0.9c1.1,0.4,2.5,1.4,5.7,2.1c3.2,0.7,7.1,2.5,7.8,2.3s3.6,2.5,4.3,4.1
	s2.4,3.4,3.1,1.8c0.6-1.6,0.6-2,4.4-2c3.7,0,5-4.5,6.8-3c1.8,1.4,0,5.2,0.9,6.8s3.2-0.5,4.1-2c0.9-1.4,0.7-5.7,2.5-4.1
	c1.8,1.6,1.8,3,3.9,2.3c2.1-0.7,4.6-3.9,7-3.6c2.3,0.4,7.7,0.9,7.7,0.9l7.4,1.1"/>
<path fill="none" stroke="#0078FF" stroke-width="2" stroke-miterlimit="10" stroke-dasharray="2" d="M329.1,775.7
	c-0.3,0.8-0.9,2.2-1.9,2.4s-7.6,2.1-5.3,2.8c2.2,0.6,5-2.7,6.1-1.2c1.1,1.5,1.4,3,3.3,3.4c1.9,0.4,1.8,0.8,4,2s7.5,3.3,6.9,4
	c-0.6,0.7-2.1,2.3-1,2.9c1.1,0.6,2.6,3.5,3.1,4.2s2.3-0.7,4-1.5s3-1.8,4.5-1.3s1.5,0.8,3.7,0.4s4.4-1.5,6.5-1.2
	c2.1,0.4,4.6-1,5.6,0.5s1.6,3.4,3.9,4.3c2.3,0.9,3.4,3.6,4.2,4.9c0.8,1.3,2.1-0.2,3.8,1c1.8,1.2,2.6,3.9,5.3,4.6
	c2.7,0.7,3.4,1,5.3,0.8c2-0.2,1.9-3,5.1-3s4.5,2.4,6.9,3.1c2.3,0.7,6.4,1.5,7.8,1.6c1.3,0.1,2.1,2.2,1.7,3.7
	c-0.4,1.5-2.1,1.8-2.6,4.1c-0.4,2.3-1.7,5.2-1.2,7.4c0.4,2.2,0.9,4.5,0.3,5.7c-0.6,1.2-1,1.7,0.4,3.4c1.4,1.7,2.2,2.8,1.6,5.2
	c-0.6,2.4-2.4,4.6-2.7,6.6c-0.3,2-1.8,1.2-0.5,3.6c1.2,2.4,2.8,5.7,3.7,7c0.9,1.3,0.4,3.4-0.3,5.3c-0.7,1.9-2,2.3-2.8,4.6
	s-0.2,4.2-2.8,5.3s-7.8,0.4-7.8,0.4"/>
<path fill="none" stroke="#0078FF" stroke-width="2" stroke-miterlimit="10" stroke-dasharray="2" d="M650.8,492.3
	c2.1,4.4,3.9,5.1,5.7,5.5c1.8,0.4,2.5,3.6,2.5,4.6s4.3,8.9,4.3,8.9s3.6,3.2,5.7,3.6c2.1,0.4,6.7-0.4,8.5,0c1.7,0.4,2.1,1.6,4.3,2.5
	s2.7,0.5,4.9-0.9s2.3-3.6,4.8-3.7c2.5-0.1,2.4-1.1,5.3-0.7c2.9,0.4,2.5,2.5,5.5,2.5c2.9,0,4.7,1.9,4.7,3.3c0,1.4-4.3,1.6-4.3,3.8
	s-1.1,4.7,0.1,6.7c1.2,2,3.5,6.3,2.9,7.5s-5.7,1.2-6.4,3.1s-0.8,4.4-2.4,5.5c-1.6,1.1-7.4,1.5-9.8,1.7c-2.4,0.3-4.5,2.1-5.6,0.9
	c-1.1-1.2-1.5-6.1-3.2-3.7s-4.8,3.3-5.3,4.6s-3.6-1.7-4.8,0s-6.6,3.7-5.5,5.6c1.1,1.9,4.1,2.4,3.7,5.2c-0.4,2.8-3.1,1.5-2.1,2.7
	s0.7,3.9,0.3,5.5s-1.3,4.9-2.1,6.3c-0.8,1.3-2,2.4-3.9,2.9s-2.8-0.8-3.6-1.2s-4.7-1.2-5.7-0.1c-1.1,1.1-1.7,2.8-2.9,2.8
	s-5.1-1.1-5.5-1.1s-1.9,1.5-3.2,1.1s0.5-5.3-2.9-4c-3.5,1.3-6.3,3.2-7.2,2.5s-0.5-8.8-1.7-7.4c-1.2,1.5-4.3,2.9-5.5,3.6
	s-3.3,3.6-2.9,5.3c0.4,1.7-1.2,4.6,0,5.4s7.8,5.7,6.2,6.2c-1.6,0.4-6-0.8-7.4,0c-1.3,0.8-7,0.3-8.6,1.1s-3.6,1.5-4.5,2.8
	s-1.5,3.2-2.1,4.7s-2.4,2-3.9,3.5s-2.1,1.9-3.5,1.9s-2.1-2.8-3.6-2s-3.5,2-4.4,2s-2.3-2.1-3.3-1.3s-1.6,2.7-3.5,4.4
	s-4.1,5.9-4.8,7.1s-1.6,1.9-1.2,3.5c0.4,1.6,0.7,4.8-0.1,6.4c-0.8,1.6-1.8,4.1-3.6,5.6c-1.9,1.5-6.6,1.9-5.5,4.3
	c1.1,2.4,4.4,5.6,5.3,7.5s0.7,5.6,1.1,7.2c0.4,1.6,1.3,4.7,1.3,6.8s0.7,3.7-0.7,7.2c-1.3,3.5-4,6.8-4.9,7.9
	c-0.9,1.1-0.8,2.4,0.4,4.4s1.6,4.4,1.1,6.8s-1.2,6.4-2.1,7.8c-0.9,1.3-4.3,2.7-5.7,2.8c-1.5,0.1-4-1.3-4.8,1.2s-2.9,3.7-4.3,6
	s-1.8,3.5-3.8,3.9s-4.7-2.1-6.2,0s-3.2,2.9-2.7,4.5s-0.4,4.9-1.2,6.3c-0.8,1.3-4.1,4.9-4.9,7c-0.8,2-1.9,2.7-4.7,4.3s-5.1,1.5-7,3.5
	s-3.2,4.7-4.9,6.4s-3.9,1.3-5.2,2.1s-7.4,4.5-7.4,4.5"/>
<path fill="none" stroke="#0078FF" stroke-width="2" stroke-miterlimit="10" stroke-dasharray="2" d="M601.4,596.7
	c1.1,0,6.1-0.6,5.9,1c-0.1,1.6-0.1,1.9,0.8,3.5s2,4,2.3,4.5s3.3,0.1,5.2,1.2c1.9,1.1,5.6,3.6,5.7,4.9c0.1,1.3,0.7,2.9,1.9,3.2
	s4.7-0.5,5.1,1.7c0.4,2.2,0.7,5.4,0,6.6s-3.1,0.7-3.6,2.3s-1.3,4.8-0.5,5.7s2.1,2.5,1.1,3.7c-1.1,1.2-2.4,0.8-4.3,1.3
	c-1.9,0.5-4,0.9-4.1,1.7s-3.5,2.4-3.5,4.9s-0.7,1.7,1.1,5.6c1.7,3.9,3.1,5.6,4.8,6.8s1.9,4.5,2,6s1.5,6,2.1,7.6s1.1,2.9,2,3.9
	s2,1.1,3.3,3.1s2.9,3.5,3.3,5.6s1.5,6.7,0.7,7.5s0.8,2.7,1.5,4.4s1.5,8,1.5,8s-2.5,0.4-3.7,1.2s-2.5,1.6-2.1,3.1s-1.2,6.6,0.7,7.8
	s5.6,4,4,5.2s-2.1-1.7-3.5,0c-1.3,1.7-3.5,3.9-3.2,5.9s2.4,4,4.3,6.3c1.9,2.3,1.2,2.8,2.7,4.7s2.9,2.9,1.6,3.7
	c-1.3,0.8-3.9,0.5-6.7,1.7s-7,0.3-5.9,2.8s3.1,3.7,5.6,4s4.7-0.8,5.3,0.7c0.7,1.5,0.5,3.2,0.4,4s-0.4,4.7-0.4,4.7"/>
<path fill="none" stroke="#0078FF" stroke-width="2" stroke-miterlimit="10" stroke-dasharray="2" d="M548.3,701.5
	c-0.5,0.5-1.6,4-0.9,5.5c0.7,1.5,3.1,2.8,3.7,4.5c0.7,1.7,0.8,3.5,0,5.1s-0.6,3.9,0.6,4.3c1.2,0.4,3.1-1.2,5.5-0.8s5.2-0.7,5.2,0.9
	s0.3,5.4,0,6.9s-2.9,3.9-0.9,4.3c2,0.4,3.9-0.4,6.6,0c2.7,0.4,5.5,1.3,6,2.7c0.5,1.3-1.6,4.3,2.3,4.9c3.9,0.7,5.7-1.9,8.8-0.7
	s4.7,2.4,4.7,4.3s-1.7,3.1,0,5.3c1.7,2.3,2.5,6.2,1.9,7c-0.7,0.8,0.1,0.7,2.9,1.9s1.3,1.5,4.5,0s4-4,6.7-4s4.7-0.4,6.8,1.1
	s3.6,2.3,6.5,2.3s4.9-0.3,8.4,0s5.6,1.1,9.3,1.7c3.8,0.6,5.2-0.5,6.6,1.4s4.7,2.8,6,4.8s1.9,7.1,1.9,7.1"/>
<path fill="none" stroke="#0078FF" stroke-width="2" stroke-miterlimit="10" stroke-dasharray="2" d="M621,659.5
	c2-0.1,4.2-0.8,6.1,0c1.9,0.8,2.7,1.3,5.2,0.9c2.5-0.4,2.8-1.6,5.9-1.3s6,0.4,7,0.7s3.1,2.2,3.1,2.2s2.1-3.1,3.9-3
	c1.7,0.2,3.5,2.6,4.5,3c1.1,0.4,1.5,3.3,4,3.2s6.3-0.8,7,0s-0.3,1.1,5.7,2.1c6,1.1,9.5,0.3,11.6,0.8s5.9,0.3,7.4,1.2
	s3.3,1.2,4.3,3.1s4.1,4.5,5.2,5.6c1.1,1.1,4,2.1,5.2,3.1s3.5,3.5,5.5,3.9s5.1,0.7,6,0.7s4,0,4,0"/>
<path fill="none" stroke="#0078FF" stroke-width="2" stroke-miterlimit="10" stroke-dasharray="2" d="M541.9,531.2
	c2.2,2.4,5.9,3.6,6.7,5s1.1,4.5,2.5,5.9s2,2.9,3.9,2.9s3.9-2,4.5,0c0.5,2,2.7,4.3,3.9,5.5s2,2.7,4.8,5.5s3.9,3.9,6.1,5.7
	c2.1,1.8,4.5,2.5,5.7,3.4s3.9,1.6,4.1,3.2c0.2,1.6,1.1,4.3,1.8,6.1s5.2,5.7,3.7,6.8c-1.4,1.1-6.2,2.3-5.3,3.9c0.9,1.6,4.8,1.4,5.6,2
	c0.8,0.5,1.1,3.4,4,3.4s5.9-0.4,7.6,0c1.7,0.4,6.9-0.3,6.9-0.3"/>
<path fill="none" stroke="#0078FF" stroke-width="2" stroke-miterlimit="10" stroke-dasharray="2" d="M473.3,517.7
	c0,1.2,2,1.6,2.3,3.4c0.3,1.7-1.1,2-2.3,3.5c-1.2,1.5-4.8,3.6-4.6,5.2c0.1,1.6,3.6,4.9,4.3,5.9c0.7,0.9,2.9,2.9,2.7,4.7
	c-0.2,1.7,0.7,4.4,0,5.9s-2.4,3.1-3.4,4.1c-1,1.1-4-1.7-5.1,1.3c-1.1,3.1-3.2,4.3-1.7,6.6s0.3,3.1,1.2,5.2s1.3,3.3,3.8,4.5
	s3,2.8,5.5,1.2s3.6-7.6,5.6-6.3s1.1,3.5,3.5,4.1c2.4,0.6,4.7,1.1,5.1,2.8c0.4,1.7-2,7.5-1.1,9.1c0.9,1.6,5.2,1.1,5.3,1.9
	c0.1,0.8,1.9,0.7,4.5,1.7c2.7,1.1,4.7,1.2,4.9,3.1c0.3,1.9,0.9,5.7,0,6.8c-0.9,1.1-2.3,0.8-5.3,1.7s-6.7,2.5-7.4,4.9
	c-0.7,2.4-2.1,6.7-0.8,8.8c1.3,2.1,2.4,4.9,1.3,6.2c-1.1,1.2-4,0.5-6,3.9c-2,3.3-4.5,5.7-4.7,8.3c-0.1,2.5-0.5,4.3,0,8.6
	s-0.1,7,0.8,11.2c0.9,4.2,2.4,5.7,0.5,9.1c-1.9,3.4-6.7,5.3-6.7,7.8c0,2.4,0.8,2.9,3.1,5.5c2.3,2.5,5.6,4.3,5.9,6.7
	s-2.3,5.2-2.9,7.2c-0.5,2-2.1,4.5-2.4,6.3c-0.3,1.7,0,3.3-1.9,4.1c-1.9,0.8-4.8,2.4-8.3,3.5s-10.6,1.3-11.4,3.5
	c-0.8,2.1-2,4.8-1.5,7c0.5,2.1,1.5,5.1,0.7,5.6s-7.5-0.5-9.5,0s-7.1,0.7-9.9,0.9c-2.8,0.3-10-1.6-10,1.3c0,2.9,3.2,5.6,5.5,7.5
	s1.5,5.3,1.5,7s0.8,5.9,0.8,5.9"/>
<path fill="none" stroke="#0078FF" stroke-width="2" stroke-miterlimit="10" stroke-dasharray="2" d="M466.6,563.5
	c-3.9,0.4-7.4-1.5-7.6,0c-0.3,1.5-1.3,3.1-3.5,3.9c-2.1,0.8-5.9,0.4-7.2,2.5s-2.1,5.8-5.3,6.3c-3.2,0.5-7.8,1.9-10.2,3.5
	s-2.7,0.5-5.2,1.6s-1.1,5.1-3.2,6.4c-2.1,1.3-5.3,3.5-7.1,4c-1.8,0.5-4,2.1-6.4,2.4c-2.4,0.3-2.9,1.3-4,4c-1.1,2.7-1.6,3.7-4,4.5
	c-2.4,0.8-2.8,1.3-3.6,1.3c-0.8,0-4.3-0.5-4.3,0.7s1.3,6,0.9,7.8c-0.4,1.7-0.8,3.9-1.7,4.4c-0.9,0.4-4.9,3-4.9,3"/>
<path fill="none" stroke="#0078FF" stroke-width="2" stroke-miterlimit="10" stroke-dasharray="2" d="M223.4,779.1
	c1.9-0.4,3.1-0.6,5.3-2.2c2.1-1.6,0.4,0.7,3.6-2.5c3.2-3.2,3.7-2.5,7-4.5s2.7-3.2,6.4-3.6c3.7-0.4,6.6-0.9,8.7-1.4
	c2-0.5,5.4,1.1,5.4-2.7c0-3.7-3-3.2-0.7-5.5s2.5-2.5,4.1-4.8c1.6-2.3,3.6-1.6,5-2.9c1.4-1.2,1.8-10.7,0.9-11.9
	c-0.9-1.2-3.7-2.5-4.5-4.3c-0.7-1.8-1.4-7-2.9-7.1s-9.4,2-9.3,0s0.7-3,3.7-4.6c3-1.6,7.1-3.7,8.9-3.2s2.6,3.4,4.4,4.1s2.7,1.8,5,0
	s0.7-2.3,4.3-5.5s5.7-5.5,8.6-6.6c2.9-1.1,3-3.6,3.9-6.4c0.9-2.9,4.5-3.7,5.7-5.9c1.2-2.1,4.5-5.5,2.1-5.7c-2.3-0.2-6.6-1.1-4.1-2.1
	c2.5-1.1,8.2-5.3,4.9-5.3c-3.3,0-6.5,0.5-6.3-1.2c0.2-1.8-3.4-2.1-3.4-3.6s3.4-2.9,5.2-6.1c1.8-3.2,0.4-5.5,3.7-5.5
	c3.4,0,3.9,0.5,6.2-0.9c2.3-1.4-0.7-2.7,4.8-3.2s2.7,1.6,8.6-1.2c5.9-2.8,4.8-0.4,7.8-4.3c3-3.9,2.3-7.1,5.9-6.2
	c3.6,0.9,7.3,5.7,8.4,3.9c1.1-1.8-0.4-2.9,0-7.7c0.4-4.8-2.9-6.8-3-9.4c-0.2-2.7-4.8-0.9-5-4.5s-2.7-5-0.7-7.3s8.1-3.7,9.1-4.1
	c1-0.4,3.3-2,3.3-4.1s1.1-2.5,3.9-3.7c2.9-1.2,7.7,0,7.8-1.1c0.2-1.1-1.2-3.2,2.1-3.7c3.4-0.5,7,0.7,12.1,0c5.2-0.7,13-1.9,14.3-0.1
	c1.2,1.7,2.3,3.9,2.5,6.4s0.9,5.2,3.4,6.2c2.5,1.1,3.4-1.8,5.2-0.5c1.8,1.3,3.9,1.5,4.5,4c0.5,2.5-0.4,3.7-1.4,5.7
	c-1.1,2-0.9,2.7-0.9,5.7s0.4,2.1,3.4,4.3c3,2.1,5,0,5.7,2.7s2,6.2,3.9,8c2,1.8,2.9,4.1,4.6,5.3c1.8,1.2,5,1.2,7.5,2.5
	c2.5,1.2,3.4,4.1,5.7,5.5s5.2,2.9,7.1,2.9c1.9,0,6.4-0.7,8.6-2.7c2.1-2,4.3-3.7,6.4-4.1c2.1-0.4,3.2-4.6,5.2-3.4
	c2,1.2,4.3-3.7,7.5-2.9c3.2,0.9,0.4,4.1,1.4,5.9c1.1,1.8,3.2,0.5,5.3,0.5s5.3,0,5.3,0"/>
<text transform="matrix(1 0 0 1 902.39 677.0449)" opacity="0.8" fill="#FFFFFF" enable-background="new    " font-family="'SourceHanSansSC-Regular-GBpc-EUC-H'" font-size="19.253">彭溪镇</text>
<text transform="matrix(1 0 0 1 732.6792 771.7832)" opacity="0.8" fill="#FFFFFF" enable-background="new    " font-family="'SourceHanSansSC-Regular-GBpc-EUC-H'" font-size="19.253">雅阳镇</text>
<text transform="matrix(1 0 0 1 671.7593 622.752)" opacity="0.8" fill="#FFFFFF" enable-background="new    " font-family="'SourceHanSansSC-Regular-GBpc-EUC-H'" font-size="19.253">泗溪镇</text>
<text transform="matrix(1 0 0 1 566.4023 709.3896)" opacity="0.8" fill="#FFFFFF" enable-background="new    " font-family="'SourceHanSansSC-Regular-GBpc-EUC-H'" font-size="19.253">东溪乡</text>
<text transform="matrix(1 0 0 1 640.7402 738.8037)" opacity="0.8" fill="#FFFFFF" enable-background="new    " font-family="'SourceHanSansSC-Regular-GBpc-EUC-H'" font-size="19.253">柳峰乡</text>
<text transform="matrix(1 0 0 1 450.3491 848.4395)" opacity="0.8" fill="#FFFFFF" enable-background="new    " font-family="'SourceHanSansSC-Regular-GBpc-EUC-H'" font-size="19.253">仕阳镇</text>
<text transform="matrix(1 0 0 1 516.1304 783.1934)" opacity="0.8" fill="#FFFFFF" enable-background="new    " font-family="'SourceHanSansSC-Regular-GBpc-EUC-H'" font-size="19.253">雪溪乡</text>
<text transform="matrix(1 0 0 1 304.8818 872.8848)" opacity="0.8" fill="#FFFFFF" enable-background="new    " font-family="'SourceHanSansSC-Regular-GBpc-EUC-H'" font-size="19.253">龟湖镇</text>
<text transform="matrix(1 0 0 1 304.8818 747.7676)" opacity="0.8" fill="#FFFFFF" enable-background="new    " font-family="'SourceHanSansSC-Regular-GBpc-EUC-H'" font-size="19.253">西旸镇</text>
<text transform="matrix(1 0 0 1 493.1333 666.3486)" opacity="0.8" fill="#FFFFFF" enable-background="new    " font-family="'SourceHanSansSC-Regular-GBpc-EUC-H'" font-size="19.253">三魁镇</text>
<text transform="matrix(1 0 0 1 412.5815 646.6543)" opacity="0.8" fill="#FFFFFF" enable-background="new    " font-family="'SourceHanSansSC-Regular-GBpc-EUC-H'" font-size="19.253">大安乡</text>
<text transform="matrix(1 0 0 1 589.0425 557.8613)" opacity="0.8" fill="#FFFFFF" enable-background="new    " font-family="'SourceHanSansSC-Regular-GBpc-EUC-H'" font-size="19.253">凤垟乡</text>
<text transform="matrix(1 0 0 1 479.9414 492.3017)" opacity="0.8" fill="#FFFFFF" enable-background="new    " font-family="'SourceHanSansSC-Regular-GBpc-EUC-H'" font-size="19.253">筱村镇</text>
<text transform="matrix(1 0 0 1 558.3804 402.4546)" opacity="0.8" fill="#FFFFFF" enable-background="new    " font-family="'SourceHanSansSC-Regular-GBpc-EUC-H'" font-size="19.253">南浦溪镇</text>
<text transform="matrix(1 0 0 1 547.1846 284.7988)" opacity="0.8" fill="#FFFFFF" enable-background="new    " font-family="'SourceHanSansSC-Regular-GBpc-EUC-H'" font-size="19.253">包垟乡</text>
<text transform="matrix(1 0 0 1 372.2681 382.4897)" opacity="0.8" fill="#FFFFFF" enable-background="new    " font-family="'SourceHanSansSC-Regular-GBpc-EUC-H'" font-size="19.253">百丈镇</text>
<text transform="matrix(1 0 0 1 170.1108 492.3027)" opacity="0.8" fill="#FFFFFF" enable-background="new    " font-family="'SourceHanSansSC-Regular-GBpc-EUC-H'" font-size="19.253">罗阳镇</text>
<text transform="matrix(1 0 0 1 231.5605 284.7988)" opacity="0.8" fill="#FFFFFF" enable-background="new    " font-family="'SourceHanSansSC-Regular-GBpc-EUC-H'" font-size="19.253">司前畲族镇</text>
<text transform="matrix(1 0 0 1 223.4141 186.3945)" opacity="0.8" fill="#FFFFFF" enable-background="new    " font-family="'SourceHanSansSC-Regular-GBpc-EUC-H'" font-size="19.253">竹里畲族乡</text>
<g>
	<path fill="#FFFFFF" d="M846.845,137.096v8.125h-10.313c1.875,2.085,5.625,3.335,11.25,3.75v11.25
		c-13.335-1.04-22.71-6.04-28.125-15h-19.375c-5.835,9.375-15.21,14.375-28.125,15v-11.875c3.75,0,7.188-1.04,10.313-3.125h-10
		v-8.125h17.5l1.875-3.438h-18.438v-6.563h22.188l2.188-3.75h-25.625v-8.125h30.313l1.875-3.438h15.313l-1.875,3.438h28.75v8.125
		h-33.75l-2.188,3.75h35.625v6.563h-39.063l-2.188,3.438H846.845z M776.22,160.846h12.5l2.5,12.5
		c1.875,7.29-0.313,11.563-6.563,12.813h-11.563v-10.313h6.563L776.22,160.846z M803.72,150.534h12.813v28.75
		c0,1.875-0.625,3.54-1.875,5c-1.46,1.665-3.335,2.5-5.625,2.5H798.72v-9.375h2.188c1.04,0.205,1.768,0,2.188-0.625
		c0-0.21,0.103-0.313,0.313-0.313c0.205-0.205,0.313-0.518,0.313-0.938V150.534z M826.532,173.659l2.5-12.5h11.563l-2.5,14.375
		h7.188v10.313h-11.875C826.322,186.051,824.032,181.989,826.532,173.659z"/>
	<path fill="#FFFFFF" d="M852.157,112.096h11.25v67.5c-0.625,4.58-2.92,6.875-6.875,6.875h-4.375V112.096z M865.595,112.409h7.5
		v73.75h-7.5V112.409z M875.282,111.784h11.25v75h-11.25V111.784z M898.72,138.659v31.563h-9.063v-34.688c0-5,2.603-7.5,7.813-7.5
		h2.188l1.563-5.938h-12.188v-10h38.125v10h-13.125l-1.563,5.938h6.563c5,0,7.5,2.397,7.5,7.188v35h-8.125l9.375,15.938h-13.125
		l-5.938-9.688c-5.625,5.625-12.085,9.063-19.375,10.313v-11.563c6.25-1.875,10.518-4.893,12.813-9.063v-23.438h12.188v26.875h3.125
		v-26.25c0-3.125-1.46-4.688-4.375-4.688H898.72z"/>
</g>
<g opacity="0.5">
	<path fill="#FFFFFF" d="M789.657,256.477l1.016,6.211c-1.979,0.416-3.75,0.625-5.313,0.625c-2.553,0-4.531-0.404-5.938-1.211
		s-2.396-1.868-2.969-3.184c-0.573-1.314-0.859-4.082-0.859-8.301V226.75h-5.156v-5.469h5.156v-10.273l6.992-4.219v14.492h7.07
		v5.469h-7.07v24.258c0,2.006,0.123,3.295,0.371,3.867c0.247,0.573,0.65,1.029,1.211,1.367c0.56,0.339,1.36,0.508,2.402,0.508
		C787.353,256.75,788.381,256.66,789.657,256.477z"/>
	<path fill="#FFFFFF" d="M823.603,257.649c-2.604,2.214-5.111,3.776-7.52,4.688c-2.409,0.911-4.994,1.367-7.754,1.367
		c-4.558,0-8.061-1.113-10.508-3.34c-2.448-2.227-3.672-5.071-3.672-8.535c0-2.031,0.462-3.887,1.387-5.566
		c0.924-1.68,2.135-3.027,3.633-4.043c1.497-1.016,3.184-1.783,5.059-2.305c1.38-0.364,3.463-0.716,6.25-1.055
		c5.677-0.677,9.856-1.484,12.539-2.422c0.025-0.963,0.039-1.575,0.039-1.836c0-2.864-0.664-4.883-1.992-6.055
		c-1.797-1.588-4.467-2.383-8.008-2.383c-3.308,0-5.749,0.58-7.324,1.738c-1.576,1.159-2.741,3.21-3.496,6.152l-6.875-0.938
		c0.625-2.942,1.653-5.318,3.086-7.129c1.432-1.81,3.502-3.203,6.211-4.18c2.708-0.977,5.846-1.465,9.414-1.465
		c3.541,0,6.419,0.417,8.633,1.25c2.213,0.834,3.841,1.882,4.883,3.145c1.041,1.264,1.771,2.858,2.188,4.785
		c0.234,1.198,0.352,3.359,0.352,6.484v9.375c0,6.537,0.149,10.671,0.449,12.402c0.299,1.732,0.892,3.393,1.777,4.98h-7.344
		C824.279,261.308,823.811,259.602,823.603,257.649z M823.017,241.946c-2.553,1.042-6.381,1.928-11.484,2.656
		c-2.891,0.417-4.936,0.886-6.133,1.406c-1.198,0.521-2.123,1.283-2.773,2.285c-0.651,1.003-0.977,2.116-0.977,3.34
		c0,1.875,0.709,3.438,2.129,4.688c1.419,1.25,3.496,1.875,6.23,1.875c2.708,0,5.117-0.592,7.227-1.777
		c2.109-1.185,3.658-2.806,4.648-4.863c0.755-1.588,1.133-3.932,1.133-7.031V241.946z"/>
	<path fill="#FFFFFF" d="M841.063,213.586V205.5h7.031v8.086H841.063z M841.063,262.766v-41.484h7.031v41.484H841.063z"/>
	<path fill="#FFFFFF" d="M855.985,250.383l6.953-1.094c0.391,2.787,1.478,4.922,3.262,6.406c1.783,1.484,4.277,2.227,7.48,2.227
		c3.229,0,5.625-0.657,7.188-1.973c1.563-1.314,2.344-2.857,2.344-4.629c0-1.588-0.69-2.838-2.07-3.75
		c-0.964-0.625-3.359-1.419-7.188-2.383c-5.156-1.302-8.73-2.428-10.723-3.379c-1.992-0.95-3.503-2.266-4.531-3.945
		c-1.029-1.68-1.543-3.535-1.543-5.566c0-1.849,0.423-3.561,1.27-5.137c0.846-1.575,1.998-2.884,3.457-3.926
		c1.094-0.807,2.584-1.49,4.473-2.051c1.888-0.56,3.912-0.84,6.074-0.84c3.255,0,6.113,0.469,8.574,1.406s4.277,2.207,5.449,3.809
		s1.979,3.744,2.422,6.426l-6.875,0.938c-0.313-2.135-1.218-3.802-2.715-5c-1.498-1.197-3.613-1.797-6.348-1.797
		c-3.229,0-5.534,0.534-6.914,1.602c-1.381,1.068-2.07,2.318-2.07,3.75c0,0.912,0.286,1.732,0.859,2.461
		c0.572,0.756,1.471,1.381,2.695,1.875c0.703,0.261,2.773,0.859,6.211,1.797c4.974,1.328,8.443,2.416,10.41,3.262
		c1.966,0.847,3.509,2.077,4.629,3.691c1.119,1.615,1.68,3.62,1.68,6.016c0,2.344-0.684,4.551-2.051,6.621s-3.34,3.672-5.918,4.805
		s-5.495,1.699-8.75,1.699c-5.391,0-9.499-1.119-12.324-3.359C858.569,258.105,856.767,254.785,855.985,250.383z"/>
	<path fill="#FFFFFF" d="M898.798,262.766V205.5h7.031v20.547c3.281-3.802,7.422-5.703,12.422-5.703
		c3.072,0,5.742,0.605,8.008,1.816s3.887,2.885,4.863,5.02c0.977,2.136,1.465,5.234,1.465,9.297v26.289h-7.031v-26.289
		c0-3.516-0.762-6.074-2.285-7.676s-3.679-2.402-6.465-2.402c-2.084,0-4.043,0.541-5.879,1.621
		c-1.836,1.081-3.145,2.546-3.926,4.395c-0.781,1.85-1.172,4.401-1.172,7.656v22.695H898.798z"/>
	<path fill="#FFFFFF" d="M970.478,262.766v-6.094c-3.229,4.688-7.617,7.031-13.164,7.031c-2.448,0-4.733-0.469-6.855-1.406
		c-2.123-0.938-3.698-2.115-4.727-3.535c-1.029-1.419-1.752-3.157-2.168-5.215c-0.287-1.38-0.43-3.567-0.43-6.563v-25.703h7.031
		v23.008c0,3.672,0.143,6.146,0.43,7.422c0.442,1.85,1.38,3.301,2.813,4.355c1.432,1.055,3.203,1.582,5.313,1.582
		s4.088-0.54,5.938-1.621c1.849-1.08,3.157-2.552,3.926-4.414c0.768-1.861,1.152-4.563,1.152-8.105v-22.227h7.031v41.484H970.478z"
		/>
	<path fill="#FFFFFF" d="M987.782,262.766v-41.484h6.328v5.898c3.047-4.557,7.447-6.836,13.203-6.836c2.5,0,4.798,0.449,6.895,1.348
		c2.096,0.898,3.665,2.077,4.707,3.535c1.041,1.459,1.771,3.19,2.188,5.195c0.26,1.303,0.391,3.581,0.391,6.836v25.508h-7.031
		v-25.234c0-2.864-0.273-5.006-0.82-6.426c-0.547-1.419-1.518-2.552-2.91-3.398c-1.394-0.846-3.027-1.27-4.902-1.27
		c-2.995,0-5.58,0.951-7.754,2.852c-2.175,1.901-3.262,5.508-3.262,10.82v22.656H987.782z"/>
</g>
</svg>
