<?xml version="1.0" encoding="utf-8"?>
<!-- Generator: Adobe Illustrator 17.0.0, SVG Export Plug-In . SVG Version: 6.00 Build 0)  -->
<!DOCTYPE svg PUBLIC "-//W3C//DTD SVG 1.1//EN" "http://www.w3.org/Graphics/SVG/1.1/DTD/svg11.dtd">
<svg version="1.1" id="图层_1" xmlns="http://www.w3.org/2000/svg" xmlns:xlink="http://www.w3.org/1999/xlink" x="0px" y="0px"
	 width="58px" height="64px" viewBox="0 0 58 64" style="enable-background:new 0 0 58 64;" xml:space="preserve">
<g>
	<circle style="fill:#04233E;" cx="29" cy="29" r="29"/>
	<g style="opacity:0.3;">
		<linearGradient id="SVGID_1_" gradientUnits="userSpaceOnUse" x1="47.9261" y1="43.9102" x2="25.55" y2="5.1537">
			<stop  offset="0" style="stop-color:#09F9F8;stop-opacity:0.9"/>
			<stop  offset="9.928801e-002" style="stop-color:#09F0F6;stop-opacity:0.8106"/>
			<stop  offset="0.2614" style="stop-color:#09D8F1;stop-opacity:0.6648"/>
			<stop  offset="0.466" style="stop-color:#0AB0E9;stop-opacity:0.4806"/>
			<stop  offset="0.7052" style="stop-color:#0B79DD;stop-opacity:0.2653"/>
			<stop  offset="0.9707" style="stop-color:#0C33CF;stop-opacity:2.638108e-002"/>
			<stop  offset="1" style="stop-color:#0C2BCD;stop-opacity:0"/>
		</linearGradient>
		<path style="fill:url(#SVGID_1_);" d="M36.4,50.1c-0.3,0-0.6-0.2-0.7-0.5c-0.1-0.4,0.1-0.8,0.4-1c8.2-3,13.7-10.9,13.7-19.6
			c0-11.5-9.4-20.9-20.9-20.9c-4.2,0-8.2,1.2-11.7,3.6c-0.3,0.2-0.8,0.1-1-0.2c-0.2-0.3-0.1-0.8,0.2-1c3.7-2.5,8-3.8,12.5-3.8
			c12.3,0,22.4,10,22.4,22.4c0,9.4-5.9,17.8-14.7,21C36.6,50.1,36.5,50.1,36.4,50.1z"/>
	</g>
	<g style="opacity:0.3;">
		<linearGradient id="SVGID_2_" gradientUnits="userSpaceOnUse" x1="35.855" y1="15.1278" x2="20.8852" y2="41.0563">
			<stop  offset="0" style="stop-color:#09F9F8;stop-opacity:0.9"/>
			<stop  offset="9.928801e-002" style="stop-color:#09F0F6;stop-opacity:0.8106"/>
			<stop  offset="0.2614" style="stop-color:#09D8F1;stop-opacity:0.6648"/>
			<stop  offset="0.466" style="stop-color:#0AB0E9;stop-opacity:0.4806"/>
			<stop  offset="0.7052" style="stop-color:#0B79DD;stop-opacity:0.2653"/>
			<stop  offset="0.9707" style="stop-color:#0C33CF;stop-opacity:2.638108e-002"/>
			<stop  offset="1" style="stop-color:#0C2BCD;stop-opacity:0"/>
		</linearGradient>
		<path style="fill:url(#SVGID_2_);" d="M17.5,39c-0.1,0-0.3-0.1-0.4-0.2c-2.3-2.8-3.5-6.2-3.5-9.8c0-8.5,6.9-15.4,15.4-15.4
			c8.5,0,15.4,6.9,15.4,15.4c0,0.3-0.2,0.5-0.5,0.5s-0.5-0.2-0.5-0.5c0-8-6.5-14.4-14.4-14.4S14.6,21,14.6,29c0,3.3,1.2,6.6,3.3,9.2
			c0.2,0.2,0.1,0.5-0.1,0.7C17.7,39,17.6,39,17.5,39z"/>
	</g>
	<g style="opacity:0.3;">
		<linearGradient id="SVGID_3_" gradientUnits="userSpaceOnUse" x1="38.5459" y1="36.2" x2="21.7959" y2="19.4499">
			<stop  offset="0" style="stop-color:#09F9F8;stop-opacity:0.9"/>
			<stop  offset="9.928801e-002" style="stop-color:#09F0F6;stop-opacity:0.8106"/>
			<stop  offset="0.2614" style="stop-color:#09D8F1;stop-opacity:0.6648"/>
			<stop  offset="0.466" style="stop-color:#0AB0E9;stop-opacity:0.4806"/>
			<stop  offset="0.7052" style="stop-color:#0B79DD;stop-opacity:0.2653"/>
			<stop  offset="0.9707" style="stop-color:#0C33CF;stop-opacity:2.638108e-002"/>
			<stop  offset="1" style="stop-color:#0C2BCD;stop-opacity:0"/>
		</linearGradient>
		<path style="fill:url(#SVGID_3_);" d="M29,40.8c-0.3,0-0.5-0.2-0.5-0.5s0.2-0.5,0.5-0.5c6,0,10.8-4.9,10.8-10.8
			c0-6-4.9-10.8-10.8-10.8c-2.9,0-5.7,1.1-7.7,3.2c-0.2,0.2-0.5,0.2-0.7,0c-0.2-0.2-0.2-0.5,0-0.7c2.2-2.3,5.2-3.5,8.4-3.5
			c6.5,0,11.8,5.3,11.8,11.8S35.5,40.8,29,40.8z"/>
	</g>
	<g style="opacity:0.3;">
		<linearGradient id="SVGID_4_" gradientUnits="userSpaceOnUse" x1="26.4902" y1="9.668" x2="26.4902" y2="48.332">
			<stop  offset="0" style="stop-color:#09F9F8;stop-opacity:0.9"/>
			<stop  offset="9.928801e-002" style="stop-color:#09F0F6;stop-opacity:0.8106"/>
			<stop  offset="0.2614" style="stop-color:#09D8F1;stop-opacity:0.6648"/>
			<stop  offset="0.466" style="stop-color:#0AB0E9;stop-opacity:0.4806"/>
			<stop  offset="0.7052" style="stop-color:#0B79DD;stop-opacity:0.2653"/>
			<stop  offset="0.9707" style="stop-color:#0C33CF;stop-opacity:2.638108e-002"/>
			<stop  offset="1" style="stop-color:#0C2BCD;stop-opacity:0"/>
		</linearGradient>
		<path style="fill:url(#SVGID_4_);" d="M29,48.3C18.3,48.3,9.7,39.7,9.7,29C9.7,18.3,18.3,9.7,29,9.7c0.3,0,0.5,0.2,0.5,0.5
			s-0.2,0.5-0.5,0.5c-10.1,0-18.3,8.2-18.3,18.3S18.9,47.3,29,47.3c5.1,0,10-2.1,13.4-5.9c0.2-0.2,0.5-0.2,0.7,0
			c0.2,0.2,0.2,0.5,0,0.7C39.5,46.1,34.4,48.3,29,48.3z"/>
	</g>
	<linearGradient id="SVGID_5_" gradientUnits="userSpaceOnUse" x1="0" y1="32" x2="58" y2="32">
		<stop  offset="0" style="stop-color:#22A4C7"/>
		<stop  offset="0.5" style="stop-color:#09F9F8;stop-opacity:0.9"/>
		<stop  offset="0.5952" style="stop-color:#0CF0F3;stop-opacity:0.919"/>
		<stop  offset="0.7505" style="stop-color:#13D8E5;stop-opacity:0.9501"/>
		<stop  offset="0.9454" style="stop-color:#1EB0CE;stop-opacity:0.9891"/>
		<stop  offset="1" style="stop-color:#22A4C7"/>
	</linearGradient>
	<path style="fill:url(#SVGID_5_);" d="M58,29C58,13,45,0,29,0S0,13,0,29c0,13.5,9.3,24.9,21.8,28.1l7.1,6.9l7-6.8
		C48.6,54.1,58,42.6,58,29z M29,54.6C14.9,54.6,3.4,43.1,3.4,29C3.4,14.9,14.9,3.4,29,3.4c14.1,0,25.6,11.5,25.6,25.6
		C54.6,43.1,43.1,54.6,29,54.6z"/>
</g>
</svg>
