<?xml version="1.0" encoding="utf-8"?>
<!-- Generator: Adobe Illustrator 17.0.0, SVG Export Plug-In . SVG Version: 6.00 Build 0)  -->
<!DOCTYPE svg PUBLIC "-//W3C//DTD SVG 1.1//EN" "http://www.w3.org/Graphics/SVG/1.1/DTD/svg11.dtd">
<svg version="1.1" id="图层_1" xmlns="http://www.w3.org/2000/svg" xmlns:xlink="http://www.w3.org/1999/xlink" x="0px" y="0px"
	 viewBox="0 0 28 28" style="enable-background:new 0 0 28 28;" xml:space="preserve">
<path style="fill:#FFFFFF;" d="M14,14.9c5.2,0,9.5,4.3,9.5,9.5c0,0.7-0.1,1-0.1,1.2c-0.5-0.1-1.4-0.5-2.3-0.8
	c-1.9-0.8-4.3-1.8-7-1.8c-2.7,0-5.1,1-7,1.8c-0.9,0.4-1.9,0.8-2.5,0.9c-0.1-0.2-0.1-0.5-0.1-1.2C4.5,19.2,8.8,14.9,14,14.9 M14,13.4
	c-6.1,0-11,4.9-11,11c0,2,0.6,2.7,1.6,2.7c2,0,5.6-2.7,9.6-2.7c4,0,7.5,2.7,9.4,2.7c0.9,0,1.5-0.7,1.5-2.7
	C25,18.3,20.1,13.4,14,13.4L14,13.4z"/>
<path style="fill:#FFFFFF;" d="M14,2.4c3,0,5.5,2.5,5.5,5.5c0,3-2.5,5.5-5.5,5.5c-3,0-5.5-2.5-5.5-5.5C8.5,4.9,11,2.4,14,2.4
	 M14,0.9c-3.9,0-7,3.1-7,7c0,3.9,3.1,7,7,7c3.9,0,7-3.1,7-7C21,4,17.9,0.9,14,0.9L14,0.9z"/>
</svg>
