<?xml version="1.0" encoding="utf-8"?>
<!-- Generator: Adobe Illustrator 17.0.0, SVG Export Plug-In . SVG Version: 6.00 Build 0)  -->
<!DOCTYPE svg PUBLIC "-//W3C//DTD SVG 1.1//EN" "http://www.w3.org/Graphics/SVG/1.1/DTD/svg11.dtd">
<svg version="1.1" id="图层_1" xmlns="http://www.w3.org/2000/svg" xmlns:xlink="http://www.w3.org/1999/xlink" x="0px" y="0px"
	 viewBox="0 0 28 28" style="enable-background:new 0 0 28 28;" xml:space="preserve">
<g>
	<path style="fill:#fff;" d="M21.1,10.6c1.3,0,2.4,1.1,2.4,2.4v9.7c0,1.3-1.1,2.4-2.4,2.4H6.9c-1.3,0-2.4-1.1-2.4-2.4v-9.7
		c0-1.3,1.1-2.4,2.4-2.4H21.1 M21.1,9.1H6.9C4.8,9.1,3,10.9,3,13.1v9.7c0,2.2,1.8,3.9,3.9,3.9h14.1c2.2,0,3.9-1.8,3.9-3.9v-9.7
		C25,10.9,23.2,9.1,21.1,9.1L21.1,9.1z"/>
</g>
<g>
	<path style="fill:#fff;" d="M9.3,9.1H7.8V6.7c0-3,2.4-5.4,5.4-5.4h1.7c3,0,5.4,2.4,5.4,5.4v1.2h-1.5V6.7c0-2.2-1.8-3.9-3.9-3.9
		h-1.7c-2.2,0-3.9,1.8-3.9,3.9V9.1z"/>
</g>
</svg>
