<svg xmlns="http://www.w3.org/2000/svg" viewBox="0 0 21.51 15.74"><defs><style>.cls-1{fill:#fff;opacity:0.5;}</style></defs><title>9</title><g id="图层_2" data-name="图层 2"><g id="图层_1-2" data-name="图层 1"><g id="_编组_" data-name="&lt;编组&gt;"><path id="_路径_" data-name="&lt;路径&gt;" class="cls-1" d="M15,15.74H20.1a1.4,1.4,0,0,0,1.41-1.4V11.16H15Z"/><rect id="_路径_2" data-name="&lt;路径&gt;" class="cls-1" x="15.01" y="5.58" width="6.5" height="4.58"/><rect id="_路径_3" data-name="&lt;路径&gt;" class="cls-1" x="7.5" y="5.58" width="6.5" height="4.58"/><rect id="_路径_4" data-name="&lt;路径&gt;" class="cls-1" x="7.5" y="11.16" width="6.5" height="4.58"/><path id="_路径_5" data-name="&lt;路径&gt;" class="cls-1" d="M20.1,0H15V4.58h6.5V1.4A1.41,1.41,0,0,0,20.1,0Z"/><rect id="_路径_6" data-name="&lt;路径&gt;" class="cls-1" y="5.58" width="6.5" height="4.58"/><path id="_路径_7" data-name="&lt;路径&gt;" class="cls-1" d="M6.5,0H1.4A1.4,1.4,0,0,0,0,1.4V4.58H6.5Z"/><path id="_路径_8" data-name="&lt;路径&gt;" class="cls-1" d="M6.5,11.16H0v3.18a1.4,1.4,0,0,0,1.4,1.4H6.5Z"/><rect id="_路径_9" data-name="&lt;路径&gt;" class="cls-1" x="7.5" width="6.5" height="4.58"/></g></g></g></svg>